<?xml version="1.0" encoding="UTF-8" standalone="no"?>
<svg
   xmlns:dc="http://purl.org/dc/elements/1.1/"
   xmlns:cc="http://creativecommons.org/ns#"
   xmlns:rdf="http://www.w3.org/1999/02/22-rdf-syntax-ns#"
   xmlns:svg="http://www.w3.org/2000/svg"
   xmlns="http://www.w3.org/2000/svg"
   xmlns:sodipodi="http://sodipodi.sourceforge.net/DTD/sodipodi-0.dtd"
   xmlns:inkscape="http://www.inkscape.org/namespaces/inkscape"
   version="1.1"
   id="svg2"
   width="1044.5309"
   height="1337.2347"
   viewBox="0 0 1044.5309 1337.2347"
   sodipodi:docname="Alkarhelm.svg"
   inkscape:version="1.0.1 (3bc2e813f5, 2020-09-07)">
  <metadata
     id="metadata8">
    <rdf:RDF>
      <cc:Work
         rdf:about="">
        <dc:format>image/svg+xml</dc:format>
        <dc:type
           rdf:resource="http://purl.org/dc/dcmitype/StillImage" />
        <dc:title></dc:title>
      </cc:Work>
    </rdf:RDF>
  </metadata>
  <defs
     id="defs6" />
  <sodipodi:namedview
     pagecolor="#ffffff"
     bordercolor="#666666"
     borderopacity="1"
     objecttolerance="10"
     gridtolerance="10"
     guidetolerance="10"
     inkscape:pageopacity="0"
     inkscape:pageshadow="2"
     inkscape:window-width="1920"
     inkscape:window-height="1057"
     id="namedview4"
     showgrid="false"
     inkscape:zoom="0.69296465"
     inkscape:cx="655.3936"
     inkscape:cy="536.2994"
     inkscape:window-x="-8"
     inkscape:window-y="-8"
     inkscape:window-maximized="1"
     inkscape:current-layer="g10"
     inkscape:document-rotation="0"
     inkscape:pagecheckerboard="true" />
  <g
     inkscape:groupmode="layer"
     inkscape:label="Image"
     id="g10"
     transform="translate(-80.330148,-28.694829)">
    <path
       style="fill:#c9c9c9"
       d="m 613.2204,1196.8613 c -1.56053,-1.5605 -1.46932,-5.7562 0.3,-13.8 2.6081,-11.8571 1.42854,-20.6903 -3.16485,-23.7 -2.27354,-1.4897 -2.85753,-1.517 -5.12991,-0.2405 -1.93693,1.0881 -3.19317,3.3977 -5.13477,9.4405 -2.29207,7.1336 -2.83673,8 -5.02891,8 -2.62362,0 -3.00867,-0.7564 -6.46124,-12.6931 -1.15158,-3.9815 -2.25972,-5.8878 -3.68567,-6.3403 -8.15774,-2.5892 -12.47447,8.4496 -9.86468,25.2261 1.42502,9.1604 0.88563,11.5639 -2.71664,12.1052 -2.35711,0.3541 -7.69445,-4.7365 -10.27273,-9.7979 -2.06933,-4.0623 -6.98503,-24.0614 -7.76013,-31.5715 -0.99084,-9.6003 3.24626,-16.9666 14.62674,-25.4292 4.1604,-3.0937 7.09279,-6.0105 7.09279,-7.055 0,-4.1835 1.04745,-4.9434 6.85699,-4.9745 3.10365,-0.017 9.91801,-0.8691 15.14301,-1.8943 5.225,-1.0253 9.8375,-1.6601 10.25,-1.4108 0.4125,0.2493 0.75,1.5662 0.75,2.9264 0,4.428 2.7222,9.1361 7.26006,12.5565 12.29742,9.2691 18.99358,26.8099 16.64509,43.6024 -1.1643,8.3251 -4.5887,15.5587 -10.23688,21.6239 -4.31018,4.6284 -7.2149,5.6795 -9.46827,3.4261 z M 575.46475,988.69556 c -0.64622,-2.5747 1.07005,-10.2162 2.49192,-11.0949 0.48506,-0.2998 4.77381,0.3792 9.53055,1.509 4.98517,1.1839 11.01559,1.9264 14.23651,1.7528 6.98022,-0.3763 7.81939,1.1627 2.5393,4.6569 -4.39346,2.9075 -15.16869,5.4986 -22.97358,5.5245 -4.67332,0.015 -5.29424,-0.2348 -5.8247,-2.3483 z M 602.0204,852.17549 c -7.95996,-2.57352 -13.73095,-5.774 -15.62567,-8.66571 -1.38558,-2.11467 -1.54589,-4.10884 -0.98498,-12.25287 0.7793,-11.31491 -0.26957,-15.56526 -4.36351,-17.68232 -1.51653,-0.78423 -7.76102,-2.55538 -13.87664,-3.9359 -26.83283,-6.05716 -47.69436,-13.35936 -71.6492,-25.07952 -24.46438,-11.96947 -42.01221,-23.51146 -56.54498,-37.1922 -5.96841,-5.61849 -11.06752,-12.62509 -9.91116,-13.61875 0.58266,-0.50069 30.37905,0.87012 38.95614,1.79221 l 6.5,0.69878 14,14.29273 c 11.41481,11.65348 16.22479,15.74565 26.04827,22.16101 6.62655,4.32755 14.95155,9.31906 18.5,11.09224 16.76726,8.37868 44.32053,12.36449 50.42893,7.29497 2.77433,-2.3025 3.91043,-8.43934 3.89118,-21.01893 -0.0294,-19.19999 -3.29269,-28.57327 -12.01828,-34.52033 -3.74526,-2.55264 -20.32625,-8.14437 -26.61906,-8.97694 -3.34826,-0.443 -5.19501,-1.28215 -6.19913,-2.81685 -1.66671,-2.54739 -4.22831,-11.91652 -5.14271,-18.8096 -0.56428,-4.25372 -0.3646,-5.03398 1.73661,-6.7859 1.3058,-1.08874 4.01462,-3.35976 6.01959,-5.0467 7.08626,-5.96227 10.28761,-16.95483 11.37062,-39.04368 0.36405,-7.425 1.50888,-21.375 2.54407,-31 1.84817,-17.18392 3.67802,-40.29225 5.93894,-75 0.62698,-9.625 2.4372,-33.7 4.0227,-53.5 1.5855,-19.8 3.1527,-43.425 3.48266,-52.5 0.32997,-9.075 1.25031,-26.175 2.0452,-38 0.7949,-11.825 1.9215,-28.925 2.50356,-38 0.58206,-9.075 1.46046,-44.175 1.95201,-78 0.91155,-62.72665 1.40793,-70.67118 5.49835,-88 4.72076,-19.99921 17.29245,-50.64134 22.96217,-55.96776 l 2.53432,-2.38087 -9.6e-4,13.42432 c -5.2e-4,7.38337 -0.47912,129.23774 -1.06355,270.78749 -0.58444,141.54975 -0.79425,258.06249 -0.46627,258.91722 0.36044,0.93927 0.95569,1.19119 1.50472,0.63682 0.53452,-0.53972 1.36408,-112.64449 2.0156,-272.38226 0.60897,-149.30578 1.19794,-271.55155 1.30884,-271.65728 0.11089,-0.10573 2.57282,2.80353 5.47096,6.46504 14.35123,18.13134 22.81962,44.21004 26.67848,82.15728 3.05251,30.01782 3.57988,50.51938 4.10291,159.5 0.29035,60.5 0.97406,121.7 1.51935,136 1.97253,51.72859 5.7046,104.75781 9.00834,128 3.83532,26.98198 7.64443,35.97376 18.66807,44.06788 3.52348,2.58712 6.85636,5.88021 7.40641,7.31799 1.11355,2.91071 0.2961,16.72617 -1.29253,21.84475 -0.79553,2.56317 -1.76272,3.42596 -4.68152,4.17618 -36.33802,9.33991 -37.66596,10.41114 -41.64361,33.5932 -0.84934,4.95 -2.21722,11.20902 -3.03975,13.90893 -0.82252,2.69991 -1.49549,7.07704 -1.49549,9.72695 0,3.89803 0.42963,5.09626 2.25,6.27521 3.47728,2.25204 13.20369,2.88321 24.75,1.60609 21.84178,-2.4159 34.65304,-6.6124 48.75304,-15.96973 9.28782,-6.16378 14.26491,-10.97942 26.59749,-25.73471 4.22332,-5.053 8.45968,-9.42406 9.41412,-9.71348 2.35791,-0.71499 16.68917,-2.32123 28.11045,-3.1506 l 9.37509,-0.68079 -1.87509,3.31715 c -1.03131,1.82443 -7.5001,9.006 -14.3751,15.95905 -18.34845,18.55674 -31.42118,27.64488 -52.5,36.49789 -20.49868,8.60936 -46.44504,15.01496 -66.65588,16.45591 -6.41073,0.45706 -12.59357,1.33286 -13.73965,1.94622 -3.62968,1.94254 -5.20856,6.69191 -6.11623,18.39799 -1.03589,13.35958 -2.25475,17.22726 -6.047,19.1883 -3.81118,1.97084 -13.16181,1.77572 -19.94124,-0.41612 z"
       id="path28"
       sodipodi:nodetypes="ssssssscsssssscsssssssssssscsssssssssscssssssssssssssssssssscsssssssssssssssssssssssscssssssss" />
    <path
       style="fill:#b7560f"
       d="m 598.5204,1350.4272 c -1.1,-0.2935 -8.525,-2.1102 -16.5,-4.037 -14.18113,-3.4263 -43.32179,-12.5579 -45.43521,-14.2378 -0.58563,-0.4655 -2.18979,-1.1695 -3.56479,-1.5645 -9.88481,-2.8396 -55.24625,-26.5228 -80.49363,-42.0257 -38.40843,-23.5844 -81.22471,-56.0015 -114.98772,-87.0596 -31.22519,-28.7235 -71.38089,-71.776 -90.05297,-96.5493 -1.08112,-1.4344 -5.16475,-6.8344 -9.07472,-12 -14.97415,-19.7829 -42.39096,-59.5156 -42.39096,-61.4334 0,-0.241 -1.93799,-3.4802 -4.30663,-7.1984 -4.3013,-6.7518 -19.26764,-33.52674 -26.13752,-46.76024 -8.80951,-16.96983 -21.37418,-45.62073 -27.62824,-63.00003 -2.17713,-6.05 -4.39322,-11.9 -4.92464,-13 -2.13926,-4.42816 -9.57279,-28.27407 -14.18379,-45.5 -5.38292,-20.10968 -10.39767,-45.96338 -13.38367,-69 -2.3577,-18.18931 -3.44278,-73.54699 -7.007496,-357.5 -0.84236,-67.1 -1.97989,-153.95 -2.52784,-193 -0.54795,-39.05 -0.83662,-73.5435 -0.64148,-76.65223 0.55016,-8.76473 3.30381,-11.60035 18.286026,-18.83034 6.85824,-3.30958 12.67799,-6.01743 12.93277,-6.01743 0.25478,0 2.83908,-1.08362 5.74287,-2.40805 2.9038,-1.32443 9.32964,-4.05466 14.27964,-6.06718 4.95,-2.01252 10.35,-4.25384 12,-4.98072 1.65,-0.72687 4.125,-1.64669 5.5,-2.04405 1.375,-0.39736 3.85,-1.33092 5.5,-2.0746 8.13278,-3.66553 57.84216,-20.516835 71.5,-24.238245 1.925,-0.52452 8.9,-2.53641 15.5,-4.47088 6.6,-1.93448 18.75,-5.14563 27,-7.13591 8.25,-1.99028 17.475,-4.29611 20.5,-5.12407 9.99569,-2.73585 43.71277,-9.5045 64.24658,-12.89739 8.11061,-1.34015 15.08561,-2.64207 15.5,-2.89314 0.41438,-0.25108 6.82842,-1.1913 14.25342,-2.08937 7.425,-0.89808 15.3,-2.07256 17.5,-2.60997 3.48438,-0.85114 21.17021,-2.973083 50.5,-6.058973 8.36645,-0.880264 33.06644,-2.854531 64.5,-5.155476 20.38909,-1.492488 161.96722,-1.485097 179,0.0093 6.6,0.579078 22.0036,1.780846 34.23021,2.670596 12.22662,0.889749 25.72662,2.011313 30,2.492363 4.27339,0.48105 16.54479,1.811015 27.26979,2.955478 10.725,1.144472 20.625,2.317202 22,2.606092 1.375,0.28888 10.375,1.63879 20,2.9998 70.90877,10.02676 139.77597,25.592 197,44.525585 14.2132,4.70271 36.8097,12.68053 39.5,13.94571 1.1,0.51731 6.6821,2.84825 12.4047,5.17987 11.4942,4.68317 16.6303,8.79955 17.5911,14.09844 0.7942,4.37975 -0.6151,131.92666 -4.544,411.26475 -0.5724,40.7 -1.4594,107.075 -1.9711,147.5 -0.6328,50.00168 -1.3859,77.97587 -2.3555,87.5 -1.8887,18.55298 -5.4234,44.254 -6.6015,48 -0.5189,1.65 -1.4526,6.15 -2.0749,10 -3.7931,23.46617 -20.9517,80.84363 -29.9764,100.2391 -1.0848,2.33151 -1.9724,4.4937 -1.9724,4.80487 0,0.31116 -0.8471,2.45357 -1.8824,4.76089 -1.0354,2.30733 -3.3441,7.57018 -5.1305,11.69518 -5.0903,11.75393 -15.9112,33.23713 -24.9661,49.56627 -54.20183,97.7442 -138.52763,187.3593 -240.021,255.076 -32.89311,21.9464 -70.84629,43.5071 -97.5,55.3885 -2.75,1.2258 -9.275,4.2478 -14.5,6.7155 -19.07907,9.0107 -30.73693,13.7875 -44.5,18.234 -8.06746,2.6064 -12.02917,3.2973 -20.5,3.5752 -5.775,0.1894 -11.4,0.1041 -12.5,-0.1895 z m 28.17616,-28.8315 c 14.00942,-4.8244 18.67035,-6.7375 35.69245,-14.65 49.37254,-22.9503 77.23044,-38.4239 114.42101,-63.5551 74.54618,-50.3739 136.69085,-109.8711 187.83135,-179.8293 57.28173,-78.35924 96.34343,-172.47384 107.91163,-260.00007 4.1387,-31.31398 4.539,-39.6352 5.461,-113.5 0.5046,-40.425 1.3858,-106.8 1.9582,-147.5 2.3553,-167.4579 4.4133,-334.93284 4.4786,-364.45917 l 0.07,-31.45918 -8.5,-3.36809 c -17.8603,-7.07708 -46.3929,-16.9779 -65,-22.55502 -8.0012,-2.39821 -18.33363,-5.3047 -34.50003,-9.70489 -18.4424,-5.01965 -65.6353,-15.480955 -83.247,-18.453445 -5.0859,-0.85839 -9.8109,-1.76774 -10.5,-2.02079 -1.4802,-0.54352 -22.5289,-3.78754 -42.25297,-6.51204 -7.7,-1.06361 -16.7,-2.41024 -20,-2.99252 -3.3,-0.58228 -14.325,-1.95628 -24.5,-3.05333 -10.175,-1.09706 -22.325,-2.42742 -27,-2.95637 -4.675,-0.52895 -18.175,-1.65782 -30,-2.50858 -11.825,-0.85077 -27.125,-2.0427 -34,-2.64874 -17.374,-1.53153 -148.67322,-1.57218 -169.5,-0.0525 -32.81296,2.39433 -55.27751,4.19502 -64.5,5.17014 -27.30422,2.88694 -45.97805,5.13174 -50,6.01053 -2.475,0.54079 -10.31641,1.69863 -17.42536,2.57297 -7.10894,0.87435 -13.21823,1.77072 -13.57618,1.99195 -0.35795,0.22123 -5.34154,1.12464 -11.07464,2.00757 -29.61771,4.56134 -85.6698,17.062885 -114.92382,25.631955 -5.775,1.69162 -12.075,3.50872 -14,4.038 -13.32026,3.66248 -60.64102,19.67484 -70,23.68656 -1.375,0.58939 -7.675,3.07182 -14,5.51651 -12.15628,4.69856 -33.28935,13.75459 -41.24851,17.676 l -4.7485,2.33954 0.50362,52.05146 c 0.27698,28.6283 0.95461,69.15146 1.50583,90.05146 0.55122,20.9 1.48115,86.15 2.06652,145 2.19515,220.69127 3.9119,309.84037 6.31631,328 3.18033,24.01978 7.70072,47.911 12.10927,64 6.95383,25.37802 9.17989,32.31042 18.7849,58.5 14.93644,40.72659 34.82973,79.87165 64.0325,126.00009 8.51454,13.4495 21.69429,31.87 42.14374,58.9016 18.39,24.3093 56.54555,65.3269 86.12345,92.5835 50.91135,46.9158 110.44584,87.937 167.43634,115.3693 26.69758,12.8508 43.67509,19.0415 70.09149,25.5583 17.10015,4.2186 21.04119,4.1212 35.5592,-0.8783 z M 566.5204,1103.6828 c -2.2,-0.7594 -6.475,-2.4906 -9.5,-3.847 -3.025,-1.3564 -7.75,-3.0136 -10.5,-3.6825 -2.75,-0.6689 -12.425,-5.0893 -21.5,-9.8231 -11.05217,-5.7651 -18.43844,-8.9728 -22.37101,-9.7154 l -5.871,-1.1086 -2.18724,-6.0405 c -1.20298,-3.3223 -3.88174,-9.1234 -5.95279,-12.8912 -4.99351,-9.0845 -7.56581,-19.4999 -8.29627,-33.5918 -0.91236,-17.6013 -0.51177,-19.049 8.7474,-31.61424 4.38002,-5.944 9.59743,-14.065 11.59424,-18.0468 l 3.63056,-7.23963 11.07302,-5.664 11.07303,-5.664 4.03003,2.3053 c 2.21652,1.2679 6.83566,3.8384 10.26477,5.7124 l 6.23473,3.4071 -0.15805,5.73463 c -0.4089,14.8367 16.78231,31.19974 32.68858,31.11384 14.75394,-0.08 49.6989,-10.37774 57.75,-17.01854 4.3139,-3.5582 4.65199,-5.7942 1.70695,-11.289 -2.37323,-4.4279 -1.83114,-7.40103 1.502,-8.23763 4.96462,-1.246 13.87574,6.65173 17.13522,15.18653 3.91263,10.2451 -1.96457,17.574 -23.09417,28.79854 -17.59336,9.346 -20.07898,11.8723 -15.84614,16.1051 2.31799,2.318 6.78636,1.3102 18.33325,-4.135 10.32738,-4.87 13.29729,-5.0407 15.19615,-0.8731 2.28362,5.012 -6.59409,14.2442 -20.18326,20.9891 -8.83112,4.3833 -12,7.0399 -12,10.0599 0,5.6437 5.8474,5.6422 17.73766,0 5.77968,-2.7447 7.85009,-3.3032 9.32305,-2.5149 2.69688,1.4433 4.08979,4.5197 3.36106,7.4232 -1.23388,4.9162 -12.06576,12.7534 -22.09481,15.9863 -5.9276,1.9108 -7.61646,3.4992 -7.15372,6.7279 0.76511,5.3386 9.65558,5.9775 18.78734,1.3501 6.7495,-3.4203 8.03942,-3.291 8.03942,0.8057 0,4.9467 -3.41905,7.4748 -14.69299,10.8642 -32.1109,9.6539 -57.55159,13.6263 -66.80701,10.4316 z m -153,-12.4854 c -9.2035,-4.1877 -18.15375,-16.7049 -22.9661,-32.1189 -4.30852,-13.8003 -5.49622,-25.6662 -5.50689,-55.0172 -0.0151,-41.51687 3.62823,-66.13748 10.94618,-73.97137 5.313,-5.68758 8.8567,-4.20919 26.24836,10.95051 4.80506,4.1884 13.4613,10.46505 19.2361,13.94809 6.36639,3.8399 10.24421,6.7737 9.85081,7.4528 -0.35685,0.6159 -1.86241,2.9199 -3.34569,5.1199 -9.03014,13.39353 -13.82686,29.24983 -14.6718,48.50007 -0.80741,18.3952 1.17298,29.6937 9.30164,53.0671 0.3846,1.1059 -0.63095,2.0974 -3.45059,3.3689 -4.65007,2.0968 -7.52041,5.0273 -12.0906,12.3436 -3.20984,5.1386 -6.43751,8.243 -8.52393,8.1984 -0.56512,-0.012 -2.82749,-0.8409 -5.02749,-1.8419 z m 58.69131,-10.8122 c -7.25975,-3.5777 -15.28028,-17.6201 -19.43241,-34.0226 -2.98765,-11.8023 -3.2201,-38.2062 -0.42522,-48.30134 2.49084,-8.9968 7.8876,-19.6326 13.49156,-26.5887 5.00632,-6.21433 8.87987,-8.17983 16.42476,-8.33443 2.97138,-0.061 3.75,0.2964 3.75,1.7211 0,0.9889 -4.4664,8.05273 -9.92533,15.69743 -5.893,8.2526 -10.46349,15.7491 -11.25,18.4521 -0.86061,2.95764 -1.29372,9.80734 -1.23633,19.55254 0.1168,19.8342 2.29696,29.566 10.41738,46.5009 3.29685,6.8755 5.99428,13.513 5.99428,14.75 0,2.7586 -2.93645,2.9741 -7.80869,0.573 z M 596.27008,967.94203 c -11.78276,-1.432 -30.74984,-7.6042 -48.62392,-15.82297 -8.75179,-4.02422 -10.92781,-6.18677 -9.95779,-9.89616 0.73902,-2.826 1.72711,-2.73598 8.85749,0.80695 7.47782,3.71556 13.16909,4.02489 14.37669,0.78138 1.73893,-4.67063 0.73847,-5.63456 -18.26785,-17.60095 -5.94537,-3.7432 -8.6343,-7.47466 -8.6343,-11.98191 0,-3.08015 2.1742,-6.16714 4.34358,-6.16714 0.6604,0 2.76576,1.28093 4.67858,2.84651 5.18778,4.24605 7.37902,5.15349 12.44432,5.15349 3.85339,0 4.73362,-0.36436 5.43567,-2.25 1.29831,-3.48718 -0.15459,-5.97418 -5.4931,-9.40279 -8.87943,-5.70274 -17.54956,-12.80059 -18.99154,-15.54755 -3.10787,-5.92046 -0.45128,-12.79966 4.94294,-12.79966 1.29825,0 4.11075,1.20952 6.25,2.68782 12.47968,8.6239 13.73374,9.31218 16.96699,9.31218 2.45154,0 3.80312,-0.65118 4.93403,-2.37717 2.11776,-3.2321 0.50654,-6.60818 -4.645,-9.73296 -8.39077,-5.0896 -11.91245,-7.60837 -19.18388,-13.72065 -7.54803,-6.34477 -10.68259,-10.86324 -10.68259,-15.3989 0,-5.02103 9.23728,-15.83756 19.22779,-22.51509 3.85143,-2.57425 10.12973,-3.27379 13.32639,-1.48485 1.34757,0.75414 1.02177,1.35928 -2.05291,3.81301 -8.33407,6.65096 -10.50127,9.16497 -10.50127,12.18175 0,6.66794 5.73998,10.29128 30.5444,19.281 21.48037,7.78502 27.36991,8.46343 39.8079,4.58546 9.51974,-2.9681 19.3968,-9.08773 24.00299,-14.87176 3.63275,-4.56167 4.76198,-12.81385 2.40106,-17.54642 l -1.47688,-2.96049 9.79459,-2.62646 c 11.9781,-3.21199 14.30573,-3.24303 19.52111,-0.26035 10.0375,5.74046 15.1301,10.37936 16.81139,15.31367 0.89599,2.6296 2.99005,6.47463 4.65346,8.54452 5.31229,6.61044 6.36424,10.83429 6.29486,25.27569 -0.053,11.04018 -0.46383,14.3568 -2.72493,22 -2.52182,8.52452 -4.22167,12.25121 -14.82423,32.5 -2.44789,4.675 -4.71347,9.5125 -5.0346,10.75 -0.47926,1.84685 -1.27972,2.25 -4.4674,2.25 -2.13594,0 -6.48809,0.6784 -9.67145,1.50756 -6.81835,1.77596 -28.14636,10.74484 -41.71385,17.54164 -15.11705,7.5731 -21.73722,9.1601 -32.66874,7.8316 z m -2.7485,-34.88271 c 0.34057,-0.55105 0.3047,-5.28656 -0.0797,-10.52336 -0.63721,-8.68076 -0.8636,-9.46918 -2.56414,-8.92945 -1.02587,0.3256 -3.10095,0.72375 -4.61128,0.88478 -3.22261,0.34358 -3.72039,2.93079 -0.6483,3.36954 1.74266,0.24888 2.40513,1.6454 3.91358,8.25 1.73627,7.6021 2.62709,9.15349 3.98985,6.94849 z m 22.49882,-3.83909 c 0,-5.57163 -5.27112,-34.43924 -6.57498,-36.00828 -0.15964,-0.19211 -2.09306,-0.0447 -4.29649,0.32756 -2.89458,0.48904 -3.85477,1.07155 -3.46039,2.09929 0.30021,0.78233 1.15535,1.42243 1.9003,1.42243 1.43685,0 1.57068,0.41653 6.50629,20.25 2.14508,8.61988 3.61867,12.75 4.54907,12.75 0.75691,0 1.3762,-0.37845 1.3762,-0.841 z m 34.07389,-17.27502 c -0.58198,-4.61119 -2.0539,-12.90296 -3.27092,-18.42615 l -2.21277,-10.04217 -8.81471,2.04217 c -6.60774,1.53087 -8.74465,2.41773 -8.53489,3.54217 0.15391,0.825 1.18328,1.63011 2.2875,1.78913 1.63429,0.23537 2.34044,1.76966 3.79698,8.25 2.72701,12.13277 5.1614,10.23304 4.04476,-3.15641 -0.54213,-6.50068 -0.40476,-7.88272 0.78352,-7.88272 1.01596,0 2.5727,4.34999 5.2786,14.75 4.75052,18.25839 5.33493,19.88311 6.67122,18.54682 0.70515,-0.70515 0.69593,-3.66674 -0.0293,-9.41284 z m 22.38425,-2.63398 c -0.42617,-3.7125 -0.88032,-7.93777 -1.00923,-9.38949 -0.12891,-1.45171 -1.22253,-6.97712 -2.43027,-12.27868 l -2.19589,-9.6392 -3.66137,0.66002 c -2.01376,0.36302 -3.97923,0.84034 -4.36771,1.06071 -1.16391,0.66027 0.22068,3.1071 2.0255,3.57946 1.24668,0.32629 2.55716,4.03244 5.07357,14.34855 3.99151,16.36329 4.68027,18.40863 6.19901,18.40863 0.81881,0 0.92232,-1.90709 0.36639,-6.75 z m -8.89518,-5.16951 0.063,-10.25148 -4.56296,0.68287 c -2.50963,0.37557 -4.88081,0.87846 -5.26929,1.11752 -1.19108,0.73296 0.23798,3.14561 2.1611,3.64852 1.33096,0.34805 2.29805,2.51801 3.61856,8.1193 1.01019,4.28498 2.26896,7.48839 2.86441,7.28952 0.65187,-0.2177 1.08658,-4.3153 1.12522,-10.60625 z m -60.81861,6.66951 c -0.0243,-1.2375 0.3164,-4.22836 0.75699,-6.64636 l 0.80108,-4.39636 -2.76787,0.69469 c -1.52233,0.38208 -4.06538,0.9542 -5.65121,1.27136 -4.09615,0.81923 -3.7182,4.111 0.39449,3.43582 0.82613,-0.13563 1.19311,0.73871 2.1577,5.14085 0.76574,3.49466 4.37569,3.91356 4.30882,0.5 z m 19.89055,0.25 c 0.6792,0 2.39138,-0.43969 3.80485,-0.97709 l 2.56995,-0.9771 -2.88896,-4.7729 c -1.58893,-2.6251 -3.47586,-6.44479 -4.19318,-8.48819 -1.1725,-3.34002 -3.50179,-5.54383 -4.64801,-4.3976 -0.23881,0.2388 0.52601,3.85613 1.69958,8.03851 1.93109,6.88198 1.98593,7.75217 0.57732,9.16077 -0.85605,0.85605 -1.55645,1.89931 -1.55645,2.31836 0,1.47436 1.378,2.11724 2.38333,1.11191 0.55917,-0.55917 1.57238,-1.01667 2.25157,-1.01667 z m 59.8651,-24.85574 v -10.18841 l -3,0.68256 c -1.65,0.37541 -3.9,0.75995 -5,0.85455 -2.90539,0.24984 -3.08511,3.14337 -0.2396,3.85755 1.99557,0.50086 2.63668,1.76409 4.14732,8.17187 2.52324,10.70305 4.09228,9.40783 4.09228,-3.37812 z m 72.19469,70.83024 c -1.41626,-1.114 -4.68464,-5.19884 -7.26305,-9.07732 -2.92045,-4.39299 -5.89903,-7.62929 -7.89991,-8.58344 l -3.21189,-1.53164 3.76197,-8.72597 c 8.49696,-19.70888 11.20066,-32.62714 11.20891,-53.55613 0.007,-17.39889 -2.25636,-30.15221 -7.73722,-43.59938 -0.50575,-1.24086 2.16915,-3.22545 11.93274,-8.85328 6.92154,-3.98964 16.59095,-10.35019 21.48758,-14.13456 11.88151,-9.18263 16.40349,-11.51753 19.53904,-10.08887 8.27849,3.77193 10.1353,25.13272 7.01284,80.67609 -1.67967,29.87846 -3.00701,36.61467 -10.04793,50.99295 -10.10808,20.64172 -29.43253,33.83665 -38.78308,26.48155 z m -52.23687,-16.66248 c 0.37106,-1.47839 3.14865,-6.83376 6.17244,-11.90083 18.26349,-30.60477 21.32424,-67.2763 7.36047,-88.18722 -2.1949,-3.28689 -3.99073,-6.43377 -3.99073,-6.99308 0,-2.63385 5.63427,-2.39504 11.33789,0.48058 6.51652,3.28546 10.91433,19.73601 11.03787,41.28853 0.11928,20.80884 -3.35514,35.53721 -12.50268,53 -6.10806,11.66038 -9.71574,15 -16.20399,15 -3.71809,0 -3.85677,-0.11608 -3.21127,-2.68798 z"
       id="path24" />
    <path
       style="fill:#325c27"
       d="m 594.06513,1312.3312 c -15.3714,-3.6578 -35.93588,-10.185 -48.02406,-15.2428 -57.88996,-24.2218 -129.14295,-71.6709 -185.20232,-123.3308 -29.32048,-27.0195 -67.03288,-67.5782 -85.35267,-91.7947 -20.44945,-27.0316 -33.6292,-45.4521 -42.14374,-58.9016 -28.95193,-45.73224 -47.28422,-81.78655 -62.0325,-122.00007 -9.60501,-26.18958 -11.83107,-33.12198 -18.7849,-58.5 -4.40036,-16.0591 -8.90256,-39.84111 -12.11592,-64 -2.30558,-17.33396 -3.32132,-69.35053 -6.99074,-358 -0.86698,-68.2 -1.94017,-151.675 -2.38486,-185.5 -0.44469,-33.825 -0.51181,-61.82023 -0.14915,-62.21162 0.92588,-0.99925 24.38678,-11.09254 38.13613,-16.40684 6.325,-2.44469 12.625,-4.92712 14,-5.51651 9.35898,-4.01172 56.67974,-20.02408 70,-23.68656 1.925,-0.52928 8.225,-2.34638 14,-4.038 29.25402,-8.56907 85.30611,-21.07061 114.92382,-25.631955 5.7331,-0.88293 10.71669,-1.78634 11.07464,-2.00757 0.35795,-0.22123 6.46724,-1.1176 13.57618,-1.99195 7.10895,-0.87434 14.95036,-2.03218 17.42536,-2.57297 4.02195,-0.87879 22.69578,-3.12359 50,-6.01053 9.25355,-0.9784 32.04101,-2.80413 64.5,-5.16772 20.72546,-1.50918 146.17943,-1.46793 163.5,0.0538 6.875,0.604 22.175,1.79427 34,2.64504 11.825,0.85076 25.325,1.97963 30,2.50858 4.675,0.52895 16.825,1.85931 27,2.95637 10.175,1.09705 21.2,2.47105 24.5,3.05333 3.3,0.58228 12.3,1.92891 20,2.99252 19.7241,2.7245 40.77277,5.96852 42.25297,6.512045 0.6891,0.25305 5.4141,1.1624 10.5,2.02079 17.6117,2.97249 64.8046,13.43379 83.247,18.45344 27.16203,7.39297 37.66733,10.48817 54.50003,16.05758 11.9027,3.93823 32.7699,11.39193 41.5,14.82371 l 5,1.96548 -0.073,26.34979 c -0.071,25.43801 -2.3269,206.61769 -4.4751,359.34979 -0.5724,40.7 -1.4536,107.075 -1.9582,147.5 -0.922,73.8648 -1.3223,82.18602 -5.461,113.5 -9.4033,71.14626 -38.1276,149.95872 -78.35993,215.00003 -62.1789,100.5213 -152.30895,186.223 -263.17267,250.2422 -27.20298,15.7086 -72.77386,37.2514 -96,45.3822 -14.1022,4.9368 -14.89899,4.9663 -30.95527,1.1455 z m 32.00919,-99.7978 c 7.42756,-3.8409 17.26951,-16.4576 21.0403,-26.9721 2.99862,-8.3614 3.73035,-26.3149 1.46612,-35.9724 -2.64925,-11.2996 -7.89267,-20.9698 -15.69321,-28.9423 -3.77692,-3.8602 -6.86713,-7.2649 -6.86713,-7.566 0,-0.3011 4.6125,-1.8273 10.25,-3.3914 5.6375,-1.5642 11.87741,-3.6739 13.86647,-4.6881 12.13274,-6.1869 17.32452,-17.8366 13.54055,-30.3831 -1.05769,-3.507 -0.93854,-4.4386 1.07685,-8.4195 3.19487,-6.3107 3.11235,-15.115 -0.1959,-20.9012 l -2.43793,-4.264 3.15865,-5.0812 c 4.15467,-6.6835 4.96559,-15.5976 1.95309,-21.4695 l -2.00076,-3.8999 2.91555,-3.6812 c 7.57384,-9.56284 9.25149,-21.96614 4.40343,-32.55564 -1.43529,-3.1351 -3.74105,-7.18363 -5.1239,-8.99663 l -2.51427,-3.2964 2.80408,-1.0822 c 1.54225,-0.5952 5.68011,-1.7987 9.19525,-2.6743 5.89662,-1.469 7.17335,-1.4606 16.5,0.1075 5.55986,0.9349 11.55561,1.6902 13.32389,1.6786 4.42111,-0.029 12.14348,-2.7438 15.94235,-5.6043 4.42167,-3.32939 8.2589,-1.89934 12.23269,4.5589 10.23881,16.64023 24.49566,20.71113 42.57293,12.15653 12.83214,-6.07263 23.10777,-17.19223 31.07944,-33.63233 6.69734,-13.81201 9.41178,-24.53858 10.50189,-41.5 3.70134,-57.59061 3.69358,-74.88482 -0.0402,-89.48357 -4.37843,-17.1195 -13.37269,-25.39695 -26.42053,-24.31493 -6.86747,0.56951 -11.96385,3.18717 -24.58367,12.62696 -5.775,4.31978 -16.50906,11.31869 -23.85346,15.55314 l -13.35346,7.69899 -7.4012,-1.85753 -7.4012,-1.85753 7.75466,-3.39858 c 21.38578,-9.37261 35.18479,-18.94998 53.2617,-36.96695 18.15564,-18.09543 20.64903,-21.92624 24.63857,-37.85442 1.74142,-6.95257 3.01847,-12.88009 2.8379,-13.17226 -0.48163,-0.77929 -36.95889,1.72562 -51.44772,3.53294 -14.69993,1.83365 -18.4947,3.62984 -25.74281,12.18493 -13.27588,15.66979 -18.95802,21.77955 -23.17204,24.91586 -6.69572,4.98333 -19.6163,11.08303 -27.12094,12.80358 -6.63357,1.52085 -23.11101,3.81169 -23.63653,3.28617 -0.15976,-0.15976 0.61043,-5.4444 1.71153,-11.74364 1.37776,-7.88191 2.53568,-11.85682 3.7135,-12.74772 1.74454,-1.31955 12.43341,-4.69892 24.31379,-7.687 14.44845,-3.63399 17.82012,-8.50332 19.95287,-28.8158 1.81483,-17.28462 -1.032,-25.10407 -12.00593,-32.97686 -9.37136,-6.7231 -10.79971,-10.2826 -14.51261,-36.16576 -2.3568,-16.4296 -3.56921,-31.77051 -7.59171,-96.06002 -0.5506,-8.8 -1.40076,-70.9 -1.88924,-138 -1.04229,-143.17297 -1.61275,-162.79824 -5.66817,-195 -3.21522,-25.53026 -9.09245,-47.97145 -16.38119,-62.54874 -4.73048,-9.46084 -13.05818,-21.57777 -19.72576,-28.70126 -5.51186,-5.88875 -6.11223,-6.25 -10.38713,-6.25 -7.8133,0 -13.26226,2.55095 -19.23945,9.00704 -11.39453,12.30745 -24.70671,46.28299 -30.17637,77.01658 -2.04236,11.47585 -3.43987,45.71822 -3.46052,84.79123 -0.0181,34.19576 -1.11531,63.82369 -3.58064,96.68515 -0.82523,11 -1.92665,30.8 -2.4476,44 -0.52094,13.2 -2.07209,37.725 -3.447,54.5 -1.37491,16.775 -3.64999,47.825 -5.05574,69 -1.40574,21.175 -3.43685,46.375 -4.51356,56 -1.07671,9.625 -2.4269,25.34194 -3.00042,34.92653 -0.9276,15.50188 -1.81443,22.51669 -3.58375,28.34729 -0.29605,0.97561 -2.92775,3.53904 -5.84822,5.69652 -7.41109,5.47489 -10.0316,11.08476 -9.8235,21.02966 0.16408,7.8405 3.9549,23.01103 7.09511,28.39398 2.95414,5.06398 8.20561,8.45417 15.69789,10.13408 12.19621,2.73463 20.44935,5.53031 22.98337,7.78541 2.67873,2.38388 4.48526,10.5892 4.49943,20.43653 l 0.008,5.25 h -3.81166 c -5.48925,0 -18.70853,-3.59593 -25.68834,-6.98779 -14.73784,-7.16188 -27.31418,-16.65576 -42.37785,-31.99103 -17.02909,-17.33613 -17.01699,-17.33019 -38.62215,-18.9432 -20.80486,-1.55326 -53.5,-2.42999 -53.5,-1.43461 0,0.49408 1.28245,6.15561 2.84988,12.58118 3.49352,14.32142 6.93026,20.35898 17.15012,30.12881 22.12808,21.15368 58.99888,42.32867 95.95398,55.1066 5.74969,1.98807 10.6466,3.80728 10.88201,4.0427 0.23542,0.23542 -1.9056,2.9814 -4.75782,6.10219 -7.65986,8.3811 -10.44219,14.40228 -10.40185,22.5104 0.0266,5.34908 0.62369,7.79751 3.11955,12.79216 l 3.08664,6.17691 -2.43965,3.59502 c -4.91518,7.24292 -5.49993,15.77691 -1.68109,24.53431 1.76909,4.0569 1.76337,4.12792 -0.73945,9.1852 -3.75943,7.59642 -3.55603,16.25333 0.55452,23.60115 2.92809,5.23412 3.00795,5.6692 1.65198,9 -1.25842,3.09117 -2.79212,4.15678 -13.13003,9.12269 l -11.70516,5.62269 -3.75567,-1.92678 c -5.74298,-2.94632 -12.05726,-3.23688 -20.63796,-0.94969 l -7.5,1.99913 -12.5,-7.48536 c -7.4589,-4.46661 -16.89766,-11.29672 -23.40451,-16.93607 -5.99748,-5.19789 -13.42248,-10.68521 -16.5,-12.19404 -14.05908,-6.89284 -28.4164,-0.71474 -35.79539,15.4031 -7.10024,15.50896 -10.74671,57.69906 -8.45665,97.8444 1.33518,23.406 4.59178,37.8167 11.8519,52.4456 11.21122,22.5902 31.84664,35.0158 46.80465,28.1834 4.50055,-2.0557 11.09146,-8.7854 14.6359,-14.944 1.50284,-2.6112 3.72493,-4.7204 6.10288,-5.7927 l 3.73953,-1.6863 5.0019,4.6787 c 8.73082,8.1667 20.00774,11.4192 28.43416,8.2012 2.43545,-0.9302 4.96864,-2.3425 5.62931,-3.1385 2.0463,-2.4657 10.74805,-1.8306 15.95632,1.1645 10.52571,6.0529 29.87567,15.2114 34.5,16.3291 4.15633,1.0046 10.86619,3.5516 12.38201,4.7002 0.21011,0.1592 -2.00104,2.8926 -4.91366,6.0741 -6.72169,7.3424 -10.82888,15.9853 -11.61945,24.4514 -1.02443,10.9703 5.77686,39.9165 11.49723,48.932 10.67092,16.8177 26.30609,20.8017 37.54174,9.5661 2.30192,-2.302 4.62557,-5.7205 5.16367,-7.5967 1.45649,-5.0785 2.90199,-4.7251 4.38794,1.0728 1.6358,6.3826 7.84288,13.0567 13.64594,14.6727 4.95399,1.3796 12.37562,0.775 16.4685,-1.3415 z M 559.02331,977.56896 c -1.36944,-3.602 -1.25933,-5.1953 0.40313,-5.8333 1.99703,-0.7663 4.8163,2.7275 4.42432,5.4829 -0.47837,3.3627 -3.59613,3.589 -4.82745,0.3504 z m 62.99709,0.099 c 0,-1.9997 2.7247,-2.7668 3.41724,-0.9621 0.85355,2.2244 0.77487,2.3551 -1.41724,2.3551 -1.1,0 -2,-0.6269 -2,-1.393 z m 17.16585,-137.66702 c 0.18378,-1.25568 0.93452,-2.48092 1.6683,-2.72276 0.9065,-0.29877 1.22704,0.29208 1,1.84334 -0.18378,1.25568 -0.93452,2.48092 -1.6683,2.72276 -0.9065,0.29877 -1.22704,-0.29208 -1,-1.84334 z m 5.83415,-94.31727 c 0,-0.20765 0.7875,-0.99515 1.75,-1.75 1.58606,-1.24387 1.62143,-1.2085 0.37756,0.37756 -1.30637,1.66575 -2.12756,2.19548 -2.12756,1.37244 z m 42.07895,-31.20577 c 0.048,-1.16495 0.28494,-1.4019 0.60416,-0.60417 0.28887,0.72187 0.25335,1.58438 -0.0789,1.91667 -0.33229,0.33229 -0.56864,-0.25834 -0.52522,-1.3125 z M 80.330274,224.56123 c 0.006,-3.3 0.1923,-4.52944 0.41486,-2.73209 0.22256,1.79735 0.21797,4.49735 -0.0102,6 -0.22818,1.50265 -0.41027,0.0321 -0.40466,-3.26791 z"
       id="path20"
       sodipodi:nodetypes="ssssssssssssssssssssssssssssssssccsssssssscssssscssscsscssscssssssssssssscccssssssssssssssssssssssssssssssssssssccsssssssssssscsssssscsscssssssssscsssssssssssssccsssssssssssssssssssssscssc" />
    <path
       style="fill:#010000"
       d="m 597.5204,1365.3745 c -41.03263,-9.331 -62.68596,-16.5936 -92.5,-31.025 -61.00572,-29.5295 -124.17873,-72.7834 -176.49892,-120.8469 -32.04111,-29.4342 -73.79887,-74.1114 -93.0354,-99.5397 -27.30251,-36.0905 -40.63474,-55.3014 -55.42188,-79.8595 -5.53252,-9.1882 -24.31414,-42.91764 -28.8975,-51.89614 -3.08632,-6.046 -17.9065,-38.56365 -20.34776,-44.64603 -9.16884,-22.84409 -17.51484,-46.71293 -22.72796,-65 -1.72469,-6.05 -3.7834,-13.25 -4.57492,-16 -0.79153,-2.75 -2.34983,-9.4272 -3.4629,-14.83821 -1.113066,-5.41102 -2.245386,-10.19682 -2.516276,-10.63512 -0.70703,-1.144 -5.38933,-29.47654 -7.11068,-43.02667 -2.32446,-18.29758 -3.44327,-75.60148 -6.97014,-357 -0.83754,-66.825 -1.97273,-155.85514 -2.52264,-197.84476 -1.10274,-84.2017 -1.20677,-82.30827 4.99242,-90.866 4.43893,-6.12777 8.51609,-8.77696 25.811206,-16.77119 43.04665,-19.89722 84.35063,-34.840425 143.78335,-52.018815 10.36153,-2.99488 50.95423,-13.10339 60,-14.94137 18.63581,-3.78654 27.58475,-5.632819 34,-7.014649 3.85,-0.82928 11.725,-2.222118 17.5,-3.095195 5.775,-0.873078 12.075,-1.98459 14,-2.470027 1.925,-0.485437 9.125,-1.585358 16,-2.444269 6.875,-0.85891 14.525,-2.003561 17,-2.543668 3.936,-0.858934 23.28401,-3.166508 51,-6.082605 8.35755,-0.879327 32.9702,-2.846859 64.5,-5.156122 20.41665,-1.495328 163.9529,-1.488233 181,0.0089 6.6,0.579652 22.0036,1.781889 34.23021,2.671639 12.22662,0.889749 25.72662,2.011313 30,2.492363 4.27339,0.48105 16.54479,1.809673 27.26979,2.952497 10.725,1.142823 20.85,2.346512 22.5,2.674865 1.65,0.328352 10.65,1.670712 20,2.983021 34.33487,4.819044 74.20217,12.06563 101.49997,18.44947 34.2809,8.01689 37.4566,8.82051 60.00003,15.18327 46.41,13.09899 96.4739,31.322465 107.0026,38.949415 5.1798,3.75226 9.5937,10.66799 11.0167,17.26097 0.7401,3.42908 0.9785,17.84825 0.7213,43.62221 -0.4405,44.14886 -3.2494,262.05222 -4.7888,371.5 -0.5724,40.7 -1.4572,107.075 -1.9662,147.5 -0.6433,51.08922 -1.3728,77.92118 -2.3926,88 -1.9111,18.88762 -5.3198,43.05626 -7.0518,50 -0.7546,3.025 -1.6683,7.525 -2.0305,10 -0.3621,2.475 -2.2349,11.025 -4.1616,19 -21.3804,88.49725 -62.5146,171.45042 -123.22453,248.50012 -41.0287,52.0714 -96.9145,105.7517 -152.62457,146.6011 -14.3811,10.545 -41.74547,28.9958 -53.74951,36.2414 -12.41366,7.4928 -35.89928,21.1043 -40.25049,23.3278 -2.2,1.1242 -8.275,4.296 -13.5,7.0485 -10.9124,5.7485 -52.6336,25.0096 -64.5,29.7773 -11.28932,4.5358 -22.85447,8.2611 -31.00854,9.9882 -6.52705,1.3826 -21.46216,1.8589 -25.99146,0.8289 z m 34,-18.333 c 13.76307,-4.4465 25.42093,-9.2233 44.5,-18.234 5.225,-2.4677 11.75,-5.4897 14.5,-6.7155 12.83315,-5.7206 35.90113,-17.7276 51.5,-26.806 66.57023,-38.7433 121.11767,-80.9627 173.58667,-134.355 45.2072,-46.0027 82.9262,-96.0904 112.43433,-149.3035 9.0549,-16.32914 19.8758,-37.81234 24.9661,-49.56627 1.7864,-4.125 4.0951,-9.38781 5.1305,-11.69514 1.0353,-2.30732 1.8824,-4.44973 1.8824,-4.76089 0,-0.31117 0.8876,-2.47336 1.9724,-4.80487 2.1488,-4.61809 9.285,-24.38108 14.5298,-40.2391 5.776,-17.46377 12.6027,-43.79543 15.037,-58 0.8484,-4.95 1.9667,-10.35 2.4852,-12 1.1777,-3.7475 4.7129,-29.45483 6.6008,-48 0.9696,-9.52413 1.7227,-37.49832 2.3555,-87.5 0.5117,-40.425 1.3987,-106.8 1.9711,-147.5 3.9289,-279.33809 5.3382,-406.885 4.544,-411.26475 -0.9608,-5.29889 -6.0969,-9.41527 -17.5911,-14.09844 -5.7226,-2.33162 -11.3047,-4.66256 -12.4047,-5.17987 -2.6903,-1.26518 -25.2868,-9.243 -39.5,-13.94571 -57.44253,-19.005895 -125.82043,-34.460535 -197,-44.525585 -9.625,-1.36101 -18.625,-2.71092 -20,-2.9998 -1.375,-0.28889 -11.275,-1.46162 -22,-2.606088 -10.725,-1.144463 -22.9964,-2.474428 -27.26979,-2.955478 -4.27338,-0.48105 -17.77338,-1.602614 -30,-2.492363 -12.22661,-0.88975 -27.63021,-2.092906 -34.23021,-2.673681 -16.50659,-1.452516 -160.65919,-1.476537 -179.5,-0.02991 -44.4577,3.413531 -56.30545,4.372592 -64,5.18072 -29.04616,3.050605 -47.01377,5.20579 -50.5,6.05738 -2.2,0.53741 -10.075,1.71189 -17.5,2.60997 -7.425,0.89807 -13.83904,1.83829 -14.25342,2.08937 -0.41439,0.25107 -7.38939,1.55299 -15.5,2.89314 -20.53381,3.39289 -54.25089,10.16154 -64.24658,12.89739 -3.025,0.82796 -12.25,3.13029 -20.5,5.11629 -20.54544,4.94586 -32.62203,8.38946 -62,17.67912 -16.36937,5.176195 -46.61737,15.747695 -52,18.173695 -1.65,0.74368 -4.125,1.67724 -5.5,2.0746 -1.375,0.39736 -3.85,1.31718 -5.5,2.04405 -1.65,0.72688 -7.05,2.9682 -12,4.98072 -4.95,2.01252 -11.37584,4.74275 -14.27964,6.06718 -2.90379,1.32443 -5.48809,2.40805 -5.74287,2.40805 -0.25478,0 -6.07453,2.70785 -12.93277,6.01743 -9.44976,4.56018 -13.14461,6.90421 -15.257126,9.6792 l -2.78759,3.66176 v 33.07081 c 0,18.18894 0.27446,51.2958 0.60991,73.5708 0.33545,22.275 1.34567,97.2 2.24493,166.5 3.865856,297.91455 4.719356,341.23367 7.083126,359.5 3.663,28.30632 11.2576,64.49627 18.04742,86 4.59104,14.54008 8.72778,26.78466 9.96635,29.5 0.75263,1.65 1.90288,5.025 2.55611,7.5 0.65323,2.475 1.52992,4.95 1.9482,5.5 0.41828,0.55 1.46738,3.025 2.33134,5.5 6.32575,18.12154 22.11705,51.37373 37.99163,80.00007 20.6551,37.2469 34.56429,58.1351 69.18666,103.9016 19.01507,25.1356 58.82833,67.8167 90.05297,96.5397 50.79747,46.7278 113.50253,89.9784 170.98135,117.9338 6.6,3.21 13.575,6.6371 15.5,7.6159 1.925,0.9787 4.625,2.1089 6,2.5116 1.375,0.4026 4.85052,1.7927 7.72337,3.089 2.87286,1.2963 6.47286,2.6556 8,3.0206 1.52715,0.3649 3.22663,0.9904 3.77663,1.3899 1.42552,1.0354 19.82464,6.2721 34.5,9.8192 6.875,1.6618 13.4,3.2592 14.5,3.5499 1.1,0.2907 6.725,0.3736 12.5,0.1842 8.47083,-0.2779 12.43254,-0.9688 20.5,-3.5752 z m -40.38304,-24.5675 c -26.4164,-6.5168 -43.39391,-12.7075 -70.09149,-25.5583 -86.99454,-41.8746 -173.88078,-111.4618 -242.13495,-193.9259 -5.20253,-6.2857 -10.34371,-12.5978 -11.42484,-14.0269 -20.44945,-27.0316 -33.6292,-45.4521 -42.14374,-58.9016 -29.20277,-46.12844 -49.09606,-85.27348 -64.0325,-126.00007 -9.60501,-26.18958 -11.83107,-33.12198 -18.7849,-58.5 -4.40855,-16.089 -8.92894,-39.98022 -12.10927,-64 -2.40441,-18.15963 -4.12116,-107.30873 -6.31631,-328 -0.58537,-58.85 -1.5153,-124.1 -2.06652,-145 -0.55122,-20.9 -1.22885,-61.42316 -1.50583,-90.05146 l -0.50362,-52.05146 4.7485,-2.33954 c 7.95916,-3.92141 29.09223,-12.97744 41.24851,-17.676 6.325,-2.44469 12.625,-4.92712 14,-5.51651 9.35898,-4.01172 56.67974,-20.02408 70,-23.68656 1.925,-0.52928 8.225,-2.34638 14,-4.038 29.25402,-8.56907 85.30611,-21.070615 114.92382,-25.631955 5.7331,-0.88293 10.71669,-1.78634 11.07464,-2.00757 0.35795,-0.22123 6.46724,-1.1176 13.57618,-1.99195 7.10895,-0.87434 14.95036,-2.03218 17.42536,-2.57297 4.02195,-0.87879 22.69578,-3.12359 50,-6.01053 9.22249,-0.97512 31.68704,-2.77581 64.5,-5.17014 20.82678,-1.5197 152.126,-1.47905 169.5,0.0525 6.875,0.60604 22.175,1.79797 34,2.64874 11.825,0.85076 25.325,1.97963 30,2.50858 4.675,0.52895 16.825,1.85931 27,2.95637 10.175,1.09705 21.2,2.47105 24.5,3.05333 3.3,0.58228 12.3,1.92891 20,2.99252 19.72407,2.7245 40.77277,5.96852 42.25297,6.51204 0.6891,0.25305 5.4141,1.1624 10.5,2.02079 17.6117,2.97249 64.8046,13.433795 83.247,18.453445 16.1664,4.40019 26.49883,7.30668 34.50003,9.70489 18.6071,5.57712 47.1397,15.47794 65,22.55502 l 8.5,3.36809 -0.07,31.45918 c -0.065,29.52633 -2.1233,197.00127 -4.4786,364.45917 -0.5724,40.7 -1.4536,107.075 -1.9582,147.5 -0.922,73.8648 -1.3223,82.18602 -5.461,113.5 -2.5098,18.98949 -8.7681,49.48665 -13.7489,67 -28.5774,100.48221 -81.02063,189.46435 -159.38243,270.42955 -58.44454,60.3862 -132.53023,114.9079 -203.90127,150.0566 -36.40274,17.9276 -51.03599,24.4227 -68.82384,30.5483 -14.51801,4.9995 -18.45905,5.0969 -35.5592,0.8783 z m 33.88304,-11.2883 c 16.45741,-5.7613 31.83098,-12.6024 65.5,-29.1469 33.68448,-16.5521 75.74351,-42.6591 109.78962,-68.149 103.13445,-77.2155 183.03035,-176.3735 225.46978,-279.82857 22.258,-54.25878 33.458,-99.10025 39.838,-159.5 1.0471,-9.91296 1.7466,-35.45697 2.3962,-87.5 0.5046,-40.425 1.3858,-106.8 1.9582,-147.5 2.1482,-152.7321 4.4045,-333.91178 4.4751,-359.34979 l 0.073,-26.34979 -5,-1.96548 c -8.7301,-3.43178 -29.5973,-10.88548 -41.5,-14.82371 -16.8327,-5.56941 -27.338,-8.66461 -54.50003,-16.05758 -18.4424,-5.01965 -65.6353,-15.48095 -83.247,-18.45344 -5.0859,-0.85839 -9.8109,-1.76774 -10.5,-2.02079 -1.4802,-0.543525 -22.52887,-3.787545 -42.25297,-6.512045 -7.7,-1.06361 -16.7,-2.41024 -20,-2.99252 -3.3,-0.58228 -14.325,-1.95628 -24.5,-3.05333 -10.175,-1.09706 -22.325,-2.42742 -27,-2.95637 -4.675,-0.52895 -18.175,-1.65782 -30,-2.50858 -11.825,-0.85077 -27.125,-2.04104 -34,-2.64504 -17.32057,-1.52169 -142.77454,-1.56294 -163.5,-0.0538 -32.45899,2.36359 -55.24645,4.18932 -64.5,5.16772 -27.30422,2.88694 -45.97805,5.13174 -50,6.01053 -2.475,0.54079 -10.31641,1.69863 -17.42536,2.57297 -7.10894,0.87435 -13.21823,1.77072 -13.57618,1.99195 -0.35795,0.22123 -5.34154,1.12464 -11.07464,2.00757 -29.61771,4.561345 -85.6698,17.062885 -114.92382,25.631955 -5.775,1.69162 -12.075,3.50872 -14,4.038 -13.32026,3.66248 -60.64102,19.67484 -70,23.68656 -1.375,0.58939 -7.675,3.07182 -14,5.51651 -13.74935,5.3143 -37.21025,15.40759 -38.13613,16.40684 -0.36266,0.39139 -0.29554,28.38662 0.14915,62.21162 0.44469,33.825 1.51788,117.3 2.38486,185.5 3.66942,288.64947 4.68516,340.66604 6.99074,358 3.21336,24.15889 7.71556,47.9409 12.11592,64 6.95383,25.37802 9.17989,32.31042 18.7849,58.5 14.74828,40.21352 33.08057,76.26787 62.0325,122.00011 8.51454,13.4495 21.69429,31.87 42.14374,58.9016 18.31979,24.2165 56.03219,64.7752 85.35267,91.7947 56.05937,51.6599 127.31236,99.109 185.20232,123.3308 12.08818,5.0578 32.65266,11.585 48.02406,15.2428 16.05628,3.8208 16.85307,3.7913 30.95527,-1.1455 z m -15.41458,-97.3108 c -5.80306,-1.616 -12.01014,-8.2901 -13.64594,-14.6727 -1.48595,-5.7979 -2.93145,-6.1513 -4.38794,-1.0728 -0.5381,1.8762 -2.86175,5.2947 -5.16367,7.5967 -11.23565,11.2356 -26.87082,7.2516 -37.54174,-9.5661 -5.72037,-9.0155 -12.52166,-37.9617 -11.49723,-48.932 0.79057,-8.4661 4.89776,-17.109 11.61945,-24.4514 2.91262,-3.1815 5.12377,-5.9149 4.91366,-6.0741 -1.51582,-1.1486 -8.22568,-3.6956 -12.38201,-4.7002 -4.62433,-1.1177 -23.97429,-10.2762 -34.5,-16.3291 -5.20827,-2.9951 -13.91002,-3.6302 -15.95632,-1.1645 -0.66067,0.796 -3.19386,2.2083 -5.62931,3.1385 -8.42642,3.218 -19.70334,-0.034 -28.43416,-8.2012 l -5.0019,-4.6787 -3.73953,1.6863 c -2.37795,1.0723 -4.60004,3.1815 -6.10288,5.7927 -12.1503,21.1116 -30.97712,22.4415 -49.60961,3.5043 -9.17089,-9.3208 -15.29927,-21.2871 -19.5779,-38.2277 -8.1469,-32.2565 -5.62091,-107.02292 4.35171,-128.806 7.37899,-16.11784 21.73631,-22.29594 35.79539,-15.4031 3.07752,1.50883 10.50252,6.99615 16.5,12.19404 6.50685,5.63935 15.94561,12.46946 23.40451,16.93607 l 12.5,7.48536 7.5,-1.99913 c 8.5807,-2.28719 14.89498,-1.99663 20.63796,0.94969 l 3.75567,1.92678 11.70516,-5.62269 c 10.33791,-4.96591 11.87161,-6.03152 13.13003,-9.12269 1.35597,-3.3308 1.27611,-3.76588 -1.65198,-9 -4.11055,-7.34782 -4.31395,-16.00473 -0.55452,-23.60115 2.50282,-5.05728 2.50854,-5.1283 0.73945,-9.1852 -3.81884,-8.7574 -3.23409,-17.29139 1.68109,-24.53431 l 2.43965,-3.59502 -3.08664,-6.17691 c -2.49586,-4.99465 -3.09294,-7.44308 -3.11955,-12.79216 -0.0403,-8.10812 2.74199,-14.1293 10.40185,-22.5104 2.85222,-3.12079 4.99324,-5.86677 4.75782,-6.10219 -0.23541,-0.23542 -5.13232,-2.05463 -10.88201,-4.0427 -36.9551,-12.77793 -73.8259,-33.95292 -95.95398,-55.1066 -10.21986,-9.76983 -13.6566,-15.80739 -17.15012,-30.12881 -1.56743,-6.42557 -2.84988,-12.0871 -2.84988,-12.58118 0,-0.99538 32.69514,-0.11865 53.5,1.43461 21.60516,1.61301 21.59306,1.60707 38.62215,18.9432 15.06367,15.33527 27.64001,24.82915 42.37785,31.99103 6.97981,3.39186 20.19909,6.98779 25.68834,6.98779 h 3.81166 l -0.008,-5.25 c -0.0142,-9.84733 -1.8207,-18.05265 -4.49943,-20.43653 -2.53402,-2.2551 -10.78716,-5.05078 -22.98337,-7.78541 -7.49228,-1.67991 -12.74375,-5.0701 -15.69789,-10.13408 -3.14021,-5.38295 -6.93103,-20.55348 -7.09511,-28.39398 -0.2081,-9.9449 2.41241,-15.55477 9.8235,-21.02966 2.92047,-2.15748 5.55217,-4.72091 5.84822,-5.69652 1.76932,-5.8306 2.65615,-12.84541 3.58375,-28.34729 0.57352,-9.58459 1.92371,-25.30153 3.00042,-34.92653 1.07671,-9.625 3.10782,-34.825 4.51356,-56 1.40575,-21.175 3.68083,-52.225 5.05574,-69 1.37491,-16.775 2.92606,-41.3 3.447,-54.5 0.52095,-13.2 1.62237,-33 2.4476,-44 2.46533,-32.86146 3.56257,-62.48939 3.58064,-96.68515 0.0207,-39.07301 1.41816,-73.31538 3.46052,-84.79123 5.46966,-30.73359 18.78184,-64.70913 30.17637,-77.01658 5.97764,-6.45609 11.4266,-9.00704 19.2399,-9.00704 4.2749,0 4.87527,0.36125 10.38713,6.25 19.82212,21.17752 30.76498,48.83248 36.10695,91.25 4.05542,32.20176 4.62588,51.82703 5.66817,195 0.48848,67.1 1.33864,129.2 1.88924,138 4.0225,64.28951 5.23491,79.63042 7.59171,96.06002 3.7129,25.88316 5.14125,29.44266 14.51261,36.16576 10.97393,7.87279 13.82076,15.69224 12.00593,32.97686 -2.13275,20.31248 -5.50442,25.18181 -19.95287,28.8158 -11.88038,2.98808 -22.56925,6.36745 -24.31379,7.687 -1.17782,0.8909 -2.33574,4.86581 -3.7135,12.74772 -1.1011,6.29924 -1.87129,11.58388 -1.71153,11.74364 0.52552,0.52552 17.00296,-1.76532 23.63653,-3.28617 7.50464,-1.72055 20.42522,-7.82025 27.12094,-12.80358 4.21402,-3.13631 9.89616,-9.24607 23.17204,-24.91586 7.24811,-8.55509 11.04288,-10.35128 25.74281,-12.18493 14.48883,-1.80732 50.96609,-4.31223 51.44772,-3.53294 0.18057,0.29217 -1.09648,6.21969 -2.8379,13.17226 -3.98954,15.92818 -6.48293,19.75899 -24.63857,37.85442 -18.07691,18.01697 -31.87592,27.59434 -53.2617,36.96695 l -7.75466,3.39858 7.4012,1.85753 7.4012,1.85753 13.35346,-7.69899 c 7.3444,-4.23445 18.07846,-11.23336 23.85346,-15.55314 12.61982,-9.43979 17.7162,-12.05745 24.58367,-12.62696 13.04784,-1.08202 22.0421,7.19543 26.42053,24.31493 3.73373,14.59875 3.74149,31.89296 0.0402,89.48357 -1.09011,16.96142 -3.80455,27.68799 -10.50189,41.5 -7.97167,16.4401 -18.2473,27.5597 -31.07944,33.63233 -18.07727,8.5546 -32.33412,4.4837 -42.57293,-12.15653 -3.97379,-6.45824 -7.81102,-7.88829 -12.23269,-4.5589 -3.79887,2.8605 -11.52124,5.5752 -15.94235,5.6043 -1.76828,0.012 -7.76403,-0.7437 -13.32389,-1.6786 -9.32665,-1.5681 -10.60338,-1.5765 -16.5,-0.1075 -3.51514,0.8756 -7.653,2.0791 -9.19525,2.6743 l -2.80408,1.0822 2.51427,3.2964 c 10.10688,13.25083 10.386,29.34853 0.72047,41.55227 l -2.91555,3.6812 2.00076,3.8999 c 3.0125,5.8719 2.20158,14.786 -1.95309,21.4695 l -3.15865,5.0812 2.43793,4.264 c 3.30825,5.7862 3.39077,14.5905 0.1959,20.9012 -2.01539,3.9809 -2.13454,4.9125 -1.07685,8.4195 3.78397,12.5465 -1.40781,24.1962 -13.54055,30.3831 -1.98906,1.0142 -8.22897,3.1239 -13.86647,4.6881 -5.6375,1.5641 -10.25,3.0903 -10.25,3.3914 0,0.3011 3.09021,3.7058 6.86713,7.566 7.80054,7.9725 13.04396,17.6427 15.69321,28.9423 2.26423,9.6575 1.5325,27.611 -1.46612,35.9724 -3.77079,10.5145 -13.61274,23.1312 -21.0403,26.9721 -4.09288,2.1165 -11.51451,2.7211 -16.4685,1.3415 z m 13.84768,-19.8455 c 8.66932,-9.2682 12.3004,-21.6351 10.51866,-35.825 -1.56798,-12.4874 -7.0272,-22.8558 -15.70629,-29.8299 -6.32545,-5.0828 -7.04061,-6.0932 -7.80768,-11.031 -0.9535,-6.1379 -2.0377,-6.6512 -10.09305,-4.7788 -3.76461,0.875 -10.44474,1.8562 -14.84474,2.1805 -8.79649,0.6482 -10.5,1.4346 -10.5,4.8473 0,1.6422 -1.90149,3.7513 -6.75,7.4871 -15.67228,12.0756 -17.59835,18.0457 -12.73752,39.4817 3.60196,15.8845 5.11076,19.7904 9.62647,24.9205 4.35953,4.9527 7.48126,5.8164 10.41578,2.8819 1.44061,-1.4406 1.57154,-2.6894 0.86493,-8.25 -1.50856,-11.8714 -1.11386,-20.1782 1.14285,-24.0524 2.15302,-3.6961 5.54712,-4.9838 7.92806,-3.0078 0.75926,0.6301 2.1151,4.3755 3.01296,8.3231 0.89787,3.9476 2.34662,7.9666 3.21946,8.9311 3.58285,3.959 7.5888,0.7847 9.43471,-7.4762 1.31685,-5.8931 3.39745,-8.7702 6.3423,-8.7702 5.43781,0 7.47451,8.4453 5.09682,21.1342 -2.00539,10.7021 -2.01101,14.3088 -0.0254,16.2944 2.83022,2.8302 5.88898,1.8557 10.86167,-3.4605 z m -33.9331,-89.4048 c 16.72075,-2.997 44.14972,-10.1607 52.6161,-13.7418 4.98866,-2.1102 7.25982,-5.1243 6.72301,-8.9223 -0.48172,-3.4082 -4.45028,-3.5814 -10.33753,-0.4511 -7.71477,4.102 -16.50158,3.1111 -16.50158,-1.8608 0,-2.845 1.28343,-3.9462 6.5,-5.5774 6.90996,-2.1608 15.39963,-7.1564 19.07481,-11.2244 4.37098,-4.8381 4.51267,-9.9069 0.36315,-12.9911 l -2.56205,-1.9042 -8.38506,4.0549 c -8.8442,4.2769 -13.9044,5.0689 -16.02918,2.5087 -2.16459,-2.6082 1.78742,-6.5164 11.42327,-11.2968 5.91793,-2.9359 10.69599,-6.243 14.74754,-10.2075 5.48229,-5.3644 5.96664,-6.1851 5.68042,-9.6256 -0.23664,-2.8444 -0.95533,-4.12 -2.94876,-5.2336 -2.48802,-1.39 -3.17472,-1.212 -12.24249,3.1718 -5.28364,2.5545 -11.18994,4.9415 -13.1251,5.3045 -6.0958,1.1436 -8.67343,-3.2551 -4.24655,-7.2467 1.2375,-1.1159 7.86394,-4.9068 14.72543,-8.4244 19.58618,-10.0408 27.02505,-18.77154 23.85634,-27.99894 -3.63774,-10.5933 -13.78021,-19.60013 -18.95365,-16.83143 -3.18066,1.7023 -3.84833,4.93673 -1.73458,8.40283 4.8722,7.9895 0.68634,12.3361 -17.94479,18.6338 -14.73375,4.9804 -32.95722,9.07474 -40.39048,9.07474 -8.53427,0 -15.23033,-2.95984 -22.16668,-9.79824 -7.51456,-7.4084 -10.14159,-12.6815 -10.14159,-20.3567 v -6.47843 l -4.5,-2.3842 c -2.475,-1.3112 -6.6674,-3.6834 -9.31645,-5.2715 -2.64904,-1.5881 -5.92277,-2.8875 -7.27496,-2.8875 -1.35218,0 -5.68581,1.6252 -9.63027,3.6116 -12.33739,6.213 -14.11028,7.653 -16.01421,13.00703 -0.95473,2.6848 -4.92168,9.1564 -8.81543,14.3814 -12.69657,17.03744 -12.46002,16.42574 -12.37489,32.00004 0.0923,16.8824 2.39846,26.9956 9.28568,40.72 2.70285,5.386 5.47111,11.6513 6.15168,13.9229 1.21753,4.0637 1.32126,4.137 6.45961,4.5631 2.87221,0.2382 6.97878,1.341 9.12572,2.4508 2.14694,1.1097 9.52852,4.9879 16.40352,8.6181 6.875,3.6303 15.67873,7.4766 19.56384,8.5475 3.88511,1.0708 9.06011,2.9702 11.5,4.2207 9.73755,4.991 18.0423,5.921 31.43616,3.5202 z m -167.38995,-12.6222 c 1.08821,-0.5824 3.91937,-4.0699 6.29147,-7.75 5.03114,-7.8054 6.81306,-9.5472 11.97285,-11.7031 2.95127,-1.2331 3.63863,-1.9683 3.07425,-3.2881 -7.03585,-16.4535 -9.84743,-32.547 -9.18419,-52.5703 0.70627,-21.32234 4.15249,-33.14884 14.17355,-48.63987 l 4.57648,-7.0745 -3.11647,-1.7077 c -7.93577,-4.3483 -24.3102,-16.01492 -33.2562,-23.6947 -10.8931,-9.35128 -14.76811,-10.9706 -19.24031,-8.0403 -9.01546,5.90715 -14.06901,38.1441 -13.09397,83.52747 0.70374,32.7555 3.0601,45.993 10.94745,61.5 7.26613,14.2857 19.6869,23.2774 26.85509,19.4411 z m 58.7233,-11.7964 c 0.19889,-1.4053 -2.10623,-7.2537 -5.71505,-14.5 -8.75741,-17.5842 -10.54707,-25.6384 -10.58675,-47.6447 -0.0373,-20.70474 -0.009,-20.79304 11.95049,-37.00004 9.61871,-13.03513 11.54569,-16.71413 9.48135,-18.10213 -1.95304,-1.3132 -9.4774,-0.3062 -13.8858,1.8584 -6.73426,3.3066 -16.48405,19.14513 -20.27898,32.94323 -1.78513,6.49064 -2.14206,10.48734 -2.12552,23.80054 0.0174,14.0353 0.34031,17.2038 2.62938,25.8036 4.68353,17.5954 11.75262,29.5162 19.92501,33.6002 5.29821,2.6477 8.15942,2.3953 8.60587,-0.7591 z M 599.0204,989.18026 c 3.025,-1.1573 6.83676,-3.1793 8.47058,-4.4933 2.52999,-2.0348 2.77703,-2.6224 1.66561,-3.9616 -1.00161,-1.2069 -3.08694,-1.5378 -8.97058,-1.4237 -4.75614,0.092 -10.20354,-0.5443 -14.3523,-1.6771 -3.67768,-1.0042 -7.36216,-1.5667 -8.18773,-1.2499 -2.93015,1.1244 -4.72482,12.1438 -2.37558,14.5862 1.88365,1.9583 16.92437,0.8307 23.75,-1.7806 z m -35.16964,-11.9617 c 0.39198,-2.7554 -2.42729,-6.2492 -4.42432,-5.4829 -1.66246,0.638 -1.77257,2.2313 -0.40313,5.8333 1.23132,3.2386 4.34908,3.0123 4.82745,-0.3504 z m 62.16964,1.4245 c 0,-1.7643 -1.41522,-3.3597 -2.58276,-2.9117 -2.13865,0.8207 -1.69952,3.3299 0.58276,3.3299 1.1,0 2,-0.1882 2,-0.4182 z m -13.5,-10.67173 c 2.2,-0.5933 8.4356,-3.3071 13.85689,-6.0305 17.997,-9.04111 40.42559,-18.00564 49.00356,-19.5864 4.47675,-0.82498 8.61679,-1.6316 9.20008,-1.79249 0.58328,-0.16089 1.63262,-2.25187 2.33186,-4.64662 0.69924,-2.39475 3.95648,-8.92221 7.23831,-14.50547 9.79611,-16.66572 14.30148,-32.32416 14.19899,-49.34862 -0.0724,-12.0251 -1.27185,-16.16618 -7.29504,-25.18597 -2.18244,-3.26823 -4.25284,-7.37589 -4.60088,-9.12814 -0.50026,-2.51859 -2.21319,-4.32047 -8.1781,-8.60275 -9.37804,-6.7326 -13.6947,-8.32882 -19.45809,-7.19522 -4.02788,0.79225 -17.93026,4.31226 -18.60396,4.71044 -0.16852,0.0996 0.42689,2.42293 1.32311,5.16298 3.43645,10.50635 -2.40558,19.11788 -18.33364,27.02499 l -9.49523,4.71367 -11.09393,-0.0486 c -11.00696,-0.0483 -11.21544,-0.0939 -26.59393,-5.8271 -25.11624,-9.36345 -30,-12.35483 -30,-18.37551 0,-3.57301 1.88442,-5.90753 9.31618,-11.54139 4.20814,-3.19011 4.6838,-5.20612 1.43382,-6.07708 -7.26567,-1.94713 -14.03341,1.34142 -24.29604,11.8058 -7.57788,7.72685 -9.17318,11.21999 -7.56917,16.57372 1.77143,5.91248 15.00553,18.195 26.8018,24.87464 8.26887,4.68225 10.22313,8.15074 6.35649,11.28175 -3.71043,3.00452 -5.81757,2.19948 -18.73263,-7.15689 -6.06831,-4.39621 -9.55811,-4.85256 -12.74416,-1.66651 -3.02941,3.02941 -3.30563,6.86236 -0.81629,11.32712 2.16385,3.88098 10.97151,11.41763 17.93753,15.349 2.87362,1.62178 5.71943,3.87297 6.32402,5.00265 1.49158,2.78705 0.34894,5.84985 -2.44391,6.55081 -2.92563,0.73429 -9.9562,-1.13072 -11.56357,-3.06748 -2.14589,-2.58563 -7.72176,-5.55046 -9.29977,-4.94492 -2.29249,0.87971 -3.98796,5.87204 -3.20496,9.43703 0.92339,4.20416 5.23194,8.06482 15.96772,14.30779 9.61571,5.59165 12.88758,9.31423 10.93081,12.43657 -1.80894,2.88648 -4.91007,2.59098 -13.49693,-1.2861 -8.76788,-3.95881 -9.85365,-3.77871 -9.88563,1.63974 -0.0217,3.68683 2.01715,5.13986 14.98929,10.68216 28.35843,12.1161 48.25217,16.43483 60.4954,13.1329 z m -21.36696,-37.55916 c -0.54912,-2.11802 -1.48873,-5.7363 -2.08803,-8.04063 -0.6994,-2.68925 -1.79789,-4.41449 -3.06731,-4.81739 -1.08774,-0.34523 -1.9777,-1.00782 -1.9777,-1.47241 0,-0.83077 7.80533,-2.55165 8.48076,-1.86979 0.68564,0.69217 0.99198,18.70987 0.32937,19.37248 -0.37327,0.37328 -1.12796,-1.05424 -1.67709,-3.17226 z m 22.72951,-0.85094 c -0.32479,-0.55 -2.32472,-8.08828 -4.4443,-16.75173 -2.96012,-12.09903 -4.26706,-15.8829 -5.63601,-16.31738 -0.98023,-0.31112 -1.78224,-0.92909 -1.78224,-1.37328 0,-1.10739 6.2076,-2.2668 7.06798,-1.32011 0.99203,1.09156 3.68237,14.27881 4.98791,24.44933 1.08542,8.45571 1.002,13.33735 -0.19334,11.31317 z m 34.88274,-9.10311 c -0.34148,-0.55254 -2.24883,-7.46909 -4.23855,-15.37013 -3.7826,-15.02043 -4.88745,-18.02676 -6.62501,-18.02676 -0.67555,0 -0.94463,3.26225 -0.75727,9.18082 0.17152,5.418 -0.1138,9.31563 -0.69614,9.50974 -0.54273,0.18091 -1.87363,-3.16296 -2.95755,-7.43082 -1.66746,-6.56548 -2.31705,-7.80892 -4.22077,-8.07929 -1.2375,-0.17575 -2.25,-0.683 -2.25,-1.12721 0,-0.9718 17.02028,-5.36629 17.79266,-4.59392 0.29737,0.29738 0.28555,0.54068 -0.0263,0.54068 -0.31182,0 0.27397,3.2625 1.30175,7.25 3.03961,11.7928 4.94397,31.81466 2.67716,28.14689 z m 11.65137,-12.92141 c -1.43449,-6.0848 -2.30033,-7.9301 -4.10717,-8.75335 -3.31041,-1.50832 -2.84983,-2.25695 2.08303,-3.38575 l 4.37253,-1.00058 0.52667,9.5821 c 0.28968,5.27016 0.17027,9.96137 -0.26535,10.42493 -0.43562,0.46356 -1.60999,-2.62675 -2.60971,-6.86735 z m 10.49521,7.02452 c -0.33311,-0.55 -2.31281,-7.92235 -4.39933,-16.38299 -3.01425,-12.22251 -4.17365,-15.48236 -5.64311,-15.86664 -2.51574,-0.65788 -2.32753,-1.88898 0.40057,-2.62008 4.88346,-1.30872 5.32121,-0.8996 7.08297,6.61971 2.93515,12.52749 4.67592,31.74541 2.5589,28.25 z m -71.21526,-2.25 c -0.24278,-0.4125 -0.75509,-2.2125 -1.13847,-4 -0.49256,-2.29655 -1.26048,-3.25 -2.6176,-3.25 -3.52889,0 -2.04865,-2.71714 1.82946,-3.35815 6.1038,-1.0089 5.94372,-1.18534 4.86154,5.35815 -0.91474,5.53106 -1.81826,7.14728 -2.93493,5.25 z m 19.32339,-1.60202 c 0,-0.68639 0.50665,-1.75463 1.12588,-2.37386 0.83451,-0.83451 0.67424,-2.96888 -0.61932,-8.24735 -0.95986,-3.9168 -1.49645,-7.37022 -1.19241,-7.67425 0.85061,-0.85061 2.68585,0.60034 2.68585,2.12344 0,0.74687 1.57838,4.33314 3.5075,7.96949 2.43855,4.5966 3.12426,6.72841 2.25,6.99498 -0.69162,0.21089 -2.72,0.84965 -4.5075,1.41948 -2.48398,0.79186 -3.25,0.74191 -3.25,-0.21193 z m 59.59756,-22.14798 c -1.43958,-6.10635 -2.12392,-7.5 -3.68284,-7.5 -1.0531,0 -1.91472,-0.675 -1.91472,-1.5 0,-0.825 0.61875,-1.5 1.375,-1.5 0.75625,0 2.68392,-0.26178 4.28372,-0.58174 l 2.90871,-0.58175 0.10377,9.58175 c 0.0571,5.26996 -0.21333,9.58174 -0.60088,9.58174 -0.38755,0 -1.50029,-3.375 -2.47276,-7.5 z m 92.40244,68.2494 c 13.27052,-6.25561 27.00124,-27.82333 31.03547,-48.7494 1.08088,-5.60667 2.63483,-32.83127 3.63158,-63.62391 0.80892,-24.98974 -2.16413,-42.43102 -7.74162,-45.416 -4.56337,-2.44224 -7.7427,-1.0136 -22.42543,10.07696 -4.95,3.73896 -14.175,9.79953 -20.5,13.46792 -6.325,3.66839 -11.84756,7.00053 -12.27235,7.40477 -0.4248,0.40423 0.15659,2.83499 1.29196,5.40168 1.13537,2.56669 3.0238,8.83414 4.19652,13.92765 2.90931,12.63611 3.11143,39.18018 0.39413,51.76093 -2.06227,9.5481 -7.07889,24.04446 -10.99564,31.7738 l -2.60345,5.13767 3.56269,1.6906 c 2.37766,1.12828 5.16149,4.05344 8.36935,8.79427 5.27703,7.79886 7.53438,10.13266 10.55679,10.91456 3.10297,0.8028 8.55932,-0.2325 13.5,-2.5615 z m -58.7296,-14.58936 c 5.26837,-3.47393 9.93429,-11.17064 15.55566,-25.66004 4.18868,-10.79653 5.87736,-18.02276 7.1387,-30.54806 1.69175,-16.79937 -1.65566,-39.98142 -7.05526,-48.86035 -2.32759,-3.82743 -7.71382,-6.3167 -12.75783,-5.89609 -3.09883,0.2584 -3.61645,0.64038 -3.41902,2.52312 0.12796,1.22024 1.76224,4.22249 3.63174,6.67167 10.00014,13.1009 11.37953,38.69698 3.42797,63.60971 -3.18534,9.97985 -5.67928,15.35465 -13.21296,28.47579 -5.86437,10.21376 -5.9019,11.52626 -0.3294,11.51762 2.42795,-0.004 5.43772,-0.78976 7.0204,-1.83337 z m -88.28139,-89.91004 c 3.3328,-3.03426 4.94763,-9.1037 5.09147,-19.13649 0.11676,-8.14467 1.95769,-14.08379 5.08378,-16.40106 2.11332,-1.56653 5.11179,-2.13618 14.5,-2.7547 17.91162,-1.18008 42.99717,-7.07632 62.33574,-14.65172 11.3657,-4.45223 27.41936,-13.245 36.16143,-19.80603 14.0314,-10.53075 36.83857,-34.268 36.83857,-38.34087 0,-1.54831 -5.28393,-1.47354 -23.5,0.33256 l -15,1.48722 -3.5,3.815 c -5.64258,6.1504 -16.55491,18.44989 -19.34528,21.80442 -5.38623,6.47522 -23.14528,17.18784 -35.25571,21.26697 -14.93218,5.02957 -44.48773,7.27227 -49.81733,3.78018 -3.06208,-2.00636 -3.4169,-6.42025 -1.14262,-14.21398 0.79148,-2.71232 2.40003,-10.08122 3.57455,-16.37531 2.28479,-12.24396 3.44846,-15.29769 7.14432,-18.74841 3.43191,-3.20427 12.41515,-7.05066 21.96929,-9.40667 4.60503,-1.13559 10.02826,-2.48662 12.05163,-3.00229 4.47254,-1.13987 5.39655,-3.47971 6.37962,-16.15494 0.84939,-10.95166 0.0192,-13.07627 -7.12859,-18.24388 -3.04303,-2.2 -6.52877,-5.125 -7.7461,-6.5 -7.9436,-8.9725 -12.41684,-32.77038 -16.16526,-86 -4.28674,-60.87411 -4.87047,-78.1699 -5.02867,-149 -0.28668,-128.35 -1.62805,-194.40541 -4.53856,-223.5 -2.95524,-29.54178 -8.62001,-52.95536 -16.69413,-69 -3.17968,-6.31857 -11.506,-18.4457 -14.7697,-21.51178 l -2.48746,-2.33685 -9.6e-4,14.42432 c -0.005,79.34862 -2.1782,529.76459 -2.56093,530.84153 -2.39731,6.74547 -2.51524,-13.5748 -1.50337,-259.03243 0.58584,-142.11164 1.04646,-264.68479 1.02359,-272.38479 l -0.0416,-14 -3.22339,3.64477 c -4.73682,5.35605 -11.73962,20.31368 -17.48882,37.35523 -9.40914,27.89025 -11.19963,43.71723 -11.19978,99 -10e-5,38.89083 -1.22841,76.0094 -3.59042,108.5 -0.81968,11.275 -1.92421,31.075 -2.45451,44 -0.53031,12.925 -1.87863,34.975 -2.99627,49 -3.22504,40.47011 -3.90475,49.51551 -4.95955,66 -2.0105,31.42055 -3.03594,45.78918 -3.92739,55.03139 -0.5023,5.20773 -1.61176,16.66861 -2.46546,25.46861 -0.8537,8.8 -2.00584,22.525 -2.56032,30.5 -1.50785,21.68747 -4.65658,30.37386 -13.24751,36.54582 -2.81689,2.02374 -5.02715,4.49777 -5.42133,6.06831 -0.72226,2.8777 1.82459,16.24272 4.16064,21.83367 1.54394,3.69518 1.06438,3.48411 15.72113,6.91916 10.91534,2.55819 21.13148,7.76046 24.11501,12.27987 4.38059,6.63567 5.80657,14.70581 5.44403,30.8099 -0.36088,16.03072 -0.99579,17.66868 -7.5503,19.47847 -8.51075,2.34994 -33.05533,-2.99128 -46.27249,-10.06949 -17.44364,-9.34163 -29.16696,-18.1992 -41.53455,-31.38146 -12.51366,-13.33795 -14.55954,-14.88477 -20.96545,-15.85124 -9.0684,-1.36817 -39.84697,-2.68604 -40.78661,-1.7464 -4.70937,4.70937 17.15513,24.69573 45.67429,41.7509 27.68078,16.5538 64.34229,30.40129 98.89746,37.35475 3.24228,0.65243 6.97846,2.19068 8.5,3.49958 2.69496,2.31834 2.71486,2.43103 2.71486,15.37612 0,14.11581 -0.33837,13.14596 6.18981,17.74162 4.71818,3.32146 15.66762,6.34782 23.04441,6.36933 6.50812,0.019 7.5374,-0.25493 10.25479,-2.72891 z m 17.84514,-13.18971 c 0.22704,-1.55126 -0.0935,-2.14211 -1,-1.84334 -0.73378,0.24184 -1.48452,1.46708 -1.6683,2.72276 -0.22704,1.55126 0.0935,2.14211 1,1.84334 0.73378,-0.24184 1.48452,-1.46708 1.6683,-2.72276 z"
       id="path16" />
  </g>
</svg>
