<?xml version="1.0" encoding="UTF-8" standalone="no"?>
<svg
   xmlns:dc="http://purl.org/dc/elements/1.1/"
   xmlns:cc="http://creativecommons.org/ns#"
   xmlns:rdf="http://www.w3.org/1999/02/22-rdf-syntax-ns#"
   xmlns:svg="http://www.w3.org/2000/svg"
   xmlns="http://www.w3.org/2000/svg"
   xmlns:sodipodi="http://sodipodi.sourceforge.net/DTD/sodipodi-0.dtd"
   xmlns:inkscape="http://www.inkscape.org/namespaces/inkscape"
   version="1.1"
   id="svg2"
   width="1043.5928"
   height="1045.6006"
   viewBox="0 0 1043.5928 1045.6006"
   sodipodi:docname="Ammurach.svg"
   inkscape:version="1.0.1 (3bc2e813f5, 2020-09-07)">
  <metadata
     id="metadata8">
    <rdf:RDF>
      <cc:Work
         rdf:about="">
        <dc:format>image/svg+xml</dc:format>
        <dc:type
           rdf:resource="http://purl.org/dc/dcmitype/StillImage" />
        <dc:title></dc:title>
      </cc:Work>
    </rdf:RDF>
  </metadata>
  <defs
     id="defs6" />
  <sodipodi:namedview
     pagecolor="#ffffff"
     bordercolor="#666666"
     borderopacity="1"
     objecttolerance="10"
     gridtolerance="10"
     guidetolerance="10"
     inkscape:pageopacity="0"
     inkscape:pageshadow="2"
     inkscape:window-width="1920"
     inkscape:window-height="1057"
     id="namedview4"
     showgrid="false"
     inkscape:pagecheckerboard="true"
     inkscape:zoom="0.49"
     inkscape:cx="536.04071"
     inkscape:cy="520.04931"
     inkscape:window-x="-8"
     inkscape:window-y="-8"
     inkscape:window-maximized="1"
     inkscape:current-layer="g10" />
  <g
     inkscape:groupmode="layer"
     inkscape:label="Image"
     id="g10"
     transform="translate(-213.95929,-229.95069)">
    <circle
       style="fill:#ffffff;fill-opacity:1;fill-rule:evenodd;stroke-width:1.0041"
       id="path20"
       cx="736.73474"
       cy="753.06122"
       r="500" />
    <g
       id="g14"
       transform="translate(-16.326553,-8.1632658)">
      <path
         style="fill:#264a86"
         d="m 735.26375,1283.2824 c 1.52006,-0.2298 3.77006,-0.2237 5,0.014 1.22994,0.2373 -0.0137,0.4254 -2.76375,0.4179 -2.75,-0.01 -3.75631,-0.2017 -2.23625,-0.4316 z m 31,0 c 1.52006,-0.2298 3.77006,-0.2237 5,0.014 1.22994,0.2373 -0.0137,0.4254 -2.76375,0.4179 -2.75,-0.01 -3.75631,-0.2017 -2.23625,-0.4316 z M 715.75,1282.3377 c 0.6875,-0.2774 1.8125,-0.2774 2.5,0 0.6875,0.2774 0.125,0.5044 -1.25,0.5044 -1.375,0 -1.9375,-0.227 -1.25,-0.5044 z m 72,0 c 0.6875,-0.2774 1.8125,-0.2774 2.5,0 0.6875,0.2774 0.125,0.5044 -1.25,0.5044 -1.375,0 -1.9375,-0.227 -1.25,-0.5044 z m -83.9375,-1.0208 c 0.72187,-0.2889 1.58438,-0.2534 1.91667,0.079 0.33229,0.3323 -0.25834,0.5687 -1.3125,0.5253 -1.16495,-0.048 -1.4019,-0.285 -0.60417,-0.6042 z m 97,0 c 0.72187,-0.2889 1.58438,-0.2534 1.91667,0.079 0.33229,0.3323 -0.25834,0.5687 -1.3125,0.5253 -1.16495,-0.048 -1.4019,-0.285 -0.60417,-0.6042 z m -107,-1 c 0.72187,-0.2889 1.58438,-0.2534 1.91667,0.079 0.33229,0.3323 -0.25834,0.5687 -1.3125,0.5253 -1.16495,-0.048 -1.4019,-0.285 -0.60417,-0.6042 z m 117,0 c 0.72187,-0.2889 1.58438,-0.2534 1.91667,0.079 0.33229,0.3323 -0.25834,0.5687 -1.3125,0.5253 -1.16495,-0.048 -1.4019,-0.285 -0.60417,-0.6042 z m -125,-1 c 0.72187,-0.2889 1.58438,-0.2534 1.91667,0.079 0.33229,0.3323 -0.25834,0.5687 -1.3125,0.5253 -1.16495,-0.048 -1.4019,-0.285 -0.60417,-0.6042 z m 133,0 c 0.72187,-0.2889 1.58438,-0.2534 1.91667,0.079 0.33229,0.3323 -0.25834,0.5687 -1.3125,0.5253 -1.16495,-0.048 -1.4019,-0.285 -0.60417,-0.6042 z M 718.5,1237.4775 c -61.78296,-5.6745 -120.2224,-21.5161 -173,-46.8966 -55.7877,-26.8279 -112.31333,-70.3981 -153,-117.9328 C 356.20394,1030.2429 329.08377,986.0571 310.47009,939 291.86516,891.96504 281.04249,845.88344 276.49569,794.34125 269.81537,718.61366 287.38615,628.429 323.41905,553.5 345.1207,508.37228 378.95603,461.04445 416.00024,424.00024 453.04445,386.95603 500.37228,353.1207 545.5,331.41905 c 74.929,-36.0329 165.11366,-53.60368 240.84125,-46.92336 51.54219,4.5468 97.62379,15.36947 144.65875,33.9744 47.0571,18.61368 91.2429,45.73385 133.6481,82.02991 47.5347,40.68667 91.1049,97.2123 117.9328,153 22.2994,46.37068 37.2778,97.22497 44.4354,150.86637 C 1228.7256,717.1764 1229,725.01006 1229,761 c 0,35.98994 -0.2744,43.8236 -1.9837,56.63363 -7.1576,53.6414 -22.136,104.49569 -44.4354,150.86637 -26.8279,55.7877 -70.3981,112.3133 -117.9328,153 -50.808,43.4883 -101.71235,72.4275 -163.02251,92.6785 -59.74199,19.7331 -127.74642,28.3852 -183.12559,23.299 z M 579.26699,1079.75 c -0.3903,-18.6317 -0.12644,-23.7759 2.14152,-41.75 4.46811,-35.4109 16.03243,-73.06567 32.49556,-105.80921 14.79345,-29.42271 45.68096,-81.53161 59.07419,-99.66136 2.21196,-2.99421 4.02174,-5.65941 4.02174,-5.92266 0,-0.26325 -6.008,-9.61996 -13.35111,-20.7927 -7.34312,-11.17274 -15.41812,-23.63726 -17.94445,-27.69894 l -4.59334,-7.38488 3.28681,-5.11512 c 16.73689,-26.04691 26.41387,-40.85732 29.23863,-44.74911 1.8499,-2.54868 3.36346,-4.9114 3.36346,-5.25047 0,-0.33907 -2.87273,-4.77878 -6.38383,-9.86602 C 657.12364,686.20022 637.88915,654.49945 625.06752,630.67982 599.24865,582.7143 586.63196,546.03624 581.31962,503.5 c -2.16702,-17.35145 -2.43885,-22.81409 -2.05264,-41.25 0.54544,-26.03762 -0.10496,-27.23482 -4.21037,-7.75 -3.59376,17.0565 -4.55863,29.19794 -4.48999,56.5 0.0712,28.32174 0.63118,33.08988 7.98603,68 4.51654,21.43792 16.46249,55.98274 26.00253,75.19304 6.31539,12.71698 24.04721,44.53574 30.13033,54.06719 2.37297,3.71812 4.31449,6.96866 4.31449,7.22341 0,0.25475 -2.83941,5.08765 -6.30981,10.73977 C 624.40702,739.71396 608,769.45024 608,770.97221 c 0,1.51259 18.40229,34.6593 25.70809,46.30611 l 5.50646,8.77832 -6.49076,10.72168 c -10.28634,16.99136 -25.99223,45.78217 -31.1453,57.09311 -15.0235,32.9765 -27.6087,80.30236 -30.7487,115.62857 -1.29388,14.5566 -0.46019,47.9654 1.55963,62.5 2.15238,15.4885 5.41462,29 7.00183,29 0.17648,0 0.12057,-9.5625 -0.12426,-21.25 z m 342.82056,9.0916 c 4.39347,-20.1302 6.42785,-50.0484 4.96105,-72.9586 -2.40383,-37.54602 -15.4614,-88.2357 -31.78321,-123.383 -5.12035,-11.02612 -24.11204,-45.4903 -32.0283,-58.12169 l -5.04731,-8.05361 5.22847,-8.41235 c 2.87566,-4.62679 10.07837,-17.09006 16.00603,-27.69614 l 10.77757,-19.28379 -11.27724,-20.21621 C 872.72213,739.59729 865.62914,727.35 863.1624,723.5 c -2.46673,-3.85 -4.48497,-7.45 -4.48497,-8 0,-0.55 2.0141,-4.15 4.47577,-8 5.72036,-8.9465 23.17378,-40.14519 29.36998,-52.5 7.44419,-14.84323 19.32644,-47.29285 24.42365,-66.69934 3.50118,-13.32996 9.22911,-48.35758 10.10602,-61.80066 1.64718,-25.25117 -0.93219,-58.1647 -6.23024,-79.5 -2.41043,-9.70679 -3.02107,-6.45072 -2.34426,12.5 0.60715,17.00023 0.402,21.26168 -1.94908,40.48839 -2.99446,24.48813 -2.82502,23.62299 -9.43667,48.18161 -6.60829,24.54613 -17.44059,50.37195 -34.32252,81.83 -12.34818,23.0098 -37.90453,64.97054 -48.12674,79.01885 -2.51539,3.45688 -4.275,6.77932 -3.91024,7.3832 0.36475,0.60387 2.10504,3.12295 3.8673,5.59795 9.50867,13.35441 31.40256,48.5499 30.94422,49.74432 -0.69641,1.8148 -26.69958,42.16426 -31.66579,49.1362 l -3.83262,5.38053 5.35877,7.61947 c 16.8695,23.98624 44.52929,70.88477 59.34332,100.61948 7.80885,15.67393 18.42537,43.78461 22.69805,60.10046 6.19743,23.66574 6.17617,23.55584 9.08694,46.98594 2.30604,18.5624 2.52958,23.1058 1.98837,40.4136 -0.67249,21.5061 0.059,22.9095 3.56589,6.8416 z M 532,1036.1775 c 0,-13.5583 2.7808,-38.7197 6.54022,-59.1775 7.53871,-41.02375 24.66419,-85.69245 51.63498,-134.68045 l 8.9083,-16.18046 -6.9596,-12.41802 c -3.82778,-6.82991 -10.37416,-19.23576 -14.54751,-27.56855 l -7.58792,-15.15054 8.98074,-17.75099 c 4.9394,-9.76305 11.4541,-22.27151 14.47711,-27.79659 l 5.49638,-10.04561 -6.60148,-11.95439 C 563.55855,651.33278 545.46211,604.43675 538.14209,563 c -3.40295,-19.26327 -6.13328,-44.94912 -6.13864,-57.75 -0.002,-4.5375 -0.3949,-8.25 -0.87334,-8.25 -1.03936,0 -2.39034,6.66908 -5.16564,25.5 -2.68185,18.19679 -3.70712,54.80137 -2.05869,73.5 2.9537,33.5046 11.60479,66.7966 26.63514,102.5 3.7046,8.8 6.74331,16.45 6.75268,17 0.009,0.55 -3.02297,8.2 -6.73853,17 -3.71556,8.8 -8.4045,21.04052 -10.41987,27.20115 l -3.66429,11.20114 4.10734,12.29886 c 2.25904,6.76437 7.03797,19.20817 10.61984,27.65289 l 6.51249,15.35404 -7.1901,17.14596 C 535.45167,879.28802 527.0916,911.21533 523.9048,945 c -1.66601,17.66205 -0.55965,57.5245 2.06771,74.5 3.15301,20.3718 4.18684,25.5 5.14072,25.5 0.48772,0 0.88677,-3.9701 0.88677,-8.8225 z m 438.48396,-10.3172 c 3.66131,-23.8831 5.07651,-53.27449 3.5564,-73.8603 -2.75072,-37.25102 -10.38485,-67.96915 -26.75476,-107.65549 l -7.48882,-18.15548 8.00098,-19.34452 c 4.40054,-10.63948 9.19293,-23.10337 10.64975,-27.69753 l 2.64877,-8.35303 -3.18174,-9.64697 c -1.74996,-5.30584 -6.49663,-17.62945 -10.54815,-27.38581 C 943.31488,724.00482 940,715.78729 940,715.5 c 0,-0.28729 3.31479,-8.50482 7.3662,-18.26117 21.41594,-51.57255 29.53946,-95.28881 26.80479,-144.24837 -0.9516,-17.03681 -5.36921,-52.88413 -6.80301,-55.20408 -1.49558,-2.41989 -2.36831,1.45344 -2.37094,10.52264 -0.008,25.97432 -5.79139,62.47713 -14.49652,91.48993 -9.24901,30.82546 -24.48262,65.25022 -48.58244,109.78608 l -3.29281,6.08503 8.60805,15.91497 c 4.73443,8.75323 11.22286,21.20381 14.41873,27.66794 l 5.81066,11.75297 -6.83542,13.74703 c -3.75949,7.56087 -10.1636,19.71115 -14.23136,27.00062 C 902.32817,819.04307 899,825.51081 899,826.12635 c 0,0.61555 3.98201,8.37643 8.8489,17.24641 19.03439,34.69041 34.4019,70.31684 43.09164,99.89915 8.39608,28.58265 13.99493,64.19889 14.0397,89.31139 0.0194,10.8688 0.61981,13.8828 2.20233,11.055 0.43634,-0.7797 1.92197,-8.7798 3.30139,-17.778 z M 412.87244,1158.25 c -1.24387,-1.5861 -1.2085,-1.6214 0.37756,-0.3776 0.9625,0.7549 1.75,1.5424 1.75,1.75 0,0.8231 -0.82119,0.2933 -2.12756,-1.3724 z M 1091,1159.6224 c 0,-0.2076 0.7875,-0.9951 1.75,-1.75 1.5861,-1.2438 1.6214,-1.2085 0.3776,0.3776 -1.3064,1.6657 -2.1276,2.1955 -2.1276,1.3724 z M 404.87244,1151.25 c -1.24387,-1.5861 -1.2085,-1.6214 0.37756,-0.3776 1.66575,1.3064 2.19548,2.1276 1.37244,2.1276 -0.20765,0 -0.99515,-0.7875 -1.75,-1.75 z M 1099,1152.6224 c 0,-0.2076 0.7875,-0.9951 1.75,-1.75 1.5861,-1.2438 1.6214,-1.2085 0.3776,0.3776 -1.3064,1.6657 -2.1276,2.1955 -2.1276,1.3724 z M 392.45295,1139.75 388.5,1135.5 l 4.25,3.9529 c 2.3375,2.1742 4.25,4.0867 4.25,4.25 0,0.7566 -0.87085,-4e-4 -4.54705,-3.9529 z M 1112.5,1140 c 2.1482,-2.2 4.1309,-4 4.4059,-4 0.275,0 -1.2577,1.8 -3.4059,4 -2.1482,2.2 -4.1309,4 -4.4059,4 -0.275,0 1.2577,-1.8 3.4059,-4 z m -739.04705,-19.25 -3.95295,-4.25 4.25,3.9529 c 3.95246,3.6762 4.70953,4.5471 3.95295,4.5471 -0.16338,0 -2.07588,-1.9125 -4.25,-4.25 z M 1131.5,1121 c 2.1482,-2.2 4.1309,-4 4.4059,-4 0.275,0 -1.2577,1.8 -3.4059,4 -2.1482,2.2 -4.1309,4 -4.4059,4 -0.275,0 1.2577,-1.8 3.4059,-4 z m -769.62756,-12.75 c -1.24387,-1.5861 -1.2085,-1.6214 0.37756,-0.3776 0.9625,0.7549 1.75,1.5424 1.75,1.75 0,0.8231 -0.82119,0.2933 -2.12756,-1.3724 z M 1142,1109.6224 c 0,-0.2076 0.7875,-0.9951 1.75,-1.75 1.5861,-1.2438 1.6214,-1.2085 0.3776,0.3776 -1.3064,1.6657 -2.1276,2.1955 -2.1276,1.3724 z M 354.87244,1100.25 c -1.24387,-1.5861 -1.2085,-1.6214 0.37756,-0.3776 1.66575,1.3064 2.19548,2.1276 1.37244,2.1276 -0.20765,0 -0.99515,-0.7875 -1.75,-1.75 z M 1149,1101.6224 c 0,-0.2076 0.7875,-0.9951 1.75,-1.75 1.5861,-1.2438 1.6214,-1.2085 0.3776,0.3776 -1.3064,1.6657 -2.1276,2.1955 -2.1276,1.3724 z M 234.07895,827.41667 c 0.048,-1.16495 0.28494,-1.4019 0.60416,-0.60417 0.28887,0.72187 0.25335,1.58438 -0.0789,1.91667 -0.3323,0.33229 -0.56864,-0.25834 -0.52522,-1.3125 z m 1036.99995,0 c 0.048,-1.16495 0.285,-1.4019 0.6042,-0.60417 0.2889,0.72187 0.2534,1.58438 -0.079,1.91667 -0.3323,0.33229 -0.5687,-0.25834 -0.5253,-1.3125 z m -1037.99995,-8 c 0.048,-1.16495 0.28494,-1.4019 0.60416,-0.60417 0.28887,0.72187 0.25335,1.58438 -0.0789,1.91667 -0.3323,0.33229 -0.56864,-0.25834 -0.52522,-1.3125 z m 1038.99995,0 c 0.048,-1.16495 0.285,-1.4019 0.6042,-0.60417 0.2889,0.72187 0.2534,1.58438 -0.079,1.91667 -0.3323,0.33229 -0.5687,-0.25834 -0.5253,-1.3125 z m -1039.99995,-10 c 0.048,-1.16495 0.28494,-1.4019 0.60416,-0.60417 0.28887,0.72187 0.25335,1.58438 -0.0789,1.91667 -0.3323,0.33229 -0.56864,-0.25834 -0.52522,-1.3125 z m 1040.99995,0 c 0.048,-1.16495 0.285,-1.4019 0.6042,-0.60417 0.2889,0.72187 0.2534,1.58438 -0.079,1.91667 -0.3323,0.33229 -0.5687,-0.25834 -0.5253,-1.3125 z M 231.15789,797 c 0,-1.375 0.22698,-1.9375 0.50439,-1.25 0.27741,0.6875 0.27741,1.8125 0,2.5 -0.27741,0.6875 -0.50439,0.125 -0.50439,-1.25 z m -0.87188,-20.5 c 0.008,-2.75 0.20172,-3.75631 0.43157,-2.23625 0.22986,1.52006 0.22371,3.77006 -0.0136,5 -0.23736,1.22994 -0.42542,-0.0137 -0.41792,-2.76375 z m 0,-31 c 0.008,-2.75 0.20172,-3.75631 0.43157,-2.23625 0.22986,1.52006 0.22371,3.77006 -0.0136,5 -0.23736,1.22994 -0.42542,-0.0137 -0.41792,-2.76375 z m 0.87188,-20.5 c 0,-1.375 0.22698,-1.9375 0.50439,-1.25 0.27741,0.6875 0.27741,1.8125 0,2.5 -0.27741,0.6875 -0.50439,0.125 -0.50439,-1.25 z m 0.92106,-12.58333 c 0.048,-1.16495 0.28494,-1.4019 0.60416,-0.60417 0.28887,0.72187 0.25335,1.58438 -0.0789,1.91667 -0.3323,0.33229 -0.56864,-0.25834 -0.52522,-1.3125 z m 1040.99995,0 c 0.048,-1.16495 0.285,-1.4019 0.6042,-0.60417 0.2889,0.72187 0.2534,1.58438 -0.079,1.91667 -0.3323,0.33229 -0.5687,-0.25834 -0.5253,-1.3125 z m -1039.99995,-10 c 0.048,-1.16495 0.28494,-1.4019 0.60416,-0.60417 0.28887,0.72187 0.25335,1.58438 -0.0789,1.91667 -0.3323,0.33229 -0.56864,-0.25834 -0.52522,-1.3125 z m 1038.99995,0 c 0.048,-1.16495 0.285,-1.4019 0.6042,-0.60417 0.2889,0.72187 0.2534,1.58438 -0.079,1.91667 -0.3323,0.33229 -0.5687,-0.25834 -0.5253,-1.3125 z m -1037.99995,-8 c 0.048,-1.16495 0.28494,-1.4019 0.60416,-0.60417 0.28887,0.72187 0.25335,1.58438 -0.0789,1.91667 -0.3323,0.33229 -0.56864,-0.25834 -0.52522,-1.3125 z m 1036.99995,0 c 0.048,-1.16495 0.285,-1.4019 0.6042,-0.60417 0.2889,0.72187 0.2534,1.58438 -0.079,1.91667 -0.3323,0.33229 -0.5687,-0.25834 -0.5253,-1.3125 z M 354,422.62244 c 0,-0.20765 0.7875,-0.99515 1.75,-1.75 1.58606,-1.24387 1.62143,-1.2085 0.37756,0.37756 C 354.82119,422.91575 354,423.44548 354,422.62244 Z M 1149.8724,421.25 c -1.2438,-1.58606 -1.2085,-1.62143 0.3776,-0.37756 1.6657,1.30637 2.1955,2.12756 1.3724,2.12756 -0.2076,0 -0.9951,-0.7875 -1.75,-1.75 z M 361,414.62244 c 0,-0.20765 0.7875,-0.99515 1.75,-1.75 1.58606,-1.24387 1.62143,-1.2085 0.37756,0.37756 C 361.82119,414.91575 361,415.44548 361,414.62244 Z M 1142.8724,413.25 c -1.2438,-1.58606 -1.2085,-1.62143 0.3776,-0.37756 1.6657,1.30637 2.1955,2.12756 1.3724,2.12756 -0.2076,0 -0.9951,-0.7875 -1.75,-1.75 z M 373.5,401 c 2.14824,-2.2 4.1309,-4 4.4059,-4 0.275,0 -1.25766,1.8 -3.4059,4 -2.14824,2.2 -4.1309,4 -4.4059,4 -0.275,0 1.25766,-1.8 3.4059,-4 z m 757.9529,-0.25 -3.9529,-4.25 4.25,3.95295 c 2.3375,2.17412 4.25,4.08662 4.25,4.25 0,0.75658 -0.8709,-4.9e-4 -4.5471,-3.95295 z M 392.5,382 c 2.14824,-2.2 4.1309,-4 4.4059,-4 0.275,0 -1.25766,1.8 -3.4059,4 -2.14824,2.2 -4.1309,4 -4.4059,4 -0.275,0 1.25766,-1.8 3.4059,-4 z m 719.9529,-0.25 -3.9529,-4.25 4.25,3.95295 c 2.3375,2.17412 4.25,4.08662 4.25,4.25 0,0.75658 -0.8709,-4.9e-4 -4.5471,-3.95295 z M 404,371.62244 c 0,-0.20765 0.7875,-0.99515 1.75,-1.75 1.58606,-1.24387 1.62143,-1.2085 0.37756,0.37756 C 404.82119,371.91575 404,372.44548 404,371.62244 Z M 1099.8724,370.25 c -1.2438,-1.58606 -1.2085,-1.62143 0.3776,-0.37756 1.6657,1.30637 2.1955,2.12756 1.3724,2.12756 -0.2076,0 -0.9951,-0.7875 -1.75,-1.75 z M 412,364.62244 c 0,-0.20765 0.7875,-0.99515 1.75,-1.75 1.58606,-1.24387 1.62143,-1.2085 0.37756,0.37756 C 412.82119,364.91575 412,365.44548 412,364.62244 Z M 1091.8724,363.25 c -1.2438,-1.58606 -1.2085,-1.62143 0.3776,-0.37756 1.6657,1.30637 2.1955,2.12756 1.3724,2.12756 -0.2076,0 -0.9951,-0.7875 -1.75,-1.75 z M 685.8125,242.31689 c 0.72187,-0.28887 1.58438,-0.25335 1.91667,0.0789 0.33229,0.33229 -0.25834,0.56864 -1.3125,0.52522 -1.16495,-0.048 -1.4019,-0.28494 -0.60417,-0.60416 z m 133,0 c 0.72187,-0.28887 1.58438,-0.25335 1.91667,0.0789 0.33229,0.33229 -0.25834,0.56864 -1.3125,0.52522 -1.16495,-0.048 -1.4019,-0.28494 -0.60417,-0.60416 z m -125,-1 c 0.72187,-0.28887 1.58438,-0.25335 1.91667,0.0789 0.33229,0.33229 -0.25834,0.56864 -1.3125,0.52522 -1.16495,-0.048 -1.4019,-0.28494 -0.60417,-0.60416 z m 117,0 c 0.72187,-0.28887 1.58438,-0.25335 1.91667,0.0789 0.33229,0.33229 -0.25834,0.56864 -1.3125,0.52522 -1.16495,-0.048 -1.4019,-0.28494 -0.60417,-0.60416 z m -107,-1 c 0.72187,-0.28887 1.58438,-0.25335 1.91667,0.0789 0.33229,0.33229 -0.25834,0.56864 -1.3125,0.52522 -1.16495,-0.048 -1.4019,-0.28494 -0.60417,-0.60416 z m 97,0 c 0.72187,-0.28887 1.58438,-0.25335 1.91667,0.0789 0.33229,0.33229 -0.25834,0.56864 -1.3125,0.52522 -1.16495,-0.048 -1.4019,-0.28494 -0.60417,-0.60416 z M 715.75,239.33772 c 0.6875,-0.27741 1.8125,-0.27741 2.5,0 0.6875,0.27741 0.125,0.50439 -1.25,0.50439 -1.375,0 -1.9375,-0.22698 -1.25,-0.50439 z m 72,0 c 0.6875,-0.27741 1.8125,-0.27741 2.5,0 0.6875,0.27741 0.125,0.50439 -1.25,0.50439 -1.375,0 -1.9375,-0.22698 -1.25,-0.50439 z m -52.48625,-1.0553 c 1.52006,-0.22986 3.77006,-0.22371 5,0.0136 1.22994,0.23736 -0.0137,0.42542 -2.76375,0.41792 -2.75,-0.008 -3.75631,-0.20172 -2.23625,-0.43157 z m 31,0 c 1.52006,-0.22986 3.77006,-0.22371 5,0.0136 1.22994,0.23736 -0.0137,0.42542 -2.76375,0.41792 -2.75,-0.008 -3.75631,-0.20172 -2.23625,-0.43157 z"
         id="path18" />
      <path
         style="fill:#000000"
         d="M 735,1283.392 C 662.29534,1280.0706 596.0331,1264.1917 533,1234.9855 401.38079,1174.0001 299.93736,1059.2589 255.64248,921.27044 238.62714,868.26387 230.71112,817.37598 230.71112,761 c 0,-37.47936 2.84038,-66.88687 9.85187,-102 C 277.69816,473.0291 412.74668,321.41776 592.72956,263.64248 645.73613,246.62714 696.62402,238.71112 753,238.71112 c 37.47936,0 66.88687,2.84038 102,9.85187 174.9432,34.93314 319.392,155.87346 384.5152,321.93701 15.1371,38.59942 25.4832,78.4149 31.7019,122 2.145,15.03368 2.2829,19.17075 2.2829,68.5 0,58.53879 -0.4061,63.67722 -8.0616,102 -34.9515,174.9652 -155.8736,319.3915 -321.9384,384.5152 -47.68,18.6982 -98.45342,30.3897 -149.5,34.4254 -14.31725,1.1319 -47.90678,1.9582 -59,1.4514 z m 57.34125,-25.8877 c 64.29046,-5.6714 121.46754,-21.3682 178.15875,-48.9099 23.01618,-11.1817 36.0977,-18.6152 56.5,-32.1058 65.2071,-43.1169 119.5093,-100.8334 158.0508,-167.9886 26.5342,-46.23346 47.8063,-104.09186 57.4367,-156.22268 C 1248.4963,819.75049 1249,812.69063 1249,761 c 0,-51.69063 -0.5037,-58.75049 -6.5125,-91.27732 -9.6304,-52.13082 -30.9025,-109.98922 -57.4367,-156.22268 -27.1899,-47.37599 -66.0345,-94.47238 -106.4025,-129.00583 -51.3541,-43.93165 -107.59383,-75.72187 -171.02271,-96.67272 -100.04996,-33.04695 -209.20122,-33.04695 -309.25118,0 -63.42888,20.95085 -119.66864,52.74107 -171.02273,96.67272 -33.2686,28.46015 -64.26202,63.82296 -89.84031,102.50583 -13.49058,20.40225 -20.92411,33.48382 -32.10581,56.5 -56.87769,117.07585 -66.00026,249.76533 -25.58411,372.12559 20.95085,63.42888 52.74107,119.66861 96.67272,171.02271 28.46015,33.2686 63.82296,64.262 102.50583,89.8403 20.40225,13.4906 33.48382,20.9241 56.5,32.1058 56.00481,27.2082 113.30434,43.033 177,48.8831 19.66562,1.8061 59.51894,1.8195 79.84125,0.027 z"
         id="path16" />
    </g>
  </g>
</svg>
