<?xml version="1.0" encoding="UTF-8" standalone="no"?>
<svg
   xmlns:dc="http://purl.org/dc/elements/1.1/"
   xmlns:cc="http://creativecommons.org/ns#"
   xmlns:rdf="http://www.w3.org/1999/02/22-rdf-syntax-ns#"
   xmlns:svg="http://www.w3.org/2000/svg"
   xmlns="http://www.w3.org/2000/svg"
   xmlns:sodipodi="http://sodipodi.sourceforge.net/DTD/sodipodi-0.dtd"
   xmlns:inkscape="http://www.inkscape.org/namespaces/inkscape"
   version="1.1"
   id="svg2"
   width="1044.7208"
   height="1337.2157"
   viewBox="0 0 1044.7208 1337.2157"
   sodipodi:docname="Bassein.svg"
   inkscape:version="1.0.1 (3bc2e813f5, 2020-09-07)">
  <metadata
     id="metadata8">
    <rdf:RDF>
      <cc:Work
         rdf:about="">
        <dc:format>image/svg+xml</dc:format>
        <dc:type
           rdf:resource="http://purl.org/dc/dcmitype/StillImage" />
        <dc:title></dc:title>
      </cc:Work>
    </rdf:RDF>
  </metadata>
  <defs
     id="defs6" />
  <sodipodi:namedview
     pagecolor="#ffffff"
     bordercolor="#666666"
     borderopacity="1"
     objecttolerance="10"
     gridtolerance="10"
     guidetolerance="10"
     inkscape:pageopacity="0"
     inkscape:pageshadow="2"
     inkscape:window-width="1920"
     inkscape:window-height="1057"
     id="namedview4"
     showgrid="false"
     inkscape:pagecheckerboard="true"
     inkscape:zoom="0.49"
     inkscape:cx="637.60003"
     inkscape:cy="668.71672"
     inkscape:window-x="-8"
     inkscape:window-y="-8"
     inkscape:window-maximized="1"
     inkscape:current-layer="g10" />
  <g
     inkscape:groupmode="layer"
     inkscape:label="Image"
     id="g10"
     transform="translate(-245.44632,-91.979669)">
    <rect
       style="fill:#ffffff;fill-rule:evenodd;stroke:#ffffff;stroke-width:0.5"
       id="rect22"
       width="338.77551"
       height="535.71429"
       x="607.69122"
       y="798.10211"
       ry="0.090192199" />
    <g
       id="g14"
       transform="translate(16.32658,16.326531)">
      <path
         style="fill:#fdbf2b"
         d="m 747.5,1397.3659 c -1.1,-0.2935 -8.525,-2.1102 -16.5,-4.037 -14.18113,-3.4263 -43.32179,-12.5579 -45.43521,-14.2378 -0.58563,-0.4655 -2.18979,-1.1695 -3.56479,-1.5645 -9.88481,-2.8396 -55.24625,-26.5228 -80.49363,-42.0257 -38.40843,-23.5844 -81.22471,-56.0015 -114.98772,-87.0596 -31.22519,-28.7235 -71.38089,-71.776 -90.05297,-96.5493 -1.08112,-1.4344 -5.16475,-6.8344 -9.07472,-12 C 372.41681,1120.1091 345,1080.3764 345,1078.4586 c 0,-0.241 -1.93799,-3.4802 -4.30663,-7.1984 -4.3013,-6.7518 -19.26764,-33.5267 -26.13752,-46.7602 -8.80951,-16.9698 -21.37418,-45.6207 -27.62824,-63 -2.17713,-6.05 -4.39322,-11.9 -4.92464,-13 -2.13926,-4.42816 -9.57279,-28.27407 -14.18379,-45.5 -5.38292,-20.10968 -10.39767,-45.96338 -13.38367,-69 -2.3577,-18.18931 -3.44278,-73.54699 -7.0075,-357.5 -0.84236,-67.1 -1.97989,-153.95 -2.52784,-193 -0.54795,-39.05 -0.83662,-73.5435 -0.64148,-76.65223 0.55016,-8.76473 3.30381,-11.60035 18.28603,-18.83034 C 269.40296,184.70785 275.22271,182 275.47749,182 c 0.25478,0 2.83908,-1.08362 5.74287,-2.40805 2.9038,-1.32443 9.32964,-4.05466 14.27964,-6.06718 4.95,-2.01252 10.35,-4.25384 12,-4.98072 1.65,-0.72687 4.125,-1.64669 5.5,-2.04405 1.375,-0.39736 3.85,-1.33092 5.5,-2.0746 8.13278,-3.66553 57.84216,-20.51683 71.5,-24.23824 1.925,-0.52452 8.9,-2.53641 15.5,-4.47088 6.6,-1.93448 18.75,-5.14563 27,-7.13591 8.25,-1.99028 17.475,-4.29611 20.5,-5.12407 9.99569,-2.73585 43.71277,-9.5045 64.24658,-12.89739 8.11061,-1.34015 15.08561,-2.64207 15.5,-2.89314 0.41438,-0.25108 6.82842,-1.1913 14.25342,-2.08937 7.425,-0.89808 15.3,-2.07256 17.5,-2.60997 3.48438,-0.85114 21.17021,-2.973083 50.5,-6.058973 8.36645,-0.880264 33.06644,-2.854531 64.5,-5.155476 20.38909,-1.492488 161.96722,-1.485097 179,0.0093 6.6,0.579078 22.0036,1.780846 34.23021,2.670596 12.22662,0.889749 25.72662,2.011313 30,2.492363 4.27339,0.48105 16.54479,1.811015 27.26979,2.955478 10.725,1.144472 20.625,2.317202 22,2.606092 1.375,0.28888 10.375,1.63879 20,2.9998 70.9088,10.02676 139.776,25.592 197,44.52558 14.2132,4.70271 36.8097,12.68053 39.5,13.94571 1.1,0.51731 6.6821,2.84825 12.4047,5.17987 11.4942,4.68317 16.6303,8.79955 17.5911,14.09844 0.7942,4.37975 -0.6151,131.92666 -4.544,411.26475 -0.5724,40.7 -1.4594,107.075 -1.9711,147.5 -0.6328,50.00168 -1.3859,77.97587 -2.3555,87.5 -1.8887,18.55298 -5.4234,44.254 -6.6015,48 -0.5189,1.65 -1.4526,6.15 -2.0749,10 -3.7931,23.46617 -20.9517,80.84363 -29.9764,100.2391 -1.0848,2.33151 -1.9724,4.4937 -1.9724,4.80487 0,0.31116 -0.8471,2.45357 -1.8824,4.76089 -1.0354,2.30733 -3.3441,7.57018 -5.1305,11.69518 -5.0903,11.7539 -15.9112,33.2371 -24.9661,49.5662 -54.2018,97.7442 -138.5276,187.3593 -240.021,255.076 -32.89311,21.9464 -70.84629,43.5071 -97.5,55.3885 -2.75,1.2258 -9.275,4.2478 -14.5,6.7155 -19.07907,9.0107 -30.73693,13.7875 -44.5,18.234 -8.06746,2.6064 -12.02917,3.2973 -20.5,3.5752 -5.775,0.1894 -11.4,0.1041 -12.5,-0.1895 z m 28.17616,-28.8315 c 14.00942,-4.8244 18.67035,-6.7375 35.69245,-14.65 49.37254,-22.9503 77.23044,-38.4239 114.42101,-63.5551 74.54618,-50.3739 136.69088,-109.8711 187.83138,-179.8293 57.2817,-78.3592 96.3434,-172.47377 107.9116,-260 4.1387,-31.31398 4.539,-39.6352 5.461,-113.5 0.5046,-40.425 1.3858,-106.8 1.9582,-147.5 2.3553,-167.4579 4.4133,-334.93284 4.4786,-364.45917 l 0.07,-31.45918 -8.5,-3.36809 c -17.8603,-7.07708 -46.3929,-16.9779 -65,-22.55502 -8.0012,-2.39821 -18.3336,-5.3047 -34.5,-9.70489 -18.4424,-5.01965 -65.6353,-15.48095 -83.247,-18.45344 -5.0859,-0.85839 -9.8109,-1.76774 -10.5,-2.02079 -1.4802,-0.54352 -22.5289,-3.78754 -42.253,-6.51204 -7.7,-1.06361 -16.7,-2.41024 -20,-2.99252 -3.3,-0.58228 -14.325,-1.95628 -24.5,-3.05333 -10.175,-1.09706 -22.325,-2.42742 -27,-2.95637 -4.675,-0.52895 -18.175,-1.65782 -30,-2.50858 -11.825,-0.85077 -27.125,-2.0427 -34,-2.64874 -17.374,-1.53153 -148.67322,-1.57218 -169.5,-0.0525 -32.81296,2.39433 -55.27751,4.19502 -64.5,5.17014 -27.30422,2.88694 -45.97805,5.13174 -50,6.01053 -2.475,0.54079 -10.31641,1.69863 -17.42536,2.57297 -7.10894,0.87435 -13.21823,1.77072 -13.57618,1.99195 -0.35795,0.22123 -5.34154,1.12464 -11.07464,2.00757 -29.61771,4.56134 -85.6698,17.06288 -114.92382,25.63195 -5.775,1.69162 -12.075,3.50872 -14,4.038 -13.32026,3.66248 -60.64102,19.67484 -70,23.68656 -1.375,0.58939 -7.675,3.07182 -14,5.51651 -12.15628,4.69856 -33.28935,13.75459 -41.24851,17.676 l -4.7485,2.33954 0.50362,52.05146 c 0.27698,28.6283 0.95461,69.15146 1.50583,90.05146 0.55122,20.9 1.48115,86.15 2.06652,145 2.19515,220.69127 3.9119,309.84037 6.31631,328 3.18033,24.01978 7.70072,47.911 12.10927,64 6.95383,25.37802 9.17989,32.31042 18.7849,58.5 14.93644,40.72659 34.82973,79.87162 64.0325,126.00002 8.51454,13.4495 21.69429,31.87 42.14374,58.9016 18.39,24.3093 56.54555,65.3269 86.12345,92.5835 50.91135,46.9158 110.44584,87.937 167.43634,115.3693 26.69758,12.8508 43.67509,19.0415 70.09149,25.5583 17.10015,4.2186 21.04119,4.1212 35.5592,-0.8783 z M 774,1282 c 4.99682,-4.4 9.38097,-8 9.74256,-8 0.36159,0 0.22994,0.3611 -0.29256,0.8024 -0.5225,0.4414 -4.60961,4.0414 -9.08248,8 -4.47286,3.9587 -8.42951,7.1976 -8.79256,7.1976 -0.36304,0 3.42822,-3.6 8.42504,-8 z m -23.03416,-10.75 -5.46584,-5.75 5.75,5.4658 c 5.34193,5.078 6.20809,6.0342 5.46584,6.0342 -0.15629,0 -2.74379,-2.5875 -5.75,-5.75 z m -23.50343,-0.5 -4.96241,-5.25 5.47886,5 c 3.01337,2.75 5.67587,5.1125 5.91667,5.25 0.24079,0.1375 0.008,0.25 -0.51646,0.25 -0.52484,0 -3.18734,-2.3625 -5.91666,-5.25 z M 770,1266.7119 c 0,-0.275 3.6,-3.7454 8,-7.7119 4.4,-3.9665 8,-6.9869 8,-6.7119 0,0.275 -3.6,3.7454 -8,7.7119 -4.4,3.9665 -8,6.9869 -8,6.7119 z M 804,1256.5 c 1.86578,-1.925 3.61733,-3.5 3.89233,-3.5 0.275,0 -1.02655,1.575 -2.89233,3.5 -1.86578,1.925 -3.61733,3.5 -3.89233,3.5 -0.275,0 1.02655,-1.575 2.89233,-3.5 z m -108.54705,-13.75 -3.95295,-4.25 4.25,3.9529 c 3.95246,3.6762 4.70953,4.5471 3.95295,4.5471 -0.16338,0 -2.07588,-1.9125 -4.25,-4.25 z m 18.66505,-4.1283 c -2.53579,-2.6162 -3.17773,-4.026 -2.846,-6.25 l 0.42834,-2.8717 0.14983,2.9524 c 0.0926,1.8244 1.37099,4.2123 3.346,6.25 1.75789,1.8137 2.97116,3.2976 2.69616,3.2976 -0.275,0 -1.97345,-1.5202 -3.77433,-3.3783 z M 803.232,1230 c 0,-1.925 0.2058,-2.7125 0.45733,-1.75 0.25152,0.9625 0.25152,2.5375 0,3.5 -0.25153,0.9625 -0.45733,0.175 -0.45733,-1.75 z m 16.92589,1 c 0,-1.375 0.22698,-1.9375 0.50439,-1.25 0.27741,0.6875 0.27741,1.8125 0,2.5 -0.27741,0.6875 -0.50439,0.125 -0.50439,-1.25 z m -127.07894,-2.5833 c 0.048,-1.165 0.28494,-1.4019 0.60416,-0.6042 0.28887,0.7219 0.25335,1.5844 -0.0789,1.9167 -0.33229,0.3323 -0.56864,-0.2584 -0.52522,-1.3125 z m 19.116,-4.9167 c 0.0204,-1.65 0.2445,-2.2039 0.49804,-1.231 0.25354,0.973 0.23687,2.323 -0.0371,3 -0.27393,0.6771 -0.48137,-0.119 -0.46099,-1.769 z m -17.03706,-6.5 c 0,-1.375 0.22698,-1.9375 0.50439,-1.25 0.27741,0.6875 0.27741,1.8125 0,2.5 -0.27741,0.6875 -0.50439,0.125 -0.50439,-1.25 z m 106.07411,-7 c 0,-1.925 0.2058,-2.7125 0.45733,-1.75 0.25152,0.9625 0.25152,2.5375 0,3.5 -0.25153,0.9625 -0.45733,0.175 -0.45733,-1.75 z m -87.03705,-3.5 c 0.0204,-1.65 0.2445,-2.2039 0.49804,-1.231 0.25354,0.973 0.23687,2.323 -0.0371,3 -0.27393,0.6771 -0.48137,-0.119 -0.46099,-1.769 z m 102.96294,-0.5 c 0,-1.375 0.22698,-1.9375 0.50439,-1.25 0.27741,0.6875 0.27741,1.8125 0,2.5 -0.27741,0.6875 -0.50439,0.125 -0.50439,-1.25 z m -100.96294,-14.5 c 0.0204,-1.65 0.2445,-2.2039 0.49804,-1.231 0.25354,0.973 0.23687,2.323 -0.0371,3 -0.27393,0.6771 -0.48137,-0.119 -0.46099,-1.769 z m 98.96294,-0.5 c 0,-1.375 0.22698,-1.9375 0.50439,-1.25 0.27741,0.6875 0.27741,1.8125 0,2.5 -0.27741,0.6875 -0.50439,0.125 -0.50439,-1.25 z m -15.92589,-2 c 0,-1.925 0.2058,-2.7125 0.45733,-1.75 0.25152,0.9625 0.25152,2.5375 0,3.5 -0.25153,0.9625 -0.45733,0.175 -0.45733,-1.75 z m -99.07411,-4 c 0,-1.375 0.22698,-1.9375 0.50439,-1.25 0.27741,0.6875 0.27741,1.8125 0,2.5 -0.27741,0.6875 -0.50439,0.125 -0.50439,-1.25 z m 113,-11 c 0,-1.375 0.22698,-1.9375 0.50439,-1.25 0.27741,0.6875 0.27741,1.8125 0,2.5 -0.27741,0.6875 -0.50439,0.125 -0.50439,-1.25 z m -111,-1 c 0,-1.375 0.22698,-1.9375 0.50439,-1.25 0.27741,0.6875 0.27741,1.8125 0,2.5 -0.27741,0.6875 -0.50439,0.125 -0.50439,-1.25 z m 1.92106,-11.5833 c 0.048,-1.165 0.28494,-1.4019 0.60416,-0.6042 0.28887,0.7219 0.25335,1.5844 -0.0789,1.9167 -0.33229,0.3323 -0.56864,-0.2584 -0.52522,-1.3125 z M 796.232,1156 c 0,-1.925 0.2058,-2.7125 0.45733,-1.75 0.25152,0.9625 0.25152,2.5375 0,3.5 -0.25153,0.9625 -0.45733,0.175 -0.45733,-1.75 z m -91.15305,-2.5833 c 0.048,-1.165 0.28494,-1.4019 0.60416,-0.6042 0.28887,0.7219 0.25335,1.5844 -0.0789,1.9167 -0.33229,0.3323 -0.56864,-0.2584 -0.52522,-1.3125 z M 721.15789,1150 c 0,-1.375 0.22698,-1.9375 0.50439,-1.25 0.27741,0.6875 0.27741,1.8125 0,2.5 -0.27741,0.6875 -0.50439,0.125 -0.50439,-1.25 z m -14.07894,-8.5833 c 0.048,-1.165 0.28494,-1.4019 0.60416,-0.6042 0.28887,0.7219 0.25335,1.5844 -0.0789,1.9167 -0.33229,0.3323 -0.56864,-0.2584 -0.52522,-1.3125 z M 794.232,1136 c 0,-1.925 0.2058,-2.7125 0.45733,-1.75 0.25152,0.9625 0.25152,2.5375 0,3.5 -0.25153,0.9625 -0.45733,0.175 -0.45733,-1.75 z m -71.07411,-1 c 0,-1.375 0.22698,-1.9375 0.50439,-1.25 0.27741,0.6875 0.27741,1.8125 0,2.5 -0.27741,0.6875 -0.50439,0.125 -0.50439,-1.25 z m 85,-1 c 0,-1.375 0.22698,-1.9375 0.50439,-1.25 0.27741,0.6875 0.27741,1.8125 0,2.5 -0.27741,0.6875 -0.50439,0.125 -0.50439,-1.25 z m -99,-4 c 0,-1.375 0.22698,-1.9375 0.50439,-1.25 0.27741,0.6875 0.27741,1.8125 0,2.5 -0.27741,0.6875 -0.50439,0.125 -0.50439,-1.25 z m 97.03706,-11.5 c 0.0204,-1.65 0.2445,-2.2039 0.49804,-1.231 0.25354,0.973 0.23687,2.323 -0.0371,3 -0.27393,0.6771 -0.48137,-0.119 -0.46099,-1.769 z m -95.03706,-0.5 c 0,-1.375 0.22698,-1.9375 0.50439,-1.25 0.27741,0.6875 0.27741,1.8125 0,2.5 -0.27741,0.6875 -0.50439,0.125 -0.50439,-1.25 z m 81.07411,-1 c 0,-1.925 0.2058,-2.7125 0.45733,-1.75 0.25152,0.9625 0.25152,2.5375 0,3.5 -0.25153,0.9625 -0.45733,0.175 -0.45733,-1.75 z m -79.07411,-12 c 0,-1.375 0.22698,-1.9375 0.50439,-1.25 0.27741,0.6875 0.27741,1.8125 0,2.5 -0.27741,0.6875 -0.50439,0.125 -0.50439,-1.25 z m 1,-7 c 0,-1.375 0.22698,-1.9375 0.50439,-1.25 0.27741,0.6875 0.27741,1.8125 0,2.5 -0.27741,0.6875 -0.50439,0.125 -0.50439,-1.25 z m 76,0 c 0,-1.375 0.22698,-1.9375 0.50439,-1.25 0.27741,0.6875 0.27741,1.8125 0,2.5 -0.27741,0.6875 -0.50439,0.125 -0.50439,-1.25 z m -61.96294,-4.5 c 0.0204,-1.65 0.2445,-2.2039 0.49804,-1.231 0.25354,0.973 0.23687,2.323 -0.0371,3 -0.27393,0.6771 -0.48137,-0.119 -0.46099,-1.769 z m 75,0 c 0.0204,-1.65 0.2445,-2.2039 0.49804,-1.231 0.25354,0.973 0.23687,2.323 -0.0371,3 -0.27393,0.6771 -0.48137,-0.119 -0.46099,-1.769 z m -87.03706,-7.5 c 0,-1.375 0.22698,-1.9375 0.50439,-1.25 0.27741,0.6875 0.27741,1.8125 0,2.5 -0.27741,0.6875 -0.50439,0.125 -0.50439,-1.25 z m 73.03706,-2.5 c 0.0204,-1.65 0.2445,-2.2039 0.49804,-1.231 0.25354,0.973 0.23687,2.323 -0.0371,3 -0.27393,0.6771 -0.48137,-0.119 -0.46099,-1.769 z m -59,-6 c 0.0204,-1.65 0.2445,-2.2039 0.49804,-1.231 0.25354,0.973 0.23687,2.323 -0.0371,3 -0.27393,0.6771 -0.48137,-0.119 -0.46099,-1.769 z m 71,0 c 0.0204,-1.65 0.2445,-2.2039 0.49804,-1.231 0.25354,0.973 0.23687,2.323 -0.0371,3 -0.27393,0.6771 -0.48137,-0.119 -0.46099,-1.769 z m -83.116,-3.0833 c 0.048,-1.165 0.28494,-1.4019 0.60416,-0.6042 0.28887,0.7219 0.25335,1.5844 -0.0789,1.9167 -0.33229,0.3323 -0.56864,-0.2584 -0.52522,-1.3125 z M 787.232,1064 c 0,-1.925 0.2058,-2.7125 0.45733,-1.75 0.25152,0.9625 0.25152,2.5375 0,3.5 -0.25153,0.9625 -0.45733,0.175 -0.45733,-1.75 z m 11.96295,-1.5 c 0.0204,-1.65 0.2445,-2.2039 0.49804,-1.231 0.25354,0.973 0.23687,2.323 -0.0371,3 -0.27393,0.6771 -0.48137,-0.119 -0.46099,-1.769 z m -79.116,-0.083 c 0.048,-1.165 0.28494,-1.4019 0.60416,-0.6042 0.28887,0.7219 0.25335,1.5844 -0.0789,1.9167 -0.33229,0.3323 -0.56864,-0.2584 -0.52522,-1.3125 z m 12.116,-0.9167 c 0.0204,-1.65 0.2445,-2.2039 0.49804,-1.231 0.25354,0.973 0.23687,2.323 -0.0371,3 -0.27393,0.6771 -0.48137,-0.119 -0.46099,-1.769 z m 65,-15 c 0.0204,-1.65 0.2445,-2.2039 0.49804,-1.231 0.25354,0.973 0.23687,2.323 -0.0371,3 -0.27393,0.6771 -0.48137,-0.119 -0.46099,-1.769 z m -12,-3 c 0.0204,-1.65 0.2445,-2.2039 0.49804,-1.231 0.25354,0.973 0.23687,2.323 -0.0371,3 -0.27393,0.6771 -0.48137,-0.119 -0.46099,-1.769 z m -62.116,-1.0833 c 0.048,-1.165 0.28494,-1.4019 0.60416,-0.6042 0.28887,0.7219 0.25335,1.5844 -0.0789,1.9167 -0.33229,0.3323 -0.56864,-0.2584 -0.52522,-1.3125 z m 73,-5 c 0.048,-1.165 0.28494,-1.4019 0.60416,-0.6042 0.28887,0.7219 0.25335,1.5844 -0.0789,1.9167 -0.33229,0.3323 -0.56864,-0.2584 -0.52522,-1.3125 z M 735.15789,1036 c 0,-1.375 0.22698,-1.9375 0.50439,-1.25 0.27741,0.6875 0.27741,1.8125 0,2.5 -0.27741,0.6875 -0.50439,0.125 -0.50439,-1.25 z m -10,-5 c 0,-1.375 0.22698,-1.9375 0.50439,-1.25 0.27741,0.6875 0.27741,1.8125 0,2.5 -0.27741,0.6875 -0.50439,0.125 -0.50439,-1.25 z m 26.09211,-3.7163 c 1.5125,-0.2291 3.9875,-0.2291 5.5,0 1.5125,0.2292 0.275,0.4166 -2.75,0.4166 -3.025,0 -4.2625,-0.1874 -2.75,-0.4166 z M 791,1025.5 c 1.29175,-1.375 2.57363,-2.5 2.84863,-2.5 0.275,0 -0.55688,1.125 -1.84863,2.5 -1.29175,1.375 -2.57363,2.5 -2.84863,2.5 -0.275,0 0.55688,-1.125 1.84863,-2.5 z m -63.92105,-7.0833 c 0.048,-1.165 0.28494,-1.4019 0.60416,-0.6042 0.28887,0.7219 0.25335,1.5844 -0.0789,1.9167 -0.33229,0.3323 -0.56864,-0.2584 -0.52522,-1.3125 z M 739,1018 c 0.5887,-1.1 1.29537,-2 1.57037,-2 0.275,0 0.0183,0.9 -0.57037,2 -0.5887,1.1 -1.29537,2 -1.57037,2 -0.275,0 -0.0183,-0.9 0.57037,-2 z m 12,-2.3776 c 0,-0.2076 0.7875,-0.9951 1.75,-1.75 1.58606,-1.2438 1.62143,-1.2085 0.37756,0.3776 -1.30637,1.6657 -2.12756,2.1955 -2.12756,1.3724 z m 3,-4 c 0,-0.2076 0.7875,-0.9951 1.75,-1.75 1.58606,-1.2438 1.62143,-1.2085 0.37756,0.3776 -1.30637,1.6657 -2.12756,2.1955 -2.12756,1.3724 z m -7,-6.1224 c 1.29175,-1.375 2.57363,-2.5 2.84863,-2.5 0.275,0 -0.55688,1.125 -1.84863,2.5 -1.29175,1.375 -2.57363,2.5 -2.84863,2.5 -0.275,0 0.55688,-1.125 1.84863,-2.5 z m 25.73333,1.3759 c 0.67834,-0.6834 1.48524,-0.9907 1.79313,-0.6828 0.30789,0.3079 -0.24711,0.8671 -1.23333,1.2426 -1.4252,0.5427 -1.54006,0.4278 -0.5598,-0.5598 z M 759.40499,994.75 757.5,992.5 l 2.25,1.90499 c 2.11444,1.79022 2.70524,2.59501 1.90499,2.59501 -0.18976,0 -1.20226,-1.0125 -2.25,-2.25 z M 771.5,994 c 0.99549,-1.1 2.03498,-2 2.30998,-2 0.275,0 -0.31449,0.9 -1.30998,2 -0.99549,1.1 -2.03498,2 -2.30998,2 -0.275,0 0.31449,-0.9 1.30998,-2 z m -55.20034,-5 c 0,-3.025 0.18747,-4.2625 0.41659,-2.75 0.22913,1.5125 0.22913,3.9875 0,5.5 -0.22912,1.5125 -0.41659,0.275 -0.41659,-2.75 z M 729,990.5 c 1.29175,-1.375 2.57363,-2.5 2.84863,-2.5 0.275,0 -0.55688,1.125 -1.84863,2.5 -1.29175,1.375 -2.57363,2.5 -2.84863,2.5 -0.275,0 0.55688,-1.125 1.84863,-2.5 z m 3.15789,-15.5 c 0,-1.375 0.22698,-1.9375 0.50439,-1.25 0.27741,0.6875 0.27741,1.8125 0,2.5 -0.27741,0.6875 -0.50439,0.125 -0.50439,-1.25 z m 26.2792,-5.25 -2.93709,-3.25 3.25,2.93709 c 3.02946,2.73778 3.70965,3.56291 2.93709,3.56291 -0.1721,0 -1.6346,-1.4625 -3.25,-3.25 z m 59.29624,2.12591 c 0.67834,-0.68342 1.48524,-0.99067 1.79313,-0.68278 0.30789,0.30789 -0.24711,0.86705 -1.23333,1.24258 -1.4252,0.54268 -1.54006,0.42782 -0.5598,-0.5598 z M 835,963.62244 c 0,-0.20765 0.7875,-0.99515 1.75,-1.75 1.58606,-1.24387 1.62143,-1.2085 0.37756,0.37756 C 835.82119,963.91575 835,964.44548 835,963.62244 Z M 765.92431,960.25 763.5,957.5 l 2.75,2.42431 c 1.5125,1.33338 2.75,2.57088 2.75,2.75 0,0.78428 -0.8098,0.14598 -3.07569,-2.42431 z m 11.63998,0.45687 c 0.37553,-0.98622 0.93469,-1.54122 1.24258,-1.23333 0.30789,0.30789 6.4e-4,1.11479 -0.68278,1.79313 -0.98762,0.98026 -1.10248,0.8654 -0.5598,-0.5598 z M 846,956.62244 c 0,-0.20765 0.7875,-0.99515 1.75,-1.75 1.58606,-1.24387 1.62143,-1.2085 0.37756,0.37756 C 846.82119,956.91575 846,957.44548 846,956.62244 Z M 851.5,952 c 0.99549,-1.1 2.03498,-2 2.30998,-2 0.275,0 -0.31449,0.9 -1.30998,2 -0.99549,1.1 -2.03498,2 -2.30998,2 -0.275,0 0.31449,-0.9 1.30998,-2 z M 664.92431,950.25 662.5,947.5 l 2.75,2.42431 c 1.5125,1.33338 2.75,2.57088 2.75,2.75 0,0.78428 -0.8098,0.14598 -3.07569,-2.42431 z m 92.15464,-2.83333 c 0.048,-1.16495 0.28494,-1.4019 0.60416,-0.60417 0.28887,0.72187 0.25335,1.58438 -0.0789,1.91667 -0.33229,0.33229 -0.56864,-0.25834 -0.52522,-1.3125 z M 650.48295,936.75 639.5,925.5 l 11.25,10.98295 c 6.1875,6.04062 11.25,11.10312 11.25,11.25 0,0.72114 -1.31566,-0.53351 -11.51705,-10.98295 z m 130.712,8.75 c 0.0204,-1.65 0.2445,-2.20394 0.49804,-1.23097 0.25354,0.97297 0.23687,2.32297 -0.0371,3 -0.27393,0.67703 -0.48137,-0.11903 -0.46099,-1.76903 z m 31.53838,-5.62409 c 0.67834,-0.68342 1.48524,-0.99067 1.79313,-0.68278 0.30789,0.30789 -0.24711,0.86705 -1.23333,1.24258 -1.4252,0.54268 -1.54006,0.42782 -0.5598,-0.5598 z M 719.5,936.2313 c -1.1,-0.19889 -3.50811,-0.83225 -5.35135,-1.40746 l -3.35136,-1.04584 0.60944,-5.139 c 0.75333,-6.35231 2.18126,-28.62145 4.14474,-64.639 2.73963,-50.25488 3.42087,-64.28195 4.41949,-91 0.54477,-14.575 1.23486,-27.91086 1.53354,-29.63524 1.00382,-5.79527 0.61062,-130.24889 -0.4649,-147.14714 -1.34975,-21.20698 -2.87324,-40.34231 -4.07778,-51.21762 -2.70757,-24.44556 -4.13178,-35.98813 -4.9972,-40.5 -0.52748,-2.75 -2.29571,-11.975 -3.92939,-20.5 -1.63369,-8.525 -3.68002,-18.2 -4.54741,-21.5 -4.39909,-16.73649 -6.79867,-25.16139 -7.5996,-26.68212 -0.58528,-1.11128 -0.0175,-4.8442 1.67316,-11 1.4075,-5.12483 4.12083,-15.39288 6.02961,-22.81788 1.90879,-7.425 3.91983,-14.89658 4.46897,-16.60351 0.54915,-1.70693 1.18636,-3.95693 1.41603,-5 0.80043,-3.63523 8.35848,-32.9408 10.0316,-38.89649 0.92706,-3.3 2.03578,-7.575 2.46381,-9.5 0.42804,-1.925 2.22101,-8.9 3.98438,-15.5 1.76338,-6.6 4.31651,-16.275 5.67363,-21.5 1.35712,-5.225 4.06326,-15.125 6.01366,-22 1.95039,-6.875 4.41873,-15.65 5.4852,-19.5 1.06647,-3.85 3.11785,-10.80335 4.55862,-15.45189 2.32198,-7.49166 2.72462,-8.17333 3.54399,-6 1.16969,3.10253 0.37861,42.95551 -1.1305,56.95189 -1.26998,11.77848 -4.46499,34.1581 -6.70993,47 -0.81725,4.675 -2.57397,14.8 -3.90383,22.5 -1.32985,7.7 -3.33165,18.95 -4.44845,25 -1.11679,6.05 -3.22203,18.99879 -4.67831,28.77509 -2.44891,16.4401 -2.53144,18.0173 -1.09888,21 3.18132,6.62376 8.65142,20.44053 10.58045,26.72491 5.77355,18.80898 6.08291,20.02652 8.76605,34.5 2.07731,11.20553 2.59224,27.93726 3.35455,109 0.94793,100.80044 0.23514,135.19227 -3.40936,164.5 -0.23938,1.925 -0.72428,5.975 -1.07755,9 -0.35328,3.025 -1.30802,9.325 -2.12166,14 -0.81363,4.675 -2.35605,14.125 -3.4276,21 -1.90203,12.20337 -6.96819,43.51377 -8.98014,55.5 -0.55392,3.3 -1.42425,9.15 -1.93405,13 -0.98867,7.46634 -1.74182,12.18186 -4.90649,30.71988 -1.1004,6.44593 -2.29813,14.32093 -2.66163,17.5 -0.79468,6.95014 -1.33682,7.98276 -3.94355,7.51142 z m 17.96757,-0.28377 c -0.46589,-0.75384 -0.37008,-1.00531 0.23948,-0.62858 0.55884,0.34538 4.00337,-2.46634 7.65451,-6.24826 3.65114,-3.78193 6.63844,-6.57041 6.63844,-6.19664 0,0.37377 -3.09506,3.75094 -6.87792,7.50481 -4.82194,4.78498 -7.11006,6.4496 -7.65451,5.56867 z M 781.19495,932.5 c 0.0204,-1.65 0.2445,-2.20394 0.49804,-1.23097 0.25354,0.97297 0.23687,2.32297 -0.0371,3 -0.27393,0.67703 -0.48137,-0.11903 -0.46099,-1.76903 z m 16.42575,0.69529 c -0.30119,-0.48733 -0.83026,-2.86813 -1.17571,-5.29067 -0.34545,-2.42254 -1.25181,-8.00462 -2.01415,-12.40462 -0.76233,-4.4 -1.60044,-9.35 -1.86247,-11 -0.26203,-1.65 -0.96867,-5.925 -1.57033,-9.5 -0.60166,-3.575 -1.51148,-9.2 -2.02183,-12.5 -0.51034,-3.3 -2.04036,-12.525 -3.40003,-20.5 -4.11035,-24.10875 -5.42462,-32.04408 -7.03897,-42.5 -1.57223,-10.18312 -2.99316,-18.43115 -4.56528,-26.5 -1.70561,-8.75395 -2.93721,-18.72353 -4.69438,-38 -1.5855,-17.39319 -1.75398,-30.6449 -1.55935,-122.65408 0.25691,-121.45333 0.70332,-130.4578 7.97425,-160.84592 3.72992,-15.58886 5.13761,-19.67313 11.54617,-33.5 2.9635,-6.39393 2.99463,-6.63055 1.90766,-14.5 -2.07653,-15.03375 -4.10654,-27.99621 -6.18598,-39.5 -1.81569,-10.04472 -2.58781,-14.54479 -4.46109,-26 -0.22485,-1.375 -1.11992,-7.225 -1.98904,-13 -0.86912,-5.775 -2.44609,-15.9 -3.50437,-22.5 -1.83004,-11.41311 -2.99696,-21.13892 -5.09923,-42.5 -0.51422,-5.225 -1.17544,-18.95 -1.46938,-30.5 -0.57339,-22.53066 -0.06,-24.02464 3.53195,-10.27889 1.04614,4.00339 4.44813,16.05389 7.55996,26.77889 3.11184,10.725 6.01847,20.85 6.45919,22.5 0.44072,1.65 1.99949,7.275 3.46393,12.5 1.46444,5.225 3.32439,11.975 4.13322,15 0.80884,3.025 2.07779,7.525 2.81989,10 0.7421,2.475 1.8442,6.3 2.44909,8.5 0.60489,2.2 2.6538,9.4 4.55312,16 1.89932,6.6 4.44133,15.6 5.6489,20 1.98583,7.2357 4.69664,16.95454 6.97308,25 0.46686,1.65 1.96277,7.05 3.32423,12 1.36147,4.95 3.38388,12.04379 4.49424,15.76398 l 2.01884,6.76398 -2.28488,9.73602 c -5.91058,25.18541 -11.60515,57.56103 -14.20072,80.73602 -6.20682,55.41865 -7.34567,78.16386 -7.3102,146 0.0305,58.39506 0.7061,81.21847 4.91354,166 0.9292,18.72377 2.22126,49.27468 3.47507,82.16853 l 0.54006,14.16854 -3.24985,1.96744 c -4.21911,2.55424 -7.44228,3.50217 -8.12915,2.39078 z M 677.43709,925.75 674.5,922.5 l 3.25,2.93709 c 3.02946,2.73778 3.70965,3.56291 2.93709,3.56291 -0.1721,0 -1.6346,-1.4625 -3.25,-3.25 z M 833.5,927 c 0.99549,-1.1 2.03498,-2 2.30998,-2 0.275,0 -0.31449,0.9 -1.30998,2 -0.99549,1.1 -2.03498,2 -2.30998,2 -0.275,0 0.31449,-0.9 1.30998,-2 z M 637.40499,922.75 635.5,920.5 l 2.25,1.90499 c 2.11444,1.79022 2.70524,2.59501 1.90499,2.59501 -0.18976,0 -1.20226,-1.0125 -2.25,-2.25 z M 845.5,916 c 4.92707,-4.95 9.1833,-9 9.4583,-9 0.275,0 -3.53123,4.05 -8.4583,9 -4.92707,4.95 -9.1833,9 -9.4583,9 -0.275,0 3.53123,-4.05 8.4583,-9 z m 35.49691,6.25 c 1.30856,-1.7875 2.53541,-3.25 2.72633,-3.25 0.75941,0 -1.72001,3.75054 -3.35979,5.08224 -1.08027,0.87731 -0.83879,0.17886 0.63346,-1.83224 z m -212.0726,-4 -2.42431,-2.75 2.75,2.42431 c 1.5125,1.33338 2.75,2.57088 2.75,2.75 0,0.78428 -0.8098,0.14598 -3.07569,-2.42431 z M 758,920 c -0.90129,-0.58246 -1.02463,-0.97549 -0.30902,-0.98469 0.65504,-0.008 1.4691,0.43469 1.80902,0.98469 0.7673,1.24153 0.42112,1.24153 -1.5,0 z m -95.05383,-8.75 -3.44617,-3.75 3.75,3.44617 c 3.49042,3.20761 4.20979,4.05383 3.44617,4.05383 -0.16711,0 -1.85461,-1.6875 -3.75,-3.75 z M 627.75,909.46395 c -2.4975,-3.33976 -2.17323,-4.27172 0.364,-1.04615 1.16271,1.47814 1.95021,2.84475 1.75,3.03692 -0.2002,0.19217 -1.1515,-0.70368 -2.114,-1.99077 z M 888,911.05902 c 0,-0.51754 0.44485,-1.21592 0.98855,-1.55194 0.56686,-0.35034 0.7345,0.0511 0.39301,0.94098 C 888.71677,912.18048 888,912.49745 888,911.05902 Z M 739.27236,904 c 0,-2.475 0.19502,-3.4875 0.43337,-2.25 0.23836,1.2375 0.23836,3.2625 0,4.5 -0.23835,1.2375 -0.43337,0.225 -0.43337,-2.25 z m 38.95964,-6 c 0,-1.925 0.2058,-2.7125 0.45733,-1.75 0.25152,0.9625 0.25152,2.5375 0,3.5 -0.25153,0.9625 -0.45733,0.175 -0.45733,-1.75 z m -126.35956,-1.75 c -1.24387,-1.58606 -1.2085,-1.62143 0.37756,-0.37756 0.9625,0.75485 1.75,1.54235 1.75,1.75 0,0.82304 -0.82119,0.29331 -2.12756,-1.37244 z M 863,894.05902 c 0,-0.51754 0.44485,-1.21592 0.98855,-1.55194 0.56686,-0.35034 0.7345,0.0511 0.39301,0.94098 C 863.71677,895.18048 863,895.49745 863,894.05902 Z m 34,-1 c 0,-0.51754 0.44485,-1.21592 0.98855,-1.55194 0.56686,-0.35034 0.7345,0.0511 0.39301,0.94098 C 897.71677,894.18048 897,894.49745 897,893.05902 Z M 741.19495,884.5 c 0.0204,-1.65 0.2445,-2.20394 0.49804,-1.23097 0.25354,0.97297 0.23687,2.32297 -0.0371,3 -0.27393,0.67703 -0.48137,-0.11903 -0.46099,-1.76903 z m 34.884,-4.08333 c 0.048,-1.16495 0.28494,-1.4019 0.60416,-0.60417 0.28887,0.72187 0.25335,1.58438 -0.0789,1.91667 -0.33229,0.33229 -0.56864,-0.25834 -0.52522,-1.3125 z m -2,-14 c 0.048,-1.16495 0.28494,-1.4019 0.60416,-0.60417 0.28887,0.72187 0.25335,1.58438 -0.0789,1.91667 -0.33229,0.33229 -0.56864,-0.25834 -0.52522,-1.3125 z m -30,-4 c 0.048,-1.16495 0.28494,-1.4019 0.60416,-0.60417 0.28887,0.72187 0.25335,1.58438 -0.0789,1.91667 -0.33229,0.33229 -0.56864,-0.25834 -0.52522,-1.3125 z m -136,-2 c 0.048,-1.16495 0.28494,-1.4019 0.60416,-0.60417 0.28887,0.72187 0.25335,1.58438 -0.0789,1.91667 -0.33229,0.33229 -0.56864,-0.25834 -0.52522,-1.3125 z m 164,-5 c 0.048,-1.16495 0.28494,-1.4019 0.60416,-0.60417 0.28887,0.72187 0.25335,1.58438 -0.0789,1.91667 -0.33229,0.33229 -0.56864,-0.25834 -0.52522,-1.3125 z M 629.94617,850.25 626.5,846.5 l 3.75,3.44617 c 3.49042,3.20761 4.20979,4.05383 3.44617,4.05383 -0.16711,0 -1.85461,-1.6875 -3.75,-3.75 z m -7.07373,-7 c -1.24387,-1.58606 -1.2085,-1.62143 0.37756,-0.37756 0.9625,0.75485 1.75,1.54235 1.75,1.75 0,0.82304 -0.82119,0.29331 -2.12756,-1.37244 z m 125.20651,-0.83333 c 0.048,-1.16495 0.28494,-1.4019 0.60416,-0.60417 0.28887,0.72187 0.25335,1.58438 -0.0789,1.91667 -0.33229,0.33229 -0.56864,-0.25834 -0.52522,-1.3125 z"
         id="path20" />
      <path
         style="fill:#0037ef"
         d="m 743.04473,1359.2699 c -15.3714,-3.6578 -35.93588,-10.185 -48.02406,-15.2428 -57.88996,-24.2218 -129.14295,-71.6709 -185.20232,-123.3308 -29.32048,-27.0195 -67.03288,-67.5782 -85.35267,-91.7947 -20.44945,-27.0316 -33.6292,-45.4521 -42.14374,-58.9016 -28.95193,-45.7322 -47.28422,-81.78648 -62.0325,-122 -9.60501,-26.18958 -11.83107,-33.12198 -18.7849,-58.5 -4.40036,-16.0591 -8.90256,-39.84111 -12.11592,-64 -2.30558,-17.33396 -3.32132,-69.35053 -6.99074,-358 -0.86698,-68.2 -1.94017,-151.675 -2.38486,-185.5 -0.44469,-33.825 -0.51181,-61.82023 -0.14915,-62.21162 0.92588,-0.99925 24.38678,-11.09254 38.13613,-16.40684 6.325,-2.44469 12.625,-4.92712 14,-5.51651 9.35898,-4.01172 56.67974,-20.02408 70,-23.68656 1.925,-0.52928 8.225,-2.34638 14,-4.038 29.25402,-8.56907 85.30611,-21.07061 114.92382,-25.63195 5.7331,-0.88293 10.71669,-1.78634 11.07464,-2.00757 0.35795,-0.22123 6.46724,-1.1176 13.57618,-1.99195 7.10895,-0.87434 14.95036,-2.03218 17.42536,-2.57297 4.02195,-0.87879 22.69578,-3.12359 50,-6.01053 9.25355,-0.9784 32.04101,-2.80413 64.5,-5.16772 20.72546,-1.50918 146.17943,-1.46793 163.5,0.0538 6.875,0.604 22.175,1.79427 34,2.64504 11.825,0.85076 25.325,1.97963 30,2.50858 4.675,0.52895 16.825,1.85931 27,2.95637 10.175,1.09705 21.2,2.47105 24.5,3.05333 3.3,0.58228 12.3,1.92891 20,2.99252 19.7241,2.7245 40.7728,5.96852 42.253,6.51204 0.6891,0.25305 5.4141,1.1624 10.5,2.02079 17.6117,2.97249 64.8046,13.43379 83.247,18.45344 27.162,7.39297 37.6673,10.48817 54.5,16.05758 11.9027,3.93823 32.7699,11.39193 41.5,14.82371 l 5,1.96548 -0.073,26.34979 c -0.071,25.43801 -2.3269,206.61769 -4.4751,359.34979 -0.5724,40.7 -1.4536,107.075 -1.9582,147.5 -0.922,73.8648 -1.3223,82.18602 -5.461,113.5 -9.4033,71.14626 -38.1276,149.95872 -78.3599,214.99996 -62.1789,100.5213 -152.30898,186.223 -263.1727,250.2422 -27.20298,15.7086 -72.77386,37.2514 -96,45.3822 -14.1022,4.9368 -14.89899,4.9663 -30.95527,1.1455 z m 21.16096,-58.8046 c 3.29872,-2.7309 13.52669,-11.5402 22.72882,-19.5762 9.20214,-8.0361 17.20206,-14.7861 17.7776,-15 0.57555,-0.214 6.53199,-5.2707 13.23655,-11.2371 8.52765,-7.5888 12.01219,-11.3116 11.59796,-12.3911 -0.32568,-0.8487 -1.02141,-5.4171 -1.54607,-10.152 -1.846,-16.6595 -3.93409,-34.6958 -4.96185,-42.8589 -0.57129,-4.5375 -1.50622,-11.9625 -2.07763,-16.5 -1.76887,-14.0463 -2.80704,-22.86 -3.91651,-33.25 -1.4557,-13.6323 -5.10905,-44.0608 -8.07392,-67.247 -0.54526,-4.2642 -1.46345,-12.253 -2.04042,-17.753 -0.57698,-5.5 -1.43172,-13.15 -1.89944,-17 -3.38756,-27.8847 -3.36195,-27.2276 -1.198,-30.7354 1.10766,-1.7955 3.12532,-6.569 4.48371,-10.60774 1.35838,-4.03872 2.85537,-7.67841 3.32665,-8.08819 0.47127,-0.40978 3.78186,-1.77319 7.35686,-3.02981 10.28295,-3.61447 26.7858,-12.08571 33,-16.93957 1.925,-1.5036 4.175,-3.00042 5,-3.32627 4.98407,-1.96858 34,-31.19929 34,-34.25168 0,-0.40344 1.30378,-2.37969 2.89729,-4.39165 9.98819,-12.61113 22.14748,-41.87316 25.55959,-61.51068 2.53315,-14.57882 3.04975,-13.37944 -12.08919,-28.0669 l -13.34589,-12.9479 -9.7609,9.4479 c -5.3685,5.19634 -11.4484,10.9213 -13.5109,12.72214 -2.56939,2.24342 -3.75,4.11005 -3.75,5.929 0,1.46012 -0.42777,4.0367 -0.9506,5.72575 -0.52284,1.68905 -1.67857,5.91005 -2.56829,9.37999 -2.15912,8.42055 -6.57644,18.07006 -11.94928,26.10282 -5.58592,8.35134 -19.24259,22.05109 -19.96068,20.02365 -0.79874,-2.25518 -4.61265,-21.55892 -6.11203,-30.93546 -0.74757,-4.675 -1.85801,-11.2 -2.46765,-14.5 -1.47983,-8.01032 -2.48108,-14.92862 -4.92067,-34 -4.8144,-37.63629 -5.55118,-48.06127 -7.1381,-101 -1.12517,-37.53516 -0.87448,-113.16715 0.38184,-115.19993 0.35642,-0.57669 0.85839,-9.76762 1.11549,-20.4243 0.2571,-10.65667 1.13953,-24.32577 1.96095,-30.37577 0.82143,-6.05 1.97395,-16.4 2.56117,-23 1.21071,-13.60784 2.55745,-25.22646 3.94101,-34 0.5204,-3.3 1.88798,-12.075 3.03906,-19.5 2.00109,-12.90791 4.39504,-24.98098 7.72029,-38.93456 0.84338,-3.53901 1.7027,-7.3136 1.90961,-8.38799 0.20691,-1.07439 1.08265,-4.38355 1.94609,-7.35368 1.41515,-4.86794 1.41911,-5.91394 0.0402,-10.612 C 834.70713,421.8453 832.38601,413.875 830.3904,407 c -7.48601,-25.78969 -7.81119,-26.918 -9.29454,-32.25 -0.49728,-1.7875 -3.005,-10.45 -5.57273,-19.25 -2.56772,-8.8 -5.03748,-17.35 -5.48837,-19 -0.45088,-1.65 -1.58214,-5.7 -2.51392,-9 -0.93178,-3.3 -2.07242,-7.35 -2.53476,-9 -0.46235,-1.65 -2.86588,-9.975 -5.34119,-18.5 -7.56823,-26.06513 -12.83381,-44.34956 -13.67915,-47.5 -0.44273,-1.65 -2.90578,-10.2 -5.47345,-19 -2.56767,-8.8 -5.0346,-17.35 -5.48206,-19 -0.44746,-1.65 -2.92359,-10.2 -5.50251,-19 -5.2347,-17.86229 -6.10644,-20.92609 -7.42028,-26.07922 -1.1854,-4.64939 -1.68281,-5.04536 -3.07353,-2.44677 -1.27351,2.37958 -10.6009,30.30752 -14.03587,42.02599 -1.20913,4.125 -3.26156,10.875 -4.56095,15 -1.29939,4.125 -3.02794,9.975 -3.84121,13 -0.81327,3.025 -3.32558,11.8 -5.5829,19.5 -2.25733,7.7 -5.1555,17.825 -6.44038,22.5 -1.28488,4.675 -3.53654,12.775 -5.00369,18 -1.46715,5.225 -3.79695,13.775 -5.17734,19 -1.3804,5.225 -2.90528,10.85 -3.38864,12.5 -1.25088,4.27002 -11.41105,40.93322 -14.96457,54 -1.64531,6.05 -4.17634,15.275 -5.62452,20.5 -7.98312,28.80291 -8.24518,30.16127 -6.75233,35 4.15514,13.46803 8.79452,31.9753 11.40588,45.5 1.06194,5.5 2.36508,12.25 2.89587,15 1.7851,9.24862 3.04392,16.95145 4.08558,25 1.98056,15.30321 3.79924,30.04 4.50448,36.5 0.39028,3.575 0.90835,7.625 1.15125,9 0.43128,2.44133 0.61335,4.92399 1.82011,24.81861 0.32299,5.32476 1.03057,13.40472 1.5724,17.95546 0.54183,4.55074 1.21497,17.82574 1.49587,29.5 0.62651,26.03862 0.54647,102.54978 -0.11374,108.72593 -0.26457,2.475 -0.92963,14.85 -1.47792,27.5 -0.54829,12.65 -1.1847,23.9718 -1.41425,25.15955 -0.45627,2.36085 -1.37711,8.84316 -2.03712,14.34045 -2.85561,23.7845 -7.33923,48.66604 -13.06441,72.5 -3.42958,14.27734 -4.20762,17.28226 -6.17313,23.84141 l -0.85145,2.84141 -7.20723,-6.67279 c -14.23466,-13.17912 -24.67159,-30.16616 -32.14161,-52.3134 l -3.8125,-11.30337 -10.78706,-10.94663 C 627.55965,828.92598 622.58606,824 622.4401,824 621.75438,824 600,849.00303 600,849.79116 c 0,0.49437 -0.9,1.71335 -2,2.70884 -2.70859,2.45124 -2.53788,5.83209 0.99359,19.6776 4.136,16.21564 10.53373,31.6705 17.18049,41.50258 1.55426,2.29909 2.82592,4.47892 2.82592,4.84405 0,0.36514 2.025,3.32658 4.5,6.58099 2.475,3.25441 4.5,6.38571 4.5,6.95844 0,1.344 28.67531,29.93634 30.02321,29.93634 0.56085,0 3.88279,2.25 7.3821,5 3.49931,2.75 6.67107,5 7.04836,5 0.37729,0 2.56706,1.2683 4.86615,2.81844 2.2991,1.55014 6.05967,3.77571 8.35682,4.94571 2.29715,1.17 4.99715,2.58675 6,3.14833 1.00285,0.56158 4.86086,2.39478 8.57336,4.07378 6.68711,3.02429 6.75,3.08972 6.75,7.02251 0,4.94164 2.85678,12.62583 6.44095,17.32493 2.70346,3.5444 2.71512,3.6287 1.64139,11.868 -1.22789,9.4222 -2.42052,17.9267 -4.03856,28.7983 -0.61393,4.125 -1.32936,9.3 -1.58985,11.5 -0.26049,2.2 -0.69454,5.125 -0.96456,6.5 -0.27003,1.375 -0.7341,4.525 -1.03128,7 -0.29719,2.475 -1.00783,7.65 -1.57922,11.5 -1.74321,11.7457 -2.6969,18.4813 -4.38928,31 -0.89224,6.6 -2.05987,14.925 -2.59474,18.5 -1.7143,11.4582 -2.80907,19.3025 -3.83796,27.5 -1.12504,8.9637 -2.71957,20.2505 -4.02628,28.5 -0.47915,3.025 -1.40069,9.325 -2.04785,14 -0.64716,4.675 -1.58159,10.6529 -2.07651,13.2843 -0.49492,2.6314 -1.17004,8.4814 -1.50026,13 l -0.60041,8.2157 5.4785,5.3486 c 3.01317,2.9417 6.38392,5.8667 7.49054,6.5 1.10663,0.6333 10.27255,8.6327 20.36872,17.7765 10.09616,9.1438 20.60666,18.4529 23.35666,20.6868 2.75,2.2339 7.25,6.0966 10,8.5838 2.75,2.4872 5.38431,4.4126 5.85401,4.2786 0.46971,-0.134 3.55296,-2.478 6.85168,-5.209 z m -39.12674,-181.0486 c 0.048,-1.165 0.28494,-1.4019 0.60416,-0.6042 0.28887,0.7219 0.25335,1.5844 -0.0789,1.9167 -0.33229,0.3323 -0.56864,-0.2584 -0.52522,-1.3125 z m 80,-10 c 0.048,-1.165 0.28494,-1.4019 0.60416,-0.6042 0.28887,0.7219 0.25335,1.5844 -0.0789,1.9167 -0.33229,0.3323 -0.56864,-0.2584 -0.52522,-1.3125 z"
         id="path18" />
      <path
         style="fill:#010101"
         d="m 746.5,1412.3191 c -40.33262,-9.0517 -62.49618,-16.485 -92.5,-31.0232 -61.1215,-29.616 -124.18829,-72.7999 -176.49892,-120.8546 -32.04111,-29.4342 -73.79887,-74.1114 -93.0354,-99.5397 -27.73724,-36.6652 -40.38968,-54.895 -55.39081,-79.808 -5.55693,-9.2287 -24.33341,-42.9459 -28.92857,-51.9476 -3.14059,-6.1523 -18.10979,-38.94182 -19.69716,-43.146 -0.72682,-1.925 -2.74193,-6.875 -4.47803,-11 -3.28499,-7.80519 -4.95433,-12.44198 -11.7007,-32.5 -7.82984,-23.27935 -10.28259,-31.95819 -14.80703,-52.39336 -1.3874,-6.26635 -2.72884,-11.72715 -2.98098,-12.13512 -0.68356,-1.10602 -5.40376,-29.79565 -7.06995,-42.97152 -2.43085,-19.22263 -4.15884,-109.01719 -6.32161,-328.5 -0.58532,-59.4 -1.51936,-123.525 -2.07565,-142.5 -0.55629,-18.975 -1.28042,-62.69893 -1.60919,-97.1643 -0.65958,-69.14647 -0.66762,-69.03309 5.49944,-77.54646 4.44115,-6.13084 8.52062,-8.77999 25.81121,-16.76145 42.58369,-19.65694 90.01682,-36.81765 144.78335,-52.38079 9.95177,-2.82802 50.67081,-12.89675 59,-14.58913 18.63581,-3.78654 27.58475,-5.632819 34,-7.014649 3.85,-0.82928 11.725,-2.222118 17.5,-3.095195 5.775,-0.873078 12.075,-1.98459 14,-2.470027 1.925,-0.485437 9.125,-1.585358 16,-2.444269 6.875,-0.85891 14.525,-2.003561 17,-2.543668 2.475,-0.540106 13.05,-1.928425 23.5,-3.085151 35.25404,-3.902323 31.55816,-3.572027 91.5,-8.17726 18.86541,-1.449398 164.97907,-1.425584 181.5,0.02958 6.6,0.581329 22.0036,1.784938 34.23021,2.674688 12.22662,0.889749 25.72662,2.011313 30,2.492363 4.27339,0.48105 16.54479,1.809673 27.26979,2.952497 10.725,1.142823 20.85,2.346512 22.5,2.674865 1.65,0.328352 10.65,1.670712 20,2.983021 31.0416,4.356808 58.4069,9.194059 87,15.378605 27.114,5.86462 32.1282,7.02153 46,10.61338 7.7,1.99377 16.7,4.28192 20,5.08477 3.3,0.80286 8.7,2.3104 12,3.35009 3.3,1.0397 10.05,3.09509 15,4.56755 36.0327,10.71849 79.9306,27.37828 88.5026,33.58776 5.1798,3.75226 9.5937,10.66799 11.0167,17.26097 0.7401,3.42908 0.9785,17.84825 0.7213,43.62221 -0.4405,44.14886 -3.2494,262.05222 -4.7888,371.5 -0.5724,40.7 -1.4572,107.075 -1.9662,147.5 -0.6433,51.08922 -1.3728,77.92118 -2.3926,88 -1.9111,18.88762 -5.3198,43.05626 -7.0518,50 -0.7546,3.025 -1.6663,7.525 -2.0261,10 -0.3597,2.475 -2.0055,10.125 -3.6572,17 -17.4005,72.42793 -46.8629,139.2069 -90.2237,204.5 -15.6519,23.5688 -40.7829,56.2351 -59.6729,77.5653 -24.8111,28.0162 -66.8545,68.0457 -96.4613,91.8407 -35.47762,28.5133 -64.45244,48.3553 -105.74951,72.4172 -7.83777,4.5667 -16.05049,9.2229 -18.25049,10.3471 -2.2,1.1242 -8.275,4.296 -13.5,7.0485 -10.9124,5.7485 -52.6336,25.0096 -64.5,29.7773 -11.28932,4.5358 -22.85447,8.2611 -31.00854,9.9882 -6.51246,1.3795 -21.42969,1.8586 -25.99146,0.8348 z m 34,-18.3389 c 13.76307,-4.4465 25.42093,-9.2233 44.5,-18.234 5.225,-2.4677 11.75,-5.4897 14.5,-6.7155 12.83315,-5.7206 35.90113,-17.7276 51.5,-26.806 66.57023,-38.7433 121.1177,-80.9627 173.5867,-134.355 45.2072,-46.0027 82.9262,-96.0904 112.4343,-149.3035 9.0549,-16.3291 19.8758,-37.8123 24.9661,-49.5662 1.7864,-4.125 4.0951,-9.38781 5.1305,-11.69514 1.0353,-2.30732 1.8824,-4.44973 1.8824,-4.76089 0,-0.31117 0.8876,-2.47336 1.9724,-4.80487 2.1488,-4.61809 9.285,-24.38108 14.5298,-40.2391 5.776,-17.46377 12.6027,-43.79543 15.037,-58 0.8484,-4.95 1.9667,-10.35 2.4852,-12 1.1777,-3.7475 4.7129,-29.45483 6.6008,-48 0.9696,-9.52413 1.7227,-37.49832 2.3555,-87.5 0.5117,-40.425 1.3987,-106.8 1.9711,-147.5 3.9289,-279.33809 5.3382,-406.885 4.544,-411.26475 -0.9608,-5.29889 -6.0969,-9.41527 -17.5911,-14.09844 -5.7226,-2.33162 -11.3047,-4.66256 -12.4047,-5.17987 -2.6903,-1.26518 -25.2868,-9.243 -39.5,-13.94571 -57.4425,-19.00589 -125.8204,-34.46053 -197,-44.52558 -9.625,-1.36101 -18.625,-2.71092 -20,-2.9998 -1.375,-0.28889 -11.275,-1.46162 -22,-2.606088 -10.725,-1.144463 -22.9964,-2.474428 -27.26979,-2.955478 -4.27338,-0.48105 -17.77338,-1.602614 -30,-2.492363 C 880.5036,93.542171 865.1,92.339015 858.5,91.75824 841.99341,90.305724 697.84081,90.281703 679,91.72833 c -44.4577,3.413531 -56.30545,4.372592 -64,5.18072 -29.04616,3.050605 -47.01377,5.20579 -50.5,6.05738 -2.2,0.53741 -10.075,1.71189 -17.5,2.60997 -7.425,0.89807 -13.83904,1.83829 -14.25342,2.08937 -0.41439,0.25107 -7.38939,1.55299 -15.5,2.89314 -20.53381,3.39289 -54.25089,10.16154 -64.24658,12.89739 -3.025,0.82796 -12.25,3.13029 -20.5,5.11629 -20.54544,4.94586 -32.62203,8.38946 -62,17.67912 -16.36937,5.17619 -46.61737,15.74769 -52,18.17369 -1.65,0.74368 -4.125,1.67724 -5.5,2.0746 -1.375,0.39736 -3.85,1.31718 -5.5,2.04405 -1.65,0.72688 -7.05,2.9682 -12,4.98072 -4.95,2.01252 -11.37584,4.74275 -14.27964,6.06718 -2.90379,1.32443 -5.48809,2.40805 -5.74287,2.40805 -0.25478,0 -6.07453,2.70785 -12.93277,6.01743 -9.44976,4.56018 -13.14461,6.90421 -15.25713,9.6792 L 244.5,201.35839 v 33.07081 c 0,18.18894 0.27446,51.2958 0.60991,73.5708 0.33545,22.275 1.34567,97.2 2.24493,166.5 3.86586,297.91455 4.71936,341.23367 7.08313,359.5 3.663,28.30632 11.2576,64.49627 18.04742,86 4.59104,14.54008 8.72778,26.78466 9.96635,29.5 0.75263,1.65 1.90288,5.025 2.55611,7.5 0.65323,2.475 1.52992,4.95 1.9482,5.5 0.41828,0.55 1.46738,3.025 2.33134,5.5 6.32575,18.12154 22.11705,51.3737 37.99163,80 20.6551,37.2469 34.56429,58.1351 69.18666,103.9016 19.01507,25.1356 58.82833,67.8167 90.05297,96.5397 50.79747,46.7278 113.50253,89.9784 170.98135,117.9338 6.6,3.21 13.575,6.6371 15.5,7.6159 1.925,0.9787 4.625,2.1089 6,2.5116 1.375,0.4026 4.85052,1.7927 7.72337,3.089 2.87286,1.2963 6.47286,2.6556 8,3.0206 1.52715,0.3649 3.22663,0.9904 3.77663,1.3899 1.42552,1.0354 19.82464,6.2721 34.5,9.8192 6.875,1.6618 13.4,3.2592 14.5,3.5499 1.1,0.2907 6.725,0.3736 12.5,0.1842 8.47083,-0.2779 12.43254,-0.9688 20.5,-3.5752 z m -40.38304,-24.5675 c -26.4164,-6.5168 -43.39391,-12.7075 -70.09149,-25.5583 -86.99454,-41.8746 -173.88078,-111.4618 -242.13495,-193.9259 -5.20253,-6.2857 -10.34371,-12.5978 -11.42484,-14.0269 -20.44945,-27.0316 -33.6292,-45.4521 -42.14374,-58.9016 -29.20277,-46.1284 -49.09606,-85.27341 -64.0325,-126 -9.60501,-26.18958 -11.83107,-33.12198 -18.7849,-58.5 -4.40855,-16.089 -8.92894,-39.98022 -12.10927,-64 -2.40441,-18.15963 -4.12116,-107.30873 -6.31631,-328 -0.58537,-58.85 -1.5153,-124.1 -2.06652,-145 -0.55122,-20.9 -1.22885,-61.42316 -1.50583,-90.05146 l -0.50362,-52.05146 4.7485,-2.33954 c 7.95916,-3.92141 29.09223,-12.97744 41.24851,-17.676 6.325,-2.44469 12.625,-4.92712 14,-5.51651 9.35898,-4.01172 56.67974,-20.02408 70,-23.68656 1.925,-0.52928 8.225,-2.34638 14,-4.038 29.25402,-8.56907 85.30611,-21.07061 114.92382,-25.63195 5.7331,-0.88293 10.71669,-1.78634 11.07464,-2.00757 0.35795,-0.22123 6.46724,-1.1176 13.57618,-1.99195 7.10895,-0.87434 14.95036,-2.03218 17.42536,-2.57297 4.02195,-0.87879 22.69578,-3.12359 50,-6.01053 9.22249,-0.97512 31.68704,-2.77581 64.5,-5.17014 20.82678,-1.5197 152.126,-1.47905 169.5,0.0525 6.875,0.60604 22.175,1.79797 34,2.64874 11.825,0.85076 25.325,1.97963 30,2.50858 4.675,0.52895 16.825,1.85931 27,2.95637 10.175,1.09705 21.2,2.47105 24.5,3.05333 3.3,0.58228 12.3,1.92891 20,2.99252 19.7241,2.7245 40.7728,5.96852 42.253,6.51204 0.6891,0.25305 5.4141,1.1624 10.5,2.02079 17.6117,2.97249 64.8046,13.43379 83.247,18.45344 16.1664,4.40019 26.4988,7.30668 34.5,9.70489 18.6071,5.57712 47.1397,15.47794 65,22.55502 l 8.5,3.36809 -0.07,31.45918 c -0.065,29.52633 -2.1233,197.00127 -4.4786,364.45917 -0.5724,40.7 -1.4536,107.075 -1.9582,147.5 -0.922,73.8648 -1.3223,82.18602 -5.461,113.5 -2.5098,18.98949 -8.7681,49.48665 -13.7489,67 -28.5774,100.48218 -81.0206,189.46428 -159.3824,270.42948 -58.44457,60.3862 -132.53026,114.9079 -203.9013,150.0566 -36.40274,17.9276 -51.03599,24.4227 -68.82384,30.5483 -14.51801,4.9995 -18.45905,5.0969 -35.5592,0.8783 z M 774,1358.1244 c 16.45741,-5.7613 31.83098,-12.6024 65.5,-29.1469 33.68448,-16.5521 75.74351,-42.6591 109.78962,-68.149 C 1052.4241,1183.613 1132.32,1084.455 1174.7594,981 c 22.258,-54.25878 33.458,-99.10025 39.838,-159.5 1.0471,-9.91296 1.7466,-35.45697 2.3962,-87.5 0.5046,-40.425 1.3858,-106.8 1.9582,-147.5 2.1482,-152.7321 4.4045,-333.91178 4.4751,-359.34979 l 0.073,-26.34979 -5,-1.96548 c -8.7301,-3.43178 -29.5973,-10.88548 -41.5,-14.82371 -16.8327,-5.56941 -27.338,-8.66461 -54.5,-16.05758 -18.4424,-5.01965 -65.6353,-15.48095 -83.247,-18.45344 -5.0859,-0.85839 -9.8109,-1.76774 -10.5,-2.02079 -1.4802,-0.54352 -22.5289,-3.78754 -42.253,-6.51204 -7.7,-1.06361 -16.7,-2.41024 -20,-2.99252 -3.3,-0.58228 -14.325,-1.95628 -24.5,-3.05333 -10.175,-1.09706 -22.325,-2.42742 -27,-2.95637 -4.675,-0.52895 -18.175,-1.65782 -30,-2.50858 -11.825,-0.85077 -27.125,-2.04104 -34,-2.64504 -17.32057,-1.52169 -142.77454,-1.56294 -163.5,-0.0538 -32.45899,2.36359 -55.24645,4.18932 -64.5,5.16772 -27.30422,2.88694 -45.97805,5.13174 -50,6.01053 -2.475,0.54079 -10.31641,1.69863 -17.42536,2.57297 -7.10894,0.87435 -13.21823,1.77072 -13.57618,1.99195 -0.35795,0.22123 -5.34154,1.12464 -11.07464,2.00757 -29.61771,4.56134 -85.6698,17.06288 -114.92382,25.63195 -5.775,1.69162 -12.075,3.50872 -14,4.038 -13.32026,3.66248 -60.64102,19.67484 -70,23.68656 -1.375,0.58939 -7.675,3.07182 -14,5.51651 -13.74935,5.3143 -37.21025,15.40759 -38.13613,16.40684 -0.36266,0.39139 -0.29554,28.38662 0.14915,62.21162 0.44469,33.825 1.51788,117.3 2.38486,185.5 3.66942,288.64947 4.68516,340.66604 6.99074,358 3.21336,24.15889 7.71556,47.9409 12.11592,64 6.95383,25.37802 9.17989,32.31042 18.7849,58.5 14.74828,40.21352 33.08057,76.26784 62.0325,122.00004 8.51454,13.4495 21.69429,31.87 42.14374,58.9016 18.31979,24.2165 56.03219,64.7752 85.35267,91.7947 56.05937,51.6599 127.31236,99.109 185.20232,123.3308 12.08818,5.0578 32.65266,11.585 48.02406,15.2428 16.05628,3.8208 16.85307,3.7913 30.95527,-1.1455 z m -22.5,-56.7287 c -2.75,-2.4872 -7.25,-6.3499 -10,-8.5838 -2.75,-2.2339 -13.2605,-11.543 -23.35666,-20.6868 -10.09617,-9.1438 -19.26209,-17.1432 -20.36872,-17.7765 -1.10662,-0.6333 -4.47737,-3.5583 -7.49054,-6.5 l -5.4785,-5.3486 0.60041,-8.2157 c 0.33022,-4.5186 1.00534,-10.3686 1.50026,-13 0.49492,-2.6314 1.42935,-8.6093 2.07651,-13.2843 0.64716,-4.675 1.5687,-10.975 2.04785,-14 1.30671,-8.2495 2.90124,-19.5363 4.02628,-28.5 1.02889,-8.1975 2.12366,-16.0418 3.83796,-27.5 0.53487,-3.575 1.7025,-11.9 2.59474,-18.5 1.69238,-12.5187 2.64607,-19.2543 4.38928,-31 0.57139,-3.85 1.28203,-9.025 1.57922,-11.5 0.29718,-2.475 0.76125,-5.625 1.03128,-7 0.27002,-1.375 0.70407,-4.3 0.96456,-6.5 0.26049,-2.2 0.97592,-7.375 1.58985,-11.5 1.61804,-10.8716 2.81067,-19.3761 4.03856,-28.7983 1.07373,-8.2393 1.06207,-8.3236 -1.64139,-11.868 C 709.85678,1006.6346 707,998.95041 707,994.00877 c 0,-3.93279 -0.0629,-3.99822 -6.75,-7.02251 -3.7125,-1.679 -7.57051,-3.5122 -8.57336,-4.07378 -1.00285,-0.56158 -3.70285,-1.97833 -6,-3.14833 -2.29715,-1.17 -6.05772,-3.39557 -8.35682,-4.94571 C 675.02073,973.2683 672.83096,972 672.45367,972 c -0.37729,0 -3.54905,-2.25 -7.04836,-5 -3.49931,-2.75 -6.82125,-5 -7.3821,-5 C 656.67531,962 628,933.40766 628,932.06366 c 0,-0.57273 -2.025,-3.70403 -4.5,-6.95844 -2.475,-3.25441 -4.5,-6.21585 -4.5,-6.58099 0,-0.36513 -1.27166,-2.54496 -2.82592,-4.84405 C 609.52732,903.8481 603.12959,888.39324 598.99359,872.1776 595.46212,858.33209 595.29141,854.95124 598,852.5 c 1.1,-0.99549 2,-2.21447 2,-2.70884 C 600,849.00303 621.75438,824 622.4401,824 c 0.14596,0 5.11955,4.92598 11.05243,10.94663 l 10.78706,10.94663 3.8125,11.30337 c 7.47002,22.14724 17.90695,39.13428 32.14161,52.3134 l 7.20723,6.67279 0.85145,-2.84141 c 7.46886,-24.92457 15.47989,-65.04376 19.23754,-96.34141 0.66001,-5.49729 1.58085,-11.9796 2.03712,-14.34045 0.22955,-1.18775 0.86596,-12.50955 1.41425,-25.15955 0.54829,-12.65 1.21335,-25.025 1.47792,-27.5 0.66021,-6.17615 0.74025,-82.68731 0.11374,-108.72593 -0.2809,-11.67426 -0.95404,-24.94926 -1.49587,-29.5 -0.54183,-4.55074 -1.24941,-12.6307 -1.5724,-17.95546 -1.20676,-19.89462 -1.38883,-22.37728 -1.82011,-24.81861 -0.2429,-1.375 -0.76097,-5.425 -1.15125,-9 -0.70524,-6.46 -2.52392,-21.19679 -4.50448,-36.5 -1.04166,-8.04855 -2.30048,-15.75138 -4.08558,-25 -0.53079,-2.75 -1.83393,-9.5 -2.89587,-15 -2.61136,-13.5247 -7.25074,-32.03197 -11.40588,-45.5 -1.49285,-4.83873 -1.23079,-6.19709 6.75233,-35 1.44818,-5.225 3.97921,-14.45 5.62452,-20.5 3.55352,-13.06678 13.71369,-49.72998 14.96457,-54 0.48336,-1.65 2.00824,-7.275 3.38864,-12.5 1.38039,-5.225 3.71019,-13.775 5.17734,-19 1.46715,-5.225 3.71881,-13.325 5.00369,-18 1.28488,-4.675 4.18305,-14.8 6.44038,-22.5 2.25732,-7.7 4.76963,-16.475 5.5829,-19.5 0.81327,-3.025 2.54182,-8.875 3.84121,-13 1.29939,-4.125 3.35182,-10.875 4.56095,-15 3.43497,-11.71847 12.76236,-39.64641 14.03587,-42.02599 1.39072,-2.59859 1.88813,-2.20262 3.07353,2.44677 1.31384,5.15313 2.18558,8.21693 7.42028,26.07922 2.57892,8.8 5.05505,17.35 5.50251,19 0.44746,1.65 2.91439,10.2 5.48206,19 2.56767,8.8 5.03072,17.35 5.47345,19 0.84534,3.15044 6.11092,21.43487 13.67915,47.5 2.47531,8.525 4.87884,16.85 5.34119,18.5 0.46234,1.65 1.60298,5.7 2.53476,9 0.93178,3.3 2.06304,7.35 2.51392,9 0.45089,1.65 2.92065,10.2 5.48837,19 2.56773,8.8 5.07545,17.4625 5.57273,19.25 1.48335,5.332 1.80853,6.46031 9.29454,32.25 1.99561,6.875 4.31673,14.8453 5.15804,17.71177 1.37888,4.69806 1.37492,5.74406 -0.0402,10.612 -0.86344,2.97013 -1.73918,6.27929 -1.94609,7.35368 -0.20691,1.07439 -1.06623,4.84898 -1.90961,8.38799 -3.32525,13.95358 -5.7192,26.02665 -7.72029,38.93456 -1.15108,7.425 -2.51866,16.2 -3.03906,19.5 -1.38356,8.77354 -2.7303,20.39216 -3.94101,34 -0.58722,6.6 -1.73974,16.95 -2.56117,23 -0.82142,6.05 -1.70385,19.7191 -1.96095,30.37577 -0.2571,10.65668 -0.75907,19.84761 -1.11549,20.4243 -1.25632,2.03278 -1.50701,77.66477 -0.38184,115.19993 1.58692,52.93873 2.3237,63.36371 7.1381,101 2.43959,19.07138 3.44084,25.98968 4.92067,34 0.60964,3.3 1.72008,9.825 2.46765,14.5 1.49938,9.37654 5.31329,28.68028 6.11203,30.93546 0.71809,2.02744 14.37476,-11.67231 19.96068,-20.02365 5.37284,-8.03276 9.79016,-17.68227 11.94928,-26.10282 0.88972,-3.46994 2.04545,-7.69094 2.56829,-9.37999 0.52283,-1.68905 0.9506,-4.26563 0.9506,-5.72575 0,-1.81895 1.18061,-3.68558 3.75,-5.929 2.0625,-1.80084 8.1424,-7.5258 13.5109,-12.72214 l 9.7609,-9.4479 13.34589,12.9479 c 15.13894,14.68746 14.62234,13.48808 12.08919,28.0669 -3.41211,19.63752 -15.5714,48.89955 -25.55959,61.51068 -1.59351,2.01196 -2.89729,3.98821 -2.89729,4.39165 0,3.05239 -29.01593,32.2831 -34,34.25168 -0.825,0.32585 -3.075,1.82267 -5,3.32627 -6.2142,4.85386 -22.71705,13.3251 -33,16.93957 -3.575,1.25662 -6.88559,2.62003 -7.35686,3.02981 -0.47128,0.40978 -1.96827,4.04947 -3.32665,8.08819 -1.35839,4.03874 -3.37605,8.81224 -4.48371,10.60774 -2.16395,3.5078 -2.18956,2.8507 1.198,30.7354 0.46772,3.85 1.32246,11.5 1.89944,17 0.57697,5.5 1.49516,13.4888 2.04042,17.753 2.96487,23.1862 6.61822,53.6147 8.07392,67.247 1.10947,10.39 2.14764,19.2037 3.91651,33.25 0.57141,4.5375 1.50634,11.9625 2.07763,16.5 1.02776,8.1631 3.11585,26.1994 4.96185,42.8589 0.52466,4.7349 1.22039,9.3033 1.54607,10.152 0.41423,1.0795 -3.07031,4.8023 -11.59796,12.3911 -6.70456,5.9664 -12.661,11.0231 -13.23655,11.2371 -0.57554,0.2139 -8.57546,6.9639 -17.7776,15 -19.15033,16.7235 -28.3542,24.4354 -29.5805,24.7852 -0.4697,0.134 -3.10401,-1.7914 -5.85401,-4.2786 z M 765.37105,1290 c 0.43269,0 6.71372,-5.2119 13.95783,-11.582 7.24412,-6.3702 14.74612,-12.8862 16.67112,-14.4801 3.82438,-3.1666 22.73679,-19.4805 24.75233,-21.3515 0.97433,-0.9044 1.01874,-2.9299 0.20003,-9.1244 -0.57876,-4.3791 -1.67716,-13.587 -2.44088,-20.462 -0.76371,-6.875 -2.06346,-17.45 -2.88831,-23.5 -1.25857,-9.2311 -2.74511,-20.9927 -3.15974,-25 -0.0569,-0.55 -0.42178,-3.25 -0.81084,-6 -0.38905,-2.75 -0.89663,-6.8 -1.12795,-9 -0.23132,-2.2 -0.90705,-7.825 -1.50164,-12.5 -0.59458,-4.675 -1.51474,-12.325 -2.0448,-17 -0.53006,-4.675 -1.20956,-10.3 -1.51001,-12.5 -0.30045,-2.2 -0.9925,-7.6 -1.5379,-12 -0.5454,-4.4 -1.40012,-11.15 -1.89939,-15 -2.3265,-17.9403 -3.19171,-24.8528 -4.50601,-36 -1.97967,-16.7907 -2.71266,-21.5 -3.34636,-21.5 -1.07842,0 -5.17853,4.3699 -5.17853,5.5193 0,0.6439 -0.95556,2.028 -2.12347,3.0757 -2.32112,2.0823 -2.30791,4.956 0.13287,28.905 0.56054,5.5 1.69848,17.425 2.52877,26.5 1.89309,20.6915 3.16146,33.8513 4.43355,46 0.54711,5.225 1.47087,14.9 2.05279,21.5 1.38684,15.729 1.79404,20.039 3.02331,32 0.56526,5.5 1.44753,14.5 1.96062,20 0.51309,5.5 1.38938,14.5 1.94732,20 l 1.01443,10 -7.73509,7.2103 c -4.25431,3.9657 -8.09455,7.2282 -8.53387,7.25 -0.43932,0.022 -7.376,5.9147 -15.41484,13.0953 l -14.61608,13.0555 -5.61415,-5.5555 C 748.96837,1268.5 746.08453,1266 745.64762,1266 c -0.43692,0 -8.18637,-6.8483 -17.22101,-15.2185 -14.32139,-13.2681 -16.42433,-15.607 -16.40884,-18.25 0.0204,-3.4729 1.38532,-16.3356 2.97467,-28.0315 0.59791,-4.4 1.53228,-11.6 2.07636,-16 0.54409,-4.4 1.47338,-11.825 2.06509,-16.5 0.59171,-4.675 1.19647,-9.85 1.34391,-11.5 0.39736,-4.4467 3.43043,-29.0179 4.50556,-36.5 0.51371,-3.575 1.2068,-9.2 1.54022,-12.5 0.33341,-3.3 0.78491,-7.35 1.00334,-9 0.21842,-1.65 0.86323,-6.825 1.4329,-11.5 0.56967,-4.675 1.50299,-12.1 2.07404,-16.5 0.57105,-4.4 1.67991,-13.625 2.46413,-20.5 3.37565,-29.5932 3.49193,-30.2341 6.64934,-36.6477 1.69497,-3.443 4.60521,-8.0398 6.46721,-10.2151 1.862,-2.1753 3.38472,-4.3336 3.38382,-4.7962 -9.1e-4,-0.4625 -1.88086,-2.60925 -4.17767,-4.77044 l -4.17603,-3.92945 -3.81568,4.42945 c -7.77716,9.02814 -9.38145,13.52474 -13.18076,36.94384 -3.86644,23.833 -7.51907,46.1082 -8.68841,52.9856 -0.42082,2.475 -1.46105,9.225 -2.31162,15 -0.85057,5.775 -2.9431,18.6 -4.65007,28.5 -1.70697,9.9 -3.72886,22.275 -4.4931,27.5 -0.76423,5.225 -1.8655,12.3125 -2.44727,15.75 -0.58176,3.4375 -1.48888,8.8375 -2.01582,12 -1.11683,6.7028 -5.52242,34.387 -7.19726,45.2267 l -1.15523,7.4767 5.40528,4.7181 c 2.9729,2.5949 11.86361,10.4804 19.75713,17.5233 7.89352,7.0428 15.31852,13.4771 16.5,14.2984 1.18148,0.8212 7.06758,5.8951 13.08022,11.2751 l 10.93208,9.782 3.61009,-3.5251 c 1.98555,-1.9389 3.96411,-3.5252 4.39681,-3.5252 z m -0.3542,-264.0719 c 4.11216,-1.1395 9.62048,-3.2387 12.24072,-4.6648 10.97221,-5.9718 20.81075,-21.0282 23.00527,-35.20599 l 1.09099,-7.04839 7.79324,-3.00539 c 7.94897,-3.06545 22.43886,-10.28159 31.25519,-15.56547 16.32761,-9.7856 36.80385,-29.8826 45.78606,-44.93806 10.62172,-17.80349 18.26506,-37.54524 21.74212,-56.15704 l 0.81071,-4.33956 -7.08785,-7.07382 -7.08785,-7.07382 -8.12463,8.32212 c -7.95492,8.14828 -8.19342,8.53813 -11.41726,18.66274 -6.48475,20.36564 -13.55666,31.81569 -29.46414,47.70508 -13.45828,13.44298 -18.69979,17.22228 -35.97694,25.94056 l -11.91752,6.01374 -5.58248,11.0357 c -3.07036,6.06964 -6.32939,12.07432 -7.24229,13.34374 -1.51381,2.10502 -1.52424,2.62964 -0.11863,5.9643 2.22318,5.27423 1.95528,12.78984 -0.65268,18.30998 -3.82814,8.10288 -10.11017,11.91078 -20.82959,12.62618 -7.12146,0.4752 -7.31773,0.562 -10.23445,4.5282 -1.63556,2.224 -3.73176,6.0285 -4.65822,8.4543 -1.44044,3.7718 -1.47891,4.5409 -0.26554,5.3089 2.3623,1.4952 9.04192,1.0443 16.93577,-1.1432 z M 724.09918,998.25 c 1.75739,-2.6125 4.28608,-5.9331 5.6193,-7.3791 2.06643,-2.24123 2.47043,-3.80467 2.73848,-10.5974 0.60423,-15.31185 6.43383,-22.52825 20.75581,-25.6934 3.36374,-0.74338 5.9563,-7.46653 3.85539,-9.99798 -1.06568,-1.28406 -2.1176,-1.00858 -7.89878,2.06856 -6.46276,3.43992 -6.91722,3.53189 -14.66938,2.96858 -22.00176,-1.59873 -44.21493,-11.98473 -61.57196,-28.78861 C 665.50294,913.64219 654,900.31007 654,898.89271 c 0,-0.39498 -1.51276,-3.01515 -3.36169,-5.8226 -1.84892,-2.80746 -5.27648,-9.48424 -7.61678,-14.83729 C 637.24605,865.02236 637.32438,865.22541 635.602,859 c -1.2215,-4.41504 -2.68313,-6.64767 -7.40943,-11.31788 l -5.88776,-5.81788 -7.1298,7.81788 c -3.92138,4.29983 -7.13996,8.68593 -7.1524,9.74688 -0.0236,2.01244 0.10764,2.50779 4.48815,16.94215 3.29511,10.85784 12.22476,28.97116 18.40436,37.33227 2.52169,3.41188 5.93488,8.0743 7.58488,10.36093 3.52704,4.88789 28.20296,28.93565 29.69149,28.93565 0.56138,0 2.66046,1.29641 4.66461,2.88091 8.85475,7.00068 29.14936,17.50275 43.32885,22.42186 1.44014,0.49961 1.53363,1.13257 0.64348,4.35643 -0.57281,2.07454 -0.83439,5.81239 -0.5813,8.30634 0.44005,4.33618 3.09718,12.03446 4.1538,12.03446 0.27664,0 1.94086,-2.1375 3.69825,-4.75 z m 47.36602,-3.35359 c 2.99412,-2.62887 3.5348,-3.7469 3.5348,-7.30933 0,-4.08771 -0.28351,-4.45056 -10.10324,-12.93102 -11.03032,-9.52595 -11.89576,-9.77252 -17.12364,-4.87877 -1.49979,1.40393 -3.25332,4.14769 -3.89673,6.09724 l -1.16983,3.54464 8.77469,8.36998 c 11.92679,11.37669 14.20039,12.1853 19.98395,7.10726 z M 777.26661,963.25 c 0.90832,-2.0625 2.39462,-6.9 3.30288,-10.75 1.56306,-6.6256 1.55724,-14.45663 -0.0245,-33 -0.14075,-1.65 -0.58067,-7.05 -0.97761,-12 -1.8106,-22.57917 -6.56692,-53.82872 -10.59563,-69.61445 -2.64185,-10.35155 -8.78972,-29.08941 -9.91661,-30.22444 -1.00304,-1.01028 -7.4824,18.66235 -9.33367,28.33889 -0.26306,1.375 -1.62793,8.125 -3.03305,15 -2.21868,10.85558 -3.2406,17.47214 -6.33239,41 -0.95381,7.25822 -3.03547,43.42063 -2.5531,44.35204 0.547,1.0562 14.19711,-12.35899 14.19711,-13.95278 0,-0.6349 0.68534,-1.72315 1.52298,-2.41833 1.242,-1.03077 2.26667,-0.9286 5.55409,0.55382 8.56617,3.86281 12.18461,20.55972 7.1944,33.19786 l -2.0661,5.2326 4.64731,3.98248 c 2.55603,2.19036 5.12322,3.99819 5.70487,4.01739 0.58166,0.0192 1.80073,-1.65258 2.70906,-3.71508 z m -53.82306,-34.53012 c 0.3635,-3.17907 1.56123,-11.05407 2.66163,-17.5 3.16467,-18.53802 3.91782,-23.25354 4.90649,-30.71988 0.5098,-3.85 1.38013,-9.7 1.93405,-13 2.01195,-11.98623 7.07811,-43.29663 8.98014,-55.5 1.07155,-6.875 2.61397,-16.325 3.4276,-21 0.81364,-4.675 1.76838,-10.975 2.12166,-14 0.35327,-3.025 0.83817,-7.075 1.07755,-9 3.6445,-29.30773 4.35729,-63.69956 3.40936,-164.5 -0.76231,-81.06274 -1.27724,-97.79447 -3.35455,-109 -2.68314,-14.47348 -2.9925,-15.69102 -8.76605,-34.5 -1.92903,-6.28438 -7.39913,-20.10115 -10.58045,-26.72491 -1.43256,-2.9827 -1.35003,-4.5599 1.09888,-21 1.45628,-9.7763 3.56152,-22.72509 4.67831,-28.77509 1.1168,-6.05 3.1186,-17.3 4.44845,-25 1.32986,-7.7 3.08658,-17.825 3.90383,-22.5 2.24494,-12.8419 5.43995,-35.22152 6.70993,-47 1.50911,-13.99638 2.30019,-53.84936 1.1305,-56.95189 -0.81937,-2.17333 -1.22201,-1.49166 -3.54399,6 -1.44077,4.64854 -3.49215,11.60189 -4.55862,15.45189 -1.06647,3.85 -3.53481,12.625 -5.4852,19.5 -1.9504,6.875 -4.65654,16.775 -6.01366,22 -1.35712,5.225 -3.91025,14.9 -5.67363,21.5 -1.76337,6.6 -3.55634,13.575 -3.98438,15.5 -0.42803,1.925 -1.53675,6.2 -2.46381,9.5 -1.67312,5.95569 -9.23117,35.26126 -10.0316,38.89649 -0.22967,1.04307 -0.86688,3.29307 -1.41603,5 -0.54914,1.70693 -2.56018,9.17851 -4.46897,16.60351 -1.90878,7.425 -4.62211,17.69305 -6.02961,22.81788 -1.69064,6.1558 -2.25844,9.88872 -1.67316,11 0.80093,1.52073 3.20051,9.94563 7.5996,26.68212 0.86739,3.3 2.91372,12.975 4.54741,21.5 1.63368,8.525 3.40191,17.75 3.92939,20.5 0.86542,4.51187 2.28963,16.05444 4.9972,40.5 1.20454,10.87531 2.72803,30.01064 4.07778,51.21762 1.07552,16.89825 1.46872,141.35187 0.4649,147.14714 -0.29868,1.72438 -0.98877,15.06024 -1.53354,29.63524 -0.99862,26.71805 -1.67986,40.74512 -4.41949,91 -1.96348,36.01755 -3.39141,58.28669 -4.14474,64.639 l -0.60944,5.139 3.35136,1.04584 c 8.14607,2.5421 8.31932,2.42832 9.2949,-6.10396 z m 82.3063,2.08463 3.24985,-1.96744 -0.54006,-14.16854 c -1.25381,-32.89385 -2.54587,-63.44476 -3.47507,-82.16853 -4.20744,-84.78153 -4.883,-107.60494 -4.91354,-166 -0.0355,-67.83614 1.10338,-90.58135 7.3102,-146 2.59557,-23.17499 8.29014,-55.55061 14.20072,-80.73602 l 2.28488,-9.73602 -2.01884,-6.76398 C 820.73763,419.54379 818.71522,412.45 817.35375,407.5 c -1.36146,-4.95 -2.85737,-10.35 -3.32423,-12 -2.27644,-8.04546 -4.98725,-17.7643 -6.97308,-25 -1.20757,-4.4 -3.74958,-13.4 -5.6489,-20 -1.89932,-6.6 -3.94823,-13.8 -4.55312,-16 -0.60489,-2.2 -1.70699,-6.025 -2.44909,-8.5 -0.7421,-2.475 -2.01105,-6.975 -2.81989,-10 -0.80883,-3.025 -2.66878,-9.775 -4.13322,-15 -1.46444,-5.225 -3.02321,-10.85 -3.46393,-12.5 -0.44072,-1.65 -3.34735,-11.775 -6.45919,-22.5 -3.11183,-10.725 -6.51382,-22.7755 -7.55996,-26.77889 -3.59199,-13.74575 -4.10534,-12.25177 -3.53195,10.27889 0.29394,11.55 0.95516,25.275 1.46938,30.5 2.10227,21.36108 3.26919,31.08689 5.09923,42.5 1.05828,6.6 2.63525,16.725 3.50437,22.5 0.86912,5.775 1.76419,11.625 1.98904,13 1.87328,11.45521 2.6454,15.95528 4.46109,26 2.07944,11.50379 4.10945,24.46625 6.18598,39.5 1.08697,7.86945 1.05584,8.10607 -1.90766,14.5 -6.40856,13.82687 -7.81625,17.91114 -11.54617,33.5 -7.27093,30.38812 -7.71734,39.39259 -7.97425,160.84592 -0.19463,92.00918 -0.0262,105.26089 1.55935,122.65408 1.75717,19.27647 2.98877,29.24605 4.69438,38 1.57212,8.06885 2.99305,16.31688 4.56528,26.5 1.61435,10.45592 2.92862,18.39125 7.03897,42.5 1.35967,7.975 2.88969,17.2 3.40003,20.5 0.51035,3.3 1.42017,8.925 2.02183,12.5 0.60166,3.575 1.3083,7.85 1.57033,9.5 0.26203,1.65 1.10014,6.6 1.86247,11 0.76234,4.4 1.6687,9.98208 2.01415,12.40462 0.34545,2.42254 0.87452,4.80334 1.17571,5.29067 0.68687,1.11139 3.91004,0.16346 8.12915,-2.39078 z"
         id="path16" />
    </g>
  </g>
</svg>
