<?xml version="1.0" encoding="UTF-8" standalone="no"?>
<svg
   xmlns:dc="http://purl.org/dc/elements/1.1/"
   xmlns:cc="http://creativecommons.org/ns#"
   xmlns:rdf="http://www.w3.org/1999/02/22-rdf-syntax-ns#"
   xmlns:svg="http://www.w3.org/2000/svg"
   xmlns="http://www.w3.org/2000/svg"
   xmlns:sodipodi="http://sodipodi.sourceforge.net/DTD/sodipodi-0.dtd"
   xmlns:inkscape="http://www.inkscape.org/namespaces/inkscape"
   version="1.1"
   id="svg2"
   width="1045.1262"
   height="1337.8688"
   viewBox="0 0 1045.1262 1337.8688"
   sodipodi:docname="Blackmoor.svg"
   inkscape:version="1.0.1 (3bc2e813f5, 2020-09-07)">
  <metadata
     id="metadata8">
    <rdf:RDF>
      <cc:Work
         rdf:about="">
        <dc:format>image/svg+xml</dc:format>
        <dc:type
           rdf:resource="http://purl.org/dc/dcmitype/StillImage" />
        <dc:title></dc:title>
      </cc:Work>
    </rdf:RDF>
  </metadata>
  <defs
     id="defs6" />
  <sodipodi:namedview
     pagecolor="#ffffff"
     bordercolor="#666666"
     borderopacity="1"
     objecttolerance="10"
     gridtolerance="10"
     guidetolerance="10"
     inkscape:pageopacity="0"
     inkscape:pageshadow="2"
     inkscape:window-width="1920"
     inkscape:window-height="1057"
     id="namedview4"
     showgrid="false"
     inkscape:pagecheckerboard="true"
     inkscape:zoom="0.49"
     inkscape:cx="521.10598"
     inkscape:cy="675"
     inkscape:window-x="-8"
     inkscape:window-y="-8"
     inkscape:window-maximized="1"
     inkscape:current-layer="g10" />
  <g
     inkscape:groupmode="layer"
     inkscape:label="Image"
     id="g10"
     transform="translate(-228.89402,-75)">
    <g
       id="g14">
      <path
         style="fill:#b00303"
         d="m 740.11696,1369.4127 c -26.4164,-6.5168 -43.39391,-12.7075 -70.09149,-25.5583 -86.99454,-41.8746 -173.88078,-111.4618 -242.13495,-193.9259 -5.20253,-6.2857 -10.34371,-12.5978 -11.42484,-14.0269 -20.44945,-27.0316 -33.6292,-45.4521 -42.14374,-58.9016 -29.20277,-46.1284 -49.09606,-85.27341 -64.0325,-126 -9.60501,-26.18958 -11.83107,-33.12198 -18.7849,-58.5 -4.40339,-16.07016 -8.91239,-39.89292 -12.11346,-64 -2.31298,-17.41896 -3.16858,-61.06584 -7.03737,-359 -0.89989,-69.3 -1.96124,-150.3 -2.35856,-180 -0.39732,-29.7 -0.78377,-81.1125 -0.85877,-114.25 L 269,115 h 482.51319 482.51321 l -0.3248,70.75 c -0.2944,64.14634 -1.9368,203.75222 -4.7498,403.75 -0.5724,40.7 -1.4536,107.075 -1.9582,147.5 -0.922,73.8648 -1.3223,82.18602 -5.461,113.5 -2.5098,18.98949 -8.7681,49.48665 -13.7489,67 -28.5774,100.4822 -81.0206,189.4643 -159.3824,270.4295 -58.44457,60.3862 -132.53026,114.9079 -203.9013,150.0566 -36.40274,17.9276 -51.03599,24.4227 -68.82384,30.5483 -14.51801,4.9995 -18.45905,5.0969 -35.5592,0.8783 z M 774,1358.1244 c 16.45741,-5.7613 31.83098,-12.6024 65.5,-29.1469 33.68448,-16.5521 75.74351,-42.6591 109.78962,-68.149 C 1052.4241,1183.613 1132.32,1084.455 1174.7594,981 c 22.258,-54.25878 33.458,-99.10025 39.838,-159.5 1.0471,-9.91296 1.7466,-35.45697 2.3962,-87.5 0.5046,-40.425 1.3858,-106.8 1.9582,-147.5 2.686,-190.96881 4.4509,-338.57891 4.7498,-397.25 L 1224.0289,125 H 751.51443 279 l 0.13638,53.75 c 0.075,29.5625 0.46145,78.05 0.85877,107.75 0.39732,29.7 1.45867,110.7 2.35856,180 3.86879,297.93416 4.72439,341.58104 7.03737,359 3.20107,24.10708 7.71007,47.92984 12.11346,64 6.95383,25.37802 9.17989,32.31042 18.7849,58.5 14.74828,40.21352 33.08057,76.2678 62.0325,122 8.51454,13.4495 21.69429,31.87 42.14374,58.9016 18.31979,24.2165 56.03219,64.7752 85.35267,91.7947 56.05937,51.6599 127.31236,99.109 185.20232,123.3308 12.08818,5.0578 32.65266,11.585 48.02406,15.2428 16.05628,3.8208 16.85307,3.7913 30.95527,-1.1455 z m 26.3744,-165.8897 c -1.60282,-1.0462 -9.55185,-21.5285 -16.9731,-43.7347 -26.16193,-78.2829 -41.52122,-172.48981 -46.38198,-284.48592 -0.56063,-12.91726 -1.02375,-30.91726 -1.02917,-40 L 735.98015,807.5 726.74,802.60336 c -5.08208,-2.69315 -9.80861,-5.3407 -10.50339,-5.88343 -0.92222,-0.72041 1.54414,-2.56481 9.13649,-6.83246 l 10.39971,-5.84567 0.73737,-14.2414 0.73738,-14.24141 -29.49387,-29.02949 C 691.53221,710.56327 673.58898,692.427 667.87999,686.22667 L 657.5,674.95334 l -13.5,-1.0841 -13.5,-1.0841 -8.5,8.35879 c -14.0977,13.8635 -26.95516,19.23213 -46,19.20726 -12.00999,-0.0157 -19.55091,-1.68178 -30.99132,-6.84727 -12.06624,-5.44806 -19.51066,-6.88311 -35.50868,-6.84497 -7.7,0.0183 -15.9125,0.50477 -18.25,1.08091 -5.58408,1.37637 -5.55342,0.17587 0.18876,-7.39078 5.06436,-6.67346 10.35017,-11.38275 26.00773,-23.1711 C 536.1076,643.12831 548.0629,638.67443 567,638.71712 c 17.02368,0.0384 32.07932,4.69986 48.34099,14.9672 4.86255,3.07012 11.44367,6.39209 14.62472,7.38214 7.05865,2.1969 18.04472,4.25644 18.78042,3.52074 0.8185,-0.81849 -7.60892,-10.33506 -24.61982,-27.80166 L 608.75261,621 h -7.91572 c -52.23573,0 -95.37143,-26.68419 -114.84722,-71.04568 -7.84056,-17.85903 -16.8987,-31.91152 -27.65145,-42.89751 -4.00684,-4.09376 -7.1846,-7.52059 -7.06169,-7.61518 0.94057,-0.72387 11.43119,-3.56675 16.72347,-4.53193 9.22584,-1.68258 32.62721,-1.40931 44.5,0.51963 42.70322,6.93789 72.25765,25.64101 90.97243,57.57067 8.23113,14.04331 14.15872,31.7091 16.60024,49.47318 0.60272,4.38525 1.57263,8.88525 2.15535,10 3.66213,7.0056 27.08442,34.65055 45.13247,53.26912 25.97181,26.79281 67.14104,63.69293 70.36836,63.0714 1.67195,-0.32199 1.77115,-3.78314 1.77115,-61.79856 v -61.45747 l -8.82982,-5.1495 -8.82982,-5.1495 9.49075,-5.11632 9.49076,-5.11633 0.37608,-20.76301 0.37608,-20.76301 -2.53702,-2.87225 c -3.55419,-4.02382 -24.53307,-23.33727 -37.37768,-34.4104 -8.04562,-6.936 -10.05879,-9.11427 -7.96351,-8.61658 8.17377,1.94149 27.17944,7.69281 30.98648,9.37684 2.406,1.06429 6.27426,3.47546 8.59613,5.35815 7.83542,6.35338 12.10542,7.90607 20.62557,7.50001 6.5509,-0.31221 9.10944,-1.04814 18.596,-5.34889 l 11,-4.98688 12,-0.1199 c 6.6,-0.0659 13.55366,-0.62318 15.45258,-1.23829 4.55399,-1.47518 4.91435,-1.7856 -20.63847,17.7783 -11.65224,8.92125 -21.62428,16.75133 -22.16009,17.40018 -1.71322,2.07463 -6.65693,102.28287 -5.97732,121.15922 l 0.3233,8.97951 8.82573,4.89158 8.82573,4.89158 -9.45393,5.37322 -9.45392,5.37321 -0.733,17.59451 c -0.80268,19.26726 -0.42146,21.06013 3.9095,18.38656 1.30941,-0.80833 23.68806,-18.81699 49.73032,-40.01925 26.04226,-21.20227 48.98709,-39.78006 50.9885,-41.28398 3.16237,-2.37629 4.19671,-4.33423 7.898,-14.95042 21.2311,-60.89593 32.20531,-81.08803 53.87922,-99.13557 C 953.0416,512.82619 985.04649,500.5896 1029,495.55023 c 17.0508,-1.95491 23.3949,-2.02181 22.711,-0.23947 -0.2766,0.72091 -4.5891,13.88341 -9.5833,29.25 -10.1103,31.10831 -15.9231,43.88103 -28.7743,63.22721 -8.4136,12.66577 -22.66779,28.19457 -31.97994,34.83958 -12.91109,9.21316 -26.13761,13.98472 -50.87346,18.35295 -15.47904,2.73352 -41.90702,8.59255 -49.91606,11.06629 -5.25762,1.62391 -8.15319,3.56454 -18.16915,12.17707 -25.395,21.83666 -86.14392,77.49581 -97.60875,89.43072 l -3.69396,3.84542 -1.00526,17.02017 C 758.80934,796.48824 759.74591,831 761.63956,831 c 3.9588,0 65.32323,-45.39643 68.79096,-50.89046 1.25305,-1.98525 3.7523,-6.98454 5.55389,-11.10954 6.46653,-14.80607 10.31285,-21.46012 15.62273,-27.02697 10.70759,-11.2258 18.01496,-13.3962 50.39286,-14.96747 12.375,-0.60054 27.5625,-1.41626 33.75,-1.8127 6.1875,-0.39644 11.25,-0.55687 11.25,-0.35652 0,0.71021 -11.42562,20.79319 -16.74021,29.42451 -14.6534,23.79832 -34.16887,32.37067 -77.90106,34.21879 -7.7777,0.32868 -15.53865,0.99837 -17.24657,1.48819 -1.70792,0.48983 -7.26934,4.39937 -12.35873,8.68789 -24.82447,20.91804 -45.13074,38.65032 -53.50343,46.72141 l -9.25,8.9168 0.011,9.10304 c 0.0198,16.37066 -0.3746,15.65232 11.60167,21.13107 5.71303,2.61352 10.37986,5.02638 10.37075,5.36191 -0.009,0.33553 -4.51716,3.53505 -10.01788,7.11005 -9.91359,6.44299 -9.99719,6.5307 -9.53113,10 0.2586,1.925 0.74888,7.55 1.08952,12.5 2.68972,39.08607 11.22264,99.7418 19.51111,138.6934 9.42352,44.2859 23.23704,89.2864 34.17668,111.3379 2.71996,5.4828 3.31006,7.6425 2.76745,10.1285 -1.11578,5.112 -4.29841,9.7147 -8.0132,11.5886 -3.54577,1.7887 -9.57608,2.3018 -11.59158,0.9863 z M 747.62479,511.52928 c -2.13136,-0.75883 -4.30588,-1.81037 -4.83227,-2.33676 -1.33245,-1.33245 -2.49914,-12.30574 -3.78783,-35.62638 -1.30998,-23.70599 -3.62956,-38.25357 -8.44186,-52.94422 -1.95209,-5.95918 -3.31875,-11.20783 -3.03703,-11.66366 0.28172,-0.45583 3.09116,-1.80377 6.24321,-2.99541 9.52688,-3.60167 17.94724,-3.01933 34.8629,2.41108 19.89829,6.38791 31.37674,8.58555 48.36809,9.26045 18.28494,0.72627 34.20574,-1.67791 47.33048,-7.14732 1.44697,-0.60299 0.98884,0.91114 -2.18664,7.22685 -6.89173,13.70698 -17.27498,27.82272 -41.4029,56.28609 l -23.31129,27.5 -5.55369,-0.33193 c -6.98561,-0.41752 -11.92135,0.88088 -23.87596,6.28081 -11.39137,5.14551 -15.22639,5.91352 -20.37521,4.0804 z m -22.59315,-13.19104 c -3.5576,-1.33865 -15.45581,-4.89418 -26.44046,-7.90116 -28.23502,-7.72918 -48.15934,-15.94528 -66.98979,-27.6243 -24.052,-14.91752 -41.61444,-33.57315 -51.26093,-54.45172 C 576.95915,401.04267 572,383.98659 572,379.67561 c 0,-1.83244 0.40533,-1.67549 3.55928,1.37822 1.95761,1.89539 6.18126,7.27117 9.38589,11.94617 14.06559,20.51923 26.9392,27.31843 51.55483,27.22868 17.73919,-0.0647 28.35749,-2.76259 51.91301,-13.19017 13.22222,-5.85323 20.96189,-7.33334 24.88958,-4.75981 1.56055,1.02251 3.61005,4.79607 6.00937,11.06452 7.57444,19.78897 10.09654,32.66706 11.66213,59.54805 0.56406,9.6848 1.25457,19.97123 1.53447,22.85873 0.2799,2.8875 0.16748,5.19874 -0.24982,5.13608 -0.41731,-0.0627 -3.6695,-1.20918 -7.2271,-2.54784 z m 85.64058,0.35462 c 0.39579,-0.65607 9.08045,-11.09286 19.29924,-23.19286 10.21879,-12.1 20.77596,-24.86972 23.46036,-28.37714 7.30253,-9.54144 16.00496,-24.28333 19.60069,-33.20351 3.13285,-7.77187 3.25735,-7.91935 6.68555,-7.91935 13.25373,0 30.28252,-9.11114 50.04498,-26.77625 l 7.26304,-6.49223 -3.44211,9.88424 C 913.33836,440.75238 870.5214,483.0297 816.7263,498.00063 c -4.5005,1.25247 -6.5322,1.48477 -6.05408,0.69223 z M 624.46688,411.54165 c -8.37424,-1.52153 -16.53475,-5.19596 -22.07872,-9.9414 -2.22051,-1.90067 -7.32798,-8.22087 -11.34992,-14.04487 -13.64788,-19.76294 -19.41277,-22.44885 -48.34542,-22.5245 -19.86584,-0.052 -25.52063,-2.85411 -24.27843,-12.03088 0.81582,-6.02694 6.5138,-17.80787 11.0316,-22.80853 11.41951,-12.64004 29.19426,-17.74495 61.05401,-17.53473 35.15193,0.23193 61.71869,7.30798 84.07373,22.39301 18.94911,12.78673 35.96971,36.81568 37.6837,53.20025 l 0.4969,4.75 -5.12717,0.006 c -6.69064,0.007 -11.00986,1.26783 -23.12716,6.7496 -14.44714,6.53578 -25.67549,10.16553 -36.5,11.79923 -11.20108,1.69054 -14.16726,1.68893 -23.53312,-0.0128 z M 807.5,409.32436 c -8.39905,-1.0526 -24.35672,-4.94467 -35.5,-8.65843 C 760.00071,396.66687 758.99929,396.5 747,396.5 c -11.0325,0 -13.11992,0.28014 -17.78043,2.38624 -2.90424,1.31242 -5.47842,2.18824 -5.72042,1.94625 -1.34548,-1.34549 -3.79283,-14.31845 -3.83571,-20.33249 -0.17659,-24.76254 14.92182,-39.32102 48.41403,-46.68272 9.67807,-2.12727 12.77965,-2.29272 43.42253,-2.31634 36.98975,-0.0285 35.64742,0.1668 52.98128,-7.70911 16.25447,-7.38548 21.22935,-8.96638 28.51872,-9.06261 11.5891,-0.15299 20.22049,6.31874 24.09832,18.06869 2.02662,6.14071 0.60846,15.24337 -3.56808,22.90227 -15.44994,28.33197 -41.72683,47.313 -73.06433,52.7778 -7.87189,1.37275 -25.21327,1.81798 -32.96591,0.84638 z m 93.55025,-23.96225 C 911.15528,374.92712 916.57995,367.62181 922.111,357 c 3.18661,-6.11957 3.38484,-7.08527 3.38685,-16.5 0.002,-11.49986 -1.66881,-16.36283 -8.05153,-23.42774 -10.38306,-11.49281 -25.35426,-13.58407 -43.86444,-6.12722 C 869.68685,312.51415 862.45,315.57592 857.5,317.74897 846.78399,322.4533 840.9372,324 833.87009,324 h -5.24427 l 2.93709,-3.12007 c 7.91703,-8.41025 30.0846,-23.66236 46.03361,-31.67283 35.59069,-17.8756 72.78697,-13.81048 102.76613,11.23113 10.00315,8.35563 22.63475,28.04743 22.63655,35.28872 0,5.80247 -5.56535,7.69766 -27.11184,9.23014 -21.22234,1.50943 -24.47458,3.17613 -47.52843,24.35728 -13.1159,12.05047 -25.68976,21.33875 -32.85893,24.2728 -3.79081,1.55143 -3.50053,1.12127 5.55025,-8.22506 z M 708.23623,358.06605 c -15.91782,-25.5816 -46.45156,-44.38107 -82.22278,-50.62415 -23.38012,-4.08048 -54.74181,-3.84493 -72.84998,0.54717 -4.58509,1.1121 -8.71846,1.78596 -9.18526,1.49746 -1.63606,-1.01114 -4.9782,-11.60279 -4.97742,-15.77404 0.002,-8.70609 10.75653,-24.99939 18.71709,-28.35576 4.65364,-1.96208 13.42479,-1.6668 20.41251,0.68719 3.33701,1.12416 13.60102,5.81572 22.80891,10.42569 23.65204,11.84149 24.50243,12.05248 48.0607,11.92423 20.90901,-0.11382 25.20218,-0.74692 49.85415,-7.35179 20.42611,-5.47265 29.4118,-3.93714 40.23452,6.87545 9.79046,9.78128 14.91133,21.99135 14.91133,35.55417 0,5.32925 -0.0307,5.38304 -3.75,6.57215 -14.30327,4.57293 -28.07214,15.77064 -33.90587,27.57439 -2.00655,4.05998 -3.69235,7.36343 -3.74621,7.34098 -0.0539,-0.0224 -2.01662,-3.12436 -4.36169,-6.89314 z M 762,322.48993 c 0,-2.31593 -0.27694,-6.23132 -0.61543,-8.70085 l -0.61543,-4.49007 10.36543,-0.57953 c 13.09795,-0.7323 23.58749,-3.5219 36.69773,-9.75945 11.77347,-5.60154 21.81814,-12.01564 31.02751,-19.81283 l 6.35981,-5.38459 6.21191,1.68148 C 857.8635,277.18515 868,282.37384 868,283.92521 c 0,0.48661 -2.1375,2.12259 -4.75,3.63552 -11.91633,6.90085 -26.5171,17.7117 -35.29557,26.13391 l -9.58359,9.19464 -20.93542,0.52789 c -11.51448,0.29033 -24.19792,1.14791 -28.18542,1.90571 l -7.25,1.37783 z m -5.47432,-24.44027 C 755.68656,296.42697 755,294.89977 755,294.65587 c 0,-0.2439 3.2625,0.56425 7.25,1.79588 3.9875,1.23164 8.825,2.71291 10.75,3.29171 3.07193,0.92365 2.37182,1.06485 -5.72432,1.15445 L 758.05136,301 Z m 42.25252,-8.33649 c 6.10938,-6.33418 6.84185,-12.79844 2.06648,-18.23729 -5.49513,-6.2586 -9.90441,-7.88635 -21.34468,-7.87967 -15.28164,0.009 -25.07212,3.67733 -30.2262,11.32547 -1.25059,1.85575 -2.2738,4.43772 -2.2738,5.73771 0,2.23211 -0.30202,2.11762 -5.4282,-2.05771 -2.98551,-2.43173 -6.38421,-4.72475 -7.55265,-5.0956 -3.06804,-0.97376 -1.31342,-2.61344 6.79712,-6.35182 11.43833,-5.27227 21.15346,-7.38019 34.68373,-7.52544 l 12,-0.12882 8.5,4.10757 c 13.25614,6.40595 23.59807,15.04837 22.82309,19.07252 -0.41019,2.12995 -14.04204,9.01802 -19.23356,9.71857 l -3.91047,0.52768 z m -28.57011,0.74156 c -2.91054,-0.78935 -7.52304,-2.395 -10.25,-3.5681 C 755.9637,285.16829 755,284.28244 755,282.32911 c 0,-5.8761 11.12541,-10.75761 24.5,-10.74989 8.18477,0.005 12.5852,1.40866 15.5276,4.95404 2.37286,2.85912 -1.43366,8.37435 -8.0276,11.63113 -7.25068,3.58115 -10.43229,4.0151 -16.79191,2.29034 z M 629.34647,279.50298 c -3.38444,-0.73591 -7.35809,-1.96915 -8.83033,-2.74053 l -2.67681,-1.40252 3.53791,-2.6985 c 5.97941,-4.56072 17.62966,-10.33778 28.24966,-14.00828 5.5698,-1.92505 12.86534,-4.88244 16.21231,-6.57198 19.31888,-9.75214 35.82111,-14.04403 56.91079,-14.80131 8.3875,-0.30117 15.25,-0.3141 15.25,-0.0287 0,1.59595 -6.60458,4.30172 -16.43306,6.73231 -21.88852,5.41307 -36.48125,15.7245 -42.07224,29.72884 -1.93895,4.8567 -2.03828,4.90109 -13.9947,6.25339 -12.17142,1.37662 -28.66537,1.16553 -36.15353,-0.46269 z m 243.79726,-1.73079 c -3.32855,-4.01916 -9.50745,-7.31173 -18.64373,-9.93475 -4.4,-1.26324 -10.27322,-3.72516 -13.05159,-5.47093 -10.41915,-6.54679 -26.65848,-11.95272 -38.94841,-12.96558 -3.85,-0.31729 -10.37884,-1.66307 -14.50854,-2.99062 -9.83659,-3.16211 -20.38855,-5.36387 -25.99146,-5.42336 -6.80229,-0.0722 -2.94074,-1.68126 7.03755,-2.93243 16.27005,-2.04009 37.33407,-1.10244 64.96245,2.89175 7.425,1.07342 17.55,2.44386 22.5,3.04543 19.69517,2.39353 41.10291,10.48052 54.38801,20.54561 6.84868,5.18872 6.75535,6.23067 -0.57263,6.3924 -5.47998,0.12095 -17.03167,2.92446 -26.12727,6.34091 l -8.74075,3.28316 z m 82.51543,-1.5636 c -4.86246,-1.81135 -12.84306,-3.88828 -17.73467,-4.61539 l -8.89383,-1.32202 -6.77541,-6.38559 c -3.72647,-3.51207 -9.47087,-8.17215 -12.76533,-10.35572 C 896.82525,245.13572 877.03652,238.4092 858,236.02762 c -5.225,-0.65369 -15.575,-2.0374 -23,-3.07493 -30.01927,-4.19473 -54.91245,-4.87357 -73.5,-2.00435 -3.93311,0.60713 -8.90971,0.74405 -11.35879,0.31253 l -4.35879,-0.76801 5.25402,-7.85541 c 10.97224,-16.40485 27.52605,-23.72123 46.87757,-20.71874 9.63416,1.49479 17.09047,4.04305 31.46825,10.75456 13.82844,6.45508 27.58553,10.17899 60.11774,16.27328 35.29159,6.6112 49.36557,11.55196 62,21.76548 7.77989,6.28916 13.80589,17.28743 13.31452,24.30079 L 964.5,279.50197 Z M 823.46235,273.6889 c -2.54858,-3.51448 -11.50819,-10.71777 -19.07863,-15.33871 -1.28547,-0.78464 0.1806,-0.72131 4.61628,0.19942 8.28382,1.7195 15.98249,4.39816 23.35463,8.12594 l 5.8228,2.94435 -5.43109,4.19005 c -2.98709,2.30453 -5.61452,4.16255 -5.83871,4.12895 -0.2242,-0.0336 -1.77457,-1.94611 -3.44528,-4.25 z m -134.06481,-1.49077 c 4.04796,-7.82788 17.92582,-16.33746 32.84394,-20.13914 10.54652,-2.68763 27.79434,-4.43014 36.17325,-3.65451 12.97088,1.20072 12.9729,1.69242 0.0191,4.65485 -14.50625,3.31745 -22.21393,6.34814 -31.15879,12.25172 -6.24859,4.12405 -7.39665,4.51366 -14.77503,5.01404 -4.4,0.2984 -11.375,1.46174 -15.5,2.58519 -9.51171,2.59054 -9.31965,2.60853 -7.60246,-0.71215 z M 599.5,266.58129 c -5.5,-2.8803 -11.92364,-5.99021 -14.27475,-6.91091 l -4.27474,-1.67399 1.65414,-3.24819 c 3.10572,-6.09865 8.4886,-12.64631 13.3005,-16.17857 12.67062,-9.3011 25.81242,-13.31266 47.59485,-14.52843 21.78995,-1.2162 37.76954,-5.64893 63,-17.47617 17.91038,-8.39583 26.78631,-9.17204 36.64471,-3.20464 7.85581,4.7552 7.89079,5.07482 1.52624,13.94567 -3.05189,4.2537 -5.81152,8.56148 -6.13252,9.57285 -0.52298,1.64777 -2.21786,1.90032 -16.31103,2.43039 -22.16681,0.83374 -38.89191,4.95544 -57.13427,14.08007 -4.72622,2.364 -12.41813,5.5538 -17.09313,7.08843 -14.33139,4.70449 -29.19182,12.75331 -34.92431,18.91597 -1.33338,1.43343 -2.68338,2.56533 -3,2.51533 C 609.75906,271.8591 605,269.4616 599.5,266.58129 Z"
         id="path18" />
      <path
         style="fill:#110f0f"
         d="m 746.5,1412.3191 c -40.33262,-9.0517 -62.49618,-16.485 -92.5,-31.0232 -61.1215,-29.616 -124.18829,-72.7999 -176.49892,-120.8546 -32.04111,-29.4342 -73.79887,-74.1114 -93.0354,-99.5397 -27.73724,-36.6652 -40.38968,-54.895 -55.39081,-79.808 -5.55693,-9.2287 -24.33341,-42.9459 -28.92857,-51.9476 -3.14059,-6.1523 -18.10979,-38.94182 -19.69716,-43.146 -0.72682,-1.925 -2.74193,-6.875 -4.47803,-11 -3.28499,-7.80519 -4.95433,-12.44198 -11.7007,-32.5 -7.82984,-23.27935 -10.28259,-31.95819 -14.80703,-52.39336 -1.3874,-6.26635 -2.72884,-11.72715 -2.98098,-12.13512 -0.68085,-1.10164 -5.39839,-29.75813 -7.07414,-42.97152 -2.33229,-18.39028 -3.2273,-64.0448 -7.0476,-359.5 -0.89607,-69.3 -1.93687,-144.675 -2.31289,-167.5 -0.37603,-22.825 -0.78945,-84.5875 -0.91872,-137.25 L 228.89402,75 h 522.56311 522.56307 l -0.3185,93.75 c -0.2857,84.07639 -1.6343,205.23622 -4.7499,426.75 -0.5724,40.7 -1.4572,107.075 -1.9662,147.5 -0.6433,51.08922 -1.3728,77.92118 -2.3926,88 -1.9111,18.88762 -5.3198,43.05626 -7.0518,50 -0.7546,3.025 -1.6663,7.525 -2.0261,10 -0.3597,2.475 -2.0055,10.125 -3.6572,17 -17.4005,72.42793 -46.8629,139.2069 -90.2237,204.5 -15.6519,23.5688 -40.7829,56.2351 -59.6729,77.5653 -24.8111,28.0162 -66.8545,68.0457 -96.4613,91.8407 -35.47762,28.5133 -64.45244,48.3553 -105.74951,72.4172 -7.83777,4.5667 -16.05049,9.2229 -18.25049,10.3471 -2.2,1.1242 -8.275,4.296 -13.5,7.0485 -10.9124,5.7485 -52.6336,25.0096 -64.5,29.7773 -11.28932,4.5358 -22.85447,8.2611 -31.00854,9.9882 -6.51246,1.3795 -21.42969,1.8586 -25.99146,0.8348 z m 29.17616,-43.7847 c 14.00942,-4.8244 18.67035,-6.7375 35.69245,-14.65 49.37254,-22.9503 77.23044,-38.4239 114.42101,-63.5551 74.54618,-50.3739 136.69088,-109.8711 187.83138,-179.8293 57.2817,-78.3592 96.3434,-172.47377 107.9116,-260 4.1387,-31.31398 4.539,-39.6352 5.461,-113.5 0.5046,-40.425 1.3858,-106.8 1.9582,-147.5 2.813,-199.99778 4.4554,-339.60366 4.7498,-403.75 L 1234.0264,115 H 751.51319 269 l 0.13638,60.25 c 0.075,33.1375 0.46145,84.55 0.85877,114.25 0.39732,29.7 1.45867,110.7 2.35856,180 3.86879,297.93416 4.72439,341.58104 7.03737,359 3.20107,24.10708 7.71007,47.92984 12.11346,64 6.95383,25.37802 9.17989,32.31042 18.7849,58.5 14.93644,40.72659 34.82973,79.8716 64.0325,126 8.51454,13.4495 21.69429,31.87 42.14374,58.9016 18.39,24.3093 56.54555,65.3269 86.12345,92.5835 50.91135,46.9158 110.44584,87.937 167.43634,115.3693 26.69758,12.8508 43.67509,19.0415 70.09149,25.5583 17.10015,4.2186 21.04119,4.1212 35.5592,-0.8783 z m -32.63143,-9.2645 c -15.3714,-3.6578 -35.93588,-10.185 -48.02406,-15.2428 -57.88996,-24.2218 -129.14295,-71.6709 -185.20232,-123.3308 -29.32048,-27.0195 -67.03288,-67.5782 -85.35267,-91.7947 -20.44945,-27.0316 -33.6292,-45.4521 -42.14374,-58.9016 -28.95193,-45.7322 -47.28422,-81.78648 -62.0325,-122 -9.60501,-26.18958 -11.83107,-33.12198 -18.7849,-58.5 -4.40339,-16.07016 -8.91239,-39.89292 -12.11346,-64 -2.31298,-17.41896 -3.16858,-61.06584 -7.03737,-359 -0.89989,-69.3 -1.96124,-150.3 -2.35856,-180 -0.39732,-29.7 -0.78377,-78.1875 -0.85877,-107.75 L 279,125 h 472.51443 472.51447 l -0.3273,64.25 c -0.2989,58.67109 -2.0638,206.28119 -4.7498,397.25 -0.5724,40.7 -1.4536,107.075 -1.9582,147.5 -0.922,73.8648 -1.3223,82.18602 -5.461,113.5 -9.4033,71.14626 -38.1276,149.95872 -78.3599,215 -62.1789,100.5213 -152.30898,186.223 -263.1727,250.2422 -27.20298,15.7086 -72.77386,37.2514 -96,45.3822 -14.1022,4.9368 -14.89899,4.9663 -30.95527,1.1455 z m 68.92125,-168.0215 c 3.71479,-1.8739 6.89742,-6.4766 8.0132,-11.5886 0.54261,-2.486 -0.0475,-4.6457 -2.76745,-10.1285 -10.93964,-22.0515 -24.75316,-67.052 -34.17668,-111.3379 -8.28847,-38.9516 -16.82139,-99.60733 -19.51111,-138.6934 -0.34064,-4.95 -0.83092,-10.575 -1.08952,-12.5 -0.46606,-3.4693 -0.38246,-3.55701 9.53113,-10 5.50072,-3.575 10.00877,-6.77452 10.01788,-7.11005 0.009,-0.33553 -4.65772,-2.74839 -10.37075,-5.36191 -11.97627,-5.47875 -11.58188,-4.76041 -11.60167,-21.13107 l -0.011,-9.10304 9.25,-8.9168 c 8.37269,-8.07109 28.67896,-25.80337 53.50343,-46.72141 5.08939,-4.28852 10.65081,-8.19806 12.35873,-8.68789 1.70792,-0.48982 9.46887,-1.15951 17.24657,-1.48819 43.73219,-1.84812 63.24766,-10.42047 77.90106,-34.21879 5.31458,-8.63132 16.7402,-28.7143 16.7402,-29.42451 0,-0.20035 -5.0625,-0.0399 -11.25,0.35652 -6.1875,0.39644 -21.375,1.21216 -33.75,1.8127 -12.375,0.60055 -25.38168,1.75454 -28.90374,2.56444 -16.87776,3.88101 -25.66205,13.214 -37.11185,39.43 -1.80159,4.125 -4.30084,9.12429 -5.55389,11.10954 C 826.96279,785.60357 765.59836,831 761.63956,831 c -1.89365,0 -2.83022,-34.51176 -1.53274,-56.47983 l 1.00526,-17.02017 3.69396,-3.84542 c 11.46483,-11.93491 72.21375,-67.59406 97.60875,-89.43072 10.01596,-8.61253 12.91153,-10.55316 18.16915,-12.17707 8.00904,-2.47374 34.43702,-8.33277 49.91606,-11.06629 24.73585,-4.36823 37.96237,-9.13979 50.87346,-18.35295 9.31215,-6.64501 23.56634,-22.17381 31.97994,-34.83958 12.8512,-19.34618 18.664,-32.1189 28.7743,-63.22721 4.9942,-15.36659 9.3067,-28.52909 9.5833,-29.25 0.6839,-1.78234 -5.6602,-1.71544 -22.711,0.23947 -43.95351,5.03937 -75.9584,17.27596 -102.08385,39.03023 -21.67391,18.04754 -32.64812,38.23964 -53.87922,99.13557 -3.70129,10.61619 -4.73563,12.57413 -7.898,14.95042 -2.00141,1.50392 -24.94624,20.08171 -50.9885,41.28398 -26.04226,21.20226 -48.42091,39.21092 -49.73032,40.01925 -4.33096,2.67357 -4.71218,0.8807 -3.9095,-18.38656 l 0.733,-17.59451 9.45392,-5.37321 9.45393,-5.37322 -8.82573,-4.89158 -8.82573,-4.89158 -0.3233,-8.97951 c -0.67961,-18.87635 4.2641,-119.08459 5.97732,-121.15922 0.53581,-0.64885 10.50785,-8.47893 22.16009,-17.40018 25.55282,-19.5639 25.19246,-19.25348 20.63847,-17.7783 -1.89892,0.61511 -8.85258,1.17235 -15.45258,1.23829 l -12,0.1199 -11,4.98688 c -9.48656,4.30075 -12.0451,5.03668 -18.596,5.34889 -8.52015,0.40606 -12.79015,-1.14663 -20.62557,-7.50001 -2.32187,-1.88269 -6.19013,-4.29386 -8.59613,-5.35815 -3.80704,-1.68403 -22.81271,-7.43535 -30.98648,-9.37684 -2.09528,-0.49769 -0.0821,1.68058 7.96351,8.61658 12.84461,11.07313 33.82349,30.38658 37.37768,34.4104 l 2.53702,2.87225 -0.37608,20.76301 -0.37608,20.76301 -9.49076,5.11633 -9.49075,5.11632 8.82982,5.1495 8.82982,5.1495 v 61.45747 c 0,58.01542 -0.0992,61.47657 -1.77115,61.79856 -3.22732,0.62153 -44.39655,-36.27859 -70.36836,-63.0714 -18.04805,-18.61857 -41.47034,-46.26352 -45.13247,-53.26912 -0.58272,-1.11475 -1.55263,-5.61475 -2.15535,-10 -6.22714,-45.30747 -31.26123,-79.84666 -69.96819,-96.53415 -28.72637,-12.38461 -69.32115,-15.96539 -93.60448,-8.25664 -2.75,0.87299 -5.10056,1.66464 -5.22347,1.75924 -0.12291,0.0946 3.05485,3.52142 7.06169,7.61518 10.75275,10.98599 19.81089,25.03848 27.65145,42.89751 11.71797,26.69093 33.90155,48.89558 60.15833,60.2155 C 562.25911,617.1157 581.87358,621 600.83689,621 h 7.91572 l 15.3737,15.78554 c 17.0109,17.4666 25.43832,26.98317 24.61982,27.80166 -0.7357,0.7357 -11.72177,-1.32384 -18.78042,-3.52074 -3.18105,-0.99005 -9.76217,-4.31202 -14.62472,-7.38214 C 599.07932,643.41698 584.02368,638.7555 567,638.71712 c -18.9371,-0.0427 -30.8924,4.41119 -49.55351,18.46086 -15.65756,11.78835 -20.94337,16.49764 -26.00773,23.1711 -5.74218,7.56665 -5.77284,8.76715 -0.18876,7.39078 2.3375,-0.57614 10.55,-1.06256 18.25,-1.08091 15.99802,-0.0381 23.44244,1.39691 35.50868,6.84497 11.44041,5.16549 18.98133,6.83159 30.99132,6.84727 19.04484,0.0249 31.9023,-5.34376 46,-19.20726 l 8.5,-8.35879 13.5,1.0841 13.5,1.0841 10.37999,11.27333 c 5.70899,6.20033 23.65222,24.3366 39.87385,40.30283 l 29.49387,29.02949 -0.73738,14.24141 -0.73737,14.2414 -10.39971,5.84567 c -7.59235,4.26765 -10.05871,6.11205 -9.13649,6.83246 0.69478,0.54273 5.42131,3.19028 10.50339,5.88343 l 9.24015,4.89664 0.01,16.51408 c 0.005,9.08274 0.46854,27.08274 1.02917,40 4.86076,111.99611 20.22005,206.20302 46.38198,284.48592 7.42125,22.2062 15.37028,42.6885 16.9731,43.7347 2.0155,1.3155 8.04581,0.8024 11.59158,-0.9863 z M 768,507.44888 c 11.95461,-5.39993 16.89035,-6.69833 23.87596,-6.28081 L 797.42965,501.5 820.74094,474 c 24.12792,-28.46337 34.51117,-42.57911 41.4029,-56.28609 3.17548,-6.31571 3.63361,-7.82984 2.18664,-7.22685 -13.12474,5.46941 -29.04554,7.87359 -47.33048,7.14732 -16.99135,-0.6749 -28.4698,-2.87254 -48.36809,-9.26045 -16.91566,-5.43041 -25.33602,-6.01275 -34.8629,-2.41108 -3.15205,1.19164 -5.96149,2.53958 -6.24321,2.99541 -0.28172,0.45583 1.08494,5.70448 3.03703,11.66366 4.8123,14.69065 7.13188,29.23823 8.44186,52.94422 1.28869,23.32064 2.45538,34.29393 3.78783,35.62638 1.94812,1.94812 8.78803,3.70299 12.20748,3.13199 1.925,-0.32145 7.775,-2.51548 13,-4.87563 z M 732.50856,495.75 c -0.2799,-2.8875 -0.97041,-13.17393 -1.53447,-22.85873 -1.56559,-26.88099 -4.08769,-39.75908 -11.66213,-59.54805 -2.39932,-6.26845 -4.44882,-10.04201 -6.00937,-11.06452 -3.92769,-2.57353 -11.66736,-1.09342 -24.88958,4.75981 -23.55552,10.42758 -34.17382,13.1255 -51.91301,13.19017 -24.61563,0.0897 -37.48924,-6.70945 -51.55483,-27.22868 -3.20463,-4.675 -7.42828,-10.05078 -9.38589,-11.94617 C 572.40533,378.00012 572,377.84317 572,379.67561 c 0,4.31098 4.95915,21.36706 8.34046,28.68545 9.64649,20.87857 27.20893,39.5342 51.26093,54.45172 18.83045,11.67902 38.75477,19.89512 66.98979,27.6243 10.98465,3.00698 22.88286,6.56251 26.44046,7.90116 3.5576,1.33866 6.80979,2.48518 7.2271,2.54784 0.4173,0.0627 0.52972,-2.24858 0.24982,-5.13608 z M 830.5,493.4801 c 47.30273,-17.80904 84.67514,-58.00217 103.08397,-110.86434 l 3.44211,-9.88424 -7.26304,6.49223 C 910.00058,396.88886 892.97179,406 879.71806,406 c -3.4282,0 -3.5527,0.14748 -6.68555,7.91935 -3.59573,8.92018 -12.29816,23.66207 -19.60069,33.20351 -2.6844,3.50742 -13.24157,16.27714 -23.46036,28.37714 -10.21879,12.1 -18.90345,22.53679 -19.29924,23.19286 -0.85621,1.41927 9.31474,-1.25469 19.82778,-5.21276 z M 648,411.55441 c 10.82451,-1.6337 22.05286,-5.26345 36.5,-11.79923 12.1173,-5.48177 16.43652,-6.74233 23.12716,-6.7496 l 5.12717,-0.006 -0.4969,-4.75 c -1.71399,-16.38457 -18.73459,-40.41352 -37.6837,-53.20025 -22.35504,-15.08503 -48.9218,-22.16108 -84.07373,-22.39301 -31.85975,-0.21022 -49.6345,4.89469 -61.05401,17.53473 -4.5178,5.00066 -10.21578,16.78159 -11.0316,22.80853 -1.2422,9.17677 4.41259,11.97893 24.27843,12.03088 28.93265,0.0756 34.69754,2.76156 48.34542,22.5245 4.02194,5.824 9.12941,12.1442 11.34992,14.04487 5.54397,4.74544 13.70448,8.41987 22.07872,9.9414 9.36586,1.70169 12.33204,1.7033 23.53312,0.0128 z m 192.46591,-3.07643 c 31.3375,-5.4648 57.61439,-24.44583 73.06433,-52.7778 4.17654,-7.6589 5.5947,-16.76156 3.56808,-22.90227 C 913.22049,321.04796 904.5891,314.57623 893,314.72922 c -7.28937,0.0962 -12.26425,1.67713 -28.51872,9.06261 -17.33386,7.87591 -15.99153,7.68059 -52.98128,7.70911 -30.64288,0.0236 -33.74446,0.18907 -43.42253,2.31634 -33.49221,7.3617 -48.59062,21.92018 -48.41403,46.68272 0.0429,6.01404 2.49023,18.987 3.83571,20.33249 0.242,0.24199 2.81618,-0.63383 5.72042,-1.94625 C 733.88008,396.78014 735.9675,396.5 747,396.5 c 11.99929,0 13.00071,0.16687 25,4.16593 11.14328,3.71376 27.10095,7.60583 35.5,8.65843 7.75264,0.9716 25.09402,0.52637 32.96591,-0.84638 z M 907.5,386.53944 c 4.4,-2.97588 13.78652,-10.72716 20.85893,-17.22507 23.05385,-21.18115 26.30609,-22.84785 47.52843,-24.35728 21.54649,-1.53248 27.11324,-3.42767 27.11184,-9.23014 0,-7.24129 -12.6334,-26.93309 -22.63655,-35.28872 -29.97916,-25.04161 -67.17544,-29.10673 -102.76613,-11.23113 -15.94901,8.01047 -38.11658,23.26258 -46.03361,31.67283 L 828.62582,324 h 5.24427 c 7.06711,0 12.9139,-1.5467 23.62991,-6.25103 4.95,-2.17305 12.18685,-5.23482 16.08188,-6.80393 18.51018,-7.45685 33.48138,-5.36559 43.86444,6.12722 6.38272,7.06491 8.054,11.92788 8.05153,23.42774 -0.002,9.41473 -0.20024,10.38043 -3.38685,16.5 -5.53105,10.62181 -10.95572,17.92712 -21.06075,28.36211 -9.05078,9.34633 -9.34106,9.77649 -5.55025,8.22506 2.2,-0.90037 7.6,-4.07185 12,-7.04773 z M 716.34413,357.61821 c 5.83373,-11.80375 19.6026,-23.00146 33.90587,-27.57439 3.71931,-1.18911 3.75,-1.2429 3.75,-6.57215 0,-13.56282 -5.12087,-25.77289 -14.91133,-35.55417 -10.82272,-10.81259 -19.80841,-12.3481 -40.23452,-6.87545 -24.65197,6.60487 -28.94514,7.23797 -49.85415,7.35179 -23.55827,0.12825 -24.40866,-0.0827 -48.0607,-11.92423 -9.20789,-4.60997 -19.4719,-9.30153 -22.80891,-10.42569 -6.98772,-2.35399 -15.75887,-2.64927 -20.41251,-0.68719 -7.96056,3.35637 -18.71546,19.64967 -18.71709,28.35576 -7.8e-4,4.17125 3.34136,14.7629 4.97742,15.77404 0.4668,0.2885 4.60017,-0.38536 9.18526,-1.49746 12.63285,-3.06407 32.37149,-4.28099 49.68669,-3.06328 26.22107,1.84404 42.47731,5.72289 60.64984,14.47146 18.82252,9.06149 35.03125,23.07189 44.73623,38.6688 2.34507,3.76878 4.30784,6.8707 4.36169,6.89314 0.0539,0.0225 1.73966,-3.281 3.74621,-7.34098 z m 81.09129,-34.20104 20.93542,-0.52789 9.58359,-9.19464 c 8.77847,-8.42221 23.37924,-19.23306 35.29557,-26.13391 2.6125,-1.51293 4.75,-3.14891 4.75,-3.63552 0,-1.55137 -10.1365,-6.74006 -16.56847,-8.48112 l -6.21191,-1.68148 -6.35981,5.38459 c -9.20937,7.79719 -19.25404,14.21129 -31.02751,19.81283 -13.11024,6.23755 -23.59978,9.02715 -36.69773,9.75945 l -10.36543,0.57953 0.61543,4.49007 C 761.72306,316.25861 762,320.174 762,322.48993 v 4.21078 l 7.25,-1.37783 c 3.9875,-0.7578 16.67094,-1.61538 28.18542,-1.90571 z M 773,299.74346 c -1.925,-0.5788 -6.7625,-2.06007 -10.75,-3.29171 -3.9875,-1.23163 -7.25,-2.03978 -7.25,-1.79588 0,0.2439 0.68656,1.7711 1.52568,3.39379 l 1.52568,2.95034 9.22432,-0.10209 c 8.09614,-0.0896 8.79625,-0.2308 5.72432,-1.15445 z m 37.99991,-11.62864 c 4.17226,-2.08958 7.64335,-4.50093 7.82318,-5.43473 0.77498,-4.02415 -9.56695,-12.66657 -22.82309,-19.07252 l -8.5,-4.10757 -12,0.12882 c -13.53027,0.14525 -23.2454,2.25317 -34.68373,7.52544 -8.11054,3.73838 -9.86516,5.37806 -6.79712,6.35182 1.16844,0.37085 4.56714,2.66387 7.55265,5.0956 5.12618,4.17533 5.4282,4.28982 5.4282,2.05771 0,-1.29999 1.02321,-3.88196 2.2738,-5.73771 5.15408,-7.64814 14.94456,-11.31654 30.2262,-11.32547 11.44027,-0.007 15.84955,1.62107 21.34468,7.87967 4.77537,5.43885 4.0429,11.90311 -2.06648,18.23729 l -3.09914,3.21317 3.91047,-0.52768 c 2.15076,-0.29023 7.28543,-2.21796 11.41038,-4.28384 z M 787,288.16439 c 6.59394,-3.25678 10.40046,-8.77201 8.0276,-11.63113 -2.9424,-3.54538 -7.34283,-4.94932 -15.5276,-4.95404 -13.37459,-0.008 -24.5,4.87379 -24.5,10.74989 0,1.95333 0.9637,2.83918 4.95809,4.55752 7.39938,3.18312 15.16356,5.06692 18.54191,4.49876 1.65,-0.27749 5.475,-1.72694 8.5,-3.221 z m -121.5,-8.19872 c 11.95642,-1.3523 12.05575,-1.39669 13.9947,-6.25339 5.59099,-14.00434 20.18372,-24.31577 42.07224,-29.72884 C 731.39542,241.55285 738,238.84708 738,237.25113 c 0,-0.28537 -6.8625,-0.27244 -15.25,0.0287 -21.08968,0.75728 -37.59191,5.04917 -56.91079,14.80131 -3.34697,1.68954 -10.64251,4.64693 -16.21231,6.57198 -10.62,3.6705 -22.27025,9.44756 -28.24966,14.00828 l -3.53791,2.6985 2.67681,1.40252 c 7.4096,3.88228 26.78277,5.26181 44.98386,3.20322 z m 234.52981,-7.47194 c 3.90552,-0.82155 8.53402,-1.52536 10.28557,-1.56402 7.32798,-0.16173 7.42131,-1.20368 0.57263,-6.3924 -13.2851,-10.06509 -34.69284,-18.15208 -54.38801,-20.54561 -4.95,-0.60157 -15.075,-1.97201 -22.5,-3.04543 -27.62838,-3.99419 -48.6924,-4.93184 -64.96245,-2.89175 -9.97829,1.25117 -13.83984,2.86022 -7.03755,2.93243 5.60291,0.0595 16.15487,2.26125 25.99146,5.42336 4.1297,1.32755 10.65854,2.67333 14.50854,2.99062 12.28993,1.01286 28.52926,6.41879 38.94841,12.96558 2.77837,1.74577 8.65159,4.20769 13.05159,5.47093 9.13628,2.62302 15.31518,5.91559 18.64373,9.93475 l 2.30363,2.78159 8.74075,-3.28316 c 4.80741,-1.80574 11.93618,-3.95534 15.8417,-4.77689 z m 61.28471,-9.45072 c -4.57494,-8.9719 -11.5655,-15.1418 -23.82068,-21.02422 -10.74104,-5.15564 -21.77085,-8.15986 -47.99384,-13.07224 -32.53221,-6.09429 -46.2893,-9.8182 -60.11774,-16.27328 -14.37778,-6.71151 -21.83409,-9.25977 -31.46825,-10.75456 -19.35152,-3.00249 -35.90533,4.31389 -46.87757,20.71874 l -5.25402,7.85541 4.35879,0.76801 c 2.44908,0.43152 7.42568,0.2946 11.35879,-0.31253 18.58755,-2.86922 43.48073,-2.19038 73.5,2.00435 7.425,1.03753 17.775,2.42124 23,3.07493 19.03652,2.38158 38.82525,9.1081 51.48992,17.50225 3.29446,2.18357 9.03886,6.84365 12.76533,10.35572 l 6.77541,6.38559 8.89383,1.32202 c 4.89161,0.72711 12.87221,2.80404 17.73467,4.61539 l 8.84084,3.29338 0.31452,-4.48915 c 0.25281,-3.60847 -0.43382,-5.95671 -3.5,-11.96981 z m -128.56818,10.76694 5.43109,-4.19005 -5.8228,-2.94435 c -7.37214,-3.72778 -15.07081,-6.40644 -23.35463,-8.12594 -4.43568,-0.92073 -5.90175,-0.98406 -4.61628,-0.19942 7.57044,4.62094 16.53005,11.82423 19.07863,15.33871 1.67071,2.30389 3.22108,4.21639 3.44528,4.25 0.22419,0.0336 2.85162,-1.82442 5.83871,-4.12895 z M 697,272.91028 c 4.125,-1.12345 11.1,-2.28679 15.5,-2.58519 7.37838,-0.50038 8.52644,-0.88999 14.77503,-5.01404 8.94486,-5.90358 16.65254,-8.93427 31.15879,-12.25172 12.95381,-2.96243 12.95179,-3.45413 -0.0191,-4.65485 -8.37891,-0.77563 -25.62673,0.96688 -36.17325,3.65451 -14.91812,3.80168 -28.79598,12.31126 -32.84394,20.13914 -1.71719,3.32068 -1.90925,3.30269 7.60246,0.71215 z m -83.92431,-3.51651 c 5.73249,-6.16266 20.59292,-14.21148 34.92431,-18.91597 4.675,-1.53463 12.36691,-4.72443 17.09313,-7.08843 18.24236,-9.12463 34.96746,-13.24633 57.13427,-14.08007 14.09317,-0.53007 15.78805,-0.78262 16.31103,-2.43039 0.321,-1.01137 3.08063,-5.31915 6.13252,-9.57285 6.36455,-8.87085 6.32957,-9.19047 -1.52624,-13.94567 -9.8584,-5.9674 -18.73433,-5.19119 -36.64471,3.20464 -25.23046,11.82724 -41.21005,16.25997 -63,17.47617 -31.71859,1.77036 -51.149,11.5683 -60.89535,30.707 l -1.65414,3.24819 4.27474,1.67399 c 2.35111,0.9207 8.77475,4.03061 14.27475,6.91091 5.5,2.88031 10.25906,5.27782 10.57569,5.32781 0.31662,0.05 1.66662,-1.0819 3,-2.51533 z"
         id="path16" />
    </g>
  </g>
</svg>
