<?xml version="1.0" encoding="UTF-8" standalone="no"?>
<svg
   xmlns:dc="http://purl.org/dc/elements/1.1/"
   xmlns:cc="http://creativecommons.org/ns#"
   xmlns:rdf="http://www.w3.org/1999/02/22-rdf-syntax-ns#"
   xmlns:svg="http://www.w3.org/2000/svg"
   xmlns="http://www.w3.org/2000/svg"
   xmlns:sodipodi="http://sodipodi.sourceforge.net/DTD/sodipodi-0.dtd"
   xmlns:inkscape="http://www.inkscape.org/namespaces/inkscape"
   version="1.1"
   id="svg2"
   width="1044.7208"
   height="1337.2157"
   viewBox="0 0 1044.7208 1337.2157"
   sodipodi:docname="Breenheim.svg"
   inkscape:version="1.0.1 (3bc2e813f5, 2020-09-07)">
  <metadata
     id="metadata8">
    <rdf:RDF>
      <cc:Work
         rdf:about="">
        <dc:format>image/svg+xml</dc:format>
        <dc:type
           rdf:resource="http://purl.org/dc/dcmitype/StillImage" />
        <dc:title></dc:title>
      </cc:Work>
    </rdf:RDF>
  </metadata>
  <defs
     id="defs6" />
  <sodipodi:namedview
     pagecolor="#ffffff"
     bordercolor="#666666"
     borderopacity="1"
     objecttolerance="10"
     gridtolerance="10"
     guidetolerance="10"
     inkscape:pageopacity="0"
     inkscape:pageshadow="2"
     inkscape:window-width="1920"
     inkscape:window-height="1057"
     id="namedview4"
     showgrid="false"
     inkscape:pagecheckerboard="true"
     inkscape:zoom="0.49"
     inkscape:cx="760.19269"
     inkscape:cy="521.58244"
     inkscape:window-x="-8"
     inkscape:window-y="-8"
     inkscape:window-maximized="1"
     inkscape:current-layer="g10" />
  <g
     inkscape:groupmode="layer"
     inkscape:label="Image"
     id="g10"
     transform="translate(-229.11974,-75.653138)">
    <path
       style="fill:#ffffff;fill-opacity:1"
       d="m 746.50001,1412.3191 c -40.3326,-9.0517 -62.4961,-16.485 -92.5,-31.0232 -61.1215,-29.616 -124.1883,-72.7999 -176.4989,-120.8546 -32.0411,-29.4342 -73.7989,-74.1114 -93.0354,-99.5397 -27.7372,-36.6652 -40.3897,-54.895 -55.3908,-79.808 -5.5569,-9.2287 -24.3334,-42.9459 -28.9286,-51.9476 -3.1406,-6.1523 -18.1098,-38.94185 -19.6971,-43.14595 -0.7268,-1.925 -2.742,-6.875 -4.4781,-11 -3.2849,-7.8052 -4.9543,-12.442 -11.7007,-32.5 -7.8298,-23.2794 -10.2825,-31.9582 -14.807,-52.3934 -1.3874,-6.2664 -2.72884,-11.7272 -2.98104,-12.1351 -0.6835,-1.106 -5.4037,-29.7957 -7.0699,-42.9715 -2.4309,-19.22268 -4.1589,-109.01724 -6.3216,-328.50005 -0.5853,-59.4 -1.5194,-123.525 -2.0757,-142.5 -0.5563,-18.975 -1.2804,-62.69893 -1.6092,-97.1643 -0.6595,-69.14647 -0.6676,-69.03309 5.4995,-77.54646 4.4411,-6.13084 8.5206,-8.77999 25.81124,-16.76145 42.5837,-19.65694 90.0168,-36.81765 144.7833,-52.38079 9.9518,-2.82802 50.6708,-12.89676 59,-14.58914 18.6358,-3.78654 27.5848,-5.632809 34,-7.014639 3.85,-0.82928 11.725,-2.22212 17.5,-3.0952 5.775,-0.87308 12.075,-1.98459 14,-2.47003 1.925,-0.48543 9.125,-1.58535 16,-2.44427 6.875,-0.85891 14.525,-2.00356 17,-2.54366 2.475,-0.54011 13.05,-1.92843 23.5,-3.08515 35.2541,-3.90233 31.5582,-3.57203 91.5,-8.17726 18.8654,-1.4494 164.9791,-1.42559 181.50003,0.0296 6.6,0.58132 22.0036,1.78493 34.23021,2.67468 12.22662,0.88975 25.72662,2.01132 30,2.49237 4.27339,0.48105 16.54479,1.80967 27.26979,2.95249 10.725,1.14283 20.85,2.34652 22.5,2.67487 1.65,0.32835 10.65,1.67071 20,2.98302 31.04156,4.35681 58.40686,9.19406 86.99996,15.378599 27.114,5.86463 32.1282,7.02154 46,10.61339 7.7,1.99377 16.7,4.28192 20,5.08477 3.3,0.80286 8.7,2.3104 12,3.35009 3.3,1.0397 10.05,3.09509 15,4.56755 36.0327,10.71849 79.9306,27.37828 88.5026,33.58776 5.1798,3.75226 9.5937,10.66799 11.0167,17.26097 0.7401,3.42908 0.9785,17.84825 0.7213,43.62221 -0.4405,44.14886 -3.2494,262.05222 -4.7888,371.5 -0.5724,40.7 -1.4572,107.075 -1.9662,147.5 -0.6433,51.08922 -1.3728,77.92118 -2.3926,88 -1.9111,18.88763 -5.3198,43.05623 -7.0518,50.00003 -0.7546,3.025 -1.6663,7.525 -2.0261,10 -0.3597,2.475 -2.0055,10.125 -3.6572,17 -17.4005,72.4279 -46.8629,139.20685 -90.2237,204.49995 -15.6519,23.5688 -40.7829,56.2351 -59.6729,77.5653 -24.8111,28.0162 -66.8545,68.0457 -96.4613,91.8407 -35.47758,28.5133 -64.4524,48.3553 -105.74947,72.4172 -7.83777,4.5667 -16.05049,9.2229 -18.25049,10.3471 -2.2,1.1242 -8.275,4.296 -13.5,7.0485 -10.9124,5.7485 -52.6336,25.0096 -64.5,29.7773 -11.28933,4.5358 -22.85443,8.2611 -31.00853,9.9882 -6.5125,1.3795 -21.4297,1.8586 -25.9915,0.8348 z"
       id="path26-3"
       sodipodi:nodetypes="ssssssssssssssssssssssssssssssssssssssssssssssssssssssss" />
    <path
       style="fill:#d71f1e"
       d="m 736.81102,1357.9058 c -22.44279,-5.9417 -39.66616,-12.3903 -62.79035,-23.5094 -53.626,-25.7857 -114.66949,-68.0546 -164.20232,-113.7001 -29.32048,-27.0195 -67.03288,-67.5782 -85.35267,-91.7947 -20.44945,-27.0316 -33.6292,-45.4521 -42.14374,-58.9016 -28.95193,-45.7322 -47.28422,-81.78648 -62.0325,-122 -9.60501,-26.18958 -11.83107,-33.12198 -18.7849,-58.5 -4.40855,-16.089 -8.92894,-39.98022 -12.10927,-64 -1.65424,-12.49389 -3.17005,-64.09498 -4.04649,-137.75 L 284.7568,638 H 516.3784 748 v 361.5 c 0,198.825 -0.1125,361.4405 -0.25,361.3679 -0.1375,-0.073 -5.06004,-1.4056 -10.93898,-2.9621 z M 557.30264,1218.9156 c 10.12606,-8.6309 17.67876,-15.7969 17.65388,-16.75 -0.0239,-0.9161 -3.09184,-27.2541 -6.81761,-58.5289 l -6.77413,-56.8633 2.50964,-6.3867 c 1.3803,-3.5127 3.05248,-6.3867 3.71596,-6.3867 2.84938,0 19.44984,-9.3287 25.49437,-14.3267 11.89021,-9.8315 22.03589,-26.0052 25.97534,-41.4083 2.94082,-11.4985 2.83784,-11.9328 -4.56995,-19.27477 l -6.50986,-6.45199 -6.53256,6.53256 c -5.8502,5.8502 -6.68743,7.1964 -8.01515,12.8878 -1.94016,8.3168 -6.48019,16.6903 -11.97105,22.0792 -2.43078,2.3856 -4.63391,4.1231 -4.89586,3.8612 -0.82983,-0.8298 -5.33734,-26.7667 -7.62914,-43.899 -1.91839,-14.34099 -2.26149,-22.32278 -2.62208,-61 -0.24166,-25.92145 0.0142,-49.50995 0.61282,-56.5 0.56523,-6.6 1.51651,-17.85 2.11394,-25 1.22401,-14.64884 4.87677,-37.45946 7.86889,-49.13938 l 1.99658,-7.7938 -18.54839,-64.53341 c -10.20161,-35.49338 -18.91218,-65.18737 -19.35683,-65.98666 -1.33946,-2.40779 -10.12579,26.50435 -28.95119,95.26629 l -10.07855,36.81303 2.47308,9.18697 c 3.54109,13.15436 6.22754,27.24292 8.04436,42.18696 0.86925,7.15 1.7728,14.575 2.00789,16.5 1.63862,13.41798 2.67333,51.16013 2.22062,81 -0.45662,30.09814 -0.8444,36.60524 -3.03926,51 -2.63931,17.3096 -8.34421,43 -9.54874,43 -1.54325,0 -10.21264,-9.8378 -13.48949,-15.3075 -1.91358,-3.1942 -4.67929,-9.0979 -6.14602,-13.1194 -2.081,-5.7058 -3.82472,-8.4555 -7.93826,-12.5179 l -5.27147,-5.20599 -6.19137,7.32539 c -6.01893,7.1214 -6.17757,7.4562 -5.69581,12.0207 0.75906,7.1917 4.90179,18.003 10.17995,26.5667 8.52712,13.835 26.43186,29.333 40.17281,34.7727 3.22003,1.2747 4.25,2.2209 4.25,3.9044 0,1.2221 1.09583,4.3865 2.43517,7.032 l 2.43518,4.8101 -7.98207,56.5125 c -4.39013,31.0819 -7.62346,56.8611 -7.18517,57.2871 3.58133,3.481 34.92015,30.8653 35.34953,30.8889 0.30396,0.017 8.51646,-6.7577 18.25,-15.0541 z M 522.5,1215.8496 c -8.8,-7.7537 -16.09898,-14.3793 -16.21995,-14.7236 -0.12097,-0.3443 3.94657,-26.3398 9.03897,-57.7677 8.71256,-53.7699 9.42691,-57.3842 12.10595,-61.25 3.23314,-4.6655 3.84721,-4.8643 6.72966,-2.1789 l 2.071,1.9295 -3.24152,4.5137 -3.24151,4.5137 -6.35291,51.3069 c -3.4941,28.2187 -6.3603,52.6568 -6.36934,54.3068 -0.014,2.5625 1.57504,4.4218 10.89731,12.75 6.00255,5.3625 11.21304,9.75 11.57887,9.75 0.36583,0 5.46627,-4.1365 11.33431,-9.1923 5.86804,-5.0557 10.87404,-9.3481 11.12445,-9.5386 0.25041,-0.1905 -1.72923,-23.2277 -4.3992,-51.1938 l -4.85449,-50.8475 2.33551,-3.2799 c 2.1143,-2.9693 2.40627,-3.0985 3.08256,-1.3639 0.41087,1.0538 3.7147,25.9623 7.34185,55.3521 5.33905,43.2611 6.35142,53.6682 5.31664,54.6547 -4.00696,3.8202 -31.0798,26.4049 -31.62571,26.3828 -0.35885,-0.015 -7.85245,-6.3704 -16.65245,-14.124 z M 534,1093.6479 c 0,-0.7437 1.02977,-2.8812 2.28838,-4.75 1.77447,-2.6348 3.17806,-3.5225 6.25,-3.9527 5.59677,-0.7837 7.94237,-2.3312 9.95158,-6.5653 1.38367,-2.9159 1.53918,-4.3783 0.7418,-6.9764 -0.88764,-2.8922 -0.57517,-4.1233 2.60035,-10.2452 3.23733,-6.2412 4.17892,-7.2365 9.13855,-9.6604 16.46467,-8.0467 27.81304,-20.6254 33.06635,-36.6514 1.54586,-4.7159 3.31864,-7.7644 6.08738,-10.468 l 3.90636,-3.8144 3.69039,3.6904 3.6904,3.6904 -1.28922,6.2775 c -2.77826,13.5281 -11.67772,29.6288 -21.06221,38.1052 -5.96105,5.3842 -16.80758,12.2226 -24.78182,15.624 -6.47082,2.7602 -6.80958,3.0742 -7.4682,6.9233 -1.3553,7.9207 -6.24322,14.4869 -13.19306,17.7229 C 541.90969,1095.2553 534,1095.8653 534,1093.6479 Z M 519.23805,1080.25 c -0.38455,-0.9625 -0.66673,-3.5799 -0.62706,-5.8165 0.0718,-4.0499 0.0481,-4.0759 -5.76146,-6.3286 -12.37706,-4.7993 -28.82744,-17.9254 -36.52176,-29.1416 C 470.56467,1030.5624 464,1015.3772 464,1010.4471 c 0,-0.6544 1.6875,-3.0817 3.75,-5.3938 l 3.75,-4.204 3.09086,3.3254 c 1.69998,1.8289 4.10505,6.2503 5.3446,9.8253 7.5812,21.865 23.61766,36.6724 44.36239,40.9626 5.26207,1.0883 6.18318,1.0084 9.96773,-0.864 4.56902,-2.2606 5.98684,-1.7799 5.0717,1.7196 -0.38536,1.4736 -1.58579,2.4815 -3.38395,2.8411 -4.5826,0.9166 -7.99223,5.3561 -8.82467,11.4904 -0.68531,5.0501 -4.32813,11.8503 -6.3481,11.8503 -0.46383,0 -1.15796,-0.7875 -1.54251,-1.75 z m 17.51195,-4.3626 c -5.07499,-4.3757 -5.65929,-6.1442 -3.1933,-9.6649 2.32864,-3.3246 4.75022,-2.7315 10.52398,2.5775 5.14421,4.7301 5.1997,4.8429 3.81237,7.75 -2.1257,4.4543 -5.43691,4.2574 -11.14305,-0.6626 z m 8.43566,-13.1898 c -2.0122,-2.1419 -2.0823,-2.6869 -1.00573,-7.8195 1.02253,-4.875 0.93392,-5.9746 -0.76135,-9.4476 -2.57405,-5.2733 -4.56361,-5.3826 -8.98073,-0.4934 -2.01882,2.2346 -4.12144,4.0629 -4.67249,4.0629 -1.63882,0 0.91834,-28.1875 3.85557,-42.5 2.22016,-10.81832 5.51667,-22.5 6.34938,-22.5 2.08454,0 7.41893,22.0315 9.44291,39 2.75701,23.114 2.98371,30.1228 1.17553,36.3427 -0.90454,3.1115 -2.00361,5.6573 -2.44237,5.6573 -0.43876,0 -1.77109,-1.0361 -2.96072,-2.3024 z m -28.77582,-15.0719 c -0.29006,-0.7559 0.17414,-12.7934 1.03156,-26.75 2.85934,-46.5427 3.61147,-68.0967 3.62476,-103.8757 0.02,-53.78325 -3.10734,-85.6223 -11.12655,-113.27866 l -2.09389,-7.22134 9.12423,-35 c 11.90721,-45.67533 18.10526,-67.5 19.16953,-67.5 1.16901,0 1.07381,18.42548 -0.15242,29.5 -0.54809,4.95 -3.30252,22.73255 -6.12095,39.51679 l -5.12443,30.51678 3.5442,9.48322 c 4.47179,11.96521 6.33803,19.2601 7.66385,29.95698 1.37095,11.06104 1.37711,109.05435 0.008,123.52623 -0.57246,6.05 -3.94708,29.19682 -7.49917,51.4374 -3.55208,22.2405 -6.45833,40.578 -6.45833,40.75 0,1.0437 -5.15816,0.064 -5.59016,-1.0617 z M 559,1047.4535 c 0,-0.3006 -2.90677,-17.9631 -6.4595,-39.25 -3.55272,-21.28692 -6.96755,-44.83826 -7.58851,-52.33629 -1.48929,-17.9832 -0.71961,-119.27066 0.98592,-129.7442 1.25377,-7.69928 4.48369,-19.27068 7.63633,-27.35763 l 1.84576,-4.73461 -4.25448,-26.26539 c -6.67143,-41.18671 -9.78154,-71.64859 -7.4616,-73.0824 0.5281,-0.32637 7.19043,21.57843 15.10215,49.65367 l 14.15717,50.23768 -2.533,11.9591 c -3.04495,14.37619 -5.88369,33.31842 -7.63799,50.96657 -2.61976,26.35467 -1.21345,122.53557 2.64263,180.7349 0.40047,6.0443 0.22442,6.8903 -1.71683,8.25 -2.13822,1.4977 -4.71805,2.0273 -4.71805,0.9686 z m 409,89.1146 V 1027 h -2.37756 c -3.85007,0 -4.97587,-2.3093 -4.27446,-8.7679 0.34239,-3.1526 0.8855,-6.8591 1.20691,-8.2366 0.49137,-2.1058 0.10363,-2.6859 -2.43576,-3.6444 -6.36199,-2.4014 -8.91024,-11.41506 -5.25439,-18.58579 1.02561,-2.01167 2.17633,-6.49432 2.55715,-9.96145 0.85968,-7.82671 3.84434,-14.25734 7.66471,-16.51409 C 967.7198,959.7343 968,959.06056 968,954.28439 968,949.43448 967.81059,949 965.69634,949 c -3.73931,0 -12.09668,-4.71484 -13.96567,-7.87879 -3.65617,-6.18941 -1.09231,-13.90749 6.29313,-18.94441 3.7583,-2.56319 7.1242,-2.6008 23.4762,-0.2623 12.65056,1.80915 28.767,-1.00428 41,-7.15729 9.0548,-4.55446 25.4396,-16.8899 32.8049,-24.6975 14.4261,-15.29246 21.9985,-39.72513 20.2602,-65.37021 -3.4535,-50.94826 -48.6787,-87.72856 -101.66382,-82.68009 -20.38891,1.94267 -26.28125,4.30824 -38.68041,15.52883 -10.04261,9.08804 -17.52861,20.69795 -22.23467,34.48334 -3.13543,9.18459 -3.97558,31.04543 -1.52002,39.55104 4.38595,15.1921 15.51872,28.6694 28.95151,35.0486 16.37571,7.7768 29.81475,3.60446 37.61063,-11.67672 l 2.04059,-3.9999 -2.78445,0.61122 c -1.53146,0.33618 -3.36263,0.79053 -4.06928,1.00968 -3.06488,0.95049 -11.1701,-1.83505 -15.08159,-5.18315 -7.11294,-6.08841 -7.83449,-13.73192 -2.14342,-22.70579 L 958.95595,820 h -2.33009 c -5.48367,0 -12.64215,-7.94284 -14.08368,-15.62684 -1.43597,-7.65441 4.78861,-13.77299 15.20462,-14.94569 11.41176,-1.28481 10.79966,-0.95323 10.48047,-5.67724 C 967.66224,775.3877 973.41668,770 982.91348,770 c 10.5174,0 16.58382,5.73233 16.4421,15.5366 l -0.074,5.11635 7.66882,-0.44394 c 6.448,-0.37327 8.3421,-0.10045 11.8984,1.71386 6.9478,3.54448 10.48,11.52076 8.1835,18.47933 -0.6413,1.94305 -3.2864,5.45956 -5.8785,7.81518 l -4.7127,4.28262 1.3593,4 c 4.3548,12.81539 -6.2467,26.28303 -18.6026,23.63162 -2.58382,-0.55445 -4.94714,-0.69839 -5.25182,-0.31986 -0.30468,0.37853 -1.10493,2.87986 -1.77833,5.55851 -3.71094,14.76142 -18.64449,28.30212 -34.94822,31.68862 -16.04432,3.33261 -33.71099,-3.29716 -50.4084,-18.91677 C 903.19981,864.76395 899.43985,862 898.45561,862 c -0.98423,0 -4.65488,1.575 -8.15699,3.5 -5.98885,3.29188 -10.30741,4.44584 -10.29165,2.75 0.004,-0.4125 1.24044,-4.125 2.748,-8.25 2.6863,-7.35026 2.73625,-7.8993 2.50199,-27.5 -0.13335,-11.15734 0.36846,-26.63199 1.13496,-35 0.75569,-8.25 1.13915,-15.39566 0.85214,-15.87924 -0.28701,-0.48358 -3.94684,-2.456 -8.13295,-4.38316 -4.18611,-1.92715 -7.91904,-3.9852 -8.29539,-4.57344 -0.42927,-0.67095 2.01358,-1.84767 6.55501,-3.15755 12.0726,-3.48209 17.95159,-7.46832 36.43452,-24.70426 5.88211,-5.48527 13.76901,-12.01877 17.52644,-14.51889 3.75744,-2.50012 7.08604,-5.20848 7.39691,-6.01858 0.31086,-0.8101 -1.3009,-5.06263 -3.5817,-9.45007 -2.28079,-4.38745 -4.1469,-8.39064 -4.1469,-8.89599 0,-1.57942 2.57701,-1.01444 7.22682,1.58439 11.49011,6.42195 20.23339,8.12029 49.06479,9.53064 12.21462,0.59751 27.29089,1.7156 33.50269,2.48465 6.6685,0.82558 12.1978,1.05275 13.5,0.55465 2.7355,-1.04625 5.2471,-3.84512 6.1723,-6.8782 0.3867,-1.26777 1.2274,-2.1344 1.8683,-1.92584 0.6408,0.20856 3.2449,4.62083 5.7869,9.80504 4.085,8.33099 6.2211,11.11009 18.3902,23.92585 7.5726,7.975 16.2602,17.3125 19.3058,20.75 4.7278,5.33627 6.0303,6.25 8.9094,6.25 1.8547,0 4.7497,-0.71239 6.4335,-1.5831 2.3261,-1.20285 2.9289,-1.2629 2.51,-0.25 -3.0806,7.44856 -4.0824,13.26651 -4.1037,23.8331 -0.028,14.02036 1.383,53.6295 2.0233,56.78102 0.584,2.87484 5.9469,6.21034 9.993,6.21524 1.6959,0.002 3.3226,0.24296 3.615,0.53535 0.2924,0.29238 -2.4477,3.55488 -6.089,7.25 -3.6413,3.69511 -10.8507,13.01839 -16.0209,20.71839 -5.1702,7.7 -11.9739,17.15828 -15.1194,21.01841 -16.3243,20.03324 -36.9208,33.58554 -62.0376,40.82004 l -8.4314,2.42854 -0.3003,3.96915 c -0.2323,3.07044 0.4351,5.15219 2.9477,9.19407 4.143,6.66471 9.9568,23.03213 10.5617,29.7341 0.5653,6.26343 -1.7048,11.76499 -5.7088,13.83549 -2.6527,1.3718 -2.7021,1.5531 -1.7435,6.4009 1.4136,7.1494 0.2886,11.8826 -3.311,13.9306 l -2.9332,1.6687 -0.01,92.4042 -0.01,92.4042 -6.1651,5.5958 c -7.17825,6.5154 -26.08596,22.3902 -30.0849,25.2591 l -2.75,1.9729 v -109.5681 z"
       id="path30" />
    <path
       style="fill:#0065a7"
       d="m 283.94668,596.25 c -0.051,-16.02031 -2.07135,-177.77336 -3.90011,-312.25 -0.47495,-34.925 -0.562,-63.82023 -0.19344,-64.21162 0.9451,-1.00364 24.44549,-11.11108 38.14687,-16.40684 6.325,-2.44469 12.625,-4.92712 14,-5.51651 9.35898,-4.01172 56.67974,-20.02408 70,-23.68656 1.925,-0.52928 8.225,-2.34638 14,-4.038 29.25402,-8.56907 85.30611,-21.07061 114.92382,-25.63195 5.7331,-0.88293 10.71669,-1.78634 11.07464,-2.00757 0.35795,-0.22123 6.46724,-1.1176 13.57618,-1.99195 7.10895,-0.87434 14.95036,-2.03218 17.42536,-2.57297 4.02195,-0.87879 22.69578,-3.12359 50,-6.01053 9.25355,-0.9784 32.04101,-2.80413 64.5,-5.16772 20.72546,-1.50918 146.17943,-1.46793 163.5,0.0538 6.875,0.604 22.175,1.79427 34,2.64504 11.825,0.85076 25.325,1.97963 30,2.50858 4.675,0.52895 16.825,1.85931 27,2.95637 10.175,1.09705 21.2,2.47105 24.5,3.05333 3.3,0.58228 12.3,1.92891 20,2.99252 19.7241,2.7245 40.7728,5.96852 42.253,6.51204 0.6891,0.25305 5.4141,1.1624 10.5,2.02079 17.6117,2.97249 64.8046,13.43379 83.247,18.45344 27.162,7.39297 37.6673,10.48817 54.5,16.05758 11.9027,3.93823 32.7699,11.39193 41.5,14.82371 l 5,1.96548 -0.074,26.34979 c -0.064,22.84936 -1.2483,120.41375 -4.0179,331.09979 L 1218.6882,613 H 751.34412 284 Z M 757.2225,576.81026 c 7.45088,-2.22247 9.94685,-7.44117 5.5275,-11.55721 -1.2375,-1.15256 -6.39557,-3.91467 -11.46237,-6.13801 -20.6857,-9.07701 -22.31332,-11.46419 -24.25452,-35.57337 -0.81745,-10.15264 -2.25204,-17.62244 -6.62579,-34.5 -10.57222,-40.79648 -10.4568,-40.27713 -9.26942,-41.70782 0.73231,-0.88239 3.5194,-1.33574 8.23454,-1.33943 9.8953,-0.008 13.14463,-1.14631 22.45097,-7.86689 9.81776,-7.08991 13.77374,-8.93342 15.48222,-7.21482 1.8077,1.8184 1.20127,12.54187 -1.74864,30.92131 -3.67728,22.91138 -4.0968,32.23062 -2.12326,47.16598 5.12531,38.78721 14.29618,51.44793 43.78105,60.44137 9.71703,2.96388 24.92499,6.04924 34.88973,7.07837 C 842.5412,577.59761 847,574.26987 847,565.40278 c 0,-4.42904 -2.3018,-9.96165 -4.66534,-11.21361 -1.00906,-0.53449 -5.65966,-1.7456 -10.33466,-2.69135 -15.34306,-3.1039 -17.56659,-5.44997 -17.29038,-18.24327 0.32029,-14.83545 6.24658,-39.76696 10.67705,-44.91769 l 2.31502,-2.69138 6.96401,6.54055 c 3.8302,3.5973 8.73482,7.69309 10.89915,9.10176 2.16433,1.40867 14.73515,6.5861 27.93515,11.5054 35.9721,13.40588 42.5,16.81823 42.5,22.21613 0,1.15513 -1.84147,5.11308 -4.09215,8.79545 l -4.09215,6.69523 0.58176,8.75725 c 0.65646,9.88172 2.39343,15.02529 5.66535,16.77636 6.18922,3.31237 23.90836,-7.48321 30.36461,-18.49998 C 950.44166,547.27111 956,524.45401 956,510.02794 c 0,-15.28737 -3.62679,-21.34562 -22,-36.7492 -14.22853,-11.92879 -17.43985,-15.43966 -19.52307,-21.34413 -1.90004,-5.38528 -1.86275,-17.50242 0.0813,-26.43461 0.83796,-3.85 2.40817,-11.725 3.48936,-17.5 1.08119,-5.775 2.67858,-12.65147 3.54976,-15.28104 4.37973,-13.21988 14.38448,-17.31248 44.9026,-18.36816 18.48463,-0.63941 29.7661,0.11259 64.76355,4.31698 29.0941,3.49521 31.5052,3.19224 50.641,-6.36334 16.109,-8.04406 19.0955,-10.3247 19.0955,-14.58197 0,-2.60635 -1.4035,-4.41684 -8.8176,-11.37437 -8.8658,-8.31985 -22.7596,-23.65961 -28.5027,-31.46899 -2.6969,-3.66724 -3.0598,-4.91792 -2.8642,-9.87062 0.287,-7.26772 0.5371,-6.88992 -27.8076,-42.00849 -8.0627,-9.98947 -10.3876,-13.60463 -11.5753,-18 -3.2165,-11.90284 -5.7605,-13.24783 -15.028,-7.94546 -8.54253,4.88756 -14.34659,4.972 -33.90465,0.49329 -32.70121,-7.48843 -34.46233,-7.77958 -43.00756,-7.11015 -12.10785,0.94853 -14.94924,-0.42657 -34.02886,-16.4683 -12.89907,-10.84526 -16.48094,-12.42485 -27.98594,-12.34169 -8.16081,0.059 -10.50034,0.56647 -24.5,5.31439 -10.84362,3.67756 -16.08769,5.96904 -17.5152,7.65355 -2.50671,2.95797 -6.95278,3.08177 -31.96244,0.88997 -21.42308,-1.87749 -112.80779,-11.18895 -121.5,-12.38001 -5.16432,-0.70765 -9.81455,-0.40139 -22.63,1.49038 -36.00729,5.31526 -47.19464,9.32062 -72.73907,26.04252 -25.58894,16.75103 -37.22613,27.5137 -44.57668,41.22679 -4.45882,8.31832 -7.65252,12.34649 -24.78329,31.25892 -16.04265,17.71115 -20.37639,27.19003 -25.31779,55.3758 -5.50718,31.41298 -8.62507,40.87629 -26.60397,80.74739 -5.27084,11.68893 -12.39652,27.55261 -15.83484,35.25261 -3.43831,7.7 -8.37121,18.5 -10.96198,24 -6.10503,12.96046 -7.23165,18.49134 -5.61235,27.55239 2.08108,11.64506 15.27625,35.59461 20.83302,37.81246 8.09696,3.2317 35.01321,5.07367 48.55136,3.32253 11.93945,-1.54435 14.47854,-5.46425 9.00618,-13.90388 -3.23598,-4.99063 -5.81841,-6.27877 -12.62764,-6.29881 -6.0982,-0.018 -6.82445,-0.42644 -8.35217,-4.69782 -1.02571,-2.86782 -0.85185,-3.68204 1.61783,-7.57632 2.96721,-4.6788 23.99739,-25.98727 57.45035,-58.21055 11.41977,-11 23.2611,-23.31382 26.31407,-27.36405 l 5.55086,-7.36406 4.29971,0.48464 c 5.79054,0.65268 13.99815,6.68887 28.05312,20.63136 14.82656,14.7079 21.99057,25.704 38.65492,59.33177 22.25,44.89932 26.5985,49.87884 44.74781,51.24128 4.6533,0.34931 13.42648,1.30658 19.49594,2.12725 25.10278,3.39423 42.03618,3.80249 50.68711,1.22207 z"
       id="path28" />
    <path
       style="fill:#000000"
       d="m 746.5,1412.3191 c -40.33262,-9.0517 -62.49618,-16.485 -92.5,-31.0232 -61.1215,-29.616 -124.18829,-72.7999 -176.49892,-120.8546 -32.04111,-29.4342 -73.79887,-74.1114 -93.0354,-99.5397 -27.73724,-36.6652 -40.38968,-54.895 -55.39081,-79.808 -5.55693,-9.2287 -24.33341,-42.9459 -28.92857,-51.9476 -3.14059,-6.1523 -18.10979,-38.94182 -19.69716,-43.146 -0.72682,-1.925 -2.74193,-6.875 -4.47803,-11 -3.28499,-7.80519 -4.95433,-12.44198 -11.7007,-32.5 -7.82984,-23.27935 -10.28259,-31.95819 -14.80703,-52.39336 -1.3874,-6.26635 -2.72884,-11.72715 -2.98098,-12.13512 -0.68356,-1.10602 -5.40376,-29.79565 -7.06995,-42.97152 -2.43085,-19.22263 -4.15884,-109.01719 -6.32161,-328.5 -0.58532,-59.4 -1.51936,-123.525 -2.07565,-142.5 -0.55629,-18.975 -1.28042,-62.69893 -1.60919,-97.1643 -0.65958,-69.14647 -0.66762,-69.03309 5.49944,-77.54646 4.44115,-6.13084 8.52062,-8.77999 25.81121,-16.76145 42.58369,-19.65694 90.01682,-36.81765 144.78335,-52.38079 9.95177,-2.82802 50.67081,-12.89675 59,-14.58913 18.63581,-3.78654 27.58475,-5.632819 34,-7.014649 3.85,-0.82928 11.725,-2.222118 17.5,-3.095195 5.775,-0.873078 12.075,-1.98459 14,-2.470027 1.925,-0.485437 9.125,-1.585358 16,-2.444269 6.875,-0.85891 14.525,-2.003561 17,-2.543668 2.475,-0.540106 13.05,-1.928425 23.5,-3.085151 35.25404,-3.902323 31.55816,-3.572027 91.5,-8.17726 18.86541,-1.449398 164.97907,-1.425584 181.5,0.02958 6.6,0.581329 22.0036,1.784938 34.23021,2.674688 12.22662,0.889749 25.72662,2.011313 30,2.492363 4.27339,0.48105 16.54479,1.809673 27.26979,2.952497 10.725,1.142823 20.85,2.346512 22.5,2.674865 1.65,0.328352 10.65,1.670712 20,2.983021 31.0416,4.356808 58.4069,9.194059 87,15.378605 27.114,5.86462 32.1282,7.02153 46,10.61338 7.7,1.99377 16.7,4.28192 20,5.08477 3.3,0.80286 8.7,2.3104 12,3.35009 3.3,1.0397 10.05,3.09509 15,4.56755 36.0327,10.71849 79.9306,27.37828 88.5026,33.58776 5.1798,3.75226 9.5937,10.66799 11.0167,17.26097 0.7401,3.42908 0.9785,17.84825 0.7213,43.62221 -0.4405,44.14886 -3.2494,262.05222 -4.7888,371.5 -0.5724,40.7 -1.4572,107.075 -1.9662,147.5 -0.6433,51.08922 -1.3728,77.92118 -2.3926,88 -1.9111,18.88762 -5.3198,43.05626 -7.0518,50 -0.7546,3.025 -1.6663,7.525 -2.0261,10 -0.3597,2.475 -2.0055,10.125 -3.6572,17 -17.4005,72.42793 -46.8629,139.2069 -90.2237,204.5 -15.6519,23.5688 -40.7829,56.2351 -59.6729,77.5653 -24.8111,28.0162 -66.8545,68.0457 -96.4613,91.8407 -35.47762,28.5133 -64.45244,48.3553 -105.74951,72.4172 -7.83777,4.5667 -16.05049,9.2229 -18.25049,10.3471 -2.2,1.1242 -8.275,4.296 -13.5,7.0485 -10.9124,5.7485 -52.6336,25.0096 -64.5,29.7773 -11.28932,4.5358 -22.85447,8.2611 -31.00854,9.9882 -6.51246,1.3795 -21.42969,1.8586 -25.99146,0.8348 z m 34,-18.3389 c 13.76307,-4.4465 25.42093,-9.2233 44.5,-18.234 5.225,-2.4677 11.75,-5.4897 14.5,-6.7155 12.83315,-5.7206 35.90113,-17.7276 51.5,-26.806 66.57023,-38.7433 121.1177,-80.9627 173.5867,-134.355 45.2072,-46.0027 82.9262,-96.0904 112.4343,-149.3035 9.0549,-16.3291 19.8758,-37.8123 24.9661,-49.5662 1.7864,-4.125 4.0951,-9.38781 5.1305,-11.69514 1.0353,-2.30732 1.8824,-4.44973 1.8824,-4.76089 0,-0.31117 0.8876,-2.47336 1.9724,-4.80487 2.1488,-4.61809 9.285,-24.38108 14.5298,-40.2391 5.776,-17.46377 12.6027,-43.79543 15.037,-58 0.8484,-4.95 1.9667,-10.35 2.4852,-12 1.1777,-3.7475 4.7129,-29.45483 6.6008,-48 0.9696,-9.52413 1.7227,-37.49832 2.3555,-87.5 0.5117,-40.425 1.3987,-106.8 1.9711,-147.5 3.9289,-279.33809 5.3382,-406.885 4.544,-411.26475 -0.9608,-5.29889 -6.0969,-9.41527 -17.5911,-14.09844 -5.7226,-2.33162 -11.3047,-4.66256 -12.4047,-5.17987 -2.6903,-1.26518 -25.2868,-9.243 -39.5,-13.94571 -57.4425,-19.00589 -125.8204,-34.46053 -197,-44.52558 -9.625,-1.36101 -18.625,-2.71092 -20,-2.9998 -1.375,-0.28889 -11.275,-1.46162 -22,-2.606088 -10.725,-1.144463 -22.9964,-2.474428 -27.26979,-2.955478 -4.27338,-0.48105 -17.77338,-1.602614 -30,-2.492363 C 880.5036,93.542171 865.1,92.339015 858.5,91.75824 841.99341,90.305724 697.84081,90.281703 679,91.72833 c -44.4577,3.413531 -56.30545,4.372592 -64,5.18072 -29.04616,3.050605 -47.01377,5.20579 -50.5,6.05738 -2.2,0.53741 -10.075,1.71189 -17.5,2.60997 -7.425,0.89807 -13.83904,1.83829 -14.25342,2.08937 -0.41439,0.25107 -7.38939,1.55299 -15.5,2.89314 -20.53381,3.39289 -54.25089,10.16154 -64.24658,12.89739 -3.025,0.82796 -12.25,3.13029 -20.5,5.11629 -20.54544,4.94586 -32.62203,8.38946 -62,17.67912 -16.36937,5.17619 -46.61737,15.74769 -52,18.17369 -1.65,0.74368 -4.125,1.67724 -5.5,2.0746 -1.375,0.39736 -3.85,1.31718 -5.5,2.04405 -1.65,0.72688 -7.05,2.9682 -12,4.98072 -4.95,2.01252 -11.37584,4.74275 -14.27964,6.06718 -2.90379,1.32443 -5.48809,2.40805 -5.74287,2.40805 -0.25478,0 -6.07453,2.70785 -12.93277,6.01743 -9.44976,4.56018 -13.14461,6.90421 -15.25713,9.6792 L 244.5,201.35839 v 33.07081 c 0,18.18894 0.27446,51.2958 0.60991,73.5708 0.33545,22.275 1.34567,97.2 2.24493,166.5 3.86586,297.91455 4.71936,341.23367 7.08313,359.5 3.663,28.30632 11.2576,64.49627 18.04742,86 4.59104,14.54008 8.72778,26.78466 9.96635,29.5 0.75263,1.65 1.90288,5.025 2.55611,7.5 0.65323,2.475 1.52992,4.95 1.9482,5.5 0.41828,0.55 1.46738,3.025 2.33134,5.5 6.32575,18.12154 22.11705,51.3737 37.99163,80 20.6551,37.2469 34.56429,58.1351 69.18666,103.9016 19.01507,25.1356 58.82833,67.8167 90.05297,96.5397 50.79747,46.7278 113.50253,89.9784 170.98135,117.9338 6.6,3.21 13.575,6.6371 15.5,7.6159 1.925,0.9787 4.625,2.1089 6,2.5116 1.375,0.4026 4.85052,1.7927 7.72337,3.089 2.87286,1.2963 6.47286,2.6556 8,3.0206 1.52715,0.3649 3.22663,0.9904 3.77663,1.3899 1.42552,1.0354 19.82464,6.2721 34.5,9.8192 6.875,1.6618 13.4,3.2592 14.5,3.5499 1.1,0.2907 6.725,0.3736 12.5,0.1842 8.47083,-0.2779 12.43254,-0.9688 20.5,-3.5752 z m -40.38304,-24.5675 c -26.4164,-6.5168 -43.39391,-12.7075 -70.09149,-25.5583 -86.99454,-41.8746 -173.88078,-111.4618 -242.13495,-193.9259 -5.20253,-6.2857 -10.34371,-12.5978 -11.42484,-14.0269 -20.44945,-27.0316 -33.6292,-45.4521 -42.14374,-58.9016 -29.20277,-46.1284 -49.09606,-85.27341 -64.0325,-126 -9.60501,-26.18958 -11.83107,-33.12198 -18.7849,-58.5 -4.40855,-16.089 -8.92894,-39.98022 -12.10927,-64 -2.40441,-18.15963 -4.12116,-107.30873 -6.31631,-328 -0.58537,-58.85 -1.5153,-124.1 -2.06652,-145 -0.55122,-20.9 -1.22885,-61.42316 -1.50583,-90.05146 l -0.50362,-52.05146 4.7485,-2.33954 c 7.95916,-3.92141 29.09223,-12.97744 41.24851,-17.676 6.325,-2.44469 12.625,-4.92712 14,-5.51651 9.35898,-4.01172 56.67974,-20.02408 70,-23.68656 1.925,-0.52928 8.225,-2.34638 14,-4.038 29.25402,-8.56907 85.30611,-21.07061 114.92382,-25.63195 5.7331,-0.88293 10.71669,-1.78634 11.07464,-2.00757 0.35795,-0.22123 6.46724,-1.1176 13.57618,-1.99195 7.10895,-0.87434 14.95036,-2.03218 17.42536,-2.57297 4.02195,-0.87879 22.69578,-3.12359 50,-6.01053 9.22249,-0.97512 31.68704,-2.77581 64.5,-5.17014 20.82678,-1.5197 152.126,-1.47905 169.5,0.0525 6.875,0.60604 22.175,1.79797 34,2.64874 11.825,0.85076 25.325,1.97963 30,2.50858 4.675,0.52895 16.825,1.85931 27,2.95637 10.175,1.09705 21.2,2.47105 24.5,3.05333 3.3,0.58228 12.3,1.92891 20,2.99252 19.7241,2.7245 40.7728,5.96852 42.253,6.51204 0.6891,0.25305 5.4141,1.1624 10.5,2.02079 17.6117,2.97249 64.8046,13.43379 83.247,18.45344 16.1664,4.40019 26.4988,7.30668 34.5,9.70489 18.6071,5.57712 47.1397,15.47794 65,22.55502 l 8.5,3.36809 -0.07,31.45918 c -0.065,29.52633 -2.1233,197.00127 -4.4786,364.45917 -0.5724,40.7 -1.4536,107.075 -1.9582,147.5 -0.922,73.8648 -1.3223,82.18602 -5.461,113.5 -2.5098,18.98949 -8.7681,49.48665 -13.7489,67 -28.5774,100.48218 -81.0206,189.46428 -159.3824,270.42948 -58.44457,60.3862 -132.53026,114.9079 -203.9013,150.0566 -36.40274,17.9276 -51.03599,24.4227 -68.82384,30.5483 -14.51801,4.9995 -18.45905,5.0969 -35.5592,0.8783 z M 748,999.5 V 638 H 516.3784 284.7568 l 0.59198,49.75 c 0.87644,73.65502 2.39225,125.25611 4.04649,137.75 3.18033,24.01978 7.70072,47.911 12.10927,64 6.95383,25.37802 9.17989,32.31042 18.7849,58.5 14.74828,40.21352 33.08057,76.2678 62.0325,122 8.51454,13.4495 21.69429,31.87 42.14374,58.9016 18.31979,24.2165 56.03219,64.7752 85.35267,91.7947 49.53283,45.6455 110.57632,87.9144 164.20232,113.7001 23.12419,11.1191 40.34756,17.5677 62.79035,23.5094 5.87894,1.5565 10.80148,2.8894 10.93898,2.9621 0.1375,0.073 0.25,-162.5429 0.25,-361.3679 z m 39.86861,353.5317 c 7.06468,-2.7814 31.63974,-14.2305 51.63139,-24.0542 34.23642,-16.8233 77.03524,-43.4906 112,-69.7854 l 13,-9.7764 0.2544,-109.7079 C 965.00057,1033.5525 964.94892,1030 963.15939,1030 c -1.01718,0 -2.65269,-0.8876 -3.63448,-1.9725 -1.49625,-1.6533 -1.70994,-3.2703 -1.32073,-9.9936 0.43961,-7.5939 0.33749,-8.1042 -1.91766,-9.5818 -6.20748,-4.0673 -8.31975,-15.04115 -4.38187,-22.76507 1.04755,-2.05472 2.22677,-6.53737 2.62048,-9.96144 0.88214,-7.67188 3.7846,-14.09789 7.59229,-16.8092 3.3498,-2.38527 4.05664,-6.91639 1.07892,-6.91639 -3.5195,0 -12.1059,-5.1176 -14.15837,-8.43856 -2.42764,-3.92801 -2.74862,-12.30046 -0.62725,-16.3611 1.89416,-3.6257 6.45575,-7.83374 9.90438,-9.13672 3.50916,-1.32586 12.88517,-1.33822 18.1849,-0.024 11.78728,2.92304 31.0642,0.2279 43.6435,-6.10186 9.1495,-4.60388 25.6897,-16.93563 32.5458,-24.26478 17.7081,-18.93001 24.6338,-51.91544 16.6857,-79.46959 -13.3377,-46.23825 -60.1981,-72.0477 -110.17412,-60.68091 -17.40553,3.95881 -36.16591,24.25247 -43.42811,46.9775 -1.19967,3.75401 -2.12711,10.35512 -2.4776,17.63442 -0.48383,10.04854 -0.27169,12.57025 1.55632,18.5 5.00589,16.23819 16.44534,29.02028 31.14851,34.80438 9.1072,3.58269 18.58635,1.40681 24.50277,-5.62446 l 2.75435,-3.27336 -6.3671,-1.28869 c -6.54278,-1.32424 -11.37497,-4.34244 -15.2396,-9.5187 -2.84342,-3.80845 -3.37323,-12.55242 -1.11833,-18.45678 1.30923,-3.42817 1.46599,-4.77745 0.58902,-5.06977 -5.4334,-1.81114 -11.03075,-10.65085 -11.76788,-18.58464 -0.93994,-10.11668 5.45045,-16.17493 18.41371,-17.45667 L 964.5,785.5 l 0.65047,-5.3296 C 966.27244,770.97752 971.7283,767 983.21594,767 c 11.80514,0 18.03266,4.85519 19.39446,15.12049 L 1003.2577,787 h 6.911 c 7.2334,0 12.6364,1.91297 16.0432,5.68019 4.2781,4.73084 6.0001,13.96954 3.7286,20.00471 -0.5828,1.54831 -2.7046,4.50821 -4.7152,6.57756 -3.6442,3.75081 -3.6556,3.79 -3.6904,12.66344 -0.032,8.24452 -0.2571,9.2208 -3.0483,13.23754 -4.1857,6.02372 -10.4213,9.12766 -17.0705,8.49731 l -5.08383,-0.48195 -1.21628,4.74569 c -1.59602,6.22734 -8.06265,16.01012 -13.92819,21.0707 -10.21165,8.81024 -21.89634,12.60099 -36.1878,11.74003 -14.12215,-0.85076 -26.69722,-6.97228 -40.12378,-19.53216 l -6.50081,-6.08119 -6.29887,3.49113 c -4.89907,2.7153 -7.21864,3.424 -10.4377,3.18907 -3.67754,-0.2684 -4.17396,-0.60704 -4.45393,-3.0383 -0.1733,-1.50492 0.92422,-6.22992 2.43894,-10.5 2.70869,-7.6359 2.75602,-8.17552 2.87401,-32.76377 0.066,-13.75 0.49033,-28.84624 0.94299,-33.54719 l 0.82303,-8.5472 -8.09971,-3.65029 c -6.39596,-2.88246 -8.23434,-4.18674 -8.73978,-6.20057 -1.01364,-4.03863 -0.01,-5.10549 6.08825,-6.47017 6.8652,-1.53636 17.0974,-6.71422 23.39286,-11.83761 2.52697,-2.05652 9.29955,-8.1616 15.05017,-13.56685 5.75062,-5.40526 13.28812,-11.68997 16.75,-13.96602 3.46188,-2.27606 6.29433,-4.5621 6.29433,-5.08009 0,-0.518 -1.60275,-3.80779 -3.56166,-7.31066 -2.48599,-4.44535 -3.46754,-7.34352 -3.25,-9.5961 0.27682,-2.86648 0.69224,-3.26357 3.71609,-3.55213 2.26164,-0.21582 5.01665,0.5526 8.20729,2.28917 11.8839,6.46803 20.46072,8.17206 47.88828,9.51437 11.275,0.55181 25.9757,1.54301 32.6682,2.20268 13.616,1.34212 14.3374,1.13426 16.8385,-4.85173 1.1356,-2.71774 1.9394,-3.32961 4.3742,-3.32961 3.4855,0 5.6799,2.63579 9.1577,11 3.0283,7.28324 5.4486,10.45199 17.9489,23.5 5.7961,6.05 13.7824,14.59093 17.7473,18.97985 l 7.209,7.97984 3.2781,-1.36925 c 1.803,-0.75309 4.6168,-1.41902 6.2531,-1.47985 4.0054,-0.14889 4.2682,1.86698 1.4003,10.7407 -1.7481,5.40868 -2.3114,9.46106 -2.3144,16.64871 -0.01,12.56608 1.4441,51.89709 2.017,54.73181 0.5305,2.62481 5.1329,5.26819 9.1724,5.26819 3.259,0 5.2497,1.59023 5.2497,4.19357 0,0.98646 -3.0488,4.83396 -6.775,8.55 -3.7263,3.71604 -11.0099,13.05643 -16.1858,20.75643 -5.176,7.7 -11.9649,17.15 -15.0865,21 -16.747,20.65473 -38.1145,34.79806 -63.1951,41.82942 -9.0184,2.5283 -9.2667,3.11 -4.5599,10.68171 4.3279,6.96214 9.9517,23.17304 10.5231,30.33327 0.6535,8.18989 -0.295,11.9977 -3.9443,15.834 -2.953,3.1042 -3.1445,3.747 -2.9267,9.8216 0.182,5.076 -0.211,7.212 -1.7937,9.75 -1.1147,1.7875 -2.7083,3.25 -3.5414,3.25 -1.3417,0 -1.5147,10.2885 -1.5147,90.0931 v 90.0931 l 4.8966,-4.0996 c 7.757,-6.4945 40.361,-40.3241 52.609,-54.5866 64.7218,-75.3667 105.3074,-149.1995 130.2781,-237 4.9808,-17.51335 11.2391,-48.01051 13.7489,-67 4.1399,-31.32354 4.5076,-39.38209 5.4746,-120 0.5278,-44 1.2507,-82.1375 1.6063,-84.75 l 0.6466,-4.75 H 994.13005 769 v 360.94043 360.94047 l 6.75,-2.3678 c 3.7125,-1.3022 9.16588,-3.3189 12.11861,-4.4814 z m 196.2163,-119.6865 c 5.8217,-4.8649 13.3592,-11.3633 16.74999,-14.441 l 6.1651,-5.5958 0.01,-92.4042 0.01,-92.4042 2.9332,-1.6687 c 3.5996,-2.048 4.7246,-6.7812 3.311,-13.9306 -0.9586,-4.8478 -0.9092,-5.0291 1.7435,-6.4009 4.004,-2.0705 6.2741,-7.57206 5.7088,-13.83549 -0.6049,-6.70197 -6.4187,-23.06939 -10.5617,-29.7341 -2.5126,-4.04188 -3.18,-6.12363 -2.9477,-9.19407 l 0.3003,-3.96915 8.4314,-2.42854 c 25.1168,-7.2345 45.7133,-20.7868 62.0376,-40.82004 3.1455,-3.86013 9.9492,-13.31841 15.1194,-21.01841 5.1702,-7.7 12.3796,-17.02328 16.0209,-20.71839 3.6413,-3.69512 6.3814,-6.95762 6.089,-7.25 -0.2924,-0.29239 -1.9191,-0.53329 -3.615,-0.53535 -4.0461,-0.005 -9.409,-3.3404 -9.993,-6.21524 -0.6403,-3.15152 -2.0517,-42.76066 -2.0233,-56.78102 0.021,-10.56659 1.0231,-16.38454 4.1037,-23.8331 0.4189,-1.0129 -0.1839,-0.95285 -2.51,0.25 -1.6838,0.87071 -4.5788,1.5831 -6.4335,1.5831 -2.8791,0 -4.1816,-0.91373 -8.9094,-6.25 -3.0456,-3.4375 -11.7332,-12.775 -19.3058,-20.75 -12.1691,-12.81576 -14.3052,-15.59486 -18.3902,-23.92585 -2.542,-5.18421 -5.1461,-9.59648 -5.7869,-9.80504 -0.6409,-0.20856 -1.4816,0.65807 -1.8683,1.92584 -0.9252,3.03308 -3.4368,5.83195 -6.1723,6.8782 -1.3022,0.4981 -6.8315,0.27093 -13.5,-0.55465 -6.2118,-0.76905 -21.28807,-1.88714 -33.50269,-2.48465 -28.8314,-1.41035 -37.57468,-3.10869 -49.06479,-9.53064 C 933.57701,704.90438 931,704.3394 931,705.91882 c 0,0.50535 1.86611,4.50854 4.1469,8.89599 2.2808,4.38744 3.89256,8.63997 3.5817,9.45007 -0.31087,0.8101 -3.63947,3.51846 -7.39691,6.01858 -3.75743,2.50012 -11.64433,9.03362 -17.52644,14.51889 -18.48293,17.23594 -24.36192,21.22217 -36.43452,24.70426 -4.54143,1.30988 -6.98428,2.4866 -6.55501,3.15755 0.37635,0.58824 4.10928,2.64629 8.29539,4.57344 4.18611,1.92716 7.84594,3.89958 8.13295,4.38316 0.28701,0.48358 -0.0965,7.62924 -0.85214,15.87924 -0.7665,8.36801 -1.26831,23.84266 -1.13496,35 0.23426,19.6007 0.18431,20.14974 -2.50199,27.5 -1.50756,4.125 -2.74416,7.8375 -2.748,8.25 -0.0158,1.69584 4.3028,0.54188 10.29165,-2.75 3.50211,-1.925 7.17276,-3.5 8.15699,-3.5 0.98424,0 4.7442,2.76395 8.35547,6.14212 16.69741,15.61961 34.36408,22.24938 50.4084,18.91677 16.30373,-3.3865 31.23728,-16.9272 34.94822,-31.68862 0.6734,-2.67865 1.47365,-5.17998 1.77833,-5.55851 0.30468,-0.37853 2.668,-0.23459 5.25182,0.31986 12.35585,2.65141 22.95735,-10.81623 18.60255,-23.63162 l -1.3593,-4 4.7127,-4.28262 c 2.5921,-2.35562 5.2372,-5.87213 5.8785,-7.81518 2.2965,-6.95857 -1.2357,-14.93485 -8.1835,-18.47933 -3.5563,-1.81431 -5.4504,-2.08713 -11.8984,-1.71386 l -7.66877,0.44394 0.074,-5.11635 C 999.4973,775.73233 993.43088,770 982.91348,770 c -9.4968,0 -15.25124,5.3877 -14.68621,13.75023 0.31919,4.72401 0.93129,4.39243 -10.48047,5.67724 -10.41601,1.1727 -16.64059,7.29128 -15.20462,14.94569 1.44153,7.684 8.60001,15.62684 14.08368,15.62684 h 2.33009 l -2.96578,4.67656 c -5.69107,8.97387 -4.96952,16.61738 2.14342,22.70579 3.91149,3.3481 12.01671,6.13364 15.08159,5.18315 0.70665,-0.21915 2.53782,-0.6735 4.06928,-1.00968 l 2.78445,-0.61122 -2.04059,3.9999 c -7.79588,15.28118 -21.23492,19.45352 -37.61063,11.67672 -13.43279,-6.3792 -24.56556,-19.8565 -28.95151,-35.0486 -2.45556,-8.50561 -1.61541,-30.36645 1.52002,-39.55104 4.70606,-13.78539 12.19206,-25.3953 22.23467,-34.48334 12.39916,-11.22059 18.2915,-13.58616 38.68041,-15.52883 45.60772,-4.34555 86.33392,22.26401 98.53962,64.3835 4.3435,14.98839 4.3677,35.07525 0.063,52.11025 -2.6503,10.48746 -9.9389,23.86059 -17.1988,31.55655 -7.3653,7.8076 -23.7501,20.14304 -32.8049,24.6975 -12.233,6.15301 -28.34944,8.96644 -41,7.15729 -16.352,-2.3385 -19.7179,-2.30089 -23.4762,0.2623 -7.38544,5.03692 -9.9493,12.755 -6.29313,18.94441 1.86899,3.16395 10.22636,7.87879 13.96567,7.87879 2.11425,0 2.30366,0.43448 2.30366,5.28439 0,4.77617 -0.2802,5.44991 -2.9134,7.00538 -3.82037,2.25675 -6.80503,8.68738 -7.66471,16.51409 -0.38082,3.46713 -1.53154,7.94978 -2.55715,9.96145 -3.65585,7.17073 -1.1076,16.18439 5.25439,18.58579 2.53939,0.9585 2.92713,1.5386 2.43576,3.6444 -0.32141,1.3775 -0.86452,5.084 -1.20691,8.2366 -0.70141,6.4586 0.42439,8.7679 4.27446,8.7679 h 2.37756 v 109.5681 109.5681 l 2.75,-1.9729 c 1.5125,-1.0851 7.51321,-5.9532 13.33491,-10.8181 z M 1219.4079,558.25 c 2.7696,-210.68604 3.9535,-308.25043 4.0179,-331.09979 l 0.074,-26.34979 -5,-1.96548 c -8.7301,-3.43178 -29.5973,-10.88548 -41.5,-14.82371 -16.8327,-5.56941 -27.338,-8.66461 -54.5,-16.05758 -18.4424,-5.01965 -65.6353,-15.48095 -83.247,-18.45344 -5.0859,-0.85839 -9.8109,-1.76774 -10.5,-2.02079 -1.4802,-0.54352 -22.5289,-3.78754 -42.253,-6.51204 -7.7,-1.06361 -16.7,-2.41024 -20,-2.99252 -3.3,-0.58228 -14.325,-1.95628 -24.5,-3.05333 -10.175,-1.09706 -22.325,-2.42742 -27,-2.95637 -4.675,-0.52895 -18.175,-1.65782 -30,-2.50858 -11.825,-0.85077 -27.125,-2.04104 -34,-2.64504 -17.32057,-1.52169 -142.77454,-1.56294 -163.5,-0.0538 -32.45899,2.36359 -55.24645,4.18932 -64.5,5.16772 -27.30422,2.88694 -45.97805,5.13174 -50,6.01053 -2.475,0.54079 -10.31641,1.69863 -17.42536,2.57297 -7.10894,0.87435 -13.21823,1.77072 -13.57618,1.99195 -0.35795,0.22123 -5.34154,1.12464 -11.07464,2.00757 -29.61771,4.56134 -85.6698,17.06288 -114.92382,25.63195 -5.775,1.69162 -12.075,3.50872 -14,4.038 -13.32026,3.66248 -60.64102,19.67484 -70,23.68656 -1.375,0.58939 -7.675,3.07182 -14,5.51651 -13.70138,5.29576 -37.20177,15.4032 -38.14687,16.40684 -0.36856,0.39139 -0.28151,29.28662 0.19344,64.21162 1.82876,134.47664 3.84912,296.22969 3.90011,312.25 L 284,613 h 467.34412 467.34408 z m -491.87251,19.71113 c -5.48053,-0.48444 -14.93053,-1.55227 -21,-2.37294 -6.06946,-0.82067 -14.84264,-1.77794 -19.49594,-2.12725 -18.14931,-1.36244 -22.49781,-6.34196 -44.74781,-51.24128 -16.66435,-33.62777 -23.82836,-44.62387 -38.65492,-59.33177 -14.05497,-13.94249 -22.26258,-19.97868 -28.05312,-20.63136 l -4.29971,-0.48464 -5.55086,7.36406 c -3.05297,4.05023 -14.8943,16.36405 -26.31407,27.36405 -33.45296,32.22328 -54.48314,53.53175 -57.45035,58.21055 -2.46968,3.89428 -2.64354,4.7085 -1.61783,7.57632 1.52772,4.27138 2.25397,4.67987 8.35217,4.69782 6.80923,0.02 9.39166,1.30818 12.62764,6.29881 3.15072,4.85913 3.40942,8.73683 0.74382,11.14916 -5.27693,4.77556 -45.90506,4.37987 -58.30136,-0.56781 -5.55677,-2.21785 -18.75194,-26.1674 -20.83302,-37.81246 -1.6193,-9.06105 -0.49268,-14.59193 5.61235,-27.55239 2.59077,-5.5 7.52367,-16.3 10.96198,-24 3.43832,-7.7 10.564,-23.56368 15.83484,-35.25261 17.9789,-39.8711 21.09679,-49.33441 26.60397,-80.74739 4.9414,-28.18577 9.27514,-37.66465 25.31779,-55.3758 17.13077,-18.91243 20.32447,-22.9406 24.78329,-31.25892 7.35055,-13.71309 18.98774,-24.47576 44.57668,-41.22679 25.54443,-16.7219 36.73178,-20.72726 72.73907,-26.04252 12.81545,-1.89177 17.46568,-2.19803 22.63,-1.49038 8.69221,1.19106 100.07692,10.50252 121.5,12.38001 25.00966,2.1918 29.45573,2.068 31.96244,-0.88997 1.42751,-1.68451 6.67158,-3.97599 17.5152,-7.65355 13.99966,-4.74792 16.33919,-5.2554 24.5,-5.31439 11.505,-0.0832 15.08687,1.49643 27.98594,12.34169 19.07962,16.04173 21.92101,17.41683 34.02886,16.4683 8.54523,-0.66943 10.30635,-0.37828 43.00756,7.11015 19.55806,4.47871 25.36212,4.39427 33.9047,-0.49329 9.2675,-5.30237 11.8115,-3.95738 15.028,7.94546 1.1877,4.39537 3.5125,8.01053 11.5752,18 28.3447,35.11857 28.0946,34.74077 27.8076,42.00849 -0.1956,4.9527 0.1673,6.20338 2.8642,9.87062 5.7431,7.80938 19.6369,23.14914 28.5027,31.46899 13.5963,12.75909 12.9668,14.34903 -10.2779,25.95634 -19.1358,9.55558 -21.5469,9.85855 -50.641,6.36334 -34.9974,-4.20439 -46.27887,-4.95639 -64.7635,-4.31698 -30.51812,1.05568 -40.52287,5.14828 -44.9026,18.36816 -0.87118,2.62957 -2.46857,9.50604 -3.54976,15.28104 -1.08119,5.775 -2.6514,13.65 -3.48936,17.5 -1.9441,8.93219 -1.98139,21.04933 -0.0813,26.43461 2.08322,5.90447 5.29454,9.41534 19.52307,21.34413 18.37321,15.40358 22,21.46183 22,36.7492 0,14.42607 -5.55834,37.24317 -11.57258,47.50569 -6.45625,11.01677 -24.17539,21.81235 -30.36461,18.49998 -3.27192,-1.75107 -5.00889,-6.89464 -5.66535,-16.77636 L 907.8157,550.5 l 4.09215,-6.69523 C 914.15853,540.1224 916,536.16445 916,535.00932 c 0,-5.3979 -6.5279,-8.81025 -42.5,-22.21613 -13.2,-4.9193 -25.77082,-10.09673 -27.93515,-11.5054 -2.16433,-1.40867 -7.06895,-5.50446 -10.89915,-9.10176 l -6.96401,-6.54055 -2.31502,2.69138 c -4.43047,5.15073 -10.35676,30.08224 -10.67705,44.91769 -0.27621,12.7933 1.94732,15.13937 17.29038,18.24327 10.50006,2.12416 11.81044,2.80426 13.58466,7.05055 2.9535,7.06872 1.36561,14.39174 -3.68719,17.00465 -3.67194,1.89884 -9.94685,1.51808 -26.20043,-1.58983 C 771.184,565.45167 759.24754,552.99762 753.43373,509 c -1.97354,-14.93536 -1.55402,-24.2546 2.12326,-47.16598 2.94991,-18.37944 3.55634,-29.10291 1.74864,-30.92131 -1.70848,-1.7186 -5.66446,0.12491 -15.48222,7.21482 -9.30634,6.72058 -12.55567,7.85915 -22.45097,7.86689 -4.71514,0.004 -7.50223,0.45704 -8.23454,1.33943 -1.18738,1.43069 -1.3028,0.91134 9.26942,41.70782 4.37375,16.87756 5.80834,24.34736 6.62579,34.5 1.9412,24.10918 3.56882,26.49636 24.25452,35.57337 10.28633,4.5137 13.71237,7.14221 13.71237,10.52032 0,7.12179 -14.5373,10.35242 -37.46461,8.32577 z"
       id="path26" />
  </g>
</svg>
