<?xml version="1.0" encoding="UTF-8" standalone="no"?>
<svg
   xmlns:dc="http://purl.org/dc/elements/1.1/"
   xmlns:cc="http://creativecommons.org/ns#"
   xmlns:rdf="http://www.w3.org/1999/02/22-rdf-syntax-ns#"
   xmlns:svg="http://www.w3.org/2000/svg"
   xmlns="http://www.w3.org/2000/svg"
   xmlns:sodipodi="http://sodipodi.sourceforge.net/DTD/sodipodi-0.dtd"
   xmlns:inkscape="http://www.inkscape.org/namespaces/inkscape"
   version="1.1"
   id="svg2"
   width="860.56549"
   height="1337.8187"
   viewBox="0 0 860.56549 1337.8187"
   sodipodi:docname="Clogh.svg"
   inkscape:version="1.0.1 (3bc2e813f5, 2020-09-07)">
  <metadata
     id="metadata8">
    <rdf:RDF>
      <cc:Work
         rdf:about="">
        <dc:format>image/svg+xml</dc:format>
        <dc:type
           rdf:resource="http://purl.org/dc/dcmitype/StillImage" />
        <dc:title></dc:title>
      </cc:Work>
    </rdf:RDF>
  </metadata>
  <defs
     id="defs6" />
  <sodipodi:namedview
     pagecolor="#ffffff"
     bordercolor="#666666"
     borderopacity="1"
     objecttolerance="10"
     gridtolerance="10"
     guidetolerance="10"
     inkscape:pageopacity="0"
     inkscape:pageshadow="2"
     inkscape:window-width="1920"
     inkscape:window-height="1057"
     id="namedview4"
     showgrid="false"
     inkscape:pagecheckerboard="true"
     inkscape:zoom="0.49"
     inkscape:cx="605.36529"
     inkscape:cy="585.64177"
     inkscape:window-x="-8"
     inkscape:window-y="-8"
     inkscape:window-maximized="1"
     inkscape:current-layer="g10" />
  <g
     inkscape:groupmode="layer"
     inkscape:label="Image"
     id="g10"
     transform="translate(-340.89874,-75.01798)">
    <path
       style="fill:#ffffff;fill-opacity:1"
       d="m 763,1410.9663 c -17.62351,-5.0243 -21.11483,-6.1075 -29,-8.9973 -9.18682,-3.3668 -26.35272,-11.1228 -32,-14.4584 -1.925,-1.137 -5.1875,-2.9444 -7.25,-4.0164 -2.0625,-1.0719 -3.75,-2.2967 -3.75,-2.7216 0,-0.4249 -0.52661,-0.7726 -1.17024,-0.7726 -1.0281,0 -21.52951,-12.5298 -22.82976,-13.9528 -0.275,-0.301 -4.325,-3.1579 -9,-6.3487 -15.11629,-10.3172 -29.39721,-20.9781 -36.6167,-27.3348 -1.16418,-1.025 -3.56663,-2.9741 -5.33877,-4.3313 -1.77213,-1.3572 -4.22427,-3.3822 -5.44918,-4.5 -1.22491,-1.1178 -4.22246,-3.7615 -6.66123,-5.8748 -22.24878,-19.2798 -53.06574,-50.4594 -67.85894,-68.6576 -2.9061,-3.575 -6.05544,-7.175 -6.99854,-8 C 526.65204,1238.879 518,1228.4205 518,1227.6106 c 0,-0.3705 -4.275,-5.8088 -9.5,-12.085 -5.225,-6.2762 -9.5,-11.7151 -9.5,-12.0864 0,-0.3714 -1.2375,-2.1435 -2.75,-3.9382 -3.88578,-4.6107 -18.33565,-25.2647 -24.75,-35.3766 -0.55,-0.8671 -2.9125,-4.3977 -5.25,-7.8459 -2.3375,-3.4482 -4.25,-6.687 -4.25,-7.1972 0,-0.5103 -1.03002,-2.1999 -2.28893,-3.7546 -1.25891,-1.5547 -2.86398,-3.9517 -3.56682,-5.3267 -2.34434,-4.5863 -4.86863,-8.9627 -5.90536,-10.2381 -0.56417,-0.694 -1.97372,-2.9494 -3.13233,-5.0119 -1.15861,-2.0625 -3.08229,-5.4375 -4.27485,-7.5 -4.76818,-8.2465 -10.93987,-19.9721 -22.50118,-42.75 -0.55832,-1.1 -2.01946,-4.25 -3.24698,-7 -1.22752,-2.75 -3.32348,-7.3625 -4.6577,-10.25 -1.33422,-2.8875 -3.61269,-7.8375 -5.06326,-11 -1.45058,-3.1625 -3.47558,-7.4142 -4.5,-9.4481 -1.02443,-2.034 -1.86259,-4.3505 -1.86259,-5.1479 0,-0.7974 -1.11958,-3.4083 -2.48795,-5.8019 -1.36838,-2.3937 -2.49338,-5.1546 -2.5,-6.1353 -0.007,-0.9808 -1.13705,-4.0034 -2.51205,-6.7168 -1.375,-2.7134 -2.5,-5.6114 -2.5,-6.44 0,-0.8286 -0.84348,-3.431 -1.8744,-5.7832 -1.03093,-2.35226 -2.41244,-5.8518 -3.07003,-7.7768 -4.02885,-11.7938 -9.12531,-27.47789 -10.88565,-33.5 -8.07381,-27.62053 -10.75169,-37.69258 -12.62889,-47.5 -0.68428,-3.575 -1.73596,-8.525 -2.33706,-11 -0.6011,-2.475 -1.79624,-8.325 -2.65585,-13 -0.85962,-4.675 -1.98315,-10.75 -2.49673,-13.5 -0.51358,-2.75 -1.67882,-10.4 -2.58941,-17 -0.91058,-6.6 -2.06751,-14.925 -2.57094,-18.5 -0.50344,-3.575 -1.34762,-24.95 -1.87597,-47.5 -0.89443,-38.17414 -1.38286,-78.88366 -4.01927,-335 -0.54918,-53.35 -1.47068,-132.15906 -2.04778,-175.13125 l -1.04928,-78.13126 2.12075,-6.36874 c 3.35271,-11.60633 13.71697,-19.05587 23.48051,-24.01052 1.65,-0.81781 5.475,-2.867 8.5,-4.55376 14.71069,-8.20274 34.99251,-17.9011 56,-26.77808 7.425,-3.13752 14.85,-6.30137 16.5,-7.03077 3.35577,-1.48345 6.66645,-2.68907 31,-11.28899 9.35,-3.30446 22.625,-7.6687 29.5,-9.6983 6.875,-2.0296 14.075,-4.2563 16,-4.94822 1.925,-0.69191 6.425,-1.84299 10,-2.55794 3.575,-0.71495 7.28509,-1.69746 8.24465,-2.18336 5.49427,-2.78217 62.55669,-14.265875 88.75535,-17.861855 7.975,-1.09463 16.525,-2.41247 19,-2.92853 2.475,-0.51606 12.375,-1.63879 22,-2.49495 9.625,-0.85617 21.1,-2.00727 25.5,-2.55802 31.44947,-3.93654 151.01929,-3.94561 175,-0.0133 3.3,0.54113 14.775,1.70476 25.5,2.58584 10.725,0.88109 21.3,2.0076 23.5,2.50336 2.2,0.49576 10.975,1.80782 19.5,2.91569 31.50957,4.09483 69.5676,11.57554 101,19.852625 36.168,9.52412 54.199,15.10774 76.7698,23.77319 3.4484,1.32392 6.7158,2.40712 7.2609,2.40712 0.5451,0 2.8987,0.85675 5.2302,1.90389 2.3315,1.04714 9.8641,4.23808 16.7391,7.09097 20.5856,8.54233 40.6354,18.87583 44.9013,23.14177 2.3287,2.32867 4.7879,6.3218 6.2242,10.10654 2.3621,6.22412 2.3743,6.47115 2.3288,47.25683 -0.025,22.55 -0.6016,77.45 -1.2808,122 -0.6793,44.55 -1.6938,137.025 -2.2545,205.5 -1.3502,164.89545 -2.6652,262.02889 -3.8044,281 -0.5119,8.525 -1.6534,20.45 -2.5368,26.5 -0.8833,6.05 -2.0151,14.375 -2.5151,18.5 -2.6346,21.73765 -11.2554,62.21465 -19.0618,89.5 -1.1014,3.85 -2.8866,10.15 -3.967,14 -1.0804,3.85 -3.5776,11.5 -5.5494,17 -1.9717,5.50002 -3.941,11.35002 -4.3761,13.00002 -0.4351,1.65 -1.5375,4.4402 -2.4498,6.2003 -0.9122,1.7602 -1.6586,3.9127 -1.6586,4.7833 0,0.8706 -1.125,3.803 -2.5,6.5164 -1.375,2.7134 -2.5023,5.736 -2.5051,6.7168 0,0.9807 -1.1138,3.5832 -2.4688,5.7832 -1.355,2.2 -2.4777,4.8108 -2.4949,5.8019 -0.017,0.991 -0.8797,3.466 -1.9168,5.5 -2.5427,4.9868 -6.1746,12.6955 -11.6365,24.6981 -4.774,10.4908 -8.2313,17.4152 -15.7279,31.5 -8.1466,15.306 -9.9157,18.4801 -11.1476,20 -0.6686,0.825 -1.7494,2.625 -2.4018,4 -1.3595,2.8656 -2.8121,5.243 -5.8042,9.5 -1.1597,1.65 -2.4099,3.9532 -2.778,5.1181 -0.3682,1.165 -1.558,2.9222 -2.6439,3.905 -1.086,0.9828 -1.9745,2.2372 -1.9745,2.7875 0,0.5503 -1.125,2.4756 -2.5,4.2783 -1.375,1.8027 -2.5,3.7026 -2.5,4.2219 0,0.5194 -0.7219,1.5434 -1.6042,2.2757 -0.8823,0.7322 -2.0029,2.2498 -2.4902,3.3724 -0.9945,2.2909 -8.9065,13.7313 -17.0227,24.6139 -2.9606,3.9698 -5.8329,7.9268 -6.3829,8.7933 -1.5853,2.4976 -36.825,45.3045 -40.0711,48.6758 -1.6109,1.6731 -6.7471,7.2404 -11.4137,12.3719 -11.83309,13.0116 -28.66375,29.5103 -44.97343,44.0862 -4.61565,4.125 -9.11562,8.175 -9.99992,9 -0.88431,0.825 -3.24154,2.7307 -5.23828,4.2349 -1.99675,1.5041 -4.2319,3.329 -4.96701,4.0553 -2.1437,2.1178 -25.08242,20.1121 -27.94625,21.9224 -1.43533,0.9073 -3.23533,2.2431 -4,2.9685 -0.76467,0.7254 -3.41531,2.6621 -5.89031,4.3037 -2.475,1.6417 -7.26979,5.0167 -10.65509,7.5 -3.3853,2.4834 -7.4353,5.2512 -9,6.1508 -1.5647,0.8997 -6.83187,4.2011 -11.70482,7.3366 -4.87294,3.1355 -10.72294,6.7115 -13,7.9466 -5.8771,3.1879 -14.49215,7.9442 -18.94954,10.462 -2.09519,1.1835 -6.82019,3.8537 -10.5,5.9339 -9.96978,5.6358 -28.80062,13.7189 -36.25444,15.5621 -8.41035,2.0798 -17.71794,1.9325 -25.93611,-0.4105 z"
       id="path16-2"
       sodipodi:nodetypes="ssssssssssssssssssssssssssssssssscsssssssssssssscccsssssssssssssssssssssscccssccsssscsscscsssssssssssssssscsssssssssssssss" />
    <g
       id="g14">
      <path
         style="fill:#508149"
         d="m 770,1360.3873 c -2.475,-0.8002 -8.775,-2.8407 -14,-4.5345 C 710.82076,1341.207 637.96022,1287.6137 587.75565,1232.099 566.47334,1208.5656 561.04927,1202.3198 555,1194.3808 c -3.025,-3.97 -8.2,-10.5622 -11.5,-14.6493 C 517.48486,1147.5114 482.10723,1090.3517 462.58692,1049 451.89591,1026.3522 443.33101,1007.1785 440.41358,999.36186 439.00499,995.58784 436.50159,988.9 434.85047,984.5 c -1.65111,-4.4 -5.17749,-14.75 -7.83638,-23 -2.6589,-8.25 -5.796,-17.925 -6.97132,-21.5 -1.17533,-3.575 -2.5633,-8.47202 -3.08437,-10.88226 -0.52108,-2.41024 -1.8017,-6.91024 -2.84583,-10 C 413.06843,916.02798 411.29211,909.225 410.16519,904 399.23328,853.31416 396.11795,828.13808 395.28525,783.75 L 394.7459,755 h 92.58174 92.58173 l 0.57971,3.75 c 1.43346,9.2728 4.06264,16.56246 9.81742,27.21982 7.33675,13.58702 15.36245,22.78217 23.06527,26.42619 17.01326,8.04856 42.82893,8.48386 68.57637,1.15631 6.35352,-1.80817 13.47097,-3.57852 15.81656,-3.93412 2.34558,-0.35559 7.07058,-1.71122 10.5,-3.0125 3.42941,-1.30128 9.3853,-3.10785 13.2353,-4.0146 5.06398,-1.19267 9.21564,-3.11967 15.01103,-6.96737 4.40606,-2.9253 10.03106,-6.28572 12.5,-7.46761 5.8453,-2.79817 13.68786,-7.71108 17.59623,-11.02303 6.12568,-5.1909 7.37232,-6.0767 11.10642,-7.8917 7.2998,-3.54817 16.81342,-9.20662 19.69186,-11.71221 C 799.46774,755.7341 801.46609,755 804.2904,755 h 3.97932 l -2.39634,1.75 c -1.31799,0.9625 -3.26439,2.23215 -4.32534,2.82144 -1.06095,0.5893 -2.07177,1.49975 -2.24627,2.02324 -0.5228,1.56841 9.49646,11.40532 11.61675,11.40532 1.07989,0 2.24156,0.45 2.58148,1 0.33992,0.55 1.60398,1.01975 2.80902,1.04389 1.20504,0.0241 3.99098,0.69555 6.19098,1.49202 8.3327,3.01671 31.3128,5.76767 46.5,5.56654 7.975,-0.10561 16.075,-0.58075 18,-1.05587 1.925,-0.47512 5.63811,-1.15763 8.25135,-1.51669 4.57938,-0.62921 29.67745,-10.55105 32.74865,-12.94629 0.825,-0.64342 2.85,-1.80924 4.5,-2.59069 1.65,-0.78146 4.34811,-2.33705 5.99581,-3.45687 C 947.29955,754.55276 938.40152,755 1048.6386,755 h 100.6459 l -0.6846,25.25 c -0.7609,28.063 -3.8456,68.46335 -6.1886,81.05363 -0.839,4.50801 -1.9454,11.92973 -2.4589,16.49273 -0.5134,4.56299 -1.8377,11.83797 -2.9429,16.16661 -1.1052,4.32864 -2.0095,9.2012 -2.0095,10.82792 0,1.62671 -0.6797,4.88423 -1.5105,7.23892 -0.8308,2.3547 -1.8942,6.57378 -2.3632,9.37573 -2.3628,14.11655 -18.6511,66.06325 -28.0148,89.34446 -1.1613,2.8875 -2.9564,7.3875 -3.9891,10 -4.0955,10.361 -17.6168,39.4574 -24.0487,51.75 -14.9971,28.6627 -38.522,66.3364 -54.4974,87.2745 -3.892,5.101 -8.6513,11.4264 -10.5763,14.0565 -19.13579,26.1449 -71.38385,81.2261 -96,101.2055 -19.1044,15.5059 -32.16925,25.8081 -37.59096,29.6421 -3.24997,2.2982 -9.28404,6.5772 -13.40904,9.5089 -15.42693,10.9641 -26.32203,17.5601 -60.04421,36.3513 -10.18597,5.676 -23.89276,11.5123 -26.73182,11.3823 -0.94818,-0.043 -3.74897,-0.7337 -6.22397,-1.5338 z m 5.70481,-371.11179 C 784.65061,986.22738 790,977.91307 790,967.05718 c 0,-5.27452 -2.25669,-5.41603 -4.89847,-0.30718 -5.5771,10.78539 -17.48075,12.28573 -33.67367,4.24424 -10.99892,-5.46213 -22.97367,-16.85029 -28.39341,-27.00257 -3.17341,-5.94445 -3.49899,-7.35318 -3.86231,-16.71189 -0.35914,-9.25088 -0.13216,-10.94574 2.39319,-17.86982 3.49541,-9.58379 9.06279,-18.28641 14.07678,-22.00401 2.12184,-1.57323 5.83375,-4.55816 8.24868,-6.63318 2.41493,-2.07503 4.74753,-3.77277 5.18355,-3.77277 0.43602,0 3.11402,-1.44297 5.95111,-3.2066 9.04129,-5.62038 47.5285,-18.7934 54.90808,-18.7934 1.41882,0 4.1517,-0.47312 6.07307,-1.05138 8.32673,-2.50603 29.04127,-4.97624 41.96822,-5.0047 19.44352,-0.0428 48.25622,-3.12727 56.93173,-6.09466 2.9736,-1.01709 6.1789,-1.84926 7.12288,-1.84926 2.71715,0 11.10006,-4.02228 15.43447,-7.40575 2.18014,-1.70184 6.63596,-5.79425 9.90182,-9.09425 9.88781,-9.99118 15.62502,-25.98747 14.32267,-39.93399 -0.56858,-6.0888 -5.50981,-21.44099 -7.78226,-24.17912 C 952.58816,758.79883 949,758.5067 949,759.98746 c 0,1.45525 -16.87795,11.8229 -22.8139,14.01393 -0.37736,0.13929 -1.21381,0.45575 -1.85878,0.70325 -2.13473,0.81917 -2.28762,3.25444 -0.31944,5.08808 2.20106,2.05059 4.99212,9.25321 4.99212,12.88267 0,6.51181 -7.82142,14.42706 -17.58659,17.79759 -8.51494,2.93899 -39.58095,8.18861 -56.41841,9.53372 -6.87225,0.54901 -14.295,1.46115 -16.495,2.02698 -2.2,0.56583 -7.6,1.44657 -12,1.95721 -4.4,0.51063 -12.05,2.10944 -17,3.55291 -14.17133,4.13249 -18.06458,5.01399 -39.9391,9.04294 -4.9165,0.90555 -10.9915,2.54415 -13.5,3.64135 -2.50849,1.09719 -7.16257,2.61781 -10.34238,3.37914 -3.17982,0.76133 -7.54939,2.28616 -9.71016,3.38851 -2.16078,1.10234 -4.59317,2.00426 -5.40531,2.00426 -2.24487,0 -14.43458,8.56914 -20.42387,14.35759 -10.97625,10.60821 -18.20717,24.52081 -19.80346,38.10269 -1.47941,12.5875 4.09878,34.9405 11.79814,47.27764 9.56299,15.32335 22.99509,30.24085 31.9606,35.49499 10.41737,6.10499 31.09213,8.61289 41.57035,5.0426 z M 645.5,768.11706 c -4.72128,-1.21682 -7.38954,-3.28815 -10.04154,-7.79513 -1.35215,-2.29794 -2.45846,-4.43544 -2.45846,-4.75 0,-0.31456 21.0375,-0.53055 46.75,-0.47997 l 46.75,0.092 -6.5,1.98228 c -27.55614,8.4037 -28.00732,8.49783 -47.02855,9.81162 -8.5093,0.58774 -17.49645,1.25847 -19.97145,1.49052 -2.475,0.23205 -5.85,0.074 -7.5,-0.35128 z"
         id="path20" />
      <path
         style="fill:#bc1d1d"
         d="m 748.32179,985.53566 c -12.64463,-3.5601 -21.95722,-10.73417 -33.7798,-26.02265 -12.50595,-16.17221 -17.58696,-27.43061 -19.65408,-43.54919 -2.52818,-19.71365 2.36853,-33.25333 17.56983,-48.58161 7.87623,-7.94202 10.29646,-9.71388 18.76828,-13.74039 5.3493,-2.54243 11.74893,-5.07594 14.22139,-5.63003 2.47245,-0.55409 7.54574,-2.15861 11.27398,-3.5656 3.72824,-1.40698 10.82861,-3.21227 15.77861,-4.01174 15.5975,-2.51914 22.64117,-4.08073 35.5,-7.8704 6.875,-2.02615 15.65,-4.06354 19.5,-4.52753 18.28105,-2.20316 27.03545,-3.23492 39.5,-4.65529 7.425,-0.8461 16.425,-2.11625 20,-2.82255 3.575,-0.7063 9.875,-1.84321 14,-2.52648 11.89263,-1.96989 17.66665,-4.70669 24.63326,-11.6758 7.88928,-7.89211 9.00776,-11.09041 6.82678,-19.52124 -0.90136,-3.48434 -2.08735,-6.87795 -2.63553,-7.54136 -1.44406,-1.7476 -0.61906,-2.56707 5.86432,-5.82505 3.19614,-1.60611 7.67643,-4.16862 9.95619,-5.69447 2.27977,-1.52586 4.56296,-2.77428 5.07376,-2.77428 0.5108,0 2.17274,3.82283 3.69321,8.49517 6.40668,19.68752 1.28898,38.6037 -14.18456,52.42937 -6.8285,6.10129 -15.17651,11.06367 -18.62476,11.07127 -1.04353,0.002 -4.41853,0.86711 -7.5,1.9218 -3.08147,1.05468 -10.32767,2.43558 -16.10267,3.06866 -5.775,0.63309 -13.23686,1.57016 -16.58191,2.0824 -3.34506,0.51223 -13.47006,0.94233 -22.5,0.95578 -9.02995,0.0134 -18.44309,0.49704 -20.91809,1.07467 -2.475,0.57762 -7.425,1.4268 -11,1.88707 -10.67039,1.37377 -23.98642,4.03876 -32.5,6.50435 -10.96985,3.17693 -35.23165,12.35057 -39.5,14.93535 -1.925,1.16572 -4.64725,2.69952 -6.04944,3.40844 -3.47057,1.75466 -15.31989,10.68885 -18.82405,14.193 -5.09615,5.09616 -9.78265,13.27702 -13.12489,22.91111 -3.04742,8.7843 -3.23132,10.04474 -2.65339,18.18666 0.73194,10.31154 3.36107,17.04987 10.03812,25.72721 6.54727,8.50866 14.16164,15.02814 23.69899,20.29126 14.25987,7.86919 22.62988,8.90688 31.66466,3.92568 2.8875,-1.59198 5.25,-2.66579 5.25,-2.38625 0,1.78073 -4.82289,6.69759 -8.33421,8.4966 -5.42911,2.78159 -20.68801,3.51162 -28.344,1.35606 z M 628.2699,812.89424 c -4.52656,-1.02591 -10.18437,-2.7839 -12.57291,-3.90665 -5.67243,-2.66635 -14.03173,-11.05422 -17.91752,-17.97874 -1.70026,-3.02987 -4.5737,-7.98385 -6.38543,-11.00885 -6.38429,-10.6597 -9.83272,-30.22717 -9.78091,-55.5 0.0356,-17.37776 2.70984,-31.72798 5.19124,-27.85687 1.511,2.35723 18.33519,9.46247 28.23234,11.92315 14.1059,3.50709 13.1617,3.10294 12.05747,5.16103 -3.0193,5.62742 -4.02464,25.20112 -1.73462,33.77269 3.73045,13.96318 11.60693,23.77259 20.11234,25.04806 2.57623,0.38633 6.78646,0.41182 9.35607,0.0566 2.56962,-0.35517 8.49703,-0.89078 13.17203,-1.19024 22.5827,-1.44655 27.1063,-2.29287 50.73929,-9.4928 8.88949,-2.70824 32.75713,-14.79899 37.14499,-18.81674 1.43865,-1.31729 6.66572,-5.03014 11.61572,-8.25078 13.40878,-8.7242 18.40102,-12.26934 18.45316,-13.10414 0.0258,-0.4125 0.54018,-0.75 1.14316,-0.75 1.19952,0 11.44039,-8.57713 19.52132,-16.34988 2.81471,-2.70736 5.96471,-5.3761 7,-5.93052 1.0353,-0.55442 4.80736,-3.13993 8.38236,-5.74556 13.1274,-9.5679 30.31237,-16.04457 49,-18.46711 17.03491,-2.2083 22.95671,-1.98656 30.82944,1.1544 13.96469,5.57146 42.1411,26.85589 42.16559,31.85184 0.008,1.71228 -10.9085,9.6461 -15.8638,11.52896 -5.30921,2.01735 -12.44595,2.67827 -16.09325,1.49037 -1.35411,-0.44102 -3.34255,-1.92128 -4.41876,-3.28945 -1.07621,-1.36818 -4.6933,-3.78222 -8.03798,-5.36454 -9.08474,-4.29784 -19.40572,-3.94089 -39.58124,1.36894 -10.74231,2.82718 -17.82402,6.39983 -33.59163,16.94663 -7.6496,5.11674 -14.3949,9.52879 -14.98955,9.80455 -0.59465,0.27575 -4.74077,3.83492 -9.2136,7.90926 -4.47283,4.07434 -9.8363,8.42489 -11.91882,9.66788 C 778.1177,764.83889 773.96319,767 772.1693,767 768.93226,767 767,768.09144 767,769.9199 c 0,3.35999 -6.13336,7.9656 -21.5,16.14458 -3.3,1.75644 -7.575,4.40374 -9.5,5.88289 -4.93912,3.79517 -9.72847,5.82489 -18.17274,7.70158 -4.02999,0.89565 -8.93212,2.43302 -10.89361,3.41638 -1.96149,0.98337 -7.13649,2.47036 -11.5,3.30444 -4.36351,0.83408 -11.06665,2.48967 -14.89588,3.6791 -16.20771,5.0344 -37.49597,6.1933 -52.26787,2.84537 z M 844,776.58023 c -4.675,-0.6609 -10.975,-2.05585 -14,-3.0999 -3.025,-1.04404 -5.725,-1.94579 -6,-2.00388 -4.21513,-0.89035 -9.96571,-3.23035 -11.67597,-4.75111 -1.19679,-1.06418 -2.6083,-1.66769 -3.1367,-1.34112 -0.94626,0.58482 -3.84362,-2.06707 -3.07983,-2.81892 0.21587,-0.2125 3.9925,-2.28611 8.3925,-4.60803 4.4,-2.32192 12.16308,-6.92203 17.25129,-10.22246 l 9.2513,-6.00078 9.72549,0.19616 c 5.34902,0.10789 13.78593,-0.48882 18.7487,-1.32603 4.96277,-0.8372 12.17322,-1.96998 16.02322,-2.51727 3.85,-0.54729 9.925,-1.67076 13.5,-2.4966 3.575,-0.82583 11,-2.24403 16.5,-3.15156 12.00138,-1.98029 21.82217,-5.43897 28.51373,-10.04194 2.71593,-1.86824 5.23266,-3.39679 5.59273,-3.39679 0.36008,0 2.79224,-1.53568 5.4048,-3.41262 2.61257,-1.87695 6.23327,-4.17959 8.04601,-5.11699 3.77158,-1.95037 16.08367,-14.33876 22.33198,-22.47039 12.96837,-16.87719 19.06325,-33.75405 16.86285,-46.69337 -2.1416,-12.59331 -9.50353,-23.22696 -19.45144,-28.09601 -15.72772,-7.69799 -31.54158,-10.18063 -52.80066,-8.28924 -19.0934,1.69872 -27.76235,2.89167 -33.41488,4.59829 -2.70318,0.81615 -5.11018,1.2886 -5.34889,1.0499 -0.2387,-0.23871 1.66122,-3.27702 4.22206,-6.75179 22.0561,-29.92775 27.91476,-33.9023 52.04171,-35.30541 16.67313,-0.96964 35.76421,2.06609 50.68383,8.05938 6.22387,2.50018 13.34117,5.84655 15.81617,7.4364 10.09,6.4814 18.882,18.77925 23.5048,32.87715 2.4572,7.49378 2.6956,9.40754 2.2418,18 -0.4391,8.31529 -1.06,10.94966 -4.5943,19.49242 -11.8923,28.74506 -25.6349,46.24399 -57.2945,72.95527 -3.92773,3.31384 -18.92688,14.18668 -26.93642,19.52615 -3.06824,2.0454 -7.79566,5.34637 -10.50538,7.33549 -9.68744,7.11123 -34.45237,18.27092 -45.916,20.69089 -14.57142,3.07601 -35.7109,3.78542 -50.5,1.69471 z m -79.5,-59.63882 c -1.65,-1.05182 -4.66944,-3.71893 -6.70987,-5.92691 -2.04044,-2.20797 -4.29044,-4.0155 -5,-4.01673 -0.70957,-10e-4 -6.53681,-5.28872 -12.94942,-11.75 -53.15181,-53.5552 -58.53919,-59.23501 -60.05849,-63.31855 -0.39477,-1.06107 -1.18227,-1.92922 -1.75,-1.92922 -2.1916,0 -0.83909,-1.61772 3.71957,-4.44893 2.61151,-1.62192 7.9872,-5.6005 11.94597,-8.84131 3.95876,-3.2408 7.67126,-5.59973 8.25,-5.24205 0.57873,0.35768 1.05224,0.17377 1.05224,-0.40869 0,-2.90887 3.59058,-0.0951 12.04717,9.44098 5.12129,5.775 9.63484,10.5 10.0301,10.5 0.39527,0 4.42207,4.3875 8.94845,9.75 4.52639,5.3625 9.2973,10.41673 10.60204,11.23162 1.30473,0.81489 2.37224,1.84845 2.37224,2.2968 0,0.44835 4.45418,5.40662 9.89819,11.01838 5.444,5.61176 12.3065,13.09827 15.25,16.63669 2.94349,3.53842 7.93931,9.20164 11.10181,12.58493 3.1625,3.38329 5.75,6.40796 5.75,6.72149 0,0.31353 -1.9125,1.70391 -4.25,3.08975 -2.3375,1.38584 -6.93591,5.2536 -10.2187,8.59502 -3.28278,3.34143 -6.20778,6.04243 -6.5,6.00222 -0.29221,-0.0402 -1.8813,-0.93368 -3.5313,-1.98549 z M 666,703.4054 c -3.575,-0.70475 -10.775,-2.00543 -16,-2.89039 -11.39933,-1.9307 -19.61947,-4.47044 -31,-9.57791 -4.675,-2.09809 -13.83881,-6.07613 -20.36401,-8.84007 -22.04609,-9.33827 -42.30375,-24.58595 -55.24965,-41.58571 -2.93665,-3.85623 -7.16611,-9.26132 -9.39882,-12.01132 -4.9277,-6.06939 -11.33759,-19.05732 -13.01316,-26.36768 -1.6055,-7.00461 -0.50709,-20.7976 2.1934,-27.54325 1.12052,-2.79899 2.55367,-6.43907 3.18478,-8.08907 2.04279,-5.3408 7.31422,-13.88789 11.44393,-18.55517 4.43357,-5.01069 14.65292,-10.57324 24.66454,-13.42526 5.76731,-1.64294 22.46738,-2.22465 28.54114,-0.99416 1.37382,0.27833 5.87285,1.12261 9.99785,1.87618 4.125,0.75358 11.55,2.54698 16.5,3.98535 13.77377,4.00237 42.5,18.56458 42.5,21.54456 0,0.38176 -2.96677,3.59085 -6.59282,7.13131 -3.62606,3.54045 -7.56356,7.4068 -8.75,8.59188 -1.18645,1.18508 -3.84802,3.28223 -5.9146,4.66034 -4.25733,2.83901 -4.20138,2.84786 -18.24258,-2.885 -12.68465,-5.17899 -16.91265,-6.16173 -27.34279,-6.3555 -9.46813,-0.1759 -10.01027,-0.0644 -16.54918,3.4046 -8.34136,4.42518 -11.13293,7.4751 -13.22508,14.44898 -2.55306,8.51027 -1.46001,15.59733 4.14793,26.89396 3.88734,7.83066 6.1335,10.86414 13.18153,17.80198 4.67265,4.59958 11.23743,10.42386 14.58841,12.94283 6.81745,5.12477 20.86067,12.20251 30.69918,15.47229 9.39821,3.12344 29.42205,3.78221 45.974,1.5125 6.8607,-0.94078 12.80799,-1.91693 13.21621,-2.16923 1.05515,-0.65212 7.22232,6.07029 12.03411,13.11756 7.47576,10.94887 17.09614,22.72428 20.01638,24.50018 l 2.88087,1.75196 -8.31079,1.22133 C 699.95085,704.71637 673.89629,704.96202 666,703.4054 Z M 777.74793,660.37591 C 776.23657,659.58403 775,658.54271 775,658.06187 c 0,-0.48084 -2.3625,-2.56262 -5.25,-4.62617 -2.8875,-2.06354 -8.08769,-6.23282 -11.55597,-9.26506 l -6.30597,-5.51316 5.80597,-2.37544 c 5.93984,-2.43022 30.80407,-14.30507 35.30597,-16.86169 11.0749,-6.28943 26.64722,-16.0532 27.29969,-17.11679 0.43983,-0.71696 1.28956,-1.30356 1.88828,-1.30356 1.74159,0 15.46179,-10.88053 19.56344,-15.51439 8.83943,-9.98639 11.05984,-12.88242 21.11315,-27.53738 3.5005,-5.10278 7.25119,-10.21613 8.33485,-11.363 1.08367,-1.14688 2.66139,-3.43523 3.50604,-5.08523 0.84465,-1.65 2.12162,-3.675 2.83772,-4.5 2.70912,-3.12113 4.63086,-10.83918 5.16559,-20.74595 0.59159,-10.96013 -0.57088,-19.4489 -3.63825,-26.5678 -2.45404,-5.69547 -13.7676,-17.66721 -19.71265,-20.85945 -10.19059,-5.47193 -31.68794,-13.91472 -44.30056,-17.39844 -2.99349,-0.82683 -6.07454,-2.0277 -6.84678,-2.66861 -1.09851,-0.91168 -1.61226,-0.79327 -2.36069,0.5441 -0.67943,1.21408 -1.4482,1.45664 -2.65322,0.83715 -3.79268,-1.94981 -22.38659,-4.45904 -33.69661,-4.54733 -30.56538,-0.23859 -53.88044,3.3673 -58.99934,9.1248 -1.10036,1.23764 -3.69395,2.94075 -5.76353,3.78469 -3.65132,1.48894 -3.79009,1.46717 -4.6808,-0.73436 -0.50485,-1.24784 -1.17928,-3.49293 -1.49872,-4.98908 C 698.03339,450.32443 693.46506,445 691.88266,445 c -1.75629,0 -3.26347,3.60756 -3.00467,7.19192 0.43023,5.9587 -1.9331,12.74698 -5.89382,16.929 -3.77798,3.98908 -3.36771,3.92484 -15.48417,2.42467 -7.34215,-0.90905 -22.7611,1.52664 -28.63532,4.52344 -9.79111,4.99506 -19.40944,17.70818 -20.56421,27.18097 -0.64002,5.25014 -0.7841,5.40923 -2.94333,3.25 -0.825,-0.825 -3.18185,-1.5 -5.23744,-1.5 -5.70366,0 -7.56024,-1.84354 -6.77869,-6.73107 0.47448,-2.96724 0.25005,-4.36343 -0.84786,-5.27462 C 601.67192,492.31275 601,491.10969 601,490.32085 c 0,-1.20895 0.34914,-1.18971 2.22251,0.12245 4.81017,3.36917 9.90527,1.09341 13.21488,-5.90255 2.63085,-5.56116 5.32109,-8.61543 12.10112,-13.73862 4.83692,-3.65493 8.42567,-10.47549 9.23534,-17.55213 0.42907,-3.75017 0.25015,-4.25 -1.52135,-4.25 -1.10419,0 -2.52645,0.62517 -3.16059,1.38926 -1.14037,1.37406 -1.99835,1.64389 -11.41487,3.58992 -5.44462,1.1252 -8.42218,0.0893 -12.60135,-4.38417 C 607.74231,448.16776 605.65977,447 604.44781,447 c -5.27609,0 -14.27427,6.10278 -14.57686,9.88636 -0.071,0.8875 -0.0256,3.86364 0.10083,6.61364 l 0.22988,5 -2.54756,-2.37427 c -1.40116,-1.30585 -2.68404,-3.32664 -2.85083,-4.49064 -0.1668,-1.16399 -1.54077,-2.70763 -3.05327,-3.43029 -1.88925,-0.90267 -2.75,-2.07739 -2.75,-3.75309 0,-1.72007 -1.25296,-3.3467 -4.25,-5.51748 C 567.47007,443.6613 567.34015,441 574.36267,441 c 7.62013,0 13.76481,-4.05358 23.71489,-15.64448 C 607.85616,413.9644 619.39994,403 621.6144,403 c 0.77701,0 2.27148,-0.53629 3.32105,-1.19176 1.42287,-0.8886 2.81075,-0.91479 5.45593,-0.10296 5.90225,1.81145 12.04669,0.83774 19.53079,-3.09504 7.56387,-3.9747 11.35869,-4.39544 17.57783,-1.94889 6.74578,2.65372 10.68294,1.83324 23.73042,-4.94528 l 11.96487,-6.21607 15.65236,-0.13125 c 12.9656,-0.10872 16.6782,-0.48469 21.62868,-2.19034 3.28698,-1.1325 6.13915,-1.89626 6.33816,-1.69725 0.69129,0.69129 -4.86036,9.25927 -8.28325,12.78371 -6.46436,6.65614 -22.20738,9.76032 -36.76183,7.24864 -10.27347,-1.77291 -11.35019,-1.44831 -15.88372,4.78847 -5.51403,7.58565 -7.55033,15.12201 -4.41139,16.32653 1.66419,0.63861 4.5257,-1.78608 4.5257,-3.83484 0,-1.99752 3.76352,-4.85876 6.91568,-5.25769 1.51725,-0.19202 5.41942,0.2768 8.67148,1.04183 15.80412,3.71779 32.13072,-0.19051 42.91284,-10.27259 4.41035,-4.124 9.592,-7.76379 13.00913,-9.1381 3.58423,-1.44151 16.77138,-3.03694 20.99814,-2.54043 1.646,0.19335 10.64273,0.79956 19.99273,1.34714 22.65931,1.32703 44.88217,5.8813 57.74142,11.83331 19.74481,9.13906 43.32244,31.11355 52.57396,48.99923 8.84633,17.10233 11.75897,32.53156 10.87307,57.59831 -0.52454,14.84212 -0.99827,18.48374 -3.59426,27.62945 -6.89945,24.30683 -27.79023,55.95468 -51.95914,78.71392 C 857.38186,625.10735 842.35336,636 840.33267,636 c -0.61196,0 -3.94829,2.08747 -7.41406,4.63883 -6.00959,4.42401 -16.7153,9.63066 -34.57707,16.81632 -10.8073,4.34769 -13.21637,4.89362 -15.01341,3.40221 -1.05067,-0.87198 -1.6768,-0.91123 -2.15641,-0.13521 -0.47413,0.76716 -1.49602,0.66382 -3.42379,-0.34624 z M 585.88674,446.45019 c 2.09266,-1.95438 0.58729,-4.81066 -2.14889,-4.0773 -1.23082,0.32989 -3.22003,0.60595 -4.42046,0.61346 -2.58629,0.0162 -4.25134,3.8184 -2.2215,5.07291 1.683,1.04015 6.99536,0.0678 8.79085,-1.60907 z m 37.27993,-12.39387 c 0.36104,-1.02212 10.00894,-2.94346 18.83333,-3.75059 4.00578,-0.36638 7.18941,0.0671 11.71845,1.59561 7.5947,2.56313 9.92681,2.63001 11.16302,0.32013 0.73038,-1.36472 0.16858,-2.85786 -2.41459,-6.41741 -4.69137,-6.46461 -11.60995,-11.05165 -16.56589,-10.98326 -3.7258,0.0514 -13.18588,4.25821 -15.40099,6.84864 -0.55,0.64319 -3.25,2.19976 -6,3.45904 -2.75,1.25928 -5.5625,2.83839 -6.25,3.50913 -1.34014,1.30748 -1.67751,4.60155 -0.58333,5.69572 1.00641,1.00642 5.11983,0.79924 5.5,-0.27701 z M 638,652.33142 c -2.53949,-0.86459 -7.35132,-3.32409 -10.5,-5.36693 -1.65,-1.0705 -5.8125,-3.35729 -9.25,-5.08175 -3.4375,-1.72446 -6.25,-3.77485 -6.25,-4.55643 0,-0.78158 3.3272,-6.46224 7.39377,-12.62368 7.67101,-11.62269 16.87925,-21.38964 42.14543,-44.70263 5.77288,-5.32661 14.62753,-12 15.92231,-12 0.34901,0 3.09668,-1.575 6.10594,-3.5 3.00926,-1.925 5.84351,-3.5 6.29833,-3.5 0.45482,0 2.19102,-0.68049 3.85822,-1.5122 7.332,-3.65768 21.05657,-5.50191 42.29667,-5.68358 11.31288,-0.0968 21.12536,0.168 21.80551,0.58835 1.27148,0.78582 18.24812,2.20835 37.67382,3.15681 15.5571,0.75958 16.63189,0.92013 30,4.48137 12.85096,3.42347 18.25485,5.64936 16.8649,6.94675 -3.19935,2.98631 -24.59892,19.7479 -27.84354,21.80894 -7.14144,4.53639 -11.12015,4.43174 -32.02136,-0.84223 -13.13807,-3.3151 -46.65324,-4.12378 -59.66248,-1.43957 -16.2672,3.35643 -20.43308,4.71399 -25.83752,8.41981 -3.025,2.07424 -7.525,4.96081 -10,6.41459 -5.05869,2.97141 -11.05579,8.50339 -21.87305,20.17662 C 658.08275,631.11726 650,641.92804 650,643.74813 c 0,0.47182 -1.38893,2.74652 -3.08651,5.05487 -3.00228,4.08246 -4.98307,4.86656 -8.91349,3.52842 z"
         id="path18" />
      <path
         style="fill:#010101"
         d="m 763,1410.9663 c -17.62351,-5.0243 -21.11483,-6.1075 -29,-8.9973 -9.18682,-3.3668 -26.35272,-11.1228 -32,-14.4584 -1.925,-1.137 -5.1875,-2.9444 -7.25,-4.0164 -2.0625,-1.0719 -3.75,-2.2967 -3.75,-2.7216 0,-0.4249 -0.52661,-0.7726 -1.17024,-0.7726 -1.0281,0 -21.52951,-12.5298 -22.82976,-13.9528 -0.275,-0.301 -4.325,-3.1579 -9,-6.3487 -15.11629,-10.3172 -29.39721,-20.9781 -36.6167,-27.3348 -1.16418,-1.025 -3.56663,-2.9741 -5.33877,-4.3313 -1.77213,-1.3572 -4.22427,-3.3822 -5.44918,-4.5 -1.22491,-1.1178 -4.22246,-3.7615 -6.66123,-5.8748 -22.24878,-19.2798 -53.06574,-50.4594 -67.85894,-68.6576 -2.9061,-3.575 -6.05544,-7.175 -6.99854,-8 C 526.65204,1238.879 518,1228.4205 518,1227.6106 c 0,-0.3705 -4.275,-5.8088 -9.5,-12.085 -5.225,-6.2762 -9.5,-11.7151 -9.5,-12.0864 0,-0.3714 -1.2375,-2.1435 -2.75,-3.9382 -3.88578,-4.6107 -18.33565,-25.2647 -24.75,-35.3766 -0.55,-0.8671 -2.9125,-4.3977 -5.25,-7.8459 -2.3375,-3.4482 -4.25,-6.687 -4.25,-7.1972 0,-0.5103 -1.03002,-2.1999 -2.28893,-3.7546 -1.25891,-1.5547 -2.86398,-3.9517 -3.56682,-5.3267 -2.34434,-4.5863 -4.86863,-8.9627 -5.90536,-10.2381 -0.56417,-0.694 -1.97372,-2.9494 -3.13233,-5.0119 -1.15861,-2.0625 -3.08229,-5.4375 -4.27485,-7.5 -4.76818,-8.2465 -10.93987,-19.9721 -22.50118,-42.75 -0.55832,-1.1 -2.01946,-4.25 -3.24698,-7 -1.22752,-2.75 -3.32348,-7.3625 -4.6577,-10.25 -1.33422,-2.8875 -3.61269,-7.8375 -5.06326,-11 -1.45058,-3.1625 -3.47558,-7.4142 -4.5,-9.4481 -1.02443,-2.034 -1.86259,-4.3505 -1.86259,-5.1479 0,-0.7974 -1.11958,-3.4083 -2.48795,-5.8019 -1.36838,-2.3937 -2.49338,-5.1546 -2.5,-6.1353 -0.007,-0.9808 -1.13705,-4.0034 -2.51205,-6.7168 -1.375,-2.7134 -2.5,-5.6114 -2.5,-6.44 0,-0.8286 -0.84348,-3.431 -1.8744,-5.7832 -1.03093,-2.35226 -2.41244,-5.8518 -3.07003,-7.7768 -4.02885,-11.7938 -9.12531,-27.47789 -10.88565,-33.5 -8.07381,-27.62053 -10.75169,-37.69258 -12.62889,-47.5 -0.68428,-3.575 -1.73596,-8.525 -2.33706,-11 -0.6011,-2.475 -1.79624,-8.325 -2.65585,-13 -0.85962,-4.675 -1.98315,-10.75 -2.49673,-13.5 -0.51358,-2.75 -1.67882,-10.4 -2.58941,-17 -0.91058,-6.6 -2.06751,-14.925 -2.57094,-18.5 -0.50344,-3.575 -1.34762,-24.95 -1.87597,-47.5 -0.89443,-38.17414 -1.38286,-78.88366 -4.01927,-335 -0.54918,-53.35 -1.47068,-132.15906 -2.04778,-175.13125 l -1.04928,-78.13126 2.12075,-6.36874 c 1.16641,-3.50281 3.27495,-8.05561 4.68565,-10.11733 2.37679,-3.47366 11.74622,-10.39956 18.79486,-13.89319 1.65,-0.81781 5.475,-2.867 8.5,-4.55376 14.71069,-8.20274 34.99251,-17.9011 56,-26.77808 7.425,-3.13752 14.85,-6.30137 16.5,-7.03077 3.35577,-1.48345 6.66645,-2.68907 31,-11.28899 9.35,-3.30446 22.625,-7.6687 29.5,-9.6983 6.875,-2.0296 14.075,-4.2563 16,-4.94822 1.925,-0.69191 6.425,-1.84299 10,-2.55794 3.575,-0.71495 7.28509,-1.69746 8.24465,-2.18336 5.49427,-2.78217 62.55669,-14.265884 88.75535,-17.861857 7.975,-1.094631 16.525,-2.412471 19,-2.928532 2.475,-0.516061 12.375,-1.638789 22,-2.494953 9.625,-0.856163 21.1,-2.007272 25.5,-2.558021 31.44947,-3.936532 151.01929,-3.945604 175,-0.01328 3.3,0.54113 14.775,1.704761 25.5,2.585847 10.725,0.881085 21.3,2.007595 23.5,2.503355 2.2,0.49576 10.975,1.807819 19.5,2.915687 31.50957,4.094833 69.5676,11.575548 101,19.852634 36.168,9.52412 54.199,15.10774 76.7698,23.77319 3.4484,1.32392 6.7158,2.40712 7.2609,2.40712 0.5451,0 2.8987,0.85675 5.2302,1.90389 2.3315,1.04714 9.8641,4.23808 16.7391,7.09097 20.5856,8.54233 40.6354,18.87583 44.9013,23.14177 2.3287,2.32867 4.7879,6.3218 6.2242,10.10654 2.3621,6.22412 2.3743,6.47115 2.3288,47.25683 -0.025,22.55 -0.6016,77.45 -1.2808,122 -0.6793,44.55 -1.6938,137.025 -2.2545,205.5 -1.3502,164.89545 -2.6652,262.02889 -3.8044,281 -0.5119,8.525 -1.6534,20.45 -2.5368,26.5 -0.8833,6.05 -2.0151,14.375 -2.5151,18.5 -2.6346,21.73765 -11.2554,62.21465 -19.0618,89.5 -1.1014,3.85 -2.8866,10.15 -3.967,14 -1.0804,3.85 -3.5776,11.5 -5.5494,17 -1.9717,5.5 -3.941,11.35 -4.3761,13 -0.4351,1.65 -1.5375,4.4402 -2.4498,6.2003 -0.9122,1.7602 -1.6586,3.9127 -1.6586,4.7833 0,0.8706 -1.125,3.803 -2.5,6.5164 -1.375,2.7134 -2.5023,5.736 -2.5051,6.7168 0,0.9807 -1.1138,3.5832 -2.4688,5.7832 -1.355,2.2 -2.4777,4.8108 -2.4949,5.8019 -0.017,0.991 -0.8797,3.466 -1.9168,5.5 -2.5427,4.9868 -6.1746,12.6955 -11.6365,24.6981 -4.774,10.4908 -8.2313,17.4152 -15.7279,31.5 -8.1466,15.306 -9.9157,18.4801 -11.1476,20 -0.6686,0.825 -1.7494,2.625 -2.4018,4 -1.3595,2.8656 -2.8121,5.243 -5.8042,9.5 -1.1597,1.65 -2.4099,3.9532 -2.778,5.1181 -0.3682,1.165 -1.558,2.9222 -2.6439,3.905 -1.086,0.9828 -1.9745,2.2372 -1.9745,2.7875 0,0.5503 -1.125,2.4756 -2.5,4.2783 -1.375,1.8027 -2.5,3.7026 -2.5,4.2219 0,0.5194 -0.7219,1.5434 -1.6042,2.2757 -0.8823,0.7322 -2.0029,2.2498 -2.4902,3.3724 -0.9945,2.2909 -8.9065,13.7313 -17.0227,24.6139 -2.9606,3.9698 -5.8329,7.9268 -6.3829,8.7933 -1.5853,2.4976 -36.825,45.3045 -40.0711,48.6758 -1.6109,1.6731 -6.7471,7.2404 -11.4137,12.3719 -11.83309,13.0116 -28.66375,29.5103 -44.97343,44.0862 -4.61565,4.125 -9.11562,8.175 -9.99992,9 -0.88431,0.825 -3.24154,2.7307 -5.23828,4.2349 -1.99675,1.5041 -4.2319,3.329 -4.96701,4.0553 -2.1437,2.1178 -25.08242,20.1121 -27.94625,21.9224 -1.43533,0.9073 -3.23533,2.2431 -4,2.9685 -0.76467,0.7254 -3.41531,2.6621 -5.89031,4.3037 -2.475,1.6417 -7.26979,5.0167 -10.65509,7.5 -3.3853,2.4834 -7.4353,5.2512 -9,6.1508 -1.5647,0.8997 -6.83187,4.2011 -11.70482,7.3366 -4.87294,3.1355 -10.72294,6.7115 -13,7.9466 -5.8771,3.1879 -14.49215,7.9442 -18.94954,10.462 -2.09519,1.1835 -6.82019,3.8537 -10.5,5.9339 -9.96978,5.6358 -28.80062,13.7189 -36.25444,15.5621 -8.41035,2.0798 -17.71794,1.9325 -25.93611,-0.4105 z m 32.48573,-16.9266 c 10.89275,-4.3735 18.95124,-8.3151 32.51427,-15.9038 6.325,-3.5389 13.525,-7.5668 16,-8.951 2.475,-1.3841 5.85,-3.3294 7.5,-4.3228 1.65,-0.9935 4.35,-2.5555 6,-3.4713 1.65,-0.9157 6.27118,-3.8533 10.26929,-6.5279 3.99812,-2.6746 7.5198,-4.8629 7.82596,-4.8629 0.30616,0 3.10998,-1.9238 6.23071,-4.2752 3.12072,-2.3514 7.69904,-5.6139 10.17404,-7.25 2.475,-1.6361 5.12564,-3.5683 5.89031,-4.2937 0.76467,-0.7254 2.56467,-2.0612 4,-2.9685 2.86383,-1.8103 25.80255,-19.8046 27.94625,-21.9224 0.73511,-0.7263 2.97026,-2.5512 4.96701,-4.0553 1.99674,-1.5042 4.34569,-3.4099 5.21988,-4.2349 0.87419,-0.825 4.90614,-4.425 8.95989,-8 14.77424,-13.0294 34.03502,-31.8945 46.03183,-45.0862 4.66665,-5.1315 9.80453,-10.6988 11.41763,-12.3719 3.0486,-3.1621 29.1888,-34.6808 33.5672,-40.4739 1.375,-1.8192 4.4125,-5.7224 6.75,-8.6737 2.3375,-2.9513 4.25,-5.744 4.25,-6.2059 0,-0.4619 1.125,-1.8967 2.5,-3.1884 1.375,-1.2917 2.5,-2.8754 2.5,-3.5193 0,-0.6439 0.9,-1.9852 2,-2.9807 1.1,-0.9955 2,-2.3368 2,-2.9807 0,-0.6439 1.125,-2.2276 2.5,-3.5193 1.375,-1.2917 2.5,-2.6689 2.5,-3.0604 0,-0.3914 1.9125,-3.5049 4.25,-6.9188 2.3375,-3.414 4.7,-6.9285 5.25,-7.8101 0.55,-0.8816 2.9125,-4.6692 5.25,-8.417 2.3375,-3.7478 4.25,-7.1116 4.25,-7.4752 0,-0.3636 0.6293,-1.3715 1.3985,-2.2398 0.7692,-0.8683 2.3442,-3.2662 3.5,-5.3287 1.1558,-2.0625 3.0772,-5.4375 4.2698,-7.5 3.6396,-6.2946 10.6076,-18.9575 12.5396,-22.7881 0.5442,-1.0791 1.7298,-3.3119 2.6346,-4.9619 1.8638,-3.3989 8.0375,-15.9893 10.7877,-22 1.0066,-2.2 4.0891,-8.8525 6.85,-14.7833 2.7609,-5.9307 5.0198,-11.2062 5.0198,-11.7232 0,-0.517 0.849,-2.8645 1.8866,-5.2167 2.1049,-4.7716 5.7331,-13.4685 9.0849,-21.7768 1.2203,-3.025 2.6096,-7.1045 3.0872,-9.0655 0.4777,-1.961 1.5571,-4.88602 2.3987,-6.5 0.8417,-1.61397 1.5331,-3.74669 1.5364,-4.73936 0,-0.99268 0.9175,-3.80519 2.0312,-6.25003 1.1138,-2.44484 2.2846,-5.90765 2.6019,-7.69514 0.3172,-1.78748 1.4348,-5.63956 2.4834,-8.56017 1.0487,-2.92061 2.3098,-6.97061 2.8026,-9 0.4928,-2.02939 2.678,-10.6648 4.856,-19.1898 7.0572,-27.62189 10.2228,-44.35292 14.9473,-79 4.3893,-32.18949 4.4727,-35.53409 7.1777,-288 0.604,-56.375 1.6226,-149.75 2.2635,-207.5 2.1159,-190.65136 2.1066,-182.12243 0.2027,-186.3006 -0.9271,-2.03467 -2.6249,-4.50708 -3.7729,-5.49424 -1.8476,-1.58883 -22.1837,-11.86511 -31.5872,-15.96178 -10.1635,-4.42776 -18.3684,-7.82748 -26,-10.77321 -4.675,-1.80451 -9.85,-3.84341 -11.5,-4.5309 -1.65,-0.68749 -5.025,-1.82135 -7.5,-2.51971 -2.475,-0.69835 -4.95,-1.57591 -5.5,-1.95013 -0.55,-0.37423 -6.4,-2.34948 -13,-4.38947 -6.6,-2.03998 -14.25,-4.4162 -17,-5.2805 -24.8826,-7.82033 -69.3737,-18.16733 -100,-23.25632 -6.6,-1.09669 -14.025,-2.45294 -16.5,-3.0139 -2.475,-0.56096 -11.7,-1.9565 -20.5,-3.101186 -8.8,-1.144689 -18.925,-2.489087 -22.5,-2.987551 -3.575,-0.498464 -14.825,-1.623812 -25,-2.500773 -10.175,-0.876961 -23,-2.078898 -28.5,-2.67097 -13.91148,-1.497565 -132.36552,-1.523295 -148,-0.03215 -6.6,0.629479 -19.425,1.832209 -28.5,2.672734 -9.075,0.840525 -19.875,1.958415 -24,2.4842 -25.59122,3.261936 -38.93242,5.185316 -42,6.055056 -1.925,0.5458 -8.675,1.86917 -15,2.94083 -23.42445,3.96886 -61.28494,12.70202 -78.5,18.10734 -3.3,1.03616 -10.05,3.08088 -15,4.54382 -10.84766,3.20595 -25.16816,7.89497 -32,10.47788 -2.75,1.03969 -8.825,3.30176 -13.5,5.02682 -4.675,1.72506 -9.85,3.70329 -11.5,4.39606 -1.65,0.69277 -6.6,2.75646 -11,4.58597 -23.50263,9.77237 -47.56804,21.29316 -66.41179,31.7932 -14.9286,8.31846 -16.88311,9.84634 -19.25716,15.05371 -1.9459,4.26824 -1.97992,5.90378 -1.40384,67.5 0.3247,34.71917 1.03021,77.07577 1.56779,94.12577 0.53757,17.05 1.23297,82.525 1.54532,145.5 0.59684,120.33521 1.61961,204.53317 3.39512,279.5 1.0489,44.28762 1.33059,48.55101 4.45985,67.5 0.86286,5.225 1.57691,11.11552 1.58677,13.09004 0.01,1.97452 0.91794,7.109 2.01794,11.40996 1.1,4.30096 2,9.49136 2,11.53424 0,2.04287 0.69182,5.67514 1.53738,8.07171 0.84556,2.39658 2.16532,7.74065 2.9328,11.87573 1.65182,8.89983 6.74725,27.89034 12.88401,48.01832 4.54379,14.90319 5.52895,17.88391 8.76491,26.51933 1.03449,2.76063 1.8809,5.58809 1.8809,6.28324 0,0.69515 1.125,3.484 2.5,6.19743 1.375,2.71343 2.5,5.6384 2.5,6.5 0,0.8616 1.125,3.7866 2.5,6.5 1.375,2.7134 2.49875,5.511 2.49722,6.2168 -0.002,0.7057 0.87164,3.0832 1.94037,5.2832 1.06873,2.2 5.63091,12.325 10.13817,22.5 9.48873,21.4205 16.02378,34.8154 23.66193,48.5 0.61397,1.1 1.37607,2.675 1.69354,3.5 0.31748,0.825 1.91802,3.75 3.55676,6.5 1.63874,2.75 3.92562,6.8896 5.08196,9.1991 1.15635,2.3095 2.73866,4.7271 3.51625,5.3724 0.77759,0.6454 1.4138,1.5092 1.4138,1.9196 0,1.0423 15.57892,26.8861 17.46066,28.9654 0.84664,0.9356 1.53934,2.0289 1.53934,2.4296 0,0.4008 2.025,3.6258 4.5,7.1667 2.475,3.541 4.5,6.8117 4.5,7.2684 0,0.4566 1.125,1.8871 2.5,3.1788 1.375,1.2917 2.5,2.8667 2.5,3.5 0,0.6333 1.125,2.2083 2.5,3.5 1.375,1.2917 2.5,2.7677 2.5,3.28 0,0.5122 1.0125,2.2008 2.25,3.7523 1.2375,1.5516 4.48445,5.8915 7.21545,9.6444 2.731,3.7528 7.9319,10.4233 11.55757,14.8233 3.62566,4.4 7.97877,10.025 9.67358,12.5 1.69481,2.475 4.71256,6.1715 6.70611,8.2145 1.99354,2.043 5.94925,6.543 8.79046,10 15.42675,18.7704 45.60249,49.2589 67.74095,68.4431 2.43877,2.1133 5.43632,4.757 6.66123,5.8748 1.22491,1.1178 3.67705,3.1428 5.44918,4.5 1.77214,1.3572 4.17459,3.3063 5.33877,4.3313 7.21949,6.3567 21.50041,17.0176 36.6167,27.3348 4.675,3.1908 8.725,6.0635 9,6.3837 0.70893,0.8254 14.72124,9.4779 19.5,12.041 2.2,1.18 4.225,2.4819 4.5,2.8931 0.50805,0.7598 1.48425,1.281 16.18988,8.6451 14.59914,7.3108 24.13345,10.9394 44.31012,16.8638 4.95,1.4534 9.45,2.8234 10,3.0444 0.55,0.221 5.05,0.2386 10,0.039 7.24928,-0.2922 10.55342,-0.9865 16.98573,-3.569 z M 763,1369.0956 c -6.875,-2.0799 -14.975,-4.7982 -18,-6.0408 -3.025,-1.2425 -7.075,-2.8615 -9,-3.5976 -9.7112,-3.7139 -34.2363,-17.8557 -52.5,-30.273 -36.41932,-24.761 -74.89911,-58.1755 -103.69242,-90.0428 -21.80461,-24.1325 -27.06341,-30.1585 -31.5402,-36.1414 -2.2635,-3.025 -7.41214,-9.5951 -11.44142,-14.6002 -31.68378,-39.3571 -69.22795,-101.595 -91.02478,-150.894 -2.18716,-4.9469 -4.56426,-10.1219 -5.28243,-11.5 -3.96593,-7.6107 -10.52338,-23.9868 -18.02152,-45.0058 -1.47152,-4.125 -3.48594,-9.75 -4.47649,-12.5 -0.99055,-2.75 -2.78383,-8.375 -3.98508,-12.5 -1.20124,-4.125 -3.07188,-10.2 -4.15696,-13.5 -1.08509,-3.3 -2.39923,-7.97202 -2.9203,-10.38226 -0.52108,-2.41024 -1.8017,-6.91024 -2.84583,-10 -5.37151,-15.89515 -13.9562,-63.24211 -16.52433,-91.13632 -2.52673,-27.44448 -2.62023,-30.97776 -3.63808,-137.48142 -0.55192,-57.75 -1.74639,-159.9 -2.65438,-227 -0.908,-67.1 -1.80536,-151.80585 -1.99414,-188.23522 l -0.34324,-66.23521 4.7708,-2.9938 c 7.33615,-4.60361 43.12172,-22.15477 58.7708,-28.82434 25.22699,-10.75163 51.34776,-20.4964 69.5,-25.9281 4.675,-1.3989 12.1,-3.627 16.5,-4.95133 22.70313,-6.8333 59.42981,-15.35401 83.18876,-19.30005 6.15382,-1.02206 12.05763,-2.13407 13.11958,-2.47112 3.19033,-1.01257 29.3826,-4.39927 50.69166,-6.5545 11,-1.11256 23.375,-2.46584 27.5,-3.00731 17.58521,-2.30829 55.17485,-3.27309 100,-2.56665 25.025,0.39439 49.1,1.08744 53.5,1.54013 4.4,0.45268 16.1,1.55021 26,2.43894 9.9,0.88874 21.375,2.07265 25.5,2.63091 4.125,0.55826 12.45,1.65422 18.5,2.43547 10.55559,1.36307 14.88673,2.0637 40.5,6.55149 34.5469,6.05308 65.1445,13.1432 95.5,22.12939 7.7884,2.30563 41.4851,13.47313 44.8495,14.86369 1.1828,0.48886 5.3005,2.09504 9.1505,3.56929 10.3634,3.96839 26.6996,10.95099 37.75,16.13559 l 9.75,4.57448 -0.014,26.59912 c -0.015,30.14323 -2.5767,275.49874 -3.5191,337.09913 -0.3407,22.275 -1.0115,88.425 -1.4906,147 -0.7794,95.29064 -1.0906,108.95337 -2.9566,129.80946 -1.1471,12.82021 -2.7716,26.99521 -3.6099,31.5 -0.8384,4.5048 -1.9444,11.9239 -2.4579,16.4869 -0.5134,4.56299 -1.8377,11.83797 -2.9429,16.16661 -1.1052,4.32864 -2.0095,9.2012 -2.0095,10.82792 0,1.62671 -0.6797,4.88423 -1.5105,7.23892 -0.8308,2.3547 -1.8942,6.57378 -2.3632,9.37573 -1.5656,9.35387 -14.836,54.2715 -20.8564,70.59446 -1.3185,3.575 -3.3004,8.975 -4.4042,12 -4.572,12.5304 -20.6075,48.4209 -29.4882,66 -15.284,30.2546 -40.2908,70.8246 -57.8012,93.7745 -3.892,5.101 -8.6513,11.4231 -10.5763,14.0491 -19.4253,26.4994 -72.15263,82.0625 -97,102.2168 -19.38082,15.7202 -32.1825,25.8136 -37.59096,29.6382 -3.24997,2.2982 -9.32598,6.6155 -13.50224,9.5939 -14.11418,10.066 -38.61155,24.7593 -65.9068,39.5305 -8.22389,4.4505 -20.79324,9.6325 -25.5,10.513 -1.96071,0.3667 -7.33039,-0.7489 -15.5,-3.2204 z m 23.85326,-10.6446 c 4.87689,-1.9519 12.4175,-5.5941 16.7569,-8.0937 4.33941,-2.4996 13.96484,-7.958 21.38984,-12.1297 13.0257,-7.3184 25.81069,-15.4748 40.5,-25.8377 3.85,-2.7161 9.22023,-6.5025 11.93385,-8.4141 4.64661,-3.2734 19.67798,-15.185 36.55433,-28.9673 26.58859,-21.714 75.5148,-73.2806 96.01182,-101.1932 1.925,-2.6215 6.6851,-8.9398 10.5779,-14.0408 17.5965,-23.0575 43.8849,-65.6822 58.143,-94.2745 7.0949,-14.2278 23.2576,-50.8463 27.1448,-61.5 1.1038,-3.025 3.0857,-8.425 4.4042,-12 5.3374,-14.47122 17.7006,-55.72453 19.9295,-66.5 0.5688,-2.75 1.8816,-7.99486 2.9174,-11.65524 1.0358,-3.66038 1.8832,-7.8604 1.8832,-9.33338 0,-1.47299 0.9043,-6.21977 2.0095,-10.54841 1.1052,-4.32864 2.4295,-11.60362 2.9429,-16.16661 0.5135,-4.563 1.6195,-11.9821 2.4579,-16.4869 0.8383,-4.50479 2.4628,-18.67979 3.6098,-31.5 1.8669,-20.866 2.1807,-34.68319 2.9939,-131.80946 0.4996,-59.675 1.3669,-142.7 1.9274,-184.5 2.2195,-165.54006 3.3534,-313.60518 2.4089,-314.54974 -1.4965,-1.49642 -30.4874,-14.00527 -45.3503,-19.56749 -43.6558,-16.33751 -92.3148,-29.29753 -144,-38.35346 -25.61327,-4.48779 -29.94441,-5.18842 -40.5,-6.55149 -6.05,-0.78125 -14.375,-1.87721 -18.5,-2.43547 -4.125,-0.55826 -15.6,-1.73861 -25.5,-2.623 -9.9,-0.8844 -21.825,-1.99589 -26.5,-2.47 -4.675,-0.47411 -27.4,-1.17104 -50.5,-1.54873 -41.36568,-0.67635 -79.34234,0.34623 -96.5,2.5984 -4.125,0.54147 -16.5,1.89475 -27.5,3.00731 -21.30906,2.15523 -47.50133,5.54193 -50.69166,6.5545 -1.06195,0.33705 -6.96576,1.45254 -13.11958,2.47886 -24.4761,4.08207 -61.3568,12.62345 -83.18876,19.26609 -4.4,1.33875 -11.825,3.57865 -16.5,4.97755 -34.88919,10.43989 -93.70994,35.15477 -120.77216,50.74518 l -5.27216,3.03726 0.34604,61.71712 c 0.19032,33.94441 1.08829,116.61711 1.99549,183.71711 0.9072,67.1 2.10103,169.25 2.65295,227 1.01785,106.50366 1.11135,110.03694 3.63808,137.48142 2.56813,27.89421 11.15282,75.24117 16.52433,91.13632 1.04413,3.08976 2.32475,7.58976 2.84583,10 0.52107,2.41024 1.83521,7.08226 2.9203,10.38226 1.08508,3.3 2.95572,9.375 4.15696,13.5 1.20125,4.125 2.99453,9.75 3.98508,12.5 0.99055,2.75 3.00497,8.375 4.47649,12.5 7.75686,21.74424 7.73334,21.68594 18.5548,46 11.90314,26.7444 25.78665,54.396 35.14615,70 25.51283,42.5346 40.51973,64.9063 58.62778,87.3998 4.02928,5.0051 9.17792,11.5752 11.44142,14.6002 3.98638,5.3275 6.55764,8.3089 26.65428,30.9061 22.98504,25.8449 56.11993,56.4772 81.98331,75.7912 4.17727,3.1195 9.17003,6.8663 11.09503,8.3263 25.32355,19.2061 58.76455,37.9453 80,44.8292 5.225,1.6938 11.525,3.7343 14,4.5345 6.40778,2.0716 7.01356,2.002 16.85326,-1.9363 z M 748,988.57192 c -6.97527,-1.55123 -14.265,-4.79041 -18.33184,-8.14573 -6.77896,-5.59293 -20.0585,-21.37204 -25.60638,-30.42619 -6.52252,-10.64476 -10.39117,-21.42738 -12.14228,-33.84271 -2.62751,-18.62894 2.34525,-34.26873 15.52756,-48.83566 6.08714,-6.7265 16.39353,-14.55268 22.30463,-16.93707 2.06157,-0.83158 5.58046,-2.34783 7.81975,-3.36945 2.23929,-1.02162 5.83929,-2.17531 8,-2.56377 2.16071,-0.38846 6.54175,-1.79044 9.73565,-3.11552 5.75927,-2.3894 11.56455,-3.85971 21.19291,-5.36756 16.80012,-2.63098 18.1148,-2.94433 39.86483,-9.50159 2.67566,-0.80667 6.50066,-1.46918 8.5,-1.47225 1.99935,-0.003 5.24524,-0.45284 7.21311,-0.99949 4.41143,-1.22546 7.36537,-1.62715 21.8792,-2.97522 6.30143,-0.5853 12.60143,-1.24349 14,-1.46265 1.39857,-0.21916 5.01786,-0.71141 8.04286,-1.09388 10.35993,-1.30987 34.49797,-6.30198 38.3175,-7.92463 4.61012,-1.95853 12.26166,-8.82406 14.36296,-12.88753 1.02043,-1.97328 1.32103,-4.24023 0.90623,-6.83423 C 928.73934,785.51775 925.80358,779 924.2641,779 c -1.70643,0 -1.59628,-1.47942 0.22253,-2.98891 0.81765,-0.67858 4.75515,-2.87529 8.75,-4.88157 8.12865,-4.08233 15.26708,-8.51749 16.23833,-10.089 1.29042,-2.08795 3.52789,-0.9526 5.33964,2.70948 6.51315,13.16498 7.63468,29.97218 2.87866,43.13979 -3.60848,9.99051 -10.17674,18.2688 -20.67309,26.05526 -5.79858,4.30154 -8.95532,5.63698 -21.02017,8.89245 -10.32998,2.78735 -37.94853,6.10848 -52,6.25299 -22.01337,0.22641 -32.19638,1.2434 -45.0656,4.50078 -3.06109,0.7748 -6.67141,1.40873 -8.02294,1.40873 -2.85841,0 -19.57284,4.14354 -25.41146,6.29955 -21.3191,7.87244 -26.4102,9.96731 -30.69215,12.62912 -2.71741,1.68923 -5.16712,3.07133 -5.44381,3.07133 -0.98315,0 -16.90216,12.84601 -19.15991,15.46129 -2.93573,3.40062 -7.7111,12.7926 -10.23636,20.13239 -2.61377,7.59706 -2.64591,19.52686 -0.0723,26.84916 6.35147,18.07107 29.25373,36.8031 46.82303,38.29713 9.16618,0.77945 16.48181,-2.98085 19.37147,-9.9571 1.22297,-2.95252 2.47915,-3.57561 3.15017,-1.56255 0.52454,1.57363 -1.00057,10.46795 -2.40876,14.04763 -1.30117,3.30766 -7.0157,7.97261 -11.73057,9.57604 -4.33775,1.47518 -19.94877,1.31846 -27.10078,-0.27207 z m 22.91422,-1.64694 c 2.75697,-0.59127 6.46729,-2.0553 8.24516,-3.2534 3.10568,-2.09292 7.56097,-8.28456 6.63068,-9.21485 -0.24698,-0.24698 -3.04427,0.95657 -6.2162,2.67456 -5.30761,2.87472 -6.32835,3.08346 -12.81022,2.61969 -5.8236,-0.41668 -8.63607,-1.3106 -16.24342,-5.16283 -10.77978,-5.45869 -18.13342,-11.69127 -25.71259,-21.79272 -6.98515,-9.30975 -8.78822,-14.13145 -9.50625,-25.42123 -0.53745,-8.45043 -0.3548,-9.74555 2.4681,-17.5 3.66964,-10.08045 4.83029,-12.35731 9.18388,-18.01616 3.86402,-5.0225 15.96112,-14.90754 22.49516,-18.38172 2.45805,-1.30697 5.51722,-3.06299 6.79815,-3.90229 4.12279,-2.70135 34.2571,-13.38513 43.90401,-15.56566 16.83901,-3.8062 22.27214,-4.88525 27.84932,-5.53105 3.025,-0.35028 7.075,-1.02244 9,-1.49371 1.925,-0.47126 12.14918,-1.11971 22.72041,-1.441 27.60316,-0.83894 48.9007,-3.12199 55.49747,-5.94921 2.04484,-0.87637 4.57796,-1.5934 5.62916,-1.5934 7.46906,0 25.38879,-14.33669 30.94161,-24.75485 5.8391,-10.95527 7.87051,-26.70251 4.67565,-36.24515 -4.58076,-13.68219 -5.15212,-14.47225 -8.38556,-11.59533 -0.86831,0.77257 -5.17874,3.30916 -9.57874,5.63686 -11.12675,5.88631 -10.69173,5.34538 -8.46903,10.53073 1.04562,2.43932 2.1935,6.63917 2.55085,9.33299 0.58069,4.3775 0.32884,5.35985 -2.37058,9.24631 -6.14537,8.84772 -13.85295,14.0117 -23.71124,15.88622 -19.92625,3.78892 -33.87717,5.99919 -44,6.97101 -26.65917,2.55936 -41.60341,5.00623 -57.5,9.41466 -13.17035,3.6524 -20.26403,5.31326 -28.5,6.67278 -11.33759,1.87151 -15.49414,2.88594 -25.5,6.2234 -23.58789,7.86776 -30.06429,11.605 -41.68881,24.05678 -12.97146,13.89458 -17.73671,28.32265 -15.32926,46.4135 1.47194,11.06098 4.96733,21.59254 9.94737,29.97126 8.52256,14.3389 25.40861,32.77273 33.64775,36.73192 10.38041,4.98815 22.95107,6.65931 33.33717,4.43189 z M 627.15419,815.92194 c -12.78983,-2.98647 -17.4178,-5.37987 -23.99197,-12.40768 -5.09556,-5.44717 -7.96063,-9.80281 -15.1384,-23.01426 -4.73044,-8.70688 -8.38882,-26.16518 -9.64431,-46.02408 -0.7503,-11.86801 1.13623,-32.94645 3.21425,-35.91324 0.77343,-1.10423 1.40624,-2.78101 1.40624,-3.72617 0,-0.94516 0.3375,-1.9263 0.75,-2.1803 0.4125,-0.254 5.67184,1.96203 11.68743,4.92451 6.01559,2.96249 13.21559,6.02199 16,6.7989 6.28027,1.75233 18.35535,3.96393 18.99889,3.47972 0.51088,-0.38439 3.47872,3.21172 3.53188,4.27955 0.0175,0.35139 -0.7557,0.57639 -1.7182,0.5 -1.40887,-0.11182 -2.0747,1.42054 -3.41573,7.86111 -2.9434,14.13631 -1.90492,24.0621 3.74737,35.81734 4.85645,10.10012 8.87185,13.04477 17.76519,13.02791 6.67256,-0.0127 33.97724,-2.02517 39.65317,-2.92268 1.925,-0.30439 7.775,-1.81588 13,-3.35887 5.225,-1.54299 11.75,-3.33278 14.5,-3.97732 2.75,-0.64453 6.575,-1.95981 8.5,-2.92285 10.72656,-5.36629 25.76629,-13.6648 27.5,-15.17376 3.61725,-3.14832 16.24959,-11.82088 20.16276,-13.84247 4.27469,-2.20835 22.37732,-16.73073 29.33724,-23.53507 2.475,-2.41967 6.525,-5.6423 9,-7.1614 2.475,-1.51909 6.3,-4.2238 8.5,-6.01047 8.71531,-7.0779 30.24148,-16.13209 42.5,-17.87607 29.08256,-4.13748 37.23622,-3.32358 49.73462,4.96448 2.87903,1.90918 5.51052,3.47123 5.84773,3.47123 1.96799,0 17.05556,11.99317 23.51813,18.69465 6.45789,6.69664 7.47746,8.21398 6.78222,10.0934 -0.45004,1.21657 -1.28964,2.21195 -1.86579,2.21195 -0.57615,0 -4.07815,2.15521 -7.78222,4.78935 -7.82365,5.56376 -11.27374,6.8937 -21.07666,8.1246 -8.09534,1.01648 -10.84028,0.59928 -11.65817,-1.77192 -0.83966,-2.43434 -8.60166,-7.79915 -13.08513,-9.04396 -13.32874,-3.70068 -43.75267,3.80271 -58.41473,14.40671 -2.475,1.78999 -9.23157,6.39743 -15.0146,10.23877 -5.78303,3.84133 -11.18303,7.79051 -12,8.77595 -3.13364,3.77983 -14.91883,12.42341 -23.64875,17.34464 -5.01086,2.82472 -9.46125,5.13586 -9.88976,5.13586 -0.42851,0 -1.49186,0.66334 -2.363,1.47409 -6.48842,6.03864 -13.48822,10.77594 -24.5821,16.63658 -3.29902,1.74279 -8.8214,5.10179 -12.27196,7.46445 -5.7033,3.90513 -14.54599,7.42488 -18.65361,7.42488 -0.88878,0 -4.41337,1.13669 -7.83242,2.52597 -3.41905,1.38929 -8.02261,2.78239 -10.23013,3.09579 -2.20752,0.31339 -9.49339,2.10688 -16.19083,3.98552 -6.69743,1.87864 -14.65557,3.59084 -17.68476,3.80488 -3.02918,0.21404 -5.87446,0.60824 -6.32284,0.87599 -2.30131,1.37423 -23.3833,0.44993 -31.16105,-1.36621 z m 35.92174,-1.40275 c 5.73324,-0.81444 15.14812,-2.83944 20.92196,-4.5 C 689.77173,808.35864 695.29548,807 696.27287,807 c 0.9774,0 4.35335,-0.94195 7.50211,-2.09323 3.14876,-1.15128 10.00002,-3.19667 15.22502,-4.54532 6.97365,-1.8 11.22855,-3.60825 16,-6.79973 3.575,-2.39121 8.75,-5.53438 11.5,-6.98484 12.90355,-6.80582 19.94661,-12.13544 21.57589,-16.32688 0.51481,-1.32438 1.72395,-2.25 2.9392,-2.25 4.87137,0 20.27257,-9.44742 30.89077,-18.94905 4.62323,-4.13706 9.21924,-7.97846 10.21338,-8.53644 0.99413,-0.55798 7.11149,-4.61451 13.59414,-9.01451 14.09475,-9.56661 20.27832,-12.93608 29.48935,-16.06895 18.28536,-6.21926 37.24241,-7.03501 46.05249,-1.98172 2.61538,1.50012 5.31538,3.5163 6,4.48038 3.12652,4.40274 11.45106,5.33097 20.24478,2.25741 5.50863,-1.92537 17.5,-10.72927 17.5,-12.84826 0,-3.10676 -16.39139,-16.99771 -31.97302,-27.09566 -6.77039,-4.38768 -18.6083,-8.24869 -25.2033,-8.22022 -9.31577,0.0402 -29.99958,3.63043 -39.7599,6.90136 -9.7824,3.27833 -21.42435,8.90505 -24.68623,11.93121 -1.03265,0.95803 -4.77998,3.71028 -8.32739,6.11613 -3.54741,2.40584 -8.04741,6.05581 -10,8.11103 C 799.67298,710.74253 775.44338,730 773.69941,730 c -0.94307,0 -15.0918,9.71147 -17.9006,12.28668 -1.32773,1.21733 -4.63813,3.3709 -7.35644,4.78573 -2.7183,1.41482 -9.21737,4.82644 -14.44237,7.58138 -5.225,2.75493 -12.425,5.80368 -16,6.77499 -3.575,0.97131 -10.26163,2.87705 -14.85918,4.23497 -8.83452,2.60934 -15.98448,3.55118 -41.23617,5.4319 -11.72386,0.87319 -16.456,0.87749 -19.06228,0.0173 -6.87625,-2.26937 -13.4447,-11.76764 -16.81193,-24.31081 -1.85757,-6.91955 -0.43844,-30.79418 1.97381,-33.20643 1.90305,-1.90305 0.94458,-2.44113 -8.1528,-4.57694 -10.93299,-2.56676 -19.87076,-5.83328 -28.50348,-10.41728 -3.50156,-1.85933 -6.54081,-3.09282 -6.75388,-2.74107 -0.21308,0.35175 -1.20945,3.78954 -2.21417,7.63954 -3.13381,12.00855 -2.44959,35.02446 1.75396,59 1.07547,6.13406 5.36908,16.08017 10.79219,25 1.67196,2.75 3.455,5.9 3.96233,7 1.76657,3.83036 11.52677,12.72231 16.55193,15.07949 6.96665,3.26789 20.55244,6.15611 29.6356,6.30027 4.16676,0.0661 12.26676,-0.54612 18,-1.36057 z M 847.5,780.35194 c -5.5,-0.73611 -11.35,-1.52595 -13,-1.75519 -1.65,-0.22924 -5.7,-1.14105 -9,-2.02624 -14.67383,-3.93611 -16.85875,-4.90981 -21.21183,-9.45293 C 801.92968,764.65612 800,762.29726 800,761.87567 c 0,-0.84777 1.12843,-1.51696 12.60433,-7.47476 9.66201,-5.01611 17.9046,-9.854 21.89567,-12.8514 4.16618,-3.12891 9.12974,-5.58643 9.84286,-4.87331 0.32804,0.32804 3.80311,0.79446 7.72237,1.0365 8.0834,0.49919 25.72622,-1.68801 43.42606,-5.38357 6.60479,-1.37902 14.70871,-2.91308 18.00871,-3.40902 17.80651,-2.67606 19.77489,-3.56165 45.5,-20.47084 13.6599,-8.97869 29.31928,-28.26353 36.20682,-44.58943 2.65688,-6.29773 3.10368,-8.58649 3.09608,-15.85984 -0.008,-7.3117 -0.42912,-9.41952 -3.01492,-15.07742 -1.71563,-3.7539 -4.82723,-8.32738 -7.2485,-10.65396 -4.27318,-4.10604 -14.6904,-9.17794 -24.53948,-11.94768 -7.01025,-1.97141 -20.37432,-2.5755 -30.99212,-1.40092 -4.95434,0.54806 -13.05788,1.27082 -18.00788,1.60612 -10.18438,0.68987 -15.32743,1.66815 -20.80758,3.95791 -3.55541,1.48554 -3.93933,1.46689 -6.18628,-0.30056 l -2.39562,-1.8844 3.96759,-5.39954 c 2.18217,-2.96975 4.92985,-6.52455 6.10594,-7.89955 1.17609,-1.375 3.63558,-4.83271 5.46553,-7.6838 1.82995,-2.8511 3.77152,-5.45842 4.31459,-5.79405 0.54307,-0.33564 2.61705,-3.06543 4.60885,-6.0662 1.9918,-3.00077 4.13621,-5.45595 4.76536,-5.45595 0.62915,0 4.29789,-1.49843 8.15276,-3.32985 11.08796,-5.2678 13.33351,-5.72712 28.16167,-5.76036 24.79458,-0.0556 41.79644,3.71304 61.41539,13.61332 22.0983,11.15139 36.6534,42.92937 30.4939,66.57704 -2.2559,8.66114 -8.1,21.2642 -16.4151,35.39985 -7.1999,12.23997 -8.6681,14.01435 -25.1124,30.35016 -9.60596,9.54258 -19.46276,18.72437 -21.90398,20.40398 -2.44123,1.67961 -5.1568,3.67802 -6.03461,4.44092 -3.08034,2.67711 -24.92754,18.09103 -28.244,19.92708 -1.84361,1.02066 -4.02701,2.38704 -4.85201,3.03641 -8.52986,6.714 -36.62202,18.71249 -48.5,20.71492 -12.69536,2.14023 -32.09615,2.57166 -44,0.97847 z m 33,-2.38058 c 16.33083,-1.85627 23.69556,-4.1523 42,-13.09396 7.7,-3.76143 16.925,-8.89218 20.5,-11.40167 34.25689,-24.04684 39.63443,-28.31229 57.2931,-45.44469 7.3679,-7.14832 20.7069,-22.92677 20.7069,-24.49375 0,-0.24901 2.4072,-4.50709 5.3493,-9.4624 2.9421,-4.95532 7.2868,-13.86184 9.6549,-19.79228 3.7664,-9.43251 4.3583,-11.97211 4.7268,-20.28261 0.3669,-8.27374 0.091,-10.45144 -2.1364,-16.87091 -6.1007,-17.58141 -17.0713,-30.97439 -30.5946,-37.35004 -15.62034,-7.36431 -24.31076,-9.62142 -47.17427,-12.25229 -7.80741,-0.89838 -26.90938,1.03324 -32.82573,3.31939 -7.24158,2.79823 -16.76008,10.72571 -23.25854,19.37086 -2.8828,3.83511 -6.71693,8.84269 -8.52029,11.12796 -3.9324,4.98325 -6.56387,9.64566 -5.84803,10.3615 0.28633,0.28633 3.58201,-0.39715 7.32373,-1.51886 7.38422,-2.21366 9.81378,-2.55216 30.72939,-4.28133 15.12703,-1.25061 27.97243,-0.69958 36.50414,1.5659 13.7461,3.6501 24.94362,9.83864 29.36721,16.23039 10.61619,15.33958 9.71189,34.31567 -2.56367,53.79743 -7.74522,12.29194 -21.22736,27.28655 -28.77224,32 -2.64117,1.65 -9.45054,5.95876 -15.13192,9.57502 -12.60392,8.02254 -18.38786,10.30731 -31.32978,12.37588 -5.5,0.87909 -12.925,2.27693 -16.5,3.10632 -15.81501,3.669 -36.84927,6.44976 -48.75904,6.44601 L 840.98193,741 l -8.24097,5.37018 c -4.53253,2.9536 -11.86494,7.3411 -16.29426,9.75 -12.52159,6.80992 -12.05457,6.44245 -10.52702,8.28304 0.72887,0.87823 2.10036,1.59678 3.04778,1.59678 0.94741,0 2.53705,0.9 3.53254,2 0.99549,1.1 2.32097,2 2.94552,2 0.62455,0 5.36743,1.37168 10.53973,3.04818 16.79794,5.44473 35.25894,7.11193 54.51475,4.92318 z M 761.6087,719.35553 c -2.69021,-2.43991 -7.19021,-5.96898 -10,-7.84238 -8.41882,-5.61317 -78.6775,-78.37427 -79.21499,-82.0364 -0.101,-0.68812 1.4566,-2.43968 3.46133,-3.89236 2.00473,-1.45269 5.95639,-4.31595 8.78147,-6.36282 2.82508,-2.04686 7.91345,-6.08615 11.30748,-8.9762 7.36757,-6.27355 9.50497,-6.25974 15.42193,0.0996 2.12625,2.28524 9.14355,9.77998 15.59399,16.65498 6.45045,6.875 13.89327,14.87149 16.53961,17.76998 2.64635,2.89848 5.97905,5.84148 7.40601,6.53999 1.42696,0.69851 2.47885,1.9672 2.33754,2.81932 -0.23135,1.39502 3.63686,5.7848 25.87037,29.3586 3.6374,3.85666 6.88844,8.13711 7.22454,9.51211 0.3361,1.375 2.19755,3.57051 4.13656,4.8789 1.939,1.3084 3.52546,2.7709 3.52546,3.25 0,1.26829 -2.80134,3.61794 -8.66504,7.26789 -2.84077,1.76828 -7.49838,5.5607 -10.35025,8.4276 -7.61551,7.65566 -7.70673,7.67292 -13.37601,2.53114 z m 12.42546,-4.97135 c 3.00621,-3.08871 7.82834,-7.15253 10.71584,-9.03073 2.8875,-1.8782 5.25,-3.76689 5.25,-4.19709 0,-0.4302 -1.40072,-2.10387 -3.11272,-3.71927 C 785.17529,695.82169 779.57561,689.55 774.44355,683.5 769.31148,677.45 761.37471,668.62516 756.80626,663.88924 752.23782,659.15332 744.675,651.09299 740,645.97739 c -4.675,-5.1156 -11.425,-12.28893 -15,-15.94074 -3.575,-3.65181 -9.40152,-9.90542 -12.94782,-13.89691 -7.74365,-8.71578 -8.23695,-8.72118 -18.55218,-0.20304 -3.85,3.17927 -9.3625,7.23272 -12.25,9.00767 -5.46083,3.35677 -6.17401,4.41026 -3.89663,5.75594 0.74435,0.43983 1.53185,1.31834 1.75,1.95225 0.82909,2.40924 10.99425,13.51142 29.1595,31.84744 37.79776,38.15307 42.23693,42.46438 44.82945,43.53824 1.45217,0.60151 3.1788,2.09984 3.83697,3.32963 1.01706,1.9004 9.47914,8.44248 11.10487,8.58523 0.29379,0.0258 2.99379,-2.48022 6,-5.56892 z M 657.5,706.39854 c -20.33406,-3.84088 -28.18292,-6.10485 -39.69709,-11.45043 -5.88339,-2.73143 -14.20839,-6.32861 -18.5,-7.99373 -22.48752,-8.72504 -42.39229,-23.19809 -56.88633,-41.36287 C 540.26246,642.89184 536.025,637.59896 533,633.82956 526.39829,625.60328 520.80923,615.02252 518.03551,605.5 c -3.43986,-11.80944 -0.86526,-28.3916 6.98685,-45 5.53213,-11.7013 10.56918,-17.38648 19.70822,-22.24415 21.94154,-11.66257 37.11512,-12.30317 71.76942,-3.02997 19.35028,5.17797 49.5,21.54115 49.5,26.86517 0,1.0052 -2.08195,3.01844 -4.94017,4.77712 -2.71709,1.67184 -5.43312,3.96082 -6.03564,5.08662 -1.9093,3.56758 -15.58185,14.47799 -20.3312,16.22389 -4.01761,1.4769 -4.71396,1.50098 -5.79341,0.20032 -2.24799,-2.70866 -17.29807,-9.17496 -25.10742,-10.78746 -13.69528,-2.82784 -21.5651,-1.7929 -29.809,3.92013 -5.25958,3.64489 -8.00195,9.55145 -8.11349,17.47493 -0.12719,9.03547 6.49295,22.25028 15.91903,31.77681 23.66508,23.91726 46.14427,33.11426 76.2113,31.18061 12.60483,-0.81063 27.72878,-3.04033 29.95503,-4.41622 1.21618,-0.75165 2.63324,0.79563 6.54497,7.14643 4.52406,7.34493 16.03388,22.59721 18.82451,24.94538 1.64596,1.38498 4.24401,4.2456 5.77345,6.35692 1.52944,2.11133 4.15807,4.65236 5.84142,5.64673 1.68334,0.99438 3.06062,2.55431 3.06062,3.46651 0,1.41193 -1.74724,1.76002 -11.75,2.34087 -6.4625,0.37527 -19.4,0.84906 -28.75,1.05288 -14.85708,0.32386 -18.6387,0.061 -30,-2.08498 z m 54.25,-2.55592 c 4.5375,-0.64055 8.25,-1.53182 8.25,-1.98058 0,-0.44876 -1.16325,-1.57813 -2.58501,-2.5097 -2.16714,-1.41996 -12.47101,-13.80845 -15.91499,-19.13482 -3.70605,-5.73168 -10.7961,-14.6626 -13.0441,-16.43087 -2.66728,-2.09808 -2.72724,-2.09978 -14.3172,-0.40526 -13.16713,1.92512 -33.13668,2.30159 -40.70408,0.76736 C 622.28409,661.88809 604.21379,653.58668 595,646.49208 c -3.025,-2.32925 -9.17252,-7.85176 -13.66117,-12.27226 -6.69469,-6.59306 -9.00443,-9.73594 -12.85408,-17.49068 -5.61949,-11.31991 -6.80895,-19.29733 -4.07679,-27.34204 2.25669,-6.64467 4.36466,-8.89554 12.1133,-12.9344 6.26438,-3.26522 7.16712,-3.4527 16.62509,-3.4527 10.51734,0 18.51435,1.97547 30.26544,7.47637 7.91654,3.70587 11.43852,3.98598 15.86755,1.26198 C 643.14266,579.36227 661,562.23303 661,560.9033 c 0,-3.35182 -27.0835,-17.44038 -42.22784,-21.96648 -22.21997,-6.64075 -43.21958,-8.70177 -55.68032,-5.46478 -8.56589,2.22521 -20.87414,8.55926 -24.65071,12.6857 -10.39541,11.35847 -16.72996,25.42106 -18.56601,41.21622 -1.1491,9.88549 -1.09526,10.81261 0.99832,17.1901 3.4199,10.41774 7.68395,18.5083 13.45135,25.5225 2.90038,3.52739 7.10528,8.88844 9.34422,11.91344 8.19132,11.06721 21.73377,22.90664 35.6127,31.13425 8.10136,4.80259 12.11419,6.7746 25.21829,12.39292 1.65,0.70742 7.5,3.28101 13,5.71907 13.05572,5.78739 21.2134,8.18203 36.77113,10.79394 7.02412,1.17925 13.99912,2.51099 15.5,2.95943 3.6217,1.08211 31.57539,0.31168 41.97887,-1.15699 z m 66.07106,-36.65446 C 776.42449,666.25967 770.01329,660.55 763.57395,654.5 c -6.43934,-6.05 -13.50124,-12.07207 -15.69312,-13.38237 -4.95516,-2.96219 -5.14678,-6.44198 -0.38083,-6.91603 4.16724,-0.4145 20.46692,-6.06448 23.5,-8.14584 1.375,-0.94355 7.30143,-4.02686 13.16984,-6.85179 23.36952,-11.24962 49.80654,-30.14465 59.96614,-42.85893 16.56544,-20.73087 30.00057,-40.30034 32.7392,-47.68754 7.62703,-20.57324 0.47439,-43.44554 -17.16884,-54.90154 -10.69382,-6.94364 -43.30457,-19.02407 -44.80431,-16.59745 -0.80155,1.29694 -5.4864,0.35523 -11.52805,-2.31728 -9.71433,-4.29711 -33.72709,-6.08271 -59.87398,-4.45226 -15.64824,0.97579 -25.96303,3.68794 -32.97714,8.67094 -4.5063,3.2014 -12.31974,5.61575 -14.93105,4.6137 -1.4309,-0.54909 -1.60054,-1.43258 -1.0193,-5.30855 0.45003,-3.00101 0.34438,-4.43173 -0.29795,-4.03475 -0.54737,0.3383 -1.26936,2.61512 -1.60442,5.0596 -0.63542,4.63593 -5.24363,12.92262 -8.42565,15.15139 -2.92723,2.05032 -8.22088,2.61649 -15.24449,1.63046 -9.09487,-1.27681 -20.00962,0.25341 -27.58068,3.86675 -10.76171,5.13609 -20.1993,18.10962 -19.1056,26.2638 0.29095,2.16919 0.29124,4.56356 6.5e-4,5.32083 -0.76189,1.98547 -4.29296,1.68726 -8.19589,-0.69216 -1.85984,-1.13386 -4.78484,-1.98658 -6.5,-1.89495 -4.95595,0.26477 -5.13469,0.16948 -7.46726,-3.98076 -1.43416,-2.55175 -2.00318,-4.79691 -1.61138,-6.35798 0.33313,-1.32728 -0.10206,-4.10711 -0.96708,-6.17739 -1.81495,-4.3438 -2.02226,-8.81149 -0.53758,-11.58564 1.48603,-2.77666 2.36679,-2.43633 5.34612,2.06574 2.06601,3.12195 3.2768,4 5.51582,4 2.48627,0 3.20748,-0.71543 5.40947,-5.36611 2.79227,-5.89736 5.01577,-8.51514 11.52441,-13.56798 4.34092,-3.36997 9.80912,-10.75912 8.74763,-11.82061 -0.31115,-0.31116 -2.25614,-0.0814 -4.32218,0.51065 -8.35148,2.39308 -11.94756,2.47428 -16.68921,0.37682 C 610.05526,456.0216 608,454.65299 608,454.09141 c 0,-2.15559 -4.04295,-3.31626 -7.11667,-2.04308 -5.79056,2.39853 -8.25987,8.83267 -6.4039,16.68627 0.59765,2.52896 0.41327,3.36934 -0.84517,3.85225 -2.14639,0.82365 -10.19563,-3.9743 -12.38663,-7.38335 -0.95564,-1.48692 -2.7523,-3.52366 -3.99258,-4.52608 C 576.01477,459.675 575,457.98894 575,456.93062 c 0,-1.05833 -2.25,-4.09294 -5,-6.74358 -5.84846,-5.63717 -6.48097,-8.87695 -2.36514,-12.11446 1.84889,-1.45434 4.09203,-2.07258 7.51987,-2.07258 6.93547,0 10.61904,-2.6971 23.62798,-17.3003 17.93863,-20.13703 21.5352,-22.26507 35.68892,-21.11665 6.11182,0.49591 8.52837,0.36967 8.52837,-0.44553 0,-0.62564 0.7875,-1.1474 1.75,-1.15948 0.9625,-0.0121 3.775,-0.95218 6.25,-2.08912 7.4047,-3.40148 8.9157,-3.57053 17,-1.90201 11.81713,2.43894 11.65756,2.44938 17.76048,-1.16164 14.57096,-8.62143 16.49029,-9.20222 31.20527,-9.44277 7.40617,-0.12107 15.49929,-0.52507 17.98472,-0.89778 5.7976,-0.86941 15.73162,-5.4235 19.4176,-8.90169 1.61269,-1.52177 3.51243,-2.45913 4.34018,-2.14149 1.64454,0.63107 1.81359,0.30523 -7.10836,13.70115 -8.43951,12.67155 -13.06761,17.52322 -18.36199,19.24899 -7.86202,2.56274 -24.56423,4.66191 -28.38167,3.56709 -4.48584,-1.28653 -9.21282,-1.20905 -12.30918,0.20175 -3.49685,1.59327 -3.19295,2.73791 0.70295,2.64764 1.7875,-0.0414 5.725,0.53603 8.75,1.28321 12.80191,3.1621 25.2015,1.40514 33.68328,-4.77276 1.7508,-1.27523 3.45205,-2.31861 3.78055,-2.31861 0.3285,0 1.93482,-1.52338 3.5696,-3.3853 1.63479,-1.86191 5.78354,-4.74708 9.21945,-6.41148 5.3298,-2.58182 7.86123,-3.12481 17.23947,-3.69782 6.18039,-0.37762 11.28961,-1.1526 11.6714,-1.77035 0.49055,-0.79373 1.77485,-0.77041 4.62656,0.084 4.99882,1.49768 20.30406,3.07675 23.64022,2.439 1.39087,-0.26588 5.5755,0.20287 9.29916,1.04166 3.72367,0.8388 10.59531,2.29771 15.27031,3.24203 8.90257,1.79825 25.32988,7.85953 33,12.1762 14.93109,8.40309 37.83177,31.1074 44.38568,44.00508 3.33874,6.57044 8.34975,20.00276 10.17584,27.277 2.68458,10.69402 2.71385,41.61537 0.0516,54.5 -3.98378,19.28035 -13.32401,38.35825 -28.94794,59.12766 -18.52894,24.63112 -34.69401,40.19156 -48.03961,46.24274 -3.48439,1.5799 -8.09685,4.46404 -10.24991,6.4092 -4.17068,3.76796 -8.59236,5.94384 -31.37564,15.4398 -5.225,2.17775 -10.85,4.42859 -12.5,5.00186 -1.65,0.57327 -4.60644,1.74268 -6.56987,2.59868 -3.27134,1.42622 -3.7822,1.4152 -6.10907,-0.13178 z m 4.19425,-5.43816 c 0.0108,-0.88099 0.27973,-0.83227 0.91101,0.16502 1.06815,1.68747 8.09139,-0.44773 25.07368,-7.62289 15.95754,-6.7422 19.1562,-8.33779 23.5,-11.72252 2.2,-1.71427 6.475,-4.42409 9.5,-6.02183 22.8122,-12.04895 51.91416,-44.29588 67.05811,-74.30492 10.23794,-20.28733 13.36846,-35.45467 12.64049,-61.24286 -0.49782,-17.635 -3.03692,-29.37023 -9.27684,-42.87571 -9.20008,-19.91236 -35.65046,-44.94988 -57.09022,-54.0407 -12.42839,-5.26984 -33.67896,-9.48252 -55.83154,-11.06794 -25.12915,-1.79845 -41.42944,-0.42865 -46.22331,3.8844 -0.97807,0.87997 -3.4786,2.87038 -5.55673,4.42313 -2.07812,1.55275 -4.55276,3.63624 -5.49918,4.62997 -2.79614,2.93591 -11.98734,7.10247 -18.82228,8.53252 -6.1755,1.29208 -16.53498,0.78339 -23.3985,-1.14895 -6.37655,-1.79525 -11.24436,-0.15906 -13.273,4.46138 -2.15315,4.90402 -4.727,5.60991 -4.727,1.2964 0,-3.76573 3.602,-10.56312 7.88893,-14.88731 3.58264,-3.61378 3.53296,-3.60785 13.61107,-1.62413 10.08195,1.98447 26.98091,-0.57593 33.95316,-5.14433 1.42617,-0.93446 5.05765,-5.40309 8.06994,-9.93029 5.47596,-8.22986 6.67849,-10.75056 4.11291,-8.62132 -0.7502,0.62261 -4.2377,2.11679 -7.75,3.3204 -5.36395,1.83813 -8.78672,2.20847 -21.38601,2.31393 -14.71643,0.12319 -21.14889,1.28242 -25.0413,4.51282 -2.22913,1.85002 -14.91779,7.64476 -18.08615,8.2597 -1.99714,0.38763 -4.9827,-0.0979 -8.26073,-1.34348 -7.13963,-2.71285 -9.8357,-2.47107 -17.72973,1.58995 -8.02646,4.12915 -13.27426,5.10423 -19.07054,3.54345 -3.6973,-0.99558 -4.7685,-0.84662 -9.48966,1.31958 -5.44497,2.49831 -13.43605,9.68545 -22.32189,20.07618 -11.63309,13.60326 -17.16563,17.45602 -25.12756,17.49839 -7.65608,0.0407 -8.02295,4.10228 -0.8183,9.05921 3.01931,2.07734 4.40836,3.78988 4.62968,5.70787 0.21085,1.82731 1.23227,3.17715 3.06618,4.05206 1.5125,0.72157 2.75,1.90171 2.75,2.62253 0,1.90614 3.91308,6.58029 5.50886,6.58029 1.01496,0 1.25425,-1.16756 0.9357,-4.56569 -0.69241,-7.3865 2.67332,-12.15334 10.54113,-14.92926 l 4.3864,-1.54761 3.56395,3.40305 c 5.81305,5.55059 7.062,5.89133 14.98714,4.08879 3.84125,-0.87367 8.0985,-2.46509 9.46056,-3.53649 2.62671,-2.06617 3.51198,-1.54306 3.8042,2.24788 0.18857,2.44642 -4.95095,14.83933 -6.15409,14.83933 -0.38116,0 -3.4429,2.48849 -6.80386,5.52999 -4.04955,3.66463 -6.94981,7.36256 -8.59805,10.96279 -1.87817,4.10245 -3.15151,5.59952 -5.20001,6.11366 -3.63436,0.91217 -7.7079,-0.62724 -8.91906,-3.37056 C 600.96995,486.00615 600.1467,485 599.68342,485 c -1.17988,0 0.25957,6.18172 1.86501,8.00927 0.86751,0.98754 1.13552,2.92817 0.77529,5.61386 -0.47069,3.50931 -0.21177,4.34188 1.78538,5.74073 1.28475,0.89988 3.82662,1.63614 5.64859,1.63614 1.82197,0 4.41726,0.72375 5.76731,1.60833 2.79189,1.82932 2.92206,1.65115 3.90024,-5.33827 1.21639,-8.69157 10.53208,-20.65683 19.73989,-25.3543 7.10218,-3.62327 17.24613,-5.11399 29.852,-4.38697 l 11.51712,0.66423 2.69959,-2.69959 c 3.61114,-3.61114 6.95957,-12.80473 6.62792,-18.19789 -0.14521,-2.36131 0.27053,-4.82783 0.92387,-5.48117 1.82883,-1.82883 6.078,2.75842 7.39316,7.98141 0.60584,2.40601 1.72154,4.61248 2.47933,4.90327 1.91761,0.73586 7.25326,-1.5578 10.90917,-4.68957 5.0819,-4.35331 16.37822,-6.71657 38.51651,-8.05789 10.77109,-0.6526 22.47109,-0.88638 26,-0.51951 8.84977,0.92004 24.60271,3.5164 27.22849,4.48774 1.4551,0.53828 2.50245,0.3556 3.17889,-0.55446 0.83613,-1.12489 1.43678,-1.13413 3.50882,-0.0539 1.375,0.7168 6.55,2.54925 11.5,4.07211 4.95,1.52286 15.75,5.53716 24,8.92067 14.82609,6.08052 15.09434,6.24649 23.13743,14.31499 11.23833,11.27385 12.74639,15.20267 12.81306,33.38081 0.0573,15.61887 -1.33877,21.32784 -7.26581,29.71258 -2.02657,2.86691 -7.65526,10.92386 -12.5082,17.90433 -18.39426,26.45834 -26.90512,34.45431 -54.67648,51.36863 -3.025,1.8424 -7.75,4.76425 -10.5,6.49301 -2.75,1.72876 -8.825,4.84927 -13.5,6.93446 -4.675,2.08519 -10.525,5.01986 -13,6.52149 -2.475,1.50162 -5.65007,3.0173 -7.05572,3.36816 -1.40564,0.35085 -4.71311,1.59224 -7.34991,2.75862 l -4.7942,2.1207 2.82047,2.94394 c 1.55126,1.61917 6.17347,5.51572 10.27157,8.65901 4.0981,3.14329 8.83635,7.12658 10.52944,8.85176 3.97855,4.05394 7.56413,5.52399 7.59366,3.11331 z M 577.17468,446.31549 c 0.36543,-1.91436 7.20234,-4.2718 8.53216,-2.94199 1.51683,1.51684 -1.51569,4.13548 -5.14405,4.44199 -3.15517,0.26653 -3.68089,0.0338 -3.38811,-1.5 z m 41.14099,-12.39982 c -1.8141,-1.8141 -0.38105,-4.43214 3.50086,-6.39576 2.02591,-1.02478 7.14591,-4.07627 11.37778,-6.78109 6.12716,-3.9162 8.59483,-4.93146 12.11561,-4.98469 5.59698,-0.0846 11.65951,3.79309 16.51945,10.56611 2.9986,4.17898 3.26856,5.0104 2.02924,6.24972 -1.23932,1.23932 -2.22298,1.14153 -7.39405,-0.73512 -3.6589,-1.32785 -8.4772,-2.19391 -12.46456,-2.24042 -8.06978,-0.0941 -19.93488,2.03667 -22.06246,3.96211 -1.91166,1.73002 -2.22038,1.76063 -3.62187,0.35914 z m 38.51039,-7.78273 C 653.65967,422.23011 648.83741,419 646.17722,419 c -2.90749,0 -9.93113,3.3674 -13.67722,6.55738 l -3,2.55465 3.5,-0.5639 c 9.04122,-1.45666 11.91911,-1.48909 17.5,-0.1972 8.76023,2.02786 8.93252,1.99468 6.32606,-1.21799 z m -16.71652,231.78394 c -5.82777,-2.33151 -10.12928,-4.6115 -17.40975,-9.2279 -5.38245,-3.41292 -9.20544,-5.10436 -12.33382,-5.45698 -5.79431,-0.6531 -7.3079,-3.44584 -3.91955,-7.232 2.35789,-2.63473 5.80081,-7.58308 12.17601,-17.5 3.91919,-6.0965 35.05894,-37.42453 45.37757,-45.65193 14.46284,-11.53173 25.4375,-16.71965 43.18637,-20.41497 9.95047,-2.07168 14.4067,-2.42956 30,-2.40924 10.0725,0.0131 20.11363,0.46176 22.31363,0.99697 2.2,0.53522 15.51995,1.65068 29.5999,2.4788 16.54798,0.97329 27.33253,2.05754 30.5,3.06641 2.69505,0.8584 7.3751,2.16791 10.4001,2.91002 3.025,0.7421 7.75,2.1071 10.5,3.03333 2.75,0.92623 5.5625,1.8514 6.25,2.05594 2.44025,0.72602 1.21381,4.3771 -2.3991,7.14204 -2.00701,1.53595 -4.88498,3.91763 -6.39548,5.29263 -8.26862,7.52684 -20.10908,17 -21.24824,17 -0.36759,0 -3.06167,1.53099 -5.98684,3.4022 -3.47949,2.2258 -5.82018,3.12509 -6.76941,2.6008 -2.52241,-1.39322 -26.83669,-7.03042 -35.14769,-8.14891 -4.44813,-0.59862 -15.79034,-0.8734 -25.64,-0.62115 -15.02832,0.38488 -19.30417,0.86653 -28.66324,3.22876 -12.79535,3.22953 -12.36983,3.03352 -22.90462,10.55063 -13.27739,9.47409 -28.67381,25.39747 -36.6201,37.87347 -6.34144,9.95634 -10.86332,16.12967 -11.75697,16.05081 -0.39507,-0.0349 -1.79402,-0.49374 -3.10877,-1.01973 z m 7.34465,-8.56068 c 1.9502,-2.55409 3.54581,-5.05378 3.54581,-5.55487 0,-1.53156 7.48899,-12.03394 11.98063,-16.80133 14.53169,-15.42384 20.21096,-20.60052 27.76029,-25.30359 10.0477,-6.25951 14.47433,-8.65348 16.92162,-9.15141 1.0106,-0.20561 5.21246,-1.12297 9.33746,-2.03855 19.33263,-4.29109 46.66667,-4.0588 66,0.56088 20.52871,4.90532 24.96809,4.97159 31.79635,0.47465 9.0313,-5.94782 27.70365,-21.73059 27.70365,-23.41647 0,-1.14157 -2.47073,-2.39273 -8.5,-4.30433 -18.49696,-5.86454 -21.415,-6.39839 -40,-7.31804 -16.9453,-0.83851 -36.06067,-2.4226 -37.11782,-3.07596 -1.65265,-1.02139 -40.93403,-0.52915 -45.88218,0.57496 -15.1306,3.37618 -20.42582,5.2174 -26.79862,9.31822 -2.36424,1.52136 -5.28924,3.16871 -6.5,3.66079 -5.2933,2.15128 -12.47383,8.22715 -31.51485,26.66654 -17.55329,16.99868 -21.32393,21.20837 -27.75,30.98115 C 614.34644,630.84906 611,636.62156 611,637.4566 c 0,0.85655 2.94185,3.06789 6.75,5.07386 3.7125,1.95558 9.32123,5.0751 12.46384,6.93228 10.09646,5.96666 12.615,5.9511 17.24035,-0.10654 z"
         id="path16"
         sodipodi:nodetypes="ssssssssssssssssssssssssssssssssscsssssssssssssscssssssssssssssssssssssssssssssssssssssscsssssssssssssssssssssssssssssssssssssssssssssssssssssssssssssssssssssssssssscsssssssssssssssssssssssssssssssssssssssssssssssssssscsssssssssssssssssssssssssssssssssssscscsssssssssssssssscssssssssssssssssssccsssssssssssssssssssccssssssssssssssssssssssssssssssssssscsssssssssssssssssssssssssssssssssssssssssssssssssssssssssssssssssssssssssssssssssssssssssssssssssssssssssssssssssssssssssssssssssssssssssssssssssssssssssssssssssssssssssssssssssssssssssssssssssssssssssssscssssssscsssssssssssssssssssssssssscsssssssssssssssscssssssssssssssssssssssssssssssssssssssssssssssssssssssssssssssssssssssssssssssssssssssssssssssssssssssssssssssssssssssssssssssssssssssssssssssssssssssssssssssssssssssssssssssssssssssssssssssssssssssssssssssssssssssssssssssssscsssssssssssssssssscssssssssssssssssssssssscsssssssssssssssssssssscssssssssssssssssssssssssssssssssssssssssssssssssss" />
    </g>
  </g>
</svg>
