<?xml version="1.0" encoding="UTF-8" standalone="no"?>
<svg
   xmlns:dc="http://purl.org/dc/elements/1.1/"
   xmlns:cc="http://creativecommons.org/ns#"
   xmlns:rdf="http://www.w3.org/1999/02/22-rdf-syntax-ns#"
   xmlns:svg="http://www.w3.org/2000/svg"
   xmlns="http://www.w3.org/2000/svg"
   xmlns:sodipodi="http://sodipodi.sourceforge.net/DTD/sodipodi-0.dtd"
   xmlns:inkscape="http://www.inkscape.org/namespaces/inkscape"
   version="1.1"
   id="svg2"
   width="1043.5688"
   height="1045.5787"
   viewBox="0 0 1043.5688 1045.5787"
   sodipodi:docname="Conval.svg"
   inkscape:version="1.0.1 (3bc2e813f5, 2020-09-07)">
  <metadata
     id="metadata8">
    <rdf:RDF>
      <cc:Work
         rdf:about="">
        <dc:format>image/svg+xml</dc:format>
        <dc:type
           rdf:resource="http://purl.org/dc/dcmitype/StillImage" />
        <dc:title></dc:title>
      </cc:Work>
    </rdf:RDF>
  </metadata>
  <defs
     id="defs6" />
  <sodipodi:namedview
     pagecolor="#ffffff"
     bordercolor="#666666"
     borderopacity="1"
     objecttolerance="10"
     gridtolerance="10"
     guidetolerance="10"
     inkscape:pageopacity="0"
     inkscape:pageshadow="2"
     inkscape:window-width="1920"
     inkscape:window-height="1057"
     id="namedview4"
     showgrid="false"
     inkscape:pagecheckerboard="true"
     inkscape:zoom="0.69296465"
     inkscape:cx="645.34439"
     inkscape:cy="478.28654"
     inkscape:window-x="-8"
     inkscape:window-y="-8"
     inkscape:window-maximized="1"
     inkscape:current-layer="g10" />
  <g
     inkscape:groupmode="layer"
     inkscape:label="Image"
     id="g10"
     transform="translate(-230.30974,-238.1113)">
    <circle
       style="fill:#ffffff;fill-opacity:1;fill-rule:evenodd"
       id="path22"
       cx="751.8421"
       cy="757.61438"
       r="419.93484" />
    <g
       id="g14">
      <path
         style="fill:#fdb300"
         d="m 723.5,1223.4775 c -60.79361,-5.5836 -119.57261,-21.3633 -171,-45.9063 -52.51772,-25.0634 -109.29035,-68.7703 -148,-113.9391 C 361.33775,1013.2678 333.69717,964.7995 313.82145,904.62559 298.98083,859.69547 289.01004,801.97763 289.01004,761 c 0,-40.97763 9.97079,-98.69547 24.81141,-143.62559 19.87572,-60.17391 47.5163,-108.64218 90.67855,-159.00651 38.70965,-45.16877 95.48228,-88.87565 148,-113.93905 52.12525,-24.8761 110.74096,-40.51518 172.15875,-45.93316 21.26497,-1.87589 35.41753,-1.87589 56.6825,0 61.41779,5.41798 120.0335,21.05706 172.15875,45.93316 41.85806,19.97621 91.0443,55.14785 125.9838,90.08737 34.9395,34.93952 70.1111,84.12572 90.0874,125.98378 21.4698,44.98776 36.4193,96.21276 43.4451,148.86637 2.8978,21.71693 2.8978,81.55033 0,103.26726 -7.0258,52.65361 -21.9753,103.87861 -43.4451,148.86637 -19.9763,41.8581 -55.1479,91.0443 -90.0874,125.9838 -34.9395,34.9395 -84.12574,70.1111 -125.9838,90.0874 -71.64955,34.1938 -161.74142,52.1754 -230,45.9063 z m 50.84125,-49.9732 c 46.02381,-4.06 82.00945,-12.0138 123.15875,-27.2216 44.72683,-16.5299 85.44011,-40.9451 125.5,-75.2606 40.997,-35.1183 81.7211,-88.97932 103.5797,-136.99271 18.5972,-40.84966 30.8762,-84.61986 36.8867,-131.48785 2.1198,-16.52972 2.1198,-66.55336 0,-83.08308 -6.0105,-46.86799 -18.2895,-90.63819 -36.8867,-131.48785 C 1104.7505,540.02173 1064.2315,486.36159 1023.6392,451.64419 981.89236,415.93941 943.01714,392.53926 897.5,375.71728 854.81692,359.94269 816.49999,351.73286 767.75,347.91689 c -32.67502,-2.55768 -86.64539,4.95572 -130.75,18.20216 -59.09517,17.74872 -105.22068,43.25902 -154.63918,85.52514 -40.59235,34.7174 -81.1113,88.37754 -102.94052,136.32642 -22.26142,48.8982 -34.90775,99.56861 -39.50341,158.27939 -2.55768,32.67502 4.95572,86.64539 18.20216,130.75 17.74872,59.09517 43.25902,105.22068 85.52514,154.6392 34.7174,40.5923 88.37754,81.1113 136.32642,102.9405 47.58991,21.6658 98.23083,34.5159 155.02939,39.3386 14.76252,1.2535 21.20763,1.1857 39.34125,-0.414 z M 823.5,1044.4443 C 790.22232,1037.5414 763.34348,1016.837 749.28496,987.27735 744.65354,977.53928 740,961.32859 740,954.93305 c 0,-3.74046 0.0814,-3.82271 4.429,-4.47467 2.43595,-0.3653 4.85169,-0.40294 5.3683,-0.0837 0.51662,0.31928 1.25462,3.40309 1.64001,6.85289 1.32276,11.84079 7.78431,27.63261 16.0691,39.27238 4.93656,6.93565 15.85566,17.66575 22.77544,22.38135 24.69579,16.829 55.95005,20.5483 84.51438,10.0573 27.10616,-9.9554 47.88379,-32.99322 56.40765,-62.54362 1.9646,-6.81084 2.26798,-10.09223 2.20918,-23.89503 -0.0616,-14.45238 -0.33185,-16.86576 -2.79437,-24.95066 -9.59397,-31.4986 -34.18075,-55.38127 -65.61869,-63.7395 -10.96082,-2.9141 -32.67025,-3.16306 -43.36281,-0.49727 -21.87003,5.45245 -41.58578,18.63568 -54.19381,36.23751 -3.7793,5.27622 -5.02339,6.26751 -9.72639,7.75 -8.71478,2.74709 -9.16858,2.5246 -6.31924,-3.0983 3.73792,-7.37644 13.56984,-20.07132 20.49054,-26.45721 12.55689,-11.58653 29.14806,-20.6349 45.61171,-24.87538 11.83586,-3.04852 35.94068,-3.35553 47.27262,-0.60208 19.94435,4.84609 36.51236,14.17765 50.58533,28.49102 12.58333,12.79829 20.89463,26.93154 26.31123,44.74187 2.5599,8.4172 2.73715,10.19798 2.73715,27.5 0,17.33899 -0.17211,19.05857 -2.74237,27.40039 -5.46905,17.74989 -12.52931,30.09476 -24.50153,42.84096 -13.34068,14.2031 -29.83605,24.2376 -48.16243,29.2983 -11.95907,3.3024 -34.26116,4.236 -45.5,1.9047 z M 714.0283,918.92759 c -13.69554,-2.44028 -28.23624,-8.33912 -40.5283,-16.44141 -8.49414,-5.5989 -22.42962,-19.69535 -27.95741,-28.28035 -8.90596,-13.83151 -15.88433,-32.97062 -16.66954,-45.71842 l -0.3072,-4.98741 4.15807,-0.87963 c 6.10371,-1.29124 6.88478,-0.63826 7.61707,6.3679 1.43453,13.72488 7.53541,29.48181 16.01222,41.35525 6.03487,8.45302 18.7164,20.29542 27.2064,25.40617 14.07599,8.47338 25.85937,11.93115 43.94039,12.8941 9.30651,0.49565 13.90789,0.25882 20.5,-1.05509 23.89358,-4.76236 42.68328,-16.57902 57.49118,-36.15565 4.94169,-6.53311 5.80537,-7.20619 11.43356,-8.91026 3.34843,-1.01383 6.35347,-1.57791 6.67786,-1.25352 1.09021,1.09021 -5.80063,12.61608 -12.53056,20.95905 -13.6659,16.94138 -31.94594,28.64113 -54.57204,34.92766 -8.20577,2.27992 -33.66,3.34169 -42.4717,1.77161 z M 822.04668,802.38942 c -5.81476,-36.04547 -32.7634,-65.32245 -68.54668,-74.46906 -10.5779,-2.70384 -30.10712,-3.20619 -40,-1.02893 -22.98454,5.05852 -42.29834,17.26123 -55.57135,35.11072 -4.68477,6.30007 -5.44313,6.87866 -11.09435,8.46431 -3.56394,0.99999 -6.43455,1.33329 -6.95976,0.80808 -1.41872,-1.41872 10.75872,-18.99485 18.58919,-26.83043 33.34138,-33.36317 84.9817,-39.8676 125.57653,-15.81716 10.26998,6.08446 24.95173,19.8297 31.86954,29.83667 9.26891,13.40795 16.01083,30.57303 17.72894,45.1383 0.56105,4.75635 0.44127,5.14488 -1.76846,5.73634 -1.30366,0.34894 -3.77104,0.64058 -5.48308,0.64809 -3.10545,0.0136 -3.1157,-0.004 -4.34052,-7.59693 z M 615,791.42261 c -1.375,-0.24526 -5.2,-0.91418 -8.5,-1.48649 -20.17609,-3.49911 -40.35953,-14.6227 -55.44037,-30.55458 -13.54459,-14.30892 -22.28922,-31.04602 -26.26087,-50.26292 -2.62329,-12.69288 -2.07893,-34.55542 1.15637,-46.44194 7.80827,-28.68759 27.96292,-53.2303 54.54487,-66.42035 7.15405,-3.54986 16.89594,-6.97619 22.28528,-7.83799 l 3.89743,-0.62322 1.30393,4.65716 c 0.75935,2.71213 0.93002,4.98592 0.40864,5.44435 -0.4924,0.43296 -4.04528,1.61204 -7.89528,2.62019 -16.28948,4.26552 -33.78844,15.70167 -45.66683,29.84479 -21.09643,25.11867 -26.73032,63.00341 -13.93873,93.73017 19.28342,46.32086 72.95953,68.75448 119.34285,49.87865 15.43919,-6.28302 31.68373,-18.9496 40.24591,-31.38151 2.75093,-3.99423 4.57518,-5.57682 7.33887,-6.3667 6.2255,-1.77926 10.17793,-2.41595 10.17793,-1.63953 0,1.4064 -5.3397,9.93688 -10.72072,17.12696 -17.93244,23.9612 -46.94116,38.79662 -77.77928,39.77728 -6.6,0.20988 -13.125,0.18094 -14.5,-0.0643 z M 720.29728,682.30046 c -2.40492,-0.46638 -2.79741,-1.36781 -3.80161,-8.73131 -1.62242,-11.89663 -8.52165,-28.23071 -16.56088,-39.20828 -5.69886,-7.78179 -14.77023,-16.43308 -22.89378,-21.83361 -3.6365,-2.41754 -7.33087,-5.21266 -8.20971,-6.21139 -2.56914,-2.91961 -7.88914,-12.9247 -7.22538,-13.58846 0.89296,-0.89296 10.83965,3.72374 19.0682,8.85038 8.72517,5.43606 20.92601,16.66159 27.39046,25.20094 5.73918,7.58128 12.89625,21.28541 15.78325,30.22127 2.42941,7.51951 5.40254,23.78588 4.58832,25.1033 -0.55806,0.90297 -4.06173,0.98784 -8.13887,0.19716 z m 34.86101,-28.16648 C 753.5259,648.68555 753.69789,647 755.88623,647 c 2.83449,0 16.85435,-4.87349 23.23519,-8.07686 8.05989,-4.0463 20.86606,-13.98049 26.64977,-20.67314 16.32165,-18.88671 23.94455,-40.41885 22.92306,-64.75 -0.61864,-14.73562 -3.12499,-24.87892 -9.1425,-37 -27.77478,-55.94678 -101.01329,-68.80817 -145.89462,-25.6205 -42.36387,40.76521 -36.35265,110.25264 12.31161,142.31743 7.70138,5.07443 9.38813,6.94153 13.59908,15.05307 3.09928,5.97014 2.09149,6.11332 -7.84278,1.11428 -52.36921,-26.35276 -72.71608,-88.57615 -45.80073,-140.0646 13.37525,-25.58655 37.93312,-45.02558 66.07569,-52.30289 12.97636,-3.35552 31.5554,-3.79734 44.79443,-1.06524 21.49403,4.43566 36.46609,12.47454 52.27622,28.06845 20.98245,20.69549 30.90308,44.13024 30.90308,73 0,38.33268 -20.56335,72.46967 -55.03092,91.35623 C 778.7099,651.77156 761.2758,658 757.94882,658 c -1.02845,0 -2.06071,-1.4301 -2.79053,-3.86602 z"
         id="path20" />
      <path
         style="fill:#556125"
         d="m 735.76791,1283.2753 c 1.79735,-0.2226 4.49735,-0.218 6,0.01 1.50265,0.2281 0.0321,0.4102 -3.26791,0.4046 -3.3,-0.01 -4.52944,-0.1923 -2.73209,-0.4148 z m 29,0 c 1.79735,-0.2226 4.49735,-0.218 6,0.01 1.50265,0.2281 0.0321,0.4102 -3.26791,0.4046 -3.3,-0.01 -4.52944,-0.1923 -2.73209,-0.4148 z M 715.75,1282.3377 c 0.6875,-0.2774 1.8125,-0.2774 2.5,0 0.6875,0.2774 0.125,0.5044 -1.25,0.5044 -1.375,0 -1.9375,-0.227 -1.25,-0.5044 z m 72,0 c 0.6875,-0.2774 1.8125,-0.2774 2.5,0 0.6875,0.2774 0.125,0.5044 -1.25,0.5044 -1.375,0 -1.9375,-0.227 -1.25,-0.5044 z m -83.9375,-1.0208 c 0.72187,-0.2889 1.58438,-0.2534 1.91667,0.079 0.33229,0.3323 -0.25834,0.5687 -1.3125,0.5253 -1.16495,-0.048 -1.4019,-0.285 -0.60417,-0.6042 z m 97,0 c 0.72187,-0.2889 1.58438,-0.2534 1.91667,0.079 0.33229,0.3323 -0.25834,0.5687 -1.3125,0.5253 -1.16495,-0.048 -1.4019,-0.285 -0.60417,-0.6042 z m -115,-2 c 0.72187,-0.2889 1.58438,-0.2534 1.91667,0.079 0.33229,0.3323 -0.25834,0.5687 -1.3125,0.5253 -1.16495,-0.048 -1.4019,-0.285 -0.60417,-0.6042 z m 133,0 c 0.72187,-0.2889 1.58438,-0.2534 1.91667,0.079 0.33229,0.3323 -0.25834,0.5687 -1.3125,0.5253 -1.16495,-0.048 -1.4019,-0.285 -0.60417,-0.6042 z M 712.5,1257.4775 c -63.69566,-5.8501 -120.99519,-21.6749 -177,-48.8831 -23.01618,-11.1817 -36.09775,-18.6152 -56.5,-32.1058 C 421.80325,1138.6684 375.3316,1092.1968 337.51137,1035 324.02079,1014.5977 316.58726,1001.5162 305.40556,978.5 248.52787,861.42415 239.4053,728.73467 279.82145,606.37441 300.7723,542.94553 332.56252,486.70577 376.49417,435.35168 404.95432,402.08308 440.31713,371.08966 479,345.51137 c 20.40225,-13.49058 33.48382,-20.92411 56.5,-32.10581 117.07585,-56.87769 249.76533,-66.00026 372.12559,-25.58411 63.42888,20.95085 119.66861,52.74107 171.02271,96.67272 40.368,34.53345 79.2126,81.62984 106.4025,129.00583 26.5342,46.23346 47.8063,104.09186 57.4367,156.22268 6.0088,32.52683 6.5125,39.58669 6.5125,91.27732 0,51.69063 -0.5037,58.75049 -6.5125,91.27732 -9.6304,52.13082 -30.9025,109.98922 -57.4367,156.22268 -38.5415,67.1552 -92.8437,124.8717 -158.0508,167.9886 -20.4023,13.4906 -33.48382,20.9241 -56.5,32.1058 -56.69121,27.5417 -113.86829,43.2385 -178.15875,48.9099 -20.32231,1.7927 -60.17563,1.7793 -79.84125,-0.027 z m 73.84125,-19.9732 c 51.54219,-4.5468 97.62379,-15.3695 144.65875,-33.9744 47.0571,-18.6137 91.2429,-45.7338 133.6481,-82.0299 47.5347,-40.6867 91.1049,-97.2123 117.9328,-153 22.2994,-46.37068 37.2778,-97.22497 44.4354,-150.86637 C 1228.7256,804.8236 1229,796.98994 1229,761 c 0,-35.98994 -0.2744,-43.8236 -1.9837,-56.63363 -7.1576,-53.6414 -22.136,-104.49569 -44.4354,-150.86637 -26.8279,-55.7877 -70.3981,-112.31333 -117.9328,-153 C 1022.2429,364.20394 978.0571,337.08377 931,318.47009 883.96504,299.86516 837.88344,289.04249 786.34125,284.49569 710.61366,277.81537 620.429,295.38615 545.5,331.41905 489.7123,358.24702 433.18667,401.81715 392.5,449.35192 356.20394,491.75709 329.08377,535.9429 310.47009,583 c -18.60493,47.03496 -29.4276,93.11656 -33.9744,144.65875 -6.68032,75.72759 10.89046,165.91225 46.92336,240.84125 21.70165,45.1277 55.53698,92.4556 92.58119,129.4998 37.04421,37.0442 84.37204,70.8795 129.49976,92.5811 74.79901,35.9704 165.24503,53.5921 240.84125,46.9234 z M 818.5,1067.0259 c -24.64352,-4.9437 -46.73856,-16.483 -63.96056,-33.404 -15.25751,-14.9908 -25.41271,-31.1119 -32.00093,-50.8005 -3.71315,-11.09661 -7.31824,-30.51825 -5.89371,-31.75117 0.47036,-0.40709 2.98063,-0.54508 5.57838,-0.30664 4.56855,0.41934 4.74068,0.55307 5.25786,4.08497 5.20853,35.57006 21.55561,63.31004 48.51896,82.33364 31.76536,22.4117 75.2284,27.1079 110.79775,11.9717 27.99856,-11.9144 51.06565,-35.2763 62.02784,-62.82067 6.79075,-17.06287 7.6715,-21.99822 7.64385,-42.83323 -0.0281,-21.13673 -0.85828,-26.10898 -7.04545,-42.19509 -13.39398,-34.82318 -42.2383,-60.2773 -79.35022,-70.02384 -12.91014,-3.39053 -33.48641,-4.20641 -46.97494,-1.86261 -36.3695,6.31963 -67.50968,29.41169 -83.73334,62.09264 L 734.65495,901 h -5.32747 c -6.78766,0 -6.80183,-0.50875 -0.379,-13.60094 17.58222,-35.83932 52.54835,-62.06951 91.88637,-68.92949 10.97476,-1.91384 31.57195,-1.8761 42.77978,0.0784 49.24932,8.58836 89.37877,46.03179 101.22763,94.45205 2.83773,11.59635 3.58756,18.4991 3.4761,32 -0.27958,33.86232 -14.40255,65.77008 -39.71735,89.73258 -18.21305,17.2402 -40.54498,28.4572 -65.22317,32.7607 -11.85072,2.0666 -33.36317,1.8426 -44.87784,-0.4674 z M 720,942.88139 C 671.68843,938.89659 628.4402,905.23935 612.2157,859 c -3.58861,-10.22743 -6.07031,-22.16968 -6.44205,-31 l -0.27365,-6.5 4.5,0.34017 c 2.475,0.18709 4.81234,0.63709 5.19408,1 0.38175,0.36291 1.3658,5.15983 2.18679,10.65983 3.90596,26.16698 15.91296,49.24032 35.03269,67.32084 17.13602,16.20463 37.93253,26.36341 61.83994,30.20787 12.17973,1.95858 33.89869,0.78919 46.2465,-2.49001 19.83238,-5.26686 37.41422,-15.41256 52.02018,-30.01852 9.82671,-9.82671 16.04498,-18.50128 22.41566,-31.27018 l 4.11611,-8.25 h 5.47402 c 3.77277,0 5.47403,0.39667 5.47403,1.27632 0,0.70198 -2.44692,6.25014 -5.4376,12.32924 C 821.33533,919.81888 772.74621,947.23197 720,942.88139 Z M 606.5,813.6055 C 533.31795,801.47934 485.95034,731.05136 502.92021,659.59911 c 8.61815,-36.28702 33.46294,-67.29923 67.57979,-84.35563 8.47864,-4.23882 23.8654,-9.34418 28.81385,-9.56049 L 603.5,565.5 l 0.29292,5 0.29291,5 -8.63248,2.22881 c -4.74786,1.22584 -12.85978,4.2313 -18.02647,6.67879 -31.29144,14.82289 -54.11686,42.03148 -62.9954,75.0924 -3.5381,13.17477 -4.46057,35.29027 -2.05099,49.17071 3.01239,17.35296 11.32225,36.24511 22.13773,50.32929 5.63558,7.33879 18.70823,19.72108 26.17108,24.789 58.29637,39.58832 138.15671,18.29689 168.93326,-45.039 l 2.79408,-5.75 h 4.82306 c 3.18517,0 5.00344,0.47003 5.3542,1.38409 0.824,2.14734 -4.9779,14.00044 -12.06075,24.63971 -17.95005,26.96307 -46.98463,46.51485 -79.53315,53.55731 -10.06151,2.177 -34.19166,2.73247 -44.5,1.02439 z m 243.36074,-4.32737 -3.63926,-0.38566 -0.69531,-6.49273 c -2.48962,-23.24766 -15.00182,-48.6803 -32.56873,-66.20008 -55.526,-55.37704 -148.27597,-41.10351 -183.96265,28.31047 L 624.63003,773 l -4.06501,-0.0153 c -6.67303,-0.0251 -7.26006,-0.93503 -4.60907,-7.14394 7.51929,-17.611 23.15971,-37.24103 39.39763,-49.44729 24.03977,-18.07103 51.49263,-26.44835 82.14642,-25.06722 30.66773,1.38176 58.51864,13.29511 80.76201,34.5463 19.09126,18.23968 31.54327,40.63654 36.72238,66.05087 2.58901,12.70448 2.66962,18.13941 0.26561,17.90849 -0.9625,-0.0925 -3.38767,-0.34165 -5.38926,-0.55377 z M 746.5,684.19789 c -2.2,-0.18235 -4.30549,-0.63897 -4.67886,-1.01472 -0.37338,-0.37574 -1.18848,-4.44059 -1.81134,-9.03298 -2.31981,-17.10397 -9.62306,-36.3276 -19.10688,-50.29314 -13.34037,-19.64458 -35.31087,-36.31209 -58.34385,-44.2615 -7.25658,-2.50448 -7.79225,-3.10061 -8.84695,-9.84555 -0.70063,-4.48068 -0.0855,-4.61363 8.78788,-1.89946 41.50318,12.69485 74.96537,47.67027 85.44661,89.31068 3.02842,12.03145 4.83534,26.33063 3.40922,26.97907 -0.47071,0.21402 -2.65583,0.23994 -4.85583,0.0576 z m 13.23405,-3.79717 C 759.33032,679.99699 759,677.58184 759,675.03371 v -4.63295 l 9.75,-2.72362 c 42.63533,-11.90996 76.05325,-49.89028 82.31572,-93.55391 1.65052,-11.5079 0.66087,-34.34883 -1.91177,-44.12323 -11.4364,-43.45106 -42.53191,-74.26067 -86.08607,-85.29458 -7.27814,-1.84383 -11.27745,-2.16261 -26.56788,-2.11773 -16.40731,0.0482 -18.88483,0.29461 -28,2.78525 -11.33667,3.09765 -27.25865,10.35138 -36.50718,16.63193 -3.43577,2.33319 -9.63851,7.44908 -13.78386,11.36865 -37.0563,35.0379 -46.67401,90.04185 -23.71496,135.62648 5.53989,10.99931 10.88737,18.42768 20.27826,28.16924 12.44377,12.90844 28.02302,22.85615 45.22774,28.87894 3.575,1.25149 6.83354,2.55866 7.24119,2.90482 0.40766,0.34617 1.14341,2.78233 1.63501,5.41371 0.67878,3.63333 0.58492,4.90285 -0.39012,5.27701 -1.98237,0.7607 -18.38192,-5.06652 -28.18209,-10.0139 -29.6334,-14.95968 -53.00786,-42.12243 -63.26913,-73.52313 -7.22357,-22.10498 -7.99956,-48.13698 -2.10367,-70.57068 12.69056,-48.28716 52.91882,-85.17763 101.47176,-93.0525 68.14781,-11.053 132.48114,34.35313 145.05203,102.37696 2.0235,10.94961 2.02237,33.33925 -0.002,44.27906 -7.29632,39.4253 -31.9531,72.35104 -68.03291,90.84863 -11.58381,5.93884 -31.88442,12.21393 -33.68579,10.41256 z M 412.87244,1158.25 c -1.24387,-1.5861 -1.2085,-1.6214 0.37756,-0.3776 0.9625,0.7549 1.75,1.5424 1.75,1.75 0,0.8231 -0.82119,0.2933 -2.12756,-1.3724 z M 1091,1159.6224 c 0,-0.2076 0.7875,-0.9951 1.75,-1.75 1.5861,-1.2438 1.6214,-1.2085 0.3776,0.3776 -1.3064,1.6657 -2.1276,2.1955 -2.1276,1.3724 z M 404.87244,1151.25 c -1.24387,-1.5861 -1.2085,-1.6214 0.37756,-0.3776 1.66575,1.3064 2.19548,2.1276 1.37244,2.1276 -0.20765,0 -0.99515,-0.7875 -1.75,-1.75 z M 1099,1152.6224 c 0,-0.2076 0.7875,-0.9951 1.75,-1.75 1.5861,-1.2438 1.6214,-1.2085 0.3776,0.3776 -1.3064,1.6657 -2.1276,2.1955 -2.1276,1.3724 z M 392,1139.5 c -2.42903,-2.475 -4.19142,-4.5 -3.91642,-4.5 0.275,0 2.48739,2.025 4.91642,4.5 2.42903,2.475 4.19142,4.5 3.91642,4.5 -0.275,0 -2.48739,-2.025 -4.91642,-4.5 z m 720.9582,0.25 c 4.144,-4.4152 5.0418,-5.2091 5.0418,-4.4582 0,0.1605 -2.1375,2.298 -4.75,4.75 l -4.75,4.4582 z M 374,1121.5 c -2.42903,-2.475 -4.19142,-4.5 -3.91642,-4.5 0.275,0 2.48739,2.025 4.91642,4.5 2.42903,2.475 4.19142,4.5 3.91642,4.5 -0.275,0 -2.48739,-2.025 -4.91642,-4.5 z m 756.9582,0.25 c 4.144,-4.4152 5.0418,-5.2091 5.0418,-4.4582 0,0.1605 -2.1375,2.298 -4.75,4.75 l -4.75,4.4582 z m -769.08576,-13.5 c -1.24387,-1.5861 -1.2085,-1.6214 0.37756,-0.3776 0.9625,0.7549 1.75,1.5424 1.75,1.75 0,0.8231 -0.82119,0.2933 -2.12756,-1.3724 z M 1142,1109.6224 c 0,-0.2076 0.7875,-0.9951 1.75,-1.75 1.5861,-1.2438 1.6214,-1.2085 0.3776,0.3776 -1.3064,1.6657 -2.1276,2.1955 -2.1276,1.3724 z M 354.87244,1100.25 c -1.24387,-1.5861 -1.2085,-1.6214 0.37756,-0.3776 1.66575,1.3064 2.19548,2.1276 1.37244,2.1276 -0.20765,0 -0.99515,-0.7875 -1.75,-1.75 z M 1149,1101.6224 c 0,-0.2076 0.7875,-0.9951 1.75,-1.75 1.5861,-1.2438 1.6214,-1.2085 0.3776,0.3776 -1.3064,1.6657 -2.1276,2.1955 -2.1276,1.3724 z M 234.07895,827.41667 c 0.048,-1.16495 0.28494,-1.4019 0.60416,-0.60417 0.28887,0.72187 0.25335,1.58438 -0.0789,1.91667 -0.3323,0.33229 -0.56864,-0.25834 -0.52522,-1.3125 z m 1036.99995,0 c 0.048,-1.16495 0.285,-1.4019 0.6042,-0.60417 0.2889,0.72187 0.2534,1.58438 -0.079,1.91667 -0.3323,0.33229 -0.5687,-0.25834 -0.5253,-1.3125 z m -1038.99995,-18 c 0.048,-1.16495 0.28494,-1.4019 0.60416,-0.60417 0.28887,0.72187 0.25335,1.58438 -0.0789,1.91667 -0.3323,0.33229 -0.56864,-0.25834 -0.52522,-1.3125 z m 1040.99995,0 c 0.048,-1.16495 0.285,-1.4019 0.6042,-0.60417 0.2889,0.72187 0.2534,1.58438 -0.079,1.91667 -0.3323,0.33229 -0.5687,-0.25834 -0.5253,-1.3125 z M 231.15789,797 c 0,-1.375 0.22698,-1.9375 0.50439,-1.25 0.27741,0.6875 0.27741,1.8125 0,2.5 -0.27741,0.6875 -0.50439,0.125 -0.50439,-1.25 z m -0.84802,-21.5 c 0.006,-3.3 0.1923,-4.52944 0.41486,-2.73209 0.22256,1.79735 0.21797,4.49735 -0.0102,6 -0.22818,1.50265 -0.41027,0.0321 -0.40466,-3.26791 z m 0,-29 c 0.006,-3.3 0.1923,-4.52944 0.41486,-2.73209 0.22256,1.79735 0.21797,4.49735 -0.0102,6 -0.22818,1.50265 -0.41027,0.0321 -0.40466,-3.26791 z m 0.84802,-21.5 c 0,-1.375 0.22698,-1.9375 0.50439,-1.25 0.27741,0.6875 0.27741,1.8125 0,2.5 -0.27741,0.6875 -0.50439,0.125 -0.50439,-1.25 z m 0.92106,-12.58333 c 0.048,-1.16495 0.28494,-1.4019 0.60416,-0.60417 0.28887,0.72187 0.25335,1.58438 -0.0789,1.91667 -0.3323,0.33229 -0.56864,-0.25834 -0.52522,-1.3125 z m 1040.99995,0 c 0.048,-1.16495 0.285,-1.4019 0.6042,-0.60417 0.2889,0.72187 0.2534,1.58438 -0.079,1.91667 -0.3323,0.33229 -0.5687,-0.25834 -0.5253,-1.3125 z m -1038.99995,-18 c 0.048,-1.16495 0.28494,-1.4019 0.60416,-0.60417 0.28887,0.72187 0.25335,1.58438 -0.0789,1.91667 -0.3323,0.33229 -0.56864,-0.25834 -0.52522,-1.3125 z m 1036.99995,0 c 0.048,-1.16495 0.285,-1.4019 0.6042,-0.60417 0.2889,0.72187 0.2534,1.58438 -0.079,1.91667 -0.3323,0.33229 -0.5687,-0.25834 -0.5253,-1.3125 z M 354,422.62244 c 0,-0.20765 0.7875,-0.99515 1.75,-1.75 1.58606,-1.24387 1.62143,-1.2085 0.37756,0.37756 C 354.82119,422.91575 354,423.44548 354,422.62244 Z M 1149.8724,421.25 c -1.2438,-1.58606 -1.2085,-1.62143 0.3776,-0.37756 1.6657,1.30637 2.1955,2.12756 1.3724,2.12756 -0.2076,0 -0.9951,-0.7875 -1.75,-1.75 z M 361,414.62244 c 0,-0.20765 0.7875,-0.99515 1.75,-1.75 1.58606,-1.24387 1.62143,-1.2085 0.37756,0.37756 C 361.82119,414.91575 361,415.44548 361,414.62244 Z M 1142.8724,413.25 c -1.2438,-1.58606 -1.2085,-1.62143 0.3776,-0.37756 1.6657,1.30637 2.1955,2.12756 1.3724,2.12756 -0.2076,0 -0.9951,-0.7875 -1.75,-1.75 z M 373.95821,400.75 C 378.10217,396.33481 379,395.54091 379,396.29179 c 0,0.16049 -2.1375,2.29799 -4.75,4.75 L 369.5,405.5 Z M 1131,400.5 c -2.429,-2.475 -4.1914,-4.5 -3.9164,-4.5 0.275,0 2.4874,2.025 4.9164,4.5 2.429,2.475 4.1914,4.5 3.9164,4.5 -0.275,0 -2.4874,-2.025 -4.9164,-4.5 z M 391.95821,382.75 C 396.10217,378.33481 397,377.54091 397,378.29179 c 0,0.16049 -2.1375,2.29799 -4.75,4.75 L 387.5,387.5 Z M 1113,382.5 c -2.429,-2.475 -4.1914,-4.5 -3.9164,-4.5 0.275,0 2.4874,2.025 4.9164,4.5 2.429,2.475 4.1914,4.5 3.9164,4.5 -0.275,0 -2.4874,-2.025 -4.9164,-4.5 z M 404,371.62244 c 0,-0.20765 0.7875,-0.99515 1.75,-1.75 1.58606,-1.24387 1.62143,-1.2085 0.37756,0.37756 C 404.82119,371.91575 404,372.44548 404,371.62244 Z M 1099.8724,370.25 c -1.2438,-1.58606 -1.2085,-1.62143 0.3776,-0.37756 1.6657,1.30637 2.1955,2.12756 1.3724,2.12756 -0.2076,0 -0.9951,-0.7875 -1.75,-1.75 z M 412,364.62244 c 0,-0.20765 0.7875,-0.99515 1.75,-1.75 1.58606,-1.24387 1.62143,-1.2085 0.37756,0.37756 C 412.82119,364.91575 412,365.44548 412,364.62244 Z M 1091.8724,363.25 c -1.2438,-1.58606 -1.2085,-1.62143 0.3776,-0.37756 1.6657,1.30637 2.1955,2.12756 1.3724,2.12756 -0.2076,0 -0.9951,-0.7875 -1.75,-1.75 z M 685.8125,242.31689 c 0.72187,-0.28887 1.58438,-0.25335 1.91667,0.0789 0.33229,0.33229 -0.25834,0.56864 -1.3125,0.52522 -1.16495,-0.048 -1.4019,-0.28494 -0.60417,-0.60416 z m 133,0 c 0.72187,-0.28887 1.58438,-0.25335 1.91667,0.0789 0.33229,0.33229 -0.25834,0.56864 -1.3125,0.52522 -1.16495,-0.048 -1.4019,-0.28494 -0.60417,-0.60416 z m -115,-2 c 0.72187,-0.28887 1.58438,-0.25335 1.91667,0.0789 0.33229,0.33229 -0.25834,0.56864 -1.3125,0.52522 -1.16495,-0.048 -1.4019,-0.28494 -0.60417,-0.60416 z m 97,0 c 0.72187,-0.28887 1.58438,-0.25335 1.91667,0.0789 0.33229,0.33229 -0.25834,0.56864 -1.3125,0.52522 -1.16495,-0.048 -1.4019,-0.28494 -0.60417,-0.60416 z M 715.75,239.33772 c 0.6875,-0.27741 1.8125,-0.27741 2.5,0 0.6875,0.27741 0.125,0.50439 -1.25,0.50439 -1.375,0 -1.9375,-0.22698 -1.25,-0.50439 z m 72,0 c 0.6875,-0.27741 1.8125,-0.27741 2.5,0 0.6875,0.27741 0.125,0.50439 -1.25,0.50439 -1.375,0 -1.9375,-0.22698 -1.25,-0.50439 z m -51.98209,-1.06245 c 1.79735,-0.22256 4.49735,-0.21797 6,0.0102 1.50265,0.22818 0.0321,0.41027 -3.26791,0.40466 -3.3,-0.006 -4.52944,-0.1923 -2.73209,-0.41486 z m 29,0 c 1.79735,-0.22256 4.49735,-0.21797 6,0.0102 1.50265,0.22818 0.0321,0.41027 -3.26791,0.40466 -3.3,-0.006 -4.52944,-0.1923 -2.73209,-0.41486 z"
         id="path18" />
      <path
         style="fill:#000000"
         d="M 736,1283.3724 C 659.95219,1280.5213 586.70473,1261.9319 519.88737,1228.5252 497.34163,1217.253 484.82015,1209.9714 463,1195.4436 404.87623,1156.7449 357.25507,1109.1238 318.55637,1051 304.02856,1029.1799 296.74697,1016.6584 285.47478,994.11263 255.57477,934.30898 237.98158,871.04209 231.91326,801.5 c -1.46191,-16.75326 -1.46191,-64.24674 0,-81 6.06832,-69.54209 23.66151,-132.80898 53.56152,-192.61263 C 296.74697,505.34163 304.02856,492.82015 318.55637,471 357.25507,412.87623 404.87623,365.25507 463,326.55637 c 21.82015,-14.52781 34.34163,-21.8094 56.88737,-33.08159 59.80365,-29.90001 123.07054,-47.4932 192.61263,-53.56152 16.75326,-1.46191 64.24674,-1.46191 81,0 69.54209,6.06832 132.80898,23.66151 192.61263,53.56152 22.54577,11.27219 35.06727,18.55378 56.88737,33.08159 58.1238,38.6987 105.7449,86.31986 144.4436,144.44363 14.5278,21.82015 21.8094,34.34163 33.0816,56.88737 25.4887,50.98043 42.2892,105.53069 50.6977,164.61263 2.1374,15.01828 2.2771,19.22128 2.2771,68.5 0,49.27872 -0.1397,53.48172 -2.2771,68.5 -14.767,103.75912 -56.0855,195.4189 -123.4432,273.8429 -20.1918,23.509 -48.5485,50.3275 -75.2797,71.196 -13.2521,10.3456 -43.8811,30.8653 -58.8874,39.4513 -67.02098,38.3463 -143.68699,62.0599 -219.6126,67.9283 -14.60847,1.1291 -45.80465,1.9111 -58,1.4539 z m 56.34125,-25.8681 c 64.29046,-5.6714 121.46754,-21.3682 178.15875,-48.9099 23.01618,-11.1817 36.0977,-18.6152 56.5,-32.1058 65.2071,-43.1169 119.5093,-100.8334 158.0508,-167.9886 26.5342,-46.23346 47.8063,-104.09186 57.4367,-156.22268 C 1248.4963,819.75049 1249,812.69063 1249,761 c 0,-51.69063 -0.5037,-58.75049 -6.5125,-91.27732 -9.6304,-52.13082 -30.9025,-109.98922 -57.4367,-156.22268 -27.1899,-47.37599 -66.0345,-94.47238 -106.4025,-129.00583 -51.3541,-43.93165 -107.59383,-75.72187 -171.02271,-96.67272 -100.04996,-33.04695 -209.20122,-33.04695 -309.25118,0 -63.42888,20.95085 -119.66864,52.74107 -171.02273,96.67272 -33.2686,28.46015 -64.26202,63.82296 -89.84031,102.50583 -13.49058,20.40225 -20.92411,33.48382 -32.10581,56.5 -56.87769,117.07585 -66.00026,249.76533 -25.58411,372.12559 20.95085,63.42888 52.74107,119.66861 96.67272,171.02271 28.46015,33.2686 63.82296,64.262 102.50583,89.8403 20.40225,13.4906 33.48382,20.9241 56.5,32.1058 56.00481,27.2082 113.30434,43.033 177,48.8831 19.66562,1.8061 59.51894,1.8195 79.84125,0.027 z M 718.5,1237.4775 c -61.78296,-5.6745 -120.2224,-21.5161 -173,-46.8966 -55.7877,-26.8279 -112.31333,-70.3981 -153,-117.9328 C 356.20394,1030.2429 329.08377,986.0571 310.47009,939 291.86516,891.96504 281.04249,845.88344 276.49569,794.34125 269.81537,718.61366 287.38615,628.429 323.41905,553.5 345.1207,508.37228 378.95603,461.04445 416.00024,424.00024 453.04445,386.95603 500.37228,353.1207 545.5,331.41905 c 74.929,-36.0329 165.11366,-53.60368 240.84125,-46.92336 51.54219,4.5468 97.62379,15.36947 144.65875,33.9744 47.0571,18.61368 91.2429,45.73385 133.6481,82.02991 47.5347,40.68667 91.1049,97.2123 117.9328,153 22.2994,46.37068 37.2778,97.22497 44.4354,150.86637 C 1228.7256,717.1764 1229,725.01006 1229,761 c 0,35.98994 -0.2744,43.8236 -1.9837,56.63363 -7.1576,53.6414 -22.136,104.49569 -44.4354,150.86637 -26.8279,55.7877 -70.3981,112.3133 -117.9328,153 -50.808,43.4883 -101.71235,72.4275 -163.02251,92.6785 -59.74199,19.7331 -127.74642,28.3852 -183.12559,23.299 z m 62.84125,-13.9732 c 61.41779,-5.418 120.0335,-21.057 172.15875,-45.9331 41.85806,-19.9763 91.0443,-55.1479 125.9838,-90.0874 34.9395,-34.9395 70.1111,-84.1257 90.0874,-125.9838 21.4698,-44.98776 36.4193,-96.21276 43.4451,-148.86637 2.8978,-21.71693 2.8978,-81.55033 0,-103.26726 C 1205.9905,656.71276 1191.041,605.48776 1169.5712,560.5 1149.5949,518.64194 1114.4233,469.45574 1079.4838,434.51622 1044.5443,399.5767 995.35806,364.40506 953.5,344.42885 901.37475,319.55275 842.75904,303.91367 781.34125,298.49569 c -21.26497,-1.87589 -35.41753,-1.87589 -56.6825,0 -61.41779,5.41798 -120.0335,21.05706 -172.15875,45.93316 -52.51772,25.0634 -109.29035,68.77028 -148,113.93905 -43.16225,50.36433 -70.80283,98.8326 -90.67855,159.00651 C 298.98083,662.30453 289.01004,720.02237 289.01004,761 c 0,40.97763 9.97079,98.69547 24.81141,143.62559 19.87572,60.17391 47.5163,108.64221 90.67855,159.00651 32.51022,37.9349 77.47576,74.7125 124,101.4203 40.58535,23.2985 98.47429,43.5764 149.5,52.3684 41.7676,7.1967 71.1288,8.9251 103.34125,6.0835 z"
         id="path16" />
    </g>
  </g>
</svg>
