<?xml version="1.0" encoding="UTF-8" standalone="no"?>
<svg
   xmlns:dc="http://purl.org/dc/elements/1.1/"
   xmlns:cc="http://creativecommons.org/ns#"
   xmlns:rdf="http://www.w3.org/1999/02/22-rdf-syntax-ns#"
   xmlns:svg="http://www.w3.org/2000/svg"
   xmlns="http://www.w3.org/2000/svg"
   xmlns:sodipodi="http://sodipodi.sourceforge.net/DTD/sodipodi-0.dtd"
   xmlns:inkscape="http://www.inkscape.org/namespaces/inkscape"
   version="1.1"
   id="svg2"
   width="1043.9584"
   height="1045.8192"
   viewBox="0 0 1043.9584 1045.8192"
   sodipodi:docname="Dolgam.svg"
   inkscape:version="1.0.1 (3bc2e813f5, 2020-09-07)">
  <metadata
     id="metadata8">
    <rdf:RDF>
      <cc:Work
         rdf:about="">
        <dc:format>image/svg+xml</dc:format>
        <dc:type
           rdf:resource="http://purl.org/dc/dcmitype/StillImage" />
        <dc:title></dc:title>
      </cc:Work>
    </rdf:RDF>
  </metadata>
  <defs
     id="defs6" />
  <sodipodi:namedview
     pagecolor="#ffffff"
     bordercolor="#666666"
     borderopacity="1"
     objecttolerance="10"
     gridtolerance="10"
     guidetolerance="10"
     inkscape:pageopacity="0"
     inkscape:pageshadow="2"
     inkscape:window-width="1920"
     inkscape:window-height="1057"
     id="namedview4"
     showgrid="false"
     inkscape:pagecheckerboard="true"
     inkscape:zoom="0.69296465"
     inkscape:cx="743.49733"
     inkscape:cy="507.01708"
     inkscape:window-x="-8"
     inkscape:window-y="-8"
     inkscape:window-maximized="1"
     inkscape:current-layer="g10" />
  <g
     inkscape:groupmode="layer"
     inkscape:label="Image"
     id="g10"
     transform="translate(-230.04157,-238.04157)">
    <circle
       style="fill:#fff8ff;fill-rule:evenodd;fill-opacity:1"
       id="path20"
       cx="753.87781"
       cy="757.54858"
       r="497.8609" />
    <g
       id="g14">
      <path
         style="fill:#1a4748"
         d="m 715.5,1247.4775 c -62.75235,-5.7635 -120.67654,-21.6145 -175,-47.889 C 442.93388,1152.3989 361.60108,1071.0661 314.41152,973.5 282.49536,907.51218 265.01004,832.29923 265.01004,761 c 0,-71.29923 17.48532,-146.51218 49.40148,-212.5 C 361.60108,450.93388 442.93388,369.60108 540.5,322.41152 606.48782,290.49536 681.70077,273.01004 753,273.01004 c 71.29923,0 146.51218,17.48532 212.5,49.40148 97.5661,47.18956 178.8989,128.52236 226.0885,226.08848 23.1866,47.9392 38.1421,98.26488 45.4278,152.86637 1.7273,12.94511 1.9837,20.65192 1.9837,59.63363 0,48.37481 -0.571,56.11473 -6.5125,88.27732 -9.4902,51.37204 -30.2197,108.29416 -55.4356,152.22268 -49.1212,85.574 -124.1215,155.8012 -211.5519,198.0885 -66.89626,32.3555 -142.24391,49.669 -214.5,49.2881 -11.825,-0.062 -27.8,-0.6919 -35.5,-1.3991 z m 70.84125,-9.9732 c 16.88808,-1.4898 38.00157,-4.3124 51.23992,-6.8502 l 7.08117,-1.3574 188.33636,-188.3379 188.3364,-188.33791 1.8457,-10.06044 c 4.2288,-23.04938 5.8762,-39.80812 5.5941,-56.9066 L 1228.5,768.99479 993.5008,1003.9974 758.5016,1239 l 5.4992,-0.01 c 3.02456,0 13.07776,-0.6736 22.34045,-1.4907 z m 170.98611,-272.33166 268.82594,-268.82736 -2.6345,-14.92264 c -2.4983,-14.15159 -9.2855,-44.39861 -10.1829,-45.38065 C 1212.883,635.54645 628,1220.1243 628,1221.0725 c 0,1.1822 51.37832,12.3581 59.0007,12.8338 0.82538,0.051 122.47238,-120.8786 270.32666,-268.73366 z m -74.46795,-74.53205 311.35819,-311.3594 -4.7338,-10.8906 c -5.114,-11.76511 -13.1905,-28.25808 -17.2559,-35.23794 l -2.532,-4.34735 -324.35585,324.34735 C 554.77904,1143.7061 521.16706,1177.6345 522.73887,1178.7907 c 4.32979,3.1849 45.77316,23.0994 48.26173,23.1909 0.27533,0.01 140.61179,-140.0933 311.85881,-311.34101 z M 968,1187.0123 c 30.65225,-15.3758 66.3172,-39.5511 96.6481,-65.5123 49.8145,-42.638 95.2568,-102.7331 121.933,-161.25 1.8178,-3.9875 3.2175,-7.25 3.1105,-7.25 -0.1071,0 -55.319,55.1413 -122.6931,122.5361 L 944.5,1198.0723 l 7.5,-3.3981 c 4.125,-1.869 11.325,-5.3168 16,-7.6619 z M 807.91111,815.58889 1140.3211,483.17777 l -5.4105,-7.32675 c -5.893,-7.97998 -18.0588,-22.9317 -23.9712,-29.4605 l -3.7215,-4.10949 L 770.68178,778.89052 434.14571,1115.5 l 10.04616,8.5 c 10.20678,8.6359 29.89608,23.9662 30.80869,23.988 0.27531,0.01 150.08506,-149.573 332.91055,-332.39911 z M 733.24944,741.25056 C 917.91225,556.58836 1069,405.18007 1069,404.78768 c 0,-0.93325 -20.1462,-17.68463 -31,-25.77619 -4.675,-3.48524 -8.9711,-6.69281 -9.5468,-7.12793 -0.636,-0.48069 -131.39883,129.56744 -333.23396,331.41265 L 363.03204,1035.5 l 9.08178,11.9453 c 10.28326,13.5256 23.68131,29.5547 24.7035,29.5547 0.37486,0 151.76932,-151.08725 336.43212,-335.74944 z M 820.1078,503.77864 981.83938,342.05727 968.16969,335.17814 c -7.51833,-3.78352 -18.7527,-9.06331 -24.96528,-11.73285 L 931.90883,318.59157 621.2502,629.2502 310.59157,939.90883 l 4.85372,11.29558 c 2.66954,6.21258 7.94872,17.44576 11.73151,24.96264 l 6.87779,13.66704 L 496.2154,827.66705 C 585.40385,738.47517 731.15543,592.72539 820.1078,503.77864 Z m 54.11752,-203.893 c -1.28048,-1.17399 -26.60193,-6.78826 -44.43161,-9.85137 L 812.5,287.06324 545.78162,553.78162 279.06324,820.5 l 2.98412,17.37027 c 2.59319,15.09476 7.90446,39.71066 9.51152,44.08262 0.35427,0.96376 98.6451,-96.65772 291.96291,-289.97468 C 743.80766,431.69305 874.62425,300.25139 874.22532,299.88564 Z M 740.52571,283.19237 c -1.29769,-1.29769 -44.62348,3.4419 -68.02571,7.44161 l -15,2.56368 -186.10044,186.00061 -186.10045,186.00061 -2.66427,15.65056 c -1.46535,8.60781 -3.12367,19.02556 -3.68516,23.15056 -1.11097,8.16171 -3.93656,38.96231 -3.94466,42.9992 -0.004,2.00343 46.20699,-43.7125 232.95372,-230.45794 C 636.08604,388.41484 740.74118,283.40784 740.52571,283.19237 Z M 442.50143,449.9606 573.5,318.92119 566,322.0521 C 503.19361,348.27092 438.20509,395.95406 392.5,449.35192 364.22503,482.38594 340.35035,518.2899 323.9107,552.5 c -6.20471,12.9117 -13.10442,28.5 -12.61471,28.5 0.11378,0 59.15623,-58.96773 131.20544,-131.0394 z"
         id="path18" />
      <path
         style="fill:#000000"
         d="m 712,1282.9192 c -66.99094,-5.6818 -128.31866,-22.4676 -187.5,-51.3199 -25.55484,-12.4586 -37.84732,-19.4461 -60,-34.1063 -60.02584,-39.7238 -108.26918,-87.9672 -147.99301,-147.993 -14.66018,-22.1527 -21.64769,-34.4452 -34.10627,-60 -28.64851,-58.76335 -45.09047,-118.24529 -50.90503,-184.15875 -1.93883,-21.97847 -1.93883,-66.70403 0,-88.6825 5.81456,-65.91346 22.25652,-125.3954 50.90503,-184.15875 12.45858,-25.55484 19.44609,-37.84732 34.10627,-60 39.72383,-60.02584 87.96717,-108.26918 147.99301,-147.99301 22.15268,-14.66018 34.44516,-21.64769 60,-34.10627 58.76335,-28.64851 118.24529,-45.09047 184.15875,-50.90503 21.97847,-1.93883 66.70403,-1.93883 88.6825,0 65.91346,5.81456 125.3954,22.25652 184.15875,50.90503 25.5548,12.45858 37.8473,19.44609 60,34.10627 60.0258,39.72383 108.2692,87.96717 147.993,147.99301 14.6602,22.15268 21.6477,34.44516 34.1063,60 25.1829,51.65482 40.7426,103.35213 48.417,160.86637 1.7654,13.23021 1.9837,20.67384 1.9837,67.63363 0,46.95979 -0.2183,54.40342 -1.9837,67.63363 -7.6744,57.51424 -23.2341,109.21155 -48.417,160.86637 -12.4586,25.5548 -19.4461,37.8473 -34.1063,60 -39.7238,60.0258 -87.9672,108.2692 -147.993,147.993 -22.1527,14.6602 -34.4452,21.6477 -60,34.1063 -58.76335,28.6485 -118.24529,45.0904 -184.15875,50.905 -18.12854,1.5992 -68.49106,1.8441 -85.34125,0.4149 z m 77.34125,-35.4149 c 73.3912,-6.4742 144.57229,-28.2486 204.15875,-62.4524 85.574,-49.1212 155.8012,-124.1215 198.0885,-211.5519 23.1866,-47.9392 38.1421,-98.26488 45.4278,-152.86637 C 1238.7436,807.68852 1239,799.98171 1239,761 c 0,-38.98171 -0.2564,-46.68852 -1.9837,-59.63363 C 1229.7306,646.76488 1214.7751,596.4392 1191.5885,548.5 1144.3989,450.93388 1063.0661,369.60108 965.5,322.41152 877.51565,279.85635 779.61511,264.32336 685.78415,278.03153 545.09696,298.58514 423.8344,375.54954 345.51137,494 321.48385,530.33761 303.88421,566.79928 289.82145,609.37441 253.68775,718.76952 257.33604,832.81725 300.46186,942 c 43.71126,110.6649 131.87285,205.2724 240.03814,257.5885 77.40844,37.4399 168.58189,54.9959 248.84125,47.9158 z"
         id="path16" />
    </g>
  </g>
</svg>
