<?xml version="1.0" encoding="UTF-8" standalone="no"?>
<svg
   xmlns:dc="http://purl.org/dc/elements/1.1/"
   xmlns:cc="http://creativecommons.org/ns#"
   xmlns:rdf="http://www.w3.org/1999/02/22-rdf-syntax-ns#"
   xmlns:svg="http://www.w3.org/2000/svg"
   xmlns="http://www.w3.org/2000/svg"
   xmlns:sodipodi="http://sodipodi.sourceforge.net/DTD/sodipodi-0.dtd"
   xmlns:inkscape="http://www.inkscape.org/namespaces/inkscape"
   version="1.1"
   id="svg2"
   width="1043.9584"
   height="1045.8192"
   viewBox="0 0 1043.9584 1045.8192"
   sodipodi:docname="Eastvaten.svg"
   inkscape:version="1.0.1 (3bc2e813f5, 2020-09-07)">
  <metadata
     id="metadata8">
    <rdf:RDF>
      <cc:Work
         rdf:about="">
        <dc:format>image/svg+xml</dc:format>
        <dc:type
           rdf:resource="http://purl.org/dc/dcmitype/StillImage" />
        <dc:title />
      </cc:Work>
    </rdf:RDF>
  </metadata>
  <defs
     id="defs6" />
  <sodipodi:namedview
     pagecolor="#ffffff"
     bordercolor="#666666"
     borderopacity="1"
     objecttolerance="10"
     gridtolerance="10"
     guidetolerance="10"
     inkscape:pageopacity="0"
     inkscape:pageshadow="2"
     inkscape:window-width="1920"
     inkscape:window-height="1057"
     id="namedview4"
     showgrid="false"
     inkscape:pagecheckerboard="true"
     inkscape:zoom="0.49"
     inkscape:cx="519.95843"
     inkscape:cy="511.95843"
     inkscape:window-x="-8"
     inkscape:window-y="-8"
     inkscape:window-maximized="1"
     inkscape:current-layer="g10"
     inkscape:document-rotation="0" />
  <g
     inkscape:groupmode="layer"
     inkscape:label="Image"
     id="g10"
     transform="translate(-230.04157,-238.04157)">
    <circle
       style="fill:#ffffff;fill-opacity:1;fill-rule:evenodd"
       id="path20"
       cx="753.06122"
       cy="761.22449"
       r="502.0408" />
    <g
       id="g14">
      <path
         style="fill:#a83737"
         d="m 721.5,1227.4775 c -50.70599,-4.6571 -97.62844,-15.7588 -143.5,-33.9515 -35.02851,-13.8924 -66.48064,-31.5628 -99.28018,-55.7774 l -11.17305,-8.2486 142.72662,-0.2534 c 78.49963,-0.1394 206.95359,-0.1394 285.45322,0 l 142.72659,0.2534 -11.173,8.2486 c -23.3553,17.2423 -49.39279,33.1385 -71.7802,43.8226 -72.5343,34.616 -163.22078,52.407 -234,45.9063 z M 305.56246,893 c -12.81743,-43.60801 -20.55242,-93.28678 -20.55242,-132 0,-40.37255 8.81631,-94.76611 22.42676,-138.36536 L 310.91273,611.5 H 753 1195.0873 l 3.596,11.5 c 8.0562,25.76388 14.4228,55.06247 18.333,84.36637 1.6878,12.64889 1.9837,20.63522 1.9837,53.54154 0,41.07476 -0.4869,47.78481 -5.5939,77.09209 -3.2206,18.48156 -7.2185,35.43683 -12.9686,55 l -4.5558,15.5 H 753 310.11828 Z m 336.23649,10.05766 c 1.80717,-0.51829 5.5167,-2.81019 8.2434,-5.09312 4.27204,-3.57675 4.95977,-4.6565 4.97296,-7.80766 0.0227,-5.41062 0.90799,-6.29296 5.14141,-5.12405 2.51121,0.69338 5.40143,3.04801 9.75739,7.94923 5.64941,6.3566 6.78292,7.14083 12.99539,8.99099 8.0236,2.38953 13.14343,2.56806 16.96551,0.59159 1.52662,-0.78945 6.31583,-5.0732 10.64267,-9.51945 l 7.86699,-8.08408 4.05767,3.96136 c 5.30767,5.18169 7.98486,6.07753 18.1626,6.07753 6.38385,0 9.39011,-0.47167 12.1849,-1.91175 5.35232,-2.75791 10.01533,-7.73102 11.19344,-11.93784 1.7828,-6.36601 2.36393,-16.71565 1.13632,-20.23717 -1.05627,-3.03001 -0.92671,-3.49972 1.61603,-5.85886 1.52041,-1.41062 3.88937,-4.24685 5.26437,-6.30273 2.83719,-4.24215 4.50742,-4.55376 9.83635,-1.83514 6.83122,3.48503 18.07126,4.49553 32.84231,2.95258 8.60634,-0.899 13.5537,-0.89132 21.5,0.0333 16.48463,1.91824 44.9021,2.4727 58.82134,1.14768 23.78088,-2.2638 26.28293,-2.30905 36.61933,-0.66229 5.56563,0.88669 13.31466,1.61217 17.22006,1.61217 6.69266,0 7.22524,-0.16841 9.26725,-2.93037 2.11323,-2.85829 2.33263,-2.91644 8.92054,-2.36413 8.32663,0.69807 11.21938,0.0198 14.35998,-3.36723 4.04032,-4.3573 4.06368,-7.82999 0.11568,-17.19107 C 978.21771,818.35786 978,817.16081 978,806.88758 978,793.95969 979.12807,791.06906 988.88312,779 c 7.24935,-8.96898 9.09133,-12.54044 10.02814,-19.44384 0.38898,-2.8664 1.62854,-6.52666 2.75444,-8.1339 1.126,-1.60724 3.4984,-6.74726 5.272,-11.42226 1.7736,-4.675 4.0218,-9.87576 4.996,-11.55725 2.7763,-4.79169 3.3221,-10.08856 1.9954,-19.36596 -1.3424,-9.38743 -3.7815,-13.91484 -8.9311,-16.57784 -3.2276,-1.66906 -14.93659,-1.96637 -21.498,-0.54588 -17.51223,3.79125 -19.63342,4.57697 -27.63974,10.23816 -1.66286,1.17579 -6.37519,0.43288 -23.86026,-3.76161 -4.07293,-0.97706 -15.64817,-1.93497 -31,-2.5654 -27.77093,-1.14045 -32.86007,-2.05877 -45,-8.1202 -6.92228,-3.45627 -9.28268,-5.26489 -12.7167,-9.74402 -6.10004,-7.9565 -9.26763,-10.96252 -13.7833,-13.08021 -5.09309,-2.38849 -7.25824,-2.381 -12.91709,0.0447 -4.57454,1.96088 -4.59158,1.96072 -9.33291,-0.0887 -2.6125,-1.12922 -8.8,-2.85876 -13.75,-3.84341 -4.95,-0.98466 -12.15,-3.03679 -16,-4.5603 -10.07496,-3.98683 -16.09266,-4.3853 -43.24579,-2.86364 -26.76943,1.50016 -35.59632,3.25532 -50.12233,9.96645 l -7.36811,3.40412 -3.03957,-2.55762 c -3.31767,-2.79164 -14.13186,-8.42844 -27.61095,-14.39197 -4.73729,-2.0959 -12.57739,-5.65994 -17.42245,-7.92008 C 623.84574,639.8492 618.63153,638 617.10367,638 c -1.52786,0 -7.23872,-0.67235 -12.6908,-1.4941 -12.83795,-1.93499 -21.49265,-1.89456 -33.81287,0.15796 -15.4391,2.5721 -22.80773,1.18954 -49.6,-9.30638 -11.825,-4.63246 -22.53367,-8.85799 -23.79705,-9.39007 C 495.93957,617.43534 492.71159,617 490.02967,617 c -5.4938,0 -9.87485,2.86615 -12.68371,8.29787 -2.98138,5.76535 -0.3435,15.91695 5.7692,22.20213 1.60472,1.65 7.25865,8.85 12.5643,16 10.88891,14.67413 19.13912,24.35384 27.60727,32.39075 6.80706,6.46041 9.71327,10.81505 9.71327,14.55428 0,4.7796 -10.44361,20.63029 -21.18817,32.15815 -11.94384,12.81457 -13.93119,16.69524 -14.5424,28.39682 -0.43621,8.35115 -0.38554,8.58078 2.89329,13.11315 3.74109,5.17133 15.02197,15.91615 27.96592,26.63699 8.91442,7.38338 10.85646,10.54067 8.8219,14.34228 -0.62014,1.15874 -1.16029,8.00331 -1.24132,15.72949 -0.13877,13.23101 -0.0501,13.85786 2.71405,19.17809 5.31932,10.23837 15.59292,19.77287 27.11583,25.16509 7.38359,3.4552 9.30643,3.3858 17.82312,-0.64324 8.93252,-4.22575 10.56881,-3.74425 18.06431,5.31572 6.92792,8.37393 12.509,12.73735 17.18086,13.43241 5.67707,0.84462 19.96226,0.71383 23.19156,-0.21232 z M 893.8125,810.31689 c 0.72187,-0.28887 1.58438,-0.25335 1.91667,0.0789 0.33229,0.33229 -0.25834,0.56864 -1.3125,0.52522 -1.16495,-0.048 -1.4019,-0.28494 -0.60417,-0.60416 z m 25,-4 c 0.72187,-0.28887 1.58438,-0.25335 1.91667,0.0789 0.33229,0.33229 -0.25834,0.56864 -1.3125,0.52522 -1.16495,-0.048 -1.4019,-0.28494 -0.60417,-0.60416 z m 55,-31 c 0.72187,-0.28887 1.58438,-0.25335 1.91667,0.0789 0.33229,0.33229 -0.25834,0.56864 -1.3125,0.52522 -1.16495,-0.048 -1.4019,-0.28494 -0.60417,-0.60416 z M 634,758.62244 c 0,-0.20765 0.7875,-0.99515 1.75,-1.75 1.58606,-1.24387 1.62143,-1.2085 0.37756,0.37756 C 634.82119,758.91575 634,759.44548 634,758.62244 Z m 149.75,-37.28472 c 0.6875,-0.27741 1.8125,-0.27741 2.5,0 0.6875,0.27741 0.125,0.50439 -1.25,0.50439 -1.375,0 -1.9375,-0.22698 -1.25,-0.50439 z m 117.01166,-9.04498 c 1.24391,-0.23919 3.04391,-0.23011 4,0.0202 0.95609,0.25029 -0.0617,0.446 -2.26166,0.4349 -2.2,-0.0111 -2.98225,-0.21589 -1.73834,-0.45508 z M 712.8125,687.31689 c 0.72187,-0.28887 1.58438,-0.25335 1.91667,0.0789 0.33229,0.33229 -0.25834,0.56864 -1.3125,0.52522 -1.16495,-0.048 -1.4019,-0.28494 -0.60417,-0.60416 z M 469.55,391.12517 c 6.55026,-6.032 39.53403,-28.1328 56.95,-38.1594 45.17882,-26.01004 106.26008,-46.31115 165.28415,-54.93424 44.09578,-6.44214 78.33592,-6.44214 122.4317,0 59.02407,8.62309 120.10533,28.9242 165.28415,54.93424 17.41597,10.0266 50.3997,32.1274 56.95,38.1594 C 1036.9929,391.62512 915.53054,392 753,392 590.46946,392 469.00709,391.62512 469.55,391.12517 Z"
         id="path18" />
      <path
         style="fill:#000000"
         d="m 712,1282.9192 c -66.99094,-5.6818 -128.31866,-22.4676 -187.5,-51.3199 -25.55484,-12.4586 -37.84732,-19.4461 -60,-34.1063 -60.02584,-39.7238 -108.26918,-87.9672 -147.99301,-147.993 -14.66018,-22.1527 -21.64769,-34.4452 -34.10627,-60 -28.64851,-58.76335 -45.09047,-118.24529 -50.90503,-184.15875 -1.93883,-21.97847 -1.93883,-66.70403 0,-88.6825 5.81456,-65.91346 22.25652,-125.3954 50.90503,-184.15875 12.45858,-25.55484 19.44609,-37.84732 34.10627,-60 39.72383,-60.02584 87.96717,-108.26918 147.99301,-147.99301 22.15268,-14.66018 34.44516,-21.64769 60,-34.10627 58.76335,-28.64851 118.24529,-45.09047 184.15875,-50.90503 21.97847,-1.93883 66.70403,-1.93883 88.6825,0 65.91346,5.81456 125.3954,22.25652 184.15875,50.90503 25.5548,12.45858 37.8473,19.44609 60,34.10627 60.0258,39.72383 108.2692,87.96717 147.993,147.99301 14.6602,22.15268 21.6477,34.44516 34.1063,60 25.1829,51.65482 40.7426,103.35213 48.417,160.86637 1.7654,13.23021 1.9837,20.67384 1.9837,67.63363 0,46.95979 -0.2183,54.40342 -1.9837,67.63363 -7.6744,57.51424 -23.2341,109.21155 -48.417,160.86637 -12.4586,25.5548 -19.4461,37.8473 -34.1063,60 -39.7238,60.0258 -87.9672,108.2692 -147.993,147.993 -22.1527,14.6602 -34.4452,21.6477 -60,34.1063 -58.76335,28.6485 -118.24529,45.0904 -184.15875,50.905 -18.12854,1.5992 -68.49106,1.8441 -85.34125,0.4149 z m 80.34125,-25.4149 c 64.29046,-5.6714 121.46754,-21.3682 178.15875,-48.9099 23.01618,-11.1817 36.0977,-18.6152 56.5,-32.1058 65.2071,-43.1169 119.5093,-100.8334 158.0508,-167.9886 26.5342,-46.23346 47.8063,-104.09186 57.4367,-156.22268 C 1248.4963,819.75049 1249,812.69063 1249,761 c 0,-51.69063 -0.5037,-58.75049 -6.5125,-91.27732 -9.6304,-52.13082 -30.9025,-109.98922 -57.4367,-156.22268 -27.1899,-47.37599 -66.0345,-94.47238 -106.4025,-129.00583 -51.3541,-43.93165 -107.59383,-75.72187 -171.02271,-96.67272 -100.04996,-33.04695 -209.20122,-33.04695 -309.25118,0 -63.42888,20.95085 -119.66864,52.74107 -171.02273,96.67272 -33.2686,28.46015 -64.26202,63.82296 -89.84031,102.50583 -13.49058,20.40225 -20.92411,33.48382 -32.10581,56.5 -56.87769,117.07585 -66.00026,249.76533 -25.58411,372.12559 20.95085,63.42888 52.74107,119.66861 96.67272,171.02271 28.46015,33.2686 63.82296,64.262 102.50583,89.8403 20.40225,13.4906 33.48382,20.9241 56.5,32.1058 56.00481,27.2082 113.30434,43.033 177,48.8831 19.66562,1.8061 59.51894,1.8195 79.84125,0.027 z M 718.5,1237.4775 c -61.78296,-5.6745 -120.2224,-21.5161 -173,-46.8966 -55.7877,-26.8279 -112.31333,-70.3981 -153,-117.9328 C 356.20394,1030.2429 329.08377,986.0571 310.47009,939 291.86516,891.96504 281.04249,845.88344 276.49569,794.34125 269.81537,718.61366 287.38615,628.429 323.41905,553.5 345.1207,508.37228 378.95603,461.04445 416.00024,424.00024 453.04445,386.95603 500.37228,353.1207 545.5,331.41905 c 74.929,-36.0329 165.11366,-53.60368 240.84125,-46.92336 51.54219,4.5468 97.62379,15.36947 144.65875,33.9744 47.0571,18.61368 91.2429,45.73385 133.6481,82.02991 47.5347,40.68667 91.1049,97.2123 117.9328,153 22.2994,46.37068 37.2778,97.22497 44.4354,150.86637 C 1228.7256,717.1764 1229,725.01006 1229,761 c 0,35.98994 -0.2744,43.8236 -1.9837,56.63363 -7.1576,53.6414 -22.136,104.49569 -44.4354,150.86637 -26.8279,55.7877 -70.3981,112.3133 -117.9328,153 -50.808,43.4883 -101.71235,72.4275 -163.02251,92.6785 -59.74199,19.7331 -127.74642,28.3852 -183.12559,23.299 z m 64.84125,-9.9732 c 51.5629,-4.5486 97.75684,-15.4007 144.65875,-33.984 34.98195,-13.8603 66.46912,-31.5486 99.2802,-55.7717 l 11.173,-8.2486 -142.72659,-0.2534 c -78.49963,-0.1394 -206.95359,-0.1394 -285.45322,0 l -142.72662,0.2534 11.17305,8.2486 c 23.3553,17.2423 49.39277,33.1385 71.78018,43.8226 72.30673,34.5074 161.93334,52.1883 232.84125,45.9331 z m 279.15885,-118.1841 c 43.8277,-38.5678 86.8275,-95.0203 111.0711,-145.8202 5.4243,-11.36617 15.9233,-36.75622 17.8842,-43.25 l 0.6794,-2.25 H 753 313.86522 l 0.67942,2.25 c 1.96087,6.49378 12.45985,31.88383 17.88421,43.25 24.24358,50.7999 67.24339,107.2524 111.07101,145.8202 L 454.49972,1119 H 753 1051.5003 Z M 1200.4375,893 c 5.7501,-19.56317 9.748,-36.51844 12.9686,-55 5.107,-29.30728 5.5939,-36.01733 5.5939,-77.09209 0,-32.90632 -0.2959,-40.89265 -1.9837,-53.54154 -3.9102,-29.3039 -10.2768,-58.60249 -18.333,-84.36637 l -3.596,-11.5 H 753 310.91273 l -3.47593,11.13464 C 293.82635,666.23389 285.01004,720.62745 285.01004,761 c 0,38.71322 7.73499,88.39199 20.55242,132 l 4.55582,15.5 H 753 1195.8817 Z m -581.83011,10.26998 c -4.67186,-0.69506 -10.25294,-5.05848 -17.18086,-13.43241 -7.4955,-9.05997 -9.13179,-9.54147 -18.06431,-5.31572 -8.51669,4.02904 -10.43953,4.09844 -17.82312,0.64324 C 554.01619,879.77287 543.74259,870.23837 538.42327,860 c -2.76411,-5.32023 -2.85282,-5.94708 -2.71405,-19.17809 0.081,-7.72618 0.62118,-14.57075 1.24132,-15.72949 2.03456,-3.80161 0.0925,-6.9589 -8.8219,-14.34228 -12.94395,-10.72084 -24.22483,-21.46566 -27.96592,-26.63699 -3.27883,-4.53237 -3.3295,-4.762 -2.89329,-13.11315 0.61121,-11.70158 2.59856,-15.58225 14.5424,-28.39682 C 522.55639,731.07532 533,715.22463 533,710.44503 c 0,-3.73923 -2.90621,-8.09387 -9.71327,-14.55428 -8.46815,-8.03691 -16.71836,-17.71662 -27.60727,-32.39075 -5.30565,-7.15 -10.95958,-14.35 -12.5643,-16 -6.1127,-6.28518 -8.75058,-16.43678 -5.7692,-22.20213 2.80886,-5.43172 7.18991,-8.29787 12.68371,-8.29787 2.68192,0 5.9099,0.43534 7.17328,0.96741 1.26338,0.53208 11.97205,4.75761 23.79705,9.39007 26.79227,10.49592 34.1609,11.87848 49.6,9.30638 12.32022,-2.05252 20.97492,-2.09295 33.81287,-0.15796 5.45208,0.82175 11.16294,1.4941 12.6908,1.4941 1.52786,0 6.74207,1.8492 11.58713,4.10934 4.84506,2.26014 12.68516,5.82418 17.42245,7.92008 13.47909,5.96353 24.29328,11.60033 27.61095,14.39197 l 3.03957,2.55762 7.36811,-3.40412 c 14.52601,-6.71113 23.3529,-8.46629 50.12233,-9.96645 27.15313,-1.52166 33.17083,-1.12319 43.24579,2.86364 3.85,1.52351 11.05,3.57564 16,4.5603 4.95,0.98465 11.1375,2.71419 13.75,3.84341 4.74133,2.04939 4.75837,2.04955 9.33291,0.0887 5.65885,-2.42567 7.824,-2.43316 12.91709,-0.0447 4.51567,2.11769 7.68326,5.12371 13.7833,13.08021 3.43402,4.47913 5.79442,6.28775 12.7167,9.74402 12.13993,6.06143 17.22907,6.97975 45,8.1202 15.35183,0.63043 26.92707,1.58834 31,2.5654 17.48507,4.19449 22.1974,4.9374 23.86026,3.76161 8.00632,-5.66119 10.12751,-6.44691 27.63974,-10.23816 6.56141,-1.42049 18.2704,-1.12318 21.498,0.54588 5.1496,2.663 7.5887,7.19041 8.9311,16.57784 1.3267,9.2774 0.7809,14.57427 -1.9954,19.36596 -0.9742,1.68149 -3.2224,6.88225 -4.996,11.55725 -1.7736,4.675 -4.146,9.81502 -5.272,11.42226 -1.1259,1.60724 -2.36546,5.2675 -2.75444,8.1339 -0.93681,6.9034 -2.77879,10.47486 -10.02814,19.44384 C 979.12807,791.06906 978,793.95969 978,806.88758 c 0,10.27323 0.21771,11.47028 3.50284,19.25962 3.948,9.36108 3.92464,12.83377 -0.11568,17.19107 -3.1406,3.38699 -6.03335,4.0653 -14.35998,3.36723 -6.58791,-0.55231 -6.80731,-0.49416 -8.92054,2.36413 -2.04201,2.76196 -2.57459,2.93037 -9.26725,2.93037 -3.9054,0 -11.65443,-0.72548 -17.22006,-1.61217 -10.3364,-1.64676 -12.83845,-1.60151 -36.61933,0.66229 -13.91924,1.32502 -42.33671,0.77056 -58.82134,-1.14768 -7.9463,-0.92467 -12.89366,-0.93235 -21.5,-0.0333 -14.77105,1.54295 -26.01109,0.53245 -32.84231,-2.95258 -5.32893,-2.71862 -6.99916,-2.40701 -9.83635,1.83514 -1.375,2.05588 -3.74396,4.89211 -5.26437,6.30273 -2.54274,2.35914 -2.6723,2.82885 -1.61603,5.85886 1.22761,3.52152 0.64648,13.87116 -1.13632,20.23717 -1.17811,4.20682 -5.84112,9.17993 -11.19344,11.93784 -2.79479,1.44008 -5.80105,1.91175 -12.1849,1.91175 -10.17774,0 -12.85493,-0.89584 -18.1626,-6.07753 l -4.05767,-3.96136 -7.86699,8.08408 c -4.32684,4.44625 -9.11605,8.73 -10.64267,9.51945 -3.82208,1.97647 -8.94191,1.79794 -16.96551,-0.59159 -6.21247,-1.85016 -7.34598,-2.63439 -12.99539,-8.99099 -4.35596,-4.90122 -7.24618,-7.25585 -9.75739,-7.94923 -4.23342,-1.16891 -5.11875,-0.28657 -5.14141,5.12405 -0.0132,3.15116 -0.70092,4.23091 -4.97296,7.80766 -2.7267,2.28293 -6.43623,4.57483 -8.2434,5.09312 -3.2293,0.92615 -17.51449,1.05694 -23.19156,0.21232 z m 24.81717,-8.19686 c 2.13129,-2.06572 4.24535,-5.60053 5.40728,-9.0412 1.85011,-5.47846 1.85287,-5.75655 0.0912,-9.19033 -4.36771,-8.51353 -14.3849,-13.11912 -19.79033,-9.09897 -3.26479,2.4281 -3.66206,4.74631 -1.64191,9.58121 2.00869,4.80748 3.96884,5.5324 7.07329,2.61593 3.2134,-3.01884 4.83038,-1.5596 3.88078,3.5022 -0.49758,2.65231 -1.38674,3.96562 -3.13485,4.63025 -11.26219,4.28188 -20.55937,-4.91747 -18.84413,-18.64582 1.00412,-8.03671 3.53613,-9.84799 13.82761,-9.89161 9.80922,-0.0416 18.91298,3.05457 24.29723,8.26336 l 3.40923,3.29814 v -2.53312 c 0,-9.95089 -19.77533,-24.68616 -30.96302,-23.0716 -6.96868,1.00568 -13.05832,3.32755 -15.17014,5.78408 -3.43976,4.00124 -5.97985,9.79195 -7.26725,16.56731 -2.58171,13.58719 1.69458,21.70194 14.90041,28.27521 5.29254,2.63439 6.85044,2.94882 13.21256,2.66665 6.64578,-0.29476 7.48755,-0.58643 10.712,-3.71169 z m 54.20568,0.40342 c 4.72893,-2.77134 9.7748,-9.36022 10.60716,-13.8508 0.96502,-5.20629 -0.85665,-9.1503 -5.11283,-11.06957 -3.58019,-1.61444 -4.09261,-1.62406 -6.97972,-0.13107 -2.975,1.53843 -5.17083,5.88225 -3.71131,7.34177 0.37055,0.37056 2.2246,0.54012 4.1201,0.37682 3.69719,-0.31854 3.97709,-0.004 2.48188,2.78995 -1.51419,2.82929 -6.73633,3.41559 -9.96231,1.11849 -5.32295,-3.79027 -6.18391,-14.7206 -1.5057,-19.11555 1.99471,-1.87393 3.15104,-2.11682 8.129,-1.70747 3.19192,0.26248 6.46781,0.65581 7.27975,0.87406 2.14116,0.57556 2.47092,-3.48715 0.42113,-5.18833 -1.17422,-0.97452 -5.12798,-1.51209 -12.79826,-1.74012 -10.13698,-0.30136 -11.48922,-0.12263 -15.59913,2.06185 -4.90627,2.60776 -9.93375,10.0945 -9.97664,14.85688 -0.0411,4.56646 3.92289,14.25485 7.25109,17.72224 7.70987,8.0323 17.55762,10.23088 25.35579,5.66085 z m 48.49764,-6.88922 c 6.85023,-2.86977 12.25044,-11.97601 10.83191,-18.26558 -1.75048,-7.76143 -8.80624,-10.875 -12.88721,-5.68688 -2.61987,3.33062 -2.64878,5.9812 -0.0726,6.65489 2.42715,0.63471 2.67767,4.23623 0.35662,5.12689 -0.90385,0.34685 -3.26635,-0.20833 -5.25,-1.23373 -4.3419,-2.24444 -5.11461,-5.97667 -2.60038,-12.56009 1.35299,-3.54273 2.71814,-4.921 7.81652,-7.89161 3.39748,-1.97956 8.29163,-4.12651 10.87588,-4.77099 3.72716,-0.92951 5.43291,-2.11425 8.25,-5.73011 1.95325,-2.50708 3.56633,-5.27198 3.58463,-6.14422 0.0183,-0.87224 0.90942,-2.63727 1.98026,-3.9223 l 1.947,-2.33641 10.26973,4.95805 c 14.10504,6.80966 16.74633,7.34976 34.26974,7.00763 8.25,-0.16107 22.65,0.33198 32,1.09567 15.40889,1.25857 42.07904,1.04062 49.58673,-0.40523 7.93445,-1.52804 23.23562,-1.56887 33.04161,-0.0882 13.63882,2.05945 18.72526,2.04734 21.04292,-0.0501 1.00581,-0.91024 1.82874,-1.98182 1.82874,-2.38128 0,-1.1101 -7.62613,-2.78856 -18.01908,-3.96589 -10.0165,-1.13469 -29.43021,0.39855 -46.4198,3.6661 -11.04294,2.12384 -33.1433,1.11397 -41.36718,-1.89028 -5.13633,-1.87634 -7.6391,-2.061 -25.55669,-1.88571 -15.70128,0.15361 -20.31555,-0.10237 -22.02403,-1.22181 -1.18871,-0.77887 -4.62547,-2.44399 -7.63725,-3.70026 -6.06628,-2.53037 -11.63032,-7.26569 -16.11628,-13.71588 -1.62567,-2.3375 -3.33774,-4.25 -3.8046,-4.25 -0.46686,0 -3.78278,4.40714 -7.36873,9.79365 -7.17177,10.77285 -12.98888,17.27719 -17.57076,19.64657 -6.79457,3.51361 -8.23999,-2.01568 -2.3656,-9.04934 2.50747,-3.0023 4.32952,-4.33904 5.499,-4.03433 2.39884,0.625 2.96764,-0.68095 1.28889,-2.95923 -1.33981,-1.81828 -1.54767,-1.75288 -4.98988,1.57009 -1.97551,1.90707 -5.26948,6.07683 -7.31992,9.26612 -7.14152,11.10802 -9.30896,13.84508 -12.50833,15.79559 -3.78779,2.30925 -4.46776,2.18901 -7.03026,-1.24319 -1.89075,-2.53245 -1.89206,-2.64221 -0.0608,-5.11703 1.02924,-1.39099 2.65885,-2.7434 3.62135,-3.00536 0.9625,-0.26197 1.75,-1.19343 1.75,-2.06992 0,-1.96957 -0.36031,-1.97578 -4.04623,-0.0697 -6.35871,3.28821 -7.62662,14.83875 -2.48219,22.61251 1.39063,2.10139 2.52842,4.99984 2.52842,6.44101 0,5.86536 7.81129,15.64343 13.36659,16.73212 4.50712,0.88327 8.51661,0.63706 11.76129,-0.72223 z M 586.53522,876.97194 c 7.73401,-3.69808 9.98632,-6.23121 11.35542,-12.77116 2.01206,-9.61129 1.51906,-13.36214 -2.35048,-17.88283 -5.88081,-6.8704 -12.88513,-8.05675 -19.54966,-3.31118 -2.43795,1.73597 -2.9905,2.84388 -2.9905,5.99622 0,2.12675 0.43886,5.02111 0.97525,6.43191 1.77804,4.67659 7.03339,2.41302 8.55525,-3.6849 1.62285,-6.50257 6.1898,0.0271 4.9892,7.1334 -1.29242,7.64979 -11.37943,12.21026 -17.72686,8.01456 C 563.71504,862.88048 559,853.44699 559,845.30445 c 0,-6.75946 6.86944,-15.57481 17.70206,-22.71652 5.05389,-3.33192 8.55624,-2.50108 19.48422,4.62214 7.95354,5.18438 13.81372,7.75262 13.81372,6.05389 0,-0.42577 -2.51904,-5.94685 -5.59788,-12.26905 -6.17657,-12.68322 -10.39387,-25.74309 -10.41743,-32.26002 -0.0278,-7.68462 -1.11079,-7.21216 -9.81812,4.28318 -6.68933,8.83118 -9.93955,12.11848 -16.97029,17.16387 -22.41188,16.08322 -25.20206,19.35411 -25.18864,29.52822 0.0154,11.70938 6.24474,24.73715 16.22849,33.93985 3.50664,3.23231 5.7972,4.41475 10.38161,5.35925 3.23525,0.66654 6.33226,1.3471 6.88226,1.51237 1.61619,0.48562 4.60993,-0.47737 11.03522,-3.54969 z M 703.5,841.50882 c 16.38779,-5.58632 31.43764,-12.85179 37.71624,-18.20788 2.45058,-2.09052 6.49556,-5.21267 8.98885,-6.93812 2.49329,-1.72545 7.38216,-6.90045 10.86414,-11.5 13.50125,-17.83456 17.49723,-21.93338 28.24259,-28.96943 11.79072,-7.72055 13.10705,-8.99827 12.20341,-11.8454 -0.81547,-2.56934 -1.68689,-2.55725 -9.04989,0.12557 -5.03613,1.83499 -8.14609,2.17895 -19.96534,2.20815 -24.66015,0.0609 -36.54222,-4.91287 -51.0794,-21.38171 -9.17993,-10.39975 -19.54435,-17.01148 -26.62094,-16.98222 l -4.29966,0.0178 6.55485,6.23222 c 3.60517,3.42772 9.23017,8.7477 12.5,11.82217 7.12086,6.6954 14.14441,18.4984 16.19871,27.22172 2.05,8.70506 1.12913,21.38719 -2.24259,30.88479 -2.455,6.91535 -3.08938,7.76523 -9.37371,12.55785 -3.70728,2.82729 -11.27039,7.18919 -16.80692,9.69311 -9.53499,4.31225 -10.53528,4.55195 -18.94837,4.54071 -15.65788,-0.0209 -22.97606,-3.32166 -37.68385,-16.99668 -5.3751,-4.99766 -8.77125,-9.15727 -10.91828,-13.37275 -2.83481,-5.56583 -3.11788,-6.9771 -3.13285,-15.6187 -0.0379,-21.89336 10.92494,-35.13284 32.85301,-39.67549 11.65209,-2.41386 16.90125,-1.90367 23.93097,2.32597 10.9845,6.60917 16.38839,16.40648 16.85609,30.56031 0.19282,5.83523 -0.12889,7.00346 -3.40557,12.36659 -2.26771,3.71168 -5.4408,7.17498 -8.5,9.27741 -4.68949,3.22284 -5.17962,3.33789 -12.46106,2.92524 -9.60906,-0.54457 -12.33635,-2.33777 -14.4892,-9.52669 -0.86416,-2.88567 -1.42721,-6.25607 -1.25122,-7.48979 0.4518,-3.16708 3.59054,-3.49724 4.73099,-0.49765 1.53681,4.04212 6.81828,7.83188 9.91554,7.11497 6.79315,-1.57236 9.83556,-5.48788 11.34578,-14.60179 0.9504,-5.73543 0.84817,-6.81174 -0.98211,-10.34043 -3.62931,-6.99713 -7.30885,-10.12976 -12.78256,-10.88258 -10.38751,-1.42865 -17.71011,2.40501 -23.62339,12.36772 -2.4684,4.15878 -3.70828,7.68795 -4.18676,11.91717 -0.60549,5.35187 -0.32799,6.86393 2.5389,13.83383 6.35619,15.45303 15.00293,22.74918 28.45798,24.01294 6.62124,0.6219 11.8788,-0.86901 23.17739,-6.57252 6.43655,-3.24916 13.43132,-11.07415 16.36993,-18.31288 3.18089,-7.83556 1.97041,-21.61425 -2.71646,-30.92117 -1.51882,-3.01598 -6.8234,-8.85505 -15.28575,-16.82593 -7.12786,-6.71389 -13.41212,-13.41041 -13.96502,-14.88115 -0.5529,-1.47077 -1.52504,-10.3241 -2.16031,-19.6741 -1.55668,-22.91131 -2.09249,-24.28049 -14.21051,-36.3129 C 656.00098,664.46074 649.4802,660.32926 629.5,651.55198 c -15.10539,-6.63578 -26.69927,-8.72178 -47.05527,-8.46629 -34.59809,0.43424 -45.65894,-1.75248 -75.84776,-14.99505 -11.94342,-5.23908 -18.88845,-4.49201 -20.09725,2.16185 -1.32171,7.2753 8.90603,25.34434 22.04972,38.95458 4.40476,4.56111 10.45297,11.21793 13.44046,14.79293 6.84044,8.18564 23.42127,24.81606 32.72962,32.82751 4.20143,3.61606 14.06953,10.05008 24.12537,15.72977 15.32165,8.65391 17.74616,9.70845 24.34959,10.59083 7.07507,0.94541 7.57995,0.86968 14.31958,-2.14791 11.41312,-5.11008 15.71836,-8.38623 20.67645,-15.73413 3.88032,-5.75064 4.64464,-7.70443 5.09289,-13.01858 1.07654,-12.7628 -3.74388,-24.57937 -12.84865,-31.49661 -9.81442,-7.4564 -27.24728,-12.16877 -39.93475,-10.79498 -7.55765,0.81834 -13.1278,4.47097 -16.31389,10.69785 -3.24402,6.34009 -3.10676,11.254 0.4472,16.00998 3.8495,5.15149 4.9636,6.03457 11.31614,8.96965 5.15864,2.38345 5.7908,2.45341 11.84596,1.31088 8.84697,-1.6693 13.77877,-6.25354 14.7705,-13.72957 0.64869,-4.89007 0.86732,-5.21469 3.51203,-5.21469 2.97773,0 6.00775,3.18453 9.39251,9.87148 3.95693,7.81734 -2.20922,19.37301 -14.33976,26.8734 -6.65726,4.11622 -14.07952,2.60558 -31.89781,-6.4921 C 573.03596,715.08875 564.92527,710.025 561.20912,707 549.95408,697.83824 510.61571,656.36713 502.52373,645.13297 l -3.86588,-5.36703 3.42107,0.70313 c 1.8816,0.38673 6.79608,1.74234 10.92108,3.01248 19.09684,5.88016 41.00025,8.92758 58.04425,8.0757 13.1186,-0.65569 27.48717,0.50919 43.32185,3.51218 10.12603,1.92036 26.41655,11.36263 37.87304,21.95186 6.08177,5.62138 12.98634,16.20511 14.33838,21.97871 2.24691,9.59494 -1.02863,30.38331 -5.4125,34.35066 -0.9621,0.87069 -5.55531,3.13311 -10.20714,5.02761 -17.42975,7.09843 -21.86731,9.75055 -27.02749,16.15311 -4.66001,5.78194 -6.41063,10.33686 -9.9675,25.93427 -2.97451,13.04364 -3.10858,14.42694 -2.03083,20.95299 1.51739,9.18812 3.65398,13.78155 9.90145,21.28696 6.87133,8.2549 15.11837,12.92413 33.16649,18.77787 7.975,2.58661 14.95,4.87955 15.5,5.09542 0.55,0.21587 5.05,0.23719 10,0.0474 7.57436,-0.29044 11.21765,-1.10106 23,-5.11746 z m 272.16718,-5.08389 c 0.33243,-0.86629 0.0714,-3.35409 -0.58005,-5.52845 -0.9055,-3.02229 -2.29171,-4.65853 -5.8858,-6.9474 -7.9044,-5.03386 -18.37717,-9.63203 -24.97262,-10.96446 -7.98489,-1.61313 -35.24535,-0.72544 -43.72871,1.42395 -7.83549,1.98523 -23.62285,1.99658 -33.1735,0.0238 -5.43606,-1.12285 -10.17623,-1.38921 -16.70784,-0.93886 -14.70331,1.0138 -25.99198,0.70239 -34.74774,-0.95855 -8.28847,-1.5723 -9.57693,-2.17071 -13.62092,-6.32607 -2.99089,-3.07327 -2.85512,-4.14199 1.11552,-8.78079 3.57275,-4.17395 8.96998,-7.026 24.58448,-12.99113 5.1975,-1.98558 12.08629,-4.94093 15.30841,-6.56746 3.22213,-1.62652 10.8806,-4.53193 17.01882,-6.45647 6.13822,-1.92454 11.84944,-4.12357 12.69159,-4.88673 0.84215,-0.76317 2.85059,-3.82872 4.4632,-6.81235 5.41053,-10.01047 11.26269,-11.91061 30.3034,-9.8392 11.15875,1.21394 25.2858,5.23447 27.39756,7.79728 2.5572,3.10339 11.68284,8.27817 16.5036,9.35853 15.29437,3.42754 30.88467,4.21602 35.60307,1.80064 2.54972,-1.30522 4.97341,-6.55976 4.21183,-9.13123 -1.00398,-3.38996 -5.48045,-9.90163 -8.88402,-12.92312 -2.61263,-2.31933 -3.96844,-2.72709 -9.14378,-2.75 -3.34198,-0.0148 -10.9615,-0.51856 -16.93226,-1.11948 -9.20512,-0.92644 -12.15881,-1.69458 -19.42368,-5.05133 -4.71226,-2.17731 -11.91499,-4.83565 -16.00608,-5.90742 -13.35904,-3.49976 -34.10785,-2.11826 -45.78862,3.0487 -4.87616,2.15696 -14.79355,9.74459 -20.27304,15.51057 -6.64909,6.99674 -16.33286,12.73621 -23.76376,14.08453 -4.3327,0.78616 -8.54729,2.83429 -16.23624,7.89018 -3.025,1.9891 -7.525,4.15432 -10,4.81161 -3.48644,0.92589 -6.21278,2.89539 -12.10439,8.74418 -8.75495,8.69133 -10.74579,12.85546 -8.8673,18.54733 3.91092,11.85021 19.75482,17.85297 48.47169,18.36441 4.95,0.0881 15.525,1.11118 23.5,2.2734 19.50273,2.84216 36.53426,2.81936 48.32896,-0.0647 22.10191,-5.40441 54.40731,0.0523 64.16897,10.83883 2.1622,2.38921 6.32126,2.63704 7.16925,0.42722 z M 968,816.48758 c 0,-0.28183 -2.5875,-2.17218 -5.75,-4.20077 -8.1752,-5.24401 -22.75925,-7.58918 -38.66314,-6.21718 -19.82717,1.71044 -46.79716,1.56569 -63.58686,-0.34129 -11.45267,-1.3008 -19.03051,-1.59213 -29.02073,-1.1157 -11.74445,0.56008 -13.69692,0.43249 -14.86188,-0.97119 -0.73763,-0.88879 -1.11308,-2.18421 -0.83435,-2.87872 0.27874,-0.6945 6.06658,-3.4761 12.86188,-6.18132 14.1696,-5.64095 44.80389,-19.77414 55.85508,-25.76885 12.86601,-6.97915 18.57726,-7.87604 33.61901,-5.27951 6.52049,1.12558 9.94735,2.29274 12.89299,4.39122 6.10755,4.35104 23.60602,9.04265 35.87726,9.61925 5.56091,0.26129 11.23574,0.5834 12.61074,0.71578 1.55786,0.14999 2.5,-0.27122 2.5,-1.1177 0,-0.96785 -1.8688,-1.46312 -6.5,-1.72265 -20.21415,-1.13278 -24.00475,-1.61382 -30.44223,-3.86325 -3.78687,-1.32324 -8.8007,-4.00703 -11.14185,-5.96399 -5.44453,-4.55107 -11.82919,-7.0412 -22.99723,-8.96934 -19.36402,-3.34315 -23.14077,-2.44851 -29.21031,6.91939 -4.18714,6.46256 -3.01247,5.74667 -26.70838,16.27717 -30.11208,13.38187 -43.39223,19.77886 -44.3953,21.38502 -0.96192,1.54028 -0.30003,2.17356 5.14569,4.92327 l 6.24961,3.15561 13.83964,-0.66 c 8.69311,-0.41457 18.91948,-0.18826 27.5,0.60858 17.21217,1.59843 28.34911,1.57262 54.42803,-0.12616 19.31385,-1.2581 21.37898,-1.22568 29.5,0.4631 4.80278,0.99875 11.20733,3.06148 14.23233,4.58384 5.54258,2.78936 7,3.27559 7,2.33539 z M 973,810 c 0,-3.13798 -1.66466,-3.93534 -3.78635,-1.81365 -0.91512,0.91512 -0.81111,1.60097 0.45499,3 C 972.01905,813.78352 973,813.43418 973,810 Z m -421.21016,-2.90842 c 6.08784,-3.13144 8.87077,-6.88843 9.96698,-13.45557 0.73904,-4.42745 0.64407,-6.99971 -0.38768,-10.5 -2.17646,-7.38379 -3.39825,-9.00888 -9.61017,-12.78243 -6.39712,-3.88604 -12.37572,-5.15308 -14.77117,-3.13043 -4.28146,3.61513 -4.66205,13.11056 -0.59407,14.82152 3.27175,1.37608 6.60627,4.60689 6.60627,6.40081 0,0.89369 -0.72675,2.73405 -1.61501,4.0897 -1.95308,2.98078 -5.70764,3.20667 -14.74065,0.88687 -6.46367,-1.65997 -10.26968,-4.4746 -13.83053,-10.22801 -3.34368,-5.40252 -2.26695,-13.16394 2.87709,-20.73887 5.44017,-8.01101 6.03287,-8.41125 13.48691,-9.10731 10.37347,-0.96869 19.88235,1.16469 31.32219,7.02736 l 10,5.12478 10,-0.032 c 8.91421,-0.0285 10.57004,-0.32897 15.25,-2.76685 8.61022,-4.48522 6.63655,-7.49372 -3.33788,-5.088 -9.3042,2.24408 -15.90065,1.06594 -27.26819,-4.87015 -9.60602,-5.01623 -19.24125,-7.73924 -27.39393,-7.7418 -2.0625,-6.5e-4 -3.75,-0.46911 -3.75,-1.04102 0,-1.56232 3.90788,-9.03244 6.61422,-12.64344 2.82517,-3.76954 3.30042,-11.75083 0.88578,-14.87559 -1.48264,-1.91866 -1.51841,-1.91798 -3.09026,0.0589 -0.87464,1.1 -3.33549,5.63768 -5.46855,10.08374 -3.77275,7.86377 -9.36061,14.36885 -16.1824,18.83865 C 511.43918,748.90794 506,762.20408 506,771.72241 c 0,2.70302 0.6942,7.2522 1.54266,10.10928 1.3118,4.41733 2.54639,6.02842 8.25,10.76594 3.68904,3.06419 9.63234,7.09132 13.20734,8.94919 3.575,1.85786 7.625,4.28486 9,5.39332 3.19906,2.57894 8.9478,2.64207 13.78984,0.15144 z M 959.35202,800.75 c 0.92639,-7.71263 0.78362,-15.75 -0.27978,-15.75 -0.51027,0 -3.19923,3.7125 -5.97548,8.25 l -5.04771,8.25 2.53124,2.25 c 1.39218,1.2375 3.79346,2.25 5.33618,2.25 2.637,0 2.8427,-0.31434 3.43555,-5.25 z m 9.93959,-0.76968 c 4.36857,-5.72591 9.17092,-14.85113 8.28301,-15.73903 -0.3726,-0.37261 -3.40865,-0.93859 -6.74677,-1.25775 l -6.0693,-0.58028 0.51975,6.47496 c 0.32969,4.10727 0.0121,8.14732 -0.86845,11.04837 -0.76351,2.51538 -1.39307,4.93327 -1.39903,5.3731 -0.0215,1.5857 2.9009,-0.88933 6.28079,-5.31937 z M 876,801.08179 C 876,796.70725 875.01612,796 868.93052,796 c -5.62361,0 -17.75689,3.50696 -16.49593,4.76793 0.65041,0.6504 11.69485,1.87727 18.81541,2.0901 4.06517,0.1215 4.75,-0.13459 4.75,-1.77624 z M 903.8075,798.75 903.5,794.5 l -6.90195,-2.42146 -6.90196,-2.42145 -1.92153,2.37298 c -1.46682,1.81146 -1.7641,3.21215 -1.25626,5.91917 0.3659,1.9504 1.18646,3.87782 1.82348,4.28316 0.63702,0.40533 4.44659,0.74387 8.46572,0.75229 l 7.3075,0.0153 -0.3075,-4.25 z m 21.9425,2.64911 c 3.69559,-0.45361 4.25,-0.83979 4.25,-2.96038 0,-1.3413 -0.95293,-3.39166 -2.11762,-4.55635 -1.90975,-1.90975 -2.8057,-2.04982 -9.12711,-1.42692 C 908.18508,793.49702 907,794.1604 907,799.0358 v 4.0853 l 7.25,-0.60017 c 3.9875,-0.33009 9.1625,-0.83491 11.5,-1.12182 z m -74.46788,-6.77023 C 855.25129,792.93764 860.11725,788 857.81478,788 855.77082,788 844,794.10651 844,795.16688 c 0,1.26785 3.68248,0.99578 7.28212,-0.538 z m 92.79152,0.33171 C 946.49415,793.66517 954,784.27342 954,782.54016 c 0,-1.03636 -6.39003,-3.45309 -10.39833,-3.93268 -0.49408,-0.0591 -1.014,2.89141 -1.15538,6.55672 -0.14138,3.6653 -0.55495,7.6028 -0.91906,8.75 -0.74489,2.34694 -0.25774,2.54712 2.54641,1.04639 z M 888.45295,784.83948 C 890.75415,783.79099 891,783.12181 891,777.90663 v -5.77234 l -8.25,4.18285 c -4.5375,2.30057 -8.40359,4.26145 -8.59131,4.3575 -0.18771,0.096 -0.0539,1.08004 0.29728,2.18664 0.9373,2.95318 9.27187,4.13111 13.99698,1.9782 z m 47.10608,-1.21865 c 1.45233,-5.78654 0.28925,-7.788 -6.55903,-11.28701 -3.575,-1.82658 -7.24613,-3.32393 -8.15806,-3.32744 -1.538,-0.006 -1.54134,0.35862 -0.0461,5.0343 1.26093,3.94303 1.37241,5.67529 0.51192,7.95498 l -1.10002,2.9143 6.14614,0.35234 c 3.38038,0.19379 6.70007,0.43905 7.37709,0.54502 0.67702,0.10597 1.49966,-0.87795 1.82808,-2.18649 z m -20.86399,-1.98253 c 0.93204,-0.93205 0.24377,-7.85355 -1.08274,-10.8883 -1.82545,-4.17623 -2.69322,-4.38858 -10.53601,-2.57825 -4.74192,1.09457 -6.42202,2.87851 -4.07629,4.32825 0.55,0.33992 1,2.76648 1,5.39235 0,2.62587 0.22333,4.99765 0.49629,5.27061 0.43832,0.43832 13.65497,-0.98088 14.19875,-1.52466 z M 799.83911,751.73143 c 11.7412,-5.31979 30.56761,-19.12181 34.94677,-25.62019 5.94611,-8.82363 4.88094,-12.50984 -3.96523,-13.72234 -4.51072,-0.61827 -4.57474,-0.58455 -12.92691,6.80726 C 801.02474,734.1255 795.08348,737 781.09523,737 769.48612,737 763.00098,735.158 758,730.44015 756.075,728.62414 751.39407,725.9766 747.59793,724.55673 734.18241,719.53893 732,717.07029 732,706.91311 c 0,-7.35819 2.17549,-11.97662 8.30135,-17.62324 5.44518,-5.01919 8.04809,-6.40672 17.69865,-9.43462 6.43035,-2.01755 9.56799,-2.3533 22,-2.3542 14.16561,-10e-4 14.61262,0.0651 19.38352,2.86935 2.68593,1.57872 8.2348,6.18922 12.33082,10.24556 6.01182,5.95358 8.44369,7.65806 12.61649,8.84279 14.38558,4.08436 52.0762,7.98909 61.28283,6.34888 2.13749,-0.3808 9.73634,-0.71648 16.88634,-0.74595 10.5763,-0.0436 15.88979,0.51374 28.5,2.98936 8.525,1.67362 18.37097,3.92521 21.87993,5.00355 l 6.37993,1.9606 4.12007,-3.76128 c 2.26604,-2.0687 6.25757,-4.88384 8.87007,-6.25587 2.6125,-1.37204 4.75,-2.8382 4.75,-3.25814 0,-0.95932 -7.81839,0.19024 -10.5,1.54385 -1.1,0.55525 -3.47816,2.29356 -5.2848,3.8629 -3.94476,3.42664 -7.23371,3.60549 -15.96511,0.86821 -11.79604,-3.69805 -33.29724,-6.29162 -51.02783,-6.15519 -23.01232,0.17706 -28.38933,-0.77319 -41.71504,-7.3721 C 842.36253,689.4639 841.26492,688.63728 838.5,683.93859 834.70415,677.48793 825.81686,670 821.95655,670 c -5.99692,0 -6.92069,4.00751 -1.95886,8.49791 2.05781,1.86229 2.25574,1.87598 3.45287,0.23881 1.85072,-2.531 2.90886,-2.18817 6.9077,2.23807 3.6461,4.03579 5.34842,8.07275 4.19271,9.94274 -1.10711,1.79133 -18.04811,-7.55751 -24.47173,-13.50465 C 803.06942,670.92302 794.40671,667 787.08578,667 c -4.93264,0 -10.7594,-1.97305 -23.85471,-8.07764 C 758.71205,656.81575 755.43931,656 751.50675,656 c -5.04802,0 -5.57103,0.22363 -7.00405,2.99479 -1.43729,2.77939 -1.40127,3.28371 0.50076,7.012 l 2.04944,4.01722 3.21719,-1.66368 c 3.194,-1.65168 3.20073,-1.67102 0.93313,-2.68285 -3.50799,-1.56531 -2.33454,-4.12375 2.05849,-4.48805 5.29266,-0.4389 18.2874,6.66146 16.13348,8.81538 -1.71281,1.71281 -29.57548,7.12281 -33.39519,6.48423 -1.925,-0.32182 -7.93006,-2.85238 -13.34457,-5.62348 -13.48572,-6.90186 -19.34634,-8.82161 -23.15543,-7.58497 -4.9423,1.60455 -7.5,4.59833 -7.5,8.77871 0,2.76782 0.57171,4.0654 2.25,5.10668 3.20067,1.98584 6.67639,1.15782 7.82537,-1.86423 1.24545,-3.27576 -0.25593,-5.18105 -3.58172,-4.54529 -1.95662,0.37403 -2.49365,0.0639 -2.49365,-1.43988 0,-5.3066 6.07373,-5.73308 12.17226,-0.85471 5.87648,4.70075 15.50731,10.48478 19.79909,11.89082 1.94076,0.63582 3.52865,1.59801 3.52865,2.1382 0,1.54325 -5.19613,3.64281 -10.84223,4.38095 -5.1834,0.67765 -7.92169,0.40365 -19.35456,-1.9366 -5.03871,-1.03141 -6.48705,-1.02756 -7.75,0.0206 -2.16689,1.79836 -1.93628,6.86517 0.61601,13.53471 1.87293,4.89427 4.82138,8.38668 21.58669,25.56924 12.27759,12.58315 21.4999,21.16311 25.08079,23.33387 9.1924,5.57251 21.75372,8.28695 39.1633,8.46301 10.30682,0.10423 10.67183,0.0283 19.83911,-4.12524 z m 35.97384,-2.47511 c 3.79744,-1.83205 8.94931,-5.95017 15.50529,-12.39406 11.64864,-11.44949 16.08499,-13.74817 32.68176,-16.93393 10.38876,-1.99413 12.46629,-2.09871 21.5,-1.08223 5.5,0.61887 16.075,2.47643 23.5,4.12792 29.98554,6.66948 30.04941,6.67889 31.53586,4.64605 2.59257,-3.54555 -0.48436,-5.94025 -9.15554,-7.12555 -2.68418,-0.36691 -8.25532,-1.51826 -12.38032,-2.55855 -11.90987,-3.00356 -31.67052,-5.42502 -42,-5.14667 -11.58046,0.31206 -25.00433,2.6621 -30.12302,5.27346 -4.11993,2.10183 -8.39325,2.52895 -9.37698,0.93724 -1.22404,-1.98053 -2.5,-0.93963 -2.5,2.03945 0,6.28796 -9.05303,16.32519 -23.22275,25.74741 -3.72749,2.47862 -6.77725,4.66555 -6.77725,4.85986 0,1.25384 6.01585,-0.0761 10.81295,-2.3904 z m 162.59675,-2.32224 c 1.6849,-4.21104 1.28014,-7.02392 -0.72257,-5.02121 -1.62896,1.62896 -3.68713,1.30972 -3.68713,-0.57189 0,-2.6306 -14.96888,-16.48883 -17.4302,-16.13692 -3.35702,0.47999 -2.58294,4.03974 1.30003,5.97842 1.85341,0.92537 4.15604,2.95037 5.11697,4.5 0.96092,1.54964 2.98584,3.94252 4.49981,5.31752 1.51398,1.375 3.82949,4.1875 5.14558,6.25 1.3161,2.0625 2.78839,3.75 3.27177,3.75 0.48339,0 1.61097,-1.82966 2.50574,-4.06592 z M 1002.725,729.75 c 4.6897,-5.08871 6.5103,-16.54015 3.8262,-24.0662 -2.6538,-7.44111 -8.38962,-10.72114 -13.9089,-7.95386 -1.58738,0.79589 -3.9416,1.16077 -5.29599,0.82084 -3.97246,-0.99702 -4.73276,0.51002 -1.15823,2.29579 3.76393,1.88039 6.24641,6.20911 5.28965,9.2236 -0.35576,1.12089 -2.63378,3.00332 -5.06228,4.18317 -2.4285,1.17986 -4.41545,2.50552 -4.41545,2.94593 0,1.36549 1.28678,0.96761 7.82987,-2.42104 l 6.32986,-3.27823 -0.5966,-5.31804 -0.59659,-5.31803 2.73443,0.31803 c 1.79871,0.20921 3.54843,1.51573 5.11313,3.81804 2.0997,3.08952 2.3267,4.34603 1.9348,10.71377 -0.4896,7.95609 -1.7353,10.28623 -5.49915,10.28623 -2.36286,0 -2.46899,-0.22751 -1.86574,-4 0.35179,-2.2 0.38696,-4 0.0782,-4 -1.19398,0 -6.46087,3.08916 -6.43737,3.77568 0.0542,1.58322 7.07792,10.22432 8.31061,10.22432 0.72385,0 2.24915,-1.0125 3.38965,-2.25 z M 791.21709,719.5827 C 797.34234,716.87382 802,712.06227 802,708.44351 c 0,-1.32167 -0.73231,-4.23326 -1.62736,-6.47021 -1.42284,-3.55602 -2.52252,-4.48967 -8.75,-7.42892 -12.96618,-6.11979 -24.41046,-5.78104 -37.71012,1.11625 -4.86722,2.52416 -7.1522,4.42109 -8.75,7.26399 -2.7253,4.84903 -2.93257,8.62767 -0.41252,7.52053 4.81392,-2.11491 9.21671,-1.675 14.00807,1.3996 6.02685,3.86742 12.47683,6.72523 19.35086,8.57383 7.13621,1.91911 6.83523,1.9383 13.10816,-0.83588 z M 978,718.2 c 0,-0.44 -0.5625,-1.3713 -1.25,-2.06956 -1.00307,-1.01878 -0.69575,-1.74968 1.55576,-3.7 C 979.84893,711.0937 981.79893,710 982.6391,710 c 2.25141,0 1.05401,-2.44828 -1.37293,-2.80717 -3.67628,-0.54364 -9.1104,8.6296 -6.5995,11.1405 C 975.59754,719.26421 978,719.16811 978,718.2 Z m 213,-117.25934 c 0,-2.07324 -11.3255,-29.65165 -17.4288,-42.44066 -24.7671,-51.89668 -69.3465,-109.94278 -113.8562,-148.25 L 1048.9673,401 H 753 457.03272 l -10.74771,9.25 C 401.77533,448.55722 357.19587,506.60332 332.42885,558.5 326.32545,571.28901 315,598.86742 315,600.94066 315,601.68483 445.30946,602 753,602 c 307.6905,0 438,-0.31517 438,-1.05934 z M 1036.45,391.12517 c -6.5503,-6.032 -39.53403,-28.1328 -56.95,-38.1594 -45.17882,-26.01004 -106.26008,-46.31115 -165.28415,-54.93424 -44.09578,-6.44214 -78.33592,-6.44214 -122.4317,0 -59.02407,8.62309 -120.10533,28.9242 -165.28415,54.93424 -17.41597,10.0266 -50.39974,32.1274 -56.95,38.1594 C 469.00709,391.62512 590.46946,392 753,392 c 162.53054,0 283.9929,-0.37488 283.45,-0.87483 z"
         id="path16" />
    </g>
  </g>
</svg>
