<?xml version="1.0" encoding="UTF-8" standalone="no"?>
<svg
   xmlns:dc="http://purl.org/dc/elements/1.1/"
   xmlns:cc="http://creativecommons.org/ns#"
   xmlns:rdf="http://www.w3.org/1999/02/22-rdf-syntax-ns#"
   xmlns:svg="http://www.w3.org/2000/svg"
   xmlns="http://www.w3.org/2000/svg"
   xmlns:sodipodi="http://sodipodi.sourceforge.net/DTD/sodipodi-0.dtd"
   xmlns:inkscape="http://www.inkscape.org/namespaces/inkscape"
   version="1.1"
   id="svg2"
   width="1043.9261"
   height="1045.8124"
   viewBox="0 0 1043.9261 1045.8124"
   sodipodi:docname="East Valgr.svg"
   inkscape:version="1.0.1 (3bc2e813f5, 2020-09-07)">
  <metadata
     id="metadata8">
    <rdf:RDF>
      <cc:Work
         rdf:about="">
        <dc:format>image/svg+xml</dc:format>
        <dc:type
           rdf:resource="http://purl.org/dc/dcmitype/StillImage" />
        <dc:title></dc:title>
      </cc:Work>
    </rdf:RDF>
  </metadata>
  <defs
     id="defs6" />
  <sodipodi:namedview
     pagecolor="#ffffff"
     bordercolor="#666666"
     borderopacity="1"
     objecttolerance="10"
     gridtolerance="10"
     guidetolerance="10"
     inkscape:pageopacity="0"
     inkscape:pageshadow="2"
     inkscape:window-width="1920"
     inkscape:window-height="1057"
     id="namedview4"
     showgrid="false"
     inkscape:pagecheckerboard="true"
     inkscape:zoom="0.69296465"
     inkscape:cx="532.6199"
     inkscape:cy="479.68178"
     inkscape:window-x="-8"
     inkscape:window-y="-8"
     inkscape:window-maximized="1"
     inkscape:current-layer="g10" />
  <g
     inkscape:groupmode="layer"
     inkscape:label="Image"
     id="g10"
     transform="translate(-230.07385,-238.11395)">
    <circle
       style="fill:#ffffff;fill-rule:evenodd;fill-opacity:1"
       id="path22"
       cx="753.9101"
       cy="760.50708"
       r="507.96243" />
    <g
       id="g14">
      <path
         style="fill:#ba2626"
         d="m 733.8125,1283.3169 c 0.72187,-0.2889 1.58438,-0.2534 1.91667,0.079 0.33229,0.3323 -0.25834,0.5687 -1.3125,0.5253 -1.16495,-0.048 -1.4019,-0.285 -0.60417,-0.6042 z m 37,0 c 0.72187,-0.2889 1.58438,-0.2534 1.91667,0.079 0.33229,0.3323 -0.25834,0.5687 -1.3125,0.5253 -1.16495,-0.048 -1.4019,-0.285 -0.60417,-0.6042 z M 394.87244,1142.25 c -1.24387,-1.5861 -1.2085,-1.6214 0.37756,-0.3776 1.66575,1.3064 2.19548,2.1276 1.37244,2.1276 -0.20765,0 -0.99515,-0.7875 -1.75,-1.75 z M 1109,1143.6224 c 0,-0.2076 0.7875,-0.9951 1.75,-1.75 1.5861,-1.2438 1.6214,-1.2085 0.3776,0.3776 -1.3064,1.6657 -2.1276,2.1955 -2.1276,1.3724 z M 370.87244,1118.25 c -1.24387,-1.5861 -1.2085,-1.6214 0.37756,-0.3776 0.9625,0.7549 1.75,1.5424 1.75,1.75 0,0.8231 -0.82119,0.2933 -2.12756,-1.3724 z M 1133,1119.6224 c 0,-0.2076 0.7875,-0.9951 1.75,-1.75 1.5861,-1.2438 1.6214,-1.2085 0.3776,0.3776 -1.3064,1.6657 -2.1276,2.1955 -2.1276,1.3724 z M 662.25,969.35258 c -11.1375,-11.25279 -20.25285,-20.77304 -20.25632,-21.1561 -0.003,-0.38306 -1.35348,-1.46305 -3,-2.39997 C 637.34715,944.85959 636,943.42269 636,942.6034 c 0,-0.81928 4.52289,-6.12771 10.05086,-11.79651 5.52798,-5.66879 11.1111,-11.43189 12.40694,-12.80689 1.29585,-1.375 5.66046,-5.71023 9.69914,-9.63384 4.03868,-3.92361 21.29306,-21.23552 38.34306,-38.4709 17.05,-17.23537 31.55531,-31.21957 32.23403,-31.07598 0.71883,0.15207 0.99811,-0.35373 0.66895,-1.21152 -0.36414,-0.94893 0.48743,-2.01685 2.39479,-3.00318 1.62793,-0.84184 3.20899,-2.17982 3.51348,-2.9733 0.30449,-0.79348 1.92886,-1.74474 3.60971,-2.11392 3.4589,-0.7597 5.13335,-2.51736 2.39819,-2.51736 -1.79495,0 29.00007,-31.72646 40.91611,-42.15367 4.82346,-4.2208 5.95607,-4.80625 7.12418,-3.6825 0.76391,0.73489 4.14555,3.74821 7.51475,6.69625 3.36919,2.94805 6.12581,5.70789 6.12581,6.13299 0,0.4251 6.4125,7.2462 14.25,15.15801 15.90461,16.05541 17.04235,17.55621 15.47573,20.41421 -0.58329,1.06409 -13.47269,14.4285 -28.64312,29.69868 -15.17044,15.27019 -32.98261,33.38939 -39.58261,40.2649 -6.6,6.8755 -13.45943,13.50672 -15.24317,14.73602 -1.78374,1.22931 -3.24624,2.64106 -3.25,3.13722 -0.0139,1.83498 -61.68485,63.24714 -63.11273,62.84789 -0.49176,-0.1375 -0.8941,0.33367 -0.8941,1.04705 0,1.53395 -7.15506,8.74503 -8.54216,8.60905 -0.52681,-0.0516 -10.07034,-9.30072 -21.20784,-20.55352 z M 887.20065,835.75 c -24.31651,-24.3375 -46.34683,-46.32336 -48.95625,-48.85747 -2.60942,-2.5341 -18.39605,-18.34002 -35.0814,-35.12425 -28.6779,-28.84786 -30.26388,-30.63423 -29,-32.66417 C 776.39259,715.52313 819.35435,673 820.74268,673 c 0.71128,0 18.04766,16.8318 38.52528,37.40399 37.37843,37.55106 47.17592,47.78945 49.03081,51.23727 2.00453,3.72598 21.55016,21.71413 25.81892,23.76155 1.03527,0.49655 1.88231,1.50905 1.88231,2.25 0,0.74096 0.62682,1.34719 1.39294,1.34719 0.76612,0 3.57862,2.55941 6.25,5.68758 2.67138,3.12817 11.71956,12.61476 20.10706,21.08131 8.3875,8.46655 15.25,15.92323 15.25,16.5704 C 979,833.46389 933.05867,880 931.94844,880 c -0.29476,0 -20.43127,-19.9125 -44.74779,-44.25 z m -213.3865,4.42808 c -7.52722,-7.53822 -14.72722,-14.64479 -16,-15.79237 -1.27278,-1.14758 -18.48,-18.69133 -38.23827,-38.98611 C 599.81761,765.10482 571.53233,736.575 556.71969,722 c -25.90547,-25.48987 -26.88793,-26.59573 -25.77404,-29.01148 0.63691,-1.38131 2.4847,-3.27288 4.10619,-4.20349 C 536.67333,687.85443 538,686.39709 538,685.54651 538,684.69593 538.675,684 539.5,684 c 0.825,0 1.5,-0.46909 1.5,-1.04242 0,-1.67822 35.39623,-35.92299 38.04269,-36.80514 0.6338,-0.21127 14.50069,13.0555 30.81532,29.48172 16.31462,16.42621 31.34266,30.99084 33.39564,32.36584 2.05298,1.375 3.73576,2.83379 3.73952,3.24176 0.0115,1.25219 26.44106,26.85217 33.75683,32.69731 2.3375,1.86761 4.25,3.97951 4.25,4.69311 0,0.7136 0.99202,1.82836 2.20448,2.47726 1.21247,0.64889 3.12497,2.28495 4.25,3.63568 1.12504,1.35073 9.84979,10.39815 19.38835,20.10538 17.62474,17.9364 19.72068,20.4287 18.6444,22.17017 -0.3329,0.53863 -0.11048,0.97933 0.49425,0.97933 1.9457,0 7.01852,4.32365 7.01852,5.982 0,1.52041 -2.91131,4.75734 -11.65,12.95305 -1.0175,0.95428 -2.51184,2.70928 -3.32076,3.9 -0.80892,1.19072 -1.99827,2.16495 -2.64301,2.16495 -0.64474,0 -1.43387,0.68175 -1.75362,1.51501 -0.31975,0.83325 -1.71789,1.94711 -3.10698,2.47525 -1.3891,0.52813 -2.52563,1.45742 -2.52563,2.06509 0,1.01338 -23.27216,25.01915 -24.1261,24.88662 -0.20564,-0.0319 -6.53253,-6.22566 -14.05975,-13.76389 z m 67.68554,-64.17839 -11.96905,-12.00032 12.46967,-12.49968 C 748.85863,744.62486 755.0071,739 755.66357,739 c 0.65646,0 1.78822,0.63758 2.515,1.41685 0.72679,0.77926 4.8899,5.27926 9.25136,10 4.36145,4.72073 8.47147,8.58315 9.13336,8.58315 0.6619,0 1.48115,1.0125 1.82057,2.25 0.51244,1.86833 -0.95203,3.7797 -8.63337,11.2679 -5.08777,4.95985 -10.48799,9.80772 -12.00049,10.77306 -1.5125,0.96533 -2.75,2.41977 -2.75,3.23209 0,0.81232 -0.34453,1.47695 -0.76563,1.47695 -0.4211,0 -6.15171,-5.40014 -12.73468,-12.00031 z m -511.42074,3.41698 c 0.048,-1.16495 0.28494,-1.4019 0.60416,-0.60417 0.28887,0.72187 0.25335,1.58438 -0.0789,1.91667 -0.3323,0.33229 -0.56864,-0.25834 -0.52522,-1.3125 z m 459.6327,-55.24574 C 676.67024,711.06495 666,699.9128 666,699.38839 666,697.94894 779.32661,584 780.7582,584 c 0.68299,0 1.24035,-0.5625 1.23858,-1.25 -0.004,-1.70949 41.89683,-42.75 43.64658,-42.75 0.76975,0 3.91535,2.5875 6.99023,5.75 3.07487,3.1625 7.66466,7.775 10.19952,10.25 2.53487,2.475 6.19691,6.17754 8.13787,8.22787 1.94096,2.05033 7.72872,8.01373 12.86169,13.252 5.13296,5.23828 9.18296,9.94303 9,10.45501 C 872.52554,588.7943 714.21497,748 713.66752,748 c -0.13432,0 -10.91446,-10.72308 -23.95587,-23.82907 z m -459.6327,18.24574 c 0.048,-1.16495 0.28494,-1.4019 0.60416,-0.60417 0.28887,0.72187 0.25335,1.58438 -0.0789,1.91667 -0.3323,0.33229 -0.56864,-0.25834 -0.52522,-1.3125 z M 370,404.62244 c 0,-0.20765 0.7875,-0.99515 1.75,-1.75 1.58606,-1.24387 1.62143,-1.2085 0.37756,0.37756 C 370.82119,404.91575 370,405.44548 370,404.62244 Z M 1133.8724,403.25 c -1.2438,-1.58606 -1.2085,-1.62143 0.3776,-0.37756 1.6657,1.30637 2.1955,2.12756 1.3724,2.12756 -0.2076,0 -0.9951,-0.7875 -1.75,-1.75 z M 394,380.62244 c 0,-0.20765 0.7875,-0.99515 1.75,-1.75 1.58606,-1.24387 1.62143,-1.2085 0.37756,0.37756 C 394.82119,380.91575 394,381.44548 394,380.62244 Z M 1109.8724,379.25 c -1.2438,-1.58606 -1.2085,-1.62143 0.3776,-0.37756 1.6657,1.30637 2.1955,2.12756 1.3724,2.12756 -0.2076,0 -0.9951,-0.7875 -1.75,-1.75 z M 733.8125,238.31689 c 0.72187,-0.28887 1.58438,-0.25335 1.91667,0.0789 0.33229,0.33229 -0.25834,0.56864 -1.3125,0.52522 -1.16495,-0.048 -1.4019,-0.28494 -0.60417,-0.60416 z m 37,0 c 0.72187,-0.28887 1.58438,-0.25335 1.91667,0.0789 0.33229,0.33229 -0.25834,0.56864 -1.3125,0.52522 -1.16495,-0.048 -1.4019,-0.28494 -0.60417,-0.60416 z"
         id="path20" />
      <path
         style="fill:#0d4b31"
         d="m 738.26375,1283.2824 c 1.52006,-0.2298 3.77006,-0.2237 5,0.014 1.22994,0.2373 -0.0137,0.4254 -2.76375,0.4179 -2.75,-0.01 -3.75631,-0.2017 -2.23625,-0.4316 z m 25,0 c 1.52006,-0.2298 3.77006,-0.2237 5,0.014 1.22994,0.2373 -0.0137,0.4254 -2.76375,0.4179 -2.75,-0.01 -3.75631,-0.2017 -2.23625,-0.4316 z m -45.45125,-0.9655 c 0.72187,-0.2889 1.58438,-0.2534 1.91667,0.079 0.33229,0.3323 -0.25834,0.5687 -1.3125,0.5253 -1.16495,-0.048 -1.4019,-0.285 -0.60417,-0.6042 z m 69,0 c 0.72187,-0.2889 1.58438,-0.2534 1.91667,0.079 0.33229,0.3323 -0.25834,0.5687 -1.3125,0.5253 -1.16495,-0.048 -1.4019,-0.285 -0.60417,-0.6042 z m -82,-1 c 0.72187,-0.2889 1.58438,-0.2534 1.91667,0.079 0.33229,0.3323 -0.25834,0.5687 -1.3125,0.5253 -1.16495,-0.048 -1.4019,-0.285 -0.60417,-0.6042 z m 95,0 c 0.72187,-0.2889 1.58438,-0.2534 1.91667,0.079 0.33229,0.3323 -0.25834,0.5687 -1.3125,0.5253 -1.16495,-0.048 -1.4019,-0.285 -0.60417,-0.6042 z M 712.5,1257.4775 c -63.69566,-5.8501 -120.99519,-21.6749 -177,-48.8831 -23.01618,-11.1817 -36.09775,-18.6152 -56.5,-32.1058 C 421.80325,1138.6684 375.3316,1092.1968 337.51137,1035 324.02079,1014.5977 316.58726,1001.5162 305.40556,978.5 248.52787,861.42415 239.4053,728.73467 279.82145,606.37441 300.7723,542.94553 332.56252,486.70577 376.49417,435.35168 411.02762,394.98366 458.12401,356.13912 505.5,328.94921 c 44.49366,-25.53568 100.36801,-46.44751 150.6254,-56.37384 28.30317,-5.59016 64.24634,-9.56119 86.6246,-9.57035 L 755,263 v 5 5 l -10.75,0.005 c -13.20079,0.006 -39.69106,2.28362 -58.46585,5.02651 C 545.09696,298.58514 423.8344,375.54954 345.51137,494 321.48385,530.33761 303.88421,566.79928 289.82145,609.37441 253.68775,718.76952 257.33604,832.81725 300.46186,942 c 43.71126,110.6649 131.87285,205.2724 240.03814,257.5885 45.71849,22.1125 94.16658,36.912 145.28415,44.38 18.77479,2.7429 45.26506,5.0203 58.46585,5.0265 l 10.75,0.01 v 5 5 l -14.25,-0.1184 c -7.8375,-0.065 -20.55,-0.6969 -28.25,-1.4041 z m 6,-20 c -61.78296,-5.6745 -120.2224,-21.5161 -173,-46.8966 -55.7877,-26.8279 -112.31333,-70.3981 -153,-117.9328 C 356.20394,1030.2429 329.08377,986.0571 310.47009,939 291.86516,891.96504 281.04249,845.88344 276.49569,794.34125 269.81537,718.61366 287.38615,628.429 323.41905,553.5 345.1207,508.37228 378.95603,461.04445 416.00024,424.00024 453.04445,386.95603 500.37228,353.1207 545.5,331.41905 c 44.14503,-21.22908 93.11838,-36.05858 143.28415,-43.38752 17.97786,-2.62646 45.10489,-5.02008 56.96585,-5.02651 L 755,283 l -0.004,162.75 -0.004,162.75 -44.48659,45 c -24.46763,24.75 -44.481,45.45 -44.47416,46 0.007,0.55 10.78997,11.79822 23.9625,24.99605 l 23.95007,23.99606 20.5025,-20.99606 L 754.949,706.5 l 0.0255,15.9861 0.0255,15.98609 -12.75,12.78659 -12.75,12.78658 12.75,12.6477 12.75,12.6477 v 16.0249 16.0249 l -2.68709,2.80472 c -2.21265,2.30951 -2.3788,2.80472 -0.94098,2.80472 2.69298,0 0.97454,1.76499 -2.45097,2.51736 -1.68085,0.36918 -3.30522,1.32044 -3.60971,2.11392 -0.30449,0.79348 -1.88555,2.13146 -3.51348,2.9733 -1.90736,0.98633 -2.75893,2.05425 -2.39479,3.00318 0.32916,0.85779 0.0499,1.36359 -0.66895,1.21152 -0.67872,-0.14359 -15.18403,13.84061 -32.23403,31.07598 -17.05,17.23538 -34.30438,34.54729 -38.34306,38.4709 -4.03868,3.92361 -8.40329,8.25884 -9.69914,9.63384 -1.29584,1.375 -6.87896,7.1381 -12.40694,12.80689 C 640.52289,936.47569 636,941.78412 636,942.6034 c 0,0.81929 1.34715,2.25619 2.99368,3.19311 1.64652,0.93692 2.99652,2.01657 3,2.39923 C 642.0024,949.15578 682.87516,990 683.82714,990 685.0592,990 692,982.53325 692,981.20784 c 0,-0.66431 0.40234,-1.09534 0.8941,-0.95784 0.9809,0.27427 14.7212,-13.03454 42.99359,-41.64345 C 746.00091,928.37295 754.43841,920 754.63769,920 754.83696,920 755,991.775 755,1079.5 V 1239 l -11.25,-0.1184 c -6.1875,-0.065 -17.55,-0.6969 -25.25,-1.4041 z M 700.1239,842.0801 C 706.65576,835.52415 712,829.66301 712,829.05535 c 0,-0.60767 1.13653,-1.53696 2.52563,-2.06509 1.38909,-0.52814 2.78723,-1.642 3.10698,-2.47525 0.31975,-0.83326 1.10888,-1.51501 1.75362,-1.51501 0.64474,0 1.83409,-0.97423 2.64301,-2.16495 0.80892,-1.19072 2.30326,-2.94572 3.32076,-3.9 8.73869,-8.19571 11.65,-11.43264 11.65,-12.95305 0,-1.65835 -5.07282,-5.982 -7.01852,-5.982 -0.60473,0 -0.82715,-0.4407 -0.49425,-0.97933 1.07628,-1.74147 -1.01966,-4.23377 -18.6444,-22.17017 -9.53856,-9.70723 -18.26331,-18.75465 -19.38835,-20.10538 -1.12503,-1.35073 -3.03753,-2.98679 -4.25,-3.63568 C 685.99202,750.46054 685,749.34578 685,748.63218 c 0,-0.7136 -1.9125,-2.8255 -4.25,-4.69311 -7.31577,-5.84514 -33.7453,-31.44512 -33.75683,-32.69731 -0.004,-0.40797 -1.68654,-1.86676 -3.73952,-3.24176 -2.05298,-1.375 -17.08102,-15.93963 -33.39564,-32.36584 C 593.54338,659.20794 579.67649,645.94117 579.04269,646.15244 576.39623,647.03459 541,681.27936 541,682.95758 541,683.53091 540.325,684 539.5,684 c -0.825,0 -1.5,0.69593 -1.5,1.54651 0,0.85058 -1.32667,2.30792 -2.94816,3.23852 -1.62149,0.93061 -3.46928,2.82218 -4.10619,4.20349 -1.11389,2.41575 -0.13143,3.52161 25.77404,29.01148 14.81264,14.575 43.09792,43.10482 62.85619,63.3996 19.75827,20.29478 36.96549,37.83853 38.23827,38.98611 1.27278,1.14758 8.47278,8.25415 16,15.79237 7.52722,7.53823 13.85411,13.73198 14.05975,13.76389 0.20565,0.0319 5.71815,-5.30593 12.25,-11.86187 z M 403.87244,1150.25 c -1.24387,-1.5861 -1.2085,-1.6214 0.37756,-0.3776 1.66575,1.3064 2.19548,2.1276 1.37244,2.1276 -0.20765,0 -0.99515,-0.7875 -1.75,-1.75 z M 1100,1151.6224 c 0,-0.2076 0.7875,-0.9951 1.75,-1.75 1.5861,-1.2438 1.6214,-1.2085 0.3776,0.3776 -1.3064,1.6657 -2.1276,2.1955 -2.1276,1.3724 z M 389,1136.5 c -2.42903,-2.475 -4.19142,-4.5 -3.91642,-4.5 0.275,0 2.48739,2.025 4.91642,4.5 2.42903,2.475 4.19142,4.5 3.91642,4.5 -0.275,0 -2.48739,-2.025 -4.91642,-4.5 z m 726.9582,0.25 c 4.144,-4.4152 5.0418,-5.2091 5.0418,-4.4582 0,0.1605 -2.1375,2.298 -4.75,4.75 l -4.75,4.4582 z M 377,1124.5 c -2.42903,-2.475 -4.19142,-4.5 -3.91642,-4.5 0.275,0 2.48739,2.025 4.91642,4.5 2.42903,2.475 4.19142,4.5 3.91642,4.5 -0.275,0 -2.48739,-2.025 -4.91642,-4.5 z m 750.9582,0.25 c 2.452,-2.6125 4.5895,-4.75 4.75,-4.75 0.7509,0 -0.043,0.8978 -4.4582,5.0418 l -4.75,4.4582 z m -765.08576,-15.5 c -1.24387,-1.5861 -1.2085,-1.6214 0.37756,-0.3776 0.9625,0.7549 1.75,1.5424 1.75,1.75 0,0.8231 -0.82119,0.2933 -2.12756,-1.3724 z M 1141,1110.6224 c 0,-0.2076 0.7875,-0.9951 1.75,-1.75 1.5861,-1.2438 1.6214,-1.2085 0.3776,0.3776 -1.3064,1.6657 -2.1276,2.1955 -2.1276,1.3724 z M 232.07895,808.41667 c 0.048,-1.16495 0.28494,-1.4019 0.60416,-0.60417 0.28887,0.72187 0.25335,1.58438 -0.0789,1.91667 -0.3323,0.33229 -0.56864,-0.25834 -0.52522,-1.3125 z m 1040.99995,0 c 0.048,-1.16495 0.285,-1.4019 0.6042,-0.60417 0.2889,0.72187 0.2534,1.58438 -0.079,1.91667 -0.3323,0.33229 -0.5687,-0.25834 -0.5253,-1.3125 z m -1041.99995,-13 c 0.048,-1.16495 0.28494,-1.4019 0.60416,-0.60417 0.28887,0.72187 0.25335,1.58438 -0.0789,1.91667 -0.3323,0.33229 -0.56864,-0.25834 -0.52522,-1.3125 z M 230.28601,773.5 c 0.008,-2.75 0.20172,-3.75631 0.43157,-2.23625 0.22986,1.52006 0.22371,3.77006 -0.0136,5 -0.23736,1.22994 -0.42542,-0.0137 -0.41792,-2.76375 z m 0,-25 c 0.008,-2.75 0.20172,-3.75631 0.43157,-2.23625 0.22986,1.52006 0.22371,3.77006 -0.0136,5 -0.23736,1.22994 -0.42542,-0.0137 -0.41792,-2.76375 z m 0.79294,-22.08333 c 0.048,-1.16495 0.28494,-1.4019 0.60416,-0.60417 0.28887,0.72187 0.25335,1.58438 -0.0789,1.91667 -0.3323,0.33229 -0.56864,-0.25834 -0.52522,-1.3125 z m 1,-13 c 0.048,-1.16495 0.28494,-1.4019 0.60416,-0.60417 0.28887,0.72187 0.25335,1.58438 -0.0789,1.91667 -0.3323,0.33229 -0.56864,-0.25834 -0.52522,-1.3125 z m 1040.99995,0 c 0.048,-1.16495 0.285,-1.4019 0.6042,-0.60417 0.2889,0.72187 0.2534,1.58438 -0.079,1.91667 -0.3323,0.33229 -0.5687,-0.25834 -0.5253,-1.3125 z M 362,413.62244 c 0,-0.20765 0.7875,-0.99515 1.75,-1.75 1.58606,-1.24387 1.62143,-1.2085 0.37756,0.37756 C 362.82119,413.91575 362,414.44548 362,413.62244 Z M 1141.8724,412.25 c -1.2438,-1.58606 -1.2085,-1.62143 0.3776,-0.37756 1.6657,1.30637 2.1955,2.12756 1.3724,2.12756 -0.2076,0 -0.9951,-0.7875 -1.75,-1.75 z M 376.95821,397.75 C 381.10217,393.33481 382,392.54091 382,393.29179 c 0,0.16049 -2.1375,2.29799 -4.75,4.75 L 372.5,402.5 Z M 1128,397.5 c -2.429,-2.475 -4.1914,-4.5 -3.9164,-4.5 0.275,0 2.4874,2.025 4.9164,4.5 2.429,2.475 4.1914,4.5 3.9164,4.5 -0.275,0 -2.4874,-2.025 -4.9164,-4.5 z M 388.95821,385.75 C 393.10217,381.33481 394,380.54091 394,381.29179 c 0,0.16049 -2.1375,2.29799 -4.75,4.75 L 384.5,390.5 Z M 1116,385.5 c -2.429,-2.475 -4.1914,-4.5 -3.9164,-4.5 0.275,0 2.4874,2.025 4.9164,4.5 2.429,2.475 4.1914,4.5 3.9164,4.5 -0.275,0 -2.4874,-2.025 -4.9164,-4.5 z M 403,372.62244 c 0,-0.20765 0.7875,-0.99515 1.75,-1.75 1.58606,-1.24387 1.62143,-1.2085 0.37756,0.37756 C 403.82119,372.91575 403,373.44548 403,372.62244 Z M 1100.8724,371.25 c -1.2438,-1.58606 -1.2085,-1.62143 0.3776,-0.37756 1.6657,1.30637 2.1955,2.12756 1.3724,2.12756 -0.2076,0 -0.9951,-0.7875 -1.75,-1.75 z M 704.8125,240.31689 c 0.72187,-0.28887 1.58438,-0.25335 1.91667,0.0789 0.33229,0.33229 -0.25834,0.56864 -1.3125,0.52522 -1.16495,-0.048 -1.4019,-0.28494 -0.60417,-0.60416 z m 95,0 c 0.72187,-0.28887 1.58438,-0.25335 1.91667,0.0789 0.33229,0.33229 -0.25834,0.56864 -1.3125,0.52522 -1.16495,-0.048 -1.4019,-0.28494 -0.60417,-0.60416 z m -82,-1 c 0.72187,-0.28887 1.58438,-0.25335 1.91667,0.0789 0.33229,0.33229 -0.25834,0.56864 -1.3125,0.52522 -1.16495,-0.048 -1.4019,-0.28494 -0.60417,-0.60416 z m 69,0 c 0.72187,-0.28887 1.58438,-0.25335 1.91667,0.0789 0.33229,0.33229 -0.25834,0.56864 -1.3125,0.52522 -1.16495,-0.048 -1.4019,-0.28494 -0.60417,-0.60416 z m -48.54875,-1.03447 c 1.52006,-0.22986 3.77006,-0.22371 5,0.0136 1.22994,0.23736 -0.0137,0.42542 -2.76375,0.41792 -2.75,-0.008 -3.75631,-0.20172 -2.23625,-0.43157 z m 25,0 c 1.52006,-0.22986 3.77006,-0.22371 5,0.0136 1.22994,0.23736 -0.0137,0.42542 -2.76375,0.41792 -2.75,-0.008 -3.75631,-0.20172 -2.23625,-0.43157 z"
         id="path18" />
      <path
         style="fill:#000000"
         d="M 729,1282.9342 C 528.03649,1273.6943 349.52268,1149.2058 271.48731,963.88296 221.12059,844.26919 217.12902,708.47818 260.4035,586.81782 313.45801,437.66226 429.66226,321.45801 578.81782,268.4035 c 111.62525,-39.705 236.73911,-39.705 348.36436,0 149.15552,53.05451 265.35982,169.25876 318.41432,318.41432 9.9021,27.8385 17.8151,58.577 22.8293,88.68218 4.8257,28.97329 5.5742,40.45435 5.5742,85.5 0,45.04565 -0.7485,56.52671 -5.5742,85.5 -20.5805,123.56496 -84.8575,235.7836 -180.9258,315.8717 -78.8145,65.7042 -176.24868,107.052 -278.29882,118.1005 -13.86287,1.5009 -51.58766,3.6191 -59.70118,3.3522 -2.2,-0.072 -11.425,-0.4729 -20.5,-0.8902 z m 63.34125,-25.4299 c 64.29046,-5.6714 121.46754,-21.3682 178.15875,-48.9099 23.01618,-11.1817 36.0977,-18.6152 56.5,-32.1058 65.2071,-43.1169 119.5093,-100.8334 158.0508,-167.9886 26.5342,-46.23346 47.8063,-104.09186 57.4367,-156.22268 C 1248.4963,819.75049 1249,812.69063 1249,761 c 0,-51.69063 -0.5037,-58.75049 -6.5125,-91.27732 -9.6304,-52.13082 -30.9025,-109.98922 -57.4367,-156.22268 -27.1899,-47.37599 -66.0345,-94.47238 -106.4025,-129.00583 -51.3541,-43.93165 -107.59383,-75.72187 -171.02271,-96.67272 -100.04996,-33.04695 -209.20122,-33.04695 -309.25118,0 -63.42888,20.95085 -119.66864,52.74107 -171.02273,96.67272 -33.2686,28.46015 -64.26202,63.82296 -89.84031,102.50583 -13.49058,20.40225 -20.92411,33.48382 -32.10581,56.5 -56.87769,117.07585 -66.00026,249.76533 -25.58411,372.12559 20.95085,63.42888 52.74107,119.66861 96.67272,171.02271 28.46015,33.2686 63.82296,64.262 102.50583,89.8403 20.40225,13.4906 33.48382,20.9241 56.5,32.1058 56.00481,27.2082 113.30434,43.033 177,48.8831 19.66562,1.8061 59.51894,1.8195 79.84125,0.027 z M 715.5,1247.4775 c -62.75235,-5.7635 -120.67654,-21.6145 -175,-47.889 C 442.93388,1152.3989 361.60108,1071.0661 314.41152,973.5 282.49536,907.51218 265.01004,832.29923 265.01004,761 c 0,-71.29923 17.48532,-146.51218 49.40148,-212.5 C 361.60108,450.93388 442.93388,369.60108 540.5,322.41152 606.48782,290.49536 681.70077,273.01004 753,273.01004 c 71.29923,0 146.51218,17.48532 212.5,49.40148 97.5661,47.18956 178.8989,128.52236 226.0885,226.08848 23.1866,47.9392 38.1421,98.26488 45.4278,152.86637 1.7273,12.94511 1.9837,20.65192 1.9837,59.63363 0,48.37481 -0.571,56.11473 -6.5125,88.27732 -9.4902,51.37204 -30.2197,108.29416 -55.4356,152.22268 -49.1212,85.574 -124.1215,155.8012 -211.5519,198.0885 -66.89626,32.3555 -142.24391,49.669 -214.5,49.2881 -11.825,-0.062 -27.8,-0.6919 -35.5,-1.3991 z m 70.84125,-9.9732 c 51.54219,-4.5468 97.62379,-15.3695 144.65875,-33.9744 47.0571,-18.6137 91.2429,-45.7338 133.6481,-82.0299 47.5347,-40.6867 91.1049,-97.2123 117.9328,-153 22.2994,-46.37068 37.2778,-97.22497 44.4354,-150.86637 C 1228.7256,804.8236 1229,796.98994 1229,761 c 0,-35.98994 -0.2744,-43.8236 -1.9837,-56.63363 -7.1576,-53.6414 -22.136,-104.49569 -44.4354,-150.86637 -26.8279,-55.7877 -70.3981,-112.31333 -117.9328,-153 C 1022.2429,364.20394 978.0571,337.08377 931,318.47009 883.96504,299.86516 837.88344,289.04249 786.34125,284.49569 710.61366,277.81537 620.429,295.38615 545.5,331.41905 489.7123,358.24702 433.18667,401.81715 392.5,449.35192 356.20394,491.75709 329.08377,535.9429 310.47009,583 c -18.60493,47.03496 -29.4276,93.11656 -33.9744,144.65875 -6.68032,75.72759 10.89046,165.91225 46.92336,240.84125 21.70165,45.1277 55.53698,92.4556 92.58119,129.4998 37.04421,37.0442 84.37204,70.8795 129.49976,92.5811 74.79901,35.9704 165.24503,53.5921 240.84125,46.9234 z"
         id="path16" />
    </g>
  </g>
</svg>
