<?xml version="1.0" encoding="UTF-8" standalone="no"?>
<svg
   xmlns:dc="http://purl.org/dc/elements/1.1/"
   xmlns:cc="http://creativecommons.org/ns#"
   xmlns:rdf="http://www.w3.org/1999/02/22-rdf-syntax-ns#"
   xmlns:svg="http://www.w3.org/2000/svg"
   xmlns="http://www.w3.org/2000/svg"
   xmlns:sodipodi="http://sodipodi.sourceforge.net/DTD/sodipodi-0.dtd"
   xmlns:inkscape="http://www.inkscape.org/namespaces/inkscape"
   version="1.1"
   id="svg2"
   width="1043.7872"
   height="1045.6924"
   viewBox="0 0 1043.7872 1045.6924"
   sodipodi:docname="Eastmarch.svg"
   inkscape:version="1.0.1 (3bc2e813f5, 2020-09-07)">
  <metadata
     id="metadata8">
    <rdf:RDF>
      <cc:Work
         rdf:about="">
        <dc:format>image/svg+xml</dc:format>
        <dc:type
           rdf:resource="http://purl.org/dc/dcmitype/StillImage" />
        <dc:title></dc:title>
      </cc:Work>
    </rdf:RDF>
  </metadata>
  <defs
     id="defs6" />
  <sodipodi:namedview
     pagecolor="#ffffff"
     bordercolor="#666666"
     borderopacity="1"
     objecttolerance="10"
     gridtolerance="10"
     guidetolerance="10"
     inkscape:pageopacity="0"
     inkscape:pageshadow="2"
     inkscape:window-width="1920"
     inkscape:window-height="1057"
     id="namedview4"
     showgrid="false"
     inkscape:pagecheckerboard="true"
     inkscape:zoom="0.49"
     inkscape:cx="519.80648"
     inkscape:cy="511.88605"
     inkscape:window-x="-8"
     inkscape:window-y="-8"
     inkscape:window-maximized="1"
     inkscape:current-layer="g10" />
  <g
     inkscape:groupmode="layer"
     inkscape:label="Image"
     id="g10"
     transform="translate(-230.19352,-238.11395)">
    <g
       id="g14">
      <path
         style="fill:#fdf4b9"
         d="m 728.26903,1283.307 c 0.97297,-0.2535 2.32297,-0.2369 3,0.037 0.67703,0.2739 -0.11903,0.4813 -1.76903,0.461 -1.65,-0.02 -2.20394,-0.2445 -1.23097,-0.4981 z m 47,0 c 0.97297,-0.2535 2.32297,-0.2369 3,0.037 0.67703,0.2739 -0.11903,0.4813 -1.76903,0.461 -1.65,-0.02 -2.20394,-0.2445 -1.23097,-0.4981 z m -74.45653,-1.9901 c 0.72187,-0.2889 1.58438,-0.2534 1.91667,0.079 0.33229,0.3323 -0.25834,0.5687 -1.3125,0.5253 -1.16495,-0.048 -1.4019,-0.285 -0.60417,-0.6042 z m 103,0 c 0.72187,-0.2889 1.58438,-0.2534 1.91667,0.079 0.33229,0.3323 -0.25834,0.5687 -1.3125,0.5253 -1.16495,-0.048 -1.4019,-0.285 -0.60417,-0.6042 z M 715.5,1247.4775 c -62.75235,-5.7635 -120.67654,-21.6145 -175,-47.889 C 442.93388,1152.3989 361.60108,1071.0661 314.41152,973.5 282.49536,907.51218 265.01004,832.29923 265.01004,761 c 0,-71.29923 17.48532,-146.51218 49.40148,-212.5 C 361.60108,450.93388 442.93388,369.60108 540.5,322.41152 606.48782,290.49536 681.70077,273.01004 753,273.01004 c 71.29923,0 146.51218,17.48532 212.5,49.40148 97.5661,47.18956 178.8989,128.52236 226.0885,226.08848 23.1866,47.9392 38.1421,98.26488 45.4278,152.86637 1.7273,12.94511 1.9837,20.65192 1.9837,59.63363 0,48.37481 -0.571,56.11473 -6.5125,88.27732 -9.4902,51.37204 -30.2197,108.29416 -55.4356,152.22268 -49.1212,85.574 -124.1215,155.8012 -211.5519,198.0885 -66.89626,32.3555 -142.24391,49.669 -214.5,49.2881 -11.825,-0.062 -27.8,-0.6919 -35.5,-1.3991 z m 70.84125,-9.9732 c 51.54219,-4.5468 97.62379,-15.3695 144.65875,-33.9744 47.0571,-18.6137 91.2429,-45.7338 133.6481,-82.0299 47.5347,-40.6867 91.1049,-97.2123 117.9328,-153 22.2994,-46.37068 37.2778,-97.22497 44.4354,-150.86637 C 1228.7256,804.8236 1229,796.98994 1229,761 c 0,-35.98994 -0.2744,-43.8236 -1.9837,-56.63363 -7.1576,-53.6414 -22.136,-104.49569 -44.4354,-150.86637 -26.8279,-55.7877 -70.3981,-112.31333 -117.9328,-153 C 1022.2429,364.20394 978.0571,337.08377 931,318.47009 883.96504,299.86516 837.88344,289.04249 786.34125,284.49569 710.61366,277.81537 620.429,295.38615 545.5,331.41905 489.7123,358.24702 433.18667,401.81715 392.5,449.35192 356.20394,491.75709 329.08377,535.9429 310.47009,583 c -18.60493,47.03496 -29.4276,93.11656 -33.9744,144.65875 -6.68032,75.72759 10.89046,165.91225 46.92336,240.84125 21.70165,45.1277 55.53698,92.4556 92.58119,129.4998 37.04421,37.0442 84.37204,70.8795 129.49976,92.5811 74.79901,35.9704 165.24503,53.5921 240.84125,46.9234 z M 737.32803,1035.25 c 0.35424,-11.9625 1.13095,-25.9634 1.72601,-31.1132 1.23154,-10.65797 1.28698,-10.53634 -8.28832,-18.1872 l -4.73428,-3.78279 -6.33987,2.29956 c -3.48692,1.26476 -9.60928,4.15223 -13.60525,6.4166 C 702.09036,993.14734 698.41122,995 697.91047,995 697.40971,995 697,995.36033 697,995.80073 c 0,1.25223 -9.20373,5.40987 -9.97477,4.50587 -0.37844,-0.44361 -1.26407,-2.8316 -1.96807,-5.3066 -2.61208,-9.18318 -8.65718,-17.35954 -13.78635,-18.64688 C 670.02187,976.03966 669,975.43539 669,975.01031 c 0,-1.84232 -10.22641,-3.04335 -26.09166,-3.06431 l -17.08119,-0.0226 -3.81108,3.28828 c -10.30922,8.89502 -16.60676,13.7947 -32.50294,25.28832 -5.32473,3.85 -10.20599,7.4695 -10.84723,8.0433 -0.64125,0.5738 -3.4159,2.326 -6.1659,3.8938 -15.56124,8.8717 -23.19087,12.7419 -28.65645,14.5361 -3.36356,1.1042 -6.61686,2.4096 -7.22956,2.9008 -2.31581,1.8568 -19.46928,5.4422 -28.15623,5.8852 -10.73859,0.5477 -17.21771,-1.2082 -22.20776,-6.0186 -3.88777,-3.7477 -3.97132,-5.0052 -0.84396,-12.7017 l 2.40605,-5.9213 -2.90605,-0.6382 C 483.30772,1010.1283 482,1009.4951 482,1009.0722 c 0,-0.4228 -1.85062,-1.4958 -4.11249,-2.3843 -5.89303,-2.3148 -16.87667,-9.91892 -16.88246,-11.6879 -0.004,-1.27237 2.57095,-1.5087 16.969,-1.55731 9.33565,-0.0315 17.17832,-0.26173 17.42816,-0.51157 0.24984,-0.24984 2.31258,-6.74905 4.58386,-14.44269 3.03376,-10.27645 4.27855,-16.50936 4.69094,-23.48843 0.657,-11.11876 -0.36668,-15.81334 -4.9406,-22.65734 -4.18859,-6.26741 -16.42724,-14.62093 -23.87063,-16.29295 -2.95118,-0.66292 -6.04078,-1.45547 -6.86578,-1.76121 -0.825,-0.30575 -3.14172,-0.46463 -5.14826,-0.35308 -2.00655,0.11156 -3.9456,-0.27828 -4.30902,-0.8663 -0.75043,-1.21421 -22.35845,-1.48586 -24.16646,-0.30381 -1.34488,0.87927 -1.08206,11.8009 0.511,21.23469 1.44779,8.57357 1.41581,9 -0.67485,9 -3.9308,0 -13.55267,-12.25811 -21.78204,-27.75 -3.72702,-7.01616 -3.97157,-7.25 -7.58179,-7.25 -2.0518,0 -4.0132,-0.45734 -4.35866,-1.01631 -0.34546,-0.55897 -1.08993,-0.7309 -1.65437,-0.38205 -0.56444,0.34884 -1.99585,0.18114 -3.1809,-0.37267 -1.18506,-0.55381 -5.03487,-1.7526 -8.55514,-2.66399 -10.54079,-2.72896 -21.45457,-10.54956 -25.41804,-18.21406 -3.29251,-6.36701 -6.51707,-16.28485 -7.62597,-23.45536 -0.98091,-6.34287 -1.62816,-7.86715 -4.54718,-10.70869 -8.43953,-8.21549 -11.28031,-15.73663 -10.24719,-27.13005 0.54059,-5.9617 2.07849,-9.61485 6.03791,-14.34252 2.117,-2.52776 3.11772,-2.84107 10.80792,-3.38377 5.91823,-0.41766 11.73121,-0.064 19.26889,1.17239 16.38971,2.68831 31.64555,0.88843 43.81703,-5.16951 6.56612,-3.26807 17.80709,-11.44201 17.80711,-12.94855 0,-0.61333 0.90964,-2.27155 2.02141,-3.68494 1.11178,-1.41339 2.63689,-4.31425 3.38914,-6.44636 0.75225,-2.1321 2.27683,-5.87388 3.38796,-8.31506 1.11114,-2.44117 2.74485,-7.2375 3.63048,-10.6585 1.38458,-5.34838 2.4833,-7.10003 7.84062,-12.5 6.72236,-6.77588 8.90911,-9.38116 11.63136,-13.85754 6.7488,-11.09751 35.1955,-40.63659 63.61928,-66.0623 9.90877,-8.86362 14.08175,-11.94638 17.49605,-12.92508 2.46604,-0.70689 4.93371,-1.6045 5.48371,-1.99469 0.55,-0.39019 2.43447,-1.01601 4.18771,-1.39069 2.85872,-0.61094 3.46909,-1.42269 5.91417,-7.86547 1.49956,-3.95133 3.29137,-8.08423 3.9818,-9.18423 1.40666,-2.24109 5.99947,-16.9462 5.33966,-17.09631 -0.23284,-0.053 0.11168,-0.74096 0.76559,-1.52888 1.06132,-1.27881 3.19494,-7.82539 9.3805,-28.78213 1.04015,-3.52403 2.80004,-7.25406 3.91087,-8.28896 1.11084,-1.03489 2.0197,-1.6391 2.0197,-1.34268 0,0.29643 0.7875,-0.15249 1.75,-0.99759 3.33627,-2.92933 11.11122,-8.34025 14.42252,-10.03724 1.83011,-0.9379 3.55248,-2.02434 3.82748,-2.41431 0.275,-0.38998 2.525,-1.84169 5,-3.22604 5.31771,-2.97437 13.44963,-8.2543 20.75,-13.47265 3.98745,-2.85026 5.25,-4.36801 5.25,-6.31119 0,-7.25908 11.41448,-24.02909 19.89352,-29.22732 1.98357,-1.21606 4.41155,-2.95016 5.39552,-3.85356 C 670.20007,506.1666 679.04291,503 682.0315,503 c 0.99101,0 1.9893,-0.5625 2.21842,-1.25 0.55278,-1.65865 39.45143,-1.81419 40.53593,-0.16209 0.39278,0.59835 2.96415,1.64189 5.71415,2.31899 10.6353,2.61858 26.0038,11.91967 37.67576,22.80154 3.12167,2.91036 6.12703,5.29156 6.67857,5.29156 0.55155,0 1.79031,-0.7875 2.75281,-1.75 0.9625,-0.9625 1.88522,-1.65808 2.05049,-1.54574 0.48263,0.32808 11.69667,-4.87033 13.34237,-6.18501 0.825,-0.65906 4.0875,-2.22277 7.25,-3.47491 3.1625,-1.25215 5.75,-2.67436 5.75,-3.16048 0,-0.48612 0.3375,-0.81022 0.75,-0.72022 0.75012,0.16366 3.62339,-1.05687 16.75,-7.11516 15.16754,-7.00025 17.22165,-7.88008 23.5,-10.06572 3.575,-1.24454 6.725,-2.54064 7,-2.88021 0.275,-0.33958 4.55,-1.90571 9.5,-3.48031 4.95,-1.57459 9.45,-3.20833 10,-3.63052 0.55,-0.4222 4.6,-1.73086 9,-2.90815 4.4,-1.17729 8.675,-2.42634 9.5,-2.77568 0.825,-0.34934 1.725,-0.71289 2,-0.80789 0.275,-0.095 1.175,-0.447 2,-0.78221 0.825,-0.33522 6.4134,-1.57744 12.41866,-2.76049 6.00527,-1.18306 11.63027,-2.5239 12.5,-2.97964 6.17488,-3.23567 52.515,-4.95473 80.58134,-2.98929 9.9,0.69327 18.7875,1.67034 19.75,2.17125 3.0434,1.58386 1.9065,3.53665 -2.8313,4.86314 -2.5197,0.70548 -5.1072,1.77646 -5.75,2.37996 -0.6428,0.6035 -3.271,2.08683 -5.8405,3.29627 -2.5694,1.20945 -7.5166,4.35945 -10.99367,7 -9.346,7.09754 -24.05978,21.30459 -22.04054,21.28149 0.93831,-0.0107 6.65601,-0.682 12.70601,-1.4917 6.05,-0.80969 12.8225,-1.4759 15.05,-1.48047 2.2275,-0.005 4.4775,-0.41416 5,-0.9102 1.393,-1.32242 36.8761,-3.09811 61.9087,-3.09811 23.9554,0 60.4749,1.74139 62.0413,2.95837 0.55,0.42732 4.5562,1.08649 8.9027,1.46482 4.3465,0.37834 9.184,0.94414 10.75,1.25735 3.1627,0.63253 3.8101,2.78084 1.0973,3.64124 -6.6887,2.12141 -39.7009,24.04734 -55.6911,36.98861 -22.1654,17.93909 -51.1437,46.76222 -66.0101,65.65649 -2.7232,3.46098 -5.4382,6.79678 -6.0334,7.4129 -0.5952,0.61612 -3.7453,4.94522 -7.0001,9.62022 -3.2548,4.675 -6.1922,8.725 -6.5275,9 C 1008.7659,645.00218 998,662.09648 998,663.03441 998,663.56548 997.62347,664 997.16327,664 c -0.46019,0 -2.37269,3.0375 -4.25,6.75 -1.8773,3.7125 -3.69747,6.975 -4.04483,7.25 C 988.12503,678.58854 972,710.47397 972,711.35542 c 0,0.33039 -1.575,3.96478 -3.5,8.07641 -1.925,4.11163 -3.5,7.71163 -3.5,8 0,0.28837 -1.5274,3.79667 -3.39423,7.79624 -1.86682,3.99956 -3.96305,9.18443 -4.65829,11.52193 -0.69523,2.3375 -1.60614,4.25 -2.02424,4.25 -0.4181,0 -1.75677,3.0375 -2.97482,6.75 -1.21805,3.7125 -2.59591,7.23547 -3.06191,7.82883 -0.46601,0.59335 -1.97096,4.06418 -3.34436,7.71295 -1.37339,3.64877 -3.36424,8.56329 -4.42412,10.92117 -1.05987,2.35788 -2.7225,6.53705 -3.69473,9.28705 -0.97223,2.75 -2.1953,5.5625 -2.71794,6.25 -0.52264,0.6875 -0.55765,1.25689 -0.0778,1.26531 0.47984,0.008 0.37656,0.34592 -0.22951,0.75 -0.60607,0.40408 -2.09579,3.62763 -3.31048,7.16345 -1.2147,3.53582 -2.67537,7.30103 -3.24593,8.36714 -0.57057,1.06611 -2.31167,5.37317 -3.86913,9.57124 -3.44206,9.27799 -8.22783,20.83037 -11.52529,27.82093 -1.34597,2.85345 -2.44722,5.44178 -2.44722,5.75187 0,3.04936 -29.50316,60.5393 -36.10802,70.36019 -1.59059,2.36507 -2.89198,4.54981 -2.89198,4.85498 0,0.30516 -1.4165,2.6451 -3.14777,5.19987 -1.73128,2.55476 -4.26301,6.67002 -5.62606,9.14502 -1.36306,2.475 -3.25226,5.4 -4.19823,6.5 -0.94596,1.1 -3.92515,5.15 -6.62041,9 -2.69526,3.85 -5.43096,7.675 -6.07934,8.5 -18.90714,24.0575 -34.46653,39.9051 -55.32819,56.3531 -10.54852,8.3168 -30.8894,19.6838 -44,24.5884 -10.05294,3.7607 -9.40971,5.2213 -8.67197,-19.6915 z m 49.56878,-31.8086 c 1.98175,-2.2323 5.85319,-6.88964 8.60319,-10.34968 2.75,-3.46004 5.69205,-7.03364 6.53789,-7.94135 0.84583,-0.9077 2.73288,-3.22537 4.19344,-5.15037 5.24208,-6.90903 15.70216,-20.51968 16.5232,-21.5 2.12454,-2.53669 16.59396,-24.10812 20.62344,-30.74604 9.64871,-15.89466 29.90895,-58.72182 27.80197,-58.76927 -0.37397,-0.008 -0.14808,-0.35355 0.50197,-0.76694 1.15314,-0.73332 3.52857,-6.46529 9.41466,-22.71775 1.59353,-4.4 3.34329,-8.77273 3.88836,-9.71718 0.54506,-0.94445 2.30849,-5.44445 3.91873,-10 1.61024,-4.55555 4.58858,-12.78282 6.61853,-18.28282 3.42578,-9.28189 6.01539,-16.40742 13.4468,-37 3.40106,-9.42441 8.25988,-21.37979 10.97315,-27 2.8185,-5.83818 6.00633,-13.42958 5.94243,-14.15107 -0.0305,-0.34393 0.33296,-0.90063 0.80762,-1.23713 0.47466,-0.33649 1.73829,-2.6368 2.80809,-5.1118 2.04807,-4.73829 14.39935,-27.63123 21.31117,-39.5 2.24206,-3.85 5.28571,-9.25 6.76366,-12 1.47795,-2.75 2.99256,-5.225 3.3658,-5.5 0.37324,-0.275 3.31561,-4.55 6.53861,-9.5 3.22299,-4.95 6.3461,-9.33061 6.94024,-9.73469 0.59413,-0.40408 0.6643,-0.74158 0.15593,-0.75 -0.50838,-0.008 -0.0152,-1.02781 1.09599,-2.26531 1.11117,-1.2375 4.21179,-5.4 6.89025,-9.25 2.67847,-3.85 5.13195,-7.225 5.45218,-7.5 0.32024,-0.275 1.6728,-2.075 3.00569,-4 9.0277,-13.03803 37.8618,-46.40342 49.9358,-57.78311 2.4994,-2.35572 7.0194,-6.64077 10.0444,-9.52234 3.025,-2.88157 7.7316,-7.02916 10.4591,-9.21688 2.7274,-2.18772 5.6524,-4.56023 6.5,-5.27225 5.4825,-4.60599 10.757,-8.52439 13.1182,-9.74539 1.5081,-0.77987 2.8952,-1.82004 3.0824,-2.31148 0.1871,-0.49145 2.7475,-2.10617 5.6897,-3.58828 2.9422,-1.4821 5.0567,-2.98755 4.6988,-3.34543 -1.386,-1.38596 -27.038,-3.08416 -47.5482,-3.14777 -21.8047,-0.0676 -59.44617,2.27085 -61.4205,3.81574 -0.59372,0.46458 -4.34243,1.13419 -8.33045,1.48801 -10.30675,0.91444 -35.19047,4.5465 -38.74905,5.65587 -5.05012,1.57434 -27.95583,4.8986 -28.6912,4.16389 -0.38016,-0.37982 3.34781,-4.06558 8.28439,-8.19058 4.93658,-4.125 9.97262,-8.34186 11.1912,-9.37079 2.68677,-2.26862 11.80463,-9.28527 16.09401,-12.38514 1.71688,-1.24076 5.1466,-3.81381 7.6216,-5.71789 4.87406,-3.74973 10.26412,-7.64854 16.38955,-11.85509 L 973.27909,484 h -6.03273 c -7.57305,0 -32.41532,2.66409 -37.74636,4.04793 -2.2,0.57107 -8.95,2.1851 -15,3.58672 -6.05,1.40162 -12.35,3.1706 -14,3.93107 -1.65,0.76047 -6.15,2.34138 -10,3.51314 -3.85,1.17176 -7.49898,2.53576 -8.10885,3.0311 -0.60986,0.49535 -3.73579,1.80444 -6.9465,2.90908 -3.21072,1.10465 -6.87424,2.68764 -8.14116,3.51776 -1.26692,0.83012 -2.31038,1.16143 -2.3188,0.73625 -0.008,-0.42518 -0.34592,-0.29509 -0.75,0.28908 -0.40408,0.58417 -3.32219,2.09893 -6.48469,3.36614 -3.1625,1.26721 -5.75,2.70175 -5.75,3.18787 0,0.48612 -0.3375,0.79384 -0.75,0.68382 -0.80625,-0.21504 -11.41998,5.05386 -12.25,6.08119 -0.275,0.34037 -2.975,1.88461 -6,3.43165 -10.68045,5.46216 -38.93022,22.63917 -41.85026,25.44665 -1.13285,1.08918 -1.1086,1.81686 0.15064,4.51938 0.82549,1.77164 2.23085,5.47117 3.12303,8.22117 0.89217,2.75 2.03303,5.9 2.53524,7 3.63628,7.96454 6.5443,31.99952 5.6866,47 -0.80272,14.03901 -2.81429,23.29606 -6.80705,31.32538 C 792.51482,656.50859 785.23866,665 782.8353,665 c -1.88609,0 -13.20483,-4.00833 -13.8353,-4.89952 -0.275,-0.38873 -2.975,-1.63728 -6,-2.77456 l -5.5,-2.06779 4.10868,-3.87907 c 7.54184,-7.12035 11.96831,-15.61171 16.61827,-31.87906 2.73393,-9.56434 2.94315,-31.12568 0.39222,-40.42004 C 775.15486,566.4577 766.74009,553.12232 757.28712,545.27379 750.7921,539.88116 741.25319,533.61826 737,531.954 c -1.925,-0.75325 -4.09464,-1.95104 -4.82143,-2.66177 -2.00699,-1.96265 -3.26703,-1.62614 -9.79561,2.61605 -11.71138,7.6099 -16.51448,15.47209 -15.92016,26.0597 0.19988,3.56075 0.85532,6.63806 1.45654,6.83847 0.60122,0.2004 0.84465,0.76641 0.54096,1.25779 -0.30369,0.49137 1.94351,6.14375 4.99377,12.56083 3.05026,6.41708 5.54593,12.44702 5.54593,13.39985 0,0.97319 -1.28495,2.26468 -2.93196,2.9469 -1.61258,0.66795 -4.40001,2.29754 -6.19428,3.62132 -4.40468,3.24967 -5.50931,3.0401 -6.19333,-1.17498 -0.31969,-1.97 -1.48793,-5.4575 -2.59609,-7.75 -2.16657,-4.48203 -6.32129,-15.37575 -8.64535,-22.66816 -5.81812,-18.25604 0.0152,-35.07394 14.974,-43.17096 2.63949,-1.42873 2.82914,-1.77202 1.30826,-2.36803 -2.50643,-0.98222 -20.71143,-0.0625 -21.5381,1.08813 -0.37573,0.52297 -2.90377,2.07586 -5.61785,3.45086 -8.9276,4.52287 -13.06814,13.23792 -14.11897,29.71778 -0.42772,6.70785 -0.18611,7.83823 3.41983,16 2.13404,4.83022 5.16482,11.70722 6.73507,15.28222 1.57025,3.575 3.09406,6.725 3.38626,7 0.842,0.79246 5.28557,12.06958 4.87894,12.38204 -0.20154,0.15487 -2.95393,1.30953 -6.11643,2.56591 -3.1625,1.25639 -5.75,2.61005 -5.75,3.00813 0,0.39809 -1.82974,1.32767 -4.06609,2.06573 l -4.06609,1.34193 -3.96072,-4.43187 c -6.96328,-7.7916 -11.73533,-14.35627 -12.41216,-17.07477 -0.74261,-2.98276 -0.94413,-2.98859 -14.65415,-0.42433 -9.44267,1.76611 -16.14347,3.68472 -16.95259,4.85396 -0.3365,0.48625 -1.0115,0.90295 -1.5,0.926 -0.48851,0.0231 -1.5632,0.25179 -2.3882,0.50832 -6.1784,1.92114 -6.99773,2.69935 -11.18628,10.62476 -5.54786,10.49744 -11.47466,24.40629 -13.91452,32.65419 -1.05754,3.575 -2.82401,9.425 -3.92549,13 -1.10148,3.575 -1.99617,7.04035 -1.9882,7.70078 0.008,0.66043 -0.46581,3.44036 -1.05285,6.17762 l -1.06734,4.97684 -6.68266,0.6536 c -8.46546,0.82798 -19.023,3.28484 -21.89748,5.0958 -1.21815,0.76745 -2.83137,1.39536 -3.58494,1.39536 -2.18287,0 -19.56223,9.23523 -27.2103,14.45929 -14.35117,9.80267 -23.8733,18.79258 -38.63726,36.4777 -2.42318,2.90263 -10.75952,20.34721 -11.50524,24.07581 -1.28818,6.4409 3.82036,16.3313 9.99949,19.35956 3.28568,1.61024 4.19381,1.69081 6.48681,0.57549 1.46644,-0.71328 2.97648,-1.22744 3.35563,-1.14257 0.37916,0.0849 2.17916,-1.58877 4,-3.71919 3.71778,-4.34988 8.54805,-15.89121 9.472,-22.63218 0.49487,-3.61047 0.99531,-4.45391 2.64264,-4.45391 3.75376,0 15.1838,2.2363 16.40219,3.20911 0.6634,0.52969 1.63747,0.69653 2.16458,0.37075 0.52712,-0.32578 1.10933,-0.25202 1.29381,0.16391 0.18448,0.41593 3.71041,1.60378 7.83541,2.63967 4.125,1.0359 8.625,2.34556 10,2.91037 1.375,0.56481 3.0625,0.93504 3.75,0.82272 0.6875,-0.11231 1.25,0.17772 1.25,0.64451 0,0.46679 3.3736,1.94902 7.4969,3.29384 4.12329,1.34481 7.49829,2.73743 7.5,3.09469 0.002,0.35726 2.2531,1.45866 5.0031,2.44754 2.75,0.98889 5,2.11192 5,2.49563 0,0.38371 -2.3625,1.91925 -5.25,3.41232 -7.02314,3.63152 -10.86152,6.55558 -19.61221,14.94048 -11.93263,11.43384 -17.02021,20.19809 -20.20406,34.80506 -0.92434,4.24072 -0.97325,6.73506 -0.18626,9.5 0.58695,2.06217 1.78585,6.27016 2.66421,9.3511 3.08269,10.81281 12.97813,23.31743 24.58832,31.07164 4.3376,2.897 16.10762,8.83323 17.27036,8.71033 0.1263,-0.0134 1.57964,0.53038 3.22964,1.20828 6.95209,2.85625 35.5,1.88588 35.5,-1.20668 0,-0.53512 0.5625,-0.8633 1.25,-0.72929 0.6875,0.13401 3.275,-0.80573 5.75,-2.08831 14.43285,-7.47931 23,-22.61637 23,-40.63806 0,-7.62102 -2.0014,-17.02912 -3.92055,-18.42961 -0.37685,-0.275 -1.9521,-2.18725 -3.50057,-4.24943 C 630.00069,805.32175 615.86826,799 604.83912,799 c -12.43157,0 -22.67641,5.59143 -27.48357,15 -3.2597,6.37987 -3.30527,17.29494 -0.0921,22.06294 4.44497,6.59589 12.96467,10.92037 21.53623,10.93148 5.22509,0.007 9.06908,-1.86129 12.6935,-6.16866 2.61237,-3.10462 2.71094,-3.61817 2.26231,-11.78591 -0.37408,-6.81034 -1.10565,-9.92575 -3.61228,-15.38307 -1.72875,-3.76377 -3.14319,-7.02627 -3.14319,-7.25 0,-2.54498 12.83153,5.97588 19.12601,12.70075 4.6333,4.95011 6.0855,10.38099 4.73268,17.69909 -1.75877,9.51402 -6.92731,15.69023 -17.81785,21.29161 -6.09859,3.13672 -7.02742,3.31959 -16.63928,3.27614 -11.2665,-0.0509 -14.94246,-1.34407 -23.80576,-8.37437 -9.29603,-7.37355 -14.72258,-22.27453 -12.69555,-34.86125 1.64356,-10.20559 9.37744,-21.15463 18.09975,-25.62428 1.925,-0.98644 3.83061,-2.29325 4.23469,-2.904 0.42156,-0.63718 0.74774,-0.68427 0.76531,-0.11047 0.0168,0.55 0.36232,0.47872 0.76772,-0.1584 C 584.69992,787.87657 598.43628,785 604.5,785 c 5.1265,0 19.7195,2.78407 20.4976,3.91056 0.27632,0.40005 2.56377,1.71211 5.08322,2.91571 5.54082,2.64696 14.9343,11.60418 18.27525,17.42649 1.34043,2.33598 3.60867,7.69783 5.04054,11.91521 2.17727,6.41288 2.60145,9.44096 2.59152,18.5 -0.0131,11.92931 -1.17445,17.47279 -5.7734,27.55747 -6.21053,13.61857 -22.38565,25.69502 -39.26644,29.31657 -9.43353,2.02384 -26.1918,2.02024 -35.80561,-0.008 C 563.06313,893.98625 548.97269,886.60454 539,877.59986 534.1566,873.22659 525.46969,862.05524 524.47473,858.92037 524.1395,857.86417 523.44555,857 522.93261,857 c -0.51293,0 -0.83701,-0.3375 -0.72016,-0.75 0.11685,-0.4125 -0.31287,-1.69503 -0.95494,-2.85007 -3.30053,-5.93745 -6.85042,-21.77503 -7.7105,-34.39993 -0.70729,-10.38192 -2.08208,-19.00411 -3.69605,-23.18031 -0.93347,-2.41536 -1.69395,-2.75093 -7.69341,-3.39476 -7.28817,-0.78213 -32.69993,0.0948 -43.41637,1.49822 -5.37035,0.70331 -7.52736,1.53251 -10.5,4.03642 -2.05765,1.73321 -4.78444,4.01969 -6.05953,5.08107 C 438.97826,805.70713 421.88202,816 420.65642,816 c -0.54942,0 -1.70937,0.64054 -2.57768,1.42342 -0.86831,0.78288 -5.17874,2.46905 -9.57874,3.74704 -4.4,1.278 -8.14157,2.63718 -8.31461,3.02041 -0.17303,0.38322 -0.90764,0.46921 -1.63245,0.19107 -1.05324,-0.40416 -1.13441,0.46048 -0.40427,4.30618 0.90976,4.79177 0.55492,9.42751 -1.26773,16.56188 -0.95346,3.73213 -0.98287,3.74997 -6.16948,3.74442 -2.8663,-0.003 -6.94116,-0.48587 -9.05523,-1.07289 -2.11408,-0.58703 -4.07641,-0.83468 -4.36075,-0.55034 -0.76331,0.7633 1.53545,22.70182 2.5158,24.00991 0.4612,0.6154 1.37933,3.01112 2.04028,5.32383 0.66094,2.31272 2.34048,5.55828 3.7323,7.21236 3.87745,4.60809 13.05721,9.66934 21.91614,12.08345 4.4,1.19903 8.79015,2.59484 9.7559,3.10181 2.6616,1.39722 23.32797,4.67619 34.41568,5.46047 5.40563,0.38237 10.27842,1.04035 10.82842,1.46219 0.55,0.42184 6.78672,1.0957 13.85938,1.49748 11.98217,0.68066 13.07362,0.91365 16,3.41558 3.8435,3.28603 22.63332,16.46833 25.82552,18.11831 1.27331,0.65814 9.44574,5.91872 18.16096,11.69018 18.23095,12.07303 17.09639,9.45902 11.17768,25.75324 -1.99782,5.5 -4.57505,12.66399 -5.72718,15.91997 l -2.09477,5.91997 2.27565,1.84272 c 1.25161,1.01349 3.33816,2.10938 4.63678,2.43531 2.51151,0.63035 22.37844,-3.09107 23.32509,-4.3692 0.30849,-0.41651 3.21042,-1.63705 6.44874,-2.71231 3.23832,-1.07526 6.46867,-2.53584 7.17857,-3.24574 0.7099,-0.7099 1.75031,-1.29072 2.31202,-1.29072 4.4159,0 26.36575,-20.62311 29.53524,-27.75 1.03954,-2.3375 2.22294,-4.25 2.62979,-4.25 0.40684,0 1.02207,-1.125 1.36717,-2.5 0.60319,-2.4033 0.92651,-2.4979 8.35841,-2.44571 4.25202,0.0299 14.70595,0.74878 23.23095,1.59759 20.04942,1.99627 45.50966,2.75475 50,1.48954 1.925,-0.54239 7.31946,-1.74105 11.98769,-2.66368 4.66824,-0.92264 11.52497,-3.15096 15.23718,-4.95182 5.7947,-2.81111 18.11165,-10.23965 21.27513,-12.83134 0.9125,-0.74757 14.60638,-9.57426 29.35207,-18.91952 10.7627,-6.82098 25.89732,-22.60795 29.50338,-30.77506 0.60711,-1.375 1.44385,-2.74745 1.85942,-3.04988 0.41556,-0.30244 2.52774,-5.72961 4.69373,-12.06038 5.45785,-15.95228 6.92347,-30.22862 5.20542,-50.70517 -0.68422,-8.15497 -1.6809,-16.59513 -2.21483,-18.7559 -0.53393,-2.16077 -2.05125,-8.95661 -3.37183,-15.10186 -4.50256,-20.95249 -5.57486,-23.32842 -11.62022,-25.74729 -2.18567,-0.87453 -4.22617,-2.24733 -4.53444,-3.05067 -0.30827,-0.80334 1.69533,-6.31498 4.45245,-12.2481 2.75712,-5.93312 5.32316,-12.02348 5.70231,-13.53412 0.37914,-1.51065 1.07207,-2.74663 1.53982,-2.74663 0.46776,0 1.64647,-2.24119 2.61936,-4.98041 3.50906,-9.87998 4.61763,-6.94319 7.91968,20.98041 1.16059,9.81443 2.66076,16.71486 5.49505,25.27582 2.14425,6.4767 3.89863,12.4392 3.89863,13.25 0,0.8108 0.47656,1.47418 1.05902,1.47418 0.58246,0 0.76872,0.46971 0.41391,1.0438 -0.35481,0.5741 -0.24222,1.5866 0.2502,2.25 0.49242,0.66341 1.70595,4.5812 2.69674,8.7062 0.99078,4.125 2.71044,10.65 3.82145,14.5 1.84656,6.39887 5.09427,23.13281 7.9719,41.07541 0.62412,3.89147 0.80241,7.94147 0.39622,9 -0.4062,1.05852 -0.67106,2.09928 -0.58858,2.31279 0.0825,0.2135 -0.27802,0.6635 -0.80112,1 -0.52309,0.33649 -1.96625,2.61365 -3.20703,5.06036 -2.5057,4.94105 -8.9287,14.99895 -10.56977,16.55144 -0.58139,0.55 -2.36849,2.8 -3.97135,5 -5.36559,7.36455 -27.31699,28.64653 -39.19528,38 -2.79386,2.2 -5.10832,4.675 -5.14326,5.5 -0.0848,2.00265 -5.55879,21.96508 -6.71826,24.5 -0.92915,2.0314 -1.00226,7.32495 -0.62597,45.3266 l 0.21118,21.3266 3.64681,-4.8266 c 2.00574,-2.6546 5.26824,-6.653 7.25,-8.8852 z M 525.4552,780.37882 c 0.89032,-0.34165 2.29654,-1.93185 3.12493,-3.53378 1.446,-2.79624 1.38767,-3.03108 -1.46006,-5.87882 C 524.93746,768.78361 523.2089,768 520.57692,768 518.60962,768 517,768.45 517,769 c 0,0.55 -0.6895,1 -1.53222,1 -1.7622,0 -3.45421,3.7819 -2.68438,6 1.53861,4.4332 7.32205,6.43171 12.6718,4.37882 z M 398.87244,1146.25 c -1.24387,-1.5861 -1.2085,-1.6214 0.37756,-0.3776 0.9625,0.7549 1.75,1.5424 1.75,1.75 0,0.8231 -0.82119,0.2933 -2.12756,-1.3724 z M 1105,1147.6224 c 0,-0.2076 0.7875,-0.9951 1.75,-1.75 1.5861,-1.2438 1.6214,-1.2085 0.3776,0.3776 -1.3064,1.6657 -2.1276,2.1955 -2.1276,1.3724 z M 366.87244,1114.25 c -1.24387,-1.5861 -1.2085,-1.6214 0.37756,-0.3776 0.9625,0.7549 1.75,1.5424 1.75,1.75 0,0.8231 -0.82119,0.2933 -2.12756,-1.3724 z M 1137,1115.6224 c 0,-0.2076 0.7875,-0.9951 1.75,-1.75 1.5861,-1.2438 1.6214,-1.2085 0.3776,0.3776 -1.3064,1.6657 -2.1276,2.1955 -2.1276,1.3724 z M 232.07895,812.41667 c 0.048,-1.16495 0.28494,-1.4019 0.60416,-0.60417 0.28887,0.72187 0.25335,1.58438 -0.0789,1.91667 -0.3323,0.33229 -0.56864,-0.25834 -0.52522,-1.3125 z m 1040.99995,0 c 0.048,-1.16495 0.285,-1.4019 0.6042,-0.60417 0.2889,0.72187 0.2534,1.58438 -0.079,1.91667 -0.3323,0.33229 -0.5687,-0.25834 -0.5253,-1.3125 z M 230.19495,784.5 c 0.0204,-1.65 0.2445,-2.20394 0.49804,-1.23097 0.25354,0.97297 0.23687,2.32297 -0.0371,3 -0.27393,0.67703 -0.48137,-0.11903 -0.46099,-1.76903 z m 0,-47 c 0.0204,-1.65 0.2445,-2.20394 0.49804,-1.23097 0.25354,0.97297 0.23687,2.32297 -0.0371,3 -0.27393,0.67703 -0.48137,-0.11903 -0.46099,-1.76903 z m 1.884,-28.08333 c 0.048,-1.16495 0.28494,-1.4019 0.60416,-0.60417 0.28887,0.72187 0.25335,1.58438 -0.0789,1.91667 -0.3323,0.33229 -0.56864,-0.25834 -0.52522,-1.3125 z m 1040.99995,0 c 0.048,-1.16495 0.285,-1.4019 0.6042,-0.60417 0.2889,0.72187 0.2534,1.58438 -0.079,1.91667 -0.3323,0.33229 -0.5687,-0.25834 -0.5253,-1.3125 z M 366,408.62244 c 0,-0.20765 0.7875,-0.99515 1.75,-1.75 1.58606,-1.24387 1.62143,-1.2085 0.37756,0.37756 C 366.82119,408.91575 366,409.44548 366,408.62244 Z M 1137.8724,407.25 c -1.2438,-1.58606 -1.2085,-1.62143 0.3776,-0.37756 1.6657,1.30637 2.1955,2.12756 1.3724,2.12756 -0.2076,0 -0.9951,-0.7875 -1.75,-1.75 z M 398,376.62244 c 0,-0.20765 0.7875,-0.99515 1.75,-1.75 1.58606,-1.24387 1.62143,-1.2085 0.37756,0.37756 C 398.82119,376.91575 398,377.44548 398,376.62244 Z M 1105.8724,375.25 c -1.2438,-1.58606 -1.2085,-1.62143 0.3776,-0.37756 1.6657,1.30637 2.1955,2.12756 1.3724,2.12756 -0.2076,0 -0.9951,-0.7875 -1.75,-1.75 z M 700.8125,240.31689 c 0.72187,-0.28887 1.58438,-0.25335 1.91667,0.0789 0.33229,0.33229 -0.25834,0.56864 -1.3125,0.52522 -1.16495,-0.048 -1.4019,-0.28494 -0.60417,-0.60416 z m 103,0 c 0.72187,-0.28887 1.58438,-0.25335 1.91667,0.0789 0.33229,0.33229 -0.25834,0.56864 -1.3125,0.52522 -1.16495,-0.048 -1.4019,-0.28494 -0.60417,-0.60416 z m -75.54347,-2.00988 c 0.97297,-0.25354 2.32297,-0.23687 3,0.0371 0.67703,0.27393 -0.11903,0.48137 -1.76903,0.46099 -1.65,-0.0204 -2.20394,-0.2445 -1.23097,-0.49804 z m 47,0 c 0.97297,-0.25354 2.32297,-0.23687 3,0.0371 0.67703,0.27393 -0.11903,0.48137 -1.76903,0.46099 -1.65,-0.0204 -2.20394,-0.2445 -1.23097,-0.49804 z"
         id="path20" />
      <path
         style="fill:#4b8794"
         d="m 734.26375,1283.2824 c 1.52006,-0.2298 3.77006,-0.2237 5,0.014 1.22994,0.2373 -0.0137,0.4254 -2.76375,0.4179 -2.75,-0.01 -3.75631,-0.2017 -2.23625,-0.4316 z m 33,0 c 1.52006,-0.2298 3.77006,-0.2237 5,0.014 1.22994,0.2373 -0.0137,0.4254 -2.76375,0.4179 -2.75,-0.01 -3.75631,-0.2017 -2.23625,-0.4316 z m -51.99472,-0.9754 c 0.97297,-0.2535 2.32297,-0.2369 3,0.037 0.67703,0.2739 -0.11903,0.4813 -1.76903,0.461 -1.65,-0.02 -2.20394,-0.2445 -1.23097,-0.4981 z m 73,0 c 0.97297,-0.2535 2.32297,-0.2369 3,0.037 0.67703,0.2739 -0.11903,0.4813 -1.76903,0.461 -1.65,-0.02 -2.20394,-0.2445 -1.23097,-0.4981 z m -84.45653,-0.9901 c 0.72187,-0.2889 1.58438,-0.2534 1.91667,0.079 0.33229,0.3323 -0.25834,0.5687 -1.3125,0.5253 -1.16495,-0.048 -1.4019,-0.285 -0.60417,-0.6042 z m 97,0 c 0.72187,-0.2889 1.58438,-0.2534 1.91667,0.079 0.33229,0.3323 -0.25834,0.5687 -1.3125,0.5253 -1.16495,-0.048 -1.4019,-0.285 -0.60417,-0.6042 z m -107,-1 c 0.72187,-0.2889 1.58438,-0.2534 1.91667,0.079 0.33229,0.3323 -0.25834,0.5687 -1.3125,0.5253 -1.16495,-0.048 -1.4019,-0.285 -0.60417,-0.6042 z m 117,0 c 0.72187,-0.2889 1.58438,-0.2534 1.91667,0.079 0.33229,0.3323 -0.25834,0.5687 -1.3125,0.5253 -1.16495,-0.048 -1.4019,-0.285 -0.60417,-0.6042 z M 712.5,1257.4775 c -63.69566,-5.8501 -120.99519,-21.6749 -177,-48.8831 -23.01618,-11.1817 -36.09775,-18.6152 -56.5,-32.1058 C 421.80325,1138.6684 375.3316,1092.1968 337.51137,1035 324.02079,1014.5977 316.58726,1001.5162 305.40556,978.5 248.52787,861.42415 239.4053,728.73467 279.82145,606.37441 300.7723,542.94553 332.56252,486.70577 376.49417,435.35168 404.95432,402.08308 440.31713,371.08966 479,345.51137 c 20.40225,-13.49058 33.48382,-20.92411 56.5,-32.10581 117.07585,-56.87769 249.76533,-66.00026 372.12559,-25.58411 63.42888,20.95085 119.66861,52.74107 171.02271,96.67272 40.368,34.53345 79.2126,81.62984 106.4025,129.00583 26.5342,46.23346 47.8063,104.09186 57.4367,156.22268 6.0088,32.52683 6.5125,39.58669 6.5125,91.27732 0,51.69063 -0.5037,58.75049 -6.5125,91.27732 -9.6304,52.13082 -30.9025,109.98922 -57.4367,156.22268 -38.5415,67.1552 -92.8437,124.8717 -158.0508,167.9886 -20.4023,13.4906 -33.48382,20.9241 -56.5,32.1058 -56.69121,27.5417 -113.86829,43.2385 -178.15875,48.9099 -20.32231,1.7927 -60.17563,1.7793 -79.84125,-0.027 z m 76.84125,-9.9732 c 73.3912,-6.4742 144.57229,-28.2486 204.15875,-62.4524 85.574,-49.1212 155.8012,-124.1215 198.0885,-211.5519 23.1866,-47.9392 38.1421,-98.26488 45.4278,-152.86637 C 1238.7436,807.68852 1239,799.98171 1239,761 c 0,-38.98171 -0.2564,-46.68852 -1.9837,-59.63363 C 1229.7306,646.76488 1214.7751,596.4392 1191.5885,548.5 1144.3989,450.93388 1063.0661,369.60108 965.5,322.41152 877.51565,279.85635 779.61511,264.32336 685.78415,278.03153 545.09696,298.58514 423.8344,375.54954 345.51137,494 321.48385,530.33761 303.88421,566.79928 289.82145,609.37441 253.68775,718.76952 257.33604,832.81725 300.46186,942 c 43.71126,110.6649 131.87285,205.2724 240.03814,257.5885 77.40844,37.4399 168.58189,54.9959 248.84125,47.9158 z M 718.5,1237.4775 c -61.78296,-5.6745 -120.2224,-21.5161 -173,-46.8966 -55.7877,-26.8279 -112.31333,-70.3981 -153,-117.9328 C 356.20394,1030.2429 329.08377,986.0571 310.47009,939 291.86516,891.96504 281.04249,845.88344 276.49569,794.34125 269.81537,718.61366 287.38615,628.429 323.41905,553.5 345.1207,508.37228 378.95603,461.04445 416.00024,424.00024 453.04445,386.95603 500.37228,353.1207 545.5,331.41905 c 74.929,-36.0329 165.11366,-53.60368 240.84125,-46.92336 51.54219,4.5468 97.62379,15.36947 144.65875,33.9744 47.0571,18.61368 91.2429,45.73385 133.6481,82.02991 47.5347,40.68667 91.1049,97.2123 117.9328,153 22.2994,46.37068 37.2778,97.22497 44.4354,150.86637 C 1228.7256,717.1764 1229,725.01006 1229,761 c 0,35.98994 -0.2744,43.8236 -1.9837,56.63363 -7.1576,53.6414 -22.136,104.49569 -44.4354,150.86637 -26.8279,55.7877 -70.3981,112.3133 -117.9328,153 -50.808,43.4883 -101.71235,72.4275 -163.02251,92.6785 -59.74199,19.7331 -127.74642,28.3852 -183.12559,23.299 z m 27.5,-182.536 c 13.1106,-4.9046 33.45148,-16.2716 44,-24.5884 20.86166,-16.448 36.42105,-32.2956 55.32819,-56.3531 0.64838,-0.825 3.38408,-4.65 6.07934,-8.5 2.69526,-3.85 5.67445,-7.9 6.62041,-9 0.94597,-1.1 2.83517,-4.025 4.19823,-6.5 1.36305,-2.475 3.89478,-6.59026 5.62606,-9.14502 1.73127,-2.55477 3.14777,-4.89471 3.14777,-5.19987 0,-0.30517 1.30139,-2.48991 2.89198,-4.85498 C 880.49684,920.97924 910,863.4893 910,860.43994 c 0,-0.31009 1.10125,-2.89842 2.44722,-5.75187 3.29746,-6.99056 8.08323,-18.54294 11.52529,-27.82093 1.55746,-4.19807 3.29856,-8.50513 3.86913,-9.57124 0.57056,-1.06611 2.03123,-4.83132 3.24593,-8.36714 1.21469,-3.53582 2.70441,-6.75937 3.31048,-7.16345 0.60607,-0.40408 0.70935,-0.74158 0.22951,-0.75 -0.47985,-0.008 -0.44484,-0.57781 0.0778,-1.26531 0.52264,-0.6875 1.74571,-3.5 2.71794,-6.25 0.97223,-2.75 2.63486,-6.92917 3.69473,-9.28705 1.05988,-2.35788 3.05073,-7.2724 4.42412,-10.92117 1.3734,-3.64877 2.87835,-7.1196 3.34436,-7.71295 0.466,-0.59336 1.84386,-4.11633 3.06191,-7.82883 1.21805,-3.7125 2.55672,-6.75 2.97482,-6.75 0.4181,0 1.32901,-1.9125 2.02424,-4.25 0.69524,-2.3375 2.79147,-7.52237 4.65829,-11.52193 C 963.4726,731.2285 965,727.7202 965,727.43183 c 0,-0.28837 1.575,-3.88837 3.5,-8 1.925,-4.11163 3.5,-7.74602 3.5,-8.07641 0,-0.88145 16.12503,-32.76688 16.86844,-33.35542 0.34736,-0.275 2.16753,-3.5375 4.04483,-7.25 1.87731,-3.7125 3.78981,-6.75 4.25,-6.75 0.4602,0 0.83673,-0.43452 0.83673,-0.96559 0,-0.93793 10.7659,-18.03223 11.9878,-19.03441 0.3353,-0.275 3.2727,-4.325 6.5275,-9 3.2548,-4.675 6.4049,-9.0041 7.0001,-9.62022 0.5952,-0.61612 3.3102,-3.95192 6.0334,-7.4129 14.8664,-18.89427 43.8447,-47.7174 66.0101,-65.65649 15.9902,-12.94127 49.0024,-34.8672 55.6911,-36.98861 2.7128,-0.8604 2.0654,-3.00871 -1.0973,-3.64124 -1.566,-0.31321 -6.4035,-0.87901 -10.75,-1.25735 -4.3465,-0.37833 -8.3527,-1.0375 -8.9027,-1.46482 C 1128.9336,507.74139 1092.4141,506 1068.4587,506 c -25.0326,0 -60.5157,1.77569 -61.9087,3.09811 -0.5225,0.49604 -2.7725,0.90563 -5,0.9102 -2.2275,0.005 -9,0.67078 -15.05,1.48047 -6.05,0.8097 -11.7677,1.48096 -12.70601,1.4917 -2.01924,0.0231 12.69454,-14.18395 22.04054,-21.28149 3.47707,-2.64055 8.42427,-5.79055 10.99367,-7 2.5695,-1.20944 5.1977,-2.69277 5.8405,-3.29627 0.6428,-0.6035 3.2303,-1.67448 5.75,-2.37996 4.7378,-1.32649 5.8747,-3.27928 2.8313,-4.86314 -0.9625,-0.50091 -9.85,-1.47798 -19.75,-2.17125 -28.06634,-1.96544 -74.40646,-0.24638 -80.58134,2.98929 -0.86973,0.45574 -6.49473,1.79658 -12.5,2.97964 -6.00526,1.18305 -11.59366,2.42527 -12.41866,2.76049 -0.825,0.33521 -1.725,0.68721 -2,0.78221 -0.275,0.095 -1.175,0.45855 -2,0.80789 -0.825,0.34934 -5.1,1.59839 -9.5,2.77568 -4.4,1.17729 -8.45,2.48595 -9,2.90815 -0.55,0.42219 -5.05,2.05593 -10,3.63052 -4.95,1.5746 -9.225,3.14073 -9.5,3.48031 -0.275,0.33957 -3.425,1.63567 -7,2.88021 -6.27835,2.18564 -8.33246,3.06547 -23.5,10.06572 -13.12661,6.05829 -15.99988,7.27882 -16.75,7.11516 -0.4125,-0.09 -0.75,0.2341 -0.75,0.72022 0,0.48612 -2.5875,1.90833 -5.75,3.16048 -3.1625,1.25214 -6.425,2.81585 -7.25,3.47491 -1.6457,1.31468 -12.85974,6.51309 -13.34237,6.18501 -0.16527,-0.11234 -1.08799,0.58324 -2.05049,1.54574 -0.9625,0.9625 -2.20126,1.75 -2.75281,1.75 -0.55154,0 -3.5569,-2.3812 -6.67857,-5.29156 C 756.5038,515.82657 741.1353,506.52548 730.5,503.9069 c -2.75,-0.6771 -5.32137,-1.72064 -5.71415,-2.31899 -1.0845,-1.6521 -39.98315,-1.49656 -40.53593,0.16209 -0.22912,0.6875 -1.22741,1.25 -2.21842,1.25 -2.98859,0 -11.83143,3.1666 -13.74246,4.92114 -0.98397,0.9034 -3.41195,2.6375 -5.39552,3.85356 C 654.41448,516.97293 643,533.74294 643,541.00202 c 0,1.94318 -1.26255,3.46093 -5.25,6.31119 -7.30037,5.21835 -15.43229,10.49828 -20.75,13.47265 -2.475,1.38435 -4.725,2.83606 -5,3.22604 -0.275,0.38997 -1.99737,1.47641 -3.82748,2.41431 -3.3113,1.69699 -11.08625,7.10791 -14.42252,10.03724 -0.9625,0.8451 -1.75,1.29402 -1.75,0.99759 0,-0.29642 -0.90886,0.30779 -2.0197,1.34268 -1.11083,1.0349 -2.87072,4.76493 -3.91087,8.28896 -6.18556,20.95674 -8.31918,27.50332 -9.3805,28.78213 -0.65391,0.78792 -0.99843,1.47592 -0.76559,1.52888 0.65981,0.15011 -3.933,14.85522 -5.33966,17.09631 -0.69043,1.1 -2.48224,5.2329 -3.9818,9.18423 -2.44508,6.44278 -3.05545,7.25453 -5.91417,7.86547 -1.75324,0.37468 -3.63771,1.0005 -4.18771,1.39069 -0.55,0.39019 -3.01767,1.2878 -5.48371,1.99469 -3.4143,0.9787 -7.58728,4.06146 -17.49605,12.92508 -28.42378,25.42571 -56.87048,54.96479 -63.61928,66.0623 -2.72225,4.47638 -4.909,7.08166 -11.63136,13.85754 -5.35732,5.39997 -6.45604,7.15162 -7.84062,12.5 -0.88563,3.421 -2.51934,8.21733 -3.63048,10.6585 -1.11113,2.44118 -2.63571,6.18296 -3.38796,8.31506 -0.75225,2.13211 -2.27736,5.03297 -3.38914,6.44636 -1.11177,1.41339 -2.02141,3.07161 -2.02141,3.68494 -2e-5,1.50654 -11.24099,9.68048 -17.80711,12.94855 -12.17148,6.05794 -27.42732,7.85782 -43.81703,5.16951 -7.53768,-1.23637 -13.35066,-1.59005 -19.26889,-1.17239 -7.6902,0.5427 -8.69092,0.85601 -10.80792,3.38377 -3.95942,4.72767 -5.49732,8.38082 -6.03791,14.34252 -1.03312,11.39342 1.80766,18.91456 10.24719,27.13005 2.91902,2.84154 3.56627,4.36582 4.54718,10.70869 1.1089,7.17051 4.33346,17.08835 7.62597,23.45536 3.96347,7.6645 14.87725,15.4851 25.41804,18.21406 3.52027,0.91139 7.37008,2.11018 8.55514,2.66399 1.18505,0.55381 2.61646,0.72151 3.1809,0.37267 0.56444,-0.34885 1.30891,-0.17692 1.65437,0.38205 0.34546,0.55897 2.30686,1.01631 4.35866,1.01631 3.61022,0 3.85477,0.23384 7.58179,7.25 8.22937,15.49189 17.85124,27.75 21.78204,27.75 2.09066,0 2.12264,-0.42643 0.67485,-9 -1.59306,-9.43379 -1.85588,-20.35542 -0.511,-21.23469 1.80801,-1.18205 23.41603,-0.9104 24.16646,0.30381 0.36342,0.58802 2.30247,0.97786 4.30902,0.8663 2.00654,-0.11155 4.32326,0.0473 5.14826,0.35308 0.825,0.30574 3.9146,1.09829 6.86578,1.76121 7.44339,1.67202 19.68204,10.02554 23.87063,16.29295 4.57392,6.844 5.5976,11.53858 4.9406,22.65734 -0.41239,6.97907 -1.65718,13.21198 -4.69094,23.48843 -2.27128,7.69364 -4.33402,14.19285 -4.58386,14.44269 -0.24984,0.24984 -8.09251,0.48005 -17.42816,0.51157 -14.39805,0.0486 -16.97316,0.28494 -16.969,1.55731 0.006,1.76898 10.98943,9.3731 16.88246,11.6879 2.26187,0.8885 4.11249,1.9615 4.11249,2.3843 0,0.4229 1.30772,1.0561 2.90604,1.4072 l 2.90605,0.6382 -2.40605,5.9213 c -3.12736,7.6965 -3.04381,8.954 0.84396,12.7017 4.99005,4.8104 11.46917,6.5663 22.20776,6.0186 8.68695,-0.443 25.84042,-4.0284 28.15623,-5.8852 0.6127,-0.4912 3.866,-1.7966 7.22956,-2.9008 5.46558,-1.7942 13.09521,-5.6644 28.65645,-14.5361 2.75,-1.5678 5.52465,-3.32 6.1659,-3.8938 0.64124,-0.5738 5.5225,-4.1933 10.84723,-8.0433 15.89618,-11.49358 22.19372,-16.39326 32.50294,-25.28828 l 3.81108,-3.28828 17.08119,0.0226 c 15.86525,0.021 26.09166,1.22199 26.09166,3.06431 0,0.42508 1.02187,1.02935 2.27081,1.34281 5.12917,1.28734 11.17427,9.4637 13.78635,18.64688 0.704,2.475 1.58963,4.86299 1.96807,5.30656 0.77104,0.904 9.97477,-3.2536 9.97477,-4.50583 0,-0.4404 0.40971,-0.80073 0.91047,-0.80073 0.50075,0 4.17989,-1.85266 8.17585,-4.11703 3.99597,-2.26437 10.11833,-5.15184 13.60525,-6.4166 l 6.33987,-2.29956 4.73428,3.78279 c 9.5753,7.65086 9.51986,7.52923 8.28832,18.18716 -0.59506,5.1498 -1.37177,19.1507 -1.72601,31.1132 -0.73774,24.9128 -1.38097,23.4522 8.67197,19.6915 z m 29.78882,-59.1149 c -0.37629,-38.00165 -0.30318,-43.2952 0.62597,-45.3266 1.15947,-2.53492 6.63345,-22.49735 6.71826,-24.5 0.0349,-0.825 2.3494,-3.3 5.14326,-5.5 11.87829,-9.35347 33.82969,-30.63545 39.19528,-38 1.60286,-2.2 3.38996,-4.45 3.97135,-5 1.64107,-1.55249 8.06407,-11.61039 10.56977,-16.55144 1.24078,-2.44671 2.68394,-4.72387 3.20703,-5.06036 0.5231,-0.3365 0.8836,-0.7865 0.80112,-1 -0.0825,-0.21351 0.18238,-1.25427 0.58858,-2.31279 0.40619,-1.05853 0.2279,-5.10853 -0.39622,-9 -2.87763,-17.9426 -6.12534,-34.67654 -7.9719,-41.07541 -1.11101,-3.85 -2.83067,-10.375 -3.82145,-14.5 -0.99079,-4.125 -2.20432,-8.04279 -2.69674,-8.7062 -0.49242,-0.6634 -0.60501,-1.6759 -0.2502,-2.25 C 831.82774,776.46971 831.64148,776 831.05902,776 830.47656,776 830,775.33662 830,774.52582 c 0,-0.8108 -1.75438,-6.7733 -3.89863,-13.25 -2.83429,-8.56096 -4.33446,-15.46139 -5.49505,-25.27582 -3.30205,-27.9236 -4.41062,-30.86039 -7.91968,-20.98041 -0.97289,2.73922 -2.1516,4.98041 -2.61936,4.98041 -0.46775,0 -1.16068,1.23598 -1.53982,2.74663 -0.37915,1.51064 -2.94519,7.601 -5.70231,13.53412 -2.75712,5.93312 -4.76072,11.44476 -4.45245,12.2481 0.30827,0.80334 2.34877,2.17614 4.53444,3.05067 6.04536,2.41887 7.11766,4.7948 11.62022,25.74729 1.32058,6.14525 2.8379,12.94109 3.37183,15.10186 0.53393,2.16077 1.53061,10.60093 2.21483,18.7559 1.71805,20.47655 0.25243,34.75289 -5.20542,50.70517 -2.16599,6.33077 -4.27817,11.75794 -4.69373,12.06038 -0.41557,0.30243 -1.25231,1.67488 -1.85942,3.04988 -3.60606,8.16711 -18.74068,23.95408 -29.50338,30.77506 -14.74569,9.34526 -28.43957,18.17195 -29.35207,18.91952 -3.16348,2.59169 -15.48043,10.02023 -21.27513,12.83134 -3.71221,1.80086 -10.56894,4.02918 -15.23718,4.95182 -4.66823,0.92263 -10.06269,2.12129 -11.98769,2.66368 -4.49034,1.26521 -29.95058,0.50673 -50,-1.48954 -8.525,-0.84881 -18.97893,-1.56772 -23.23095,-1.59759 -7.4319,-0.0522 -7.75522,0.0424 -8.35841,2.44571 -0.3451,1.375 -0.96033,2.5 -1.36717,2.5 -0.40685,0 -1.59025,1.9125 -2.62979,4.25 -3.16949,7.12689 -25.11934,27.75 -29.53524,27.75 -0.56171,0 -1.60212,0.58082 -2.31202,1.29072 -0.7099,0.7099 -3.94025,2.17048 -7.17857,3.24574 -3.23832,1.07526 -6.14025,2.2958 -6.44874,2.71231 -0.94665,1.27813 -20.81358,4.99955 -23.32509,4.3692 -1.29862,-0.32593 -3.38517,-1.42182 -4.63678,-2.43531 l -2.27565,-1.84272 2.09477,-5.91997 C 542.94849,979.16399 545.52572,972 547.52354,966.5 c 5.91871,-16.29422 7.05327,-13.68021 -11.17768,-25.75324 -8.71522,-5.77146 -16.88765,-11.03204 -18.16096,-11.69018 -3.1922,-1.64998 -21.98202,-14.83228 -25.82552,-18.11831 -2.92638,-2.50193 -4.01783,-2.73492 -16,-3.41558 -7.07266,-0.40178 -13.30938,-1.07564 -13.85938,-1.49748 -0.55,-0.42184 -5.42279,-1.07982 -10.82842,-1.46219 -11.08771,-0.78428 -31.75408,-4.06325 -34.41568,-5.46047 -0.96575,-0.50697 -5.3559,-1.90278 -9.7559,-3.10181 -8.85893,-2.41411 -18.03869,-7.47536 -21.91614,-12.08345 -1.39182,-1.65408 -3.07136,-4.89964 -3.7323,-7.21236 -0.66095,-2.31271 -1.57908,-4.70843 -2.04028,-5.32383 -0.98035,-1.30809 -3.27911,-23.24661 -2.5158,-24.00991 0.28434,-0.28434 2.24667,-0.0367 4.36075,0.55034 2.11407,0.58702 6.18893,1.06983 9.05523,1.07289 5.18661,0.006 5.21602,-0.0123 6.16948,-3.74442 1.82265,-7.13437 2.17749,-11.77011 1.26773,-16.56188 -0.73014,-3.8457 -0.64897,-4.71034 0.40427,-4.30618 0.72481,0.27814 1.45942,0.19215 1.63245,-0.19107 0.17304,-0.38323 3.91461,-1.74241 8.31461,-3.02041 4.4,-1.27799 8.71043,-2.96416 9.57874,-3.74704 C 418.94705,816.64054 420.107,816 420.65642,816 c 1.2256,0 18.32184,-10.29287 21.52523,-12.95936 1.27509,-1.06138 4.00188,-3.34786 6.05953,-5.08107 2.97264,-2.50391 5.12965,-3.33311 10.5,-4.03642 10.71644,-1.40344 36.1282,-2.28035 43.41637,-1.49822 5.99946,0.64383 6.75994,0.9794 7.69341,3.39476 1.61397,4.1762 2.98876,12.79839 3.69605,23.18031 0.86008,12.6249 4.40997,28.46248 7.7105,34.39993 0.64207,1.15504 1.07179,2.43757 0.95494,2.85007 -0.11685,0.4125 0.20723,0.75 0.72016,0.75 0.51294,0 1.20689,0.86417 1.54212,1.92037 0.99496,3.13487 9.68187,14.30622 14.52527,18.67949 9.97269,9.00468 24.06313,16.38639 36.14268,18.93445 9.61381,2.02794 26.37208,2.03154 35.80561,0.008 16.88079,-3.62155 33.05591,-15.698 39.26644,-29.31657 4.59895,-10.08468 5.76033,-15.62816 5.7734,-27.55747 0.0186,-17.0008 -4.92025,-29.63535 -15.69785,-40.15791 -3.09575,-3.02249 -7.69001,-6.4802 -10.20946,-7.68379 -2.51945,-1.2036 -4.8069,-2.51566 -5.08322,-2.91571 C 624.2195,787.78407 609.6265,785 604.5,785 c -6.06372,0 -19.80008,2.87657 -20.73228,4.3416 -0.4054,0.63712 -0.75088,0.7084 -0.76772,0.1584 -0.0176,-0.5738 -0.34375,-0.52671 -0.76531,0.11047 -0.40408,0.61075 -2.30969,1.91756 -4.23469,2.904 -8.72231,4.46965 -16.45619,15.41869 -18.09975,25.62428 -2.02703,12.58672 3.39952,27.4877 12.69555,34.86125 8.8633,7.0303 12.53926,8.32343 23.80576,8.37437 9.61186,0.0435 10.54069,-0.13942 16.63928,-3.27614 10.89054,-5.60138 16.05908,-11.77759 17.81785,-21.29161 1.35282,-7.3181 -0.0994,-12.74898 -4.73268,-17.69909 C 619.83153,812.38266 607,803.8618 607,806.40678 c 0,0.22373 1.41444,3.48623 3.14319,7.25 2.50663,5.45732 3.2382,8.57273 3.61228,15.38307 0.44863,8.16774 0.35006,8.68129 -2.26231,11.78591 -3.62442,4.30737 -7.46841,6.17544 -12.6935,6.16866 -8.57156,-0.0111 -17.09126,-4.33559 -21.53623,-10.93148 -3.21315,-4.768 -3.16758,-15.68307 0.0921,-22.06294 4.80716,-9.40857 15.052,-15 27.48357,-15 11.02914,0 25.16157,6.32175 30.73976,13.75057 1.54847,2.06218 3.12372,3.97443 3.50057,4.24943 1.91915,1.40049 3.92055,10.80859 3.92055,18.42961 0,18.02169 -8.56715,33.15875 -23,40.63806 -2.475,1.28258 -5.0625,2.22232 -5.75,2.08831 -0.6875,-0.13401 -1.25,0.19417 -1.25,0.72929 0,3.09256 -28.54791,4.06293 -35.5,1.20668 -1.65,-0.6779 -3.10334,-1.22163 -3.22964,-1.20828 -1.16274,0.1229 -12.93276,-5.81333 -17.27036,-8.71033 -11.61019,-7.75421 -21.50563,-20.25883 -24.58832,-31.07164 -0.87836,-3.08094 -2.07726,-7.28893 -2.66421,-9.3511 -0.78699,-2.76494 -0.73808,-5.25928 0.18626,-9.5 3.18385,-14.60697 8.27143,-23.37122 20.20406,-34.80506 8.75069,-8.3849 12.58907,-11.30896 19.61221,-14.94048 2.8875,-1.49307 5.25,-3.02861 5.25,-3.41232 0,-0.38371 -2.25,-1.50674 -5,-2.49563 -2.75,-0.98888 -5.0014,-2.09028 -5.0031,-2.44754 -0.002,-0.35726 -3.37671,-1.74988 -7.5,-3.09469 -4.1233,-1.34482 -7.4969,-2.82705 -7.4969,-3.29384 0,-0.46679 -0.5625,-0.75682 -1.25,-0.64451 -0.6875,0.11232 -2.375,-0.25791 -3.75,-0.82272 -1.375,-0.56481 -5.875,-1.87447 -10,-2.91037 -4.125,-1.03589 -7.65093,-2.22374 -7.83541,-2.63967 -0.18448,-0.41593 -0.76669,-0.48969 -1.29381,-0.16391 -0.52711,0.32578 -1.50118,0.15894 -2.16458,-0.37075 C 522.48781,747.2363 511.05777,745 507.30401,745 c -1.64733,0 -2.14777,0.84344 -2.64264,4.45391 -0.92395,6.74097 -5.75422,18.2823 -9.472,22.63218 -1.82084,2.13042 -3.62084,3.80406 -4,3.71919 -0.37915,-0.0849 -1.88919,0.42929 -3.35563,1.14257 -7.18706,3.49579 -18.44892,-10.12193 -16.4863,-19.93505 0.74572,-3.7286 9.08206,-21.17318 11.50524,-24.07581 14.76396,-17.68512 24.28609,-26.67503 38.63726,-36.4777 C 529.13801,691.23523 546.51737,682 548.70024,682 c 0.75357,0 2.36679,-0.62791 3.58494,-1.39536 2.87448,-1.81096 13.43202,-4.26782 21.89748,-5.0958 l 6.68266,-0.6536 1.06734,-4.97684 c 0.58704,-2.73726 1.06082,-5.51719 1.05285,-6.17762 -0.008,-0.66043 0.88672,-4.12578 1.9882,-7.70078 1.10148,-3.575 2.86795,-9.425 3.92549,-13 2.43986,-8.2479 8.36666,-22.15675 13.91452,-32.65419 4.18855,-7.92541 5.00788,-8.70362 11.18628,-10.62476 0.825,-0.25653 1.89969,-0.48527 2.3882,-0.50832 0.4885,-0.0231 1.1635,-0.43975 1.5,-0.926 0.80912,-1.16924 7.50992,-3.08785 16.95259,-4.85396 13.71002,-2.56426 13.91154,-2.55843 14.65415,0.42433 0.67683,2.7185 5.44888,9.28317 12.41216,17.07477 l 3.96072,4.43187 4.06609,-1.34193 C 672.17026,613.28375 674,612.35417 674,611.95608 c 0,-0.39808 2.5875,-1.75174 5.75,-3.00813 3.1625,-1.25638 5.91489,-2.41104 6.11643,-2.56591 0.40663,-0.31246 -4.03694,-11.58958 -4.87894,-12.38204 -0.2922,-0.275 -1.81601,-3.425 -3.38626,-7 -1.57025,-3.575 -4.60103,-10.452 -6.73507,-15.28222 -3.60594,-8.16177 -3.84755,-9.29215 -3.41983,-16 1.05083,-16.47986 5.19137,-25.19491 14.11897,-29.71778 2.71408,-1.375 5.24212,-2.92789 5.61785,-3.45086 0.82667,-1.15061 19.03167,-2.07035 21.5381,-1.08813 1.52088,0.59601 1.33123,0.9393 -1.30826,2.36803 -14.95877,8.09702 -20.79212,24.91492 -14.974,43.17096 2.32406,7.29241 6.47878,18.18613 8.64535,22.66816 1.10816,2.2925 2.2764,5.78 2.59609,7.75 0.68402,4.21508 1.78865,4.42465 6.19333,1.17498 1.79427,-1.32378 4.5817,-2.95337 6.19428,-3.62132 1.64701,-0.68222 2.93196,-1.97371 2.93196,-2.9469 0,-0.95283 -2.49567,-6.98277 -5.54593,-13.39985 -3.05026,-6.41708 -5.29746,-12.06946 -4.99377,-12.56083 0.30369,-0.49138 0.0603,-1.05739 -0.54096,-1.25779 -0.60122,-0.20041 -1.25666,-3.27772 -1.45654,-6.83847 -0.59432,-10.58761 4.20878,-18.4498 15.92016,-26.0597 6.52858,-4.24219 7.78862,-4.5787 9.79561,-2.61605 0.72679,0.71073 2.89643,1.90852 4.82143,2.66177 4.25319,1.66426 13.7921,7.92716 20.28712,13.31979 9.45297,7.84853 17.86774,21.18391 21.33205,33.80617 2.55093,9.29436 2.34171,30.8557 -0.39222,40.42004 -4.64996,16.26735 -9.07643,24.75871 -16.61827,31.87906 l -4.10868,3.87907 5.5,2.06779 c 3.025,1.13728 5.725,2.38583 6,2.77456 0.63047,0.89119 11.94921,4.89952 13.8353,4.89952 2.40336,0 9.67952,-8.49141 13.0029,-15.17462 3.99276,-8.02932 6.00433,-17.28637 6.80705,-31.32538 0.8577,-15.00048 -2.05032,-39.03546 -5.6866,-47 -0.50221,-1.1 -1.64307,-4.25 -2.53524,-7 -0.89218,-2.75 -2.29754,-6.44953 -3.12303,-8.22117 -1.25924,-2.70252 -1.28349,-3.4302 -0.15064,-4.51938 2.92004,-2.80748 31.16981,-19.98449 41.85026,-25.44665 3.025,-1.54704 5.725,-3.09128 6,-3.43165 0.83002,-1.02733 11.44375,-6.29623 12.25,-6.08119 0.4125,0.11002 0.75,-0.1977 0.75,-0.68382 0,-0.48612 2.5875,-1.92066 5.75,-3.18787 3.1625,-1.26721 6.08061,-2.78197 6.48469,-3.36614 0.40408,-0.58417 0.74158,-0.71426 0.75,-0.28908 0.008,0.42518 1.05188,0.0939 2.3188,-0.73625 1.26692,-0.83012 4.93044,-2.41311 8.14116,-3.51776 3.21071,-1.10464 6.33664,-2.41373 6.9465,-2.90908 0.60987,-0.49534 4.25885,-1.85934 8.10885,-3.0311 3.85,-1.17176 8.35,-2.75267 10,-3.51314 1.65,-0.76047 7.95,-2.52945 14,-3.93107 6.05,-1.40162 12.8,-3.01565 15,-3.58672 C 934.83104,486.66409 959.67331,484 967.24636,484 h 6.03273 l -3.88954,2.67109 c -6.12543,4.20655 -11.51549,8.10536 -16.38955,11.85509 -2.475,1.90408 -5.90472,4.47713 -7.6216,5.71789 -4.28938,3.09987 -13.40724,10.11652 -16.09401,12.38514 -1.21858,1.02893 -6.25462,5.24579 -11.1912,9.37079 -4.93658,4.125 -8.66455,7.81076 -8.28439,8.19058 0.73537,0.73471 23.64108,-2.58955 28.6912,-4.16389 3.55858,-1.10937 28.4423,-4.74143 38.74905,-5.65587 3.98802,-0.35382 7.73673,-1.02343 8.33045,-1.48801 1.97433,-1.54489 39.6158,-3.88336 61.4205,-3.81574 20.5102,0.0636 46.1622,1.76181 47.5482,3.14777 0.3579,0.35788 -1.7566,1.86333 -4.6988,3.34543 -2.9422,1.48211 -5.5026,3.09683 -5.6897,3.58828 -0.1872,0.49144 -1.5743,1.53161 -3.0824,2.31148 -2.3612,1.221 -7.6357,5.1394 -13.1182,9.74539 -0.8476,0.71202 -3.7726,3.08453 -6.5,5.27225 -2.7275,2.18772 -7.4341,6.33531 -10.4591,9.21688 -3.025,2.88157 -7.545,7.16662 -10.0444,9.52234 -12.074,11.37969 -40.9081,44.74508 -49.9358,57.78311 -1.33289,1.925 -2.68545,3.725 -3.00569,4 -0.32023,0.275 -2.77371,3.65 -5.45218,7.5 -2.67846,3.85 -5.77908,8.0125 -6.89025,9.25 -1.11117,1.2375 -1.60437,2.25689 -1.09599,2.26531 0.50837,0.008 0.4382,0.34592 -0.15593,0.75 -0.59414,0.40408 -3.71725,4.78469 -6.94024,9.73469 -3.223,4.95 -6.16537,9.225 -6.53861,9.5 -0.37324,0.275 -1.88785,2.75 -3.3658,5.5 -1.47795,2.75 -4.5216,8.15 -6.76366,12 -6.91182,11.86877 -19.2631,34.76171 -21.31117,39.5 -1.0698,2.475 -2.33343,4.77531 -2.80809,5.1118 -0.47466,0.3365 -0.83809,0.8932 -0.80762,1.23713 0.0639,0.72149 -3.12393,8.31289 -5.94243,14.15107 -2.71327,5.62021 -7.57209,17.57559 -10.97315,27 -7.43141,20.59258 -10.02102,27.71811 -13.4468,37 -2.02995,5.5 -5.00829,13.72727 -6.61853,18.28282 -1.61024,4.55555 -3.37367,9.05555 -3.91873,10 -0.54507,0.94445 -2.29483,5.31718 -3.88836,9.71718 -5.88609,16.25246 -8.26152,21.98443 -9.41466,22.71775 -0.65005,0.41339 -0.87594,0.75852 -0.50197,0.76694 2.10698,0.0475 -18.15326,42.87461 -27.80197,58.76927 -4.02948,6.63792 -18.4989,28.20935 -20.62344,30.74604 -0.82104,0.98032 -11.28112,14.59097 -16.5232,21.5 -1.46056,1.925 -3.34761,4.24267 -4.19344,5.15037 -0.84584,0.90771 -3.78789,4.48131 -6.53789,7.94135 -2.75,3.46004 -6.62144,8.11738 -8.60319,10.34968 -1.98176,2.2322 -5.24426,6.2306 -7.25,8.8852 L 776,1017.1532 Z M 514.80699,779.25 c -0.82665,-0.9625 -1.73726,-2.425 -2.02359,-3.25 -0.76983,-2.2181 0.92218,-6 2.68438,-6 0.84272,0 1.53222,-0.45 1.53222,-1 0,-0.55 1.60962,-1 3.57692,-1 2.63198,0 4.36054,0.78361 6.54315,2.96622 2.84773,2.84774 2.90606,3.08258 1.46006,5.87882 -1.74959,3.38335 -3.32941,4.15496 -8.50693,4.15496 -2.34479,0 -4.32973,-0.65961 -5.26621,-1.75 z m -101.93455,379 c -1.24387,-1.5861 -1.2085,-1.6214 0.37756,-0.3776 0.9625,0.7549 1.75,1.5424 1.75,1.75 0,0.8231 -0.82119,0.2933 -2.12756,-1.3724 z M 1091,1159.6224 c 0,-0.2076 0.7875,-0.9951 1.75,-1.75 1.5861,-1.2438 1.6214,-1.2085 0.3776,0.3776 -1.3064,1.6657 -2.1276,2.1955 -2.1276,1.3724 z M 405.40499,1151.75 403.5,1149.5 l 2.25,1.905 c 1.2375,1.0477 2.25,2.0602 2.25,2.25 0,0.8002 -0.80479,0.2094 -2.59501,-1.905 z M 1099.5,1152 c 0.9955,-1.1 2.035,-2 2.31,-2 0.275,0 -0.3145,0.9 -1.31,2 -0.9955,1.1 -2.035,2 -2.31,2 -0.275,0 0.3145,-0.9 1.31,-2 z m -706.04705,-11.25 -3.95295,-4.25 4.25,3.9529 c 2.3375,2.1742 4.25,4.0867 4.25,4.25 0,0.7566 -0.87085,-4e-4 -4.54705,-3.9529 z M 1111.5,1141 c 2.1482,-2.2 4.1309,-4 4.4059,-4 0.275,0 -1.2577,1.8 -3.4059,4 -2.1482,2.2 -4.1309,4 -4.4059,4 -0.275,0 1.2577,-1.8 3.4059,-4 z m -739.04705,-21.25 -3.95295,-4.25 4.25,3.9529 c 3.95246,3.6762 4.70953,4.5471 3.95295,4.5471 -0.16338,0 -2.07588,-1.9125 -4.25,-4.25 z M 1132.5,1120 c 2.1482,-2.2 4.1309,-4 4.4059,-4 0.275,0 -1.2577,1.8 -3.4059,4 -2.1482,2.2 -4.1309,4 -4.4059,4 -0.275,0 1.2577,-1.8 3.4059,-4 z m -771.09501,-12.25 -1.90499,-2.25 2.25,1.905 c 1.2375,1.0477 2.25,2.0602 2.25,2.25 0,0.8002 -0.80479,0.2094 -2.59501,-1.905 z M 1143.5,1108 c 0.9955,-1.1 2.035,-2 2.31,-2 0.275,0 -0.3145,0.9 -1.31,2 -0.9955,1.1 -2.035,2 -2.31,2 -0.275,0 0.3145,-0.9 1.31,-2 z m -788.62756,-7.75 c -1.24387,-1.5861 -1.2085,-1.6214 0.37756,-0.3776 1.66575,1.3064 2.19548,2.1276 1.37244,2.1276 -0.20765,0 -0.99515,-0.7875 -1.75,-1.75 z M 1149,1101.6224 c 0,-0.2076 0.7875,-0.9951 1.75,-1.75 1.5861,-1.2438 1.6214,-1.2085 0.3776,0.3776 -1.3064,1.6657 -2.1276,2.1955 -2.1276,1.3724 z M 233.07895,819.41667 c 0.048,-1.16495 0.28494,-1.4019 0.60416,-0.60417 0.28887,0.72187 0.25335,1.58438 -0.0789,1.91667 -0.3323,0.33229 -0.56864,-0.25834 -0.52522,-1.3125 z m 1038.99995,0 c 0.048,-1.16495 0.285,-1.4019 0.6042,-0.60417 0.2889,0.72187 0.2534,1.58438 -0.079,1.91667 -0.3323,0.33229 -0.5687,-0.25834 -0.5253,-1.3125 z m -1039.99995,-10 c 0.048,-1.16495 0.28494,-1.4019 0.60416,-0.60417 0.28887,0.72187 0.25335,1.58438 -0.0789,1.91667 -0.3323,0.33229 -0.56864,-0.25834 -0.52522,-1.3125 z m 1040.99995,0 c 0.048,-1.16495 0.285,-1.4019 0.6042,-0.60417 0.2889,0.72187 0.2534,1.58438 -0.079,1.91667 -0.3323,0.33229 -0.5687,-0.25834 -0.5253,-1.3125 z M 231.19495,797.5 c 0.0204,-1.65 0.2445,-2.20394 0.49804,-1.23097 0.25354,0.97297 0.23687,2.32297 -0.0371,3 -0.27393,0.67703 -0.48137,-0.11903 -0.46099,-1.76903 z m -0.90894,-20 c 0.008,-2.75 0.20172,-3.75631 0.43157,-2.23625 0.22986,1.52006 0.22371,3.77006 -0.0136,5 -0.23736,1.22994 -0.42542,-0.0137 -0.41792,-2.76375 z m 0,-33 c 0.008,-2.75 0.20172,-3.75631 0.43157,-2.23625 0.22986,1.52006 0.22371,3.77006 -0.0136,5 -0.23736,1.22994 -0.42542,-0.0137 -0.41792,-2.76375 z m 0.90894,-20 c 0.0204,-1.65 0.2445,-2.20394 0.49804,-1.23097 0.25354,0.97297 0.23687,2.32297 -0.0371,3 -0.27393,0.67703 -0.48137,-0.11903 -0.46099,-1.76903 z m 0.884,-12.08333 c 0.048,-1.16495 0.28494,-1.4019 0.60416,-0.60417 0.28887,0.72187 0.25335,1.58438 -0.0789,1.91667 -0.3323,0.33229 -0.56864,-0.25834 -0.52522,-1.3125 z m 1040.99995,0 c 0.048,-1.16495 0.285,-1.4019 0.6042,-0.60417 0.2889,0.72187 0.2534,1.58438 -0.079,1.91667 -0.3323,0.33229 -0.5687,-0.25834 -0.5253,-1.3125 z m -1039.99995,-10 c 0.048,-1.16495 0.28494,-1.4019 0.60416,-0.60417 0.28887,0.72187 0.25335,1.58438 -0.0789,1.91667 -0.3323,0.33229 -0.56864,-0.25834 -0.52522,-1.3125 z m 1038.99995,0 c 0.048,-1.16495 0.285,-1.4019 0.6042,-0.60417 0.2889,0.72187 0.2534,1.58438 -0.079,1.91667 -0.3323,0.33229 -0.5687,-0.25834 -0.5253,-1.3125 z M 354,422.62244 c 0,-0.20765 0.7875,-0.99515 1.75,-1.75 1.58606,-1.24387 1.62143,-1.2085 0.37756,0.37756 C 354.82119,422.91575 354,423.44548 354,422.62244 Z M 1149.8724,421.25 c -1.2438,-1.58606 -1.2085,-1.62143 0.3776,-0.37756 1.6657,1.30637 2.1955,2.12756 1.3724,2.12756 -0.2076,0 -0.9951,-0.7875 -1.75,-1.75 z M 361.5,414 c 0.99549,-1.1 2.03498,-2 2.30998,-2 0.275,0 -0.31449,0.9 -1.30998,2 -0.99549,1.1 -2.03498,2 -2.30998,2 -0.275,0 0.31449,-0.9 1.30998,-2 z m 781.905,-0.25 -1.905,-2.25 2.25,1.90499 c 2.1144,1.79022 2.7052,2.59501 1.905,2.59501 -0.1898,0 -1.2023,-1.0125 -2.25,-2.25 z M 372.5,402 c 2.14824,-2.2 4.1309,-4 4.4059,-4 0.275,0 -1.25766,1.8 -3.4059,4 -2.14824,2.2 -4.1309,4 -4.4059,4 -0.275,0 1.25766,-1.8 3.4059,-4 z m 759.9529,-0.25 -3.9529,-4.25 4.25,3.95295 c 3.9525,3.6762 4.7095,4.54705 3.9529,4.54705 -0.1633,0 -2.0758,-1.9125 -4.25,-4.25 z M 393.5,381 c 2.14824,-2.2 4.1309,-4 4.4059,-4 0.275,0 -1.25766,1.8 -3.4059,4 -2.14824,2.2 -4.1309,4 -4.4059,4 -0.275,0 1.25766,-1.8 3.4059,-4 z m 717.9529,-0.25 -3.9529,-4.25 4.25,3.95295 c 3.9525,3.6762 4.7095,4.54705 3.9529,4.54705 -0.1633,0 -2.0758,-1.9125 -4.25,-4.25 z M 405.5,370 c 0.99549,-1.1 2.03498,-2 2.30998,-2 0.275,0 -0.31449,0.9 -1.30998,2 -0.99549,1.1 -2.03498,2 -2.30998,2 -0.275,0 0.31449,-0.9 1.30998,-2 z m 693.905,-0.25 -1.905,-2.25 2.25,1.90499 c 2.1144,1.79022 2.7052,2.59501 1.905,2.59501 -0.1898,0 -1.2023,-1.0125 -2.25,-2.25 z M 412,364.62244 c 0,-0.20765 0.7875,-0.99515 1.75,-1.75 1.58606,-1.24387 1.62143,-1.2085 0.37756,0.37756 C 412.82119,364.91575 412,365.44548 412,364.62244 Z M 1091.8724,363.25 c -1.2438,-1.58606 -1.2085,-1.62143 0.3776,-0.37756 1.6657,1.30637 2.1955,2.12756 1.3724,2.12756 -0.2076,0 -0.9951,-0.7875 -1.75,-1.75 z M 693.8125,241.31689 c 0.72187,-0.28887 1.58438,-0.25335 1.91667,0.0789 0.33229,0.33229 -0.25834,0.56864 -1.3125,0.52522 -1.16495,-0.048 -1.4019,-0.28494 -0.60417,-0.60416 z m 117,0 c 0.72187,-0.28887 1.58438,-0.25335 1.91667,0.0789 0.33229,0.33229 -0.25834,0.56864 -1.3125,0.52522 -1.16495,-0.048 -1.4019,-0.28494 -0.60417,-0.60416 z m -107,-1 c 0.72187,-0.28887 1.58438,-0.25335 1.91667,0.0789 0.33229,0.33229 -0.25834,0.56864 -1.3125,0.52522 -1.16495,-0.048 -1.4019,-0.28494 -0.60417,-0.60416 z m 97,0 c 0.72187,-0.28887 1.58438,-0.25335 1.91667,0.0789 0.33229,0.33229 -0.25834,0.56864 -1.3125,0.52522 -1.16495,-0.048 -1.4019,-0.28494 -0.60417,-0.60416 z m -85.54347,-1.00988 c 0.97297,-0.25354 2.32297,-0.23687 3,0.0371 0.67703,0.27393 -0.11903,0.48137 -1.76903,0.46099 -1.65,-0.0204 -2.20394,-0.2445 -1.23097,-0.49804 z m 73,0 c 0.97297,-0.25354 2.32297,-0.23687 3,0.0371 0.67703,0.27393 -0.11903,0.48137 -1.76903,0.46099 -1.65,-0.0204 -2.20394,-0.2445 -1.23097,-0.49804 z m -54.00528,-1.02459 c 1.52006,-0.22986 3.77006,-0.22371 5,0.0136 1.22994,0.23736 -0.0137,0.42542 -2.76375,0.41792 -2.75,-0.008 -3.75631,-0.20172 -2.23625,-0.43157 z m 33,0 c 1.52006,-0.22986 3.77006,-0.22371 5,0.0136 1.22994,0.23736 -0.0137,0.42542 -2.76375,0.41792 -2.75,-0.008 -3.75631,-0.20172 -2.23625,-0.43157 z"
         id="path18" />
      <path
         style="fill:#000000"
         d="M 726.81692,1282.9369 C 513.31177,1271.8808 328.79482,1133.1697 258.9246,931.19762 218.12757,813.26673 221.3227,683.34983 267.88639,566.80238 320.77708,434.41864 426.41864,328.77708 558.80238,275.88639 c 124.90889,-49.9043 263.48635,-49.9043 388.39524,0 160.48788,64.11903 280.11918,205.43099 316.28588,373.60623 8.9656,41.68998 10.4972,57.96 10.4972,111.50738 0,32.03297 -0.3959,47.05873 -1.5019,57 -22.3941,201.2842 -157.9204,370.8761 -349.28118,437.0754 -46.53011,16.0966 -94.10909,25.1728 -146.19762,27.8887 -21.35805,1.1137 -28.22464,1.1099 -50.18308,-0.027 z m 65.52433,-25.4326 c 64.29046,-5.6714 121.46754,-21.3682 178.15875,-48.9099 23.01618,-11.1817 36.0977,-18.6152 56.5,-32.1058 65.2071,-43.1169 119.5093,-100.8334 158.0508,-167.9886 26.5342,-46.23346 47.8063,-104.09186 57.4367,-156.22268 C 1248.4963,819.75049 1249,812.69063 1249,761 c 0,-51.69063 -0.5037,-58.75049 -6.5125,-91.27732 -9.6304,-52.13082 -30.9025,-109.98922 -57.4367,-156.22268 -27.1899,-47.37599 -66.0345,-94.47238 -106.4025,-129.00583 -51.3541,-43.93165 -107.59383,-75.72187 -171.02271,-96.67272 -100.04996,-33.04695 -209.20122,-33.04695 -309.25118,0 -63.42888,20.95085 -119.66864,52.74107 -171.02273,96.67272 -33.2686,28.46015 -64.26202,63.82296 -89.84031,102.50583 -13.49058,20.40225 -20.92411,33.48382 -32.10581,56.5 -56.87769,117.07585 -66.00026,249.76533 -25.58411,372.12559 20.95085,63.42888 52.74107,119.66861 96.67272,171.02271 28.46015,33.2686 63.82296,64.262 102.50583,89.8403 20.40225,13.4906 33.48382,20.9241 56.5,32.1058 56.00481,27.2082 113.30434,43.033 177,48.8831 19.66562,1.8061 59.51894,1.8195 79.84125,0.027 z"
         id="path16" />
    </g>
  </g>
</svg>
