<?xml version="1.0" encoding="UTF-8" standalone="no"?>
<svg
   xmlns:dc="http://purl.org/dc/elements/1.1/"
   xmlns:cc="http://creativecommons.org/ns#"
   xmlns:rdf="http://www.w3.org/1999/02/22-rdf-syntax-ns#"
   xmlns:svg="http://www.w3.org/2000/svg"
   xmlns="http://www.w3.org/2000/svg"
   xmlns:sodipodi="http://sodipodi.sourceforge.net/DTD/sodipodi-0.dtd"
   xmlns:inkscape="http://www.inkscape.org/namespaces/inkscape"
   version="1.1"
   id="svg2"
   width="1043.9584"
   height="1045.8192"
   viewBox="0 0 1043.9584 1045.8192"
   sodipodi:docname="Eldach.svg"
   inkscape:version="1.0.1 (3bc2e813f5, 2020-09-07)">
  <metadata
     id="metadata8">
    <rdf:RDF>
      <cc:Work
         rdf:about="">
        <dc:format>image/svg+xml</dc:format>
        <dc:type
           rdf:resource="http://purl.org/dc/dcmitype/StillImage" />
        <dc:title></dc:title>
      </cc:Work>
    </rdf:RDF>
  </metadata>
  <defs
     id="defs6" />
  <sodipodi:namedview
     pagecolor="#ffffff"
     bordercolor="#666666"
     borderopacity="1"
     objecttolerance="10"
     gridtolerance="10"
     guidetolerance="10"
     inkscape:pageopacity="0"
     inkscape:pageshadow="2"
     inkscape:window-width="1920"
     inkscape:window-height="1057"
     id="namedview4"
     showgrid="false"
     inkscape:pagecheckerboard="true"
     inkscape:zoom="0.49"
     inkscape:cx="519.95843"
     inkscape:cy="511.95843"
     inkscape:window-x="-8"
     inkscape:window-y="-8"
     inkscape:window-maximized="1"
     inkscape:current-layer="g10" />
  <g
     inkscape:groupmode="layer"
     inkscape:label="Image"
     id="g10"
     transform="translate(-230.04157,-238.04157)">
    <circle
       style="fill:#ffffff;fill-rule:evenodd"
       id="path20"
       cx="753.06122"
       cy="761.22449"
       r="506.12244" />
    <g
       id="g14">
      <path
         style="fill:#90bb79"
         d="m 720.5,1233.4775 c -61.78296,-5.6745 -120.2224,-21.5161 -173,-46.8966 -55.36457,-26.6244 -111.23928,-69.527 -151,-115.943 C 360.25538,1028.3265 333.08725,984.06588 314.47009,937 295.86516,889.96504 285.04249,843.88344 280.49569,792.34125 274.04097,719.17105 291.78842,629.59249 327.41905,555.5 354.04354,500.13543 396.9461,444.26072 443.36214,404.5 485.67354,368.25538 529.93412,341.08725 577,322.47009 c 47.03496,-18.60493 93.11656,-29.4276 144.65875,-33.9744 73.1702,-6.45472 162.74876,11.29273 236.84125,46.92336 44.6502,21.47202 92.4269,55.52873 128.4895,91.59141 36.0627,36.06267 70.1194,83.83933 91.5914,128.48954 22.2994,46.37068 37.2778,97.22497 44.4354,150.86637 1.6958,12.70866 1.9837,20.63821 1.9837,54.63363 0,33.99542 -0.2879,41.92497 -1.9837,54.63363 -7.1576,53.6414 -22.136,104.49569 -44.4354,150.86637 -21.472,44.6502 -55.5287,92.4269 -91.5914,128.4895 -36.0626,36.0627 -83.8393,70.1194 -128.4895,91.5914 -74.18848,35.6768 -165.10556,53.5915 -238,46.8966 z M 773.74541,1038.75 c 0.54466,-0.6875 1.28384,-5.975 1.64261,-11.75 0.41858,-6.7377 1.4054,-12.5603 2.75407,-16.25 1.95662,-5.3529 2.32122,-5.75 5.27984,-5.75 6.21785,0 7.26899,-4.0772 2.57807,-10 -3.25533,-4.11019 -3.71276,-7.58531 -1.90864,-14.5 0.574,-2.2 1.50312,-6.25 2.06471,-9 0.56159,-2.75 1.49589,-5.57404 2.07622,-6.27563 0.58033,-0.7016 1.41587,-7.0016 1.85675,-14 0.44089,-6.99841 1.26523,-16.09937 1.83188,-20.22437 0.56665,-4.125 1.7149,-14.7 2.55166,-23.5 0.83677,-8.8 1.96475,-20.05 2.50664,-25 0.54189,-4.95 1.01297,-15.3 1.04686,-23 0.0693,-15.75763 3.16939,-51.56286 4.82526,-55.73137 0.94826,-2.38717 1.47551,-2.65326 4.18396,-2.11157 2.28917,0.45783 3.85477,0.061 5.99134,-1.51863 C 814.61745,798.96229 816.74724,798 817.75951,798 821.31966,798 822,795.95447 822,785.25034 c 0,-7.36993 -0.44403,-11.20832 -1.54228,-13.3321 -0.84825,-1.64034 -2.08051,-6.67525 -2.73835,-11.18869 -1.08296,-7.43018 -1.55181,-8.56199 -4.95772,-11.9679 C 809.0951,745.0951 809,744.81417 809,737.64922 c 0,-6.97383 -0.88303,-11.4798 -3.19196,-16.28813 -0.96788,-2.0156 -0.76679,-5.90382 0.75613,-14.62036 0.36124,-2.0676 0.98214,-3.96033 1.37976,-4.20608 0.39763,-0.24574 4.96041,0.42752 10.13951,1.49613 13.72278,2.83146 21.91729,2.62101 44.91656,-1.1535 3.575,-0.58671 9.8137,-2.14911 13.86377,-3.47201 4.05007,-1.3229 7.95395,-2.40527 8.67529,-2.40527 2.16652,0 18.82147,-8.63131 23.55223,-12.20578 2.42479,-1.83212 7.97236,-5.12282 12.32794,-7.31267 5.81344,-2.92282 9.93502,-6.00736 15.5,-11.60003 9.16285,-9.20842 17.56641,-18.7702 21.95035,-24.97566 4.17816,-5.91418 5.88217,-15.64273 7.2805,-41.56597 l 1.03351,-19.1601 -6.76402,-9.3399 C 956.69937,565.70295 952.75462,560.4875 951.65346,559.25 948.19704,555.36559 943,556.82698 943,561.68332 c 0,1.25583 1.34716,7.2379 2.99369,13.29348 l 2.99369,11.01016 -2.89238,13.75652 c -1.5908,7.56609 -4.2995,17.60828 -6.01932,22.316 -2.58599,7.07869 -4.05952,9.48046 -8.51755,13.88312 l -5.39061,5.32364 -1.12321,-3.88312 c -0.61776,-2.13572 -1.5821,-9.71912 -2.14298,-16.85201 -0.56087,-7.13289 -1.49822,-13.54539 -2.08299,-14.25 -1.51836,-1.82951 -5.24252,-1.58198 -7.05465,0.46889 -2.90181,3.28411 -9.61104,30.80922 -10.35158,42.46809 l -0.68077,10.7181 -5.61567,1.58852 c -3.08862,0.87368 -6.45995,1.83639 -7.49185,2.13934 -2.09269,0.61439 -2.11412,2.9247 0.52562,-56.66405 0.95871,-21.64154 0.88934,-28.44571 -0.45844,-44.96776 l -1.58806,-19.46776 -6.17526,-18.04048 -6.17526,-18.04047 -11.15816,-12.99176 c -11.18484,-13.02284 -13.99604,-15.06306 -17.1493,-12.44609 -2.21181,1.83564 -1.81465,4.1723 3.118,18.34439 2.50962,7.21046 6.33462,21.17357 8.5,31.02912 C 862.95295,548.12422 863,548.58976 863,569.37214 v 21.03376 l -4.06453,-3.95295 C 849.33215,577.11325 843.40626,568.72885 836.5,554.70957 829.90448,541.32106 829.33295,540.5 826.60899,540.5 c -5.02405,0 -5.22711,1.71182 -2.41631,20.36952 l 2.5686,17.05001 8.49358,13.29024 c 4.67147,7.30962 11.05317,17.90746 14.18156,23.55074 l 5.68798,10.26051 -3.15886,20.23949 c -1.73737,11.13172 -3.67786,20.73668 -4.3122,21.34435 -0.63434,0.60768 -3.03194,1.82797 -5.328,2.71176 -4.50418,1.73373 -15.02777,1.33663 -38.65944,-1.45879 -9.61998,-1.13797 -11.34398,-1.09823 -15.38406,0.35457 C 783.09515,670.07753 779,669.20057 779,666.22475 779,663.75722 777.07314,662 774.36739,662 c -2.70638,0 -3.79978,-2.78511 -3.45581,-8.80263 0.29498,-5.16042 -0.9694,-6.92999 -5.56798,-7.79269 -2.72483,-0.51118 -3.93298,-0.19962 -5.71397,1.47354 C 758.38744,648.0452 756.2177,649 754.80799,649 c -3.38729,0 -5.13999,2.28461 -4.59603,5.99084 0.38036,2.59154 0.1266,3.00916 -1.82845,3.00916 -2.55529,0 -5.38351,3.40529 -5.38351,6.48196 0,1.12032 -0.9,2.59901 -2,3.28597 -1.1,0.68696 -2.01001,2.2577 -2.02224,3.49054 -0.0122,1.23284 -0.88215,3.36073 -1.93315,4.72864 l -1.91092,2.48711 -2.31685,-2.12979 c -1.27426,-1.17138 -5.56811,-3.75308 -9.54188,-5.73711 -8.03397,-4.01121 -11.35321,-4.33995 -26.27496,-2.60232 -4.675,0.5444 -15.83467,1.45828 -24.79928,2.03084 -15.41209,0.98435 -16.71842,0.92358 -24,-1.11646 -14.09194,-3.94806 -17.09586,-8.60105 -19.31561,-29.91938 -1.40998,-13.54138 -1.34099,-15.83878 0.53799,-17.91503 0.85313,-0.9427 2.90943,-4.43216 4.56955,-7.75436 1.66012,-3.32219 6.15699,-9.59316 9.99304,-13.93548 3.83606,-4.34232 8.27593,-10.59513 9.86639,-13.89513 1.59046,-3.3 3.84938,-6.85724 5.01983,-7.90499 1.17045,-1.04774 2.12809,-3.11326 2.12809,-4.59004 0,-1.47677 0.91913,-6.24453 2.04252,-10.59501 2.98257,-11.55047 3.60418,-19.62836 1.63611,-21.26171 -0.8627,-0.71598 -2.60581,-1.15473 -3.87359,-0.97501 -1.82753,0.25907 -3.81849,3.15783 -9.61077,13.99288 -6.97723,13.05165 -7.84209,14.18697 -19.23475,25.25 C 625.39855,585.78725 619.65471,591 619.19542,591 c -2.08003,0 -3.62795,-17.00792 -3.39437,-37.29603 0.23032,-20.0054 0.35092,-21.13163 3.17217,-29.62336 1.61301,-4.85503 4.01656,-11.24682 5.34122,-14.20397 C 628.32317,500.92759 633,487.45162 633,484.84975 633,481.84268 631.28756,480 628.49303,480 c -1.82146,0 -15.3894,14.07125 -23.80826,24.69144 -0.99838,1.25943 -4.66229,10.13751 -8.14202,19.72906 l -6.32679,17.43919 -1.18491,20.82015 c -1.09134,19.17627 -1.02075,22.3136 0.89406,39.7348 1.14342,10.40305 1.94992,19.04366 1.79222,19.20137 -0.15771,0.1577 -1.09136,-3.62222 -2.07478,-8.39983 -0.98342,-4.7776 -2.2604,-9.25572 -2.83774,-9.95137 -1.34811,-1.62437 -5.27082,-1.63326 -6.54072,-0.0148 -0.53943,0.6875 -2.16254,7.81831 -3.6069,15.84623 -1.83505,10.19946 -3.40837,15.99587 -5.22305,19.24268 l -2.59695,4.64645 -6.88571,-6.24116 c -6.83506,-6.19525 -6.92395,-6.3431 -12.08526,-20.1008 -2.85975,-7.62281 -5.15242,-14.59849 -5.09482,-15.50152 0.0576,-0.90304 -0.3715,-4.57882 -0.95355,-8.16841 -1.00974,-6.22718 -0.89224,-7.02789 2.56193,-17.45699 3.83581,-11.58138 4.36549,-15.37121 2.42022,-17.31648 -3.02588,-3.02588 -5.66455,-1.32352 -14.80258,9.55 l -9.03423,10.75 0.34143,19.5 0.34143,19.5 4.00399,12.07988 4.00399,12.07987 17.43274,19.25356 17.43273,19.25355 33.49025,15.5357 33.49025,15.53569 27.28094,-0.6744 c 19.75389,-0.48832 28.41072,-1.07301 31.37572,-2.11912 2.25214,-0.7946 4.69166,-1.44473 5.42116,-1.44473 0.72951,0 2.94177,2.75625 4.91614,6.125 3.33219,5.68552 3.47411,6.2528 1.97789,7.90611 -1.0594,1.17062 -1.80549,4.46963 -2.17675,9.62499 -0.66667,9.25748 -1.53983,11.3439 -4.74738,11.3439 -3.23345,0 -10.68463,3.31271 -12.64183,5.62041 -0.87676,1.03378 -5.22105,7.77959 -9.65398,14.9907 l -8.05987,13.11112 -0.72615,12.16635 c -0.6622,11.09497 -0.56079,12.34908 1.15162,14.24127 2.26393,2.50161 6.64296,4.87015 9.00409,4.87015 4.23988,0 7.78408,-7.89147 3.6284,-8.07895 -1.04544,-0.0472 -1.24674,-0.28201 -0.5,-0.58333 0.6875,-0.27741 1.25,-1.5528 1.25,-2.83419 0,-2.18239 0.19308,-2.25692 3.05154,-1.17797 2.50546,0.9457 3.56902,0.85484 5.94321,-0.50776 4.79801,-2.75368 5.73046,-0.24508 9.54617,25.6822 3.64384,24.75945 12.44685,64.25187 17.94377,80.5 7.58788,22.42874 11.61263,40.49947 12.47244,56 0.48762,8.79077 1.3531,15.06974 2.4811,18 2.44118,6.3416 5.97808,25.401 8.50648,45.83919 1.43155,11.5718 2.5394,13.5853 7.68207,13.9619 3.14302,0.2302 5.33107,-0.4178 9.28653,-2.75 2.84609,-1.6781 5.3799,-3.0511 5.6307,-3.0511 0.25079,0 0.45599,2.16 0.45599,4.8 0,2.64 0.54,5.34 1.2,6 1.56648,1.5665 5.28729,1.5381 6.54541,-0.05 z m -20.11147,-25.2616 C 753.28527,1012.5798 753,1008.7232 753,1004.9182 c 0,-5.92793 0.25049,-6.91601 1.75,-6.90289 3.68028,0.0322 4.50564,1.4905 3.78972,6.69589 -0.81058,5.8936 -3.89481,11.4118 -4.90578,8.7772 z M 702.5,793 c -0.33992,-0.55 -0.14148,-1 0.44098,-1 0.58246,0 1.05902,0.45 1.05902,1 0,0.55 -0.19844,1 -0.44098,1 -0.24254,0 -0.7191,-0.45 -1.05902,-1 z m -18.76667,-8.12409 c 0.67834,-0.68342 1.48524,-0.99067 1.79313,-0.68278 0.30789,0.30789 -0.24711,0.86705 -1.23333,1.24258 -1.4252,0.54268 -1.54006,0.42782 -0.5598,-0.5598 z M 638.8125,707.31689 c 0.72187,-0.28887 1.58438,-0.25335 1.91667,0.0789 0.33229,0.33229 -0.25834,0.56864 -1.3125,0.52522 -1.16495,-0.048 -1.4019,-0.28494 -0.60417,-0.60416 z m 41,-1 c 0.72187,-0.28887 1.58438,-0.25335 1.91667,0.0789 0.33229,0.33229 -0.25834,0.56864 -1.3125,0.52522 -1.16495,-0.048 -1.4019,-0.28494 -0.60417,-0.60416 z m 4,0 c 0.72187,-0.28887 1.58438,-0.25335 1.91667,0.0789 0.33229,0.33229 -0.25834,0.56864 -1.3125,0.52522 -1.16495,-0.048 -1.4019,-0.28494 -0.60417,-0.60416 z m 12.92083,-3.44098 c 0.67834,-0.68342 1.48524,-0.99067 1.79313,-0.68278 0.30789,0.30789 -0.24711,0.86705 -1.23333,1.24258 -1.4252,0.54268 -1.54006,0.42782 -0.5598,-0.5598 z M 823.5,702 c -0.731,-1.18278 0.24752,-1.18278 3,0 1.92824,0.82859 1.92138,0.86195 -0.19098,0.92971 C 825.10398,702.96837 823.83992,702.55 823.5,702 Z m 29.26845,-1.16845 c 0.5811,-0.5811 1.64682,-0.85979 2.36826,-0.61931 0.74895,0.24965 0.29565,0.70294 -1.05655,1.05655 -1.66335,0.43497 -2.05378,0.30483 -1.31171,-0.43724 z m -45.3821,-3.02789 c 0.99767,-0.55832 2.18811,-0.62874 2.659,-0.15728 0.47065,0.47121 -0.33859,0.92408 -1.8064,1.01091 -2.28714,0.13529 -2.40638,0.0159 -0.8526,-0.85363 z M 908.5,680 c 0.99549,-1.1 2.03498,-2 2.30998,-2 0.275,0 -0.31449,0.9 -1.30998,2 -0.99549,1.1 -2.03498,2 -2.30998,2 -0.275,0 0.31449,-0.9 1.30998,-2 z M 751.07895,664.41667 c 0.048,-1.16495 0.28494,-1.4019 0.60416,-0.60417 0.28887,0.72187 0.25335,1.58438 -0.0789,1.91667 -0.33229,0.33229 -0.56864,-0.25834 -0.52522,-1.3125 z M 594.4088,659.62294 c -0.29063,-0.75738 -0.38053,-3.56988 -0.19978,-6.25 l 0.32864,-4.87294 0.48117,6.25182 c 0.48614,6.3164 0.35289,7.38043 -0.61003,4.87112 z m 32.67015,-4.29115 c -0.0434,-0.64252 -0.33793,-1.99252 -0.65446,-3 -0.54705,-1.74122 -0.51883,-1.7434 0.57078,-0.0441 0.63045,0.98322 0.92496,2.33322 0.65445,3 -0.35498,0.87499 -0.51379,0.88727 -0.57077,0.0441 z M 590.15789,641 c 0,-1.375 0.22698,-1.9375 0.50439,-1.25 0.27741,0.6875 0.27741,1.8125 0,2.5 -0.27741,0.6875 -0.50439,0.125 -0.50439,-1.25 z m 328.92106,-10.58333 c 0.048,-1.16495 0.28494,-1.4019 0.60416,-0.60417 0.28887,0.72187 0.25335,1.58438 -0.0789,1.91667 -0.33229,0.33229 -0.56864,-0.25834 -0.52522,-1.3125 z M 592.15789,628 c 0,-1.375 0.22698,-1.9375 0.50439,-1.25 0.27741,0.6875 0.27741,1.8125 0,2.5 -0.27741,0.6875 -0.50439,0.125 -0.50439,-1.25 z m 36.99504,-15.43629 C 629.79538,611.15367 630.71463,610 631.1957,610 c 1.02324,0 -0.74102,3.60096 -2.20867,4.50801 -0.57245,0.3538 -0.50131,-0.47994 0.1659,-1.9443 z M 541.66033,607.25 c -1.2371,-4.56309 -1.6404,-7.66884 -0.8116,-6.25 0.98609,1.68811 2.32236,8 1.69366,8 -0.22419,0 -0.62111,-0.7875 -0.88206,-1.75 z M 632,608.11803 c 0,-0.55 0.45,-1.27811 1,-1.61803 0.55,-0.33992 1,-0.16803 1,0.38197 0,0.55 -0.45,1.27811 -1,1.61803 -0.55,0.33992 -1,0.16803 -1,-0.38197 z m 2.91022,-4.95027 c 0.53932,-1.00774 1.70058,-2.42979 2.58056,-3.16011 1.32335,-1.09828 1.28957,-0.78259 -0.1954,1.82592 -1.87374,3.29142 -4.09873,4.53602 -2.38516,1.33419 z M 612.19495,535.5 c 0.0204,-1.65 0.2445,-2.20394 0.49804,-1.23097 0.25354,0.97297 0.23687,2.32297 -0.0371,3 -0.27393,0.67703 -0.48137,-0.11903 -0.46099,-1.76903 z m 0.85279,-6.1849 c -0.0582,-2.66476 1.79978,-7.80092 2.55042,-7.05027 0.29822,0.29821 -0.14289,2.49812 -0.98024,4.88869 -0.95813,2.73539 -1.54014,3.53662 -1.57018,2.16158 z"
         id="path18" />
      <path
         style="fill:#0b0b0b"
         d="m 712,1282.9192 c -66.99094,-5.6818 -128.31866,-22.4676 -187.5,-51.3199 -25.55484,-12.4586 -37.84732,-19.4461 -60,-34.1063 -60.02584,-39.7238 -108.26918,-87.9672 -147.99301,-147.993 -14.66018,-22.1527 -21.64769,-34.4452 -34.10627,-60 -28.64851,-58.76335 -45.09047,-118.24529 -50.90503,-184.15875 -1.93883,-21.97847 -1.93883,-66.70403 0,-88.6825 5.81456,-65.91346 22.25652,-125.3954 50.90503,-184.15875 12.45858,-25.55484 19.44609,-37.84732 34.10627,-60 39.72383,-60.02584 87.96717,-108.26918 147.99301,-147.99301 22.15268,-14.66018 34.44516,-21.64769 60,-34.10627 58.76335,-28.64851 118.24529,-45.09047 184.15875,-50.90503 21.97847,-1.93883 66.70403,-1.93883 88.6825,0 65.91346,5.81456 125.3954,22.25652 184.15875,50.90503 25.5548,12.45858 37.8473,19.44609 60,34.10627 60.0258,39.72383 108.2692,87.96717 147.993,147.99301 14.6602,22.15268 21.6477,34.44516 34.1063,60 25.1829,51.65482 40.7426,103.35213 48.417,160.86637 1.7654,13.23021 1.9837,20.67384 1.9837,67.63363 0,46.95979 -0.2183,54.40342 -1.9837,67.63363 -7.6744,57.51424 -23.2341,109.21155 -48.417,160.86637 -12.4586,25.5548 -19.4461,37.8473 -34.1063,60 -39.7238,60.0258 -87.9672,108.2692 -147.993,147.993 -22.1527,14.6602 -34.4452,21.6477 -60,34.1063 -58.76335,28.6485 -118.24529,45.0904 -184.15875,50.905 -18.12854,1.5992 -68.49106,1.8441 -85.34125,0.4149 z m 80.34125,-25.4149 c 64.29046,-5.6714 121.46754,-21.3682 178.15875,-48.9099 23.01618,-11.1817 36.0977,-18.6152 56.5,-32.1058 65.2071,-43.1169 119.5093,-100.8334 158.0508,-167.9886 26.5342,-46.23346 47.8063,-104.09186 57.4367,-156.22268 C 1248.4963,819.75049 1249,812.69063 1249,761 c 0,-51.69063 -0.5037,-58.75049 -6.5125,-91.27732 -9.6304,-52.13082 -30.9025,-109.98922 -57.4367,-156.22268 -27.1899,-47.37599 -66.0345,-94.47238 -106.4025,-129.00583 -51.3541,-43.93165 -107.59383,-75.72187 -171.02271,-96.67272 -100.04996,-33.04695 -209.20122,-33.04695 -309.25118,0 -63.42888,20.95085 -119.66864,52.74107 -171.02273,96.67272 -33.2686,28.46015 -64.26202,63.82296 -89.84031,102.50583 -13.49058,20.40225 -20.92411,33.48382 -32.10581,56.5 -56.87769,117.07585 -66.00026,249.76533 -25.58411,372.12559 20.95085,63.42888 52.74107,119.66861 96.67272,171.02271 28.46015,33.2686 63.82296,64.262 102.50583,89.8403 20.40225,13.4906 33.48382,20.9241 56.5,32.1058 56.00481,27.2082 113.30434,43.033 177,48.8831 19.66562,1.8061 59.51894,1.8195 79.84125,0.027 z M 718.5,1237.4775 c -61.78296,-5.6745 -120.2224,-21.5161 -173,-46.8966 -55.7877,-26.8279 -112.31333,-70.3981 -153,-117.9328 C 356.20394,1030.2429 329.08377,986.0571 310.47009,939 291.86516,891.96504 281.04249,845.88344 276.49569,794.34125 269.81537,718.61366 287.38615,628.429 323.41905,553.5 345.1207,508.37228 378.95603,461.04445 416.00024,424.00024 453.04445,386.95603 500.37228,353.1207 545.5,331.41905 c 74.929,-36.0329 165.11366,-53.60368 240.84125,-46.92336 51.54219,4.5468 97.62379,15.36947 144.65875,33.9744 47.0571,18.61368 91.2429,45.73385 133.6481,82.02991 47.5347,40.68667 91.1049,97.2123 117.9328,153 22.2994,46.37068 37.2778,97.22497 44.4354,150.86637 C 1228.7256,717.1764 1229,725.01006 1229,761 c 0,35.98994 -0.2744,43.8236 -1.9837,56.63363 -7.1576,53.6414 -22.136,104.49569 -44.4354,150.86637 -26.8279,55.7877 -70.3981,112.3133 -117.9328,153 -50.808,43.4883 -101.71235,72.4275 -163.02251,92.6785 -59.74199,19.7331 -127.74642,28.3852 -183.12559,23.299 z m 65.84125,-3.9732 c 51.54219,-4.5468 97.62379,-15.3695 144.65875,-33.9744 47.06588,-18.6171 91.3265,-45.7853 133.6379,-82.0299 46.416,-39.7607 89.3186,-95.6354 115.943,-151 22.2994,-46.37068 37.2778,-97.22497 44.4354,-150.86637 C 1224.7121,802.92497 1225,794.99542 1225,761 c 0,-33.99542 -0.2879,-41.92497 -1.9837,-54.63363 -7.1576,-53.6414 -22.136,-104.49569 -44.4354,-150.86637 -26.6244,-55.36457 -69.527,-111.23928 -115.943,-151 C 1020.3265,368.25538 976.06588,341.08725 929,322.47009 881.96504,303.86516 835.88344,293.04249 784.34125,288.49569 711.17105,282.04097 621.59249,299.78842 547.5,335.41905 492.13543,362.04354 436.26072,404.9461 396.5,451.36214 360.25538,493.67354 333.08725,537.93412 314.47009,585 c -18.60493,47.03496 -29.4276,93.11656 -33.9744,144.65875 -6.45472,73.1702 11.29273,162.74876 46.92336,236.84125 21.47202,44.6502 55.52873,92.4269 91.59141,128.4895 36.06267,36.0627 83.83933,70.1194 128.48954,91.5914 73.97239,35.5729 163.78966,53.3677 236.84125,46.9234 z M 767.2,1038.8 c -0.66,-0.66 -1.2,-3.36 -1.2,-6 0,-2.64 -0.2052,-4.8 -0.45599,-4.8 -0.2508,0 -2.78461,1.373 -5.6307,3.0511 -3.95546,2.3322 -6.14351,2.9802 -9.28653,2.75 -5.14267,-0.3766 -6.25052,-2.3901 -7.68207,-13.9619 -2.5284,-20.4382 -6.0653,-39.4976 -8.50648,-45.8392 -1.128,-2.93026 -1.99348,-9.20923 -2.4811,-18 -0.85981,-15.50053 -4.88456,-33.57126 -12.47244,-56 -5.49692,-16.24813 -14.29993,-55.74055 -17.94377,-80.5 -3.81571,-25.92728 -4.74816,-28.43588 -9.54617,-25.6822 -2.37419,1.3626 -3.43775,1.45346 -5.94321,0.50776 C 683.19308,793.24661 683,793.32114 683,795.50353 c 0,1.28139 -0.5625,2.55678 -1.25,2.83419 -0.74674,0.30132 -0.54544,0.53617 0.5,0.58333 4.15568,0.18748 0.61148,8.07895 -3.6284,8.07895 -2.36113,0 -6.74016,-2.36854 -9.00409,-4.87015 -1.71241,-1.89219 -1.81382,-3.1463 -1.15162,-14.24127 l 0.72615,-12.16635 8.05987,-13.11112 c 4.43293,-7.21111 8.77722,-13.95692 9.65398,-14.9907 1.9572,-2.3077 9.40838,-5.62041 12.64183,-5.62041 3.20755,0 4.08071,-2.08642 4.74738,-11.3439 0.37126,-5.15536 1.11735,-8.45437 2.17675,-9.62499 1.49622,-1.65331 1.3543,-2.22059 -1.97789,-7.90611 -1.97437,-3.36875 -4.18663,-6.125 -4.91614,-6.125 -0.7295,0 -3.16902,0.65013 -5.42116,1.44473 -2.965,1.04611 -11.62183,1.6308 -31.37572,2.11912 L 635.5,711.23825 602.00975,695.70256 568.5195,680.16686 551.08677,660.91331 533.65403,641.65975 529.65004,629.57988 525.64605,617.5 525.30462,598 l -0.34143,-19.5 9.03423,-10.75 c 9.13803,-10.87352 11.7767,-12.57588 14.80258,-9.55 1.94527,1.94527 1.41559,5.7351 -2.42022,17.31648 -3.45417,10.4291 -3.57167,11.22981 -2.56193,17.45699 0.58205,3.58959 1.01115,7.26537 0.95355,8.16841 -0.0576,0.90303 2.23507,7.87871 5.09482,15.50152 5.16131,13.7577 5.2502,13.90555 12.08526,20.1008 l 6.88571,6.24116 2.59695,-4.64645 c 1.81468,-3.24681 3.388,-9.04322 5.22305,-19.24268 1.44436,-8.02792 3.06747,-15.15873 3.6069,-15.84623 1.2699,-1.61845 5.19261,-1.60956 6.54072,0.0148 0.57734,0.69565 1.85432,5.17377 2.83774,9.95137 0.98342,4.77761 1.91707,8.55753 2.07478,8.39983 0.1577,-0.15771 -0.6488,-8.79832 -1.79222,-19.20137 -1.91481,-17.4212 -1.9854,-20.55853 -0.89406,-39.7348 l 1.18491,-20.82015 6.32679,-17.43919 c 3.47973,-9.59155 7.14364,-18.46963 8.14202,-19.72906 C 613.10363,494.07125 626.67157,480 628.49303,480 c 2.79453,0 4.50697,1.84268 4.50697,4.84975 0,2.60187 -4.67683,16.07784 -8.68556,25.02689 -1.32466,2.95715 -3.72821,9.34894 -5.34122,14.20397 -2.82125,8.49173 -2.94185,9.61796 -3.17217,29.62336 -0.23358,20.28811 1.31434,37.29603 3.39437,37.29603 0.45929,0 6.20313,-5.21275 12.7641,-11.58388 11.39266,-11.06303 12.25752,-12.19835 19.23475,-25.25 5.79228,-10.83505 7.78324,-13.73381 9.61077,-13.99288 1.26778,-0.17972 3.01089,0.25903 3.87359,0.97501 1.96807,1.63335 1.34646,9.71124 -1.63611,21.26171 C 661.91913,566.76044 661,571.5282 661,573.00497 c 0,1.47678 -0.95764,3.5423 -2.12809,4.59004 -1.17045,1.04775 -3.42937,4.60499 -5.01983,7.90499 -1.59046,3.3 -6.03033,9.55281 -9.86639,13.89513 -3.83605,4.34232 -8.33292,10.61329 -9.99304,13.93548 -1.66012,3.3222 -3.71642,6.81166 -4.56955,7.75436 -1.87898,2.07625 -1.94797,4.37365 -0.53799,17.91503 2.21975,21.31833 5.22367,25.97132 19.31561,29.91938 7.28158,2.04004 8.58791,2.10081 24,1.11646 8.96461,-0.57256 20.12428,-1.48644 24.79928,-2.03084 14.92175,-1.73763 18.24099,-1.40889 26.27496,2.60232 3.97377,1.98403 8.26762,4.56573 9.54188,5.73711 l 2.31685,2.12979 1.91092,-2.48711 c 1.051,-1.36791 1.92092,-3.4958 1.93315,-4.72864 0.0122,-1.23284 0.92224,-2.80358 2.02224,-3.49054 1.1,-0.68696 2,-2.16565 2,-3.28597 0,-3.07667 2.82822,-6.48196 5.38351,-6.48196 1.95505,0 2.20881,-0.41762 1.82845,-3.00916 C 749.668,651.28461 751.4207,649 754.80799,649 c 1.40971,0 3.57945,-0.9548 4.82164,-2.12178 1.78099,-1.67316 2.98914,-1.98472 5.71397,-1.47354 4.59858,0.8627 5.86296,2.63227 5.56798,7.79269 -0.34397,6.01752 0.74943,8.80263 3.45581,8.80263 2.70575,0 4.63261,1.75722 4.63261,4.22475 0,2.97582 4.09515,3.85278 9.28184,1.98765 4.04008,-1.4528 5.76408,-1.49254 15.38406,-0.35457 23.63167,2.79542 34.15526,3.19252 38.65944,1.45879 2.29606,-0.88379 4.69366,-2.10408 5.328,-2.71176 0.63434,-0.60767 2.57483,-10.21263 4.3122,-21.34435 l 3.15886,-20.23949 -5.68798,-10.26051 c -3.12839,-5.64328 -9.51009,-16.24112 -14.18156,-23.55074 l -8.49358,-13.29024 -2.5686,-17.05001 c -2.8108,-18.6577 -2.60774,-20.36952 2.41631,-20.36952 2.72396,0 3.29549,0.82106 9.89101,14.20957 6.90626,14.01928 12.83215,22.40368 22.43547,31.74338 L 863,590.4059 v -21.03376 c 0,-20.78238 -0.0471,-21.24792 -3.93704,-38.95295 -2.16538,-9.85555 -5.99038,-23.81866 -8.5,-31.02912 -4.93265,-14.17209 -5.32981,-16.50875 -3.118,-18.34439 3.15326,-2.61697 5.96446,-0.57675 17.1493,12.44609 l 11.15816,12.99176 6.17526,18.04047 6.17526,18.04048 1.58806,19.46776 c 1.34778,16.52205 1.41715,23.32622 0.45844,44.96776 -2.63974,59.58875 -2.61831,57.27844 -0.52562,56.66405 1.0319,-0.30295 4.40323,-1.26566 7.49185,-2.13934 l 5.61567,-1.58852 0.68077,-10.7181 c 0.74054,-11.65887 7.44977,-39.18398 10.35158,-42.46809 1.81213,-2.05087 5.53629,-2.2984 7.05465,-0.46889 0.58477,0.70461 1.52212,7.11711 2.08299,14.25 0.56088,7.13289 1.52522,14.71629 2.14298,16.85201 l 1.12321,3.88312 5.39061,-5.32364 c 4.45803,-4.40266 5.93156,-6.80443 8.51755,-13.88312 1.71982,-4.70772 4.42852,-14.74991 6.01932,-22.316 l 2.89238,-13.75652 -2.99369,-11.01016 C 944.34716,568.92122 943,562.93915 943,561.68332 c 0,-4.85634 5.19704,-6.31773 8.65346,-2.43332 1.10116,1.2375 5.04591,6.45295 8.76611,11.58989 l 6.76402,9.3399 -1.03351,19.1601 c -1.39833,25.92324 -3.10234,35.65179 -7.2805,41.56597 -4.38394,6.20546 -12.7875,15.76724 -21.95035,24.97566 -5.56498,5.59267 -9.68656,8.67721 -15.5,11.60003 -4.35558,2.18985 -9.90315,5.48055 -12.32794,7.31267 C 904.36053,688.36869 887.70558,697 885.53906,697 c -0.72134,0 -4.62522,1.08237 -8.67529,2.40527 -4.05007,1.3229 -10.28877,2.8853 -13.86377,3.47201 -22.99927,3.77451 -31.19378,3.98496 -44.91656,1.1535 -5.1791,-1.06861 -9.74188,-1.74187 -10.13951,-1.49613 -0.39762,0.24575 -1.01852,2.13848 -1.37976,4.20608 -1.52292,8.71654 -1.72401,12.60476 -0.75613,14.62036 2.30893,4.80833 3.19196,9.3143 3.19196,16.28813 0,7.16495 0.0951,7.44588 3.76165,11.11243 3.40591,3.40591 3.87476,4.53772 4.95772,11.9679 0.65784,4.51344 1.8901,9.54835 2.73835,11.18869 C 821.55597,774.04202 822,777.88041 822,785.25034 822,795.95447 821.31966,798 817.75951,798 c -1.01227,0 -3.14206,0.96229 -4.73287,2.13843 -2.13657,1.57963 -3.70217,1.97646 -5.99134,1.51863 -2.70845,-0.54169 -3.2357,-0.2756 -4.18396,2.11157 -1.65587,4.16851 -4.75591,39.97374 -4.82526,55.73137 -0.0339,7.7 -0.50497,18.05 -1.04686,23 -0.54189,4.95 -1.66987,16.2 -2.50664,25 -0.83676,8.8 -1.98501,19.375 -2.55166,23.5 -0.56665,4.125 -1.39099,13.22596 -1.83188,20.22437 -0.44088,6.9984 -1.27642,13.2984 -1.85675,14 -0.58033,0.70159 -1.51463,3.52563 -2.07622,6.27563 -0.56159,2.75 -1.49071,6.8 -2.06471,9 -1.80412,6.91469 -1.34669,10.38981 1.90864,14.5 4.69092,5.9228 3.63978,10 -2.57807,10 -2.95862,0 -3.32322,0.3971 -5.27984,5.75 -1.34867,3.6897 -2.33549,9.5123 -2.75407,16.25 -0.35877,5.775 -1.09795,11.0625 -1.64261,11.75 -1.25812,1.5881 -4.97893,1.6165 -6.54541,0.05 z m 7.57074,-31.5959 2.72649,-7.29589 3.97481,0.67149 3.9748,0.6716 -3.57546,-4.37566 c -3.48586,-4.26599 -3.55738,-4.526 -2.85406,-10.37564 0.39677,-3.3 2.13019,-11.26489 3.85204,-17.69977 2.02831,-7.58015 3.13761,-14.0942 3.15045,-18.5 0.0109,-3.74012 0.44216,-9.72523 0.95836,-13.30023 2.68345,-18.58429 7.02223,-67.51976 7.02528,-79.23551 0.004,-13.84307 2.21324,-40.94662 4.17936,-51.26449 1.65525,-8.68644 3.03983,-10.4647 7.38492,-9.48472 2.61473,0.58971 3.8757,0.39843 5.03844,-0.7643 0.85298,-0.85298 2.7988,-1.51539 4.32404,-1.47203 l 2.77318,0.0788 0.16236,-8.95138 c 0.11624,-6.40833 -0.27979,-9.8064 -1.39397,-11.96099 -0.85598,-1.65529 -2.09278,-6.69015 -2.74843,-11.18858 -1.12491,-7.718 -1.43391,-8.40652 -5.48258,-12.21647 -3.73828,-3.51785 -4.20665,-4.41925 -3.63905,-7.00353 0.53745,-2.44696 0.59612,-8.51781 0.14775,-15.28685 -0.0455,-0.6875 -0.51029,-1.25 -1.03277,-1.25 -0.52248,0 -0.72341,-0.86633 -0.44652,-1.92518 0.33755,-1.29079 0.0798,-1.76261 -0.78221,-1.43183 -2.15983,0.82881 -2.48697,-1.07949 -1.41611,-8.26064 0.56446,-3.78529 1.18137,-8.31041 1.3709,-10.05582 0.65531,-6.03467 3.53549,-7.6404 11.1232,-6.20126 2.71372,0.5147 5.67765,1.05555 6.58651,1.20189 0.90886,0.14633 2.33725,0.83438 3.1742,1.52899 0.90171,0.74835 2.87679,1.04438 4.84753,0.72655 1.82919,-0.29501 8.5008,-0.76623 14.8258,-1.04717 6.325,-0.28094 13.70902,-1.19136 16.40893,-2.02316 2.69991,-0.83181 6.07491,-1.51912 7.5,-1.52738 3.55185,-0.0206 16.5118,-4.14812 22.59107,-7.19491 2.75,-1.37824 8.05316,-4.02 11.7848,-5.87058 3.73165,-1.85058 7.74759,-4.38952 8.92432,-5.6421 1.17673,-1.25257 2.52001,-2.2774 2.98507,-2.2774 0.46505,0 2.63661,-1.13065 4.82568,-2.51254 2.18907,-1.3819 3.98013,-2.25126 3.98013,-1.93191 0,1.19458 6.70636,-4.1462 12.55392,-9.99763 7.33004,-7.33489 17.53845,-19.22928 21.02381,-24.49601 3.31436,-5.00835 5.23152,-16.43062 6.50645,-38.76496 l 0.98202,-17.20306 -7.67018,-10.57653 c -4.2186,-5.8171 -7.84496,-10.40176 -8.05858,-10.18813 -0.21362,0.21362 1.04626,5.7075 2.79974,12.20863 l 3.18815,11.82022 -2.27133,12.07096 c -1.24923,6.63903 -3.87309,17.02096 -5.83079,23.07096 -3.55583,10.98877 -3.56838,11.00914 -12.30173,19.95024 l -8.74227,8.95024 -2.07734,-6.95024 c -1.19058,-3.98338 -2.61617,-13.27901 -3.33961,-21.77616 L 917.5,605.84816 l -4.71529,17.32592 c -3.77424,13.86813 -4.8489,19.63086 -5.38476,28.87528 l -0.66947,11.54936 -10.26797,2.70064 C 890.81512,667.78471 885.63223,669 884.94497,669 c -1.32674,0 -1.18286,-7.64333 1.15774,-61.5 0.90791,-20.89099 0.83045,-28.13404 -0.47126,-44.06809 l -1.55775,-19.06809 -6.1739,-17.91069 -6.1739,-17.91069 -10.48132,-12.31952 c -5.76473,-6.77573 -10.6325,-12.16833 -10.81728,-11.98355 -0.18478,0.18478 1.69812,6.16901 4.18423,13.2983 2.48611,7.12928 6.32498,21.19539 8.53082,31.25802 l 4.01063,18.2957 -0.32649,24.87258 c -0.17957,13.67992 -0.66216,25.20753 -1.07243,25.61691 -1.00367,1.0015 -10.66001,-8.19896 -19.25406,-18.34506 -5.28206,-6.23598 -8.63539,-11.63521 -13.66367,-22 -3.66501,-7.5547 -6.68969,-13.28582 -6.7215,-12.73582 -0.0318,0.55 1.00871,7.84712 2.31228,16.21582 l 2.37013,15.21583 8.85138,13.80839 c 4.86826,7.59462 11.31025,18.57205 14.31553,24.3943 l 5.46414,10.5859 -3.32097,21.38988 c -1.82653,11.76443 -3.70598,22.11619 -4.17655,23.0039 -0.47057,0.8877 -3.52588,2.61264 -6.78957,3.83317 -6.69925,2.50536 -12.68351,2.40521 -38.21187,-0.63947 l -13.57068,-1.61853 -5.80017,2.6554 c -6.82691,3.12547 -7.71598,3.24316 -6.83986,0.90541 0.57433,-1.53249 0.44613,-1.57942 -1.03139,-0.37756 -1.43007,1.16326 -1.68956,1.16326 -1.70254,0 -0.012,-1.07798 -0.22329,-1.05062 -0.98469,0.12756 -0.86167,1.33333 -0.98021,1.33333 -1.06692,0 -0.18379,-2.8263 -1.06351,-7.46376 -1.49835,-7.8986 -0.2391,-0.23911 -0.48819,2.00277 -0.55352,4.98193 l -0.1188,5.41667 -1.28521,-5 c -1.08814,-4.23334 -2.05249,-4.74061 -1.56916,-0.82541 0.0797,0.64603 -0.36985,1.49279 -0.99911,1.8817 -0.80854,0.4997 -1.03031,-0.48631 -0.7561,-3.36169 0.21341,-2.23783 0.18723,-3.86799 -0.0582,-3.62258 -1.18827,1.18828 -3.03289,-7.47592 -2.4637,-11.57202 0.34393,-2.475 0.32126,-4.2161 -0.0504,-3.8691 -0.37164,0.34699 -1.04723,3.49699 -1.50133,7 l -0.82563,6.3691 -0.26299,-7.5 c -0.14464,-4.125 -0.44877,-6.375 -0.67584,-5 -0.78385,4.74656 -1.52977,5.69768 -2.35275,3 l -0.76267,-2.5 -0.0997,2.75 c -0.0548,1.5125 0.35413,2.75 0.90879,2.75 0.59961,0 0.50481,0.8065 -0.23381,1.98922 -1.18244,1.89339 -1.32692,1.82426 -2.99912,-1.4352 -0.96626,-1.88344 -2.21104,-3.70514 -2.76619,-4.04824 -1.26677,-0.78291 -1.27034,-0.81381 0.46181,3.99422 0.79258,2.2 1.41595,5.575 1.38527,7.5 -0.0509,3.19417 -0.12575,3.28155 -0.85643,1 -0.44035,-1.375 -0.8455,-2.13036 -0.90032,-1.67857 -0.12633,1.04107 -2.57837,-1.37361 -3.39095,-3.33929 -0.33698,-0.81518 -0.57897,0.76786 -0.53775,3.51786 0.0997,6.65339 -0.0304,7.26484 -1.17098,5.5 -0.53316,-0.825 -0.98995,-3.075 -1.0151,-5 -0.071,-5.43226 -1.82043,-1.43776 -2.10538,4.80715 C 746.7492,672.66322 746.273,675 745.82129,675 745.36958,675 745,674.35156 745,673.55902 c 0,-0.79254 -0.51563,-1.75966 -1.14584,-2.14916 -0.80238,-0.49589 -0.95252,0.0621 -0.50089,1.86152 0.82123,3.27207 -0.23231,6.5262 -1.47712,4.56247 -0.54073,-0.85302 -0.89369,0.28832 -0.97915,3.16615 -0.1181,3.97694 -0.21151,4.1513 -0.80369,1.5 l -0.67006,-3 -0.69797,2.5 c -0.38388,1.375 -0.74897,4.075 -0.81131,6 -0.10424,3.21931 -0.17754,3.2995 -0.91397,1 -0.66901,-2.08899 -0.82058,-2.17119 -0.92194,-0.5 -0.0789,1.3004 -1.10052,0.0761 -2.92069,-3.5 -2.57046,-5.05024 -3.48815,-5.86139 -11.2221,-9.91938 l -8.42271,-4.41938 -18.50628,1.66419 c -34.56921,3.10865 -39.4786,3.17355 -48.6919,0.64373 -6.47531,-1.77802 -9.1332,-3.10655 -12.72076,-6.3584 -4.5989,-4.16855 -5.30467,-5.9659 -7.11155,-18.11076 -0.24548,-1.65 -1.15336,-7.58846 -2.01751,-13.19658 -1.43038,-9.28286 -1.42968,-10.47019 0.008,-13.25 0.86845,-1.67938 1.22993,-3.06031 0.80331,-3.06873 -0.42662,-0.008 -0.21117,-0.37373 0.47879,-0.81178 2.4134,-1.53227 6.10123,-7.38537 5.55316,-8.81362 -0.33771,-0.88005 -0.0186,-1.32783 0.81969,-1.15018 0.78683,0.16674 1.3134,-0.456 1.23379,-1.45911 -0.0764,-0.9625 0.41388,-1.75 1.08949,-1.75 0.6756,0 1.69683,-1.0125 2.2694,-2.25 0.57257,-1.2375 3.35446,-5.13194 6.18198,-8.65431 2.82752,-3.52237 6.00214,-8.35118 7.05471,-10.73068 1.05256,-2.3795 3.01781,-5.43042 4.36722,-6.77982 1.4065,-1.40651 2.67269,-4.0818 2.96721,-6.26933 0.42772,-3.17683 2.89771,-15.68249 5.19765,-26.31586 0.2974,-1.375 -2.78629,3.73751 -6.85264,11.36113 -6.75006,12.65505 -8.2958,14.76814 -17.76475,24.28508 -5.70426,5.73317 -12.90409,12.41997 -15.99962,14.85956 l -5.62825,4.43562 -1.06533,-4.2207 c -2.13757,-8.46876 -2.43078,-10.47109 -3.58476,-24.4801 -0.64604,-7.84267 -0.8437,-14.59267 -0.43926,-15 0.40444,-0.40732 0.8727,-6.20998 1.04059,-12.89479 0.16789,-6.68481 0.64275,-11.94575 1.05525,-11.69098 0.4125,0.25477 0.75,-0.43679 0.75,-1.53679 0,-1.1 0.49238,-2.3043 1.09417,-2.67623 0.60179,-0.37193 0.8892,-1.74849 0.63867,-3.05902 C 615.48232,522.07225 615.6915,521 616.19769,521 c 0.50619,0 0.63005,-0.46971 0.27524,-1.0438 -0.35481,-0.5741 -0.10127,-1.6991 0.56342,-2.5 0.6647,-0.80091 0.9514,-1.4562 0.63712,-1.4562 -0.53033,0 0.60702,-3.12149 3.82581,-10.5 0.71979,-1.65 1.97496,-5.025 2.78927,-7.5 0.8143,-2.475 2.46233,-6.975 3.66229,-10 1.43278,-3.61194 1.6861,-4.98507 0.73794,-4 -4.62252,4.80247 -19.86542,22.35325 -21.06164,24.25051 -0.78006,1.23722 -4.13766,9.89949 -7.46133,19.24949 l -6.04305,17 -1.0839,19 c -1.01087,17.71977 -0.91622,20.54975 1.40465,42 3.27269,30.24719 5.8364,59.55342 5.26015,60.12967 -0.25321,0.25321 -2.59418,-0.0769 -5.20215,-0.73361 l -4.74178,-1.19399 0.49842,-11.60103 c 0.44805,-10.42855 0.1507,-13.31706 -2.94209,-28.57994 -1.89229,-9.33839 -3.55077,-17.08915 -3.68553,-17.2239 -0.13475,-0.13475 -1.44446,6.38075 -2.91046,14.4789 -2.19657,12.13374 -3.34395,16.00632 -6.52235,22.01388 l -3.85689,7.28998 -9.58516,-8.63223 -9.58517,-8.63223 -4.18359,-11.15775 C 544.68593,615.52099 542.60176,608.925 542.35541,607 c -0.24635,-1.925 -1.23126,-7.55 -2.18869,-12.5 l -1.74078,-9 4.28703,-12.94609 C 545.07084,565.43357 547,559.43156 547,559.21612 c 0,-0.21544 -4.05,4.56409 -9,10.62117 l -9,11.01289 0.0245,14.82491 c 0.0265,16.05185 0.44156,18.73135 5.23994,33.82491 l 3.1791,10 14.02825,15.46246 c 7.71555,8.50436 15.37826,16.89449 17.02826,18.64475 2.174,2.3061 12.29608,7.4644 36.76309,18.7348 l 33.76309,15.55251 17.73691,-0.98535 c 9.7553,-0.54194 19.82965,-0.70713 22.38745,-0.3671 3.26242,0.43371 6.87091,-0.005 12.08926,-1.46906 11.04086,-3.09807 12.39184,-2.5506 17.90886,7.25731 2.58402,4.59375 4.87418,10.13936 5.23217,12.66968 l 0.63665,4.5 -1.9865,-2.5 c -1.09258,-1.375 -1.99651,-2.9275 -2.00874,-3.45 -0.0127,-0.54205 -0.47107,-0.50117 -1.06744,0.0952 -0.57487,0.57487 -1.28634,4.37737 -1.58106,8.45 -0.29472,4.07264 -0.98798,8.6037 -1.54058,10.06901 -0.96418,2.55668 -4.67643,4.74134 -7.83316,4.60982 -0.825,-0.0344 -3.0779,0.60866 -5.00644,1.42895 -2.89442,1.23112 -5.01799,3.94546 -12.16642,15.55107 l -8.65997,14.05963 -0.33359,10.7668 -0.33358,10.76679 3.2971,1.94593 c 3.66166,2.16108 4.86622,1.82071 3.38875,-0.95755 -0.70385,-1.32353 -0.45849,-2.9516 0.87946,-5.83565 1.0206,-2.2 2.31229,-5.2375 2.87042,-6.75 0.55812,-1.5125 1.43682,-2.75 1.95266,-2.75 0.54331,0 0.46755,1.24605 -0.18009,2.96183 -0.61488,1.62901 -0.87376,3.20604 -0.57529,3.50451 1.07358,1.07359 6.7985,-1.67517 7.39352,-3.54992 0.35962,-1.13308 1.51889,-1.91642 2.83611,-1.91642 1.72431,0 2.95232,1.41269 5.433,6.25 1.76282,3.4375 3.20496,7.11076 3.20475,8.16279 -2.2e-4,1.05203 1.37684,10.50203 3.06012,21 4.23338,26.40199 11.98979,60.48244 17.43057,76.58721 7.58176,22.44207 11.60606,40.51165 12.47184,56 0.52747,9.43618 1.35699,15.15563 2.75568,19 1.10058,3.025 2.76261,9.96845 3.69339,15.4299 0.93079,5.46144 1.87379,10.22349 2.09557,10.58233 0.22177,0.35884 0.90761,5.69777 1.52409,11.86417 0.61647,6.1665 1.74818,13.1045 2.5149,15.4177 1.27074,3.8339 1.33857,2.8791 0.7669,-10.7941 -0.34493,-8.25 -0.54606,-16.125 -0.44696,-17.5 0.32745,-4.54312 -2.02933,-21.43854 -3.47385,-24.90354 -0.78039,-1.87195 -1.24432,-3.57812 -1.03095,-3.79149 0.21337,-0.21337 1.15707,1.54322 2.09711,3.90354 0.94004,2.36032 3.34284,7.98073 5.33956,12.48981 3.5049,7.91493 3.76593,8.22122 7.55132,8.86076 l 3.92092,0.66243 -0.5316,7.63929 c -0.44657,6.4173 -1.17176,8.8388 -4.53401,15.1392 -2.20133,4.125 -4.30574,8.5201 -4.67648,9.767 -0.65122,2.1901 -0.49376,2.1616 4.64872,-0.843 2.92752,-1.7105 6.496,-4.2157 7.92996,-5.5672 l 2.60718,-2.4573 0.64282,4.6898 c 0.35354,2.5794 0.7064,6.5395 0.78412,8.8003 0.0777,2.2607 0.53768,-0.8396 1.02212,-6.8896 0.62862,-7.8505 1.66145,-13.0889 3.60731,-18.2959 z m -15.47116,-38.97132 c -2.27417,-5.35303 -4.42522,-11.04886 -4.7801,-12.65741 -0.56711,-2.57048 -0.45599,-2.76757 0.91764,-1.62756 0.85958,0.71339 1.56288,1.94354 1.56288,2.73365 0,0.79012 0.48924,1.1342 1.08721,0.76464 0.69997,-0.4326 1.01841,0.34779 0.89404,2.19098 -0.2692,3.98968 -0.0635,6.77854 0.46119,6.25381 0.24334,-0.24334 1.36794,-4.68294 2.49911,-9.86577 1.13117,-5.18284 2.39457,-9.76157 2.80756,-10.17496 0.41299,-0.41339 0.68186,6.24774 0.59748,14.80251 -0.0844,8.55478 -0.54912,15.94986 -1.03278,16.43352 -0.50583,0.50583 -2.63578,-3.25493 -5.01423,-8.85341 z m -0.75986,36.47842 c 0.71592,-5.20539 -0.10944,-6.66368 -3.78972,-6.69589 -1.49951,-0.0131 -1.75,0.97496 -1.75,6.90289 0,3.805 0.28527,7.6616 0.63394,8.5702 1.01097,2.6346 4.0952,-2.8836 4.90578,-8.7772 z M 595.01883,654.75182 594.53766,648.5 l -0.32864,4.87294 c -0.2887,4.28062 0.15367,7.62334 1.0096,7.62888 0.15476,0.001 0.0648,-2.8115 -0.19979,-6.25 z M 592.66228,626.75 c -0.27741,-0.6875 -0.50439,-0.125 -0.50439,1.25 0,1.375 0.22698,1.9375 0.50439,1.25 0.27741,-0.6875 0.27741,-1.8125 0,-2.5 z"
         id="path16" />
    </g>
  </g>
</svg>
