<?xml version="1.0" encoding="UTF-8" standalone="no"?>
<svg
   xmlns:dc="http://purl.org/dc/elements/1.1/"
   xmlns:cc="http://creativecommons.org/ns#"
   xmlns:rdf="http://www.w3.org/1999/02/22-rdf-syntax-ns#"
   xmlns:svg="http://www.w3.org/2000/svg"
   xmlns="http://www.w3.org/2000/svg"
   xmlns:sodipodi="http://sodipodi.sourceforge.net/DTD/sodipodi-0.dtd"
   xmlns:inkscape="http://www.inkscape.org/namespaces/inkscape"
   version="1.1"
   id="svg2"
   width="1043.5789"
   height="1045.5884"
   viewBox="0 0 1043.5789 1045.5884"
   sodipodi:docname="Engad.svg"
   inkscape:version="1.0.1 (3bc2e813f5, 2020-09-07)">
  <metadata
     id="metadata8">
    <rdf:RDF>
      <cc:Work
         rdf:about="">
        <dc:format>image/svg+xml</dc:format>
        <dc:type
           rdf:resource="http://purl.org/dc/dcmitype/StillImage" />
        <dc:title></dc:title>
      </cc:Work>
    </rdf:RDF>
  </metadata>
  <defs
     id="defs6" />
  <sodipodi:namedview
     pagecolor="#ffffff"
     bordercolor="#666666"
     borderopacity="1"
     objecttolerance="10"
     gridtolerance="10"
     guidetolerance="10"
     inkscape:pageopacity="0"
     inkscape:pageshadow="2"
     inkscape:window-width="1920"
     inkscape:window-height="1057"
     id="namedview4"
     showgrid="false"
     inkscape:pagecheckerboard="true"
     inkscape:zoom="0.49"
     inkscape:cx="519.70034"
     inkscape:cy="511.8881"
     inkscape:window-x="-8"
     inkscape:window-y="-8"
     inkscape:window-maximized="1"
     inkscape:current-layer="g10" />
  <g
     inkscape:groupmode="layer"
     inkscape:label="Image"
     id="g10"
     transform="translate(-230.29966,-238.1119)">
    <g
       id="g14">
      <path
         style="fill:#816436"
         d="m 734.25,1283.2837 c 1.5125,-0.2291 3.9875,-0.2291 5.5,0 1.5125,0.2292 0.275,0.4166 -2.75,0.4166 -3.025,0 -4.2625,-0.1874 -2.75,-0.4166 z m 32,0 c 1.5125,-0.2291 3.9875,-0.2291 5.5,0 1.5125,0.2292 0.275,0.4166 -2.75,0.4166 -3.025,0 -4.2625,-0.1874 -2.75,-0.4166 z m -50.98097,-0.9767 c 0.97297,-0.2535 2.32297,-0.2369 3,0.037 0.67703,0.2739 -0.11903,0.4813 -1.76903,0.461 -1.65,-0.02 -2.20394,-0.2445 -1.23097,-0.4981 z m 73,0 c 0.97297,-0.2535 2.32297,-0.2369 3,0.037 0.67703,0.2739 -0.11903,0.4813 -1.76903,0.461 -1.65,-0.02 -2.20394,-0.2445 -1.23097,-0.4981 z m -84.45653,-0.9901 c 0.72187,-0.2889 1.58438,-0.2534 1.91667,0.079 0.33229,0.3323 -0.25834,0.5687 -1.3125,0.5253 -1.16495,-0.048 -1.4019,-0.285 -0.60417,-0.6042 z m 97,0 c 0.72187,-0.2889 1.58438,-0.2534 1.91667,0.079 0.33229,0.3323 -0.25834,0.5687 -1.3125,0.5253 -1.16495,-0.048 -1.4019,-0.285 -0.60417,-0.6042 z m -107,-1 c 0.72187,-0.2889 1.58438,-0.2534 1.91667,0.079 0.33229,0.3323 -0.25834,0.5687 -1.3125,0.5253 -1.16495,-0.048 -1.4019,-0.285 -0.60417,-0.6042 z m 117,0 c 0.72187,-0.2889 1.58438,-0.2534 1.91667,0.079 0.33229,0.3323 -0.25834,0.5687 -1.3125,0.5253 -1.16495,-0.048 -1.4019,-0.285 -0.60417,-0.6042 z m -125,-1 c 0.72187,-0.2889 1.58438,-0.2534 1.91667,0.079 0.33229,0.3323 -0.25834,0.5687 -1.3125,0.5253 -1.16495,-0.048 -1.4019,-0.285 -0.60417,-0.6042 z m 133,0 c 0.72187,-0.2889 1.58438,-0.2534 1.91667,0.079 0.33229,0.3323 -0.25834,0.5687 -1.3125,0.5253 -1.16495,-0.048 -1.4019,-0.285 -0.60417,-0.6042 z M 712.5,1257.4775 c -63.69566,-5.8501 -120.99519,-21.6749 -177,-48.8831 -23.01618,-11.1817 -36.09775,-18.6152 -56.5,-32.1058 C 421.80325,1138.6684 375.3316,1092.1968 337.51137,1035 324.02079,1014.5977 316.58726,1001.5162 305.40556,978.5 248.52787,861.42415 239.4053,728.73467 279.82145,606.37441 300.7723,542.94553 332.56252,486.70577 376.49417,435.35168 404.95432,402.08308 440.31713,371.08966 479,345.51137 c 20.40225,-13.49058 33.48382,-20.92411 56.5,-32.10581 117.07585,-56.87769 249.76533,-66.00026 372.12559,-25.58411 63.42888,20.95085 119.66861,52.74107 171.02271,96.67272 40.368,34.53345 79.2126,81.62984 106.4025,129.00583 26.5342,46.23346 47.8063,104.09186 57.4367,156.22268 6.0088,32.52683 6.5125,39.58669 6.5125,91.27732 0,51.69063 -0.5037,58.75049 -6.5125,91.27732 -9.6304,52.13082 -30.9025,109.98922 -57.4367,156.22268 -38.5415,67.1552 -92.8437,124.8717 -158.0508,167.9886 -20.4023,13.4906 -33.48382,20.9241 -56.5,32.1058 -56.69121,27.5417 -113.86829,43.2385 -178.15875,48.9099 -20.32231,1.7927 -60.17563,1.7793 -79.84125,-0.027 z m 76.84125,-9.9732 c 73.3912,-6.4742 144.57229,-28.2486 204.15875,-62.4524 85.574,-49.1212 155.8012,-124.1215 198.0885,-211.5519 23.1866,-47.9392 38.1421,-98.26488 45.4278,-152.86637 C 1238.7436,807.68852 1239,799.98171 1239,761 c 0,-38.98171 -0.2564,-46.68852 -1.9837,-59.63363 C 1229.7306,646.76488 1214.7751,596.4392 1191.5885,548.5 1144.3989,450.93388 1063.0661,369.60108 965.5,322.41152 877.51565,279.85635 779.61511,264.32336 685.78415,278.03153 545.09696,298.58514 423.8344,375.54954 345.51137,494 321.48385,530.33761 303.88421,566.79928 289.82145,609.37441 253.68775,718.76952 257.33604,832.81725 300.46186,942 c 43.71126,110.6649 131.87285,205.2724 240.03814,257.5885 77.40844,37.4399 168.58189,54.9959 248.84125,47.9158 z M 718.5,1237.4775 c -61.78296,-5.6745 -120.2224,-21.5161 -173,-46.8966 -55.7877,-26.8279 -112.31333,-70.3981 -153,-117.9328 C 356.20394,1030.2429 329.08377,986.0571 310.47009,939 291.86516,891.96504 281.04249,845.88344 276.49569,794.34125 269.81537,718.61366 287.38615,628.429 323.41905,553.5 345.1207,508.37228 378.95603,461.04445 416.00024,424.00024 453.04445,386.95603 500.37228,353.1207 545.5,331.41905 c 74.929,-36.0329 165.11366,-53.60368 240.84125,-46.92336 51.54219,4.5468 97.62379,15.36947 144.65875,33.9744 47.0571,18.61368 91.2429,45.73385 133.6481,82.02991 47.5347,40.68667 91.1049,97.2123 117.9328,153 22.2994,46.37068 37.2778,97.22497 44.4354,150.86637 C 1228.7256,717.1764 1229,725.01006 1229,761 c 0,35.98994 -0.2744,43.8236 -1.9837,56.63363 -7.1576,53.6414 -22.136,104.49569 -44.4354,150.86637 -26.8279,55.7877 -70.3981,112.3133 -117.9328,153 -50.808,43.4883 -101.71235,72.4275 -163.02251,92.6785 -59.74199,19.7331 -127.74642,28.3852 -183.12559,23.299 z m -16.35595,-146.5 c 23.6769,-2.3378 42.72444,-6.7051 57.85595,-13.2654 11.35371,-4.9224 15.54197,-7.4258 23.48978,-14.04 l 6.00206,-4.995 -4.99592,0.6571 c -13.33508,1.7541 -28.63002,2.4617 -35.24764,1.6308 -8.55712,-1.0745 -12.7336,-2.6962 -17.32433,-6.7269 l -3.4306,-3.0121 -7.09506,2.8155 c -13.15113,5.2187 -25.38055,6.0875 -32.66503,2.3206 l -2.95398,-1.5276 3.55731,-2.4172 c 1.95652,-1.3295 3.79304,-2.4173 4.08115,-2.4173 0.28812,0 6.4995,-3.6733 13.80306,-8.1628 7.30356,-4.4895 17.1042,-10.3776 21.7792,-13.0846 4.675,-2.707 10.58489,-6.3428 13.13309,-8.0796 4.43363,-3.0218 4.65539,-3.4037 5.15123,-8.872 0.90424,-9.9721 10.34396,-22.07389 20.96568,-26.87818 4.08452,-1.84746 3.34466,-2.92431 -2,-2.91095 -10.11161,0.0253 -25.60151,6.0926 -41.75,16.35332 -12.68836,8.06211 -20.5,13.72021 -20.5,14.84831 0,0.4326 -0.58706,0.7865 -1.30458,0.7865 -0.71752,0 -3.08002,1.6349 -5.25,3.6332 -6.79244,6.2549 -26.28285,22.6729 -32.24291,27.1603 -7.80091,5.8733 -22.34609,13.5706 -30.2222,15.9935 -17.51589,5.3884 -39.50891,6.9538 -51.99053,3.7005 -11.99118,-3.1254 -12.11369,-3.08 -6.34211,2.3516 2.83122,2.6644 7.33122,5.8766 10,7.138 13.34835,6.3095 17.41313,7.9944 23.90971,9.9109 3.88156,1.1451 9.05656,2.328 11.5,2.6288 2.44344,0.3008 7.81762,1.2166 11.94262,2.0351 16.31881,3.2383 48.36179,4.3788 68.14405,2.4256 z M 1064,1076.0667 c 1.925,-0.6202 5.4946,-1.3415 7.9325,-1.6028 5.2931,-0.5674 16.1028,-5.3302 25.0675,-11.0447 7.0334,-4.4833 17.1182,-14.5088 21.0432,-20.9192 6.9867,-11.4111 10.9217,-25.2782 10.9249,-38.5 0,-11.81947 -1.8089,-19.68036 -7.1033,-30.81899 -3.3123,-6.96847 -5.6294,-10.16455 -11.7455,-16.20118 -6.7586,-6.67065 -9.4267,-8.4351 -23.6193,-15.61931 -16.7156,-8.46136 -42.8472,-20.13087 -48,-21.43517 -4.5249,-1.14537 -23.388,-7.83397 -28.5,-10.1057 -8.324,-3.69914 -9.326,-4.30661 -13.72182,-8.31965 -5.54062,-5.05811 -7.88163,-12.70299 -6.73682,-22 0.40635,-3.3 0.87664,-7.39715 1.04509,-9.10479 0.16844,-1.70763 2.1304,-10.17179 4.3599,-18.80923 C 998.01269,839.70651 999,833.96259 999,828.00282 999,812.58763 993.98065,798.74284 983.86632,786.25987 980.63984,782.2778 978,778.82863 978,778.59504 c 0,-0.23359 2.3625,-2.13476 5.25,-4.22482 5.51114,-3.98914 18.75,-16.23569 18.75,-17.3446 0,-0.35544 -3.7125,0.58396 -8.25,2.08755 -11.53486,3.82231 -31.45133,7.0903 -33.89823,5.56219 C 958.8333,764.03931 958,763.25883 958,762.94096 c 0,-0.31787 3.67511,-3.47213 8.1669,-7.00945 8.04867,-6.3384 21.58462,-20.84199 24.40812,-26.15297 l 1.44683,-2.72147 -7.76093,3.86269 c -10.39582,5.1741 -28.0793,11.11296 -35.08147,11.78183 l -5.67945,0.54253 5.06439,-5.37206 c 8.02436,-8.51186 13.82274,-17.7209 17.23453,-27.37206 1.59366,-4.5081 3.10123,-24.24085 2.33019,-30.5 l -0.67753,-5.5 -0.71247,4.09275 c -1.58465,9.10309 -10.32912,24.68153 -19.23911,34.27485 -11.41387,12.28923 -25.12295,20.51921 -42.58363,25.56426 -5.49161,1.58674 -5.6564,1.57363 -10,-0.79519 -5.69424,-3.10542 -16.5239,-6.6186 -22.07007,-7.15961 -22.08554,-2.15437 -37.91409,-1.77947 -93.3463,2.2109 -12.1,0.87104 -35.5,1.63508 -52,1.69787 -40.46395,0.15399 -51.10351,-1.78687 -67.26008,-12.26954 C 655.0194,718.72912 651,713.74343 651,710.65502 c 0,-2.57023 4.43391,-4.7852 12.32047,-6.15473 11.03271,-1.91587 21.29366,-6.68792 26.75868,-12.44463 5.59342,-5.89195 9.92978,-17.61143 9.90554,-26.77075 -0.0249,-9.40417 -2.23108,-10.64259 -5.95513,-3.34285 -2.40263,4.70955 -6.59679,8.30589 -14.1092,12.09814 -6.98362,3.52532 -12.98953,4.98511 -17.4991,4.25331 -4.18191,-0.67863 -11.23149,-6.59509 -13.05322,-10.9551 -1.24191,-2.9723 -1.14435,-3.87705 1.031,-9.56069 1.32149,-3.45275 4.01096,-9.76522 5.97659,-14.02772 1.96563,-4.2625 3.3832,-7.75 3.15015,-7.75 -0.43454,0 1.29016,-4.41946 4.48787,-11.5 7.26315,-16.08242 12.19416,-35.62388 12.23829,-48.5 0.0293,-8.5465 -0.27488,-10.15633 -3.03063,-16.03921 -1.95522,-4.17393 -4.89612,-8.2537 -8.13061,-11.27918 l -5.06741,-4.73997 2.51447,-0.956 c 1.38296,-0.5258 3.72777,-1.17601 5.21069,-1.44492 3.51284,-0.63699 13.32967,-4.52858 15.25155,-6.04602 0.825,-0.65138 4.12841,-2.6606 7.34092,-4.46492 7.89845,-4.43622 17.63712,-12.85358 23.12953,-19.99138 2.49125,-3.23757 4.52955,-6.10244 4.52955,-6.36638 0,-0.26394 1.60475,-3.31898 3.56611,-6.78899 4.90854,-8.68409 8.43389,-21.34307 8.43389,-30.2848 0,-7.92874 -2.29099,-18.29002 -4.5466,-20.56252 -1.27271,-1.28224 -1.4534,-0.86544 -1.4534,3.3525 0,5.35311 -4.8871,21.05779 -8.27218,26.58263 -9.83138,16.04594 -26.71719,30.93525 -39.1982,34.56357 -5.23599,1.52215 -5.77651,1.50998 -9.29445,-0.20914 -6.70755,-3.27779 -9.45724,-14.00206 -6.16924,-24.06107 3.13156,-9.58037 16.2811,-23.82698 26.42542,-28.63009 2.92554,-1.38518 5.65141,-3.05608 6.05747,-3.71311 1.23744,-2.00222 -14.15456,-0.55223 -21.81096,2.05468 -5.62737,1.91606 -7.9894,3.49573 -14.07544,9.41338 C 653.6401,470.30007 647.5029,477.325 644.02419,482 c -8.369,11.24702 -11.73749,14.76997 -16.43743,17.19123 -4.90676,2.5278 -9.57634,2.70085 -12.96508,0.48046 -3.70697,-2.42891 -3.28267,-5.35257 1.42699,-9.83277 l 4.04867,-3.85141 -2.79867,-1.13538 c -9.60323,-3.8959 -22.17777,-1.48098 -35.96069,6.9062 -18.19124,11.06972 -19.58246,11.45225 -46.68061,12.83554 l -13.84263,0.70663 -2.42436,-2.90025 c -1.3334,-1.59514 -3.12449,-4.17877 -3.98019,-5.74142 -1.47949,-2.70174 -1.42291,-3.03297 1.15299,-6.75 1.48985,-2.14985 3.01161,-3.90883 3.38169,-3.90883 0.37008,0 1.54638,-0.70633 2.614,-1.56963 1.80902,-1.4628 1.58848,-1.53462 -3.24048,-1.05521 -12.37545,1.22859 -23.20881,12.1966 -23.3348,23.62484 -0.0201,1.82637 -1.21705,3.29835 -4.44203,5.46283 -7.65771,5.13958 -8.71668,11.53442 -3.12348,18.8619 2.96904,3.88965 3.34619,5.0139 2.87086,8.55773 -0.90262,6.72957 2.7198,12.11754 8.14682,12.11754 0.75401,0 1.64395,1.61134 2.03182,3.67887 C 501.27174,559.96543 506.77811,566 509.8853,566 h 2.0853 l -1.98156,-3.25 c -2.89729,-4.7519 -2.60261,-10.05465 0.76096,-13.69353 3.46566,-3.74932 17.43903,-10.94916 28.37694,-14.62135 6.99937,-2.3499 10.01367,-2.80632 18.37306,-2.782 11.88174,0.0346 15.52642,0.95537 28.20341,7.12531 9.25202,4.503 15.8691,9.62096 19.54,15.11317 2.30198,3.44409 2.21542,4.40966 -0.70656,7.88223 -2.68775,3.19422 -8.32582,5.0598 -29.53685,9.77347 -12.13703,2.69718 -19.61039,4.6531 -26.96762,7.05793 -4.10709,1.34247 -4.67198,1.31285 -7,-0.36714 -2.96797,-2.14179 -8.50143,-12.57338 -7.7325,-14.57719 0.29124,-0.75896 3.60541,-2.67539 7.36483,-4.25874 6.56423,-2.76466 7.46979,-2.87928 22.83529,-2.89049 11.99073,-0.009 17.94161,0.44385 23.74848,1.8062 8.13778,1.90921 11.16162,1.66177 12.18182,-0.99684 1.45851,-3.8008 -5.60701,-9.3701 -17.01021,-13.40807 -8.09451,-2.86633 -25.15432,-3.60906 -33.54175,-1.4603 -11.96801,3.06606 -19.28649,8.3654 -34.87834,25.25557 -6.10821,6.61684 -21.06822,16.04676 -30.7317,19.37149 -3.17257,1.09152 -5.88788,1.93051 -6.03403,1.86443 -0.14615,-0.0661 -3.3276,0.42702 -7.06988,1.09581 -3.74229,0.66878 -9.7792,1.02653 -13.41536,0.795 -7.30203,-0.46496 -7.60663,0.17672 -1.55049,3.26633 16.41528,8.37445 48.7871,-2.5126 68.30393,-22.97146 7.70356,-8.0754 7.98952,-8.08534 8.04358,-0.27959 0.0333,4.80423 0.64485,7.79299 2.20362,10.76902 l 2.15758,4.11925 -2.45363,2.30506 c -3.03979,2.85573 -3.27925,8.38797 -0.59502,13.74627 1.02223,2.04059 2.12003,6.02201 2.43956,8.84762 0.97255,8.60041 2.90851,11.92684 8.62818,14.82521 5.23063,2.65056 6.59047,2.22 3.06502,-0.97048 -1.10474,-0.99979 -2.51395,-3.50441 -3.13157,-5.56584 -0.98819,-3.29827 -0.86403,-4.11165 1.03462,-6.77806 1.18665,-1.6665 3.12308,-3.33645 4.30317,-3.711 1.18008,-0.37454 8.55299,-4.65938 16.38423,-9.52186 16.59107,-10.30151 24.4704,-12.97213 38.35211,-12.99907 11.46396,-0.0222 16.91243,-1.37113 23.97412,-5.93532 12.96262,-8.37814 16.14157,-24.0392 6.67928,-32.90535 -3.10946,-2.91356 -3.21387,-3.67858 -0.59551,-4.3633 1.44416,-0.37765 2.78617,0.48388 4.88085,3.13337 10.20799,12.91172 10.52863,22.17735 1.12357,32.46799 -6.25569,6.84472 -13.7477,10.3418 -22.74623,10.61735 -1.76555,0.0541 -2.25473,0.66101 -2.27196,2.8189 -0.0121,1.5125 -0.88885,4.65976 -1.94838,6.9939 l -1.92642,4.24391 2.69838,0.59591 c 6.21033,1.37148 10.03378,2.82345 15.83607,6.01379 7.88745,4.33685 9.42315,7.23533 2.04345,3.85679 -2.85517,-1.30714 -9.20196,-3.01886 -14.10398,-3.80383 l -8.91277,-1.42722 -9.7765,9.74238 c -9.01709,8.98562 -11.97816,13.46127 -10.49433,15.86215 0.32002,0.51779 2.72488,1.29192 5.34414,1.72027 7.19157,1.17611 7.361,1.21793 11.79369,2.91079 2.27065,0.86717 5.41389,2.91838 6.98498,4.55825 l 2.85654,2.98158 -3.93645,-1.9002 c -9.84664,-4.75317 -25.86583,-7.19956 -31.56039,-4.81979 -7.7619,3.24371 -21.37314,19.13476 -22.1129,25.81669 -0.24191,2.18507 0.18115,2.42611 5.23683,2.98367 10.29895,1.13581 20.98507,4.00405 23.73706,6.37121 l 2.67356,2.2997 -7.45531,-1.90907 c -4.10042,-1.04999 -12.14456,-2.36012 -17.87586,-2.91139 l -10.42055,-1.00231 -3.91741,3.78641 c -9.72259,9.39748 -19.28559,25.07549 -20.37331,33.40096 l -0.6029,4.61454 8.36736,-1.89569 c 10.89377,-2.46807 26.11088,-2.75984 30.86736,-0.59184 l 3.5,1.59529 -7.56634,0.0816 c -9.3158,0.10043 -16.66104,1.32266 -28.74681,4.78341 -10.40852,2.98046 -11.69585,4.13427 -15.83265,14.19062 -1.70555,4.1461 -2.3067,7.5622 -2.30661,13.10754 1.1e-4,6.74335 1.08957,14.47049 2.19624,15.57717 0.2303,0.23029 3.08215,-0.6458 6.33745,-1.94689 16.2734,-6.50417 26.52644,-9.00277 35.86872,-8.74097 5.91244,0.16568 3.24322,1.51414 -7.95,4.01624 -9.05404,2.02392 -19.81713,6.4213 -29.33833,11.9865 -4.43268,2.59093 -4.24949,2.19067 -3.05006,6.66418 2.36737,8.82957 9.79428,22.11536 16.12215,28.84044 l 6.26624,6.65958 4.5,-2.88675 c 17.77462,-11.4024 27.80647,-15.87181 37.5,-16.70707 l 5,-0.43083 -5,1.78308 c -7.90563,2.81926 -12.451,4.96862 -20.56598,9.72502 -8.26062,4.84176 -16.79604,11.93161 -15.69269,13.03496 0.38234,0.38234 2.81406,2.12634 5.40382,3.87555 3.51467,2.37392 5.61469,4.91098 8.28175,10.00527 1.96521,3.75369 4.0231,6.82734 4.5731,6.83034 0.55,0.003 1.25297,-1.55082 1.56215,-3.45294 0.30918,-1.90212 1.32168,-4.54278 2.25,-5.86814 2.06945,-2.95456 2.11031,-1.92871 0.17703,4.44419 -2.3474,7.73797 -1.87726,17.94484 1.41745,30.77349 3.96015,15.4197 3.96151,15.55905 0.20722,21.31758 -3.53546,5.42288 -3.46977,4.42704 -1.52665,23.14403 0.80927,7.79517 -0.38865,11.40904 -6.08282,18.35064 -2.47741,3.02013 -4.50438,6.5008 -4.50438,7.73482 0,2.36191 -2.95476,4.07355 -11.86352,6.87233 -4.18307,1.31416 -4.65865,1.239 -11.5,-1.81743 -4.62361,-2.06564 -8.721,-3.18519 -11.63648,-3.1795 -5.08479,0.01 -15.34014,2.73791 -18.79774,5.00031 -4.49903,2.94383 -8.32872,12.0169 -6.778,16.05802 0.51637,1.34565 1.00419,1.00668 2.46132,-1.71029 2.5013,-4.66394 6.07687,-7.08166 11.3525,-7.6763 4.30302,-0.48501 4.4883,-0.39471 5.06052,2.46639 0.92993,4.64961 4.94147,5.84094 14.2858,4.24254 8.4293,-1.44188 9.76467,-0.91566 9.24378,3.64262 -0.32631,2.85544 -0.36981,2.8726 -7.62463,3.00887 C 527.47606,955.7822 524,957.47041 524,961.07826 c 0,0.97256 -1.06392,3.04032 -2.36427,4.59501 -10.66403,12.74995 -12.69452,21.40269 -6.87836,29.31144 l 3.18593,4.3322 -0.58852,-4.9692 c -0.45815,-3.86835 -0.13416,-5.85983 1.46249,-8.98954 3.37319,-6.612 11.25948,-11.7614 17.63023,-11.51177 3.6623,0.14351 4.54896,-0.38784 10.52584,-6.30785 7.34186,-7.272 14.30969,-10.68409 16.77783,-8.21596 1.15838,1.15839 0.93685,1.64298 -1.44119,3.15255 -4.65116,2.95254 -8.30998,6.78834 -8.30998,8.71195 0,0.9971 0.95428,2.76719 2.12062,3.93353 l 2.12062,2.12062 -2.63327,8.62938 c -1.44829,4.74616 -2.62757,9.88923 -2.62062,11.42904 0.0117,2.58687 2.75436,9.32404 3.47791,8.54324 0.17479,-0.1886 1.02775,-3.1377 1.89548,-6.5535 2.43185,-9.57303 6.86895,-16.58362 13.12362,-20.73523 2.94501,-1.95479 5.7751,-3.55417 6.28908,-3.55417 0.51399,0 2.10528,-1.08503 3.53621,-2.41117 2.28431,-2.11703 2.48751,-2.80929 1.66572,-5.67472 -0.51479,-1.79496 -2.11141,-4.49044 -3.54804,-5.98996 -3.19313,-3.33291 -2.84802,-6.0522 0.93705,-7.38334 2.40373,-0.84534 3.11178,-0.671 4.56537,1.1241 1.17454,1.45051 2.48982,1.97754 4.14536,1.66106 3.28095,-0.62719 9.13822,3.44176 10.37156,7.20497 1.29828,3.96136 1.50642,4.15727 2.59239,2.4401 2.50546,-3.9617 0.22419,-12.04561 -4.43307,-15.70901 -1.33868,-1.053 -3.12485,-3.56807 -3.96926,-5.58904 C 591.4395,939.41429 587.40134,936 583.37898,936 c -3.20846,0 -3.30791,-0.11767 -2.74715,-3.25 0.91708,-5.12267 3.24951,-12.89866 4.23792,-14.12861 0.49563,-0.61677 1.45671,-4.49639 2.13572,-8.62139 2.31532,-14.06553 11.90065,-29.49717 20.67073,-33.27827 2.10309,-0.90672 7.56276,-3.05795 12.1326,-4.78052 9.81036,-3.69793 21.78083,-11.46645 24.92766,-16.17738 1.23006,-1.84144 2.70212,-5.80345 3.27125,-8.80447 1.10038,-5.80228 4.80727,-10.80978 6.99926,-9.45505 2.34951,1.45208 0.70343,11.83381 -2.7596,17.40466 -3.33741,5.36876 -3.0264,6.54378 1.45664,5.50328 10.84645,-2.51741 25.69443,-7.08667 32.51536,-10.00615 8.00726,-3.42725 28.43433,-15.09956 32.28063,-18.4456 1.9427,-1.69003 11.96367,-7.03682 13.00378,-6.9383 0.28455,0.027 2.84428,-0.64202 5.68829,-1.4866 6.96782,-2.06922 20.56253,-1.87751 29.30793,0.4133 3.85,1.00848 7.27107,1.67204 7.60239,1.47457 0.33131,-0.19748 0.88112,-3.34401 1.22181,-6.9923 1.71907,-18.4091 11.50782,-33.22477 25.39122,-38.43065 5.15647,-1.93352 7.30475,-2.12807 19.78458,-1.7917 12.43725,0.33523 14.70805,0.67592 20.34315,3.05206 5.74203,2.42124 10.55769,5.84241 16.90697,12.01116 5.59729,5.43816 9.52395,23.50366 7.49401,34.47796 -0.5341,2.8875 -0.75218,5.25 -0.48461,5.25 1.36447,0 13.59279,-9.55127 18.16737,-14.19013 C 888.42041,813.23916 896,799.56289 896,795.22134 v -2.38446 l 3.75,2.27217 c 21.8984,13.26853 31.51509,23.29019 39.23856,40.89095 1.91861,4.37225 2.40138,7.14036 2.35447,13.5 -0.0622,8.43051 -1.27781,13.731 -8.25639,36 -4.83812,15.4387 -5.30066,21.16812 -2.22616,27.57522 2.32078,4.83638 11.92645,12.85795 19.43769,16.23215 7.61981,3.42297 33.56556,11.63045 47.70183,15.08962 7.975,1.9515 19.9,5.35718 26.5,7.56819 6.6,2.211 12.7063,4.02334 13.5695,4.02741 0.8632,0.004 8.0561,3.21631 15.9843,7.1383 12.3014,6.08536 15.3836,8.10139 21.022,13.75 8.1773,8.19214 11.0218,14.807 10.9718,25.51461 -0.046,9.7738 -0.4496,11.7351 -3.6144,17.5498 -3.1027,5.7007 -7.0426,9.0714 -14.6977,12.5744 -11.0599,5.0609 -16.7932,5.9594 -37.7355,5.9138 -21.1214,-0.046 -34.36969,-1.4825 -73.52843,-7.9725 -11.64832,-1.9305 -23.38215,-3.6709 -26.07517,-3.8674 -2.69302,-0.1965 -12.3214,-1.5336 -21.3964,-2.9712 -44.32601,-7.0222 -68.50495,-9.0248 -100.6486,-8.3362 -35.29675,0.7561 -49.01005,3.2298 -67.38235,12.155 -14.62477,7.1047 -30.06608,15.2008 -36.46905,19.1214 -2.75,1.6838 -7.2106,4.1216 -9.91243,5.4173 -4.69992,2.2539 -4.80808,2.3959 -2.5,3.2828 4.00218,1.5379 15.8373,0.028 25.91243,-3.3053 5.225,-1.7288 10.175,-3.7399 11,-4.4692 0.825,-0.7292 6.9,-4.0107 13.5,-7.2921 9.51622,-4.7314 13.96633,-6.3228 21.5,-7.6885 14.13563,-2.5624 45.02583,-3.1243 62.24138,-1.132 21.87129,2.5311 53.56846,8.9301 79.56384,16.0623 5.11787,1.4042 10.74287,2.7923 12.5,3.0848 2.92382,0.4866 14.02418,3.6692 59.19478,16.9714 18.25806,5.3769 21.25523,6.1417 27.5,7.0181 2.475,0.3473 8.775,1.25 14,2.006 10.9912,1.5903 39.5517,1.3037 45,-0.4515 z M 538.67782,586.87951 c -1.6716,-0.97211 -1.55718,-1.25519 1.38469,-3.42563 2.98604,-2.20303 3.40416,-2.26392 6.07217,-0.88423 1.57593,0.81494 2.86532,1.83015 2.86532,2.25603 0,2.89988 -6.60684,4.21446 -10.32218,2.05383 z m 63.32808,-72.37323 c -2.67685,-2.84937 -10.42225,-5.99629 -17.2952,-7.02695 C 582.11982,507.0908 580,506.3641 580,505.86443 580,504.36431 589.20993,499 591.78549,499 c 2.85781,0 5.02439,2.37806 9.84109,10.80169 3.91478,6.8463 4.0578,8.62015 0.37932,4.70459 z m 238.76538,489.10012 c -0.57283,-1.8664 -0.74921,-4.55819 -0.39195,-5.98164 1.05681,-4.21064 6.39309,-9.48639 10.79383,-10.67139 3.47083,-0.93459 4.2994,-1.7503 6.36275,-6.26395 1.30475,-2.85418 3.75774,-6.51673 5.45109,-8.139 2.14997,-2.05972 3.71877,-5.15202 5.20005,-10.25 3.03797,-10.4555 4.22267,-9.34236 3.38388,3.1795 -0.6798,10.14836 -0.62695,10.55497 1.67035,12.85227 1.3048,1.3048 2.79679,2.55133 3.31554,2.77008 0.51875,0.21875 1.67697,1.74773 2.57382,3.39773 2.40683,4.42799 10.30348,9.50579 14.73237,9.47339 l 3.63699,-0.0266 -2.66811,-1.65532 C 888.74007,988.51204 885.97089,978.02911 890,974 c 2.87941,-2.87941 2.4902,-6.36657 -1.70944,-15.31585 -3.58517,-7.63987 -3.64577,-7.95125 -1.80887,-9.29442 1.273,-0.93084 4.73579,-1.38973 10.48693,-1.38973 9.39579,0 12.35987,-1.18835 13.41109,-5.37674 1.00402,-4.00033 9.01028,-5.80578 16.37689,-3.69307 3.67521,1.05404 4.14796,0.1984 1.3096,-2.37028 -2.92719,-2.64907 -8.93805,-4.46348 -15.0662,-4.54782 -3.17787,-0.0437 -6.31955,-0.69558 -7.44113,-1.54389 -2.97535,-2.25044 -6.41485,-1.76911 -11.72982,1.6415 -3.92228,2.51692 -5.49244,2.98843 -8.23706,2.47353 -6.63157,-1.24409 -6.75505,-3.12508 -1.18024,-17.98003 1.42354,-3.79324 2.58244,-8.51824 2.57535,-10.5 -0.0147,-4.10694 -3.36929,-15.5086 -5.53662,-18.81802 -1.68631,-2.57491 -1.86583,-3.65991 -0.46201,-2.7923 1.77459,1.09675 9.66873,-3.17511 12.24082,-6.62404 1.72578,-2.31411 2.68673,-5.16908 3.06928,-9.11884 0.30631,-3.1625 0.3167,-5.75 0.0231,-5.75 -0.29361,0 -1.38774,1.08557 -2.4314,2.41237 -2.9201,3.71231 -11.55208,7.59115 -16.83661,7.56567 -6.07015,-0.0293 -12.54417,-3.09191 -14.97078,-7.08216 -2.5225,-4.14791 -3.09668,-10.50607 -3.37709,-37.39588 -0.26047,-24.9772 -0.58037,-26.2083 -8.87327,-34.14799 -13.13614,-12.57665 -37.45452,-15.26299 -52.74318,-5.82629 -4.58504,2.83004 -6.39598,4.7585 -8.96842,9.55038 C 783.9097,805.92066 781,817.53486 781,826.49957 c 0,6.85844 0.16777,7.37376 3.75,11.51861 4.53641,5.24888 21.40436,21.94792 27.7598,27.48182 6.83762,5.95375 20.78317,14.9361 31.2402,20.12186 5.0875,2.52295 9.25,5.07573 9.25,5.67284 0,2.42224 6.76149,14.33197 10.57192,18.62145 3.32975,3.74837 3.94029,5.03952 3.34968,7.08385 -1.31083,4.53735 -0.98481,16.35521 0.53138,19.26179 1.35573,2.59901 1.29241,2.85893 -1.07439,4.40972 -4.36888,2.8626 -12.86298,2.2383 -20.10007,-1.47732 -7.51449,-3.85804 -10.61318,-4.01515 -13.69094,-0.69419 -1.27431,1.375 -2.94032,2.50231 -3.70225,2.50512 -2.79554,0.0103 -9.17102,4.78744 -11.98894,8.98323 -3.84704,5.72809 -4.19983,11.00842 -0.9583,14.34305 1.71713,1.76645 1.80245,1.69264 2.40593,-2.0813 0.72119,-4.51009 2.45986,-6.2824 8.4355,-8.59869 3.6965,-1.43285 4.58202,-1.47 6.5,-0.27268 1.22126,0.76239 5.53627,1.64235 9.58889,1.95546 8.10303,0.62606 9.63325,1.32187 6.67032,3.03309 -1.0787,0.623 -3.27909,2.3985 -4.88977,3.94557 -2.82766,2.71599 -2.90852,3.05118 -2.34817,9.73493 0.49696,5.92774 0.32295,7.10381 -1.21132,8.18715 -3.6093,2.54851 -4.96722,7.00601 -4.77382,15.67045 0.15382,6.89092 0.50581,8.49342 2.12548,9.67662 2.96065,2.1628 3.46818,1.7325 2.33015,-1.9756 z m -193.19754,-5.46381 c -2.00376,-3.87485 -2.01151,-9.39536 -0.0186,-13.24925 C 649.99802,980.16936 657.4068,976 663.35823,976 c 6.0173,0 13.01109,-4.03943 17.02695,-9.83432 2.29655,-3.31392 2.61482,-4.7639 2.61482,-11.91273 0,-7.27755 0.23537,-8.3044 2.22251,-9.69625 2.41268,-1.6899 9.17112,-1.94862 17.04752,-0.65258 5.34539,0.87956 9.72997,4.29089 9.72997,7.57019 0,2.85787 1.84737,4.52569 5.01291,4.52569 4.34351,0 11.01008,8.58963 11.31389,14.57755 0.0953,1.87742 0.45822,3.4155 0.80657,3.41797 1.42842,0.0101 1.74119,-5.18238 1.28959,-21.40939 -0.59088,-21.23186 -0.97949,-22.06699 -10.29463,-22.12326 -4.88437,-0.0295 -6.57947,-0.46956 -8.25227,-2.14237 C 709.70829,926.15274 707.56269,918 709.15995,918 c 0.49028,0 0.20485,-1.32765 -0.63427,-2.95034 -2.91,-5.62732 -1.61239,-11.74775 3.3186,-15.65285 3.41834,-2.70716 17.27416,-7.76773 28.21442,-10.30478 6.35058,-1.4727 11.76852,-1.95226 21,-1.85881 9.11455,0.0923 14.44677,-0.37067 19.9413,-1.73131 7.42268,-1.83812 7.46392,-1.86629 4,-2.73185 -7.03038,-1.75675 -16.77414,-5.89372 -20.72542,-8.79952 -5.47529,-4.02658 -7.79049,-8.97184 -7.7109,-16.47054 0.0545,-5.13614 0.8104,-7.51873 5.25,-16.54841 C 764.66616,835.14996 767,829.90648 767,829.29941 c 0,-3.33511 -15.0829,-4.35937 -25.35566,-1.72186 -11.19339,2.87387 -30.4235,13.91971 -37.01286,21.26031 -3.50188,3.90113 -1.01433,8.02745 10.41019,17.26832 l 4.45833,3.60618 -1.77591,3.73208 c -2.01145,4.22707 -11.09317,16.81466 -16.99491,23.55556 -4.59578,5.24924 -9.27346,14.05389 -10.25984,19.31176 -0.38056,2.02853 -0.98394,3.68824 -1.34085,3.68824 -0.35691,0 -1.76933,1.01664 -3.13871,2.2592 -3.57961,3.24809 -6.71524,5.06487 -13.25551,7.68022 -5.90247,2.36032 -7.52965,2.39757 -20.96468,0.48004 -4.93765,-0.70473 -9.76788,1.20026 -9.77106,3.85359 -8.1e-4,0.67482 -2.19741,3.3819 -4.88134,6.01572 -5.73002,5.62305 -11.27976,15.46287 -11.41515,20.23933 -0.12367,4.36269 2.01483,8.27413 5.5126,10.08289 3.07445,1.58986 3.49164,0.9069 1.25356,-2.05212 -3.32586,-4.39718 -0.38976,-12.53792 5.62957,-15.60875 4.60582,-2.34971 7.22546,-2.47051 8.9339,-0.41196 0.96419,1.16178 2.33684,1.37916 5.60964,0.88838 5.13039,-0.76935 9.35869,0.0946 9.35869,1.91218 0,0.71534 -3.375,3.47312 -7.5,6.12841 -6.83233,4.39801 -7.5,5.12032 -7.5,8.11388 0,1.93951 -1.27727,5.3408 -3.11694,8.3002 -5.61225,9.02823 -4.69765,19.05129 2.06235,22.60119 3.29298,1.7292 3.54514,1.3669 1.62833,-2.33981 z M 435.28984,842.88998 c 8.74559,-4.38305 13.72416,-11.99193 13.94334,-21.30995 0.0969,-4.11969 0.6004,-5.35303 3.09548,-7.58238 2.90231,-2.59321 2.97555,-2.8875 2.81807,-11.32256 -0.13941,-7.46741 0.11481,-8.93663 1.8458,-10.66762 3.30847,-3.30847 7.56954,-2.60821 12.12453,1.99253 2.54118,2.5667 4.86575,4 6.48732,4 3.66401,0 6.08129,1.52969 13.66436,8.647 3.72281,3.49415 7.58187,6.353 8.57569,6.353 0.99382,0 2.89788,1.16066 4.23126,2.57925 2.11925,2.2547 2.46828,3.70162 2.77377,11.49885 0.29995,7.65615 0.0521,9.42363 -1.75,12.47791 -2.63783,4.47077 -2.6232,4.7931 0.15054,3.31686 9.55972,-5.08788 13.40408,-11.52438 14.36723,-24.05465 l 0.66478,-8.64854 3.14345,-0.58972 c 4.16228,-0.78085 7.24194,-3.03611 9.12898,-6.68524 1.49338,-2.88787 1.43735,-3.11916 -1.74133,-7.18929 -1.80639,-2.31299 -3.88898,-4.83573 -4.62797,-5.6061 -0.739,-0.77037 -2.46224,-3.92037 -3.82943,-7 -2.38138,-5.3641 -3.14479,-8.22123 -5.77126,-21.59933 -1.46452,-7.45962 -3.42781,-8.10768 -10.33606,-3.41183 -26.29926,17.87678 -28.62113,19.01313 -40.19769,19.67319 -11.34754,0.64701 -14.66568,-0.4841 -19.31864,-6.58547 -3.5441,-4.64733 -6.71202,-13.62932 -6.74921,-19.13599 -0.009,-1.39694 1.18328,-6.17697 2.65048,-10.62227 2.96206,-8.97445 2.78127,-11.58302 -1.12447,-16.22473 -2.23419,-2.65519 -2.4026,-3.43833 -1.6294,-7.57708 1.95292,-10.45346 -4.46886,-25.24478 -12.12946,-27.93784 -2.28096,-0.80187 -2.21822,-0.45676 0.69821,3.84084 4.34663,6.40512 4.28398,16.96877 -0.12233,20.62569 -1.34628,1.11731 -2.05668,0.73419 -4.95097,-2.67001 -1.85854,-2.18598 -3.84009,-5.64175 -4.40346,-7.6795 -1.22115,-4.41703 -3.16421,-6.55429 -6.78489,-7.46302 -1.47047,-0.36907 -4.87231,-1.96745 -7.55966,-3.55197 -11.39483,-6.71863 -25.53416,-5.32132 -32.3451,3.1965 -2.14764,2.68586 -1.37452,3.07707 2.24608,1.13654 2.42603,-1.30027 5.56386,-1.89083 10.04661,-1.89083 5.98379,0 6.80212,0.26728 9.97212,3.25697 2.05121,1.93454 3.45607,4.22409 3.45998,5.63889 0.008,3.01194 2.14499,6.10037 8.67664,12.54163 3.6568,3.60621 5.38704,6.19791 5.8753,8.80059 1.0434,5.56181 -0.79555,6.65463 -4.80658,2.85637 -4.23555,-4.01085 -9.23604,-5.61182 -13.60997,-4.35739 -3.86839,1.10944 -6.34049,2.91051 -5.61224,4.08885 0.27925,0.45183 -1.02633,1.99159 -2.90128,3.42169 -4.58839,3.49973 -8.26228,9.26787 -8.79178,13.80341 -0.45085,3.86188 0.5556,5.15868 1.42461,1.83559 0.27201,-1.04015 3.10753,-3.56268 6.30117,-5.60563 4.40042,-2.81491 6.94685,-3.74941 10.51498,-3.85882 6.93552,-0.21266 8.3624,1.55623 10.40462,12.89848 1.02316,5.68248 2.56866,10.72481 3.89033,12.69251 2.20908,3.28887 2.8551,3.58227 16.12761,7.32456 4.45578,1.25634 7.09382,2.78366 10.25,5.93433 5.89704,5.88676 5.99427,9.72444 0.48153,19.00575 -2.64428,4.45194 -3.68101,7.48478 -4.01818,11.75473 -0.44459,5.63024 -0.37069,5.83145 3.41612,9.30176 3.57295,3.27432 3.86484,3.94669 3.79653,8.74527 -0.0861,6.05199 -3.85692,14.31884 -8.02771,17.59959 -2.5472,2.00362 -2.56953,2.09865 -0.49331,2.09865 1.19608,0 4.06927,-0.94951 6.38486,-2.11002 z M 765,725.45494 c 49.99438,-3.33528 68.92959,-4.44803 76,-4.46624 12.10044,-0.0312 11.71204,-1.67109 -0.61192,-2.58365 -14.56604,-1.07859 -41.63659,-1.08872 -83.38808,-0.0312 -36.68351,0.92914 -41.53941,0.54954 -44.35285,-3.46721 -1.86735,-2.66602 -1.16599,-4.99543 2.6943,-8.94843 6.12262,-6.26968 6.10982,-6.267 19.29798,-4.04495 16.745,2.82133 33.59497,5.00126 42.36057,5.48032 4.125,0.22544 16.275,1.33288 27,2.46098 10.725,1.1281 26.925,2.56488 36,3.19284 19.57303,1.3544 54.81705,0.7876 60.34377,-0.97046 2.11408,-0.67249 3.68908,-1.37638 3.5,-1.56419 -0.18907,-0.18781 -7.48507,-0.8088 -16.21332,-1.37998 -8.72825,-0.57118 -16.12821,-1.29717 -16.44435,-1.61332 -1.35206,-1.35205 2.17307,-13.42519 5.5533,-19.01943 1.99398,-3.3 4.04236,-6.28186 4.55196,-6.62635 0.5096,-0.3445 1.89002,-2.21685 3.06759,-4.16079 1.17758,-1.94394 6.56436,-10.15861 11.97064,-18.25482 l 9.82958,-14.72037 9.67042,0.66409 c 5.31872,0.36525 13.20501,1.12718 17.52507,1.69317 4.32006,0.566 8.02192,0.86182 8.22636,0.65739 0.81623,-0.81624 -19.79784,-6.87453 -31.06886,-9.13086 -11.77814,-2.35784 -12.0555,-2.47608 -15.85653,-6.75929 -8.17822,-9.21571 -10.24914,-17.45815 -9.34518,-37.19461 0.3317,-7.24216 1.03141,-14.74256 1.55489,-16.66756 0.52349,-1.925 1.22788,-5.1318 1.56532,-7.12622 0.56542,-3.3419 0.98423,-3.7184 5.34143,-4.80177 5.13668,-1.27718 15.24498,-4.19013 24.72791,-7.12594 9.2152,-2.85293 21.40743,-5.68601 27.50861,-6.39213 3.02974,-0.35064 6.17974,-1.10512 7,-1.67662 1.15726,-0.80629 0.93129,-0.92642 -1.00861,-0.53622 -1.375,0.27658 -9.25,1.01197 -17.5,1.63421 -9.00489,0.67917 -22.09632,2.57529 -32.75525,4.74418 -20.40558,4.15214 -19.74649,4.25046 -28.28555,-4.21949 -5.44841,-5.40431 -9.84214,-12.49471 -11.45554,-18.48641 -1.35649,-5.0376 -1.42733,-21.72648 -0.11295,-26.6077 1.03417,-3.84064 1.24679,-3.98568 11.84394,-8.07977 5.93497,-2.29291 12.13512,-4.4853 13.7781,-4.87197 1.64299,-0.38668 6.81225,-1.82159 11.48725,-3.18869 4.675,-1.36711 9.85,-2.84004 11.5,-3.27319 l 3,-0.78755 -2.69878,-0.10236 c -4.49075,-0.17033 -25.63507,2.84836 -34.74591,4.96053 -19.38392,4.49377 -16.98757,4.3951 -20.64511,0.85007 -11.12258,-10.78042 -15.9792,-34.67811 -10.43393,-51.34164 2.41338,-7.25223 1.98667,-6.85116 16.03481,-15.07132 7.05305,-4.12704 13.2641,-8.55815 12.73605,-9.0862 C 873.06571,416.7324 858.84105,422.48811 844.5,429.24805 802.68407,448.95881 765.18372,475.7015 738.27562,505 c -24.24964,26.40388 -46.51738,62.78591 -57.22697,93.5 -7.23698,20.75497 -9.10314,28.88456 -10.53553,45.89605 C 669.31413,658.63566 669.43438,671 670.77187,671 c 2.02342,0 7.54843,-4.92069 11.22813,-10 5.3512,-7.38659 9.64526,-10.25446 15.2384,-10.17727 8.28102,0.11428 12.24099,5.67593 12.23044,17.17727 -0.0141,15.3939 -5.71938,28.65423 -16.48714,38.31981 C 686.14939,712.45277 680.41495,715 673.44047,715 c -7.57177,0 -6.34112,1.28028 4.8434,5.03871 23.49676,7.89581 36.95143,8.73618 86.71613,5.41623 z m 68.89399,-20.95136 c -18.95976,-2.82799 -51.1289,-8.72642 -63.39399,-11.62373 -10.46251,-2.4715 -26.75852,-7.8584 -33.18779,-10.97076 -5.07849,-2.45845 -7.33541,-5.97128 -5.36319,-8.34766 3.30828,-3.98624 22.37239,-11.20037 35.58043,-13.46414 2.7338,-0.46856 11.72055,-2.23335 19.97055,-3.92177 20.93875,-4.28523 40.58679,-7.0945 57,-8.14982 41.34057,-2.65808 50.70801,-3.15103 51.16646,-2.69257 0.64469,0.64468 -11.75241,20.44915 -17.31876,27.66687 -6.77859,8.7896 -15.53774,24.97083 -16.10413,29.75 l -0.50367,4.25 -6.11995,-0.0843 c -3.36597,-0.0464 -13.14266,-1.13182 -21.72596,-2.41208 z M 739.37291,652.5294 c -0.31038,-0.80883 0.26624,-2.51972 1.28138,-3.80198 3.30729,-4.17756 14.85324,-14.09629 23.44268,-20.13879 4.62167,-3.25126 10.03629,-7.16638 12.0325,-8.70027 9.08931,-6.98423 44.84722,-25.70177 62.87053,-32.90969 3.025,-1.20976 7.87343,-3.27377 10.7743,-4.58668 2.90086,-1.31291 8.07586,-3.30374 11.5,-4.42406 3.42413,-1.12033 7.1257,-2.46214 8.2257,-2.98181 1.1,-0.51967 3.29684,-1.41556 4.88187,-1.99087 l 2.88186,-1.04602 -0.72192,4.27538 c -2.75955,16.34248 -3.22836,28.69415 -1.45353,38.29513 1.21876,6.59285 5.60035,15.99344 8.80238,18.88525 1.16014,1.04774 2.11001,2.17274 2.11084,2.5 8.2e-4,0.32725 -6.86168,0.44584 -15.25,0.26352 -24.12986,-0.52445 -54.40981,2.54094 -86.51562,8.75839 -8.10473,1.56953 -16.64758,3.13324 -18.9841,3.47493 -2.33653,0.34168 -7.73653,1.7353 -12,3.09694 -8.86565,2.83144 -13.06809,3.14351 -13.87887,1.03063 z M 714.24653,641.84653 C 713.56094,641.16094 713,639.78001 713,638.7778 c 0,-4.14825 14.60983,-29.20205 22.32125,-38.2778 1.40197,-1.65 5.34507,-6.375 8.76246,-10.5 8.51758,-10.28126 28.35013,-29.66085 37.96951,-37.10233 4.37073,-3.38116 7.94678,-6.46275 7.94678,-6.84797 0,-0.86544 16.63664,-12.13271 25.91292,-17.5497 3.76737,-2.2 7.6005,-4.63613 8.51805,-5.41363 2.2434,-1.90096 25.6342,-14.00083 24.9615,-12.91238 -1.21896,1.97232 -0.46634,24.4395 0.95213,28.42325 3.5635,10.00799 8.65986,16.73026 16.73516,22.07424 3.77814,2.50026 4.33555,4.32852 1.31968,4.32852 -1.79805,0 -18.96913,5.96219 -25.89944,8.99288 -2.75,1.2026 -5.79787,2.34734 -6.77305,2.54386 -3.01442,0.60746 -28.7141,12.51877 -38.72695,17.94919 -5.225,2.83375 -10.29251,5.44647 -11.26114,5.80606 -0.96862,0.35958 -5.57705,3.14099 -10.24096,6.1809 C 770.834,609.5128 766.75531,612 766.43414,612 c -0.32116,0 -3.76503,2.1375 -7.65304,4.75 -3.88802,2.6125 -8.4956,5.65 -10.23908,6.75 -1.74348,1.1 -6.06617,4.05935 -9.60599,6.57633 -14.85307,10.56125 -22.3327,14.127 -24.6895,11.7702 z m -22.79867,-17.28576 c -1.48274,-2.26295 -1.44254,-2.9676 0.5562,-9.75 1.18495,-4.02093 2.59024,-9.11077 3.12287,-11.31077 1.1524,-4.75993 9.75614,-25.72443 13.74826,-33.5 9.57915,-18.65763 15.36098,-27.70522 30.05901,-47.03723 8.93945,-11.75786 37.35425,-39.7993 50.5658,-49.90137 6.05,-4.62607 11.45,-8.92507 12,-9.55333 C 803.40034,461.33732 830.10902,444 831.5528,444 c 0.28466,0 0.0131,0.94255 -0.6034,2.09455 -1.67735,3.13415 -2.33698,19.56356 -1.05869,26.36847 1.566,8.33649 6.15847,17.60615 11.6101,23.43439 l 4.63085,4.95076 -4.81583,2.15769 c -2.64871,1.18673 -5.63849,2.32683 -6.64397,2.53355 -1.00547,0.20672 -4.60547,1.91406 -8,3.7941 -3.39452,1.88004 -9.92022,5.38658 -14.50156,7.7923 -4.58133,2.40572 -9.09221,5.04907 -10.02417,5.87411 -0.93196,0.82504 -6.18359,4.50598 -11.6703,8.17987 -29.85745,19.99245 -68.42223,58.0476 -86.46281,85.32021 -4.20176,6.35194 -8.02471,10.5 -9.67706,10.5 -0.70942,0 -2.00907,-1.09766 -2.8881,-2.43923 z M 412.87244,1158.25 c -1.24387,-1.5861 -1.2085,-1.6214 0.37756,-0.3776 0.9625,0.7549 1.75,1.5424 1.75,1.75 0,0.8231 -0.82119,0.2933 -2.12756,-1.3724 z M 1091,1159.6224 c 0,-0.2076 0.7875,-0.9951 1.75,-1.75 1.5861,-1.2438 1.6214,-1.2085 0.3776,0.3776 -1.3064,1.6657 -2.1276,2.1955 -2.1276,1.3724 z M 405.40499,1151.75 403.5,1149.5 l 2.25,1.905 c 1.2375,1.0477 2.25,2.0602 2.25,2.25 0,0.8002 -0.80479,0.2094 -2.59501,-1.905 z M 1099.5,1152 c 0.9955,-1.1 2.035,-2 2.31,-2 0.275,0 -0.3145,0.9 -1.31,2 -0.9955,1.1 -2.035,2 -2.31,2 -0.275,0 0.3145,-0.9 1.31,-2 z M 393,1140.5 c -2.42903,-2.475 -4.19142,-4.5 -3.91642,-4.5 0.275,0 2.48739,2.025 4.91642,4.5 2.42903,2.475 4.19142,4.5 3.91642,4.5 -0.275,0 -2.48739,-2.025 -4.91642,-4.5 z m 718.9582,0.25 c 4.144,-4.4152 5.0418,-5.2091 5.0418,-4.4582 0,0.1605 -2.1375,2.298 -4.75,4.75 l -4.75,4.4582 z M 373,1120.5 c -2.42903,-2.475 -4.19142,-4.5 -3.91642,-4.5 0.275,0 2.48739,2.025 4.91642,4.5 2.42903,2.475 4.19142,4.5 3.91642,4.5 -0.275,0 -2.48739,-2.025 -4.91642,-4.5 z m 758.9582,0.25 c 4.144,-4.4152 5.0418,-5.2091 5.0418,-4.4582 0,0.1605 -2.1375,2.298 -4.75,4.75 l -4.75,4.4582 z m -770.55321,-13 -1.90499,-2.25 2.25,1.905 c 1.2375,1.0477 2.25,2.0602 2.25,2.25 0,0.8002 -0.80479,0.2094 -2.59501,-1.905 z M 1143.5,1108 c 0.9955,-1.1 2.035,-2 2.31,-2 0.275,0 -0.3145,0.9 -1.31,2 -0.9955,1.1 -2.035,2 -2.31,2 -0.275,0 0.3145,-0.9 1.31,-2 z m -788.62756,-7.75 c -1.24387,-1.5861 -1.2085,-1.6214 0.37756,-0.3776 1.66575,1.3064 2.19548,2.1276 1.37244,2.1276 -0.20765,0 -0.99515,-0.7875 -1.75,-1.75 z M 1149,1101.6224 c 0,-0.2076 0.7875,-0.9951 1.75,-1.75 1.5861,-1.2438 1.6214,-1.2085 0.3776,0.3776 -1.3064,1.6657 -2.1276,2.1955 -2.1276,1.3724 z M 234.07895,827.41667 c 0.048,-1.16495 0.28494,-1.4019 0.60416,-0.60417 0.28887,0.72187 0.25335,1.58438 -0.0789,1.91667 -0.3323,0.33229 -0.56864,-0.25834 -0.52522,-1.3125 z m 1036.99995,0 c 0.048,-1.16495 0.285,-1.4019 0.6042,-0.60417 0.2889,0.72187 0.2534,1.58438 -0.079,1.91667 -0.3323,0.33229 -0.5687,-0.25834 -0.5253,-1.3125 z m -1037.99995,-8 c 0.048,-1.16495 0.28494,-1.4019 0.60416,-0.60417 0.28887,0.72187 0.25335,1.58438 -0.0789,1.91667 -0.3323,0.33229 -0.56864,-0.25834 -0.52522,-1.3125 z m 1038.99995,0 c 0.048,-1.16495 0.285,-1.4019 0.6042,-0.60417 0.2889,0.72187 0.2534,1.58438 -0.079,1.91667 -0.3323,0.33229 -0.5687,-0.25834 -0.5253,-1.3125 z m -1039.99995,-10 c 0.048,-1.16495 0.28494,-1.4019 0.60416,-0.60417 0.28887,0.72187 0.25335,1.58438 -0.0789,1.91667 -0.3323,0.33229 -0.56864,-0.25834 -0.52522,-1.3125 z m 1040.99995,0 c 0.048,-1.16495 0.285,-1.4019 0.6042,-0.60417 0.2889,0.72187 0.2534,1.58438 -0.079,1.91667 -0.3323,0.33229 -0.5687,-0.25834 -0.5253,-1.3125 z M 231.19495,797.5 c 0.0204,-1.65 0.2445,-2.20394 0.49804,-1.23097 0.25354,0.97297 0.23687,2.32297 -0.0371,3 -0.27393,0.67703 -0.48137,-0.11903 -0.46099,-1.76903 z M 230.29966,777 c 0,-3.025 0.18747,-4.2625 0.41659,-2.75 0.22913,1.5125 0.22913,3.9875 0,5.5 -0.22912,1.5125 -0.41659,0.275 -0.41659,-2.75 z m 0,-32 c 0,-3.025 0.18747,-4.2625 0.41659,-2.75 0.22913,1.5125 0.22913,3.9875 0,5.5 -0.22912,1.5125 -0.41659,0.275 -0.41659,-2.75 z m 0.89529,-20.5 c 0.0204,-1.65 0.2445,-2.20394 0.49804,-1.23097 0.25354,0.97297 0.23687,2.32297 -0.0371,3 -0.27393,0.67703 -0.48137,-0.11903 -0.46099,-1.76903 z m 0.884,-12.08333 c 0.048,-1.16495 0.28494,-1.4019 0.60416,-0.60417 0.28887,0.72187 0.25335,1.58438 -0.0789,1.91667 -0.3323,0.33229 -0.56864,-0.25834 -0.52522,-1.3125 z m 1040.99995,0 c 0.048,-1.16495 0.285,-1.4019 0.6042,-0.60417 0.2889,0.72187 0.2534,1.58438 -0.079,1.91667 -0.3323,0.33229 -0.5687,-0.25834 -0.5253,-1.3125 z m -1039.99995,-10 c 0.048,-1.16495 0.28494,-1.4019 0.60416,-0.60417 0.28887,0.72187 0.25335,1.58438 -0.0789,1.91667 -0.3323,0.33229 -0.56864,-0.25834 -0.52522,-1.3125 z m 1038.99995,0 c 0.048,-1.16495 0.285,-1.4019 0.6042,-0.60417 0.2889,0.72187 0.2534,1.58438 -0.079,1.91667 -0.3323,0.33229 -0.5687,-0.25834 -0.5253,-1.3125 z m -1037.99995,-8 c 0.048,-1.16495 0.28494,-1.4019 0.60416,-0.60417 0.28887,0.72187 0.25335,1.58438 -0.0789,1.91667 -0.3323,0.33229 -0.56864,-0.25834 -0.52522,-1.3125 z m 1036.99995,0 c 0.048,-1.16495 0.285,-1.4019 0.6042,-0.60417 0.2889,0.72187 0.2534,1.58438 -0.079,1.91667 -0.3323,0.33229 -0.5687,-0.25834 -0.5253,-1.3125 z M 354,422.62244 c 0,-0.20765 0.7875,-0.99515 1.75,-1.75 1.58606,-1.24387 1.62143,-1.2085 0.37756,0.37756 C 354.82119,422.91575 354,423.44548 354,422.62244 Z M 1149.8724,421.25 c -1.2438,-1.58606 -1.2085,-1.62143 0.3776,-0.37756 1.6657,1.30637 2.1955,2.12756 1.3724,2.12756 -0.2076,0 -0.9951,-0.7875 -1.75,-1.75 z M 361.5,414 c 0.99549,-1.1 2.03498,-2 2.30998,-2 0.275,0 -0.31449,0.9 -1.30998,2 -0.99549,1.1 -2.03498,2 -2.30998,2 -0.275,0 0.31449,-0.9 1.30998,-2 z m 781.905,-0.25 -1.905,-2.25 2.25,1.90499 c 2.1144,1.79022 2.7052,2.59501 1.905,2.59501 -0.1898,0 -1.2023,-1.0125 -2.25,-2.25 z m -770.44679,-12 C 377.10217,397.33481 378,396.54091 378,397.29179 c 0,0.16049 -2.1375,2.29799 -4.75,4.75 L 368.5,406.5 Z M 1132,401.5 c -2.429,-2.475 -4.1914,-4.5 -3.9164,-4.5 0.275,0 2.4874,2.025 4.9164,4.5 2.429,2.475 4.1914,4.5 3.9164,4.5 -0.275,0 -2.4874,-2.025 -4.9164,-4.5 z M 392.95821,381.75 C 397.10217,377.33481 398,376.54091 398,377.29179 c 0,0.16049 -2.1375,2.29799 -4.75,4.75 L 388.5,386.5 Z M 1112,381.5 c -2.429,-2.475 -4.1914,-4.5 -3.9164,-4.5 0.275,0 2.4874,2.025 4.9164,4.5 2.429,2.475 4.1914,4.5 3.9164,4.5 -0.275,0 -2.4874,-2.025 -4.9164,-4.5 z M 405.5,370 c 0.99549,-1.1 2.03498,-2 2.30998,-2 0.275,0 -0.31449,0.9 -1.30998,2 -0.99549,1.1 -2.03498,2 -2.30998,2 -0.275,0 0.31449,-0.9 1.30998,-2 z m 693.905,-0.25 -1.905,-2.25 2.25,1.90499 c 2.1144,1.79022 2.7052,2.59501 1.905,2.59501 -0.1898,0 -1.2023,-1.0125 -2.25,-2.25 z M 412,364.62244 c 0,-0.20765 0.7875,-0.99515 1.75,-1.75 1.58606,-1.24387 1.62143,-1.2085 0.37756,0.37756 C 412.82119,364.91575 412,365.44548 412,364.62244 Z M 1091.8724,363.25 c -1.2438,-1.58606 -1.2085,-1.62143 0.3776,-0.37756 1.6657,1.30637 2.1955,2.12756 1.3724,2.12756 -0.2076,0 -0.9951,-0.7875 -1.75,-1.75 z M 685.8125,242.31689 c 0.72187,-0.28887 1.58438,-0.25335 1.91667,0.0789 0.33229,0.33229 -0.25834,0.56864 -1.3125,0.52522 -1.16495,-0.048 -1.4019,-0.28494 -0.60417,-0.60416 z m 133,0 c 0.72187,-0.28887 1.58438,-0.25335 1.91667,0.0789 0.33229,0.33229 -0.25834,0.56864 -1.3125,0.52522 -1.16495,-0.048 -1.4019,-0.28494 -0.60417,-0.60416 z m -125,-1 c 0.72187,-0.28887 1.58438,-0.25335 1.91667,0.0789 0.33229,0.33229 -0.25834,0.56864 -1.3125,0.52522 -1.16495,-0.048 -1.4019,-0.28494 -0.60417,-0.60416 z m 117,0 c 0.72187,-0.28887 1.58438,-0.25335 1.91667,0.0789 0.33229,0.33229 -0.25834,0.56864 -1.3125,0.52522 -1.16495,-0.048 -1.4019,-0.28494 -0.60417,-0.60416 z m -107,-1 c 0.72187,-0.28887 1.58438,-0.25335 1.91667,0.0789 0.33229,0.33229 -0.25834,0.56864 -1.3125,0.52522 -1.16495,-0.048 -1.4019,-0.28494 -0.60417,-0.60416 z m 97,0 c 0.72187,-0.28887 1.58438,-0.25335 1.91667,0.0789 0.33229,0.33229 -0.25834,0.56864 -1.3125,0.52522 -1.16495,-0.048 -1.4019,-0.28494 -0.60417,-0.60416 z m -85.54347,-1.00988 c 0.97297,-0.25354 2.32297,-0.23687 3,0.0371 0.67703,0.27393 -0.11903,0.48137 -1.76903,0.46099 -1.65,-0.0204 -2.20394,-0.2445 -1.23097,-0.49804 z m 73,0 c 0.97297,-0.25354 2.32297,-0.23687 3,0.0371 0.67703,0.27393 -0.11903,0.48137 -1.76903,0.46099 -1.65,-0.0204 -2.20394,-0.2445 -1.23097,-0.49804 z M 734.25,238.28375 c 1.5125,-0.22913 3.9875,-0.22913 5.5,0 1.5125,0.22912 0.275,0.41659 -2.75,0.41659 -3.025,0 -4.2625,-0.18747 -2.75,-0.41659 z m 32,0 c 1.5125,-0.22913 3.9875,-0.22913 5.5,0 1.5125,0.22912 0.275,0.41659 -2.75,0.41659 -3.025,0 -4.2625,-0.18747 -2.75,-0.41659 z"
         id="path18" />
      <path
         style="fill:#030302"
         d="m 735,1283.392 c -50.71416,-2.3168 -96.7173,-10.4117 -142.27044,-25.0345 C 433.29768,1207.1792 306.8208,1080.7023 255.64248,921.27044 238.62714,868.26387 230.71112,817.37598 230.71112,761 c 0,-56.37598 7.91602,-107.26387 24.93136,-160.27044 C 306.8208,441.29768 433.29768,314.8208 592.72956,263.64248 645.73613,246.62714 696.62402,238.71112 753,238.71112 c 37.47936,0 66.88687,2.84038 102,9.85187 174.96,34.93649 319.3878,155.85927 384.5154,321.93701 15.1373,38.60069 25.4831,78.41529 31.7017,122 2.145,15.03368 2.2829,19.17075 2.2829,68.5 0,58.53879 -0.4061,63.67722 -8.0616,102 -20.3508,101.875 -69.6426,194.0403 -143.0204,267.418 -88.1072,88.1073 -204.2865,141.709 -328.418,151.5226 -14.31725,1.1319 -47.90678,1.9582 -59,1.4514 z m 57.34125,-25.8877 c 64.29046,-5.6714 121.46754,-21.3682 178.15875,-48.9099 23.01618,-11.1817 36.0977,-18.6152 56.5,-32.1058 65.2071,-43.1169 119.5093,-100.8334 158.0508,-167.9886 26.5342,-46.23346 47.8063,-104.09186 57.4367,-156.22268 C 1248.4963,819.75049 1249,812.69063 1249,761 c 0,-51.69063 -0.5037,-58.75049 -6.5125,-91.27732 -9.6304,-52.13082 -30.9025,-109.98922 -57.4367,-156.22268 -27.1899,-47.37599 -66.0345,-94.47238 -106.4025,-129.00583 -51.3541,-43.93165 -107.59383,-75.72187 -171.02271,-96.67272 -100.04996,-33.04695 -209.20122,-33.04695 -309.25118,0 -63.42888,20.95085 -119.66864,52.74107 -171.02273,96.67272 -33.2686,28.46015 -64.26202,63.82296 -89.84031,102.50583 -13.49058,20.40225 -20.92411,33.48382 -32.10581,56.5 -56.87769,117.07585 -66.00026,249.76533 -25.58411,372.12559 20.95085,63.42888 52.74107,119.66861 96.67272,171.02271 28.46015,33.2686 63.82296,64.262 102.50583,89.8403 20.40225,13.4906 33.48382,20.9241 56.5,32.1058 56.00481,27.2082 113.30434,43.033 177,48.8831 19.66562,1.8061 59.51894,1.8195 79.84125,0.027 z M 715.5,1247.4775 c -62.75235,-5.7635 -120.67654,-21.6145 -175,-47.889 C 442.93388,1152.3989 361.60108,1071.0661 314.41152,973.5 282.49536,907.51218 265.01004,832.29923 265.01004,761 c 0,-71.29923 17.48532,-146.51218 49.40148,-212.5 C 361.60108,450.93388 442.93388,369.60108 540.5,322.41152 606.48782,290.49536 681.70077,273.01004 753,273.01004 c 71.29923,0 146.51218,17.48532 212.5,49.40148 97.5661,47.18956 178.8989,128.52236 226.0885,226.08848 23.1866,47.9392 38.1421,98.26488 45.4278,152.86637 1.7273,12.94511 1.9837,20.65192 1.9837,59.63363 0,48.37481 -0.571,56.11473 -6.5125,88.27732 -9.4902,51.37204 -30.2197,108.29416 -55.4356,152.22268 -49.1212,85.574 -124.1215,155.8012 -211.5519,198.0885 -66.89626,32.3555 -142.24391,49.669 -214.5,49.2881 -11.825,-0.062 -27.8,-0.6919 -35.5,-1.3991 z m 70.84125,-9.9732 c 51.54219,-4.5468 97.62379,-15.3695 144.65875,-33.9744 47.0571,-18.6137 91.2429,-45.7338 133.6481,-82.0299 47.5347,-40.6867 91.1049,-97.2123 117.9328,-153 22.2994,-46.37068 37.2778,-97.22497 44.4354,-150.86637 C 1228.7256,804.8236 1229,796.98994 1229,761 c 0,-35.98994 -0.2744,-43.8236 -1.9837,-56.63363 -7.1576,-53.6414 -22.136,-104.49569 -44.4354,-150.86637 -26.8279,-55.7877 -70.3981,-112.31333 -117.9328,-153 C 1022.2429,364.20394 978.0571,337.08377 931,318.47009 883.96504,299.86516 837.88344,289.04249 786.34125,284.49569 710.61366,277.81537 620.429,295.38615 545.5,331.41905 489.7123,358.24702 433.18667,401.81715 392.5,449.35192 356.20394,491.75709 329.08377,535.9429 310.47009,583 c -18.60493,47.03496 -29.4276,93.11656 -33.9744,144.65875 -6.68032,75.72759 10.89046,165.91225 46.92336,240.84125 21.70165,45.1277 55.53698,92.4556 92.58119,129.4998 37.04421,37.0442 84.37204,70.8795 129.49976,92.5811 74.79901,35.9704 165.24503,53.5921 240.84125,46.9234 z M 650.5,1090.885 c -4.95,-0.4646 -12.375,-1.5145 -16.5,-2.3331 -4.125,-0.8185 -9.49918,-1.7343 -11.94262,-2.0351 -2.44344,-0.3008 -7.61844,-1.4837 -11.5,-2.6288 -6.49658,-1.9165 -10.56136,-3.6014 -23.90971,-9.9109 -2.66878,-1.2614 -7.16878,-4.4736 -10,-7.138 -5.77158,-5.4316 -5.64907,-5.477 6.34211,-2.3516 12.48162,3.2533 34.47464,1.6879 51.99053,-3.7005 7.87611,-2.4229 22.42129,-10.1202 30.2222,-15.9935 5.96006,-4.4874 25.45047,-20.9054 32.24291,-27.1603 2.16998,-1.9983 4.53248,-3.6332 5.25,-3.6332 0.71752,0 1.30458,-0.3539 1.30458,-0.7865 0,-1.1281 7.81164,-6.7862 20.5,-14.84831 16.14849,-10.26072 31.63839,-16.32806 41.75,-16.35332 5.34466,-0.0134 6.08452,1.06349 2,2.91095 -10.62172,4.80429 -20.06144,16.90608 -20.96568,26.87818 -0.49584,5.4683 -0.7176,5.8502 -5.15123,8.872 -2.5482,1.7368 -8.45809,5.3726 -13.13309,8.0796 -4.675,2.707 -14.47564,8.5951 -21.7792,13.0846 -7.30356,4.4895 -13.51494,8.1628 -13.80306,8.1628 -0.28811,0 -2.12463,1.0878 -4.08115,2.4173 l -3.55731,2.4172 2.95398,1.5276 c 7.28448,3.7669 19.5139,2.8981 32.66503,-2.3206 l 7.09506,-2.8155 3.4306,3.0121 c 4.59073,4.0307 8.76721,5.6524 17.32433,6.7269 6.61762,0.8309 21.91256,0.1233 35.24764,-1.6308 l 4.99592,-0.6571 -6.00206,4.995 c -7.94781,6.6142 -12.13607,9.1176 -23.48978,14.04 -15.13151,6.5603 -34.17905,10.9276 -57.85595,13.2654 -11.97195,1.1821 -38.57199,1.1344 -51.64405,-0.092 z m 368.5,-14.3668 c -5.225,-0.756 -11.525,-1.6587 -14,-2.006 -6.24477,-0.8764 -9.24194,-1.6412 -27.5,-7.0181 -45.1706,-13.3022 -56.27096,-16.4848 -59.19478,-16.9714 -1.75713,-0.2925 -7.38213,-1.6806 -12.5,-3.0848 -25.99538,-7.1322 -57.69255,-13.5312 -79.56384,-16.0623 -17.21555,-1.9923 -48.10575,-1.4304 -62.24138,1.132 -7.53367,1.3657 -11.98378,2.9571 -21.5,7.6885 -6.6,3.2814 -12.675,6.5629 -13.5,7.2921 -0.825,0.7293 -5.775,2.7404 -11,4.4692 -10.07513,3.3335 -21.91025,4.8432 -25.91243,3.3053 -2.30808,-0.8869 -2.19992,-1.0289 2.5,-3.2828 2.70183,-1.2957 7.16243,-3.7335 9.91243,-5.4173 6.40297,-3.9206 21.84428,-12.0167 36.46905,-19.1214 18.3723,-8.9252 32.0856,-11.3989 67.38235,-12.155 32.14365,-0.6886 56.32259,1.314 100.6486,8.3362 9.075,1.4376 18.70338,2.7747 21.3964,2.9712 2.69302,0.1965 14.42685,1.9369 26.07517,3.8674 39.15874,6.49 52.40703,7.9265 73.52843,7.9725 20.9423,0.046 26.6756,-0.8529 37.7355,-5.9138 7.6551,-3.503 11.595,-6.8737 14.6977,-12.5744 3.1648,-5.8147 3.5688,-7.776 3.6144,-17.5498 0.05,-10.70761 -2.7945,-17.32247 -10.9718,-25.51461 -5.6384,-5.64861 -8.7206,-7.66464 -21.022,-13.75 -7.9282,-3.92199 -15.1211,-7.13422 -15.9843,-7.1383 -0.8632,-0.004 -6.9695,-1.81641 -13.5695,-4.02741 -6.6,-2.21101 -18.525,-5.61669 -26.5,-7.56819 -14.13627,-3.45917 -40.08202,-11.66665 -47.70183,-15.08962 -7.51124,-3.3742 -17.11691,-11.39577 -19.43769,-16.23215 -3.0745,-6.4071 -2.61196,-12.13652 2.22616,-27.57522 6.97858,-22.269 8.19422,-27.56949 8.25639,-36 0.0469,-6.35964 -0.43586,-9.12775 -2.35447,-13.5 C 931.26509,818.39924 921.6484,808.37758 899.75,795.10905 L 896,792.83688 v 2.38446 c 0,4.34155 -7.57959,18.01782 -13.07311,23.58853 C 878.35231,823.44873 866.12399,833 864.75952,833 c -0.26757,0 -0.0495,-2.3625 0.48461,-5.25 2.02994,-10.9743 -1.89672,-29.0398 -7.49401,-34.47796 -6.34928,-6.16875 -11.16494,-9.58992 -16.90697,-12.01116 -5.6351,-2.37614 -7.9059,-2.71683 -20.34315,-3.05206 -12.47983,-0.33637 -14.62811,-0.14182 -19.78458,1.7917 -13.8834,5.20588 -23.67215,20.02155 -25.39122,38.43065 -0.34069,3.64829 -0.8905,6.79482 -1.22181,6.9923 -0.33132,0.19747 -3.75239,-0.46609 -7.60239,-1.47457 -8.7454,-2.29081 -22.34011,-2.48252 -29.30793,-0.4133 -2.84401,0.84458 -5.40374,1.51355 -5.68829,1.4866 -1.04011,-0.0985 -11.06108,5.24827 -13.00378,6.9383 -3.8463,3.34604 -24.27337,15.01835 -32.28063,18.4456 -6.82093,2.91948 -21.66891,7.48874 -32.51536,10.00615 -4.48304,1.0405 -4.79405,-0.13452 -1.45664,-5.50328 3.46303,-5.57085 5.10911,-15.95258 2.7596,-17.40466 -2.19199,-1.35473 -5.89888,3.65277 -6.99926,9.45505 -0.56913,3.00102 -2.04119,6.96303 -3.27125,8.80447 -3.14683,4.71093 -15.1173,12.47945 -24.92766,16.17738 -4.56984,1.72257 -10.02951,3.8738 -12.1326,4.78052 -8.77008,3.7811 -18.35541,19.21274 -20.67073,33.27827 -0.67901,4.125 -1.64009,8.00462 -2.13572,8.62139 -0.98841,1.22995 -3.32084,9.00594 -4.23792,14.12861 -0.56076,3.13233 -0.46131,3.25 2.74715,3.25 4.02236,0 8.06052,3.41429 10.25775,8.67299 0.84441,2.02097 2.63058,4.53604 3.96926,5.58904 4.65726,3.6634 6.93853,11.74731 4.43307,15.70901 -1.08597,1.71717 -1.29411,1.52126 -2.59239,-2.4401 -1.23334,-3.76321 -7.09061,-7.83216 -10.37156,-7.20497 -1.65554,0.31648 -2.97082,-0.21055 -4.14536,-1.66106 -1.45359,-1.7951 -2.16164,-1.96944 -4.56537,-1.1241 -3.78507,1.33114 -4.13018,4.05043 -0.93705,7.38334 1.43663,1.49952 3.03325,4.195 3.54804,5.98996 0.82179,2.86543 0.61859,3.55769 -1.66572,5.67472 -1.43093,1.32614 -3.02222,2.41117 -3.53621,2.41117 -0.51398,0 -3.34407,1.59938 -6.28908,3.55417 -6.25467,4.15161 -10.69177,11.1622 -13.12362,20.73523 -0.86773,3.4158 -1.72069,6.3649 -1.89548,6.5535 -0.72355,0.7808 -3.46622,-5.95637 -3.47791,-8.54324 -0.007,-1.53981 1.17233,-6.68288 2.62062,-11.42904 l 2.63327,-8.62938 -2.12062,-2.12062 C 554.95428,973.95428 554,972.18419 554,971.18709 c 0,-1.92361 3.65882,-5.75941 8.30998,-8.71195 2.37804,-1.50957 2.59957,-1.99416 1.44119,-3.15255 -2.46814,-2.46813 -9.43597,0.94396 -16.77783,8.21596 -5.97688,5.92001 -6.86354,6.45136 -10.52584,6.30785 -6.37075,-0.24963 -14.25704,4.89977 -17.63023,11.51177 -1.59665,3.12971 -1.92064,5.12119 -1.46249,8.98954 l 0.58852,4.9692 -3.18593,-4.3322 c -4.69327,-6.38186 -4.495,-12.40876 0.67389,-20.48471 2.11211,-3.3 4.90413,-7.27203 6.20447,-8.82673 1.30035,-1.55469 2.36427,-3.62245 2.36427,-4.59501 0,-3.60785 3.47606,-5.29606 11.20355,-5.44121 7.25482,-0.13627 7.29832,-0.15343 7.62463,-3.00887 0.52089,-4.55828 -0.81448,-5.0845 -9.24378,-3.64262 -9.34433,1.5984 -13.35587,0.40707 -14.2858,-4.24254 -0.57222,-2.8611 -0.7575,-2.9514 -5.06052,-2.46639 -5.27563,0.59464 -8.8512,3.01236 -11.3525,7.6763 -1.45713,2.71697 -1.94495,3.05594 -2.46132,1.71029 -1.55072,-4.04112 2.27897,-13.11419 6.778,-16.05802 3.4576,-2.2624 13.71295,-4.99038 18.79774,-5.00031 2.91548,-0.006 7.01287,1.11386 11.63648,3.1795 6.84135,3.05643 7.31693,3.13159 11.5,1.81743 C 558.04524,932.80304 561,931.0914 561,928.72949 c 0,-1.23402 2.02697,-4.71469 4.50438,-7.73482 5.69417,-6.9416 6.89209,-10.55547 6.08282,-18.35064 -1.94312,-18.71699 -2.00881,-17.72115 1.52665,-23.14403 3.75429,-5.75853 3.75293,-5.89788 -0.20722,-21.31758 -3.29471,-12.82865 -3.76485,-23.03552 -1.41745,-30.77349 1.93328,-6.3729 1.89242,-7.39875 -0.17703,-4.44419 -0.92832,1.32536 -1.94082,3.96602 -2.25,5.86814 -0.30918,1.90212 -1.01215,3.45594 -1.56215,3.45294 -0.55,-0.003 -2.60789,-3.07665 -4.5731,-6.83034 -2.66706,-5.09429 -4.76708,-7.63135 -8.28175,-10.00527 -2.58976,-1.74921 -5.02148,-3.49321 -5.40382,-3.87555 -1.10335,-1.10335 7.43207,-8.1932 15.69269,-13.03496 8.11498,-4.7564 12.66035,-6.90576 20.56598,-9.72502 l 5,-1.78308 -5,0.43083 c -9.69353,0.83526 -19.72538,5.30467 -37.5,16.70707 l -4.5,2.88675 -6.26624,-6.65958 c -6.32787,-6.72508 -13.75478,-20.01087 -16.12215,-28.84044 -1.19943,-4.47351 -1.38262,-4.07325 3.05006,-6.66418 9.5212,-5.5652 20.28429,-9.96258 29.33833,-11.9865 11.19322,-2.5021 13.86244,-3.85056 7.95,-4.01624 -9.34228,-0.2618 -19.59532,2.2368 -35.86872,8.74097 -3.2553,1.30109 -6.10715,2.17718 -6.33745,1.94689 -1.10667,-1.10668 -2.19613,-8.83382 -2.19624,-15.57717 -9e-5,-5.54534 0.60106,-8.96144 2.30661,-13.10754 4.1368,-10.05635 5.42413,-11.21016 15.83265,-14.19062 12.08577,-3.46075 19.43101,-4.68298 28.74681,-4.78341 l 7.56634,-0.0816 -3.5,-1.59529 c -4.75648,-2.168 -19.97359,-1.87623 -30.86736,0.59184 l -8.36736,1.89569 0.6029,-4.61454 c 1.08772,-8.32547 10.65072,-24.00348 20.37331,-33.40096 l 3.91741,-3.78641 10.42055,1.00231 c 5.7313,0.55127 13.77544,1.8614 17.87586,2.91139 l 7.45531,1.90907 -2.67356,-2.2997 c -2.75199,-2.36716 -13.43811,-5.2354 -23.73706,-6.37121 -5.05568,-0.55756 -5.47874,-0.7986 -5.23683,-2.98367 0.73976,-6.68193 14.351,-22.57298 22.1129,-25.81669 5.69456,-2.37977 21.71375,0.0666 31.56039,4.81979 l 3.93645,1.9002 -2.85654,-2.98158 c -1.57109,-1.63987 -4.71433,-3.69108 -6.98498,-4.55825 -4.43269,-1.69286 -4.60212,-1.73468 -11.79369,-2.91079 -2.61926,-0.42835 -5.02412,-1.20248 -5.34414,-1.72027 -1.48383,-2.40088 1.47724,-6.87653 10.49433,-15.86215 l 9.7765,-9.74238 8.91277,1.42722 c 4.90202,0.78497 11.24881,2.49669 14.10398,3.80383 7.3797,3.37854 5.844,0.48006 -2.04345,-3.85679 -5.80229,-3.19034 -9.62574,-4.64231 -15.83607,-6.01379 l -2.69838,-0.59591 1.92642,-4.24391 c 1.05953,-2.33414 1.9363,-5.4814 1.94838,-6.9939 0.0172,-2.15789 0.50641,-2.76483 2.27196,-2.8189 8.99853,-0.27555 16.49054,-3.77263 22.74623,-10.61735 9.40506,-10.29064 9.08442,-19.55627 -1.12357,-32.46799 -2.09468,-2.64949 -3.43669,-3.51102 -4.88085,-3.13337 -2.61836,0.68472 -2.51395,1.44974 0.59551,4.3633 9.46229,8.86615 6.28334,24.52721 -6.67928,32.90535 -7.06169,4.56419 -12.51016,5.91308 -23.97412,5.93532 -13.88171,0.0269 -21.76104,2.69756 -38.35211,12.99907 -7.83124,4.86248 -15.20415,9.14732 -16.38423,9.52186 -1.18009,0.37455 -3.11652,2.0445 -4.30317,3.711 -1.89865,2.66641 -2.02281,3.47979 -1.03462,6.77806 0.61762,2.06143 2.02683,4.56605 3.13157,5.56584 3.52545,3.19048 2.16561,3.62104 -3.06502,0.97048 -5.71967,-2.89837 -7.65563,-6.2248 -8.62818,-14.82521 -0.31953,-2.82561 -1.41733,-6.80703 -2.43956,-8.84762 -2.68423,-5.3583 -2.44477,-10.89054 0.59502,-13.74627 l 2.45363,-2.30506 -2.15758,-4.11925 c -1.55877,-2.97603 -2.17035,-5.96479 -2.20362,-10.76902 -0.0541,-7.80575 -0.34002,-7.79581 -8.04358,0.27959 -19.51683,20.45886 -51.88865,31.34591 -68.30393,22.97146 -6.05614,-3.08961 -5.75154,-3.73129 1.55049,-3.26633 3.63616,0.23153 9.67307,-0.12622 13.41536,-0.795 3.74228,-0.66879 6.92373,-1.1619 7.06988,-1.09581 0.14615,0.0661 2.86146,-0.77291 6.03403,-1.86443 9.66348,-3.32473 24.62349,-12.75465 30.7317,-19.37149 15.59185,-16.89017 22.91033,-22.18951 34.87834,-25.25557 8.38743,-2.14876 25.44724,-1.40603 33.54175,1.4603 11.4032,4.03797 18.46872,9.60727 17.01021,13.40807 -1.0202,2.65861 -4.04404,2.90605 -12.18182,0.99684 -5.80687,-1.36235 -11.75775,-1.81495 -23.74848,-1.8062 -15.3655,0.0112 -16.27106,0.12583 -22.83529,2.89049 -3.75942,1.58335 -7.07359,3.49978 -7.36483,4.25874 -0.76893,2.00381 4.76453,12.4354 7.7325,14.57719 2.32802,1.67999 2.89291,1.70961 7,0.36714 7.35723,-2.40483 14.83059,-4.36075 26.96762,-7.05793 21.21103,-4.71367 26.8491,-6.57925 29.53685,-9.77347 2.92198,-3.47257 3.00854,-4.43814 0.70656,-7.88223 -3.6709,-5.49221 -10.28798,-10.61017 -19.54,-15.11317 -12.67699,-6.16994 -16.32167,-7.09074 -28.20341,-7.12531 -8.35939,-0.0243 -11.37369,0.4321 -18.37306,2.782 -10.93791,3.67219 -24.91128,10.87203 -28.37694,14.62135 -3.36357,3.63888 -3.65825,8.94163 -0.76096,13.69353 l 1.98156,3.25 h -2.0853 c -3.10719,0 -8.61356,-6.03457 -9.41772,-10.32113 C 500.07971,553.61134 499.18977,552 498.43576,552 c -5.42702,0 -9.04944,-5.38797 -8.14682,-12.11754 0.47533,-3.54383 0.0982,-4.66808 -2.87086,-8.55773 -5.5932,-7.32748 -4.53423,-13.72232 3.12348,-18.8619 3.22498,-2.16448 4.4219,-3.63646 4.44203,-5.46283 0.0566,-5.13128 2.29049,-10.34203 6.29737,-14.68898 5.11151,-5.54533 10.30089,-8.26708 17.03743,-8.93586 4.82896,-0.47941 5.0495,-0.40759 3.24048,1.05521 -1.06762,0.8633 -2.24392,1.56963 -2.614,1.56963 -0.37008,0 -1.89184,1.75898 -3.38169,3.90883 -2.5759,3.71703 -2.63248,4.04826 -1.15299,6.75 0.8557,1.56265 2.64679,4.14628 3.98019,5.74142 l 2.42436,2.90025 13.84263,-0.70663 c 27.09815,-1.38329 28.48937,-1.76582 46.68061,-12.83554 13.78292,-8.38718 26.35746,-10.8021 35.96069,-6.9062 l 2.79867,1.13538 -4.04867,3.85141 c -4.70966,4.4802 -5.13396,7.40386 -1.42699,9.83277 3.38874,2.22039 8.05832,2.04734 12.96508,-0.48046 4.69994,-2.42126 8.06843,-5.94421 16.43743,-17.19123 3.47871,-4.675 9.61591,-11.69993 13.63823,-15.61094 6.08604,-5.91765 8.44807,-7.49732 14.07544,-9.41338 7.6564,-2.60691 23.0484,-4.0569 21.81096,-2.05468 -0.40606,0.65703 -3.13193,2.32793 -6.05747,3.71311 -10.14432,4.80311 -23.29386,19.04972 -26.42542,28.63009 -3.288,10.05901 -0.53831,20.78328 6.16924,24.06107 3.51794,1.71912 4.05846,1.73129 9.29445,0.20914 12.48101,-3.62832 29.36682,-18.51763 39.1982,-34.56357 C 719.1129,471.446 724,455.74132 724,450.38821 c 0,-4.21794 0.18069,-4.63474 1.4534,-3.3525 2.25561,2.2725 4.5466,12.63378 4.5466,20.56252 0,8.94173 -3.52535,21.60071 -8.43389,30.2848 -1.96136,3.47001 -3.56611,6.52505 -3.56611,6.78899 0,0.26394 -2.0383,3.12881 -4.52955,6.36638 -5.49241,7.1378 -15.23108,15.55516 -23.12953,19.99138 -3.21251,1.80432 -6.51592,3.81354 -7.34092,4.46492 -1.92188,1.51744 -11.73871,5.40903 -15.25155,6.04602 -1.48292,0.26891 -3.82773,0.91912 -5.21069,1.44492 l -2.51447,0.956 5.06741,4.73997 c 3.23449,3.02548 6.17539,7.10525 8.13061,11.27918 2.75575,5.88288 3.05993,7.49271 3.03063,16.03921 -0.0441,12.87612 -4.97514,32.41758 -12.23829,48.5 -3.19771,7.08054 -4.92241,11.5 -4.48787,11.5 0.23305,0 -1.18452,3.4875 -3.15015,7.75 -1.96563,4.2625 -4.6551,10.57497 -5.97659,14.02772 -2.17535,5.68364 -2.27291,6.58839 -1.031,9.56069 1.82173,4.36001 8.87131,10.27647 13.05322,10.9551 4.50957,0.7318 10.51548,-0.72799 17.4991,-4.25331 7.51241,-3.79225 11.70657,-7.38859 14.1092,-12.09814 3.72405,-7.29974 5.93023,-6.06132 5.95513,3.34285 0.0242,9.15932 -4.31212,20.8788 -9.90554,26.77075 -5.46502,5.75671 -15.72597,10.52876 -26.75868,12.44463 -7.88656,1.36953 -12.32047,3.5845 -12.32047,6.15473 0,3.08841 4.0194,8.0741 9.23992,11.46127 16.15657,10.48267 26.79613,12.42353 67.26008,12.26954 16.5,-0.0628 39.9,-0.82683 52,-1.69787 55.43221,-3.99037 71.26076,-4.36527 93.3463,-2.2109 5.54617,0.54101 16.37583,4.05419 22.07007,7.15961 4.3436,2.36882 4.50839,2.38193 10,0.79519 17.46068,-5.04505 31.16976,-13.27503 42.58363,-25.56426 8.90999,-9.59332 17.65446,-25.17176 19.23911,-34.27485 l 0.71247,-4.09275 0.67753,5.5 c 0.77104,6.25915 -0.73653,25.9919 -2.33019,30.5 -3.41179,9.65116 -9.21017,18.8602 -17.23453,27.37206 l -5.06439,5.37206 5.67945,-0.54253 c 7.00217,-0.66887 24.68565,-6.60773 35.08147,-11.78183 l 7.76093,-3.86269 -1.44683,2.72147 c -2.8235,5.31098 -16.35945,19.81457 -24.40812,26.15297 -4.49179,3.53732 -8.1669,6.69158 -8.1669,7.00945 0,0.31787 0.8333,1.09835 1.85177,1.7344 2.4469,1.52811 22.36337,-1.73988 33.89823,-5.56219 4.5375,-1.50359 8.25,-2.44299 8.25,-2.08755 0,1.10891 -13.23886,13.35546 -18.75,17.3446 -2.8875,2.09006 -5.25,3.99123 -5.25,4.22482 0,0.23359 2.63984,3.68276 5.86632,7.66483 C 993.98065,798.74284 999,812.58763 999,828.00282 c 0,5.95977 -0.98731,11.70369 -4.05365,23.58316 -2.2295,8.63744 -4.19146,17.1016 -4.3599,18.80923 -0.16845,1.70764 -0.63874,5.80479 -1.04509,9.10479 -1.14481,9.29701 1.1962,16.94189 6.73682,22 4.39582,4.01304 5.39782,4.62051 13.72182,8.31965 5.112,2.27173 23.9751,8.96033 28.5,10.1057 5.1528,1.3043 31.2844,12.97381 48,21.43517 14.1926,7.18421 16.8607,8.94866 23.6193,15.61931 12.5178,12.35504 18.8534,28.15979 18.8488,47.02017 0,13.2218 -3.9382,27.0889 -10.9249,38.5 -3.925,6.4104 -14.0098,16.4359 -21.0432,20.9192 -8.9647,5.7145 -19.7744,10.4773 -25.0675,11.0447 -2.4379,0.2613 -6.0075,0.9826 -7.9325,1.6028 -5.4483,1.7552 -34.0088,2.0418 -45,0.4515 z M 547.8,586.8 c 1.80048,-1.80048 1.4853,-2.6011 -1.66532,-4.23035 -2.66801,-1.37969 -3.08613,-1.3188 -6.07217,0.88423 -2.94187,2.17044 -3.05629,2.45352 -1.38469,3.42563 2.47157,1.43732 7.65049,1.39218 9.12218,-0.0795 z m 53.82658,-76.99831 C 596.80988,501.37806 594.6433,499 591.78549,499 589.20993,499 580,504.36431 580,505.86443 c 0,0.49967 2.11982,1.22637 4.7107,1.6149 6.87295,1.03066 14.61835,4.17758 17.2952,7.02695 3.67848,3.91556 3.53546,2.14171 -0.37932,-4.70459 z M 838.44113,1005.582 c -1.61967,-1.1832 -1.97166,-2.7857 -2.12548,-9.67662 -0.1934,-8.66444 1.16452,-13.12194 4.77382,-15.67045 1.53427,-1.08334 1.70828,-2.25941 1.21132,-8.18715 -0.56035,-6.68375 -0.47949,-7.01894 2.34817,-9.73493 1.61068,-1.54707 3.81107,-3.32257 4.88977,-3.94557 2.96293,-1.71122 1.43271,-2.40703 -6.67032,-3.03309 -4.05262,-0.31311 -8.36763,-1.19307 -9.58889,-1.95546 -1.91798,-1.19732 -2.8035,-1.16017 -6.5,0.27268 -5.97564,2.31629 -7.71431,4.0886 -8.4355,8.59869 -0.60348,3.77394 -0.6888,3.84775 -2.40593,2.0813 -3.24153,-3.33463 -2.88874,-8.61496 0.9583,-14.34305 2.81792,-4.19579 9.1934,-8.97289 11.98894,-8.98323 0.76193,-0.003 2.42794,-1.13012 3.70225,-2.50512 3.07776,-3.32096 6.17645,-3.16385 13.69094,0.69419 7.23709,3.71562 15.73119,4.33992 20.10007,1.47732 2.3668,-1.55079 2.43012,-1.81071 1.07439,-4.40972 -1.51619,-2.90658 -1.84221,-14.72444 -0.53138,-19.26179 0.59061,-2.04433 -0.0199,-3.33548 -3.34968,-7.08385 C 859.76149,905.62667 853,893.71694 853,891.2947 c 0,-0.59711 -4.1625,-3.14989 -9.25,-5.67284 C 833.29297,880.4361 819.34742,871.45375 812.5098,865.5 806.15436,859.9661 789.28641,843.26706 784.75,838.01818 781.16777,833.87333 781,833.35801 781,826.49957 c 0,-8.96471 2.9097,-20.57891 7.12092,-28.42347 C 793.46066,788.12935 803.99635,783 819.08727,783 c 16.19426,0 30.8654,7.68361 37.23344,19.5 1.99709,3.70576 2.17253,5.61834 2.38508,26 0.28041,26.88981 0.85459,33.24797 3.37709,37.39588 2.42661,3.99025 8.90063,7.05288 14.97078,7.08216 5.28453,0.0255 13.91651,-3.85336 16.83661,-7.56567 1.04366,-1.3268 2.13779,-2.41237 2.4314,-2.41237 0.2936,0 0.28321,2.5875 -0.0231,5.75 -0.38255,3.94976 -1.3435,6.80473 -3.06928,9.11884 -2.57209,3.44893 -10.46623,7.72079 -12.24082,6.62404 -1.40382,-0.86761 -1.2243,0.21739 0.46201,2.7923 2.16733,3.30942 5.52191,14.71108 5.53662,18.81802 0.007,1.98176 -1.15181,6.70676 -2.57535,10.5 -5.57481,14.85495 -5.45133,16.73594 1.18024,17.98003 2.74462,0.5149 4.31478,0.0434 8.23706,-2.47353 5.31497,-3.41061 8.75447,-3.89194 11.72982,-1.6415 1.12158,0.84831 4.26326,1.50015 7.44113,1.54389 6.12815,0.0843 12.13901,1.89875 15.0662,4.54782 2.83836,2.56868 2.36561,3.42432 -1.3096,2.37028 -7.36661,-2.11271 -15.37287,-0.30726 -16.37689,3.69307 -1.05122,4.18839 -4.0153,5.37674 -13.41109,5.37674 -5.75114,0 -9.21393,0.45889 -10.48693,1.38973 -1.8369,1.34317 -1.7763,1.65455 1.80887,9.29442 4.19964,8.94928 4.58885,12.43644 1.70944,15.31585 -4.02911,4.02911 -1.25993,14.51204 4.83189,18.29146 l 2.66811,1.65532 -3.63699,0.0266 c -4.42889,0.0324 -12.32554,-5.0454 -14.73237,-9.47339 -0.89685,-1.65 -2.05507,-3.17898 -2.57382,-3.39773 -0.51875,-0.21875 -2.01074,-1.46528 -3.31554,-2.77008 -2.2973,-2.2973 -2.35015,-2.70391 -1.67035,-12.85227 0.83879,-12.52186 -0.34591,-13.635 -3.38388,-3.1795 -1.48128,5.09798 -3.05008,8.19028 -5.20005,10.25 -1.69335,1.62227 -4.14634,5.28482 -5.45109,8.139 -2.06335,4.51365 -2.89192,5.32936 -6.36275,6.26395 -4.40074,1.185 -9.73702,6.46075 -10.79383,10.67139 -0.35726,1.42345 -0.18088,4.11525 0.39195,5.98165 1.13803,3.7081 0.6305,4.1384 -2.33015,1.9756 z m -192.49572,-5.0996 c -6.76,-3.5499 -7.6746,-13.57296 -2.06235,-22.60119 1.83967,-2.9594 3.11694,-6.36069 3.11694,-8.3002 0,-2.99356 0.66767,-3.71587 7.5,-8.11388 4.125,-2.65529 7.5,-5.41307 7.5,-6.12841 0,-1.8176 -4.2283,-2.68153 -9.35869,-1.91218 -3.2728,0.49078 -4.64545,0.2734 -5.60964,-0.88838 -1.70844,-2.05855 -4.32808,-1.93775 -8.9339,0.41196 -6.01933,3.07083 -8.95543,11.21157 -5.62957,15.60875 2.23808,2.95902 1.82089,3.64198 -1.25356,2.05212 -3.49777,-1.80876 -5.63627,-5.7202 -5.5126,-10.08289 0.13539,-4.77646 5.68513,-14.61628 11.41515,-20.23933 2.68393,-2.63382 4.88053,-5.3409 4.88134,-6.01572 0.003,-2.65333 4.83341,-4.55832 9.77106,-3.85359 13.43503,1.91753 15.06221,1.88028 20.96468,-0.48004 6.54027,-2.61535 9.6759,-4.43213 13.25551,-7.68022 1.36938,-1.24256 2.7818,-2.2592 3.13871,-2.2592 0.35691,0 0.96029,-1.65971 1.34085,-3.68824 0.98638,-5.25787 5.66406,-14.06252 10.25984,-19.31176 5.90174,-6.7409 14.98346,-19.32849 16.99491,-23.55556 l 1.77591,-3.73208 -4.45833,-3.60618 c -11.42452,-9.24087 -13.91207,-13.36719 -10.41019,-17.26832 6.58936,-7.3406 25.81947,-18.38644 37.01286,-21.26031 C 751.9171,824.94004 767,825.9643 767,829.29941 c 0,0.60707 -2.33384,5.85055 -5.18632,11.65218 -4.4396,9.02968 -5.19549,11.41227 -5.25,16.54841 -0.0796,7.4987 2.23561,12.44396 7.7109,16.47054 3.95128,2.9058 13.69504,7.04277 20.72542,8.79952 3.46392,0.86556 3.42268,0.89373 -4,2.73185 -5.49453,1.36064 -10.82675,1.82359 -19.9413,1.73131 -9.23148,-0.0934 -14.64942,0.38611 -21,1.85881 -10.94026,2.53705 -24.79608,7.59762 -28.21442,10.30478 -4.93099,3.9051 -6.2286,10.02553 -3.3186,15.65285 0.83912,1.62269 1.12455,2.95034 0.63427,2.95034 -1.59726,0 0.54834,8.15274 2.71611,10.3205 1.6728,1.67281 3.3679,2.11287 8.25227,2.14237 9.31514,0.0563 9.70375,0.8914 10.29463,22.12326 0.4516,16.22701 0.13883,21.4195 -1.28959,21.40939 -0.34835,-0.002 -0.71131,-1.54055 -0.80657,-3.41797 C 728.02299,964.58963 721.35642,956 717.01291,956 713.84737,956 712,954.33218 712,951.47431 c 0,-3.2793 -4.38458,-6.69063 -9.72997,-7.57019 -7.8764,-1.29604 -14.63484,-1.03732 -17.04752,0.65258 -1.98714,1.39185 -2.22251,2.4187 -2.22251,9.69625 0,7.14883 -0.31827,8.59881 -2.61482,11.91273 C 676.36932,971.96057 669.37553,976 663.35823,976 c -5.95143,0 -13.36021,4.16936 -15.80307,8.89334 -1.99293,3.85389 -1.98518,9.3744 0.0186,13.24925 1.91681,3.70671 1.66465,4.06901 -1.62833,2.33981 z M 429.39829,842.90135 c 4.17079,-3.28075 7.94156,-11.5476 8.02771,-17.59959 0.0683,-4.79858 -0.22358,-5.47095 -3.79653,-8.74527 -3.78681,-3.47031 -3.86071,-3.67152 -3.41612,-9.30176 0.33717,-4.26995 1.3739,-7.30279 4.01818,-11.75473 5.51274,-9.28131 5.41551,-13.11899 -0.48153,-19.00575 -3.15618,-3.15067 -5.79422,-4.67799 -10.25,-5.93433 -13.27251,-3.74229 -13.91853,-4.03569 -16.12761,-7.32456 -1.32167,-1.9677 -2.86717,-7.01003 -3.89033,-12.69251 -2.04222,-11.34225 -3.4691,-13.11114 -10.40462,-12.89848 -3.56813,0.10941 -6.11456,1.04391 -10.51498,3.85882 -3.19364,2.04295 -6.02916,4.56548 -6.30117,5.60563 -0.86901,3.32309 -1.87546,2.02629 -1.42461,-1.83559 0.5295,-4.53554 4.20339,-10.30368 8.79178,-13.80341 1.87495,-1.4301 3.18053,-2.96986 2.90128,-3.42169 -0.72825,-1.17834 1.74385,-2.97941 5.61224,-4.08885 4.37393,-1.25443 9.37442,0.34654 13.60997,4.35739 4.01103,3.79826 5.84998,2.70544 4.80658,-2.85637 -0.48826,-2.60268 -2.2185,-5.19438 -5.8753,-8.80059 -6.53165,-6.44126 -8.66831,-9.52969 -8.67664,-12.54163 -0.004,-1.4148 -1.40877,-3.70435 -3.45998,-5.63889 -3.17,-2.98969 -3.98833,-3.25697 -9.97212,-3.25697 -4.48275,0 -7.62058,0.59056 -10.04661,1.89083 -3.6206,1.94053 -4.39372,1.54932 -2.24608,-1.13654 6.81094,-8.51782 20.95027,-9.91513 32.3451,-3.1965 2.68735,1.58452 6.08919,3.1829 7.55966,3.55197 3.62068,0.90873 5.56374,3.04599 6.78489,7.46302 0.56337,2.03775 2.54492,5.49352 4.40346,7.6795 2.89429,3.4042 3.60469,3.78732 4.95097,2.67001 4.40631,-3.65692 4.46896,-14.22057 0.12233,-20.62569 -2.91643,-4.2976 -2.97917,-4.64271 -0.69821,-3.84084 7.6606,2.69306 14.08238,17.48438 12.12946,27.93784 -0.7732,4.13875 -0.60479,4.92189 1.6294,7.57708 3.90574,4.64171 4.08653,7.25028 1.12447,16.22473 -1.4672,4.4453 -2.65992,9.22533 -2.65048,10.62227 0.0372,5.50667 3.20511,14.48866 6.74921,19.13599 4.65296,6.10137 7.9711,7.23248 19.31864,6.58547 11.57656,-0.66006 13.89843,-1.79641 40.19769,-19.67319 6.90825,-4.69585 8.87154,-4.04779 10.33606,3.41183 2.62647,13.3781 3.38988,16.23523 5.77126,21.59933 1.36719,3.07963 3.09043,6.22963 3.82943,7 0.73899,0.77037 2.82158,3.29311 4.62797,5.6061 3.17868,4.07013 3.23471,4.30142 1.74133,7.18929 -1.88704,3.64913 -4.9667,5.90439 -9.12898,6.68524 l -3.14345,0.58972 -0.66478,8.64854 c -0.96315,12.53027 -4.80751,18.96677 -14.36723,24.05465 -2.77374,1.47624 -2.78837,1.15391 -0.15054,-3.31686 1.80207,-3.05428 2.04995,-4.82176 1.75,-12.47791 -0.30549,-7.79723 -0.65452,-9.24415 -2.77377,-11.49885 C 500.74231,814.16066 498.83825,813 497.84443,813 c -0.99382,0 -4.85288,-2.85885 -8.57569,-6.353 -7.58307,-7.11731 -10.00035,-8.647 -13.66436,-8.647 -1.62157,0 -3.94614,-1.4333 -6.48732,-4 -4.55499,-4.60074 -8.81606,-5.301 -12.12453,-1.99253 -1.73099,1.73099 -1.98521,3.20021 -1.8458,10.66762 0.15748,8.43506 0.0842,8.72935 -2.81807,11.32256 -2.49508,2.22935 -2.99858,3.46269 -3.09548,7.58238 -0.13929,5.92157 -3.0818,12.96372 -6.92076,16.56306 C 438.82816,841.40987 431.80831,845 428.90498,845 c -2.07622,0 -2.05389,-0.095 0.49331,-2.09865 z M 712.3128,727.00697 c -11.86773,-1.03391 -23.39154,-3.39369 -34.02893,-6.96826 C 667.09935,716.28028 665.8687,715 673.44047,715 c 6.97448,0 12.70892,-2.54723 19.54123,-8.68019 10.76776,-9.66558 16.47304,-22.92591 16.48714,-38.31981 0.0105,-11.50134 -3.94942,-17.06299 -12.23044,-17.17727 -5.59314,-0.0772 -9.8872,2.79068 -15.2384,10.17727 -3.6797,5.07931 -9.20471,10 -11.22813,10 -2.83649,0 -0.19606,-37.91896 3.58613,-51.5 11.67694,-41.92946 34.00904,-81.93447 63.91762,-114.5 26.9081,-29.2985 64.40845,-56.04119 106.22438,-75.75197 14.34105,-6.75994 28.56571,-12.51565 29.24713,-11.83423 0.52805,0.52805 -5.683,4.95916 -12.73605,9.0862 -14.04814,8.22016 -13.62143,7.81909 -16.03481,15.07132 -5.54527,16.66353 -0.68865,40.56122 10.43393,51.34164 3.65754,3.54503 1.26119,3.6437 20.64511,-0.85007 9.11084,-2.11217 30.25516,-5.13086 34.74591,-4.96053 l 2.69878,0.10236 -3,0.78755 c -1.65,0.43315 -6.825,1.90608 -11.5,3.27319 -4.675,1.3671 -9.84426,2.80201 -11.48725,3.18869 -1.64298,0.38667 -7.84313,2.57906 -13.7781,4.87197 -10.59715,4.09409 -10.80977,4.23913 -11.84394,8.07977 -1.31438,4.88122 -1.24354,21.5701 0.11295,26.6077 1.6134,5.9917 6.00713,13.0821 11.45554,18.48641 8.53906,8.46995 7.87997,8.37163 28.28555,4.21949 10.65893,-2.16889 23.75036,-4.06501 32.75525,-4.74418 8.25,-0.62224 16.125,-1.35763 17.5,-1.63421 1.9399,-0.3902 2.16587,-0.27007 1.00861,0.53622 -0.82026,0.5715 -3.97026,1.32598 -7,1.67662 -6.10118,0.70612 -18.29341,3.5392 -27.50861,6.39213 -9.48293,2.93581 -19.59123,5.84876 -24.72791,7.12594 -4.3572,1.08337 -4.77601,1.45987 -5.34143,4.80177 -0.33744,1.99442 -1.04183,5.20122 -1.56532,7.12622 -0.52348,1.925 -1.22319,9.4254 -1.55489,16.66756 -0.90396,19.73646 1.16696,27.9789 9.34518,37.19461 3.80103,4.28321 4.07839,4.40145 15.85653,6.75929 11.27102,2.25633 31.88509,8.31462 31.06886,9.13086 -0.20444,0.20443 -3.9063,-0.0914 -8.22636,-0.65739 -4.32006,-0.56599 -12.20635,-1.32792 -17.52507,-1.69317 l -9.67042,-0.66409 -9.82958,14.72037 c -5.40628,8.09621 -10.79306,16.31088 -11.97064,18.25482 -1.17757,1.94394 -2.55799,3.81629 -3.06759,4.16079 -0.5096,0.34449 -2.55798,3.32635 -4.55196,6.62635 -3.38023,5.59424 -6.90536,17.66738 -5.5533,19.01943 0.31614,0.31615 7.7161,1.04214 16.44435,1.61332 8.72825,0.57118 16.02425,1.19217 16.21332,1.37998 0.18908,0.18781 -1.38592,0.8917 -3.5,1.56419 -5.52672,1.75806 -40.77074,2.32486 -60.34377,0.97046 -9.075,-0.62796 -25.275,-2.06474 -36,-3.19284 -10.725,-1.1281 -22.875,-2.23554 -27,-2.46098 -8.7656,-0.47906 -25.61557,-2.65899 -42.36057,-5.48032 -13.18816,-2.22205 -13.17536,-2.22473 -19.29798,4.04495 -3.86029,3.953 -4.56165,6.28241 -2.6943,8.94843 2.81344,4.01675 7.66934,4.39635 44.35285,3.46721 41.75149,-1.0575 68.82204,-1.04737 83.38808,0.0312 12.32396,0.91256 12.71236,2.55247 0.61192,2.58365 -7.07041,0.0182 -26.00562,1.13096 -76,4.46624 -31.87183,2.12626 -42.50168,2.43939 -52.6872,1.55203 z M 862.24357,702.75 c 0.56639,-4.77917 9.32554,-20.9604 16.10413,-29.75 5.56635,-7.21772 17.96345,-27.02219 17.31876,-27.66687 -0.45845,-0.45846 -9.82589,0.0345 -51.16646,2.69257 -16.41321,1.05532 -36.06125,3.86459 -57,8.14982 -8.25,1.68842 -17.23675,3.45321 -19.97055,3.92177 -13.20804,2.26377 -32.27215,9.4779 -35.58043,13.46414 -1.97222,2.37638 0.2847,5.88921 5.36319,8.34766 6.42927,3.11236 22.72528,8.49926 33.18779,10.97076 22.88468,5.40591 74.31786,13.88696 85.11995,14.03581 l 6.11995,0.0843 0.50367,-4.25 z M 753.25178,651.49877 c 4.26347,-1.36164 9.66347,-2.75526 12,-3.09694 2.33652,-0.34169 10.87937,-1.9054 18.9841,-3.47493 32.10581,-6.21745 62.38576,-9.28284 86.51562,-8.75839 8.38832,0.18232 15.25082,0.0637 15.25,-0.26352 -8.3e-4,-0.32726 -0.9507,-1.45226 -2.11084,-2.5 -3.20203,-2.89181 -7.58362,-12.2924 -8.80238,-18.88525 -1.77483,-9.60098 -1.30602,-21.95265 1.45353,-38.29513 l 0.72192,-4.27538 -2.88186,1.04602 c -1.58503,0.57531 -3.78187,1.4712 -4.88187,1.99087 -1.1,0.51967 -4.80157,1.86148 -8.2257,2.98181 -3.42414,1.12032 -8.59914,3.11115 -11.5,4.42406 -2.90087,1.31291 -7.7493,3.37692 -10.7743,4.58668 -18.02331,7.20792 -53.78122,25.92546 -62.87053,32.90969 -1.99621,1.53389 -7.41083,5.44901 -12.0325,8.70027 -8.58944,6.0425 -20.13539,15.96123 -23.44268,20.13879 -1.01514,1.28226 -1.59176,2.99315 -1.28138,3.80198 0.81078,2.11288 5.01322,1.80081 13.87887,-1.03063 z M 726.5,638.27481 c 3.3,-1.99218 8.89621,-5.6815 12.43603,-8.19848 3.53982,-2.51698 7.86251,-5.47633 9.60599,-6.57633 1.74348,-1.1 6.35106,-4.1375 10.23908,-6.75 3.88801,-2.6125 7.33188,-4.75 7.65304,-4.75 0.32117,0 4.39986,-2.4872 9.06376,-5.52711 4.66391,-3.03991 9.27234,-5.82132 10.24096,-6.1809 0.96863,-0.35959 6.03614,-2.97231 11.26114,-5.80606 10.01285,-5.43042 35.71253,-17.34173 38.72695,-17.94919 0.97518,-0.19652 4.02305,-1.34126 6.77305,-2.54386 C 849.43031,570.96219 866.60139,565 868.39944,565 c 3.01587,0 2.45846,-1.82826 -1.31968,-4.32852 -8.0753,-5.34398 -13.17166,-12.06625 -16.73516,-22.07424 -1.41847,-3.98375 -2.17109,-26.45093 -0.95213,-28.42325 0.6727,-1.08845 -22.7181,11.01142 -24.9615,12.91238 -0.91755,0.7775 -4.75068,3.21363 -8.51805,5.41363 C 806.63664,533.91699 790,545.18426 790,546.0497 c 0,0.38522 -3.57605,3.46681 -7.94678,6.84797 -9.61938,7.44148 -29.45193,26.82107 -37.96951,37.10233 -3.41739,4.125 -7.36049,8.85 -8.76246,10.5 C 727.60983,609.57575 713,634.62955 713,638.7778 c 0,5.21612 4.29131,5.05623 13.5,-0.50299 z M 698.16569,624.25 c 1.39693,-1.5125 4.02822,-5 5.84733,-7.75 18.04058,-27.27261 56.60536,-65.32776 86.46281,-85.32021 5.48671,-3.67389 10.73834,-7.35483 11.6703,-8.17987 0.93196,-0.82504 5.44284,-3.46839 10.02417,-5.87411 4.58134,-2.40572 11.10704,-5.91226 14.50156,-7.7923 3.39453,-1.88004 6.99453,-3.58738 8,-3.7941 1.00548,-0.20672 3.99526,-1.34682 6.64397,-2.53355 l 4.81583,-2.15769 -4.63085,-4.95076 c -5.45163,-5.82824 -10.0441,-15.0979 -11.6101,-23.43439 -1.27829,-6.80491 -0.61866,-23.23432 1.05869,-26.36847 0.61653,-1.152 0.88806,-2.09455 0.6034,-2.09455 -1.44378,0 -28.15246,17.33732 -30.0528,19.50807 -0.55,0.62826 -5.95,4.92726 -12,9.55333 -6.05,4.62607 -18.45461,15.84223 -27.5658,24.92482 -17.08454,17.03089 -24.49309,25.96034 -38.59141,46.51378 -9.22238,13.44498 -25.35268,47.17381 -28.21586,59 -0.53263,2.2 -1.93792,7.28984 -3.12287,11.31077 -1.99874,6.7824 -2.03894,7.48705 -0.5562,9.75 2.06258,3.1479 3.58864,3.0773 6.71783,-0.31077 z"
         id="path16" />
    </g>
  </g>
</svg>
