<?xml version="1.0" encoding="UTF-8" standalone="no"?>
<svg
   xmlns:dc="http://purl.org/dc/elements/1.1/"
   xmlns:cc="http://creativecommons.org/ns#"
   xmlns:rdf="http://www.w3.org/1999/02/22-rdf-syntax-ns#"
   xmlns:svg="http://www.w3.org/2000/svg"
   xmlns="http://www.w3.org/2000/svg"
   xmlns:sodipodi="http://sodipodi.sourceforge.net/DTD/sodipodi-0.dtd"
   xmlns:inkscape="http://www.inkscape.org/namespaces/inkscape"
   version="1.1"
   id="svg2"
   width="860.56549"
   height="1337.8187"
   viewBox="0 0 860.56549 1337.8187"
   sodipodi:docname="Falkreath.svg"
   inkscape:version="1.0.1 (3bc2e813f5, 2020-09-07)">
  <metadata
     id="metadata8">
    <rdf:RDF>
      <cc:Work
         rdf:about="">
        <dc:format>image/svg+xml</dc:format>
        <dc:type
           rdf:resource="http://purl.org/dc/dcmitype/StillImage" />
        <dc:title></dc:title>
      </cc:Work>
    </rdf:RDF>
  </metadata>
  <defs
     id="defs6" />
  <sodipodi:namedview
     pagecolor="#ffffff"
     bordercolor="#666666"
     borderopacity="1"
     objecttolerance="10"
     gridtolerance="10"
     guidetolerance="10"
     inkscape:pageopacity="0"
     inkscape:pageshadow="2"
     inkscape:window-width="1920"
     inkscape:window-height="1057"
     id="namedview4"
     showgrid="false"
     inkscape:pagecheckerboard="true"
     inkscape:zoom="0.49"
     inkscape:cx="409.10126"
     inkscape:cy="674.98202"
     inkscape:window-x="-8"
     inkscape:window-y="-8"
     inkscape:window-maximized="1"
     inkscape:current-layer="g10" />
  <g
     inkscape:groupmode="layer"
     inkscape:label="Image"
     id="g10"
     transform="translate(-340.89874,-75.01798)">
    <g
       id="g14">
      <path
         style="fill:#fefed4"
         d="m 763,1369.0956 c -6.875,-2.0799 -14.975,-4.7982 -18,-6.0408 -3.025,-1.2425 -7.075,-2.8615 -9,-3.5976 -9.7112,-3.7139 -34.2363,-17.8557 -52.5,-30.273 -36.41932,-24.761 -74.89911,-58.1755 -103.69242,-90.0428 -21.80461,-24.1325 -27.06341,-30.1585 -31.5402,-36.1414 -2.2635,-3.025 -7.41214,-9.5951 -11.44142,-14.6002 -20.84298,-25.8908 -47.30882,-66.4767 -68.05522,-104.3639 -8.72973,-15.9422 -11.59325,-21.7958 -27.65678,-56.5359 -6.85282,-14.8204 -11.09959,-25.4277 -18.61673,-46.5 -1.47152,-4.125 -3.48594,-9.75 -4.47649,-12.5 -0.99055,-2.75 -2.78383,-8.375 -3.98508,-12.5 -1.20124,-4.125 -3.07188,-10.2 -4.15696,-13.5 -1.08509,-3.3 -2.39923,-7.97202 -2.9203,-10.38226 -0.52108,-2.41024 -1.8017,-6.91024 -2.84583,-10 -5.37151,-15.89515 -13.9562,-63.24211 -16.52433,-91.13632 -2.52673,-27.44448 -2.62023,-30.97776 -3.63808,-137.48142 -0.55192,-57.75 -1.74639,-159.9 -2.65438,-227 -0.908,-67.1 -1.80536,-151.80585 -1.99414,-188.23522 l -0.34324,-66.23521 4.7708,-2.9938 c 7.33615,-4.60361 43.12172,-22.15477 58.7708,-28.82434 25.22699,-10.75163 51.34776,-20.4964 69.5,-25.9281 4.675,-1.3989 12.1,-3.627 16.5,-4.95133 22.70313,-6.8333 59.42981,-15.35401 83.18876,-19.30005 6.15382,-1.02206 12.05763,-2.13407 13.11958,-2.47112 3.19033,-1.01257 29.3826,-4.39927 50.69166,-6.5545 11,-1.11256 23.375,-2.46584 27.5,-3.00731 17.58521,-2.30829 55.17485,-3.27309 100,-2.56665 25.025,0.39439 49.1,1.08744 53.5,1.54013 4.4,0.45268 16.1,1.55021 26,2.43894 9.9,0.88874 21.375,2.07265 25.5,2.63091 4.125,0.55826 12.45,1.65422 18.5,2.43547 10.55559,1.36307 14.88673,2.0637 40.5,6.55149 34.5469,6.05308 65.1445,13.1432 95.5,22.12939 7.7884,2.30563 41.4851,13.47313 44.8495,14.86369 1.1828,0.48886 5.3005,2.09504 9.1505,3.56929 10.3634,3.96839 26.6996,10.95099 37.75,16.13559 l 9.75,4.57448 -0.014,26.59912 c -0.015,30.14323 -2.5767,275.49874 -3.5191,337.09913 -0.3407,22.275 -1.0115,88.425 -1.4906,147 -0.7794,95.29064 -1.0906,108.95337 -2.9566,129.80946 -1.1471,12.82021 -2.7716,26.99521 -3.6099,31.5 -0.8384,4.5048 -1.9444,11.9239 -2.4579,16.4869 -0.5134,4.56299 -1.8377,11.83797 -2.9429,16.16661 -1.1052,4.32864 -2.0095,9.2012 -2.0095,10.82792 0,1.62671 -0.6797,4.88423 -1.5105,7.23892 -0.8308,2.3547 -1.8942,6.57378 -2.3632,9.37573 -1.5656,9.35387 -14.836,54.2715 -20.8564,70.59446 -1.3185,3.575 -3.3004,8.975 -4.4042,12 -4.6219,12.6671 -20.6715,48.6052 -29.4749,66 -15.3762,30.3818 -40.3359,70.8662 -57.8145,93.7745 -3.892,5.101 -8.6513,11.4264 -10.5763,14.0565 -19.1585,26.1759 -72.31345,82.1856 -97,102.2094 -19.38082,15.7202 -32.1825,25.8136 -37.59096,29.6382 -3.24997,2.2982 -9.32598,6.6155 -13.50224,9.5939 -14.11418,10.066 -38.61155,24.7593 -65.9068,39.5305 -8.22389,4.4505 -20.79324,9.6325 -25.5,10.513 -1.96071,0.3667 -7.33039,-0.7489 -15.5,-3.2204 z m 22.67976,-10.167 c 15.05082,-5.9788 56.6464,-30.048 77.32024,-44.7411 4.125,-2.9317 10.15907,-7.2107 13.40904,-9.5089 5.42171,-3.834 18.48656,-14.1362 37.59096,-29.6421 24.89015,-20.2018 73.48358,-71.4489 95.8048,-101.0365 2.2821,-3.025 6.9126,-9.1 10.2901,-13.5 15.4803,-20.1669 40.1326,-59.6257 54.9788,-88 6.4319,-12.2926 19.9532,-41.389 24.0487,-51.75 1.0327,-2.6125 2.8278,-7.1125 3.9891,-10 9.3637,-23.28121 25.652,-75.22791 28.0148,-89.34446 0.469,-2.80195 1.5324,-7.02103 2.3632,-9.37573 0.8308,-2.35469 1.5105,-5.61221 1.5105,-7.23892 0,-1.62672 0.9043,-6.49928 2.0095,-10.82792 1.1052,-4.32864 2.4295,-11.60362 2.9429,-16.16661 0.5135,-4.563 1.6195,-11.9821 2.4579,-16.4869 0.8383,-4.50479 2.4628,-18.67979 3.6098,-31.5 1.8669,-20.866 2.1807,-34.68319 2.9939,-131.80946 0.4996,-59.675 1.3669,-142.7 1.9274,-184.5 2.2195,-165.54006 3.3534,-313.60518 2.4089,-314.54974 -1.5662,-1.56619 -28.5922,-13.13075 -47.8503,-20.47541 -13.981,-5.33206 -43.9715,-14.94531 -61,-19.55312 -29.5221,-7.98849 -50.17791,-12.57959 -80.5,-17.89242 -25.61327,-4.48779 -29.94441,-5.18842 -40.5,-6.55149 -6.05,-0.78125 -14.375,-1.87721 -18.5,-2.43547 -4.125,-0.55826 -15.6,-1.73861 -25.5,-2.623 -9.9,-0.8844 -21.825,-1.99589 -26.5,-2.47 -4.675,-0.47411 -27.4,-1.17104 -50.5,-1.54873 -41.36568,-0.67635 -79.34234,0.34623 -96.5,2.5984 -4.125,0.54147 -16.5,1.89475 -27.5,3.00731 -21.30906,2.15523 -47.50133,5.54193 -50.69166,6.5545 -1.06195,0.33705 -6.96576,1.44906 -13.11958,2.47112 -23.75895,3.94604 -60.48563,12.46675 -83.18876,19.30005 -4.4,1.32433 -11.825,3.55243 -16.5,4.95133 -34.88919,10.43989 -93.70994,35.15477 -120.77216,50.74518 l -5.27216,3.03726 0.34604,61.71712 c 0.19032,33.94441 1.08829,116.61711 1.99549,183.71711 0.9072,67.1 2.10103,169.25 2.65295,227 1.01785,106.50366 1.11135,110.03694 3.63808,137.48142 2.56813,27.89421 11.15282,75.24117 16.52433,91.13632 1.04413,3.08976 2.32475,7.58976 2.84583,10 0.52107,2.41024 1.90904,7.30726 3.08437,10.88226 1.17532,3.575 4.31242,13.25 6.97132,21.5 2.65889,8.25 6.18527,18.6 7.83638,23 1.65112,4.4 4.15452,11.08784 5.56311,14.86186 2.91743,7.81664 11.48233,26.99034 22.17334,49.63814 20.51875,43.4668 55.58455,99.5758 84.45819,135.142 3.8587,4.7531 8.43127,10.6031 10.16126,13 3.38869,4.695 8.4182,10.4478 30.54928,34.9424 50.10381,55.4546 123.0511,109.1181 168.24435,123.7684 5.225,1.6938 11.525,3.7343 14,4.5345 6.32578,2.0451 7.0227,1.9802 15.67976,-1.4587 z m -37.26311,-232.841 c 0.28688,-4.6244 1.05281,-6.9096 3.51556,-10.4891 6.43203,-9.3486 7.54721,-16.8937 3.70961,-25.0985 -3.01239,-6.4405 -7.76458,-11.0131 -13.46377,-12.955 -6.25115,-2.13 -8.97466,-1.949 -14.86865,0.9881 -6.66556,3.3216 -10.51137,8.7996 -11.07051,15.7689 -0.54382,6.7783 2.34643,11.3374 8.91249,14.0587 9.15769,3.7953 17.84862,-1.0576 17.84862,-9.9665 0,-4.6886 -2.50492,-8.3942 -5.67431,-8.3942 -1.42173,0 -1.3463,0.3492 0.5,2.3145 3.86054,4.1093 2.51599,10.4232 -2.80567,13.1751 -9.47312,4.8988 -19.09773,-4.4051 -15.47079,-14.9551 5.20224,-15.1323 25.35034,-15.4107 32.80395,-0.4533 4.63629,9.3038 3.07744,17.5437 -4.8193,25.4742 -11.75779,11.8079 -29.37176,10.4187 -43.458,-3.4276 -3.31651,-3.26 -6.79723,-7.9418 -8.27296,-11.1278 -4.55112,-9.8254 -5.14134,-16.3687 -4.36238,-48.3624 1.01176,-41.5556 0.86587,-42.1053 -21.13964,-79.6376 -31.81643,-54.26575 -34.68199,-59.92626 -37.25093,-73.58405 -0.64685,-3.43896 -1.09288,-16.84863 -1.06528,-32.02713 0.055,-30.23517 -0.78924,-38.07768 -4.9959,-46.41104 -4.12356,-8.16872 -14.70019,-19.06507 -25.48879,-26.25928 -11.79115,-7.86275 -28.25544,-24.45705 -36.39928,-36.68671 -12.81083,-19.23811 -23.364,-45.64171 -28.67785,-71.75081 -2.07364,-10.18862 -2.53093,-14.91172 -2.25456,-23.28605 0.40101,-12.15128 2.00276,-15.51107 9.12761,-19.1459 3.47851,-1.7746 5.23414,-2.01354 11.16578,-1.51967 10.65595,0.88721 18.23713,3.71509 35.26911,13.15583 8.54048,4.73395 18.28239,9.53415 21.64867,10.66712 9.6658,3.25314 25.85198,11.22189 35.37978,17.41812 10.69133,6.9529 25.06305,21.16047 32.23915,31.87091 2.92642,4.36774 7.67522,12.91774 10.55289,19 2.87766,6.08226 6.4697,12.18366 7.98231,13.55866 l 2.75019,2.5 -0.54055,-3.5 c -0.6223,-4.02928 -8.88016,-18.79778 -19.01122,-34 C 653.22511,671.72432 623.20747,645.24324 580.5,624.57691 c -6.05,-2.92762 -13.83913,-7.46325 -17.30918,-10.07918 -11.82077,-8.91119 -21.05001,-23.09445 -24.72564,-37.99773 -2.03387,-8.24657 -2.33855,-22.4704 -0.59278,-27.67411 l 1.23261,-3.67412 8.47694,6.80133 c 13.33058,10.69558 25.70892,15.69662 33.81552,13.66199 l 2.56466,-0.64369 -2.31539,-5.2357 c -12.57608,-28.43776 -20.58347,-74.82811 -19.34364,-112.06623 0.67614,-20.30782 2.384,-29.19462 7.71975,-40.16947 8.58216,-17.65225 16.57614,-27.28669 43.59582,-52.54216 l 10.11867,-9.45799 -0.81783,-5.99993 C 620.68284,323.09079 621.3702,302.30891 624.5858,289.12063 628.41481,273.41654 640.65612,256 647.8648,256 c 4.48974,0 6.62225,1.35043 8.2301,5.21178 1.42835,3.43028 1.47986,5.2321 1.03732,36.28822 -0.14891,10.45 0.0272,19.77095 0.39139,20.71322 0.6472,1.67457 3.34262,0.0526 15.65588,-9.42105 1.54879,-1.19161 1.40761,-1.99256 -1.81417,-10.29217 -5.67822,-14.62766 -8.51195,-26.81338 -8.63024,-37.11216 -0.0921,-8.02042 0.22285,-9.78155 2.6289,-14.69935 C 670.71999,235.7412 679.23907,232 698.8111,232 c 18.6355,0 36.97528,4.50156 61.90526,15.19487 l 9.33069,4.00225 9.22648,-4.04448 c 23.59694,-10.34384 43.06907,-15.11363 61.79497,-15.13697 19.6911,-0.0246 28.19552,3.69285 33.56752,14.67282 2.40605,4.9178 2.72102,6.67893 2.6289,14.69935 -0.11829,10.29878 -2.95202,22.4845 -8.63024,37.11216 -3.22178,8.29961 -3.36296,9.10056 -1.81417,10.29217 12.21134,9.39522 15.0116,11.08773 15.63911,9.45247 0.35495,-0.92498 0.53045,-10.24593 0.39,-20.71322 -0.41898,-31.22553 -0.37046,-32.89515 1.05548,-36.31964 2.79374,-6.70933 9.04861,-7.13918 15.62852,-1.07402 8.46673,7.80435 14.77903,21.12089 17.50683,36.93272 1.45338,8.42455 1.50558,33.65354 0.0868,41.92952 -1.17308,6.84255 -1.41943,6.50525 17.40129,23.82566 15.13808,13.93134 22.51852,22.40874 29.75227,34.17434 10.20947,16.60561 12.6011,25.69887 13.41353,51 1.18807,36.99969 -5.99544,79.16585 -18.7699,110.17642 -3.08802,7.4963 -2.91306,7.82358 4.18238,7.82358 8.23636,0 21.63923,-6.86263 33.09262,-16.94431 l 4.63696,-4.08161 1.262,3.76296 c 1.7716,5.28295 1.4839,19.46168 -0.5635,27.76296 -3.75431,15.22219 -13.78119,30.33137 -25.73701,38.78225 -3.46381,2.44837 -12.59784,7.58052 -20.29784,11.40477 -7.7,3.82426 -17.15,8.92178 -21,11.32783 -21.16881,13.22942 -41.538,31.30708 -58.27592,51.71992 C 861.38605,707.8306 840,742.17996 840,747.91636 v 2.43227 l 2.57092,-2.41525 c 1.414,-1.32839 5.41681,-8.26933 8.89514,-15.42432 13.5479,-27.86831 31.94548,-45.86789 60.77468,-59.45991 5.64259,-2.6603 13.01349,-5.76388 16.37978,-6.89684 3.36628,-1.13297 13.10819,-5.93317 21.64867,-10.66712 16.35234,-9.06402 24.20426,-12.05071 34.47619,-13.11397 8.02862,-0.83105 14.17308,1.34426 18.01132,6.3765 5.9884,7.85109 3.5703,34.04239 -5.78511,62.66213 -12.27821,37.56107 -31.77105,65.29591 -58.55362,83.31142 -10.75356,7.23347 -21.31221,18.14526 -25.40676,26.25651 -4.2114,8.34275 -5.04342,16.11809 -5.01859,46.89941 0.0228,28.32032 -0.6063,33.90451 -5.14985,45.71001 -2.85854,7.42732 -30.7265,59.4128 -31.84954,59.4128 -0.44175,0 -1.97063,-1.99209 -3.3975,-4.42686 -1.42687,-2.43478 -3.76852,-5.35049 -5.20365,-6.47937 l -2.60934,-2.0525 3.40961,-4.77064 c 5.80853,-8.12713 14.29075,-22.4119 18.08664,-30.45942 6.99656,-14.83314 7.28185,-17.13734 8.14839,-65.81121 0.48729,-27.37148 1.21703,-31.66998 7.37023,-43.41408 4.62054,-8.81882 13.69509,-18.02634 27.17786,-27.5761 22.91711,-16.23204 39.69495,-36.2538 48.89112,-58.344 7.3482,-17.65116 12.73633,-43.84121 11.9399,-58.03615 -0.32639,-5.81749 -0.75898,-7.17278 -2.82287,-8.84402 -3.72831,-3.019 -7.56577,-1.89227 -26.48362,7.77595 -9.35,4.77844 -21.95,10.68079 -28,13.11634 -25.15998,10.12864 -44.55307,23.13138 -56.3254,37.76524 -3.17144,3.94233 -8.83385,13.11312 -12.58313,20.37954 -7.49234,14.52078 -13.37053,21.92373 -19.92927,25.09876 C 829.65115,771.28366 824,768.68592 824,760.1815 c 0,-7.34273 2.3902,-14.11545 11.5338,-32.6815 24.90324,-50.56592 57.01288,-83.72377 111.24245,-114.87395 7.30194,-4.19433 13.5448,-7.62605 13.87301,-7.62605 0.32822,0 3.48363,-2.06003 7.01202,-4.57784 8.96765,-6.39918 16.92769,-16.9912 19.85547,-26.42066 0.71725,-2.31004 0.46753,-2.22002 -3.31076,1.19343 -7.11248,6.42571 -9.59572,7.31404 -20.20599,7.22834 -14.23032,-0.11495 -21.51827,-4.20684 -24.01643,-13.48428 -1.2421,-4.61282 -0.36673,-8.86994 4.47958,-21.78498 4.49081,-11.96766 9.97973,-34.05177 12.58986,-50.65401 2.90816,-18.49788 3.63092,-46.83336 1.54319,-60.5 -3.71209,-24.3 -20.20985,-47.02611 -57.21535,-78.81566 l -6.11916,-5.25666 2.33277,-5.77534 c 1.28302,-3.17643 3.04744,-8.44766 3.92093,-11.71384 2.20247,-8.23547 3.01543,-28.93139 1.56351,-39.80301 -1.1481,-8.59674 -5.40159,-24.09851 -6.85979,-25.00041 -0.39551,-0.24462 -0.71911,11.32491 -0.71911,25.71007 0,30.92201 -1.3025,39.51057 -7.36309,48.55154 -0.736,1.09795 -3.47103,-0.63279 -12.78659,-8.09138 C 857.0899,321.18493 844.16116,311.80054 824,298.53244 796.12087,280.18511 796.75878,280.45178 791.17294,284.80945 l -2.32706,1.81541 11.30473,7.43757 c 40.85588,26.87976 77.82829,56.24555 108.16409,85.91067 9.82748,9.6102 20.01842,20.1852 22.64654,23.5 9.61718,12.12996 13.00608,22.56331 13.00129,40.0269 -0.005,18.77589 -3.01184,31.36519 -8.99242,37.65208 -5.75499,6.04975 -11.41499,5.25346 -20.04648,-2.82028 -7.56695,-7.078 -9.71265,-10.39374 -36.45376,-56.3318 -13.60687,-23.375 -24.89035,-42.67381 -25.07439,-42.88624 -0.18404,-0.21242 -2.69429,0.62887 -5.57833,1.86955 -7.2577,3.12218 -13.15016,2.36829 -29.86354,-3.82078 -18.83382,-6.97428 -34.29701,-13.16353 -35.28971,-14.12496 -0.45985,-0.44537 3.18354,-3.56287 8.09643,-6.92777 10.30786,-7.05999 30.41761,-23.10277 30.93476,-24.67855 0.19291,-0.58782 -0.79379,-1.6813 -2.19267,-2.42995 -2.24812,-1.20316 -2.82119,-1.13713 -4.93598,0.56875 -11.25304,9.07719 -28.11545,21.17861 -32.82932,23.56018 -10.29893,5.2033 -14.74378,4.89327 -27.26621,-1.90181 -14.85215,-8.05926 -41.84625,-31.95671 -53.34211,-47.22292 -17.3497,-23.03997 -22.37841,-46.6881 -11.16153,-52.48857 6.89005,-3.56299 24.75485,-0.68565 41.53273,6.68935 4.95,2.17586 9.70804,4.17627 10.57343,4.44537 1.38305,0.43007 9.47513,-3.4517 8.71927,-4.18263 -0.95523,-0.92373 -19.50444,-8.08628 -25.89824,-10.00029 -16.92095,-5.06537 -35.15038,-5.86851 -40.7105,-1.79359 -4.95328,3.63018 -6.3722,7.82278 -5.86331,17.32486 1.00946,18.84878 12.60285,40.64307 32.64128,61.36197 11.46605,11.85542 20.77182,19.49839 35.78807,29.39331 6.1875,4.07724 11.2496,7.71276 11.24911,8.07894 -4.9e-4,0.36618 -2.58799,1.6401 -5.75,2.83093 -3.16201,1.19084 -14.29911,5.40031 -24.74911,9.35438 -22.34612,8.45533 -27.50167,9.32591 -35.31715,5.96378 -2.88404,-1.24068 -5.39277,-2.08197 -5.57495,-1.86955 -0.18219,0.21243 -11.46986,19.51124 -25.08372,42.88624 -26.80923,46.03143 -28.91456,49.28532 -36.44781,56.3318 -8.63149,8.07374 -14.29149,8.87003 -20.04648,2.82028 -5.98058,-6.28689 -8.98727,-18.87619 -8.99242,-37.65208 -0.005,-17.47256 3.39765,-27.94081 13.00099,-40 11.17326,-14.03058 46.04957,-46.47281 68.68657,-63.89284 l 10.22504,-7.86854 -1.92836,-2.70812 c -4.31773,-6.06371 -3.85997,-6.20503 -18.74251,5.78626 -14.65691,11.80949 -14.83803,11.87083 -17.85071,6.04496 -3.58279,-6.92835 -4.77683,-16.83223 -4.80584,-39.86172 -0.0156,-12.375 0.28882,-24.975 0.67647,-28 0.66304,-5.17406 0.61659,-5.35184 -0.78379,-3 -1.99051,3.34295 -6.14981,17.02776 -7.48113,24.61422 -1.56129,8.8969 -1.31421,29.66043 0.45082,37.88578 0.82615,3.85 2.89863,9.84386 4.60551,13.31969 1.70688,3.47584 2.94728,6.42682 2.75644,6.55774 -0.19083,0.13092 -5.07197,4.30838 -10.84697,9.28325 -14.66196,12.63052 -30.44804,29.39252 -37.82553,40.16395 -13.95919,20.38096 -16.76506,31.58379 -15.82297,63.17537 0.83793,28.09895 6.60091,59.27714 15.18535,82.15401 4.84631,12.91504 5.72168,17.17216 4.47958,21.78498 -2.49816,9.27744 -9.78611,13.36933 -24.01643,13.48428 -10.61027,0.0857 -13.09351,-0.80263 -20.20599,-7.22834 -3.77829,-3.41345 -4.02801,-3.50347 -3.31076,-1.19343 4.2182,13.58551 15.15221,25.01054 32.51675,33.97703 8.62582,4.4541 19.4892,10.98616 30.5,18.3394 40.82667,27.26491 67.83935,57.97052 89.01303,101.18207 C 713.20735,745.24351 716,753.13705 716,759.96845 c 0,8.72917 -5.55324,11.3626 -14.6622,6.95303 -6.55874,-3.17503 -12.43693,-10.57798 -19.92927,-25.09876 -3.74928,-7.26642 -9.41169,-16.43721 -12.58313,-20.37954 -11.77897,-14.64211 -31.21104,-27.66759 -56.3254,-37.7554 -6.05,-2.43013 -18.65,-8.33071 -28,-13.11239 -18.88069,-9.65576 -22.76223,-10.80314 -26.44854,-7.81815 -3.09557,2.50665 -3.77892,10.36819 -2.08697,24.00932 5.43374,43.80862 24.61108,76.14422 60.03551,101.228 13.50406,9.56212 22.5787,18.76653 27.20239,27.59136 6.21466,11.8614 6.89332,15.94756 7.37659,44.41408 0.67527,39.77548 0.88125,42.50119 3.92961,52 4.38607,13.66719 10.68918,25.05764 30.43521,55 10.05836,15.25221 21.41383,38.1684 24.08118,48.5977 1.52231,5.9521 1.97588,11.0665 1.97876,22.3123 l 0.004,14.59 1.84591,-3.0269 c 2.57874,-4.2287 8.4609,-9.5826 13.16407,-11.982 2.79027,-1.4235 7.72046,-6.6357 16.5615,-17.509 6.92369,-8.5151 12.7154,-15.6092 12.87048,-15.7645 0.15507,-0.1553 3.52421,3.8224 7.48697,8.8392 l 7.20502,9.1216 -4.0531,6.1608 -4.0531,6.1608 7.21131,0.2984 c 13.90369,0.5754 21.89105,-5.33 26.77825,-19.7984 2.53889,-7.5163 2.31077,-16.62162 -0.59858,-23.8928 -1.66286,-4.15591 -1.65323,-4.46198 0.26611,-8.45956 1.09526,-2.2812 2.80434,-7.18514 3.79795,-10.89764 0.99362,-3.7125 2.16816,-6.75 2.61011,-6.75 0.44195,0 2.11187,1.9125 3.71095,4.25 9.57099,13.99068 11.69269,26.45142 8.30069,48.75 -1.12947,7.425 -2.3353,14.4784 -2.67962,15.6743 -0.50432,1.7514 0.0247,2.5079 2.72078,3.8906 4.89163,2.5088 8.97851,6.1238 12.09682,10.7002 l 2.75,4.0359 v -14.4906 c 0,-15.092 1.78381,-25.614 5.59491,-33.0021 C 837.52246,999.133 854.32926,973 855.05163,973 c 0.37742,0 0.91767,4.8375 1.20057,10.75 0.4855,10.14679 0.35725,11.11473 -2.28547,17.25 -5.52101,12.8174 -6.19559,19.2594 -5.40727,51.6376 0.77896,31.9937 0.18874,38.537 -4.36238,48.3624 -3.20326,6.9155 -12.2001,15.8759 -19.55228,19.473 -6.49909,3.1797 -14.39543,3.7313 -22.1448,1.547 -3.64203,-1.0265 -6.36718,-2.7823 -10.03388,-6.4646 -7.79279,-7.8261 -9.38806,-15.8853 -5.00705,-25.2953 5.6228,-12.0772 20.80351,-15.0607 29.50479,-5.7986 10.00902,10.6541 0.43654,27.451 -11.98388,21.0281 -5.32166,-2.7519 -6.66621,-9.0658 -2.80567,-13.1751 1.8463,-1.9653 1.92173,-2.3145 0.5,-2.3145 -3.16939,0 -5.67431,3.7056 -5.67431,8.3942 0,8.9089 8.69093,13.7618 17.84862,9.9665 6.56606,-2.7213 9.45631,-7.2804 8.91249,-14.0587 -0.55914,-6.9693 -4.40495,-12.4473 -11.07051,-15.7689 -5.89399,-2.9371 -8.6175,-3.1181 -14.86865,-0.9881 -5.69919,1.9419 -10.45138,6.5145 -13.46377,12.955 -3.8376,8.2048 -2.72242,15.7499 3.70961,25.0985 2.46275,3.5795 3.22868,5.8647 3.51556,10.4891 L 791.95014,1132 H 770 748.04986 Z M 623.34858,454.56404 C 633.53955,437.9144 653.73572,404.86606 666.47098,384 c 7.55287,-12.375 14.44772,-23.0625 15.32189,-23.75 0.87416,-0.6875 3.09641,-1.25 4.93831,-1.25 2.60623,0 4.1928,0.88709 7.15404,4 2.09281,2.2 4.66228,3.98115 5.70994,3.9581 1.04766,-0.023 7.82773,-1.95968 15.06681,-4.30364 l 13.16198,-4.26174 -10.57345,-8.44636 c -5.8154,-4.6455 -11.1602,-8.79749 -11.87732,-9.22666 -1.1538,-0.69048 -34.80594,26.10219 -66.73051,53.12853 -13.13436,11.11914 -20.78837,22.2071 -24.06901,34.86751 -1.61335,6.22611 -2.16055,26.09962 -0.92458,33.57886 l 0.62708,3.79459 2.37432,-2.23056 c 1.30588,-1.22681 4.32002,-5.40938 6.6981,-9.29459 z m 303.53311,-4.70074 c 0.21673,-19.48446 -6.4305,-34.63345 -22.88169,-52.14718 -14.74402,-15.69631 -65.91061,-58.34191 -68.71378,-57.27058 -0.66758,0.25514 -6.14267,4.40819 -12.16688,9.229 l -10.9531,8.7651 13.16688,4.26161 c 16.3845,5.30302 17.93827,5.35106 22.33379,0.69045 3.21704,-3.41105 3.65081,-3.57114 7.93536,-2.92864 5.39227,0.80863 1.04694,-5.56618 37.39773,54.86424 15.125,25.14416 28.62285,46.93114 29.99523,48.4155 l 2.49523,2.69886 0.63646,-2.97083 c 0.35005,-1.63396 0.68969,-7.75735 0.75477,-13.60753 z M 774.91214,336.35751 c 5.57322,-3.21003 16.05377,-10.48907 21.86426,-15.18534 4.05768,-3.27958 4.19067,-3.55108 2.6003,-5.30842 -2.16575,-2.39313 -18.51526,-12.98539 -24.62546,-15.95395 -4.58363,-2.2269 -4.82753,-2.24385 -8.32063,-0.5781 -3.09413,1.47549 -26.01164,15.99383 -27.43061,17.37741 -1.41252,1.37729 19.82553,17.56971 27.31999,20.82945 4.06104,1.76636 3.29116,1.87219 8.59215,-1.18105 z m -33.2124,-42.73112 c 39.35377,-25.8376 75.12326,-41.84085 96.85134,-43.33124 9.30874,-0.63851 13.4268,0.8276 15.93199,5.67212 3.12151,6.03632 1.05588,19.16974 -4.96509,31.56855 l -3.30855,6.81318 2.14029,1.7331 c 1.17715,0.9532 2.52256,1.49684 2.98979,1.20807 1.25613,-0.77633 6.2766,-12.32894 8.71405,-20.05193 2.65773,-8.42093 2.9427,-20.411 0.59311,-24.95462 -2.79417,-5.40333 -6.98019,-7.57578 -15.5538,-8.0721 -17.85705,-1.03373 -40.32742,5.80168 -73.09843,22.2363 -15.72839,7.88776 -22.0356,11.56852 -40.68018,23.7401 l -12.18573,7.95511 3.18573,2.89917 c 1.75216,1.59455 3.27562,2.91236 3.38548,2.92849 0.10985,0.0161 7.30985,-4.63882 16,-10.3443 z m -26.28316,-13.09974 c 4.3249,-3.01034 8.04059,-5.65048 8.25709,-5.86699 0.76418,-0.76417 -10.24272,-5.40624 -15.47289,-6.52556 -8.17272,-1.74906 -8.55098,-1.64666 -7.81542,2.1159 0.77384,3.9584 5.67109,15.75 6.54123,15.75 0.3446,0 4.1651,-2.46301 8.48999,-5.47335 z m 120.4194,-2.32173 c 1.72263,-3.73729 3.41312,-8.20044 3.75666,-9.91811 l 0.6246,-3.12303 -4.35862,0.93418 c -2.39724,0.5138 -8.30384,2.33492 -13.12577,4.04692 l -8.76715,3.11274 7.26715,4.47515 c 3.99693,2.46132 7.92608,5.10336 8.73144,5.87118 0.80535,0.76783 1.75124,1.39605 2.10196,1.39605 0.35072,0 2.0471,-3.05778 3.76973,-6.79508 z M 726.87996,1026.25 c -0.90084,-3.1008 -1.37996,-9.958 -1.37996,-19.75 0,-13.18998 0.28808,-15.84468 2.3874,-22 4.36068,-12.78575 10.93287,-22.19513 19.45202,-27.84935 8.94975,-5.94001 20.02165,-8.06644 29.00801,-5.57117 3.7677,1.04619 3.83314,1.1445 3.15807,4.74442 -0.37915,2.02186 -1.84601,6.0386 -3.25969,8.9261 l -2.57034,5.25 h -5.4366 c -6.72949,0 -11.30985,2.09672 -15.64547,7.16191 -5.59027,6.53099 -7.90027,13.79724 -8.1002,25.47969 l -0.17356,10.1417 -7.7277,9.1083 c -4.25023,5.0096 -7.86367,9.1084 -8.02986,9.1084 -0.16619,0 -0.92314,-2.1375 -1.68212,-4.75 z m 45.92972,-7 c -12.5848,-14.2992 -18.13192,-21.23734 -21.29579,-26.63608 l -2.62407,-4.47763 1.98268,-3.88636 C 753.00053,980.07864 760.18195,973 762.28578,973 c 0.70401,0 4.2554,4.1625 7.89199,9.25 7.39136,10.34033 16.90619,21.5192 21.07223,24.7575 3.27599,2.5465 3.51337,5.5882 0.84147,10.7823 -2.52687,4.9122 -7.88362,12.2102 -8.96234,12.2102 -0.47207,0 -5.11583,-4.8375 -10.31945,-10.75 z m 5.29296,-31.27428 c -3.35645,-4.45435 -6.09967,-8.63362 -6.09605,-9.28727 0.004,-0.65365 0.92106,-2.53845 2.03875,-4.18845 11.57111,-17.08201 11.74935,-34.53528 0.48001,-47.00476 l -4.51447,-4.99524 -4.11197,4.49865 c -4.8917,5.35171 -7.51239,10.2187 -9.00218,16.71832 -1.06739,4.65677 -1.29168,4.87955 -8.49653,8.43957 L 741,955.81309 v -7.29608 c 0,-9.28356 2.02157,-20.02608 7.43648,-39.51701 2.36839,-8.525 8.05264,-29.1125 12.63168,-45.75 C 765.6472,846.6125 769.66653,833 770,833 c 0.33347,0 4.3528,13.6125 8.93184,30.25 4.57904,16.6375 10.34332,37.45 12.80951,46.25 2.46619,8.8 5.09259,19.375 5.83643,23.5 2.06153,11.43224 1.80374,27.18681 -0.59872,36.59004 -2.02564,7.92838 -8.97348,23.33052 -11.45232,25.38777 -1.03134,0.85594 -2.66128,-0.68134 -7.4241,-7.00209 z m -99.58348,-71.57375 c -7.14995,-2.6171 -13.8173,-10.5179 -16.79494,-19.90197 -2.34646,-7.39489 -2.70071,-11.03221 -3.21402,-33 -0.4572,-19.56691 -1.18236,-31.24419 -2.15798,-34.75 -0.26785,-0.9625 -0.0585,-1.75 0.46519,-1.75 1.32715,0 28.82258,27.4491 39.58813,39.52144 4.89413,5.48821 11.35525,13.23534 14.35804,17.21585 6.38101,8.4587 6.38269,9.24717 0.0406,19.0313 -8.49658,13.10791 -20.20863,18.0537 -32.28501,13.63338 z m 12.06088,-11.28765 c 4.8914,-2.98277 6.74082,-8.05469 6.20525,-17.01752 -0.85053,-14.2336 -9.41439,-25.32697 -18.26948,-23.66574 -8.15667,1.5302 -11.72608,14.06039 -7.89491,27.71458 3.36747,12.00158 12.16791,17.71976 19.95914,12.96868 z m -13.65696,-9.0374 C 674.58736,893.74121 674,892.27887 674,888.79943 c 0,-5.23741 2.08994,-8.52124 6.63069,-10.41848 2.90555,-1.21402 3.84192,-1.21032 6.80289,0.0268 10.46112,4.37093 7.5172,20.46667 -3.7605,20.5604 -2.9218,0.0243 -4.51828,-0.65955 -6.75,-2.89128 z m 167.31927,20.429 c -7.49461,-3.25722 -16.2036,-13.05176 -19.28105,-21.68437 -1.30393,-3.6577 -1.28018,-3.71974 4.2117,-11 11.60535,-15.38451 52.70293,-58.38119 54.22156,-56.72711 0.2048,0.22306 -0.004,3.10556 -0.46362,6.40556 -0.45979,3.3 -1.10848,16.4927 -1.44153,29.31711 -0.81483,31.37523 -2.98611,39.77162 -12.63037,48.84207 -6.40078,6.01994 -17.0795,8.12246 -24.61669,4.84674 z m 18.9665,-13.20601 c 4.03184,-3.86275 6.86241,-10.74874 7.47611,-18.18729 1.87187,-22.68866 -14.76131,-28.8158 -24.73778,-9.11262 -3.17248,6.26554 -3.88429,18.22294 -1.39683,23.46486 3.67023,7.73443 12.65982,9.58215 18.6585,3.83505 z m -12.84181,-6.07215 c -6.56692,-5.31941 -5.35822,-15.66219 2.19938,-18.81996 2.96097,-1.23717 3.89734,-1.24087 6.80289,-0.0268 4.54075,1.89724 6.63069,5.18107 6.63069,10.41848 0,3.47944 -0.58736,4.94178 -2.92308,7.27749 -3.43382,3.43383 -9.24221,3.95976 -12.70988,1.15084 z M 658.01813,781.34685 c -10.10315,-6.21051 -13.62211,-7.29726 -26.82821,-8.28528 -14.20584,-1.06282 -21.39399,-4.2286 -30.67531,-13.50993 C 594.12979,753.16683 588,742.70831 588,738.19949 c 0,-2.27682 0.34669,-2.08721 4.21129,2.30321 8.92749,10.14216 21.96032,11.45106 28.70041,2.88242 2.43719,-3.09838 2.74925,-9.56313 0.6451,-13.36417 -0.75479,-1.36348 -10.96332,-12.0265 -22.68563,-23.6956 -11.72232,-11.66911 -21.01601,-21.51384 -20.65266,-21.87719 1.10848,-1.10849 13.79498,3.44275 22.63026,8.11852 14.43612,7.63983 23.25299,15.72425 34.38689,31.53026 5.13263,7.28643 11.99031,14.63534 21.56477,23.10952 l 6.30044,5.57639 1.94942,15.35857 c 2.19999,17.33269 2.23607,17.86888 1.19971,17.8316 -0.4125,-0.0148 -4.11684,-2.09662 -8.23187,-4.62617 z M 873.01135,784.75 c 0.006,-0.6875 0.85634,-8.13673 1.8891,-16.55385 l 1.87775,-15.30386 6.3609,-5.63111 c 9.63727,-8.53159 16.48396,-15.86553 21.62524,-23.16424 11.1339,-15.80601 19.95077,-23.89043 34.38689,-31.53026 8.9201,-4.72066 21.52495,-9.22383 22.65509,-8.09369 0.37701,0.37701 -8.51168,9.76232 -19.75265,20.85624 -11.24097,11.09392 -21.47663,21.69607 -22.7459,23.56032 -3.00566,4.41457 -3.1028,10.83002 -0.21947,14.49557 6.74009,8.56864 19.77292,7.25974 28.70041,-2.88242 4.10162,-4.65969 4.21129,-4.71264 4.21129,-2.03347 0,4.43763 -6.02527,14.55428 -12.5901,21.13924 -9.14655,9.17459 -16.44347,12.40096 -30.37897,13.4322 -13.28261,0.98293 -16.04447,1.82226 -26.69346,8.11214 -8.95157,5.28729 -9.34284,5.4382 -9.32612,3.59719 z M 765.5,763.75465 C 743.37958,746.17838 727.91508,726.72455 714.52795,699.63352 703.32231,676.95709 696.41711,654.37128 695.37889,637 l -0.56778,-9.5 4.96747,-10 c 16.17827,-32.56843 52.37041,-87.13872 79.26766,-119.51931 11.22518,-13.51357 28.09534,-29.71721 34.57,-33.20419 11.75492,-6.33069 30.68311,-7.65344 46.00057,-3.21461 13.66789,3.9608 22.21914,9.28339 34.44238,21.43811 20.5729,20.45758 28.92138,40.09446 28.90974,68 -0.008,19.34082 -2.85672,34.10882 -8.75334,45.37927 -12.65265,24.18352 -34.67429,30.7009 -51.42907,15.22061 -2.04241,-1.88705 -13.44197,-18.17883 -25.33234,-36.20396 -20.11003,-30.48567 -33.58021,-49.48844 -41.62478,-58.72126 l -3.33302,-3.82535 -4.83828,6.5894 -4.83827,6.5894 6.47757,8.73595 c 23.67266,31.926 52.83955,80.66489 55.49611,92.73594 1.87265,8.50907 -1.67402,27.01685 -8.99801,46.95475 -11.28455,30.71965 -28.05144,57.73863 -47.93597,77.24638 -7.15666,7.02105 -17.03443,15.37514 -18.04954,15.26534 -0.17049,-0.0184 -2.10999,-1.46376 -4.30999,-3.21182 z m 13.82945,-32.74633 c 19.13644,-20.10913 38.43837,-55.35729 43.2105,-78.90875 2.60513,-12.8568 1.71944,-21.39529 -3.41551,-32.92737 -2.28439,-5.13028 -6.90593,-14.13028 -10.27009,-20 C 796.80054,578.14098 772.49029,543 769.99488,543 c -2.48062,0 -25.99968,35.31136 -38.18432,57.32968 -10.53346,19.03455 -14.05296,27.75491 -14.58639,36.14114 -1.34568,21.15569 12.57679,56.52568 32.68227,83.02918 5.10396,6.72816 18.4939,20.5 19.93152,20.5 0.51411,0 4.78528,-4.04626 9.49149,-8.99168 z M 889.63355,598.3696 c 6.81906,-3.23585 13.36682,-14.18463 16.06899,-26.8696 2.14159,-10.05335 1.22406,-27.28098 -2.07709,-39 -7.35595,-26.11344 -24.8586,-47.06892 -44.75712,-53.58655 C 852.81049,476.92924 849.45467,476.5 840,476.5 c -10.8869,0 -11.78647,0.15866 -16.8734,2.97609 -3.07138,1.70111 -8.5336,6.37774 -12.74996,10.91625 l -7.37655,7.94015 2.48988,3.08375 c 10.35167,12.82072 23.53111,31.34618 40.25498,56.58376 21.54452,32.51231 25.10655,37.32853 29.66251,40.10672 3.80498,2.32025 9.66242,2.42849 14.22609,0.26288 z M 649,620.85563 c -7.8815,-3.0996 -18.39904,-13.90752 -23.30867,-23.9522 -6.57212,-13.44598 -9.76761,-35.09125 -7.75428,-52.5251 3.48295,-30.15964 22.00195,-62.19786 43.15208,-74.65392 13.91274,-8.1937 32.95004,-11.51661 47.81681,-8.34629 12.51248,2.66828 27.25841,10.85714 36.01855,20.00219 3.84021,4.00894 4.06541,3.94545 9.25719,-2.6097 l 3.10611,-3.92179 -5.89389,-5.96545 c -7.44702,-7.53743 -17.83159,-14.74605 -28.87971,-20.04731 -4.7388,-2.27384 -8.25559,-4.48007 -7.8151,-4.90273 0.4405,-0.42267 7.32591,-3.47642 15.30091,-6.7861 7.975,-3.30969 16.075,-6.7448 18,-7.63358 3.49562,-1.61395 3.49025,-1.6153 -4.2977,-1.07353 -9.53306,0.66316 -19.91243,4.04115 -31.24596,10.16908 -7.82583,4.23135 -9.02728,4.59111 -13.96494,4.18164 -5.97698,-0.49565 -13.4385,-4.45771 -16.71837,-8.87742 -2.86442,-3.85987 -3.36462,-10.07585 -1.25526,-15.59912 2.39028,-6.25887 11.94861,-15.50251 22.43761,-21.69891 C 710.0538,392.42199 767.61658,367 770.01325,367 c 2.35711,0 60.15104,25.55185 67.16568,29.69529 10.36641,6.12327 19.92323,15.38688 22.3033,21.61901 2.10936,5.52327 1.60916,11.73925 -1.25526,15.59912 -3.23372,4.35753 -10.74721,8.38225 -16.54598,8.86313 -4.71022,0.39061 -6.12221,-0.033 -14.20553,-4.26184 -11.97384,-6.26416 -21.73258,-9.41755 -31.17776,-10.07459 -7.78795,-0.54177 -7.79332,-0.54042 -4.2977,1.07353 1.925,0.88878 10.025,4.32389 18,7.63358 7.975,3.30968 14.86992,6.37294 15.32203,6.80722 0.45212,0.43429 -2.24788,2.22597 -6,3.98151 -10.36883,4.85136 -24.81455,14.91165 -34.76158,24.20867 -22.23452,20.78154 -56.31448,67.07673 -86.65511,117.71478 C 681.48207,617.2696 665.55295,627.36549 649,620.85563 Z m 16.58377,-23.35173 c 4.82017,-3.67652 9.48978,-10.18466 26.52129,-36.96332 15.73877,-24.74609 28.49401,-43.04372 37.85584,-54.30493 3.3215,-3.9954 6.0391,-7.62829 6.0391,-8.07309 0,-2.19093 -11.21766,-11.63651 -17.5,-14.7355 -12.72835,-6.2787 -24.16623,-7.32008 -37.5,-3.41422 -24.88156,7.28854 -42.75377,36.66111 -44.71441,73.48716 -1.10389,20.73378 4.74628,39.78001 14.00443,45.59384 4.32241,2.71435 10.49137,2.07302 15.29375,-1.58994 z M 784.15018,451.46836 c 3.4924,-2.57096 6.34982,-4.85761 6.34982,-5.08144 0,-0.673 -18.89174,-9.37754 -20.36293,-9.38241 -0.74961,-0.002 -6.01474,2.10727 -11.70028,4.68834 l -10.33735,4.69286 4.88488,3.28967 c 2.68668,1.80931 7.50181,5.72582 10.70028,8.70335 l 5.8154,5.41368 4.15018,-3.82479 c 2.2826,-2.10363 7.0076,-5.9283 10.5,-8.49926 z M 712.5,420.4032 c 23.64924,-9.82695 23.25751,-9.71283 33.5,-9.7593 7.60353,-0.0345 10.69777,0.41853 15.5,2.26938 7.59399,2.92683 9.61997,2.93212 17,0.0444 4.80968,-1.88198 7.88467,-2.34573 15.5,-2.33757 10.25575,0.011 9.01192,-0.35253 33.76628,9.86847 13.37282,5.52159 16.54485,5.66747 10.88174,0.50043 -9.20018,-8.39426 -20.25135,-14.58219 -44.39802,-24.85998 L 770,385.80725 745.75,396.08389 c -18.68843,7.91977 -26.31409,11.70907 -33.25,16.52245 -8.37316,5.81079 -14.5,10.85345 -14.5,11.93413 0,1.2929 4.56989,-0.011 14.5,-4.13727 z M 1125.0306,1082.5 c 0,-0.55 0.4362,-1.675 0.9694,-2.5 0.5332,-0.825 0.9694,-1.05 0.9694,-0.5 0,0.55 -0.4362,1.675 -0.9694,2.5 -0.5332,0.825 -0.9694,1.05 -0.9694,0.5 z m -708.40706,-14.0387 c -0.96498,-2.5147 -0.68031,-3.1635 0.49853,-1.1363 0.58369,1.0038 0.8506,2.0357 0.59313,2.2931 -0.25747,0.2575 -0.74872,-0.2631 -1.09166,-1.1568 z M 1139,1051.059 c 0,-0.5175 0.4448,-1.2159 0.9885,-1.5519 0.5669,-0.3504 0.7346,0.051 0.3931,0.941 -0.6648,1.7324 -1.3816,2.0493 -1.3816,0.6109 z m -736.43571,-13.7659 c -0.54268,-1.4252 -0.42782,-1.54 0.5598,-0.5598 0.68342,0.6784 0.99067,1.4853 0.68278,1.7932 -0.30789,0.3078 -0.86705,-0.2472 -1.24258,-1.2334 z M 1153.0306,1016.5 c 0,-0.55 0.4362,-1.675 0.9694,-2.5 0.5332,-0.825 0.9694,-1.05 0.9694,-0.5 0,0.55 -0.4362,1.675 -0.9694,2.5 -0.5332,0.825 -0.9694,1.05 -0.9694,0.5 z m -764.40706,-14.0387 c -0.96498,-2.51465 -0.68031,-3.16351 0.49853,-1.1363 0.58369,1.0038 0.8506,2.0357 0.59313,2.2931 -0.25747,0.2575 -0.74872,-0.2631 -1.09166,-1.1568 z m 774.45536,-14.04463 c 0.048,-1.16495 0.285,-1.4019 0.6042,-0.60417 0.2889,0.72187 0.2534,1.58438 -0.079,1.91667 -0.3323,0.33229 -0.5687,-0.25834 -0.5253,-1.3125 z m -783.99995,-13 c 0.048,-1.16495 0.28494,-1.4019 0.60416,-0.60417 0.28887,0.72187 0.25335,1.58438 -0.0789,1.91667 -0.33229,0.33229 -0.56864,-0.25834 -0.52522,-1.3125 z M 1167.1406,975 c 0,-0.825 0.3867,-2.4 0.8594,-3.5 0.5417,-1.26064 0.8594,-1.44548 0.8594,-0.5 0,0.825 -0.3867,2.4 -0.8594,3.5 -0.5417,1.26064 -0.8594,1.44548 -0.8594,0.5 z M 374.625,960.875 c -0.83365,-4.16825 -0.0258,-4.97614 0.875,-0.875 0.37968,1.72866 0.48187,3.35146 0.22711,3.60623 -0.25477,0.25477 -0.75072,-0.97429 -1.10211,-2.73123 z m 797.4539,-3.45833 c 0.048,-1.16495 0.285,-1.4019 0.6042,-0.60417 0.2889,0.72187 0.2534,1.58438 -0.079,1.91667 -0.3323,0.33229 -0.5687,-0.25834 -0.5253,-1.3125 z M 370.15789,945 c 0,-1.375 0.22698,-1.9375 0.50439,-1.25 0.27741,0.6875 0.27741,1.8125 0,2.5 -0.27741,0.6875 -0.50439,0.125 -0.50439,-1.25 z m 807.00001,-7 c 0,-1.375 0.227,-1.9375 0.5044,-1.25 0.2774,0.6875 0.2774,1.8125 0,2.5 -0.2774,0.6875 -0.5044,0.125 -0.5044,-1.25 z M 365.15789,926 c 0,-1.375 0.22698,-1.9375 0.50439,-1.25 0.27741,0.6875 0.27741,1.8125 0,2.5 -0.27741,0.6875 -0.50439,0.125 -0.50439,-1.25 z m 817.03701,-10.5 c 0.02,-1.65 0.2445,-2.20394 0.4981,-1.23097 0.2535,0.97297 0.2369,2.32297 -0.037,3 -0.2739,0.67703 -0.4813,-0.11903 -0.461,-1.76903 z M 360.07895,904.41667 c 0.048,-1.16495 0.28494,-1.4019 0.60416,-0.60417 0.28887,0.72187 0.25335,1.58438 -0.0789,1.91667 -0.33229,0.33229 -0.56864,-0.25834 -0.52522,-1.3125 z M 1186.232,894 c 0,-1.925 0.2058,-2.7125 0.4573,-1.75 0.2516,0.9625 0.2516,2.5375 0,3.5 -0.2515,0.9625 -0.4573,0.175 -0.4573,-1.75 z M 356.19495,883.5 c 0.0204,-1.65 0.2445,-2.20394 0.49804,-1.23097 0.25354,0.97297 0.23687,2.32297 -0.0371,3 -0.27393,0.67703 -0.48137,-0.11903 -0.46099,-1.76903 z M 1191.2724,860 c 0,-2.475 0.195,-3.4875 0.4333,-2.25 0.2384,1.2375 0.2384,3.2625 0,4.5 -0.2383,1.2375 -0.4333,0.225 -0.4333,-2.25 z M 351.232,852 c 0,-1.925 0.2058,-2.7125 0.45733,-1.75 0.25152,0.9625 0.25152,2.5375 0,3.5 -0.25153,0.9625 -0.45733,0.175 -0.45733,-1.75 z m 845.2358,-116.5 c 2e-4,-31.35 0.1269,-44.03046 0.2817,-28.1788 0.1548,15.85166 0.1547,41.50166 -3e-4,57 -0.1549,15.49834 -0.2815,2.5288 -0.2814,-28.8212 z m -850.07926,8 c 0.002,-7.15 0.16103,-9.94379 0.35396,-6.20841 0.19293,3.73537 0.19149,9.58537 -0.003,13 -0.19468,3.41462 -0.35253,0.35841 -0.35078,-6.79159 z M 1200.4634,336 c 0,-27.225 0.1286,-38.3625 0.2858,-24.75 0.1571,13.6125 0.1571,35.8875 0,49.5 -0.1572,13.6125 -0.2858,2.475 -0.2858,-24.75 z m -858.07486,25.5 c 0.002,-7.15 0.16103,-9.94379 0.35396,-6.20841 0.19293,3.73537 0.19149,9.58537 -0.003,13 -0.19468,3.41462 -0.35253,0.35841 -0.35078,-6.79159 z m -0.30959,-165.08333 c 0.048,-1.16495 0.28494,-1.4019 0.60416,-0.60417 0.28887,0.72187 0.25335,1.58437 -0.0789,1.91667 -0.33229,0.33229 -0.56864,-0.25834 -0.52522,-1.3125 z m 857.99995,-20 c 0.048,-1.16495 0.285,-1.4019 0.6042,-0.60417 0.2889,0.72187 0.2534,1.58437 -0.079,1.91667 -0.3323,0.33229 -0.5687,-0.25834 -0.5253,-1.3125 z"
         id="path20" />
      <path
         style="fill:#425a7d"
         d="m 768.5,1397.5696 c -0.55,-0.221 -5.05,-1.591 -10,-3.0444 -20.17667,-5.9244 -29.71098,-9.553 -44.31012,-16.8638 -14.70563,-7.3641 -15.68183,-7.8853 -16.18988,-8.6451 -0.275,-0.4112 -2.3,-1.7131 -4.5,-2.8931 -4.77876,-2.5631 -18.79107,-11.2156 -19.5,-12.041 -0.275,-0.3202 -4.325,-3.1929 -9,-6.3837 -15.11629,-10.3172 -29.39721,-20.9781 -36.6167,-27.3348 -1.16418,-1.025 -3.56663,-2.9741 -5.33877,-4.3313 -1.77213,-1.3572 -4.22427,-3.3822 -5.44918,-4.5 -1.22491,-1.1178 -4.22246,-3.7615 -6.66123,-5.8748 -22.13846,-19.1842 -52.3142,-49.6727 -67.74095,-68.4431 -2.84121,-3.457 -6.79692,-7.957 -8.79046,-10 -1.99355,-2.043 -5.0113,-5.7395 -6.70611,-8.2145 -1.69481,-2.475 -6.04792,-8.1 -9.67358,-12.5 -3.62567,-4.4 -8.82657,-11.0705 -11.55757,-14.8233 -2.731,-3.7529 -5.97795,-8.0928 -7.21545,-9.6444 -1.2375,-1.5515 -2.25,-3.2401 -2.25,-3.7523 0,-0.5123 -1.125,-1.9883 -2.5,-3.28 -1.375,-1.2917 -2.5,-2.8667 -2.5,-3.5 0,-0.6333 -1.125,-2.2083 -2.5,-3.5 -1.375,-1.2917 -2.5,-2.7222 -2.5,-3.1788 0,-0.4567 -2.025,-3.7274 -4.5,-7.2684 -2.475,-3.5409 -4.5,-6.7659 -4.5,-7.1667 0,-0.4007 -0.6927,-1.494 -1.53934,-2.4296 C 474.57892,1145.8772 459,1120.0334 459,1118.9911 c 0,-0.4104 -0.63621,-1.2742 -1.4138,-1.9196 -0.77759,-0.6453 -2.3599,-3.0629 -3.51625,-5.3724 -1.15634,-2.3095 -3.44322,-6.4491 -5.08196,-9.1991 -1.63874,-2.75 -3.23928,-5.675 -3.55676,-6.5 -0.31747,-0.825 -1.07957,-2.4 -1.69354,-3.5 -7.63815,-13.6846 -14.1732,-27.0795 -23.66193,-48.5 -4.50726,-10.175 -9.06944,-20.3 -10.13817,-22.5 -1.06873,-2.2 -1.9419,-4.5775 -1.94037,-5.2832 0.002,-0.7058 -1.12222,-3.5034 -2.49722,-6.2168 -1.375,-2.7134 -2.5,-5.6384 -2.5,-6.5 0,-0.8616 -1.125,-3.78657 -2.5,-6.5 -1.375,-2.71343 -2.5,-5.50228 -2.5,-6.19743 0,-0.69515 -0.84641,-3.52261 -1.8809,-6.28324 -3.23596,-8.63542 -4.22112,-11.61614 -8.76491,-26.51933 -6.13676,-20.12798 -11.23219,-39.11849 -12.88401,-48.01832 -0.76748,-4.13508 -2.08724,-9.47915 -2.9328,-11.87573 C 370.69182,895.70938 370,892.07711 370,890.03424 c 0,-2.04288 -0.9,-7.23328 -2,-11.53424 -1.1,-4.30096 -2.00807,-9.43544 -2.01794,-11.40996 -0.01,-1.97452 -0.72391,-7.86504 -1.58677,-13.09004 -3.12926,-18.94899 -3.41095,-23.21238 -4.45985,-67.5 -1.77551,-74.96683 -2.79828,-159.16479 -3.39512,-279.5 -0.31235,-62.975 -1.00775,-128.45 -1.54532,-145.5 -0.53758,-17.05 -1.24309,-59.4066 -1.56779,-94.12577 -0.57608,-61.59622 -0.54206,-63.23176 1.40384,-67.5 2.37405,-5.20737 4.32856,-6.73525 19.25716,-15.05371 18.84375,-10.50004 42.90916,-22.02083 66.41179,-31.7932 4.4,-1.82951 9.35,-3.8932 11,-4.58597 1.65,-0.69277 6.825,-2.671 11.5,-4.39606 4.675,-1.72506 10.75,-3.98713 13.5,-5.02682 6.83184,-2.58291 21.15234,-7.27193 32,-10.47788 4.95,-1.46294 11.7,-3.50766 15,-4.54382 17.21506,-5.40532 55.07555,-14.13848 78.5,-18.10734 6.325,-1.07166 13.075,-2.39503 15,-2.94083 3.06758,-0.86974 16.40878,-2.79312 42,-6.055054 4.125,-0.525785 14.925,-1.643675 24,-2.4842 9.075,-0.840525 21.9,-2.043255 28.5,-2.672734 15.63448,-1.491147 134.08852,-1.465417 148,0.03215 5.5,0.592072 18.325,1.794009 28.5,2.67097 10.175,0.876961 21.425,2.002309 25,2.500773 3.575,0.498464 13.7,1.842862 22.5,2.987551 8.8,1.144684 18.025,2.540224 20.5,3.101184 2.475,0.56096 9.9,1.91721 16.5,3.0139 30.6263,5.08899 75.1174,15.43599 100,23.25632 2.75,0.8643 10.4,3.24052 17,5.2805 6.6,2.03999 12.45,4.01524 13,4.38947 0.55,0.37422 3.025,1.25178 5.5,1.95013 2.475,0.69836 5.85,1.83222 7.5,2.51971 1.65,0.68749 6.825,2.72639 11.5,4.5309 7.6316,2.94573 15.8365,6.34545 26,10.77321 9.4035,4.09667 29.7396,14.37295 31.5872,15.96178 1.148,0.98716 2.8458,3.45957 3.7729,5.49424 1.9039,4.17817 1.9132,-4.35076 -0.2027,186.3006 -0.6409,57.75 -1.6595,151.125 -2.2635,207.5 -2.705,252.46591 -2.7884,255.81051 -7.1777,288 -4.7245,34.64708 -7.8901,51.37811 -14.9473,79 -2.178,8.525 -4.3632,17.16041 -4.856,19.1898 -0.4928,2.02939 -1.7539,6.07939 -2.8026,9 -1.0486,2.92061 -2.1662,6.77269 -2.4834,8.56017 -0.3173,1.78749 -1.4881,5.2503 -2.6019,7.69514 -1.1137,2.44484 -2.0278,5.25735 -2.0312,6.25003 0,0.99267 -0.6947,3.12539 -1.5364,4.73936 -0.8416,1.61398 -1.921,4.539 -2.3987,6.5 -0.4776,1.961 -1.8669,6.0405 -3.0872,9.0655 -3.3518,8.3083 -6.98,17.0052 -9.0849,21.7768 -1.0376,2.3522 -1.8866,4.6997 -1.8866,5.2167 0,0.517 -2.2589,5.7925 -5.0198,11.7232 -2.7609,5.9308 -5.8434,12.5833 -6.85,14.7833 -2.7502,6.0107 -8.9239,18.6011 -10.7877,22 -0.9048,1.65 -2.0904,3.8828 -2.6346,4.9619 -1.932,3.8306 -8.9,16.4935 -12.5396,22.7881 -1.1926,2.0625 -3.114,5.4375 -4.2698,7.5 -1.1558,2.0625 -2.7308,4.4604 -3.5,5.3287 -0.7692,0.8683 -1.3985,1.8762 -1.3985,2.2398 0,0.3636 -1.9125,3.7274 -4.25,7.4752 -2.3375,3.7478 -4.7,7.5354 -5.25,8.417 -0.55,0.8816 -2.9125,4.3961 -5.25,7.8101 -2.3375,3.4139 -4.25,6.5274 -4.25,6.9188 0,0.3915 -1.125,1.7687 -2.5,3.0604 -1.375,1.2917 -2.5,2.8754 -2.5,3.5193 0,0.6439 -0.9,1.9852 -2,2.9807 -1.1,0.9955 -2,2.3368 -2,2.9807 0,0.6439 -1.125,2.2276 -2.5,3.5193 -1.375,1.2917 -2.5,2.7265 -2.5,3.1884 0,0.4619 -1.9125,3.2546 -4.25,6.2059 -2.3375,2.9513 -5.375,6.8545 -6.75,8.6737 -4.3784,5.7931 -30.5186,37.3118 -33.5672,40.4739 -1.6131,1.6731 -6.75098,7.2404 -11.41763,12.3719 -11.99681,13.1917 -31.25759,32.0568 -46.03183,45.0862 -4.05375,3.575 -8.0857,7.175 -8.95989,8 -0.87419,0.825 -3.22314,2.7307 -5.21988,4.2349 -1.99675,1.5041 -4.2319,3.329 -4.96701,4.0553 -2.1437,2.1178 -25.08242,20.1121 -27.94625,21.9224 -1.43533,0.9073 -3.23533,2.2431 -4,2.9685 -0.76467,0.7254 -3.41531,2.6576 -5.89031,4.2937 -2.475,1.6361 -7.05332,4.8986 -10.17404,7.25 -3.12073,2.3514 -5.92455,4.2752 -6.23071,4.2752 -0.30616,0 -3.82784,2.1883 -7.82596,4.8629 -3.99811,2.6746 -8.61929,5.6122 -10.26929,6.5279 -1.65,0.9158 -4.35,2.4778 -6,3.4713 -1.65,0.9934 -5.025,2.9387 -7.5,4.3228 -2.475,1.3842 -9.675,5.4121 -16,8.951 -13.56303,7.5887 -21.62152,11.5303 -32.51427,15.9038 -6.43231,2.5825 -9.73645,3.2768 -16.98573,3.569 -4.95,0.1995 -9.45,0.1819 -10,-0.039 z m 20.5,-28.7613 c 4.125,-1.6206 10.875,-4.773 15,-7.0053 27.29525,-14.7712 51.79262,-29.4645 65.9068,-39.5305 4.17626,-2.9784 10.25227,-7.2957 13.50224,-9.5939 5.40846,-3.8246 18.21014,-13.918 37.59096,-29.6382 24.84737,-20.1543 77.5747,-75.7174 97,-102.2168 1.925,-2.626 6.6843,-8.9481 10.5763,-14.0491 17.4786,-22.9083 42.4383,-63.3927 57.8145,-93.7745 8.8034,-17.3948 24.853,-53.3329 29.4749,-66 1.1038,-3.025 3.0857,-8.425 4.4042,-12 6.0204,-16.32296 19.2908,-61.24059 20.8564,-70.59446 0.469,-2.80195 1.5324,-7.02103 2.3632,-9.37573 0.8308,-2.35469 1.5105,-5.61221 1.5105,-7.23892 0,-1.62672 0.9043,-6.49928 2.0095,-10.82792 1.1052,-4.32864 2.4295,-11.60362 2.9429,-16.16661 0.5135,-4.563 1.6195,-11.9821 2.4579,-16.4869 0.8383,-4.50479 2.4628,-18.67979 3.6099,-31.5 1.866,-20.85609 2.1772,-34.51882 2.9566,-129.80946 0.4791,-58.575 1.1499,-124.725 1.4906,-147 0.9424,-61.60039 3.5037,-306.9559 3.5191,-337.09913 l 0.014,-26.59912 -9.75,-4.57448 c -11.0504,-5.1846 -27.3866,-12.1672 -37.75,-16.13559 -3.85,-1.47425 -7.9677,-3.08043 -9.1505,-3.56929 -3.3644,-1.39056 -37.0611,-12.55806 -44.8495,-14.86369 -30.3555,-8.98619 -60.9531,-16.07631 -95.5,-22.12939 -25.61327,-4.48779 -29.94441,-5.18842 -40.5,-6.55149 -6.05,-0.78125 -14.375,-1.87721 -18.5,-2.43547 -4.125,-0.55826 -15.6,-1.74217 -25.5,-2.63091 -9.9,-0.88873 -21.6,-1.98626 -26,-2.43894 -4.4,-0.45269 -28.475,-1.14574 -53.5,-1.54013 -44.82515,-0.70644 -82.41479,0.25836 -100,2.56665 -4.125,0.54147 -16.5,1.89475 -27.5,3.00731 -21.30906,2.15523 -47.50133,5.54193 -50.69166,6.5545 -1.06195,0.33705 -6.96576,1.44906 -13.11958,2.47112 -23.75895,3.94604 -60.48563,12.46675 -83.18876,19.30005 -4.4,1.32433 -11.825,3.55243 -16.5,4.95133 -18.15224,5.4317 -44.27301,15.17647 -69.5,25.9281 -15.64908,6.66957 -51.43465,24.22073 -58.7708,28.82434 l -4.7708,2.9938 0.34324,66.23521 c 0.18878,36.42937 1.08614,121.13522 1.99414,188.23522 0.90799,67.1 2.10246,169.25 2.65438,227 1.01785,106.50366 1.11135,110.03694 3.63808,137.48142 2.56813,27.89421 11.15282,75.24117 16.52433,91.13632 1.04413,3.08976 2.32475,7.58976 2.84583,10 0.52107,2.41024 1.83521,7.08226 2.9203,10.38226 1.08508,3.3 2.95572,9.375 4.15696,13.5 1.20125,4.125 2.99453,9.75 3.98508,12.5 0.99055,2.75 3.00497,8.375 4.47649,12.5 7.51714,21.0723 11.76391,31.6796 18.61673,46.5 16.06353,34.7401 18.92705,40.5937 27.65678,56.5359 20.7464,37.8872 47.21224,78.4731 68.05522,104.3639 4.02928,5.0051 9.17792,11.5752 11.44142,14.6002 4.47679,5.9829 9.73559,12.0089 31.5402,36.1414 28.79331,31.8673 67.2731,65.2818 103.69242,90.0428 18.2637,12.4173 42.7888,26.5591 52.5,30.273 1.925,0.7361 5.975,2.3551 9,3.5976 10.72923,4.4072 30.39108,9.8427 33.5,9.2612 1.65,-0.3087 6.375,-1.8872 10.5,-3.5077 z m -19,-8.421 c -2.475,-0.8002 -8.775,-2.8407 -14,-4.5345 -45.19325,-14.6503 -118.14054,-68.3138 -168.24435,-123.7684 -22.13108,-24.4946 -27.16059,-30.2474 -30.54928,-34.9424 -1.72999,-2.3969 -6.30256,-8.2469 -10.16126,-13 -28.87364,-35.5662 -63.93944,-91.6752 -84.45819,-135.142 -10.69101,-22.6478 -19.25591,-41.8215 -22.17334,-49.63814 -1.40859,-3.77402 -3.91199,-10.46186 -5.56311,-14.86186 -1.65111,-4.4 -5.17749,-14.75 -7.83638,-23 -2.6589,-8.25 -5.796,-17.925 -6.97132,-21.5 -1.17533,-3.575 -2.5633,-8.47202 -3.08437,-10.88226 -0.52108,-2.41024 -1.8017,-6.91024 -2.84583,-10 -5.37151,-15.89515 -13.9562,-63.24211 -16.52433,-91.13632 -2.52673,-27.44448 -2.62023,-30.97776 -3.63808,-137.48142 -0.55192,-57.75 -1.74575,-159.9 -2.65295,-227 -0.9072,-67.1 -1.80517,-149.7727 -1.99549,-183.71711 l -0.34604,-61.71712 5.27216,-3.03726 C 421.29006,199.4381 480.11081,174.72322 515,164.28333 c 4.675,-1.3989 12.1,-3.627 16.5,-4.95133 22.70313,-6.8333 59.42981,-15.35401 83.18876,-19.30005 6.15382,-1.02206 12.05763,-2.13407 13.11958,-2.47112 3.19033,-1.01257 29.3826,-4.39927 50.69166,-6.5545 11,-1.11256 23.375,-2.46584 27.5,-3.00731 17.15766,-2.25217 55.13432,-3.27475 96.5,-2.5984 23.1,0.37769 45.825,1.07462 50.5,1.54873 4.675,0.47411 16.6,1.5856 26.5,2.47 9.9,0.88439 21.375,2.06474 25.5,2.623 4.125,0.55826 12.45,1.65422 18.5,2.43547 10.55559,1.36307 14.88673,2.0637 40.5,6.55149 65.8151,11.53169 120.6569,27.53521 174.4476,50.90602 7.6712,3.33296 14.3774,6.48967 14.9027,7.01493 0.9445,0.94456 -0.1894,149.00968 -2.4089,314.54974 -0.5605,41.8 -1.4278,124.825 -1.9274,184.5 -0.8132,97.12627 -1.127,110.94346 -2.9939,131.80946 -1.147,12.82021 -2.7715,26.99521 -3.6098,31.5 -0.8384,4.5048 -1.9444,11.9239 -2.4579,16.4869 -0.5134,4.56299 -1.8377,11.83797 -2.9429,16.16661 -1.1052,4.32864 -2.0095,9.2012 -2.0095,10.82792 0,1.62671 -0.6797,4.88423 -1.5105,7.23892 -0.8308,2.3547 -1.8942,6.57378 -2.3632,9.37573 -2.3628,14.11655 -18.6511,66.06325 -28.0148,89.34446 -1.1613,2.8875 -2.9564,7.3875 -3.9891,10 -4.0955,10.361 -17.6168,39.4574 -24.0487,51.75 -14.8462,28.3743 -39.4985,67.8331 -54.9788,88 -3.3775,4.4 -8.008,10.475 -10.2901,13.5 -22.32122,29.5876 -70.91465,80.8347 -95.8048,101.0365 -19.1044,15.5059 -32.16925,25.8081 -37.59096,29.6421 -3.24997,2.2982 -9.28404,6.5772 -13.40904,9.5089 -15.42693,10.9641 -26.32203,17.5601 -60.04421,36.3513 -10.18597,5.676 -23.89276,11.5123 -26.73182,11.3823 -0.94818,-0.043 -3.74897,-0.7337 -6.22397,-1.5338 z m 21.58335,-234.2997 c -0.28688,-4.6244 -1.05281,-6.9096 -3.51556,-10.4891 -6.43203,-9.3486 -7.54721,-16.8937 -3.70961,-25.0985 3.01239,-6.4405 7.76458,-11.0131 13.46377,-12.955 6.25115,-2.13 8.97466,-1.949 14.86865,0.9881 6.66556,3.3216 10.51137,8.7996 11.07051,15.7689 0.54382,6.7783 -2.34643,11.3374 -8.91249,14.0587 C 805.69093,1112.156 797,1107.3031 797,1098.3942 c 0,-4.6886 2.50492,-8.3942 5.67431,-8.3942 1.42173,0 1.3463,0.3492 -0.5,2.3145 -3.86054,4.1093 -2.51599,10.4232 2.80567,13.1751 9.47312,4.8988 19.09773,-4.4051 15.47079,-14.9551 -5.21875,-15.1804 -25.97156,-15.3529 -32.9917,-0.2744 -4.38101,9.41 -2.78574,17.4692 5.00705,25.2953 11.75779,11.8079 29.37176,10.4187 43.458,-3.4276 3.31651,-3.26 6.79723,-7.9418 8.27296,-11.1278 4.55112,-9.8254 5.14134,-16.3687 4.36238,-48.3624 -0.78832,-32.3782 -0.11374,-38.8202 5.40727,-51.6376 2.64272,-6.13527 2.77097,-7.10321 2.28547,-17.25 -0.2829,-5.9125 -0.82315,-10.75 -1.20057,-10.75 -0.72237,0 -17.52917,26.133 -20.45672,31.8083 -3.8111,7.3881 -5.59491,17.9101 -5.59491,33.0021 v 14.4906 l -2.75,-4.0359 c -3.11831,-4.5764 -7.20519,-8.1914 -12.09682,-10.7002 -2.69607,-1.3827 -3.2251,-2.1392 -2.72078,-3.8906 0.34432,-1.1959 1.55015,-8.2493 2.67962,-15.6743 3.392,-22.29858 1.2703,-34.75932 -8.30069,-48.75 -1.59908,-2.3375 -3.269,-4.25 -3.71095,-4.25 -0.44195,0 -1.61649,3.0375 -2.61011,6.75 -0.99361,3.7125 -2.70269,8.61644 -3.79795,10.89764 -1.91934,3.99758 -1.92897,4.30365 -0.26611,8.45956 2.90935,7.27118 3.13747,16.3765 0.59858,23.8928 -4.8872,14.4684 -12.87456,20.3738 -26.77825,19.7984 l -7.21131,-0.2984 4.0531,-6.1608 4.0531,-6.1608 -7.20502,-9.1216 c -3.96276,-5.0168 -7.3319,-8.9945 -7.48697,-8.8392 -0.15508,0.1553 -5.94679,7.2494 -12.87048,15.7645 -8.84104,10.8733 -13.77123,16.0855 -16.5615,17.509 -4.70317,2.3994 -10.58533,7.7533 -13.16407,11.982 l -1.84591,3.0269 -0.004,-14.59 c -0.003,-11.2458 -0.45645,-16.3602 -1.97876,-22.3123 C 706.35737,1005.1684 695.0019,982.25221 684.94354,967 665.19751,937.05764 658.8944,925.66719 654.50833,912 c -3.04836,-9.49881 -3.25434,-12.22452 -3.92961,-52 -0.48327,-28.46652 -1.16193,-32.55268 -7.37659,-44.41408 C 638.5787,806.76109 629.50406,797.55668 616,787.99456 c -35.42443,-25.08378 -54.60177,-57.41938 -60.03551,-101.228 -1.69195,-13.64113 -1.0086,-21.50267 2.08697,-24.00932 3.68631,-2.98499 7.56785,-1.83761 26.44854,7.81815 9.35,4.78168 21.95,10.68226 28,13.11239 25.11436,10.08781 44.54643,23.11329 56.3254,37.7554 3.17144,3.94233 8.83385,13.11312 12.58313,20.37954 7.49234,14.52078 13.37053,21.92373 19.92927,25.09876 C 710.44676,771.33105 716,768.69762 716,759.96845 716,753.13705 713.20735,745.24351 704.51303,727.5 683.33935,684.28845 656.32667,653.58284 615.5,626.31793 c -11.0108,-7.35324 -21.87418,-13.8853 -30.5,-18.3394 -17.36454,-8.96649 -28.29855,-20.39152 -32.51675,-33.97703 -0.71725,-2.31004 -0.46753,-2.22002 3.31076,1.19343 7.11248,6.42571 9.59572,7.31404 20.20599,7.22834 14.23032,-0.11495 21.51827,-4.20684 24.01643,-13.48428 1.2421,-4.61282 0.36673,-8.86994 -4.47958,-21.78498 C 586.95241,524.27714 581.18943,493.09895 580.3515,465 c -0.94209,-31.59158 1.86378,-42.79441 15.82297,-63.17537 7.37749,-10.77143 23.16357,-27.53343 37.82553,-40.16395 5.775,-4.97487 10.65614,-9.15233 10.84697,-9.28325 0.19084,-0.13092 -1.04956,-3.0819 -2.75644,-6.55774 -1.70688,-3.47583 -3.77936,-9.46969 -4.60551,-13.31969 -1.76503,-8.22535 -2.01211,-28.98888 -0.45082,-37.88578 1.33132,-7.58646 5.49062,-21.27127 7.48113,-24.61422 1.40038,-2.35184 1.44683,-2.17406 0.78379,3 -0.38765,3.025 -0.69206,15.625 -0.67647,28 0.029,23.02949 1.22305,32.93337 4.80584,39.86172 3.01268,5.82587 3.1938,5.76453 17.85071,-6.04496 14.88254,-11.99129 14.42478,-11.84997 18.74251,-5.78626 l 1.92836,2.70812 -10.22504,7.86854 c -22.637,17.42003 -57.51331,49.86226 -68.68657,63.89284 -9.60334,12.05919 -13.00578,22.52744 -13.00099,40 0.005,18.77589 3.01184,31.36519 8.99242,37.65208 5.75499,6.04975 11.41499,5.25346 20.04648,-2.82028 7.53325,-7.04648 9.63858,-10.30037 36.44781,-56.3318 13.61386,-23.375 24.90153,-42.67381 25.08372,-42.88624 0.18218,-0.21242 2.69091,0.62887 5.57495,1.86955 7.81548,3.36213 12.97103,2.49155 35.31715,-5.96378 10.45,-3.95407 21.5871,-8.16354 24.74911,-9.35438 3.16201,-1.19083 5.74951,-2.46475 5.75,-2.83093 4.9e-4,-0.36618 -5.06161,-4.0017 -11.24911,-8.07894 -15.01625,-9.89492 -24.32202,-17.53789 -35.78807,-29.39331 C 690.9235,304.64307 679.33011,282.84878 678.32065,264 c -0.50889,-9.50208 0.91003,-13.69468 5.86331,-17.32486 5.56012,-4.07492 23.78955,-3.27178 40.7105,1.79359 6.3938,1.91401 24.94301,9.07656 25.89824,10.00029 0.75586,0.73093 -7.33622,4.6127 -8.71927,4.18263 -0.86539,-0.2691 -5.62343,-2.26951 -10.57343,-4.44537 -16.77788,-7.375 -34.64268,-10.25234 -41.53273,-6.68935 -8.54142,4.41694 -8.00648,18.87098 1.36872,36.98307 5.95636,11.50718 13.78081,21.39735 27.30433,34.51291 16.96764,16.45578 33.27628,28.25109 45.35968,32.80661 4.70263,1.77293 10.70691,0.86257 17.73712,-2.68929 4.71387,-2.38157 21.57628,-14.48299 32.82932,-23.56018 2.11479,-1.70588 2.68786,-1.77191 4.93598,-0.56875 1.39888,0.74865 2.38558,1.84213 2.19267,2.42995 -0.51715,1.57578 -20.6269,17.61856 -30.93476,24.67855 -4.91289,3.3649 -8.55628,6.4824 -8.09643,6.92777 0.9927,0.96143 16.45589,7.15068 35.28971,14.12496 16.71338,6.18907 22.60584,6.94296 29.86354,3.82078 2.88404,-1.24068 5.39429,-2.08197 5.57833,-1.86955 0.18404,0.21243 11.46752,19.51124 25.07439,42.88624 13.60688,23.375 26.24566,44.55539 28.08618,47.06754 4.30131,5.87089 12.65192,13.68083 15.98145,14.94672 10.29159,3.91285 17.70866,-4.82854 20.50437,-24.16541 1.35511,-9.37276 1.12054,-25.4188 -0.48212,-32.97992 -2.98502,-14.0829 -8.71647,-21.93166 -34.24505,-46.89583 -30.3358,-29.66512 -67.30821,-59.03091 -108.16409,-85.91067 l -11.30473,-7.43757 2.32706,-1.81541 c 5.58584,-4.35767 4.94793,-4.62434 32.82706,13.72299 20.16116,13.2681 33.0899,22.65249 51.35032,37.27287 9.31556,7.45859 12.05059,9.18933 12.78659,8.09138 6.06059,-9.04097 7.36309,-17.62953 7.36309,-48.55154 0,-14.38516 0.3236,-25.95469 0.71911,-25.71007 1.4582,0.9019 5.71169,16.40367 6.85979,25.00041 1.45192,10.87162 0.63896,31.56754 -1.56351,39.80301 -0.87349,3.26618 -2.63791,8.53741 -3.92093,11.71384 l -2.33277,5.77534 6.11916,5.25666 c 27.47461,23.60205 42.62532,41.19433 51.57575,59.88728 5.80004,12.1134 7.41501,23.68002 6.6919,47.92838 -0.83793,28.09895 -6.60091,59.27714 -15.18535,82.15401 -4.84631,12.91504 -5.72168,17.17216 -4.47958,21.78498 2.49816,9.27744 9.78611,13.36933 24.01643,13.48428 10.61027,0.0857 13.09351,-0.80263 20.20599,-7.22834 3.77829,-3.41345 4.02801,-3.50347 3.31076,-1.19343 -2.92778,9.42946 -10.88782,20.02148 -19.85547,26.42066 -3.52839,2.51781 -6.6838,4.57784 -7.01202,4.57784 -0.32821,0 -6.57107,3.43172 -13.87301,7.62605 C 892.54668,643.77623 860.43704,676.93408 835.5338,727.5 826.3902,746.06605 824,752.83877 824,760.1815 c 0,8.50442 5.65115,11.10216 14.6622,6.73998 6.55874,-3.17503 12.43693,-10.57798 19.92927,-25.09876 3.74928,-7.26642 9.41169,-16.43721 12.58313,-20.37954 11.77233,-14.63386 31.16542,-27.6366 56.3254,-37.76524 6.05,-2.43555 18.65,-8.3379 28,-13.11634 18.91785,-9.66822 22.75531,-10.79495 26.48362,-7.77595 2.06389,1.67124 2.49648,3.02653 2.82287,8.84402 0.79643,14.19494 -4.5917,40.38499 -11.9399,58.03615 -9.19617,22.0902 -25.97401,42.11196 -48.89112,58.344 -13.48277,9.54976 -22.55732,18.75728 -27.17786,27.5761 -6.1532,11.7441 -6.88294,16.0426 -7.37023,43.41408 -0.86654,48.67387 -1.15183,50.97807 -8.14839,65.81121 -3.79589,8.04752 -12.27811,22.33229 -18.08664,30.45942 l -3.40961,4.77064 2.60934,2.0525 c 1.43513,1.12888 3.77678,4.04459 5.20365,6.47937 1.42687,2.43477 2.95575,4.42686 3.3975,4.42686 1.12304,0 28.991,-51.98548 31.84954,-59.4128 4.54355,-11.8055 5.17269,-17.38969 5.14985,-45.71001 -0.0248,-30.78132 0.80719,-38.55666 5.01859,-46.89941 4.09455,-8.11125 14.6532,-19.02304 25.40676,-26.25651 32.43955,-21.82072 55.25104,-59.75452 65.13303,-108.31142 2.107,-10.35292 2.5581,-15.00761 2.2777,-23.5014 -0.3206,-9.71109 -0.5759,-10.88826 -3.072,-14.16073 -3.83824,-5.03224 -9.9827,-7.20755 -18.01132,-6.3765 -10.27193,1.06326 -18.12385,4.04995 -34.47619,13.11397 -8.54048,4.73395 -18.28239,9.53415 -21.64867,10.66712 -3.36629,1.13296 -10.73719,4.23654 -16.37978,6.89684 -28.8292,13.59202 -47.22678,31.5916 -60.77468,59.45991 -3.47833,7.15499 -7.48114,14.09593 -8.89514,15.42432 L 840,750.34863 v -2.43227 c 0,-5.7364 21.38605,-40.08576 36.22408,-58.18159 16.73792,-20.41284 37.10711,-38.4905 58.27592,-51.71992 3.85,-2.40605 13.3,-7.50357 21,-11.32783 7.7,-3.82425 16.83403,-8.9564 20.29784,-11.40477 11.95582,-8.45088 21.9827,-23.56006 25.73696,-38.78225 2.0474,-8.30128 2.3351,-22.48001 0.5635,-27.76296 l -1.262,-3.76296 -4.63691,4.08161 C 984.746,559.13737 971.34313,566 963.10677,566 c -7.09544,0 -7.2704,-0.32728 -4.18238,-7.82358 C 971.69885,527.16585 978.88236,484.99969 977.69429,448 976.88186,422.69887 974.49023,413.60561 964.28076,397 957.04701,385.2344 949.66657,376.757 934.52849,362.82566 915.70777,345.50525 915.95412,345.84255 917.1272,339 c 1.41883,-8.27598 1.36663,-33.50497 -0.0868,-41.92952 -2.7278,-15.81183 -9.0401,-29.12837 -17.50683,-36.93272 -6.57991,-6.06516 -12.83478,-5.63531 -15.62852,1.07402 -1.42594,3.42449 -1.47446,5.09411 -1.05548,36.31964 0.14045,10.46729 -0.035,19.78824 -0.39,20.71322 -0.62751,1.63526 -3.42777,-0.0573 -15.63911,-9.45247 -1.54879,-1.19161 -1.40761,-1.99256 1.81417,-10.29217 5.67822,-14.62766 8.51195,-26.81338 8.63024,-37.11216 0.0921,-8.02042 -0.22285,-9.78155 -2.6289,-14.69935 -5.372,-10.97997 -13.87642,-14.69737 -33.56752,-14.67282 -18.7259,0.0233 -38.19803,4.79313 -61.79497,15.13697 l -9.22648,4.04448 -9.33069,-4.00225 C 735.78638,236.50156 717.4466,232 698.8111,232 c -19.57203,0 -28.09111,3.7412 -33.44712,14.68849 -2.40605,4.9178 -2.72102,6.67893 -2.6289,14.69935 0.11829,10.29878 2.95202,22.4845 8.63024,37.11216 3.22178,8.29961 3.36296,9.10056 1.81417,10.29217 -12.31326,9.47364 -15.00868,11.09562 -15.65588,9.42105 -0.36417,-0.94227 -0.5403,-10.26322 -0.39139,-20.71322 0.44254,-31.05612 0.39103,-32.85794 -1.03732,-36.28822 C 654.48705,257.35043 652.35454,256 647.8648,256 c -7.20868,0 -19.44999,17.41654 -23.279,33.12063 -3.2156,13.18828 -3.90296,33.97016 -1.66629,50.37929 l 0.81783,5.99993 -10.11867,9.45799 c -27.01968,25.25547 -35.01366,34.88991 -43.59582,52.54216 -5.33575,10.97485 -7.04361,19.86165 -7.71975,40.16947 -1.23983,37.23812 6.76756,83.62847 19.34364,112.06623 l 2.31539,5.2357 -2.56466,0.64369 c -8.1066,2.03463 -20.48494,-2.96641 -33.81552,-13.66199 l -8.47694,-6.80133 -1.23261,3.67412 c -1.74577,5.20371 -1.44109,19.42754 0.59278,27.67411 3.67563,14.90328 12.90487,29.08654 24.72564,37.99773 3.47005,2.61593 11.25918,7.15156 17.30918,10.07918 42.70747,20.66633 72.72511,47.14741 100.23203,88.42309 10.13106,15.20222 18.38892,29.97072 19.01122,34 l 0.54055,3.5 -2.75019,-2.5 c -1.51261,-1.375 -5.10465,-7.4764 -7.98231,-13.55866 -2.87767,-6.08226 -7.62647,-14.63226 -10.55289,-19 -7.1761,-10.71044 -21.54782,-24.91801 -32.23915,-31.87091 -9.5278,-6.19623 -25.71398,-14.16498 -35.37978,-17.41812 -3.36628,-1.13297 -13.10819,-5.93317 -21.64867,-10.66712 -17.03198,-9.44074 -24.61316,-12.26862 -35.26911,-13.15583 -5.93164,-0.49387 -7.68727,-0.25493 -11.16578,1.51967 -7.12485,3.63483 -8.7266,6.99462 -9.12761,19.1459 -0.84458,25.59175 12.98712,68.0883 30.93241,95.03686 8.14384,12.22966 24.60813,28.82396 36.39928,36.68671 10.7886,7.19421 21.36523,18.09056 25.48879,26.25928 4.20666,8.33336 5.05086,16.17587 4.9959,46.41104 -0.0759,41.73837 -1.60655,37.51937 38.31621,105.61118 22.00551,37.5323 22.1514,38.082 21.13964,79.6376 -0.77896,31.9937 -0.18874,38.537 4.36238,48.3624 3.20326,6.9155 12.2001,15.8759 19.55228,19.473 6.49909,3.1797 14.39543,3.7313 22.1448,1.547 9.52236,-2.684 17.5,-13.2554 17.5,-23.1897 0,-9.5981 -9.69785,-19.8303 -18.79465,-19.8303 -14.5114,0 -23.11457,16.4038 -13.24266,25.25 8.72611,7.8194 22.80245,-3.4844 14.863,-11.9355 -1.8463,-1.9653 -1.92173,-2.3145 -0.5,-2.3145 3.16939,0 5.67431,3.7056 5.67431,8.3942 0,8.9089 -8.69093,13.7618 -17.84862,9.9665 -6.56606,-2.7213 -9.45631,-7.2804 -8.91249,-14.0587 0.55914,-6.9693 4.40495,-12.4473 11.07051,-15.7689 5.89399,-2.9371 8.6175,-3.1181 14.86865,-0.9881 5.69919,1.9419 10.45138,6.5145 13.46377,12.955 3.8376,8.2048 2.72242,15.7499 -3.70961,25.0985 -2.46275,3.5795 -3.22868,5.8647 -3.51556,10.4891 L 748.04986,1132 H 770 791.95014 Z M 613.64908,462.2946 c -1.23597,-7.47924 -0.68877,-27.35275 0.92458,-33.57886 3.28064,-12.66041 10.93465,-23.74837 24.06901,-34.86751 31.92457,-27.02634 65.57671,-53.81901 66.73051,-53.12853 0.71712,0.42917 6.06192,4.58116 11.87732,9.22666 l 10.57345,8.44636 -13.16198,4.26174 c -7.23908,2.34396 -14.01915,4.2806 -15.06681,4.30364 -1.04766,0.0231 -3.61713,-1.7581 -5.70994,-3.9581 -2.96124,-3.11291 -4.54781,-4 -7.15404,-4 -1.8419,0 -4.06415,0.5625 -4.93831,1.25 -0.87417,0.6875 -7.76902,11.375 -15.32189,23.75 -12.73526,20.86606 -32.93143,53.9144 -43.1224,70.56404 -2.37808,3.88521 -5.39222,8.06778 -6.6981,9.29459 l -2.37432,2.23056 z m 309.34615,1.4482 C 921.62285,462.25844 908.125,440.47146 893,415.3273 c -36.35079,-60.43042 -32.00546,-54.05561 -37.39773,-54.86424 -4.28455,-0.6425 -4.71832,-0.48241 -7.93536,2.92864 -4.39552,4.66061 -5.94929,4.61257 -22.33379,-0.69045 l -13.16688,-4.26161 10.9531,-8.7651 c 6.02421,-4.82081 11.4993,-8.97386 12.16688,-9.229 2.80317,-1.07133 53.96976,41.57427 68.71378,57.27058 16.45119,17.51373 23.09842,32.66272 22.88169,52.14718 -0.0651,5.85018 -0.40472,11.97357 -0.75477,13.60753 l -0.63646,2.97083 z M 766.31999,337.53856 C 758.82553,334.27882 737.58748,318.0864 739,316.70911 c 1.41897,-1.38358 24.33648,-15.90192 27.43061,-17.37741 3.4931,-1.66575 3.737,-1.6488 8.32063,0.5781 6.1102,2.96856 22.45971,13.56082 24.62546,15.95395 1.59037,1.75734 1.45738,2.02884 -2.6003,5.30842 -8.12469,6.5667 -25.29681,17.93755 -26.86426,17.78869 -0.22668,-0.0215 -1.84314,-0.66156 -3.59215,-1.4223 z m -44.00573,-36.49636 -3.18573,-2.89917 12.18573,-7.95511 c 18.64458,-12.17158 24.95179,-15.85234 40.68018,-23.7401 32.77101,-16.43462 55.24138,-23.27003 73.09843,-22.2363 8.57361,0.49632 12.75963,2.66877 15.5538,8.0721 2.34959,4.54362 2.06462,16.53369 -0.59311,24.95462 -2.43745,7.72299 -7.45792,19.2756 -8.71405,20.05193 -0.46723,0.28877 -1.81264,-0.25487 -2.98979,-1.20807 l -2.14029,-1.7331 3.30855,-6.81318 c 6.02097,-12.39881 8.0866,-25.53223 4.96509,-31.56855 -5.32337,-10.29427 -26.7688,-7.13131 -62.98307,9.28927 -14.48204,6.56657 -30.42219,15.64723 -49.80026,28.36985 -8.69015,5.70548 -15.89015,10.36042 -16,10.3443 -0.10986,-0.0161 -1.63332,-1.33394 -3.38548,-2.92849 z M 703.66038,279.75 c -3.61792,-8.56623 -4.38399,-12.75 -2.3346,-12.75 5.35797,0 23.71556,6.292 22.34789,7.65966 C 722.55087,275.78247 707.46191,286 706.92659,286 c -0.3446,0 -1.8144,-2.8125 -3.26621,-6.25 z m 126.30391,3.85395 c -0.80536,-0.76782 -4.73451,-3.40986 -8.73144,-5.87118 l -7.26715,-4.47515 8.76715,-3.11274 c 4.82193,-1.712 10.72853,-3.53312 13.12577,-4.04692 l 4.35862,-0.93418 -0.6246,3.12303 C 838.85565,271.97174 832.98868,285 832.06625,285 c -0.35072,0 -1.29661,-0.62822 -2.10196,-1.39605 z m -93.37235,738.28765 7.7277,-9.1083 0.17356,-10.1417 c 0.19993,-11.68245 2.50993,-18.9487 8.1002,-25.47969 C 756.92902,972.09672 761.50938,970 768.23887,970 h 5.4366 l 2.57034,-5.25 c 1.41368,-2.8875 2.88054,-6.90424 3.25969,-8.9261 0.67507,-3.59992 0.60963,-3.69823 -3.15807,-4.74442 -8.98636,-2.49527 -20.05826,-0.36884 -29.00801,5.57117 -8.51915,5.65422 -15.09134,15.0636 -19.45202,27.84935 -2.09932,6.15532 -2.3874,8.81002 -2.3874,22 0,9.792 0.47912,16.6492 1.37996,19.75 0.75898,2.6125 1.51593,4.75 1.68212,4.75 0.16619,0 3.77963,-4.0988 8.02986,-9.1084 z m 50.49325,3.8584 c 7.45107,-10.2226 8.5814,-15.3094 4.16481,-18.7425 -4.16604,-3.2383 -13.68087,-14.41717 -21.07223,-24.7575 -3.63659,-5.0875 -7.18798,-9.25 -7.89199,-9.25 -2.10383,0 -9.28525,7.07864 -11.41328,11.24993 l -1.98268,3.88636 2.62407,4.47763 c 4.29754,7.33319 29.71153,37.38608 31.61524,37.38608 0.47208,0 2.25231,-1.9125 3.95606,-4.25 z m 3.81798,-40.05946 c 5.77314,-11.66108 8.10455,-21.6671 8.06194,-34.6005 -0.0426,-12.94246 -1.42378,-20.89424 -7.22376,-41.59004 -2.46619,-8.8 -8.23047,-29.6125 -12.80951,-46.25 C 774.3528,846.6125 770.33347,833 770,833 c -0.33347,0 -4.3528,13.6125 -8.93184,30.25 -4.57904,16.6375 -10.26329,37.225 -12.63168,45.75 C 743.02157,928.49093 741,939.23345 741,948.51701 v 7.29608 l 7.4002,-3.65655 c 7.20485,-3.56002 7.42914,-3.7828 8.49653,-8.43957 1.48979,-6.49962 4.11048,-11.36661 9.00218,-16.71832 l 4.11197,-4.49865 4.51447,4.99524 c 11.26934,12.46948 11.0911,29.92275 -0.48001,47.00476 -1.11769,1.65 -2.03513,3.5348 -2.03875,4.18845 -0.004,0.65365 2.7396,4.83292 6.09605,9.28727 4.76282,6.32075 6.39276,7.85803 7.4241,7.00209 0.72681,-0.6032 3.1462,-4.78247 5.37643,-9.28727 z m -95.7286,-69.09066 c 5.59988,-1.99995 11.13631,-6.89936 15.6296,-13.83129 6.3421,-9.78413 6.34042,-10.5726 -0.0406,-19.0313 -3.00279,-3.98051 -9.46391,-11.72764 -14.35804,-17.21585 C 685.63999,854.4491 658.14456,827 656.81741,827 c -0.5237,0 -0.73304,0.7875 -0.46519,1.75 0.97562,3.50581 1.70078,15.18309 2.15798,34.75 0.51331,21.96779 0.86756,25.60511 3.21402,33 5.2257,16.46886 19.53759,25.06869 33.45035,20.09988 z m -13.90386,-10.3029 c -3.53847,-0.68356 -8.85205,-7.74418 -10.64981,-14.15134 -3.83117,-13.65419 -0.26176,-26.18438 7.89491,-27.71458 8.85509,-1.66123 17.41895,9.43214 18.26948,23.66574 0.813,13.60557 -4.85843,20.25874 -15.51458,18.20018 z m 7.77518,-8.57878 c 7.05484,-5.55937 6.1785,-16.05519 -1.61231,-19.3104 -2.96097,-1.23717 -3.89734,-1.24087 -6.80289,-0.0268 -4.54075,1.89724 -6.63069,5.18107 -6.63069,10.41848 0,5.92064 4.08522,10.2152 9.67308,10.16877 2.1048,-0.0175 4.52257,-0.58 5.37281,-1.25 z m 172.58199,18.69098 c 4.58831,-1.88506 9.64661,-6.43654 13.04139,-11.73472 4.67028,-7.28883 6.15979,-16.43041 6.82014,-41.85735 0.33305,-12.82441 0.98174,-26.01711 1.44153,-29.31711 0.45979,-3.3 0.66842,-6.1825 0.46362,-6.40556 -1.51863,-1.65408 -42.61621,41.3426 -54.22156,56.72711 -5.49188,7.28026 -5.51563,7.3423 -4.2117,11 1.82026,5.10603 8.63331,14.63187 12.66361,17.70593 7.30577,5.57238 16.33401,7.03241 24.00297,3.8817 z m -12.20792,-11.24469 c -4.9046,-3.07071 -6.73998,-8.11896 -6.20525,-17.06769 1.36285,-22.80714 21.62291,-33.1388 26.89716,-13.71625 2.48745,9.16011 -0.84327,23.11375 -6.90302,28.91936 -3.73824,3.58146 -9.74855,4.39419 -13.78889,1.86458 z m 13.65696,-9.08757 C 865.41264,893.74121 866,892.27887 866,888.79943 c 0,-5.23741 -2.08994,-8.52124 -6.63069,-10.41848 -2.90555,-1.21402 -3.84192,-1.21032 -6.80289,0.0268 -3.72817,1.55773 -6.56642,5.9269 -6.56642,10.10828 0,9.22584 10.68231,13.95546 17.07692,7.56084 z M 666.99986,784.75 c -8e-5,-0.6875 -0.87739,-8.16136 -1.94957,-16.60858 l -1.94942,-15.35857 -6.30044,-5.57639 c -9.57446,-8.47418 -16.43214,-15.82309 -21.56477,-23.10952 -11.1339,-15.80601 -19.95077,-23.89043 -34.38689,-31.53026 -8.83528,-4.67577 -21.52178,-9.22701 -22.63026,-8.11852 -0.36335,0.36335 8.93034,10.20808 20.65266,21.87719 11.72231,11.6691 21.93084,22.33212 22.68563,23.6956 2.10415,3.80104 1.79209,10.26579 -0.6451,13.36417 -6.74009,8.56864 -19.77292,7.25974 -28.70041,-2.88242 C 588.34669,736.11228 588,735.92267 588,738.19949 c 0,4.50882 6.12979,14.96734 12.51461,21.35215 9.28132,9.28133 16.46947,12.44711 30.67531,13.50993 13.2061,0.98802 16.72506,2.07477 26.82821,8.28528 8.08089,4.96741 8.98194,5.30882 8.98173,3.40315 z m 215.33761,-3.59719 c 10.64899,-6.28988 13.41085,-7.12921 26.69346,-8.11214 13.9355,-1.03124 21.23242,-4.25761 30.37897,-13.4322 C 945.97473,753.02351 952,742.90686 952,738.46923 c 0,-2.67917 -0.10967,-2.62622 -4.21129,2.03347 -8.92749,10.14216 -21.96032,11.45106 -28.70041,2.88242 -2.88333,-3.66555 -2.78619,-10.081 0.21947,-14.49557 1.26927,-1.86425 11.50493,-12.4664 22.7459,-23.56032 11.24097,-11.09392 20.12966,-20.47923 19.75265,-20.85624 -1.13014,-1.13014 -13.73499,3.37303 -22.65509,8.09369 -14.43612,7.63983 -23.25299,15.72425 -34.38689,31.53026 -5.14128,7.29871 -11.98797,14.63265 -21.62524,23.16424 l -6.3609,5.63111 -1.87775,15.30386 C 872.81903,785.15995 872.75604,786 873.5655,786 c 0.31103,0 4.25841,-2.18124 8.77197,-4.84719 z M 774.80999,763.45113 c 13.71985,-10.38165 30.15615,-29.38155 40.95386,-47.34151 19.11051,-31.78672 32.52426,-72.73063 29.02966,-88.60962 -2.65656,-12.07105 -31.82345,-60.80994 -55.49611,-92.73594 l -6.47757,-8.73595 4.83827,-6.5894 4.83828,-6.5894 3.33302,3.82535 c 8.04457,9.23282 21.51475,28.23559 41.62478,58.72126 11.89037,18.02513 23.28993,34.31691 25.33234,36.20396 16.75478,15.48029 38.77642,8.96291 51.42907,-15.22061 5.89662,-11.27045 8.74526,-26.03845 8.75334,-45.37927 0.0116,-27.90554 -8.33684,-47.54242 -28.90974,-68 -12.22324,-12.15472 -20.77449,-17.47731 -34.44238,-21.43811 -15.31746,-4.43883 -34.24565,-3.11608 -46.00057,3.21461 -6.47466,3.48698 -23.34482,19.69062 -34.57,33.20419 -26.89725,32.38059 -63.08939,86.95088 -79.26766,119.51931 l -4.96747,10 0.56778,9.5 c 1.83408,30.68744 21.37988,74.94244 45.80994,103.72143 3.83848,4.52179 9.97878,10.83897 13.64511,14.03818 6.81999,5.95107 14.42133,12.14686 14.97605,12.20686 0.1705,0.0184 2.4205,-1.56346 5,-3.51534 z M 761.68062,732.75 c -25.65973,-25.75706 -46.12327,-70.07487 -44.45645,-96.27918 0.53343,-8.38623 4.05293,-17.10659 14.58639,-36.14114 C 743.9952,578.31136 767.51426,543 769.99488,543 c 2.49541,0 26.80566,35.14098 38.85947,56.1722 10.16528,17.73615 14.34549,28.09429 14.90465,36.93226 1.18253,18.69076 -9.01007,45.65944 -28.02586,74.15386 C 788.51555,721.07358 772.0369,740 769.83796,740 c -0.5141,0 -4.18491,-3.2625 -8.15734,-7.25 z M 875.40746,598.10672 C 870.8515,595.32853 867.28947,590.51231 845.74495,558 829.02108,532.76242 815.84164,514.23696 805.48997,501.41624 l -2.48988,-3.08375 7.37655,-7.94015 c 4.21636,-4.53851 9.67858,-9.21514 12.74996,-10.91625 C 828.21353,476.65866 829.1131,476.5 840,476.5 c 9.45467,0 12.81049,0.42924 18.86833,2.41345 25.96726,8.50541 46.27691,39.97806 47.80885,74.08655 0.77355,17.22287 -2.77816,30.60096 -10.66409,40.16796 -5.45676,6.61998 -14.35221,8.75205 -20.60563,4.93876 z M 671.988,618.92571 c 8.40522,-4.47993 16.88236,-13.98705 25.91734,-29.0663 30.34063,-50.63805 64.42059,-96.93324 86.65511,-117.71478 9.94703,-9.29702 24.39275,-19.35731 34.76158,-24.20867 3.75212,-1.75554 6.45212,-3.54722 6,-3.98151 -0.45211,-0.43428 -7.34703,-3.49754 -15.32203,-6.80722 -7.975,-3.30969 -16.075,-6.7448 -18,-7.63358 -3.49562,-1.61395 -3.49025,-1.6153 4.2977,-1.07353 9.44518,0.65704 19.20392,3.81043 31.17776,10.07459 8.08332,4.22883 9.49531,4.65245 14.20553,4.26184 5.79877,-0.48088 13.31226,-4.5056 16.54598,-8.86313 2.86442,-3.85987 3.36462,-10.07585 1.25526,-15.59912 -2.38007,-6.23213 -11.93689,-15.49574 -22.3033,-21.61901 C 830.16429,392.55185 772.37036,367 770.01325,367 c -2.39667,0 -59.95945,25.42199 -67.05787,29.61539 -10.489,6.1964 -20.04733,15.44004 -22.43761,21.69891 -2.10936,5.52327 -1.60916,11.73925 1.25526,15.59912 3.27987,4.41971 10.74139,8.38177 16.71837,8.87742 4.93766,0.40947 6.13911,0.0497 13.96494,-4.18164 11.33353,-6.12793 21.7129,-9.50592 31.24596,-10.16908 7.78795,-0.54177 7.79332,-0.54042 4.2977,1.07353 -1.925,0.88878 -10.025,4.32389 -18,7.63358 -7.975,3.30968 -14.86041,6.36343 -15.30091,6.7861 -0.44049,0.42266 3.0763,2.62889 7.8151,4.90273 11.04812,5.30126 21.43269,12.50988 28.87971,20.04731 l 5.89389,5.96545 -3.10611,3.92179 c -5.19178,6.55515 -5.41698,6.61864 -9.25719,2.6097 -8.76014,-9.14505 -23.50607,-17.33391 -36.01855,-20.00219 -14.86677,-3.17032 -33.90407,0.15259 -47.81681,8.34629 -21.15013,12.45606 -39.66913,44.49428 -43.15208,74.65392 -2.01333,17.43385 1.18216,39.07912 7.75428,52.5251 4.90963,10.04468 15.42717,20.8526 23.30867,23.9522 7.65007,3.00858 14.85773,2.40347 22.988,-1.92992 z M 650.29002,599.09384 C 635.10329,589.55703 631.49316,550.013 643.06923,520 657.15239,483.48691 688.15177,468.45673 718.5,483.42706 c 6.28234,3.09899 17.5,12.54457 17.5,14.7355 0,0.4448 -2.7176,4.07769 -6.0391,8.07309 -9.36183,11.26121 -22.11707,29.55884 -37.85584,54.30493 -17.03151,26.77866 -21.70112,33.2868 -26.52129,36.96332 -4.80238,3.66296 -10.97134,4.30429 -15.29375,1.58994 z M 763.6846,458.37873 c -3.19847,-2.97753 -8.0136,-6.89404 -10.70028,-8.70335 l -4.88488,-3.28967 10.33735,-4.69286 c 5.68554,-2.58107 10.95067,-4.69082 11.70028,-4.68834 1.47119,0.005 20.36293,8.70941 20.36293,9.38241 0,0.22383 -2.85742,2.51048 -6.34982,5.08144 -3.4924,2.57096 -8.2174,6.39563 -10.5,8.49926 L 769.5,463.79241 Z M 698,424.54047 c 0,-1.08068 6.12684,-6.12334 14.5,-11.93413 6.93591,-4.81338 14.56157,-8.60268 33.25,-16.52245 l 24.25,-10.27664 24.25,10.32177 c 24.14667,10.27779 35.19784,16.46572 44.39802,24.85998 5.66311,5.16704 2.49108,5.02116 -10.88174,-0.50043 -24.75436,-10.221 -23.51053,-9.85748 -33.76628,-9.86847 -7.61533,-0.008 -10.69032,0.45559 -15.5,2.33757 -7.38003,2.88773 -9.40601,2.88244 -17,-0.0444 -4.80223,-1.85085 -7.89647,-2.30388 -15.5,-2.26938 -10.24249,0.0465 -9.85076,-0.0676 -33.5,9.7593 -9.93011,4.12625 -14.5,5.43017 -14.5,4.13727 z M 516.56429,1226.2931 c -0.54268,-1.4252 -0.42782,-1.54 0.5598,-0.5598 0.68342,0.6784 0.99067,1.4853 0.68278,1.7932 -0.30789,0.3078 -0.86705,-0.2472 -1.24258,-1.2334 z m -24.10541,-30.3596 c -0.36253,-0.5866 -0.44468,-1.281 -0.18255,-1.5432 0.26212,-0.2621 0.74306,0.2179 1.06875,1.0666 0.67618,1.7621 0.0999,2.072 -0.8862,0.4766 z m -18,-26 c -0.36253,-0.5866 -0.44468,-1.281 -0.18255,-1.5432 0.26212,-0.2621 0.74306,0.2179 1.06875,1.0666 0.67618,1.7621 0.0999,2.072 -0.8862,0.4766 z M 1077,1165.059 c 0,-0.5175 0.4448,-1.2159 0.9885,-1.5519 0.5669,-0.3504 0.7346,0.051 0.3931,0.941 -0.6648,1.7324 -1.3816,2.0493 -1.3816,0.6109 z m -607.43571,-2.7659 c -0.54268,-1.4252 -0.42782,-1.54 0.5598,-0.5598 0.68342,0.6784 0.99067,1.4853 0.68278,1.7932 -0.30789,0.3078 -0.86705,-0.2472 -1.24258,-1.2334 z m -5.10541,-7.3596 c -0.36253,-0.5866 -0.44468,-1.281 -0.18255,-1.5432 0.26212,-0.2621 0.74306,0.2179 1.06875,1.0666 0.67618,1.7621 0.0999,2.072 -0.8862,0.4766 z M 1086,1151.059 c 0,-0.5175 0.4448,-1.2159 0.9885,-1.5519 0.5669,-0.3504 0.7346,0.051 0.3931,0.941 -0.6648,1.7324 -1.3816,2.0493 -1.3816,0.6109 z m -625.54112,-3.1255 c -0.36253,-0.5866 -0.44468,-1.281 -0.18255,-1.5432 0.26212,-0.2621 0.74306,0.2179 1.06875,1.0666 0.67618,1.7621 0.0999,2.072 -0.8862,0.4766 z M 1091,1143.059 c 0,-0.5175 0.4448,-1.2159 0.9885,-1.5519 0.5669,-0.3504 0.7346,0.051 0.3931,0.941 -0.6648,1.7324 -1.3816,2.0493 -1.3816,0.6109 z m -635.54112,-3.1255 c -0.36253,-0.5866 -0.44468,-1.281 -0.18255,-1.5432 0.26212,-0.2621 0.74306,0.2179 1.06875,1.0666 0.67618,1.7621 0.0999,2.072 -0.8862,0.4766 z m -4.89459,-8.6404 c -0.54268,-1.4252 -0.42782,-1.54 0.5598,-0.5598 0.68342,0.6784 0.99067,1.4853 0.68278,1.7932 -0.30789,0.3078 -0.86705,-0.2472 -1.24258,-1.2334 z M 1100,1128.059 c 0,-0.5175 0.4448,-1.2159 0.9885,-1.5519 0.5669,-0.3504 0.7346,0.051 0.3931,0.941 -0.6648,1.7324 -1.3816,2.0493 -1.3816,0.6109 z m 5.5643,-9.3521 c 0.3755,-0.9862 0.9347,-1.5412 1.2426,-1.2334 0.3079,0.3079 6e-4,1.1148 -0.6828,1.7932 -0.9876,0.9802 -1.1025,0.8654 -0.5598,-0.5598 z m -669.00001,-11.4138 c -0.54268,-1.4252 -0.42782,-1.54 0.5598,-0.5598 0.68342,0.6784 0.99067,1.4853 0.68278,1.7932 -0.30789,0.3078 -0.86705,-0.2472 -1.24258,-1.2334 z M 1114,1103.059 c 0,-0.5175 0.4448,-1.2159 0.9885,-1.5519 0.5669,-0.3504 0.7346,0.051 0.3931,0.941 -0.6648,1.7324 -1.3816,2.0493 -1.3816,0.6109 z m 5.5643,-10.3521 c 0.3755,-0.9862 0.9347,-1.5412 1.2426,-1.2334 0.3079,0.3079 6e-4,1.1148 -0.6828,1.7932 -0.9876,0.9802 -1.1025,0.8654 -0.5598,-0.5598 z m -692.00001,-2.4138 c -0.54268,-1.4252 -0.42782,-1.54 0.5598,-0.5598 0.68342,0.6784 0.99067,1.4853 0.68278,1.7932 -0.30789,0.3078 -0.86705,-0.2472 -1.24258,-1.2334 z m -4.94075,-9.8318 c -0.96498,-2.5147 -0.68031,-3.1635 0.49853,-1.1363 0.58369,1.0038 0.8506,2.0357 0.59313,2.2931 -0.25747,0.2575 -0.74872,-0.2631 -1.09166,-1.1568 z M 1128.0306,1075.5 c 0,-0.55 0.4362,-1.675 0.9694,-2.5 0.5332,-0.825 0.9694,-1.05 0.9694,-0.5 0,0.55 -0.4362,1.675 -0.9694,2.5 -0.5332,0.825 -0.9694,1.05 -0.9694,0.5 z m 5,-11 c 0,-0.55 0.4362,-1.675 0.9694,-2.5 0.5332,-0.825 0.9694,-1.05 0.9694,-0.5 0,0.55 -0.4362,1.675 -0.9694,2.5 -0.5332,0.825 -0.9694,1.05 -0.9694,0.5 z m -719.40706,-3.0387 c -0.96498,-2.5147 -0.68031,-3.1635 0.49853,-1.1363 0.58369,1.0038 0.8506,2.0357 0.59313,2.2931 -0.25747,0.2575 -0.74872,-0.2631 -1.09166,-1.1568 z m -5,-11 c -0.96498,-2.5147 -0.68031,-3.1635 0.49853,-1.1363 0.58369,1.0038 0.8506,2.0357 0.59313,2.2931 -0.25747,0.2575 -0.74872,-0.2631 -1.09166,-1.1568 z M 1142.0856,1044 c -0.03,-0.825 0.3812,-2.175 0.9144,-3 1.1813,-1.828 1.1813,-0.2491 0,2.5 -0.5667,1.3187 -0.8782,1.4891 -0.9144,0.5 z m -742.35439,-13.9198 c -0.43497,-1.6634 -0.30483,-2.0538 0.43724,-1.3118 0.5811,0.5812 0.85979,1.6469 0.61931,2.3683 -0.24965,0.749 -0.70294,0.2957 -1.05655,-1.0565 z m 747.29939,1.4198 c 0,-0.55 0.4362,-1.675 0.9694,-2.5 0.5332,-0.825 0.9694,-1.05 0.9694,-0.5 0,0.55 -0.4362,1.675 -0.9694,2.5 -0.5332,0.825 -0.9694,1.05 -0.9694,0.5 z m 5.0483,-13.0833 c 0.048,-1.165 0.285,-1.4019 0.6042,-0.6042 0.2889,0.7219 0.2534,1.5844 -0.079,1.9167 -0.3323,0.3323 -0.5687,-0.2584 -0.5253,-1.3125 z m -757.45536,-0.9554 c -0.96498,-2.5147 -0.68031,-3.1635 0.49853,-1.1363 0.58369,1.0038 0.8506,2.0357 0.59313,2.2931 -0.25747,0.2575 -0.74872,-0.2631 -1.09166,-1.1568 z M 1156.0306,1007.5 c 0,-0.55 0.4362,-1.675 0.9694,-2.5 0.5332,-0.825 0.9694,-1.05 0.9694,-0.5 0,0.55 -0.4362,1.675 -0.9694,2.5 -0.5332,0.825 -0.9694,1.05 -0.9694,0.5 z M 385.62354,993.46134 c -0.96498,-2.51469 -0.68031,-3.16355 0.49853,-1.13634 0.58369,1.00375 0.8506,2.03566 0.59313,2.29313 -0.25747,0.25747 -0.74872,-0.26309 -1.09166,-1.15679 z M 1161.0306,993.5 c 0,-0.55 0.4362,-1.675 0.9694,-2.5 0.5332,-0.825 0.9694,-1.05 0.9694,-0.5 0,0.55 -0.4362,1.675 -0.9694,2.5 -0.5332,0.825 -0.9694,1.05 -0.9694,0.5 z M 380.62354,979.46134 c -0.96498,-2.51469 -0.68031,-3.16355 0.49853,-1.13634 0.58369,1.00375 0.8506,2.03566 0.59313,2.29313 -0.25747,0.25747 -0.74872,-0.26309 -1.09166,-1.15679 z m -4.54459,-14.04467 c 0.048,-1.16495 0.28494,-1.4019 0.60416,-0.60417 0.28887,0.72187 0.25335,1.58438 -0.0789,1.91667 -0.33229,0.33229 -0.56864,-0.25834 -0.52522,-1.3125 z M 1170.0856,963.5 c 0.1041,-1.89422 1.7708,-5.08385 1.8288,-3.5 0.03,0.825 -0.3812,2.175 -0.9144,3 -0.5332,0.825 -0.9446,1.05 -0.9144,0.5 z M 371.57143,950.42857 c -0.36782,-1.46551 -0.47591,-2.85742 -0.24019,-3.09314 0.23571,-0.23571 0.72951,0.77049 1.09733,2.236 0.36782,1.46551 0.47591,2.85742 0.24019,3.09314 -0.23571,0.23571 -0.72951,-0.77049 -1.09733,-2.236 z m 803.50747,-5.0119 c 0.048,-1.16495 0.285,-1.4019 0.6042,-0.60417 0.2889,0.72187 0.2534,1.58438 -0.079,1.91667 -0.3323,0.33229 -0.5687,-0.25834 -0.5253,-1.3125 z m 1,-4 c 0.048,-1.16495 0.285,-1.4019 0.6042,-0.60417 0.2889,0.72187 0.2534,1.58438 -0.079,1.91667 -0.3323,0.33229 -0.5687,-0.25834 -0.5253,-1.3125 z M 366.5,932 c -0.37968,-1.72866 -0.48187,-3.35146 -0.22711,-3.60623 0.25477,-0.25477 0.75072,0.97429 1.10211,2.73123 0.83365,4.16825 0.0258,4.97614 -0.875,0.875 z m 813.6994,-7.5 c 0,-1.1 0.3602,-3.125 0.8006,-4.5 0.634,-1.97958 0.8006,-2.08367 0.8006,-0.5 0,1.1 -0.3602,3.125 -0.8006,4.5 -0.634,1.97958 -0.8006,2.08367 -0.8006,0.5 z M 361.5,911 c -0.38421,-2.27412 -0.48881,-4.34452 -0.23245,-4.60089 0.25637,-0.25636 0.76597,1.40904 1.13245,3.70089 0.36648,2.29185 0.47108,4.36225 0.23245,4.60089 C 362.39381,914.93952 361.88421,913.27412 361.5,911 Z m 822.718,-6.5 c 0.01,-1.1 0.3621,-3.35 0.782,-5 0.6857,-2.69472 0.7653,-2.7456 0.782,-0.5 0.01,1.375 -0.3416,3.625 -0.782,5 -0.6274,1.95899 -0.7966,2.0672 -0.782,0.5 z M 357.54545,891.45455 c -0.38251,-2.55082 -0.49094,-4.8424 -0.24094,-5.0924 0.25,-0.25 0.76752,1.63249 1.15004,4.1833 0.38251,2.55082 0.49094,4.8424 0.24094,5.0924 -0.25,0.25 -0.76752,-1.63249 -1.15004,-4.1833 z M 1189.1891,875 c -0.023,-1.375 0.3195,-4.525 0.7599,-7 0.6004,-3.37449 0.8176,-3.74966 0.8682,-1.5 0.037,1.65 -0.3048,4.8 -0.7598,7 -0.5179,2.5038 -0.8427,3.06488 -0.8683,1.5 z M 352.5,862 c -0.39084,-3.36749 -0.49807,-6.33527 -0.23829,-6.59505 0.25979,-0.25978 0.78487,2.29014 1.16686,5.66648 0.38199,3.37634 0.48922,6.34411 0.23829,6.59505 C 353.41592,867.91741 352.89084,865.36749 352.5,862 Z m 842.3073,-49.5 c 0.2583,-11 0.6324,-20.1875 0.8312,-20.41667 0.6238,-0.71893 0.1475,26.07542 -0.5939,33.41667 -0.3889,3.85 -0.4956,-2 -0.2373,-13 z m -847.15449,2.85829 c -0.35904,-5.86818 -0.57559,-21.73691 -0.48121,-35.26385 l 0.17159,-24.59444 0.69389,35 c 0.38164,19.25 0.59819,35.11873 0.48122,35.26385 -0.11697,0.14512 -0.50644,-4.53738 -0.86549,-10.40556 z m -4.15019,-345.86091 c -0.4107,-52.02263 -0.52291,-94.81042 -0.24935,-95.08398 0.27356,-0.27356 0.83341,42.06659 1.24411,94.08922 0.4107,52.02263 0.52291,94.81042 0.24935,95.08398 -0.27356,0.27356 -0.83341,-42.06659 -1.24411,-94.08922 z M 1198.7813,471 c 0.2608,-47.025 0.6418,-85.6875 0.8465,-85.91667 0.5699,-0.63797 0.1754,82.25345 -0.616,129.41667 -0.4303,25.64419 -0.52,8.70424 -0.2305,-43.5 z M 341.30987,271.5 c 0.006,-3.3 0.1923,-4.52944 0.41486,-2.73209 0.22256,1.79735 0.21797,4.49735 -0.0102,6 -0.22818,1.50265 -0.41027,0.0321 -0.40466,-3.26791 z m 1.72076,-77 c 0,-0.55 0.43621,-1.675 0.96937,-2.5 0.53316,-0.825 0.96937,-1.05 0.96937,-0.5 0,0.55 -0.43621,1.675 -0.96937,2.5 -0.53316,0.825 -0.96937,1.05 -0.96937,0.5 z m 855.59287,-21.03866 c -0.9649,-2.51469 -0.6803,-3.16355 0.4986,-1.13634 0.5837,1.00375 0.8506,2.03566 0.5931,2.29313 -0.2575,0.25747 -0.7487,-0.26309 -1.0917,-1.15679 z"
         id="path18" />
      <path
         style="fill:#000000"
         d="m 763,1410.9663 c -17.62351,-5.0243 -21.11483,-6.1075 -29,-8.9973 -9.18682,-3.3668 -26.35272,-11.1228 -32,-14.4584 -1.925,-1.137 -5.1875,-2.9444 -7.25,-4.0164 -2.0625,-1.0719 -3.75,-2.2967 -3.75,-2.7216 0,-0.4249 -0.52661,-0.7726 -1.17024,-0.7726 -1.0281,0 -21.52951,-12.5298 -22.82976,-13.9528 -0.275,-0.301 -4.325,-3.1579 -9,-6.3487 -15.11629,-10.3172 -29.39721,-20.9781 -36.6167,-27.3348 -1.16418,-1.025 -3.56663,-2.9741 -5.33877,-4.3313 -1.77213,-1.3572 -4.22427,-3.3822 -5.44918,-4.5 -1.22491,-1.1178 -4.22246,-3.7615 -6.66123,-5.8748 -22.24878,-19.2798 -53.06574,-50.4594 -67.85894,-68.6576 -2.9061,-3.575 -6.05544,-7.175 -6.99854,-8 C 526.65204,1238.879 518,1228.4205 518,1227.6106 c 0,-0.3705 -4.275,-5.8088 -9.5,-12.085 -5.225,-6.2762 -9.5,-11.7151 -9.5,-12.0864 0,-0.3714 -1.2375,-2.1435 -2.75,-3.9382 -3.88578,-4.6107 -18.33565,-25.2647 -24.75,-35.3766 -0.55,-0.8671 -2.9125,-4.3977 -5.25,-7.8459 -2.3375,-3.4482 -4.25,-6.687 -4.25,-7.1972 0,-0.5103 -1.03002,-2.1999 -2.28893,-3.7546 -1.25891,-1.5547 -2.86398,-3.9517 -3.56682,-5.3267 -2.34434,-4.5863 -4.86863,-8.9627 -5.90536,-10.2381 -0.56417,-0.694 -1.97372,-2.9494 -3.13233,-5.0119 -1.15861,-2.0625 -3.08229,-5.4375 -4.27485,-7.5 -4.76818,-8.2465 -10.93987,-19.9721 -22.50118,-42.75 -0.55832,-1.1 -2.01946,-4.25 -3.24698,-7 -1.22752,-2.75 -3.32348,-7.3625 -4.6577,-10.25 -1.33422,-2.8875 -3.61269,-7.8375 -5.06326,-11 -1.45058,-3.1625 -3.47558,-7.4142 -4.5,-9.4481 -1.02443,-2.034 -1.86259,-4.3505 -1.86259,-5.1479 0,-0.7974 -1.11958,-3.4083 -2.48795,-5.8019 -1.36838,-2.3937 -2.49338,-5.1546 -2.5,-6.1353 -0.007,-0.9808 -1.13705,-4.0034 -2.51205,-6.7168 -1.375,-2.7134 -2.5,-5.6114 -2.5,-6.44 0,-0.8286 -0.84348,-3.431 -1.8744,-5.7832 -1.03093,-2.35226 -2.41244,-5.8518 -3.07003,-7.7768 -4.02885,-11.7938 -9.12531,-27.47789 -10.88565,-33.5 -8.07381,-27.62053 -10.75169,-37.69258 -12.62889,-47.5 -0.68428,-3.575 -1.73596,-8.525 -2.33706,-11 -0.6011,-2.475 -1.79624,-8.325 -2.65585,-13 -0.85962,-4.675 -1.98315,-10.75 -2.49673,-13.5 -0.51358,-2.75 -1.67882,-10.4 -2.58941,-17 -0.91058,-6.6 -2.06751,-14.925 -2.57094,-18.5 -0.50344,-3.575 -1.34762,-24.95 -1.87597,-47.5 -0.89443,-38.17414 -1.38286,-78.88366 -4.01927,-335 -0.54918,-53.35 -1.47068,-132.15906 -2.04778,-175.13125 l -1.04928,-78.13126 2.12075,-6.36874 c 1.16641,-3.50281 3.27495,-8.05561 4.68565,-10.11733 2.37679,-3.47366 11.74622,-10.39956 18.79486,-13.89319 1.65,-0.81781 5.475,-2.867 8.5,-4.55376 14.71069,-8.20274 34.99251,-17.9011 56,-26.77808 7.425,-3.13752 14.85,-6.30137 16.5,-7.03077 3.35577,-1.48345 6.66645,-2.68907 31,-11.28899 9.35,-3.30446 22.625,-7.6687 29.5,-9.6983 6.875,-2.0296 14.075,-4.2563 16,-4.94822 1.925,-0.69191 6.425,-1.84299 10,-2.55794 3.575,-0.71495 7.28509,-1.69746 8.24465,-2.18336 5.49427,-2.78217 62.55669,-14.265884 88.75535,-17.861857 7.975,-1.094631 16.525,-2.412471 19,-2.928532 2.475,-0.516061 12.375,-1.638789 22,-2.494953 9.625,-0.856163 21.1,-2.007272 25.5,-2.558021 31.44947,-3.936532 151.01929,-3.945604 175,-0.01328 3.3,0.54113 14.775,1.704761 25.5,2.585847 10.725,0.881085 21.3,2.007595 23.5,2.503355 2.2,0.49576 10.975,1.807819 19.5,2.915687 31.50957,4.094833 69.5676,11.575548 101,19.852634 36.168,9.52412 54.199,15.10774 76.7698,23.77319 3.4484,1.32392 6.7158,2.40712 7.2609,2.40712 0.5451,0 2.8987,0.85675 5.2302,1.90389 2.3315,1.04714 9.8641,4.23808 16.7391,7.09097 20.5856,8.54233 40.6354,18.87583 44.9013,23.14177 2.3287,2.32867 4.7879,6.3218 6.2242,10.10654 2.3621,6.22412 2.3743,6.47115 2.3288,47.25683 -0.025,22.55 -0.6016,77.45 -1.2808,122 -0.6793,44.55 -1.6938,137.025 -2.2545,205.5 -1.3502,164.89545 -2.6652,262.02889 -3.8044,281 -0.5119,8.525 -1.6534,20.45 -2.5368,26.5 -0.8833,6.05 -2.0151,14.375 -2.5151,18.5 -2.6346,21.73765 -11.2554,62.21465 -19.0618,89.5 -1.1014,3.85 -2.8866,10.15 -3.967,14 -1.0804,3.85 -3.5776,11.5 -5.5494,17 -1.9717,5.5 -3.941,11.35 -4.3761,13 -0.4351,1.65 -1.5375,4.4402 -2.4498,6.2003 -0.9122,1.7602 -1.6586,3.9127 -1.6586,4.7833 0,0.8706 -1.125,3.803 -2.5,6.5164 -1.375,2.7134 -2.5023,5.736 -2.5051,6.7168 0,0.9807 -1.1138,3.5832 -2.4688,5.7832 -1.355,2.2 -2.4777,4.8108 -2.4949,5.8019 -0.017,0.991 -0.8797,3.466 -1.9168,5.5 -2.5427,4.9868 -6.1746,12.6955 -11.6365,24.6981 -4.774,10.4908 -8.2313,17.4152 -15.7279,31.5 -8.1466,15.306 -9.9157,18.4801 -11.1476,20 -0.6686,0.825 -1.7494,2.625 -2.4018,4 -1.3595,2.8656 -2.8121,5.243 -5.8042,9.5 -1.1597,1.65 -2.4099,3.9532 -2.778,5.1181 -0.3682,1.165 -1.558,2.9222 -2.6439,3.905 -1.086,0.9828 -1.9745,2.2372 -1.9745,2.7875 0,0.5503 -1.125,2.4756 -2.5,4.2783 -1.375,1.8027 -2.5,3.7026 -2.5,4.2219 0,0.5194 -0.7219,1.5434 -1.6042,2.2757 -0.8823,0.7322 -2.0029,2.2498 -2.4902,3.3724 -0.9945,2.2909 -8.9065,13.7313 -17.0227,24.6139 -2.9606,3.9698 -5.8329,7.9268 -6.3829,8.7933 -1.5853,2.4976 -36.825,45.3045 -40.0711,48.6758 -1.6109,1.6731 -6.7471,7.2404 -11.4137,12.3719 -11.83309,13.0116 -28.66375,29.5103 -44.97343,44.0862 -4.61565,4.125 -9.11562,8.175 -9.99992,9 -0.88431,0.825 -3.24154,2.7307 -5.23828,4.2349 -1.99675,1.5041 -4.2319,3.329 -4.96701,4.0553 -2.1437,2.1178 -25.08242,20.1121 -27.94625,21.9224 -1.43533,0.9073 -3.23533,2.2431 -4,2.9685 -0.76467,0.7254 -3.41531,2.6621 -5.89031,4.3037 -2.475,1.6417 -7.26979,5.0167 -10.65509,7.5 -3.3853,2.4834 -7.4353,5.2512 -9,6.1508 -1.5647,0.8997 -6.83187,4.2011 -11.70482,7.3366 -4.87294,3.1355 -10.72294,6.7115 -13,7.9466 -5.8771,3.1879 -14.49215,7.9442 -18.94954,10.462 -2.09519,1.1835 -6.82019,3.8537 -10.5,5.9339 -9.96978,5.6358 -28.80062,13.7189 -36.25444,15.5621 -8.41035,2.0798 -17.71794,1.9325 -25.93611,-0.4105 z m 32.48573,-16.9266 c 10.89275,-4.3735 18.95124,-8.3151 32.51427,-15.9038 6.325,-3.5389 13.525,-7.5668 16,-8.951 2.475,-1.3841 5.85,-3.3294 7.5,-4.3228 1.65,-0.9935 4.35,-2.5555 6,-3.4713 1.65,-0.9157 6.27118,-3.8533 10.26929,-6.5279 3.99812,-2.6746 7.5198,-4.8629 7.82596,-4.8629 0.30616,0 3.10998,-1.9238 6.23071,-4.2752 3.12072,-2.3514 7.69904,-5.6139 10.17404,-7.25 2.475,-1.6361 5.12564,-3.5683 5.89031,-4.2937 0.76467,-0.7254 2.56467,-2.0612 4,-2.9685 2.86383,-1.8103 25.80255,-19.8046 27.94625,-21.9224 0.73511,-0.7263 2.97026,-2.5512 4.96701,-4.0553 1.99674,-1.5042 4.34569,-3.4099 5.21988,-4.2349 0.87419,-0.825 4.90614,-4.425 8.95989,-8 14.77424,-13.0294 34.03502,-31.8945 46.03183,-45.0862 4.66665,-5.1315 9.80453,-10.6988 11.41763,-12.3719 3.0486,-3.1621 29.1888,-34.6808 33.5672,-40.4739 1.375,-1.8192 4.4125,-5.7224 6.75,-8.6737 2.3375,-2.9513 4.25,-5.744 4.25,-6.2059 0,-0.4619 1.125,-1.8967 2.5,-3.1884 1.375,-1.2917 2.5,-2.8754 2.5,-3.5193 0,-0.6439 0.9,-1.9852 2,-2.9807 1.1,-0.9955 2,-2.3368 2,-2.9807 0,-0.6439 1.125,-2.2276 2.5,-3.5193 1.375,-1.2917 2.5,-2.6689 2.5,-3.0604 0,-0.3914 1.9125,-3.5049 4.25,-6.9188 2.3375,-3.414 4.7,-6.9285 5.25,-7.8101 0.55,-0.8816 2.9125,-4.6692 5.25,-8.417 2.3375,-3.7478 4.25,-7.1116 4.25,-7.4752 0,-0.3636 0.6293,-1.3715 1.3985,-2.2398 0.7692,-0.8683 2.3442,-3.2662 3.5,-5.3287 1.1558,-2.0625 3.0772,-5.4375 4.2698,-7.5 3.6396,-6.2946 10.6076,-18.9575 12.5396,-22.7881 0.5442,-1.0791 1.7298,-3.3119 2.6346,-4.9619 1.8638,-3.3989 8.0375,-15.9893 10.7877,-22 1.0066,-2.2 4.0891,-8.8525 6.85,-14.7833 2.7609,-5.9307 5.0198,-11.2062 5.0198,-11.7232 0,-0.517 0.849,-2.8645 1.8866,-5.2167 2.1049,-4.7716 5.7331,-13.4685 9.0849,-21.7768 1.2203,-3.025 2.6096,-7.1045 3.0872,-9.0655 0.4777,-1.961 1.5571,-4.88602 2.3987,-6.5 0.8417,-1.61397 1.5331,-3.74669 1.5364,-4.73936 0,-0.99268 0.9175,-3.80519 2.0312,-6.25003 1.1138,-2.44484 2.2846,-5.90765 2.6019,-7.69514 0.3172,-1.78748 1.4348,-5.63956 2.4834,-8.56017 1.0487,-2.92061 2.3098,-6.97061 2.8026,-9 0.4928,-2.02939 2.678,-10.6648 4.856,-19.1898 7.0572,-27.62189 10.2228,-44.35292 14.9473,-79 4.3893,-32.18949 4.4727,-35.53409 7.1777,-288 0.604,-56.375 1.6226,-149.75 2.2635,-207.5 2.1159,-190.65136 2.1066,-182.12243 0.2027,-186.3006 -0.9271,-2.03467 -2.6249,-4.50708 -3.7729,-5.49424 -1.8476,-1.58883 -22.1837,-11.86511 -31.5872,-15.96178 -10.1635,-4.42776 -18.3684,-7.82748 -26,-10.77321 -4.675,-1.80451 -9.85,-3.84341 -11.5,-4.5309 -1.65,-0.68749 -5.025,-1.82135 -7.5,-2.51971 -2.475,-0.69835 -4.95,-1.57591 -5.5,-1.95013 -0.55,-0.37423 -6.4,-2.34948 -13,-4.38947 -6.6,-2.03998 -14.25,-4.4162 -17,-5.2805 -24.8826,-7.82033 -69.3737,-18.16733 -100,-23.25632 -6.6,-1.09669 -14.025,-2.45294 -16.5,-3.0139 -2.475,-0.56096 -11.7,-1.9565 -20.5,-3.101186 -8.8,-1.144689 -18.925,-2.489087 -22.5,-2.987551 -3.575,-0.498464 -14.825,-1.623812 -25,-2.500773 -10.175,-0.876961 -23,-2.078898 -28.5,-2.67097 -13.91148,-1.497565 -132.36552,-1.523295 -148,-0.03215 -6.6,0.629479 -19.425,1.832209 -28.5,2.672734 -9.075,0.840525 -19.875,1.958415 -24,2.4842 -25.59122,3.261936 -38.93242,5.185316 -42,6.055056 -1.925,0.5458 -8.675,1.86917 -15,2.94083 -23.42445,3.96886 -61.28494,12.70202 -78.5,18.10734 -3.3,1.03616 -10.05,3.08088 -15,4.54382 -10.84766,3.20595 -25.16816,7.89497 -32,10.47788 -2.75,1.03969 -8.825,3.30176 -13.5,5.02682 -4.675,1.72506 -9.85,3.70329 -11.5,4.39606 -1.65,0.69277 -6.6,2.75646 -11,4.58597 -23.50263,9.77237 -47.56804,21.29316 -66.41179,31.7932 -14.9286,8.31846 -16.88311,9.84634 -19.25716,15.05371 -1.9459,4.26824 -1.97992,5.90378 -1.40384,67.5 0.3247,34.71917 1.03021,77.07577 1.56779,94.12577 0.53757,17.05 1.23297,82.525 1.54532,145.5 0.59684,120.33521 1.61961,204.53317 3.39512,279.5 1.0489,44.28762 1.33059,48.55101 4.45985,67.5 0.86286,5.225 1.57691,11.11552 1.58677,13.09004 0.01,1.97452 0.91794,7.109 2.01794,11.40996 1.1,4.30096 2,9.49136 2,11.53424 0,2.04287 0.69182,5.67514 1.53738,8.07171 0.84556,2.39658 2.16532,7.74065 2.9328,11.87573 1.65182,8.89983 6.74725,27.89034 12.88401,48.01832 4.54379,14.90319 5.52895,17.88391 8.76491,26.51933 1.03449,2.76063 1.8809,5.58809 1.8809,6.28324 0,0.69515 1.125,3.484 2.5,6.19743 1.375,2.71343 2.5,5.6384 2.5,6.5 0,0.8616 1.125,3.7866 2.5,6.5 1.375,2.7134 2.49875,5.511 2.49722,6.2168 -0.002,0.7057 0.87164,3.0832 1.94037,5.2832 1.06873,2.2 5.63091,12.325 10.13817,22.5 9.48873,21.4205 16.02378,34.8154 23.66193,48.5 0.61397,1.1 1.37607,2.675 1.69354,3.5 0.31748,0.825 1.91802,3.75 3.55676,6.5 1.63874,2.75 3.92562,6.8896 5.08196,9.1991 1.15635,2.3095 2.73866,4.7271 3.51625,5.3724 0.77759,0.6454 1.4138,1.5092 1.4138,1.9196 0,1.0423 15.57892,26.8861 17.46066,28.9654 0.84664,0.9356 1.53934,2.0289 1.53934,2.4296 0,0.4008 2.025,3.6258 4.5,7.1667 2.475,3.541 4.5,6.8117 4.5,7.2684 0,0.4566 1.125,1.8871 2.5,3.1788 1.375,1.2917 2.5,2.8667 2.5,3.5 0,0.6333 1.125,2.2083 2.5,3.5 1.375,1.2917 2.5,2.7677 2.5,3.28 0,0.5122 1.0125,2.2008 2.25,3.7523 1.2375,1.5516 4.48445,5.8915 7.21545,9.6444 2.731,3.7528 7.9319,10.4233 11.55757,14.8233 3.62566,4.4 7.97877,10.025 9.67358,12.5 1.69481,2.475 4.71256,6.1715 6.70611,8.2145 1.99354,2.043 5.94925,6.543 8.79046,10 15.42675,18.7704 45.60249,49.2589 67.74095,68.4431 2.43877,2.1133 5.43632,4.757 6.66123,5.8748 1.22491,1.1178 3.67705,3.1428 5.44918,4.5 1.77214,1.3572 4.17459,3.3063 5.33877,4.3313 7.21949,6.3567 21.50041,17.0176 36.6167,27.3348 4.675,3.1908 8.725,6.0635 9,6.3837 0.70893,0.8254 14.72124,9.4779 19.5,12.041 2.2,1.18 4.225,2.4819 4.5,2.8931 0.50805,0.7598 1.48425,1.281 16.18988,8.6451 14.59914,7.3108 24.13345,10.9394 44.31012,16.8638 4.95,1.4534 9.45,2.8234 10,3.0444 0.55,0.221 5.05,0.2386 10,0.039 7.24928,-0.2922 10.55342,-0.9865 16.98573,-3.569 z"
         id="path16" />
    </g>
  </g>
</svg>
