<?xml version="1.0" encoding="UTF-8" standalone="no"?>
<svg
   xmlns:dc="http://purl.org/dc/elements/1.1/"
   xmlns:cc="http://creativecommons.org/ns#"
   xmlns:rdf="http://www.w3.org/1999/02/22-rdf-syntax-ns#"
   xmlns:svg="http://www.w3.org/2000/svg"
   xmlns="http://www.w3.org/2000/svg"
   xmlns:sodipodi="http://sodipodi.sourceforge.net/DTD/sodipodi-0.dtd"
   xmlns:inkscape="http://www.inkscape.org/namespaces/inkscape"
   version="1.1"
   id="svg2"
   width="1043.7277"
   height="1045.7361"
   viewBox="0 0 1043.7277 1045.7361"
   sodipodi:docname="Gallenrand.svg"
   inkscape:version="1.0.1 (3bc2e813f5, 2020-09-07)">
  <metadata
     id="metadata8">
    <rdf:RDF>
      <cc:Work
         rdf:about="">
        <dc:format>image/svg+xml</dc:format>
        <dc:type
           rdf:resource="http://purl.org/dc/dcmitype/StillImage" />
        <dc:title></dc:title>
      </cc:Work>
    </rdf:RDF>
  </metadata>
  <defs
     id="defs6" />
  <sodipodi:namedview
     pagecolor="#ffffff"
     bordercolor="#666666"
     borderopacity="1"
     objecttolerance="10"
     gridtolerance="10"
     guidetolerance="10"
     inkscape:pageopacity="0"
     inkscape:pageshadow="2"
     inkscape:window-width="1920"
     inkscape:window-height="1057"
     id="namedview4"
     showgrid="false"
     inkscape:pagecheckerboard="true"
     inkscape:zoom="0.49"
     inkscape:cx="519.72764"
     inkscape:cy="511.8887"
     inkscape:window-x="-8"
     inkscape:window-y="-8"
     inkscape:window-maximized="1"
     inkscape:current-layer="g10" />
  <g
     inkscape:groupmode="layer"
     inkscape:label="Image"
     id="g10"
     transform="translate(-230.27236,-238.1113)">
    <circle
       style="fill:#ffffff;fill-rule:evenodd"
       id="path22"
       cx="755.10205"
       cy="767.34692"
       r="414.28571" />
    <g
       id="g14">
      <path
         style="fill:#f9edc4"
         d="m 727.75,1283.2943 c 1.2375,-0.2384 3.2625,-0.2384 4.5,0 1.2375,0.2383 0.225,0.4333 -2.25,0.4333 -2.475,0 -3.4875,-0.195 -2.25,-0.4333 z m 46,0 c 1.2375,-0.2384 3.2625,-0.2384 4.5,0 1.2375,0.2383 0.225,0.4333 -2.25,0.4333 -2.475,0 -3.4875,-0.195 -2.25,-0.4333 z m -61.48097,-0.9873 c 0.97297,-0.2535 2.32297,-0.2369 3,0.037 0.67703,0.2739 -0.11903,0.4813 -1.76903,0.461 -1.65,-0.02 -2.20394,-0.2445 -1.23097,-0.4981 z m 79,0 c 0.97297,-0.2535 2.32297,-0.2369 3,0.037 0.67703,0.2739 -0.11903,0.4813 -1.76903,0.461 -1.65,-0.02 -2.20394,-0.2445 -1.23097,-0.4981 z M 700.75,1281.3377 c 0.6875,-0.2774 1.8125,-0.2774 2.5,0 0.6875,0.2774 0.125,0.5044 -1.25,0.5044 -1.375,0 -1.9375,-0.227 -1.25,-0.5044 z m 102,0 c 0.6875,-0.2774 1.8125,-0.2774 2.5,0 0.6875,0.2774 0.125,0.5044 -1.25,0.5044 -1.375,0 -1.9375,-0.227 -1.25,-0.5044 z m -110.9375,-1.0208 c 0.72187,-0.2889 1.58438,-0.2534 1.91667,0.079 0.33229,0.3323 -0.25834,0.5687 -1.3125,0.5253 -1.16495,-0.048 -1.4019,-0.285 -0.60417,-0.6042 z m 121,0 c 0.72187,-0.2889 1.58438,-0.2534 1.91667,0.079 0.33229,0.3323 -0.25834,0.5687 -1.3125,0.5253 -1.16495,-0.048 -1.4019,-0.285 -0.60417,-0.6042 z m -129,-1 c 0.72187,-0.2889 1.58438,-0.2534 1.91667,0.079 0.33229,0.3323 -0.25834,0.5687 -1.3125,0.5253 -1.16495,-0.048 -1.4019,-0.285 -0.60417,-0.6042 z m 137,0 c 0.72187,-0.2889 1.58438,-0.2534 1.91667,0.079 0.33229,0.3323 -0.25834,0.5687 -1.3125,0.5253 -1.16495,-0.048 -1.4019,-0.285 -0.60417,-0.6042 z M 715.5,1247.4775 c -62.75235,-5.7635 -120.67654,-21.6145 -175,-47.889 C 442.93388,1152.3989 361.60108,1071.0661 314.41152,973.5 282.49536,907.51218 265.01004,832.29923 265.01004,761 c 0,-71.29923 17.48532,-146.51218 49.40148,-212.5 C 361.60108,450.93388 442.93388,369.60108 540.5,322.41152 606.48782,290.49536 681.70077,273.01004 753,273.01004 c 71.29923,0 146.51218,17.48532 212.5,49.40148 97.5661,47.18956 178.8989,128.52236 226.0885,226.08848 23.1866,47.9392 38.1421,98.26488 45.4278,152.86637 1.7273,12.94511 1.9837,20.65192 1.9837,59.63363 0,48.37481 -0.571,56.11473 -6.5125,88.27732 -9.4902,51.37204 -30.2197,108.29416 -55.4356,152.22268 -49.1212,85.574 -124.1215,155.8012 -211.5519,198.0885 -66.89626,32.3555 -142.24391,49.669 -214.5,49.2881 -11.825,-0.062 -27.8,-0.6919 -35.5,-1.3991 z m 70.84125,-9.9732 c 51.54219,-4.5468 97.62379,-15.3695 144.65875,-33.9744 47.0571,-18.6137 91.2429,-45.7338 133.6481,-82.0299 47.5347,-40.6867 91.1049,-97.2123 117.9328,-153 22.2994,-46.37068 37.2778,-97.22497 44.4354,-150.86637 C 1228.7256,804.8236 1229,796.98994 1229,761 c 0,-35.98994 -0.2744,-43.8236 -1.9837,-56.63363 -7.1576,-53.6414 -22.136,-104.49569 -44.4354,-150.86637 -26.8279,-55.7877 -70.3981,-112.31333 -117.9328,-153 C 1022.2429,364.20394 978.0571,337.08377 931,318.47009 883.96504,299.86516 837.88344,289.04249 786.34125,284.49569 710.61366,277.81537 620.429,295.38615 545.5,331.41905 489.7123,358.24702 433.18667,401.81715 392.5,449.35192 356.20394,491.75709 329.08377,535.9429 310.47009,583 c -18.60493,47.03496 -29.4276,93.11656 -33.9744,144.65875 -6.68032,75.72759 10.89046,165.91225 46.92336,240.84125 21.70165,45.1277 55.53698,92.4556 92.58119,129.4998 37.04421,37.0442 84.37204,70.8795 129.49976,92.5811 74.79901,35.9704 165.24503,53.5921 240.84125,46.9234 z m 42.24803,-152.3598 c -0.29082,-0.4706 0.58263,-0.6431 1.94098,-0.3835 1.35836,0.2597 2.46974,0.6447 2.46974,0.8556 0,0.7737 -3.89864,0.3564 -4.41072,-0.4721 z m -10.0822,-3.133 c -0.35034,-0.5669 0.0511,-0.7346 0.94098,-0.3931 1.73242,0.6648 2.04939,1.3816 0.61096,1.3816 -0.51754,0 -1.21592,-0.4448 -1.55194,-0.9885 z m 46.22625,-0.1356 c 0.67834,-0.6834 1.48524,-0.9907 1.79313,-0.6828 0.30789,0.3079 -0.24711,0.8671 -1.23333,1.2426 -1.4252,0.5427 -1.54006,0.4278 -0.5598,-0.5598 z m 6,-3 c 0.67834,-0.6834 1.48524,-0.9907 1.79313,-0.6828 0.30789,0.3079 -0.24711,0.8671 -1.23333,1.2426 -1.4252,0.5427 -1.54006,0.4278 -0.5598,-0.5598 z M 885,1070.6224 c 0,-0.2076 0.7875,-0.9951 1.75,-1.75 1.58606,-1.2438 1.62143,-1.2085 0.37756,0.3776 -1.30637,1.6657 -2.12756,2.1955 -2.12756,1.3724 z M 784,1056 c -0.5887,-1.1 -0.84537,-2 -0.57037,-2 0.275,0 0.98167,0.9 1.57037,2 0.5887,1.1 0.84537,2 0.57037,2 -0.275,0 -0.98167,-0.9 -1.57037,-2 z m 28.5,-1.4424 c -2.75,-1.7767 -5.66637,-4.0377 -6.48082,-5.0245 -0.81445,-0.9869 1.13825,0.04 4.33933,2.2828 3.20108,2.2423 6.34245,4.2645 6.98082,4.4936 0.63837,0.2292 0.93567,0.6556 0.66067,0.9475 -0.275,0.292 -2.75,-0.9228 -5.5,-2.6994 z m 98.5,-3.9352 c 0,-0.2076 0.7875,-0.9951 1.75,-1.75 1.58606,-1.2438 1.62143,-1.2085 0.37756,0.3776 -1.30637,1.6657 -2.12756,2.1955 -2.12756,1.3724 z m -135.43571,-9.3293 c -0.54268,-1.4252 -0.42782,-1.54 0.5598,-0.5598 0.68342,0.6784 0.99067,1.4853 0.68278,1.7932 -0.30789,0.3078 -0.86705,-0.2472 -1.24258,-1.2334 z m -4.05301,-6.9162 c -0.9453,-1.4427 -1.22448,-2.3177 -0.62038,-1.9443 1.15439,0.7134 3.48267,4.5674 2.75929,4.5674 -0.23109,0 -1.1936,-1.1804 -2.13891,-2.6231 z m 37.56767,-24.9602 c 0.048,-1.165 0.28494,-1.4019 0.60416,-0.6042 0.28887,0.7219 0.25335,1.5844 -0.0789,1.9167 -0.33229,0.3323 -0.56864,-0.2584 -0.52522,-1.3125 z M 953.5,1008 c 0.99549,-1.1 2.03498,-2 2.30998,-2 0.275,0 -0.31449,0.9 -1.30998,2 -0.99549,1.1 -2.03498,2 -2.30998,2 -0.275,0 0.31449,-0.9 1.30998,-2 z m -152.384,-0.1682 c -0.0638,-0.9175 -0.37498,-2.4925 -0.69151,-3.5 -0.54548,-1.7362 -0.51588,-1.7389 0.56728,-0.05 0.62853,0.9798 0.9397,2.5548 0.6915,3.5 -0.40654,1.5483 -0.46276,1.5533 -0.56727,0.05 z M 779.96584,1002.25 774.5,996.5 l 5.75,5.4658 c 3.1625,3.0063 5.75,5.5938 5.75,5.75 0,0.7423 -0.95622,-0.1239 -6.03416,-5.4658 z m 48.15805,-5.93313 -7.62389,-7.68313 8,7.39967 c 4.4,4.06979 8.1875,7.52719 8.41667,7.68309 0.22916,0.1559 0.0599,0.2835 -0.37612,0.2835 -0.43602,0 -4.22352,-3.4574 -8.41666,-7.68313 z M 893,1003.6502 c 0,-0.2311 1.18041,-1.1936 2.62312,-2.1389 1.44272,-0.9453 2.31766,-1.2245 1.94431,-0.6204 -0.71346,1.1544 -4.56743,3.4827 -4.56743,2.7593 z m -136,-1.5912 c 0,-0.5175 0.44485,-1.2159 0.98855,-1.5519 0.56686,-0.3504 0.7345,0.051 0.39301,0.941 -0.66479,1.7324 -1.38156,2.0493 -1.38156,0.6109 z m 29.87244,-0.809 c -1.24387,-1.58606 -1.2085,-1.62143 0.37756,-0.3776 0.9625,0.7549 1.75,1.5424 1.75,1.75 0,0.8231 -0.82119,0.2933 -2.12756,-1.3724 z m -81.13911,-0.3741 c 0.67834,-0.6834 1.48524,-0.99066 1.79313,-0.6828 0.30789,0.3079 -0.24711,0.8671 -1.23333,1.2426 -1.4252,0.5427 -1.54006,0.4278 -0.5598,-0.5598 z M 688.95821,995.75 C 693.10217,991.33481 694,990.54091 694,991.29179 c 0,0.16049 -2.1375,2.29799 -4.75,4.75 L 684.5,1000.5 Z M 761.5,995 c 0.99549,-1.1 2.03498,-2 2.30998,-2 0.275,0 -0.31449,0.9 -1.30998,2 -0.99549,1.1 -2.03498,2 -2.30998,2 -0.275,0 0.31449,-0.9 1.30998,-2 z m 7.07143,-1.57143 c -1.94997,-1.94996 -1.99731,-2.52923 -0.14875,-1.81987 0.78248,0.30027 1.66835,1.18614 1.96862,1.96862 0.70936,1.84856 0.13009,1.80122 -1.81987,-0.14875 z M 965,994.32165 c 0,-0.55642 1.0125,-1.86892 2.25,-2.91666 L 969.5,989.5 967.51066,992 c -1.09414,1.375 -2.10664,2.6875 -2.25,2.91667 C 965.1173,995.14583 965,994.87808 965,994.32165 Z m -209.44236,-5.22839 c -0.30822,-0.49871 0.34022,-0.67122 1.44098,-0.38337 2.33499,0.61061 2.63015,1.29011 0.5604,1.29011 -0.79254,0 -1.69316,-0.40803 -2.00138,-0.90674 z M 784,988 c -0.90129,-0.58246 -1.02463,-0.97549 -0.30902,-0.98469 0.65504,-0.008 1.4691,0.43469 1.80902,0.98469 0.7673,1.24153 0.42112,1.24153 -1.5,0 z m 4.50708,-1.98855 c -0.35034,-0.56686 0.0511,-0.7345 0.94098,-0.39301 1.73242,0.66479 2.04939,1.38156 0.61096,1.38156 -0.51754,0 -1.21592,-0.44485 -1.55194,-0.98855 z m -77.77375,-4.13554 c 0.67834,-0.68342 1.48524,-0.99067 1.79313,-0.68278 0.30789,0.30789 -0.24711,0.86705 -1.23333,1.24258 -1.4252,0.54268 -1.54006,0.42782 -0.5598,-0.5598 z m 10.08463,-3.09387 c 0.53328,-0.53328 1.8049,-0.79255 2.82582,-0.57615 1.37482,0.29142 1.12336,0.54288 -0.9696,0.96961 -1.82482,0.37205 -2.48236,0.23268 -1.85622,-0.39346 z M 758,979 c -2.32726,-0.74532 -2.34861,-0.80753 -0.30902,-0.90032 1.20504,-0.0548 2.4691,0.35032 2.80902,0.90032 0.33992,0.55 0.47898,0.95514 0.30902,0.90032 C 760.63906,979.8455 759.375,979.44035 758,979 Z m 218,0.62244 c 0,-0.20765 0.7875,-0.99515 1.75,-1.75 1.58606,-1.24387 1.62143,-1.2085 0.37756,0.37756 C 976.82119,979.91575 976,980.44548 976,979.62244 Z M 779.5,977 c 0.99549,-1.1 2.03498,-2 2.30998,-2 0.275,0 -0.31449,0.9 -1.30998,2 -0.99549,1.1 -2.03498,2 -2.30998,2 -0.275,0 0.31449,-0.9 1.30998,-2 z m 9.75,-4.68933 c 0.9625,-0.25152 2.5375,-0.25152 3.5,0 0.9625,0.25153 0.175,0.45733 -1.75,0.45733 -1.925,0 -2.7125,-0.2058 -1.75,-0.45733 z m 10.01903,-0.004 c 0.97297,-0.25354 2.32297,-0.23687 3,0.0371 0.67703,0.27393 -0.11903,0.48137 -1.76903,0.46099 -1.65,-0.0204 -2.20394,-0.2445 -1.23097,-0.49804 z M 983,970.05902 c 0,-0.51754 0.44485,-1.21592 0.98855,-1.55194 0.56686,-0.35034 0.7345,0.0511 0.39301,0.94098 C 983.71677,971.18048 983,971.49745 983,970.05902 Z M 937,960.5 c 1.86578,-1.925 3.61733,-3.5 3.89233,-3.5 0.275,0 -1.02655,1.575 -2.89233,3.5 -1.86578,1.925 -3.61733,3.5 -3.89233,3.5 -0.275,0 1.02655,-1.575 2.89233,-3.5 z m 9,-2.5 c -0.90129,-0.58246 -1.02463,-0.97549 -0.30902,-0.98469 0.65504,-0.008 1.4691,0.43469 1.80902,0.98469 0.7673,1.24153 0.42112,1.24153 -1.5,0 z m 37.75,-0.66228 c 0.6875,-0.27741 1.8125,-0.27741 2.5,0 0.6875,0.27741 0.125,0.50439 -1.25,0.50439 -1.375,0 -1.9375,-0.22698 -1.25,-0.50439 z m -26.25,-3.9331 c 4.46308,-0.72083 18.23907,-0.85992 17.15988,-0.17325 -0.63793,0.4059 -5.20988,0.68361 -10.15988,0.61714 -4.95,-0.0665 -8.1,-0.26623 -7,-0.44389 z m -21.99292,-3.39317 c -0.35034,-0.56686 0.0511,-0.7345 0.94098,-0.39301 1.73242,0.66479 2.04939,1.38156 0.61096,1.38156 -0.51754,0 -1.21592,-0.44485 -1.55194,-0.98855 z M 992,950.61663 c 0,-0.21085 0.90062,-0.61888 2.00138,-0.90674 1.10076,-0.28785 1.7492,-0.11534 1.44098,0.38337 C 994.90411,950.96417 992,951.4057 992,950.61663 Z M 918,944 c -0.90129,-0.58246 -1.02463,-0.97549 -0.30902,-0.98469 0.65504,-0.008 1.4691,0.43469 1.80902,0.98469 0.7673,1.24153 0.42112,1.24153 -1.5,0 z m -6,-3 c -0.90129,-0.58246 -1.02463,-0.97549 -0.30902,-0.98469 0.65504,-0.008 1.4691,0.43469 1.80902,0.98469 0.7673,1.24153 0.42112,1.24153 -1.5,0 z m -8.44113,-5.5318 C 902.49125,934.66069 902.09865,934 902.68643,934 c 0.58777,0 1.62888,0.675 2.31357,1.5 1.5572,1.87632 1.06734,1.86551 -1.44113,-0.0318 z M 1047,920.5 c 3.5432,-3.575 6.6672,-6.5 6.9422,-6.5 0.275,0 -2.399,2.925 -5.9422,6.5 -3.5432,3.575 -6.6672,6.5 -6.9422,6.5 -0.275,0 2.399,-2.925 5.9422,-6.5 z M 880.45888,909.93347 c -0.36253,-0.58659 -0.44468,-1.281 -0.18255,-1.54313 0.26212,-0.26213 0.74306,0.21781 1.06875,1.06653 0.67618,1.76211 0.0998,2.07206 -0.8862,0.4766 z m 68.35362,-0.61658 c 0.72187,-0.28887 1.58438,-0.25335 1.91667,0.0789 0.33229,0.33229 -0.25834,0.56864 -1.3125,0.52522 -1.16495,-0.048 -1.4019,-0.28494 -0.60417,-0.60416 z m 38,0 c 0.72187,-0.28887 1.58438,-0.25335 1.91667,0.0789 0.33229,0.33229 -0.25834,0.56864 -1.3125,0.52522 -1.16495,-0.048 -1.4019,-0.28494 -0.60417,-0.60416 z m -15.18334,-1.1079 c -0.26888,-0.43506 1.05457,-0.61082 2.94099,-0.39059 1.88642,0.22022 3.42985,0.57618 3.42985,0.79101 0,0.75258 -5.88692,0.38257 -6.37084,-0.40042 z M 525,907.68709 c 0,-0.1721 1.4625,-1.6346 3.25,-3.25 l 3.25,-2.93709 -2.93709,3.25 C 525.82513,907.77946 525,908.45965 525,907.68709 Z m 408.44113,-4.24226 c -1.86402,-1.49339 -1.85176,-1.51185 0.30887,-0.46481 1.2375,0.59969 2.25,1.29951 2.25,1.55516 0,0.76522 -0.51861,0.54424 -2.55887,-1.09035 z M 973,903 c 0.5887,-1.1 1.29537,-2 1.57037,-2 0.275,0 0.0183,0.9 -0.57037,2 -0.5887,1.1 -1.29537,2 -1.57037,2 -0.275,0 -0.0183,-0.9 0.57037,-2 z m -450,-0.94098 c 0,-0.51754 0.44485,-1.21592 0.98855,-1.55194 0.56686,-0.35034 0.7345,0.0511 0.39301,0.94098 C 523.71677,903.18048 523,903.49745 523,902.05902 Z m 351.45888,-4.12555 c -0.36253,-0.58659 -0.44468,-1.281 -0.18255,-1.54313 0.26212,-0.26213 0.74306,0.21781 1.06875,1.06653 0.67618,1.76211 0.0998,2.07206 -0.8862,0.4766 z m 45.64471,-4.46827 C 918.39662,891.52107 917,889.63107 917,889.2652 c 0,-0.36586 0.34099,-0.2377 0.75775,0.2848 0.41676,0.5225 2.07595,2.4125 3.68709,4.2 1.61114,1.7875 2.66677,3.25 2.34584,3.25 -0.32092,0 -1.98011,-1.59066 -3.68709,-3.5348 z m 59.4607,0.24167 c 0.37553,-0.98622 0.93469,-1.54122 1.24258,-1.23333 0.30789,0.30789 6.4e-4,1.11479 -0.68278,1.79313 -0.98762,0.98026 -1.10248,0.8654 -0.5598,-0.5598 z m -108.10541,-4.7734 c -0.36253,-0.58659 -0.44468,-1.281 -0.18255,-1.54313 0.26212,-0.26213 0.74306,0.21781 1.06875,1.06653 0.67618,1.76211 0.0998,2.07206 -0.8862,0.4766 z M 1018,886.62244 c 0,-0.20765 0.7875,-0.99515 1.75,-1.75 1.5861,-1.24387 1.6214,-1.2085 0.3776,0.37756 -1.3064,1.66575 -2.1276,2.19548 -2.1276,1.37244 z M 550,882.5 c 1.29175,-1.375 2.57363,-2.5 2.84863,-2.5 0.275,0 -0.55688,1.125 -1.84863,2.5 -1.29175,1.375 -2.57363,2.5 -2.84863,2.5 -0.275,0 0.55688,-1.125 1.84863,-2.5 z m 476.5113,0.12312 c 0.9453,-1.44271 1.9078,-2.62312 2.1389,-2.62312 0.7234,0 -1.6049,3.85397 -2.7593,4.56743 -0.6041,0.37335 -0.3249,-0.50159 0.6204,-1.94431 z m -114.94701,-1.32999 c -0.54268,-1.4252 -0.42782,-1.54006 0.5598,-0.5598 0.68342,0.67834 0.99067,1.48524 0.68278,1.79313 -0.30789,0.30789 -0.86705,-0.24711 -1.24258,-1.23333 z M 1025,877.05902 c 0,-0.51754 0.4448,-1.21592 0.9885,-1.55194 0.5669,-0.35034 0.7346,0.0511 0.3931,0.94098 -0.6648,1.73242 -1.3816,2.04939 -1.3816,0.61096 z M 558,872 c 0.5887,-1.1 1.29537,-2 1.57037,-2 0.275,0 0.0183,0.9 -0.57037,2 -0.5887,1.1 -1.29537,2 -1.57037,2 -0.275,0 -0.0183,-0.9 0.57037,-2 z m 310.19495,-0.5 c 0.0204,-1.65 0.2445,-2.20394 0.49804,-1.23097 0.25354,0.97297 0.23687,2.32297 -0.0371,3 -0.27393,0.67703 -0.48137,-0.11903 -0.46099,-1.76903 z m -336.16432,1 c 0,-0.55 0.43621,-1.675 0.96937,-2.5 0.53316,-0.825 0.96937,-1.05 0.96937,-0.5 0,0.55 -0.43621,1.675 -0.96937,2.5 -0.53316,0.825 -0.96937,1.05 -0.96937,0.5 z m 496.53367,-1.79313 c 0.3755,-0.98622 0.9347,-1.54122 1.2426,-1.23333 0.3079,0.30789 6e-4,1.11479 -0.6828,1.79313 -0.9876,0.98026 -1.1025,0.8654 -0.5598,-0.5598 z M 991.03063,868.5 c 0,-0.55 0.43621,-1.675 0.96937,-2.5 0.53316,-0.825 0.96937,-1.05 0.96937,-0.5 0,0.55 -0.43621,1.675 -0.96937,2.5 -0.53316,0.825 -0.96937,1.05 -0.96937,0.5 z M 1031,865.05902 c 0,-0.51754 0.4448,-1.21592 0.9885,-1.55194 0.5669,-0.35034 0.7346,0.0511 0.3931,0.94098 -0.6648,1.73242 -1.3816,2.04939 -1.3816,0.61096 z M 906.27236,858 c 0,-2.475 0.19502,-3.4875 0.43337,-2.25 0.23836,1.2375 0.23836,3.2625 0,4.5 -0.23835,1.2375 -0.43337,0.225 -0.43337,-2.25 z M 1039,858.05902 c 0,-0.51754 0.4448,-1.21592 0.9885,-1.55194 0.5669,-0.35034 0.7346,0.0511 0.3931,0.94098 -0.6648,1.73242 -1.3816,2.04939 -1.3816,0.61096 z M 566.34281,845.5 c 0.004,-4.4 0.17944,-6.07561 0.39069,-3.72357 0.21124,2.35204 0.20827,5.95204 -0.007,8 -0.21487,2.04796 -0.38771,0.12357 -0.38408,-4.27643 z m 427.85214,5 c 0.0204,-1.65 0.2445,-2.20394 0.49804,-1.23097 0.25354,0.97297 0.23687,2.32297 -0.0371,3 -0.27393,0.67703 -0.48137,-0.11903 -0.46099,-1.76903 z M 1034.5,841 c 0,-6.66492 0.2926,-11.07898 0.6503,-9.80902 0.3577,1.26996 0.6503,5.68402 0.6503,9.80902 0,4.125 -0.2926,8.53906 -0.6503,9.80902 -0.3577,1.26996 -0.6503,-3.1441 -0.6503,-9.80902 z m 47.6949,9.5 c 0.02,-1.65 0.2445,-2.20394 0.4981,-1.23097 0.2535,0.97297 0.2369,2.32297 -0.037,3 -0.2739,0.67703 -0.4813,-0.11903 -0.461,-1.76903 z m -40.116,-5.08333 c 0.048,-1.16495 0.285,-1.4019 0.6042,-0.60417 0.2889,0.72187 0.2534,1.58438 -0.079,1.91667 -0.3323,0.33229 -0.5687,-0.25834 -0.5253,-1.3125 z M 1083.232,844 c 0,-1.925 0.2058,-2.7125 0.4573,-1.75 0.2516,0.9625 0.2516,2.5375 0,3.5 -0.2515,0.9625 -0.4573,0.175 -0.4573,-1.75 z m -215.21669,-2.08333 c 0.008,-1.32917 0.4578,-3.09167 0.99861,-3.91667 0.69179,-1.05532 0.79289,-0.46242 0.34104,2 -0.79139,4.31279 -1.35998,5.12629 -1.33965,1.91667 z M 1043.3605,834 c 0,-5.225 0.1685,-7.3625 0.3745,-4.75 0.206,2.6125 0.206,6.8875 0,9.5 -0.206,2.6125 -0.3745,0.475 -0.3745,-4.75 z M 911,835.05902 c 0,-0.51754 0.44485,-1.21592 0.98855,-1.55194 0.56686,-0.35034 0.7345,0.0511 0.39301,0.94098 C 911.71677,836.18048 911,836.49745 911,835.05902 Z m -384.89961,-5.3545 c -1.26492,-2.10631 -1.24361,-2.12762 0.47833,-0.47833 0.99123,0.94941 1.58698,1.94144 1.3239,2.20452 -0.26308,0.26308 -1.07408,-0.5137 -1.80223,-1.72619 z M 914,829.05902 c 0,-0.51754 0.44485,-1.21592 0.98855,-1.55194 0.56686,-0.35034 0.7345,0.0511 0.39301,0.94098 C 914.71677,830.18048 914,830.49745 914,829.05902 Z m -350.43571,-1.76589 c -0.54268,-1.4252 -0.42782,-1.54006 0.5598,-0.5598 0.68342,0.67834 0.99067,1.48524 0.68278,1.79313 -0.30789,0.30789 -0.86705,-0.24711 -1.24258,-1.23333 z M 988,825 c -0.5887,-1.1 -0.84537,-2 -0.57037,-2 0.275,0 0.98167,0.9 1.57037,2 0.5887,1.1 0.84537,2 0.57037,2 -0.275,0 -0.98167,-0.9 -1.57037,-2 z m 54.232,-4 c 0,-1.925 0.2058,-2.7125 0.4573,-1.75 0.2516,0.9625 0.2516,2.5375 0,3.5 -0.2515,0.9625 -0.4573,0.175 -0.4573,-1.75 z m 41.0202,-0.5 c 0.011,-2.2 0.2159,-2.98225 0.4551,-1.73834 0.2392,1.24391 0.2301,3.04391 -0.02,4 -0.2503,0.95609 -0.446,-0.0617 -0.4349,-2.26166 z M 874,819.05902 c 0,-0.51754 0.44485,-1.21592 0.98855,-1.55194 0.56686,-0.35034 0.7345,0.0511 0.39301,0.94098 C 874.71677,820.18048 874,820.49745 874,819.05902 Z m 157.5643,-0.76589 c -0.5427,-1.4252 -0.4278,-1.54006 0.5598,-0.5598 0.6834,0.67834 0.9907,1.48524 0.6828,1.79313 -0.3079,0.30789 -0.8671,-0.24711 -1.2426,-1.23333 z M 1082.1579,814 c 0,-1.375 0.227,-1.9375 0.5044,-1.25 0.2774,0.6875 0.2774,1.8125 0,2.5 -0.2774,0.6875 -0.5044,0.125 -0.5044,-1.25 z M 504,811 c -0.90129,-0.58246 -1.02463,-0.97549 -0.30902,-0.98469 0.65504,-0.008 1.4691,0.43469 1.80902,0.98469 0.7673,1.24153 0.42112,1.24153 -1.5,0 z m 524.4589,-1.06653 c -0.3626,-0.58659 -0.4447,-1.281 -0.1826,-1.54313 0.2622,-0.26213 0.7431,0.21781 1.0688,1.06653 0.6762,1.76211 0.1,2.07206 -0.8862,0.4766 z m -76.6464,-3.61658 c 0.72187,-0.28887 1.58438,-0.25335 1.91667,0.0789 0.33229,0.33229 -0.25834,0.56864 -1.3125,0.52522 -1.16495,-0.048 -1.4019,-0.28494 -0.60417,-0.60416 z m -463.30542,-4.30544 c -0.35034,-0.56686 0.0511,-0.7345 0.94098,-0.39301 1.73242,0.66479 2.04939,1.38156 0.61096,1.38156 -0.51754,0 -1.21592,-0.44485 -1.55194,-0.98855 z m 544.95182,-6.07798 c -0.3626,-0.58659 -0.4447,-1.281 -0.1826,-1.54313 0.2622,-0.26213 0.7431,0.21781 1.0688,1.06653 0.6762,1.76211 0.1,2.07206 -0.8862,0.4766 z M 472.13922,790.96673 C 470.84078,789.88503 470.20854,789 470.73423,789 c 0.52569,0 1.77028,0.9 2.76577,2 2.28688,2.52697 1.69506,2.5125 -1.36078,-0.0333 z m 549.91018,-10.29464 -6.4506,-7.17209 5.7743,5.5 c 4.7328,4.50791 8.6899,9.27118 7.4121,8.92209 -0.1569,-0.0429 -3.188,-3.30535 -6.7358,-7.25 z m 51.5149,4.62104 c -0.5427,-1.4252 -0.4278,-1.54006 0.5598,-0.5598 0.6834,0.67834 0.9907,1.48524 0.6828,1.79313 -0.3079,0.30789 -0.8671,-0.24711 -1.2426,-1.23333 z M 530.87244,782.25 c -1.24387,-1.58606 -1.2085,-1.62143 0.37756,-0.37756 0.9625,0.75485 1.75,1.54235 1.75,1.75 0,0.82304 -0.82119,0.29331 -2.12756,-1.37244 z m 539.69186,-2.95687 c -0.5427,-1.4252 -0.4278,-1.54006 0.5598,-0.5598 0.6834,0.67834 0.9907,1.48524 0.6828,1.79313 -0.3079,0.30789 -0.8671,-0.24711 -1.2426,-1.23333 z m -614.99823,-5.04316 c -2.16115,-2.76224 -2.3343,-3.22612 -0.65738,-1.76116 2.00484,1.75144 4.64945,5.51124 3.87649,5.51116 -0.15685,-2e-5 -1.60545,-1.68752 -3.21911,-3.75 z M 909,777.60699 c 0,-0.21616 0.69837,-0.661 1.55194,-0.98855 0.88992,-0.34149 1.29132,-0.17385 0.94098,0.39301 C 910.90566,777.96166 909,778.4169 909,777.60699 Z m 11.73333,-5.73108 c 0.67834,-0.68342 1.48524,-0.99067 1.79313,-0.68278 0.30789,0.30789 -0.24711,0.86705 -1.23333,1.24258 -1.4252,0.54268 -1.54006,0.42782 -0.5598,-0.5598 z M 515.87244,770.25 c -1.24387,-1.58606 -1.2085,-1.62143 0.37756,-0.37756 0.9625,0.75485 1.75,1.54235 1.75,1.75 0,0.82304 -0.82119,0.29331 -2.12756,-1.37244 z m 413.94006,-1.93311 c 0.72187,-0.28887 1.58438,-0.25335 1.91667,0.0789 0.33229,0.33229 -0.25834,0.56864 -1.3125,0.52522 -1.16495,-0.048 -1.4019,-0.28494 -0.60417,-0.60416 z M 1003,764.91065 c -2.1538,-1.76168 -2.1961,-1.89635 -0.3057,-0.97239 1.2069,0.58987 2.4709,1.52008 2.809,2.06712 0.9026,1.4604 0.2964,1.19531 -2.5033,-1.09473 z M 1062,765 c -0.5887,-1.1 -0.8454,-2 -0.5704,-2 0.275,0 0.9817,0.9 1.5704,2 0.5887,1.1 0.8454,2 0.5704,2 -0.275,0 -0.9817,-0.9 -1.5704,-2 z m -119.1875,0.31689 c 0.72187,-0.28887 1.58438,-0.25335 1.91667,0.0789 0.33229,0.33229 -0.25834,0.56864 -1.3125,0.52522 -1.16495,-0.048 -1.4019,-0.28494 -0.60417,-0.60416 z m 25.9375,0.0208 c 0.6875,-0.27741 1.8125,-0.27741 2.5,0 0.6875,0.27741 0.125,0.50439 -1.25,0.50439 -1.375,0 -1.9375,-0.22698 -1.25,-0.50439 z M 445,761 c -0.5887,-1.1 -0.84537,-2 -0.57037,-2 0.275,0 0.98167,0.9 1.57037,2 0.5887,1.1 0.84537,2 0.57037,2 -0.275,0 -0.98167,-0.9 -1.57037,-2 z m 58.86078,-0.0593 -2.36078,-2.05935 2.75,1.67436 c 1.5125,0.9209 2.75,1.84761 2.75,2.05935 0,0.78084 -0.83549,0.33522 -3.13922,-1.67436 z M 536.75,760.33772 c 0.6875,-0.27741 1.8125,-0.27741 2.5,0 0.6875,0.27741 0.125,0.50439 -1.25,0.50439 -1.375,0 -1.9375,-0.22698 -1.25,-0.50439 z m 27.0625,-0.0208 c 0.72187,-0.28887 1.58438,-0.25335 1.91667,0.0789 0.33229,0.33229 -0.25834,0.56864 -1.3125,0.52522 -1.16495,-0.048 -1.4019,-0.28494 -0.60417,-0.60416 z m 13,-3 c 0.72187,-0.28887 1.58438,-0.25335 1.91667,0.0789 0.33229,0.33229 -0.25834,0.56864 -1.3125,0.52522 -1.16495,-0.048 -1.4019,-0.28494 -0.60417,-0.60416 z M 990.87244,755.25 c -1.24387,-1.58606 -1.2085,-1.62143 0.37756,-0.37756 1.66575,1.30637 2.19548,2.12756 1.37244,2.12756 -0.20765,0 -0.99515,-0.7875 -1.75,-1.75 z M 585,754.60699 c 0,-0.21616 0.69837,-0.661 1.55194,-0.98855 0.88992,-0.34149 1.29132,-0.17385 0.94098,0.39301 C 586.90566,754.96166 585,755.4169 585,754.60699 Z M 1052.3231,752.75 c -1.1141,-1.2375 -2.3835,-2.925 -2.821,-3.75 -0.844,-1.59144 -0.6138,-1.37378 3.4372,3.25 1.3251,1.5125 2.1843,2.75 1.9093,2.75 -0.275,0 -1.4115,-1.0125 -2.5255,-2.25 z M 485.15851,745.58655 C 481.77133,742.05916 479,738.83416 479,738.41989 c 0,-0.41427 0.13246,-0.56572 0.29436,-0.33656 0.1619,0.22917 3.15823,3.45417 6.65851,7.16667 3.50028,3.7125 6.13914,6.75 5.86414,6.75 -0.275,0 -3.27132,-2.88605 -6.6585,-6.41345 z m 111.57482,3.28936 c 0.67834,-0.68342 1.48524,-0.99067 1.79313,-0.68278 0.30789,0.30789 -0.24711,0.86705 -1.23333,1.24258 -1.4252,0.54268 -1.54006,0.42782 -0.5598,-0.5598 z m -160.27445,-1.94244 c -0.36253,-0.58659 -0.44468,-1.281 -0.18255,-1.54313 0.26212,-0.26213 0.74306,0.21781 1.06875,1.06653 0.67618,1.76211 0.0999,2.07206 -0.8862,0.4766 z M 975.87244,743.25 c -1.24387,-1.58606 -1.2085,-1.62143 0.37756,-0.37756 0.9625,0.75485 1.75,1.54235 1.75,1.75 0,0.82304 -0.82119,0.29331 -2.12756,-1.37244 z m -542.41356,-2.31653 c -0.36253,-0.58659 -0.44468,-1.281 -0.18255,-1.54313 0.26212,-0.26213 0.74306,0.21781 1.06875,1.06653 0.67618,1.76211 0.0999,2.07206 -0.8862,0.4766 z M 1034.405,734.75 l -1.905,-2.25 2.5,1.98934 c 1.375,1.09414 2.6875,2.10664 2.9167,2.25 0.2291,0.14336 -0.039,0.26066 -0.595,0.26066 -0.5565,0 -1.869,-1.0125 -2.9167,-2.25 z m -560.84071,-4.45687 c -0.54268,-1.4252 -0.42782,-1.54006 0.5598,-0.5598 0.68342,0.67834 0.99067,1.48524 0.68278,1.79313 -0.30789,0.30789 -0.86705,-0.24711 -1.24258,-1.23333 z M 1018,724 c -0.9013,-0.58246 -1.0246,-0.97549 -0.309,-0.98469 0.655,-0.008 1.4691,0.43469 1.809,0.98469 0.7673,1.24153 0.4211,1.24153 -1.5,0 z m -463.1875,-4.68311 c 0.72187,-0.28887 1.58438,-0.25335 1.91667,0.0789 0.33229,0.33229 -0.25834,0.56864 -1.3125,0.52522 -1.16495,-0.048 -1.4019,-0.28494 -0.60417,-0.60416 z m -76.24821,-3.02376 c -0.54268,-1.4252 -0.42782,-1.54006 0.5598,-0.5598 0.68342,0.67834 0.99067,1.48524 0.68278,1.79313 -0.30789,0.30789 -0.86705,-0.24711 -1.24258,-1.23333 z m 523.94281,-1.28168 c -0.3504,-0.56686 0.051,-0.7345 0.941,-0.39301 1.7324,0.66479 2.0493,1.38156 0.6109,1.38156 -0.5175,0 -1.2159,-0.44485 -1.5519,-0.98855 z M 425.15789,712 c 0,-1.375 0.22698,-1.9375 0.50439,-1.25 0.27741,0.6875 0.27741,1.8125 0,2.5 -0.27741,0.6875 -0.50439,0.125 -0.50439,-1.25 z m -0.90571,-6.5 c 0.0111,-2.2 0.21589,-2.98225 0.45508,-1.73834 0.23919,1.24391 0.23011,3.04391 -0.0202,4 -0.25029,0.95609 -0.446,-0.0617 -0.4349,-2.26166 z m 51.2067,2.43347 c -0.36253,-0.58659 -0.44468,-1.281 -0.18255,-1.54313 0.26212,-0.26213 0.74306,0.21781 1.06875,1.06653 0.67618,1.76211 0.0999,2.07206 -0.8862,0.4766 z m 157.10541,-0.2266 c 0.37553,-0.98622 0.93469,-1.54122 1.24258,-1.23333 0.30789,0.30789 6.4e-4,1.11479 -0.68278,1.79313 -0.98762,0.98026 -1.10248,0.8654 -0.5598,-0.5598 z M 465.232,705 c 0,-1.925 0.2058,-2.7125 0.45733,-1.75 0.25152,0.9625 0.25152,2.5375 0,3.5 -0.25153,0.9625 -0.45733,0.175 -0.45733,-1.75 z M 519,701 c -0.5887,-1.1 -0.84537,-2 -0.57037,-2 0.275,0 0.98167,0.9 1.57037,2 0.5887,1.1 0.84537,2 0.57037,2 -0.275,0 -0.98167,-0.9 -1.57037,-2 z m -54.6395,-9 c 0,-5.225 0.16854,-7.3625 0.37454,-4.75 0.206,2.6125 0.206,6.8875 0,9.5 -0.206,2.6125 -0.37454,0.475 -0.37454,-4.75 z m 479.09838,6.93347 c -0.36253,-0.58659 -0.44468,-1.281 -0.18255,-1.54313 0.26212,-0.26213 0.74306,0.21781 1.06875,1.06653 0.67618,1.76211 0.0998,2.07206 -0.8862,0.4766 z m -350.89459,-1.2266 c 0.37553,-0.98622 0.93469,-1.54122 1.24258,-1.23333 0.30789,0.30789 6.4e-4,1.11479 -0.68278,1.79313 -0.98762,0.98026 -1.10248,0.8654 -0.5598,-0.5598 z m 388.41565,-1.23104 c -0.69572,-0.83829 -1.07128,-1.71782 -0.83459,-1.95452 0.2367,-0.23669 0.97964,0.44918 1.65098,1.52417 1.45181,2.32472 0.96763,2.57996 -0.81639,0.43035 z M 472.625,693.875 c -0.78259,-3.91297 -0.64197,-15.60689 0.22468,-18.68402 0.35768,-1.26996 0.65032,3.11754 0.65032,9.75 0,6.63246 -0.0562,12.05902 -0.125,12.05902 -0.0688,0 -0.40625,-1.40625 -0.75,-3.125 z m 122.93929,-2.16813 c 0.37553,-0.98622 0.93469,-1.54122 1.24258,-1.23333 0.30789,0.30789 6.4e-4,1.11479 -0.68278,1.79313 -0.98762,0.98026 -1.10248,0.8654 -0.5598,-0.5598 z M 638.64504,686 c 0.79139,-4.31279 1.35998,-5.12629 1.33965,-1.91667 -0.008,1.32917 -0.4578,3.09167 -0.99861,3.91667 -0.69179,1.05532 -0.79289,0.46242 -0.34104,-2 z m 302.69777,-5.5 c 0.004,-4.4 0.17944,-6.07561 0.39069,-3.72357 0.21124,2.35204 0.20827,5.95204 -0.007,8 -0.21487,2.04796 -0.38771,0.12357 -0.38408,-4.27643 z M 424.232,682 c 0,-1.925 0.2058,-2.7125 0.45733,-1.75 0.25152,0.9625 0.25152,2.5375 0,3.5 -0.25153,0.9625 -0.45733,0.175 -0.45733,-1.75 z m 40.84695,-1.58333 c 0.048,-1.16495 0.28494,-1.4019 0.60416,-0.60417 0.28887,0.72187 0.25335,1.58438 -0.0789,1.91667 -0.33229,0.33229 -0.56864,-0.25834 -0.52522,-1.3125 z M 425.19495,675.5 c 0.0204,-1.65 0.2445,-2.20394 0.49804,-1.23097 0.25354,0.97297 0.23687,2.32297 -0.0371,3 -0.27393,0.67703 -0.48137,-0.11903 -0.46099,-1.76903 z m 88,0 c 0.0204,-1.65 0.2445,-2.20394 0.49804,-1.23097 0.25354,0.97297 0.23687,2.32297 -0.0371,3 -0.27393,0.67703 -0.48137,-0.11903 -0.46099,-1.76903 z m 88.07741,-7.5 c 0,-2.475 0.19502,-3.4875 0.43337,-2.25 0.23836,1.2375 0.23836,3.2625 0,4.5 -0.23835,1.2375 -0.43337,0.225 -0.43337,-2.25 z m -133.70807,0.70687 c 0.37553,-0.98622 0.93469,-1.54122 1.24258,-1.23333 0.30789,0.30789 6.4e-4,1.11479 -0.68278,1.79313 -0.98762,0.98026 -1.10248,0.8654 -0.5598,-0.5598 z m 8,-7 c 0.37553,-0.98622 0.93469,-1.54122 1.24258,-1.23333 0.30789,0.30789 6.4e-4,1.11479 -0.68278,1.79313 -0.98762,0.98026 -1.10248,0.8654 -0.5598,-0.5598 z M 515.03063,660.5 c 0,-0.55 0.43621,-1.675 0.96937,-2.5 0.53316,-0.825 0.96937,-1.05 0.96937,-0.5 0,0.55 -0.43621,1.675 -0.96937,2.5 -0.53316,0.825 -0.96937,1.05 -0.96937,0.5 z M 478,656.05902 c 0,-0.51754 0.44485,-1.21592 0.98855,-1.55194 0.56686,-0.35034 0.7345,0.0511 0.39301,0.94098 C 478.71677,657.18048 478,657.49745 478,656.05902 Z M 639.19495,654.5 c 0.0204,-1.65 0.2445,-2.20394 0.49804,-1.23097 0.25354,0.97297 0.23687,2.32297 -0.0371,3 -0.27393,0.67703 -0.48137,-0.11903 -0.46099,-1.76903 z m 334.83568,2 c 0,-0.55 0.43621,-1.675 0.96937,-2.5 0.53316,-0.825 0.96937,-1.05 0.96937,-0.5 0,0.55 -0.43621,1.675 -0.96937,2.5 -0.53316,0.825 -0.96937,1.05 -0.96937,0.5 z M 949,654 c 0.5887,-1.1 1.29537,-2 1.57037,-2 0.275,0 0.0183,0.9 -0.57037,2 -0.5887,1.1 -1.29537,2 -1.57037,2 -0.275,0 -0.0183,-0.9 0.57037,-2 z m -467.43571,-4.29313 c 0.37553,-0.98622 0.93469,-1.54122 1.24258,-1.23333 0.30789,0.30789 6.4e-4,1.11479 -0.68278,1.79313 -0.98762,0.98026 -1.10248,0.8654 -0.5598,-0.5598 z m -1.5941,-5.65118 c 0.57231,-1.06937 1.53482,-2.24977 2.13891,-2.62312 0.6041,-0.37335 0.32492,0.50159 -0.62038,1.94431 -2.00162,3.05486 -3.03812,3.51819 -1.51853,0.67881 z m 115.48869,0.87778 c -0.36253,-0.58659 -0.44468,-1.281 -0.18255,-1.54313 0.26212,-0.26213 0.74306,0.21781 1.06875,1.06653 0.67618,1.76211 0.0998,2.07206 -0.8862,0.4766 z M 957,643.5 c 1.29175,-1.375 2.57363,-2.5 2.84863,-2.5 0.275,0 -0.55688,1.125 -1.84863,2.5 -1.29175,1.375 -2.57363,2.5 -2.84863,2.5 -0.275,0 0.55688,-1.125 1.84863,-2.5 z m -470,-1.87756 c 0,-0.20765 0.7875,-0.99515 1.75,-1.75 1.58606,-1.24387 1.62143,-1.2085 0.37756,0.37756 C 487.82119,641.91575 487,642.44548 487,641.62244 Z m 148.56429,-4.32931 c -0.54268,-1.4252 -0.42782,-1.54006 0.5598,-0.5598 0.68342,0.67834 0.99067,1.48524 0.68278,1.79313 -0.30789,0.30789 -0.86705,-0.24711 -1.24258,-1.23333 z m -48.49811,-4.56116 c -2.84796,-3.50993 -2.96026,-3.80543 -0.65818,-1.73197 2.39234,2.15476 5.23238,6.03603 4.37718,5.98197 -0.15685,-0.01 -1.8304,-1.92241 -3.719,-4.25 z M 527,633.05902 c 0,-0.51754 0.44485,-1.21592 0.98855,-1.55194 0.56686,-0.35034 0.7345,0.0511 0.39301,0.94098 C 527.71677,634.18048 527,634.49745 527,633.05902 Z m 105.56429,-4.76589 c -0.54268,-1.4252 -0.42782,-1.54006 0.5598,-0.5598 0.68342,0.67834 0.99067,1.48524 0.68278,1.79313 -0.30789,0.30789 -0.86705,-0.24711 -1.24258,-1.23333 z m 351,-3.58626 c 0.37553,-0.98622 0.93469,-1.54122 1.24258,-1.23333 0.30789,0.30789 6.4e-4,1.11479 -0.68278,1.79313 -0.98762,0.98026 -1.10248,0.8654 -0.5598,-0.5598 z M 534,623 c 0.5887,-1.1 1.29537,-2 1.57037,-2 0.275,0 0.0183,0.9 -0.57037,2 -0.5887,1.1 -1.29537,2 -1.57037,2 -0.275,0 -0.0183,-0.9 0.57037,-2 z m 39.44113,-0.55517 c -1.86402,-1.49339 -1.85176,-1.51185 0.30887,-0.46481 1.2375,0.59969 2.25,1.29951 2.25,1.55516 0,0.76522 -0.51861,0.54424 -2.55887,-1.09035 z M 977,623.68709 c 0,-0.1721 1.4625,-1.6346 3.25,-3.25 l 3.25,-2.93709 -2.93709,3.25 C 977.82513,623.77946 977,624.45965 977,623.68709 Z M 533,618 l -3.5,-0.73672 3.19098,-0.13164 c 1.75504,-0.0724 3.4691,0.31836 3.80902,0.86836 0.33992,0.55 0.47898,0.94076 0.30902,0.86836 C 536.63906,618.79596 534.925,618.40519 533,618 Z m 93.56429,-1.70687 c -0.54268,-1.4252 -0.42782,-1.54006 0.5598,-0.5598 0.68342,0.67834 0.99067,1.48524 0.68278,1.79313 -0.30789,0.30789 -0.86705,-0.24711 -1.24258,-1.23333 z m -106.75179,0.0238 c 0.72187,-0.28887 1.58438,-0.25335 1.91667,0.0789 0.33229,0.33229 -0.25834,0.56864 -1.3125,0.52522 -1.16495,-0.048 -1.4019,-0.28494 -0.60417,-0.60416 z m 38,0 c 0.72187,-0.28887 1.58438,-0.25335 1.91667,0.0789 0.33229,0.33229 -0.25834,0.56864 -1.3125,0.52522 -1.16495,-0.048 -1.4019,-0.28494 -0.60417,-0.60416 z M 460,605.5 c 3.54322,-3.575 6.66722,-6.5 6.94222,-6.5 0.275,0 -2.399,2.925 -5.94222,6.5 -3.54322,3.575 -6.66722,6.5 -6.94222,6.5 -0.275,0 2.399,-2.925 5.94222,-6.5 z m 142.87244,-15.25 c -1.26951,-1.61876 -1.22245,-1.63998 0.62756,-0.28297 1.1,0.80687 2.1875,1.59437 2.41667,1.75 0.22916,0.15563 -0.0532,0.28297 -0.62756,0.28297 -0.57432,0 -1.66182,-0.7875 -2.41667,-1.75 z m -8.36536,-5.23855 c -0.35034,-0.56686 0.0511,-0.7345 0.94098,-0.39301 1.73242,0.66479 2.04939,1.38156 0.61096,1.38156 -0.51754,0 -1.21592,-0.44485 -1.55194,-0.98855 z m -6,-3 c -0.35034,-0.56686 0.0511,-0.7345 0.94098,-0.39301 1.73242,0.66479 2.04939,1.38156 0.61096,1.38156 -0.51754,0 -1.21592,-0.44485 -1.55194,-0.98855 z m -75.73863,-6.1799 c 0.5811,-0.5811 1.64682,-0.85979 2.36826,-0.61931 0.74895,0.24965 0.29565,0.70294 -1.05655,1.05655 -1.66335,0.43497 -2.05378,0.30483 -1.31171,-0.43724 z M 571,576 c -0.90129,-0.58246 -1.02463,-0.97549 -0.30902,-0.98469 0.65504,-0.008 1.4691,0.43469 1.80902,0.98469 0.7673,1.24153 0.42112,1.24153 -1.5,0 z m -37.65988,-3.23137 c 0.63793,-0.4059 5.20988,-0.68361 10.15988,-0.61714 10.28309,0.13811 8.82055,0.6292 -3.15988,1.06103 -4.48794,0.16177 -7.63794,-0.038 -7,-0.44389 z M 521.75,568.33772 c 0.6875,-0.27741 1.8125,-0.27741 2.5,0 0.6875,0.27741 0.125,0.50439 -1.25,0.50439 -1.375,0 -1.9375,-0.22698 -1.25,-0.50439 z m 38.75708,-0.32627 c -0.35034,-0.56686 0.0511,-0.7345 0.94098,-0.39301 1.73242,0.66479 2.04939,1.38156 0.61096,1.38156 -0.51754,0 -1.21592,-0.44485 -1.55194,-0.98855 z M 570,565.5 c 1.86578,-1.925 3.61733,-3.5 3.89233,-3.5 0.275,0 -1.02655,1.575 -2.89233,3.5 -1.86578,1.925 -3.61733,3.5 -3.89233,3.5 -0.275,0 1.02655,-1.575 2.89233,-3.5 z m -46.43571,-8.79313 c 0.37553,-0.98622 0.93469,-1.54122 1.24258,-1.23333 0.30789,0.30789 6.4e-4,1.11479 -0.68278,1.79313 -0.98762,0.98026 -1.10248,0.8654 -0.5598,-0.5598 z m 182.70474,-3.39986 c 0.97297,-0.25354 2.32297,-0.23687 3,0.0371 0.67703,0.27393 -0.11903,0.48137 -1.76903,0.46099 -1.65,-0.0204 -2.20394,-0.2445 -1.23097,-0.49804 z m 8.98097,0.004 c 0.9625,-0.25152 2.5375,-0.25152 3.5,0 0.9625,0.25153 0.175,0.45733 -1.75,0.45733 -1.925,0 -2.7125,-0.2058 -1.75,-0.45733 z M 727.5,549 c 0.99549,-1.1 2.03498,-2 2.30998,-2 0.275,0 -0.31449,0.9 -1.30998,2 -0.99549,1.1 -2.03498,2 -2.30998,2 -0.275,0 0.31449,-0.9 1.30998,-2 z M 529,548.62244 c 0,-0.20765 0.7875,-0.99515 1.75,-1.75 1.58606,-1.24387 1.62143,-1.2085 0.37756,0.37756 C 529.82119,548.91575 529,549.44548 529,548.62244 Z m 218.58928,-1.47798 c -0.29082,-0.47055 0.58263,-0.64309 1.94098,-0.38343 1.35836,0.25967 2.46974,0.64466 2.46974,0.85555 0,0.77375 -3.89864,0.35644 -4.41072,-0.47212 z M 783,547.61658 c 0,-0.21089 1.11138,-0.59588 2.46974,-0.85555 1.35835,-0.25966 2.2318,-0.0871 1.94098,0.38343 C 786.89864,547.97302 783,548.39033 783,547.61658 Z m 12,-3.00959 c 0,-0.21616 0.69837,-0.661 1.55194,-0.98855 0.88992,-0.34149 1.29132,-0.17385 0.94098,0.39301 C 796.90566,544.96166 795,545.4169 795,544.60699 Z M 718,540 c -0.90129,-0.58246 -1.02463,-0.97549 -0.30902,-0.98469 0.65504,-0.008 1.4691,0.43469 1.80902,0.98469 0.7673,1.24153 0.42112,1.24153 -1.5,0 z m 4.50708,-1.98855 c -0.35034,-0.56686 0.0511,-0.7345 0.94098,-0.39301 1.73242,0.66479 2.04939,1.38156 0.61096,1.38156 -0.51754,0 -1.21592,-0.44485 -1.55194,-0.98855 z M 750.5,537 c -1.63041,-0.70061 -1.68751,-0.87242 -0.30902,-0.92971 0.93004,-0.0387 1.9691,0.37971 2.30902,0.92971 0.71066,1.14988 0.67591,1.14988 -2,0 z m -71.78792,-7.58587 c -4.28335,-4.13879 -6.98335,-7.08233 -6,-6.54118 1.8179,1.00041 15.12126,14.15228 14.25903,14.09666 -0.25911,-0.0167 -3.97567,-3.41668 -8.25903,-7.55548 z m -138.10613,4.43381 c 1.04173,-1.45863 2.09405,-2.45863 2.33849,-2.22222 0.24445,0.23641 -0.60787,1.42984 -1.89404,2.65206 L 538.7119,536.5 Z m 197.96548,-0.41937 c -1.94997,-1.94996 -1.99731,-2.52923 -0.14875,-1.81987 0.78248,0.30027 1.66835,1.18614 1.96862,1.96862 0.70936,1.84856 0.13009,1.80122 -1.81987,-0.14875 z M 817.95821,530.75 c 2.45201,-2.6125 4.58951,-4.75 4.75,-4.75 0.75088,0 -0.043,0.89783 -4.45821,5.04179 L 813.5,535.5 Z M 745.5,531 c 0.99549,-1.1 2.03498,-2 2.30998,-2 0.275,0 -0.31449,0.9 -1.30998,2 -0.99549,1.1 -2.03498,2 -2.30998,2 -0.275,0 0.31449,-0.9 1.30998,-2 z m -18.53416,-7.75 -5.46584,-5.75 5.75,5.46584 c 5.34193,5.07794 6.20809,6.03416 5.46584,6.03416 -0.15629,0 -2.74379,-2.5875 -5.75,-5.75 z m -116.53327,1.8591 C 611.14603,523.95471 615,521.62643 615,522.34981 c 0,0.23109 -1.18041,1.1936 -2.62312,2.13891 -1.44272,0.9453 -2.31766,1.22448 -1.94431,0.62038 z M 719.87244,524.25 c -1.24387,-1.58606 -1.2085,-1.62143 0.37756,-0.37756 0.9625,0.75485 1.75,1.54235 1.75,1.75 0,0.82304 -0.82119,0.29331 -2.12756,-1.37244 z m 29.69185,0.45687 c 0.37553,-0.98622 0.93469,-1.54122 1.24258,-1.23333 0.30789,0.30789 6.4e-4,1.11479 -0.68278,1.79313 -0.98762,0.98026 -1.10248,0.8654 -0.5598,-0.5598 z M 800,525.60699 c 0,-0.21616 0.69837,-0.661 1.55194,-0.98855 0.88992,-0.34149 1.29132,-0.17385 0.94098,0.39301 C 801.90566,525.96166 800,526.4169 800,525.60699 Z m -93.37646,-4.14565 c -0.34295,-0.8937 -0.58486,-2.37561 -0.53759,-3.29313 0.0473,-0.91751 0.4824,-0.34083 0.96694,1.28152 0.94266,3.15626 0.60928,4.71823 -0.42935,2.01161 z M 553.5,518 c 0.99549,-1.1 2.03498,-2 2.30998,-2 0.275,0 -0.31449,0.9 -1.30998,2 -0.99549,1.1 -2.03498,2 -2.30998,2 -0.275,0 0.31449,-0.9 1.30998,-2 z m 144.57895,-1.58333 c 0.048,-1.16495 0.28494,-1.4019 0.60416,-0.60417 0.28887,0.72187 0.25335,1.58438 -0.0789,1.91667 -0.33229,0.33229 -0.56864,-0.25834 -0.52522,-1.3125 z M 736.27814,492.75 c -1.49918,-1.93844 -2.44224,-3.75 -1.95217,-3.75 0.24421,0 1.18114,1.125 2.08207,2.5 1.68584,2.57291 1.59195,3.47635 -0.1299,1.25 z m -4.81926,-7.81653 c -0.36253,-0.58659 -0.44468,-1.281 -0.18255,-1.54313 0.26212,-0.26213 0.74306,0.21781 1.06875,1.06653 0.67618,1.76211 0.0998,2.07206 -0.8862,0.4766 z M 594,477.62244 c 0,-0.20765 0.7875,-0.99515 1.75,-1.75 1.58606,-1.24387 1.62143,-1.2085 0.37756,0.37756 C 594.82119,477.91575 594,478.44548 594,477.62244 Z m 102.31253,-3.98649 c -3.40311,-2.27477 -6.21561,-4.46929 -6.25,-4.87671 -0.0909,-1.07646 9.26226,4.83718 11.41789,7.21912 2.40242,2.65464 2.10854,2.52144 -5.16789,-2.34241 z M 723,470 c -0.5887,-1.1 -0.84537,-2 -0.57037,-2 0.275,0 0.98167,0.9 1.57037,2 0.5887,1.1 0.84537,2 0.57037,2 -0.275,0 -0.98167,-0.9 -1.57037,-2 z M 620,457.62244 c 0,-0.20765 0.7875,-0.99515 1.75,-1.75 1.58606,-1.24387 1.62143,-1.2085 0.37756,0.37756 C 620.82119,457.91575 620,458.44548 620,457.62244 Z m 15,-10.01545 c 0,-0.21616 0.69837,-0.661 1.55194,-0.98855 0.88992,-0.34149 1.29132,-0.17385 0.94098,0.39301 C 636.90566,447.96166 635,448.4169 635,447.60699 Z m 6,-3 c 0,-0.21616 0.69837,-0.661 1.55194,-0.98855 0.88992,-0.34149 1.29132,-0.17385 0.94098,0.39301 C 642.90566,444.96166 641,445.4169 641,444.60699 Z M 688,444 c -0.90129,-0.58246 -1.02463,-0.97549 -0.30902,-0.98469 0.65504,-0.008 1.4691,0.43469 1.80902,0.98469 0.7673,1.24153 0.42112,1.24153 -1.5,0 z m -11,-3 c -2.32726,-0.74532 -2.34861,-0.80753 -0.30902,-0.90032 1.20504,-0.0548 2.4691,0.35032 2.80902,0.90032 0.33992,0.55 0.47898,0.95514 0.30902,0.90032 C 679.63906,441.8455 678.375,441.44035 677,441 Z m -256.12756,724.25 c -1.24387,-1.5861 -1.2085,-1.6214 0.37756,-0.3776 0.9625,0.7549 1.75,1.5424 1.75,1.75 0,0.8231 -0.82119,0.2933 -2.12756,-1.3724 z M 1083,1166.6224 c 0,-0.2076 0.7875,-0.9951 1.75,-1.75 1.5861,-1.2438 1.6214,-1.2085 0.3776,0.3776 -1.3064,1.6657 -2.1276,2.1955 -2.1276,1.3724 z M 414.87244,1160.25 c -1.24387,-1.5861 -1.2085,-1.6214 0.37756,-0.3776 0.9625,0.7549 1.75,1.5424 1.75,1.75 0,0.8231 -0.82119,0.2933 -2.12756,-1.3724 z M 1089,1161.6224 c 0,-0.2076 0.7875,-0.9951 1.75,-1.75 1.5861,-1.2438 1.6214,-1.2085 0.3776,0.3776 -1.3064,1.6657 -2.1276,2.1955 -2.1276,1.3724 z M 408.40499,1154.75 406.5,1152.5 l 2.25,1.905 c 1.2375,1.0477 2.25,2.0602 2.25,2.25 0,0.8002 -0.80479,0.2094 -2.59501,-1.905 z M 1096.5,1155 c 0.9955,-1.1 2.035,-2 2.31,-2 0.275,0 -0.3145,0.9 -1.31,2 -0.9955,1.1 -2.035,2 -2.31,2 -0.275,0 0.3145,-0.9 1.31,-2 z m -698.06291,-9.25 -2.93709,-3.25 3.25,2.9371 c 1.7875,1.6154 3.25,3.0779 3.25,3.25 0,0.7726 -0.82513,0.092 -3.56291,-2.9371 z M 1104,1148.6871 c 0,-0.1721 1.4625,-1.6346 3.25,-3.25 l 3.25,-2.9371 -2.9371,3.25 c -2.7378,3.0295 -3.5629,3.7097 -3.5629,2.9371 z M 367.43709,1114.75 364.5,1111.5 l 3.25,2.9371 c 1.7875,1.6154 3.25,3.0779 3.25,3.25 0,0.7726 -0.82513,0.092 -3.56291,-2.9371 z M 1135,1117.6871 c 0,-0.1721 1.4625,-1.6346 3.25,-3.25 l 3.25,-2.9371 -2.9371,3.25 c -2.7378,3.0295 -3.5629,3.7097 -3.5629,2.9371 z M 358.40499,1104.75 356.5,1102.5 l 2.25,1.905 c 2.11444,1.7902 2.70524,2.595 1.90499,2.595 -0.18976,0 -1.20226,-1.0125 -2.25,-2.25 z M 1146.5,1105 c 0.9955,-1.1 2.035,-2 2.31,-2 0.275,0 -0.3145,0.9 -1.31,2 -0.9955,1.1 -2.035,2 -2.31,2 -0.275,0 0.3145,-0.9 1.31,-2 z m -793.62756,-6.75 c -1.24387,-1.5861 -1.2085,-1.6214 0.37756,-0.3776 1.66575,1.3064 2.19548,2.1276 1.37244,2.1276 -0.20765,0 -0.99515,-0.7875 -1.75,-1.75 z M 1151,1099.6224 c 0,-0.2076 0.7875,-0.9951 1.75,-1.75 1.5861,-1.2438 1.6214,-1.2085 0.3776,0.3776 -1.3064,1.6657 -2.1276,2.1955 -2.1276,1.3724 z M 347.87244,1092.25 c -1.24387,-1.5861 -1.2085,-1.6214 0.37756,-0.3776 1.66575,1.3064 2.19548,2.1276 1.37244,2.1276 -0.20765,0 -0.99515,-0.7875 -1.75,-1.75 z M 1156,1093.6224 c 0,-0.2076 0.7875,-0.9951 1.75,-1.75 1.5861,-1.2438 1.6214,-1.2085 0.3776,0.3776 -1.3064,1.6657 -2.1276,2.1955 -2.1276,1.3724 z M 234.07895,829.41667 c 0.048,-1.16495 0.28494,-1.4019 0.60416,-0.60417 0.28887,0.72187 0.25335,1.58438 -0.0789,1.91667 -0.3323,0.33229 -0.56864,-0.25834 -0.52522,-1.3125 z m 1036.99995,0 c 0.048,-1.16495 0.285,-1.4019 0.6042,-0.60417 0.2889,0.72187 0.2534,1.58438 -0.079,1.91667 -0.3323,0.33229 -0.5687,-0.25834 -0.5253,-1.3125 z m -1037.99995,-8 c 0.048,-1.16495 0.28494,-1.4019 0.60416,-0.60417 0.28887,0.72187 0.25335,1.58438 -0.0789,1.91667 -0.3323,0.33229 -0.56864,-0.25834 -0.52522,-1.3125 z m 1038.99995,0 c 0.048,-1.16495 0.285,-1.4019 0.6042,-0.60417 0.2889,0.72187 0.2534,1.58438 -0.079,1.91667 -0.3323,0.33229 -0.5687,-0.25834 -0.5253,-1.3125 z M 232.15789,812 c 0,-1.375 0.22698,-1.9375 0.50439,-1.25 0.27741,0.6875 0.27741,1.8125 0,2.5 -0.27741,0.6875 -0.50439,0.125 -0.50439,-1.25 z m 1041.00001,0 c 0,-1.375 0.227,-1.9375 0.5044,-1.25 0.2774,0.6875 0.2774,1.8125 0,2.5 -0.2774,0.6875 -0.5044,0.125 -0.5044,-1.25 z M 231.19495,800.5 c 0.0204,-1.65 0.2445,-2.20394 0.49804,-1.23097 0.25354,0.97297 0.23687,2.32297 -0.0371,3 -0.27393,0.67703 -0.48137,-0.11903 -0.46099,-1.76903 z M 230.27236,784 c 0,-2.475 0.19502,-3.4875 0.43337,-2.25 0.23836,1.2375 0.23836,3.2625 0,4.5 -0.23835,1.2375 -0.43337,0.225 -0.43337,-2.25 z m 0,-46 c 0,-2.475 0.19502,-3.4875 0.43337,-2.25 0.23836,1.2375 0.23836,3.2625 0,4.5 -0.23835,1.2375 -0.43337,0.225 -0.43337,-2.25 z m 0.92259,-16.5 c 0.0204,-1.65 0.2445,-2.20394 0.49804,-1.23097 0.25354,0.97297 0.23687,2.32297 -0.0371,3 -0.27393,0.67703 -0.48137,-0.11903 -0.46099,-1.76903 z m 0.96294,-11.5 c 0,-1.375 0.22698,-1.9375 0.50439,-1.25 0.27741,0.6875 0.27741,1.8125 0,2.5 -0.27741,0.6875 -0.50439,0.125 -0.50439,-1.25 z m 1041.00001,0 c 0,-1.375 0.227,-1.9375 0.5044,-1.25 0.2774,0.6875 0.2774,1.8125 0,2.5 -0.2774,0.6875 -0.5044,0.125 -0.5044,-1.25 z M 233.07895,700.41667 c 0.048,-1.16495 0.28494,-1.4019 0.60416,-0.60417 0.28887,0.72187 0.25335,1.58438 -0.0789,1.91667 -0.3323,0.33229 -0.56864,-0.25834 -0.52522,-1.3125 z m 1038.99995,0 c 0.048,-1.16495 0.285,-1.4019 0.6042,-0.60417 0.2889,0.72187 0.2534,1.58438 -0.079,1.91667 -0.3323,0.33229 -0.5687,-0.25834 -0.5253,-1.3125 z m -1037.99995,-8 c 0.048,-1.16495 0.28494,-1.4019 0.60416,-0.60417 0.28887,0.72187 0.25335,1.58438 -0.0789,1.91667 -0.3323,0.33229 -0.56864,-0.25834 -0.52522,-1.3125 z m 1036.99995,0 c 0.048,-1.16495 0.285,-1.4019 0.6042,-0.60417 0.2889,0.72187 0.2534,1.58438 -0.079,1.91667 -0.3323,0.33229 -0.5687,-0.25834 -0.5253,-1.3125 z M 347,430.62244 c 0,-0.20765 0.7875,-0.99515 1.75,-1.75 1.58606,-1.24387 1.62143,-1.2085 0.37756,0.37756 C 347.82119,430.91575 347,431.44548 347,430.62244 Z M 1156.8724,429.25 c -1.2438,-1.58606 -1.2085,-1.62143 0.3776,-0.37756 1.6657,1.30637 2.1955,2.12756 1.3724,2.12756 -0.2076,0 -0.9951,-0.7875 -1.75,-1.75 z M 352,424.62244 c 0,-0.20765 0.7875,-0.99515 1.75,-1.75 1.58606,-1.24387 1.62143,-1.2085 0.37756,0.37756 C 352.82119,424.91575 352,425.44548 352,424.62244 Z M 1151.8724,423.25 c -1.2438,-1.58606 -1.2085,-1.62143 0.3776,-0.37756 0.9625,0.75485 1.75,1.54235 1.75,1.75 0,0.82304 -0.8212,0.29331 -2.1276,-1.37244 z M 358.5,417 c 0.99549,-1.1 2.03498,-2 2.30998,-2 0.275,0 -0.31449,0.9 -1.30998,2 -0.99549,1.1 -2.03498,2 -2.30998,2 -0.275,0 0.31449,-0.9 1.30998,-2 z m 787.905,-0.25 -1.905,-2.25 2.25,1.90499 c 2.1144,1.79022 2.7052,2.59501 1.905,2.59501 -0.1898,0 -1.2023,-1.0125 -2.25,-2.25 z M 365,409.68709 c 0,-0.1721 1.4625,-1.6346 3.25,-3.25 l 3.25,-2.93709 -2.93709,3.25 C 365.82513,409.77946 365,410.45965 365,409.68709 Z m 772.4371,-2.93709 -2.9371,-3.25 3.25,2.93709 c 3.0295,2.73778 3.7097,3.56291 2.9371,3.56291 -0.1721,0 -1.6346,-1.4625 -3.25,-3.25 z M 396,378.68709 c 0,-0.1721 1.4625,-1.6346 3.25,-3.25 l 3.25,-2.93709 -2.93709,3.25 C 396.82513,378.77946 396,379.45965 396,378.68709 Z m 710.4371,-2.93709 -2.9371,-3.25 3.25,2.93709 c 3.0295,2.73778 3.7097,3.56291 2.9371,3.56291 -0.1721,0 -1.6346,-1.4625 -3.25,-3.25 z M 408.5,367 c 0.99549,-1.1 2.03498,-2 2.30998,-2 0.275,0 -0.31449,0.9 -1.30998,2 -0.99549,1.1 -2.03498,2 -2.30998,2 -0.275,0 0.31449,-0.9 1.30998,-2 z m 687.905,-0.25 -1.905,-2.25 2.25,1.90499 c 2.1144,1.79022 2.7052,2.59501 1.905,2.59501 -0.1898,0 -1.2023,-1.0125 -2.25,-2.25 z M 414,362.62244 c 0,-0.20765 0.7875,-0.99515 1.75,-1.75 1.58606,-1.24387 1.62143,-1.2085 0.37756,0.37756 C 414.82119,362.91575 414,363.44548 414,362.62244 Z M 1089.8724,361.25 c -1.2438,-1.58606 -1.2085,-1.62143 0.3776,-0.37756 1.6657,1.30637 2.1955,2.12756 1.3724,2.12756 -0.2076,0 -0.9951,-0.7875 -1.75,-1.75 z M 420,357.62244 c 0,-0.20765 0.7875,-0.99515 1.75,-1.75 1.58606,-1.24387 1.62143,-1.2085 0.37756,0.37756 C 420.82119,357.91575 420,358.44548 420,357.62244 Z M 1083.8724,356.25 c -1.2438,-1.58606 -1.2085,-1.62143 0.3776,-0.37756 1.6657,1.30637 2.1955,2.12756 1.3724,2.12756 -0.2076,0 -0.9951,-0.7875 -1.75,-1.75 z M 683.8125,242.31689 c 0.72187,-0.28887 1.58438,-0.25335 1.91667,0.0789 0.33229,0.33229 -0.25834,0.56864 -1.3125,0.52522 -1.16495,-0.048 -1.4019,-0.28494 -0.60417,-0.60416 z m 137,0 c 0.72187,-0.28887 1.58438,-0.25335 1.91667,0.0789 0.33229,0.33229 -0.25834,0.56864 -1.3125,0.52522 -1.16495,-0.048 -1.4019,-0.28494 -0.60417,-0.60416 z m -129,-1 c 0.72187,-0.28887 1.58438,-0.25335 1.91667,0.0789 0.33229,0.33229 -0.25834,0.56864 -1.3125,0.52522 -1.16495,-0.048 -1.4019,-0.28494 -0.60417,-0.60416 z m 121,0 c 0.72187,-0.28887 1.58438,-0.25335 1.91667,0.0789 0.33229,0.33229 -0.25834,0.56864 -1.3125,0.52522 -1.16495,-0.048 -1.4019,-0.28494 -0.60417,-0.60416 z M 700.75,240.33772 c 0.6875,-0.27741 1.8125,-0.27741 2.5,0 0.6875,0.27741 0.125,0.50439 -1.25,0.50439 -1.375,0 -1.9375,-0.22698 -1.25,-0.50439 z m 102,0 c 0.6875,-0.27741 1.8125,-0.27741 2.5,0 0.6875,0.27741 0.125,0.50439 -1.25,0.50439 -1.375,0 -1.9375,-0.22698 -1.25,-0.50439 z m -90.48097,-1.03071 c 0.97297,-0.25354 2.32297,-0.23687 3,0.0371 0.67703,0.27393 -0.11903,0.48137 -1.76903,0.46099 -1.65,-0.0204 -2.20394,-0.2445 -1.23097,-0.49804 z m 79,0 c 0.97297,-0.25354 2.32297,-0.23687 3,0.0371 0.67703,0.27393 -0.11903,0.48137 -1.76903,0.46099 -1.65,-0.0204 -2.20394,-0.2445 -1.23097,-0.49804 z M 727.75,238.29427 c 1.2375,-0.23836 3.2625,-0.23836 4.5,0 1.2375,0.23835 0.225,0.43337 -2.25,0.43337 -2.475,0 -3.4875,-0.19502 -2.25,-0.43337 z m 46,0 c 1.2375,-0.23836 3.2625,-0.23836 4.5,0 1.2375,0.23835 0.225,0.43337 -2.25,0.43337 -2.475,0 -3.4875,-0.19502 -2.25,-0.43337 z"
         id="path20" />
      <path
         style="fill:#384a2c"
         d="m 736.76791,1283.2753 c 1.79735,-0.2226 4.49735,-0.218 6,0.01 1.50265,0.2281 0.0321,0.4102 -3.26791,0.4046 -3.3,-0.01 -4.52944,-0.1923 -2.73209,-0.4148 z m 27,0 c 1.79735,-0.2226 4.49735,-0.218 6,0.01 1.50265,0.2281 0.0321,0.4102 -3.26791,0.4046 -3.3,-0.01 -4.52944,-0.1923 -2.73209,-0.4148 z M 716.75,1282.3377 c 0.6875,-0.2774 1.8125,-0.2774 2.5,0 0.6875,0.2774 0.125,0.5044 -1.25,0.5044 -1.375,0 -1.9375,-0.227 -1.25,-0.5044 z m 70,0 c 0.6875,-0.2774 1.8125,-0.2774 2.5,0 0.6875,0.2774 0.125,0.5044 -1.25,0.5044 -1.375,0 -1.9375,-0.227 -1.25,-0.5044 z m -81.9375,-1.0208 c 0.72187,-0.2889 1.58438,-0.2534 1.91667,0.079 0.33229,0.3323 -0.25834,0.5687 -1.3125,0.5253 -1.16495,-0.048 -1.4019,-0.285 -0.60417,-0.6042 z m 95,0 c 0.72187,-0.2889 1.58438,-0.2534 1.91667,0.079 0.33229,0.3323 -0.25834,0.5687 -1.3125,0.5253 -1.16495,-0.048 -1.4019,-0.285 -0.60417,-0.6042 z m -105,-1 c 0.72187,-0.2889 1.58438,-0.2534 1.91667,0.079 0.33229,0.3323 -0.25834,0.5687 -1.3125,0.5253 -1.16495,-0.048 -1.4019,-0.285 -0.60417,-0.6042 z m 115,0 c 0.72187,-0.2889 1.58438,-0.2534 1.91667,0.079 0.33229,0.3323 -0.25834,0.5687 -1.3125,0.5253 -1.16495,-0.048 -1.4019,-0.285 -0.60417,-0.6042 z M 712.5,1257.4775 c -63.69566,-5.8501 -120.99519,-21.6749 -177,-48.8831 -23.01618,-11.1817 -36.09775,-18.6152 -56.5,-32.1058 C 421.80325,1138.6684 375.3316,1092.1968 337.51137,1035 324.02079,1014.5977 316.58726,1001.5162 305.40556,978.5 248.52787,861.42415 239.4053,728.73467 279.82145,606.37441 300.7723,542.94553 332.56252,486.70577 376.49417,435.35168 404.95432,402.08308 440.31713,371.08966 479,345.51137 c 20.40225,-13.49058 33.48382,-20.92411 56.5,-32.10581 117.07585,-56.87769 249.76533,-66.00026 372.12559,-25.58411 63.42888,20.95085 119.66861,52.74107 171.02271,96.67272 40.368,34.53345 79.2126,81.62984 106.4025,129.00583 26.5342,46.23346 47.8063,104.09186 57.4367,156.22268 6.0088,32.52683 6.5125,39.58669 6.5125,91.27732 0,51.69063 -0.5037,58.75049 -6.5125,91.27732 -9.6304,52.13082 -30.9025,109.98922 -57.4367,156.22268 -38.5415,67.1552 -92.8437,124.8717 -158.0508,167.9886 -20.4023,13.4906 -33.48382,20.9241 -56.5,32.1058 -56.69121,27.5417 -113.86829,43.2385 -178.15875,48.9099 -20.32231,1.7927 -60.17563,1.7793 -79.84125,-0.027 z m 76.84125,-9.9732 c 73.3912,-6.4742 144.57229,-28.2486 204.15875,-62.4524 85.574,-49.1212 155.8012,-124.1215 198.0885,-211.5519 23.1866,-47.9392 38.1421,-98.26488 45.4278,-152.86637 C 1238.7436,807.68852 1239,799.98171 1239,761 c 0,-38.98171 -0.2564,-46.68852 -1.9837,-59.63363 C 1229.7306,646.76488 1214.7751,596.4392 1191.5885,548.5 1144.3989,450.93388 1063.0661,369.60108 965.5,322.41152 877.51565,279.85635 779.61511,264.32336 685.78415,278.03153 545.09696,298.58514 423.8344,375.54954 345.51137,494 321.48385,530.33761 303.88421,566.79928 289.82145,609.37441 253.68775,718.76952 257.33604,832.81725 300.46186,942 c 43.71126,110.6649 131.87285,205.2724 240.03814,257.5885 77.40844,37.4399 168.58189,54.9959 248.84125,47.9158 z M 718.5,1237.4775 c -61.78296,-5.6745 -120.2224,-21.5161 -173,-46.8966 -55.7877,-26.8279 -112.31333,-70.3981 -153,-117.9328 C 356.20394,1030.2429 329.08377,986.0571 310.47009,939 291.86516,891.96504 281.04249,845.88344 276.49569,794.34125 269.81537,718.61366 287.38615,628.429 323.41905,553.5 345.1207,508.37228 378.95603,461.04445 416.00024,424.00024 453.04445,386.95603 500.37228,353.1207 545.5,331.41905 c 74.929,-36.0329 165.11366,-53.60368 240.84125,-46.92336 51.54219,4.5468 97.62379,15.36947 144.65875,33.9744 47.0571,18.61368 91.2429,45.73385 133.6481,82.02991 47.5347,40.68667 91.1049,97.2123 117.9328,153 22.2994,46.37068 37.2778,97.22497 44.4354,150.86637 C 1228.7256,717.1764 1229,725.01006 1229,761 c 0,35.98994 -0.2744,43.8236 -1.9837,56.63363 -7.1576,53.6414 -22.136,104.49569 -44.4354,150.86637 -26.8279,55.7877 -70.3981,112.3133 -117.9328,153 -50.808,43.4883 -101.71235,72.4275 -163.02251,92.6785 -59.74199,19.7331 -127.74642,28.3852 -183.12559,23.299 z m 57.76178,-99.9662 c 48.96128,-4.3192 90.89718,-15.035 132.91439,-33.9634 46.06131,-20.7503 93.16603,-56.2035 127.61373,-96.0479 49.1501,-56.85044 77.6756,-119.20557 89.8925,-196.5 2.6684,-16.88309 2.6684,-83.11691 0,-100 -9.1784,-58.07017 -27.9128,-108.55062 -56.4107,-152 C 1038.9276,511.2112 1002.7888,475.07236 955,443.72829 925.03236,424.0729 893.09714,409.69115 854.80463,398.60617 828.50735,390.99359 806.30055,387.09054 773.75,384.36009 c -19.71914,-1.65411 -21.78086,-1.65411 -41.5,0 -32.55055,2.73045 -54.75735,6.6335 -81.05463,14.24608 C 612.90286,409.69115 580.96764,424.0729 551,443.72829 503.2112,475.07236 467.07236,511.2112 435.72829,559 c -19.65539,29.96764 -34.03714,61.90286 -45.12212,100.19537 -7.61258,26.29728 -11.51563,48.50408 -14.24608,81.05463 -1.65411,19.71914 -1.65411,21.78086 0,41.5 2.73045,32.55055 6.6335,54.75735 14.24608,81.05463 11.08498,38.29251 25.46673,70.22773 45.12212,100.19537 31.34407,47.7888 67.48291,83.9276 115.27171,115.2717 50.43281,33.0782 110.54117,53.1398 177.41101,59.2122 19.25844,1.7488 28.2786,1.754 47.85077,0.027 z m 58.25967,-51.5719 c -1.6382,-0.4888 -4.46456,-1.1248 -6.2808,-1.4135 -1.81625,-0.2886 -4.8634,-1.1771 -6.77146,-1.9743 -1.90805,-0.7973 -3.46919,-1.2779 -3.46919,-1.0682 0,1.3229 -14.48568,-7.4171 -20.57082,-12.4115 -9.42407,-7.7348 -17.4449,-18.742 -23.76875,-32.6185 -1.23629,-2.7128 -4.37406,-5.7798 -14.84988,-14.5147 -2.68623,-2.2398 -3.05964,-3.1658 -2.9751,-7.3773 0.19984,-9.9563 5.52907,-21.5614 9.9013,-21.5614 2.8299,0 8.00499,3.50299 15.11631,10.2322 4.04418,3.8268 9.21918,7.8052 11.5,8.8409 5.53539,2.5134 12.71737,2.5082 15.78616,-0.011 l 2.36078,-1.9384 -2.75905,-5.3447 C 802.51262,994.6503 793.57009,986.38359 786.6761,985.30559 782.5237,984.65628 777,982.33433 777,981.23812 c 0,-1.16883 4.9464,-5.70849 7.85034,-7.20482 1.29269,-0.66609 5.79269,-1.24536 10,-1.28727 11.25548,-0.1121 15.35062,2.0149 22.8904,11.88922 9.47241,12.40535 19.04307,20.81735 31.76678,27.92085 4.19461,2.3419 6.25497,2.7932 13.61192,2.9819 14.03007,0.3599 22.17684,-3.8529 43.05869,-22.266 5.87298,-5.17865 14.94018,-14.22089 20.14935,-20.09387 14.25814,-16.07507 14.93129,-16.63217 18.56576,-15.36519 3.35496,1.16954 40.43978,0.91355 43.35676,-0.29929 3.47403,-1.44446 1.95487,2.25185 -5.4624,13.29072 -2.46176,3.66374 -6.51767,9.01652 -19.7876,26.11463 -17.15534,22.1044 -43.03462,47.6357 -64,63.1395 -4.125,3.0504 -9.29262,6.8727 -11.48361,8.4939 -9.82282,7.2683 -21.49119,13.4801 -31.01639,16.512 -6.32265,2.0125 -16.77181,2.4285 -21.97855,0.875 z m -17.18212,-29.6299 c -0.63837,-0.2291 -3.77974,-2.2513 -6.98082,-4.4936 -3.20108,-2.2424 -5.15378,-3.2697 -4.33933,-2.2828 1.93918,2.3496 11.33651,8.4079 11.98082,7.7239 0.275,-0.2919 -0.0223,-0.7183 -0.66067,-0.9475 z m -128.78898,-42.228 c -0.37582,-0.6081 0.74491,-3.6019 2.49051,-6.6529 1.74559,-3.051 2.94233,-5.7787 2.65941,-6.0617 -0.70286,-0.7028 -6.04554,2.1393 -7.64555,4.0672 -0.71478,0.8612 -1.94983,1.5659 -2.74455,1.5659 -5.22857,0 10.3693,-16.65236 19.92766,-21.27486 3.1558,-1.52618 5.96251,-2.77719 6.23713,-2.78002 0.27462,-0.003 2.59378,-0.90296 5.15371,-2.00027 2.55992,-1.09731 4.82863,-1.82088 5.04158,-1.60794 0.21294,0.21295 2.96175,-0.21871 6.10846,-0.95925 6.92183,-1.62895 18.40715,-1.74756 27.22129,-0.28112 3.575,0.59478 7.4,1.20342 8.5,1.35253 8.23125,1.11578 23.17019,7.86485 29.61009,13.37716 4.99759,4.27775 9.88991,11.64347 9.88991,14.88987 v 2.3245 l -4.25,-2.1281 c -2.3375,-1.1704 -5.6,-3.3881 -7.25,-4.9282 -1.65,-1.54 -4.76218,-3.77575 -6.91595,-4.96829 -3.61818,-2.00338 -13.87168,-6.17284 -15.04655,-6.11848 -0.28032,0.013 -2.42843,-0.6584 -4.77358,-1.49193 -5.9311,-2.10806 -24.27672,-2.03502 -32.76392,0.13044 -13.34087,3.40385 -25.62725,10.36326 -36.63317,20.75026 -2.61208,2.4652 -4.38464,3.4939 -4.81648,2.7952 z M 581.5,1010.591 c -18.87077,-4.6759 -31.07191,-22.84085 -27.50835,-40.9541 3.12929,-15.90589 13.73936,-26.51596 29.64525,-29.64525 14.53602,-2.85978 30.90472,5.27665 37.736,18.75753 11.07848,21.86232 -1.06629,47.01172 -25.17212,52.12642 -6.38991,1.3558 -8.22369,1.3203 -14.70078,-0.2846 z M 943,951.34878 c -3.575,-0.79697 -7.625,-1.67144 -9,-1.94327 -4.43289,-0.87633 -12.49364,-4.1592 -19.49625,-7.94015 -18.47694,-9.97634 -32.01351,-25.77422 -40.88539,-47.71536 -0.83397,-2.0625 -1.35831,-3.75 -1.1652,-3.75 0.19311,0 -0.29141,-2.13492 -1.07671,-4.74427 C 869.32478,878.43856 868.5,870.19325 868.5,856.5 c 0,-14.97341 0.79572,-21.00057 4.02666,-30.5 1.40299,-4.125 2.6659,-7.95 2.80646,-8.5 1.36604,-5.34505 10.36885,-19.21523 17.08382,-26.32018 6.28231,-6.64716 21.28714,-16.68266 28.08306,-18.78245 0.55,-0.16994 4.15,-1.46116 8,-2.86937 9.25175,-3.38402 14.36909,-4.04511 30.5,-3.94021 10.82975,0.0704 15.08237,0.53685 21.5,2.35807 23.6503,6.71158 38.7395,20.06771 48.9652,43.34138 0.9152,2.08298 1.8412,4.55798 2.0579,5.5 0.2166,0.94202 1.031,4.01524 1.8097,6.82938 0.9564,3.45629 1.3611,9.62172 1.2471,19 -0.1775,14.61393 -1.3231,19.87957 -6.2837,28.88338 -1.2121,2.2 -2.9424,5.4446 -3.8451,7.21022 -0.9027,1.76561 -4.4203,6.04061 -7.8169,9.5 -6.517,6.63749 -18.39193,13.6239 -30.09954,17.70854 -5.60347,1.95499 -13.51208,2.77048 -14.76053,1.52204 -0.5168,-0.5168 4.71865,-8.98512 7.6914,-12.4408 3.65831,-4.25261 12.38616,-23.90548 13.10097,-29.5 0.14055,-1.1 0.73746,-4.91736 1.32648,-8.48303 1.00758,-6.09942 0.8239,-8.93506 -1.43689,-22.1827 -1.89456,-11.10163 -14.99097,-23.93375 -26.95609,-26.41209 -11.01098,-2.28071 -13.44392,-2.39925 -20.70995,-1.00903 -14.63794,2.8007 -25.68942,11.28371 -32.09889,24.63879 -3.71252,7.73557 -4.08827,9.02903 -5.85499,20.15506 -0.99807,6.28536 -0.71703,10.00486 1.54459,20.44274 0.88119,4.06689 5.77566,13.36855 9.54093,18.13197 3.20964,4.0605 12.31583,10.95812 19.57831,14.82988 5.78471,3.08393 22.2419,6.40265 31.58191,6.36874 5.94,-0.0216 18.41111,-2.09621 23.91809,-3.9789 20.053,-6.85562 38.916,-26.30663 46.0654,-47.50143 0.7421,-2.2 1.3962,-4.225 1.4535,-4.5 0.057,-0.275 0.9272,-4.06858 1.9331,-8.43018 2.9008,-12.57797 0.685,-33.97129 -4.5274,-43.71071 -0.6944,-1.29751 -1.1774,-2.47633 -1.0733,-2.61959 0.3494,-0.48097 -2.7203,-5.90138 -6.708,-11.84479 -4.4755,-6.67034 -10.9032,-13.08621 -19.5448,-19.50869 -25.42822,-18.89853 -45.61426,-35.60417 -52.06645,-43.08936 -3.86176,-4.48002 -13.26313,-22.58328 -14.08678,-27.12547 -0.2612,-1.44044 -0.94837,-3.86427 -1.52704,-5.38628 -0.57867,-1.52202 -1.0585,-7.49953 -1.06628,-13.28336 -0.016,-11.87645 1.57823,-17.32965 7.89372,-27.00157 6.73209,-10.30991 34.1859,-38.40176 35.87694,-36.71073 0.31719,0.3172 0.0841,2.06938 -0.51799,3.89373 -0.60209,1.82435 -1.11045,3.64871 -1.12969,4.05413 -0.0192,0.40542 -0.90547,2.76792 -1.96941,5.25 -1.06395,2.48208 -1.7096,4.51287 -1.4348,4.51287 0.27481,0 0.0541,0.83245 -0.49038,1.84989 -1.23968,2.31636 -5.19091,16.62921 -5.7007,20.65011 -0.2092,1.65 -0.73196,5.7 -1.16169,9 -2.5349,19.4661 9.35773,37.38126 33.78205,50.88958 1.925,1.06465 4.4,2.43283 5.5,3.04039 2.0644,1.14024 3.1681,1.83458 15,9.43662 8.7848,5.64428 26.4276,23.41343 34.0559,34.29988 7.9229,11.30678 16.3542,28.57809 17.92,36.70832 0.173,0.89815 0.7851,3.43125 1.3603,5.62911 2.6796,10.23868 3.5342,24.513 2.208,36.88333 -0.7142,6.66202 -1.8723,14.02527 -2.5735,16.36277 -0.7012,2.3375 -1.1067,4.25 -0.901,4.25 0.2058,0 -1.0006,3.9375 -2.6807,8.75 -3.8836,11.12428 -11.4888,25.48871 -18.3333,34.6277 -6.2034,8.28282 -18.7982,20.71853 -26.2412,25.90967 -10.314,7.19353 -26.7011,14.54339 -36.06219,16.17446 -1.78623,0.31124 -6.06123,1.20404 -9.5,1.984 -8.40222,1.90576 -35.03325,1.84669 -43.75231,-0.097 z M 750.54905,905.25 c -0.96995,-4.8125 -2.80965,-13.25 -4.08822,-18.75 -2.76574,-11.89729 -5.35954,-24.15833 -6.52637,-30.85055 -0.46515,-2.66781 -1.264,-6.26781 -1.77523,-8 -0.51122,-1.7322 -1.43685,-5.62445 -2.05694,-8.64945 -1.46091,-7.12673 -5.64354,-26.52345 -7.68598,-35.64335 -1.42874,-6.37959 -1.884,-7.20254 -4.25805,-7.69694 -1.46204,-0.30448 -8.05826,-1.72131 -14.65826,-3.1485 -6.6,-1.42719 -14.025,-3.00255 -16.5,-3.50081 -2.475,-0.49826 -9.9,-2.07178 -16.5,-3.49673 -6.6,-1.42494 -19.2,-4.11645 -28,-5.98112 -32.55505,-6.89826 -39.82602,-8.52524 -40.32377,-9.02299 -1.37846,-1.37845 0.14461,-1.78126 31.82377,-8.4164 5.775,-1.20956 19.725,-4.17396 31,-6.58754 11.275,-2.41358 26.125,-5.56255 33,-6.99771 6.875,-1.43515 14.83173,-3.10126 17.68162,-3.70247 l 5.18161,-1.09309 1.62127,-7.60618 c 1.54559,-7.25113 3.69903,-17.16833 9.03448,-41.60617 1.32088,-6.05 3.33288,-15.5 4.4711,-21 1.13823,-5.5 2.54332,-11.75145 3.12243,-13.8921 0.57911,-2.14066 1.8774,-7.99066 2.88508,-13 C 751.6542,628.43044 752.29582,626 753.43798,626 c 0.63903,0 1.71834,2.8125 2.39847,6.25 0.68014,3.4375 2.37133,11.425 3.75822,17.75 3.8018,17.33847 7.04799,32.37668 9.39,43.5 1.15803,5.5 3.17052,14.725 4.4722,20.5 1.30168,5.775 3.3231,14.81963 4.49204,20.09918 l 2.12534,9.59918 5.71288,1.20063 c 3.14208,0.66035 10.88787,2.30233 17.21287,3.64884 6.325,1.3465 23.2,4.91602 37.5,7.93226 14.3,3.01623 28.7,6.12525 32,6.90893 3.3,0.78368 10.11564,2.19873 15.14587,3.14455 9.07607,1.70656 12.31611,2.83778 11.23228,3.92162 -0.56296,0.56296 -10.16711,2.71136 -40.37815,9.03238 -8.8,1.84122 -22.3,4.70747 -30,6.36945 -7.7,1.66199 -19.625,4.19162 -26.5,5.62141 -21.1908,4.40703 -21.89719,4.60794 -22.36937,6.36203 -0.66982,2.48829 -6.43997,28.89999 -10.63063,48.65954 -2.32632,10.96895 -5.65866,26.37449 -9.46347,43.75 -1.35491,6.1875 -3.01994,14.0625 -3.70008,17.5 -0.68013,3.4375 -1.75124,6.25 -2.38024,6.25 -0.63667,0 -1.92538,-3.87874 -2.90716,-8.75 z M 522,907.96788 c 0,-0.56766 0.65204,-2.59266 1.44897,-4.5 0.79694,-1.90733 1.26293,-3.46788 1.03554,-3.46788 -0.22739,0 0.45458,-2.025 1.51549,-4.5 1.06091,-2.475 1.70408,-4.5 1.42928,-4.5 -0.27481,0 -0.0541,-0.83245 0.49038,-1.84989 1.23968,-2.31636 5.19091,-16.62921 5.7007,-20.65011 0.2092,-1.65 0.73196,-5.7 1.16169,-9 1.69943,-13.0503 -2.51904,-24.42279 -13.11758,-35.36346 -5.38511,-5.55895 -12.55877,-11.06448 -19.16447,-14.70806 -9.73527,-5.3698 -8.55344,-4.65559 -22,-13.29507 -8.78482,-5.64428 -26.42757,-23.41343 -34.05591,-34.29988 -7.92287,-11.30678 -16.35424,-28.57809 -17.91998,-36.70832 -0.17297,-0.89815 -0.78511,-3.43125 -1.36033,-5.62911 -2.67961,-10.23868 -3.53413,-24.513 -2.20798,-36.88333 0.71419,-6.66202 1.87227,-14.02527 2.5735,-16.36277 0.70123,-2.3375 1.10666,-4.25 0.90096,-4.25 -0.20571,0 1.00062,-3.9375 2.68074,-8.75 3.88364,-11.12428 11.48877,-25.48871 18.33334,-34.6277 6.20335,-8.28282 18.79817,-20.71853 26.24118,-25.90967 10.31401,-7.19353 26.70106,-14.54339 36.06217,-16.17446 1.78623,-0.31124 6.06123,-1.20522 9.5,-1.98663 8.59449,-1.95298 34.09459,-1.92332 43.25231,0.0503 3.85,0.82974 8.125,1.72872 9.5,1.99773 4.41311,0.86343 12.47958,4.14651 19.49625,7.93506 18.47694,9.97634 32.01351,25.77422 40.88539,47.71536 0.83397,2.0625 1.35831,3.75 1.1652,3.75 -0.19311,0 0.29141,2.13492 1.07671,4.74427 2.05167,6.81717 2.87645,15.06248 2.87645,28.75573 0,14.97341 -0.79572,21.00057 -4.02666,30.5 -1.40299,4.125 -2.6659,7.95 -2.80646,8.5 -1.36604,5.34505 -10.36885,19.21523 -17.08382,26.32018 -6.28231,6.64716 -21.28714,16.68266 -28.08306,18.78245 -0.55,0.16994 -4.15,1.46116 -8,2.86937 -9.25175,3.38402 -14.36909,4.04511 -30.5,3.94021 -10.82975,-0.0704 -15.08237,-0.53685 -21.5,-2.35807 -23.65034,-6.71158 -38.7395,-20.06771 -48.96519,-43.34138 -0.91519,-2.08298 -1.84125,-4.55798 -2.0579,-5.5 -0.21664,-0.94202 -1.03102,-4.01524 -1.80971,-6.82938 -0.95638,-3.45629 -1.36107,-9.62172 -1.24714,-19 0.17753,-14.61393 1.3231,-19.87957 6.28373,-28.88338 1.21209,-2.2 2.94237,-5.4446 3.84507,-7.21022 0.90269,-1.76561 4.4203,-6.04061 7.8169,-9.5 6.51703,-6.63749 18.39197,-13.6239 30.09958,-17.70854 5.60347,-1.95499 13.51208,-2.77048 14.76053,-1.52204 0.5168,0.5168 -4.71865,8.98512 -7.6914,12.4408 -3.65666,4.25069 -12.38234,23.89645 -13.10245,29.5 -0.14136,1.1 -0.73828,4.93264 -1.32648,8.51697 -1.00772,6.14073 -0.83739,8.76095 1.43986,22.14876 1.88737,11.09578 14.98891,23.93363 26.9546,26.41209 11.01098,2.28071 13.44392,2.39925 20.70995,1.00903 14.63794,-2.8007 25.68942,-11.28371 32.09889,-24.63879 3.71252,-7.73557 4.08827,-9.02903 5.85499,-20.15506 0.99807,-6.28536 0.71703,-10.00486 -1.54459,-20.44274 -0.88119,-4.06689 -5.77566,-13.36855 -9.54093,-18.13197 -3.20964,-4.0605 -12.31583,-10.95812 -19.57831,-14.82988 -5.78471,-3.08393 -22.2419,-6.40265 -31.58191,-6.36874 -5.94,0.0216 -18.41111,2.09621 -23.91809,3.9789 -20.05303,6.85562 -38.91602,26.30663 -46.06543,47.50143 -0.7421,2.2 -1.39617,4.225 -1.45348,4.5 -0.0573,0.275 -0.92722,4.06858 -1.93312,8.43018 -1.44084,6.24751 -1.69407,10.06684 -1.19346,18 0.58674,9.29803 3.06248,20.74342 5.4533,25.21071 0.54723,1.02251 1.03022,2.20133 1.07332,2.61959 0.14153,1.37378 2.95351,6.35015 6.97562,12.34479 4.47547,6.67034 10.90319,13.08621 19.54473,19.50869 25.42824,18.89853 45.61428,35.60417 52.06647,43.08936 3.86176,4.48002 13.26313,22.58328 14.08678,27.12547 0.2612,1.44044 0.94837,3.86427 1.52704,5.38628 0.57867,1.52202 1.0585,7.49953 1.06628,13.28336 0.0113,8.43891 -0.41265,11.60097 -2.14661,16.00881 -3.84462,9.77325 -10.93191,19.08266 -25.68848,33.74276 C 524.80343,908.1712 522,910.44273 522,907.96788 Z m 380.5,-331.3769 c -18.87077,-4.67593 -31.07191,-22.84083 -27.50835,-40.95408 3.12929,-15.90589 13.73936,-26.51596 29.64525,-29.64525 14.53602,-2.85978 30.90472,5.27665 37.736,18.75753 11.07848,21.86232 -1.06629,47.01171 -25.17212,52.12644 -6.38991,1.3558 -8.22369,1.32029 -14.70078,-0.28464 z m -384.48355,-8.73399 c 0.0166,-1.37217 2.24509,-5.29315 7.19595,-12.66136 2.46176,-3.66374 6.51767,-9.01652 19.7876,-26.11463 17.15534,-22.10441 43.03462,-47.63573 64,-63.13951 4.125,-3.05041 9.29262,-6.87264 11.48361,-8.49385 19.82596,-14.67008 39.18699,-21.11533 52.51639,-17.48262 1.925,0.52463 5.01405,1.21262 6.86456,1.52887 1.8505,0.31625 4.888,1.21154 6.75,1.98953 1.86199,0.77799 3.38544,1.24293 3.38544,1.0332 0,-1.32289 14.48568,7.41708 20.57082,12.41145 9.42407,7.73479 17.4449,18.742 23.76875,32.61853 1.23629,2.71281 4.37406,5.77976 14.84988,14.5147 2.68623,2.23982 3.05964,3.16576 2.9751,7.37733 -0.19984,9.9563 -5.52907,21.56137 -9.9013,21.56137 -2.8299,0 -8.00499,-3.50299 -15.11631,-10.23215 -4.04418,-3.82686 -9.21918,-7.80527 -11.5,-8.84092 -5.53539,-2.51346 -12.71737,-2.50825 -15.78616,0.0115 l -2.36078,1.93838 2.75905,5.34475 c 5.22833,10.12819 14.17086,18.3949 21.06485,19.4729 4.1524,0.64931 9.6761,2.97126 9.6761,4.06747 0,1.16883 -4.9464,5.70849 -7.85034,7.20482 -1.29269,0.66609 -5.79269,1.24536 -10,1.28727 -11.25548,0.1121 -15.35062,-2.0149 -22.8904,-11.88922 -9.47241,-12.40535 -19.04307,-20.81732 -31.76678,-27.92089 -4.19461,-2.34182 -6.25497,-2.79318 -13.61192,-2.98188 -14.03007,-0.35988 -22.17684,3.85288 -43.05869,22.26602 -5.87298,5.17865 -14.94018,14.22089 -20.14935,20.09387 -14.25814,16.07507 -14.93129,16.63217 -18.56576,15.36519 -3.35496,-1.16954 -40.43978,-0.91355 -43.35676,0.29929 -1.16659,0.48505 -1.74452,0.27524 -1.73355,-0.62936 z m 183.46397,-91.87863 c -2.15563,-2.38194 -11.50876,-8.29558 -11.41789,-7.21912 0.0515,0.6102 11.50557,8.75022 12.84246,9.12671 0.22274,0.0627 -0.41832,-0.79569 -1.42457,-1.90759 z M 754.5,547.8868 c -2.75,-0.48288 -6.35,-1.09175 -8,-1.35305 -9.11592,-1.44359 -23.01495,-7.71479 -29.61009,-13.35998 C 711.89232,528.89602 707,521.53033 707,518.2839 v -2.32455 l 4.25,2.12813 c 2.3375,1.17046 5.6,3.38815 7.25,4.92818 1.65,1.54004 4.76218,3.77579 6.91595,4.96833 3.61818,2.00338 13.87168,6.17284 15.04655,6.11848 0.28032,-0.013 2.42843,0.6584 4.77358,1.49193 5.9311,2.10806 24.27672,2.03502 32.76392,-0.13044 13.34087,-3.40385 25.62725,-10.36328 36.63317,-20.7503 5.40153,-5.09779 6.45251,-3.35468 2.32597,3.85775 -1.74559,3.05099 -2.94233,5.77873 -2.65941,6.06166 0.70286,0.70285 6.04554,-2.13925 7.64555,-4.06713 0.71478,-0.86127 1.94983,-1.56594 2.74455,-1.56594 5.22857,0 -10.3693,16.65236 -19.92766,21.27486 -3.1558,1.52618 -5.96251,2.77719 -6.23713,2.78002 -0.27462,0.003 -2.59378,0.90296 -5.15371,2.00027 -2.55992,1.09731 -4.82863,1.82088 -5.04158,1.60794 -0.21294,-0.21295 -2.96175,0.21871 -6.10846,0.95925 -6.33349,1.49049 -19.99673,1.62084 -27.72129,0.26446 z M 404.40499,1150.75 402.5,1148.5 l 2.25,1.905 c 2.11444,1.7902 2.70524,2.595 1.90499,2.595 -0.18976,0 -1.20226,-1.0125 -2.25,-2.25 z M 1100.5,1151 c 0.9955,-1.1 2.035,-2 2.31,-2 0.275,0 -0.3145,0.9 -1.31,2 -0.9955,1.1 -2.035,2 -2.31,2 -0.275,0 0.3145,-0.9 1.31,-2 z m -710.03759,-13.25 -4.96241,-5.25 5.25,4.9624 c 4.87839,4.6112 5.7086,5.5376 4.96241,5.5376 -0.15818,0 -2.52068,-2.3625 -5.25,-5.25 z M 1114.5,1138 c 2.7086,-2.75 5.1498,-5 5.4248,-5 0.275,0 -1.7162,2.25 -4.4248,5 -2.7086,2.75 -5.1498,5 -5.4248,5 -0.275,0 1.7162,-2.25 4.4248,-5 z m -739.03759,-15.25 -4.96241,-5.25 5.25,4.9624 c 2.8875,2.7293 5.25,5.0918 5.25,5.25 0,0.7462 -0.92643,-0.084 -5.53759,-4.9624 z M 1129.5,1123 c 2.7086,-2.75 5.1498,-5 5.4248,-5 0.275,0 -1.7162,2.25 -4.4248,5 -2.7086,2.75 -5.1498,5 -5.4248,5 -0.275,0 1.7162,-2.25 4.4248,-5 z m -767.09501,-14.25 -1.90499,-2.25 2.25,1.905 c 2.11444,1.7902 2.70524,2.595 1.90499,2.595 -0.18976,0 -1.20226,-1.0125 -2.25,-2.25 z M 1142.5,1109 c 0.9955,-1.1 2.035,-2 2.31,-2 0.275,0 -0.3145,0.9 -1.31,2 -0.9955,1.1 -2.035,2 -2.31,2 -0.275,0 0.3145,-0.9 1.31,-2 z M 233.07895,818.41667 c 0.048,-1.16495 0.28494,-1.4019 0.60416,-0.60417 0.28887,0.72187 0.25335,1.58438 -0.0789,1.91667 -0.3323,0.33229 -0.56864,-0.25834 -0.52522,-1.3125 z m 1038.99995,0 c 0.048,-1.16495 0.285,-1.4019 0.6042,-0.60417 0.2889,0.72187 0.2534,1.58438 -0.079,1.91667 -0.3323,0.33229 -0.5687,-0.25834 -0.5253,-1.3125 z m -1039.99995,-10 c 0.048,-1.16495 0.28494,-1.4019 0.60416,-0.60417 0.28887,0.72187 0.25335,1.58438 -0.0789,1.91667 -0.3323,0.33229 -0.56864,-0.25834 -0.52522,-1.3125 z m 1040.99995,0 c 0.048,-1.16495 0.285,-1.4019 0.6042,-0.60417 0.2889,0.72187 0.2534,1.58438 -0.079,1.91667 -0.3323,0.33229 -0.5687,-0.25834 -0.5253,-1.3125 z M 231.15789,796 c 0,-1.375 0.22698,-1.9375 0.50439,-1.25 0.27741,0.6875 0.27741,1.8125 0,2.5 -0.27741,0.6875 -0.50439,0.125 -0.50439,-1.25 z m -0.84802,-21.5 c 0.006,-3.3 0.1923,-4.52944 0.41486,-2.73209 0.22256,1.79735 0.21797,4.49735 -0.0102,6 -0.22818,1.50265 -0.41027,0.0321 -0.40466,-3.26791 z m 0,-27 c 0.006,-3.3 0.1923,-4.52944 0.41486,-2.73209 0.22256,1.79735 0.21797,4.49735 -0.0102,6 -0.22818,1.50265 -0.41027,0.0321 -0.40466,-3.26791 z m 0.84802,-21.5 c 0,-1.375 0.22698,-1.9375 0.50439,-1.25 0.27741,0.6875 0.27741,1.8125 0,2.5 -0.27741,0.6875 -0.50439,0.125 -0.50439,-1.25 z m 0.92106,-12.58333 c 0.048,-1.16495 0.28494,-1.4019 0.60416,-0.60417 0.28887,0.72187 0.25335,1.58438 -0.0789,1.91667 -0.3323,0.33229 -0.56864,-0.25834 -0.52522,-1.3125 z m 1040.99995,0 c 0.048,-1.16495 0.285,-1.4019 0.6042,-0.60417 0.2889,0.72187 0.2534,1.58438 -0.079,1.91667 -0.3323,0.33229 -0.5687,-0.25834 -0.5253,-1.3125 z m -1039.99995,-10 c 0.048,-1.16495 0.28494,-1.4019 0.60416,-0.60417 0.28887,0.72187 0.25335,1.58438 -0.0789,1.91667 -0.3323,0.33229 -0.56864,-0.25834 -0.52522,-1.3125 z m 1038.99995,0 c 0.048,-1.16495 0.285,-1.4019 0.6042,-0.60417 0.2889,0.72187 0.2534,1.58438 -0.079,1.91667 -0.3323,0.33229 -0.5687,-0.25834 -0.5253,-1.3125 z M 362.5,413 c 0.99549,-1.1 2.03498,-2 2.30998,-2 0.275,0 -0.31449,0.9 -1.30998,2 -0.99549,1.1 -2.03498,2 -2.30998,2 -0.275,0 0.31449,-0.9 1.30998,-2 z m 779.905,-0.25 -1.905,-2.25 2.25,1.90499 c 2.1144,1.79022 2.7052,2.59501 1.905,2.59501 -0.1898,0 -1.2023,-1.0125 -2.25,-2.25 z M 375.5,399 c 2.70865,-2.75 5.14982,-5 5.42482,-5 0.275,0 -1.71617,2.25 -4.42482,5 -2.70865,2.75 -5.14982,5 -5.42482,5 -0.275,0 1.71617,-2.25 4.42482,-5 z m 753.9624,-0.25 -4.9624,-5.25 5.25,4.96241 c 2.8875,2.72932 5.25,5.09182 5.25,5.25 0,0.74619 -0.9264,-0.084 -5.5376,-4.96241 z M 390.5,384 c 2.70865,-2.75 5.14982,-5 5.42482,-5 0.275,0 -1.71617,2.25 -4.42482,5 -2.70865,2.75 -5.14982,5 -5.42482,5 -0.275,0 1.71617,-2.25 4.42482,-5 z m 723.9624,-0.25 -4.9624,-5.25 5.25,4.96241 c 2.8875,2.72932 5.25,5.09182 5.25,5.25 0,0.74619 -0.9264,-0.084 -5.5376,-4.96241 z M 404.5,371 c 0.99549,-1.1 2.03498,-2 2.30998,-2 0.275,0 -0.31449,0.9 -1.30998,2 -0.99549,1.1 -2.03498,2 -2.30998,2 -0.275,0 0.31449,-0.9 1.30998,-2 z m 695.905,-0.25 -1.905,-2.25 2.25,1.90499 c 2.1144,1.79022 2.7052,2.59501 1.905,2.59501 -0.1898,0 -1.2023,-1.0125 -2.25,-2.25 z M 694.8125,241.31689 c 0.72187,-0.28887 1.58438,-0.25335 1.91667,0.0789 0.33229,0.33229 -0.25834,0.56864 -1.3125,0.52522 -1.16495,-0.048 -1.4019,-0.28494 -0.60417,-0.60416 z m 115,0 c 0.72187,-0.28887 1.58438,-0.25335 1.91667,0.0789 0.33229,0.33229 -0.25834,0.56864 -1.3125,0.52522 -1.16495,-0.048 -1.4019,-0.28494 -0.60417,-0.60416 z m -105,-1 c 0.72187,-0.28887 1.58438,-0.25335 1.91667,0.0789 0.33229,0.33229 -0.25834,0.56864 -1.3125,0.52522 -1.16495,-0.048 -1.4019,-0.28494 -0.60417,-0.60416 z m 95,0 c 0.72187,-0.28887 1.58438,-0.25335 1.91667,0.0789 0.33229,0.33229 -0.25834,0.56864 -1.3125,0.52522 -1.16495,-0.048 -1.4019,-0.28494 -0.60417,-0.60416 z M 716.75,239.33772 c 0.6875,-0.27741 1.8125,-0.27741 2.5,0 0.6875,0.27741 0.125,0.50439 -1.25,0.50439 -1.375,0 -1.9375,-0.22698 -1.25,-0.50439 z m 70,0 c 0.6875,-0.27741 1.8125,-0.27741 2.5,0 0.6875,0.27741 0.125,0.50439 -1.25,0.50439 -1.375,0 -1.9375,-0.22698 -1.25,-0.50439 z m -49.98209,-1.06245 c 1.79735,-0.22256 4.49735,-0.21797 6,0.0102 1.50265,0.22818 0.0321,0.41027 -3.26791,0.40466 -3.3,-0.006 -4.52944,-0.1923 -2.73209,-0.41486 z m 27,0 c 1.79735,-0.22256 4.49735,-0.21797 6,0.0102 1.50265,0.22818 0.0321,0.41027 -3.26791,0.40466 -3.3,-0.006 -4.52944,-0.1923 -2.73209,-0.41486 z"
         id="path18" />
      <path
         style="fill:#000000"
         d="M 729,1282.9342 C 528.02105,1273.6936 349.52868,1149.2201 271.48731,963.88296 221.12059,844.26919 217.12902,708.47818 260.4035,586.81782 353.01388,326.4563 630.17095,183.34158 896.18218,258.5228 1079.4693,310.3242 1221.3825,460.6503 1262.9184,647 1271.9472,687.50746 1274,708.62523 1274,761 c 0,45.04565 -0.7485,56.52671 -5.5742,85.5 -20.5957,123.65595 -84.6609,235.5003 -180.9258,315.8584 -78.6262,65.6341 -176.24508,107.0649 -278.29882,118.1138 -13.86287,1.5009 -51.58766,3.6191 -59.70118,3.3522 -2.2,-0.072 -11.425,-0.4729 -20.5,-0.8902 z m 63.34125,-25.4299 c 64.29046,-5.6714 121.46754,-21.3682 178.15875,-48.9099 23.01618,-11.1817 36.0977,-18.6152 56.5,-32.1058 65.2071,-43.1169 119.5093,-100.8334 158.0508,-167.9886 26.5342,-46.23346 47.8063,-104.09186 57.4367,-156.22268 C 1248.4963,819.75049 1249,812.69063 1249,761 c 0,-51.69063 -0.5037,-58.75049 -6.5125,-91.27732 -9.6304,-52.13082 -30.9025,-109.98922 -57.4367,-156.22268 -27.1899,-47.37599 -66.0345,-94.47238 -106.4025,-129.00583 -51.3541,-43.93165 -107.59383,-75.72187 -171.02271,-96.67272 -100.04996,-33.04695 -209.20122,-33.04695 -309.25118,0 -63.42888,20.95085 -119.66864,52.74107 -171.02273,96.67272 -33.2686,28.46015 -64.26202,63.82296 -89.84031,102.50583 -13.49058,20.40225 -20.92411,33.48382 -32.10581,56.5 -56.87769,117.07585 -66.00026,249.76533 -25.58411,372.12559 20.95085,63.42888 52.74107,119.66861 96.67272,171.02271 28.46015,33.2686 63.82296,64.262 102.50583,89.8403 20.40225,13.4906 33.48382,20.9241 56.5,32.1058 56.00481,27.2082 113.30434,43.033 177,48.8831 19.66562,1.8061 59.51894,1.8195 79.84125,0.027 z"
         id="path16" />
    </g>
  </g>
</svg>
