<?xml version="1.0" encoding="UTF-8" standalone="no"?>
<svg
   xmlns:dc="http://purl.org/dc/elements/1.1/"
   xmlns:cc="http://creativecommons.org/ns#"
   xmlns:rdf="http://www.w3.org/1999/02/22-rdf-syntax-ns#"
   xmlns:svg="http://www.w3.org/2000/svg"
   xmlns="http://www.w3.org/2000/svg"
   xmlns:sodipodi="http://sodipodi.sourceforge.net/DTD/sodipodi-0.dtd"
   xmlns:inkscape="http://www.inkscape.org/namespaces/inkscape"
   version="1.1"
   id="svg2"
   width="1044.5309"
   height="1337.2346"
   viewBox="0 0 1044.5309 1337.2346"
   sodipodi:docname="Geirhold.svg"
   inkscape:version="1.0.1 (3bc2e813f5, 2020-09-07)">
  <metadata
     id="metadata8">
    <rdf:RDF>
      <cc:Work
         rdf:about="">
        <dc:format>image/svg+xml</dc:format>
        <dc:type
           rdf:resource="http://purl.org/dc/dcmitype/StillImage" />
        <dc:title></dc:title>
      </cc:Work>
    </rdf:RDF>
  </metadata>
  <defs
     id="defs6" />
  <sodipodi:namedview
     pagecolor="#ffffff"
     bordercolor="#666666"
     borderopacity="1"
     objecttolerance="10"
     gridtolerance="10"
     guidetolerance="10"
     inkscape:pageopacity="0"
     inkscape:pageshadow="2"
     inkscape:window-width="1920"
     inkscape:window-height="1057"
     id="namedview4"
     showgrid="false"
     inkscape:pagecheckerboard="true"
     inkscape:zoom="0.49"
     inkscape:cx="507.41544"
     inkscape:cy="688.54725"
     inkscape:window-x="-8"
     inkscape:window-y="-8"
     inkscape:window-maximized="1"
     inkscape:current-layer="g10" />
  <g
     inkscape:groupmode="layer"
     inkscape:label="Image"
     id="g10"
     transform="translate(-229.30974,-75.633604)">
    <g
       id="g14">
      <path
         style="fill:#d3a824"
         d="m 740.11696,1369.4127 c -26.4164,-6.5168 -43.39391,-12.7075 -70.09149,-25.5583 -86.99454,-41.8746 -173.88078,-111.4618 -242.13495,-193.9259 -5.20253,-6.2857 -10.34371,-12.5978 -11.42484,-14.0269 -20.44945,-27.0316 -33.6292,-45.4521 -42.14374,-58.9016 -29.20277,-46.1284 -49.09606,-85.27341 -64.0325,-126 -9.60501,-26.18958 -11.83107,-33.12198 -18.7849,-58.5 -4.40855,-16.089 -8.92894,-39.98022 -12.10927,-64 -2.40441,-18.15963 -4.12116,-107.30873 -6.31631,-328 -0.58537,-58.85 -1.5153,-124.1 -2.06652,-145 -0.55122,-20.9 -1.22885,-61.42316 -1.50583,-90.05146 l -0.50362,-52.05146 4.7485,-2.33954 c 7.95916,-3.92141 29.09223,-12.97744 41.24851,-17.676 6.325,-2.44469 12.625,-4.92712 14,-5.51651 9.35898,-4.01172 56.67974,-20.02408 70,-23.68656 1.925,-0.52928 8.225,-2.34638 14,-4.038 29.25402,-8.56907 85.30611,-21.07061 114.92382,-25.63195 5.7331,-0.88293 10.71669,-1.78634 11.07464,-2.00757 0.35795,-0.22123 6.46724,-1.1176 13.57618,-1.99195 7.10895,-0.87434 14.95036,-2.03218 17.42536,-2.57297 4.02195,-0.87879 22.69578,-3.12359 50,-6.01053 9.22249,-0.97512 31.68704,-2.77581 64.5,-5.17014 20.82678,-1.5197 152.126,-1.47905 169.5,0.0525 6.875,0.60604 22.175,1.79797 34,2.64874 11.825,0.85076 25.325,1.97963 30,2.50858 4.675,0.52895 16.825,1.85931 27,2.95637 10.175,1.09705 21.2,2.47105 24.5,3.05333 3.3,0.58228 12.3,1.92891 20,2.99252 19.7241,2.7245 40.7728,5.96852 42.253,6.51204 0.6891,0.25305 5.4141,1.1624 10.5,2.02079 17.6117,2.97249 64.8046,13.43379 83.247,18.45344 16.1664,4.40019 26.4988,7.30668 34.5,9.70489 18.6071,5.57712 47.1397,15.47794 65,22.55502 l 8.5,3.36809 -0.07,31.45918 c -0.065,29.52633 -2.1233,197.00127 -4.4786,364.45917 -0.5724,40.7 -1.4536,107.075 -1.9582,147.5 -0.922,73.8648 -1.3223,82.18602 -5.461,113.5 -2.5098,18.98949 -8.7681,49.48665 -13.7489,67 -28.5774,100.48218 -81.0206,189.46428 -159.3824,270.42948 -58.44457,60.3862 -132.53026,114.9079 -203.9013,150.0566 -36.40274,17.9276 -51.03599,24.4227 -68.82384,30.5483 -14.51801,4.9995 -18.45905,5.0969 -35.5592,0.8783 z M 774,1358.1244 c 16.45741,-5.7613 31.83098,-12.6024 65.5,-29.1469 33.68448,-16.5521 75.74351,-42.6591 109.78962,-68.149 C 1052.4241,1183.613 1132.32,1084.455 1174.7594,981 c 22.258,-54.25878 33.458,-99.10025 39.838,-159.5 1.0471,-9.91296 1.7466,-35.45697 2.3962,-87.5 0.5046,-40.425 1.3858,-106.8 1.9582,-147.5 2.1482,-152.7321 4.4045,-333.91178 4.4751,-359.34979 l 0.073,-26.34979 -5,-1.96548 c -8.7301,-3.43178 -29.5973,-10.88548 -41.5,-14.82371 -16.8327,-5.56941 -27.338,-8.66461 -54.5,-16.05758 -18.4424,-5.01965 -65.6353,-15.48095 -83.247,-18.45344 -5.0859,-0.85839 -9.8109,-1.76774 -10.5,-2.02079 -1.4802,-0.54352 -22.5289,-3.78754 -42.253,-6.51204 -7.7,-1.06361 -16.7,-2.41024 -20,-2.99252 -3.3,-0.58228 -14.325,-1.95628 -24.5,-3.05333 -10.175,-1.09706 -22.325,-2.42742 -27,-2.95637 -4.675,-0.52895 -18.175,-1.65782 -30,-2.50858 -11.825,-0.85077 -27.125,-2.04104 -34,-2.64504 -17.32057,-1.52169 -142.77454,-1.56294 -163.5,-0.0538 -32.45899,2.36359 -55.24645,4.18932 -64.5,5.16772 -27.30422,2.88694 -45.97805,5.13174 -50,6.01053 -2.475,0.54079 -10.31641,1.69863 -17.42536,2.57297 -7.10894,0.87435 -13.21823,1.77072 -13.57618,1.99195 -0.35795,0.22123 -5.34154,1.12464 -11.07464,2.00757 -29.61771,4.56134 -85.6698,17.06288 -114.92382,25.63195 -5.775,1.69162 -12.075,3.50872 -14,4.038 -13.32026,3.66248 -60.64102,19.67484 -70,23.68656 -1.375,0.58939 -7.675,3.07182 -14,5.51651 -13.74935,5.3143 -37.21025,15.40759 -38.13613,16.40684 -0.36266,0.39139 -0.29554,28.38662 0.14915,62.21162 0.44469,33.825 1.51788,117.3 2.38486,185.5 3.66942,288.64947 4.68516,340.66604 6.99074,358 3.21336,24.15889 7.71556,47.9409 12.11592,64 6.95383,25.37802 9.17989,32.31042 18.7849,58.5 14.74828,40.21352 33.08057,76.26784 62.0325,122.00004 8.51454,13.4495 21.69429,31.87 42.14374,58.9016 18.31979,24.2165 56.03219,64.7752 85.35267,91.7947 56.05937,51.6599 127.31236,99.109 185.20232,123.3308 12.08818,5.0578 32.65266,11.585 48.02406,15.2428 16.05628,3.8208 16.85307,3.7913 30.95527,-1.1455 z m 196.23485,-315.5563 c -55.93694,-10.6441 -93.7653,-57.86008 -90.92159,-113.48503 1.59183,-31.13715 15.35961,-58.85237 39.06487,-78.63951 13.26392,-11.07159 27.48537,-18.18807 45.28196,-22.6593 12.72788,-3.19777 36.95191,-3.19777 49.67981,0 17.7966,4.47123 32.0181,11.58771 45.282,22.6593 18.3015,15.27655 30.5232,35.05381 36.5938,59.21653 3.1978,12.72788 3.1978,36.95194 0,49.67982 -10.4115,41.44039 -40.3349,71.49909 -81.3526,81.72039 -10.8818,2.7116 -33.24081,3.4844 -43.62825,1.5078 z M 511.28555,809.972 C 453.24341,802.64063 406.90641,757.85195 395.44275,698 c -2.45914,-12.83919 -2.51181,-38.04834 -0.105,-50.2476 C 398.31423,632.66576 405.92544,611 408.24893,611 c 0.58426,0 2.55227,1.13646 4.37336,2.52548 l 3.31107,2.52547 1.936,-3.77547 c 2.18243,-4.25604 5.22065,-7.28896 9.63064,-9.61385 l 3,-1.58155 -3.11514,-0.04 c -1.76314,-0.0227 -4.35103,0.93211 -5.96275,2.19989 -1.56618,1.23195 -3.61457,2.10999 -4.55197,1.95118 -0.97744,-0.16559 -1.96701,0.53875 -2.32016,1.6514 -0.3705,1.16735 -1.76834,2.10931 -3.50934,2.36483 l -2.89356,0.42469 2.06721,-4.06602 c 5.85175,-11.50981 19.59157,-28.63423 30.27375,-37.73123 18.04793,-15.36971 37.70713,-25.06828 60.77829,-29.98406 13.37719,-2.85028 36.05934,-3.09368 48.98127,-0.52561 42.80457,8.50687 78.08559,36.19048 90.32196,70.87205 l 1.34172,3.80284 H 621.3279 600.74451 l -9.78518,-9.39205 c -10.81686,-10.38228 -15.37721,-13.78992 -24.8158,-18.54315 -11.00954,-5.54434 -19.7662,-7.35043 -35.64353,-7.35157 -44.4758,-0.003 -76.96753,21.30063 -89.32484,58.56758 -4.15146,12.5199 -5.39869,20.87105 -5.40927,36.21919 -0.0282,40.96711 17.6007,72.27274 49.55603,88.00208 10.81675,5.32432 21.32106,8.17233 35.42633,9.60508 25.00162,2.53955 49.3306,-5.2576 73.1252,-23.43575 l 5.37344,-4.1051 -0.61405,-6.607 C 597.88557,726.919 596.48712,722.52819 593.31101,718.25 L 590.89822,715 H 572.44911 C 562.3021,715 554,714.737 554,714.41555 c 0,-0.32145 2.05665,-3.20225 4.57034,-6.40177 4.49417,-5.72036 6.52803,-6.97301 11.36577,-7.00013 4.98794,-0.028 15.83965,-3.32229 24.56389,-7.45704 l 9,-4.26544 11.5,1.30552 c 16.58155,1.88239 38.75437,1.80248 44.53623,-0.16051 4.29343,-1.45766 11.00151,-1.1931 10.26674,0.40491 -0.16663,0.3624 -2.27726,4.39379 -4.69027,8.95863 -4.77593,9.0349 -7.87045,11.49828 -16.09672,12.81372 -6.43512,1.02901 -9.96961,7.61294 -12.0179,22.38656 -1.84396,13.29991 -10.61551,28.74151 -23.92208,42.11291 -15.36569,15.44055 -36.92375,26.44418 -61.4768,31.37889 -9.67715,1.94493 -30.56312,2.7118 -40.31365,1.4802 z m 460.9493,-27.40394 c -55.93694,-10.64406 -93.7653,-57.86004 -90.92159,-113.48499 1.59183,-31.13715 15.35961,-58.85237 39.06487,-78.63951 13.26392,-11.07159 27.48537,-18.18807 45.28196,-22.6593 12.72788,-3.19777 36.95191,-3.19777 49.67981,0 17.7966,4.47123 32.0181,11.58771 45.282,22.6593 18.3015,15.27655 30.5232,35.05381 36.5938,59.21653 3.1978,12.72788 3.1978,36.95194 0,49.67982 -10.4115,41.44035 -40.3349,71.49906 -81.3526,81.72035 -10.8818,2.71166 -33.24081,3.4844 -43.62825,1.5078 z m 4,-260 c -55.93694,-10.64406 -93.7653,-57.86004 -90.92159,-113.48499 1.59183,-31.13715 15.35961,-58.85237 39.06487,-78.63951 13.26392,-11.07159 27.48537,-18.18807 45.28196,-22.6593 12.72788,-3.19777 36.95191,-3.19777 49.67981,0 17.7966,4.47123 32.0181,11.58771 45.282,22.6593 18.3015,15.27655 30.5232,35.05381 36.5938,59.21653 3.1978,12.72788 3.1978,36.95194 0,49.67982 -10.4115,41.44035 -40.3349,71.49906 -81.3526,81.72035 -10.8818,2.71166 -33.24081,3.4844 -43.62825,1.5078 z"
         id="path20" />
      <path
         style="fill:#2f5725"
         d="m 758,1385.6834 v -12.5928 l 3.75,-0.628 c 9.37632,-1.5702 28.15065,-8.6051 49.75,-18.6418 49.16772,-22.847 77.12702,-38.3792 114.28962,-63.4915 74.54618,-50.3739 136.69088,-109.8711 187.83138,-179.8293 57.2817,-78.3592 96.3434,-172.47377 107.9116,-260 4.1387,-31.31398 4.539,-39.6352 5.461,-113.5 0.5046,-40.425 1.3858,-106.8 1.9582,-147.5 2.3553,-167.4579 4.4133,-334.93284 4.4786,-364.45917 l 0.07,-31.45918 -8.5,-3.36809 c -17.8603,-7.07708 -46.3929,-16.9779 -65,-22.55502 -8.0012,-2.39821 -18.3336,-5.3047 -34.5,-9.70489 -18.4424,-5.01965 -65.6353,-15.48095 -83.247,-18.45344 -5.0859,-0.85839 -9.8109,-1.76774 -10.5,-2.02079 -1.4802,-0.54352 -22.5289,-3.78754 -42.253,-6.51204 -7.7,-1.06361 -16.7,-2.41024 -20,-2.99252 -3.3,-0.58228 -14.325,-1.95628 -24.5,-3.05333 -10.175,-1.09706 -22.325,-2.42658 -27,-2.9545 -4.675,-0.52792 -18.4,-1.68509 -30.5,-2.57148 -12.1,-0.88639 -26.5,-1.97275 -32,-2.41414 -5.5,-0.44139 -29.6875,-1.14075 -53.75,-1.55414 l -43.75,-0.75161 V 102.17699 89.678329 l 46.25,0.741564 c 25.4375,0.407861 50.75,1.106878 56.25,1.553374 5.5,0.446495 20.0036,1.546337 32.23021,2.444094 12.22662,0.897758 25.72662,2.025873 30,2.506923 4.27339,0.48105 16.54479,1.811015 27.26979,2.955478 10.725,1.144468 20.625,2.317198 22,2.606088 1.375,0.28888 10.375,1.63879 20,2.9998 70.9088,10.02676 139.776,25.592 197,44.52558 14.2132,4.70271 36.8097,12.68053 39.5,13.94571 1.1,0.51731 6.6821,2.84825 12.4047,5.17987 11.4942,4.68317 16.6303,8.79955 17.5911,14.09844 0.7942,4.37975 -0.6151,131.92666 -4.544,411.26475 -0.5724,40.7 -1.4594,107.075 -1.9711,147.5 -0.6328,50.00168 -1.3859,77.97587 -2.3555,87.5 -1.8887,18.55298 -5.4234,44.254 -6.6015,48 -0.5189,1.65 -1.4526,6.15 -2.0749,10 -3.7931,23.46617 -20.9517,80.84363 -29.9764,100.2391 -1.0848,2.33151 -1.9724,4.4937 -1.9724,4.80487 0,0.31116 -0.8471,2.45357 -1.8824,4.76089 -1.0354,2.30733 -3.3441,7.57014 -5.1305,11.69514 -5.0903,11.7539 -15.9112,33.2371 -24.9661,49.5662 -54.2018,97.7442 -138.5276,187.3593 -240.021,255.076 -32.89311,21.9464 -70.84629,43.5071 -97.5,55.3885 -2.75,1.2258 -9.275,4.2478 -14.5,6.7155 -28.04735,13.2462 -48.45124,20.6296 -60.38976,21.8528 l -6.61024,0.6772 v -12.5928 z m 0,-642.34601 V 124.67478 l 42.25,0.75756 c 23.2375,0.41665 46.75,1.11621 52.25,1.55457 5.5,0.43836 19.9,1.52225 32,2.40864 12.1,0.88639 25.825,2.04356 30.5,2.57148 4.675,0.52792 16.825,1.85744 27,2.9545 10.175,1.09705 21.2,2.47105 24.5,3.05333 3.3,0.58228 12.3,1.92891 20,2.99252 19.7241,2.7245 40.7728,5.96852 42.253,6.51204 0.6891,0.25305 5.4141,1.1624 10.5,2.02079 17.6117,2.97249 64.8046,13.43379 83.247,18.45344 27.162,7.39297 37.6673,10.48817 54.5,16.05758 11.9027,3.93823 32.7699,11.39193 41.5,14.82371 l 5,1.96548 -0.073,26.34979 c -0.071,25.43801 -2.3269,206.61769 -4.4751,359.34979 -0.5724,40.7 -1.4536,107.075 -1.9582,147.5 -0.922,73.8648 -1.3223,82.18602 -5.461,113.5 -8.2841,62.67826 -31.5763,131.6742 -64.4867,191.0215 -52.0748,93.9067 -130.6905,177.8786 -228.25628,243.8078 -36.92732,24.9533 -63.03069,39.5035 -110.42101,61.5496 C 787.1276,1353.7602 765.27214,1362 760.30352,1362 H 758 Z m 255.8631,297.72291 c 23.5524,-5.8691 43.5286,-18.2709 58.6933,-36.4384 11.0716,-13.26395 18.1881,-27.4854 22.6593,-45.28199 3.1978,-12.72788 3.1978,-36.95194 0,-49.67982 -6.0706,-24.16272 -18.2923,-43.93998 -36.5938,-59.21653 -13.2639,-11.07159 -27.4854,-18.18807 -45.282,-22.6593 -12.7279,-3.19777 -36.95193,-3.19777 -49.67981,0 -48.73083,12.24318 -81.826,51.9898 -84.34683,101.29881 -2.84371,55.62495 34.98465,102.84093 90.92159,113.48503 10.38744,1.9766 32.74645,1.2038 43.62825,-1.5078 z m 2,-260.00004 c 34.9201,-8.70182 63.1388,-32.94001 76.1343,-65.39489 5.8219,-14.53941 7.4393,-23.4893 7.4393,-41.16537 0,-17.67607 -1.6174,-26.62596 -7.4393,-41.16537 -10.7783,-26.91758 -33.4144,-49.55375 -60.332,-60.33207 -14.5394,-5.82186 -23.4893,-7.43925 -41.1654,-7.43925 -17.67607,0 -26.62596,1.61739 -41.16537,7.43925 -58.811,23.54907 -85.10771,93.28718 -56.74928,150.49744 15.38432,31.0363 44.04851,52.29366 79.6495,59.06806 10.38744,1.9766 32.74645,1.20386 43.62825,-1.5078 z m 4,-260 c 34.9201,-8.70182 63.1388,-32.94001 76.1343,-65.39489 5.8219,-14.53941 7.4393,-23.4893 7.4393,-41.16537 0,-17.67607 -1.6174,-26.62596 -7.4393,-41.16537 -10.7783,-26.91758 -33.4144,-49.55375 -60.332,-60.33207 -14.5394,-5.82186 -23.4893,-7.43925 -41.1654,-7.43925 -17.67607,0 -26.62596,1.61739 -41.16537,7.43925 -58.811,23.54907 -85.10771,93.28718 -56.74928,150.49744 15.38432,31.0363 44.04851,52.29366 79.6495,59.06806 10.38744,1.9766 32.74645,1.20386 43.62825,-1.5078 z M 514.26903,810.30701 c 0.97297,-0.25354 2.32297,-0.23687 3,0.0371 0.67703,0.27393 -0.11903,0.48137 -1.76903,0.46099 -1.65,-0.0204 -2.20394,-0.2445 -1.23097,-0.49804 z m 23,0 c 0.97297,-0.25354 2.32297,-0.23687 3,0.0371 0.67703,0.27393 -0.11903,0.48137 -1.76903,0.46099 -1.65,-0.0204 -2.20394,-0.2445 -1.23097,-0.49804 z M 444.87244,782.25 c -1.24387,-1.58606 -1.2085,-1.62143 0.37756,-0.37756 0.9625,0.75485 1.75,1.54235 1.75,1.75 0,0.82304 -0.82119,0.29331 -2.12756,-1.37244 z m -6.46745,-5.5 -1.90499,-2.25 2.25,1.90499 c 1.2375,1.04774 2.25,2.06024 2.25,2.25 0,0.80025 -0.80479,0.20945 -2.59501,-1.90499 z M 619,770.62244 c 0,-0.20765 0.7875,-0.99515 1.75,-1.75 1.58606,-1.24387 1.62143,-1.2085 0.37756,0.37756 C 619.82119,770.91575 619,771.44548 619,770.62244 Z M 428.92431,767.25 426.5,764.5 l 2.75,2.42431 c 2.57029,2.26589 3.20859,3.07569 2.42431,3.07569 -0.17912,0 -1.41662,-1.2375 -2.75,-2.75 z m 98.8436,2.02527 c 1.79735,-0.22256 4.49735,-0.21797 6,0.0102 1.50265,0.22818 0.0321,0.41027 -3.26791,0.40466 -3.3,-0.006 -4.52944,-0.1923 -2.73209,-0.41486 z M 514.75,768.33772 c 0.6875,-0.27741 1.8125,-0.27741 2.5,0 0.6875,0.27741 0.125,0.50439 -1.25,0.50439 -1.375,0 -1.9375,-0.22698 -1.25,-0.50439 z m 28.0625,-0.0208 c 0.72187,-0.28887 1.58438,-0.25335 1.91667,0.0789 0.33229,0.33229 -0.25834,0.56864 -1.3125,0.52522 -1.16495,-0.048 -1.4019,-0.28494 -0.60417,-0.60416 z M 461.92431,743.25 459.5,740.5 l 2.75,2.42431 c 2.57029,2.26589 3.20859,3.07569 2.42431,3.07569 -0.17912,0 -1.41662,-1.2375 -2.75,-2.75 z m 174.15464,-2.83333 c 0.048,-1.16495 0.28494,-1.4019 0.60416,-0.60417 0.28887,0.72187 0.25335,1.58438 -0.0789,1.91667 -0.33229,0.33229 -0.56864,-0.25834 -0.52522,-1.3125 z M 598.19495,735.5 c 0.0204,-1.65 0.2445,-2.20394 0.49804,-1.23097 0.25354,0.97297 0.23687,2.32297 -0.0371,3 -0.27393,0.67703 -0.48137,-0.11903 -0.46099,-1.76903 z m 38.884,-3.08333 c 0.048,-1.16495 0.28494,-1.4019 0.60416,-0.60417 0.28887,0.72187 0.25335,1.58438 -0.0789,1.91667 -0.33229,0.33229 -0.56864,-0.25834 -0.52522,-1.3125 z M 591.40499,716.75 589.5,714.5 l 2.25,1.90499 c 2.11444,1.79022 2.70524,2.59501 1.90499,2.59501 -0.18976,0 -1.20226,-1.0125 -2.25,-2.25 z m 52.8212,-2.32872 c 0.94941,-0.99123 1.94144,-1.58698 2.20452,-1.3239 0.26308,0.26308 -0.5137,1.07408 -1.72619,1.80223 -2.10631,1.26492 -2.12762,1.24361 -0.47833,-0.47833 z m -81.45774,-12.58973 c 0.5811,-0.5811 1.64682,-0.85979 2.36826,-0.61931 0.74895,0.24965 0.29565,0.70294 -1.05655,1.05655 -1.66335,0.43497 -2.05378,0.30483 -1.31171,-0.43724 z m -167.6895,-2.41488 c 0.048,-1.16495 0.28494,-1.4019 0.60416,-0.60417 0.28887,0.72187 0.25335,1.58438 -0.0789,1.91667 -0.33229,0.33229 -0.56864,-0.25834 -0.52522,-1.3125 z m 176.73355,0.90022 c 0.72187,-0.28887 1.58438,-0.25335 1.91667,0.0789 0.33229,0.33229 -0.25834,0.56864 -1.3125,0.52522 -1.16495,-0.048 -1.4019,-0.28494 -0.60417,-0.60416 z m -177.73355,-6.90022 c 0.048,-1.16495 0.28494,-1.4019 0.60416,-0.60417 0.28887,0.72187 0.25335,1.58438 -0.0789,1.91667 -0.33229,0.33229 -0.56864,-0.25834 -0.52522,-1.3125 z m 231.68271,-2.12393 c 1.24391,-0.23919 3.04391,-0.23011 4,0.0202 0.95609,0.25029 -0.0617,0.446 -2.26166,0.4349 -2.2,-0.0111 -2.98225,-0.21589 -1.73834,-0.45508 z m 26.98834,0.045 c 0.6875,-0.27741 1.8125,-0.27741 2.5,0 0.6875,0.27741 0.125,0.50439 -1.25,0.50439 -1.375,0 -1.9375,-0.22698 -1.25,-0.50439 z m -38,-1 c 0.6875,-0.27741 1.8125,-0.27741 2.5,0 0.6875,0.27741 0.125,0.50439 -1.25,0.50439 -1.375,0 -1.9375,-0.22698 -1.25,-0.50439 z m -9,-1 c 0.6875,-0.27741 1.8125,-0.27741 2.5,0 0.6875,0.27741 0.125,0.50439 -1.25,0.50439 -1.375,0 -1.9375,-0.22698 -1.25,-0.50439 z M 436.15789,686 c 0,-1.375 0.22698,-1.9375 0.50439,-1.25 0.27741,0.6875 0.27741,1.8125 0,2.5 -0.27741,0.6875 -0.50439,0.125 -0.50439,-1.25 z m -42.96294,-1.5 c 0.0204,-1.65 0.2445,-2.20394 0.49804,-1.23097 0.25354,0.97297 0.23687,2.32297 -0.0371,3 -0.27393,0.67703 -0.48137,-0.11903 -0.46099,-1.76903 z M 435.27236,671 c 0,-2.475 0.19502,-3.4875 0.43337,-2.25 0.23836,1.2375 0.23836,3.2625 0,4.5 -0.23835,1.2375 -0.43337,0.225 -0.43337,-2.25 z m -42.07741,-10.5 c 0.0204,-1.65 0.2445,-2.20394 0.49804,-1.23097 0.25354,0.97297 0.23687,2.32297 -0.0371,3 -0.27393,0.67703 -0.48137,-0.11903 -0.46099,-1.76903 z m 42.884,-4.08333 c 0.048,-1.16495 0.28494,-1.4019 0.60416,-0.60417 0.28887,0.72187 0.25335,1.58438 -0.0789,1.91667 -0.33229,0.33229 -0.56864,-0.25834 -0.52522,-1.3125 z m -42,-5 c 0.048,-1.16495 0.28494,-1.4019 0.60416,-0.60417 0.28887,0.72187 0.25335,1.58438 -0.0789,1.91667 -0.33229,0.33229 -0.56864,-0.25834 -0.52522,-1.3125 z m 20.52406,-36.25 c -0.28327,-0.45834 0.12038,-0.83334 0.89699,-0.83334 0.77661,0 1.18026,0.375 0.89699,0.83334 C 416.11373,615.625 415.71008,616 415.5,616 c -0.21008,0 -0.61373,-0.375 -0.89699,-0.83333 z m -6.84678,-4.79176 c 0.69093,-0.30015 1.04205,-0.89229 0.78026,-1.31586 -0.26178,-0.42358 0.65434,-0.55406 2.03582,-0.28998 2.99491,0.57252 2.86385,0.76204 -1.07231,1.55057 -1.65,0.33054 -2.4347,0.35541 -1.74377,0.0553 z M 455,608.62244 c 0,-0.20765 0.7875,-0.99515 1.75,-1.75 1.58606,-1.24387 1.62143,-1.2085 0.37756,0.37756 C 455.82119,608.91575 455,609.44548 455,608.62244 Z m -39.1875,-3.30555 c 0.72187,-0.28887 1.58438,-0.25335 1.91667,0.0789 0.33229,0.33229 -0.25834,0.56864 -1.3125,0.52522 -1.16495,-0.048 -1.4019,-0.28494 -0.60417,-0.60416 z M 420.5,604 c 0.99549,-1.1 2.03498,-2 2.30998,-2 0.275,0 -0.31449,0.9 -1.30998,2 -0.99549,1.1 -2.03498,2 -2.30998,2 -0.275,0 0.31449,-0.9 1.30998,-2 z m 5,-2.0681 c -1.62866,-0.6444 -1.39657,-0.80438 1.25,-0.86161 3.37975,-0.0731 4.14515,0.38016 2,1.18434 -0.6875,0.25773 -2.15,0.1125 -3.25,-0.32273 z M 585.40499,597.75 583.5,595.5 l 2.25,1.90499 c 2.11444,1.79022 2.70524,2.59501 1.90499,2.59501 -0.18976,0 -1.20226,-1.0125 -2.25,-2.25 z M 465,598.62244 c 0,-0.20765 0.7875,-0.99515 1.75,-1.75 1.58606,-1.24387 1.62143,-1.2085 0.37756,0.37756 C 465.82119,598.91575 465,599.44548 465,598.62244 Z M 578.87244,592.25 c -1.24387,-1.58606 -1.2085,-1.62143 0.37756,-0.37756 0.9625,0.75485 1.75,1.54235 1.75,1.75 0,0.82304 -0.82119,0.29331 -2.12756,-1.37244 z M 427.5,580 c 0.99549,-1.1 2.03498,-2 2.30998,-2 0.275,0 -0.31449,0.9 -1.30998,2 -0.99549,1.1 -2.03498,2 -2.30998,2 -0.275,0 0.31449,-0.9 1.30998,-2 z m 195.37244,-1.75 c -1.24387,-1.58606 -1.2085,-1.62143 0.37756,-0.37756 0.9625,0.75485 1.75,1.54235 1.75,1.75 0,0.82304 -0.82119,0.29331 -2.12756,-1.37244 z M 514.8125,577.31689 c 0.72187,-0.28887 1.58438,-0.25335 1.91667,0.0789 0.33229,0.33229 -0.25834,0.56864 -1.3125,0.52522 -1.16495,-0.048 -1.4019,-0.28494 -0.60417,-0.60416 z m 29,0 c 0.72187,-0.28887 1.58438,-0.25335 1.91667,0.0789 0.33229,0.33229 -0.25834,0.56864 -1.3125,0.52522 -1.16495,-0.048 -1.4019,-0.28494 -0.60417,-0.60416 z M 527.25,576.27153 c 2.0625,-0.21574 5.4375,-0.21574 7.5,0 2.0625,0.21575 0.375,0.39226 -3.75,0.39226 -4.125,0 -5.8125,-0.17651 -3.75,-0.39226 z M 439.5,568 c 0.99549,-1.1 2.03498,-2 2.30998,-2 0.275,0 -0.31449,0.9 -1.30998,2 -0.99549,1.1 -2.03498,2 -2.30998,2 -0.275,0 0.31449,-0.9 1.30998,-2 z m 169.37244,-3.75 c -1.24387,-1.58606 -1.2085,-1.62143 0.37756,-0.37756 0.9625,0.75485 1.75,1.54235 1.75,1.75 0,0.82304 -0.82119,0.29331 -2.12756,-1.37244 z M 500.8125,537.31689 c 0.72187,-0.28887 1.58438,-0.25335 1.91667,0.0789 0.33229,0.33229 -0.25834,0.56864 -1.3125,0.52522 -1.16495,-0.048 -1.4019,-0.28494 -0.60417,-0.60416 z m 6,-1 c 0.72187,-0.28887 1.58438,-0.25335 1.91667,0.0789 0.33229,0.33229 -0.25834,0.56864 -1.3125,0.52522 -1.16495,-0.048 -1.4019,-0.28494 -0.60417,-0.60416 z m 39,0 c 0.72187,-0.28887 1.58438,-0.25335 1.91667,0.0789 0.33229,0.33229 -0.25834,0.56864 -1.3125,0.52522 -1.16495,-0.048 -1.4019,-0.28494 -0.60417,-0.60416 z m -31.54347,-1.00988 c 0.97297,-0.25354 2.32297,-0.23687 3,0.0371 0.67703,0.27393 -0.11903,0.48137 -1.76903,0.46099 -1.65,-0.0204 -2.20394,-0.2445 -1.23097,-0.49804 z m 22.48097,0.0307 c 0.6875,-0.27741 1.8125,-0.27741 2.5,0 0.6875,0.27741 0.125,0.50439 -1.25,0.50439 -1.375,0 -1.9375,-0.22698 -1.25,-0.50439 z M 229.30987,271.5 c 0.006,-3.3 0.1923,-4.52944 0.41486,-2.73209 0.22256,1.79735 0.21797,4.49735 -0.0102,6 -0.22818,1.50265 -0.41027,0.0321 -0.40466,-3.26791 z"
         id="path18" />
      <path
         style="fill:#000000"
         d="m 746.5,1412.3132 c -41.03263,-9.331 -62.68596,-16.5936 -92.5,-31.025 -61.00572,-29.5295 -124.17873,-72.7834 -176.49892,-120.8469 -32.04111,-29.4342 -73.79887,-74.1114 -93.0354,-99.5397 -27.30251,-36.0905 -40.63474,-55.3014 -55.42188,-79.8595 -5.53252,-9.1882 -24.31414,-42.9176 -28.8975,-51.8961 -3.08632,-6.046 -17.9065,-38.56362 -20.34776,-44.646 -9.16884,-22.84409 -17.51484,-46.71293 -22.72796,-65 -1.72469,-6.05 -3.7834,-13.25 -4.57492,-16 -0.79153,-2.75 -2.34983,-9.4272 -3.4629,-14.83821 -1.11307,-5.41102 -2.24539,-10.19682 -2.51628,-10.63512 -0.70703,-1.144 -5.38933,-29.47654 -7.11068,-43.02667 -2.32446,-18.29758 -3.44327,-75.60148 -6.97014,-357 -0.83754,-66.825 -1.97273,-155.85514 -2.52264,-197.84476 -1.10274,-84.2017 -1.20677,-82.30827 4.99242,-90.866 4.43893,-6.12777 8.51609,-8.77696 25.81121,-16.77119 43.04665,-19.89722 84.35063,-34.84042 143.78335,-52.01881 10.36153,-2.99488 50.95423,-13.10339 60,-14.94137 18.63581,-3.78654 27.58475,-5.632819 34,-7.014649 3.85,-0.82928 11.725,-2.222118 17.5,-3.095195 5.775,-0.873078 12.075,-1.98459 14,-2.470027 1.925,-0.485437 9.125,-1.585358 16,-2.444269 6.875,-0.85891 14.525,-2.003561 17,-2.543668 3.936,-0.858934 23.28401,-3.166508 51,-6.082605 8.35755,-0.879327 32.9702,-2.846859 64.5,-5.156122 20.41665,-1.495328 163.9529,-1.488233 181,0.0089 6.6,0.579652 22.0036,1.781889 34.23021,2.671639 12.22662,0.889749 25.72662,2.011313 30,2.492363 4.27339,0.48105 16.54479,1.809673 27.26979,2.952497 10.725,1.142823 20.85,2.346512 22.5,2.674865 1.65,0.328352 10.65,1.670712 20,2.983021 34.3349,4.819044 74.2022,12.06563 101.5,18.44947 34.2809,8.01689 37.4566,8.82051 60,15.18327 46.41,13.09899 96.4739,31.32246 107.0026,38.94941 5.1798,3.75226 9.5937,10.66799 11.0167,17.26097 0.7401,3.42908 0.9785,17.84825 0.7213,43.62221 -0.4405,44.14886 -3.2494,262.05222 -4.7888,371.5 -0.5724,40.7 -1.4572,107.075 -1.9662,147.5 -0.6433,51.08922 -1.3728,77.92118 -2.3926,88 -1.9111,18.88762 -5.3198,43.05626 -7.0518,50 -0.7546,3.025 -1.6683,7.525 -2.0305,10 -0.3621,2.475 -2.2349,11.025 -4.1616,19 -21.3804,88.49725 -62.5146,171.45035 -123.2245,248.50005 -41.0287,52.0714 -96.9145,105.7517 -152.6246,146.6011 -14.3811,10.545 -41.74547,28.9958 -53.74951,36.2414 -12.41366,7.4928 -35.89928,21.1043 -40.25049,23.3278 -2.2,1.1242 -8.275,4.296 -13.5,7.0485 -10.9124,5.7485 -52.6336,25.0096 -64.5,29.7773 -11.28932,4.5358 -22.85447,8.2611 -31.00854,9.9882 -6.52705,1.3826 -21.46216,1.8589 -25.99146,0.8289 z m 34.36024,-18.4776 c 13.28677,-4.2537 25.06326,-9.0799 44.13976,-18.0894 5.225,-2.4677 11.75,-5.4897 14.5,-6.7155 12.83315,-5.7206 35.90113,-17.7276 51.5,-26.806 66.57023,-38.7433 121.1177,-80.9627 173.5867,-134.355 45.2072,-46.0027 82.9262,-96.0904 112.4343,-149.3035 9.0549,-16.3291 19.8758,-37.8123 24.9661,-49.5662 1.7864,-4.125 4.0951,-9.38781 5.1305,-11.69514 1.0353,-2.30732 1.8824,-4.44973 1.8824,-4.76089 0,-0.31117 0.8876,-2.47336 1.9724,-4.80487 2.1488,-4.61809 9.285,-24.38108 14.5298,-40.2391 5.776,-17.46377 12.6027,-43.79543 15.037,-58 0.8484,-4.95 1.9667,-10.35 2.4852,-12 1.1777,-3.7475 4.7129,-29.45483 6.6008,-48 0.9696,-9.52413 1.7227,-37.49832 2.3555,-87.5 0.5117,-40.425 1.3987,-106.8 1.9711,-147.5 3.9289,-279.33809 5.3382,-406.885 4.544,-411.26475 -0.9608,-5.29889 -6.0969,-9.41527 -17.5911,-14.09844 -5.7226,-2.33162 -11.3047,-4.66256 -12.4047,-5.17987 -2.6903,-1.26518 -25.2868,-9.243 -39.5,-13.94571 -57.4925,-19.02244 -125.7584,-34.45176 -197,-44.52558 -9.625,-1.36101 -18.625,-2.71092 -20,-2.9998 -1.375,-0.28889 -11.275,-1.46162 -22,-2.606088 -10.725,-1.144463 -22.9964,-2.474428 -27.26979,-2.955478 -4.27338,-0.48105 -17.77338,-1.609165 -30,-2.506923 C 880.5036,93.519604 866,92.419762 860.5,91.973267 855,91.526771 829.6875,90.827754 804.25,90.419893 L 758,89.678329 v 12.499331 12.49933 l -31.25,0.74891 c -17.1875,0.4119 -37.1,1.11763 -44.25,1.56828 -17.60112,1.10937 -52.07368,3.81995 -62.5,4.91438 -24.91751,2.61554 -46.01319,5.15927 -50,6.02902 -2.475,0.53994 -10.31641,1.69708 -17.42536,2.57142 -7.10894,0.87435 -13.21823,1.77072 -13.57618,1.99195 -0.35795,0.22123 -5.34154,1.12464 -11.07464,2.00757 -29.61771,4.56134 -85.6698,17.06288 -114.92382,25.63195 -5.775,1.69162 -12.075,3.50872 -14,4.038 -13.32026,3.66248 -60.64102,19.67484 -70,23.68656 -1.375,0.58939 -7.675,3.07182 -14,5.51651 -12.15628,4.69856 -33.28935,13.75459 -41.24851,17.676 l -4.7485,2.33954 0.50362,52.05146 c 0.27698,28.6283 0.95461,69.15146 1.50583,90.05146 0.55122,20.9 1.48115,86.15 2.06652,145 2.19515,220.69127 3.9119,309.84037 6.31631,328 3.18033,24.01978 7.70072,47.911 12.10927,64 6.95383,25.37802 9.17989,32.31042 18.7849,58.5 14.93644,40.72659 34.82973,79.8716 64.0325,126 8.51454,13.4495 21.69429,31.87 42.14374,58.9016 18.39,24.3093 56.54555,65.3269 86.12345,92.5835 41.83626,38.5529 91.78125,74.7239 139.93634,101.3444 12.01801,6.6436 40.11905,20.3619 50.47453,24.6405 11.5619,4.777 35.12855,12.0854 50.25,15.5834 l 14.75,3.412 v 12.4054 12.4054 l 6.61024,-0.6772 c 3.63564,-0.3725 10.94814,-2.066 16.25,-3.7634 z m -37.74328,-34.4739 c -15.61156,-3.7959 -36.23119,-10.3701 -48.09629,-15.3346 -57.88996,-24.2218 -129.14295,-71.6709 -185.20232,-123.3308 -29.32048,-27.0195 -67.03288,-67.5782 -85.35267,-91.7947 -20.44945,-27.0316 -33.6292,-45.4521 -42.14374,-58.9016 -28.95193,-45.7322 -47.28422,-81.78648 -62.0325,-122 -9.60501,-26.18958 -11.83107,-33.12198 -18.7849,-58.5 -4.40036,-16.0591 -8.90256,-39.84111 -12.11592,-64 -2.30558,-17.33396 -3.32132,-69.35053 -6.99074,-358 -0.86698,-68.2 -1.94017,-151.675 -2.38486,-185.5 -0.44469,-33.825 -0.51181,-61.82023 -0.14915,-62.21162 0.92588,-0.99925 24.38678,-11.09254 38.13613,-16.40684 6.325,-2.44469 12.625,-4.92712 14,-5.51651 9.35898,-4.01172 56.67974,-20.02408 70,-23.68656 1.925,-0.52928 8.225,-2.34638 14,-4.038 29.25402,-8.56907 85.30611,-21.07061 114.92382,-25.63195 5.7331,-0.88293 10.71669,-1.78634 11.07464,-2.00757 0.35795,-0.22123 6.46724,-1.1176 13.57618,-1.99195 7.10895,-0.87434 14.95036,-2.03148 17.42536,-2.57142 3.98681,-0.86975 25.08249,-3.41348 50,-6.02902 10.59067,-1.11169 45.04657,-3.80766 63,-4.92939 7.425,-0.46391 26.6625,-1.17148 42.75,-1.57237 L 758,124.67791 v 619.16105 c 0,340.53854 -0.1125,619.12924 -0.25,619.09044 -0.1375,-0.039 -6.72237,-1.6443 -14.63304,-3.5677 z M 545.30845,809.92011 c 28.34213,-4.2559 51.86242,-15.82294 69.70991,-34.28262 13.05919,-13.50713 20.3719,-26.91682 22.53442,-41.32253 2.31487,-15.42055 5.35807,-20.28751 13.58547,-21.72707 6.11608,-1.07014 9.75829,-4.44861 14.91635,-13.83623 l 4.8068,-8.74834 -2.6807,-0.58913 c -1.47438,-0.32402 -3.1307,-0.71303 -3.6807,-0.86446 -0.55,-0.15142 -2.35,0.44917 -4,1.33466 -3.80515,2.04208 -30.62112,2.16496 -46.79261,0.21442 l -10.79261,-1.30176 -6.70739,3.47834 c -8.62489,4.47274 -15.7467,6.7585 -25.3211,8.12687 l -7.68081,1.09774 -5.05228,6.5 -5.05227,6.5 18.16925,0.27341 18.16925,0.27341 2.81695,2.69881 c 3.0538,2.92572 5.22992,9.40896 6.12716,18.25437 l 0.55789,5.5 -7.72071,5.74274 c -9.35811,6.96065 -27.00945,15.86355 -37.22072,18.77322 -9.63377,2.7451 -27.77271,3.68601 -39.10774,2.02861 -40.96699,-5.99016 -68.01393,-31.80158 -77.06496,-73.54457 -0.78769,-3.63282 -1.30388,-12.90427 -1.30835,-23.5 -0.008,-18.77775 1.03103,-25.44081 6.04575,-38.77262 13.75089,-36.55723 47.53544,-56.77735 91.7851,-54.93357 14.86577,0.61942 21.71427,2.20918 32.51613,7.54802 7.69188,3.80173 23.47603,16.23492 29.40698,23.1639 L 599.69186,612 h 21.22146 21.22146 l -0.64834,-2.25 c -1.2736,-4.41996 -7.47354,-16.89201 -11.19585,-22.52205 -5.20637,-7.8747 -17.3718,-20.4828 -25.8168,-26.75621 -13.96117,-10.37114 -29.3874,-17.48695 -47.90268,-22.09654 -13.62857,-3.39299 -35.83757,-4.27461 -49.80795,-1.97719 -43.83523,7.20868 -81.60091,35.95925 -100.65107,76.62448 -9.64006,20.57807 -12.58764,34.49023 -12.60153,59.47751 -0.0113,20.31806 0.97734,27.3752 6.14638,43.87475 10.68977,34.12162 37.06601,65.03158 69.18293,81.07452 9.80607,4.8983 25.93396,10.20901 36.25686,11.93894 10.28281,1.7232 30.49754,1.99059 40.21172,0.5319 z M 412,612.73315 c -3.25833,-2.07896 -3.34201,-2.25556 -1.21192,-2.55769 1.25844,-0.1785 2.82919,-1.191 3.49054,-2.25 0.66136,-1.059 2.14948,-1.92546 3.30694,-1.92546 1.15746,0 2.91895,-0.9 3.91444,-2 0.99549,-1.1 2.74639,-2 3.89091,-2 1.78054,0 1.62106,0.32479 -1.10485,2.25 -1.75217,1.2375 -4.39859,4.1625 -5.88092,6.5 -1.48234,2.3375 -2.74241,4.24242 -2.80015,4.23315 -0.0577,-0.009 -1.67999,-1.02176 -3.60499,-2.25 z M 244.71758,269.26375 c -0.22985,-1.52006 -0.42406,-0.51375 -0.43157,2.23625 -0.007,2.75 0.18056,3.99369 0.41792,2.76375 0.23736,-1.22994 0.24351,-3.47994 0.0136,-5 z"
         id="path16" />
    </g>
  </g>
</svg>
