<?xml version="1.0" encoding="UTF-8" standalone="no"?>
<svg
   xmlns:dc="http://purl.org/dc/elements/1.1/"
   xmlns:cc="http://creativecommons.org/ns#"
   xmlns:rdf="http://www.w3.org/1999/02/22-rdf-syntax-ns#"
   xmlns:svg="http://www.w3.org/2000/svg"
   xmlns="http://www.w3.org/2000/svg"
   xmlns:sodipodi="http://sodipodi.sourceforge.net/DTD/sodipodi-0.dtd"
   xmlns:inkscape="http://www.inkscape.org/namespaces/inkscape"
   version="1.1"
   id="svg2"
   width="1043.9584"
   height="1045.8192"
   viewBox="0 0 1043.9584 1045.8192"
   sodipodi:docname="Gilheim.svg"
   inkscape:version="1.0.1 (3bc2e813f5, 2020-09-07)">
  <metadata
     id="metadata8">
    <rdf:RDF>
      <cc:Work
         rdf:about="">
        <dc:format>image/svg+xml</dc:format>
        <dc:type
           rdf:resource="http://purl.org/dc/dcmitype/StillImage" />
        <dc:title></dc:title>
      </cc:Work>
    </rdf:RDF>
  </metadata>
  <defs
     id="defs6" />
  <sodipodi:namedview
     pagecolor="#ffffff"
     bordercolor="#666666"
     borderopacity="1"
     objecttolerance="10"
     gridtolerance="10"
     guidetolerance="10"
     inkscape:pageopacity="0"
     inkscape:pageshadow="2"
     inkscape:window-width="1920"
     inkscape:window-height="1057"
     id="namedview4"
     showgrid="false"
     inkscape:pagecheckerboard="true"
     inkscape:zoom="0.49"
     inkscape:cx="519.95843"
     inkscape:cy="511.95843"
     inkscape:window-x="-8"
     inkscape:window-y="-8"
     inkscape:window-maximized="1"
     inkscape:current-layer="g10" />
  <g
     inkscape:groupmode="layer"
     inkscape:label="Image"
     id="g10"
     transform="translate(-230.04157,-238.04157)">
    <g
       id="g14">
      <path
         style="fill:#dcaa25"
         d="m 712.5,1257.4775 c -63.69566,-5.8501 -120.99519,-21.6749 -177,-48.8831 -23.01618,-11.1817 -36.09775,-18.6152 -56.5,-32.1058 C 421.80325,1138.6684 375.3316,1092.1968 337.51137,1035 324.02079,1014.5977 316.58726,1001.5162 305.40556,978.5 248.52787,861.42415 239.4053,728.73467 279.82145,606.37441 300.7723,542.94553 332.56252,486.70577 376.49417,435.35168 404.95432,402.08308 440.31713,371.08966 479,345.51137 c 20.40225,-13.49058 33.48382,-20.92411 56.5,-32.10581 117.07585,-56.87769 249.76533,-66.00026 372.12559,-25.58411 63.42888,20.95085 119.66861,52.74107 171.02271,96.67272 40.368,34.53345 79.2126,81.62984 106.4025,129.00583 26.5342,46.23346 47.8063,104.09186 57.4367,156.22268 6.0088,32.52683 6.5125,39.58669 6.5125,91.27732 0,51.69063 -0.5037,58.75049 -6.5125,91.27732 -9.6304,52.13082 -30.9025,109.98922 -57.4367,156.22268 -38.5415,67.1552 -92.8437,124.8717 -158.0508,167.9886 -20.4023,13.4906 -33.48382,20.9241 -56.5,32.1058 -56.69121,27.5417 -113.86829,43.2385 -178.15875,48.9099 -20.32231,1.7927 -60.17563,1.7793 -79.84125,-0.027 z m 76.84125,-9.9732 c 73.3912,-6.4742 144.57229,-28.2486 204.15875,-62.4524 85.574,-49.1212 155.8012,-124.1215 198.0885,-211.5519 23.1866,-47.9392 38.1421,-98.26488 45.4278,-152.86637 C 1238.7436,807.68852 1239,799.98171 1239,761 c 0,-38.98171 -0.2564,-46.68852 -1.9837,-59.63363 C 1229.7306,646.76488 1214.7751,596.4392 1191.5885,548.5 1144.3989,450.93388 1063.0661,369.60108 965.5,322.41152 877.51565,279.85635 779.61511,264.32336 685.78415,278.03153 545.09696,298.58514 423.8344,375.54954 345.51137,494 321.48385,530.33761 303.88421,566.79928 289.82145,609.37441 253.68775,718.76952 257.33604,832.81725 300.46186,942 c 43.71126,110.6649 131.87285,205.2724 240.03814,257.5885 77.40844,37.4399 168.58189,54.9959 248.84125,47.9158 z M 668,1152.3614 c -14.25501,-2.0882 -18.55037,-3.0329 -25.14444,-5.5302 -23.33615,-8.838 -37.98201,-26.7754 -42.31998,-51.8312 -0.53381,-3.0833 -1.5346,-4.0584 -8.4055,-8.1903 C 583.8314,1081.8192 574,1074.4442 574,1073.2094 c 0,-0.4092 2.7,-1.8165 6,-3.1272 3.3,-1.3108 6,-2.5882 6,-2.8388 0,-0.2506 -1.33313,-2.1388 -2.96251,-4.1961 -4.23552,-5.3477 -9.65095,-16.5299 -11.47369,-23.6916 -2.48708,-9.7721 -1.6329,-26.3557 1.35751,-26.3557 0.39912,0 2.87285,3.1425 5.49719,6.9834 5.42705,7.9427 13.41457,15.246 21.87387,20.0001 6.58895,3.7029 22.83447,9.2405 23.94308,8.1615 0.4045,-0.3938 -0.158,-3.0673 -1.25,-5.9412 -2.07394,-5.4581 -2.7665,-17.2038 -1.01439,-17.2038 0.53409,0 6.71045,1.5732 13.72525,3.4959 7.01481,1.9227 13.52778,3.2504 14.47328,2.9503 1.50976,-0.4792 1.34433,-1.0773 -1.35849,-4.9119 -1.69267,-2.4014 -3.63334,-6.5415 -4.3126,-9.2002 l -1.23502,-4.8341 3.61826,-0.6924 c 1.99004,-0.3808 8.68076,-0.7183 14.86826,-0.75 6.1875,-0.032 11.25,-0.1982 11.25,-0.37 0,-0.1718 -1.34762,-4.2992 -2.99471,-9.172 -1.6471,-4.87271 -2.79258,-9.06165 -2.54551,-9.30871 0.24706,-0.24706 5.75718,-1.29297 12.24471,-2.32423 6.48753,-1.03127 12.74091,-2.09348 13.89639,-2.36047 2.71493,-0.62733 7.13248,-8.95461 11.94783,-22.52219 3.62992,-10.22754 3.72816,-10.87625 3.78588,-25 0.0484,-11.84857 -0.33582,-15.96732 -2.10136,-22.52442 -3.7443,-13.9061 -8.06696,-23.28051 -18.12824,-39.31405 l -4.60499,-7.33846 -8.83756,0.58377 c -21.17271,1.3986 -34.9929,8.73966 -38.50188,20.4516 -1.74484,5.82377 -1.40052,17.7771 0.83944,29.14156 4.83996,24.55556 0.74403,40.90658 -12.40614,49.52557 -8.17284,5.3567 -15.05915,6.84599 -28.57006,6.1788 -19.17599,-0.94694 -38.99522,-8.33372 -49.34069,-18.38965 -4.10742,-3.99247 -6.5751,-8.75606 -5.23178,-10.09939 0.30177,-0.30176 0.54867,0.11715 0.54867,0.93091 0,3.23443 7.56336,8.53449 16.63942,11.66015 19.33274,6.65789 44.46711,5.30704 53.80504,-2.89177 5.64436,-4.95581 6.40719,-14.35377 1.99613,-24.59197 -4.3898,-10.18883 -8.56826,-24.62247 -9.50199,-32.82265 -3.05275,-26.80996 9.47539,-48.67676 36.01176,-62.85546 l 8.18959,-4.37578 -2.43219,-1.88438 c -1.3377,-1.03641 -7.55669,-6.18651 -13.81997,-11.44466 -6.26329,-5.25815 -11.92063,-9.87888 -12.57187,-10.26828 -1.68558,-1.00785 -9.14661,2.19349 -9.72336,4.17205 -0.26558,0.91108 -1.64452,7.95651 -3.06432,15.65651 -1.4198,7.7 -2.82169,15.19857 -3.1153,16.66349 l -0.53385,2.66348 -9.97601,-4.11035 -9.97601,-4.11036 -3.71353,3.72666 -3.71354,3.72665 0.1855,15.39138 0.18549,15.39138 -13.02731,-5.40721 c -16.50065,-6.84889 -16.9338,-6.71731 -18.31956,5.56488 -1.3909,12.32774 -2.86158,20.03518 -4.00387,20.98319 -1.20219,0.99773 -6.65675,-1.27084 -12.52025,-5.20721 l -2.5,-1.67834 0.0656,7.70118 c 0.0361,4.23565 -0.50551,9.6905 -1.20351,12.12189 -0.69801,2.4314 -1.1072,4.68268 -0.90932,5.00285 0.328,0.53072 -0.59493,14.6524 -2.03102,31.07644 -1.34746,15.41032 -2.4331,45.7255 -2.6223,73.2242 -0.0822,11.9482 -0.44419,22.201 -0.8044,22.7838 -0.89726,1.4518 -3.99504,0.1269 -3.99504,-1.7086 0,-0.8177 -0.82935,-1.7035 -1.84301,-1.9686 -1.01365,-0.2651 -2.4343,-1.9889 -3.15699,-3.8308 -0.72269,-1.8419 -2.14334,-3.5657 -3.15699,-3.8308 -1.01366,-0.2651 -1.84301,-1.1991 -1.84301,-2.0756 0,-0.8765 -0.45,-1.5936 -1,-1.5936 -0.55,0 -1,-0.7171 -1,-1.5936 0,-0.8765 -0.82935,-1.8105 -1.84301,-2.0756 -1.01365,-0.2651 -2.44764,-2.0229 -3.18664,-3.9064 -0.73901,-1.8834 -1.70965,-3.4244 -2.157,-3.4244 -0.44734,0 -0.81335,-0.52 -0.81335,-1.1556 0,-0.6356 -1.125,-2.6306 -2.5,-4.4333 -1.375,-1.8027 -2.5,-3.7577 -2.5,-4.3444 0,-0.5867 -0.45,-1.0667 -1,-1.0667 -0.55,0 -1,-0.675 -1,-1.5 0,-0.825 -0.39992,-1.5 -0.88871,-1.5 -0.48879,0 -1.17804,-1.5422 -1.53166,-3.4272 -0.35362,-1.88499 -0.9662,-3.57249 -1.36129,-3.75002 C 484.05987,997.30223 481,991.33454 481,989.59571 481,988.71807 480.57039,988 480.04531,988 c -0.52507,0 -1.25016,-1.575 -1.61129,-3.5 -0.36113,-1.925 -1.05652,-3.5 -1.54531,-3.5 -0.48879,0 -0.89148,-0.5625 -0.89487,-1.25 -0.003,-0.6875 -0.62913,-2.444 -1.39054,-3.90333 -0.76142,-1.45933 -1.9329,-4.31533 -2.6033,-6.34667 -0.6704,-2.03134 -1.84188,-4.88734 -2.6033,-6.34667 -0.76141,-1.45933 -1.38715,-3.5179 -1.39054,-4.57459 -0.003,-1.05669 -0.60806,-2.63169 -1.34372,-3.5 -0.73566,-0.86831 -1.90308,-4.27874 -2.59426,-7.57874 -0.69119,-3.3 -1.90416,-7.01937 -2.6955,-8.26527 -0.79133,-1.24589 -1.82389,-4.17089 -2.29456,-6.5 -0.68881,-3.40855 -6.14967,-27.26337 -8.58102,-37.48473 -0.39755,-1.67131 -1.25657,-2.25 -3.33994,-2.25 -4.98603,0 -21.51135,-3.17298 -26.80198,-5.14618 -7.59181,-2.83144 -13.00632,-7.20024 -16.11155,-12.99989 -3.9171,-7.31598 -7.57158,-11.27952 -13.53284,-14.67729 -12.50386,-7.1269 -25.87534,-21.80257 -32.82394,-36.02542 -3.36865,-6.89519 -4.18191,-9.7234 -4.6045,-16.01275 -0.48201,-7.17367 -0.35674,-7.80608 2.05863,-10.39298 1.41453,-1.51498 5.48575,-8.71498 9.04714,-16 25.06631,-51.27444 49.47832,-84.81746 81.44502,-111.90851 5.31677,-4.50585 10.22372,-8.6854 10.90433,-9.2879 0.68061,-0.6025 3.01447,-8.28502 5.18635,-17.07227 5.53191,-22.3816 9.22165,-33.20584 15.84077,-46.47058 4.8671,-9.75367 6.96246,-12.73533 13.84039,-19.69455 4.45774,-4.51043 9.18274,-8.47395 10.5,-8.80782 1.48828,-0.37721 3.38644,-2.38582 5.01373,-5.30545 8.10499,-14.54176 34.12086,-42.82776 51.38129,-55.86478 42.14181,-31.83025 89.19857,-50.08223 149.5,-57.9868 17.20642,-2.25549 23.26382,-2.56669 51.5,-2.64588 17.6,-0.0494 34.59266,0.25576 37.76146,0.67804 l 5.76145,0.76779 -7.9243,5.67661 c -10.36704,7.42648 -26.22193,21.40255 -35.65432,31.42924 C 743.16337,502.55935 726.41671,526 730.33322,526 c 2.62995,0 12.82901,-8.4979 30.66678,-25.5517 40.49183,-38.71221 66.95637,-58.52518 97.70694,-73.14936 19.92478,-9.47572 42.69265,-15.65975 62.41283,-16.95209 l 10.17775,-0.66699 -0.71064,9.91007 c -1.47091,20.51232 -5.86549,45.10843 -11.66371,65.2808 -10.02376,34.87329 -28.46376,70.02593 -48.23661,91.95463 l -4.18656,4.64303 6.42869,-5.4842 c 15.40795,-13.14422 38.31032,-43.08441 58.00484,-75.82954 7.12028,-11.83854 17.99416,-33.27959 20.61811,-40.65465 0.97841,-2.75 2.09581,-5.36876 2.48312,-5.81947 3.45249,-4.01771 140.22354,21.33193 172.21524,31.91899 l 7.75,2.56472 v 7.43693 c 0,7.20034 -0.072,7.42033 -2.25,6.91505 -6.9725,-1.61726 -138.04433,-26.55472 -138.28647,-26.31011 -0.16,0.16164 30.54647,8.60316 68.23667,18.75894 42.0421,11.32841 68.7262,18.98264 69.0415,19.80426 1.3068,3.40554 -10.6809,46.29047 -19.7793,70.75867 -22.2213,59.75886 -51.7997,104.96191 -85.9535,131.35767 -5.1054,3.94572 -9.4616,6.995 -9.6804,6.77617 -0.2188,-0.21883 0.057,-2.36976 0.6124,-4.77984 4.2764,-18.54923 -3.9287,-45.62491 -21.99165,-72.56965 -16.40829,-24.47642 -41.97713,-52.90071 -64.98722,-72.24483 L 922.5,568.635 l 6.09769,6.4325 c 33.06924,34.88498 54.03949,76.29123 62.77821,123.95702 1.35878,7.41151 2.78074,17.75048 3.15992,22.97548 l 0.68941,9.5 7.28727,11.5 c 14.4222,22.75969 22.7206,42.52842 27.6676,65.91129 3.1982,15.11688 3.1534,44.86785 -0.09,59.58871 -2.8541,12.9553 -7.4111,26.88685 -12.2157,37.34562 -4.2413,9.23269 -13.8784,26.48398 -14.4663,25.89608 -0.2061,-0.20609 1.0003,-3.94479 2.6809,-8.30821 18.2647,-47.42148 15.0017,-93.70258 -9.42539,-133.68349 -2.26822,-3.7125 -4.39832,-6.75 -4.73357,-6.75 -0.33524,0 -1.19663,3.11148 -1.91419,6.91441 -1.18845,6.29852 -1.1188,7.65689 0.78192,15.25 3.186,12.72766 7.00173,37.067 7.73443,49.33559 0.78092,13.07604 -0.80316,34.61911 -3.61818,49.20624 -4.69546,24.33132 -16.0808,47.61952 -32.77064,67.03085 -4.78754,5.56822 -6.81381,6.41713 -3.19862,1.34007 5.87436,-8.24978 14.30164,-29.50876 17.57244,-44.32892 4.52808,-20.517 2.06187,-57.79912 -5.24228,-79.24824 l -1.70267,-5 -0.74743,7.5 c -0.41109,4.125 -1.24436,12.45 -1.85173,18.5 -3.48931,34.7574 -14.87342,71.92326 -29.7477,97.11773 -6.08403,10.30529 -20.98343,29.95787 -21.96675,28.97454 -0.29917,-0.29917 -0.0737,-1.11731 0.50102,-1.8181 2.07751,-2.53322 9.15101,-20.86996 12.13302,-31.45261 1.67712,-5.95186 3.7373,-16.43312 4.57817,-23.2917 C 934.16533,925.21115 934.58518,890 933.05576,890 c -0.51933,0 -2.15538,1.04178 -3.63566,2.31507 -2.36318,2.03272 -3.0859,4.25848 -5.92587,18.25 -5.01449,24.70457 -14.34485,47.73891 -26.30274,64.93493 -3.0597,4.4 -9.83872,12.3875 -15.06448,17.75 -9.35216,9.5969 -13.09959,12.4002 -9.35762,7 12.6088,-18.19615 20.17665,-43.039 21.78249,-71.50499 l 0.71954,-12.75499 -5.38571,2.40828 c -2.96214,1.32456 -7.83558,3.55542 -10.82986,4.95748 l -5.44414,2.5492 -3.59942,9.79751 C 860.98938,960.26259 845.90695,980.69298 828,992.61156 823.54326,995.5779 807.72787,1003 805.86379,1003 c -0.53219,0 1.76306,-2.2725 5.10055,-5.04999 10.45006,-8.69662 17.47804,-18.60559 23.12399,-32.60319 3.33854,-8.277 7.84919,-27.74263 6.69589,-28.89593 -0.25673,-0.25673 -4.69876,0.40124 -9.87118,1.46215 -5.17242,1.06092 -9.45779,1.85199 -9.52306,1.75795 -0.0653,-0.094 -1.19143,-3.32099 -2.50261,-7.17099 -2.10733,-6.18774 -2.37827,-8.74055 -2.33496,-22 0.0442,-13.52308 0.31226,-15.78769 2.72276,-23 7.78155,-23.28267 26.67387,-47.77681 49.12568,-63.69213 8.10833,-5.74771 6.11793,-5.57375 -6.90085,0.60313 -37.09638,17.60073 -63.95995,66.92831 -74.64089,137.0575 -3.98615,26.17242 -3.61775,65.5793 0.77519,82.9186 0.82033,3.2379 1.1257,6.1947 0.6786,6.5706 -0.44709,0.376 -3.9629,3.095 -7.8129,6.0423 -3.85,2.9473 -7.45,5.7725 -8,6.2781 -0.61043,0.5612 4.25926,0.7391 12.5,0.4565 10.41188,-0.357 14.85112,-0.9515 19.40655,-2.5988 3.2486,-1.1747 6.3986,-2.1304 7,-2.1238 1.59957,0.018 -7.09437,4.8616 -12.90655,7.1911 -6.54894,2.6248 -24.16326,5.7969 -32.18929,5.7969 -5.17105,0 -7.13607,0.4982 -10.58058,2.6825 -2.32657,1.4753 -10.07022,5.7251 -17.2081,9.4439 -7.65829,3.9899 -12.37215,6.9781 -11.5,7.2901 5.12763,1.8341 25.27042,6.784 31.29059,7.6893 3.95306,0.5944 15.28738,1.3763 25.18738,1.7375 l 18,0.6567 -13.5,2.1919 c -26.38271,4.2834 -49.91652,3.6456 -74.8271,-2.028 -10.24668,-2.3338 -10.38516,-2.3383 -17.78225,-0.5759 -4.10034,0.9769 -9.91564,2.0836 -12.9229,2.4593 -3.00726,0.3757 -5.46775,1.0487 -5.46775,1.4956 0,1.5744 14.41929,7.9008 26.5,11.6269 9.56152,2.949 28.80967,4.1321 40.46836,2.4872 4.10759,-0.5795 7.62352,-0.8985 7.81316,-0.7088 0.90293,0.9029 -19.2623,6.5811 -26.78152,7.5413 -13.5535,1.7306 -13.73448,1.7371 -24.07924,0.8623 -20.13944,-1.7029 -40.63744,-8.5725 -57.20732,-19.1721 -3.16196,-2.0227 -7.56758,-4.0862 -9.79025,-4.5856 l -4.04123,-0.908 0.63409,3.1569 c 1.27693,6.3575 5.83056,13.9843 11.86955,19.88 17.25205,16.8429 52.68444,24.2216 74.1144,15.4342 l 4,-1.6402 -3,2.4867 c -9.37547,7.771 -33.87941,13.1459 -49.5,10.8577 z m -54.23834,-85.0485 c -0.95609,-0.2503 -2.75609,-0.2594 -4,-0.02 -1.24391,0.2392 -0.46166,0.444 1.73834,0.4551 2.2,0.011 3.21775,-0.1846 2.26166,-0.4349 z M 632,1065.9731 c 32.83242,-5.1107 56.80574,-15.969 75.86805,-34.3633 15.18546,-14.6532 24.00827,-29.8421 29.68831,-51.1098 2.33955,-8.75993 2.67433,-11.92211 2.6997,-25.5 0.0322,-17.23304 -1.56081,-26.14989 -7.50336,-42 -3.43105,-9.15136 -10.93537,-23.56024 -13.54111,-26 -1.42405,-1.33333 -1.48284,-1.33333 -0.52911,0 2.06368,2.88506 8.55653,18.56913 10.97041,26.5 4.01368,13.18708 5.34797,22.204 5.32713,36 -0.0238,15.75831 -1.17572,24.44718 -4.64008,35 -9.67039,29.457 -28.48288,50.6127 -57.83994,65.0443 -12.83696,6.3105 -28.4689,11.5606 -42.81482,14.3796 -5.60185,1.1008 -11.08518,2.191 -12.18518,2.4228 -4.30197,0.9063 8.3762,0.5796 14.5,-0.3736 z M 743.11321,885.05583 C 731.07028,853.36141 692.28334,816.99612 646.5,794.47463 c -13.43433,-6.60854 -33.99831,-14.50816 -37.62665,-14.45421 -0.75534,0.0112 2.67665,1.95691 7.62665,4.32374 12.97235,6.20268 28.75459,15.44407 46.5,27.22834 34.66156,23.01787 61.47558,47.8924 76.18828,70.6775 2.75237,4.2625 5.18414,7.75 5.40393,7.75 0.2198,0 -0.44575,-2.22488 -1.479,-4.94417 z M 490.5,867.91743 c 20.09258,-2.35651 39.90166,-9.76991 56.9998,-21.33173 19.41904,-13.13123 33.80287,-32.54403 40.8155,-55.0857 4.64597,-14.93418 5.36433,-32.80949 1.74814,-43.5 -8.7877,-25.97904 -32.17944,-41.57844 -69.72925,-46.50079 -13.88877,-1.82066 -23.77468,-1.89543 -35.76647,-0.27051 l -9.06772,1.2287 12,0.70005 c 12.45409,0.72654 31.19232,3.20154 32.25052,4.25974 1.16534,1.16533 -2.79127,11.33596 -6.87966,17.68451 -5.17091,8.02949 -21.33956,24.18459 -29.73481,29.70989 -8.55469,5.63023 -6.42209,5.34628 2.8689,-0.382 10.57341,-6.51894 19.28476,-13.82231 26.49314,-22.21116 C 518.78191,724.90554 525,714.63991 525,711.57864 c 0,-2.78968 2.47045,-2.80587 10.62166,-0.0696 11.34302,3.80772 22.36488,9.85276 28.81638,15.80461 l 5.62175,5.18635 -1.14061,3.98074 c -5.62724,19.63911 -53.9265,54.10399 -100.41918,71.65608 -2.75,1.03819 -3.65,1.62323 -2,1.30009 4.30749,-0.8436 22.2756,-7.94383 34.34539,-13.57184 31.8068,-14.83115 60.81658,-36.11831 70.80059,-51.95293 l 3.31009,-5.24979 2.49502,5.44985 c 3.33528,7.28522 4.54997,16.5753 3.45578,26.43028 -1.9981,17.9962 -4.5915,23.28454 -15.27652,31.15116 -21.26655,15.65703 -56.62946,29.65907 -90.13035,35.68734 -5.08502,0.91501 -6.72398,1.47224 -4.49802,1.52928 4.59973,0.11787 21.04958,-3.04787 35.57559,-6.84644 21.45504,-5.61053 44.44888,-14.95761 57.20223,-23.25292 3.45388,-2.24655 6.44661,-3.91055 6.65049,-3.69777 0.82898,0.86513 -9.49391,15.42615 -14.9209,21.04679 C 528.82171,853.79986 484.90141,868.10323 440,863.77745 l -7.5,-0.72254 7,2.05564 c 14.85997,4.36382 30.42207,5.22031 51,2.80688 z m -73.05345,-6.99861 c -3.79735,-11.0515 -8.29063,-30.11859 -9.03599,-38.34386 -0.90196,-9.95354 0.37487,-12.24356 15.84445,-28.41734 14.91426,-15.59317 20.78588,-23.43851 25.0267,-33.43933 2.64557,-6.23885 3.12294,-8.75447 3.51816,-18.53972 0.30879,-7.64515 0.0908,-11.6879 -0.6713,-12.45 C 451.29048,728.89048 451,729.52168 451,732.18094 c 0,4.52622 -4.14952,15.64491 -8.53656,22.87382 -12.67762,20.89002 -45.23919,38.90806 -76.26422,42.20104 -1.93037,0.20489 0.51372,3.03998 15.18175,17.61048 14.9843,14.88466 17.57374,17.90617 18.12084,21.14444 0.88292,5.22594 5.84904,15.41642 10.71602,21.98928 4.58354,6.19007 8.97554,11.13996 9.45711,10.65839 0.17642,-0.17641 -0.82636,-3.65922 -2.22839,-7.73957 z M 465.25,839.29427 c -1.2375,-0.23836 -3.2625,-0.23836 -4.5,0 -1.2375,0.23835 -0.225,0.43337 2.25,0.43337 2.475,0 3.4875,-0.19502 2.25,-0.43337 z M 784.02264,814.9926 c 27.11844,-8.86189 47.20839,-24.69734 57.33198,-45.19064 6.8296,-13.82523 8.12173,-19.67461 8.12957,-36.80196 0.009,-19.32635 -2.73258,-30.63038 -11.78995,-48.61475 -3.40289,-6.75681 -14.5272,-22.54595 -16.93198,-24.03218 -0.61882,-0.38245 0.0386,0.84415 1.46099,2.72578 8.14493,10.77484 17.56138,33.35795 20.2005,48.4461 8.32654,47.60372 -12.91948,82.54523 -62.64614,103.02872 -10.2549,4.22422 -8.03941,4.4533 4.24503,0.43893 z m -33.22259,-12.45054 c 9.6298,-2.02569 19.70144,-5.96148 26.19995,-10.2384 21.80531,-14.35092 31.00592,-30.0436 30.99619,-52.86755 -0.005,-11.86298 -1.75097,-22.01327 -7.81533,-45.43611 -6.38576,-24.66423 -7.38545,-30.38097 -7.25715,-41.5 0.17791,-15.41932 3.32432,-23.04223 13.16141,-31.88662 6.34246,-5.70242 19.95735,-12.39989 32.41488,-15.94561 7.7311,-2.20046 30.48129,-6.73763 40,-7.97738 1.65,-0.2149 0.51156,-0.45815 -2.52986,-0.54056 -7.73924,-0.20969 -28.855,2.49284 -38.87829,4.97591 C 801.41436,609.9641 786,625.91466 786,653.99487 c 0,11.32224 1.18849,18.18211 8.09265,46.71027 5.709,23.58973 7.36726,40.95859 4.9062,51.38812 -3.18909,13.51482 -11.57844,24.33706 -26.49885,34.18347 -10.44741,6.89455 -20.46171,9.9408 -34.50769,10.4969 -21.28422,0.84266 -33.58029,-2.34455 -77.79175,-20.16411 -31.86322,-12.84256 -38.02193,-15.12149 -38.78986,-14.35356 -0.25041,0.25041 1.69224,1.26721 4.31701,2.25955 2.62476,0.99234 14.67229,6.50172 26.77229,12.24307 35.45276,16.82203 48.75533,21.94046 65.5,25.20241 11.73345,2.28573 23.68946,2.49754 32.80005,0.58107 z M 643,729.98337 c 15.27758,-4.31831 29.33935,-12.93391 44.59521,-27.32333 l 8.84499,-8.34265 -0.1014,-5.40869 C 696.283,685.93391 694.55452,675.4 692.49766,665.5 c -2.90351,-13.9751 -3.88089,-21.35408 -4.37098,-33 -0.601,-14.28164 -0.66545,-14.64046 -1.3457,-7.49256 -0.89418,9.39583 0.40824,25.0988 3.68592,44.44025 3.8648,22.80602 3.99307,22.04506 -5.05047,29.9638 -15.5565,13.62163 -28.89385,21.0857 -43.95095,24.59656 -16.6247,3.87637 -32.59297,1.88919 -46.45212,-5.78076 C 588.98561,714.8914 579,706.64797 579,705.00776 c 0,-0.3952 2.88633,-0.98808 6.41407,-1.31751 14.02745,-1.3099 32.98812,-12.46272 45.68633,-26.87305 10.9093,-12.38024 13.83698,-20.03845 15.87447,-41.5245 1.40087,-14.77267 1.33201,-21.29302 -0.22487,-21.29141 -2.71889,0.003 -21.64726,5.02097 -28.25,7.48944 -17.85664,6.67579 -33.90718,17.11061 -47.82758,31.0938 -9.56435,9.60748 -20.67776,24.98207 -20.66265,28.58527 0.0253,6.03773 8.1507,17.46703 13.67452,19.23479 0.99864,0.31958 3.07893,2.58464 4.62287,5.03344 6.86906,10.89488 21.22013,20.63583 37.19284,25.24507 6.8226,1.9688 9.61893,2.24319 19,1.86438 6.93845,-0.28018 13.76924,-1.22693 18.5,-2.56411 z M 530.13944,671.558 c 12.56741,-2.66375 15.86339,-4.72948 24.79784,-15.54184 13.88324,-16.8013 29.95785,-29.42427 49.24197,-38.66843 9.2758,-4.44652 26.75433,-9.94919 36.43719,-11.47133 l 8.11644,-1.2759 0.64589,-9.18849 c 1.30173,-18.51869 6.54208,-32.48404 15.55419,-41.45142 10.50019,-10.44807 24.30175,-14.53173 46.49363,-13.75674 l 13.07341,0.45656 -7,-1.89136 c -9.22672,-2.493 -29.15869,-3.42114 -39.08427,-1.81997 -16.5707,2.67314 -30.96382,9.47896 -52.06533,24.61921 -1.92082,1.37818 -1.67247,0.17948 2.33349,-11.26298 4.4474,-12.70336 12.35939,-41.77616 12.26906,-45.08294 -0.0259,-0.9473 -1.56228,3.45263 -3.41421,9.77763 -4.19229,14.31809 -8.78732,27.13956 -15.05222,42 -5.23881,12.42658 -3.1693,9.84713 -31.69125,39.5 l -2.88558,3 4.06409,-11.38596 C 596.26895,576.08065 603.3931,549.57571 604.36856,542 c 0.56516,-4.38918 0.54236,-4.36456 -0.92579,1 -6.78922,24.80766 -14.57913,46.31242 -22.56564,62.29457 -8.23278,16.47496 -41.55207,54.49714 -52.37713,59.76996 -6.64861,3.2385 -14.76981,3.30366 -19.1931,0.15401 -3.60405,-2.56632 -4.3069,-2.71411 -4.3069,-0.90563 0,2.30202 5.40586,6.59129 9.52147,7.55478 5.67233,1.32794 8.12078,1.27939 15.61797,-0.30969 z m 158.54367,-57.7455 c -0.31922,-0.79773 -0.55618,-0.56078 -0.60416,0.60417 -0.0434,1.05416 0.19293,1.64479 0.52522,1.3125 0.33229,-0.33229 0.36781,-1.1948 0.0789,-1.91667 z m 200.07855,-18.49958 c -0.95609,-0.25029 -2.75609,-0.25937 -4,-0.0202 -1.24391,0.23919 -0.46166,0.44398 1.73834,0.45508 2.2,0.0111 3.21775,-0.18461 2.26166,-0.4349 z m -49.19108,-34.40668 c 15.31299,-6.37481 32.64821,-20.07901 43.52241,-34.40624 7.27589,-9.58629 6.86885,-9.51852 -3.14396,0.52345 -10.76113,10.79247 -21.30904,18.40437 -33.22157,23.97435 -8.66143,4.04985 -24.04426,8.47835 -26.36156,7.58911 -2.11967,-0.81339 -1.74711,-15.89666 0.65951,-26.701 8.53319,-38.30901 37.43531,-78.89888 67.48602,-94.77676 7.01734,-3.70774 3.67006,-3.16234 -5.01143,0.81656 C 850.79731,452.914 821.42696,492.10234 812.99447,532 c -2.55011,12.06564 -2.37139,24.69023 0.44773,31.62808 l 1.6774,4.12809 8.60308,-1.91695 c 4.7317,-1.05433 11.86326,-3.27417 15.8479,-4.93298 z M 605.68311,534.8125 c -0.31922,-0.79773 -0.55618,-0.56078 -0.60416,0.60417 -0.0434,1.05416 0.19293,1.64479 0.52522,1.3125 0.33229,-0.33229 0.36781,-1.1948 0.0789,-1.91667 z m 36,-34 c -0.31922,-0.79773 -0.55618,-0.56078 -0.60416,0.60417 -0.0434,1.05416 0.19293,1.64479 0.52522,1.3125 0.33229,-0.33229 0.36781,-1.1948 0.0789,-1.91667 z"
         id="path20" />
      <path
         style="fill:#3075c1"
         d="m 718.5,1237.4775 c -61.78296,-5.6745 -120.2224,-21.5161 -173,-46.8966 -55.7877,-26.8279 -112.31333,-70.3981 -153,-117.9328 C 356.20394,1030.2429 329.08377,986.0571 310.47009,939 291.86516,891.96504 281.04249,845.88344 276.49569,794.34125 269.81537,718.61366 287.38615,628.429 323.41905,553.5 345.1207,508.37228 378.95603,461.04445 416.00024,424.00024 453.04445,386.95603 500.37228,353.1207 545.5,331.41905 c 74.929,-36.0329 165.11366,-53.60368 240.84125,-46.92336 51.54219,4.5468 97.62379,15.36947 144.65875,33.9744 47.0571,18.61368 91.2429,45.73385 133.6481,82.02991 47.5347,40.68667 91.1049,97.2123 117.9328,153 22.2994,46.37068 37.2778,97.22497 44.4354,150.86637 C 1228.7256,717.1764 1229,725.01006 1229,761 c 0,35.98994 -0.2744,43.8236 -1.9837,56.63363 -7.1576,53.6414 -22.136,104.49569 -44.4354,150.86637 -26.8279,55.7877 -70.3981,112.3133 -117.9328,153 -50.808,43.4883 -101.71235,72.4275 -163.02251,92.6785 -59.74199,19.7331 -127.74642,28.3852 -183.12559,23.299 z m -24.43527,-86.587 c 10.88386,-2.2198 18.43991,-5.2463 23.43527,-9.3868 l 3,-2.4867 -4,1.6402 c -21.42996,8.7874 -56.86235,1.4087 -74.1144,-15.4342 -6.03899,-5.8957 -10.59262,-13.5225 -11.86955,-19.88 l -0.63409,-3.1569 4.04123,0.908 c 2.22267,0.4994 6.62829,2.5629 9.79025,4.5856 16.56988,10.5996 37.06788,17.4692 57.20732,19.1721 10.34476,0.8748 10.52574,0.8683 24.07924,-0.8623 7.51922,-0.9602 27.68445,-6.6384 26.78152,-7.5413 -0.18964,-0.1897 -3.70557,0.1293 -7.81316,0.7088 -11.65869,1.6449 -30.90684,0.4618 -40.46836,-2.4872 -12.08071,-3.7261 -26.5,-10.0525 -26.5,-11.6269 0,-0.4469 2.46049,-1.1199 5.46775,-1.4956 3.00726,-0.3757 8.82256,-1.4824 12.9229,-2.4593 7.39709,-1.7624 7.53557,-1.7579 17.78225,0.5759 24.91058,5.6736 48.44439,6.3114 74.8271,2.028 l 13.5,-2.1919 -18,-0.6567 c -9.9,-0.3612 -21.23432,-1.1431 -25.18738,-1.7375 -6.02017,-0.9053 -26.16296,-5.8552 -31.29059,-7.6893 -0.87215,-0.312 3.84171,-3.3002 11.5,-7.2901 7.13788,-3.7188 14.88153,-7.9686 17.2081,-9.4439 3.44451,-2.1843 5.40953,-2.6825 10.58058,-2.6825 8.02603,0 25.64035,-3.1721 32.18929,-5.7969 5.81218,-2.3295 14.50612,-7.1734 12.90655,-7.1911 -0.6014,-0.01 -3.7514,0.9491 -7,2.1238 -4.55543,1.6473 -8.99467,2.2418 -19.40655,2.5988 -8.24074,0.2826 -13.11043,0.1047 -12.5,-0.4565 0.55,-0.5056 4.15,-3.3308 8,-6.2781 3.85,-2.9473 7.36581,-5.6663 7.8129,-6.0423 0.4471,-0.3759 0.14173,-3.3327 -0.6786,-6.5706 -4.39294,-17.3393 -4.76134,-56.74618 -0.77519,-82.9186 10.68094,-70.12919 37.54451,-119.45677 74.64089,-137.0575 13.01878,-6.17688 15.00918,-6.35084 6.90085,-0.60313 -22.45181,15.91532 -41.34413,40.40946 -49.12568,63.69213 -2.4105,7.21231 -2.67859,9.47692 -2.72276,23 -0.0433,13.25945 0.22763,15.81226 2.33496,22 1.31118,3.85 2.43735,7.07694 2.50261,7.17099 0.0653,0.094 4.35064,-0.69703 9.52306,-1.75795 5.17242,-1.06091 9.61445,-1.71888 9.87118,-1.46215 1.1533,1.1533 -3.35735,20.61893 -6.69589,28.89593 -5.64595,13.9976 -12.67393,23.90657 -23.12399,32.60319 -3.33749,2.77749 -5.63274,5.04999 -5.10055,5.04999 1.86408,0 17.67947,-7.4221 22.13621,-10.38844 17.90695,-11.91858 32.98938,-32.34897 42.01229,-56.90907 l 3.59942,-9.79751 5.44414,-2.5492 c 2.99428,-1.40206 7.86772,-3.63292 10.82986,-4.95748 l 5.38571,-2.40828 -0.71954,12.75499 c -1.60584,28.46599 -9.17369,53.30884 -21.78249,71.50499 -3.74197,5.4002 0.005,2.5969 9.35762,-7 5.22576,-5.3625 12.00478,-13.35 15.06448,-17.75 11.95789,-17.19602 21.28825,-40.23036 26.30274,-64.93493 2.83997,-13.99152 3.56269,-16.21728 5.92587,-18.25 1.48028,-1.27329 3.11633,-2.31507 3.63566,-2.31507 1.52942,0 1.10957,35.21115 -0.58461,49.02986 -0.84087,6.85858 -2.90105,17.33984 -4.57817,23.2917 -2.98201,10.58265 -10.05551,28.91939 -12.13302,31.45261 -0.57473,0.70079 -0.80019,1.51893 -0.50102,1.8181 0.98332,0.98333 15.88272,-18.66925 21.96675,-28.97454 14.87428,-25.19447 26.25839,-62.36033 29.7477,-97.11773 0.60737,-6.05 1.44064,-14.375 1.85173,-18.5 l 0.74743,-7.5 1.70267,5 c 7.30415,21.44912 9.77036,58.73124 5.24228,79.24824 -3.2708,14.82016 -11.69808,36.07914 -17.57244,44.32892 -3.61519,5.07706 -1.58892,4.22815 3.19862,-1.34007 16.68984,-19.41133 28.07518,-42.69953 32.77064,-67.03085 2.81502,-14.58713 4.3991,-36.1302 3.61818,-49.20624 -0.7327,-12.26859 -4.54843,-36.60793 -7.73443,-49.33559 -1.90072,-7.59311 -1.97037,-8.95148 -0.78192,-15.25 0.71756,-3.80293 1.57895,-6.91441 1.91419,-6.91441 0.33525,0 2.46535,3.0375 4.73357,6.75 24.42709,39.98091 27.69009,86.26201 9.42539,133.68349 -1.6806,4.36342 -2.887,8.10212 -2.6809,8.30821 0.5879,0.5879 10.225,-16.66339 14.4663,-25.89608 4.8046,-10.45877 9.3616,-24.39032 12.2157,-37.34562 3.2431,-14.72086 3.2879,-44.47183 0.09,-59.58871 -4.947,-23.38287 -13.2454,-43.1516 -27.6676,-65.91129 l -7.28727,-11.5 -0.68941,-9.5 c -0.37918,-5.225 -1.80114,-15.56397 -3.15992,-22.97548 -8.73872,-47.66579 -29.70897,-89.07204 -62.77821,-123.95702 L 922.5,568.635 l 6.46203,5.4325 c 23.01009,19.34412 48.57893,47.76841 64.98722,72.24483 18.06295,26.94474 26.26805,54.02042 21.99165,72.56965 -0.5557,2.41008 -0.8312,4.56101 -0.6124,4.77984 0.2188,0.21883 4.575,-2.83045 9.6804,-6.77617 34.1538,-26.39576 63.7322,-71.59881 85.9535,-131.35767 9.0984,-24.4682 21.0861,-67.35313 19.7793,-70.75867 -0.3153,-0.82162 -26.9994,-8.47585 -69.0415,-19.80426 -37.6902,-10.15578 -68.39667,-18.5973 -68.23667,-18.75894 0.24214,-0.24461 131.31397,24.69285 138.28647,26.31011 2.1784,0.50528 2.25,0.28529 2.25,-6.91505 v -7.43693 l -7.75,-2.56472 c -31.9917,-10.58706 -168.76275,-35.9367 -172.21524,-31.91899 -0.38731,0.45071 -1.50471,3.06947 -2.48312,5.81947 -2.62395,7.37506 -13.49783,28.81611 -20.61811,40.65465 -19.69452,32.74513 -42.59689,62.68532 -58.00484,75.82954 l -6.42869,5.4842 4.18656,-4.64303 c 19.77285,-21.9287 38.21285,-57.08134 48.23661,-91.95463 5.79822,-20.17237 10.1928,-44.76848 11.66371,-65.2808 l 0.71064,-9.91007 -10.17775,0.66699 c -19.72018,1.29234 -42.48805,7.47637 -62.41283,16.95209 C 827.95637,441.92312 801.49183,461.73609 761,500.4483 743.16223,517.5021 732.96317,526 730.33322,526 c -3.91651,0 12.83015,-23.44065 29.11107,-40.74737 9.43239,-10.02669 25.28728,-24.00276 35.65432,-31.42924 l 7.9243,-5.67661 -5.76145,-0.76779 C 794.09266,446.95671 777.1,446.6516 759.5,446.70095 c -28.23618,0.0792 -34.29358,0.39039 -51.5,2.64588 -60.30143,7.90457 -107.35819,26.15655 -149.5,57.9868 -17.26043,13.03702 -43.2763,41.32302 -51.38129,55.86478 -1.62729,2.91963 -3.52545,4.92824 -5.01373,5.30545 -1.31726,0.33387 -6.04226,4.29739 -10.5,8.80782 -13.07777,13.23234 -20.91777,30.70926 -29.68116,66.16513 -2.17188,8.78725 -4.50574,16.46977 -5.18635,17.07227 -0.68061,0.6025 -5.58756,4.78205 -10.90433,9.2879 -31.9667,27.09105 -56.37871,60.63407 -81.44502,111.90851 -3.56139,7.28502 -7.63261,14.48502 -9.04714,16 -2.41537,2.5869 -2.54064,3.21931 -2.05863,10.39298 0.42259,6.28935 1.23585,9.11756 4.6045,16.01275 6.9486,14.22285 20.32008,28.89852 32.82394,36.02542 5.96126,3.39777 9.61574,7.36131 13.53284,14.67729 3.10523,5.79965 8.51974,10.16845 16.11155,12.99989 5.29063,1.9732 21.81595,5.14618 26.80198,5.14618 2.08337,0 2.94239,0.57869 3.33994,2.25 2.43135,10.22136 7.89221,34.07618 8.58102,37.48473 0.47067,2.32911 1.50323,5.25411 2.29456,6.5 0.79134,1.2459 2.00431,4.96527 2.6955,8.26527 0.69118,3.3 1.8586,6.71043 2.59426,7.57874 0.73566,0.86831 1.34033,2.44331 1.34372,3.5 0.003,1.05669 0.62913,3.11526 1.39054,4.57459 0.76142,1.45933 1.9329,4.31533 2.6033,6.34667 0.6704,2.03134 1.84188,4.88734 2.6033,6.34667 0.76141,1.45933 1.38715,3.21583 1.39054,3.90333 0.003,0.6875 0.40608,1.25 0.89487,1.25 0.48879,0 1.18418,1.575 1.54531,3.5 0.36113,1.925 1.08622,3.5 1.61129,3.5 0.52508,0 0.95469,0.71807 0.95469,1.59571 0,1.73883 3.05987,7.70652 4.21834,8.22707 0.39509,0.17753 1.00767,1.86503 1.36129,3.75002 0.35362,1.885 1.04287,3.4272 1.53166,3.4272 0.48879,0 0.88871,0.675 0.88871,1.5 0,0.825 0.45,1.5 1,1.5 0.55,0 1,0.48 1,1.0667 0,0.5867 1.125,2.5417 2.5,4.3444 1.375,1.8027 2.5,3.7977 2.5,4.4333 0,0.6356 0.36601,1.1556 0.81335,1.1556 0.44735,0 1.41799,1.541 2.157,3.4244 0.739,1.8835 2.17299,3.6413 3.18664,3.9064 1.01366,0.2651 1.84301,1.1991 1.84301,2.0756 0,0.8765 0.45,1.5936 1,1.5936 0.55,0 1,0.7171 1,1.5936 0,0.8765 0.82935,1.8105 1.84301,2.0756 1.01365,0.2651 2.4343,1.9889 3.15699,3.8308 0.72269,1.8419 2.14334,3.5657 3.15699,3.8308 1.01366,0.2651 1.84301,1.1509 1.84301,1.9686 0,1.8355 3.09778,3.1604 3.99504,1.7086 0.36021,-0.5828 0.72219,-10.8356 0.8044,-22.7838 0.1892,-27.4987 1.27484,-57.81388 2.6223,-73.2242 1.43609,-16.42404 2.35902,-30.54572 2.03102,-31.07644 -0.19788,-0.32017 0.21131,-2.57145 0.90932,-5.00285 0.698,-2.43139 1.23958,-7.88624 1.20351,-12.12189 l -0.0656,-7.70118 2.5,1.67834 c 5.8635,3.93637 11.31806,6.20494 12.52025,5.20721 1.14229,-0.94801 2.61297,-8.65545 4.00387,-20.98319 1.38576,-12.28219 1.81891,-12.41377 18.31956,-5.56488 l 13.02731,5.40721 -0.18549,-15.39138 -0.1855,-15.39138 3.71354,-3.72665 3.71353,-3.72666 9.97601,4.11036 9.97601,4.11035 0.53385,-2.66348 c 0.29361,-1.46492 1.6955,-8.96349 3.1153,-16.66349 1.4198,-7.7 2.79874,-14.74543 3.06432,-15.65651 0.57675,-1.97856 8.03778,-5.1799 9.72336,-4.17205 0.65124,0.3894 6.30858,5.01013 12.57187,10.26828 6.26328,5.25815 12.48227,10.40825 13.81997,11.44466 l 2.43219,1.88438 -8.18959,4.37578 c -26.53637,14.1787 -39.06451,36.0455 -36.01176,62.85546 0.93373,8.20018 5.11219,22.63382 9.50199,32.82265 4.41106,10.2382 3.64823,19.63616 -1.99613,24.59197 -9.33793,8.19881 -34.4723,9.54966 -53.80504,2.89177 C 550.56336,957.68073 543,952.38067 543,949.14624 c 0,-0.81376 -0.2469,-1.23267 -0.54867,-0.93091 -1.34332,1.34333 1.12436,6.10692 5.23178,10.09939 10.34547,10.05593 30.1647,17.44271 49.34069,18.38965 13.51091,0.66719 20.39722,-0.8221 28.57006,-6.1788 C 638.74403,961.90658 642.83996,945.55556 638,921 c -2.23996,-11.36446 -2.58428,-23.31779 -0.83944,-29.14156 3.50898,-11.71194 17.32917,-19.053 38.50188,-20.4516 l 8.83756,-0.58377 4.60499,7.33846 c 10.06128,16.03354 14.38394,25.40795 18.12824,39.31405 1.76554,6.5571 2.14978,10.67585 2.10136,22.52442 -0.0577,14.12375 -0.15596,14.77246 -3.78588,25 -4.81535,13.56758 -9.2329,21.89486 -11.94783,22.52219 -1.15548,0.26699 -7.40886,1.3292 -13.89639,2.36047 -6.48753,1.03126 -11.99765,2.07717 -12.24471,2.32423 -0.24707,0.24706 0.89841,4.436 2.54551,9.30871 1.64709,4.8728 2.99471,9.0002 2.99471,9.172 0,0.1718 -5.0625,0.3383 -11.25,0.37 -6.1875,0.032 -12.87822,0.3692 -14.86826,0.75 l -3.61826,0.6924 1.23502,4.8341 c 0.67926,2.6587 2.61993,6.7988 4.3126,9.2002 2.70282,3.8346 2.86825,4.4327 1.35849,4.9119 -0.9455,0.3001 -7.45847,-1.0276 -14.47328,-2.9503 -7.0148,-1.9227 -13.19116,-3.4959 -13.72525,-3.4959 -1.75211,0 -1.05955,11.7457 1.01439,17.2038 1.092,2.8739 1.6545,5.5474 1.25,5.9412 -1.10861,1.079 -17.35413,-4.4586 -23.94308,-8.1615 -8.4593,-4.7541 -16.44682,-12.0574 -21.87387,-20.0001 -2.62434,-3.8409 -5.09807,-6.9834 -5.49719,-6.9834 -2.99041,0 -3.84459,16.5836 -1.35751,26.3557 1.82274,7.1617 7.23817,18.3439 11.47369,23.6916 1.62938,2.0573 2.96251,3.9455 2.96251,4.1961 0,0.2506 -2.7,1.528 -6,2.8388 -3.3,1.3107 -6,2.718 -6,3.1272 0,1.2348 9.8314,8.6098 18.13008,13.6003 6.8709,4.1319 7.87169,5.107 8.4055,8.1903 4.33797,25.0558 18.98383,42.9932 42.31998,51.8312 6.59407,2.4973 10.88943,3.442 25.14444,5.5302 6.78834,0.9944 16.72686,0.4336 26.06473,-1.4709 z m -84.30307,-83.5978 c 1.24391,-0.2392 3.04391,-0.2301 4,0.02 0.95609,0.2503 -0.0617,0.446 -2.26166,0.4349 -2.2,-0.011 -2.98225,-0.2159 -1.73834,-0.4551 z m 7.73834,-0.946 c 1.1,-0.2318 6.58333,-1.322 12.18518,-2.4228 44.53907,-8.7521 78.53018,-31.6855 94.15179,-63.5231 8.38588,-17.0908 11.11078,-29.538 11.14305,-50.9008 0.0208,-13.796 -1.31345,-22.81292 -5.32713,-36 -2.41388,-7.93087 -8.90673,-23.61494 -10.97041,-26.5 -0.95373,-1.33333 -0.89494,-1.33333 0.52911,0 2.60574,2.43976 10.11006,16.84864 13.54111,26 5.94255,15.85011 7.53556,24.76696 7.50336,42 -0.0254,13.57789 -0.36015,16.74007 -2.6997,25.5 -5.68004,21.2677 -14.50285,36.4566 -29.68831,51.1098 -19.06231,18.3943 -43.03563,29.2526 -75.86805,34.3633 -6.1238,0.9532 -18.80197,1.2799 -14.5,0.3736 z M 739.18828,882.25 C 724.47558,859.4649 697.66156,834.59037 663,811.5725 c -17.74541,-11.78427 -33.52765,-21.02566 -46.5,-27.22834 -4.95,-2.36683 -8.38199,-4.31251 -7.62665,-4.32374 3.62834,-0.0539 24.19232,7.84567 37.62665,14.45421 40.34905,19.84828 74.57172,49.58248 91.11519,79.16497 3.48268,6.22761 7.80389,16.3604 6.97702,16.3604 -0.21979,0 -2.65156,-3.4875 -5.40393,-7.75 z M 457,868.4918 c -5.775,-0.72909 -13.65,-2.25065 -17.5,-3.38125 l -7,-2.05564 7.5,0.72254 c 44.90141,4.32578 88.82171,-9.97759 115.50939,-37.61753 5.42699,-5.62064 15.74988,-20.18166 14.9209,-21.04679 -0.20388,-0.21278 -3.19661,1.45122 -6.65049,3.69777 -12.75335,8.29531 -35.74719,17.64239 -57.20223,23.25292 -14.52601,3.79857 -30.97586,6.96431 -35.57559,6.84644 -2.22596,-0.057 -0.587,-0.61427 4.49802,-1.52928 33.50089,-6.02827 68.8638,-20.03031 90.13035,-35.68734 10.68502,-7.86662 13.27842,-13.15496 15.27652,-31.15116 1.09419,-9.85498 -0.1205,-19.14506 -3.45578,-26.43028 l -2.49502,-5.44985 -3.31009,5.24979 c -9.98401,15.83462 -38.99379,37.12178 -70.80059,51.95293 -12.06979,5.62801 -30.0379,12.72824 -34.34539,13.57184 -1.65,0.32314 -0.75,-0.2619 2,-1.30009 46.49268,-17.55209 94.79194,-52.01697 100.41918,-71.65608 l 1.14061,-3.98074 -5.62175,-5.18635 C 557.98654,721.3618 546.96468,715.31676 535.62166,711.50904 527.47045,708.77277 525,708.78896 525,711.57864 c 0,3.06127 -6.21809,13.3269 -12.50191,20.63979 -7.20838,8.38885 -15.91973,15.69222 -26.49314,22.21116 -9.29099,5.72828 -11.42359,6.01223 -2.8689,0.382 8.39525,-5.5253 24.5639,-21.6804 29.73481,-29.70989 4.08839,-6.34855 8.045,-16.51918 6.87966,-17.68451 -1.0582,-1.0582 -19.79643,-3.5332 -32.25052,-4.25974 l -12,-0.70005 9.06772,-1.2287 c 11.99179,-1.62492 21.8777,-1.55015 35.76647,0.27051 37.54981,4.92235 60.94155,20.52175 69.72925,46.50079 3.61619,10.69051 2.89783,28.56582 -1.74814,43.5 -9.14211,29.38676 -29.49939,51.75454 -59.94736,65.86782 C 507.88735,866.86101 479.33449,871.31149 457,868.4918 Z m -40.1777,-2.25223 c -8.09912,-8.76342 -16.03345,-22.61094 -17.32049,-30.22885 -0.5471,-3.23827 -3.13654,-6.25978 -18.12084,-21.14444 -14.66803,-14.5705 -17.11212,-17.40559 -15.18175,-17.61048 31.02503,-3.29298 63.5866,-21.31102 76.26422,-42.20104 4.38704,-7.22891 8.53656,-18.3476 8.53656,-22.87382 0,-2.65926 0.29048,-3.29046 1.12857,-2.45237 0.7621,0.7621 0.98009,4.80485 0.6713,12.45 -0.39522,9.78525 -0.87259,12.30087 -3.51816,18.53972 -4.24082,10.00082 -10.11244,17.84616 -25.0267,33.43933 -15.46958,16.17378 -16.74641,18.4638 -15.84445,28.41734 0.74536,8.22527 5.23864,27.29236 9.03599,38.34386 1.40203,4.08035 2.40481,7.56316 2.22839,7.73957 -0.17641,0.17641 -1.4601,-0.91206 -2.85264,-2.41882 z m 43.9277,-26.9453 c 1.2375,-0.23836 3.2625,-0.23836 4.5,0 1.2375,0.23835 0.225,0.43337 -2.25,0.43337 -2.475,0 -3.4875,-0.19502 -2.25,-0.43337 z m 319.02761,-24.7406 c 35.65398,-14.68665 56.64151,-36.64618 62.74224,-65.64802 1.92541,-9.15311 1.88192,-26.07217 -0.0961,-37.3807 -2.63912,-15.08815 -12.05557,-37.67126 -20.2005,-48.4461 -1.42236,-1.88163 -2.07981,-3.10823 -1.46099,-2.72578 2.40478,1.48623 13.52909,17.27537 16.93198,24.03218 9.05737,17.98437 11.7988,29.2884 11.78995,48.61475 -0.008,17.12735 -1.29997,22.97673 -8.12957,36.80196 -10.12359,20.4933 -30.21354,36.32875 -57.33198,45.19064 -12.28444,4.01437 -14.49993,3.78529 -4.24503,-0.43893 z M 718,801.96099 c -16.74467,-3.26195 -30.04724,-8.38038 -65.5,-25.20241 -12.1,-5.74135 -24.14753,-11.25073 -26.77229,-12.24307 -2.62477,-0.99234 -4.56742,-2.00914 -4.31701,-2.25955 0.76793,-0.76793 6.92664,1.511 38.78986,14.35356 44.21146,17.81956 56.50753,21.00677 77.79175,20.16411 14.04598,-0.5561 24.06028,-3.60235 34.50769,-10.4969 14.92041,-9.84641 23.30976,-20.66865 26.49885,-34.18347 2.46106,-10.42953 0.8028,-27.79839 -4.9062,-51.38812 C 787.18849,672.17698 786,665.31711 786,653.99487 c 0,-28.08021 15.41436,-44.03077 51.09185,-52.86913 10.02329,-2.48307 31.13905,-5.1856 38.87829,-4.97591 3.04142,0.0824 4.17986,0.32566 2.52986,0.54056 -9.51871,1.23975 -32.2689,5.77692 -40,7.97738 -12.45753,3.54572 -26.07242,10.24319 -32.41488,15.94561 -9.83709,8.84439 -12.9835,16.4673 -13.16141,31.88662 -0.1283,11.11903 0.87139,16.83577 7.25715,41.5 6.06436,23.42284 7.81028,33.57313 7.81533,45.43611 0.008,18.72157 -6.43872,33.04829 -20.09411,44.65584 C 767.39584,801.52294 745.06051,807.23251 718,801.96099 Z M 605.5,730.6831 c -15.97271,-4.60924 -30.32378,-14.35019 -37.19284,-25.24507 -1.54394,-2.4488 -3.62423,-4.71386 -4.62287,-5.03344 -5.52382,-1.76776 -13.64921,-13.19706 -13.67452,-19.23479 -0.0151,-3.6032 11.0983,-18.97779 20.66265,-28.58527 13.9204,-13.98319 29.97094,-24.41801 47.82758,-31.0938 6.60274,-2.46847 25.53111,-7.48662 28.25,-7.48944 1.55688,-0.002 1.62574,6.51874 0.22487,21.29141 -2.03749,21.48605 -4.96517,29.14426 -15.87447,41.5245 -12.69821,14.41033 -31.65888,25.56315 -45.68633,26.87305 -3.52774,0.32943 -6.41407,0.92231 -6.41407,1.31751 0,1.64021 9.98561,9.88364 16.01336,13.21953 13.85915,7.66995 29.82742,9.65713 46.45212,5.78076 15.0571,-3.51086 28.39445,-10.97493 43.95095,-24.59656 9.04354,-7.91874 8.91527,-7.15778 5.05047,-29.9638 -3.27768,-19.34145 -4.5801,-35.04442 -3.68592,-44.44025 0.68025,-7.1479 0.7447,-6.78908 1.3457,7.49256 0.49009,11.64592 1.46747,19.0249 4.37098,33 2.05686,9.9 3.78537,20.43391 3.84114,23.4087 l 0.1014,5.40869 -8.84499,8.34265 c -21.45098,20.23269 -39.85163,28.94886 -63.09521,29.88744 -9.38107,0.37881 -12.1774,0.10442 -19,-1.86438 z M 514.52147,671.86769 C 510.40586,670.9042 505,666.61493 505,664.31291 c 0,-1.80848 0.70285,-1.66069 4.3069,0.90563 4.42329,3.14965 12.54449,3.08449 19.1931,-0.15401 10.82506,-5.27282 44.14435,-43.295 52.37713,-59.76996 7.98651,-15.98215 15.77642,-37.48691 22.56564,-62.29457 1.46815,-5.36456 1.49095,-5.38918 0.92579,-1 -0.97546,7.57571 -8.09961,34.08065 -12.39478,46.11404 l -4.06409,11.38596 2.88558,-3 c 28.52195,-29.65287 26.45244,-27.07342 31.69125,-39.5 6.2649,-14.86044 10.85993,-27.68191 15.05222,-42 1.85193,-6.325 3.38833,-10.72493 3.41421,-9.77763 0.0903,3.30678 -7.82166,32.37958 -12.26906,45.08294 -4.00596,11.44246 -4.25431,12.64116 -2.33349,11.26298 21.10151,-15.14025 35.49463,-21.94607 52.06533,-24.61921 9.92558,-1.60117 29.85755,-0.67303 39.08427,1.81997 l 7,1.89136 -13.07341,-0.45656 c -22.19188,-0.77499 -35.99344,3.30867 -46.49363,13.75674 -9.01211,8.96738 -14.25246,22.93273 -15.55419,41.45142 l -0.64589,9.18849 -8.11644,1.2759 c -9.68286,1.52214 -27.16139,7.02481 -36.43719,11.47133 -19.28412,9.24416 -35.35873,21.86713 -49.24197,38.66843 -8.93445,10.81236 -12.23043,12.87809 -24.79784,15.54184 -7.49719,1.58908 -9.94564,1.63763 -15.61797,0.30969 z m 173.55748,-57.45102 c 0.048,-1.16495 0.28494,-1.4019 0.60416,-0.60417 0.28887,0.72187 0.25335,1.58438 -0.0789,1.91667 -0.33229,0.33229 -0.56864,-0.25834 -0.52522,-1.3125 z m 196.68271,-19.12393 c 1.24391,-0.23919 3.04391,-0.23011 4,0.0202 0.95609,0.25029 -0.0617,0.446 -2.26166,0.4349 -2.2,-0.0111 -2.98225,-0.21589 -1.73834,-0.45508 z M 813.4422,563.62808 c -2.81912,-6.93785 -2.99784,-19.56244 -0.44773,-31.62808 8.43249,-39.89766 37.80284,-79.086 70.50553,-94.07429 8.68149,-3.9789 12.02877,-4.5243 5.01143,-0.81656 -30.05071,15.87788 -58.95283,56.46775 -67.48602,94.77676 -2.40662,10.80434 -2.77918,25.88761 -0.65951,26.701 2.3173,0.88924 17.70013,-3.53926 26.36156,-7.58911 11.91253,-5.56998 22.46044,-13.18188 33.22157,-23.97435 10.01281,-10.04197 10.41985,-10.10974 3.14396,-0.52345 -15.05787,19.83939 -36.94592,34.34258 -59.37031,39.33922 l -8.60308,1.91695 z M 605.07895,535.41667 c 0.048,-1.16495 0.28494,-1.4019 0.60416,-0.60417 0.28887,0.72187 0.25335,1.58438 -0.0789,1.91667 -0.33229,0.33229 -0.56864,-0.25834 -0.52522,-1.3125 z m 36,-34 c 0.048,-1.16495 0.28494,-1.4019 0.60416,-0.60417 0.28887,0.72187 0.25335,1.58438 -0.0789,1.91667 -0.33229,0.33229 -0.56864,-0.25834 -0.52522,-1.3125 z"
         id="path18" />
      <path
         style="fill:#000000"
         d="m 712,1282.9192 c -66.99094,-5.6818 -128.31866,-22.4676 -187.5,-51.3199 -25.55484,-12.4586 -37.84732,-19.4461 -60,-34.1063 -60.02584,-39.7238 -108.26918,-87.9672 -147.99301,-147.993 -14.66018,-22.1527 -21.64769,-34.4452 -34.10627,-60 -28.64851,-58.76335 -45.09047,-118.24529 -50.90503,-184.15875 -1.93883,-21.97847 -1.93883,-66.70403 0,-88.6825 5.81456,-65.91346 22.25652,-125.3954 50.90503,-184.15875 12.45858,-25.55484 19.44609,-37.84732 34.10627,-60 39.72383,-60.02584 87.96717,-108.26918 147.99301,-147.99301 22.15268,-14.66018 34.44516,-21.64769 60,-34.10627 58.76335,-28.64851 118.24529,-45.09047 184.15875,-50.90503 21.97847,-1.93883 66.70403,-1.93883 88.6825,0 65.91346,5.81456 125.3954,22.25652 184.15875,50.90503 25.5548,12.45858 37.8473,19.44609 60,34.10627 60.0258,39.72383 108.2692,87.96717 147.993,147.99301 14.6602,22.15268 21.6477,34.44516 34.1063,60 25.1829,51.65482 40.7426,103.35213 48.417,160.86637 1.7654,13.23021 1.9837,20.67384 1.9837,67.63363 0,46.95979 -0.2183,54.40342 -1.9837,67.63363 -7.6744,57.51424 -23.2341,109.21155 -48.417,160.86637 -12.4586,25.5548 -19.4461,37.8473 -34.1063,60 -39.7238,60.0258 -87.9672,108.2692 -147.993,147.993 -22.1527,14.6602 -34.4452,21.6477 -60,34.1063 -58.76335,28.6485 -118.24529,45.0904 -184.15875,50.905 -18.12854,1.5992 -68.49106,1.8441 -85.34125,0.4149 z m 80.34125,-25.4149 c 64.29046,-5.6714 121.46754,-21.3682 178.15875,-48.9099 23.01618,-11.1817 36.0977,-18.6152 56.5,-32.1058 65.2071,-43.1169 119.5093,-100.8334 158.0508,-167.9886 26.5342,-46.23346 47.8063,-104.09186 57.4367,-156.22268 C 1248.4963,819.75049 1249,812.69063 1249,761 c 0,-51.69063 -0.5037,-58.75049 -6.5125,-91.27732 -9.6304,-52.13082 -30.9025,-109.98922 -57.4367,-156.22268 -27.1899,-47.37599 -66.0345,-94.47238 -106.4025,-129.00583 -51.3541,-43.93165 -107.59383,-75.72187 -171.02271,-96.67272 -100.04996,-33.04695 -209.20122,-33.04695 -309.25118,0 -63.42888,20.95085 -119.66864,52.74107 -171.02273,96.67272 -33.2686,28.46015 -64.26202,63.82296 -89.84031,102.50583 -13.49058,20.40225 -20.92411,33.48382 -32.10581,56.5 -56.87769,117.07585 -66.00026,249.76533 -25.58411,372.12559 20.95085,63.42888 52.74107,119.66861 96.67272,171.02271 28.46015,33.2686 63.82296,64.262 102.50583,89.8403 20.40225,13.4906 33.48382,20.9241 56.5,32.1058 56.00481,27.2082 113.30434,43.033 177,48.8831 19.66562,1.8061 59.51894,1.8195 79.84125,0.027 z M 715.5,1247.4775 c -62.75235,-5.7635 -120.67654,-21.6145 -175,-47.889 C 442.93388,1152.3989 361.60108,1071.0661 314.41152,973.5 282.49536,907.51218 265.01004,832.29923 265.01004,761 c 0,-71.29923 17.48532,-146.51218 49.40148,-212.5 C 361.60108,450.93388 442.93388,369.60108 540.5,322.41152 606.48782,290.49536 681.70077,273.01004 753,273.01004 c 71.29923,0 146.51218,17.48532 212.5,49.40148 97.5661,47.18956 178.8989,128.52236 226.0885,226.08848 23.1866,47.9392 38.1421,98.26488 45.4278,152.86637 1.7273,12.94511 1.9837,20.65192 1.9837,59.63363 0,48.37481 -0.571,56.11473 -6.5125,88.27732 -9.4902,51.37204 -30.2197,108.29416 -55.4356,152.22268 -49.1212,85.574 -124.1215,155.8012 -211.5519,198.0885 -66.89626,32.3555 -142.24391,49.669 -214.5,49.2881 -11.825,-0.062 -27.8,-0.6919 -35.5,-1.3991 z m 70.84125,-9.9732 c 51.54219,-4.5468 97.62379,-15.3695 144.65875,-33.9744 47.0571,-18.6137 91.2429,-45.7338 133.6481,-82.0299 47.5347,-40.6867 91.1049,-97.2123 117.9328,-153 22.2994,-46.37068 37.2778,-97.22497 44.4354,-150.86637 C 1228.7256,804.8236 1229,796.98994 1229,761 c 0,-35.98994 -0.2744,-43.8236 -1.9837,-56.63363 -7.1576,-53.6414 -22.136,-104.49569 -44.4354,-150.86637 -26.8279,-55.7877 -70.3981,-112.31333 -117.9328,-153 C 1022.2429,364.20394 978.0571,337.08377 931,318.47009 883.96504,299.86516 837.88344,289.04249 786.34125,284.49569 710.61366,277.81537 620.429,295.38615 545.5,331.41905 489.7123,358.24702 433.18667,401.81715 392.5,449.35192 356.20394,491.75709 329.08377,535.9429 310.47009,583 c -18.60493,47.03496 -29.4276,93.11656 -33.9744,144.65875 -6.68032,75.72759 10.89046,165.91225 46.92336,240.84125 21.70165,45.1277 55.53698,92.4556 92.58119,129.4998 37.04421,37.0442 84.37204,70.8795 129.49976,92.5811 74.79901,35.9704 165.24503,53.5921 240.84125,46.9234 z"
         id="path16" />
    </g>
  </g>
</svg>
