<?xml version="1.0" encoding="UTF-8" standalone="no"?>
<svg
   xmlns:dc="http://purl.org/dc/elements/1.1/"
   xmlns:cc="http://creativecommons.org/ns#"
   xmlns:rdf="http://www.w3.org/1999/02/22-rdf-syntax-ns#"
   xmlns:svg="http://www.w3.org/2000/svg"
   xmlns="http://www.w3.org/2000/svg"
   xmlns:sodipodi="http://sodipodi.sourceforge.net/DTD/sodipodi-0.dtd"
   xmlns:inkscape="http://www.inkscape.org/namespaces/inkscape"
   version="1.1"
   id="svg2"
   width="1043.8253"
   height="1045.6121"
   viewBox="0 0 1043.8253 1045.6121"
   sodipodi:docname="Goldenrock.svg"
   inkscape:version="1.0.1 (3bc2e813f5, 2020-09-07)">
  <metadata
     id="metadata8">
    <rdf:RDF>
      <cc:Work
         rdf:about="">
        <dc:format>image/svg+xml</dc:format>
        <dc:type
           rdf:resource="http://purl.org/dc/dcmitype/StillImage" />
        <dc:title></dc:title>
      </cc:Work>
    </rdf:RDF>
  </metadata>
  <defs
     id="defs6" />
  <sodipodi:namedview
     pagecolor="#ffffff"
     bordercolor="#666666"
     borderopacity="1"
     objecttolerance="10"
     gridtolerance="10"
     guidetolerance="10"
     inkscape:pageopacity="0"
     inkscape:pageshadow="2"
     inkscape:window-width="1920"
     inkscape:window-height="1057"
     id="namedview4"
     showgrid="false"
     inkscape:pagecheckerboard="true"
     inkscape:zoom="0.49"
     inkscape:cx="519.72764"
     inkscape:cy="511.8845"
     inkscape:window-x="-8"
     inkscape:window-y="-8"
     inkscape:window-maximized="1"
     inkscape:current-layer="g10" />
  <g
     inkscape:groupmode="layer"
     inkscape:label="Image"
     id="g10"
     transform="translate(-230.27236,-238.1155)">
    <circle
       style="fill:#ffffff;fill-rule:evenodd"
       id="path20"
       cx="753"
       cy="763"
       r="507.89795" />
    <g
       id="g14">
      <path
         style="fill:#f4cd62"
         d="m 731.75,1283.2943 c 1.2375,-0.2384 3.2625,-0.2384 4.5,0 1.2375,0.2383 0.225,0.4333 -2.25,0.4333 -2.475,0 -3.4875,-0.195 -2.25,-0.4333 z m 38,0 c 1.2375,-0.2384 3.2625,-0.2384 4.5,0 1.2375,0.2383 0.225,0.4333 -2.25,0.4333 -2.475,0 -3.4875,-0.195 -2.25,-0.4333 z m -56,-0.9566 c 0.6875,-0.2774 1.8125,-0.2774 2.5,0 0.6875,0.2774 0.125,0.5044 -1.25,0.5044 -1.375,0 -1.9375,-0.227 -1.25,-0.5044 z m 76,0 c 0.6875,-0.2774 1.8125,-0.2774 2.5,0 0.6875,0.2774 0.125,0.5044 -1.25,0.5044 -1.375,0 -1.9375,-0.227 -1.25,-0.5044 z m -86.9375,-1.0208 c 0.72187,-0.2889 1.58438,-0.2534 1.91667,0.079 0.33229,0.3323 -0.25834,0.5687 -1.3125,0.5253 -1.16495,-0.048 -1.4019,-0.285 -0.60417,-0.6042 z m 99,0 c 0.72187,-0.2889 1.58438,-0.2534 1.91667,0.079 0.33229,0.3323 -0.25834,0.5687 -1.3125,0.5253 -1.16495,-0.048 -1.4019,-0.285 -0.60417,-0.6042 z M 712.5,1257.4775 c -63.69566,-5.8501 -120.99519,-21.6749 -177,-48.8831 -23.01618,-11.1817 -36.09775,-18.6152 -56.5,-32.1058 C 413.79292,1133.3717 359.49073,1075.6552 320.94921,1008.5 295.41353,964.00634 274.5017,908.13199 264.57537,857.8746 259.19172,830.617 255.01502,793.68505 255.00502,773.25 L 255,763 h 5 5 l 0.005,8.75 c 0.007,11.41655 2.44193,38.77462 5.02651,56.46585 20.55361,140.68719 97.51801,261.94975 215.96847,340.27275 20.09102,13.2848 33.57302,20.9782 54.5,31.0999 45.71849,22.1125 94.16658,36.912 145.28415,44.38 18.2536,2.6667 45.15933,5.0201 57.46585,5.0265 l 9.75,0.01 v 5 5 l -13.25,-0.1184 c -7.2875,-0.065 -19.55,-0.6969 -27.25,-1.4041 z m 6,-20 c -61.78296,-5.6745 -120.2224,-21.5161 -173,-46.8966 -45.12772,-21.7016 -92.45555,-55.5369 -129.49976,-92.5811 C 378.95603,1060.9556 345.1207,1013.6277 323.41905,968.5 302.18997,924.35497 287.36047,875.38162 280.03153,825.21585 277.58316,808.45699 275.012,780.34093 275.00502,770.25 L 275,763 H 514 753 V 523 283 l 8.25,0.005 c 10.97334,0.007 38.57284,2.48549 55.96585,5.02651 50.16577,7.32894 99.13912,22.15844 143.28415,43.38752 45.1277,21.70165 92.4556,55.53698 129.4998,92.58119 37.0442,37.04421 70.8795,84.37204 92.5811,129.49976 17.9273,37.27908 32.4071,81.62662 39.9066,122.22268 5.0374,27.26851 6.5125,42.08035 6.5125,65.39369 v 21.88363 H 991 753 V 1001 1239 l -10.25,-0.1184 c -5.6375,-0.065 -16.55,-0.6969 -24.25,-1.4041 z m -36.5,-134.3264 5.5,-0.6511 -5.5,-3.2223 c -3.025,-1.7722 -7.525,-5.0885 -10,-7.3695 l -4.5,-4.1473 8.5,0.8696 c 10.43907,1.0679 54.45848,1.1309 58.26816,0.083 2.64451,-0.7271 2.2903,-1.0806 -7.93026,-7.915 -18.32984,-12.2569 -38.08955,-33.12 -49.67469,-52.4484 -5.25331,-8.7645 -11.01494,-21.5174 -21.61836,-47.8505 -19.35416,-48.06513 -34.34826,-72.85586 -53.42248,-88.32688 -7.17443,-5.81915 -21.53125,-13.75029 -22.57837,-12.47297 -0.36063,0.43992 -0.36885,5.74985 -0.0183,11.79985 0.69104,11.92477 0.37164,13.41419 -3.29774,15.37798 -2.16707,1.15978 -3.17371,0.92271 -9.40364,-2.21464 l -6.97678,-3.51345 -1.26358,3.49436 c -1.92313,5.31831 -6.0968,7.34964 -15.084,7.34138 -7.28331,-0.007 -7.64446,-0.12458 -12.5,-4.0802 -18.02287,-14.68256 -36.27479,-22.78501 -44.90811,-19.93576 -3.91587,1.29236 -5.0534,3.29947 -3.50728,6.18842 0.59259,1.10726 0.92847,2.11958 0.74641,2.24959 -0.18206,0.13001 -2.58102,1.55397 -5.33102,3.16435 l -5,2.92797 6.73525,0.29535 6.73525,0.29536 1.65658,5.69843 c 0.91112,3.13413 1.69062,8.05383 1.73224,10.93265 0.0673,4.6594 -0.30215,5.62401 -3.36456,8.78361 -4.015,4.14288 -10.81243,6.495 -18.76877,6.495 h -5.41105 l 0.34255,-5.50136 c 0.1884,-3.02575 0.0451,-5.50075 -0.31856,-5.5 -1.02329,0.002 -5.12719,5.19816 -7.25757,9.18901 -1.56651,2.93455 -2.61506,3.68767 -5.71275,4.10315 -9.10018,1.22059 -15.16784,6.8536 -16.427,15.25024 -0.36244,2.41698 -1.31474,4.93874 -2.11622,5.60391 C 428.27837,959.84379 426,964.50817 426,967 c 0,1.15463 0.68614,3.42617 1.52476,5.04787 l 1.52475,2.94856 11.72525,-0.24822 c 10.871,-0.23013 12.08952,-0.0618 16.72524,2.31053 5.45833,2.79329 8.69722,7.28713 10.64998,14.77643 0.62169,2.38434 1.70579,4.55599 2.40911,4.82588 0.70332,0.26989 3.56999,3.57195 6.37038,7.33785 6.80667,9.1536 27.46274,28.7087 31.1897,29.5273 4.00188,0.8789 5.27385,3.1056 9.59947,16.8046 l 3.78136,11.9754 10.24502,6.5969 c 8.16486,5.2575 10.46653,7.2619 11.33594,9.8723 1.52952,4.5923 5.45715,8.9481 10.29483,11.4173 3.14185,1.6035 6.02977,2.1158 12.12421,2.1506 9.06929,0.052 16.23448,-2.5372 22.67765,-8.1944 1.97251,-1.7319 4.09946,-3.1489 4.72656,-3.1489 0.6271,0 4.8427,1.8623 9.36799,4.1385 17.12293,8.6127 40.13826,16.4701 53.2278,18.1718 4.89244,0.6361 20.57831,0.5418 26.5,-0.1592 z m -23.67814,-4.2094 c -15.18686,-1.9782 -36.89275,-10.7809 -54.05255,-21.9208 l -6.23068,-4.0449 2.09453,-5.238 c 2.60852,-6.5234 3.60182,-20.5058 1.94682,-27.4046 -0.65036,-2.711 -2.2057,-6.2123 -3.45631,-7.7808 l -2.27383,-2.8516 -4.65568,1.778 -4.65568,1.778 2.39009,2.8405 c 6.2148,7.3858 7.6637,22.1058 3.09505,31.4437 -2.85989,5.8454 -10.47476,12.9065 -15.19693,14.0917 -3.21176,0.8061 -7.16383,-1.3324 -9.4861,-5.1329 -2.38632,-3.9053 -2.29315,-5.7837 0.64088,-12.9207 2.2738,-5.531 2.3216,-6.006 0.72626,-7.2182 -2.55835,-1.9438 -2.76335,-1.7883 -5.12551,3.8889 -4.33581,10.4205 -4.0036,17.1527 1.08081,21.9023 l 3.04848,2.8477 h -4.0587 c -7.81561,0 -11.70504,-3.4541 -12.78823,-11.3567 -0.5023,-3.6647 5.2e-4,-5.7002 3.10856,-12.5838 2.03928,-4.5166 3.55457,-8.3454 3.36732,-8.5085 -0.18725,-0.1632 -1.76392,-1.0202 -3.50371,-1.9046 -3.1481,-1.6003 -3.17802,-1.5912 -6.25,1.9076 -1.69771,1.9336 -3.08675,3.9499 -3.08675,4.4808 0,1.486 -5.94465,1.0038 -11.5,-0.9328 -4.25852,-1.4845 -5.39745,-2.4695 -7.68009,-6.6421 -2.44876,-4.4764 -5.71723,-13.816 -7.24756,-20.7099 -0.452,-2.0362 -1.2138,-2.75 -2.93485,-2.75 -3.88049,0 -13.14586,-3.624 -19.25243,-7.5304 -11.53957,-7.3817 -21.53106,-20.76749 -20.01379,-26.81275 0.75587,-3.01162 3.20879,-5.65685 5.2456,-5.65685 2.20471,0 6.2162,4.43889 6.92598,7.66388 0.3433,1.55987 0.78268,3.36006 0.9764,4.00043 0.43245,1.42958 12.92014,-1.58107 20.69911,-4.99034 l 5.17472,-2.26791 -3.62662,-2.24137 c -8.20032,-5.06808 -14.47953,-15.47526 -13.28406,-22.01707 2.69343,-14.73901 20.65738,-24.35489 34.09619,-18.25129 7.03265,3.19407 11.34979,11.34139 9.9535,18.78428 -1.48233,7.90149 -10.78573,13.46871 -18.80665,11.25403 -10.01466,-2.76518 -10.42265,-16.00077 -0.56859,-18.44554 5.71203,-1.41714 9.50905,3.51529 7.71314,10.01956 -0.55869,2.02339 -0.80095,3.89373 -0.53836,4.15631 0.74848,0.74849 6.55039,-4.99089 6.73759,-6.66497 0.42417,-3.79325 -0.26408,-5.92212 -2.7031,-8.36114 -7.56194,-7.56194 -20.57456,-4.00598 -23.37314,6.38719 -3.19983,11.88325 10.46432,21.50815 23.47846,16.538 15.92332,-6.08117 16.85936,-29.28717 1.53018,-37.93564 -4.82488,-2.72212 -6.41725,-3.09718 -13,-3.06195 -6.07098,0.0325 -8.58523,0.56215 -13.1835,2.77724 -10.12141,4.87571 -15.25101,12.93938 -16.79221,26.39715 -1.39945,12.22006 -0.60333,11.53993 -12.92342,11.04048 L 469.5,980.3515 l -6.78326,-4.64557 c -3.73079,-2.55507 -8.56829,-5.18038 -10.75,-5.83404 -3.66053,-1.09672 -3.96792,-1.46573 -3.98205,-4.78018 -0.0223,-5.23309 -1.10794,-6.44319 -5.01131,-5.58586 l -3.27646,0.71963 0.58728,-5.6902 c 0.32301,-3.1296 1.29778,-6.77455 2.16617,-8.09987 3.22251,-4.91819 14.61782,-8.46518 32.04963,-9.97602 7.93096,-0.68739 8.10356,-0.76278 20,-8.73617 6.6,-4.42354 12.11153,-8.11993 12.24785,-8.21419 0.13631,-0.0943 -0.84895,-3.3961 -2.18948,-7.33742 -2.42407,-7.12705 -2.42637,-7.17189 -0.42368,-8.24369 1.54037,-0.82439 3.62578,-0.588 8.873,1.0058 7.96561,2.41948 14.27983,6.87481 18.36616,12.9592 l 2.89053,4.3039 10.11781,-0.76648 c 14.02295,-1.06232 21.58832,-0.75613 27.03866,1.09431 6.24585,2.12052 26.27241,15.22058 30.32301,19.83532 9.35883,10.66225 11.41039,25.60205 6.26347,45.61153 -1.69688,6.5969 -2.70693,8.35978 -5.31852,9.28264 -0.44616,0.15766 0.64554,3.42746 2.426,7.26626 l 3.23719,6.9796 0.88187,-5.5 c 0.48504,-3.025 2.44619,-10.92886 4.35813,-17.56414 1.91194,-6.63527 4.19693,-15.98898 5.07776,-20.78602 1.52501,-8.30532 1.5119,-8.92316 -0.27429,-12.93587 -1.08557,-2.43876 -6.36575,-8.81209 -12.53399,-15.12891 -9.91767,-10.15657 -10.73878,-11.30299 -11.81804,-16.5 -0.63791,-3.07178 -1.02115,-10.90144 -0.85164,-17.39923 l 0.3082,-11.81417 10,12.56256 c 16.92949,21.26778 23.04762,32.93719 35.94817,68.56578 3.68421,10.175 9.76852,24.8 13.52068,32.5 14.18038,29.1003 35.54466,56.7334 54.92486,71.0412 l 8.07135,5.9588 -3.73253,0.8339 c -9.07814,2.0283 -49.85699,-1.0605 -64.73253,-4.9032 -2.68118,-0.6926 6.09247,7.268 14.69326,13.3316 3.69605,2.6057 6.73959,5.0752 6.76342,5.4877 0.0502,0.8684 -2.07318,0.8068 -10.63482,-0.3083 z M 492.33183,988.42236 c -0.94043,-2.45073 2.32548,-4.67613 4.86664,-3.31614 2.73446,1.46344 1.84465,4.32914 -1.46271,4.71075 -1.87304,0.21612 -2.95611,-0.22762 -3.40393,-1.39461 z M 952.97426,631.5 c -0.69104,-11.92477 -0.37164,-13.41419 3.29774,-15.37798 2.16707,-1.15978 3.17371,-0.92271 9.40364,2.21464 l 6.97678,3.51345 1.26358,-3.49436 c 1.92313,-5.31831 6.0968,-7.34964 15.084,-7.34138 7.28331,0.007 7.64446,0.12458 12.5,4.0802 18.0229,14.68256 36.2748,22.78501 44.9081,19.93576 3.9159,-1.29236 5.0534,-3.29947 3.5073,-6.18842 -0.5926,-1.10726 -0.9285,-2.11958 -0.7464,-2.24959 0.182,-0.13001 2.581,-1.55397 5.331,-3.16435 l 5,-2.92797 -6.7352,-0.29535 -6.7353,-0.29536 -1.6566,-5.69843 c -0.9111,-3.13413 -1.6906,-8.05383 -1.7322,-10.93265 -0.067,-4.6594 0.3021,-5.62401 3.3645,-8.78361 4.0151,-4.14248 10.8125,-6.4946 18.7689,-6.4946 h 5.411 l -0.3426,5.50136 c -0.1884,3.02575 -0.045,5.50075 0.3186,5.5 1.0233,-0.002 5.1272,-5.19816 7.2576,-9.18901 1.5665,-2.93455 2.615,-3.68767 5.7127,-4.10315 9.1002,-1.22059 15.1679,-6.8536 16.427,-15.25024 0.3625,-2.41698 1.3148,-4.93874 2.1162,-5.60391 2.047,-1.69884 4.3254,-6.36322 4.3254,-8.85505 0,-1.15463 -0.6861,-3.42617 -1.5248,-5.04787 l -1.5247,-2.94856 -11.7253,0.24822 c -10.871,0.23013 -12.0895,0.0618 -16.7252,-2.31053 -5.4583,-2.79329 -8.6972,-7.28713 -10.65,-14.77643 -0.6217,-2.38434 -1.7058,-4.55599 -2.4091,-4.82588 -0.7033,-0.26989 -3.57,-3.57194 -6.3704,-7.3379 -6.8066,-9.15358 -27.4627,-28.70865 -31.1897,-29.52722 -4.0018,-0.87896 -5.2738,-3.10566 -9.5994,-16.80467 l -3.7814,-11.97538 -10.245,-6.59689 c -8.16488,-5.25745 -10.46655,-7.26193 -11.33596,-9.87229 -1.52952,-4.5923 -5.45715,-8.94815 -10.29483,-11.41726 -3.14185,-1.60357 -6.02977,-2.11585 -12.12421,-2.15068 -9.06929,-0.0518 -16.23448,2.53728 -22.67765,8.19445 C 941.84984,440.583 939.72289,442 939.09579,442 c -0.6271,0 -4.8427,-1.86233 -9.36799,-4.13852 C 900.52957,423.175 873.42932,416.92367 851,419.70101 l -6.5,0.80487 5.5,3.21931 c 3.025,1.77062 7.525,5.0856 10,7.36661 l 4.5,4.14729 -8.5,-0.86954 c -10.43907,-1.06792 -54.45848,-1.13096 -58.26816,-0.0835 -2.64451,0.72713 -2.2903,1.08066 7.93026,7.91501 18.32984,12.25691 38.08955,33.11995 49.67469,52.44839 5.25331,8.76452 11.01494,21.51743 21.61836,47.85051 19.35416,48.06513 34.34826,72.85586 53.42248,88.32688 7.17443,5.81915 21.53125,13.75029 22.57837,12.47297 0.36063,-0.43992 0.36885,-5.74985 0.0183,-11.79985 z M 928.5,616.56578 C 911.57051,595.298 905.45238,583.62859 892.55183,548 c -3.68421,-10.175 -9.76852,-24.8 -13.52068,-32.5 -14.18038,-29.10027 -35.54466,-56.73335 -54.92486,-71.04117 l -8.07135,-5.95883 3.73253,-0.83393 c 9.07814,-2.02826 49.85699,1.06056 64.73253,4.90321 2.68118,0.6926 -6.09247,-7.26795 -14.69326,-13.33157 -3.69605,-2.60574 -6.73959,-5.08774 -6.76342,-5.51556 -0.0703,-1.26311 12.71776,0.35524 22.95668,2.90519 10.03189,2.4984 30.16304,11.8321 41.73069,19.34821 l 6.23068,4.0484 -2.09453,5.23803 c -2.60852,6.52341 -3.60182,20.50579 -1.94682,27.40464 0.65036,2.71099 2.2057,6.21232 3.45631,7.78074 l 2.27383,2.85166 4.65568,-1.77802 4.65568,-1.77802 -2.39009,-2.84045 c -6.2148,-7.38588 -7.6637,-22.10579 -3.09505,-31.44378 2.85989,-5.8454 10.47476,-12.90641 15.19693,-14.0916 3.21176,-0.8061 7.16383,1.33233 9.4861,5.13285 2.38632,3.90535 2.29315,5.78368 -0.64088,12.92067 -2.2738,5.531 -2.3216,6.00606 -0.72626,7.21819 2.55835,1.94383 2.76335,1.7883 5.12551,-3.88886 4.33581,-10.42054 4.0036,-17.15274 -1.08081,-21.90229 L 963.78849,438 h 4.0587 c 7.81561,0 11.70504,3.45405 12.78823,11.35672 0.5023,3.6647 -5.2e-4,5.70017 -3.10856,12.58378 -2.03928,4.51655 -3.55457,8.34539 -3.36732,8.50853 0.18725,0.16314 1.76392,1.02022 3.50371,1.90461 3.1481,1.6003 3.17802,1.59117 6.25,-1.90762 1.69771,-1.93359 3.08675,-3.94995 3.08675,-4.48082 0,-1.48595 5.94465,-1.00378 11.5,0.93277 4.2585,1.48449 5.3974,2.46949 7.6801,6.64218 2.4487,4.47632 5.7172,13.81597 7.2475,20.70985 0.452,2.03618 1.2139,2.75 2.9349,2.75 3.8805,0 13.1459,3.62405 19.2524,7.53037 11.5396,7.38178 21.5311,20.76752 20.0138,26.81278 -0.7558,3.01162 -3.2088,5.65685 -5.2456,5.65685 -2.2047,0 -6.2162,-4.43889 -6.926,-7.66388 -0.3433,-1.55987 -0.7826,-3.36006 -0.9764,-4.00043 -0.4324,-1.42958 -12.9201,1.58107 -20.6991,4.99034 l -5.1747,2.26791 3.6266,2.24137 c 8.2004,5.06808 14.4796,15.47526 13.2841,22.01707 -2.6934,14.73901 -20.6574,24.35489 -34.0962,18.25129 -7.03265,-3.19407 -11.34979,-11.34139 -9.9535,-18.78428 1.48233,-7.90149 10.7857,-13.46871 18.8067,-11.25403 10.0146,2.76518 10.4226,16.00077 0.5685,18.44554 -5.712,1.41714 -9.50901,-3.51529 -7.7131,-10.01956 0.5587,-2.02339 0.8009,-3.89373 0.5384,-4.15631 -0.7485,-0.74849 -6.55043,4.99089 -6.73763,6.66497 -0.42388,3.79065 0.26309,5.92113 2.69267,8.35072 7.57196,7.572 20.58296,4.02387 23.38356,-6.37677 3.1998,-11.88325 -10.4643,-21.50815 -23.47845,-16.538 -15.92332,6.08117 -16.85936,29.28717 -1.53018,37.93564 4.82483,2.72212 6.41723,3.09718 13.00003,3.06195 6.0709,-0.0325 8.5852,-0.56215 13.1835,-2.77724 10.1214,-4.87571 15.251,-12.93938 16.7922,-26.39715 1.3994,-12.22006 0.6033,-11.53993 12.9234,-11.04048 l 10.6025,0.42983 6.7833,4.64557 c 3.7307,2.55507 8.5682,5.18038 10.75,5.83404 3.6605,1.09672 3.9679,1.46573 3.982,4.78018 0.022,5.23309 1.108,6.44319 5.0113,5.58586 l 3.2765,-0.71963 -0.5873,5.6902 c -0.323,3.1296 -1.2978,6.77455 -2.1662,8.09987 -3.2225,4.91819 -14.6178,8.46518 -32.0496,9.97602 -7.931,0.68739 -8.1036,0.76278 -20,8.73617 -6.6,4.42354 -12.1115,8.11993 -12.2478,8.21419 -0.1364,0.0943 0.8489,3.3961 2.1894,7.33742 2.4241,7.12705 2.4264,7.17189 0.4237,8.24369 -1.5404,0.82439 -3.6258,0.588 -8.873,-1.0058 -7.9656,-2.41948 -14.2798,-6.87481 -18.3661,-12.9592 l -2.89058,-4.3039 -10.11781,0.76648 c -14.02295,1.06232 -21.58832,0.75613 -27.03866,-1.09431 -6.24585,-2.12052 -26.27241,-15.22058 -30.32301,-19.83532 -9.35883,-10.66225 -11.41039,-25.60205 -6.26347,-45.61153 1.69688,-6.5969 2.70693,-8.35978 5.31852,-9.28264 0.44616,-0.15766 -0.64554,-3.42748 -2.426,-7.26626 L 923.648,511.5 922.76613,517 c -0.48504,3.025 -2.44619,10.92886 -4.35813,17.56414 -1.91194,6.63527 -4.19693,15.98898 -5.07776,20.78602 -1.52501,8.30532 -1.5119,8.92316 0.27429,12.93587 1.08557,2.43876 6.36575,8.81209 12.53399,15.12891 9.91767,10.15657 10.73878,11.30299 11.81804,16.5 0.63791,3.07178 1.02115,10.90144 0.85164,17.39923 L 938.5,629.12834 Z m 105.9757,-78.95992 c -2.668,-1.95083 -1.2007,-4.82214 2.2601,-4.42283 3.3073,0.38161 4.1971,3.24731 1.4627,4.71075 -1.3904,0.74409 -2.4204,0.66443 -3.7228,-0.28792 z M 413.87244,1159.25 c -1.24387,-1.5861 -1.2085,-1.6214 0.37756,-0.3776 0.9625,0.7549 1.75,1.5424 1.75,1.75 0,0.8231 -0.82119,0.2933 -2.12756,-1.3724 z M 1090,1160.6224 c 0,-0.2076 0.7875,-0.9951 1.75,-1.75 1.5861,-1.2438 1.6214,-1.2085 0.3776,0.3776 -1.3064,1.6657 -2.1276,2.1955 -2.1276,1.3724 z M 406.40499,1152.75 404.5,1150.5 l 2.25,1.905 c 1.2375,1.0477 2.25,2.0602 2.25,2.25 0,0.8002 -0.80479,0.2094 -2.59501,-1.905 z M 1098.5,1153 c 0.9955,-1.1 2.035,-2 2.31,-2 0.275,0 -0.3145,0.9 -1.31,2 -0.9955,1.1 -2.035,2 -2.31,2 -0.275,0 0.3145,-0.9 1.31,-2 z m -703.06291,-10.25 -2.93709,-3.25 3.25,2.9371 c 3.02946,2.7378 3.70965,3.5629 2.93709,3.5629 -0.1721,0 -1.6346,-1.4625 -3.25,-3.25 z M 1107,1145.6871 c 0,-0.1721 1.4625,-1.6346 3.25,-3.25 l 3.25,-2.9371 -2.9371,3.25 c -2.7378,3.0295 -3.5629,3.7097 -3.5629,2.9371 z M 370.43709,1117.75 367.5,1114.5 l 3.25,2.9371 c 1.7875,1.6154 3.25,3.0779 3.25,3.25 0,0.7726 -0.82513,0.092 -3.56291,-2.9371 z M 1132,1120.6871 c 0,-0.1721 1.4625,-1.6346 3.25,-3.25 l 3.25,-2.9371 -2.9371,3.25 c -2.7378,3.0295 -3.5629,3.7097 -3.5629,2.9371 z M 360.40499,1106.75 358.5,1104.5 l 2.25,1.905 c 1.2375,1.0477 2.25,2.0602 2.25,2.25 0,0.8002 -0.80479,0.2094 -2.59501,-1.905 z M 1144.5,1107 c 0.9955,-1.1 2.035,-2 2.31,-2 0.275,0 -0.3145,0.9 -1.31,2 -0.9955,1.1 -2.035,2 -2.31,2 -0.275,0 0.3145,-0.9 1.31,-2 z m -97.6276,-4.75 c -1.2438,-1.5861 -1.2085,-1.6214 0.3776,-0.3776 0.9625,0.7549 1.75,1.5424 1.75,1.75 0,0.8231 -0.8212,0.2933 -2.1276,-1.3724 z M 997,1101.6224 c 0,-0.2076 0.7875,-0.9951 1.75,-1.75 1.5861,-1.2438 1.6214,-1.2085 0.37756,0.3776 -1.30637,1.6657 -2.12756,2.1955 -2.12756,1.3724 z M 353.87244,1099.25 c -1.24387,-1.5861 -1.2085,-1.6214 0.37756,-0.3776 0.9625,0.7549 1.75,1.5424 1.75,1.75 0,0.8231 -0.82119,0.2933 -2.12756,-1.3724 z M 1150,1100.6224 c 0,-0.2076 0.7875,-0.9951 1.75,-1.75 1.5861,-1.2438 1.6214,-1.2085 0.3776,0.3776 -1.3064,1.6657 -2.1276,2.1955 -2.1276,1.3724 z M 924.19495,1095.5 c 0.0204,-1.65 0.2445,-2.2039 0.49804,-1.231 0.25354,0.973 0.23687,2.323 -0.0371,3 -0.27393,0.6771 -0.48137,-0.119 -0.46099,-1.769 z m 79.05725,-8 c 0.011,-2.2 0.2159,-2.9823 0.4551,-1.7383 0.2392,1.2439 0.2301,3.0439 -0.02,4 -0.2503,0.956 -0.446,-0.062 -0.4349,-2.2617 z M 973.07895,954.41667 c 0.048,-1.16495 0.28494,-1.4019 0.60416,-0.60417 0.28887,0.72187 0.25335,1.58438 -0.0789,1.91667 -0.33229,0.33229 -0.56864,-0.25834 -0.52522,-1.3125 z m -741,-144 c 0.048,-1.16495 0.28494,-1.4019 0.60416,-0.60417 0.28887,0.72187 0.25335,1.58438 -0.0789,1.91667 -0.3323,0.33229 -0.56864,-0.25834 -0.52522,-1.3125 z m 1040.99995,0 c 0.048,-1.16495 0.285,-1.4019 0.6042,-0.60417 0.2889,0.72187 0.2534,1.58438 -0.079,1.91667 -0.3323,0.33229 -0.5687,-0.25834 -0.5253,-1.3125 z M 231.15789,799 c 0,-1.375 0.22698,-1.9375 0.50439,-1.25 0.27741,0.6875 0.27741,1.8125 0,2.5 -0.27741,0.6875 -0.50439,0.125 -0.50439,-1.25 z m -0.88553,-19 c 0,-2.475 0.19502,-3.4875 0.43337,-2.25 0.23836,1.2375 0.23836,3.2625 0,4.5 -0.23835,1.2375 -0.43337,0.225 -0.43337,-2.25 z M 1239,739.61637 c 0,-17.65668 -0.4858,-27.02458 -1.9837,-38.25 C 1229.7306,646.76488 1214.7751,596.4392 1191.5885,548.5 1144.3989,450.93388 1063.0661,369.60108 965.5,322.41152 919.78151,300.29898 871.33342,285.49953 820.21585,278.03153 801.96225,275.36479 775.05652,273.01135 762.75,273.00502 L 753,273 v -5 -5 l 11.25,0.005 c 40.79776,0.0182 98.57552,10.01877 143.37559,24.81643 63.42888,20.95085 119.66861,52.74107 171.02271,96.67272 40.368,34.53345 79.2126,81.62984 106.4025,129.00583 26.5342,46.23346 47.8063,104.09186 57.4367,156.22268 5.2203,28.25867 6.5125,41.82905 6.5125,68.39369 v 24.88363 h -5 -5 V 739.61635 Z M 230.27236,742 c 0,-2.475 0.19502,-3.4875 0.43337,-2.25 0.23836,1.2375 0.23836,3.2625 0,4.5 -0.23835,1.2375 -0.43337,0.225 -0.43337,-2.25 z m 0.88553,-19 c 0,-1.375 0.22698,-1.9375 0.50439,-1.25 0.27741,0.6875 0.27741,1.8125 0,2.5 -0.27741,0.6875 -0.50439,0.125 -0.50439,-1.25 z m 0.92106,-11.58333 c 0.048,-1.16495 0.28494,-1.4019 0.60416,-0.60417 0.28887,0.72187 0.25335,1.58438 -0.0789,1.91667 -0.3323,0.33229 -0.56864,-0.25834 -0.52522,-1.3125 z m 1040.99995,0 c 0.048,-1.16495 0.285,-1.4019 0.6042,-0.60417 0.2889,0.72187 0.2534,1.58438 -0.079,1.91667 -0.3323,0.33229 -0.5687,-0.25834 -0.5253,-1.3125 z m -714.99995,-143 c 0.048,-1.16495 0.28494,-1.4019 0.60416,-0.60417 0.28887,0.72187 0.25335,1.58438 -0.0789,1.91667 -0.33229,0.33229 -0.56864,-0.25834 -0.52522,-1.3125 z M 528.25218,435.5 c 0.0111,-2.2 0.21589,-2.98225 0.45508,-1.73834 0.23919,1.24391 0.23011,3.04391 -0.0202,4 -0.25029,0.95609 -0.446,-0.0617 -0.4349,-2.26166 z m 78.94277,-8 c 0.0204,-1.65 0.2445,-2.20394 0.49804,-1.23097 0.25354,0.97297 0.23687,2.32297 -0.0371,3 -0.27393,0.67703 -0.48137,-0.11903 -0.46099,-1.76903 z M 353,423.62244 c 0,-0.20765 0.7875,-0.99515 1.75,-1.75 1.58606,-1.24387 1.62143,-1.2085 0.37756,0.37756 C 353.82119,423.91575 353,424.44548 353,423.62244 Z m 179,0 c 0,-0.20765 0.7875,-0.99515 1.75,-1.75 1.58606,-1.24387 1.62143,-1.2085 0.37756,0.37756 C 532.82119,423.91575 532,424.44548 532,423.62244 Z M 1150.8724,422.25 c -1.2438,-1.58606 -1.2085,-1.62143 0.3776,-0.37756 1.6657,1.30637 2.1955,2.12756 1.3724,2.12756 -0.2076,0 -0.9951,-0.7875 -1.75,-1.75 z m -666.99996,-2 c -1.24387,-1.58606 -1.2085,-1.62143 0.37756,-0.37756 0.9625,0.75485 1.75,1.54235 1.75,1.75 0,0.82304 -0.82119,0.29331 -2.12756,-1.37244 z M 360.5,415 c 0.99549,-1.1 2.03498,-2 2.30998,-2 0.275,0 -0.31449,0.9 -1.30998,2 -0.99549,1.1 -2.03498,2 -2.30998,2 -0.275,0 0.31449,-0.9 1.30998,-2 z m 783.905,-0.25 -1.905,-2.25 2.25,1.90499 c 2.1144,1.79022 2.7052,2.59501 1.905,2.59501 -0.1898,0 -1.2023,-1.0125 -2.25,-2.25 z M 368,406.68709 c 0,-0.1721 1.4625,-1.6346 3.25,-3.25 l 3.25,-2.93709 -2.93709,3.25 C 368.82513,406.77946 368,407.45965 368,406.68709 Z m 766.4371,-2.93709 -2.9371,-3.25 3.25,2.93709 c 3.0295,2.73778 3.7097,3.56291 2.9371,3.56291 -0.1721,0 -1.6346,-1.4625 -3.25,-3.25 z M 393,381.68709 c 0,-0.1721 1.4625,-1.6346 3.25,-3.25 l 3.25,-2.93709 -2.93709,3.25 C 393.82513,381.77946 393,382.45965 393,381.68709 Z m 716.4371,-2.93709 -2.9371,-3.25 3.25,2.93709 c 3.0295,2.73778 3.7097,3.56291 2.9371,3.56291 -0.1721,0 -1.6346,-1.4625 -3.25,-3.25 z M 406.5,369 c 0.99549,-1.1 2.03498,-2 2.30998,-2 0.275,0 -0.31449,0.9 -1.30998,2 -0.99549,1.1 -2.03498,2 -2.30998,2 -0.275,0 0.31449,-0.9 1.30998,-2 z m 691.905,-0.25 -1.905,-2.25 2.25,1.90499 c 2.1144,1.79022 2.7052,2.59501 1.905,2.59501 -0.1898,0 -1.2023,-1.0125 -2.25,-2.25 z M 413,363.62244 c 0,-0.20765 0.7875,-0.99515 1.75,-1.75 1.58606,-1.24387 1.62143,-1.2085 0.37756,0.37756 C 413.82119,363.91575 413,364.44548 413,363.62244 Z M 1090.8724,362.25 c -1.2438,-1.58606 -1.2085,-1.62143 0.3776,-0.37756 0.9625,0.75485 1.75,1.54235 1.75,1.75 0,0.82304 -0.8212,0.29331 -2.1276,-1.37244 z M 702.8125,240.31689 c 0.72187,-0.28887 1.58438,-0.25335 1.91667,0.0789 0.33229,0.33229 -0.25834,0.56864 -1.3125,0.52522 -1.16495,-0.048 -1.4019,-0.28494 -0.60417,-0.60416 z m 99,0 c 0.72187,-0.28887 1.58438,-0.25335 1.91667,0.0789 0.33229,0.33229 -0.25834,0.56864 -1.3125,0.52522 -1.16495,-0.048 -1.4019,-0.28494 -0.60417,-0.60416 z M 713.75,239.33772 c 0.6875,-0.27741 1.8125,-0.27741 2.5,0 0.6875,0.27741 0.125,0.50439 -1.25,0.50439 -1.375,0 -1.9375,-0.22698 -1.25,-0.50439 z m 76,0 c 0.6875,-0.27741 1.8125,-0.27741 2.5,0 0.6875,0.27741 0.125,0.50439 -1.25,0.50439 -1.375,0 -1.9375,-0.22698 -1.25,-0.50439 z m -58,-1.04345 c 1.2375,-0.23836 3.2625,-0.23836 4.5,0 1.2375,0.23835 0.225,0.43337 -2.25,0.43337 -2.475,0 -3.4875,-0.19502 -2.25,-0.43337 z m 38,0 c 1.2375,-0.23836 3.2625,-0.23836 4.5,0 1.2375,0.23835 0.225,0.43337 -2.25,0.43337 -2.475,0 -3.4875,-0.19502 -2.25,-0.43337 z"
         id="path18" />
      <path
         style="fill:#020201"
         d="M 724.30178,1283.0031 C 536.7167,1271.7957 371.57742,1163.9839 286.98625,997.5 256.91412,938.31506 239.38816,877.50234 232.37317,808 c -2.28274,-22.61675 -2.28274,-71.38325 0,-94 8.30223,-82.25592 32.01189,-154.55893 73.06862,-222.82403 80.13811,-133.24574 216.68847,-224.30365 370.61515,-247.14278 27.63895,-4.10098 45.3296,-5.32539 76.94306,-5.32539 72.80099,0 138.00085,13.18645 204.7725,41.41454 172.6583,72.99229 293.2741,235.07673 314.6859,422.87766 2.1857,19.17056 2.1857,96.82944 0,116 -20.031,175.68959 -125.7539,328.1375 -282.9584,408.0138 -58.98779,29.9719 -121.57316,48.0326 -188.65553,54.4416 -19.71854,1.8839 -57.96964,2.6573 -76.54269,1.5477 z m 68.03947,-25.4988 c 64.29046,-5.6714 121.46754,-21.3682 178.15875,-48.9099 23.01618,-11.1817 36.0977,-18.6152 56.5,-32.1058 65.2071,-43.1169 119.5093,-100.8334 158.0508,-167.9886 26.5342,-46.23346 47.8063,-104.09186 57.4367,-156.22268 C 1248.4963,819.75049 1249,812.69063 1249,761 c 0,-51.69063 -0.5037,-58.75049 -6.5125,-91.27732 -9.6304,-52.13082 -30.9025,-109.98922 -57.4367,-156.22268 -27.1899,-47.37599 -66.0345,-94.47238 -106.4025,-129.00583 -51.3541,-43.93165 -107.59383,-75.72187 -171.02271,-96.67272 -100.04996,-33.04695 -209.20122,-33.04695 -309.25118,0 -63.42888,20.95085 -119.66864,52.74107 -171.02273,96.67272 -33.2686,28.46015 -64.26202,63.82296 -89.84031,102.50583 -13.49058,20.40225 -20.92411,33.48382 -32.10581,56.5 -56.87769,117.07585 -66.00026,249.76533 -25.58411,372.12559 20.95085,63.42888 52.74107,119.66861 96.67272,171.02271 28.46015,33.2686 63.82296,64.262 102.50583,89.8403 20.40225,13.4906 33.48382,20.9241 56.5,32.1058 56.00481,27.2082 113.30434,43.033 177,48.8831 19.66562,1.8061 59.51894,1.8195 79.84125,0.027 z M 715.5,1247.4775 c -62.75235,-5.7635 -120.67654,-21.6145 -175,-47.889 C 442.93388,1152.3989 361.60108,1071.0661 314.41152,973.5 282.49536,907.51218 265.01004,832.29923 265.01004,761 c 0,-71.29923 17.48532,-146.51218 49.40148,-212.5 C 361.60108,450.93388 442.93388,369.60108 540.5,322.41152 606.48782,290.49536 681.70077,273.01004 753,273.01004 c 71.29923,0 146.51218,17.48532 212.5,49.40148 97.5661,47.18956 178.8989,128.52236 226.0885,226.08848 23.1866,47.9392 38.1421,98.26488 45.4278,152.86637 1.7273,12.94511 1.9837,20.65192 1.9837,59.63363 0,48.37481 -0.571,56.11473 -6.5125,88.27732 -9.4902,51.37204 -30.2197,108.29416 -55.4356,152.22268 -49.1212,85.574 -124.1215,155.8012 -211.5519,198.0885 -66.89626,32.3555 -142.24391,49.669 -214.5,49.2881 -11.825,-0.062 -27.8,-0.6919 -35.5,-1.3991 z m 70.84125,-9.9732 c 51.54219,-4.5468 97.62379,-15.3695 144.65875,-33.9744 47.0571,-18.6137 91.2429,-45.7338 133.6481,-82.0299 47.5347,-40.6867 91.1049,-97.2123 117.9328,-153 22.2994,-46.37068 37.2778,-97.22497 44.4354,-150.86637 C 1228.7256,804.8236 1229,796.98994 1229,761 c 0,-35.98994 -0.2744,-43.8236 -1.9837,-56.63363 -7.1576,-53.6414 -22.136,-104.49569 -44.4354,-150.86637 -26.8279,-55.7877 -70.3981,-112.31333 -117.9328,-153 C 1022.2429,364.20394 978.0571,337.08377 931,318.47009 883.96504,299.86516 837.88344,289.04249 786.34125,284.49569 710.61366,277.81537 620.429,295.38615 545.5,331.41905 489.7123,358.24702 433.18667,401.81715 392.5,449.35192 356.20394,491.75709 329.08377,535.9429 310.47009,583 c -18.60493,47.03496 -29.4276,93.11656 -33.9744,144.65875 -6.68032,75.72759 10.89046,165.91225 46.92336,240.84125 21.70165,45.1277 55.53698,92.4556 92.58119,129.4998 37.04421,37.0442 84.37204,70.8795 129.49976,92.5811 74.79901,35.9704 165.24503,53.5921 240.84125,46.9234 z M 878.04099,1104.75 c 0.0225,-0.6875 2.24144,-2.2814 4.93088,-3.542 6.44818,-3.0224 18.19947,-15.4942 31.65921,-33.6004 5.76797,-7.7592 19.15674,-25.5826 29.75282,-39.6076 10.59608,-14.025 20.27832,-26.8938 21.51609,-28.5974 l 2.25048,-3.0974 -6.44667,-17.4026 C 958.15813,969.33117 950.86322,948.9 945.4929,933.5 934.56907,902.17468 932.57304,897.66186 926.93744,891.54796 924.77185,889.19857 923,886.76416 923,886.13817 923,885.31483 930.61644,885 950.53446,885 h 27.53445 l -4.17335,5.91781 c -5.53811,7.85304 -5.99941,12.46815 -2.57493,25.76144 1.40411,5.45051 3.61629,12.75343 4.91595,16.22871 l 2.36304,6.31869 -2.46441,5.13668 c -4.26883,8.89773 -2.6826,20.70707 4.75781,35.42137 l 2.76535,5.46881 3.5368,-4.37675 c 14.19093,-17.56114 57.57223,-74.04262 59.01653,-76.8382 2.5192,-4.87625 2.4062,-13.16936 -0.2117,-15.53856 -1.1,-0.99549 -2,-2.19023 -2,-2.65499 0,-0.46475 11.925,-0.84501 26.5,-0.84501 16.909,0 26.5,0.36007 26.5,0.99488 0,0.54718 -1.995,1.93266 -4.4334,3.07883 -5.5626,2.61473 -18.5173,15.96015 -29.0501,29.92629 -4.3553,5.775 -15.0273,19.37206 -23.7155,30.21569 -20.8307,25.99841 -34.8067,44.50084 -34.7769,46.04005 0.013,0.68434 7.8097,23.00466 17.3255,49.60076 16.1088,45.0229 17.6237,48.7546 21.9759,54.1312 2.571,3.1761 4.6745,6.0532 4.6745,6.3935 0,0.3403 -12.15,0.6188 -27,0.6188 -14.85,0 -27,-0.266 -27,-0.591 0,-0.3251 1.58152,-2.4387 3.51448,-4.697 6.89172,-8.0514 6.79252,-15.6771 -0.49487,-38.0215 l -3.90691,-11.9794 2.65254,-5.1055 c 2.11864,-4.078 2.66081,-6.5284 2.69365,-12.1745 0.0368,-6.3346 -0.39408,-7.9449 -4.14796,-15.5 -2.30399,-4.6371 -4.79413,-9.2476 -5.53365,-10.2455 -1.2183,-1.6439 -4.2431,1.9165 -32.20714,37.9107 -32.00791,41.1992 -34.38457,44.9344 -33.09696,52.0164 0.31126,1.712 1.45713,3.9192 2.54638,4.905 1.08924,0.9858 1.98044,2.1725 1.98044,2.6373 0,0.4647 -11.475,0.845 -25.5,0.845 -19.75519,0 -25.49077,-0.2816 -25.45901,-1.25 z M 655.5,1103.3103 c -13.08954,-1.7017 -36.10487,-9.5591 -53.2278,-18.1718 -4.52529,-2.2762 -8.74089,-4.1385 -9.36799,-4.1385 -0.6271,0 -2.75405,1.417 -4.72656,3.1489 -6.44317,5.6572 -13.60836,8.2463 -22.67765,8.1944 -6.09444,-0.035 -8.98236,-0.5471 -12.12421,-2.1506 -4.83768,-2.4692 -8.76531,-6.825 -10.29483,-11.4173 -0.86941,-2.6104 -3.17108,-4.6148 -11.33594,-9.8723 l -10.24502,-6.5969 -3.78136,-11.9754 c -4.32562,-13.699 -5.59759,-15.9257 -9.59947,-16.8046 -3.72696,-0.8186 -24.38303,-20.3737 -31.1897,-29.5273 -2.80039,-3.7659 -5.66706,-7.06796 -6.37038,-7.33785 -0.70332,-0.26989 -1.78742,-2.44154 -2.40911,-4.82588 -1.95276,-7.4893 -5.19165,-11.98314 -10.64998,-14.77643 -4.63572,-2.37232 -5.85424,-2.54066 -16.72524,-2.31053 l -11.72525,0.24822 -1.52475,-2.94856 C 426.68614,970.42617 426,968.15463 426,967 c 0,-2.49183 2.27837,-7.15621 4.32535,-8.85505 0.80148,-0.66517 1.75378,-3.18693 2.11622,-5.60391 1.25916,-8.39664 7.32682,-14.02965 16.427,-15.25024 3.09769,-0.41548 4.14624,-1.1686 5.71275,-4.10315 2.13038,-3.99085 6.23428,-9.1869 7.25757,-9.18901 0.36361,-7.5e-4 0.50696,2.47425 0.31856,5.5 L 461.8149,935 h 5.41105 c 7.95634,0 14.75377,-2.35212 18.76881,-6.4946 3.06241,-3.1596 3.43191,-4.12421 3.36456,-8.78361 -0.0416,-2.87882 -0.82112,-7.79852 -1.73224,-10.93265 l -1.65658,-5.69843 -6.73525,-0.29536 L 472.5,902.5 l 5,-2.92797 c 2.75,-1.61038 5.14896,-3.03434 5.33102,-3.16435 0.18206,-0.13001 -0.15382,-1.14233 -0.74641,-2.24959 -1.54612,-2.88895 -0.40859,-4.89606 3.50728,-6.18842 8.63332,-2.84925 26.88524,5.2532 44.90811,19.93576 4.85554,3.95562 5.21669,4.07351 12.5,4.0802 8.9872,0.008 13.16087,-2.02307 15.084,-7.34138 l 1.26358,-3.49436 6.97678,3.51345 c 6.22993,3.13735 7.23657,3.37442 9.40364,2.21464 3.66938,-1.96379 3.98878,-3.45321 3.29774,-15.37798 -0.35059,-6.05 -0.34237,-11.35993 0.0183,-11.79985 1.04712,-1.27732 15.40394,6.65382 22.57837,12.47297 19.07422,15.47102 34.06832,40.26175 53.42248,88.32688 10.60342,26.3331 16.36505,39.086 21.61836,47.8505 11.58514,19.3284 31.34485,40.1915 49.67469,52.4484 10.22056,6.8344 10.57477,7.1879 7.93026,7.915 -3.80968,1.0475 -47.82909,0.9845 -58.26816,-0.083 l -8.5,-0.8696 4.5,4.1473 c 2.475,2.281 6.975,5.5973 10,7.3695 l 5.5,3.2223 -5.5,0.6511 c -5.92169,0.701 -21.60756,0.7953 -26.5,0.1592 z m 13.45668,-4.0603 c -0.0238,-0.4125 -3.06737,-2.882 -6.76342,-5.4877 -8.60079,-6.0636 -17.37444,-14.0242 -14.69326,-13.3316 14.87554,3.8427 55.65439,6.9315 64.73253,4.9032 l 3.73253,-0.8339 -8.07135,-5.9588 C 688.51351,1064.2334 667.14923,1036.6003 652.96885,1007.5 649.21669,999.8 643.13238,985.175 639.44817,975 626.54762,939.37141 620.42949,927.702 603.5,906.43422 l -10,-12.56256 -0.3082,11.81417 c -0.16951,6.49779 0.21373,14.32745 0.85164,17.39923 1.07926,5.19701 1.90037,6.34343 11.81804,16.5 6.16824,6.31682 11.44842,12.69015 12.53399,15.12891 1.78619,4.01271 1.7993,4.63055 0.27429,12.93587 -0.88083,4.79704 -3.16582,14.15075 -5.07776,20.78602 -1.91194,6.63528 -3.87309,14.53914 -4.35813,17.56414 l -0.88187,5.5 -3.23719,-6.9796 c -1.78046,-3.8388 -2.87216,-7.1086 -2.426,-7.26626 2.61159,-0.92286 3.62164,-2.68574 5.31852,-9.28264 5.14692,-20.00948 3.09536,-34.94928 -6.26347,-45.61153 -4.0506,-4.61474 -24.07716,-17.7148 -30.32301,-19.83532 -5.45034,-1.85044 -13.01571,-2.15663 -27.03866,-1.09431 l -10.11781,0.76648 -2.89053,-4.3039 c -4.08633,-6.08439 -10.40055,-10.53972 -18.36616,-12.9592 -5.24722,-1.5938 -7.33263,-1.83019 -8.873,-1.0058 -2.00269,1.0718 -2.00039,1.11664 0.42368,8.24369 1.34053,3.94132 2.32579,7.24315 2.18948,7.33742 -0.13632,0.0943 -5.64785,3.79065 -12.24785,8.21419 -11.89644,7.97339 -12.06904,8.04878 -20,8.73617 -17.43181,1.51084 -28.82712,5.05783 -32.04963,9.97602 -0.86839,1.32532 -1.84316,4.97027 -2.16617,8.09987 l -0.58728,5.6902 3.27646,-0.71963 c 3.90337,-0.85733 4.989,0.35277 5.01131,5.58586 0.0141,3.31445 0.32152,3.68346 3.98205,4.78018 2.18171,0.65366 7.01921,3.27897 10.75,5.83404 l 6.78326,4.64557 10.6025,0.42983 c 12.32009,0.49945 11.52397,1.17958 12.92342,-11.04048 1.5412,-13.45777 6.6708,-21.52144 16.79221,-26.39715 4.59827,-2.21509 7.11252,-2.74475 13.1835,-2.77724 6.58275,-0.0352 8.17512,0.33983 13,3.06195 19.67877,11.10243 11.18148,41.27713 -11.02295,39.14356 -12.92746,-1.24216 -19.02546,-15.45246 -10.35274,-24.12518 8.49725,-8.49725 23.69503,-2.84076 22.44329,8.35321 -0.1872,1.67408 -5.98911,7.41346 -6.73759,6.66497 -0.26259,-0.26258 -0.0203,-2.13292 0.53836,-4.15631 2.48695,-9.00699 -5.70169,-13.71787 -12.62,-7.26022 -2.92424,2.72953 -3.02192,8.5005 -0.20451,12.08226 4.56534,5.80389 15.41821,5.32202 20.90601,-0.92824 7.02193,-7.99753 3.8019,-20.88496 -6.3729,-25.50613 -13.43881,-6.1036 -31.40276,3.51228 -34.09619,18.25129 -1.19547,6.54181 5.08374,16.94899 13.28406,22.01707 l 3.62662,2.24137 -5.17472,2.26791 c -7.77897,3.40927 -20.26666,6.41992 -20.69911,4.99034 -0.19372,-0.64037 -0.6331,-2.44056 -0.9764,-4.00043 C 487.83308,990.43889 483.82159,986 481.61688,986 c -2.03681,0 -4.48973,2.64523 -5.2456,5.65685 -1.51727,6.04526 8.47422,19.43105 20.01379,26.81275 6.10657,3.9064 15.37194,7.5304 19.25243,7.5304 1.72105,0 2.48285,0.7138 2.93485,2.75 1.53033,6.8939 4.7988,16.2335 7.24756,20.7099 2.28264,4.1726 3.42157,5.1576 7.68009,6.6421 5.55535,1.9366 11.5,2.4188 11.5,0.9328 0,-0.5309 1.38904,-2.5472 3.08675,-4.4808 3.07198,-3.4988 3.1019,-3.5079 6.25,-1.9076 1.73979,0.8844 3.31646,1.7414 3.50371,1.9046 0.18725,0.1631 -1.32804,3.9919 -3.36732,8.5085 -3.10804,6.8836 -3.61086,8.9191 -3.10856,12.5838 1.08319,7.9026 4.97262,11.3567 12.78823,11.3567 h 4.0587 l -3.04848,-2.8477 c -5.08441,-4.7496 -5.41662,-11.4818 -1.08081,-21.9023 2.36216,-5.6772 2.56716,-5.8327 5.12551,-3.8889 1.59534,1.2122 1.54754,1.6872 -0.72626,7.2182 -2.93403,7.137 -3.0272,9.0154 -0.64088,12.9207 2.32227,3.8005 6.27434,5.939 9.4861,5.1329 4.72217,-1.1852 12.33704,-8.2463 15.19693,-14.0917 4.56865,-9.3379 3.11975,-24.0579 -3.09505,-31.4437 l -2.39009,-2.8405 4.65568,-1.778 4.65568,-1.778 2.27383,2.8516 c 1.25061,1.5685 2.80595,5.0698 3.45631,7.7808 1.655,6.8988 0.6617,20.8812 -1.94682,27.4046 l -2.09453,5.238 6.23068,4.0449 c 10.32097,6.7002 31.08111,16.5847 39.73903,18.9209 11.02616,2.9752 25.03641,4.833 24.94834,3.3082 z M 498.80178,987.81747 c 0.17538,-0.92539 -0.5461,-2.14545 -1.60331,-2.71125 -2.54116,-1.35999 -5.80707,0.86541 -4.86664,3.31614 0.86087,2.24338 6.02158,1.76089 6.46995,-0.60489 z M 944.62272,640.12673 C 929.75092,632.43091 918.43306,621.32469 905.76944,602 896.85432,588.39553 888.43596,571.01206 876.95515,542.5 866.35173,516.16692 860.5901,503.41401 855.33679,494.64949 843.75165,475.32105 823.99194,454.45801 805.6621,442.2011 c -10.22056,-6.83435 -10.57477,-7.18788 -7.93026,-7.91501 3.80968,-1.0475 47.82909,-0.98446 58.26816,0.0835 l 8.5,0.86954 -4.5,-4.14729 c -2.475,-2.28101 -6.975,-5.59599 -10,-7.36661 l -5.5,-3.21931 6.5,-0.80487 c 22.42932,-2.77734 49.52957,3.47399 78.7278,18.16047 4.52529,2.27619 8.74089,4.13852 9.36799,4.13852 0.6271,0 2.75405,-1.417 4.72656,-3.14889 6.44317,-5.65717 13.60836,-8.24628 22.67765,-8.19445 6.09444,0.0348 8.98236,0.54711 12.12421,2.15068 4.83768,2.46911 8.76531,6.82496 10.29483,11.41726 0.86941,2.61036 3.17108,4.61484 11.33596,9.87229 l 10.245,6.59689 3.7814,11.97538 c 4.3256,13.69901 5.5976,15.92571 9.5994,16.80467 3.727,0.81857 24.3831,20.37364 31.1897,29.52722 2.8004,3.76596 5.6671,7.06801 6.3704,7.3379 0.7033,0.26989 1.7874,2.44154 2.4091,4.82588 1.9528,7.4893 5.1917,11.98314 10.65,14.77643 4.6357,2.37232 5.8542,2.54066 16.7252,2.31053 l 11.7253,-0.24822 1.5247,2.94856 c 0.8387,1.6217 1.5248,3.89324 1.5248,5.04787 0,2.49183 -2.2784,7.15621 -4.3254,8.85505 -0.8014,0.66517 -1.7537,3.18693 -2.1162,5.60391 -1.2591,8.39664 -7.3268,14.02965 -16.427,15.25024 -3.0977,0.41548 -4.1462,1.1686 -5.7127,4.10315 -2.1304,3.99085 -6.2343,9.1869 -7.2576,9.18901 -0.3636,7.5e-4 -0.507,-2.47425 -0.3186,-5.5 l 0.3426,-5.50136 h -5.411 c -7.9564,0 -14.7538,2.35212 -18.7689,6.4946 -3.0624,3.1596 -3.4319,4.12421 -3.3645,8.78361 0.042,2.87882 0.8211,7.79852 1.7322,10.93265 l 1.6566,5.69843 6.7353,0.29536 6.7352,0.29535 -5,2.92797 c -2.75,1.61038 -5.149,3.03434 -5.331,3.16435 -0.1821,0.13001 0.1538,1.14233 0.7464,2.24959 1.5461,2.88895 0.4086,4.89606 -3.5073,6.18842 -8.6333,2.84925 -26.8852,-5.2532 -44.9081,-19.93576 -4.85554,-3.95562 -5.21669,-4.07351 -12.5,-4.0802 -8.9872,-0.008 -13.16087,2.02307 -15.084,7.34138 l -1.26358,3.49436 -6.97678,-3.51345 c -6.22993,-3.13735 -7.23657,-3.37442 -9.40364,-2.21464 -3.66938,1.96379 -3.98878,3.45321 -3.29774,15.37798 0.35059,6.05 0.34237,11.35993 -0.0183,11.79985 -0.36064,0.43992 -4.11061,-0.98798 -8.33328,-3.17312 z m -6.66616,-40.21179 c -1.07926,-5.19701 -1.90037,-6.34343 -11.81804,-16.5 -6.16824,-6.31682 -11.44842,-12.69015 -12.53399,-15.12891 -1.78619,-4.01271 -1.7993,-4.63055 -0.27429,-12.93587 0.88083,-4.79704 3.16582,-14.15075 5.07776,-20.78602 1.91194,-6.63528 3.87309,-14.53914 4.35813,-17.56414 l 0.88187,-5.5 3.23719,6.9796 c 1.78046,3.83878 2.87216,7.1086 2.426,7.26626 -2.61159,0.92286 -3.62164,2.68574 -5.31852,9.28264 -5.14692,20.00948 -3.09536,34.94928 6.26347,45.61153 4.0506,4.61474 24.07716,17.7148 30.32301,19.83532 5.45034,1.85044 13.01571,2.15663 27.03866,1.09431 l 10.11781,-0.76648 2.89058,4.3039 c 4.0863,6.08439 10.4005,10.53972 18.3661,12.9592 5.2472,1.5938 7.3326,1.83019 8.873,1.0058 2.0027,-1.0718 2.0004,-1.11664 -0.4237,-8.24369 -1.3405,-3.94132 -2.3258,-7.24315 -2.1894,-7.33742 0.1363,-0.0943 5.6478,-3.79065 12.2478,-8.21419 11.8964,-7.97339 12.069,-8.04878 20,-8.73617 17.4318,-1.51084 28.8271,-5.05783 32.0496,-9.97602 0.8684,-1.32532 1.8432,-4.97027 2.1662,-8.09987 l 0.5873,-5.6902 -3.2765,0.71963 c -3.9033,0.85733 -4.989,-0.35277 -5.0113,-5.58586 -0.014,-3.31445 -0.3215,-3.68346 -3.982,-4.78018 -2.1818,-0.65366 -7.0193,-3.27897 -10.75,-5.83404 l -6.7833,-4.64557 -10.6025,-0.42983 c -12.3201,-0.49945 -11.524,-1.17958 -12.9234,11.04048 -1.5412,13.45777 -6.6708,21.52144 -16.7922,26.39715 -4.5983,2.21509 -7.1126,2.74475 -13.1835,2.77724 -6.5828,0.0352 -8.1752,-0.33983 -13.00003,-3.06195 -19.67877,-11.10243 -11.18148,-41.27713 11.02293,-39.14356 12.936,1.24298 19.0251,15.45288 10.3423,24.13561 -8.4875,8.4875 -23.68363,2.82192 -22.43283,-8.36364 0.1872,-1.67408 5.98913,-7.41346 6.73763,-6.66497 0.2625,0.26258 0.02,2.13292 -0.5384,4.15631 -2.48695,9.00699 5.7017,13.71787 12.62,7.26022 2.9242,-2.72953 3.0219,-8.5005 0.2045,-12.08226 -4.5653,-5.80389 -15.4182,-5.32202 -20.906,0.92824 -7.02193,7.99753 -3.8019,20.88496 6.3729,25.50613 13.4388,6.1036 31.4028,-3.51228 34.0962,-18.25129 1.1955,-6.54181 -5.0837,-16.94899 -13.2841,-22.01707 l -3.6266,-2.24137 5.1747,-2.26791 c 7.779,-3.40927 20.2667,-6.41992 20.6991,-4.99034 0.1938,0.64037 0.6331,2.44056 0.9764,4.00043 0.7098,3.22499 4.7213,7.66388 6.926,7.66388 2.0368,0 4.4898,-2.64523 5.2456,-5.65685 1.5173,-6.04526 -8.4742,-19.431 -20.0138,-26.81278 C 1029.5084,500.62405 1020.243,497 1016.3625,497 c -1.721,0 -2.4829,-0.71382 -2.9349,-2.75 -1.5303,-6.89388 -4.7988,-16.23353 -7.2475,-20.70985 -2.2827,-4.17269 -3.4216,-5.15769 -7.6801,-6.64218 -5.55535,-1.93655 -11.5,-2.41872 -11.5,-0.93277 0,0.53087 -1.38904,2.54723 -3.08675,4.48082 -3.07198,3.49879 -3.1019,3.50792 -6.25,1.90762 -1.73979,-0.88439 -3.31646,-1.74147 -3.50371,-1.90461 -0.18725,-0.16314 1.32804,-3.99198 3.36732,-8.50853 3.10804,-6.88361 3.61086,-8.91908 3.10856,-12.58378 C 979.55223,441.45405 975.6628,438 967.84719,438 h -4.0587 l 3.04848,2.84771 c 5.08441,4.74955 5.41662,11.48175 1.08081,21.90229 -2.36216,5.67716 -2.56716,5.83269 -5.12551,3.88886 -1.59534,-1.21213 -1.54754,-1.68719 0.72626,-7.21819 2.93403,-7.13699 3.0272,-9.01532 0.64088,-12.92067 -2.32227,-3.80052 -6.27434,-5.93895 -9.4861,-5.13285 -4.72217,1.18519 -12.33704,8.2462 -15.19693,14.0916 -4.56865,9.33799 -3.11975,24.0579 3.09505,31.44378 l 2.39009,2.84045 -4.65568,1.77802 -4.65568,1.77802 -2.27383,-2.85166 c -1.25061,-1.56842 -2.80595,-5.06975 -3.45631,-7.78074 -1.655,-6.89885 -0.6617,-20.88123 1.94682,-27.40464 l 2.09453,-5.23803 -6.23068,-4.0484 C 916.16304,438.45944 896.03189,429.12574 886,426.62734 c -10.23892,-2.54995 -23.02703,-4.1683 -22.95668,-2.90519 0.0238,0.42782 3.06737,2.90982 6.76342,5.51556 8.60079,6.06362 17.37444,14.02417 14.69326,13.33157 -14.87554,-3.84265 -55.65439,-6.93147 -64.73253,-4.90321 l -3.73253,0.83393 8.07135,5.95883 c 19.3802,14.30782 40.74448,41.9409 54.92486,71.04117 3.75216,7.7 9.83647,22.325 13.52068,32.5 12.90055,35.62859 19.01868,47.298 35.94817,68.56578 l 10,12.56256 0.3082,-11.81417 c 0.16951,-6.49779 -0.21373,-14.32745 -0.85164,-17.39923 z m 101.84524,-64.73241 c -0.4484,-2.36578 -5.6091,-2.84827 -6.47,-0.60489 -0.9404,2.45073 2.3255,4.67613 4.8667,3.31614 1.0572,-0.5658 1.7787,-1.78586 1.6033,-2.71125 z M 435,637.00512 c 0,-0.54718 1.99504,-1.93266 4.43343,-3.07883 5.56259,-2.61473 18.51725,-15.96015 29.05003,-29.92629 4.35531,-5.775 15.02729,-19.37206 23.71552,-30.21569 20.83068,-25.99841 34.80673,-44.50084 34.77695,-46.04005 -0.0132,-0.68434 -7.80974,-23.00468 -17.32555,-49.60075 C 493.54164,433.12063 492.02665,429.38892 487.67445,424.0123 485.1035,420.8362 483,417.95912 483,417.61879 483,417.27846 495.15,417 510,417 c 14.85,0 27,0.26597 27,0.59104 0,0.32507 -1.58152,2.43868 -3.51448,4.69691 -6.89174,8.05145 -6.79249,15.67712 0.49487,38.02157 l 3.90691,11.97937 -2.65254,5.10555 c -2.11864,4.07792 -2.66081,6.52838 -2.69365,12.17451 -0.0368,6.33458 0.39408,7.94482 4.14796,15.5 2.30399,4.63708 4.79413,9.24751 5.53365,10.24541 1.2183,1.64397 4.2431,-1.91649 32.20714,-37.91061 32.00791,-41.19925 34.38457,-44.93449 33.09696,-52.01646 -0.31126,-1.71199 -1.45713,-3.91924 -2.54638,-4.90499 C 603.8912,419.49655 603,418.30977 603,417.84501 603,417.38026 614.475,417 628.5,417 c 27.77685,0 29.76271,0.46357 20.52813,4.79198 -6.44818,3.02237 -18.19947,15.49421 -31.65921,33.60046 C 611.60095,463.1516 598.21218,480.975 587.6161,495 c -10.59608,14.025 -20.27832,26.89383 -21.51609,28.5974 l -2.25048,3.0974 6.44667,17.4026 c 3.54567,9.57143 10.84058,30.0026 16.2109,45.4026 10.92383,31.32532 12.91986,35.83814 18.55546,41.95204 2.16559,2.34939 3.93744,4.7838 3.93744,5.40979 C 609,637.68517 601.38356,638 581.46554,638 h -27.53445 l 4.17335,-5.91781 c 5.53811,-7.85304 5.99941,-12.46815 2.57493,-25.76144 -1.40411,-5.45051 -3.61629,-12.75343 -4.91595,-16.22871 l -2.36304,-6.31869 2.46441,-5.13668 c 4.26883,-8.89773 2.6826,-20.70707 -4.75781,-35.42137 l -2.76535,-5.46881 -3.5368,4.37675 c -14.19095,17.56114 -57.57226,74.04262 -59.01654,76.8382 -2.51922,4.87625 -2.40623,13.16936 0.21171,15.53856 1.1,0.99549 2,2.19023 2,2.65499 C 488,637.61974 476.075,638 461.5,638 444.59097,638 435,637.63993 435,637.00512 Z"
         id="path16" />
    </g>
  </g>
</svg>
