<?xml version="1.0" encoding="UTF-8" standalone="no"?>
<svg
   xmlns:dc="http://purl.org/dc/elements/1.1/"
   xmlns:cc="http://creativecommons.org/ns#"
   xmlns:rdf="http://www.w3.org/1999/02/22-rdf-syntax-ns#"
   xmlns:svg="http://www.w3.org/2000/svg"
   xmlns="http://www.w3.org/2000/svg"
   xmlns:sodipodi="http://sodipodi.sourceforge.net/DTD/sodipodi-0.dtd"
   xmlns:inkscape="http://www.inkscape.org/namespaces/inkscape"
   version="1.1"
   id="svg2"
   width="1044.5309"
   height="1337.2346"
   viewBox="0 0 1044.5309 1337.2346"
   sodipodi:docname="Greyholt.svg"
   inkscape:version="1.0.1 (3bc2e813f5, 2020-09-07)">
  <metadata
     id="metadata8">
    <rdf:RDF>
      <cc:Work
         rdf:about="">
        <dc:format>image/svg+xml</dc:format>
        <dc:type
           rdf:resource="http://purl.org/dc/dcmitype/StillImage" />
        <dc:title></dc:title>
      </cc:Work>
    </rdf:RDF>
  </metadata>
  <defs
     id="defs6" />
  <sodipodi:namedview
     pagecolor="#ffffff"
     bordercolor="#666666"
     borderopacity="1"
     objecttolerance="10"
     gridtolerance="10"
     guidetolerance="10"
     inkscape:pageopacity="0"
     inkscape:pageshadow="2"
     inkscape:window-width="1920"
     inkscape:window-height="1057"
     id="namedview4"
     showgrid="false"
     inkscape:pagecheckerboard="true"
     inkscape:zoom="0.49"
     inkscape:cx="1102.413"
     inkscape:cy="636.98036"
     inkscape:window-x="-8"
     inkscape:window-y="-8"
     inkscape:window-maximized="1"
     inkscape:current-layer="g10" />
  <g
     inkscape:groupmode="layer"
     inkscape:label="Image"
     id="g10"
     transform="translate(-229.30974,-75.633604)">
    <path
       style="fill:#ffffff;fill-opacity:1;stroke:none;stroke-width:1px;stroke-linecap:butt;stroke-linejoin:miter;stroke-opacity:1"
       d="m 516.62087,122.66138 -247.61788,90.7357 -7.8064,422.99902 673.91605,662.3715 187.59976,-173.1691 109.6737,-246.76579 -46.1784,-668.14375 -189.04283,-90.91373 z"
       id="path20" />
    <g
       id="g14">
      <path
         style="fill:#5c675e"
         d="m 747.5,1397.3659 c -1.1,-0.2935 -8.525,-2.1102 -16.5,-4.037 -14.18113,-3.4263 -43.32179,-12.5579 -45.43521,-14.2378 -0.58563,-0.4655 -2.18979,-1.1695 -3.56479,-1.5645 -9.88481,-2.8396 -55.24625,-26.5228 -80.49363,-42.0257 -38.40843,-23.5844 -81.22471,-56.0015 -114.98772,-87.0596 -31.22519,-28.7235 -71.38089,-71.776 -90.05297,-96.5493 -1.08112,-1.4344 -5.16475,-6.8344 -9.07472,-12 C 372.41681,1120.1091 345,1080.3764 345,1078.4586 c 0,-0.241 -1.93799,-3.4802 -4.30663,-7.1984 -4.3013,-6.7518 -19.26764,-33.5267 -26.13752,-46.7602 -8.80951,-16.9698 -21.37418,-45.6207 -27.62824,-63 -2.17713,-6.05 -4.39322,-11.9 -4.92464,-13 -2.13926,-4.42816 -9.57279,-28.27407 -14.18379,-45.5 -5.38292,-20.10968 -10.39767,-45.96338 -13.38367,-69 -2.3577,-18.18931 -3.44278,-73.54699 -7.0075,-357.5 -0.84236,-67.1 -1.97989,-153.95 -2.52784,-193 -0.54795,-39.05 -0.83662,-73.5435 -0.64148,-76.65223 0.55016,-8.76473 3.30381,-11.60035 18.28603,-18.83034 C 269.40296,184.70785 275.22271,182 275.47749,182 c 0.25478,0 2.83908,-1.08362 5.74287,-2.40805 2.9038,-1.32443 9.32964,-4.05466 14.27964,-6.06718 4.95,-2.01252 10.35,-4.25384 12,-4.98072 1.65,-0.72687 4.125,-1.64669 5.5,-2.04405 1.375,-0.39736 3.85,-1.33092 5.5,-2.0746 8.13278,-3.66553 57.84216,-20.51683 71.5,-24.23824 1.925,-0.52452 8.9,-2.53641 15.5,-4.47088 6.6,-1.93448 18.75,-5.14563 27,-7.13591 8.25,-1.99028 17.475,-4.29611 20.5,-5.12407 9.99569,-2.73585 43.71277,-9.5045 64.24658,-12.89739 8.11061,-1.34015 15.08561,-2.64207 15.5,-2.89314 0.41438,-0.25108 6.82842,-1.1913 14.25342,-2.08937 7.425,-0.89808 15.3,-2.07256 17.5,-2.60997 3.48438,-0.85114 21.17021,-2.973083 50.5,-6.058973 8.36645,-0.880264 33.06644,-2.854531 64.5,-5.155476 20.38909,-1.492488 161.96722,-1.485097 179,0.0093 6.6,0.579078 22.0036,1.780846 34.23021,2.670596 12.22662,0.889749 25.72662,2.011313 30,2.492363 4.27339,0.48105 16.54479,1.811015 27.26979,2.955478 10.725,1.144472 20.625,2.317202 22,2.606092 1.375,0.28888 10.375,1.63879 20,2.9998 70.9088,10.02676 139.776,25.592 197,44.52558 14.2132,4.70271 36.8097,12.68053 39.5,13.94571 1.1,0.51731 6.6821,2.84825 12.4047,5.17987 11.4942,4.68317 16.6303,8.79955 17.5911,14.09844 0.7942,4.37975 -0.6151,131.92666 -4.544,411.26475 -0.5724,40.7 -1.4594,107.075 -1.9711,147.5 -0.6328,50.00168 -1.3859,77.97587 -2.3555,87.5 -1.8887,18.55298 -5.4234,44.254 -6.6015,48 -0.5189,1.65 -1.4526,6.15 -2.0749,10 -3.7931,23.46617 -20.9517,80.84363 -29.9764,100.2391 -1.0848,2.33151 -1.9724,4.4937 -1.9724,4.80487 0,0.31116 -0.8471,2.45357 -1.8824,4.76089 -1.0354,2.30733 -3.3441,7.57018 -5.1305,11.69518 -5.0903,11.7539 -15.9112,33.2371 -24.9661,49.5662 -54.2018,97.7442 -138.5276,187.3593 -240.021,255.076 -32.89311,21.9464 -70.84629,43.5071 -97.5,55.3885 -2.75,1.2258 -9.275,4.2478 -14.5,6.7155 -19.07907,9.0107 -30.73693,13.7875 -44.5,18.234 -8.06746,2.6064 -12.02917,3.2973 -20.5,3.5752 -5.775,0.1894 -11.4,0.1041 -12.5,-0.1895 z m 28.17616,-28.8315 c 14.00942,-4.8244 18.67035,-6.7375 35.69245,-14.65 49.37254,-22.9503 77.23044,-38.4239 114.42101,-63.5551 74.54618,-50.3739 136.69088,-109.8711 187.83138,-179.8293 57.3002,-78.3845 96.3442,-172.45602 107.9119,-260 4.1387,-31.32079 4.5388,-39.63686 5.4607,-113.5 0.5046,-40.425 1.3858,-106.8 1.9582,-147.5 2.3553,-167.4579 4.4133,-334.93284 4.4786,-364.45917 l 0.07,-31.45918 -8.5,-3.36809 c -17.8603,-7.07708 -46.3929,-16.9779 -65,-22.55502 -8.0012,-2.39821 -18.3336,-5.3047 -34.5,-9.70489 -18.4424,-5.01965 -65.6353,-15.48095 -83.247,-18.45344 -5.0859,-0.85839 -9.8109,-1.76774 -10.5,-2.02079 -1.4802,-0.54352 -22.5289,-3.78754 -42.253,-6.51204 -7.7,-1.06361 -16.7,-2.41024 -20,-2.99252 -3.3,-0.58228 -14.325,-1.95628 -24.5,-3.05333 -10.175,-1.09706 -22.325,-2.42742 -27,-2.95637 -4.675,-0.52895 -18.175,-1.65782 -30,-2.50858 -11.825,-0.85077 -27.125,-2.0427 -34,-2.64874 -17.374,-1.53153 -148.67322,-1.57218 -169.5,-0.0525 -32.81296,2.39433 -55.27751,4.19502 -64.5,5.17014 -27.30422,2.88694 -45.97805,5.13174 -50,6.01053 -2.475,0.54079 -10.31641,1.69863 -17.42536,2.57297 -7.10894,0.87435 -13.21823,1.77072 -13.57618,1.99195 -0.35795,0.22123 -5.34154,1.12464 -11.07464,2.00757 -29.61771,4.56134 -85.6698,17.06288 -114.92382,25.63195 -5.775,1.69162 -12.075,3.50872 -14,4.038 -13.32026,3.66248 -60.64102,19.67484 -70,23.68656 -1.375,0.58939 -7.675,3.07182 -14,5.51651 -12.15628,4.69856 -33.28935,13.75459 -41.24851,17.676 l -4.7485,2.33954 0.50362,52.05146 c 0.27698,28.6283 0.95461,69.15146 1.50583,90.05146 0.55122,20.9 1.48115,86.15 2.06652,145 2.19515,220.69127 3.9119,309.84037 6.31631,328 3.18033,24.01978 7.70072,47.911 12.10927,64 6.95383,25.37802 9.17989,32.31042 18.7849,58.5 14.93644,40.72659 34.82973,79.87162 64.0325,126.00002 8.51454,13.4495 21.69429,31.87 42.14374,58.9016 18.39,24.3093 56.54555,65.3269 86.12345,92.5835 50.91135,46.9158 110.44584,87.937 167.43634,115.3693 26.69758,12.8508 43.67509,19.0415 70.09149,25.5583 17.10015,4.2186 21.04119,4.1212 35.5592,-0.8783 z m -32.63143,-9.2645 c -15.3714,-3.6578 -35.93588,-10.185 -48.02406,-15.2428 -57.88996,-24.2218 -129.14295,-71.6709 -185.20232,-123.3308 -29.32048,-27.0195 -67.03288,-67.5782 -85.35267,-91.7947 -20.44945,-27.0316 -33.6292,-45.4521 -42.14374,-58.9016 -28.95193,-45.7322 -47.28422,-81.78648 -62.0325,-122 -9.60501,-26.18958 -11.83107,-33.12198 -18.7849,-58.5 -4.40855,-16.089 -8.92894,-39.98022 -12.10927,-64 -0.83126,-6.27826 -1.8731,-27.5261 -2.42711,-49.5 -0.93488,-37.08012 -2.92303,-167.28091 -2.56089,-167.70862 0.0971,-0.11474 148.19642,147.81168 329.10949,328.72538 312.32459,312.32564 328.83314,329.00954 326.95805,330.43044 -5.04571,3.8236 -40.8435,27.7591 -47.97481,32.0774 -39.76757,24.0813 -87.929,47.8978 -118.5,58.5998 -14.1022,4.9368 -14.89899,4.9663 -30.95527,1.1455 z M 848.54955,511.04955 C 532.42567,194.92475 489.92184,152.07047 492.0658,151.62651 c 10.33932,-2.14099 30.22937,-5.78262 38.85802,-7.11443 5.7331,-0.8849 10.71669,-1.7899 11.07464,-2.01113 0.35795,-0.22123 6.46724,-1.1176 13.57618,-1.99195 7.10895,-0.87434 14.95036,-2.03218 17.42536,-2.57297 4.02195,-0.87879 22.69578,-3.12359 50,-6.01053 9.25355,-0.9784 32.04101,-2.80413 64.5,-5.16772 20.72546,-1.50918 146.17943,-1.46793 163.5,0.0538 6.875,0.604 22.175,1.79427 34,2.64504 11.825,0.85076 25.325,1.97963 30,2.50858 4.675,0.52895 16.825,1.85931 27,2.95637 10.175,1.09705 21.2,2.47105 24.5,3.05333 3.3,0.58228 12.3,1.92891 20,2.99252 19.7241,2.7245 40.7728,5.96852 42.253,6.51204 0.6891,0.25305 5.4141,1.1624 10.5,2.02079 17.6117,2.97249 64.8046,13.43379 83.247,18.45344 27.162,7.39297 37.6673,10.48817 54.5,16.05758 11.9027,3.93823 32.7699,11.39193 41.5,14.82371 l 5,1.96548 -0.073,26.34979 c -0.071,25.43801 -2.3269,206.61769 -4.4751,359.34979 -0.5724,40.7 -1.4536,107.075 -1.9582,147.5 -0.6442,51.60834 -1.3542,77.66984 -2.3838,87.5 -1.9804,18.90691 -5.3796,43.70342 -6.351,46.32939 -0.6957,1.88073 -44.1494,-41.21906 -359.70925,-356.77984 z M 867.91538,488.75 c 7.91635,-6.75303 15.19859,-12.22799 20.42299,-15.3545 2.6611,-1.59253 6.0361,-3.64748 7.5,-4.56657 5.17483,-3.24893 26.74249,-13.71292 32.66163,-15.84644 5.52731,-1.99229 9.20838,-3.11388 24.5,-7.46494 13.36048,-3.80157 26.06379,-4.77961 64,-4.92742 13.4674,-0.0525 33.4496,2.18713 39.7791,4.45844 3.1465,1.1291 8.7983,2.69017 12.5596,3.46904 3.7613,0.77888 9.6113,2.5394 13,3.91228 12.7632,5.1708 26.8456,11.56327 29.4557,13.37091 1.4881,1.03056 3.3806,2.16911 4.2056,2.53011 0.825,0.361 2.389,1.22172 3.4756,1.91273 1.0866,0.691 4.2366,2.659 7,4.37334 2.7634,1.71434 5.9949,3.96434 7.1811,5 1.1862,1.03566 3.15,2.55802 4.3639,3.38302 1.2139,0.825 3.8434,2.97615 5.8432,4.78033 6.2908,5.67516 6.5829,5.68911 8.8204,0.42118 2.1005,-4.94572 2.6117,-6.72249 7.2498,-25.20151 6.8171,-27.16049 6.566,-24.3303 6.566,-74 0,-34.73433 -0.309,-46.44643 -1.3061,-49.5 -0.7184,-2.2 -1.7162,-6.25 -2.2174,-9 -1.9578,-10.74279 -2.2521,-12.03297 -2.9656,-13 -0.4058,-0.55 -1.044,-3.00267 -1.4182,-5.45039 -0.3742,-2.44771 -1.0541,-4.92271 -1.5109,-5.5 -0.4568,-0.57728 -1.0696,-2.39961 -1.3617,-4.04961 -0.7902,-4.4631 -3.3675,-10.88245 -4.5238,-11.2679 -0.5575,-0.18584 -2.5173,1.00236 -4.355,2.64045 -8.4798,7.55869 -21.5798,18.17456 -23.8413,19.32025 -1.375,0.6966 -3.8925,2.2882 -5.5944,3.53688 -1.7019,1.24867 -3.5593,2.27032 -4.1275,2.27032 -0.5683,0 -1.5934,0.675 -2.2781,1.5 -0.6847,0.825 -2.0898,1.5 -3.1224,1.5 -1.0327,0 -1.8776,0.38085 -1.8776,0.84633 0,1.30163 -13.575,7.9858 -17.773,8.75121 -2.0499,0.37374 -4.852,1.45759 -6.227,2.40854 -2.9658,2.05113 -12.5443,5.02155 -27,8.37299 -14.642,3.39465 -19.8238,4.01205 -21.5624,2.56912 -1.9819,-1.6448 -1.8864,-9.33086 0.1368,-11.00996 1.3114,-1.08834 1.4588,-2.69472 0.8824,-9.61467 -0.5657,-6.79147 -0.3797,-8.96637 1.0194,-11.91464 1.4228,-2.99842 1.527,-4.33916 0.6176,-7.95059 -1.5906,-6.31687 -1.3609,-9.21082 1.0752,-13.54518 1.9905,-3.54166 2.0581,-4.19513 0.8212,-7.94276 -1.3002,-3.93967 -1.2533,-4.17114 1.3311,-6.56746 1.891,-1.75348 2.6787,-3.48201 2.6787,-5.8783 0,-4.62872 1.6187,-8.52463 3.542,-8.52463 0.8753,0 3.0239,-1.07079 4.7747,-2.37953 1.7508,-1.30874 4.9833,-2.94609 7.1833,-3.63856 2.2,-0.69247 4.9,-1.59338 6,-2.00202 1.1,-0.40864 7.4,-2.00239 14,-3.54167 6.6,-1.53927 14.8786,-3.84258 18.3968,-5.11845 3.5182,-1.27587 7.4302,-2.31977 8.6933,-2.31977 3.5234,0 5.4099,-3.6114 5.4099,-10.35649 0,-3.25131 -0.439,-7.53868 -0.9756,-9.52749 -0.5365,-1.98881 -2.1025,-8.11602 -3.4799,-13.61602 -3.0277,-12.08943 -6.4711,-20.72856 -9.5821,-24.03999 -2.4719,-2.6313 -3.9649,-2.98126 -6.726,-1.57668 -9.142,4.65058 -30.2585,10.72245 -45.6571,13.1283 -3.8063,0.5947 -7.3135,1.32411 -7.7938,1.62091 -0.4802,0.2968 -1.5284,-0.004 -2.3293,-0.66889 -1.0974,-0.91076 -1.4562,-3.67406 -1.4562,-11.21467 v -10.00612 l -8.25,-8.17766 c -5.9789,-5.92649 -9.3831,-8.50628 -12.366,-9.37143 -5.9048,-1.71256 -10.9108,-1.47585 -15.21377,0.71938 C 992.11152,161.98375 984,169.37245 984,170.99889 984,171.5495 983.59014,172 983.08921,172 c -0.50094,0 -1.85094,1.94208 -3,4.31572 -1.59497,3.29476 -2.08921,6.24356 -2.08921,12.46482 0,10.46054 -0.5118,10.81358 -12.70558,8.76427 -4.83693,-0.8129 -11.26942,-2.20782 -14.29442,-3.09982 -3.025,-0.892 -7.3,-1.99292 -9.5,-2.44649 -4.97075,-1.02481 -12.77797,-3.71589 -17.8445,-6.15085 -2.11448,-1.01621 -4.58948,-1.83988 -5.5,-1.83037 -3.52486,0.0368 -8.74249,8.42954 -11.11709,17.88225 -0.49745,1.98026 -2.04778,8.10047 -3.44517,13.60047 -2.423,9.53674 -3.39672,22.2426 -1.98625,25.91821 0.33384,0.86999 1.66812,1.58179 2.96505,1.58179 1.29694,0 4.28629,0.62024 6.64301,1.3783 2.35672,0.75807 8.33495,2.57196 13.28495,4.03087 4.95,1.45892 10.35,3.06158 12,3.56147 1.65,0.49989 6.53009,1.62372 10.84464,2.49738 4.48802,0.9088 9.40107,2.64612 11.48213,4.06024 2.00062,1.35946 4.13829,2.47174 4.75038,2.47174 2.20539,0 4.22072,3.6003 4.91249,8.77598 0.38785,2.90179 1.33635,5.90715 2.10777,6.67857 0.81676,0.81677 1.40259,3.42257 1.40259,6.23883 0,2.92572 0.79009,6.31037 2,8.5678 2.13472,3.98293 2.64634,9.22132 1,10.23882 -1.58394,0.97893 -1.16252,8.32233 0.63504,11.06575 1.34432,2.0517 1.51342,3.99426 0.95104,10.92528 -0.55992,6.90072 -0.39057,8.87773 0.9336,10.89866 0.91551,1.39724 1.4793,3.91008 1.29896,5.78954 -0.27422,2.85781 -0.73688,3.36911 -3.31864,3.66751 -5.43853,0.62858 -29.64401,-5.42666 -37.83216,-9.46409 C 935.01015,333.07219 932.31661,332 931.68219,332 930.6122,332 921.42152,327.90178 918,325.89898 c -0.825,-0.48292 -3.3,-1.83412 -5.5,-3.00267 -11.28557,-5.99442 -29.48391,-19.33315 -39.21962,-28.74659 -7.25976,-7.01944 -8.77131,-7.71461 -10.72121,-4.93073 -0.85754,1.22431 -1.55917,3.19594 -1.55917,4.38139 0,1.97109 -0.8356,4.38195 -4.47098,12.89962 -1.51634,3.55277 -8.42414,30.83356 -9.62202,38 -4.07942,24.40542 -5.19028,61.6476 -2.43099,81.5 3.00827,21.64377 5.82493,36.76714 7.42814,39.88356 0.45736,0.88904 1.39995,4.09144 2.09466,7.11644 0.69471,3.025 1.59524,5.95 2.00119,6.5 0.40595,0.55 1.30636,3.475 2.00092,6.5 0.69455,3.025 1.45504,5.8375 1.68997,6.25 0.93202,1.63649 3.46852,0.55707 8.22449,-3.5 z M 229.30987,271.5 c 0.006,-3.3 0.1923,-4.52944 0.41486,-2.73209 0.22256,1.79735 0.21797,4.49735 -0.0102,6 -0.22818,1.50265 -0.41027,0.0321 -0.40466,-3.26791 z"
         id="path18" />
      <path
         style="fill:#000000"
         d="m 746.5,1412.3132 c -41.03263,-9.331 -62.68596,-16.5936 -92.5,-31.025 -61.00572,-29.5295 -124.17873,-72.7834 -176.49892,-120.8469 -32.04111,-29.4342 -73.79887,-74.1114 -93.0354,-99.5397 -27.30251,-36.0905 -40.63474,-55.3014 -55.42188,-79.8595 -5.53252,-9.1882 -24.31414,-42.9176 -28.8975,-51.8961 -3.08632,-6.046 -17.9065,-38.56362 -20.34776,-44.646 -9.16884,-22.84409 -17.51484,-46.71293 -22.72796,-65 -1.72469,-6.05 -3.7834,-13.25 -4.57492,-16 -0.79153,-2.75 -2.34983,-9.4272 -3.4629,-14.83821 -1.11307,-5.41102 -2.24539,-10.19682 -2.51628,-10.63512 -0.70703,-1.144 -5.38933,-29.47654 -7.11068,-43.02667 -2.32446,-18.29758 -3.44327,-75.60148 -6.97014,-357 -0.83754,-66.825 -1.97273,-155.85514 -2.52264,-197.84476 -1.10274,-84.2017 -1.20677,-82.30827 4.99242,-90.866 4.43893,-6.12777 8.51609,-8.77696 25.81121,-16.77119 43.04665,-19.89722 84.35063,-34.84042 143.78335,-52.01881 10.36153,-2.99488 50.95423,-13.10339 60,-14.94137 18.63581,-3.78654 27.58475,-5.632819 34,-7.014649 3.85,-0.82928 11.725,-2.222118 17.5,-3.095195 5.775,-0.873078 12.075,-1.98459 14,-2.470027 1.925,-0.485437 9.125,-1.585358 16,-2.444269 6.875,-0.85891 14.525,-2.003561 17,-2.543668 3.936,-0.858934 23.28401,-3.166508 51,-6.082605 8.35755,-0.879327 32.9702,-2.846859 64.5,-5.156122 20.41665,-1.495328 163.9529,-1.488233 181,0.0089 6.6,0.579652 22.0036,1.781889 34.23021,2.671639 12.22662,0.889749 25.72662,2.011313 30,2.492363 4.27339,0.48105 16.54479,1.809673 27.26979,2.952497 10.725,1.142823 20.85,2.346512 22.5,2.674865 1.65,0.328352 10.65,1.670712 20,2.983021 34.3349,4.819044 74.2022,12.06563 101.5,18.44947 34.2809,8.01689 37.4566,8.82051 60,15.18327 46.41,13.09899 96.4739,31.32246 107.0026,38.94941 5.1798,3.75226 9.5937,10.66799 11.0167,17.26097 0.7401,3.42908 0.9785,17.84825 0.7213,43.62221 -0.4405,44.14886 -3.2494,262.05222 -4.7888,371.5 -0.5724,40.7 -1.4572,107.075 -1.9662,147.5 -0.6433,51.08922 -1.3728,77.92118 -2.3926,88 -1.9111,18.88762 -5.3198,43.05626 -7.0518,50 -0.7546,3.025 -1.6683,7.525 -2.0305,10 -0.3621,2.475 -2.2349,11.025 -4.1616,19 -21.3804,88.49725 -62.5146,171.45035 -123.2245,248.50005 -41.0287,52.0714 -96.9145,105.7517 -152.6246,146.6011 -14.3811,10.545 -41.74547,28.9958 -53.74951,36.2414 -12.41366,7.4928 -35.89928,21.1043 -40.25049,23.3278 -2.2,1.1242 -8.275,4.296 -13.5,7.0485 -10.9124,5.7485 -52.6336,25.0096 -64.5,29.7773 -11.28932,4.5358 -22.85447,8.2611 -31.00854,9.9882 -6.52705,1.3826 -21.46216,1.8589 -25.99146,0.8289 z m 34,-18.333 c 13.76307,-4.4465 25.42093,-9.2233 44.5,-18.234 5.225,-2.4677 11.75,-5.4897 14.5,-6.7155 12.83315,-5.7206 35.90113,-17.7276 51.5,-26.806 66.57023,-38.7433 121.1177,-80.9627 173.5867,-134.355 45.2072,-46.0027 82.9262,-96.0904 112.4343,-149.3035 9.0549,-16.3291 19.8758,-37.8123 24.9661,-49.5662 1.7864,-4.125 4.0951,-9.38781 5.1305,-11.69514 1.0353,-2.30732 1.8824,-4.44973 1.8824,-4.76089 0,-0.31117 0.8876,-2.47336 1.9724,-4.80487 2.1488,-4.61809 9.285,-24.38108 14.5298,-40.2391 5.776,-17.46377 12.6027,-43.79543 15.037,-58 0.8484,-4.95 1.9667,-10.35 2.4852,-12 1.1777,-3.7475 4.7129,-29.45483 6.6008,-48 0.9696,-9.52413 1.7227,-37.49832 2.3555,-87.5 0.5117,-40.425 1.3987,-106.8 1.9711,-147.5 3.9289,-279.33809 5.3382,-406.885 4.544,-411.26475 -0.9608,-5.29889 -6.0969,-9.41527 -17.5911,-14.09844 -5.7226,-2.33162 -11.3047,-4.66256 -12.4047,-5.17987 -2.6903,-1.26518 -25.2868,-9.243 -39.5,-13.94571 -57.4425,-19.00589 -125.8204,-34.46053 -197,-44.52558 -9.625,-1.36101 -18.625,-2.71092 -20,-2.9998 -1.375,-0.28889 -11.275,-1.46162 -22,-2.606088 -10.725,-1.144463 -22.9964,-2.474428 -27.26979,-2.955478 -4.27338,-0.48105 -17.77338,-1.602614 -30,-2.492363 C 880.5036,93.542171 865.1,92.339015 858.5,91.75824 841.99341,90.305724 697.84081,90.281703 679,91.72833 c -44.4577,3.413531 -56.30545,4.372592 -64,5.18072 -29.04616,3.050605 -47.01377,5.20579 -50.5,6.05738 -2.2,0.53741 -10.075,1.71189 -17.5,2.60997 -7.425,0.89807 -13.83904,1.83829 -14.25342,2.08937 -0.41439,0.25107 -7.38939,1.55299 -15.5,2.89314 -20.53381,3.39289 -54.25089,10.16154 -64.24658,12.89739 -3.025,0.82796 -12.25,3.13029 -20.5,5.11629 -20.54544,4.94586 -32.62203,8.38946 -62,17.67912 -16.36937,5.17619 -46.61737,15.74769 -52,18.17369 -1.65,0.74368 -4.125,1.67724 -5.5,2.0746 -1.375,0.39736 -3.85,1.31718 -5.5,2.04405 -1.65,0.72688 -7.05,2.9682 -12,4.98072 -4.95,2.01252 -11.37584,4.74275 -14.27964,6.06718 -2.90379,1.32443 -5.48809,2.40805 -5.74287,2.40805 -0.25478,0 -6.07453,2.70785 -12.93277,6.01743 -9.44976,4.56018 -13.14461,6.90421 -15.25713,9.6792 L 244.5,201.35839 v 33.07081 c 0,18.18894 0.27446,51.2958 0.60991,73.5708 0.33545,22.275 1.34567,97.2 2.24493,166.5 3.86586,297.91455 4.71936,341.23367 7.08313,359.5 3.663,28.30632 11.2576,64.49627 18.04742,86 4.59104,14.54008 8.72778,26.78466 9.96635,29.5 0.75263,1.65 1.90288,5.025 2.55611,7.5 0.65323,2.475 1.52992,4.95 1.9482,5.5 0.41828,0.55 1.46738,3.025 2.33134,5.5 6.32575,18.12154 22.11705,51.3737 37.99163,80 20.6551,37.2469 34.56429,58.1351 69.18666,103.9016 19.01507,25.1356 58.82833,67.8167 90.05297,96.5397 50.79747,46.7278 113.50253,89.9784 170.98135,117.9338 6.6,3.21 13.575,6.6371 15.5,7.6159 1.925,0.9787 4.625,2.1089 6,2.5116 1.375,0.4026 4.85052,1.7927 7.72337,3.089 2.87286,1.2963 6.47286,2.6556 8,3.0206 1.52715,0.3649 3.22663,0.9904 3.77663,1.3899 1.42552,1.0354 19.82464,6.2721 34.5,9.8192 6.875,1.6618 13.4,3.2592 14.5,3.5499 1.1,0.2907 6.725,0.3736 12.5,0.1842 8.47083,-0.2779 12.43254,-0.9688 20.5,-3.5752 z m -40.38304,-24.5675 c -26.4164,-6.5168 -43.39391,-12.7075 -70.09149,-25.5583 -86.99454,-41.8746 -173.88078,-111.4618 -242.13495,-193.9259 -5.20253,-6.2857 -10.34371,-12.5978 -11.42484,-14.0269 -20.44945,-27.0316 -33.6292,-45.4521 -42.14374,-58.9016 -29.20277,-46.1284 -49.09606,-85.27341 -64.0325,-126 -9.60501,-26.18958 -11.83107,-33.12198 -18.7849,-58.5 -4.40855,-16.089 -8.92894,-39.98022 -12.10927,-64 -2.40441,-18.15963 -4.12116,-107.30873 -6.31631,-328 -0.58537,-58.85 -1.5153,-124.1 -2.06652,-145 -0.55122,-20.9 -1.22885,-61.42316 -1.50583,-90.05146 l -0.50362,-52.05146 4.7485,-2.33954 c 7.95916,-3.92141 29.09223,-12.97744 41.24851,-17.676 6.325,-2.44469 12.625,-4.92712 14,-5.51651 9.35898,-4.01172 56.67974,-20.02408 70,-23.68656 1.925,-0.52928 8.225,-2.34638 14,-4.038 29.25402,-8.56907 85.30611,-21.07061 114.92382,-25.63195 5.7331,-0.88293 10.71669,-1.78634 11.07464,-2.00757 0.35795,-0.22123 6.46724,-1.1176 13.57618,-1.99195 7.10895,-0.87434 14.95036,-2.03218 17.42536,-2.57297 4.02195,-0.87879 22.69578,-3.12359 50,-6.01053 9.22249,-0.97512 31.68704,-2.77581 64.5,-5.17014 20.82678,-1.5197 152.126,-1.47905 169.5,0.0525 6.875,0.60604 22.175,1.79797 34,2.64874 11.825,0.85076 25.325,1.97963 30,2.50858 4.675,0.52895 16.825,1.85931 27,2.95637 10.175,1.09705 21.2,2.47105 24.5,3.05333 3.3,0.58228 12.3,1.92891 20,2.99252 19.7241,2.7245 40.7728,5.96852 42.253,6.51204 0.6891,0.25305 5.4141,1.1624 10.5,2.02079 17.6117,2.97249 64.8046,13.43379 83.247,18.45344 16.1664,4.40019 26.4988,7.30668 34.5,9.70489 18.6071,5.57712 47.1397,15.47794 65,22.55502 l 8.5,3.36809 -0.07,31.45918 c -0.065,29.52633 -2.1233,197.00127 -4.4786,364.45917 -0.5724,40.7 -1.4536,107.075 -1.9582,147.5 -0.9219,73.86314 -1.322,82.17921 -5.4607,113.5 -11.5677,87.54398 -50.6117,181.61548 -107.9119,259.99998 -51.1405,69.9582 -113.2852,129.4554 -187.83138,179.8293 -37.19057,25.1312 -65.04847,40.6048 -114.42101,63.5551 -17.0221,7.9125 -21.68303,9.8256 -35.69245,14.65 -14.51801,4.9995 -18.45905,5.0969 -35.5592,0.8783 z M 774,1358.1244 c 16.45741,-5.7613 31.83098,-12.6024 65.5,-29.1469 33.68448,-16.5521 75.74351,-42.6591 109.78962,-68.149 C 1052.4241,1183.613 1132.32,1084.455 1174.7594,981 c 22.258,-54.25878 33.458,-99.10025 39.838,-159.5 1.0471,-9.91296 1.7466,-35.45697 2.3962,-87.5 0.5046,-40.425 1.3858,-106.8 1.9582,-147.5 2.1482,-152.7321 4.4045,-333.91178 4.4751,-359.34979 l 0.073,-26.34979 -5,-1.96548 c -8.7301,-3.43178 -29.5973,-10.88548 -41.5,-14.82371 -16.8327,-5.56941 -27.338,-8.66461 -54.5,-16.05758 -18.4424,-5.01965 -65.6353,-15.48095 -83.247,-18.45344 -5.0859,-0.85839 -9.8109,-1.76774 -10.5,-2.02079 -1.4802,-0.54352 -22.5289,-3.78754 -42.253,-6.51204 -7.7,-1.06361 -16.7,-2.41024 -20,-2.99252 -3.3,-0.58228 -14.325,-1.95628 -24.5,-3.05333 -10.175,-1.09706 -22.325,-2.42742 -27,-2.95637 -4.675,-0.52895 -18.175,-1.65782 -30,-2.50858 -11.825,-0.85077 -27.125,-2.04104 -34,-2.64504 -17.32057,-1.52169 -142.77454,-1.56294 -163.5,-0.0538 -32.45899,2.36359 -55.24645,4.18932 -64.5,5.16772 -27.30422,2.88694 -45.97805,5.13174 -50,6.01053 -2.475,0.54079 -10.31641,1.69863 -17.42536,2.57297 -7.10894,0.87435 -13.21823,1.77072 -13.57618,1.99195 -0.35795,0.22123 -5.34154,1.12464 -11.07464,2.00757 -29.34483,4.51931 -88.50497,17.75032 -116.42382,26.03788 -4.95,1.46938 -10.575,3.10423 -12.5,3.63301 -13.27665,3.64694 -60.63582,19.67168 -70,23.68562 -1.375,0.58939 -7.675,3.07182 -14,5.51651 -13.74935,5.3143 -37.21025,15.40759 -38.13613,16.40684 -0.36266,0.39139 -0.29554,28.38662 0.14915,62.21162 0.44469,33.825 1.51788,117.3 2.38486,185.5 3.66942,288.64947 4.68516,340.66604 6.99074,358 3.21336,24.15889 7.71556,47.9409 12.11592,64 6.95383,25.37802 9.17989,32.31042 18.7849,58.5 14.74828,40.21352 33.08057,76.26784 62.0325,122.00004 8.51454,13.4495 21.69429,31.87 42.14374,58.9016 18.31979,24.2165 56.03219,64.7752 85.35267,91.7947 56.05937,51.6599 127.31236,99.109 185.20232,123.3308 12.08818,5.0578 32.65266,11.585 48.02406,15.2428 16.05628,3.8208 16.85307,3.7913 30.95527,-1.1455 z M 489,151.70295 c 0,-0.16338 -1.9125,-2.07588 -4.25,-4.25 L 480.5,143.5 l 3.95295,4.25 c 3.6762,3.95246 4.54705,4.70953 4.54705,3.95295 z"
         id="path16" />
    </g>
  </g>
</svg>
