<?xml version="1.0" encoding="UTF-8" standalone="no"?>
<svg
   xmlns:dc="http://purl.org/dc/elements/1.1/"
   xmlns:cc="http://creativecommons.org/ns#"
   xmlns:rdf="http://www.w3.org/1999/02/22-rdf-syntax-ns#"
   xmlns:svg="http://www.w3.org/2000/svg"
   xmlns="http://www.w3.org/2000/svg"
   xmlns:sodipodi="http://sodipodi.sourceforge.net/DTD/sodipodi-0.dtd"
   xmlns:inkscape="http://www.inkscape.org/namespaces/inkscape"
   version="1.1"
   id="svg2"
   width="1044.7208"
   height="1337.2157"
   viewBox="0 0 1044.7208 1337.2157"
   sodipodi:docname="Haanaland.svg"
   inkscape:version="1.0.1 (3bc2e813f5, 2020-09-07)">
  <metadata
     id="metadata8">
    <rdf:RDF>
      <cc:Work
         rdf:about="">
        <dc:format>image/svg+xml</dc:format>
        <dc:type
           rdf:resource="http://purl.org/dc/dcmitype/StillImage" />
        <dc:title />
      </cc:Work>
    </rdf:RDF>
  </metadata>
  <defs
     id="defs6" />
  <sodipodi:namedview
     pagecolor="#ffffff"
     bordercolor="#666666"
     borderopacity="1"
     objecttolerance="10"
     gridtolerance="10"
     guidetolerance="10"
     inkscape:pageopacity="0"
     inkscape:pageshadow="2"
     inkscape:window-width="1920"
     inkscape:window-height="1057"
     id="namedview4"
     showgrid="false"
     inkscape:pagecheckerboard="true"
     inkscape:zoom="0.49"
     inkscape:cx="1054.7217"
     inkscape:cy="637.03967"
     inkscape:window-x="-8"
     inkscape:window-y="-8"
     inkscape:window-maximized="1"
     inkscape:current-layer="g10"
     inkscape:document-rotation="0" />
  <g
     inkscape:groupmode="layer"
     inkscape:label="Image"
     id="g10"
     transform="translate(-229.11974,-75.653138)">
    <path
       style="fill:#ffffff;fill-opacity:1"
       d="m 746.50001,1412.3191 c -40.33262,-9.0517 -62.49618,-16.485 -92.5,-31.0232 -61.1215,-29.616 -124.18829,-72.7999 -176.49892,-120.8546 -32.04111,-29.4342 -73.79887,-74.1114 -93.0354,-99.5397 -27.73724,-36.6652 -40.38969,-54.895 -55.39078,-79.808 -5.5569,-9.2287 -24.3334,-42.9459 -28.9286,-51.9476 -3.1406,-6.1523 -18.1098,-38.94183 -19.6971,-43.14601 -0.7269,-1.925 -2.742,-6.875 -4.4781,-11 -3.285,-7.80519 -4.9543,-12.44198 -11.7007,-32.5 -7.8298,-23.27935 -10.2826,-31.95819 -14.807,-52.39336 -1.3874,-6.26635 -2.7288,-11.72715 -2.981,-12.13512 -0.6835,-1.10602 -5.4037,-29.79565 -7.0699,-42.97152 -2.4309,-19.22263 -4.1589,-109.01719 -6.3216,-328.5 -0.5854,-59.4 -1.5194,-123.525 -2.0757,-142.5 -0.5563,-18.975 -1.2804,-62.69893 -1.6092,-97.1643 -0.6596,-69.14647 -0.6676,-69.03309 5.4995,-77.54646 4.4411,-6.13084 8.5206,-8.77999 25.8112,-16.76145 42.5837,-19.65694 90.01679,-36.81765 144.7833,-52.38079 9.95177,-2.82802 50.67081,-12.89675 59,-14.58913 18.63581,-3.78654 27.58475,-5.632816 34,-7.014646 3.85,-0.82928 11.725,-2.22211 17.5,-3.09519 5.775,-0.87308 12.075,-1.98459 14,-2.47003 1.925,-0.48544 9.125,-1.58536 16,-2.44427 6.875,-0.85891 14.525,-2.00356 17,-2.54367 2.475,-0.5401 13.05,-1.92842 23.5,-3.08515 35.25404,-3.90232 31.55816,-3.57202 91.5,-8.17726 18.86541,-1.44939 164.97907,-1.42558 181.5,0.0296 6.6,0.58133 22.0036,1.78494 34.23021,2.67469 12.22662,0.88975 25.72662,2.01131 30,2.49236 4.27339,0.48105 16.54479,1.80968 27.26979,2.9525 10.725,1.14282 20.85,2.34651 22.5,2.67487 1.65,0.32835 10.65,1.67071 20,2.98302 31.04159,4.35681 58.40689,9.19406 86.99999,15.378596 27.114,5.86462 32.1282,7.02153 46,10.61338 7.7,1.99377 16.7,4.28192 20,5.08477 3.3,0.80286 8.7,2.3104 12,3.35009 3.3,1.0397 10.05,3.09509 15,4.56755 36.0327,10.71849 79.9306,27.37828 88.5026,33.58776 5.1798,3.75226 9.5937,10.66799 11.0167,17.26097 0.7401,3.42908 0.9785,17.84825 0.7213,43.62221 -0.4405,44.14886 -3.2494,262.05222 -4.7888,371.5 -0.5724,40.7 -1.4572,107.075 -1.9662,147.5 -0.6433,51.08922 -1.3728,77.92118 -2.3926,88 -1.9111,18.88762 -5.3198,43.05626 -7.0518,50 -0.7546,3.025 -1.6663,7.525 -2.0261,10 -0.3597,2.475 -2.0055,10.125 -3.6572,17 -17.4005,72.42793 -46.8629,139.20689 -90.2237,204.49999 -15.6519,23.5688 -40.7829,56.2351 -59.6729,77.5654 -24.8111,28.0162 -66.8545,68.0457 -96.4613,91.8407 -35.47761,28.5133 -64.45243,48.3553 -105.7495,72.4172 -7.83777,4.5667 -16.05049,9.2229 -18.25049,10.3471 -2.2,1.1242 -8.275,4.296 -13.5,7.0485 -10.9124,5.7485 -52.6336,25.0096 -64.5,29.7773 -11.28932,4.5358 -22.85447,8.2611 -31.00854,9.9882 -6.51246,1.3795 -21.42969,1.8586 -25.99146,0.8348 z"
       id="path16-0"
       sodipodi:nodetypes="ssssssssssssssssssssssssssssssssssssccccssssssssssssssss" />
    <path
       style="fill:#af80d6"
       d="m 747.5,1397.3712 c -1.1,-0.2907 -7.625,-1.8881 -14.5,-3.5499 -14.67536,-3.5471 -33.07448,-8.7838 -34.5,-9.8192 -0.55,-0.3995 -2.24948,-1.025 -3.77663,-1.3899 -1.52714,-0.365 -5.12714,-1.7243 -8,-3.0206 -2.87285,-1.2963 -6.34837,-2.6864 -7.72337,-3.089 -1.375,-0.4027 -4.075,-1.5329 -6,-2.5116 -1.925,-0.9788 -8.9,-4.4059 -15.5,-7.6159 -57.47882,-27.9554 -120.18388,-71.206 -170.98135,-117.9338 -31.22464,-28.723 -71.0379,-71.4041 -90.05297,-96.5397 -34.62237,-45.7665 -48.53156,-66.6547 -69.18666,-103.9016 -15.87458,-28.6263 -31.66588,-61.87846 -37.99163,-80 -0.86396,-2.475 -1.91306,-4.95 -2.33134,-5.5 -0.41828,-0.55 -1.29497,-3.025 -1.9482,-5.5 -0.65323,-2.475 -1.80348,-5.85 -2.55611,-7.5 -1.23857,-2.71534 -5.37531,-14.95992 -9.96635,-29.5 -6.78982,-21.50373 -14.38442,-57.69368 -18.04742,-86 C 252.0742,815.73367 251.2207,772.41455 247.35484,474.5 246.45558,405.2 245.44536,330.275 245.10991,308 244.77446,285.725 244.5,252.61814 244.5,234.4292 v -33.07081 l 2.78759,-3.66176 c 2.11252,-2.77499 5.80737,-5.11902 15.25713,-9.6792 C 269.40296,184.70785 275.22271,182 275.47749,182 c 0.25478,0 2.83908,-1.08362 5.74287,-2.40805 2.9038,-1.32443 9.32964,-4.05466 14.27964,-6.06718 4.95,-2.01252 10.35,-4.25384 12,-4.98072 1.65,-0.72687 4.125,-1.64669 5.5,-2.04405 1.375,-0.39736 3.85,-1.33092 5.5,-2.0746 5.38263,-2.426 35.63063,-12.9975 52,-18.17369 29.37797,-9.28966 41.45456,-12.73326 62,-17.67912 8.25,-1.986 17.475,-4.28833 20.5,-5.11629 9.99569,-2.73585 43.71277,-9.5045 64.24658,-12.89739 8.11061,-1.34015 15.08561,-2.64207 15.5,-2.89314 0.41438,-0.25108 6.82842,-1.1913 14.25342,-2.08937 7.425,-0.89808 15.3,-2.07256 17.5,-2.60997 3.48623,-0.85159 21.45384,-3.006775 50.5,-6.05738 7.69455,-0.808128 19.5423,-1.767189 64,-5.18072 18.84081,-1.446627 162.99341,-1.422606 179.5,0.02991 6.6,0.580775 22.0036,1.783931 34.23021,2.673681 12.22662,0.889749 25.72662,2.011313 30,2.492363 4.27339,0.48105 16.54479,1.811015 27.26979,2.955478 10.725,1.144468 20.625,2.317198 22,2.606088 1.375,0.28888 10.375,1.63879 20,2.9998 71.1796,10.06505 139.5575,25.51969 197,44.52558 14.2132,4.70271 36.8097,12.68053 39.5,13.94571 1.1,0.51731 6.6821,2.84825 12.4047,5.17987 11.4942,4.68317 16.6303,8.79955 17.5911,14.09844 0.7942,4.37975 -0.6151,131.92666 -4.544,411.26475 -0.5724,40.7 -1.4594,107.075 -1.9711,147.5 -0.6328,50.00168 -1.3859,77.97587 -2.3555,87.5 -1.8879,18.54517 -5.4231,44.2525 -6.6008,48 -0.5185,1.65 -1.6368,7.05 -2.4852,12 -2.4343,14.20457 -9.261,40.53623 -15.037,58 -5.2448,15.85802 -12.381,35.62101 -14.5298,40.2391 -1.0848,2.33151 -1.9724,4.4937 -1.9724,4.80487 0,0.31116 -0.8471,2.45357 -1.8824,4.76089 -1.0354,2.30733 -3.3441,7.57014 -5.1305,11.69514 -8.0918,18.6848 -26.6886,53.899 -38.8155,73.5 -15.3678,24.8392 -30.2477,45.8144 -50.7685,71.5653 -66.2932,83.1891 -160.53428,159.1584 -257.4031,207.4969 -5.775,2.8818 -12.75,6.2426 -15.5,7.4685 -2.75,1.2258 -9.275,4.2478 -14.5,6.7155 -19.07907,9.0107 -30.73693,13.7875 -44.5,18.234 -8.06746,2.6064 -12.02917,3.2973 -20.5,3.5752 -5.775,0.1894 -11.4,0.1065 -12.5,-0.1842 z m 28.17616,-28.8368 c 14.00942,-4.8244 18.67035,-6.7375 35.69245,-14.65 49.37254,-22.9503 77.23044,-38.4239 114.42101,-63.5551 74.54618,-50.3739 136.69088,-109.8711 187.83138,-179.8293 57.2817,-78.3592 96.3434,-172.47377 107.9116,-260 4.1387,-31.31398 4.539,-39.6352 5.461,-113.5 0.5046,-40.425 1.3858,-106.8 1.9582,-147.5 2.3553,-167.4579 4.4133,-334.93284 4.4786,-364.45917 l 0.07,-31.45918 -8.5,-3.36809 c -17.8603,-7.07708 -46.3929,-16.9779 -65,-22.55502 -8.0012,-2.39821 -18.3336,-5.3047 -34.5,-9.70489 -18.4424,-5.01965 -65.6353,-15.48095 -83.247,-18.45344 -5.0859,-0.85839 -9.8109,-1.76774 -10.5,-2.02079 -1.4802,-0.54352 -22.5289,-3.78754 -42.253,-6.51204 -7.7,-1.06361 -16.7,-2.41024 -20,-2.99252 -3.3,-0.58228 -14.325,-1.95628 -24.5,-3.05333 -10.175,-1.09706 -22.325,-2.42742 -27,-2.95637 -4.675,-0.52895 -18.175,-1.65782 -30,-2.50858 -11.825,-0.85077 -27.125,-2.0427 -34,-2.64874 -17.374,-1.53153 -148.67322,-1.57218 -169.5,-0.0525 -32.81296,2.39433 -55.27751,4.19502 -64.5,5.17014 -27.30422,2.88694 -45.97805,5.13174 -50,6.01053 -2.475,0.54079 -10.31641,1.69863 -17.42536,2.57297 -7.10894,0.87435 -13.21823,1.77072 -13.57618,1.99195 -0.35795,0.22123 -5.34154,1.12464 -11.07464,2.00757 -29.61771,4.56134 -85.6698,17.06288 -114.92382,25.63195 -5.775,1.69162 -12.075,3.50872 -14,4.038 -13.32026,3.66248 -60.64102,19.67484 -70,23.68656 -1.375,0.58939 -7.675,3.07182 -14,5.51651 -12.15628,4.69856 -33.28935,13.75459 -41.24851,17.676 l -4.7485,2.33954 0.50362,52.05146 c 0.27698,28.6283 0.95461,69.15146 1.50583,90.05146 0.55122,20.9 1.48115,86.15 2.06652,145 2.19515,220.69127 3.9119,309.84037 6.31631,328 3.18033,24.01978 7.70072,47.911 12.10927,64 6.95383,25.37802 9.17989,32.31042 18.7849,58.5 14.93644,40.72659 34.82973,79.87162 64.0325,126.00002 8.51454,13.4495 21.69429,31.87 42.14374,58.9016 18.39,24.3093 56.54555,65.3269 86.12345,92.5835 50.91135,46.9158 110.44584,87.937 167.43634,115.3693 26.69758,12.8508 43.67509,19.0415 70.09149,25.5583 17.10015,4.2186 21.04119,4.1212 35.5592,-0.8783 z"
       id="path20"
       sodipodi:nodetypes="sssssssssssssssssssscssssssscssssssssssssssssssssssscssssssssssssscssssssccsssssssssssssssssscssscssssssssssscc" />
    <path
       style="fill:#fdc02c"
       d="m 806.50001,1204.3237 c -6.774,-5.2795 -28.89,-11.3337 -31.579,-8.6447 -0.7097,0.7097 8e-4,1.4131 2.2734,2.2509 4.7006,1.733 11.8713,5.416 12.5121,6.4265 0.2997,0.4726 -4.7001,0.5289 -11.1536,0.1257 -6.4332,-0.402 -21.3393,-0.7851 -33.1248,-0.8515 -11.7854,-0.066 -21.4281,-0.1853 -21.4281,-0.2644 0,-0.079 4.0349,-2.0613 8.9664,-4.4049 4.9315,-2.3435 8.7057,-4.6828 8.3871,-5.1983 -0.3185,-0.5155 -1.5409,-0.6695 -2.7164,-0.3423 -1.1754,0.3272 -5.5121,1.2897 -9.6371,2.139 -9.6244,1.9815 -18.6292,5.0401 -22.0867,7.502 -3.348,2.384 -3.2564,2.3844 -10.8628,-0.046 -16.6659,-5.3241 -40.2214,-22.7617 -51.7171,-38.2852 -4.0489,-5.4675 -4.056,-5.8305 -0.4717,-24.1738 1.8225,-9.3265 2.1383,-14.5019 2.1383,-35.038 0,-15.349 -0.5416,-28.4371 -1.492,-36.0571 -1.7566,-14.0836 -1.7855,-14.7516 -0.6064,-14.0228 0.4959,0.3065 1.1895,3.3705 1.5413,6.809 1.5475,15.1238 4.9382,34.6977 7.5789,43.7518 1.0427,3.575 2.6797,9.4799 3.6379,13.122 1.5572,5.9195 2.1844,6.9018 5.9123,9.2603 5.1495,3.2578 8.5979,8.1319 12.5405,17.7251 1.671,4.0659 3.6349,8.7426 4.3642,10.3926 0.7293,1.65 1.4829,3.8627 1.6746,4.9171 0.1918,1.0545 0.8582,2.0868 1.4808,2.2941 1.3905,0.4629 0.7989,-6.6733 -1.2315,-14.8555 -2.1492,-8.6614 -1.9619,-9.5278 2.2297,-10.3142 1.9966,-0.3745 3.9506,-0.3121 4.3422,0.1388 0.3915,0.4508 2.4144,5.4322 4.4952,11.0697 4.1863,11.3419 6.1938,13.2911 5.1498,5 -2.0306,-16.1246 -2.0161,-17.4125 0.2022,-17.9926 1.299,-0.3397 3.2996,0.3551 5.3248,1.8492 3.8718,2.8565 8.2564,3.0551 12.3555,0.5595 2.9042,-1.7681 3.0958,-1.7682 6,0 4.2559,2.5888 8.1362,2.3309 10.9724,-0.7293 2.2853,-2.4659 2.4933,-2.5044 5.4025,-1 3.6014,1.8624 7.2721,2.0177 8.9126,0.3772 0.6531,-0.6531 3.18,-1.0844 5.6152,-0.9583 2.4353,0.126 4.7175,-0.2396 5.0715,-0.8125 0.9931,-1.6067 3.7674,-1.1993 6.5258,0.9583 3.4828,2.7243 6.6789,2.475 9.9283,-0.7745 l 2.7745,-2.7745 3.6849,4.236 c 4.0778,4.6878 9.0206,6.3593 13.1888,4.4601 l 2.4235,-1.1042 v 9.4785 c 0,5.6524 0.4037,9.4786 1,9.4786 0.55,0 1,-0.5398 1,-1.1997 0,-0.6598 1.4339,-4.9989 3.1865,-9.6424 2.094,-5.5482 3.804,-8.6042 4.9877,-8.9137 0.9906,-0.2591 3.3732,-2.6591 5.2945,-5.3335 2.4575,-3.4207 3.9658,-4.6812 5.0867,-4.2511 1.034,0.3968 1.4078,1.3538 1.0648,2.7259 -1.2265,4.9057 -1.9251,23.9209 -0.8545,23.2593 0.5942,-0.3672 1.3765,-2.1251 1.7384,-3.9063 0.7906,-3.8917 4.237,-14.0148 6.2007,-18.213 2.2631,-4.8385 3.6152,-6.8485 6.5452,-9.73 2.329,-2.2906 2.75,-3.5342 2.75,-8.1241 0,-3.8782 0.6927,-6.664 2.4356,-9.7954 2.5597,-4.5988 4.5006,-10.0497 6.5433,-18.376 0.6746,-2.75 1.8131,-7.025 2.5299,-9.5 0.7168,-2.475 1.8975,-7.3537 2.6238,-10.8415 1.0891,-5.2299 1.8002,-6.5895 4.057,-7.7565 l 2.7364,-1.4151 -0.5147,6.7566 c -0.2831,3.7161 -0.9414,11.1616 -1.463,16.5457 -2.0898,21.5724 -0.8423,57.2628 2.5714,73.5671 1.2354,5.9006 1.1779,6.7609 -0.8028,12 -6.9827,18.4694 -20.3209,31.9216 -35.2169,35.5176 -10.4857,2.5314 -10.929,2.5638 -13,0.9498 z m -76.8952,-28.1211 c -2.5267,-4.886 -7.3462,-6.4488 -19.4985,-6.323 -11.9072,0.1234 -15.3725,-1.136 -18.7201,-6.803 -0.9996,-1.6921 -2.1704,-3.0766 -2.6018,-3.0766 -1.4908,0 -0.7771,5.3837 1.2759,9.6246 2.9807,6.1572 7.0913,7.4635 22.4476,7.1335 11.2485,-0.2418 12.1955,-0.1113 14.976,2.0637 3.4269,2.6804 4.3023,1.5993 2.1209,-2.6192 z m 73.2317,0.2974 c 14.5988,0 16.8589,-0.5792 19.8052,-5.076 1.9513,-2.9779 3.4489,-10.25 2.262,-10.9835 -0.4595,-0.284 -1.8634,1.0707 -3.1196,3.0106 -3.4807,5.3747 -6.8677,6.5207 -18.997,6.4277 -11.919,-0.091 -15.6247,1.1614 -18.7795,6.3491 -2.5358,4.1698 -1.6017,5.2707 2.1321,2.5127 2.7935,-2.0635 4.1134,-2.2406 16.6968,-2.2406 z m -75.3365,-26.5536 c 9.9196,-3.1469 28.7319,-3.1361 39.5,0.023 4.125,1.21 8.85,2.5564 10.5,2.9919 1.65,0.4355 3.45,0.9599 4,1.1654 0.55,0.2055 1.1906,-0.076 1.4234,-0.6264 0.5283,-1.2475 -12.114,-8.7807 -18.5992,-11.0828 -6.4127,-2.2764 -22.0314,-3.025 -29.2168,-1.4003 -8.0392,1.8177 -24.1074,10.4769 -24.1074,12.9916 0,0.7667 5.7089,-0.6388 16.5,-4.0621 z m 134.2197,-3.6391 c -3.3444,-17.4769 -4.0781,-27.9153 -4.0802,-58.0427 -10e-4,-16.6295 0.3002,-30.5376 0.6696,-30.9071 0.3695,-0.3694 2.701,-0.9796 5.1813,-1.356 4.3623,-0.6621 4.5096,-0.5998 4.5082,1.907 -7e-4,1.4253 -0.6865,6.4165 -1.524,11.0915 -0.8374,4.675 -1.7854,16.6 -2.1065,26.5 -0.4875,15.0258 -0.297,19.2392 1.1527,25.5 1.9772,8.5387 2.9952,21.4955 2.0644,26.2732 -0.3458,1.7747 -1.4278,4.2651 -2.4045,5.5341 -1.7638,2.2917 -1.787,2.248 -3.461,-6.5 z m -230.6405,-9.723 c -2.251,-2.3961 -2.2543,-2.4451 -0.6706,-10.103 2.0347,-9.8386 2.1137,-34.9072 0.1538,-48.7948 -2.7356,-19.3848 -3.5756,-26.1984 -3.569,-28.9509 l 0.01,-2.7644 6,3.0288 6,3.0288 -0.03,23.2356 c -0.028,21.8111 -1.4126,41.4941 -3.9898,56.7103 -0.6032,3.5611 -1.2188,6.5968 -1.368,6.746 -0.1493,0.1493 -1.2893,-0.8121 -2.5334,-2.1364 z m 35.0676,-80.2322 c -2.4237,-7.3315 -5.4668,-14.3633 -7.3521,-16.9885 -6.4339,-8.959 -18.9828,-15.9158 -35.8331,-19.8649 -6.3039,-1.4774 -12.0473,-2.8638 -12.7632,-3.0809 -0.7159,-0.2171 -2.8807,-3.8874 -4.8106,-8.1562 -1.9299,-4.2689 -4.3553,-9.5616 -5.3897,-11.7616 -3.1803,-6.76387 -3.3305,-8.82235 -0.9392,-12.87522 l 2.1908,-3.71324 1.5826,2.29423 c 5.0565,7.33006 15.0483,12.56212 21.8748,11.45433 1.9266,-0.31264 7.9951,-3.13418 13.4855,-6.27008 9.1283,-5.21375 10.6167,-5.74233 17.3949,-6.17733 8.3782,-0.53768 9.6343,-1.75697 2.8569,-2.7733 -7.323,-1.09815 -13.3938,-0.028 -22.0703,3.89066 -9.5101,4.29515 -14.3114,4.65592 -19.0205,1.42919 -6.6358,-4.54692 -10.3693,-17.32724 -7.368,-25.2214 0.5421,-1.4258 1.2761,-8.0926 1.6311,-14.8151 0.7635,-14.45836 -0.523,-22.43643 -4.2747,-26.50788 l -2.5016,-2.71486 0.73,2.5 c 1.3742,4.70642 1.5832,15.71768 0.41,21.60996 -1.1081,5.56579 -1.6826,8.08184 -3.7422,16.39004 l -0.8676,3.5 -1.1011,-3.5 c -3.0773,-9.78119 -7.5176,-37.84949 -9.3164,-58.8905 -2.2318,-26.10583 2.2197,-60.41707 10.6528,-82.1095 4.1706,-10.72813 7.8227,-17.97291 9.0672,-17.98686 2.3178,-0.026 7.1978,6.0778 8.9798,11.2317 1.4574,4.21503 1.7822,7.97588 1.6409,19.00134 -0.2361,18.41721 -2.5028,26.86291 -12.9295,48.17382 -3.336,6.81826 -4.3643,10.06881 -4.3643,13.79569 0,4.67861 4.2883,20.26287 6.1182,22.23431 0.513,0.55269 0.8818,-3.86003 0.8818,-10.55116 v -11.50117 l 4.1978,-6.44883 c 2.3088,-3.54686 5.6832,-9.29288 7.4986,-12.76892 1.8155,-3.47605 4.0042,-7.02333 4.8637,-7.88284 2.9652,-2.96518 17.5326,-11.15648 24.7261,-13.9036 3.9676,-1.51516 7.6638,-3.1619 8.2138,-3.65943 1.8757,-1.69673 -10.8813,0.48654 -19.8402,3.39552 -4.8621,1.57874 -9.0188,2.87043 -9.2372,2.87043 -1.2391,0 2.0713,-30.8221 4.2962,-40 1.8958,-7.82035 7.8997,-21.19359 12.4534,-27.73905 5.4561,-7.84239 13.8697,-15.98857 21.8278,-21.13396 7.4517,-4.81797 24.0344,-12.10937 27.624,-12.14628 3.6276,-0.0373 11.8129,-2.59264 10.6356,-3.32029 -1.9088,-1.17971 -15.6106,1.36107 -27.2596,5.05484 -5.7222,1.81446 -18.3345,8.0242 -20.696,10.18986 -0.9922,0.90986 -3.9848,3.21081 -6.6503,5.11324 -2.6654,1.90242 -7.1078,6.33675 -9.8719,9.85405 -4.973,6.32796 -14.7818,21.74121 -14.7818,23.22759 0,0.42339 -0.435,1.91382 -0.9666,3.31207 l -0.9665,2.54227 -4.2835,-4.51751 c -2.3559,-2.48464 -5.9258,-5.07836 -7.9333,-5.76384 l -3.6499,-1.24632 4.5486,-6.81054 c 15.6544,-23.43926 55.7604,-51.12989 92.0533,-63.55696 19.2111,-6.57806 23.8095,-7.50309 36.7327,-7.38933 11.8837,0.10461 14.5255,0.55556 32.3927,5.5295 28.7557,8.00513 64.8572,33.56264 86.5908,61.30066 2.1547,2.75 4.7501,5.83345 5.7675,6.85212 1.0935,1.09484 1.5886,2.5259 1.211,3.5 -0.3514,0.90633 -1.0027,3.58117 -1.4474,5.94407 -0.4446,2.36291 -1.0386,4.52631 -1.3198,4.80758 -0.2813,0.28126 -1.5579,-0.97703 -2.8369,-2.79619 -9.2261,-13.12277 -31.1658,-32.85209 -45.6424,-41.04414 C 814.03141,756.81019 804.75761,753 802.78841,753 c -1.5251,0 -0.7679,2.06938 0.9616,2.6283 10.1957,3.29484 25.9531,15.83041 38.5197,30.6438 5.9677,7.03461 13.7303,17.32804 13.7303,18.20664 0,0.31028 1.1897,2.36186 2.6437,4.55907 1.4541,2.1972 4.1091,7.89048 5.9001,12.65172 3.1245,8.30625 3.2001,8.84213 1.8671,13.23363 -0.7641,2.51726 -1.3941,7.66248 -1.4001,11.43383 -0.01,6.13595 -0.1948,6.78127 -1.7608,6.13688 -12.615,-5.19096 -25.25,-8.51435 -25.25,-6.64155 0,0.48178 2.1375,1.67647 4.75,2.65486 6.8737,2.57422 17.1396,8.71698 21.9801,13.15214 2.3055,2.11237 7.9449,9.53683 12.532,16.49878 l 8.3403,12.65811 0.2351,31.78098 c 0.1868,25.24572 0.5668,33.13014 1.8479,38.3419 1.8777,7.63899 4.7679,13.83504 7.6065,16.30698 1.8571,1.61724 1.9242,2.23434 0.9084,8.36396 -1.1539,6.96389 -3.26,10.38997 -6.3868,10.38997 -1.9124,0 -11.8877,-3.1362 -17.3135,-5.4433 -7.4399,-3.16354 -8.8269,-3.5567 -12.547,-3.5567 -2.1742,0 -3.953,0.45 -3.953,1 0,0.55 1.0145,1 2.2545,1 1.2399,0 5.1774,1.77733 8.75,3.94962 16.1236,9.80398 22.9531,12.49648 28.0147,11.04488 2.6684,-0.7653 2.9724,-0.6264 2.9008,1.3253 -0.044,1.1991 -0.8315,4.8367 -1.75,8.0834 l -1.67,5.9033 -6,1.6766 c -7.0497,1.97 -20.5864,7.4843 -32.4175,13.2055 -4.6297,2.2388 -10.0812,4.1512 -12.1146,4.2498 -4.0704,0.1974 -12.412,5.094 -15.1237,8.8776 -2.2361,3.1201 -4.8263,12.1251 -4.9231,17.1155 -0.043,2.2377 -0.3157,3.4769 -0.6049,2.7539 -0.2893,-0.7231 -1.5853,-1.7174 -2.88,-2.2097 -1.8041,-0.6859 -2.8258,-2.4816 -4.3729,-7.6853 -2.1384,-7.1928 -4.0633,-23.2504 -4.0633,-33.8964 0,-3.5167 -0.3959,-6.394 -0.8798,-6.394 -2.1178,0 -3.8901,35.9817 -2.1544,43.738 2.2378,9.9995 -1.9101,8.1707 -6.7244,-2.9648 -3.9724,-9.188 -7.395,-24.7462 -7.5939,-34.5194 -0.081,-3.9854 -0.4325,-7.2479 -0.7809,-7.25 -3.1153,-0.019 -2.1807,30.6841 1.2705,41.7371 0.8508,2.7247 0.6708,3.7201 -1.13,6.2491 -2.4025,3.3741 -3.0816,3.2297 -8.9831,-1.9093 -2.4476,-2.1314 -4.3601,-2.961 -6.4637,-2.8039 -2.8276,0.2112 -3.1337,-0.1518 -5.7136,-6.7768 -1.4993,-3.85 -3.2594,-9.1293 -3.9112,-11.7318 -1.9018,-7.5927 -3.2845,-4.662 -2.6546,5.6263 0.3066,5.008 0.8882,10.0055 1.2926,11.1055 0.5774,1.571 0.043,1.3565 -2.4928,-1 l -3.2278,-3 -4.3229,4.7 c -4.0246,4.3758 -4.3636,4.5483 -4.9128,2.5 -0.3244,-1.21 -0.596,-7.0109 -0.6035,-12.891 -0.01,-5.88 -0.4305,-10.9486 -0.94,-11.2635 -0.9211,-0.5692 -1.3001,1.064 -4.5734,19.7045 -0.9416,5.3625 -1.9372,9.75 -2.2123,9.75 -0.2751,0 -2.2047,-1.35 -4.288,-3 -4.4761,-3.5452 -5.3533,-3.6305 -10.2648,-0.9981 l -3.7352,2.002 v -13.9202 c 0,-7.6561 -0.2731,-14.6319 -0.607,-15.5019 -1.2397,-3.2306 -2.1529,-1.3826 -2.801,5.6682 -0.3666,3.9875 -1.3809,10.5619 -2.2541,14.6099 l -1.5875,7.3598 -2.2152,-2.778 -2.2151,-2.778 -4.5265,4.1724 -4.5265,4.1724 -4.4618,-2.4938 -4.4619,-2.4938 1.4106,-8.7604 c 1.8635,-11.5734 1.2785,-35.283 -0.9933,-40.2605 -1.5808,-3.4633 -1.5984,-3.3827 -1.6791,7.6765 -0.081,11.1356 -1.9444,23.0898 -5.9448,38.1445 -2.2202,8.3551 -2.2746,8.4471 -4.4937,7.5955 -1.3981,-0.5365 -1.6551,-2.5158 -1.7236,-13.2735 -0.079,-12.4337 -1.4511,-21.1855 -3.4195,-21.8133 -0.6093,-0.1943 -1.0518,3.1667 -1.1326,8.6023 -0.073,4.9067 -0.6097,11.0917 -1.1928,13.7446 -0.5831,2.6529 -1.3328,6.9235 -1.6662,9.4904 -0.4354,3.3533 -1.2563,5.093 -2.9162,6.1806 l -2.3101,1.5137 z m 108.5929,-36.2067 c 7.0468,-3.7905 7.7528,-17.085 1.8927,-35.6454 -15.6823,-49.67023 -21.8929,-64.01846 -26.1728,-60.46643 -0.7737,0.64207 -1.6937,2.69718 -2.0444,4.56691 -0.3508,1.86974 -1.2244,3.39952 -1.9413,3.39952 -0.717,0 -2.9552,-2.25 -4.9739,-5 -5.1508,-7.01676 -6.8311,-6.6649 -8.3573,1.75 -0.6733,3.7125 -1.8714,9.225 -2.6624,12.25 -0.791,3.025 -2.5641,10 -3.9401,15.5 -1.3761,5.5 -3.6497,14.05 -5.0526,19 -5.8812,20.75166 -6.7164,30.1408 -3.4563,38.8541 2.461,6.5777 5.4205,8.2263 13.1289,7.3133 7.1169,-0.8429 9.8398,-2.8395 9.8398,-7.2152 0,-2.8749 0.4782,-3.6835 2.6712,-4.5173 4.0955,-1.5571 5.6507,-0.8057 7.8627,3.799 2.7059,5.6327 3.5314,6.3379 9.0622,7.7423 4.9046,1.2453 10.2979,0.7379 14.1436,-1.3308 z m 97.2603,-8.7356 c 0,-1.6251 -5.8079,-8.3124 -9.878,-11.3736 -7.4355,-5.59262 -15.3525,-8.30224 -24.6245,-8.42782 l -8.0025,-0.10838 0.3623,-3.79993 c 0.5013,-5.25816 -1.8547,-7.70007 -7.4294,-7.70007 -3.6366,0 -13.4279,3.14585 -13.4279,4.31428 0,0.21194 3.3143,0.17265 7.3651,-0.0873 8.0541,-0.51688 9.5118,0.25919 7.5178,4.00236 -1.4509,2.72376 -3.1741,4.17134 -8.0766,6.7848 -4.2156,2.24728 -10.8063,8.67746 -10.8063,10.54306 0,0.797 1.92,0.2105 5.2941,-1.6169 6.0708,-3.2882 16.1474,-5.911 22.7059,-5.91017 9.3875,10e-4 25.9576,5.52877 34,11.34197 3.5053,2.5336 5,3.1428 5,2.0377 z m -238.7708,-5.6258 c 1.5011,-1.0398 5.5511,-3.1493 9,-4.6877 15.5459,-6.93418 30.0631,-6.58432 45.4397,1.0951 10.6767,5.3322 2.7329,-4.28247 -8.3527,-10.10957 -11.3547,-5.96854 -9.3552,-8.68709 6.12,-8.3209 8.9859,0.21264 9.993,-0.50863 3.6646,-2.62445 -4.7172,-1.57712 -18.1567,-1.40999 -20.3473,0.25304 -0.9606,0.72925 -2.0181,2.68365 -2.35,4.3431 -0.592,2.95985 -0.7394,3.02629 -7.7535,3.49556 -9.3946,0.62854 -18.7658,4.87663 -26.1376,11.84852 -7.6198,7.2065 -7.1686,10.1696 0.7168,4.7073 z m 229.6126,-33.27051 c 2.3879,-0.31156 6.1004,-1.4637 8.25,-2.56031 3.5698,-1.82117 4.4125,-2.93676 3.9972,-5.29146 -0.2017,-1.14387 2.1796,-16.54044 5.9024,-38.16172 1.7046,-9.9 2.8249,-19.09401 2.4895,-20.43113 -0.968,-3.85836 -15.1461,-17.6611 -23.943,-23.30903 -20.6106,-13.2327 -40.6389,-15.32368 -60.9095,-6.35903 -3.0956,1.36902 -5.6284,2.03957 -5.6284,1.49011 0,-1.459 5.8335,-11.72357 9.4135,-16.56403 3.1262,-4.2268 9.0214,-8.32689 11.9727,-8.32689 0.8876,0 1.6138,-0.45 1.6138,-1 0,-1.67824 -5.853,-1.11564 -9.9063,0.9522 -5.7303,2.92338 -9.5809,6.50892 -15.4769,14.41147 -5.5471,7.43482 -15.6168,23.98496 -15.6168,25.66701 0,2.11263 -1.6983,0.6127 -6,-5.29903 -3.2431,-4.45692 -6.2556,-7.20425 -10.7855,-9.83584 -7.1048,-4.12753 -12.1292,-5.24132 -19.333,-4.2857 -6.5887,0.87402 -13.5963,7.02753 -17.5585,15.4184 -1.5509,3.28432 -3.0455,5.96597 -3.3214,5.95923 -0.2759,-0.007 -2.4635,-3.39905 -4.8615,-7.53845 -2.3979,-4.13939 -4.8737,-8.07138 -5.5017,-8.73773 -0.6281,-0.66636 -2.41,-3.16185 -3.9599,-5.54554 -5.2638,-8.09551 -17.5016,-19.92154 -23.9494,-23.14354 -3.3267,-1.66236 -6.6517,-3.02248 -7.3888,-3.02248 -2.3367,0 -1.4485,1.71252 1.5275,2.94526 3.685,1.52634 10.3026,7.89492 14.6904,14.13752 3.8334,5.45379 4.3962,7.56283 1.6918,6.33974 -0.9625,-0.4353 -6.0358,-0.97244 -11.274,-1.19364 -7.9808,-0.33701 -11.1405,0.0276 -19.5,2.24996 -12.9931,3.45423 -23.4504,8.69377 -30.8,15.43204 -3.6604,3.35593 -9.5772,13.11035 -11.1771,18.42662 -1.1742,3.90132 -1.0589,4.58727 1.7801,10.59681 3.2997,6.985 3.4035,8.23138 2.2117,26.56569 -0.7864,12.09585 0.041,17.02294 3.7945,22.59896 3.4974,5.1955 6.8584,6.42587 17.0438,6.23941 11.6833,-0.21389 28.4251,-4.16647 42.671,-10.07424 28.5794,-11.85188 39.7901,-24.86512 40.7923,-47.35151 0.3286,-7.37362 0.068,-10.28299 -1.1306,-12.59995 -1.501,-2.90268 -1.4537,-3.13662 1.2977,-6.41263 l 2.8556,-3.40004 0.8425,3 c 0.4634,1.65 0.8027,7.8375 0.754,13.75 -0.049,5.9125 0.2182,10.75 0.5931,10.75 0.3749,0 1.6522,-3.54163 2.8385,-7.87029 2.5401,-9.26865 2.8752,-20.65918 0.6991,-23.76594 -1.3402,-1.91354 -1.2559,-2.17319 1.0471,-3.2225 3.3311,-1.51777 11.5949,-1.45301 14.5464,0.114 4.7731,2.53419 4.7955,2.57529 3.1744,5.82495 -3.1928,6.40012 -0.1304,21.42974 5.9942,29.41821 2.3487,3.06346 3.2122,0.98141 1.343,-3.23823 -2.8023,-6.32582 -3.5962,-13.02114 -2.188,-18.45009 0.694,-2.67553 1.5939,-5.18984 1.9996,-5.58736 0.8336,-0.81662 7.5714,6.30575 11.9367,12.61798 2.5964,3.75431 2.8792,4.93487 2.7369,11.42315 -0.3703,16.88378 7.5818,27.97074 29.3675,40.94422 23.9302,14.25057 38.0451,17.95348 58.3418,15.30539 z m 34.2465,-56.81315 c -0.1009,-30.6248 0.578,-27.8173 -10.1063,-41.79381 -3.8491,-5.03514 -8.4436,-12.13643 -10.2101,-15.78066 -3.0576,-6.308 -3.1928,-7.08162 -2.8179,-16.12587 0.6461,-15.58577 0.5894,-22.8913 -0.2714,-34.96597 l -0.8174,-11.46597 2.0674,1.87096 c 1.1371,1.02902 2.0674,2.28263 2.0674,2.78579 0,0.50316 1.2862,2.79592 2.8582,5.09501 2.9328,4.28941 7.1257,12.8387 12.3492,25.18018 10.7567,25.41484 15.3477,55.62271 11.4264,75.18462 -0.7514,3.74846 -1.9189,10.86538 -2.5945,15.81538 -0.6756,4.95 -1.8211,11.7 -2.5455,15 -1.2121,5.5211 -1.3243,3.86094 -1.4055,-20.79966 z"
       id="path18" />
    <path
       style="fill:#020202"
       d="m 746.50001,1412.3191 c -40.3326,-9.0517 -62.4962,-16.485 -92.5,-31.0232 -61.1215,-29.616 -124.1883,-72.7999 -176.4989,-120.8546 -32.0411,-29.4342 -73.7989,-74.1114 -93.0354,-99.5397 -27.7373,-36.6652 -40.3897,-54.895 -55.3908,-79.808 -5.557,-9.2287 -24.3334,-42.9459 -28.9286,-51.9476 -3.1406,-6.1523 -18.1098,-38.94182 -19.6972,-43.146 -0.7268,-1.925 -2.7419,-6.875 -4.478,-11 -3.285,-7.80519 -4.9543,-12.44198 -11.7007,-32.5 -7.8298,-23.27935 -10.2826,-31.95819 -14.807,-52.39336 -1.3874,-6.26635 -2.7289,-11.72715 -2.981,-12.13512 -0.6836,-1.10602 -5.4038,-29.79565 -7.0699,-42.97152 -2.4309,-19.22263 -4.1589,-109.01719 -6.3217,-328.5 -0.5853,-59.4 -1.5193,-123.525 -2.0756,-142.5 -0.5563,-18.975 -1.2804,-62.69893 -1.6092,-97.1643 -0.6596,-69.14647 -0.6676,-69.03309 5.4994,-77.54646 4.4412,-6.13084 8.5207,-8.77999 25.8113,-16.76145 42.5836,-19.65694 90.0168,-36.81765 144.7833,-52.38079 9.9518,-2.82802 50.6708,-12.89675 59,-14.58913 18.6358,-3.78654 27.5848,-5.632819 34,-7.014649 3.85,-0.82928 11.725,-2.222118 17.5,-3.095195 5.775,-0.873078 12.075,-1.98459 14,-2.470027 1.925,-0.485437 9.125,-1.585358 16,-2.444269 6.875,-0.85891 14.525,-2.003561 17,-2.543668 2.475,-0.540106 13.05,-1.928425 23.5,-3.085151 35.254,-3.902323 31.5582,-3.572027 91.5,-8.17726 18.8654,-1.449398 164.9791,-1.425584 181.5,0.02958 6.6,0.581329 22.0036,1.784938 34.2302,2.674688 12.2266,0.889749 25.7266,2.011313 30,2.492363 4.2734,0.48105 16.5448,1.809673 27.2698,2.952497 10.725,1.142823 20.85,2.346512 22.5,2.674865 1.65,0.328352 10.65,1.670712 20,2.983021 31.04159,4.356808 58.40689,9.194059 86.99999,15.378605 27.114,5.86462 32.1282,7.02153 46,10.61338 7.7,1.99377 16.7,4.28192 20,5.08477 3.3,0.80286 8.7,2.3104 12,3.35009 3.3,1.0397 10.05,3.09509 15,4.56755 36.0327,10.71849 79.9306,27.37828 88.5026,33.58776 5.1798,3.75226 9.5937,10.66799 11.0167,17.26097 0.7401,3.42908 0.9785,17.84825 0.7213,43.62221 -0.4405,44.14886 -3.2494,262.05222 -4.7888,371.5 -0.5724,40.7 -1.4572,107.075 -1.9662,147.5 -0.6433,51.08922 -1.3728,77.92118 -2.3926,88 -1.9111,18.88762 -5.3198,43.05626 -7.0518,50 -0.7546,3.025 -1.6663,7.525 -2.0261,10 -0.3597,2.475 -2.0055,10.125 -3.6572,17 -17.4005,72.42793 -46.8629,139.2069 -90.2237,204.5 -15.6519,23.5688 -40.7829,56.2351 -59.6729,77.5653 -24.8111,28.0162 -66.8545,68.0457 -96.4613,91.8407 -35.47759,28.5133 -64.45239,48.3553 -105.74949,72.4172 -7.8378,4.5667 -16.0505,9.2229 -18.2505,10.3471 -2.2,1.1242 -8.275,4.296 -13.5,7.0485 -10.9124,5.7485 -52.6336,25.0096 -64.5,29.7773 -11.2893,4.5358 -22.8545,8.2611 -31.0085,9.9882 -6.5125,1.3795 -21.4297,1.8586 -25.9915,0.8348 z m 34,-18.3389 c 13.7631,-4.4465 25.4209,-9.2233 44.5,-18.234 5.225,-2.4677 11.75,-5.4897 14.5,-6.7155 12.8332,-5.7206 35.9011,-17.7276 51.5,-26.806 66.5702,-38.7433 121.11769,-80.9627 173.58669,-134.355 45.2072,-46.0027 82.9262,-96.0904 112.4343,-149.3035 9.0549,-16.3291 19.8758,-37.8123 24.9661,-49.5662 1.7864,-4.125 4.0951,-9.38781 5.1305,-11.69514 1.0353,-2.30732 1.8824,-4.44973 1.8824,-4.76089 0,-0.31117 0.8876,-2.47336 1.9724,-4.80487 2.1488,-4.61809 9.285,-24.38108 14.5298,-40.2391 5.776,-17.46377 12.6027,-43.79543 15.037,-58 0.8484,-4.95 1.9667,-10.35 2.4852,-12 1.1777,-3.7475 4.7129,-29.45483 6.6008,-48 0.9696,-9.52413 1.7227,-37.49832 2.3555,-87.5 0.5117,-40.425 1.3987,-106.8 1.9711,-147.5 3.9289,-279.33809 5.3382,-406.885 4.544,-411.26475 -0.9608,-5.29889 -6.0969,-9.41527 -17.5911,-14.09844 -5.7226,-2.33162 -11.3047,-4.66256 -12.4047,-5.17987 -2.6903,-1.26518 -25.2868,-9.243 -39.5,-13.94571 -57.4425,-19.00589 -125.8204,-34.46053 -196.99999,-44.52558 -9.625,-1.36101 -18.625,-2.71092 -20,-2.9998 -1.375,-0.28889 -11.275,-1.46162 -22,-2.606088 -10.725,-1.144463 -22.9964,-2.474428 -27.2698,-2.955478 -4.2734,-0.48105 -17.7734,-1.602614 -30,-2.492363 -12.2266,-0.88975 -27.6302,-2.092906 -34.2302,-2.673681 -16.5066,-1.452516 -160.6592,-1.476537 -179.5,-0.02991 -44.4577,3.413531 -56.3054,4.372592 -64,5.18072 -29.0462,3.050605 -47.0138,5.20579 -50.5,6.05738 -2.2,0.53741 -10.075,1.71189 -17.5,2.60997 -7.425,0.89807 -13.839,1.83829 -14.2534,2.08937 -0.4144,0.25107 -7.3894,1.55299 -15.5,2.89314 -20.5338,3.39289 -54.2509,10.16154 -64.2466,12.89739 -3.025,0.82796 -12.25,3.13029 -20.5,5.11629 -20.5454,4.94586 -32.622,8.38946 -62,17.67912 -16.3694,5.17619 -46.6174,15.74769 -52,18.17369 -1.65,0.74368 -4.125,1.67724 -5.5,2.0746 -1.375,0.39736 -3.85,1.31718 -5.5,2.04405 -1.65,0.72688 -7.05,2.9682 -12,4.98072 -4.95,2.01252 -11.3758,4.74275 -14.2796,6.06718 -2.9038,1.32443 -5.4881,2.40805 -5.7429,2.40805 -0.2548,0 -6.0745,2.70785 -12.9328,6.01743 -9.4497,4.56018 -13.1446,6.90421 -15.2571,9.6792 l -2.7876,3.66176 v 33.07081 c 0,18.18894 0.2745,51.2958 0.6099,73.5708 0.3355,22.275 1.3457,97.2 2.2449,166.5 3.8659,297.91455 4.7194,341.23367 7.0832,359.5 3.663,28.30632 11.2576,64.49627 18.0474,86 4.591,14.54008 8.7278,26.78466 9.9663,29.5 0.7527,1.65 1.9029,5.025 2.5562,7.5 0.6532,2.475 1.5299,4.95 1.9482,5.5 0.4182,0.55 1.4673,3.025 2.3313,5.5 6.3257,18.12154 22.117,51.3737 37.9916,80 20.6551,37.2469 34.5643,58.1351 69.1867,103.9016 19.0151,25.1356 58.8283,67.8167 90.053,96.5397 50.7974,46.7278 113.5025,89.9784 170.9813,117.9338 6.6,3.21 13.575,6.6371 15.5,7.6159 1.925,0.9787 4.625,2.1089 6,2.5116 1.375,0.4026 4.8505,1.7927 7.7234,3.089 2.8728,1.2963 6.4728,2.6556 8,3.0206 1.5271,0.3649 3.2266,0.9904 3.7766,1.3899 1.4255,1.0354 19.8246,6.2721 34.5,9.8192 6.875,1.6618 13.4,3.2592 14.5,3.5499 1.1,0.2907 6.725,0.3736 12.5,0.1842 8.4708,-0.2779 12.4325,-0.9688 20.5,-3.5752 z m -40.383,-24.5675 c -26.4164,-6.5168 -43.3939,-12.7075 -70.0915,-25.5583 -86.9946,-41.8746 -173.8808,-111.4618 -242.135,-193.9259 -5.2025,-6.2857 -10.3437,-12.5978 -11.4248,-14.0269 -20.4495,-27.0316 -33.6292,-45.4521 -42.1438,-58.9016 -29.2027,-46.1284 -49.096,-85.27341 -64.0325,-126 -9.605,-26.18958 -11.831,-33.12198 -18.7849,-58.5 -4.4085,-16.089 -8.9289,-39.98022 -12.1092,-64 -2.4044,-18.15963 -4.1212,-107.30873 -6.3163,-328 -0.5854,-58.85 -1.5153,-124.1 -2.0666,-145 -0.5512,-20.9 -1.2288,-61.42316 -1.5058,-90.05146 l -0.5036,-52.05146 4.7485,-2.33954 c 7.9592,-3.92141 29.0922,-12.97744 41.2485,-17.676 6.325,-2.44469 12.625,-4.92712 14,-5.51651 9.359,-4.01172 56.6797,-20.02408 70,-23.68656 1.925,-0.52928 8.225,-2.34638 14,-4.038 29.254,-8.56907 85.3061,-21.07061 114.9238,-25.63195 5.7331,-0.88293 10.7167,-1.78634 11.0747,-2.00757 0.3579,-0.22123 6.4672,-1.1176 13.5761,-1.99195 7.109,-0.87434 14.9504,-2.03218 17.4254,-2.57297 4.022,-0.87879 22.6958,-3.12359 50,-6.01053 9.2225,-0.97512 31.687,-2.77581 64.5,-5.17014 20.8268,-1.5197 152.126,-1.47905 169.5,0.0525 6.875,0.60604 22.175,1.79797 34,2.64874 11.825,0.85076 25.325,1.97963 30,2.50858 4.675,0.52895 16.825,1.85931 27,2.95637 10.175,1.09705 21.2,2.47105 24.5,3.05333 3.3,0.58228 12.3,1.92891 20,2.99252 19.72409,2.7245 40.77279,5.96852 42.25299,6.51204 0.6891,0.25305 5.4141,1.1624 10.5,2.02079 17.6117,2.97249 64.8046,13.43379 83.247,18.45344 16.1664,4.40019 26.4988,7.30668 34.5,9.70489 18.6071,5.57712 47.1397,15.47794 65,22.55502 l 8.5,3.36809 -0.07,31.45918 c -0.065,29.52633 -2.1233,197.00127 -4.4786,364.45917 -0.5724,40.7 -1.4536,107.075 -1.9582,147.5 -0.922,73.8648 -1.3223,82.18602 -5.461,113.5 -2.5098,18.98949 -8.7681,49.48665 -13.7489,67 -28.5774,100.48218 -81.0206,189.46428 -159.3824,270.42948 -58.44459,60.3862 -132.53029,114.9079 -203.90129,150.0566 -36.4027,17.9276 -51.036,24.4227 -68.8238,30.5483 -14.518,4.9995 -18.4591,5.0969 -35.5592,0.8783 z m 33.883,-11.2883 c 16.4574,-5.7613 31.831,-12.6024 65.5,-29.1469 33.6845,-16.5521 75.7435,-42.6591 109.7896,-68.149 C 1052.4241,1183.613 1132.32,1084.455 1174.7594,981 c 22.258,-54.25878 33.458,-99.10025 39.838,-159.5 1.0471,-9.91296 1.7466,-35.45697 2.3962,-87.5 0.5046,-40.425 1.3858,-106.8 1.9582,-147.5 2.1482,-152.7321 4.4045,-333.91178 4.4751,-359.34979 l 0.073,-26.34979 -5,-1.96548 c -8.7301,-3.43178 -29.5973,-10.88548 -41.5,-14.82371 -16.8327,-5.56941 -27.338,-8.66461 -54.5,-16.05758 -18.4424,-5.01965 -65.6353,-15.48095 -83.247,-18.45344 -5.0859,-0.85839 -9.8109,-1.76774 -10.5,-2.02079 -1.4802,-0.54352 -22.5289,-3.78754 -42.25299,-6.51204 -7.7,-1.06361 -16.7,-2.41024 -20,-2.99252 -3.3,-0.58228 -14.325,-1.95628 -24.5,-3.05333 -10.175,-1.09706 -22.325,-2.42742 -27,-2.95637 -4.675,-0.52895 -18.175,-1.65782 -30,-2.50858 -11.825,-0.85077 -27.125,-2.04104 -34,-2.64504 -17.3206,-1.52169 -142.7745,-1.56294 -163.5,-0.0538 -32.459,2.36359 -55.2464,4.18932 -64.5,5.16772 -27.3042,2.88694 -45.978,5.13174 -50,6.01053 -2.475,0.54079 -10.3164,1.69863 -17.4254,2.57297 -7.1089,0.87435 -13.2182,1.77072 -13.5761,1.99195 -0.358,0.22123 -5.3416,1.12464 -11.0747,2.00757 -29.6177,4.56134 -85.6698,17.06288 -114.9238,25.63195 -5.775,1.69162 -12.075,3.50872 -14,4.038 -13.3203,3.66248 -60.641,19.67484 -70,23.68656 -1.375,0.58939 -7.675,3.07182 -14,5.51651 -13.7493,5.3143 -37.2102,15.40759 -38.1361,16.40684 -0.3627,0.39139 -0.2956,28.38662 0.1491,62.21162 0.4447,33.825 1.5179,117.3 2.3849,185.5 3.6694,288.64947 4.6851,340.66604 6.9907,358 3.2134,24.15889 7.7156,47.9409 12.1159,64 6.9539,25.37802 9.1799,32.31042 18.7849,58.5 14.7483,40.21352 33.0806,76.26784 62.0325,122.00004 8.5146,13.4495 21.6943,31.87 42.1438,58.9016 18.3198,24.2165 56.0322,64.7752 85.3527,91.7947 56.0593,51.6599 127.3123,99.109 185.2023,123.3308 12.0882,5.0578 32.6526,11.585 48.024,15.2428 16.0563,3.8208 16.8531,3.7913 30.9553,-1.1455 z m -73,-142.5709 c -22.926,-5.6636 -43.0911,-19.0492 -63.1658,-41.9292 l -8.0055,-9.1243 0.4413,-7.3409 0.4413,-7.3408 -5.1057,-4.0203 c -2.8081,-2.2111 -5.4913,-4.6913 -5.9626,-5.5116 -0.9333,-1.6239 -0.5086,-9.3426 1.3511,-24.5596 0.919,-7.5191 0.9252,-13.0544 0.027,-24 -2.2986,-28.0126 -2.5964,-30.0631 -4.5291,-31.1832 -4.2647,-2.4717 -8.4917,-6.9023 -8.4883,-8.8972 0,-1.1805 0.9556,-3.7077 2.1189,-5.616 2.1792,-3.5747 2.8703,-10.5195 1.4726,-14.7972 -0.4073,-1.2467 -2.4818,-3.155 -4.61,-4.2407 -5.0715,-2.5874 -7.9706,-6.5576 -12.7729,-17.4925 -8.3071,-18.91501 -8.7794,-23.65609 -3.1336,-31.44998 l 3.0324,-4.1861 -3.5412,-14.18196 c -5.2726,-21.11532 -6.3024,-27.19678 -9.0899,-53.68196 -4.85,-46.08246 4.0339,-93.33235 22.8445,-121.5 1.4692,-2.2 3.8051,-5.68963 5.1909,-7.75474 3.5191,-5.24402 19.7248,-21.26472 27.4985,-27.18463 10.5148,-8.0073 20.7612,-14.72397 32.4997,-21.304 6.0575,-3.39552 12.5825,-7.82494 14.5,-9.84314 l 3.4864,-3.66947 -3,0.59902 c -5.835,1.16509 -22.6419,2.84842 -23.1697,2.3206 -0.2944,-0.2944 2.7734,-2.19406 6.8172,-4.22146 9.389,-4.70719 16.0471,-8.58089 15.5696,-9.05841 -0.2053,-0.20528 -5.3434,0.31775 -11.4181,1.16228 -6.0747,0.84454 -15.0396,1.40467 -19.922,1.24474 l -8.877,-0.29079 13,-5.29608 c 7.15,-2.91284 16.15,-6.82333 20,-8.68996 l 7,-3.39388 -11,0.68996 c -21.8523,1.37066 -66.0798,0.74343 -80,-1.13455 -28.4868,-3.84316 -27.8298,-4.11976 13,-5.47343 44.9579,-1.49054 86.2657,-5.43803 106.9727,-10.22261 2.215,-0.51181 4.5424,-0.94156 5.1721,-0.955 0.644,-0.0138 -0.7859,4.53067 -3.2687,10.38864 -4.2183,9.95264 -8.3761,23.75931 -8.3761,27.81426 0,1.52867 0.4468,1.76182 2.25,1.17414 1.2375,-0.4033 5.175,-1.53155 8.75,-2.50722 5.5628,-1.51816 5.9953,-1.78682 3,-1.8633 -3.3431,-0.0854 -3.1413,-0.27975 4.5,-4.3351 4.4,-2.33516 10.663,-6.03452 13.9178,-8.22081 l 5.9178,-3.97506 -12.6678,-0.27988 c -6.9673,-0.15393 -12.6678,-0.63362 -12.6678,-1.06598 0,-0.43236 2.5875,-1.8511 5.75,-3.15274 7.266,-2.99061 15.4099,-7.93368 14.7718,-8.96606 -0.2677,-0.43327 -4.5345,-1.84379 -9.4816,-3.1345 -4.9471,-1.29071 -8.4425,-2.63895 -7.7675,-2.9961 1.7505,-0.92622 35.8176,-9.14787 36.2229,-8.74194 0.1852,0.18546 1.0129,5.5122 1.8394,11.8372 1.4737,11.27785 6.3698,28.98518 8.8896,32.15025 3.1471,3.953 9.9224,4.84465 37.7035,4.96188 l 26.5719,0.11212 -13.6871,2.13788 c -7.5279,1.17583 -13.9096,2.3696 -14.1816,2.65282 -0.272,0.28322 13.1831,3.65822 29.9001,7.5 16.7171,3.84178 29.9587,7.13593 29.4258,7.32033 -0.5329,0.18441 -11.3672,-0.62715 -24.0763,-1.80345 -12.709,-1.17631 -23.2339,-2.00219 -23.3886,-1.83529 -0.1546,0.1669 3.3838,2.77039 7.8633,5.78553 21.273,14.319 42.2156,35.00239 56.7199,56.01793 18.758,27.17887 30.5788,59.78351 32.9445,90.86908 0.8202,10.77708 0.5277,15.78042 -1.9367,33.13092 -0.8324,5.86022 -1.5093,10.33535 -4.0084,26.5 -0.4252,2.75 -1.8268,11.15174 -3.1148,18.67053 l -2.3417,13.67054 3.3181,3.09965 3.3182,3.09965 -0.683,8.22982 c -0.6171,7.43419 -1.4122,11.49272 -4.7473,24.22981 -1.3843,5.2869 -5.877,14.6053 -7.2421,15.0211 -0.5952,0.1813 -3.1073,0.6013 -5.5823,0.9334 -2.475,0.3321 -5.1609,1.0156 -5.9686,1.5188 -2.0119,1.2534 -1.804,10.6319 0.3271,14.753 1.8933,3.6612 2.1513,10.4129 0.5193,13.5894 -1.5991,3.1126 -6.0353,7.6843 -7.4565,7.6843 -1.5686,0 -2.267,2.9802 -3.4667,14.7927 -2.4533,24.1561 -2.3972,29.9145 0.4132,42.4206 4.5861,20.4082 3.2071,31.2344 -5.2031,40.8486 -2.5613,2.9278 -6.2079,8.8962 -8.2455,13.4952 -8.0114,18.0822 -20.0425,30.579 -35.1857,36.548 -4.6165,1.8196 -25.3671,5.2394 -26.7197,4.4034 -0.3172,-0.196 -14.9791,-0.9023 -32.5821,-1.5696 -24.7768,-0.9392 -34.1427,-0.9451 -41.4686,-0.026 -15.5712,1.9531 -20.1897,2.0671 -25.9631,0.6408 z m 92,-9.1249 c 0,-1.6345 -6.0059,-5.323 -15,-9.2122 -2.0472,-0.8853 -2.1526,-1.0933 -0.5819,-1.1487 7.4042,-0.2613 22.0552,4.2849 28.424,8.8198 2.5856,1.8412 3.1381,1.8724 9.5044,0.538 18.1031,-3.7948 31.1309,-15.5741 39.4896,-35.7054 l 2.9979,-7.2201 -2.078,-9 c -1.8929,-8.1982 -2.0823,-12.2072 -2.1261,-45 -0.035,-26.0696 0.3189,-37.8743 1.2827,-42.795 0.732,-3.7372 1.0929,-7.0329 0.802,-7.3237 -0.2908,-0.2908 -1.8869,0.1736 -3.5469,1.032 -3.2524,1.6819 -3.5938,2.5876 -8.136,21.5867 -3.0134,12.6048 -6.8076,23.8766 -9.1392,27.151 -1.3231,1.8582 -1.8925,4.3683 -1.8925,8.3436 0,5.066 -0.3271,5.9729 -3,8.3183 -1.65,1.4479 -3,3.0593 -3,3.581 0,0.5218 -0.6288,1.6591 -1.3973,2.5274 -0.7685,0.8683 -3.0501,6.3037 -5.0702,12.0787 l -3.6731,10.5 0.5717,-9 c 0.3144,-4.95 0.6836,-10.125 0.8203,-11.5 0.1995,-2.0062 -0.2452,-2.5555 -2.2514,-2.781 -2.0081,-0.2258 -3.0466,0.5906 -5.2776,4.1485 -1.5277,2.4363 -3.7916,4.684 -5.0308,4.9951 -1.7947,0.4504 -2.8572,2.3496 -5.2224,9.335 l -2.9692,8.7696 -0.2866,-9.1661 -0.2867,-9.166 -2.7572,1.5824 c -4.0324,2.3143 -9.302,1.0345 -12.9775,-3.1516 -1.6284,-1.8546 -3.1681,-3.9782 -3.4216,-4.719 -0.3178,-0.929 -1.4091,-0.3384 -3.5168,1.9031 -3.5128,3.7358 -6.3662,4.0931 -9.9807,1.25 -2.7695,-2.1785 -5.7821,-2.6031 -6.7987,-0.9583 -0.354,0.5729 -2.6362,0.9385 -5.0715,0.8125 -2.4352,-0.1261 -4.9621,0.3052 -5.6152,0.9583 -1.7956,1.7956 -5.6611,1.4287 -9.4195,-0.8941 -1.8524,-1.1448 -3.368,-1.5948 -3.368,-1 0,1.9696 -3.9599,5.0816 -6.4661,5.0816 -1.3563,0 -4.0199,-0.741 -5.919,-1.6466 -3.3,-1.5737 -3.6139,-1.5515 -7.091,0.5 -4.7019,2.7742 -6.706,2.7057 -10.3415,-0.3534 -2.8223,-2.3748 -7.6052,-3.3638 -8.463,-1.75 -0.2193,0.4125 -0.049,5.2407 0.3782,10.7294 0.4273,5.4887 0.6406,10.1157 0.474,10.2824 -0.1667,0.1666 -1.7611,-3.7408 -3.5433,-8.6832 -4.4745,-12.4091 -4.7895,-12.7663 -9.9072,-11.233 -4.6631,1.3971 -4.6103,1.1809 -2.6037,10.654 1.3731,6.4826 1.9627,13.937 0.8305,10.5004 -0.2718,-0.825 -0.8875,-2.4 -1.3682,-3.5 -0.4808,-1.1 -2.2805,-5.4651 -3.9995,-9.7001 -3.862,-9.5153 -7.5462,-14.7035 -13.0867,-18.4294 -3.9926,-2.6849 -4.3752,-3.3555 -5.9171,-10.3705 -0.9067,-4.125 -2.5615,-10.2 -3.6773,-13.5 -1.1158,-3.3 -2.5085,-9.375 -3.0948,-13.5 -4.9069,-34.5234 -5.0186,-35.109 -6.8109,-35.7038 -1.182,-0.3923 -1.0516,3.3189 0.657,18.7038 0.5192,4.675 0.9374,19.3 0.9293,32.5 -0.014,22.9853 -0.8141,32.368 -3.8802,45.5 -1.5852,6.7898 -1.3243,9.7078 1.1392,12.7424 2.9516,3.6356 19.4416,20.1087 23.2613,23.2374 5.9199,4.8489 19.6931,12.9184 26.2841,15.3995 10.4967,3.9512 11.7459,4.0916 15.108,1.6976 1.6367,-1.1655 4.903,-2.799 7.2585,-3.63 4.7173,-1.6644 25.1134,-6.5163 25.5514,-6.0783 0.1512,0.1512 -3.7584,2.2077 -8.6879,4.5699 -8.7701,4.2025 -14.6201,8.4212 -9.0063,6.4948 3.0771,-1.0559 50.7132,-0.7026 60.9922,0.4524 4.125,0.4635 8.0625,0.9038 8.75,0.9785 0.6875,0.075 1.25,-0.1213 1.25,-0.4356 z m -66,-28.9286 c -0.9935,-1.197 -3.9567,-1.5 -14.6721,-1.5 -17.282,0 -21.3343,-1.8605 -22.8694,-10.5 l -0.7108,-4 3.5087,4 3.5087,4 13.0464,0.5 c 13.8801,0.5319 16.3722,1.3789 19.9607,6.7834 1.6418,2.4727 0.1769,3.0651 -1.7722,0.7166 z m 57,0.991 c 0,-1.964 2.5617,-4.7369 5.9936,-6.4877 3.2487,-1.6574 5.894,-2.0033 15.3205,-2.0033 12.332,0 13.5219,-0.4672 17.8344,-7.002 1.6046,-2.4314 1.6247,-2.3674 0.7534,2.3954 -1.6952,9.2678 -4.4885,10.6066 -22.1297,10.6066 -10.4437,0 -13.8081,0.3368 -15.5497,1.5567 -1.2224,0.8562 -2.2225,1.2766 -2.2225,0.9343 z m -69.5,-27.1289 c 5.0976,-4.0127 17.6749,-9.1448 25.3295,-10.3356 6.8917,-1.0721 9.1269,-1.0138 16.215,0.4224 4.5218,0.9162 10.2991,2.6267 12.8385,3.801 5.6686,2.6215 12.3188,6.8816 11.7034,7.4971 -0.2499,0.2499 -3.1975,-0.495 -6.5501,-1.6553 -3.3527,-1.1602 -10.7744,-2.8046 -16.4926,-3.6541 -9.2399,-1.3727 -11.4935,-1.3813 -20.2511,-0.077 -5.4198,0.8072 -12.5248,2.4063 -15.7888,3.5535 -7.2763,2.5574 -9.8966,2.725 -7.0038,0.4479 z m 153.6047,-3.7068 c 1.3124,-4.8226 0.6521,-15.8826 -1.5615,-26.1553 -2.4177,-11.2195 -1.8917,-31.6606 1.4881,-57.8308 0.6272,-4.857 0.9889,-8.9823 0.8038,-9.1675 -0.4242,-0.4242 -10.0107,1.3406 -10.6264,1.9563 -0.2506,0.2506 -0.923,8.1351 -1.4941,17.5211 -1.4974,24.6063 1.6983,68.2134 5.9375,81.0209 0.7444,2.2491 4.0556,-2.211 5.4526,-7.3447 z m -232.9082,-12.7301 c 0.4113,-1.8838 1.6732,-11.0752 2.8042,-20.4252 1.641,-13.5664 2,-21.6454 1.7778,-40 l -0.2785,-23 -6.3231,-3.3436 c -3.4777,-1.8389 -6.562,-3.1046 -6.8541,-2.8126 -0.292,0.2921 0.193,6.5217 1.0779,13.8436 0.8849,7.3219 2.1102,17.5876 2.7229,22.8126 1.2045,10.2712 0.6378,38.8135 -0.953,48 -0.8717,5.0341 -0.771,5.6462 1.1885,7.2263 2.8607,2.3067 3.9438,1.7915 4.8374,-2.3011 z m 154.7778,-3.3576 c 1.6086,-4.2309 2.4592,-22.1817 1.0912,-23.0271 -1.411,-0.8721 -7.7654,-1.1739 -8.5339,-0.4054 -0.768,0.768 2.3006,21.6829 3.5139,23.9499 1.3892,2.5957 2.8167,2.4076 3.9288,-0.5174 z m -75.4463,-0.6129 c 0.5843,-0.9454 -2.0736,-19.4104 -3.0127,-20.9299 -0.3532,-0.5715 -1.9183,-1.699 -3.4781,-2.5056 -4.4448,-2.2985 -5.1539,-0.5155 -4.8221,12.1253 l 0.2849,10.8555 3.4312,1.109 c 3.451,1.1154 6.6746,0.8378 7.5968,-0.6543 z m 90.3728,-1.7047 c 0.5379,-2.0625 1.28,-7.3662 1.649,-11.7859 0.6938,-8.3071 0.3555,-9.3027 -3.6405,-10.7163 -3.4635,-1.2253 -4.1567,0.7137 -4.2848,11.9845 -0.091,7.9699 0.2498,11.4103 1.2479,12.6134 2.209,2.6626 3.98,1.9245 5.0284,-2.0957 z m -107.4992,-9.3634 c -0.074,-6.7667 -0.4906,-9.4041 -1.6725,-10.586 -2.4537,-2.4538 -4.208,-0.9948 -6.56,5.4558 -3.2331,8.8672 -2.9594,10.6446 2.0809,13.5094 2.573,1.4625 4.6446,2.064 5.25,1.5243 0.55,-0.4903 0.9557,-4.9468 0.9016,-9.9035 z m 30.5243,5.8634 c -0.041,-2.8875 -0.3783,-7.2384 -0.75,-9.6686 -0.631,-4.1254 -0.9621,-4.5139 -4.9884,-5.8542 -2.3719,-0.7895 -4.5968,-1.1512 -4.9444,-0.8037 -0.9075,0.9076 1.5817,12.3209 3.7789,17.3265 1.4947,3.4051 2.3737,4.25 4.4218,4.25 2.4264,0 2.5524,-0.2665 2.4821,-5.25 z m 29.4103,-6.0627 1.2662,-8.6713 -3.2363,-0.6071 c -1.78,-0.3339 -3.636,-0.3601 -4.1246,-0.058 -1.1942,0.7381 -0.2805,17.8058 1.0412,19.4495 1.9634,2.4416 3.7392,-1.1121 5.0535,-10.1129 z m -14.5505,0.7035 0.2856,-9.1092 -4.699,-0.6441 c -2.5845,-0.3542 -4.9127,-0.4305 -5.1737,-0.1694 -0.4892,0.4891 0.937,6.4231 3.5652,14.8341 1.2363,3.9565 1.8736,4.749 3.6184,4.5 1.9552,-0.279 2.1397,-1.0017 2.4035,-9.4114 z m 30.3791,0.1092 c 1.4656,-4.4 2.7031,-9.2101 2.75,-10.6891 l 0.085,-2.6891 -5.25,1.7821 -5.25,1.782 -0.2885,9.2272 -0.2884,9.2272 2.7884,-0.3202 c 2.5245,-0.2898 3.0407,-1.0773 5.4532,-8.3201 z m -90.7898,4.375 c 0.3438,-1.7187 0.625,-5.7529 0.625,-8.9648 0,-4.7867 -0.3553,-6.03 -1.9699,-6.8941 -1.7093,-0.9148 -2.226,-0.5525 -3.9048,2.7383 -1.0641,2.0859 -2.2454,5.864 -2.6251,8.3958 -0.6138,4.0932 -0.4335,4.7831 1.6273,6.2265 3.5856,2.5115 5.5388,2.0421 6.2475,-1.5017 z m 139.4139,-6.625 -0.2889,-8.75 h -3.5 c -2.9257,0 -3.5552,0.3907 -3.8367,2.381 -0.7953,5.6239 3.1995,15.119 6.3609,15.119 1.3085,0 1.5081,-1.3807 1.2647,-8.75 z m -150.082,-11.1088 c -0.2465,-1.0167 -1.4424,0.5611 -3.1432,4.147 -2.2896,4.8275 -2.5309,6.0464 -1.4538,7.3443 1.1095,1.3367 1.5525,0.7522 3.1432,-4.147 1.0184,-3.1367 1.6726,-6.4416 1.4538,-7.3443 z m 156.86,1.1725 c -0.7521,-1.9599 -2.4661,-0.7452 -2.0281,1.4373 0.193,0.9619 0.7037,3.549 1.1348,5.749 l 0.7838,4 0.3311,-4.8729 c 0.1821,-2.6802 0.082,-5.5212 -0.2216,-6.3134 z m -164.4453,0.079 c 1.6478,-3.6343 2.781,-6.823 2.518,-7.0859 -0.8535,-0.8536 -6.6023,5.323 -6.782,7.2866 -0.278,3.0386 0.093,6.4071 0.7051,6.4071 0.3095,0 1.911,-2.9735 3.5589,-6.6078 z m 79.6393,-3.0253 c 3.1206,-0.8362 3.5183,-3.4042 2.3101,-14.9151 -1.4671,-13.9778 -2.4596,-16.9108 -6.5854,-19.4607 -3.829,-2.3664 -6.4293,-2.0413 -9.4295,1.1791 -2.3514,2.5239 -4.3619,15.6038 -3.8933,25.3298 l 0.3372,7 4.5,0.5998 c 6.5654,0.8751 10.2073,0.9513 12.7609,0.2671 z m 27.4318,-2.47 c 2.0145,-1.0781 2.0762,-1.6394 1.5062,-13.702 -0.6622,-14.0145 -1.5173,-16.1375 -7.9099,-19.6385 -3.3079,-1.8116 -3.7168,-1.8337 -6.0178,-0.3261 -3.4997,2.2932 -5.1303,9.1968 -5.2066,22.0448 -0.058,9.7521 0.1426,11.0357 1.9354,12.3893 2.2532,1.7012 11.9676,1.2261 15.6927,-0.7675 z m -70.3859,-1.7163 c 2.2682,-1.7452 2.2888,-1.9334 1.2286,-11.2278 -1.4707,-12.8934 -2.7145,-20.6245 -3.5305,-21.9449 -1.0178,-1.6468 -3.4879,0.758 -5.6414,5.4921 -2.3021,5.0607 -2.4631,17.118 -0.3248,24.3185 1.2564,4.2306 1.9446,5.1774 3.75,5.1593 1.2162,-0.012 3.2494,-0.821 4.5181,-1.7972 z m 19.1932,-11.3432 c 0,-12.2936 -0.1678,-13.4484 -2.5421,-17.5 -1.3982,-2.3859 -2.9617,-4.3379 -3.4744,-4.3379 -2.6006,0 -5.9835,13.4303 -5.9835,23.7552 0,6.7032 3.4689,11.2448 8.5889,11.2448 h 3.4111 z m 87.863,10.0838 c 1.0308,-6.876 -3.5642,-25.3829 -6.7985,-27.3819 -1.9016,-1.1752 -3.0645,3.481 -3.0645,12.2695 0,12.6501 0.651,15.1314 4.397,16.7594 3.9258,1.7061 5.0125,1.3787 5.466,-1.647 z m -121.6789,-10.4365 c -0.1737,-6.5919 -0.5494,-12.7975 -0.8349,-13.7902 -1.7717,-6.1625 -5.702,6.7901 -4.9826,16.4208 0.495,6.6273 2.1068,10.1327 4.4509,9.6797 1.4864,-0.2872 1.6457,-1.7218 1.3666,-12.3103 z m 107.1328,10.5979 c 1.1791,-1.1791 -1.151,-18.828 -2.9468,-22.3196 -1.6843,-3.2747 -7.2509,-9.7635 -8.3759,-9.7635 -1.7115,0 -2.9942,6.7179 -2.9942,15.6813 0,10.5177 1.5878,15.7974 5.2056,17.3089 2.4784,1.0356 7.6872,0.517 9.1113,-0.9071 z m 25.6217,-1.3331 c -0.034,-1.7875 -1.1213,-5.5 -2.4167,-8.25 l -2.3554,-5 -0.083,6.3157 c -0.089,6.7414 1.0781,10.1843 3.4519,10.1843 0.9986,0 1.4453,-1.0345 1.4035,-3.25 z m -143.6695,-1.5 c -0.423,-1.5125 -0.7691,-6.0125 -0.7691,-10 0,-3.9875 -0.2734,-7.25 -0.6075,-7.25 -0.9232,0 -1.9618,11.8277 -1.3037,14.8467 0.9636,4.4212 1.3044,5.1533 2.3989,5.1533 0.6657,0 0.7687,-1.0072 0.2814,-2.75 z m 148.2849,-10.666 c -1.4239,-4.6681 -2.9743,-8.7257 -3.4454,-9.0169 -1.1688,-0.7224 1.4699,11.5214 3.4857,16.1735 2.7312,6.3033 2.7062,1.8477 -0.04,-7.1566 z m 3.4887,-33.3705 c 2.0908,-6.9164 11.5844,-14.2135 18.4921,-14.2135 1.4294,0 6.7314,-1.99 11.7821,-4.4223 11.7887,-5.6771 28.2796,-12.2238 33.0414,-13.1171 2.6127,-0.4901 4.122,-1.4887 5.0954,-3.371 1.4076,-2.7221 3.9837,-14.9856 3.2929,-15.6763 -0.2085,-0.2085 -1.7806,0.023 -3.4935,0.5141 -5.4147,1.5529 -11.5827,-0.8441 -28.2486,-10.97778 -7.1644,-4.35628 -6.4091,-5.06005 2.0096,-1.87255 12.9017,4.88483 19.0743,6.92293 20.9671,6.92293 3.4373,0 5.5612,-3.27479 6.9715,-10.74903 l 1.348,-7.14445 -3.2173,-3.66435 c -6.901,-7.85974 -7.9637,-14.69966 -8.2476,-53.08507 l -0.2355,-31.8258 -5.2661,-7.51565 c -2.8964,-4.13361 -6.6539,-9.85967 -8.3501,-12.72458 -1.6961,-2.86491 -5.1021,-6.98544 -7.5688,-9.15672 -4.8572,-4.27548 -16.0913,-11.21355 -20.9153,-12.91706 -4.8833,-1.72445 0.037,-1.40606 6.3461,0.41069 3.1096,0.89539 7.7485,2.6812 10.3084,3.96848 l 4.6546,2.34049 0.5537,-9.21848 c 0.3046,-5.07016 0.8321,-11.01847 1.1722,-13.21847 2.4764,-16.01496 -32.5402,-62.28699 -56.285,-74.37674 -5.0611,-2.5769 -5.5044,-3.33869 -1,-1.71877 15.57,5.59949 41.1977,27.38208 55.8134,47.43919 l 2.4366,3.34368 1.1701,-5.84368 c 0.6436,-3.21402 1.4601,-6.76642 1.8145,-7.89421 0.7486,-2.3822 -6.5192,-11.64926 -19.8384,-25.29586 -14.0938,-14.44015 -38.648,-33.49845 -44.6469,-34.65375 -1.1152,-0.21477 -4.1588,-1.52211 -6.7635,-2.90519 -10.2657,-5.45106 -16.6719,-7.7439 -35.7358,-12.79022 -19.9002,-5.2677 -35.0418,-3.69726 -62.8973,6.5235 -3.7935,1.39192 -7.2742,3.12506 -7.7347,3.85141 -0.4606,0.72635 -0.8512,0.87064 -0.868,0.32064 -0.02,-0.66667 -0.2755,-0.66667 -0.7653,0 -0.4041,0.55 -5.4687,3.34361 -11.2547,6.20803 -5.7861,2.86442 -15.1236,8.12682 -20.75,11.69422 -5.6265,3.56741 -10.2369,6.17379 -10.2453,5.79197 -0.01,-0.38182 -0.3459,-0.24166 -0.75,0.31146 -0.4041,0.55313 -3.4079,2.99495 -6.6752,5.42626 -12.1562,9.04584 -31.5595,30.94315 -31.5595,35.61597 0,0.79865 -0.4076,1.45209 -0.9057,1.45209 -2.6538,0 -13.9795,29.99647 -16.2334,42.9946 -3.8903,22.4345 -5.0743,50.63217 -2.8434,67.71455 0.5596,4.28497 1.5089,11.61585 2.1095,16.29085 0.6007,4.675 2.3929,14.74096 3.9826,22.3688 1.5897,7.62784 2.8904,14.26534 2.8904,14.75 0,0.48466 0.3648,0.8812 0.8108,0.8812 0.7858,0 2.9289,-6.77456 5.0614,-16 1.5954,-6.90194 2.2459,-19.07253 1.2423,-23.24295 -1.235,-5.132 0.3377,-3.81296 2.2919,1.92225 2.1289,6.24805 2.1929,27.02728 0.1044,33.91177 -2.3138,7.62748 -1.9362,14.03944 1.191,20.22014 5.0147,9.91151 12.3848,12.41074 22.6921,7.69505 9.8404,-4.50209 13.5893,-5.51173 19.9818,-5.3815 l 6.1243,0.12475 -5.2987,0.77195 c -5.1654,0.75253 -7.4069,1.72216 -21.524,9.31094 -3.7524,2.01718 -8.0598,3.6676 -9.5718,3.6676 -5.9304,0 -11.9503,-3.04977 -17.0639,-8.64491 l -5.0004,-5.47118 -2.0169,3.30804 c -2.6557,4.35592 -2.5511,8.58788 0.3715,15.02841 1.3177,2.90384 3.7168,8.20464 5.3313,11.77964 1.6145,3.575 3.5739,6.9951 4.3542,7.6003 0.7803,0.6052 4.3437,1.671 7.9187,2.3686 10.5348,2.0555 17.1176,4.0976 23.5,7.2901 15.7544,7.8804 20.2136,13.8731 26.5946,35.741 1.2037,4.125 2.3281,7.6658 2.4988,7.8685 0.1706,0.2027 1.5552,-0.5384 3.0768,-1.6468 3.0446,-2.2178 4.1307,-6.5036 6.5183,-25.7217 1.5679,-12.6206 2.5221,-9.4413 2.701,9 0.1238,12.7649 0.1704,13.0205 2.5758,14.1359 2.3354,1.0828 2.5192,0.9193 3.9371,-3.5 4.3686,-13.6167 6.4961,-24.7491 7.2883,-38.1359 0.5911,-9.9905 0.7981,-10.9749 1.5763,-7.5 0.8655,3.8648 0.2816,30.1866 -0.8788,39.6143 l -0.568,4.6142 4.7235,2.64 4.7234,2.64 4.5265,-4.1724 4.5265,-4.1724 2.1275,2.6682 c 2.5621,3.2131 3.5524,3.3726 3.5524,0.572 0,-1.1528 0.6413,-4.4153 1.425,-7.25 0.7838,-2.8346 1.763,-8.3039 2.176,-12.1539 l 0.7509,-7 0.8649,6 c 0.4758,3.3 0.7341,10.3879 0.5741,15.751 -0.16,5.363 -0.2658,9.7505 -0.2352,9.75 0.031,-6e-4 1.5806,-1.126 3.4443,-2.501 4.3635,-3.2193 6.6981,-3.1042 10.9622,0.5406 1.9043,1.6277 3.9781,2.9594 4.6086,2.9594 0.6595,0 1.6579,-3.2912 2.351,-7.75 0.6627,-4.2625 1.7388,-10.675 2.3915,-14.25 l 1.1867,-6.5 0.5765,12.2431 c 0.317,6.7338 0.8913,12.5581 1.2762,12.9429 0.3848,0.3848 2.7117,-1.5246 5.1709,-4.2431 l 4.4712,-4.9429 4.122,4.5 c 2.2671,2.475 3.8556,3.708 3.5301,2.7399 -1.3708,-4.0763 -2.7587,-14.6575 -2.4643,-18.7874 l 0.3174,-4.4525 1.803,7.0265 c 0.9916,3.8646 2.8202,8.8146 4.0635,11 1.8996,3.3391 2.7258,3.9385 5.1743,3.7541 1.8935,-0.1425 3.797,0.5999 5.4364,2.1206 1.3876,1.2869 3.7187,3.0977 5.1804,4.0238 2.6274,1.6648 2.6882,1.6438 5.3544,-1.8518 2.426,-3.1807 2.5822,-3.8638 1.5555,-6.8044 -1.4046,-4.0231 -4.0594,-23.6386 -4.029,-29.7688 0.029,-5.8298 1.4565,-3.4413 2.3907,4 1.2922,10.2926 5.7581,25.0025 9.7437,32.0938 1.5981,2.8434 2.8471,3.9062 4.5907,3.9062 2.1661,0 2.3292,-0.3012 1.7041,-3.1469 -2.1931,-9.9852 -1.6901,-41.8531 0.6607,-41.8531 0.4794,0 0.8799,4.1625 0.89,9.25 0.033,16.3547 3.8544,32.381 7.9792,33.4596 1.1133,0.2912 2.3241,1.7131 2.6905,3.1599 0.534,2.1081 0.9039,1.2403 1.8625,-4.3695 0.6579,-3.85 1.7794,-8.9289 2.4921,-11.2865 z m -65.3144,-32.2662 c -4.5462,-0.7708 -8.2773,-4.0508 -9.777,-8.5948 -2.2222,-6.7334 -11.1615,-5.2631 -11.762,1.9346 -0.3938,4.7207 -3.833,6.7129 -11.5887,6.7129 -5.1592,0 -5.6718,-0.2269 -8.2997,-3.6744 -2.6918,-3.5312 -2.798,-4.1058 -2.7264,-14.75 0.06,-8.9401 0.5763,-12.71449 2.6773,-19.5756 2.8675,-9.3639 8.4954,-30.22839 9.8453,-36.5 0.4736,-2.2 1.5454,-7.14983 2.382,-10.99963 0.8365,-3.84979 1.5209,-8.23729 1.5209,-9.75 0,-4.69208 2.6641,-3.67538 7.8599,2.99963 3.5099,4.50921 7.1401,5.68625 7.1401,2.3151 0,-1.0642 0.4614,-3.14859 1.0254,-4.63198 1.0119,-2.66152 1.0529,-2.67227 3.1094,-0.8151 3.5701,3.22415 7.305,12.06634 15.1563,35.88198 10.1163,30.6861 12.0777,38.4957 11.4387,45.5438 -0.5732,6.3204 -2.7669,11.3425 -5.4428,12.4603 -3.4929,1.459 -8.8407,2.0736 -12.5587,1.4432 z m 99.7274,-15.504 c -11.1862,-6.08978 -18.3291,-7.7432 -31.3875,-7.26551 -9.1843,0.33597 -11.3539,0.76896 -16.5682,3.30641 -3.3,1.606 -6.45,3.0901 -7,3.2981 -2.2469,0.8497 8.5032,-8.46696 12.4412,-10.7823 5.1835,-3.04758 7.8207,-7.37705 5.9019,-9.68906 -0.9808,-1.18184 -2.5835,-1.42526 -6.8128,-1.03474 -5.2779,0.48734 -5.3934,0.44911 -2.5303,-0.83767 1.65,-0.74158 4.9021,-1.36862 7.227,-1.39343 5.3998,-0.0576 8.0848,3.18755 6.4699,7.81991 l -1.0107,2.89925 8.6569,0.47213 c 10.5861,0.57735 18.4014,3.38403 25.3962,9.12051 4.1657,3.4163 9.0522,8.8929 7.6327,8.5544 -0.2046,-0.049 -3.9919,-2.0594 -8.4163,-4.468 z m -232.4557,0.8853 c 0,-0.3693 2.0887,-2.6727 4.6415,-5.1188 6.601,-6.32483 15.6549,-10.3115 25.1753,-11.08531 7.2379,-0.5883 7.703,-0.76939 8.0244,-3.12449 0.6752,-4.94771 2.7397,-6.00633 11.5638,-5.92971 4.4522,0.0386 8.995,0.49223 10.095,1.00794 1.4246,0.66788 0.6669,0.77892 -2.6333,0.38594 -5.39,-0.64182 -13.8005,1.19965 -14.5637,3.18873 -0.8007,2.08646 1.5744,4.31809 7.282,6.84228 4.7306,2.09208 13.9804,9.27272 13.0908,10.16242 -0.2074,0.2074 -3.4818,-1.0835 -7.2765,-2.86876 -6.1741,-2.90468 -8.0363,-3.28625 -17.7165,-3.63027 -8.1504,-0.28965 -12.3414,0.0421 -17,1.34573 -6.547,1.83208 -17.1086,6.7576 -18.169,8.4733 -0.7054,1.1414 -2.5138,1.3939 -2.5138,0.351 z m 216,-34.35249 c -11.8542,-1.16824 -22.028,-5.10998 -39.5,-15.30386 -12.4025,-7.23617 -20.7201,-14.11512 -24.589,-20.3361 -3.0645,-4.92762 -5.0561,-12.92842 -4.8978,-19.67671 0.079,-3.38769 0.1089,-6.67544 0.066,-7.3061 -0.073,-1.06698 -9.8954,-14.30753 -12.6876,-17.10334 -2.7183,-2.72188 -4.5943,-0.75202 -6.2341,6.54612 -1.0187,4.53416 0.1411,12.82074 2.4726,17.66551 l 1.4621,3.03837 -2.5417,-3 c -5.0032,-5.90518 -7.2367,-20.74257 -4.044,-26.86431 0.8216,-1.57537 1.4939,-2.98831 1.4939,-3.13987 0,-0.15156 -2.0201,-1.22512 -4.4891,-2.38569 -7.0537,-3.31563 -13.7902,-2.79052 -19.38,1.51066 -0.2029,0.15618 0.3596,1.01254 1.25,1.90302 2.064,2.064 2.1428,13.48564 0.1505,21.82581 -1.8307,7.66386 -2.5462,8.19382 -1.8413,1.36383 0.6993,-6.77525 -0.3586,-15.87775 -2.1261,-18.29503 -1.4746,-2.01667 -2.5752,-1.32102 -5.6661,3.58158 -1.4484,2.29727 -1.4292,2.82437 0.2367,6.5 3.2536,7.1787 1.9596,17.85511 -3.69,30.44394 -5.5213,12.30317 -21.1003,22.96802 -45.2918,31.00529 -23.2883,7.73717 -42.1364,8.81086 -47.465,2.70386 -5.2187,-5.98103 -7.5093,-16.45377 -5.8269,-26.64116 1.8949,-11.47377 1.487,-17.28859 -1.7069,-24.33257 -2.5854,-5.702 -2.7379,-6.63852 -1.6648,-10.22804 3.6623,-12.25052 12.7478,-21.8044 27.0108,-28.4033 13.9425,-6.45063 35.1833,-9.05578 45,-5.51918 2.2,0.79257 4.1048,1.44782 4.2329,1.4561 0.5918,0.0383 -4.1789,-7.67403 -7.6715,-12.40182 C 682.96461,855.03742 677.58361,850 675.75661,850 c -0.5995,0 -0.8203,-0.26962 -0.4908,-0.59916 0.3296,-0.32953 2.9018,0.65407 5.716,2.18579 8.8789,4.83248 21.3912,19.40882 32.0243,37.30699 2.322,3.90851 4.5879,7.10638 5.0352,7.10638 0.4474,0 1.9975,-2.50291 3.4447,-5.56202 7.3102,-15.45242 18.9901,-20.25674 33.014,-13.57967 5.6965,2.7122 13.6037,9.94396 17.6494,16.14169 0.8976,1.375 1.8427,2.275 2.1003,2 0.2575,-0.275 3.0844,-5 6.282,-10.5 11.1804,-19.23123 21.139,-30.22446 29.0293,-32.04524 2.7627,-0.63751 2.699,-0.51608 -1.061,2.02384 -2.2,1.48612 -5.4168,4.6068 -7.1483,6.93483 -3.2126,4.31913 -10.7495,18.52209 -10.1481,19.12352 0.1826,0.18259 3.024,-0.95309 6.3142,-2.52373 8.7172,-4.16134 17.0929,-6.01466 27.1265,-6.0024 12.265,0.015 21.404,3.04215 34.2264,11.33688 7.9549,5.14604 19.1983,15.40991 22.1989,20.26491 2.0946,3.38909 2.1007,3.56099 0.5035,14.15907 -0.8893,5.90057 -2.2927,14.32832 -3.1188,18.72832 -2.6956,14.35902 -4.4889,26.96737 -4.0123,28.20942 0.6441,1.67861 -3.9526,5.09632 -8.3225,6.18792 -5.463,1.3646 -13.8645,1.79375 -21.1195,1.07877 z m -237.7618,-71.33615 c -3.4385,-11.30727 -3.055,-16.0497 2.1359,-26.40994 6.3453,-12.66446 11.289,-26.77177 11.9953,-34.23002 1.6786,-17.72559 1.6942,-20.68534 0.1479,-27.97761 -1.7293,-8.15574 -3.3147,-11.33339 -7.3677,-14.76742 -1.4573,-1.23477 -2.0647,-2.24727 -1.3499,-2.25 2.5711,-0.01 7.0663,3.02052 10.5938,7.14162 1.9768,2.30947 3.7463,4.00877 3.9322,3.77623 0.1858,-0.23255 1.3269,-2.91425 2.5356,-5.95933 2.5305,-6.3749 9.6212,-17.47358 16.1387,-25.26079 11.0365,-13.18666 34.8036,-25.81221 51.3886,-27.2987 l 4.1114,-0.36849 -4,0.99589 c -19.8144,4.93322 -39.0191,17.85535 -49.7406,33.4686 -4.5044,6.55966 -11.1531,20.24754 -12.1433,25 -2.576,12.36295 -4.6077,25.95647 -4.6333,31 -0.017,3.3 -0.4224,7.6875 -0.9013,9.75 -0.7728,3.32747 -0.6559,3.75 1.0374,3.75 1.0495,0 2.6896,-0.44221 3.6447,-0.98268 2.3427,-1.3258 19.4798,-6.10722 20.0054,-5.58169 0.2297,0.22968 -2.9589,1.97766 -7.0858,3.88438 -4.1269,1.90673 -10.6263,5.48697 -14.4432,7.95609 -6.1596,3.98467 -7.4075,5.35646 -11.1007,12.2034 -2.2885,4.24274 -5.731,10.0796 -7.6501,12.97079 -3.4379,5.17951 -3.4892,5.41311 -3.4892,15.90322 0,5.85557 -0.3428,10.64649 -0.7618,10.64649 -0.419,0 -1.769,-3.31202 -3,-7.36004 z M 704.65451,745.75 c 0.255,-0.4125 1.0854,-0.75 1.8455,-0.75 0.7601,0 1.5906,0.3375 1.8455,0.75 0.2549,0.4125 -0.5755,0.75 -1.8455,0.75 -1.27,0 -2.1004,-0.3375 -1.8455,-0.75 z m 196.2653,182.75 c 4.7107,-30.20636 5.2294,-35.28641 4.6463,-45.5 -1.1433,-20.02458 -6.0255,-38.66841 -15.8432,-60.5 -3.9644,-8.81567 -12.8065,-24.62151 -15.3315,-27.40606 -2.1377,-2.35745 -2.7709,2.98692 -1.5146,12.7829 1.4404,11.23198 1.4386,26.6043 0,32.85361 -2.0319,8.80247 2.7224,20.2175 14.7227,35.34951 8.5388,10.76712 9.5405,13.22151 8.7921,21.54322 -0.3523,3.91775 -0.2853,17.41775 0.1488,30 l 0.7895,22.87682 1.329,-8 c 0.731,-4.4 1.7501,-10.7 2.2648,-14 z M 748.00001,704 c 1.828,-1.18132 0.2491,-1.18132 -2.5,0 -1.3187,0.56668 -1.4891,0.87815 -0.5,0.9144 0.825,0.0302 2.175,-0.38124 3,-0.9144 z m -301.5621,2.10052 c 0.3218,-0.52065 2.0424,-1.25601 3.8236,-1.63412 13.046,-2.76939 54.2246,-21.02567 68.603,-30.41477 7.4023,-4.83368 7.5808,-6.32444 0.3165,-2.64336 -21.3422,10.81495 -63.1037,23.55931 -89.0602,27.17856 -15.4876,2.1595 -37.9952,1.52516 -46.6208,-1.31393 l -6,-1.97488 4,-0.67054 c 19.5474,-3.27682 34.9366,-7.94705 55.2919,-16.77959 25.6887,-11.14681 71.7009,-35.86959 70.95,-38.12211 -1.044,-3.13203 -3.5341,-2.66726 -13.2674,2.47626 -50.079,26.46423 -99.4434,44.47563 -137.9745,50.34231 -11.4984,1.75073 -37.3752,2.07096 -45,0.55689 -4.633,-0.91999 -4.9994,-0.7423 11.5,-5.57698 32.4777,-9.51661 76.7106,-30.19348 119.5,-55.86075 13.1359,-7.87962 38.0915,-23.94023 39.5,-25.42095 0.275,-0.2891 -1.3,-0.23105 -3.5,0.129 -27.6943,4.53246 -43.8751,5.94463 -68.5,5.97829 -23.2912,0.0318 -26.1929,-0.15656 -33.5,-2.17513 -11.9744,-3.30792 -19.0903,-8.35096 -20.9634,-14.85672 l -0.6282,-2.182 21.7958,-0.0288 c 20.6592,-0.0273 33.4593,-0.86158 48.2552,-3.14527 38.1127,-5.88253 76.9749,-18.43465 113.4583,-36.64597 10.3685,-5.1756 23.0032,-12.0864 25.4197,-13.90377 0.556,-0.41813 2.0813,-7.82681 1.6917,-8.21649 -0.1983,-0.19823 -4.5609,2.09308 -9.6948,5.09179 -38.264,22.35007 -78.3453,37.88782 -94.2425,36.53363 -3.7379,-0.3184 -3.6047,-0.4376 15.569,-13.93263 84.2565,-59.30219 138.6236,-86.53995 205.426,-102.91761 19.3259,-4.73807 53.4942,-10.99077 59.8503,-10.95244 1.6846,0.0102 7.7879,1.7919 13.5629,3.95943 l 10.5,3.94097 -8.5763,0.0406 c -23.8275,0.11271 -62.2632,6.53803 -82.4237,13.77886 -11.1525,4.00551 -21.6444,9.68695 -27.3316,14.80022 -4.2472,3.81863 -7.1823,5.37751 -15.1708,8.0577 -10.6813,3.58359 -17.513,6.77246 -25.6906,11.9917 -5.919,3.77769 -13.307,10.19736 -13.307,11.56289 0,0.52242 2.1366,0.63465 4.9577,0.26041 8.8645,-1.17591 9.3688,0.27163 1.5372,4.41171 -9.3357,4.93521 -15.5163,9.29845 -19.3398,13.65318 -3.5441,4.0365 -3.9935,6.19666 -1.4051,6.75419 1.2311,0.26518 0.4158,1.06879 -2.75,2.71034 -5.1949,2.69371 -20.2281,12.20323 -19.7929,12.5203 0.1611,0.11735 3.8929,-0.13134 8.2929,-0.55264 18.1471,-1.73759 18.3746,-1.3299 2.5,4.48075 -23.3323,8.54041 -39.7787,16.22955 -42.99,20.09891 -2.2403,2.69941 3.4528,3.84206 21.3941,4.29396 l 16.9042,0.42579 -8.9042,3.74141 c -19.8817,8.35405 -32.8262,16.20358 -41.7348,25.30797 -4.4373,4.5348 -5.5412,6.2092 -4.5202,6.85621 3.4102,2.16107 31.5989,-0.0715 50.3509,-3.98773 4.95,-1.03379 9.1343,-1.76321 9.2983,-1.62093 0.1641,0.14228 -2.7106,1.91265 -6.3883,3.93416 -16.8342,9.25322 -35.3524,23.95418 -32.2385,25.59301 3.9456,2.07656 16.2367,1.90428 35.5733,-0.49863 3.859,-0.47954 2.8705,0.0516 -5.2448,2.81813 -5.5,1.87496 -11.7708,4.45656 -13.9352,5.73688 l -3.9351,2.32785 5.0621,2.21855 c 2.7841,1.2202 7.6657,2.69986 10.8479,3.28812 3.1823,0.58827 5.9357,1.21934 6.1187,1.40239 0.5688,0.56873 -11.7417,10.15343 -20.6584,16.08431 -25.6334,17.04982 -55.8213,28.15322 -81.8143,30.09216 -4.2272,0.31532 -9.4063,0.79207 -11.5093,1.05945 -2.271,0.28874 -3.586,0.10175 -3.2385,-0.4605 z m 114.5621,-30.13863 c -6.875,-0.37576 -12.725,-0.75523 -13,-0.84326 -0.275,-0.088 2.65,-1.94141 6.5,-4.11863 l 7,-3.95858 14,-0.0352 c 52.9215,-0.13316 117.0541,-8.25149 166.429,-21.06769 31.0039,-8.04765 70.1916,-22.64381 70.9224,-26.41634 0.2767,-1.42824 -0.042,-1.64572 -1.5,-1.02273 -42.1887,18.03025 -117.0608,34.79954 -176.6388,39.56219 -21.5577,1.72332 -54.4685,0.77212 -67.0646,-1.93834 -5.4187,-1.16599 -11.9437,-3.06657 -14.5,-4.22351 l -4.648,-2.10353 17,-3.38428 c 43.2256,-8.60515 81.3946,-18.7335 113.5,-30.11778 17.6148,-6.24606 19.5623,-7.13193 18.3479,-8.34633 -0.4892,-0.48917 -6.9195,1.08486 -14.758,3.61252 -42.342,13.65385 -85.9863,22.88469 -120.0899,25.39924 -18.5513,1.36784 -23.8071,1.34631 -22.917,-0.0939 0.3855,-0.62384 7.0496,-4.18345 14.809,-7.91024 28.3857,-13.63346 68.4562,-25.232 119.0473,-34.45863 14.0355,-2.55974 15.427,-2.96391 14.2514,-4.13948 -0.3534,-0.35345 -31.1409,3.69235 -68.4167,8.99066 -37.2757,5.29831 -74.749,10.53819 -83.274,11.64418 -8.525,1.10599 -16.5125,2.17279 -17.75,2.37066 -3.4857,0.55736 -2.7033,-0.59819 2.8798,-4.25322 26.8041,-17.54749 63.2984,-30.27984 107.5848,-37.53488 15.1734,-2.48573 42.5109,-5.338 55.7854,-5.8204 l 7,-0.25438 -4,-1.24442 c -9.3449,-2.90726 -34.5838,-0.99256 -82,6.22078 -15.95,2.42645 -34.3813,5.1119 -40.9585,5.96768 -13.0065,1.69232 -30.5415,2.08262 -30.5415,0.67979 0,-0.48188 4.6125,-2.79085 10.25,-5.13103 43.0331,-17.86345 100.658,-28.65107 170.75,-31.96513 11.825,-0.5591 22.1589,-1.01906 22.9643,-1.02212 1.1757,-0.004 1.1184,-0.35043 -0.291,-1.75556 -1.544,-1.53945 -3.7655,-1.73264 -18.4642,-1.60569 -18.0805,0.15615 -37.579,1.94144 -97.2091,8.90051 -21.175,2.47121 -42.55,4.73046 -47.5,5.02056 l -9,0.52746 4.6484,-2.51394 c 2.5566,-1.38267 9.0816,-4.27566 14.5,-6.42886 36.0384,-14.32123 78.2795,-22.51469 123.7326,-24.00026 19.4794,-0.63665 19.9128,-0.69772 21.4536,-3.02276 l 1.5727,-2.37298 -14.4537,0.66902 c -53.0986,2.45781 -94.7979,8.82031 -124.8927,19.05622 -10.4514,3.55477 -10.9399,2.28994 -1.5283,-3.95715 12.1986,-8.09696 39.9955,-17.761 68.9674,-23.97763 26.056,-5.59094 36.7066,-6.81894 61.7929,-7.12466 20.0254,-0.24404 23.1422,-0.49888 25.6693,-2.0988 2.8333,-1.79375 2.5742,-1.81876 -17.2871,-1.66897 -11.09,0.0836 -23.9911,0.45442 -28.6693,0.82397 -25.9839,2.05258 -61.2367,8.07691 -87.9372,15.02753 -7.3872,1.92304 -13.9122,3.48788 -14.5,3.47743 -1.8246,-0.0324 8.5114,-6.12466 17.4314,-10.27437 22.0427,-10.25452 52.5698,-18.31873 84,-22.18989 12.1028,-1.49066 48.0712,-2.19413 51.1804,-1.00099 1.478,0.56714 4.5836,-2.0851 3.5969,-3.07178 -0.2792,-0.27923 -4.699,-1.00327 -9.8218,-1.60898 -17.1793,-2.03126 -62.1101,1.93904 -85.2144,7.52996 -11.2796,2.7295 -11.4136,1.67333 -0.4626,-3.64701 26.9091,-13.07328 77.5273,-22.28342 111.2215,-20.23708 9.3351,0.56694 9.867,0.49926 8,-1.01775 -1.1,-0.89378 -6.5,-3.78247 -12,-6.41931 -8.9768,-4.30372 -19.9269,-7.68398 -30.8522,-9.52399 -2.1187,-0.35683 -3.6876,-0.8133 -3.4865,-1.01439 1.024,-1.02402 28.4315,-5.8256 43.3387,-7.59259 21.8261,-2.58711 58.1834,-2.78287 80,-0.43074 29.1082,3.13826 56.8552,9.66028 77.8163,18.29101 l 9.517,3.91861 -0.9833,-2.59585 c -0.5408,-1.42772 -1.7863,-3.49586 -2.7678,-4.59586 -4.6797,-5.24441 -1.4905,-4.85599 8.5838,1.04548 3.8846,2.27554 11.334,9.8766 11.334,11.56471 0,0.41261 1.4436,0.33618 3.208,-0.16985 14.1856,-4.06838 42.96089,-5.2588 57.17629,-2.36536 21.8609,4.44961 39.2522,15.96485 50.579,33.48958 2.8421,4.39728 4.1514,5.71934 4.5191,4.56319 1.6341,-5.13861 1.7178,-5.1692 3.1509,-1.15191 1.8843,5.2819 2.3961,5.66292 6.157,4.58429 3.3352,-0.95651 4.07,-0.32039 2.0097,1.73987 -1.7314,1.73143 -0.5224,2.46632 10.2,6.2 14.3811,5.00767 14.1955,5.82991 -0.75,3.32264 -1.7875,-0.29987 -3.25,-0.30964 -3.25,-0.0217 0,0.28793 3.0375,2.6564 6.75,5.26327 9.0521,6.35622 9.4603,6.82822 5.25,6.06983 -3.0579,-0.55082 -2.679,-0.16613 3,3.04581 17.9543,10.15454 28.851,28.64252 28.9649,49.14348 0.03,5.44459 -0.2032,6.27744 -1.6794,5.99314 -0.9499,-0.18293 -2.1456,-1.83309 -2.681,-3.69997 -1.5369,-5.35887 -5.2442,-6.37014 -24.6045,-6.71164 -11.0379,-0.1947 -18.4862,-0.8169 -22.5,-1.87954 -6.5878,-1.74412 -18.9837,-7.30941 -23.5963,-10.59389 l -2.9378,-2.09186 1.9024,4.83022 c 2.7116,6.88483 4.1051,12.33022 3.1553,12.33022 -0.4483,0 -2.3245,-2.35344 -4.1694,-5.22986 l -3.3542,-5.22986 -0.7115,6.43171 c -0.7972,7.2066 -4.6797,19.2133 -5.9574,18.42362 -0.4571,-0.28251 -0.8311,-2.98864 -0.8311,-6.01364 0,-5.89202 -1.3826,-6.50024 -2.5472,-1.1205 -1.2638,5.83867 -6.2174,14.30761 -11.8567,20.2711 -3.0466,3.2217 -5.8033,5.59361 -6.126,5.2709 -0.3227,-0.3227 0.5645,-3.32193 1.9716,-6.66497 3.8156,-9.0654 3.1185,-9.98134 -2.262,-2.97218 -2.6511,3.45366 -7.8323,8.57621 -11.5138,11.38346 -6.4533,4.92077 -16.63599,10.8135 -17.38739,10.06206 -0.2004,-0.20041 0.5116,-2.66985 1.5823,-5.48764 1.11769,-2.94161 1.45539,-4.83808 0.79289,-4.45355 -0.6345,0.36834 -3.04679,1.95141 -5.36059,3.51794 -5.9662,4.03928 -18.3207,9.8114 -21.0002,9.8114 h -2.2635 l 1.9816,-3.25 c 4.2958,-7.04568 1.9068,-6.71962 -4.4879,0.61252 -9.6491,11.06353 -24.8756,23.25276 -38.5348,30.84799 -5.4241,3.01609 -20.9733,9.78949 -22.473,9.78949 -0.238,0 0.969,-2.25477 2.6821,-5.0106 1.7131,-2.75583 2.932,-5.18382 2.7087,-5.39552 -0.2234,-0.21171 -4.4388,0.93474 -9.3677,2.54767 -16.846,5.51263 -49.2601,10.64735 -61.1056,9.67971 -3.8233,-0.31232 -3.724,-0.38485 3.5672,-2.60603 20.2208,-6.15997 48.1187,-16.77064 62.5,-23.77118 C 957.09851,609.27402 1000,573.95469 1000,557.93851 c 0,-8.74608 -17.04659,-18.09148 -56.10819,-30.75996 -20.035,-6.49774 -27.7708,-9.69958 -28.5895,-11.83315 -1.0586,-2.75866 0.6932,-5.97285 4.1552,-7.62374 1.9359,-0.92316 7.5913,-2.42336 12.5675,-3.33378 10.3409,-1.89189 11.3735,-2.87004 11.1973,-10.60696 -0.1995,-8.75536 -5.5273,-16.9686 -17.4366,-26.87962 -3.8148,-3.17466 -6.8303,-4.9013 -8.5601,-4.9013 h -2.6706 l 2.4725,1.68765 c 14.2542,9.72945 22.1051,23.32042 18.9659,32.8324 -1.3647,4.13512 -2.5038,4.81355 -10.7138,6.3812 -14.2961,2.72975 -25.2796,7.95175 -25.2796,12.01893 0,2.56368 8.1515,5.8833 32.2221,13.12207 41.8189,12.57624 57.6625,20.49513 59.386,29.68205 2.3243,12.38954 -24.1555,38.26842 -62.2501,60.83752 -15.1043,8.94853 -46.5147,23.94819 -47.6893,22.77352 -0.2814,-0.2814 -9.4345,1.74665 -20.3402,4.50677 -38.1928,9.66625 -77.421,16.62424 -89.9687,15.95795 l -5.6509,-0.30006 12.1032,-5.34502 c 13.0396,-5.75854 28.473,-14.16647 31.6601,-17.24805 1.9566,-1.89175 1.9504,-1.90693 -0.7749,-1.90693 -1.511,0 -5.9449,1.61032 -9.8532,3.5785 -29.9242,15.06962 -78.9939,27.48838 -129.8441,32.86147 -31.4096,3.31891 -74.8564,4.33344 -108,2.52192 z m 304.5084,-88.84723 c 10.7554,-2.32813 21.2585,-6.15089 27.163,-9.88638 5.8707,-3.71405 6.1622,-5.33367 0.4716,-2.61925 -14.0976,6.72442 -38.3165,11.39097 -59.118,11.39097 -7.4237,0 -22.1992,-2.30057 -26.6796,-4.15407 -2.5364,-1.04925 -1.4335,-1.32264 10.1546,-2.51727 7.15,-0.73709 18.85,-2.47848 26,-3.86975 14.2284,-2.7686 32.7909,-7.50132 32.1064,-8.18587 -0.2375,-0.23751 -8.6732,0.33274 -18.746,1.26723 -20.2181,1.8757 -54.487,1.62374 -65.3604,-0.48056 -7.2877,-1.41037 -21.502,-5.96784 -21.4949,-6.89183 0,-0.36733 6.6403,-0.80847 14.75,-0.98031 13.1418,-0.27847 36.2107,-1.90457 54.0362,-3.80897 l 6.2912,-0.67214 -4.109,-2.45029 -4.1089,-2.4503 -19.6759,1.23904 c -19.9263,1.25482 -42.8976,0.77703 -45.9955,-0.95668 -1.4552,-0.81438 -1.2715,-1.10879 1.3068,-2.09421 14.546,-5.55956 54.7261,-12.60002 92.2441,-16.16326 7.2843,-0.69181 12.6843,-1.54128 12,-1.88771 -0.6842,-0.34642 -7.3191,-0.042 -14.7441,0.67642 -20.9385,2.02603 -60.6984,3.26971 -79.7116,2.49335 -9.4665,-0.38653 -17.4612,-0.95233 -17.7662,-1.25732 -0.6999,-0.69984 11.1326,-4.17888 23.2559,-6.83782 13.9995,-3.07043 48.0486,-8.53606 72.6079,-11.65516 17.0184,-2.16138 21.2442,-2.97424 19,-3.65478 -1.5873,-0.48136 -22.0892,-0.95002 -45.5597,-1.04147 -23.4705,-0.0915 -42.009,-0.53957 -41.1966,-0.99582 2.9615,-1.66327 15.7904,-5.80701 23.7293,-7.6646 12.549,-2.93629 28.2673,-4.98075 43.6853,-5.68211 7.7177,-0.35108 14.246,-0.9844 14.5074,-1.40739 1.6168,-2.61603 -41.6327,-2.20112 -53.5517,0.51375 -5.4756,1.2472 -5.7506,1.399 -1.7448,0.96317 24.4929,-2.66486 32.8766,-3.07145 31.1948,-1.51286 -0.5225,0.48422 -5.45,1.43076 -10.95,2.10343 -13.5641,1.65893 -27.8045,4.4746 -41,8.10671 -11.6463,3.20569 -28.6775,9.06525 -28.0814,9.66135 0.195,0.19502 6.5931,-0.13979 14.218,-0.74401 20.3665,-1.61392 73.8237,-2.5617 73.0408,-1.295 -0.3479,0.56304 -3.4552,1.34152 -6.905,1.72996 -30.9899,3.48933 -101.6331,18.19977 -99.0571,20.6272 1.57,1.47936 33.869,3.20837 49.6829,2.65959 15.6448,-0.54291 19.1547,0.31366 7.1018,1.73311 -20.4829,2.41224 -60.9968,11.37375 -59.2621,13.10851 0.2022,0.20213 5.0688,1.09617 10.8148,1.98677 12.9396,2.00556 45.5044,2.24734 62.245,0.46214 6.4888,-0.69195 12.0398,-1.01601 12.3357,-0.72015 2.173,2.17304 -17.4835,3.97844 -58.041,5.33092 l -19.9077,0.66386 3.835,1.96749 c 14.3645,7.36941 28.4326,9.80266 60.3923,10.44559 14.5266,0.29223 25.7766,0.87137 25,1.28698 -2.6469,1.41654 -28.0091,4.20365 -47.912,5.26514 l -4.5,0.24 5.5,3.17923 c 4.9221,2.84517 16.3089,6.42218 24.5,7.69633 6.8386,1.06376 33.2049,-0.35527 42.0084,-2.2609 z M 1115.45,555.08867 C 1110.8566,550.6822 1061.8679,531 1055.4937,531 c -5.0961,0 -2.9983,1.74782 5.3132,4.42695 11.1864,3.60581 44.3475,15.76275 50.1931,18.40089 5.2097,2.35118 5.7446,2.50273 4.45,1.26083 z M 1042,539.51004 c 0,-0.26948 -3.9375,-2.46804 -8.75,-4.88568 -4.8125,-2.41765 -9.8352,-5.27519 -11.1616,-6.35009 l -2.4116,-1.95437 8.4116,-0.66793 c 4.6264,-0.36736 11.3366,-1.34647 14.9116,-2.1758 7.1945,-1.66899 28.9427,-9.26634 30.4728,-10.64515 0.535,-0.48213 -1.715,0.0525 -5,1.18796 -14.0884,4.86981 -30.4379,8.39259 -49.9728,10.76751 l -6,0.72944 5.1755,3.18696 c 2.8465,1.75282 9.3715,4.99495 14.5,7.20472 10.4065,4.48399 9.8245,4.27057 9.8245,3.60243 z m 9.4734,-33.12627 c 1.4056,-1.40562 1.4341,-1.89427 0.2189,-3.75 -2.9235,-4.46455 -8.6627,-7.26582 -18.4565,-9.0086 l -3.2642,-0.58086 1.4779,2.85797 c 5.0345,9.73571 15.3631,15.14223 20.0239,10.48149 z m -246.32659,-8.02916 c 4.8452,-1.03676 8.9831,-2.51745 9.8532,-3.52583 3.4356,-3.98172 29.4972,-11.77927 50,-14.95985 4.675,-0.72523 15.9758,-1.32992 25.113,-1.34376 14.0524,-0.0213 16.3228,-0.22871 14.7302,-1.34573 -1.1283,-0.79136 -6.1827,-1.53818 -12.613,-1.86363 -24.2469,-1.2272 -62.6239,7.67261 -88.1911,20.45196 -5.7965,2.89727 -9.798,5.06671 -8.8923,4.82099 0.9057,-0.24573 5.4057,-1.25109 10,-2.23415 z m -234.3343,141.96228 c 0.7219,-0.28887 1.5844,-0.25335 1.9167,0.0789 0.3323,0.33229 -0.2584,0.56864 -1.3125,0.52522 -1.165,-0.048 -1.4019,-0.28494 -0.6042,-0.60416 z"
       id="path16" />
  </g>
</svg>
