<?xml version="1.0" encoding="UTF-8" standalone="no"?>
<svg
   xmlns:dc="http://purl.org/dc/elements/1.1/"
   xmlns:cc="http://creativecommons.org/ns#"
   xmlns:rdf="http://www.w3.org/1999/02/22-rdf-syntax-ns#"
   xmlns:svg="http://www.w3.org/2000/svg"
   xmlns="http://www.w3.org/2000/svg"
   xmlns:sodipodi="http://sodipodi.sourceforge.net/DTD/sodipodi-0.dtd"
   xmlns:inkscape="http://www.inkscape.org/namespaces/inkscape"
   version="1.1"
   id="svg2"
   width="860.61481"
   height="1337.4589"
   viewBox="0 0 860.61481 1337.4589"
   sodipodi:docname="Helgenhold.svg"
   inkscape:version="1.0.1 (3bc2e813f5, 2020-09-07)">
  <metadata
     id="metadata8">
    <rdf:RDF>
      <cc:Work
         rdf:about="">
        <dc:format>image/svg+xml</dc:format>
        <dc:type
           rdf:resource="http://purl.org/dc/dcmitype/StillImage" />
        <dc:title></dc:title>
      </cc:Work>
    </rdf:RDF>
  </metadata>
  <defs
     id="defs6" />
  <sodipodi:namedview
     pagecolor="#ffffff"
     bordercolor="#666666"
     borderopacity="1"
     objecttolerance="10"
     gridtolerance="10"
     guidetolerance="10"
     inkscape:pageopacity="0"
     inkscape:pageshadow="2"
     inkscape:window-width="1920"
     inkscape:window-height="1057"
     id="namedview4"
     showgrid="false"
     inkscape:pagecheckerboard="true"
     inkscape:zoom="0.49"
     inkscape:cx="408.80965"
     inkscape:cy="674.80313"
     inkscape:window-x="-8"
     inkscape:window-y="-8"
     inkscape:window-maximized="1"
     inkscape:current-layer="g10" />
  <g
     inkscape:groupmode="layer"
     inkscape:label="Image"
     id="g10"
     transform="translate(-341.19035,-75.196867)">
    <g
       id="g14">
      <path
         style="fill:#e3c9a3"
         d="m 763,1369.0956 c -6.875,-2.0799 -14.975,-4.7982 -18,-6.0408 -3.025,-1.2425 -7.075,-2.8615 -9,-3.5976 -6.0627,-2.3186 -21.06681,-10.386 -33,-17.7435 -33.57444,-20.7005 -60.69203,-41.7449 -94.67972,-73.4755 -17.04201,-15.9102 -49.29562,-51.0763 -61.32028,-66.8574 -3.025,-3.97 -8.2,-10.5622 -11.5,-14.6493 -16.56948,-20.5215 -32.78427,-44.7886 -57.28401,-85.7315 -8.57399,-14.3285 -22.29771,-40.9772 -30.12668,-58.5 -2.9488,-6.6 -6.14797,-13.575 -7.10928,-15.5 -2.94904,-5.9054 -7.77167,-17.1404 -10.51667,-24.5 -1.43597,-3.85 -3.96177,-10.6 -5.61289,-15 -1.65111,-4.4 -5.17749,-14.75 -7.83638,-23 -2.6589,-8.25 -5.796,-17.925 -6.97132,-21.5 -1.17533,-3.575 -2.5633,-8.47202 -3.08437,-10.88226 -0.52108,-2.41024 -1.8017,-6.91024 -2.84583,-10 -5.37151,-15.89515 -13.9562,-63.24211 -16.52433,-91.13632 -2.52673,-27.44448 -2.62023,-30.97776 -3.63808,-137.48142 -0.55192,-57.75 -1.74639,-159.9 -2.65438,-227 -0.908,-67.1 -1.80536,-151.80585 -1.99414,-188.23522 l -0.34324,-66.23521 4.7708,-2.9938 c 7.33615,-4.60361 43.12172,-22.15477 58.7708,-28.82434 25.22699,-10.75163 51.34776,-20.4964 69.5,-25.9281 4.675,-1.3989 12.1,-3.627 16.5,-4.95133 23.2358,-6.99363 58.54641,-15.18252 83.18876,-19.29231 6.15382,-1.02632 12.05763,-2.14181 13.11958,-2.47886 3.19033,-1.01257 29.3826,-4.39927 50.69166,-6.5545 11,-1.11256 23.375,-2.46584 27.5,-3.00731 17.58521,-2.30829 55.17485,-3.27309 100,-2.56665 25.025,0.39439 49.1,1.08744 53.5,1.54013 4.4,0.45268 16.1,1.55021 26,2.43894 9.9,0.88874 21.375,2.07265 25.5,2.63091 4.125,0.55826 12.45,1.65422 18.5,2.43547 10.55559,1.36307 14.88673,2.0637 40.5,6.55149 34.5469,6.05308 65.1445,13.1432 95.5,22.12939 7.7884,2.30563 41.4851,13.47313 44.8495,14.86369 1.1828,0.48886 5.3005,2.09504 9.1505,3.56929 10.3634,3.96839 26.6996,10.95099 37.75,16.13559 l 9.75,4.57448 -0.014,26.59912 c -0.015,30.14323 -2.5767,275.49874 -3.5191,337.09913 -0.3407,22.275 -1.0115,88.425 -1.4906,147 -0.7794,95.29064 -1.0906,108.95337 -2.9566,129.80946 -1.1471,12.82021 -2.7716,26.99521 -3.6099,31.5 -0.8384,4.5048 -1.9444,11.9239 -2.4579,16.4869 -0.5134,4.56299 -1.8377,11.83797 -2.9429,16.16661 -1.1052,4.32864 -2.0095,9.2012 -2.0095,10.82792 0,1.62671 -0.6797,4.88423 -1.5105,7.23892 -0.8308,2.3547 -1.8942,6.57378 -2.3632,9.37573 -2.3628,14.11655 -18.6511,66.06325 -28.0148,89.34446 -1.1613,2.8875 -2.9564,7.3875 -3.9891,10 -3.0931,7.8251 -16.4676,37.0055 -22.1149,48.25 -14.7573,29.3839 -40.8458,71.694 -58.4383,94.7745 -3.888,5.101 -8.6442,11.4264 -10.5692,14.0565 -19.1585,26.1759 -72.31345,82.1856 -97,102.2094 -19.38082,15.7202 -32.1825,25.8136 -37.59096,29.6382 -3.24997,2.2982 -9.32598,6.6155 -13.50224,9.5939 -14.11418,10.066 -38.61155,24.7593 -65.9068,39.5305 -8.22389,4.4505 -20.79324,9.6325 -25.5,10.513 -1.96071,0.3667 -7.33039,-0.7489 -15.5,-3.2204 z m 22.67976,-10.167 c 15.05082,-5.9788 56.6464,-30.048 77.32024,-44.7411 4.125,-2.9317 10.15907,-7.2107 13.40904,-9.5089 5.42171,-3.834 18.48656,-14.1362 37.59096,-29.6421 24.61615,-19.9794 76.86421,-75.0606 96,-101.2055 1.925,-2.6301 6.6843,-8.9555 10.5763,-14.0565 15.9754,-20.9381 39.5003,-58.6118 54.4974,-87.2745 6.4319,-12.2926 19.9532,-41.389 24.0487,-51.75 1.0327,-2.6125 2.8278,-7.1125 3.9891,-10 9.3637,-23.28121 25.652,-75.22791 28.0148,-89.34446 0.469,-2.80195 1.5324,-7.02103 2.3632,-9.37573 0.8308,-2.35469 1.5105,-5.61221 1.5105,-7.23892 0,-1.62672 0.9043,-6.49928 2.0095,-10.82792 1.1052,-4.32864 2.4295,-11.60362 2.9429,-16.16661 0.5135,-4.563 1.6195,-11.9821 2.4579,-16.4869 0.8383,-4.50479 2.4628,-18.67979 3.6098,-31.5 1.8669,-20.866 2.1807,-34.68319 2.9939,-131.80946 0.4996,-59.675 1.3669,-142.7 1.9274,-184.5 2.2195,-165.54006 3.3534,-313.60518 2.4089,-314.54974 -1.5662,-1.56619 -28.5922,-13.13075 -47.8503,-20.47541 -13.981,-5.33206 -43.9715,-14.94531 -61,-19.55312 -29.5221,-7.98849 -50.17791,-12.57959 -80.5,-17.89242 -25.61327,-4.48779 -29.94441,-5.18842 -40.5,-6.55149 -6.05,-0.78125 -14.375,-1.87721 -18.5,-2.43547 -4.125,-0.55826 -15.6,-1.73861 -25.5,-2.623 -9.9,-0.8844 -21.825,-1.99589 -26.5,-2.47 -4.675,-0.47411 -27.4,-1.17104 -50.5,-1.54873 -41.36568,-0.67635 -79.34234,0.34623 -96.5,2.5984 -4.125,0.54147 -16.5,1.89475 -27.5,3.00731 -21.30906,2.15523 -47.50133,5.54193 -50.69166,6.5545 -1.06195,0.33705 -6.96576,1.44906 -13.11958,2.47112 -23.75895,3.94604 -60.48563,12.46675 -83.18876,19.30005 -4.4,1.32433 -11.825,3.55243 -16.5,4.95133 -34.88919,10.43989 -93.70994,35.15477 -120.77216,50.74518 l -5.27216,3.03726 0.34604,61.71712 c 0.19032,33.94441 1.08829,116.61711 1.99549,183.71711 0.9072,67.1 2.10103,169.25 2.65295,227 1.01785,106.50366 1.11135,110.03694 3.63808,137.48142 2.56813,27.89421 11.15282,75.24117 16.52433,91.13632 1.04413,3.08976 2.32475,7.58976 2.84583,10 0.52107,2.41024 1.90904,7.30726 3.08437,10.88226 1.17532,3.575 4.31242,13.25 6.97132,21.5 2.65889,8.25 6.18527,18.6 7.83638,23 1.65112,4.4 4.15452,11.08784 5.56311,14.86186 2.91743,7.81664 11.48233,26.99034 22.17334,49.63814 19.52031,41.3517 54.89794,98.5114 80.91308,130.7315 3.3,4.0871 8.475,10.6793 11.5,14.6493 6.04927,7.939 11.47334,14.1848 32.75565,37.7182 50.20457,55.5147 123.06511,109.108 168.24435,123.7538 5.225,1.6938 11.525,3.7343 14,4.5345 6.32578,2.0451 7.0227,1.9802 15.67976,-1.4587 z M 592.84378,935.25735 c -0.73287,-3.55282 -0.97345,-10.02154 -1.47041,-39.53717 -0.39858,-23.67245 -0.24291,-34.17245 0.52026,-35.09201 0.59896,-0.7217 0.76192,-1.63929 0.36212,-2.03908 -1.27768,-1.27769 -1.08671,-6.90099 0.28081,-8.26851 0.97596,-0.97595 5.20963,-1.32058 16.22303,-1.32058 14.48164,0 14.93162,-0.0635 15.93551,-2.25 0.56818,-1.2375 1.99422,-4.32429 3.16898,-6.85953 1.17475,-2.53524 2.13592,-4.94078 2.13592,-5.34563 0,-0.40485 0.84096,-1.93057 1.8688,-3.39047 1.02785,-1.4599 2.2176,-3.77937 2.64389,-5.15437 0.4263,-1.375 1.83533,-3.89248 3.1312,-5.59439 1.29586,-1.70192 2.35611,-3.73496 2.35611,-4.51787 0,-0.78291 1.125,-3.07906 2.5,-5.10255 1.375,-2.0235 2.5,-4.19603 2.5,-4.82784 0,-1.1465 0.71734,-2.7309 4.8243,-10.65547 1.19663,-2.30896 2.18571,-4.78396 2.19794,-5.5 0.0122,-0.71603 0.90222,-2.42688 1.97776,-3.80188 1.07554,-1.375 1.96553,-3.2324 1.97776,-4.12756 0.0122,-0.89515 0.69724,-2.18775 1.52224,-2.87244 0.825,-0.68469 1.5,-2.25969 1.5,-3.5 0,-1.24031 0.675,-2.81531 1.5,-3.5 0.825,-0.68469 1.5,-2.25969 1.5,-3.5 0,-1.24031 0.675,-2.81531 1.5,-3.5 0.825,-0.68469 1.5,-1.90786 1.5,-2.71815 0,-0.8103 0.73926,-2.8927 1.64279,-4.62756 3.06694,-5.88877 3.31921,-6.56448 3.96976,-10.63278 0.35759,-2.23621 1.04105,-4.30742 1.5188,-4.60269 1.16144,-0.71781 1.11989,-22.14551 -0.0443,-22.86504 -0.50214,-0.31034 -1.22316,-2.4002 -1.60227,-4.64412 -0.73335,-4.34063 -7.1856,-14.80765 -9.16735,-14.87153 C 660.66695,700.01716 659.84913,699.1 659.5,698 c -0.34913,-1.1 -1.23131,-2 -1.9604,-2 -0.72909,0 -1.58464,-0.675 -1.90123,-1.5 -0.31658,-0.825 -1.48972,-1.5 -2.60699,-1.5 C 651.91412,693 651,692.55 651,692 c 0,-0.55 -1.07686,-1 -2.39301,-1 -1.31616,0 -2.64912,-0.66741 -2.96215,-1.48314 -0.31302,-0.81573 -1.18907,-1.24525 -1.94677,-0.95449 -0.7577,0.29076 -1.95484,-0.16683 -2.6603,-1.01686 C 640.33231,686.69548 638.6791,686 637.36399,686 c -2.37824,0 -3.03426,-0.2435 -8.97367,-3.33086 -1.71033,-0.88904 -3.43158,-1.29455 -3.82501,-0.90112 -0.39342,0.39343 -1.15392,-0.0684 -1.69,-1.02635 C 622.33923,679.78375 620.82454,679 619.50933,679 c -1.31521,0 -2.66941,-0.45 -3.00933,-1 -0.33992,-0.55 -1.89333,-1 -3.45203,-1 -1.59661,0 -3.08531,-0.65493 -3.4096,-1.5 -0.31658,-0.825 -1.68817,-1.5 -3.04797,-1.5 -1.3598,0 -2.75048,-0.45 -3.0904,-1 -0.33992,-0.55 -1.68992,-1 -3,-1 -1.31008,0 -2.66008,-0.45 -3,-1 -0.33992,-0.55 -1.7306,-1 -3.0904,-1 -1.3598,0 -2.73139,-0.675 -3.04797,-1.5 -0.31659,-0.825 -1.4009,-1.5 -2.4096,-1.5 -1.0087,0 -2.11211,-0.45 -2.45203,-1 -0.33992,-0.55 -1.94148,-1 -3.55902,-1 C 581.32344,665 580,664.55 580,664 c 0,-0.55 -1.30186,-1 -2.89301,-1 -1.64908,0 -3.14051,-0.64497 -3.46862,-1.5 -0.31658,-0.825 -1.68817,-1.5 -3.04797,-1.5 -1.3598,0 -2.75048,-0.45 -3.0904,-1 -0.33992,-0.55 -1.68992,-1 -3,-1 -1.31008,0 -2.66008,-0.45 -3,-1 -0.33992,-0.55 -1.7306,-1 -3.0904,-1 -1.3598,0 -2.73139,-0.675 -3.04797,-1.5 -0.32811,-0.85503 -1.81954,-1.5 -3.46862,-1.5 C 550.30186,653 549,652.55 549,652 c 0,-0.55 -1.75186,-1 -3.89301,-1 -2.5183,0 -4.09399,-0.52373 -4.46215,-1.48314 -0.3222,-0.83966 -1.23269,-1.22851 -2.09856,-0.89625 -0.89363,0.34292 -1.78525,-0.0798 -2.14484,-1.01686 C 536.03294,646.64347 534.62527,646 532.89301,646 531.30186,646 530,645.55 530,645 c 0,-0.55 -0.8449,-1 -1.87756,-1 -1.03265,0 -2.41555,-0.64825 -3.07311,-1.44056 -0.65756,-0.79231 -1.77959,-1.21644 -2.4934,-0.94253 -0.71382,0.27392 -1.56679,-0.20283 -1.8955,-1.05944 C 520.33172,639.70086 519.14865,639 518.03138,639 516.91412,639 516,638.55 516,638 c 0,-0.55 -0.92149,-1 -2.04775,-1 -1.12626,0 -3.09036,-1.125 -4.36467,-2.5 -1.27431,-1.375 -3.11372,-2.5 -4.08758,-2.5 -0.97386,0 -2.72588,-1.0125 -3.89337,-2.25 -1.1675,-1.2375 -3.3566,-2.88854 -4.86467,-3.66898 C 495.23388,625.30058 494,624.28808 494,623.83102 494,623.37396 493.57318,623 493.05152,623 c -0.52166,0 -2.16237,-1.125 -3.64602,-2.5 -1.48365,-1.375 -3.27417,-2.5 -3.97894,-2.5 -0.70477,0 -2.16632,-1.125 -3.2479,-2.5 -1.08158,-1.375 -2.22424,-2.5 -2.53925,-2.5 -0.31501,0 -2.14774,-1.575 -4.07274,-3.5 -1.925,-1.925 -3.965,-3.5 -4.53334,-3.5 C 470.465,606 470,605.58672 470,605.0816 c 0,-0.50512 -1.77212,-2.76282 -3.93804,-5.01712 -2.16593,-2.25429 -4.22125,-4.99101 -4.56739,-6.0816 C 461.14843,592.8923 460.31757,592 459.64822,592 c -0.66935,0 -1.96795,-1.2375 -2.88577,-2.75 -0.91782,-1.5125 -3.26485,-4.46254 -5.21561,-6.55565 C 449.59608,580.60124 448,578.49151 448,578.00607 c 0,-0.48545 -1.34233,-2.3523 -2.98296,-4.14856 -1.64063,-1.79625 -3.68743,-4.86153 -4.54844,-6.81172 -0.86102,-1.95018 -2.06829,-4.44579 -2.68282,-5.54579 -0.61453,-1.1 -2.2283,-4.25 -3.58615,-7 -1.35785,-2.75 -3.02625,-5.675 -3.70756,-6.5 -0.68131,-0.825 -1.55882,-3.3 -1.95002,-5.5 -0.3912,-2.2 -1.27094,-4.675 -1.95498,-5.5 C 424.89183,534.95542 422,525.42655 422,521.88517 V 519 h 79.3 c 60.34444,0 79.58684,-0.28684 80.5,-1.2 0.79815,-0.79815 1.2,-5.16343 1.2,-13.03545 V 492.9291 l 15.94543,0.12174 c 11.08514,0.0846 16.0904,0.47644 16.42105,1.28545 0.33812,0.82728 0.49845,0.80234 0.55457,-0.0863 0.0434,-0.6875 1.20395,-1.25 2.57895,-1.25 2.55067,0 3.33715,-1.36458 1.45641,-2.52694 -0.59947,-0.37049 -0.86741,-2.84259 -0.6296,-5.80902 L 619.74078,479.5 834.87039,479.24772 1050,478.99543 v 41.88728 41.88727 l -2.4648,1.61501 c -1.628,1.0667 -4.6636,1.61501 -8.941,1.61501 -3.5619,0 -6.7543,0.45 -7.0942,1 -0.3399,0.55 -2.8556,1 -5.5904,1 -3.4974,0 -5.1431,0.44495 -5.548,1.5 -0.3731,0.97242 -1.9241,1.5 -4.4096,1.5 -2.1087,0 -4.1121,0.45 -4.452,1 -0.3399,0.55 -2.129,1 -3.9757,1 -1.8467,0 -3.5248,0.50141 -3.7291,1.11425 -0.2042,0.61284 -1.6483,1.25442 -3.209,1.42575 -1.56075,0.17132 -3.32111,0.79491 -3.91195,1.38575 C 996.08341,577.51659 994.34,578 992.8,578 c -1.54,0 -2.8,0.45 -2.8,1 0,0.55 -1.0699,1 -2.37756,1 -1.30765,0 -2.95475,0.69548 -3.66021,1.54551 -0.70546,0.85003 -1.9026,1.30762 -2.6603,1.01686 -0.7577,-0.29076 -1.63375,0.13876 -1.94677,0.95449 C 979.04213,584.33259 977.70917,585 976.39301,585 975.07686,585 974,585.45 974,586 c 0,0.55 -0.85186,1 -1.89301,1 -1.04116,0 -2.15203,0.675 -2.46862,1.5 -0.31658,0.825 -1.48972,1.5 -2.60699,1.5 -1.11726,0 -2.03138,0.45 -2.03138,1 0,0.55 -0.83429,1 -1.85398,1 -1.01968,0 -3.06787,1.125 -4.55152,2.5 -1.48365,1.375 -3.12436,2.5 -3.64602,2.5 -0.52166,0 -0.94848,0.45 -0.94848,1 0,0.55 -0.44658,1 -0.99239,1 -0.85971,0 -3.15608,1.70893 -7.39063,5.5 -0.61434,0.55 -2.41306,1.66989 -3.99715,2.48865 -1.5841,0.81875 -3.34383,2.50625 -3.91052,3.75 -0.56669,1.24374 -1.55707,2.26135 -2.20085,2.26135 -0.64377,0 -1.77258,1.125 -2.50846,2.5 -0.73588,1.375 -1.86088,2.5 -2.5,2.5 -0.63912,0 -1.76412,1.125 -2.5,2.5 -0.73588,1.375 -1.67242,2.5 -2.0812,2.5 -1.1602,0 -9.56739,12.18443 -13.237,19.18423 -1.82107,3.47367 -3.84445,7.32827 -4.49641,8.56577 -2.76878,5.25546 -3.17967,6.36206 -3.79794,10.22849 -0.35759,2.23621 -1.028,4.29936 -1.48981,4.58477 -0.46181,0.28542 -1.13702,2.76054 -1.50046,5.50028 -0.36344,2.73974 -1.05148,5.22281 -1.52899,5.51792 -1.14196,0.70577 -1.13012,37.13862 0.0123,37.84468 0.48426,0.29929 1.20617,4.48835 1.60422,9.30901 0.39806,4.82067 1.01264,9.21485 1.36572,9.76485 0.61719,0.96138 2.59628,8.74046 3.81618,15 0.32156,1.65 0.93785,3.45 1.36954,4 0.43168,0.55 1.10116,2.69247 1.48773,4.76105 0.38656,2.06857 1.07583,3.99156 1.53171,4.2733 0.45587,0.28175 1.13095,2.52678 1.50018,4.98896 0.36922,2.46218 1.07022,4.47669 1.55777,4.47669 0.48755,0 0.88646,0.81399 0.88646,1.80887 0,0.99488 0.66069,2.68238 1.4682,3.75 0.8075,1.06762 1.4825,2.8057 1.5,3.86239 0.0175,1.05669 0.62663,2.63169 1.35364,3.5 0.72702,0.86831 2.58279,4.50374 4.12395,8.07874 1.54115,3.575 3.64632,7.90312 4.67815,9.61803 1.03183,1.71492 1.87606,3.61405 1.87606,4.22029 0,1.66053 22.7251,35.23427 26.08008,38.53034 1.60595,1.57776 2.91992,3.26526 2.91992,3.75 0,0.48474 8.1,0.88134 18,0.88134 h 18 v 43.5 43.5 h -65 -65 v -5.01357 c 0,-2.75746 -0.3975,-5.79496 -0.88333,-6.75 -0.48583,-0.95504 -1.4332,-3.08643 -2.10528,-4.73643 -0.67207,-1.65 -1.81867,-4.35 -2.54801,-6 -0.72933,-1.65 -1.60983,-4.0048 -1.95667,-5.23288 -0.34684,-1.22809 -2.29024,-4.03181 -4.31867,-6.2305 -2.02842,-2.19868 -5.03804,-5.54951 -6.68804,-7.44629 -1.65,-1.89677 -3.5625,-3.48055 -4.25,-3.5195 C 841.5625,891.03187 841,890.55 841,890 c 0,-0.55 -0.42682,-1 -0.94848,-1 -0.52166,0 -2.16237,-1.125 -3.64602,-2.5 -1.48365,-1.375 -3.53184,-2.5 -4.55152,-2.5 C 830.83429,884 830,883.55 830,883 c 0,-0.55 -0.8449,-1 -1.87756,-1 -1.03265,0 -2.46372,-0.70629 -3.18014,-1.56952 -0.71642,-0.86324 -2.14905,-1.34817 -3.18361,-1.07763 -1.07797,0.2819 -2.11406,-0.11534 -2.42685,-0.93047 C 818.97608,877.49529 817.27686,877 814.45203,877 c -2.3837,0 -4.61211,-0.45 -4.95203,-1 -0.37005,-0.59875 -6.99071,-1 -16.5,-1 -9.50929,0 -16.12995,0.40125 -16.5,1 -0.33992,0.55 -2.33638,1 -4.43657,1 -2.10428,0 -4.35526,0.64671 -5.0141,1.44056 -0.65756,0.79231 -1.77963,1.21643 -2.4935,0.94249 -0.71388,-0.27394 -1.99883,0.20281 -2.85546,1.05944 C 760.84374,881.29912 759.21071,882 758.07143,882 756.93214,882 756,882.45 756,883 c 0,0.55 -0.9,1 -2,1 -1.1,0 -2,0.45 -2,1 0,0.55 -0.68912,1 -1.53138,1 -0.84227,0 -1.79041,0.675 -2.10699,1.5 -0.31659,0.825 -1.20246,1.5 -1.96862,1.5 -0.76615,0 -1.39301,0.45 -1.39301,1 0,0.55 -0.59896,1 -1.33102,1 -0.73206,0 -1.9331,1.125 -2.66898,2.5 -0.73588,1.375 -1.83459,2.5 -2.44158,2.5 -0.60698,0 -1.95181,1.575 -2.98849,3.5 -1.03668,1.925 -2.48044,3.5 -3.20835,3.5 -0.72791,0 -1.627,1.2375 -1.99797,2.75 -0.37097,1.5125 -1.72954,4.31696 -3.01905,6.23213 -1.28951,1.91518 -2.34456,4.18768 -2.34456,5.05 0,0.86233 -0.49196,2.05983 -1.09323,2.6611 -0.60128,0.60128 -1.38878,4.40378 -1.75,8.45 L 721.5,935.5 l -64.25,0.25735 c -35.3375,0.14154 -64.3203,-0.0835 -64.40622,-0.5 z M 791.92377,728.5 c 0.0802,-23.1 0.13892,-45.6 0.13048,-50 -0.0551,-28.73072 0.022,-48.0352 0.21869,-54.73989 0.17882,-6.09556 -0.0916,-7.86824 -1.27294,-8.34402 -2.02759,-0.81662 -17.72732,-0.70265 -19.08843,0.13856 -0.59719,0.36909 -0.88045,1.45637 -0.62945,2.41618 0.251,0.95981 0.0428,2.48402 -0.46257,3.38714 -0.5163,0.92256 -0.53203,1.64203 -0.0359,1.64203 1.20215,0 1.17351,3.20876 -0.0424,4.75 -0.65671,0.83243 -0.63547,1.25 0.0636,1.25 0.66298,0 0.88542,2.11848 0.60376,5.75 -0.47053,6.06654 -0.47552,7.61468 -0.0427,13.25 0.14785,1.925 -0.11483,4.2875 -0.58374,5.25 -0.4689,0.9625 -0.49558,1.75 -0.0593,1.75 0.98348,0 0.88601,10.20573 -0.11291,11.82202 -0.40042,0.64789 -0.36398,1.17794 0.081,1.17788 0.67718,-8e-5 0.95571,64.4735 0.2916,67.5001 -0.12068,0.55 -0.14138,1.225 -0.046,1.5 0.54645,1.57553 0.21243,30.94988 -0.36251,31.88016 -0.38066,0.61591 -0.26433,1.11984 0.2585,1.11984 0.52284,0 1.23125,1.11815 1.57425,2.48477 0.74349,2.96229 3.53188,3.85093 10.55645,3.36426 2.87538,-0.1992 5.03771,0.0735 5.03735,0.63537 -3.4e-4,0.54142 0.84942,-0.58358 1.88835,-2.5 1.75948,-3.24556 1.89896,-6.3633 2.0348,-45.4844 z M 780.75522,613.27324 c 10.03331,0.0653 15.25001,0.46283 15.26009,1.16296 0.0104,0.72313 0.25059,0.73328 0.75,0.0317 0.99134,-1.39263 11.54551,-1.44948 12.46938,-0.0672 0.52647,0.78773 0.73902,0.7765 0.75,-0.0396 0.01,-0.73204 2.30963,-1.13889 6.43786,-1.13889 5.18571,0 6.86609,-0.41322 8.72573,-2.14574 2.21751,-2.06592 2.30757,-2.77094 2.42129,-18.95393 0.065,-9.2445 0.43994,-17.32892 0.83329,-17.96537 0.44007,-0.71205 0.0193,-1.16307 -1.09384,-1.17249 C 825.77521,572.9717 825.7282,572.8219 827,572 c 1.30202,-0.84143 1.28315,-0.9714 -0.14301,-0.98469 -0.90366,-0.008 -1.90203,-0.69031 -2.21862,-1.51531 -0.31658,-0.825 -1.48972,-1.5 -2.60699,-1.5 -1.11726,0 -2.03827,-0.5625 -2.04669,-1.25 -0.0106,-0.86836 -0.23962,-0.91292 -0.75,-0.14595 -0.92025,1.3829 -11.47382,1.31941 -12.46938,-0.075 -0.49245,-0.68975 -0.73973,-0.66821 -0.75,0.0653 -0.0217,1.54865 -12.01042,1.62747 -12.03062,0.0791 -0.0108,-0.82644 -0.23258,-0.84989 -0.75,-0.0793 -0.97599,1.45354 -30.4407,1.40335 -31.46938,-0.0536 -0.50673,-0.71771 -0.73944,-0.71404 -0.75,0.0118 -0.01,0.6721 -3.80952,1.03345 -10.51533,1 -8.6563,-0.0432 -10.51388,0.211 -10.57895,1.44761 -0.0591,1.12289 -0.21167,1.16794 -0.60692,0.17918 -1.28575,-3.21642 -3.41618,4.60371 -3.54917,13.02788 -0.086,5.44496 -0.54358,8.79877 -1.20188,8.80825 -0.68934,0.01 -0.66466,0.2736 0.0702,0.75 0.70845,0.45929 1.0833,3.73352 1,8.73469 -0.12683,7.61404 0.003,8.11552 2.68282,10.3945 2.63074,2.2369 3.56864,2.38832 14.25,2.30058 8.26775,-0.0679 11.43816,0.23821 11.44923,1.1055 0.0115,0.89994 0.20006,0.90905 0.75523,0.0365 0.51416,-0.80814 5.39107,-1.13271 15.98468,-1.0638 z m 7.36307,-47.57969 c 3.78124,-0.16703 4.33443,-0.46763 4.03669,-2.19355 -0.57029,-3.30582 -2.07387,-4.48134 -4.53507,-3.54559 -1.2842,0.48825 -2.94294,0.44432 -3.92254,-0.10389 C 782.76382,559.32807 782,559.29798 782,559.78364 c 0,1.20215 -3.20876,1.17351 -4.75,-0.0424 -0.85692,-0.67603 -1.25,-0.59953 -1.25,0.24329 0,0.67619 -0.63272,0.98664 -1.40604,0.68989 -1.6021,-0.61478 -5.2936,2.95927 -4.19314,4.05972 0.82817,0.82817 10.53745,2.01969 12.21747,1.49933 0.61506,-0.19051 3.09006,-0.43347 5.5,-0.53993 z m 250.44601,630.01335 c 0.3755,-0.9862 0.9347,-1.5412 1.2426,-1.2334 0.3079,0.3079 6e-4,1.1148 -0.6828,1.7932 -0.9876,0.9802 -1.1025,0.8654 -0.5598,-0.5598 z M 1141.0306,1011.5 c 0,-0.55 0.4362,-1.675 0.9694,-2.5 0.5332,-0.825 0.9694,-1.05 0.9694,-0.5 0,0.55 -0.4362,1.675 -0.9694,2.5 -0.5332,0.825 -0.9694,1.05 -0.9694,0.5 z M 400.62354,997.46134 c -0.96498,-2.51469 -0.68031,-3.16355 0.49853,-1.13634 0.58369,1.00375 0.8506,2.03566 0.59313,2.29313 -0.25747,0.25747 -0.74872,-0.26309 -1.09166,-1.15679 z m 762.45536,-9.04467 c 0.048,-1.16495 0.285,-1.4019 0.6042,-0.60417 0.2889,0.72187 0.2534,1.58438 -0.079,1.91667 -0.3323,0.33229 -0.5687,-0.25834 -0.5253,-1.3125 z m -12,-5 c 0.048,-1.16495 0.285,-1.4019 0.6042,-0.60417 0.2889,0.72187 0.2534,1.58438 -0.079,1.91667 -0.3323,0.33229 -0.5687,-0.25834 -0.5253,-1.3125 z m -771.99995,-8 c 0.048,-1.16495 0.28494,-1.4019 0.60416,-0.60417 0.28887,0.72187 0.25335,1.58438 -0.0789,1.91667 -0.33229,0.33229 -0.56864,-0.25834 -0.52522,-1.3125 z m 12,-5 c 0.048,-1.16495 0.28494,-1.4019 0.60416,-0.60417 0.28887,0.72187 0.25335,1.58438 -0.0789,1.91667 -0.33229,0.33229 -0.56864,-0.25834 -0.52522,-1.3125 z m 764.99995,-4 c 0.048,-1.16495 0.285,-1.4019 0.6042,-0.60417 0.2889,0.72187 0.2534,1.58438 -0.079,1.91667 -0.3323,0.33229 -0.5687,-0.25834 -0.5253,-1.3125 z m 16,-9 c 0.048,-1.16495 0.285,-1.4019 0.6042,-0.60417 0.2889,0.72187 0.2534,1.58438 -0.079,1.91667 -0.3323,0.33229 -0.5687,-0.25834 -0.5253,-1.3125 z m -785.99995,-4 c 0.048,-1.16495 0.28494,-1.4019 0.60416,-0.60417 0.28887,0.72187 0.25335,1.58438 -0.0789,1.91667 -0.33229,0.33229 -0.56864,-0.25834 -0.52522,-1.3125 z M 1161.1579,949 c 0,-1.375 0.227,-1.9375 0.5044,-1.25 0.2774,0.6875 0.2774,1.8125 0,2.5 -0.2774,0.6875 -0.5044,0.125 -0.5044,-1.25 z m -791.00001,-4 c 0,-1.375 0.22698,-1.9375 0.50439,-1.25 0.27741,0.6875 0.27741,1.8125 0,2.5 -0.27741,0.6875 -0.50439,0.125 -0.50439,-1.25 z m 807.00001,-7 c 0,-1.375 0.227,-1.9375 0.5044,-1.25 0.2774,0.6875 0.2774,1.8125 0,2.5 -0.2774,0.6875 -0.5044,0.125 -0.5044,-1.25 z m -796.07895,-1.58333 c 0.048,-1.16495 0.28494,-1.4019 0.60416,-0.60417 0.28887,0.72187 0.25335,1.58438 -0.0789,1.91667 -0.33229,0.33229 -0.56864,-0.25834 -0.52522,-1.3125 z M 1165.1579,933 c 0,-1.375 0.227,-1.9375 0.5044,-1.25 0.2774,0.6875 0.2774,1.8125 0,2.5 -0.2774,0.6875 -0.5044,0.125 -0.5044,-1.25 z m -800.00001,-7 c 0,-1.375 0.22698,-1.9375 0.50439,-1.25 0.27741,0.6875 0.27741,1.8125 0,2.5 -0.27741,0.6875 -0.50439,0.125 -0.50439,-1.25 z m 12,-5 c 0,-1.375 0.22698,-1.9375 0.50439,-1.25 0.27741,0.6875 0.27741,1.8125 0,2.5 -0.27741,0.6875 -0.50439,0.125 -0.50439,-1.25 z m 792.06011,-6 c -0.01,-1.375 0.3416,-3.625 0.782,-5 0.6274,-1.95899 0.7966,-2.0672 0.782,-0.5 -0.01,1.1 -0.3621,3.35 -0.782,5 -0.6857,2.69472 -0.7653,2.7456 -0.782,0.5 z M 372.625,901.875 c -0.83365,-4.16825 -0.0258,-4.97614 0.875,-0.875 0.37968,1.72866 0.48187,3.35146 0.22711,3.60623 -0.25477,0.25477 -0.75072,-0.97429 -1.10211,-2.73123 z M 1186.232,894 c 0,-1.925 0.2058,-2.7125 0.4573,-1.75 0.2516,0.9625 0.2516,2.5375 0,3.5 -0.2515,0.9625 -0.4573,0.175 -0.4573,-1.75 z M 356.19495,883.5 c 0.0204,-1.65 0.2445,-2.20394 0.49804,-1.23097 0.25354,0.97297 0.23687,2.32297 -0.0371,3 -0.27393,0.67703 -0.48137,-0.11903 -0.46099,-1.76903 z m 818.99995,-2 c 0.02,-1.65 0.2445,-2.20394 0.4981,-1.23097 0.2535,0.97297 0.2369,2.32297 -0.037,3 -0.2739,0.67703 -0.4813,-0.11903 -0.461,-1.76903 z m -808.11595,-7.08333 c 0.048,-1.16495 0.28494,-1.4019 0.60416,-0.60417 0.28887,0.72187 0.25335,1.58438 -0.0789,1.91667 -0.33229,0.33229 -0.56864,-0.25834 -0.52522,-1.3125 z M 1191.2724,860 c 0,-2.475 0.195,-3.4875 0.4333,-2.25 0.2384,1.2375 0.2384,3.2625 0,4.5 -0.2383,1.2375 -0.4333,0.225 -0.4333,-2.25 z M 351.232,852 c 0,-1.925 0.2058,-2.7125 0.45733,-1.75 0.25152,0.9625 0.25152,2.5375 0,3.5 -0.25153,0.9625 -0.45733,0.175 -0.45733,-1.75 z m 828.054,-1.5 c 0.01,-2.75 0.2017,-3.75631 0.4316,-2.23625 0.2298,1.52006 0.2237,3.77006 -0.014,5 -0.2373,1.22994 -0.4254,-0.0137 -0.4179,-2.76375 z m -816.20705,-5.08333 c 0.048,-1.16495 0.28494,-1.4019 0.60416,-0.60417 0.28887,0.72187 0.25335,1.58438 -0.0789,1.91667 -0.33229,0.33229 -0.56864,-0.25834 -0.52522,-1.3125 z M 358.46203,683 c 0,-26.125 0.12919,-36.8125 0.28709,-23.75 0.15789,13.0625 0.15789,34.4375 0,47.5 -0.1579,13.0625 -0.28709,2.375 -0.28709,-23.75 z m 825.92647,-17.5 c 0,-7.15 0.1611,-9.94379 0.354,-6.20841 0.1929,3.73537 0.1915,9.58537 0,13 -0.1947,3.41462 -0.3525,0.35841 -0.3508,-6.79159 z M 1200.4634,336 c 0,-27.225 0.1286,-38.3625 0.2858,-24.75 0.1571,13.6125 0.1571,35.8875 0,49.5 -0.1572,13.6125 -0.2858,2.475 -0.2858,-24.75 z m -858.07486,25.5 c 0.002,-7.15 0.16103,-9.94379 0.35396,-6.20841 0.19293,3.73537 0.19149,9.58537 -0.003,13 -0.19468,3.41462 -0.35253,0.35841 -0.35078,-6.79159 z M 1189.4552,222 c 0,-21.725 0.1321,-30.6125 0.2936,-19.75 0.1614,10.8625 0.1614,28.6375 0,39.5 -0.1615,10.8625 -0.2936,1.975 -0.2936,-19.75 z m -836.02054,6 c 0,-14.025 0.14065,-19.7625 0.31255,-12.75 0.1719,7.0125 0.1719,18.4875 0,25.5 -0.1719,7.0125 -0.31255,1.275 -0.31255,-12.75 z m -11.35571,-31.58333 c 0.048,-1.16495 0.28494,-1.4019 0.60416,-0.60417 0.28887,0.72187 0.25335,1.58437 -0.0789,1.91667 -0.33229,0.33229 -0.56864,-0.25834 -0.52522,-1.3125 z m 857.99995,-20 c 0.048,-1.16495 0.285,-1.4019 0.6042,-0.60417 0.2889,0.72187 0.2534,1.58437 -0.079,1.91667 -0.3323,0.33229 -0.5687,-0.25834 -0.5253,-1.3125 z"
         id="path20" />
      <path
         style="fill:#838c9a"
         d="m 767,1397.0538 c -1.375,-0.4973 -5.875,-1.8931 -10,-3.1019 -14.9713,-4.387 -23.10697,-7.2639 -32.77734,-11.5907 -2.90253,-1.2987 -5.71503,-2.3612 -6.25,-2.3612 -0.53496,0 -0.97266,-0.4151 -0.97266,-0.9224 0,-0.5074 -1.54688,-1.433 -3.43752,-2.057 -1.89063,-0.6239 -4.47813,-1.9267 -5.75,-2.895 -1.27186,-0.9683 -3.88748,-2.3885 -5.81248,-3.1561 -1.925,-0.7676 -3.95,-1.7494 -4.5,-2.1819 -2.96838,-2.3342 -11.77407,-7.7398 -13.50067,-8.2878 -1.09963,-0.349 -1.99933,-1.0543 -1.99933,-1.5672 0,-0.5129 -0.49774,-0.9326 -1.1061,-0.9326 -0.60835,0 -2.81061,-1.35 -4.8939,-3 -2.08329,-1.65 -4.10829,-3 -4.5,-3 -0.39171,0 -2.41671,-1.35 -4.5,-3 -2.08329,-1.65 -4.10925,-3 -4.50211,-3 -0.39287,0 -3.54192,-2.25 -6.99789,-5 -3.45597,-2.75 -6.68294,-5 -7.17103,-5 -0.4881,0 -1.53613,-0.9 -2.32897,-2 -0.79284,-1.1 -1.92924,-2 -2.52534,-2 -0.59611,0 -2.80332,-1.575 -4.90494,-3.5 -2.10161,-1.925 -4.1152,-3.5 -4.47465,-3.5 -0.35945,0 -1.30223,-0.9 -2.09507,-2 -0.79284,-1.1 -1.91784,-2 -2.5,-2 -0.58216,0 -1.70716,-0.9 -2.5,-2 -0.79284,-1.1 -1.72,-2 -2.06037,-2 -0.61557,0 -7.14156,-5.4561 -11.66189,-9.75 -1.30276,-1.2375 -2.60848,-2.25 -2.90161,-2.25 -0.29313,0 -2.31507,-1.8 -4.49319,-4 -2.17812,-2.2 -4.14717,-4 -4.37566,-4 -0.22848,0 -3.39859,-2.925 -7.04469,-6.5 -3.64609,-3.575 -6.96571,-6.5 -7.37694,-6.5 -0.41123,0 -1.34977,-1.125 -2.08565,-2.5 -0.73588,-1.375 -1.69692,-2.5 -2.13565,-2.5 -1.13581,0 -7.86435,-6.8731 -7.86435,-8.0333 0,-0.5317 -0.59896,-0.9667 -1.33102,-0.9667 -0.73206,0 -1.9331,-1.125 -2.66898,-2.5 -0.73588,-1.375 -1.93692,-2.5 -2.66898,-2.5 -0.73206,0 -1.33102,-0.3546 -1.33102,-0.788 0,-0.4334 -2.27237,-3.2459 -5.04971,-6.25 -9.74157,-10.5369 -14.47241,-15.8443 -16.95029,-19.016 -1.375,-1.76 -4.525,-5.3769 -7,-8.0376 -5.55061,-5.9672 -9.37981,-10.6505 -9.875,-12.0776 -0.20625,-0.5945 -1.10625,-1.8579 -2,-2.8076 -0.89375,-0.9498 -2.75,-3.1336 -4.125,-4.853 -5.79009,-7.2404 -7.64381,-9.488 -10.25,-12.4281 -1.5125,-1.7063 -2.75,-3.4713 -2.75,-3.9222 0,-0.4509 -0.9,-1.8324 -2,-3.0699 -4.22408,-4.7521 -5,-5.7769 -5,-6.604 0,-0.4697 -1.125,-2.0678 -2.5,-3.5515 -1.375,-1.4836 -2.5,-3.0771 -2.5,-3.5411 0,-0.4639 -1.11723,-1.9032 -2.48272,-3.1984 -1.3655,-1.2953 -2.4905,-2.8326 -2.5,-3.4164 -0.01,-0.5838 -0.80478,-1.9473 -1.76728,-3.03 -0.9625,-1.0827 -2.62746,-3.53 -3.69991,-5.4385 -1.07245,-1.9086 -2.75995,-4.3425 -3.75,-5.4087 -0.99005,-1.0662 -1.80009,-2.4805 -1.80009,-3.143 0,-0.6624 -0.675,-1.4634 -1.5,-1.78 -0.825,-0.3166 -1.5,-1.1799 -1.5,-1.9185 0,-0.7385 -0.80223,-2.2151 -1.78272,-3.2813 -0.9805,-1.0662 -2.61673,-3.7106 -3.63606,-5.8765 -1.01934,-2.1658 -2.69212,-4.8381 -3.71728,-5.9385 -1.02517,-1.1004 -1.86394,-2.5909 -1.86394,-3.3122 0,-0.7213 -0.40543,-1.3114 -0.90094,-1.3114 -0.49552,0 -1.73302,-2.0233 -2.75,-4.4963 -1.01699,-2.4729 -2.13197,-4.4979 -2.47774,-4.5 -0.34577,0 -1.18787,-1.3537 -1.87132,-3.0037 -0.68345,-1.65 -1.6646,-3 -2.18034,-3 -0.51573,0 -0.65958,-0.45 -0.31966,-1 0.33992,-0.55 0.25133,-1 -0.19687,-1 -0.4482,0 -1.45649,-1.4625 -2.24064,-3.25 -0.78415,-1.7875 -1.94954,-3.7 -2.58974,-4.25 -0.6402,-0.55 -1.76955,-2.575 -2.50965,-4.5 -0.74011,-1.925 -1.88331,-3.8312 -2.54045,-4.2359 -0.65713,-0.4048 -1.48915,-2.3051 -1.84893,-4.2228 -0.35978,-1.9178 -1.22498,-3.8367 -1.92266,-4.2641 -0.69768,-0.4275 -1.89153,-2.3522 -2.65301,-4.2772 -0.76148,-1.925 -1.86005,-3.8225 -2.44128,-4.2167 -0.58122,-0.3942 -1.11233,-1.2942 -1.18024,-2 -0.20372,-2.1174 -2.76279,-7.7833 -3.5154,-7.7833 -0.38522,0 -1.44773,-2.25 -2.36113,-5 -0.9134,-2.75 -2.07457,-5 -2.58037,-5 -0.5058,0 -0.91963,-0.8734 -0.91963,-1.941 0,-1.0675 -0.45,-2.2191 -1,-2.559 -0.55,-0.3399 -1,-1.2986 -1,-2.1304 0,-0.8319 -0.61799,-2.1304 -1.37331,-2.8858 -0.75531,-0.7553 -1.97856,-3.4231 -2.71831,-5.9285 -0.73976,-2.5054 -1.6842,-4.5553 -2.09876,-4.5553 -0.41456,0 -1.47325,-2.475 -2.35264,-5.5 -0.87939,-3.025 -1.95848,-5.5 -2.39798,-5.5 -0.43949,0 -1.38567,-2.1375 -2.10262,-4.75 -0.71695,-2.6125 -1.90043,-5.1099 -2.62996,-5.5497 -0.72953,-0.4398 -1.32642,-1.5329 -1.32642,-2.429 0,-2.2812 -2.27479,-8.5318 -3.62903,-9.9718 -0.62096,-0.6602 -1.43523,-3.2423 -1.80948,-5.738 -0.37425,-2.49569 -1.32869,-5.18584 -2.12097,-5.97812 C 399.64823,994.79109 399,993.58016 399,992.89243 c 0,-1.73955 -2.33893,-8.27966 -3.18899,-8.91703 -0.62192,-0.46633 -1.73486,-4.24297 -3.529,-11.9754 -0.31904,-1.375 -0.96895,-2.75523 -1.44424,-3.06718 -0.4753,-0.31194 -1.54329,-4.1166 -2.37333,-8.45479 -0.83003,-4.3382 -1.8699,-8.13297 -2.31082,-8.43283 -0.86213,-0.58631 -2.67942,-7.21022 -3.64759,-13.2952 C 382.17787,936.6875 381.58209,935 381.18207,935 380.28814,935 378,925.45122 378,921.72072 378,920.22432 377.50186,919 376.89301,919 c -0.60884,0 -0.84797,-0.675 -0.53138,-1.5 0.31658,-0.825 0.16769,-1.5 -0.33087,-1.5 -0.49855,0 -0.90534,-0.7875 -0.90397,-1.75 0.006,-4.13853 -2.04682,-15.58555 -2.89462,-16.14195 -0.50958,-0.33443 -1.21784,-2.85805 -1.5739,-5.60805 -2.03547,-15.72054 -2.58753,-18.84134 -3.43042,-19.39195 -0.51196,-0.33443 -1.21725,-3.98305 -1.56731,-8.10805 -1.32636,-15.62945 -1.98162,-20.51752 -2.8244,-21.06934 C 361.12821,842.81238 360.012,803.23154 359.34824,720.25 358.9776,673.9125 358.29762,636 357.83717,636 c -0.46044,0 -0.82591,-24.4125 -0.81215,-54.25 C 357.06307,499.2571 354.70886,276 353.80093,276 353.36042,276 353,273.975 353,271.5 c 0,-2.475 0.45,-4.5 1,-4.5 0.5641,0 1,-2.83333 1,-6.5 0,-3.575 -0.3375,-6.4994 -0.75,-6.49867 -0.4125,7.2e-4 -0.525,-12.03678 -0.25,-26.75 0.53327,-28.53145 0.7211,-29.61977 5.82167,-33.73233 2.94812,-2.37705 13.78439,-8.64552 20.17833,-11.67259 2.475,-1.17174 4.725,-2.42402 5,-2.78285 0.69921,-0.91237 22.69296,-11.51112 27.25,-13.13173 2.0625,-0.73348 3.75,-1.66288 3.75,-2.06533 0,-0.40245 1.0125,-1.04863 2.25,-1.43596 1.2375,-0.38732 4.95,-1.91349 8.25,-3.39148 13.54313,-6.06563 41.2237,-17.12224 46.5,-18.57377 1.375,-0.37826 3.85,-1.28474 5.5,-2.01439 3.7087,-1.64003 14.67444,-5.26171 28.5,-9.41275 5.775,-1.73391 13.2,-3.99205 16.5,-5.01808 3.3,-1.02604 8.7,-2.42353 12,-3.10553 3.3,-0.68201 6.78862,-1.63321 7.75248,-2.11379 2.34782,-1.17061 20.75386,-5.46291 33.74752,-7.86994 5.775,-1.0698 11.43294,-2.34598 12.57319,-2.83595 1.14026,-0.48998 7.21526,-1.6319 13.5,-2.53761 6.28475,-0.90571 13.00181,-2.08799 14.92681,-2.62728 3.16459,-0.88656 21.28053,-3.528806 41,-5.979924 4.125,-0.512735 15.04798,-1.591168 24.27328,-2.396518 9.22531,-0.80535 17.10031,-1.663511 17.5,-1.907024 3.61274,-2.201055 138.21533,-2.879904 158.72672,-0.800515 6.05,0.613332 16.175,1.563345 22.5,2.111139 27.03167,2.341154 35.67392,3.255476 38.5,4.073174 1.65,0.477411 9.525,1.60226 17.5,2.499668 7.975,0.8974 16.3,2.0533 18.5,2.56865 2.2,0.51536 9.175,1.82945 15.5,2.92021 26.46211,4.56343 48.0138,9.13711 67.5,14.32478 17.8777,4.75946 28.0565,7.57163 31,8.56463 2.8645,0.96634 29.4579,9.36809 30.5,9.63596 0.275,0.0707 1.175,0.4012 2,0.73447 0.825,0.33326 3.75,1.31715 6.5,2.1864 2.75,0.86926 5.9,1.96 7,2.42387 8.0929,3.41277 17.4069,7.07978 19.5,7.6773 1.375,0.39253 4.0683,1.55071 5.9852,2.57373 1.9168,1.02301 3.8195,1.86003 4.2281,1.86003 2.3787,0 35.9837,16.60326 38.6697,19.10559 4.3957,4.09528 4.3918,3.93157 3.1678,132.89441 -0.6395,67.375 -1.4298,172.5625 -1.7562,233.75 -0.3264,61.1875 -0.9218,111.25 -1.3231,111.25 -0.4014,0 -1.0172,36.7875 -1.3686,81.75 -0.6936,88.74375 -1.3457,110.33177 -3.3529,111.00032 -0.8199,0.27309 -1.2499,2.53816 -1.2497,6.58301 4e-4,7.8968 -2.2134,26.66667 -3.1451,26.66667 -0.3912,0 -0.9788,2.5875 -1.3057,5.75 -1.3209,12.77846 -2.9794,23.25 -3.6823,23.25 -0.4096,0 -1.0205,2.1375 -1.3576,4.75 -1.5196,11.77475 -2.7507,18.25 -3.4699,18.25 -0.4288,0 -1.0677,1.9125 -1.4199,4.25 -1.5388,10.21402 -1.8825,11.75 -2.6298,11.75 -0.6984,0 -1.3276,2.47958 -3.6794,14.5 -0.3228,1.65 -0.9807,3.25523 -1.4619,3.56718 -0.4813,0.31194 -1.5542,4.1166 -2.3843,8.45479 -0.83,4.3382 -1.8885,8.13297 -2.3521,8.43283 -0.4636,0.29986 -1.6264,3.6952 -2.5839,7.5452 -0.9574,3.85 -2.0329,7.225 -2.39,7.5 -0.814,0.62704 -3.1384,7.213 -3.1384,8.8924 0,0.6878 -0.6206,1.871 -1.379,2.6295 -0.7585,0.7584 -1.6853,3.4209 -2.0595,5.9166 -0.3743,2.4957 -1.2376,5.1055 -1.9186,5.7996 -0.6809,0.694 -2.046,3.8494 -3.0336,7.0119 -0.9875,3.1625 -2.1185,5.75 -2.5133,5.75 -0.3949,0 -1.2946,2.25 -1.9994,5 -0.7048,2.75 -1.6579,5 -2.1181,5 -0.4601,0 -1.5561,2.475 -2.4355,5.5 -0.8794,3.025 -2.0363,5.5 -2.5709,5.5 -0.5347,0 -0.9721,0.8734 -0.9721,1.941 0,1.0675 -0.45,2.2191 -1,2.559 -0.55,0.3399 -1,1.4593 -1,2.4876 0,1.0282 -0.6572,2.5267 -1.4604,3.33 -0.8033,0.8032 -2.0379,3.3104 -2.7435,5.5714 -0.7057,2.2611 -1.5873,4.111 -1.9592,4.111 -0.3719,0 -1.4235,2.25 -2.3369,5 -0.9134,2.75 -1.9621,5.0035 -2.3304,5.0078 -0.8237,0.01 -3.1696,4.9254 -3.1696,6.6419 0,0.688 -0.5889,1.6108 -1.3087,2.0506 -0.7198,0.4398 -1.9363,2.3747 -2.7034,4.2997 -0.7671,1.925 -1.9285,3.95 -2.581,4.5 -0.6524,0.55 -1.7208,2.6875 -2.3741,4.75 -0.6534,2.0625 -1.4969,3.75 -1.8745,3.75 -0.3776,0 -1.4663,1.8 -2.4194,4 -0.9531,2.2 -2.0939,4 -2.535,4 -0.4412,0 -1.3717,1.575 -2.0677,3.5 -0.6961,1.925 -1.6182,3.5 -2.0491,3.5 -0.4308,0 -1.595,1.8 -2.5871,4 -0.9921,2.2 -2.1366,4 -2.5435,4 -0.4068,0 -1.0249,1.1364 -1.3735,2.5254 -0.3486,1.389 -1.4099,3.3152 -2.3584,4.2804 -0.9485,0.9652 -2.3989,3.0913 -3.223,4.7246 -0.8241,1.6333 -2.0616,3.3295 -2.75,3.7693 -0.6884,0.4398 -1.2516,1.3675 -1.2516,2.0614 0,0.694 -0.8022,2.1341 -1.7827,3.2003 -0.9805,1.0662 -2.5766,3.6261 -3.5469,5.6886 -0.9703,2.0625 -2.1171,3.75 -2.5483,3.75 -0.4313,0 -1.4227,1.2134 -2.2031,2.6965 -0.7805,1.4831 -2.4315,3.7988 -3.669,5.146 -1.2375,1.3473 -2.25,3.0588 -2.25,3.8035 0,0.7447 -0.374,1.354 -0.831,1.354 -0.4571,0 -1.4632,1.2375 -2.2359,2.75 -1.4559,2.85 -4.159,6.2632 -7.1831,9.0701 -0.9625,0.8934 -1.75,2.1739 -1.75,2.8454 0,0.6716 -0.8286,1.8091 -1.8413,2.5278 -1.0127,0.7187 -2.4328,2.4317 -3.1556,3.8067 -0.7229,1.375 -2.1156,3.4 -3.0949,4.5 -3.8458,4.3199 -6.5143,7.4517 -8.9082,10.4551 -1.375,1.725 -3.4,4.2098 -4.5,5.5219 -1.1,1.3121 -3.35,4.0403 -5,6.0628 -1.65,2.0224 -4.0125,4.7765 -5.25,6.1202 -1.2375,1.3437 -2.25,2.8699 -2.25,3.3915 0,0.5217 -0.675,0.9485 -1.5,0.9485 -0.825,0 -1.5,0.4261 -1.5,0.9469 0,0.9896 -5.5105,7.1119 -17.75,19.7209 -3.9875,4.1079 -7.25,7.8882 -7.25,8.4006 0,0.5124 -0.39638,0.9316 -0.88084,0.9316 -0.48446,0 -5.39328,4.3875 -10.90848,9.75 -11.04144,10.7357 -22.32767,21.25 -22.81018,21.25 -0.17028,0 -1.34346,1.0125 -2.60709,2.25 -1.26362,1.2375 -4.26838,3.825 -6.67724,5.75 -2.40886,1.925 -5.42499,4.5125 -6.7025,5.75 -1.27752,1.2375 -2.69387,2.25 -3.14746,2.25 -0.45358,0 -1.47337,0.9 -2.26621,2 -0.79284,1.1 -2.01718,2 -2.72076,2 -0.70358,0 -1.27924,0.3778 -1.27924,0.8395 0,0.7916 -11.48548,10.1605 -12.45589,10.1605 -0.24926,0 -1.56492,1.0125 -2.92368,2.25 -1.35877,1.2375 -5.7086,4.5 -9.66629,7.25 -3.95769,2.75 -9.96313,7.025 -13.34542,9.5 -3.38228,2.475 -7.49041,5.1743 -9.12916,5.9984 -1.63876,0.8241 -3.20456,1.7241 -3.47956,2 -1.49689,1.5017 -7.06666,5.0016 -7.95951,5.0016 -0.57227,0 -1.04049,0.4197 -1.04049,0.9326 0,0.5129 -0.94224,1.2317 -2.09386,1.5972 -1.15162,0.3655 -4.00291,1.953 -6.33621,3.5277 -2.33329,1.5747 -7.12855,4.3231 -10.65614,6.1076 -3.52758,1.7845 -6.65456,3.5849 -6.94884,4.0009 -0.29427,0.416 -2.09427,1.4795 -4,2.3633 -4.6958,2.1778 -11.51885,5.8739 -13.13911,7.1177 -0.72921,0.5598 -2.90084,1.6173 -4.82584,2.3501 -1.925,0.7328 -4.175,1.8656 -5,2.5173 -0.825,0.6518 -6,2.9133 -11.5,5.0256 -8.26353,3.1736 -11.476,3.8906 -18.5,4.1292 -4.675,0.1588 -9.625,-0.1181 -11,-0.6154 z m 22,-28.2587 c 16.23196,-6.4055 59.71428,-31.4085 80.9068,-46.5226 4.17626,-2.9784 10.25227,-7.2957 13.50224,-9.5939 3.24997,-2.2982 11.50523,-8.6786 18.34503,-14.1786 6.83979,-5.5 14.08073,-11.2629 16.09096,-12.8064 23.31614,-17.9026 79.62098,-76.8581 100.15497,-104.87 1.925,-2.626 6.6851,-8.9481 10.5779,-14.0491 18.1853,-23.829 43.9665,-65.8056 59.1299,-96.2745 8.0653,-16.2062 24.0755,-52.3114 28.1579,-63.5 1.1038,-3.025 3.0857,-8.425 4.4042,-12 5.3374,-14.47122 17.7006,-55.72453 19.9295,-66.5 0.5688,-2.75 1.8816,-7.99486 2.9174,-11.65524 1.0358,-3.66038 1.8832,-7.8604 1.8832,-9.33338 0,-1.47299 0.9043,-6.21977 2.0095,-10.54841 1.1052,-4.32864 2.4295,-11.60362 2.9429,-16.16661 0.5135,-4.563 1.619,-11.97937 2.4568,-16.48082 0.8378,-4.50146 2.445,-18.90146 3.5716,-32 2.3469,-27.28707 2.6598,-43.37816 4.0798,-209.81554 0.5396,-63.25 1.6348,-173.05 2.4338,-244 0.799,-70.95 1.4646,-141.86961 1.4791,-157.59913 l 0.026,-28.59912 -10.0667,-4.73509 c -12.8911,-6.06362 -30.9592,-13.71524 -41.9333,-17.75829 -16.0787,-5.92364 -22.0561,-8.04855 -27.5,-9.77595 -43.354,-13.75667 -74.84,-21.52851 -117.5,-29.00311 -25.61327,-4.48779 -29.94441,-5.18842 -40.5,-6.55149 -6.05,-0.78125 -14.375,-1.87721 -18.5,-2.43547 -4.125,-0.55826 -15.6,-1.74217 -25.5,-2.63091 -9.9,-0.88873 -21.6,-1.98626 -26,-2.43894 -4.4,-0.45269 -28.475,-1.14574 -53.5,-1.54013 -44.82515,-0.70644 -82.41479,0.25836 -100,2.56665 -4.125,0.54147 -16.5,1.89475 -27.5,3.00731 -21.30906,2.15523 -47.50133,5.54193 -50.69166,6.5545 -1.06195,0.33705 -6.96576,1.45254 -13.11958,2.47886 -24.64235,4.10979 -59.95296,12.29868 -83.18876,19.29231 -4.4,1.32433 -11.825,3.55243 -16.5,4.95133 -18.15224,5.4317 -44.27301,15.17647 -69.5,25.9281 -15.66636,6.67694 -51.43709,24.22231 -58.78943,28.83594 l -4.78943,3.00539 0.38255,67.72362 c 0.21041,37.24799 0.91287,102.14862 1.56103,144.22362 0.64815,42.075 1.64177,131.85 2.20804,199.5 1.49086,178.1086 2.1875,198.76161 7.95987,235.98167 3.28381,21.17389 10.10179,53.82326 13.07994,62.63607 1.04413,3.08976 2.32475,7.58976 2.84583,10 0.52107,2.41024 1.83521,7.08226 2.9203,10.38226 1.08508,3.3 2.95572,9.375 4.15696,13.5 1.20125,4.125 2.99453,9.75 3.98508,12.5 0.99055,2.75 3.00497,8.375 4.47649,12.5 7.66221,21.4789 13.52887,36.0799 18.4828,46 0.96131,1.925 4.16048,8.9 7.10928,15.5 20.85534,46.6784 57.92028,107.6202 88.73665,145.8998 4.02928,5.0051 9.17792,11.5752 11.44142,14.6002 7.54782,10.0871 42.70683,48.9126 54.35028,60.0182 18.29021,17.4452 40.82597,36.8798 55.28731,47.6791 4.17727,3.1195 9.17003,6.8645 11.09503,8.3223 18.18433,13.7709 54.35584,35.6021 67,40.4376 1.925,0.7361 5.975,2.3551 9,3.5976 10.72923,4.4072 30.39108,9.8427 33.5,9.2612 1.65,-0.3087 6.375,-1.8931 10.5,-3.5209 z m -19,-8.4078 c -2.475,-0.8002 -8.775,-2.8407 -14,-4.5345 -45.19325,-14.6503 -118.14054,-68.3138 -168.24435,-123.7684 -22.13108,-24.4946 -27.16059,-30.2474 -30.54928,-34.9424 -1.72999,-2.3969 -6.30256,-8.2469 -10.16126,-13 -28.87364,-35.5662 -63.93944,-91.6752 -84.45819,-135.142 -10.69101,-22.6478 -19.25591,-41.8215 -22.17334,-49.63814 -1.40859,-3.77402 -3.91199,-10.46186 -5.56311,-14.86186 -1.65111,-4.4 -5.17749,-14.75 -7.83638,-23 -2.6589,-8.25 -5.796,-17.925 -6.97132,-21.5 -1.17533,-3.575 -2.5633,-8.47202 -3.08437,-10.88226 -0.52108,-2.41024 -1.8017,-6.91024 -2.84583,-10 -5.37151,-15.89515 -13.9562,-63.24211 -16.52433,-91.13632 -2.52673,-27.44448 -2.62023,-30.97776 -3.63808,-137.48142 -0.55192,-57.75 -1.74575,-159.9 -2.65295,-227 -0.9072,-67.1 -1.80517,-149.7727 -1.99549,-183.71711 l -0.34604,-61.71712 5.27216,-3.03726 C 421.29006,199.4381 480.11081,174.72322 515,164.28333 c 4.675,-1.3989 12.1,-3.627 16.5,-4.95133 22.70313,-6.8333 59.42981,-15.35401 83.18876,-19.30005 6.15382,-1.02206 12.05763,-2.13407 13.11958,-2.47112 3.19033,-1.01257 29.3826,-4.39927 50.69166,-6.5545 11,-1.11256 23.375,-2.46584 27.5,-3.00731 17.15766,-2.25217 55.13432,-3.27475 96.5,-2.5984 23.1,0.37769 45.825,1.07462 50.5,1.54873 4.675,0.47411 16.6,1.5856 26.5,2.47 9.9,0.88439 21.375,2.06474 25.5,2.623 4.125,0.55826 12.45,1.65422 18.5,2.43547 10.55559,1.36307 14.88673,2.0637 40.5,6.55149 65.8151,11.53169 120.6569,27.53521 174.4476,50.90602 7.6712,3.33296 14.3774,6.48967 14.9027,7.01493 0.9445,0.94456 -0.1894,149.00968 -2.4089,314.54974 -0.5605,41.8 -1.4278,124.825 -1.9274,184.5 -0.8132,97.12627 -1.127,110.94346 -2.9939,131.80946 -1.147,12.82021 -2.7715,26.99521 -3.6098,31.5 -0.8384,4.5048 -1.9444,11.9239 -2.4579,16.4869 -0.5134,4.56299 -1.8377,11.83797 -2.9429,16.16661 -1.1052,4.32864 -2.0095,9.2012 -2.0095,10.82792 0,1.62671 -0.6797,4.88423 -1.5105,7.23892 -0.8308,2.3547 -1.8942,6.57378 -2.3632,9.37573 -2.3628,14.11655 -18.6511,66.06325 -28.0148,89.34446 -1.1613,2.8875 -2.9564,7.3875 -3.9891,10 -4.0955,10.361 -17.6168,39.4574 -24.0487,51.75 -14.8462,28.3743 -39.4985,67.8331 -54.9788,88 -3.3775,4.4 -8.008,10.475 -10.2901,13.5 -22.32122,29.5876 -70.91465,80.8347 -95.8048,101.0365 -19.1044,15.5059 -32.16925,25.8081 -37.59096,29.6421 -3.24997,2.2982 -9.28404,6.5772 -13.40904,9.5089 -15.42693,10.9641 -26.32203,17.5601 -60.04421,36.3513 -10.18597,5.676 -23.89276,11.5123 -26.73182,11.3823 -0.94818,-0.043 -3.74897,-0.7337 -6.22397,-1.5338 z M 722.15677,928.14323 c 0.36122,-4.04622 1.14872,-7.84872 1.75,-8.45 0.60127,-0.60127 1.09323,-1.79877 1.09323,-2.6611 0,-0.86232 1.05505,-3.13482 2.34456,-5.05 1.28951,-1.91517 2.64808,-4.71963 3.01905,-6.23213 0.37097,-1.5125 1.27006,-2.75 1.99797,-2.75 0.72791,0 2.17167,-1.575 3.20835,-3.5 1.03668,-1.925 2.38151,-3.5 2.98849,-3.5 0.60699,0 1.7057,-1.125 2.44158,-2.5 0.73588,-1.375 1.93692,-2.5 2.66898,-2.5 0.73206,0 1.33102,-0.45 1.33102,-1 0,-0.55 0.62686,-1 1.39301,-1 0.76616,0 1.65203,-0.675 1.96862,-1.5 0.31658,-0.825 1.26472,-1.5 2.10699,-1.5 0.84226,0 1.53138,-0.45 1.53138,-1 0,-0.55 0.9,-1 2,-1 1.1,0 2,-0.45 2,-1 0,-0.55 0.93214,-1 2.07143,-1 1.13928,0 2.77231,-0.70088 3.62894,-1.55751 0.85663,-0.85663 2.14158,-1.33338 2.85546,-1.05944 0.71387,0.27394 1.83594,-0.15018 2.4935,-0.94249 0.65884,-0.79385 2.90982,-1.44056 5.0141,-1.44056 2.10019,0 4.09665,-0.45 4.43657,-1 0.37005,-0.59875 6.99071,-1 16.5,-1 9.50929,0 16.12995,0.40125 16.5,1 0.33992,0.55 2.56833,1 4.95203,1 2.82483,0 4.52405,0.49529 4.87981,1.42238 0.31279,0.81513 1.34888,1.21237 2.42685,0.93047 1.03456,-0.27054 2.46719,0.21439 3.18361,1.07763 0.71642,0.86323 2.14749,1.56952 3.18014,1.56952 1.03266,0 1.87756,0.45 1.87756,1 0,0.55 0.83429,1 1.85398,1 1.01968,0 3.06787,1.125 4.55152,2.5 1.48365,1.375 3.12436,2.5 3.64602,2.5 0.52166,0 0.94848,0.45 0.94848,1 0,0.55 0.5625,1.03187 1.25,1.07083 0.6875,0.0389 2.6,1.62273 4.25,3.5195 1.65,1.89678 4.65962,5.24761 6.68804,7.44629 2.02843,2.19869 3.97183,5.00241 4.31867,6.2305 0.34684,1.22808 1.22734,3.58288 1.95667,5.23288 0.72934,1.65 1.87594,4.35 2.54801,6 0.67208,1.65 1.61945,3.78139 2.10528,4.73643 0.48583,0.95504 0.88333,3.99254 0.88333,6.75 V 936 h 65 65 V 892.5 849 h -18 c -9.9,0 -18,-0.3966 -18,-0.88134 0,-0.48474 -1.31397,-2.17224 -2.91992,-3.75 C 952.7251,841.07259 930,807.49885 930,805.83832 c 0,-0.60624 -0.84423,-2.50537 -1.87606,-4.22029 -1.03183,-1.71491 -3.137,-6.04303 -4.67815,-9.61803 -1.54116,-3.575 -3.39693,-7.21043 -4.12395,-8.07874 -0.72701,-0.86831 -1.33615,-2.44331 -1.35364,-3.5 -0.0175,-1.05669 -0.6925,-2.79477 -1.5,-3.86239 C 915.66069,775.49125 915,773.80375 915,772.80887 915,771.81399 914.60109,771 914.11354,771 c -0.48755,0 -1.18855,-2.01451 -1.55777,-4.47669 -0.36923,-2.46218 -1.04431,-4.70721 -1.50018,-4.98896 -0.45588,-0.28174 -1.14515,-2.20473 -1.53171,-4.2733 -0.38657,-2.06858 -1.05605,-4.21105 -1.48773,-4.76105 -0.43169,-0.55 -1.04798,-2.35 -1.36954,-4 -1.2199,-6.25954 -3.19899,-14.03862 -3.81618,-15 -0.35308,-0.55 -0.96766,-4.94418 -1.36572,-9.76485 -0.39805,-4.82066 -1.11996,-9.00972 -1.60422,-9.30901 -1.14242,-0.70606 -1.15426,-37.13891 -0.0123,-37.84468 0.47751,-0.29511 1.16555,-2.77818 1.52899,-5.51792 0.36344,-2.73974 1.03865,-5.21486 1.50046,-5.50028 0.46181,-0.28541 1.13222,-2.34856 1.48981,-4.58477 0.61827,-3.86643 1.02916,-4.97303 3.79794,-10.22849 0.65196,-1.2375 2.67534,-5.0921 4.49641,-8.56577 C 916.35141,635.18443 924.7586,623 925.9188,623 c 0.40878,0 1.34532,-1.125 2.0812,-2.5 0.73588,-1.375 1.86088,-2.5 2.5,-2.5 0.63912,0 1.76412,-1.125 2.5,-2.5 0.73588,-1.375 1.86469,-2.5 2.50846,-2.5 0.64378,0 1.63416,-1.01761 2.20085,-2.26135 0.56669,-1.24375 2.32642,-2.93125 3.91052,-3.75 1.58409,-0.81876 3.38281,-1.93865 3.99715,-2.48865 4.23455,-3.79107 6.53092,-5.5 7.39063,-5.5 0.54581,0 0.99239,-0.45 0.99239,-1 0,-0.55 0.42682,-1 0.94848,-1 0.52166,0 2.16237,-1.125 3.64602,-2.5 1.48365,-1.375 3.53184,-2.5 4.55152,-2.5 1.01969,0 1.85398,-0.45 1.85398,-1 0,-0.55 0.91412,-1 2.03138,-1 1.11727,0 2.29041,-0.675 2.60699,-1.5 0.31659,-0.825 1.42746,-1.5 2.46862,-1.5 1.04115,0 1.89301,-0.45 1.89301,-1 0,-0.55 1.07686,-1 2.39301,-1 1.31616,0 2.64912,-0.66741 2.96215,-1.48314 0.31302,-0.81573 1.18907,-1.24525 1.94677,-0.95449 0.7577,0.29076 1.95484,-0.16683 2.6603,-1.01686 C 984.66769,580.69548 986.31479,580 987.62244,580 988.9301,580 990,579.55 990,579 c 0,-0.55 1.26,-1 2.8,-1 1.54,0 3.28341,-0.48341 3.87425,-1.07425 0.59084,-0.59084 2.3512,-1.21443 3.91195,-1.38575 1.5607,-0.17133 3.0048,-0.81291 3.209,-1.42575 0.2043,-0.61284 1.8824,-1.11425 3.7291,-1.11425 1.8467,0 3.6358,-0.45 3.9757,-1 0.3399,-0.55 2.3433,-1 4.452,-1 2.4855,0 4.0365,-0.52758 4.4096,-1.5 0.4049,-1.05505 2.0506,-1.5 5.548,-1.5 2.7348,0 5.2505,-0.45 5.5904,-1 0.3399,-0.55 3.5323,-1 7.0942,-1 4.2774,0 7.313,-0.54831 8.941,-1.61501 L 1050,562.76998 v -41.88727 -41.88728 l -215.12961,0.25229 -215.12961,0.25228 -0.41397,5.16404 c -0.23781,2.96643 0.0301,5.43853 0.6296,5.80902 C 621.83715,491.63542 621.05067,493 618.5,493 c -1.375,0 -2.53553,0.5625 -2.57895,1.25 -0.0561,0.88863 -0.21645,0.91357 -0.55457,0.0863 -0.33065,-0.80901 -5.33591,-1.20082 -16.42105,-1.28545 L 583,492.9291 v 11.83545 c 0,7.87202 -0.40185,12.2373 -1.2,13.03545 -0.91316,0.91316 -20.15556,1.2 -80.5,1.2 H 422 v 2.88517 c 0,3.54138 2.89183,13.07025 4.58707,15.11483 0.68404,0.825 1.56378,3.3 1.95498,5.5 0.3912,2.2 1.26871,4.675 1.95002,5.5 0.68131,0.825 2.34971,3.75 3.70756,6.5 1.35785,2.75 2.97162,5.9 3.58615,7 0.61453,1.1 1.8218,3.59561 2.68282,5.54579 0.86101,1.95019 2.90781,5.01547 4.54844,6.81172 1.64063,1.79626 2.98296,3.66311 2.98296,4.14856 0,0.48544 1.59608,2.59517 3.54684,4.68828 1.95076,2.09311 4.29779,5.04315 5.21561,6.55565 0.91782,1.5125 2.21642,2.75 2.88577,2.75 0.66935,0 1.50021,0.8923 1.84635,1.98288 0.34614,1.09059 2.40146,3.82731 4.56739,6.0816 2.16592,2.2543 3.93804,4.512 3.93804,5.01712 0,0.50512 0.465,0.9184 1.03333,0.9184 0.56834,0 2.60834,1.575 4.53334,3.5 1.925,1.925 3.75773,3.5 4.07274,3.5 0.31501,0 1.45767,1.125 2.53925,2.5 1.08158,1.375 2.54313,2.5 3.2479,2.5 0.70477,0 2.49529,1.125 3.97894,2.5 1.48365,1.375 3.12436,2.5 3.64602,2.5 0.52166,0 0.94848,0.37396 0.94848,0.83102 0,0.45706 1.23388,1.46956 2.74196,2.25 1.50807,0.78044 3.69717,2.43148 4.86467,3.66898 1.16749,1.2375 2.91951,2.25 3.89337,2.25 0.97386,0 2.81327,1.125 4.08758,2.5 1.27431,1.375 3.23841,2.5 4.36467,2.5 1.12626,0 2.04775,0.45 2.04775,1 0,0.55 0.91412,1 2.03138,1 1.11727,0 2.30034,0.70086 2.62905,1.55747 0.32871,0.85661 1.18168,1.33336 1.8955,1.05944 0.71381,-0.27391 1.83584,0.15022 2.4934,0.94253 0.65756,0.79231 2.04046,1.44056 3.07311,1.44056 1.03266,0 1.87756,0.45 1.87756,1 0,0.55 1.30186,1 2.89301,1 1.73226,0 3.13993,0.64347 3.50843,1.60375 0.35959,0.93707 1.25121,1.35978 2.14484,1.01686 0.86587,-0.33226 1.77636,0.0566 2.09856,0.89625 0.36816,0.95941 1.94385,1.48314 4.46215,1.48314 2.14115,0 3.89301,0.45 3.89301,1 0,0.55 1.30186,1 2.89301,1 1.64908,0 3.14051,0.64497 3.46862,1.5 0.31658,0.825 1.68817,1.5 3.04797,1.5 1.3598,0 2.75048,0.45 3.0904,1 0.33992,0.55 1.68992,1 3,1 1.31008,0 2.66008,0.45 3,1 0.33992,0.55 1.7306,1 3.0904,1 1.3598,0 2.73139,0.675 3.04797,1.5 0.32811,0.85503 1.81954,1.5 3.46862,1.5 1.59115,0 2.89301,0.45 2.89301,1 0,0.55 1.32344,1 2.94098,1 1.61754,0 3.2191,0.45 3.55902,1 0.33992,0.55 1.44333,1 2.45203,1 1.0087,0 2.09301,0.675 2.4096,1.5 0.31658,0.825 1.68817,1.5 3.04797,1.5 1.3598,0 2.75048,0.45 3.0904,1 0.33992,0.55 1.68992,1 3,1 1.31008,0 2.66008,0.45 3,1 0.33992,0.55 1.7306,1 3.0904,1 1.3598,0 2.73139,0.675 3.04797,1.5 0.32429,0.84507 1.81299,1.5 3.4096,1.5 1.5587,0 3.11211,0.45 3.45203,1 0.33992,0.55 1.69412,1 3.00933,1 1.31521,0 2.8299,0.78375 3.36598,1.74167 0.53608,0.95792 1.29658,1.41978 1.69,1.02635 0.39343,-0.39343 2.11468,0.0121 3.82501,0.90112 5.93941,3.08736 6.59543,3.33086 8.97367,3.33086 1.31511,0 2.96832,0.69548 3.67378,1.54551 0.70546,0.85003 1.9026,1.30762 2.6603,1.01686 0.7577,-0.29076 1.63375,0.13876 1.94677,0.95449 0.31303,0.81573 1.64599,1.48314 2.96215,1.48314 1.31615,0 2.39301,0.45 2.39301,1 0,0.55 0.91412,1 2.03138,1 1.11727,0 2.29041,0.675 2.60699,1.5 0.31659,0.825 1.17214,1.5 1.90123,1.5 0.72909,0 1.61127,0.9 1.9604,2 0.34913,1.1 1.16695,2.01716 1.81739,2.03813 1.98175,0.0639 8.434,10.5309 9.16735,14.87153 0.37911,2.24392 1.10013,4.33378 1.60227,4.64412 1.16423,0.71953 1.20578,22.14723 0.0443,22.86504 -0.47775,0.29527 -1.16121,2.36648 -1.5188,4.60269 -0.65055,4.0683 -0.90282,4.74401 -3.96976,10.63278 -0.90353,1.73486 -1.64279,3.81726 -1.64279,4.62756 0,0.81029 -0.675,2.03346 -1.5,2.71815 -0.825,0.68469 -1.5,2.25969 -1.5,3.5 0,1.24031 -0.675,2.81531 -1.5,3.5 -0.825,0.68469 -1.5,2.25969 -1.5,3.5 0,1.24031 -0.675,2.81531 -1.5,3.5 -0.825,0.68469 -1.51001,1.97729 -1.52224,2.87244 C 655.96553,782.7676 655.07554,784.625 654,786 c -1.07554,1.375 -1.96553,3.08585 -1.97776,3.80188 -0.0122,0.71604 -1.00131,3.19104 -2.19794,5.5 -4.10696,7.92457 -4.8243,9.50897 -4.8243,10.65547 0,0.63181 -1.125,2.80434 -2.5,4.82784 -1.375,2.02349 -2.5,4.31964 -2.5,5.10255 0,0.78291 -1.06025,2.81595 -2.35611,4.51787 -1.29587,1.70191 -2.7049,4.21939 -3.1312,5.59439 -0.42629,1.375 -1.61604,3.69447 -2.64389,5.15437 -1.02784,1.4599 -1.8688,2.98562 -1.8688,3.39047 0,0.40485 -0.96117,2.81039 -2.13592,5.34563 -1.17476,2.53524 -2.6008,5.62203 -3.16898,6.85953 -1.00389,2.18646 -1.45387,2.25 -15.93551,2.25 -11.0134,0 -15.24707,0.34463 -16.22303,1.32058 -1.36752,1.36752 -1.55849,6.99082 -0.28081,8.26851 0.3998,0.39979 0.23684,1.31738 -0.36212,2.03908 -0.76317,0.91956 -0.91884,11.41956 -0.52026,35.09201 0.49696,29.51563 0.73754,35.98435 1.47041,39.53717 0.0859,0.41654 29.06872,0.64154 64.40622,0.5 L 721.5,935.5 Z M 788.00062,776.4844 c 3.6e-4,-0.56184 -2.16197,-0.83457 -5.03735,-0.63537 -7.02457,0.48667 -9.81296,-0.40197 -10.55645,-3.36426 -0.343,-1.36662 -1.05141,-2.48477 -1.57425,-2.48477 -0.52283,0 -0.63916,-0.50393 -0.2585,-1.11984 0.57494,-0.93028 0.90896,-30.30463 0.36251,-31.88016 -0.0954,-0.275 -0.0747,-0.95 0.046,-1.5 0.66411,-3.0266 0.38558,-67.50018 -0.2916,-67.5001 -0.44496,6e-5 -0.4814,-0.52999 -0.081,-1.17788 C 771.60892,665.20573 771.70639,655 770.72291,655 c -0.4363,0 -0.40962,-0.7875 0.0593,-1.75 0.46891,-0.9625 0.73159,-3.325 0.58374,-5.25 -0.43284,-5.63532 -0.42785,-7.18346 0.0427,-13.25 0.28166,-3.63152 0.0592,-5.75 -0.60376,-5.75 -0.69907,0 -0.72031,-0.41757 -0.0636,-1.25 1.2159,-1.54124 1.24454,-4.75 0.0424,-4.75 -0.49612,0 -0.48039,-0.71947 0.0359,-1.64203 0.50541,-0.90312 0.71357,-2.42733 0.46257,-3.38714 -0.251,-0.95981 0.0323,-2.04709 0.62945,-2.41618 1.36111,-0.84121 17.06084,-0.95518 19.08843,-0.13856 1.18133,0.47578 1.45176,2.24846 1.27294,8.34402 -0.1967,6.70469 -0.27382,26.00917 -0.21869,54.73989 0.008,4.4 -0.0503,26.9 -0.13048,50 -0.13584,39.1211 -0.27532,42.23884 -2.0348,45.4844 -1.03893,1.91642 -1.88869,3.04142 -1.88835,2.5 z M 764.01531,614.30058 c -0.0111,-0.86729 -3.18148,-1.17342 -11.44923,-1.1055 -10.68136,0.0877 -11.61926,-0.0637 -14.25,-2.30058 -2.68022,-2.27898 -2.80965,-2.78046 -2.68282,-10.3945 0.0833,-5.00117 -0.29155,-8.2754 -1,-8.73469 -0.73486,-0.4764 -0.75954,-0.74007 -0.0702,-0.75 0.6583,-0.009 1.11592,-3.36329 1.20188,-8.80825 0.13299,-8.42417 2.26342,-16.2443 3.54917,-13.02788 0.39525,0.98876 0.54784,0.94371 0.60692,-0.17918 0.0651,-1.23661 1.92265,-1.4908 10.57895,-1.44761 6.70581,0.0335 10.50555,-0.3279 10.51533,-1 0.0106,-0.72586 0.24327,-0.72953 0.75,-0.0118 1.02868,1.45695 30.49339,1.50714 31.46938,0.0536 0.51742,-0.77061 0.73921,-0.74716 0.75,0.0793 0.0202,1.54838 12.00895,1.46956 12.03062,-0.0791 0.0103,-0.73353 0.25755,-0.75507 0.75,-0.0653 0.99556,1.39442 11.54913,1.45791 12.46938,0.075 0.51038,-0.76697 0.73936,-0.72241 0.75,0.14595 0.008,0.6875 0.92943,1.25 2.04669,1.25 1.11727,0 2.29041,0.675 2.60699,1.5 0.31659,0.825 1.31496,1.50689 2.21862,1.51531 1.42616,0.0133 1.44503,0.14326 0.14301,0.98469 -1.2718,0.8219 -1.22479,0.9717 0.30902,0.98469 1.11315,0.009 1.53391,0.46044 1.09384,1.17249 -0.39335,0.63645 -0.76833,8.72087 -0.83329,17.96537 -0.11372,16.18299 -0.20378,16.88801 -2.42129,18.95393 -1.85964,1.73252 -3.54002,2.14574 -8.72573,2.14574 -4.12823,0 -6.42802,0.40685 -6.43786,1.13889 -0.011,0.81613 -0.22353,0.82736 -0.75,0.0396 -0.92387,-1.38231 -11.47804,-1.32546 -12.46938,0.0672 -0.49941,0.70157 -0.73959,0.69142 -0.75,-0.0317 -0.0224,-1.55391 -30.25816,-1.64987 -31.24477,-0.0992 -0.55517,0.87259 -0.74374,0.86348 -0.75523,-0.0365 z m 12.29605,-48.28263 c -2.85376,-0.30905 -5.5135,-0.88675 -5.91054,-1.2838 -1.10046,-1.10045 2.59104,-4.6745 4.19314,-4.05972 0.77332,0.29675 1.40604,-0.0137 1.40604,-0.68989 0,-0.84282 0.39308,-0.91932 1.25,-0.24329 1.54124,1.2159 4.75,1.24454 4.75,0.0424 0,-0.48566 0.76382,-0.45557 1.69737,0.0669 0.9796,0.54821 2.63834,0.59214 3.92254,0.10389 2.4612,-0.93575 3.96478,0.23977 4.53507,3.54559 0.29774,1.72592 -0.25545,2.02652 -4.03669,2.19355 -2.40994,0.10646 -4.88494,0.34942 -5.5,0.53993 -0.61506,0.1905 -3.45318,0.0935 -6.30693,-0.21553 z M 492.45888,1195.9335 c -0.36253,-0.5866 -0.44468,-1.281 -0.18255,-1.5432 0.26212,-0.2621 0.74306,0.2179 1.06875,1.0666 0.67618,1.7621 0.0999,2.072 -0.8862,0.4766 z M 1077,1165.059 c 0,-0.5175 0.4448,-1.2159 0.9885,-1.5519 0.5669,-0.3504 0.7346,0.051 0.3931,0.941 -0.6648,1.7324 -1.3816,2.0493 -1.3816,0.6109 z m -607.43571,-2.7659 c -0.54268,-1.4252 -0.42782,-1.54 0.5598,-0.5598 0.68342,0.6784 0.99067,1.4853 0.68278,1.7932 -0.30789,0.3078 -0.86705,-0.2472 -1.24258,-1.2334 z m -5.10541,-7.3596 c -0.36253,-0.5866 -0.44468,-1.281 -0.18255,-1.5432 0.26212,-0.2621 0.74306,0.2179 1.06875,1.0666 0.67618,1.7621 0.0999,2.072 -0.8862,0.4766 z M 1091,1143.059 c 0,-0.5175 0.4448,-1.2159 0.9885,-1.5519 0.5669,-0.3504 0.7346,0.051 0.3931,0.941 -0.6648,1.7324 -1.3816,2.0493 -1.3816,0.6109 z m -640.43571,-11.7659 c -0.54268,-1.4252 -0.42782,-1.54 0.5598,-0.5598 0.68342,0.6784 0.99067,1.4853 0.68278,1.7932 -0.30789,0.3078 -0.86705,-0.2472 -1.24258,-1.2334 z m 655.00001,-12.5862 c 0.3755,-0.9862 0.9347,-1.5412 1.2426,-1.2334 0.3079,0.3079 6e-4,1.1148 -0.6828,1.7932 -0.9876,0.9802 -1.1025,0.8654 -0.5598,-0.5598 z m -669.00001,-11.4138 c -0.54268,-1.4252 -0.42782,-1.54 0.5598,-0.5598 0.68342,0.6784 0.99067,1.4853 0.68278,1.7932 -0.30789,0.3078 -0.86705,-0.2472 -1.24258,-1.2334 z m 683.00001,-14.5862 c 0.3755,-0.9862 0.9347,-1.5412 1.2426,-1.2334 0.3079,0.3079 6e-4,1.1148 -0.6828,1.7932 -0.9876,0.9802 -1.1025,0.8654 -0.5598,-0.5598 z m 4.4663,-8.2069 c 0,-0.55 0.4362,-1.675 0.9694,-2.5 0.5332,-0.825 0.9694,-1.05 0.9694,-0.5 0,0.55 -0.4362,1.675 -0.9694,2.5 -0.5332,0.825 -0.9694,1.05 -0.9694,0.5 z m -701.40706,-4.0387 c -0.96498,-2.5147 -0.68031,-3.1635 0.49853,-1.1363 0.58369,1.0038 0.8506,2.0357 0.59313,2.2931 -0.25747,0.2575 -0.74872,-0.2631 -1.09166,-1.1568 z m -5,-10 c -0.96498,-2.5147 -0.68031,-3.1635 0.49853,-1.1363 0.58369,1.0038 0.8506,2.0357 0.59313,2.2931 -0.25747,0.2575 -0.74872,-0.2631 -1.09166,-1.1568 z M 1133.0306,1064.5 c 0,-0.55 0.4362,-1.675 0.9694,-2.5 0.5332,-0.825 0.9694,-1.05 0.9694,-0.5 0,0.55 -0.4362,1.675 -0.9694,2.5 -0.5332,0.825 -0.9694,1.05 -0.9694,0.5 z m 5,-11 c 0,-0.55 0.4362,-1.675 0.9694,-2.5 0.5332,-0.825 0.9694,-1.05 0.9694,-0.5 0,0.55 -0.4362,1.675 -0.9694,2.5 -0.5332,0.825 -0.9694,1.05 -0.9694,0.5 z m -729.40706,-3.0387 c -0.96498,-2.5147 -0.68031,-3.1635 0.49853,-1.1363 0.58369,1.0038 0.8506,2.0357 0.59313,2.2931 -0.25747,0.2575 -0.74872,-0.2631 -1.09166,-1.1568 z m -5,-11 c -0.96498,-2.5147 -0.68031,-3.1635 0.49853,-1.1363 0.58369,1.0038 0.8506,2.0357 0.59313,2.2931 -0.25747,0.2575 -0.74872,-0.2631 -1.09166,-1.1568 z M 1147.0306,1031.5 c 0,-0.55 0.4362,-1.675 0.9694,-2.5 0.5332,-0.825 0.9694,-1.05 0.9694,-0.5 0,0.55 -0.4362,1.675 -0.9694,2.5 -0.5332,0.825 -0.9694,1.05 -0.9694,0.5 z m 5.055,-12.5 c -0.03,-0.825 0.3812,-2.175 0.9144,-3 1.1813,-1.828 1.1813,-0.2491 0,2.5 -0.5667,1.3187 -0.8782,1.4891 -0.9144,0.5 z m -757.46206,-1.5387 c -0.96498,-2.5147 -0.68031,-3.1635 0.49853,-1.1363 0.58369,1.0038 0.8506,2.0357 0.59313,2.2931 -0.25747,0.2575 -0.74872,-0.2631 -1.09166,-1.1568 z m -5,-13 c -0.96498,-2.5147 -0.68031,-3.1635 0.49853,-1.1363 0.58369,1.0038 0.8506,2.0357 0.59313,2.2931 -0.25747,0.2575 -0.74872,-0.2631 -1.09166,-1.1568 z M 1161.0306,993.5 c 0,-0.55 0.4362,-1.675 0.9694,-2.5 0.5332,-0.825 0.9694,-1.05 0.9694,-0.5 0,0.55 -0.4362,1.675 -0.9694,2.5 -0.5332,0.825 -0.9694,1.05 -0.9694,0.5 z M 380.62354,979.46134 c -0.96498,-2.51469 -0.68031,-3.16355 0.49853,-1.13634 0.58369,1.00375 0.8506,2.03566 0.59313,2.29313 -0.25747,0.25747 -0.74872,-0.26309 -1.09166,-1.15679 z M 1166.0856,977.5 c 0.1041,-1.89422 1.7708,-5.08385 1.8288,-3.5 0.03,0.825 -0.3812,2.175 -0.9144,3 -0.5332,0.825 -0.9446,1.05 -0.9144,0.5 z M 376.07895,965.41667 c 0.048,-1.16495 0.28494,-1.4019 0.60416,-0.60417 0.28887,0.72187 0.25335,1.58438 -0.0789,1.91667 -0.33229,0.33229 -0.56864,-0.25834 -0.52522,-1.3125 z m -1,-4 c 0.048,-1.16495 0.28494,-1.4019 0.60416,-0.60417 0.28887,0.72187 0.25335,1.58438 -0.0789,1.91667 -0.33229,0.33229 -0.56864,-0.25834 -0.52522,-1.3125 z m 795.99995,-1 c 0.048,-1.16495 0.285,-1.4019 0.6042,-0.60417 0.2889,0.72187 0.2534,1.58438 -0.079,1.91667 -0.3323,0.33229 -0.5687,-0.25834 -0.5253,-1.3125 z m -799.99995,-12 c 0.048,-1.16495 0.28494,-1.4019 0.60416,-0.60417 0.28887,0.72187 0.25335,1.58438 -0.0789,1.91667 -0.33229,0.33229 -0.56864,-0.25834 -0.52522,-1.3125 z m 803.99995,-3 c 0.048,-1.16495 0.285,-1.4019 0.6042,-0.60417 0.2889,0.72187 0.2534,1.58438 -0.079,1.91667 -0.3323,0.33229 -0.5687,-0.25834 -0.5253,-1.3125 z m 1,-4 c 0.048,-1.16495 0.285,-1.4019 0.6042,-0.60417 0.2889,0.72187 0.2534,1.58438 -0.079,1.91667 -0.3323,0.33229 -0.5687,-0.25834 -0.5253,-1.3125 z M 366.5,932 c -0.37968,-1.72866 -0.48187,-3.35146 -0.22711,-3.60623 0.25477,-0.25477 0.75072,0.97429 1.10211,2.73123 0.83365,4.16825 0.0258,4.97614 -0.875,0.875 z m 813.6994,-7.5 c 0,-1.1 0.3602,-3.125 0.8006,-4.5 0.634,-1.97958 0.8006,-2.08367 0.8006,-0.5 0,1.1 -0.3602,3.125 -0.8006,4.5 -0.634,1.97958 -0.8006,2.08367 -0.8006,0.5 z M 361.5,911 c -0.38421,-2.27412 -0.48881,-4.34452 -0.23245,-4.60089 0.25637,-0.25636 0.76597,1.40904 1.13245,3.70089 0.36648,2.29185 0.47108,4.36225 0.23245,4.60089 C 362.39381,914.93952 361.88421,913.27412 361.5,911 Z m 823.6949,-11.5 c 0.02,-1.65 0.2445,-2.20394 0.4981,-1.23097 0.2535,0.97297 0.2369,2.32297 -0.037,3 -0.2739,0.67703 -0.4813,-0.11903 -0.461,-1.76903 z m -827.99995,-11 c 0.0204,-1.65 0.2445,-2.20394 0.49804,-1.23097 0.25354,0.97297 0.23687,2.32297 -0.0371,3 -0.27393,0.67703 -0.48137,-0.11903 -0.46099,-1.76903 z M 1189.1891,875 c -0.023,-1.375 0.3195,-4.525 0.7599,-7 0.6004,-3.37449 0.8176,-3.74966 0.8682,-1.5 0.037,1.65 -0.3048,4.8 -0.7598,7 -0.5179,2.5038 -0.8427,3.06488 -0.8683,1.5 z M 352.5,862 c -0.39084,-3.36749 -0.49807,-6.33527 -0.23829,-6.59505 0.25979,-0.25978 0.78487,2.29014 1.16686,5.66648 0.38199,3.37634 0.48922,6.34411 0.23829,6.59505 C 353.41592,867.91741 352.89084,865.36749 352.5,862 Z m 842.3073,-49.5 c 0.2583,-11 0.6324,-20.1875 0.8312,-20.41667 0.6238,-0.71893 0.1475,26.07542 -0.5939,33.41667 -0.3889,3.85 -0.4956,-2 -0.2373,-13 z m -847.15449,2.85829 c -0.35904,-5.86818 -0.57559,-21.73691 -0.48121,-35.26385 l 0.17159,-24.59444 0.69389,35 c 0.38164,19.25 0.59819,35.11873 0.48122,35.26385 -0.11697,0.14512 -0.50644,-4.53738 -0.86549,-10.40556 z M 1199.4631,433.5 c 2e-4,-26.95 0.129,-37.83127 0.2862,-24.1806 0.1573,13.65067 0.1571,35.70067 -3e-4,49 -0.1574,13.29933 -0.2861,2.1306 -0.2859,-24.8194 z m -856.00071,-12 c 1.9e-4,-26.4 0.12931,-37.05639 0.28692,-23.68087 0.15761,13.37553 0.15745,34.97553 -3.6e-4,48 -0.1578,13.02448 -0.28676,2.08087 -0.28656,-24.31913 z"
         id="path18" />
      <path
         style="fill:#020202"
         d="m 763,1411.0451 c -3.575,-1.0456 -9.03396,-2.6085 -12.13101,-3.4732 -14.19594,-3.9634 -39.62003,-14.4662 -49.09912,-20.2829 -2.05157,-1.259 -3.96888,-2.289 -4.26068,-2.289 -1.00646,0 -28.84767,-17.3385 -30.50919,-19 -0.275,-0.275 -4.55,-3.1974 -9.5,-6.4942 -4.95,-3.2968 -9.62564,-6.5903 -10.39031,-7.3188 -0.76467,-0.7286 -2.56467,-2.0671 -4,-2.9744 -3.67085,-2.3204 -26.65069,-20.4915 -32.51707,-25.7126 -1.23596,-1.1 -5.3384,-4.7 -9.11652,-8 -22.45854,-19.6164 -47.74967,-45.3178 -65.43852,-66.5 -2.98541,-3.575 -6.15232,-7.175 -7.03758,-8 -2.74294,-2.5562 -12,-13.7318 -12,-14.487 0,-0.3935 -4.05,-5.5744 -9,-11.513 -4.95,-5.9386 -9,-11.238 -9,-11.7763 0,-0.5383 -0.73465,-1.5885 -1.63256,-2.3337 -0.89791,-0.7452 -2.58541,-2.7848 -3.75,-4.5324 -1.16459,-1.7476 -5.82994,-8.4206 -10.36744,-14.8288 -4.5375,-6.4082 -8.25,-12.004 -8.25,-12.4351 0,-0.431 -0.9,-1.5982 -2,-2.5937 -1.1,-0.9955 -2,-2.2008 -2,-2.6784 0,-0.4776 -2.25,-4.1374 -5,-8.1329 -2.75,-3.9955 -5,-7.7549 -5,-8.3542 0,-0.5993 -0.74471,-1.7072 -1.6549,-2.4621 -0.9102,-0.7548 -2.29924,-2.7224 -3.08676,-4.3724 -2.237,-4.687 -4.56429,-8.7219 -7.0104,-12.1544 C 448.01157,1126.6107 447,1124.8802 447,1124.5 c 0,-0.3802 -0.83917,-1.8857 -1.86482,-3.3456 -1.02565,-1.4599 -3.79718,-6.2544 -6.15894,-10.6544 -2.36177,-4.4 -5.40798,-10.025 -6.76936,-12.5 -3.10696,-5.6485 -5.94529,-11.288 -8.29109,-16.4738 -1.00168,-2.2144 -2.44348,-5.1512 -3.20399,-6.5262 -1.51166,-2.7331 -5.96163,-12.1828 -8.7118,-18.5 -0.95777,-2.2 -2.93247,-6.5832 -4.38823,-9.7405 C 398.56514,1027.1389 396,1021.1161 396,1019.4954 c 0,-0.7981 -1.07003,-3.8236 -2.37784,-6.7232 -3.02249,-6.7015 -3.57795,-8.2536 -11.37075,-31.7722 -3.55369,-10.725 -7.24318,-21.75 -8.19886,-24.5 -1.8795,-5.40833 -4.23598,-14.2018 -6.56553,-24.5 -0.8087,-3.575 -1.92494,-7.625 -2.48054,-9 -0.55559,-1.375 -1.62377,-5.875 -2.37372,-10 -0.74995,-4.125 -2.07957,-10.425 -2.9547,-14 -0.87513,-3.575 -2.05799,-9.425 -2.62857,-13 -0.57059,-3.575 -1.46369,-8.75 -1.98466,-11.5 -0.52098,-2.75 -1.69226,-10.4 -2.60285,-17 -0.91058,-6.6 -2.06271,-14.925 -2.56028,-18.5 -2.07544,-14.91206 -4.58673,-172.19422 -5.71657,-358.02872 -0.43647,-71.7908 -1.05341,-130.9658 -1.37098,-131.5 -0.31757,-0.5342 -0.88385,-33.46634 -1.25839,-73.18252 -0.62839,-66.63316 -0.5474,-72.69702 1.0484,-78.5 2.94141,-10.6961 8.03274,-16.23858 21.89584,-23.83607 3.3,-1.80852 8.025,-4.39037 10.5,-5.73745 2.475,-1.34708 10.8,-5.57693 18.5,-9.39968 7.7,-3.82274 15.125,-7.53293 16.5,-8.24487 1.375,-0.71193 9.7,-4.33456 18.5,-8.05029 8.8,-3.71572 17.35,-7.33975 19,-8.05341 7.74528,-3.34996 46.92337,-16.9473 60.5,-20.99742 6.875,-2.05092 14.975,-4.52424 18,-5.49627 3.025,-0.97203 7.525,-2.09093 10,-2.48644 2.475,-0.39552 5.28509,-1.1314 6.24465,-1.63531 2.87391,-1.50921 37.75705,-9.228867 60.75535,-13.445184 21.39822,-3.922971 44.87996,-7.248105 66.5,-9.416736 11,-1.103372 23.375,-2.449145 27.5,-2.990606 17.91949,-2.352171 55.392,-3.264594 106,-2.581007 28.325,0.3826 55.1,1.074065 59.5,1.536589 4.4,0.462524 16.1,1.568101 26,2.456838 18.82385,1.689844 20.82989,1.931317 50,6.018642 38.40231,5.380944 72.4055,12.098685 104.5,20.645254 6.325,1.68431 14.65,3.87784 18.5,4.87451 6.9289,1.79372 9.0112,2.41716 27.5,8.23338 10.0572,3.1638 19.4662,6.45386 29.7698,10.40965 3.4484,1.32392 6.6976,2.40712 7.2204,2.40712 0.5228,0 3.41,1.125 6.4161,2.5 3.006,1.375 5.759,2.5 6.1176,2.5 0.3587,0 4.325,1.60349 8.8141,3.5633 4.4891,1.95982 9.962,4.3203 12.162,5.24551 7.4451,3.13104 28.4497,14.00648 31.1419,16.12414 4.5189,3.55457 7.9883,9.26382 9.7638,16.06705 1.8974,7.27066 1.9139,-5.32813 -0.2483,189.5 -0.6409,57.75 -1.6595,151.125 -2.2635,207.5 -1.8603,173.6213 -2.814,238.88613 -3.7192,254.5 -0.8639,14.90246 -3.7863,39.22698 -6.6677,55.5 -0.8278,4.675 -1.7739,10.75 -2.1024,13.5 -0.598,5.00582 -3.2215,17.37606 -8.0589,38 -4.9056,20.91457 -9.3801,36.3885 -17.3497,60 -7.4019,21.9294 -7.7943,23.011 -10.6182,29.2722 -1.3078,2.8996 -2.3795,6.0496 -2.3815,7 0,0.9503 -0.9021,3.2012 -2,5.002 -1.098,1.8008 -1.9963,3.9844 -1.9963,4.8526 0,0.8681 -1.0706,3.6698 -2.3791,6.2258 -2.3673,4.6246 -5.6393,11.5676 -9.4947,20.1474 -3.0182,6.7167 -17.4934,35.8018 -20.5243,41.2394 -1.4529,2.6067 -3.6937,6.6567 -4.9794,9 -5.2759,9.6158 -6.8926,12.3364 -8.224,13.8393 -0.7692,0.8683 -1.3985,1.9509 -1.3985,2.4056 0,0.4548 -1.0277,2.2194 -2.2839,3.9213 -1.2561,1.7019 -2.8489,4.2194 -3.5396,5.5944 -1.5897,3.165 -2.7908,5.0949 -7.7075,12.3849 -2.1829,3.2367 -4.419,6.572 -4.969,7.412 -3.5893,5.4812 -15.1412,22.2045 -19.1775,27.7625 -5.242,7.2182 -40.3531,50.3479 -44.3581,54.4884 -1.3554,1.4012 -6.5144,6.9773 -11.4644,12.3912 -8.50215,9.299 -32.06575,32.9126 -37.5,37.5795 -1.375,1.1809 -4.5525,4.0223 -7.0611,6.3143 -2.50861,2.2919 -6.96737,6.1922 -9.90836,8.6672 -2.94099,2.475 -6.9635,5.8899 -8.9389,7.5887 -5.19615,4.4686 -26.98152,21.5894 -31.09164,24.4344 -1.925,1.3325 -3.95,2.7895 -4.5,3.2378 -2.77924,2.2653 -23.48454,16.7391 -23.94593,16.7391 -0.29405,0 -3.35151,1.921 -6.79435,4.269 -7.73371,5.2741 -13.41094,8.6624 -27.10935,16.1792 -9.8537,5.407 -13.38143,7.3614 -20.15037,11.1635 -9.25269,5.1972 -23.4336,11.6745 -31.5,14.3881 -9.19583,3.0936 -22.46624,3.541 -31,1.0453 z m 32.5,-16.9927 c 11.11546,-4.4372 37.53388,-17.8125 39.5,-19.9984 0.275,-0.3057 2.525,-1.5721 5,-2.8141 2.475,-1.2421 6.75,-3.5895 9.5,-5.2164 2.75,-1.627 6.35,-3.7141 8,-4.638 1.65,-0.9239 6.24218,-3.8636 10.20484,-6.5327 3.96266,-2.669 7.47009,-4.8528 7.79428,-4.8528 0.3242,0 3.47819,-2.1375 7.00889,-4.75 3.53069,-2.6125 9.6072,-7 13.50335,-9.75 6.73382,-4.7529 26.21051,-19.6829 28.62118,-21.9397 0.6229,-0.5832 3.0741,-2.6353 5.44711,-4.5603 13.82146,-11.2121 23.69325,-20.0035 38.73976,-34.5 12.26322,-11.815 22.68165,-22.5238 30.64576,-31.5 3.17193,-3.575 6.50443,-7.175 7.40563,-8 3.8081,-3.4862 39.1447,-47.0987 44.1292,-54.4644 0.825,-1.2191 2.85,-4.1527 4.5,-6.5191 1.65,-2.3664 3.4999,-5.155 4.1109,-6.197 0.611,-1.0419 2.0735,-2.9191 3.25,-4.1714 1.1765,-1.2524 2.1391,-2.5537 2.1391,-2.8918 0,-0.3382 1.9095,-3.4592 4.2434,-6.9356 4.8502,-7.2246 4.6439,-6.9004 11.0912,-17.4271 12.0168,-19.6203 13.2032,-21.615 17.3337,-29.1436 3.8517,-7.0204 6.8915,-12.6314 7.9911,-14.75 0.5709,-1.1 1.7818,-3.35 2.691,-5 0.9091,-1.65 3.0444,-5.925 4.745,-9.5 1.7006,-3.575 4.1684,-8.75 5.4841,-11.5 5.3866,-11.2595 11.4205,-24.5319 11.4205,-25.1211 0,-0.3459 1.1673,-3.3851 2.5939,-6.7539 8.0144,-18.9243 11.4061,-27.6561 11.4061,-29.3647 0,-0.6606 1.125,-3.6605 2.5,-6.66659 1.375,-3.00605 2.5,-6.19408 2.5,-7.0845 0,-0.89041 0.8671,-3.52236 1.9269,-5.84876 1.0598,-2.32641 2.2086,-5.56422 2.5529,-7.19514 0.626,-2.96483 3.1168,-11.66847 6.5724,-22.96531 9.3815,-30.66935 19.9668,-91.54413 22.0837,-127 1.1121,-18.62555 2.4506,-117.89103 3.7892,-281 0.5642,-68.75 1.5518,-160.55 2.1947,-204 0.6428,-43.45 1.3526,-97.15418 1.5772,-119.34262 0.5189,-51.2594 2.1247,-46.68332 -20.197,-57.55666 -7.15,-3.48291 -14.575,-7.01871 -16.5,-7.85734 C 1138.7542,152.53719 1135.0853,151 1134.5183,151 c -0.3555,0 -3.0806,-1.11342 -6.0558,-2.47427 -2.9751,-1.36084 -6.6587,-2.77289 -8.1859,-3.13788 -1.5271,-0.36499 -3.2266,-0.99203 -3.7766,-1.39342 -0.55,-0.40139 -3.475,-1.48835 -6.5,-2.41547 -3.025,-0.92711 -6.272,-2.10578 -7.2155,-2.61925 -0.9435,-0.51347 -4.7685,-1.82647 -8.5,-2.91778 -3.7315,-1.09132 -11.2845,-3.3796 -16.7845,-5.08507 -33.3809,-10.35095 -69.9112,-18.99811 -105.5,-24.97314 -6.325,-1.06191 -13.525,-2.39057 -16,-2.95258 -2.475,-0.56201 -11.7,-1.9584 -20.5,-3.103086 -8.8,-1.144689 -18.925,-2.489087 -22.5,-2.987551 -3.575,-0.498464 -14.825,-1.623812 -25,-2.500773 -10.175,-0.876961 -23,-2.078898 -28.5,-2.67097 -13.91148,-1.497565 -132.36552,-1.523295 -148,-0.03215 -6.6,0.629479 -19.425,1.832209 -28.5,2.672734 -9.075,0.840525 -19.875,1.959149 -24,2.485832 -19.64941,2.508851 -37.92574,5.171694 -42,6.119364 -2.475,0.57568 -9.45,1.89779 -15.5,2.93803 -23.52093,4.0442 -61.09742,12.73699 -78,18.0442 -3.3,1.03616 -10.05,3.0859 -15,4.55498 -10.79903,3.20498 -25.88779,8.2475 -37.5,12.53216 -4.675,1.72498 -10.3,3.79627 -12.5,4.60288 -2.2,0.80661 -5.35,2.03977 -7,2.74036 -1.65,0.70058 -6.6,2.77066 -11,4.60017 -18.03093,7.49724 -53.80674,24.22862 -55.50513,25.95826 -0.27783,0.28293 -4.32783,2.49352 -9,4.91242 -13.86106,7.1762 -18.35428,10.52918 -20.87591,15.57826 l -2.26606,4.53734 0.60851,65.7432 c 0.33468,36.15876 1.03773,76.7682 1.56233,90.2432 0.52461,13.475 1.41265,101.45 1.97344,195.5 0.56078,94.05 1.2363,172.35 1.50116,174 0.26485,1.65 0.95566,25.5 1.53512,53 1.01375,48.11063 1.36006,54.14376 3.93194,68.5 0.64045,3.575 1.53577,10.1 1.98959,14.5 0.764,7.40727 1.77196,12.80137 7.19428,38.5 4.04751,19.18284 16.71007,64.86273 19.45968,70.20034 0.76508,1.48519 1.39105,3.45392 1.39105,4.37495 0,0.92104 1.05801,4.20589 2.35114,7.29966 2.22912,5.33314 3.16061,7.81479 5.77102,15.37505 0.61719,1.7875 2.19219,5.6225 3.5,8.5222 1.30781,2.8996 2.37659,5.8246 2.37506,6.5 -0.002,0.6753 0.88956,3.0278 1.9802,5.2278 1.09063,2.2 3.4012,7.375 5.1346,11.5 4.70751,11.2025 18.19061,40.0635 22.19079,47.5 4.27716,7.9514 5.55312,10.3429 6.55641,12.2881 0.62743,1.2166 1.68153,3.2244 2.34244,4.4619 0.66092,1.2375 1.91737,3.6242 2.79211,5.3037 0.87474,1.6795 2.58399,4.449 3.79833,6.1543 1.21435,1.7054 2.2079,3.4571 2.2079,3.8926 0,0.4356 1.05872,2.3911 2.35272,4.3456 3.05226,4.6105 14.5556,23.7789 16.32237,27.1986 0.75153,1.4546 2.03207,3.1972 2.84566,3.8724 0.81359,0.6752 1.47925,1.6277 1.47925,2.1166 0,0.4888 1.9125,3.6164 4.25,6.9501 2.3375,3.3337 4.73995,6.9255 5.33878,7.9818 0.59883,1.0563 1.83633,2.7466 2.75,3.7562 0.91367,1.0095 1.66122,2.2842 1.66122,2.8325 0,0.5483 1.125,2.0539 2.5,3.3456 1.375,1.2917 2.5,2.8667 2.5,3.5 0,0.6333 1.125,2.2083 2.5,3.5 1.375,1.2917 2.5,2.6964 2.5,3.1214 0,0.9249 7.92045,11.5012 16.38457,21.8786 3.36448,4.125 8.56755,10.7625 11.56238,14.75 2.99482,3.9875 5.72834,7.25 6.07449,7.25 0.34614,0 3.07042,3.0316 6.05395,6.7369 11.97196,14.8682 35.32359,39.1992 55.43793,57.7631 11.95153,11.0303 10.6572,9.8751 18.48668,16.5 3.575,3.025 6.99124,5.95 7.59164,6.5 0.6004,0.55 2.58416,2.125 4.40836,3.5 1.8242,1.375 3.80796,2.9716 4.40836,3.5481 1.35738,1.3032 10.25739,8.2639 14.00332,10.9519 1.53292,1.1 5.55489,4.042 8.93772,6.5378 3.38283,2.4957 11.5506,8.0838 18.1506,12.4179 6.6,4.3341 13.125,8.6349 14.5,9.5573 1.375,0.9224 4.053,2.4802 5.9511,3.4617 1.89811,0.9816 4.06775,2.4013 4.82143,3.155 0.75368,0.7537 1.90872,1.3703 2.56676,1.3703 0.65804,0 2.7634,1.0594 4.67858,2.3542 1.91517,1.2948 5.16963,2.9602 7.23213,3.7008 2.0625,0.7407 3.75,1.7064 3.75,2.1459 0,0.4395 0.4186,0.7991 0.93023,0.7991 0.51163,0 3.77413,1.3 7.25,2.8889 7.02754,3.2125 19.6846,7.6327 33.31977,11.6363 4.95,1.4534 9.45,2.8234 10,3.0444 0.55,0.221 5.05,0.2386 10,0.039 7.2269,-0.2913 10.57609,-0.9919 17,-3.5563 z M 522.8125,94.316886 c 0.72187,-0.288871 1.58438,-0.253344 1.91667,0.07895 0.33229,0.332292 -0.25834,0.568641 -1.3125,0.52522 -1.16495,-0.04798 -1.4019,-0.284941 -0.60417,-0.604167 z M 546.75,90.337719 c 0.6875,-0.277412 1.8125,-0.277412 2.5,0 0.6875,0.277413 0.125,0.504386 -1.25,0.504386 -1.375,0 -1.9375,-0.226973 -1.25,-0.504386 z"
         id="path16" />
    </g>
  </g>
</svg>
