<?xml version="1.0" encoding="UTF-8" standalone="no"?>
<svg
   xmlns:dc="http://purl.org/dc/elements/1.1/"
   xmlns:cc="http://creativecommons.org/ns#"
   xmlns:rdf="http://www.w3.org/1999/02/22-rdf-syntax-ns#"
   xmlns:svg="http://www.w3.org/2000/svg"
   xmlns="http://www.w3.org/2000/svg"
   xmlns:sodipodi="http://sodipodi.sourceforge.net/DTD/sodipodi-0.dtd"
   xmlns:inkscape="http://www.inkscape.org/namespaces/inkscape"
   version="1.1"
   id="svg2"
   width="1025"
   height="1318.9739"
   viewBox="0 0 1025 1318.9739"
   sodipodi:docname="Hjaalmarch.svg"
   inkscape:version="1.0.1 (3bc2e813f5, 2020-09-07)">
  <metadata
     id="metadata8">
    <rdf:RDF>
      <cc:Work
         rdf:about="">
        <dc:format>image/svg+xml</dc:format>
        <dc:type
           rdf:resource="http://purl.org/dc/dcmitype/StillImage" />
        <dc:title />
      </cc:Work>
    </rdf:RDF>
  </metadata>
  <defs
     id="defs6" />
  <sodipodi:namedview
     pagecolor="#ffffff"
     bordercolor="#666666"
     borderopacity="1"
     objecttolerance="10"
     gridtolerance="10"
     guidetolerance="10"
     inkscape:pageopacity="0"
     inkscape:pageshadow="2"
     inkscape:window-width="1920"
     inkscape:window-height="1057"
     id="namedview4"
     showgrid="false"
     inkscape:pagecheckerboard="true"
     inkscape:zoom="0.98"
     inkscape:cx="716.95063"
     inkscape:cy="621.39879"
     inkscape:window-x="-8"
     inkscape:window-y="-8"
     inkscape:window-maximized="1"
     inkscape:current-layer="g10"
     inkscape:document-rotation="0" />
  <g
     inkscape:groupmode="layer"
     inkscape:label="Image"
     id="g10"
     transform="translate(-237,-82.026144)">
    <path
       style="fill:#ffffff"
       d="m 744.63835,1399.5127 c -0.31658,-0.825 -1.46317,-1.5 -2.54797,-1.5 -1.0848,0 -2.25502,-0.4573 -2.60048,-1.0163 -0.34546,-0.559 -1.0502,-0.7555 -1.56608,-0.4366 -0.51588,0.3188 -1.22184,-0.1601 -1.56881,-1.0643 -0.38525,-1.0039 -1.35537,-1.4545 -2.49194,-1.1572 -1.0236,0.2676 -2.1131,0.079 -2.42111,-0.4195 -0.30801,-0.4983 -1.43346,-0.9061 -2.501,-0.9061 -1.06754,0 -1.94449,-0.3375 -1.94878,-0.75 -0.0106,-1.0147 -4.95688,-3.25 -7.19156,-3.25 -0.99035,0 -1.80064,-0.45 -1.80064,-1 0,-0.55 -0.675,-1 -1.5,-1 -0.825,0 -1.5,-0.45 -1.5,-1 0,-0.55 -1.125,-1 -2.5,-1 -1.375,0 -2.5,-0.366 -2.5,-0.8134 0,-0.4473 -1.575,-1.4313 -3.5,-2.1866 -1.925,-0.7553 -3.5,-1.7393 -3.5,-2.1866 0,-0.4474 -1.125,-0.8134 -2.5,-0.8134 -1.375,0 -2.5,-0.45 -2.5,-1 0,-0.55 -0.675,-1 -1.5,-1 -0.825,0 -1.5,-0.366 -1.5,-0.8134 0,-0.4473 -1.575,-1.4313 -3.5,-2.1866 -1.925,-0.7553 -3.5,-1.7393 -3.5,-2.1866 0,-0.4474 -1.125,-0.8134 -2.5,-0.8134 -1.375,0 -2.5,-0.4142 -2.5,-0.9205 0,-0.5063 -1.35,-1.2171 -3,-1.5795 -1.65,-0.3624 -3,-0.9892 -3,-1.3928 0,-0.4037 -1.575,-1.3519 -3.5,-2.1072 -1.925,-0.7553 -3.5,-1.7393 -3.5,-2.1866 0,-0.4474 -0.675,-0.8134 -1.5,-0.8134 -0.825,0 -1.5,-0.366 -1.5,-0.8134 0,-0.4473 -1.575,-1.4313 -3.5,-2.1866 -1.925,-0.7553 -3.5,-1.7393 -3.5,-2.1866 0,-0.4474 -0.675,-0.8134 -1.5,-0.8134 -0.825,0 -1.5,-0.366 -1.5,-0.8134 0,-0.4473 -1.575,-1.4313 -3.5,-2.1866 -1.925,-0.7553 -3.5,-1.7393 -3.5,-2.1866 0,-0.4474 -0.675,-0.8134 -1.5,-0.8134 -0.825,0 -1.5,-0.45 -1.5,-1 0,-0.55 -0.5625,-1.0183 -1.25,-1.0406 -0.6875,-0.022 -2.78566,-1.3537 -4.66257,-2.9586 -1.87691,-1.6048 -3.75862,-2.704 -4.18158,-2.4426 -0.42295,0.2614 -1.3623,-0.3198 -2.08743,-1.2915 -0.72513,-0.9717 -2.66842,-2.4417 -4.31842,-3.2667 -1.65,-0.825 -3.58802,-2.2875 -4.3067,-3.25 -0.71869,-0.9625 -1.95619,-1.75 -2.75,-1.75 -0.79382,0 -1.4433,-0.45 -1.4433,-1 0,-0.55 -0.57566,-1 -1.27924,-1 -0.70358,0 -1.92792,-0.9 -2.72076,-2 -0.79284,-1.1 -2.01718,-2 -2.72076,-2 -0.70358,0 -1.27924,-0.45 -1.27924,-1 0,-0.55 -0.52759,-1 -1.17242,-1 -0.64483,0 -3.79483,-2.2809 -7,-5.0687 -3.20517,-2.7877 -5.82758,-4.7126 -5.82758,-4.2775 0,0.4352 -0.70052,-0.2089 -1.5567,-1.4313 -0.85619,-1.2224 -2.10685,-2.2225 -2.77924,-2.2225 -0.6724,0 -1.87122,-0.9 -2.66406,-2 -0.79284,-1.1 -1.91784,-2 -2.5,-2 -0.58216,0 -1.70716,-0.9 -2.5,-2 -0.79284,-1.1 -1.90468,-2.0041 -2.47076,-2.0091 -0.56608,-0.01 -2.09239,-1.355 -3.3918,-3 -1.29941,-1.645 -2.87441,-2.9922 -3.5,-2.9938 -0.62559,0 -2.03744,-1.3503 -3.13744,-2.9971 -1.1,-1.6468 -2.51588,-2.9955 -3.14641,-2.9971 -0.63052,0 -2.52927,-1.5779 -4.21945,-3.5029 -1.69017,-1.925 -3.48613,-3.5 -3.99103,-3.5 -0.50489,0 -1.98114,-1.3459 -3.28055,-2.9909 -1.29941,-1.645 -2.73495,-2.995 -3.19009,-3 -0.98299,-0.011 -8.60712,-8.1758 -8.64574,-9.2591 -0.0147,-0.4125 -0.6754,-0.75 -1.46823,-0.75 -0.79282,0 -3.83032,-2.8948 -6.75,-6.4328 -2.91968,-3.538 -5.81238,-6.463 -6.42828,-6.5 -0.6159,-0.037 -2.6409,-1.9405 -4.5,-4.2301 -1.8591,-2.2895 -5.1802,-6.1779 -7.3802,-8.6408 -4.247,-4.7545 -4.5369,-5.0893 -11.4436,-13.2137 -2.444,-2.8748 -4.919,-5.7392 -5.5,-6.3652 -0.581,-0.626 -3.7542,-4.2835 -7.0515,-8.1278 -3.2974,-3.8443 -6.4474,-7.4922 -7,-8.1066 -3.8267,-4.2535 -5.5049,-6.5491 -5.5049,-7.5297 0,-1.1103 -10.7784,-14.0326 -12.25,-14.6866 -0.4125,-0.1834 -0.7539,-1.0834 -0.7587,-2 -0.01,-0.9167 -1.5798,-3.3242 -3.5,-5.3499 -1.9202,-2.0258 -3.4983,-4.2758 -3.5069,-5 -0.01,-0.7243 -1.8016,-3.3418 -3.9844,-5.8168 -2.1828,-2.475 -3.9844,-4.95 -4.0036,-5.5 -0.019,-0.55 -1.5779,-2.7681 -3.4639,-4.9292 -1.886,-2.1611 -3.2429,-4.2304 -3.0154,-4.5986 0.2276,-0.3681 -0.4707,-1.6186 -1.5517,-2.7789 -1.081,-1.1603 -1.9654,-2.5981 -1.9654,-3.1951 0,-0.597 -1.125,-2.2987 -2.5,-3.7816 -1.375,-1.4829 -2.5,-3.0683 -2.5,-3.5231 0,-0.4548 -1.125,-2.3019 -2.5,-4.1046 -1.375,-1.8027 -2.5,-3.6898 -2.5,-4.1935 0,-0.5037 -1.125,-2.1291 -2.5,-3.612 -1.375,-1.4829 -2.5,-3.3357 -2.5,-4.1173 0,-0.7817 -0.675,-1.9814 -1.5,-2.6661 -0.825,-0.6847 -1.5,-2.0898 -1.5,-3.1224 0,-1.0327 -0.4414,-1.8776 -0.981,-1.8776 -0.5395,0 -1.255,-1.0919 -1.5899,-2.4264 -0.3349,-1.3345 -1.4685,-3.2043 -2.5191,-4.155 -1.0505,-0.9507 -1.91,-2.2787 -1.91,-2.9511 0,-0.6725 -0.675,-1.7828 -1.5,-2.4675 -0.825,-0.6847 -1.5,-2.0898 -1.5,-3.1224 0,-1.0327 -0.3634,-1.8776 -0.8076,-1.8776 -0.4441,0 -1.6017,-1.8 -2.5723,-4 -0.9707,-2.2 -2.1322,-4 -2.5812,-4 -0.449,0 -1.1002,-1.5132 -1.4472,-3.3627 -0.3469,-1.8495 -1.4965,-4.1462 -2.5546,-5.1037 -1.0581,-0.9575 -2.2346,-3.1564 -2.6146,-4.8864 -0.38,-1.7299 -1.4701,-3.8212 -2.4225,-4.6472 -0.9524,-0.826 -2.0395,-2.9031 -2.4156,-4.6158 -0.3762,-1.7127 -1.5094,-3.9999 -2.5182,-5.0828 -1.0088,-1.0828 -2.1369,-3.347 -2.5069,-5.0314 -0.37,-1.6844 -1.5384,-3.8461 -2.5964,-4.8036 -1.0581,-0.9575 -2.2077,-3.2542 -2.5546,-5.1037 -0.347,-1.8495 -1.0308,-3.3627 -1.5196,-3.3627 -0.4888,0 -0.8887,-0.9 -0.8887,-2 0,-1.1 -0.4697,-2 -1.0439,-2 -0.5741,0 -0.9519,-0.5625 -0.8396,-1.25 0.2996,-1.8335 -1.6665,-6.1317 -3.5013,-7.6544 -0.8763,-0.7272 -1.3658,-1.6901 -1.0879,-2.1398 0.2779,-0.4497 0.048,-1.1003 -0.511,-1.4457 -0.559,-0.3455 -1.0163,-1.5016 -1.0163,-2.5691 0,-1.0676 -0.45,-1.941 -1,-1.941 -0.55,0 -1,-0.8734 -1,-1.941 0,-1.0675 -0.4574,-2.2236 -1.0163,-2.5691 -0.559,-0.3454 -0.7767,-1.0159 -0.4837,-1.4899 0.2929,-0.474 0.075,-1.1445 -0.4837,-1.4899 -0.559,-0.3455 -1.0163,-1.5016 -1.0163,-2.5691 0,-1.0676 -0.45,-1.941 -1,-1.941 -0.55,0 -1,-0.9 -1,-2 0,-1.1 -0.4766,-2 -1.059,-2 -0.5825,0 -0.8074,-0.4072 -0.4997,-0.905 0.3076,-0.4977 -0.3073,-2.6352 -1.3663,-4.75 -3.6526,-7.29349 -5.075,-10.65649 -5.075,-11.99859 0,-0.7405 -0.45,-1.3464 -1,-1.3464 -0.55,0 -1.0019,-0.7875 -1.0042,-1.75 0,-0.9625 -1.0873,-3.8847 -2.4111,-6.4938 -1.3237,-2.609 -2.7114,-6.5465 -3.0837,-8.75 -0.3722,-2.2034 -1.0873,-4.0062 -1.5889,-4.0062 -0.5017,0 -0.9121,-0.9 -0.9121,-2 0,-1.1 -0.4105,-2 -0.9121,-2 -0.5017,0 -1.2167,-1.8028 -1.589,-4.0062 -0.3722,-2.2034 -1.7599,-6.1409 -3.0837,-8.75 -1.3238,-2.6091 -2.4087,-5.5313 -2.411,-6.4938 0,-0.9625 -0.4542,-1.75 -1.0042,-1.75 -0.55,0 -1,-1.35 -1,-3 0,-1.64998 -0.4105,-2.99998 -0.9121,-2.99998 -0.5017,0 -1.2299,-1.88114 -1.6184,-4.18032 -0.3884,-2.29917 -1.4997,-5.59303 -2.4695,-7.31968 -0.9698,-1.72665 -2.0811,-5.02051 -2.4696,-7.31968 -0.3884,-2.29918 -1.1167,-4.18032 -1.6183,-4.18032 -0.5017,0 -0.9121,-1.35 -0.9121,-3 0,-1.65 -0.4105,-3 -0.9121,-3 -0.5017,0 -1.2299,-1.88114 -1.6184,-4.18032 -0.3884,-2.29917 -1.5415,-5.66737 -2.5623,-7.48487 -1.0208,-1.81751 -1.6119,-3.94085 -1.3135,-4.71853 0.2985,-0.77769 0.062,-1.71105 -0.5255,-2.07415 -0.5875,-0.36309 -1.0682,-1.98361 -1.0682,-3.60115 0,-1.61754 -0.45,-2.94098 -1,-2.94098 -0.55,0 -1,-1.35 -1,-3 0,-1.65 -0.4982,-3 -1.107,-3 -0.6088,0 -0.8606,-0.6422 -0.5594,-1.42712 0.6265,-1.63247 -1.3761,-7.57288 -2.5529,-7.57288 -0.4294,0 -0.7807,-1.32344 -0.7807,-2.94098 0,-1.61754 -0.4078,-3.19299 -0.9061,-3.501 -0.4984,-0.30801 -0.6842,-1.40878 -0.4129,-2.44616 0.2713,-1.03738 0,-2.18849 -0.5939,-2.55802 -0.5979,-0.36953 -1.0871,-1.74376 -1.0871,-3.05384 0,-1.31008 -0.45,-2.66008 -1,-3 -0.55,-0.33992 -1,-1.68992 -1,-3 0,-1.31008 -0.4078,-2.63397 -0.9061,-2.94198 -0.4984,-0.30801 -0.6842,-1.40878 -0.4129,-2.44616 0.2713,-1.03738 0,-2.18849 -0.5939,-2.55802 -0.5979,-0.36953 -1.0871,-1.99532 -1.0871,-3.61286 0,-1.61754 -0.3982,-2.94098 -0.8848,-2.94098 -0.4866,0 -1.1931,-2.46791 -1.57,-5.48424 -0.3768,-3.01633 -1.1037,-5.74289 -1.6152,-6.05901 -0.5115,-0.31613 -0.93,-2.09667 -0.93,-3.95675 0,-1.86008 -0.4079,-3.63403 -0.9063,-3.9421 -0.4985,-0.30807 -1.2157,-2.80913 -1.5937,-5.5579 -0.3781,-2.74877 -1.0952,-5.24983 -1.5937,-5.5579 -0.4985,-0.30807 -0.9063,-2.01858 -0.9063,-3.80112 0,-1.78254 -0.4472,-3.68818 -0.9938,-4.23476 -0.5466,-0.54658 -1.2857,-3.78658 -1.6424,-7.2 -0.3568,-3.41342 -1.0346,-6.20622 -1.5063,-6.20622 -0.4716,0 -0.8575,-1.35 -0.8575,-3 0,-1.65 -0.3971,-3 -0.8825,-3 -0.4854,0 -1.1988,-3.375 -1.5853,-7.5 -0.3866,-4.125 -1.1145,-7.5 -1.6175,-7.5 -0.5031,0 -0.9147,-1.8 -0.9147,-4 0,-2.2 -0.3859,-4 -0.8576,-4 -0.4716,0 -1.1494,-2.7928 -1.5062,-6.20622 -0.3568,-3.41342 -1.0959,-6.65342 -1.6424,-7.2 -0.5466,-0.54658 -0.9938,-2.47878 -0.9938,-4.29378 0,-1.815 -0.3853,-3.3 -0.8562,-3.3 -0.471,0 -1.1656,-3.70968 -1.5438,-8.24372 -0.3781,-4.53405 -1.1178,-8.67405 -1.6437,-9.2 -0.526,-0.52596 -0.9563,-2.41472 -0.9563,-4.19726 0,-1.78254 -0.4198,-3.50041 -0.9328,-3.81749 -0.5131,-0.31708 -1.247,-4.17852 -1.6311,-8.58099 -0.384,-4.40246 -1.0892,-8.24615 -1.5672,-8.54153 C 279.391,687.13637 279,684.92281 279,682.51273 c 0,-2.41008 -0.4198,-4.64139 -0.9328,-4.95847 -0.5131,-0.31708 -1.247,-4.17852 -1.6311,-8.58099 -0.384,-4.40246 -1.0892,-8.24615 -1.5672,-8.54153 C 274.391,660.13637 274,657.92281 274,655.51273 c 0,-2.41008 -0.4143,-4.63799 -0.9206,-4.9509 -0.5063,-0.31292 -1.2399,-5.07417 -1.6303,-10.58056 -0.3904,-5.5064 -1.1012,-10.25349 -1.5795,-10.5491 -0.4783,-0.29561 -0.8696,-2.53592 -0.8696,-4.97846 0,-2.44254 -0.4731,-4.44098 -1.0514,-4.44098 -0.6031,0 -1.0467,-2.23865 -1.0404,-5.25 0.016,-7.88048 -0.9852,-15.75 -2.0047,-15.75 -0.4969,0 -0.9035,-3.15 -0.9035,-7 0,-3.85 -0.384,-7 -0.8532,-7 -0.4693,0 -0.6427,-2.19153 -0.3853,-4.87007 0.2873,-2.99011 0.038,-5.13601 -0.6468,-5.55901 -0.6172,-0.38149 -1.1147,-3.34029 -1.1147,-6.62994 0,-3.29399 -0.4456,-5.94098 -1,-5.94098 -0.5614,0 -1,-2.77778 -1,-6.33333 0,-3.48334 -0.3032,-6.63657 -0.6739,-7.00718 -0.3706,-0.37062 -0.5656,-3.32553 -0.4333,-6.56646 0.1371,-3.35894 -0.2182,-6.17607 -0.8262,-6.55184 C 256.48,535.19135 256,531.99625 256,528.45371 c 0,-3.62732 -0.4369,-6.44098 -1,-6.44098 -0.5833,0 -1,-3.33333 -1,-8 0,-4.4 -0.3375,-7.99895 -0.75,-7.99767 -0.4125,10e-4 -0.6001,-3.42633 -0.4169,-7.61691 0.2004,-4.58457 -0.098,-8.05062 -0.75,-8.70233 -0.5957,-0.5957 -1.0831,-4.34153 -1.0831,-8.32407 0,-3.98254 -0.45,-7.5191 -1,-7.85902 -0.5524,-0.34141 -1,-4.84372 -1,-10.05902 0,-5.19254 -0.3375,-9.43993 -0.75,-9.43865 -0.4125,10e-4 -0.6001,-3.42633 -0.4169,-7.61691 0.2004,-4.58457 -0.098,-8.05062 -0.75,-8.70233 C 246.4334,437.04616 246,432.09067 246,425.31273 c 0,-6.86667 -0.3923,-11.3 -1,-11.3 -0.6022,0 -1,-4.11111 -1,-10.33333 0,-5.68334 -0.2738,-10.60714 -0.6085,-10.9418 -0.3346,-0.33465 -0.5375,-6.48465 -0.4508,-13.66666 0.1032,-8.54719 -0.2048,-13.05821 -0.8915,-13.05821 -0.6872,0 -1.0492,-5.34879 -1.0492,-15.5 0,-9.66667 -0.3764,-15.5 -1,-15.5 -0.6306,0 -1,-6.83333 -1,-18.5 0,-11.66667 -0.3694,-18.5 -1,-18.5 -0.6325,0 -1,-7.16667 -1,-19.5 v -19.5 h 2.441 c 1.3425,0 2.7191,-0.45 3.059,-1 0.3399,-0.55 1.9415,-1 3.559,-1 1.6175,0 2.941,-0.45 2.941,-1 0,-0.55 1.125,-1 2.5,-1 1.375,0 2.5,-0.45 2.5,-1 0,-0.55 1.125,-1 2.5,-1 1.375,0 2.5,-0.45 2.5,-1 0,-0.55 1.575,-1 3.5,-1 1.925,0 3.5,-0.45 3.5,-1 0,-0.55 1.125,-1 2.5,-1 1.375,0 2.5,-0.45 2.5,-1 0,-0.55 1.125,-1 2.5,-1 1.375,0 2.5,-0.50246 2.5,-1.11658 0,-0.65103 1.0397,-0.91782 2.4936,-0.63988 1.3797,0.26375 2.9759,-0.10433 3.5731,-0.82398 0.5938,-0.71538 1.6761,-1.07175 2.4052,-0.79195 0.7292,0.27981 1.6229,0.0281 1.986,-0.55944 0.363,-0.58749 1.7586,-1.06817 3.1011,-1.06817 1.3425,0 2.441,-0.45 2.441,-1 0,-0.55 1.1311,-1 2.5136,-1 1.3824,0 3.2949,-0.3975 4.25,-0.88333 0.955,-0.48583 3.0864,-1.43833 4.7364,-2.11667 1.65,-0.67834 3.7814,-1.63084 4.7364,-2.11667 0.9551,-0.48583 2.8676,-0.88333 4.25,-0.88333 1.3825,0 2.5136,-0.45 2.5136,-1 0,-0.55 1.125,-1 2.5,-1 1.375,0 2.5,-0.45 2.5,-1 0,-0.55 1.125,-1 2.5,-1 1.375,0 2.5,-0.45 2.5,-1 0,-0.55 1.575,-1 3.5,-1 1.925,0 3.5,-0.45 3.5,-1 0,-0.55 1.125,-1 2.5,-1 1.375,0 2.5,-0.45 2.5,-1 0,-0.55 1.125,-1 2.5,-1 1.375,0 2.5,-0.45 2.5,-1 0,-0.55 1.1311,-1 2.5136,-1 1.3824,0 3.2949,-0.41715 4.25,-0.927 2.6537,-1.41674 5.6408,-2.41218 6.5916,-2.19667 0.4704,0.10661 1.5455,-0.37897 2.3891,-1.07907 0.8435,-0.7001 2.5532,-1.13932 3.7992,-0.97604 1.246,0.16329 2.56,-0.17969 2.92,-0.76217 0.36,-0.58248 1.753,-1.05905 3.0955,-1.05905 1.3425,0 2.441,-0.45 2.441,-1 0,-0.55 1.125,-1 2.5,-1 1.375,0 2.5,-0.45 2.5,-1 0,-0.55 1.1311,-1 2.5136,-1 1.3824,0 3.2949,-0.3975 4.25,-0.88333 0.955,-0.48583 2.9739,-1.38583 4.4864,-2 1.5125,-0.61417 3.9875,-1.61917 5.5,-2.23334 1.5125,-0.61417 3.5314,-1.51417 4.4864,-2 0.9551,-0.48583 2.8676,-0.88333 4.25,-0.88333 1.3825,0 2.5136,-0.45 2.5136,-1 0,-0.55 1.125,-1 2.5,-1 1.375,0 2.5,-0.45 2.5,-1 0,-0.55 1.125,-1 2.5,-1 1.375,0 2.5,-0.45 2.5,-1 0,-0.55 1.575,-1 3.5,-1 1.925,0 3.5,-0.45 3.5,-1 0,-0.55 1.125,-1 2.5,-1 1.375,0 2.5,-0.45 2.5,-1 0,-0.55 1.125,-1 2.5,-1 1.375,0 2.5,-0.45857 2.5,-1.01905 0,-0.56709 1.0308,-0.76034 2.3242,-0.43572 1.4319,0.35938 2.7897,0.0224 3.5368,-0.87771 0.6669,-0.80358 2.096,-1.23002 3.1758,-0.94765 1.0853,0.28383 1.9632,0.0141 1.9632,-0.60324 0,-0.61415 1.125,-1.11663 2.5,-1.11663 1.375,0 2.5,-0.45 2.5,-1 0,-0.55 1.575,-1 3.5,-1 1.925,0 3.5,-0.45 3.5,-1 0,-0.55 1.125,-1 2.5,-1 1.375,0 2.5,-0.45 2.5,-1 0,-0.55 1.125,-0.99998 2.5,-0.99998 1.375,0 2.5,-0.45 2.5,-1 0,-0.55 1.1311,-1 2.5136,-1 1.3824,0 3.2949,-0.3975 4.25,-0.88333 0.955,-0.48583 3.0864,-1.43833 4.7364,-2.11667 1.65,-0.67834 3.7814,-1.63084 4.7364,-2.11667 0.9551,-0.48583 2.8676,-0.88333 4.25,-0.88333 1.3825,0 2.5136,-0.45 2.5136,-1 0,-0.55 1.125,-1 2.5,-1 1.375,0 2.5,-0.45 2.5,-1 0,-0.55 1.125,-1 2.5,-1 1.375,0 2.5,-0.45 2.5,-1 0,-0.55 1.575,-1 3.5,-1 1.925,0 3.5,-0.45 3.5,-1 0,-0.55 1.125,-1 2.5,-1 1.375,0 2.5,-0.40787 2.5,-0.90638 0,-0.49851 0.8945,-0.67246 1.9878,-0.38655 1.1922,0.31175 2.2082,-0.0544 2.5384,-0.91479 0.3651,-0.95132 1.5483,-1.28819 3.5122,-0.99996 1.7692,0.25967 2.9616,-0.0136 2.9616,-0.67882 0,-0.61243 1.125,-1.1135 2.5,-1.1135 1.375,0 2.5,-0.45 2.5,-1 0,-0.55 1.125,-1 2.5,-1 1.375,0 2.5,-0.45 2.5,-1 0,-0.55 1.575,-1 3.5,-1 1.925,0 3.5,-0.45 3.5,-1 0,-0.55 1.125,-1 2.5,-1 1.37498,0 2.49998,-0.45 2.49998,-1 0,-0.55 1.125,-1 2.5,-1 1.375,0 2.5,-0.45 2.5,-1 0,-0.55 1.13111,-1 2.51357,-1 1.38246,0 3.29496,-0.3975 4.25,-0.88333 0.95504,-0.48583 3.08643,-1.43833 4.73643,-2.11667 1.65,-0.67834 3.78139,-1.63084 4.73643,-2.11667 0.95504,-0.48583 2.86754,-0.88333 4.25,-0.88333 1.38246,0 2.51357,-0.45 2.51357,-1 0,-0.55 1.125,-1 2.5,-1 1.375,0 2.5,-0.45 2.5,-1 0,-0.55 1.125,-1 2.5,-1 1.375,0 2.5,-0.45715 2.5,-1.01588 0,-0.55874 1.4286,-0.90703 3.17466,-0.77399 1.74606,0.13305 3.34264,-0.26203 3.54795,-0.87796 0.20531,-0.61592 1.24624,-0.89157 2.31319,-0.61256 1.17066,0.30614 2.16859,-0.0887 2.51663,-0.99565 0.33199,-0.86515 1.35016,-1.30069 2.39929,-1.02633 1.00241,0.26213 2.12491,-0.0126 2.49444,-0.61051 0.36953,-0.59792 1.99532,-1.08712 3.61286,-1.08712 1.61754,0 2.94098,-0.45 2.94098,-1 0,-0.55 1.125,-1 2.5,-1 1.375,0 2.5,-0.45 2.5,-1 0,-0.55 1.125,-1 2.5,-1 1.375,0 2.5,-0.45 2.5,-1 0,-0.55 1.575,-1 3.5,-1 1.925,0 3.5,-0.45 3.5,-1 0,-0.55 1.125,-1 2.5,-1 1.375,0 2.5,-0.45 2.5,-1 0,-0.55 1.125,-1 2.5,-1 1.375,0 2.5,-0.45 2.5,-1 0,-0.55 1.13111,-1 2.51357,-1 1.38246,0 3.29496,-0.3975 4.25,-0.88333 0.95504,-0.48583 3.08643,-1.43833 4.73643,-2.11667 1.65,-0.67834 3.78139,-1.63084 4.73643,-2.11667 0.95504,-0.48583 2.86754,-0.88333 4.25,-0.88333 1.38246,0 2.51357,-0.45 2.51357,-1 0,-0.55 1.125,-1 2.5,-1 1.375,0 2.5,-0.48032 2.5,-1.06739 0,-0.61318 0.85315,-0.79661 2.00493,-0.43105 1.29322,0.41046 2.20359,0.11863 2.56458,-0.8221 0.34005,-0.88615 1.34489,-1.2531 2.56078,-0.93514 1.10062,0.28782 3.09656,0.0131 4.43542,-0.61051 1.33886,-0.62359 3.67179,-1.63631 5.18429,-2.25048 1.5125,-0.61417 3.53139,-1.51417 4.48643,-2 0.95504,-0.48583 2.86754,-0.88333 4.25,-0.88333 1.38246,0 2.51357,-0.45 2.51357,-1 0,-0.55 1.125,-1 2.5,-1 1.375,0 2.5,-0.45 2.5,-1 0,-0.55 1.125,-1 2.5,-1 1.375,0 2.5,-0.45 2.5,-1 0,-0.550002 1.575,-1.000002 3.5,-1.000002 1.925,0 3.5,-0.45 3.5,-1 0,-0.55 1.125,-1 2.5,-1 1.375,0 2.5,-0.45 2.5,-1.000003 0,-0.55 1.125,-1 2.5,-1 1.375,0 2.5,-0.45 2.5,-1 0,-0.55 1.35,-1 3,-1 1.65,0 3,-0.45 3,-1 0,-0.55 0.90611,-1 2.01357,-1 1.10746,0 2.90746,-0.45 4,-1 1.09254,-0.55 2.88032,-1.45 3.97286,-2 1.09254,-0.55 3.11754,-1 4.5,-1 1.38246,0 2.51357,-0.48033 2.51357,-1.06739 0,-0.61319 0.85315,-0.79661 2.00493,-0.43105 1.29322,0.41045 2.20359,0.11863 2.56458,-0.8221 0.31708,-0.82629 1.34963,-1.25186 2.38221,-0.98184 1.00241,0.26214 2.12491,-0.0126 2.49444,-0.61051 0.89601,-1.44977 9.55384,-1.42302 9.55384,0.0295 0,0.61734 0.87786,0.88707 1.96323,0.60324 1.07978,-0.28237 2.50188,0.13563 3.16022,0.92888 0.65834,0.79325 1.78547,1.21645 2.50474,0.94044 0.71927,-0.27601 1.57373,-0.0715 1.8988,0.45449 0.32508,0.52598 1.91449,0.95633 3.53203,0.95633 1.61754,0 2.94098,0.45 2.94098,1 0,0.55 1.125,1 2.5,1 1.375,0 2.5,0.45 2.5,1 0,0.55 1.125,1 2.5,1 1.375,0 2.5,0.45 2.5,1 0,0.55 1.575,1 3.5,1 1.925,0 3.5,0.45 3.5,1 0,0.55 1.125,1 2.5,1 1.375,0 2.5,0.45 2.5,1 0,0.550003 1.125,1.000003 2.5,1.000003 1.375,0 2.5,0.45 2.5,1 0,0.55 1.13111,1 2.51357,1 1.38246,0 3.29496,0.39749 4.25,0.88333 0.95504,0.485832 3.08643,1.438332 4.73643,2.116672 1.65,0.67834 3.78139,1.63084 4.73643,2.11667 0.95504,0.48583 2.64864,0.88333 3.76357,0.88333 1.11493,0 2.80853,0.3975 3.76357,0.88333 0.95504,0.48583 2.86143,1.32562 4.23643,1.8662 1.375,0.54058 3.70714,1.55288 5.18254,2.24955 1.4754,0.69667 3.355,1.00863 4.17689,0.69324 0.82189,-0.31539 2.03728,0.0808 2.70086,0.88032 0.66358,0.79957 1.70898,1.37685 2.32311,1.28284 1.21284,-0.18565 4.10372,0.74979 6.85303,2.21752 0.95504,0.50985 2.86754,0.927 4.25,0.927 1.38246,0 2.51357,0.45 2.51357,1 0,0.55 1.125,1 2.5,1 1.375,0 2.5,0.45 2.5,1 0,0.55 1.125,1 2.5,1 1.375,0 2.5,0.45 2.5,1 0,0.55 1.575,1 3.5,1 1.925,0 3.5,0.45 3.5,1 0,0.55 1.125,1 2.5,1 1.375,0 2.5,0.45 2.5,1 0,0.55 1.125,1 2.5,1 1.375,0 2.5,0.45 2.5,1 0,0.55 1.13111,1 2.51357,1 1.38246,0 3.29496,0.3975 4.25,0.88333 0.95504,0.48583 3.08643,1.43833 4.73643,2.11667 1.65,0.67834 3.78139,1.63084 4.73643,2.11667 0.95504,0.48583 2.64864,0.88333 3.76357,0.88333 1.11493,0 3.03353,0.52026 4.26357,1.15613 4.99329,2.58129 5.8534,2.88961 6.6638,2.38876 0.46531,-0.28758 1.41054,0.15734 2.10051,0.9887 0.69935,0.84267 2.04937,1.25928 3.05075,0.94145 0.98795,-0.31356 2.61192,-0.15122 3.60882,0.36075 0.9969,0.51198 3.16255,1.48587 4.81255,2.16421 1.65,0.67834 3.78139,1.63084 4.73643,2.11667 0.95504,0.48583 2.86754,0.88333 4.25,0.88333 1.38246,0 2.51357,0.45 2.51357,1 0,0.55 1.125,1 2.5,1 1.375,0 2.5,0.45 2.5,1 0,0.55 1.125,1 2.5,1 1.375,0 2.5,0.45 2.5,1 0,0.55 1.575,1 3.5,1 1.925,0 3.5,0.45 3.5,1 0,0.55 1.125,1 2.5,1 1.375,0 2.5,0.45 2.5,1 0,0.55 1.125,1 2.5,1 1.375,0 2.5,0.45 2.5,1 0,0.55 1.13111,1 2.51357,1 1.38246,0 3.29496,0.3975 4.25,0.88333 0.95504,0.48583 3.08643,1.43833 4.73643,2.11667 1.65,0.67834 3.78139,1.63084 4.73643,2.11667 0.95504,0.48583 2.84098,0.88333 4.19098,0.88333 1.35001,0 2.75163,0.48068 3.11472,1.06817 0.3631,0.5875 1.27524,0.83215 2.027,0.54368 0.75175,-0.28848 1.63279,-0.0942 1.95786,0.43182 0.32508,0.52598 1.68949,0.95633 3.03203,0.95633 1.34254,0 2.44098,0.45 2.44098,1 0,0.55 1.13111,1 2.51357,1 1.38246,0 3.29495,0.3975 4.25005,0.88333 1.7885,0.90983 5.8514,2.64317 10.2364,4.36714 1.375,0.54058 3.2814,1.38037 4.2364,1.8662 0.9551,0.48583 2.8676,0.88333 4.25,0.88333 1.3825,0 2.5136,0.45 2.5136,1 0,0.55 1.125,1 2.5,1 1.375,0 2.5,0.45 2.5,1 0,0.55 1.125,1 2.5,1 1.375,0 2.5,0.45 2.5,1 0,0.55 1.575,1 3.5,1 1.925,0 3.5,0.44998 3.5,0.99998 0,0.55 1.125,1 2.5,1 1.375,0 2.5,0.45 2.5,1 0,0.55 1.125,1 2.5,1 1.375,0 2.5,0.45 2.5,1 0,0.55 1.3234,1 2.941,1 1.6175,0 3.2433,0.4892 3.6128,1.08712 0.3696,0.59791 1.4921,0.87264 2.4945,0.61051 1.0326,-0.27003 2.0651,0.15554 2.3822,0.98183 0.361,0.94073 1.2713,1.23256 2.5646,0.8221 1.1518,-0.36556 2.0049,-0.18213 2.0049,0.43105 0,0.58707 1.3234,1.06739 2.941,1.06739 1.6175,0 3.2191,0.45 3.559,1 0.3399,0.55 1.7165,1 3.059,1 1.3426,0 2.441,0.45 2.441,1 0,0.55 1.125,1 2.5,1 1.375,0 2.5,0.45 2.5,1 0,0.55 1.1311,1 2.5136,1 1.3824,0 3.2949,0.3975 4.25,0.88333 0.955,0.48583 3.0864,1.43833 4.7364,2.11667 1.65,0.67834 3.7814,1.63084 4.7364,2.11667 0.9551,0.48583 2.8676,0.88333 4.25,0.88333 1.3825,0 2.5136,0.45 2.5136,1 0,0.55 1.125,1 2.5,1 1.375,0 2.5,0.45 2.5,1 0,0.55 1.125,1 2.5,1 1.375,0 2.5,0.45 2.5,1 0,0.55 1.575,1 3.5,1 1.925,0 3.5,0.45 3.5,1 0,0.55 1.125,1 2.5,1 1.375,0 2.5,0.45 2.5,1 0,0.55 1.125,1 2.5,1 1.375,0 2.5,0.50107 2.5,1.1135 0,0.66519 1.1924,0.93849 2.9616,0.67882 1.9283,-0.28301 3.1478,0.0504 3.4951,0.95546 0.3368,0.87766 1.2726,1.15554 2.5384,0.75378 1.1518,-0.36556 2.0049,-0.18213 2.0049,0.43105 0,0.58707 1.125,1.06739 2.5,1.06739 1.375,0 2.5,0.45 2.5,1 0,0.55 1.1311,1 2.5136,1 1.3824,0 3.4074,0.45 4.5,1 1.0925,0.55 2.8803,1.45 3.9728,2 1.0926,0.55 2.8926,1 4,1 1.1075,0 2.0136,0.45 2.0136,1 0,0.55 1.35,1 3,1 1.65,0 3,0.45 3,1 0,0.55 1.125,1 2.5,1 1.375,0 2.5,0.45 2.5,1 0,0.55 1.125,1 2.5,1 1.375,0 2.5,0.45 2.5,1 0,0.55 1.575,1 3.5,1 1.925,0 3.5,0.45 3.5,1 0,0.55 1.125,1 2.5,1 1.375,0 2.5,0.45 2.5,1 0,0.55 1.125,1 2.5,1 1.375,0 2.5,0.45 2.5,1 0,0.55 1.3234,1 2.941,1 1.6175,0 3.2433,0.4892 3.6128,1.08712 0.3696,0.59791 1.4921,0.87264 2.4945,0.61051 1.0491,-0.27436 2.0673,0.16118 2.3993,1.02633 0.348,0.90698 1.3459,1.30179 2.5166,0.99565 1.0669,-0.27901 2.1079,-0.003 2.3132,0.61256 0.2053,0.61593 1.8019,1.01101 3.5479,0.87796 1.7461,-0.13304 3.1747,0.21525 3.1747,0.77399 0,0.55873 1.125,1.01588 2.5,1.01588 1.375,0 2.5,0.45 2.5,1 0,0.55 1.125,1 2.5,1 1.375,0 2.5,0.45 2.5,1 0,0.55 1.1311,1 2.5136,1 1.3824,0 3.2949,0.3975 4.25,0.88333 0.955,0.48583 3.0864,1.43833 4.7364,2.11667 1.65,0.67834 3.7814,1.63084 4.7364,2.11667 0.9551,0.48583 2.8676,0.88333 4.25,0.88333 1.3825,0 2.5136,0.45 2.5136,1 0,0.55 1.35,1 3,1 h 3 v 13.39301 c 0,10.38944 -0.3059,13.51041 -1.3641,13.91647 -1.0878,0.41742 -1.5126,6.66838 -2.0972,30.85699 -0.4032,16.68344 -1.1393,30.48353 -1.6359,30.66686 -0.4965,0.18334 -0.9028,5.89428 -0.9028,12.69099 0,6.7967 -0.3998,12.60471 -0.8884,12.90668 -0.4885,0.30197 -1.2188,10.68614 -1.6228,23.07593 -0.404,12.38979 -1.1292,22.77084 -1.6117,23.069 -0.4824,0.29816 -0.8771,4.79055 -0.8771,9.98309 0,5.19254 -0.3985,9.44098 -0.8855,9.44098 -0.487,0 -1.2137,7.65544 -1.615,17.01209 -0.4013,9.35665 -1.1278,17.25821 -1.6146,17.55902 -0.4867,0.30081 -0.8849,4.25537 -0.8849,8.78791 0,4.61516 -0.4797,8.72064 -1.0902,9.33117 -0.6431,0.64307 -0.9507,3.80189 -0.75,7.7021 0.1871,3.63655 0,6.61096 -0.4098,6.60981 -0.4125,-10e-4 -0.75,3.5979 -0.75,7.9979 0,4.66667 -0.4167,8 -1,8 -0.5632,0 -1,2.81366 -1,6.44098 0,3.54254 -0.48,6.73764 -1.0666,7.10021 -0.6081,0.37577 -0.9633,3.1929 -0.8262,6.55184 0.1323,3.24093 -0.063,6.19584 -0.4334,6.56646 -0.3706,0.37061 -0.6738,3.52384 -0.6738,7.00718 0,3.55555 -0.4386,6.33333 -1,6.33333 -0.5545,0 -1,2.64699 -1,5.94098 0,3.28965 -0.4975,6.24845 -1.1147,6.62994 -0.6845,0.423 -0.9341,2.5689 -0.6468,5.55901 0.2573,2.67854 0.084,4.87007 -0.3853,4.87007 -0.4693,0 -0.8532,2.7 -0.8532,6 0,3.3 -0.41,6 -0.9112,6 -0.8453,0 -1.6515,5.58133 -2.4982,17.29463 -0.1906,2.63704 -0.6264,5.07454 -0.9686,5.41666 -0.3421,0.34213 -0.622,2.48204 -0.622,4.75538 0,2.27333 -0.4104,4.56083 -0.912,5.08333 -0.817,0.85105 -1.415,4.89734 -2.4722,16.72756 -0.1857,2.07766 -0.6252,4.06516 -0.9767,4.41667 -0.3515,0.35151 -0.6391,2.56255 -0.6391,4.91342 0,2.35087 -0.402,4.52275 -0.8933,4.8264 -0.4913,0.30364 -1.2143,4.60832 -1.6067,9.56595 -0.3924,4.95763 -1.1154,9.26231 -1.6067,9.56595 -0.4913,0.30365 -0.8933,2.07397 -0.8933,3.93405 0,1.86008 -0.391,3.62364 -0.869,3.91901 -0.4779,0.29538 -1.1831,4.13907 -1.5672,8.54153 -0.384,4.40247 -1.118,8.26391 -1.631,8.58099 -0.513,0.31708 -0.9328,2.54839 -0.9328,4.95847 0,2.41008 -0.4119,4.63653 -0.9153,4.94766 -0.5034,0.31113 -1.2313,3.93768 -1.6175,8.05901 -0.3862,4.12133 -1.0993,7.49333 -1.5847,7.49333 -0.4854,0 -0.8825,1.54844 -0.8825,3.44098 0,1.89254 -0.4119,3.69555 -0.9153,4.00668 -0.5034,0.31113 -1.2313,3.93768 -1.6175,8.05901 -0.3862,4.12133 -1.0993,7.49333 -1.5847,7.49333 -0.4854,0 -0.8825,1.8 -0.8825,4 0,2.2 -0.4116,4 -0.9147,4 -0.5031,0 -1.2309,3.375 -1.6175,7.5 -0.3865,4.125 -1.0999,7.5 -1.5853,7.5 -0.4854,0 -0.8825,1.35 -0.8825,3 0,1.65 -0.3859,3 -0.8575,3 -0.4717,0 -1.1495,2.7928 -1.5063,6.20622 -0.3567,3.41342 -1.0958,6.65342 -1.6424,7.2 -0.5466,0.54658 -0.9938,2.45222 -0.9938,4.23476 0,1.78254 -0.4292,3.50625 -0.9538,3.83046 -0.5246,0.32421 -1.2588,3.28584 -1.6317,6.58139 -0.3728,3.29556 -1.0686,6.23341 -1.5462,6.52856 -0.4776,0.29516 -0.8683,1.60853 -0.8683,2.91861 0,1.31008 -0.4185,2.64062 -0.93,2.95675 -0.5115,0.31612 -1.2384,3.04268 -1.6152,6.05901 -0.3769,3.01633 -1.0834,5.48424 -1.57,5.48424 -0.4867,0 -0.8848,1.35 -0.8848,3 0,1.65 -0.5025,3 -1.1166,3 -0.6546,0 -0.9169,1.04422 -0.6341,2.52387 0.2654,1.38812 0.093,2.76468 -0.3834,3.05901 -0.4762,0.29434 -0.8659,1.6336 -0.8659,2.97614 0,1.34254 -0.45,2.44098 -1,2.44098 -0.55,0 -1,1.77344 -1,3.94098 0,2.16754 -0.4573,4.22364 -1.0163,4.5691 -0.559,0.34546 -0.7766,1.01593 -0.4837,1.48992 0.2929,0.47399 0.075,1.14446 -0.4837,1.48992 -0.559,0.34546 -1.0163,1.7 -1.0163,3.01008 0,1.31008 -0.45,2.66008 -1,3 -0.55,0.33992 -1,1.68992 -1,3 0,1.31008 -0.4865,2.68262 -1.081,3.05008 -0.5946,0.36746 -0.811,1.74402 -0.481,3.05901 0.3388,1.34965 0.1563,2.39091 -0.4189,2.39091 -0.5605,0 -1.0191,1.35 -1.0191,3 0,1.65 -0.45,3 -1,3 -0.55,0 -1,1.32344 -1,2.94098 0,1.61754 -0.4573,3.22364 -1.0163,3.5691 -0.559,0.34546 -0.7766,1.01593 -0.4837,1.48992 0.2929,0.47399 0.075,1.14446 -0.4837,1.48992 -0.559,0.34546 -1.0163,1.7 -1.0163,3.01008 0,1.31008 -0.45,2.66008 -1,3 -0.55,0.33992 -1,1.68992 -1,3 0,1.31008 -0.4303,2.64793 -0.9563,2.97301 -0.526,0.32507 -0.7029,1.25163 -0.393,2.05902 0.3098,0.80738 0.065,1.46797 -0.5437,1.46797 -0.6089,0 -1.107,1.35 -1.107,3 0,1.65 -0.4104,3 -0.9121,3 -0.5017,0 -1.2299,1.88114 -1.6184,4.18032 -0.3884,2.29917 -1.4997,5.59303 -2.4695,7.31968 -0.9698,1.72665 -2.0811,5.02051 -2.4695,7.31968 -0.3885,2.29921 -1.1167,4.18031 -1.6184,4.18031 -0.5017,0 -0.9121,1.35 -0.9121,3 0,1.65 -0.45,3 -1,3 -0.55,0 -1.0019,0.7875 -1.0042,1.75 0,0.9625 -1.0873,3.8847 -2.411,6.4938 -1.3238,2.6091 -2.7115,6.5466 -3.0837,8.75 -0.3723,2.2034 -1.0873,4.0062 -1.589,4.0062 -0.5017,0 -0.9121,0.9 -0.9121,2 0,1.1 -0.45,2 -1,2 -0.55,0 -1.0101,1.2375 -1.0224,2.75 -0.012,1.5125 -1.3522,5.45 -2.9776,8.75 -1.6254,3.3 -2.9653,6.7875 -2.9776,7.75 -0.012,0.9625 -0.4724,1.75 -1.0224,1.75 -0.55,0 -1,0.9 -1,2 0,1.1 -0.45,2 -1,2 -0.55,0 -1.0019,0.7875 -1.0042,1.75 0,0.9625 -1.0705,3.85149 -2.3737,6.41999 -1.3032,2.5685 -2.6813,6.332 -3.0624,8.3633 -0.381,2.0313 -1.5629,4.6271 -2.6263,5.7685 -1.0634,1.1414 -1.9353,2.553 -1.9376,3.1368 0,0.5838 -1.118,3.2569 -2.4794,5.9402 -1.3614,2.6834 -2.2329,5.2709 -1.9368,5.75 0.2961,0.4792 0.062,0.8712 -0.5206,0.8712 -0.5824,0 -1.059,0.9 -1.059,2 0,1.1 -0.45,2 -1,2 -0.55,0 -1,0.8734 -1,1.941 0,1.0675 -0.4573,2.2236 -1.0163,2.5691 -0.559,0.3454 -0.7995,0.9789 -0.5346,1.4076 0.265,0.4287 -0.4027,1.7287 -1.4837,2.889 -1.081,1.1603 -1.9654,2.7285 -1.9654,3.4848 0,0.7564 -0.3375,1.7127 -0.75,2.1252 -0.4125,0.4125 -0.7877,1.05 -0.8338,1.4166 -0.2157,1.7164 -2.4045,6.0414 -3.3545,6.6286 -0.5839,0.3609 -1.0617,1.5296 -1.0617,2.5971 0,1.0676 -0.45,1.941 -1,1.941 -0.55,0 -1,0.8734 -1,1.941 0,1.0675 -0.4215,2.2015 -0.9367,2.5199 -1.2298,0.76 -4.0633,6.4732 -4.0633,8.1927 0,0.7405 -0.45,1.3464 -1,1.3464 -0.55,0 -1,0.8449 -1,1.8776 0,1.0326 -0.675,2.4377 -1.5,3.1224 -0.825,0.6847 -1.5,1.8097 -1.5,2.5 0,0.6903 -0.675,1.8153 -1.5,2.5 -0.825,0.6847 -1.5,2.0898 -1.5,3.1224 0,1.0327 -0.45,1.8776 -1,1.8776 -0.55,0 -1,0.8734 -1,1.941 0,1.0675 -0.438,2.2116 -0.9732,2.5425 -0.5353,0.3308 -1.7116,2.1573 -2.614,4.059 -0.9024,1.9016 -2.0394,3.4575 -2.5267,3.4575 -0.4874,0 -0.8861,0.8449 -0.8861,1.8776 0,1.0326 -0.675,2.4377 -1.5,3.1224 -0.825,0.6847 -1.5,1.8097 -1.5,2.5 0,0.6903 -0.675,1.8153 -1.5,2.5 -0.825,0.6847 -1.5,1.9904 -1.5,2.9017 0,0.9112 -0.9,2.3055 -2,3.0983 -1.1,0.7928 -2,2.2217 -2,3.1753 0,0.9536 -1.125,2.8588 -2.5,4.2338 -1.375,1.375 -2.5,3.1403 -2.5,3.923 0,0.7827 -0.675,1.9832 -1.5,2.6679 -0.825,0.6847 -1.5,1.8443 -1.5,2.577 0,0.7326 -1.125,2.4571 -2.5,3.8321 -1.375,1.375 -2.5,3.0875 -2.5,3.8057 0,0.7181 -1.125,2.5189 -2.5,4.0018 -1.375,1.4829 -2.5,3.321 -2.5,4.0848 0,0.7637 -0.9371,2.2367 -2.0826,3.2733 -1.1454,1.0366 -2.6797,3.2438 -3.4095,4.905 -0.7299,1.6612 -2.7177,4.4584 -4.4175,6.2161 -1.6997,1.7576 -3.0943,3.7826 -3.0991,4.5 0,0.7173 -1.5797,2.9617 -3.5,4.9874 -1.9202,2.0258 -3.4913,4.1989 -3.4913,4.829 0,0.6301 -2.25,3.7326 -5,6.8943 -2.75,3.1618 -5,6.1895 -5,6.7283 0,1.0906 -3.2442,5.1998 -10,12.6666 -2.475,2.7354 -4.95,5.9813 -5.5,7.213 -0.8686,1.9452 -3.17546,4.8314 -11.86167,14.8404 -1.0239,1.1799 -3.44061,4.0577 -5.37046,6.3952 -1.92985,2.3375 -4.12961,4.25 -4.88835,4.25 -0.75875,0 -1.39157,0.3375 -1.40627,0.75 -0.0147,0.4125 -1.70221,2.602 -3.75,4.8656 -2.0478,2.2636 -5.7184,6.4261 -8.1569,9.25 -2.4385,2.8239 -4.9135,5.1609 -5.5,5.1934 -0.5865,0.032 -3.4789,2.9574 -6.42756,6.5 -2.94865,3.5425 -5.98615,6.441 -6.75,6.441 -0.76384,0 -1.396,0.3375 -1.40478,0.75 -0.0223,1.0479 -5.58228,7.25 -6.49937,7.25 -0.41358,0 -1.81531,1.2375 -3.11497,2.75 -1.29965,1.5125 -2.72948,2.75 -3.17739,2.75 -0.44792,0 -2.29604,1.6875 -4.10694,3.75 -1.8109,2.0625 -3.80843,3.7513 -4.43895,3.7529 -0.63053,0 -2.04641,1.3503 -3.14641,2.9971 -1.1,1.6468 -2.75718,2.9955 -3.68261,2.9971 -0.92544,0 -1.96826,0.9029 -2.31739,2.0029 -0.34913,1.1 -1.3962,2 -2.32684,2 -0.93064,0 -2.25413,0.9 -2.94109,2 -0.68696,1.1 -1.81196,2 -2.5,2 -0.68804,0 -1.81304,0.9 -2.5,2 -0.68696,1.1 -1.87206,2 -2.63356,2 -0.76149,0 -1.64355,0.675 -1.96014,1.5 -0.31658,0.825 -1.1801,1.5 -1.91893,1.5 -0.73883,0 -2.34142,1.35 -3.56132,3 -1.2199,1.65 -2.77128,3 -3.44751,3 -0.67623,0 -1.79158,0.9 -2.47854,2 -0.68696,1.1 -1.9202,2 -2.74054,2 -0.82034,0 -1.49153,0.3401 -1.49153,0.7559 0,0.4157 -1.4625,1.3956 -3.25,2.1775 -1.7875,0.7819 -3.83802,2.2417 -4.5567,3.2441 -0.71869,1.0024 -1.95619,1.8225 -2.75,1.8225 -0.79382,0 -1.4433,0.45 -1.4433,1 0,0.55 -0.50972,1 -1.1327,1 -0.62299,0 -1.86049,0.8187 -2.75,1.8194 -1.52885,1.7199 -5.34846,3.6762 -5.84804,2.9951 -0.12691,-0.173 -0.93993,0.698 -1.80671,1.9355 -0.86678,1.2375 -2.22544,2.25 -3.01925,2.25 -0.79382,0 -1.4433,0.366 -1.4433,0.8134 0,0.4473 -1.575,1.4313 -3.5,2.1866 -1.925,0.7553 -3.5,1.7393 -3.5,2.1866 0,0.4474 -0.675,0.8134 -1.5,0.8134 -0.825,0 -1.5,0.366 -1.5,0.8134 0,0.4473 -1.575,1.4313 -3.5,2.1866 -1.925,0.7553 -3.5,1.7393 -3.5,2.1866 0,0.4474 -0.675,0.8134 -1.5,0.8134 -0.825,0 -1.5,0.366 -1.5,0.8134 0,0.4473 -1.575,1.4313 -3.5,2.1866 -1.925,0.7553 -3.5,1.7393 -3.5,2.1866 0,0.4474 -0.49303,0.8134 -1.09563,0.8134 -0.6026,0 -2.34089,0.8867 -3.86288,1.9705 -1.52198,1.0837 -3.04336,1.6943 -3.38083,1.3568 -0.33747,-0.3374 -0.89633,0.1233 -1.24191,1.0238 -0.34557,0.9006 -1.00007,1.4077 -1.45444,1.1268 -0.45436,-0.2808 -1.10877,-0.053 -1.45423,0.5058 -0.34546,0.559 -1.72656,1.0163 -3.0691,1.0163 -1.34254,0 -2.44098,0.45 -2.44098,1 0,0.55 -0.675,1 -1.5,1 -0.825,0 -1.50351,0.3375 -1.5078,0.75 -0.0106,1.0147 -4.95688,3.25 -7.19156,3.25 -0.99035,0 -1.80064,0.45 -1.80064,1 0,0.55 -0.675,1 -1.5,1 -0.825,0 -1.5,0.45 -1.5,1 0,0.55 -0.675,1 -1.5,1 -0.825,0 -1.5,0.45 -1.5,1 0,0.55 -0.9,1 -2,1 -1.1,0 -2,0.45 -2,1 0,0.55 -1.125,1 -2.5,1 -1.375,0 -2.5,0.45 -2.5,1 0,0.55 -1.125,1 -2.5,1 -1.375,0 -2.5,0.45 -2.5,1 0,0.55 -0.675,1 -1.5,1 -0.825,0 -1.5,0.45 -1.5,1 0,0.55 -1.125,1 -2.5,1 -1.375,0 -2.5,0.45 -2.5,1 0,0.55 -1.125,1 -2.5,1 -1.375,0 -2.5,0.3975 -2.5,0.8834 0,1.0689 -3.8286,2.3914 -6.25,2.1589 -0.9625,-0.092 -1.75,0.3103 -1.75,0.8948 0,0.5846 -1.125,1.0629 -2.5,1.0629 -1.55556,0 -2.5,0.5667 -2.5,1.5 0,1.1057 -1.15478,1.5 -4.39301,1.5 -2.98241,0 -4.57784,-0.4817 -4.96862,-1.5 z"
       id="path16-0"
       sodipodi:nodetypes="ssssssssssssssssssssssssssssssssssssssssssssssssssssssssssscscscssssssssssssscsscscssssssssssssssssssssssssssssssssssssssssssssssssssssscssssssscsssssssssssssssssssssscssssscsssssssssssssssssssssssssssssssssssssscsssssssssssssssssssscssssssssssssscssssssssssssssssssssssssssssssssssssssssssssssssssssssssssssssssssssssssssssssssssssssssssssssssssssssssssssssssssssssssssssssssssssssssssssssssssssssssssssssssssssssssssssssssssssssssssssssssssssssssssssssssssssssssssssssssssssssssssssssssssssssssssssssssssssssssssssssssssssssssssssssssssssssssssssssssssssssscssscssssssssssssscssssssssssssssscssssscsssssssssssssssssssssssssssssssssssssssssssssssssssssssssssssssssssssssssssssssssscssssscscssscssscssssssssssssssssssssssssssssssssssssssssssssssscsssssssssssscssssssscscssssssssssssssssssssssssssssssssssssssssssssssssssssssssssssscsssss" />
    <path
       style="fill:#455a3d"
       d="m 722.21026,1337.5061 c -34.09229,-17.4431 -42.29958,-22.458 -79.60646,-48.6411 -23.76367,-16.678 -69.78775,-58.9712 -90.71903,-83.365 -4.71932,-5.5 -12.30343,-14.275 -16.85357,-19.5 -4.55015,-5.225 -9.40972,-11.3 -10.79904,-13.5 -1.38933,-2.2 -4.61235,-6.475 -7.16227,-9.5 -2.54992,-3.025 -5.8414,-7.3 -7.31441,-9.5 -1.473,-2.2 -4.46233,-6.475 -6.64295,-9.5 -9.338,-12.9539 -29.46305,-43.9862 -35.34427,-54.5 -2.46127,-4.4 -6.17134,-10.925 -8.24459,-14.5 -6.67154,-11.504 -32.95563,-64.1163 -38.21791,-76.5 -2.8046,-6.6 -7.78463,-18.3 -11.06674,-26 -3.28212,-7.7 -7.41761,-18.05 -9.18998,-23 -1.77237,-4.95 -4.12904,-11.01836 -5.23706,-13.48524 -1.10801,-2.46689 -3.52677,-9.05302 -5.37502,-14.63586 -1.84825,-5.58284 -4.01808,-11.66448 -4.82185,-13.51476 -0.80376,-1.85028 -3.07977,-8.46599 -5.05779,-14.70159 -1.97803,-6.2356 -4.26261,-12.62576 -5.07686,-14.20034 -0.81425,-1.57459 -1.47004,-3.67274 -1.45731,-4.66255 0.0127,-0.98981 -1.76183,-7.42466 -3.94348,-14.29966 -6.43302,-20.27229 -10.86118,-35.51538 -15.54192,-53.5 -1.2883,-4.95 -3.53713,-13.5 -4.99739,-19 -1.46027,-5.5 -3.04299,-12.0798 -3.51717,-14.62178 -0.47417,-2.54198 -1.79837,-7.7655 -2.94266,-11.60781 C 341.93624,757.42809 341,753.36783 341,752.2476 c 0,-1.12023 -1.97922,-10.29671 -4.39826,-20.39219 C 334.1827,721.75994 331.91136,711.475 331.55433,709 c -0.35703,-2.475 -1.7275,-9.45 -3.0455,-15.5 -3.05426,-14.01997 -6.57893,-32.41912 -7.5669,-39.5 -0.42207,-3.025 -1.70667,-10.14558 -2.85466,-15.82351 C 316.93927,632.49856 316,626.39182 316,624.60595 c 0,-1.78588 -0.84622,-7.2653 -1.88048,-12.1765 -1.03427,-4.9112 -2.16967,-11.62945 -2.52312,-14.92945 -0.64417,-6.0144 -1.68528,-13.07974 -3.647,-24.75 -1.05326,-6.26586 -1.82677,-12.48308 -4.44777,-35.75 -1.75118,-15.54536 -2.29399,-19.8102 -3.56378,-28 -0.55428,-3.575 -1.46008,-12.35 -2.01288,-19.5 -0.5528,-7.15 -1.42388,-16.375 -1.93573,-20.5 -0.95343,-7.68376 -3.52239,-36.8669 -4.97364,-56.5 -0.4472,-6.05 -1.10409,-12.8 -1.45975,-15 -0.35565,-2.2 -1.11392,-13.45 -1.68504,-25 -0.57112,-11.55 -1.44097,-27.525 -1.93301,-35.5 -0.49203,-7.975 -1.16914,-21.06496 -1.50469,-29.08879 l -0.61008,-14.58879 5.02387,-2.16121 C 291.61002,289.97254 294.29025,289 294.80296,289 c 1.1272,0 14.5499,-4.46891 30.19704,-10.0537 6.325,-2.25752 15.1,-5.36758 19.5,-6.91124 4.4,-1.54365 11.825,-4.25011 16.5,-6.01435 4.675,-1.76423 10.75,-3.795 13.5,-4.51281 2.75,-0.71781 10.175,-3.19667 16.5,-5.50857 24.07048,-8.79821 34.06451,-12.37576 54,-19.33031 2.475,-0.86341 9.9,-3.34084 16.5,-5.50539 6.6,-2.16456 15.825,-5.37565 20.5,-7.13578 11.9159,-4.48629 23.45806,-8.50607 38,-13.23421 13.64799,-4.43749 25.37514,-8.5108 37,-12.85159 15.30825,-5.71618 36.01648,-12.98105 53.5,-18.76889 10.92094,-3.61532 23.93746,-8.20892 40,-14.11621 12.49423,-4.59498 23.17334,-8.2312 28,-9.53397 4.87829,-1.3167 18.36686,-6.08092 35.5,-12.53875 4.675,-1.76211 10.975,-4.01933 14,-5.01605 3.025,-0.99673 8.54777,-2.97232 12.27283,-4.39021 3.72505,-1.41788 7.90207,-2.57797 9.28226,-2.57797 2.31151,0 8.40911,2.08072 25.44491,8.6827 3.575,1.38544 8.975,3.32738 12,4.31543 3.025,0.98805 10.675,3.68169 17,5.98588 6.325,2.30418 13.75,4.78333 16.5,5.50921 2.75,0.72589 8.825,2.76326 13.5,4.52749 4.675,1.76424 12.1,4.4707 16.5,6.01435 4.4,1.54366 13.175,4.6555 19.5,6.9152 6.325,2.2597 15.775,5.47057 21,7.13527 10.08097,3.21183 21.70009,7.26367 34,11.85652 4.125,1.5403 11.44609,4.18585 16.26909,5.879 4.82299,1.69316 12.47299,4.40514 17,6.02664 4.527,1.6215 12.95591,4.40441 18.73091,6.18426 5.775,1.77984 14.55,4.79433 19.5,6.69886 20.7344,7.97762 36.4757,13.59277 53.5,19.08414 13.919,4.48974 25.2895,8.43734 38,13.19289 18.5444,6.93826 30.7337,11.22761 35.5,12.49226 2.75,0.72967 10.175,3.19505 16.5,5.47862 6.325,2.28356 13.075,4.62221 15,5.19699 1.925,0.57478 6.425,2.16426 10,3.53218 17.5307,6.70785 22.4842,8.45938 34.8154,12.31077 7.3235,2.28732 13.532,4.72302 13.7966,5.41266 0.5032,1.31137 -1.1422,36.12817 -2.6025,55.06868 -0.4664,6.05 -1.3171,19.325 -1.8904,29.5 -0.5732,10.175 -1.303,20.975 -1.6217,24 -1.0177,9.66054 -2.2829,22.99773 -3.9842,42 -0.9111,10.175 -2.0296,21.875 -2.4857,26 -0.4562,4.125 -1.558,14.7 -2.4484,23.5 -0.8905,8.8 -2.0432,18.925 -2.5616,22.5 -0.5184,3.575 -1.4131,11.45 -1.9882,17.5 -0.5751,6.05 -1.3144,12.125 -1.6429,13.5 -0.6244,2.6138 -1.4022,7.85724 -4.0054,27 -0.8601,6.325 -1.9258,13.75 -2.3682,16.5 -0.4424,2.75 -1.3152,9.05 -1.9395,14 -0.6242,4.95 -1.5686,10.575 -2.0986,12.5 -0.5299,1.925 -0.9661,5.20036 -0.9691,7.27857 0,2.07821 -1.0881,9.27821 -2.4111,16 -1.323,6.72179 -2.6968,14.69643 -3.0529,17.72143 -0.356,3.025 -1.3483,8.2 -2.205,11.5 -0.8567,3.3 -1.9265,8.7 -2.3775,12 -1.0804,7.90682 -5.1062,27.38424 -12.5048,60.5 -1.2903,5.775 -2.6343,12.28658 -2.9867,14.47019 -0.3525,2.1836 -1.3296,5.999 -2.1715,8.47865 -0.8419,2.47966 -1.9009,6.76808 -2.3535,9.52982 -1.0025,6.11851 -6.7514,28.62144 -12.9067,50.52134 -1.1594,4.125 -2.7381,9.75 -3.5083,12.5 -0.7701,2.75 -2.7394,9.5 -4.3762,15 -1.6368,5.5 -3.9673,13.375 -5.1789,17.5 -3.6359,12.37873 -12.043,38.26358 -13.597,41.86414 -0.7986,1.85028 -3.0078,8.06373 -4.9094,13.80766 -1.9016,5.74394 -3.989,11.43008 -4.6388,12.63586 -1.2509,2.32154 -5.0043,12.18078 -7.4967,19.69234 -0.8213,2.475 -3.5249,9.225 -6.0081,15 -2.4832,5.775 -5.5543,12.975 -6.8246,16 -9.9663,23.7333 -27.8896,61.5996 -36.6833,77.5 -12.3936,22.4098 -16.3206,29.2287 -20.2227,35.115 -2.2506,3.3949 -6.7203,10.3829 -9.9328,15.5288 -7.4908,11.9991 -12.7607,19.9674 -17.76161,26.8562 -2.19597,3.025 -6.01424,8.425 -8.48505,12 -9.07958,13.1372 -11.68171,16.624 -16.74309,22.4351 -2.84314,3.2642 -6.74435,8.3149 -8.66935,11.2237 -5.5664,8.4111 -44.50076,48.7246 -61.64028,63.8237 -4.32284,3.8082 -10.36039,9.1951 -13.41677,11.9708 -3.05638,2.7757 -8.45638,7.1321 -12,9.6808 -3.54362,2.5488 -9.72401,7.3863 -13.73419,10.75 -4.01018,3.3638 -7.68764,6.1159 -8.17214,6.1159 -0.48451,0 -4.85345,3.0012 -9.70877,6.6694 -12.34727,9.3284 -39.76524,25.5098 -63.10789,37.2447 -21.55499,10.8362 -29.11314,14.1036 -32.50698,14.0528 -1.21714,-0.018 -13.14336,-5.6256 -26.50272,-12.4608 z M 773.5,1012.959 C 913.02056,1002.6658 1031.0488,902.86086 1064.4843,766.90213 1093.7569,647.87083 1053.7782,522.67867 961,442.84377 908.02848,397.26223 842.67652,370.14455 773.5,365.041 646.50057,355.67151 527.16262,419.99804 464.68686,531.5 c -10.52762,18.7889 -22.40146,47.37634 -28.03623,67.5 -9.6435,33.97744 -10.56864,48.27096 -12.07494,78.5 -3.05678,60.47474 13.68622,125.72914 45.92789,179 63.84054,105.47966 180.12194,165.5242 302.99642,156.459 z"
       id="path20"
       sodipodi:nodetypes="ssssssssssssssssssssssssssssssssssssssssssscssssssssssssssssssssssssssssssssssssssssssssssssssssscsssssssssssssssssssssssssssssssssssssssccss" />
    <path
       style="fill:#192116"
       d="m 718.5,1002.018 c -18.2357,-1.6925 -41.849,-6.49032 -62.5,-12.69885 -9.962,-2.99498 -27.9927,-9.7113 -33,-12.29224 -1.925,-0.99223 -8,-3.91403 -13.5,-6.4929 C 572.0829,952.98969 531.3705,920.40545 504.2911,886.32971 468.769,841.63016 448.2327,795.27116 438.3106,737.38451 435.7288,722.3214 435.588,719.81939 435.588,689 c 0,-30.81939 0.1408,-33.3214 2.7226,-48.38451 4.0708,-23.74941 9.2272,-43.21787 16.8493,-63.61549 5.1785,-13.85842 19.1367,-41.92223 27.2498,-54.78735 12.2014,-19.34821 35.1818,-48.06725 42.1388,-52.66188 1.6233,-1.07208 4.5904,-4.03904 6.5936,-6.59325 7.4422,-9.48958 36.3445,-31.82946 57.0753,-44.11614 34.6188,-20.51775 70.405,-33.43294 111.8712,-40.37422 28.5677,-4.78212 71.1374,-4.52938 101.385,0.60195 17.8067,3.02078 41.1885,9.05239 44.9989,11.60796 1.0849,0.72761 2.9522,1.32293 4.1497,1.32293 5.942,0 39.7555,15.34095 59.1604,26.84074 12.3742,7.33325 29.3527,19.18403 35.2174,24.58137 1.925,1.77159 4.7302,3.98195 6.2338,4.9119 4.5813,2.83352 28.5458,26.57662 37.0078,36.66599 38.3763,45.75629 61.3725,95.78482 71.2883,155.08857 3.205,19.16872 4.4127,54.82896 2.5709,75.91143 -8.231,94.21403 -57.0854,178.09456 -135.2711,232.25379 -37.6556,26.08403 -80.5071,43.13506 -128.9183,51.2978 -13.4137,2.26171 -18.976,2.64411 -42.9114,2.95021 -15.125,0.1934 -31.55,-0.024 -36.5,-0.4838 z m 46.0035,-19.38302 c 3.3762,-5.15267 -3.0315,-11.1821 -7.5438,-7.09851 -2.4461,2.21374 -2.5661,7.01093 -0.2097,8.38343 2.9713,1.73061 6.1195,1.20888 7.7535,-1.28492 z m 42.5622,-3.67016 c 2.9135,-1.55924 2.5638,-6.50622 -0.6067,-8.58362 -5.1438,-3.3704 -11.0202,3.13119 -6.9225,7.65909 1.9658,2.17217 4.5948,2.49499 7.5292,0.92453 z M 727.5,974.58422 c 12.0094,-3.10574 23.5232,-8.50089 32.9786,-15.4531 3.8382,-2.82211 7.4516,-5.13112 8.0298,-5.13112 0.5783,0 6.4425,-0.66744 13.0317,-1.4832 81.4417,-10.08267 152.8611,-56.75513 195.8867,-128.01161 10.2019,-16.89583 21.4736,-43.14059 27.4892,-64.00519 2.0646,-7.16102 7.084,-31.24585 7.084,-33.99162 0,-0.83845 3.0941,-6.66236 6.8757,-12.94202 11.4215,-18.96618 17.9113,-36.94905 20.1435,-55.81636 3.6079,-30.49567 -8.926,-68.26287 -30.3216,-91.36523 C 999.2905,556.2273 985.9403,546.92569 975,542.9063 c -4.8351,-1.77639 -6.1226,-2.89016 -10.65,-9.21348 C 938.8864,498.12888 903.7507,468.79969 863.5052,449.51358 826.9022,431.973 789.9958,423.6306 749,423.6306 c -32.0642,0 -64.2247,5.57851 -89.5,15.52452 -7.7294,3.04156 -8.6935,3.17243 -28.5,3.86843 -35.4806,1.2468 -55.9353,7.64835 -76.2367,23.8593 -17.8794,14.27689 -32.5492,33.55835 -39.7472,52.24235 -5.2257,13.56429 -7.4603,33.32277 -5.4842,48.49119 0.5421,4.16094 0.1656,5.91946 -2.5438,11.88361 -15.4909,34.09964 -23.3575,70.9781 -23.3575,109.5 0,61.34176 19.6709,117.42625 58.2222,166 8.65,10.89882 27.47,30.10956 37.4655,38.24334 5.7795,4.70304 7.7189,7.16789 12.7295,16.17797 20.7501,37.31342 46.2291,57.30172 83.4522,65.46821 12.7902,2.80607 14.5025,2.95969 29,2.60175 9.9499,-0.24565 15.3463,-0.92772 23,-2.90705 z M 679,959.5737 c -13.3612,-2.47089 -23.5704,-6.91741 -36,-15.67946 -26.2439,-18.50026 -45.075,-48.9886 -52.1261,-84.39424 -2.8584,-14.35321 -3.0694,-39.28864 -0.4526,-53.5 12.3102,-66.85542 54.4022,-119.55012 110.5189,-138.35802 8.3833,-2.8097 9.1918,-3.81722 13.7218,-17.09835 12.7138,-37.27492 2.9261,-78.75589 -24.7872,-105.04925 -22.8312,-21.66133 -53.6174,-32.18445 -75.7209,-25.88235 -14.2427,4.06085 -26.625,14.09457 -33.4419,27.09885 -9.5305,18.18104 -3.6511,38.10358 12.5215,42.42908 6.3077,1.68706 11.2425,0.42143 16.1258,-4.13585 l 4.1407,-3.86426 -0.221,-8.05024 c -0.1975,-7.19071 0,-8.16622 1.8086,-9.1365 5.431,-2.90659 13.851,3.58806 16.51,12.7348 2.276,7.82901 1.557,20.2432 -1.5177,26.20413 -5.2179,10.11599 -17.3504,19.56854 -28.9866,22.58377 -30.2851,7.84768 -60.9465,-12.90489 -71.5861,-48.45182 -12.1841,-40.7069 10.697,-88.78583 50.8825,-106.91674 17.135,-7.73099 33.729,-11.19832 53.6103,-11.20191 30.366,-0.005 58.6523,9.47054 85.7877,28.73927 8.4084,5.97076 26.4947,23.46187 34.4904,33.35539 17.5971,21.77377 31.449,50.43163 37.2185,77 3.3925,15.62251 3.003,50.65527 -0.7029,63.23266 -1.0308,3.49827 -0.8611,4.09482 2.7026,9.5 8.1835,12.41237 25.6629,26.79065 41.2412,33.92439 13.8814,6.35669 24.733,8.66289 40.7625,8.66289 16.4104,0 27.5623,-2.44125 41.9487,-9.18294 29.0311,-13.60444 45.8618,-34.29613 47.2889,-58.137 1.0957,-18.30472 -7.7455,-36.62909 -21.6034,-44.77569 C 939.0165,598.80364 937.4969,598.5 929.5,598.5 c -8.1572,0 -9.3769,0.25601 -13.0249,2.73392 -5.0492,3.42965 -7.4208,7.39166 -8.0787,13.49613 -0.7596,7.04889 1.6414,10.93826 9.1036,14.74661 7.2398,3.69485 8.3812,6.87537 3.9434,10.9882 -9.8882,9.16408 -34.4559,-0.76864 -41.4238,-16.74763 -1.0115,-2.31948 -2.3811,-7.64085 -3.0436,-11.82526 -4.4923,-28.37266 17.519,-54.44141 49.6866,-58.84577 13.9785,-1.91392 33.1769,1.31368 45.8374,7.70611 18.1936,9.18616 32.5155,24.3548 41.9179,44.39617 6.2943,13.41621 8.5821,23.57292 8.5821,38.09961 0,48.76926 -30.7928,94.5886 -79.5,118.29502 -13.0663,6.35954 -19.1619,8.55259 -34.5,12.41227 -56.7077,14.26991 -114.8754,2.18942 -153.3984,-31.8584 -3.794,-3.35334 -7.394,-6.09433 -8,-6.09108 -0.6059,0.003 -5.3766,0.66968 -10.6016,1.48097 -41.873,6.50169 -74.052,36.16606 -83.6478,77.11112 -2.6977,11.5108 -2.4808,35.95068 0.4128,46.51979 5.0247,18.35341 15.0957,31.68523 29.3093,38.79939 9.7221,4.86607 17.0172,6.43441 27.3853,5.88752 13.2976,-0.70141 23.1366,-6.33981 27.9626,-16.0245 5.1569,-10.34849 2.6777,-21.29315 -5.9714,-26.36189 -5.7299,-3.35796 -10.6451,-2.91926 -16.6334,1.48461 -7.3088,5.37493 -10.8174,3.62771 -10.8174,-5.38683 0,-5.79828 1.6609,-9.02697 7.333,-14.25539 10.5152,-9.69259 22.5657,-12.47333 35.7218,-8.24308 17.5876,5.65517 28.2763,17.22703 33.0106,35.73824 9.7716,38.20632 -22.5035,80.17284 -67.0654,87.20352 -8.4781,1.33761 -26.7715,1.13603 -35,-0.38567 z M 906.6831,725.8125 c -0.3192,-0.79773 -0.5562,-0.56078 -0.6041,0.60417 -0.043,1.05416 0.1929,1.64479 0.5252,1.3125 0.3323,-0.33229 0.3678,-1.1948 0.079,-1.91667 z M 779.7916,940.58717 c 0.3897,-0.59794 2.8582,-4.33463 5.4854,-8.30375 10.4599,-15.80272 14.9273,-29.97781 14.8684,-47.17719 -0.07,-20.32189 -5.2725,-33.2718 -18.8483,-46.91245 -6.9363,-6.9695 -9.7577,-9.01097 -17.5319,-12.68542 -21.4659,-10.14586 -42.1901,-8.56427 -60.0992,4.58656 -14.6962,10.79148 -19.6458,24.15261 -14.7613,39.84661 2.4046,7.72608 6.2166,12.7555 11.4792,15.14535 5.5105,2.50241 9.9324,2.35226 17.064,-0.57941 3.2713,-1.34477 6.0989,-2.29398 6.2836,-2.10934 0.9371,0.93715 -7.2615,6.66749 -10.967,7.66528 -9.6993,2.61175 -26.4771,-3.21499 -33.3266,-11.57394 -12.2845,-14.99156 -15.142,-46.81726 -6.329,-70.48947 9.9486,-26.72264 30.4922,-45.28498 56.3793,-50.94204 l 8.9346,-1.95245 4.0386,3.30792 c 17.1653,14.0597 46.2782,28.13703 71.515,34.58053 29.8383,7.61841 67.2507,7.42099 96.891,-0.51129 30.05,-8.04192 57.8867,-23.00011 77.7028,-41.75403 10.6892,-10.11617 10.1896,-10.65052 5.7374,6.13633 -4.1171,15.5234 -10.2078,31.05546 -18.8755,48.13503 -34.0572,67.10936 -98.2072,116.60492 -171.9321,132.65588 -11.9324,2.59786 -24.5043,4.15224 -23.7084,2.93129 z m 29.1446,-16.64968 c 60.9083,-16.60859 110.3293,-52.18318 143.6314,-103.38968 8.4646,-13.01554 24.3399,-44.9736 23.0043,-46.30922 -0.2233,-0.22336 -2.9638,1.23005 -6.0899,3.2298 -8.7198,5.57797 -28.6616,14.8341 -41.9071,19.45144 -61.1816,21.32776 -133.9328,10.57296 -185.4744,-27.41867 l -6.3994,-4.71708 -6.6006,1.74122 c -25.4167,6.70495 -44.6786,28.12177 -50.656,56.32318 -1.4674,6.92361 -1.7691,21.82113 -0.5295,26.15152 0.65,2.27071 0.8756,2.02428 2.4597,-2.68686 5.1279,-15.25034 18.7611,-27.69575 37.0289,-33.80277 13.5567,-4.53209 24.7948,-4.26921 41.3014,0.96612 11.3154,3.5889 19.6524,8.8512 29.3218,18.5079 9.7643,9.75156 15.6522,19.81956 19.1401,32.72889 4.3411,16.06662 2.4219,38.8536 -4.6118,54.75798 -1.4053,3.17768 -2.5551,5.94661 -2.5551,6.15317 0,0.65107 1.1767,0.42894 8.9362,-1.68694 z m 9.4494,-17.33781 c 1.7653,-7.0333 2.7661,-19.10107 2.2314,-26.90602 -3.0684,-44.79493 -36.6839,-78.28762 -81.617,-81.31894 -13.0505,-0.88042 -27.1347,2.72146 -39.3102,10.05318 -3.1294,1.8844 -5.6898,3.20615 -5.6898,2.93722 0,-0.26893 1.2017,-3.0486 2.6705,-6.17705 5.2204,-11.11948 19.3536,-22.85926 32.2301,-26.77197 l 4.5994,-1.39761 7,4.80613 c 23.4641,16.11025 50.1518,27.2868 79.2692,33.19721 31.9305,6.48143 70.9645,4.75722 102.321,-4.51972 8.7104,-2.57701 11.0833,-3.44901 21.7361,-7.98752 3.4795,-1.48239 6.4987,-2.52292 6.7093,-2.3123 0.2107,0.21063 -2.5049,5.00004 -6.0345,10.64314 -27.6635,44.22775 -69.1721,77.43185 -119.4864,95.58124 l -7.2412,2.61205 z M 846.5,888.57814 c 23.2601,-11.49581 40.6736,-23.84656 58.4777,-41.47613 C 914.5516,837.62199 929,820.64594 929,818.87724 c 0,-0.37187 -5.0625,0.63345 -11.25,2.23403 -27.5654,7.13066 -60.1315,8.95412 -87.475,4.89796 -7.5762,-1.12387 -15.5624,-2.46084 -17.7469,-2.97106 -2.1846,-0.51021 -4.1513,-0.74827 -4.3706,-0.52903 -0.2192,0.21925 0.9103,2.10688 2.5101,4.19475 7.0308,9.17582 12.6705,20.43159 15.6809,31.29611 2.3004,8.30219 3.9436,22.82562 3.4902,30.84898 -0.2551,4.51401 -0.023,7.14946 0.6286,7.1468 0.568,-0.002 7.7827,-3.34026 16.0327,-7.41764 z M 568.5119,868.25 C 549.815,849.53183 534.392,828.29935 522.5679,805 503.2084,766.85234 495,732.31318 495,689 c 0,-35.87257 5.9241,-66.75669 18.4854,-96.36964 l 1.6414,-3.86963 3.0116,6.36963 c 5.0764,10.73665 13.4348,22.26036 21.9693,30.28902 21.5614,20.28338 51.2436,25.1495 76.2345,12.4979 9.6028,-4.8614 19.5922,-13.80173 25.7986,-23.0893 8.7578,-13.10542 10.1527,-37.53154 2.9497,-51.65062 -2.6055,-5.10726 -8.8894,-11.22299 -14.3164,-13.93338 -8.7462,-4.36807 -21.7945,-4.50182 -27.7177,-0.28412 -3.797,2.70372 -7.1917,9.89967 -7.974,16.90327 l -0.6297,5.63687 -1.2263,-3.39922 c -2.6876,-7.44937 -0.5916,-14.20103 7.0277,-22.63832 5.4763,-6.06413 12.1617,-9.86954 20.2459,-11.52411 5.0833,-1.0404 7.2553,-0.9731 14.2168,0.44052 30.0504,6.10217 54.2052,27.4666 64.9786,57.47219 2.5409,7.07672 2.7485,8.8085 2.7755,23.14894 0.026,13.80835 -0.2437,16.36226 -2.4709,23.40058 -2.489,7.8659 -2.5219,7.9095 -7.5,9.93496 -2.75,1.11892 -9.5985,4.38827 -15.2189,7.26522 -45.5279,23.30479 -80.1786,64.19518 -96.1856,113.50614 -6.9571,21.43203 -10.8548,49.64472 -9.5763,69.31594 0.6389,9.8313 4.4587,31.75854 6.4402,36.97044 0.5451,1.4337 0.8337,2.60672 0.6412,2.60672 -0.1924,0 -4.7323,-4.3875 -10.0887,-9.75 z m -3.5964,-70.75 c 2.5446,-16.05474 5.8468,-28.48515 11.2137,-42.21193 19.2826,-49.3186 57.1752,-89.74313 104.4489,-111.42808 l 9.3111,-4.27111 1.8054,-6.54444 c 1.3089,-4.74459 1.7953,-9.98218 1.7686,-19.04444 -0.032,-10.92804 -0.3678,-13.41876 -2.6692,-19.80585 -6.3993,-17.76003 -20.9923,-34.9653 -36.4467,-42.97092 C 649.8633,548.90045 645.6658,547 645.0194,547 c -0.6464,0 0.464,1.9125 2.4675,4.25 4.2205,4.92415 8.9515,14.34559 10.4337,20.77781 1.8031,7.82524 1.3118,23.67337 -0.992,31.99229 -3.0313,10.94629 -7.0959,17.33047 -17.8399,28.02039 -7.8707,7.83116 -11.1421,10.30649 -18.259,13.81585 -24.8077,12.23282 -52.0109,10.60368 -75.6715,-4.53181 -6.7186,-4.29784 -17.9363,-14.90501 -22.8864,-21.64075 -1.9466,-2.64892 -3.8982,-4.44892 -4.3368,-4 -0.4385,0.44892 -2.1316,5.99122 -3.7623,12.31622 -18.6364,72.28462 -4.114,145.8228 40.7542,206.37011 l 6.5731,8.87011 0.6775,-16.37011 c 0.3727,-9.00356 1.6048,-22.22011 2.738,-29.37011 z m -21.7403,-5.6455 C 528.6423,762.61395 521.7089,737.33533 518.9416,703.5 c -1.373,-16.78648 0.4006,-41.95226 4.2123,-59.77013 l 1.0205,-4.77012 4.6628,3.84828 c 31.5637,26.04991 72.0908,29.5508 103.823,8.96862 23.8435,-15.46541 37.3044,-38.07552 37.362,-62.75655 l 0.022,-9.5201 2.0145,2.5 c 8.8396,10.9699 12.6877,28.03199 9.7848,43.3847 l -1.1563,6.1153 -10.9047,5.36191 c -11.2005,5.50734 -24.7009,13.92345 -35.2827,21.99508 -8.2003,6.25505 -26.3872,24.02998 -33.9111,33.14301 -24.8332,30.07823 -41.833,68.0126 -46.6062,104 -0.693,5.225 -1.5793,10.10953 -1.9696,10.8545 -0.4475,0.85417 -3.7121,-4.68655 -8.838,-15 z M 548.541,775.75 c 2.9219,-17.32476 16.0546,-47.89179 29.5375,-68.75 5.7587,-8.90883 17.341,-23.98036 23.2865,-30.30152 1.4493,-1.54084 2.635,-2.93428 2.635,-3.09653 0,-0.16226 -5.5125,-0.0848 -12.25,0.17217 -14.3047,0.54553 -23.2838,-0.64828 -35.0973,-4.66634 -7.3224,-2.49055 -19.0255,-8.30818 -24.8547,-12.35534 -0.9362,-0.64993 -1.9071,-0.97262 -2.1576,-0.71707 -1.1043,1.12623 -2.8369,21.60037 -2.832,33.46463 0.01,15.62784 1.5308,30.01313 4.8209,45.49728 3.5063,16.50125 13.2633,45.00272 15.406,45.00272 0.4339,0 1.1115,-1.9125 1.5057,-4.25 z m 315.718,-79.81147 c -16.6364,-2.02874 -32.178,-9.71012 -44.5399,-22.01375 l -7.781,-7.74421 0.781,-8.34029 c 0.4295,-4.58715 0.7182,-17.11528 0.6415,-27.84028 -0.1202,-16.80207 -0.5062,-21.29862 -2.7902,-32.5 -10.0632,-49.35184 -37.475,-92.47041 -76.6926,-120.63673 -19.2159,-13.80096 -28.913,-18.88035 -48.5661,-25.43907 -7.5964,-2.53513 -13.929,-4.72244 -14.0723,-4.8607 -0.3373,-0.32538 18.2066,-5.11965 27.2606,-7.04785 29.702,-6.32554 72.3012,-6.11329 103.2625,0.51452 39.1939,8.39015 76.08,25.90222 106.7375,50.67481 14.7836,11.94584 32.5093,30.12203 43.197,44.29502 0.9943,1.31858 -0.8844,1.5 -15.5329,1.5 -17.9201,0 -22.7207,0.78113 -34.4006,5.59752 -14.781,6.0952 -27.4143,17.29862 -34.4345,30.53699 -5.7084,10.76482 -7.6801,18.67447 -7.6941,30.86549 -0.025,22.10184 9.8656,40.19705 27.8651,50.97867 17.2331,10.32254 33.4541,9.8136 45.7627,-1.43583 12.4183,-11.34954 13.0736,-24.07929 1.7373,-33.74285 -1.925,-1.64095 -4.4,-3.49106 -5.5,-4.11136 l -2,-1.12781 2,-0.008 c 3.3714,-0.0142 9.9405,3.49401 12.7137,6.78973 7.2826,8.65489 9.4965,25.79497 4.6727,36.17693 -4.4229,9.51927 -19.4838,23.75316 -31.5902,29.85549 -15.2068,7.66516 -34.4636,11.08509 -51.0372,9.06401 z m 29.3236,-10.95544 c 4.4455,-1.02634 10.9705,-3.2567 14.5,-4.95634 6.5528,-3.15545 16.4383,-9.83916 15.6777,-10.59982 -0.2319,-0.23189 -3.0854,0.0717 -6.341,0.67463 -14.1805,2.62624 -30.5434,-2.80139 -45.1885,-14.98919 -11.0086,-9.16143 -18.0844,-22.88187 -20.9161,-40.55752 -6.7605,-42.19975 23.1941,-80.22148 68.3435,-86.74941 4.588,-0.66335 8.3418,-1.48068 8.3418,-1.81628 0,-0.84454 -18.4953,-19.00838 -24,-23.56997 C 878.7219,481.4722 847.6614,464.95811 816.7322,456.02106 792.93,449.14339 774.7749,446.61827 749,446.60048 c -17.9437,-0.0124 -40,1.83279 -40,3.34631 0,0.34286 3.3867,2.40759 7.526,4.58829 14.6818,7.73478 32.1677,21.11467 46.974,35.94356 33.465,33.51608 52.4884,73.1053 58.5434,121.83386 1.2381,9.96362 0.8875,44.56057 -0.4847,47.82849 -0.8661,2.0628 3.6947,7.4001 11.3525,13.28527 17.1912,13.21184 37.0877,17.00176 60.6714,11.55683 z M 858.5,674.13341 c -7.4024,-2.12709 -14.7381,-6.06143 -20.41,-10.9464 l -4.3125,-3.71422 -0.2237,-25.4864 c -0.1833,-20.89748 -0.5968,-27.46697 -2.2962,-36.48639 -6.9268,-36.76413 -21.7129,-69.50683 -44.2552,-98 -8.4806,-10.71932 -25.8591,-27.72815 -35.2499,-34.5 -4.1949,-3.025 -7.6553,-5.8375 -7.6898,-6.25 -0.1448,-1.73209 26.6085,0.23898 43.9373,3.23711 39.199,6.78198 77.3137,24.38506 108.4381,50.08148 l 8.9381,7.37932 -4.3915,1.27144 c -2.4153,0.69929 -8.1119,3.11449 -12.6592,5.3671 -33.752,16.71993 -52.5958,50.59919 -48.3684,86.96157 1.4033,12.07133 5.5479,24.68206 11.2436,34.21136 5.1322,8.58654 17.4078,20.20786 26.425,25.01666 l 6.8743,3.66597 -10,-0.0422 c -6.361,-0.0269 -12.1834,-0.66964 -16,-1.76635 z M 838.4862,564.44436 c 7.7863,-18.32055 25.3545,-36.60056 43.7638,-45.53708 5.1631,-2.50635 5.6724,-3.45331 3,-5.57843 -7.8086,-6.20954 -29.1742,-19.28768 -40.25,-24.63747 -20.6474,-9.97306 -48.4502,-18.29791 -67.4609,-20.19947 l -6.9609,-0.69627 8.8859,9.33758 c 24.9455,26.21343 43.4161,56.70439 52.7731,87.11678 1.1422,3.7125 2.3886,6.75 2.7698,6.75 0.3811,0 1.9468,-2.95004 3.4792,-6.55564 z M 850,967 c 2.4069,-2.40692 2.5007,-3.84018 0.4433,-6.77749 -1.715,-2.4485 -6.2542,-3.01156 -8.2433,-1.02251 -1.699,1.69902 -1.4882,6.36891 0.3714,8.22857 2.1402,2.14022 5.0263,1.97371 7.4286,-0.42857 z m 40.4433,-18.22251 C 892.5007,945.84018 892.4069,944.40692 890,942 c -3.8236,-3.82364 -9,-1.51053 -9,4.02174 0,4.93112 6.5756,6.85001 9.4433,2.75575 z M 597.6188,937.45904 c 1.3256,-2.02315 1.4391,-3.03646 0.5571,-4.97242 C 595.6965,927.045 588,929.02563 588,935.1053 c 0,5.07543 6.7528,6.72784 9.6188,2.35374 z M 928.354,923.80057 c 1.2953,-2.05354 0.2921,-4.33111 -2.8003,-6.35731 -2.3878,-1.5646 -2.7199,-1.56438 -5.1125,0.003 -2.0078,1.31558 -2.4922,2.35818 -2.25,4.84221 0.5685,5.82836 6.8505,6.76287 10.1628,1.51181 z m -366.9254,-11.372 c 1.8596,-1.85966 2.0704,-6.52955 0.3714,-8.22857 -1.989,-1.98905 -6.5283,-1.42599 -8.2433,1.02251 -2.0574,2.93731 -1.9636,4.37057 0.4433,6.77749 2.4023,2.40228 5.2884,2.56879 7.4286,0.42857 z M 960,897 c 2.4069,-2.40692 2.5007,-3.84018 0.4433,-6.77749 -1.715,-2.4485 -6.2542,-3.01156 -8.2433,-1.02251 -1.989,1.98905 -1.426,6.5283 1.0225,8.2433 2.9373,2.05737 4.3706,1.96362 6.7775,-0.4433 z M 529.6003,882.23469 c 0.6052,-0.40408 1.6496,-1.77737 2.3211,-3.05175 2.5271,-4.79656 -4.8482,-9.85611 -8.7214,-5.98294 -3.9761,3.9761 1.7888,12.11387 6.4003,9.03469 z m 458.8283,-18.80612 c 4.012,-4.01201 -0.735,-10.97688 -5.8828,-8.63138 -3.2149,1.46477 -4.0971,4.71254 -2.1057,7.75177 1.852,2.8265 5.626,3.24205 7.9885,0.87961 z M 505.5599,844.54896 c 1.9914,-3.03923 1.1092,-6.287 -2.1057,-7.75177 -5.1478,-2.3455 -9.8948,4.61937 -5.8828,8.63138 2.3625,2.36244 6.1365,1.94689 7.9885,-0.87961 z m 505.2176,-18.10566 c 4.044,-2.83254 1.9297,-9.4433 -3.0202,-9.4433 -2.8596,0 -5.7573,2.81763 -5.7573,5.59828 0,2.18681 3.2734,5.40172 5.5,5.40172 0.5802,0 2.0551,-0.70052 3.2775,-1.5567 z M 485.5274,805.96972 c 4.1203,-4.55291 -2.9442,-11.61745 -7.4971,-7.49712 -2.2376,2.02499 -2.5794,4.63291 -0.9951,7.59314 1.3785,2.57581 6.1228,2.52217 8.4922,-0.096 z m 543.5121,-20.51731 c 0.6078,-0.73231 0.96,-2.58575 0.7828,-4.11877 -0.5772,-4.99175 -7.5997,-6.48656 -9.939,-2.11559 -3.0572,5.71236 5.0233,11.21423 9.1562,6.23436 z m -557.9019,-20.3148 c 2.074,-2.07404 1.8582,-5.23268 -0.52,-7.61089 -3.639,-3.63902 -8.6176,-1.59444 -8.6176,3.53902 0,4.58399 5.9667,7.24282 9.1376,4.07187 z m 568.0337,-21.7926 c 3.422,-3.09693 1.0836,-9.34501 -3.4975,-9.34501 -5.1134,0 -7.5225,6.59172 -3.4513,9.4433 2.8455,1.99304 4.6663,1.96729 6.9488,-0.0983 z M 463.9648,721.06574 c 1.7135,-3.20163 1.1799,-5.92485 -1.5058,-7.68454 -4.8691,-3.19039 -10.3201,2.27278 -7.5089,7.52566 1.5121,2.82524 7.5309,2.93132 9.0147,0.15888 z M 1043.8,699.8 c 1.8371,-1.83711 1.4283,-6.28337 -0.7597,-8.26353 -4.4005,-3.98239 -10.8431,2.06317 -7.5518,7.08636 1.707,2.60517 6.2413,3.24737 8.3115,1.17717 z M 463.1167,676.78195 c 2.3757,-4.43898 -2.0415,-9.46383 -6.7788,-7.71131 -4.1451,1.53347 -4.1707,8.31579 -0.037,9.84487 2.8876,1.06817 5.5483,0.2353 6.8161,-2.13356 z m 4.8859,-42.28503 C 470.9805,630.90878 468.4157,625 463.8803,625 c -4.0285,0 -6.609,6.87132 -3.6803,9.8 1.6775,1.67749 6.3081,1.49762 7.8026,-0.30308 z m 10.4922,-41.1333 C 483.5685,591.41667 481.6231,583 476.0994,583 c -3.4217,0 -5.3494,2.04504 -5.3494,5.67509 0,4.00263 3.6981,6.24139 7.7448,4.68853 z m 20.1727,-41.97885 c 1.5347,-2.34235 1.5599,-2.89016 0.2415,-5.25 C 496.1378,541.17482 489,542.8786 489,548.5 c 0,5.46956 6.6698,7.45982 9.6675,2.88477 z m 505.5038,-4.03976 c 2.0509,-1.85611 2.3369,-4.52685 0.7935,-7.41075 -1.4633,-2.73423 -6.4098,-2.56465 -8.4081,0.28825 -2.0574,2.93731 -1.9636,4.37057 0.4433,6.77749 2.4334,2.43335 4.741,2.54437 7.1713,0.34501 z m -24.4771,-36.78662 c 2.6907,-2.34149 2.743,-2.55677 1.2743,-5.25 -1.6949,-3.10781 -6.0999,-4.27414 -8.529,-2.2582 -2.2266,1.84796 -1.7838,6.59527 0.783,8.39311 2.8974,2.02943 3.1647,1.99288 6.4717,-0.88491 z m -29.2591,-32.48673 c 2.1601,-2.38688 1.3447,-5.51461 -2.0109,-7.71331 -2.2201,-1.45465 -2.6347,-1.45046 -4.9242,0.0497 -2.7239,1.78478 -3.4192,6.2728 -1.3,8.39196 1.8268,1.8268 6.2791,1.43302 8.2351,-0.72834 z M 915.75,451.72232 c 0.6875,-0.53196 1.25,-2.25174 1.25,-3.82171 0,-6.27639 -9.0939,-7.35891 -10.6235,-1.2646 -0.5451,2.17192 -0.1528,3.15965 1.9854,4.99887 2.606,2.24155 4.5741,2.26484 7.3881,0.0874 z M 623.5115,431.62283 c 1.2781,-1.95069 1.3412,-2.85201 0.3516,-5.02397 -1.8082,-3.96863 -5.6654,-4.53006 -8.498,-1.23695 -2.2415,2.60596 -2.2648,4.57406 -0.087,7.38809 1.6696,2.15772 6.5162,1.49425 8.2338,-1.12717 z M 877,430 c 2.2331,-2.23307 2.501,-4.19534 0.9648,-7.06574 -2.1308,-3.98148 -9.9648,-1.51514 -9.9648,3.13717 0,2.2898 3.3757,5.92857 5.5,5.92857 0.825,0 2.4,-0.9 3.5,-2 z M 662.7775,416.4433 c 2.4485,-1.715 3.0115,-6.25425 1.0225,-8.2433 -1.699,-1.69902 -6.3689,-1.48823 -8.2286,0.37143 -2.1402,2.14021 -1.9737,5.02629 0.4286,7.42857 2.4069,2.40692 3.8402,2.50067 6.7775,0.4433 z m 173,-2 C 839.9495,411.52112 837.676,405 832.4853,405 830.1281,405 827,408.26336 827,410.72251 827,412.3759 830.6241,416 832.2775,416 c 0.7026,0 2.2776,-0.70052 3.5,-1.5567 z m -129.314,-9.40301 c 2.3128,-2.55557 1.3232,-6.72471 -1.9501,-8.21615 -5.2026,-2.37048 -9.9877,4.55869 -5.942,8.60443 2.1504,2.15034 5.7552,1.97298 7.8921,-0.38828 z M 793.8,404.8 c 2.0653,-2.06526 1.4284,-6.60423 -1.165,-8.30352 -4.9824,-3.2646 -10.357,2.2264 -7.0778,7.2311 1.6407,2.50415 6.2158,3.09939 8.2428,1.07242 z m -45.7572,-1.82292 c 3.3222,-1.77797 4.3182,-4.77723 2.5052,-7.54414 -1.7422,-2.65904 -6.2554,-3.32559 -8.348,-1.23294 -1.989,1.98905 -1.426,6.5283 1.0225,8.2433 2.635,1.84562 2.4147,1.82122 4.8203,0.53378 z M 425.1579,650 c 0,-1.375 0.227,-1.9375 0.5044,-1.25 0.2774,0.6875 0.2774,1.8125 0,2.5 -0.2774,0.6875 -0.5044,0.125 -0.5044,-1.25 z m 0.9211,-7.58333 c 0.048,-1.16495 0.2849,-1.4019 0.6041,-0.60417 0.2889,0.72187 0.2534,1.58438 -0.079,1.91667 -0.3323,0.33229 -0.5686,-0.25834 -0.5252,-1.3125 z"
       id="path18" />
    <path
       style="fill:#000000"
       d="m 744.6384,1399.5 c -0.3166,-0.825 -1.4632,-1.5 -2.548,-1.5 -1.0848,0 -2.255,-0.4573 -2.6005,-1.0163 -0.3454,-0.559 -0.996,-0.7889 -1.4457,-0.511 -0.4497,0.2779 -1.3696,-0.1598 -2.0442,-0.9727 -0.6746,-0.8129 -1.6073,-1.2427 -2.0726,-0.9551 -0.4653,0.2876 -1.6518,0.087 -2.6367,-0.4455 -0.9849,-0.5326 -3.2532,-1.5577 -5.0407,-2.278 -1.7875,-0.7203 -3.25,-1.6498 -3.25,-2.0655 0,-0.4158 -1.125,-0.7559 -2.5,-0.7559 -1.375,0 -2.5,-0.45 -2.5,-1 0,-0.55 -0.675,-1 -1.5,-1 -0.825,0 -1.5,-0.45 -1.5,-1 0,-0.55 -1.125,-1 -2.5,-1 -1.375,0 -2.5,-0.366 -2.5,-0.8134 0,-0.4473 -1.575,-1.4313 -3.5,-2.1866 -1.925,-0.7553 -3.5,-1.7393 -3.5,-2.1866 0,-0.4474 -1.125,-0.8134 -2.5,-0.8134 -1.375,0 -2.5,-0.45 -2.5,-1 0,-0.55 -0.675,-1 -1.5,-1 -0.825,0 -1.5,-0.366 -1.5,-0.8134 0,-0.4473 -1.575,-1.4313 -3.5,-2.1866 -1.925,-0.7553 -3.5,-1.7918 -3.5,-2.3033 0,-0.5115 -0.9011,-0.6943 -2.0024,-0.4063 -1.119,0.2926 -2.3321,-0.066 -2.75,-0.8124 -0.4112,-0.7348 -0.9726,-1.3806 -1.2476,-1.4352 -2.9043,-0.5767 -5,-1.4035 -5,-1.9728 0,-0.3832 -1.575,-1.3147 -3.5,-2.07 -1.925,-0.7553 -3.5,-1.7393 -3.5,-2.1866 0,-0.4474 -0.675,-0.8134 -1.5,-0.8134 -0.825,0 -1.5,-0.366 -1.5,-0.8134 0,-0.4473 -1.575,-1.4313 -3.5,-2.1866 -1.925,-0.7553 -3.5,-1.7393 -3.5,-2.1866 0,-0.4474 -0.675,-0.8134 -1.5,-0.8134 -0.825,0 -1.5,-0.366 -1.5,-0.8134 0,-0.4473 -1.575,-1.4313 -3.5,-2.1866 -1.925,-0.7553 -3.5,-1.7393 -3.5,-2.1866 0,-0.4474 -0.675,-0.8134 -1.5,-0.8134 -0.825,0 -1.5,-0.45 -1.5,-1 0,-0.55 -0.6053,-1 -1.345,-1 -0.7398,0 -2.1499,-0.8894 -3.1337,-1.9764 -0.9837,-1.087 -2.1313,-1.7646 -2.5502,-1.5058 -0.4188,0.2589 -1.0305,-0.2302 -1.3592,-1.0869 -0.3288,-0.8567 -1.0202,-1.2966 -1.5364,-0.9776 -0.5163,0.3191 -1.5319,-0.2149 -2.2571,-1.1866 -0.7251,-0.9717 -2.6684,-2.4417 -4.3184,-3.2667 -1.65,-0.825 -3.588,-2.2875 -4.3067,-3.25 -0.7187,-0.9625 -1.9562,-1.75 -2.75,-1.75 -0.7938,0 -1.4433,-0.45 -1.4433,-1 0,-0.55 -0.6712,-1 -1.4915,-1 -0.8204,0 -2.0536,-0.9 -2.7406,-2 -0.6869,-1.1 -1.8157,-2 -2.5084,-2 -0.6927,0 -1.2595,-0.45 -1.2595,-1 0,-0.55 -0.6053,-1 -1.345,-1 -0.7398,0 -2.1595,-0.9 -3.155,-2 -0.9955,-1.1 -2.238,-2 -2.7611,-2 -0.5231,0 -1.836,-1.125 -2.9176,-2.5 -1.0815,-1.375 -2.5006,-2.5 -3.1533,-2.5 -0.6528,0 -1.749,-0.9 -2.4359,-2 -0.687,-1.1 -1.8209,-2 -2.5198,-2 -0.6989,0 -1.9195,-0.9 -2.7123,-2 -0.7928,-1.1 -1.9178,-2 -2.5,-2 -0.5822,0 -1.7072,-0.9 -2.5,-2 -0.7928,-1.1 -1.9047,-2.0041 -2.4708,-2.0091 -0.566,-0.01 -2.0923,-1.355 -3.3918,-3 -1.2994,-1.645 -2.7042,-2.9909 -3.1217,-2.9909 -0.4176,0 -3.8167,-2.925 -7.5536,-6.5 -3.7369,-3.575 -7.1189,-6.5 -7.5157,-6.5 -0.3967,0 -1.7844,-1.3459 -3.0838,-2.9909 -1.2994,-1.645 -2.8514,-2.995 -3.4488,-3 -0.5975,0 -2.8475,-2.2411 -5,-4.969 -2.1526,-2.7279 -4.45,-4.9779 -5.1053,-5 -0.6553,-0.022 -3.5803,-2.9349 -6.5,-6.4729 -2.9197,-3.538 -5.7898,-6.463 -6.3782,-6.5 -0.5883,-0.037 -2.1202,-1.3047 -3.4043,-2.8172 -3.4334,-4.0442 -13.357,-15.5726 -14.5211,-16.8693 -0.5527,-0.6157 -3.0045,-3.4832 -5.4485,-6.3722 -2.444,-2.8891 -4.919,-5.7651 -5.5,-6.3911 -0.581,-0.626 -3.7542,-4.2835 -7.0515,-8.1278 -3.2973,-3.8443 -6.4473,-7.4922 -7,-8.1066 -3.8891,-4.3229 -5.5061,-6.5637 -5.5136,-7.6406 0,-0.6833 -2.909,-4.3924 -6.4538,-8.2424 -3.5447,-3.85 -6.4658,-7.5591 -6.4912,-8.2424 -0.042,-1.1187 -2.3971,-4.2961 -5.7963,-7.8192 -0.6875,-0.7125 -1.25,-1.8095 -1.25,-2.4376 0,-0.6281 -1.8,-3.2767 -4,-5.8858 -2.2,-2.609 -4.0086,-5.1648 -4.0192,-5.6794 -0.011,-0.5146 -1.5855,-2.7307 -3.5,-4.9247 -1.9144,-2.194 -3.4808,-4.5014 -3.4808,-5.1275 0,-0.6262 -0.675,-1.6987 -1.5,-2.3834 -0.825,-0.6847 -1.5,-1.8844 -1.5,-2.6661 0,-0.7816 -1.125,-2.6344 -2.5,-4.1173 -1.375,-1.4829 -2.5,-3.0683 -2.5,-3.5231 0,-0.4548 -1.125,-2.3019 -2.5,-4.1046 -1.375,-1.8027 -2.5,-3.6898 -2.5,-4.1935 0,-0.5037 -1.125,-2.1291 -2.5,-3.612 -1.375,-1.4829 -2.5,-3.3642 -2.5,-4.1807 0,-0.8166 -0.4491,-1.7622 -0.9981,-2.1015 -0.5489,-0.3393 -2.1348,-3.0197 -3.5242,-5.9567 -1.3893,-2.9369 -3.1902,-5.8909 -4.0019,-6.5646 -0.8117,-0.6736 -1.4758,-1.7896 -1.4758,-2.4799 0,-0.6903 -0.675,-1.8153 -1.5,-2.5 -0.825,-0.6847 -1.5,-2.0898 -1.5,-3.1224 0,-1.0327 -0.4197,-1.8776 -0.9326,-1.8776 -0.5129,0 -1.2397,-1.0125 -1.6149,-2.25 -0.3753,-1.2375 -1.4821,-3.15 -2.4595,-4.25 -0.9774,-1.1 -2.0762,-3.4158 -2.4417,-5.1463 -0.3656,-1.7305 -1.5136,-3.9146 -2.5513,-4.8537 -1.0376,-0.9391 -2.1975,-3.1228 -2.5775,-4.8528 -0.3799,-1.7299 -1.4585,-3.8207 -2.3968,-4.6463 -0.9382,-0.8255 -2.0362,-2.8509 -2.4399,-4.5009 -0.4038,-1.65 -1.5416,-3.9 -2.5287,-5 -0.987,-1.1 -2.0969,-3.2759 -2.4663,-4.8352 -0.3694,-1.5594 -1.5479,-3.7757 -2.6188,-4.9252 -1.0709,-1.1495 -2.2278,-3.5862 -2.5708,-5.4148 -0.3431,-1.8286 -1.0237,-3.3248 -1.5125,-3.3248 -0.4888,0 -0.8887,-0.9 -0.8887,-2 0,-1.1 -0.3999,-2 -0.8887,-2 -0.4888,0 -1.1726,-1.5132 -1.5196,-3.3627 -0.3469,-1.8495 -1.5132,-4.1613 -2.5917,-5.1373 -1.0785,-0.976 -2.2448,-3.2878 -2.5917,-5.1373 -0.347,-1.8495 -1.0308,-3.3627 -1.5196,-3.3627 -0.4888,0 -0.8887,-0.8734 -0.8887,-1.941 0,-1.0675 -0.4573,-2.2236 -1.0163,-2.5691 -0.559,-0.3454 -0.7766,-1.0159 -0.4837,-1.4899 0.2929,-0.474 0.075,-1.1445 -0.4837,-1.4899 -0.559,-0.3455 -1.0163,-1.5016 -1.0163,-2.5691 0,-1.0676 -0.45,-1.941 -1,-1.941 -0.55,0 -1,-0.9 -1,-2 0,-1.1 -0.4766,-2 -1.059,-2 -0.5825,0 -0.8082,-0.4058 -0.5017,-0.9017 0.3065,-0.496 -0.7679,-3.421 -2.3876,-6.50002 C 369.432,996.51922 368.3978,994 368.7534,994 c 0.3556,0 0.1066,-0.54 -0.5534,-1.2 -0.66,-0.66 -1.2,-2.01 -1.2,-3 0,-0.99 -0.45,-1.8 -1,-1.8 -0.55,0 -1.0019,-0.7875 -1.0042,-1.75 0,-0.9625 -1.1273,-3.96377 -2.5,-6.66948 -1.3727,-2.70571 -2.4986,-5.63071 -2.502,-6.5 0,-0.86929 -0.6783,-2.86946 -1.5,-4.44483 C 357.6722,967.06032 357,965.14782 357,964.38569 357,963.62356 356.5896,963 356.0879,963 c -0.5017,0 -1.2167,-1.8028 -1.5889,-4.00622 -0.3723,-2.20342 -1.76,-6.14092 -3.0838,-8.75 -1.3237,-2.60908 -2.4087,-5.53128 -2.411,-6.49378 0,-0.9625 -0.4542,-1.75 -1.0042,-1.75 -0.55,0 -1,-1.35 -1,-3 0,-1.65 -0.4104,-3 -0.9121,-3 -0.5017,0 -1.2299,-1.88114 -1.6184,-4.18032 -0.3884,-2.29917 -1.4997,-5.59303 -2.4695,-7.31968 -0.9698,-1.72665 -2.0811,-5.02051 -2.4695,-7.31968 C 339.142,914.88114 338.4138,913 337.9121,913 337.4105,913 337,911.65 337,910 c 0,-1.65 -0.4104,-3 -0.9121,-3 -0.5017,0 -1.2299,-1.88114 -1.6184,-4.18032 -0.3884,-2.29917 -1.535,-5.65596 -2.548,-7.45954 -1.0131,-1.80357 -2.1428,-5.54742 -2.5105,-8.31968 C 329.0432,884.26821 328.3503,882 327.8712,882 327.392,882 327,880.65 327,879 c 0,-1.65 -0.3989,-3 -0.8865,-3 -0.4875,0 -1.1901,-2.025 -1.5612,-4.5 -0.3712,-2.475 -1.0973,-4.5 -1.6136,-4.5 -0.5163,0 -0.9387,-1.32344 -0.9387,-2.94098 0,-1.61754 -0.4077,-3.19299 -0.9061,-3.501 -0.4984,-0.30801 -0.6842,-1.40878 -0.4129,-2.44616 0.2713,-1.03738 0,-2.18849 -0.5939,-2.55802 C 319.4892,855.18431 319,853.81008 319,852.5 c 0,-1.31008 -0.45,-2.66008 -1,-3 -0.55,-0.33992 -1,-1.68992 -1,-3 0,-1.31008 -0.4077,-2.63397 -0.9061,-2.94198 -0.4984,-0.30801 -0.6842,-1.40878 -0.4129,-2.44616 0.2713,-1.03738 0,-2.18849 -0.5939,-2.55802 C 314.4892,838.18431 314,836.55852 314,834.94098 314,833.32344 313.55,832 313,832 c -0.55,0 -1,-1.35 -1,-3 0,-1.65 -0.4586,-3 -1.019,-3 -0.5753,0 -0.7578,-1.04126 -0.419,-2.39091 0.33,-1.31499 0.1136,-2.69155 -0.481,-3.05901 C 309.4865,820.18262 309,818.33352 309,816.44098 309,814.54844 308.55,813 308,813 c -0.55,0 -1,-1.32344 -1,-2.94098 0,-1.61754 -0.4077,-3.19299 -0.9061,-3.501 -0.4984,-0.30801 -0.6842,-1.40878 -0.4129,-2.44616 0.2713,-1.03738 0,-2.18849 -0.5939,-2.55802 C 304.4892,801.18431 304,799.36008 304,797.5 c 0,-1.86008 -0.45,-3.66008 -1,-4 -0.55,-0.33992 -1,-1.68992 -1,-3 0,-1.31008 -0.375,-2.61371 -0.8333,-2.89695 -0.4583,-0.28325 -0.64,-1.83152 -0.4038,-3.4406 0.2361,-1.60908 -0.064,-3.23045 -0.6668,-3.60305 C 299.4933,780.18681 299,778.55852 299,776.94098 299,775.32344 298.5884,774 298.0853,774 c -0.503,0 -1.2309,-3.375 -1.6175,-7.5 -0.3865,-4.125 -1.0999,-7.5 -1.5853,-7.5 -0.4854,0 -0.8825,-1.8 -0.8825,-4 0,-2.2 -0.3859,-4 -0.8575,-4 -0.4717,0 -1.1511,-2.8125 -1.5098,-6.25 -0.3588,-3.4375 -1.0979,-6.4 -1.6425,-6.58333 C 289.4456,737.98333 289,736.07083 289,733.91667 289,731.7625 288.6147,730 288.1438,730 c -0.4709,0 -1.1656,-3.70968 -1.5437,-8.24372 -0.3782,-4.53405 -1.1179,-8.67405 -1.6438,-9.2 C 284.4303,712.03032 284,710.115 284,708.3 c 0,-1.815 -0.4096,-3.3 -0.9102,-3.3 -0.5007,0 -1.2294,-3.83168 -1.6195,-8.51485 -0.3901,-4.68316 -1.1055,-8.75972 -1.5898,-9.05901 C 279.3962,687.12684 279,684.88352 279,682.44098 279,679.99844 278.5904,678 278.0898,678 c -0.5007,0 -1.2294,-3.83168 -1.6195,-8.51485 -0.3901,-4.68316 -1.1055,-8.75972 -1.5898,-9.05901 C 274.3962,660.12684 274,657.88352 274,655.44098 274,652.99844 273.5933,651 273.0962,651 c -0.497,0 -1.2258,-4.725 -1.6194,-10.5 -0.3936,-5.775 -1.1119,-10.5 -1.5962,-10.5 -0.4843,0 -0.8806,-2.25 -0.8806,-5 0,-2.75 -0.3857,-5 -0.857,-5 -0.4714,0 -1.1722,-4.6125 -1.5573,-10.25 -0.3851,-5.6375 -1.1244,-10.4 -1.6429,-10.58333 C 264.4242,598.98333 264,595.72083 264,591.91667 264,588.1125 263.5992,585 263.1093,585 c -0.4899,0 -1.2143,-4.954 -1.6099,-11.00889 -0.3955,-6.05489 -1.1197,-11.25645 -1.6093,-11.55902 -0.4895,-0.30257 -0.8901,-3.37357 -0.8901,-6.82444 0,-3.45087 -0.2739,-6.54819 -0.6086,-6.88293 -0.3347,-0.33474 -0.771,-3.22224 -0.9696,-6.41667 C 256.5528,528.32464 255.773,522 254.9179,522 254.4131,522 254,518.4 254,514 c 0,-4.4 -0.3462,-8 -0.7694,-8 -0.4232,0 -0.5971,-3.41385 -0.3864,-7.58634 0.2394,-4.74111 -0.035,-8.00402 -0.7305,-8.7 -0.6132,-0.61315 -1.1137,-4.36798 -1.1137,-8.35464 0,-3.98254 -0.45,-7.5191 -1,-7.85902 -0.5524,-0.34141 -1,-4.84372 -1,-10.05902 0,-5.19254 -0.3375,-9.43993 -0.75,-9.43865 -0.4125,0.001 -0.6001,-3.42633 -0.4169,-7.61691 0.2004,-4.58457 -0.098,-8.05062 -0.75,-8.70233 C 246.4334,437.03343 246,432.07794 246,425.3 c 0,-6.86667 -0.3923,-11.3 -1,-11.3 -0.6021,0 -1,-4.11111 -1,-10.33333 0,-5.68334 -0.2738,-10.60714 -0.6085,-10.9418 -0.3346,-0.33465 -0.5375,-6.48465 -0.4508,-13.66666 C 243.0439,370.51102 242.736,366 242.0492,366 241.3621,366 241,360.65121 241,350.5 c 0,-9.66667 -0.3763,-15.5 -1,-15.5 -0.6306,0 -1,-6.83333 -1,-18.5 0,-11.66667 -0.3694,-18.5 -1,-18.5 -0.6325,0 -1,-7.16667 -1,-19.5 V 259 h 2.5 c 1.375,0 2.5,-0.45 2.5,-1 0,-0.55 1.575,-1 3.5,-1 1.925,0 3.5,-0.45 3.5,-1 0,-0.55 1.125,-1 2.5,-1 1.375,0 2.5,-0.45 2.5,-1 0,-0.55 1.125,-1 2.5,-1 1.375,0 2.5,-0.45 2.5,-1 0,-0.55 1.575,-1 3.5,-1 1.925,0 3.5,-0.45 3.5,-1 0,-0.55 1.125,-1 2.5,-1 1.375,0 2.5,-0.45 2.5,-1 0,-0.55 0.8734,-1 1.941,-1 1.0675,0 2.2191,-0.45 2.559,-1 0.3399,-0.55 1.9149,-1 3.5,-1 1.5851,0 3.1479,-0.43035 3.473,-0.95633 0.3251,-0.52598 1.1795,-0.7305 1.8988,-0.45449 0.7193,0.27601 1.8628,-0.16689 2.5411,-0.98423 0.6783,-0.81734 1.8299,-1.25714 2.5591,-0.97734 0.7291,0.27981 1.6228,0.0281 1.9859,-0.55944 0.3631,-0.58749 1.7647,-1.06817 3.1147,-1.06817 1.35,0 3.2359,-0.3975 4.191,-0.88333 0.955,-0.48583 3.0864,-1.43833 4.7364,-2.11667 1.65,-0.67834 3.7814,-1.63084 4.7364,-2.11667 0.9551,-0.48583 2.8676,-0.88333 4.25,-0.88333 1.3825,0 2.5136,-0.45 2.5136,-1 0,-0.55 1.125,-1 2.5,-1 1.375,0 2.5,-0.45 2.5,-1 0,-0.55 1.125,-1 2.5,-1 1.375,0 2.5,-0.45 2.5,-1 0,-0.55 1.575,-1 3.5,-1 1.925,0 3.5,-0.45 3.5,-1 0,-0.55 1.125,-1 2.5,-1 1.375,0 2.5,-0.45 2.5,-1 0,-0.55 1.125,-1 2.5,-1 1.375,0 2.5,-0.45 2.5,-1 0,-0.55 1.1311,-1 2.5136,-1 1.3824,0 3.2949,-0.3975 4.25,-0.88333 1.8278,-0.92981 5.3831,-2.42891 8.7364,-3.68371 1.1,-0.41162 2.6361,-0.64079 3.4136,-0.50927 1.2865,0.21763 3.5279,-0.60117 8.3228,-3.04036 0.9551,-0.48583 2.6426,-0.88333 3.75,-0.88333 1.1075,0 2.0136,-0.45 2.0136,-1 0,-0.55 1.1311,-1 2.5136,-1 1.3824,0 3.2949,-0.3975 4.25,-0.88333 0.955,-0.48583 2.9739,-1.38583 4.4864,-2 1.5125,-0.61417 3.9875,-1.61917 5.5,-2.23334 1.5125,-0.61417 3.5314,-1.51417 4.4864,-2 0.9551,-0.48583 2.8676,-0.88333 4.25,-0.88333 1.3825,0 2.5136,-0.45 2.5136,-1 0,-0.55 1.125,-1 2.5,-1 1.375,0 2.5,-0.45 2.5,-1 0,-0.55 1.125,-1 2.5,-1 1.375,0 2.5,-0.45 2.5,-1 0,-0.55 1.575,-1 3.5,-1 1.925,0 3.5,-0.45 3.5,-1 0,-0.55 1.125,-1 2.5,-1 1.375,0 2.5,-0.45 2.5,-1 0,-0.55 1.125,-1 2.5,-1 1.375,0 2.5,-0.45 2.5,-1 0,-0.55 1.3234,-1 2.941,-1 1.6175,0 3.193,-0.40775 3.501,-0.90612 0.308,-0.49837 1.3975,-0.68711 2.4211,-0.41943 1.089,0.28479 2.1003,-0.13679 2.4378,-1.01626 0.3627,-0.94519 1.3417,-1.30291 2.6379,-0.96394 1.1728,0.30669 2.0612,0.0577 2.0612,-0.57762 0,-0.61415 1.575,-1.11663 3.5,-1.11663 1.925,0 3.5,-0.45 3.5,-1 0,-0.55 1.125,-1 2.5,-1 1.375,0 2.5,-0.45 2.5,-1 0,-0.55 1.125,-1 2.5,-1 1.375,0 2.5,-0.45 2.5,-1 0,-0.55 1.1311,-1 2.5136,-1 1.3824,0 3.2949,-0.3975 4.25,-0.88333 0.955,-0.48583 3.0864,-1.43833 4.7364,-2.11667 1.65,-0.67834 3.7814,-1.63084 4.7364,-2.11667 0.9551,-0.48583 2.8676,-0.88333 4.25,-0.88333 1.3825,0 2.5136,-0.45 2.5136,-1 0,-0.55 1.125,-1 2.5,-1 1.375,0 2.5,-0.45 2.5,-1 0,-0.55 1.125,-1 2.5,-1 1.375,0 2.5,-0.45 2.5,-1 0,-0.55 1.575,-1 3.5,-1 1.925,0 3.5,-0.45 3.5,-1 0,-0.55 1.125,-1 2.5,-1 1.375,0 2.5,-0.49814 2.5,-1.10699 0,-0.60884 0.6717,-0.84925 1.4926,-0.53424 0.8209,0.31501 2.025,0.003 2.6758,-0.694 0.6509,-0.69672 2.4542,-1.08023 4.0075,-0.85226 1.6561,0.24307 2.8241,-0.046 2.8241,-0.69901 0,-0.61243 1.125,-1.1135 2.5,-1.1135 1.375,0 2.5,-0.45 2.5,-1 0,-0.55 1.125,-1 2.5,-1 1.375,0 2.5,-0.45 2.5,-1 0,-0.55 1.575,-1 3.5,-1 1.925,0 3.5,-0.45 3.5,-1 0,-0.55 1.125,-1 2.5,-1 1.375,0 2.5,-0.45 2.5,-1 0,-0.55 1.125,-1 2.5,-1 1.375,0 2.5,-0.45 2.5,-1 0,-0.55 1.1311,-1 2.5136,-1 1.3824,0 3.2949,-0.3975 4.25,-0.88333 0.955,-0.48583 3.0864,-1.43833 4.7364,-2.11667 1.65,-0.67834 3.7814,-1.63084 4.7364,-2.11667 0.9551,-0.48583 2.8676,-0.88333 4.25,-0.88333 1.3825,0 2.5136,-0.45 2.5136,-1 0,-0.55 1.125,-1 2.5,-1 1.375,0 2.5,-0.45 2.5,-1 0,-0.55 1.125,-1 2.5,-1 1.375,0 2.5,-0.45 2.5,-1 0,-0.55 1.575,-1 3.5,-1 1.925,0 3.5,-0.40787 3.5,-0.90638 0,-0.49851 0.8945,-0.67246 1.9879,-0.38655 1.2203,0.31912 2.2105,-0.0605 2.5645,-0.98311 0.332,-0.86515 1.3502,-1.30069 2.3993,-1.02633 1.0024,0.26213 2.1249,-0.0126 2.4945,-0.61051 C 595.8157,134.4892 597.4415,134 599.059,134 c 1.6176,0 2.941,-0.45 2.941,-1 0,-0.55 1.125,-1 2.5,-1 1.375,0 2.5,-0.45 2.5,-1 0,-0.55 1.125,-1 2.5,-1 1.375,0 2.5,-0.45 2.5,-1 0,-0.55 1.3234,-1 2.941,-1 1.6175,0 3.2191,-0.45 3.559,-1 0.3399,-0.55 1.7165,-1 3.059,-1 1.3426,0 2.441,-0.45 2.441,-1 0,-0.55 1.125,-1 2.5,-1 1.375,0 2.5,-0.45 2.5,-1 0,-0.55 1.35,-1 3,-1 1.65,0 3,-0.45 3,-1 0,-0.55 0.9061,-1 2.0136,-1 1.1074,0 3.0199,-0.52026 4.25,-1.15613 4.8921,-2.529 5.8025,-2.84387 8.2228,-2.84387 1.3825,0 2.5136,-0.45 2.5136,-1 0,-0.55 1.125,-1 2.5,-1 1.375,0 2.5,-0.45 2.5,-1 0,-0.55 1.125,-1 2.5,-1 1.375,0 2.5,-0.43875 2.5,-0.975 0,-0.53908 1.2769,-0.71961 2.8561,-0.40378 2.0198,0.40396 3.0267,0.12656 3.4388,-0.94738 0.3683,-0.95969 1.3414,-1.32022 2.6439,-0.97959 1.1728,0.30669 2.0612,0.0577 2.0612,-0.57762 0,-0.61415 1.125,-1.11663 2.5,-1.11663 1.375,0 2.5,-0.45 2.5,-1 0,-0.55 1.575,-1 3.5,-1 1.925,0 3.5,-0.45 3.5,-1 0,-0.55 1.125,-1 2.5,-1 1.375,0 2.5,-0.45 2.5,-1 0,-0.55 1.125,-1 2.5,-1 1.375,0 2.5,-0.45 2.5,-1 0,-0.55 1.1311,-1 2.5136,-1 1.3824,0 3.2949,-0.397498 4.25,-0.883329 0.955,-0.48583 3.0864,-1.438332 4.7364,-2.116671 1.65,-0.678339 3.7814,-1.630841 4.7364,-2.116671 C 712.1915,93.397498 714.104,93 715.4864,93 716.8689,93 718,92.55 718,92 c 0,-0.55 1.125,-1 2.5,-1 1.375,0 2.5,-0.45 2.5,-1 0,-0.55 1.125,-1 2.5,-1 1.375,0 2.5,-0.45 2.5,-1 0,-0.55 1.575,-1 3.5,-1 1.925,0 3.5,-0.498145 3.5,-1.106989 0,-0.608844 0.6717,-0.849252 1.4926,-0.53424 0.8209,0.315012 2.0451,-0.01877 2.7204,-0.741737 0.6754,-0.722967 1.9779,-1.118356 2.8946,-0.878642 0.9167,0.239714 1.969,-0.05336 2.3386,-0.651274 0.8674,-1.403576 9.2305,-1.419269 10.0959,-0.01894 0.3631,0.587495 1.2568,0.839244 1.9859,0.559441 0.7292,-0.279803 1.8416,0.11277 2.472,0.872385 0.6304,0.759615 1.7428,1.152188 2.472,0.872385 0.7291,-0.279803 1.6228,-0.02805 1.9859,0.559441 0.3631,0.587492 1.7647,1.06817 3.1147,1.06817 1.35,0 3.2359,0.397498 4.191,0.883329 0.955,0.48583 3.0864,1.438332 4.7364,2.116671 1.65,0.678339 3.7814,1.630841 4.7364,2.116671 C 781.1915,92.602502 783.104,93 784.4864,93 785.8689,93 787,93.45 787,94 c 0,0.55 1.125,1 2.5,1 1.375,0 2.5,0.45 2.5,1 0,0.55 1.125,1 2.5,1 1.375,0 2.5,0.45 2.5,1 0,0.55 1.575,1 3.5,1 1.925,0 3.5,0.45 3.5,1 0,0.55 1.125,1 2.5,1 1.375,0 2.5,0.45 2.5,1 0,0.55 1.125,1 2.5,1 1.375,0 2.5,0.45 2.5,1 0,0.55 1.1311,1 2.5136,1 1.3824,0 3.2949,0.3975 4.25,0.88333 0.955,0.48583 2.8614,1.32562 4.2364,1.8662 1.375,0.54058 3.6639,1.52972 5.0864,2.19809 1.4225,0.66836 3.2225,1.10759 4,0.97607 0.7775,-0.13152 2.3136,0.0977 3.4136,0.50927 3.3533,1.2548 6.9086,2.7539 8.7364,3.68371 0.9551,0.48583 2.8676,0.88333 4.25,0.88333 1.3825,0 2.5136,0.45 2.5136,1 0,0.55 1.125,1 2.5,1 1.375,0 2.5,0.45 2.5,1 0,0.55 1.125,1 2.5,1 1.375,0 2.5,0.45 2.5,1 0,0.55 1.575,1 3.5,1 1.925,0 3.5,0.45 3.5,1 0,0.55 1.125,1 2.5,1 1.375,0 2.5,0.45 2.5,1 0,0.55 1.125,1 2.5,1 1.375,0 2.5,0.45 2.5,1 0,0.55 1.1311,1 2.5136,1 1.3824,0 3.2949,0.3975 4.25,0.88333 0.955,0.48583 3.0864,1.43833 4.7364,2.11667 1.65,0.67834 3.7814,1.63084 4.7364,2.11667 C 897.1915,133.6025 898.8851,134 900,134 c 1.1149,0 3.0335,0.52026 4.2636,1.15613 4.9191,2.54293 5.7161,2.78888 7.1969,2.22067 0.8467,-0.32493 1.5395,-0.0926 1.5395,0.51621 0,0.60885 1.1311,1.10699 2.5136,1.10699 1.3824,0 3.2949,0.3975 4.25,0.88333 0.955,0.48583 3.0864,1.43833 4.7364,2.11667 1.65,0.67834 3.7814,1.63084 4.7364,2.11667 0.9551,0.48583 2.8676,0.88333 4.25,0.88333 1.3825,0 2.5136,0.45 2.5136,1 0,0.55 1.125,1 2.5,1 1.375,0 2.5,0.45 2.5,1 0,0.55 1.125,1 2.5,1 1.375,0 2.5,0.45 2.5,1 0,0.55 1.575,1 3.5,1 1.925,0 3.5,0.45 3.5,1 0,0.55 1.125,1 2.5,1 1.375,0 2.5,0.45 2.5,1 0,0.55 1.125,1 2.5,1 1.375,0 2.5,0.45 2.5,1 0,0.55 1.1311,1 2.5136,1 1.3824,0 3.2949,0.3975 4.25,0.88333 0.955,0.48583 2.9739,1.38583 4.4864,2 1.5125,0.61417 3.8446,1.62646 5.1825,2.24955 1.3379,0.62308 3.105,0.87483 3.9269,0.55944 0.8219,-0.31539 2.0408,0.085 2.7087,0.8897 0.6893,0.83059 2.0179,1.20808 3.0731,0.87317 1.0223,-0.32448 1.8588,-0.10964 1.8588,0.47742 0,0.58707 1.125,1.06739 2.5,1.06739 1.375,0 2.5,0.45 2.5,1 0,0.55 1.1311,1 2.5136,1 1.3824,0 3.2949,0.3975 4.25,0.88333 1.7885,0.90983 5.8514,2.64317 10.2364,4.36714 1.375,0.54058 3.2814,1.38037 4.2364,1.8662 0.9551,0.48583 2.8676,0.88333 4.25,0.88333 1.3825,0 2.5136,0.45 2.5136,1 0,0.55 1.125,1 2.5,1 1.375,0 2.5,0.45 2.5,1 0,0.55 1.125,1 2.5,1 1.375,0 2.5,0.45 2.5,1 0,0.55 1.575,1 3.5,1 1.925,0 3.5,0.45 3.5,1 0,0.55 1.125,1 2.5,1 1.375,0 2.5,0.45 2.5,1 0,0.55 1.125,1 2.5,1 1.375,0 2.5,0.45 2.5,1 0,0.55 1.3234,1 2.941,1 1.6175,0 3.2433,0.4892 3.6128,1.08712 0.3696,0.59791 1.5211,0.86504 2.5591,0.59362 1.0379,-0.27143 1.8871,-0.0856 1.8871,0.41288 0,0.49851 1.125,0.90638 2.5,0.90638 1.375,0 2.5,0.45 2.5,1 0,0.55 1.575,1 3.5,1 1.925,0 3.5,0.45 3.5,1 0,0.55 1.125,1 2.5,1 1.375,0 2.5,0.45 2.5,1 0,0.55 1.125,1 2.5,1 1.375,0 2.5,0.45 2.5,1 0,0.55 1.1311,1 2.5136,1 1.3824,0 3.2949,0.3975 4.25,0.88333 0.955,0.48583 3.0864,1.43833 4.7364,2.11667 1.65,0.67834 3.7814,1.63084 4.7364,2.11667 0.9551,0.48583 2.8676,0.88333 4.25,0.88333 1.3825,0 2.5136,0.45 2.5136,1 0,0.55 1.125,1 2.5,1 1.375,0 2.5,0.45 2.5,1 0,0.55 1.125,1 2.5,1 1.375,0 2.5,0.45 2.5,1 0,0.55 1.575,1 3.5,1 1.925,0 3.5,0.45 3.5,1 0,0.55 1.125,1 2.5,1 1.375,0 2.5,0.50248 2.5,1.11663 0,0.63535 0.8884,0.88431 2.0612,0.57762 1.3025,-0.34063 2.2756,0.0199 2.6439,0.97959 0.4121,1.07394 1.419,1.35134 3.4388,0.94738 1.5792,-0.31583 2.8561,-0.1353 2.8561,0.40378 0,0.53625 1.125,0.975 2.5,0.975 1.375,0 2.5,0.45 2.5,1 0,0.55 1.125,1 2.5,1 1.375,0 2.5,0.45 2.5,1 0,0.55 1.575,1 3.5,1 1.925,0 3.5,0.45 3.5,1 0,0.55 1.125,1 2.5,1 1.375,0 2.5,0.45 2.5,1 0,0.55 1.125,1 2.5,1 1.375,0 2.5,0.45 2.5,1 0,0.55 1.1311,1 2.5136,1 1.3824,0 3.2949,0.3975 4.25,0.88333 0.955,0.48583 3.0864,1.43833 4.7364,2.11667 1.65,0.67834 3.7814,1.63084 4.7364,2.11667 0.9551,0.48583 2.8676,0.88333 4.25,0.88333 1.3825,0 2.5136,0.45 2.5136,1 0,0.55 1.125,1 2.5,1 1.375,0 2.5,0.45 2.5,1 0,0.55 1.125,1 2.5,1 1.375,0 2.5,0.45 2.5,1 0,0.55 1.3234,1 2.941,1 1.6175,0 3.2433,0.4892 3.6128,1.08712 0.3696,0.59791 1.4219,0.89099 2.3386,0.65127 0.9167,-0.23971 2.262,0.20151 2.9897,0.9805 0.7277,0.77899 1.9519,1.17504 2.7205,0.88011 0.7686,-0.29492 1.3974,-0.10035 1.3974,0.43238 0,0.53274 1.575,0.96862 3.5,0.96862 1.925,0 3.5,0.45 3.5,1 0,0.55 1.125,1 2.5,1 1.375,0 2.5,0.45 2.5,1 0,0.55 1.125,1 2.5,1 1.375,0 2.5,0.45 2.5,1 0,0.55 1.1311,1 2.5136,1 1.3824,0 3.2949,0.3975 4.25,0.88333 0.955,0.48583 3.0864,1.43833 4.7364,2.11667 1.65,0.67834 3.7814,1.63084 4.7364,2.11667 0.9551,0.48583 2.8676,0.88333 4.25,0.88333 1.3825,0 2.5136,0.45 2.5136,1 0,0.55 1.35,1 3,1 h 3 v 13.39301 c 0,10.38944 -0.3059,13.51041 -1.3641,13.91647 -1.0881,0.41753 -1.5106,6.66189 -2.0879,30.85699 -0.3982,16.68344 -1.1343,30.76103 -1.6359,31.28353 -0.5017,0.5225 -0.9121,6.23344 -0.9121,12.69098 0,6.45754 -0.3947,11.98493 -0.8771,12.28309 -0.4825,0.29816 -1.2077,10.67921 -1.6117,23.069 -0.404,12.38979 -1.1343,22.77396 -1.6228,23.07593 -0.4886,0.30197 -0.8884,4.77092 -0.8884,9.931 0,5.16008 -0.402,9.63039 -0.8932,9.93402 -0.4913,0.30363 -1.2213,7.98758 -1.6221,17.07546 -0.4009,9.08787 -1.1239,16.76756 -1.6068,17.06598 -0.4828,0.29841 -0.8779,4.25102 -0.8779,8.78356 0,4.61516 -0.4797,8.72064 -1.0902,9.33117 -0.6431,0.64307 -0.9507,3.80189 -0.75,7.7021 0.1871,3.63655 0,6.61096 -0.4098,6.60981 -0.4125,-10e-4 -0.75,3.5979 -0.75,7.9979 0,4.66667 -0.4167,8 -1,8 -0.5632,0 -1,2.81366 -1,6.44098 0,3.54254 -0.48,6.73764 -1.0666,7.10021 -0.6081,0.37577 -0.9633,3.1929 -0.8262,6.55184 0.1323,3.24093 -0.063,6.19584 -0.4334,6.56646 -0.3706,0.37061 -0.6738,3.52384 -0.6738,7.00718 0,3.55555 -0.4386,6.33333 -1,6.33333 -0.5545,0 -1,2.64699 -1,5.94098 0,3.28965 -0.4975,6.24845 -1.1147,6.62994 -0.6845,0.423 -0.9341,2.5689 -0.6468,5.55901 0.2573,2.67854 0.084,4.87007 -0.3853,4.87007 -0.4693,0 -0.8532,2.7 -0.8532,6 0,3.3 -0.41,6 -0.9112,6 -0.9668,0 -1.9731,9.01516 -1.9812,17.75 0,3.00131 -0.4552,5.25 -1.0562,5.25 -0.595,0 -1.0514,2.17041 -1.0514,5 0,2.75 -0.392,5 -0.8712,5 -0.4791,0 -1.1899,4.49554 -1.5794,9.99008 -0.3896,5.49454 -1.1225,10.2461 -1.6288,10.55902 -0.5063,0.31291 -0.9206,2.54082 -0.9206,4.9509 0,2.41008 -0.402,4.6304 -0.8933,4.93405 -0.4913,0.30364 -1.2143,4.60832 -1.6067,9.56595 -0.3924,4.95763 -1.1154,9.26231 -1.6067,9.56595 -0.4913,0.30365 -0.8933,2.07397 -0.8933,3.93405 0,1.86008 -0.391,3.62364 -0.869,3.91901 -0.4779,0.29538 -1.1831,4.13907 -1.5672,8.54153 -0.384,4.40247 -1.118,8.26391 -1.631,8.58099 -0.513,0.31708 -0.9328,2.54839 -0.9328,4.95847 0,2.41008 -0.4119,4.63653 -0.9153,4.94766 -0.5034,0.31113 -1.2313,3.93768 -1.6175,8.05901 -0.3862,4.12133 -1.0993,7.49333 -1.5847,7.49333 -0.4854,0 -0.8825,1.54844 -0.8825,3.44098 0,1.89254 -0.4119,3.69555 -0.9153,4.00668 -0.5034,0.31113 -1.2313,3.93768 -1.6175,8.05901 -0.3862,4.12133 -1.0993,7.49333 -1.5847,7.49333 -0.4854,0 -0.8825,1.8 -0.8825,4 0,2.2 -0.4116,4 -0.9147,4 -0.5031,0 -1.2309,3.375 -1.6175,7.5 -0.3865,4.125 -1.0999,7.5 -1.5853,7.5 -0.4854,0 -0.8825,1.35 -0.8825,3 0,1.65 -0.3859,3 -0.8575,3 -0.4717,0 -1.1495,2.7928 -1.5063,6.20622 -0.3567,3.41342 -1.0958,6.65342 -1.6424,7.2 -0.5466,0.54658 -0.9938,2.45222 -0.9938,4.23476 0,1.78254 -0.4292,3.50625 -0.9538,3.83046 -0.5246,0.32421 -1.2588,3.28584 -1.6317,6.58139 -0.3728,3.29556 -1.0686,6.23341 -1.5462,6.52856 -0.4776,0.29516 -0.8683,1.60853 -0.8683,2.91861 0,1.31008 -0.4185,2.64062 -0.93,2.95675 -0.5115,0.31612 -1.2384,3.04268 -1.6152,6.05901 -0.3769,3.01633 -1.0834,5.48424 -1.57,5.48424 -0.4867,0 -0.8848,1.32344 -0.8848,2.94098 0,1.61754 -0.4892,3.24333 -1.0871,3.61286 -0.5979,0.36953 -0.8652,1.52064 -0.5939,2.55802 0.2713,1.03738 0.086,2.13815 -0.4129,2.44616 -0.4983,0.30801 -0.9061,1.6319 -0.9061,2.94198 0,1.31008 -0.45,2.66008 -1,3 -0.55,0.33992 -1,2.13992 -1,4 0,1.86008 -0.4573,3.66462 -1.0163,4.01008 -0.559,0.34546 -0.7766,1.01593 -0.4837,1.48992 0.2929,0.47399 0.075,1.14446 -0.4837,1.48992 -0.559,0.34546 -1.0163,1.50766 -1.0163,2.58267 0,1.075 -0.3897,2.73594 -0.866,3.69098 -1.7719,3.55318 -2.9981,8.42713 -2.4677,9.80931 0.3012,0.78492 0.049,1.42712 -0.5593,1.42712 -0.6089,0 -1.107,1.35 -1.107,3 0,1.65 -0.45,3 -1,3 -0.55,0 -1.0028,1.2375 -1.0062,2.75 0,1.5125 -0.6783,4.03894 -1.5,5.61431 -0.8216,1.57537 -1.4938,3.68631 -1.4938,4.69098 0,1.00467 -0.3981,2.0727 -0.8846,2.3734 -0.4865,0.30069 -1.1891,2.57725 -1.5613,5.05901 -0.3721,2.48177 -1.0991,4.5123 -1.6154,4.5123 -0.5163,0 -0.9387,1.35 -0.9387,3 0,1.65 -0.4104,3 -0.9121,3 -0.5017,0 -1.2299,1.88114 -1.6184,4.18032 -0.3884,2.29917 -1.4997,5.59303 -2.4695,7.31968 -0.9698,1.72665 -2.0811,5.02051 -2.4695,7.31968 -0.3885,2.29918 -1.1167,4.18032 -1.6184,4.18032 -0.5017,0 -0.9121,1.35 -0.9121,3 0,1.65 -0.45,3 -1,3 -0.55,0 -1.0019,0.7875 -1.0042,1.75 0,0.9625 -1.0873,3.8847 -2.411,6.49378 -1.3238,2.60908 -2.7115,6.54658 -3.0837,8.75 -0.3723,2.20342 -1.0873,4.00622 -1.589,4.00622 -0.5017,0 -0.9121,0.9 -0.9121,2 0,1.1 -0.45,2 -1,2 -0.55,0 -1.0101,1.2375 -1.0224,2.75 -0.012,1.5125 -1.3522,5.45 -2.9776,8.75 -1.6254,3.3 -2.9653,6.7875 -2.9776,7.75 -0.012,0.9625 -0.4724,1.75 -1.0224,1.75 -0.55,0 -1,0.9 -1,2 0,1.1 -0.45,2 -1,2 -0.55,0 -1.0019,0.7875 -1.0042,1.75 0,0.9625 -1.0705,3.8515 -2.3737,6.42 -1.3032,2.5685 -2.6762,6.3049 -3.0511,8.3031 -0.3749,1.9983 -1.4442,4.5238 -2.3763,5.6125 -0.9321,1.0886 -1.601,2.1797 -1.4865,2.4248 0.1144,0.2451 -1.1223,2.9747 -2.7483,6.0659 -1.6261,3.0911 -2.7057,6.026 -2.3992,6.522 0.3066,0.4959 0.081,0.9017 -0.5017,0.9017 -0.5824,0 -1.059,0.9 -1.059,2 0,1.1 -0.45,2 -1,2 -0.55,0 -1,0.8734 -1,1.941 0,1.0675 -0.4573,2.2236 -1.0163,2.5691 -0.559,0.3454 -0.7995,0.9789 -0.5346,1.4076 0.265,0.4287 -0.4027,1.7287 -1.4837,2.889 -1.081,1.1603 -1.9654,2.6032 -1.9654,3.2064 0,1.6782 -3.8635,9.7845 -4.9974,10.4853 -0.5514,0.3408 -1.0026,1.4931 -1.0026,2.5606 0,1.0676 -0.45,1.941 -1,1.941 -0.55,0 -1,0.8734 -1,1.941 0,1.0675 -0.4215,2.2015 -0.9367,2.5199 -1.2298,0.76 -4.0633,6.4732 -4.0633,8.1927 0,0.7405 -0.45,1.3464 -1,1.3464 -0.55,0 -1,0.8449 -1,1.8776 0,1.0326 -0.675,2.4377 -1.5,3.1224 -0.825,0.6847 -1.5,1.8097 -1.5,2.5 0,0.6903 -0.675,1.8153 -1.5,2.5 -0.825,0.6847 -1.5,2.0898 -1.5,3.1224 0,1.0327 -0.45,1.8776 -1,1.8776 -0.55,0 -1,0.8734 -1,1.941 0,1.0675 -0.438,2.2116 -0.9732,2.5425 -0.5353,0.3308 -1.7116,2.1573 -2.614,4.059 -0.9024,1.9016 -2.0394,3.4575 -2.5267,3.4575 -0.4874,0 -0.8861,0.8449 -0.8861,1.8776 0,1.0326 -0.675,2.4377 -1.5,3.1224 -0.825,0.6847 -1.5,1.8097 -1.5,2.5 0,0.6903 -0.675,1.8153 -1.5,2.5 -0.825,0.6847 -1.5,2.0898 -1.5,3.1224 0,1.0327 -0.3987,1.8776 -0.8861,1.8776 -0.4873,0 -1.6821,1.6875 -2.6551,3.75 -0.9729,2.0625 -2.6405,4.5136 -3.7057,5.4469 -1.0652,0.9333 -1.681,2.1107 -1.3685,2.6164 0.3125,0.5057 -0.3212,1.7243 -1.4082,2.708 -1.087,0.9838 -1.9764,2.3735 -1.9764,3.0882 0,0.7148 -1.125,2.4246 -2.5,3.7996 -1.375,1.375 -2.5,3.0875 -2.5,3.8057 0,0.7181 -1.125,2.5189 -2.5,4.0018 -1.375,1.4829 -2.5,3.321 -2.5,4.0848 0,0.7637 -0.9371,2.2367 -2.0826,3.2733 -1.1454,1.0366 -2.6797,3.2438 -3.4095,4.905 -0.7299,1.6612 -2.7177,4.4584 -4.4175,6.2161 -1.6997,1.7576 -3.0904,3.8014 -3.0904,4.5416 0,0.7403 -1.575,3.0157 -3.5,5.0566 -1.925,2.0408 -3.5,4.211 -3.5,4.8225 0,0.6116 -2.25,3.7091 -5,6.8835 -2.75,3.1744 -5,6.2041 -5,6.7328 0,0.5286 -0.7875,1.8829 -1.75,3.0094 -0.9625,1.1264 -3.7496,4.4003 -6.1936,7.2752 -2.444,2.8748 -5.0315,5.8149 -5.75,6.5334 -0.7185,0.7185 -1.3168,1.901 -1.3296,2.6278 -0.013,0.7268 -1.4753,2.9372 -3.25,4.9121 -4.7168,5.2488 -9.7044,11.0142 -14.0802,16.2758 -2.1193,2.5484 -4.4818,4.6335 -5.25,4.6335 -0.7681,0 -1.4086,0.3375 -1.4233,0.75 -0.015,0.4125 -1.7022,2.6022 -3.75,4.8659 -2.0478,2.2637 -5.6759,6.4262 -8.0624,9.25 -2.3865,2.8238 -4.8615,5.1643 -5.5,5.2013 -0.6385,0.037 -3.5497,2.962 -6.4694,6.5 -2.9197,3.538 -5.9572,6.4328 -6.75,6.4328 -0.7928,0 -1.4487,0.3375 -1.4575,0.75 -0.024,1.1178 -5.6112,7.2486 -6.6157,7.2591 -0.4776,0.01 -1.9314,1.355 -3.2309,3 -1.2994,1.645 -2.7756,2.9909 -3.2805,2.9909 -0.5049,0 -2.3009,1.575 -3.991,3.5 -1.6902,1.925 -3.589,3.5013 -4.2195,3.5029 -0.6305,0 -2.0464,1.3503 -3.1464,2.9971 -1.1,1.6468 -2.5587,2.9955 -3.2415,2.9971 -0.6829,0 -1.8036,0.9029 -2.4906,2.0029 -0.6869,1.1 -1.8119,2 -2.5,2 -0.688,0 -1.813,0.9 -2.5,2 -0.6869,1.1 -1.9325,2 -2.7679,2 -0.8354,0 -2.081,0.9 -2.7679,2 -0.687,1.1 -1.812,2 -2.5,2 -0.6881,0 -1.824,0.9175 -2.5243,2.0388 -0.7002,1.1213 -1.6369,1.814 -2.0815,1.5393 -0.4445,-0.2748 -1.7933,0.8328 -2.9972,2.4612 -1.2039,1.6284 -2.7423,2.9607 -3.4185,2.9607 -0.6762,0 -1.7916,0.9 -2.4785,2 -0.687,1.1 -1.9202,2 -2.7406,2 -0.8203,0 -1.4915,0.3401 -1.4915,0.7559 0,0.4157 -1.4625,1.3956 -3.25,2.1775 -1.7875,0.7819 -3.838,2.2417 -4.5567,3.2441 -0.7187,1.0024 -1.9562,1.8225 -2.75,1.8225 -0.7938,0 -1.4433,0.45 -1.4433,1 0,0.55 -0.5757,1 -1.2792,1 -0.7036,0 -1.928,0.9 -2.7208,2 -0.7928,1.1 -2.0172,2 -2.7208,2 -0.7035,0 -1.2792,0.3975 -1.2792,0.8834 0,0.4858 -0.7875,1.1478 -1.75,1.4709 -1.8403,0.6179 -5.4006,2.7404 -6.25,3.7258 -0.275,0.3191 -1.9625,1.2164 -3.75,1.9941 -1.7875,0.7777 -3.25,1.7542 -3.25,2.1699 0,0.4158 -0.675,0.7559 -1.5,0.7559 -0.825,0 -1.5,0.366 -1.5,0.8134 0,0.4473 -1.575,1.4313 -3.5,2.1866 -1.925,0.7553 -3.5,1.7393 -3.5,2.1866 0,0.4474 -0.675,0.8134 -1.5,0.8134 -0.825,0 -1.5,0.366 -1.5,0.8134 0,0.4473 -1.575,1.4313 -3.5,2.1866 -1.925,0.7553 -3.5,1.7393 -3.5,2.1866 0,0.4474 -0.675,0.8134 -1.5,0.8134 -0.825,0 -1.5,0.366 -1.5,0.8134 0,0.4473 -1.575,1.4313 -3.5,2.1866 -1.925,0.7553 -3.5,1.7393 -3.5,2.1866 0,0.4474 -0.3375,0.742 -0.75,0.6546 -1.1555,-0.2446 -9.0622,2.9635 -10.25,4.1588 -0.5818,0.5855 -4.13,2.2726 -8.75,4.1603 -1.7875,0.7303 -3.25,1.6681 -3.25,2.0838 0,0.4158 -0.675,0.7559 -1.5,0.7559 -0.825,0 -1.5,0.3401 -1.5,0.7559 0,0.4157 -1.4625,1.3535 -3.25,2.0838 -1.7875,0.7304 -4.15,1.7025 -5.25,2.1603 -1.1,0.4578 -3.4625,1.4299 -5.25,2.1603 -1.7875,0.7303 -3.25,1.6681 -3.25,2.0838 0,0.4158 -1.125,0.7559 -2.5,0.7559 -1.375,0 -2.5,0.45 -2.5,1 0,0.55 -1.125,1 -2.5,1 -1.375,0 -2.5,0.3975 -2.5,0.8834 0,0.957 -3.7697,2.4175 -5.6746,2.1986 -0.646,-0.074 -1.4601,0.3269 -1.809,0.8915 -0.3489,0.5646 -1.7329,1.0265 -3.0754,1.0265 -1.5031,0 -2.441,0.5763 -2.441,1.5 0,1.1057 -1.1548,1.5 -4.393,1.5 -2.9824,0 -4.5778,-0.4817 -4.9686,-1.5 z m 13.392,-41.0626 c 26.795,-11.271 75.3702,-38.2239 93.2975,-51.768 4.8553,-3.6682 9.2242,-6.6694 9.7087,-6.6694 0.4845,0 4.162,-2.7521 8.1722,-6.1159 4.0101,-3.3637 10.1905,-8.2012 13.7342,-10.75 3.5436,-2.5487 8.9436,-6.9137 12,-9.6999 3.0563,-2.7861 9.157,-8.2096 13.557,-12.0522 16.7408,-14.6198 56.7585,-56.0445 62.4482,-64.6438 1.9535,-2.9525 5.878,-8.0389 8.7211,-11.3031 5.0614,-5.8111 7.6636,-9.2979 16.7431,-22.4351 2.4708,-3.575 6.2891,-8.975 8.4851,-12 5.0009,-6.8888 10.2708,-14.8571 17.7616,-26.8562 3.2125,-5.1459 7.6822,-12.1339 9.9328,-15.5288 3.8465,-5.8025 8.1754,-13.3096 19.4313,-33.6976 11.3001,-20.4683 27.9166,-55.3701 39.4764,-82.9174 1.2694,-3.025 4.3397,-10.225 6.8229,-16 2.4832,-5.775 5.1868,-12.525 6.0081,-15 2.4924,-7.51156 6.2458,-17.3708 7.4967,-19.69234 0.6498,-1.20578 2.7372,-6.89192 4.6388,-12.63586 1.9016,-5.74393 4.1108,-11.95738 4.9094,-13.80766 1.554,-3.60056 9.9611,-29.48541 13.597,-41.86414 1.2116,-4.125 3.5421,-12 5.1789,-17.5 1.6368,-5.5 3.6061,-12.25 4.3762,-15 0.7702,-2.75 2.3489,-8.375 3.5083,-12.5 6.1553,-21.8999 11.9042,-44.40283 12.9067,-50.52134 0.4526,-2.76174 1.5116,-7.05016 2.3535,-9.52982 0.8419,-2.47965 1.819,-6.29505 2.1715,-8.47865 0.3524,-2.18361 1.6964,-8.69519 2.9867,-14.47019 7.3986,-33.11576 11.4244,-52.59318 12.5048,-60.5 0.451,-3.3 1.5208,-8.7 2.3775,-12 0.8567,-3.3 1.849,-8.475 2.205,-11.5 0.3561,-3.025 1.7299,-10.99964 3.0529,-17.72143 1.323,-6.72179 2.408,-13.92179 2.4111,-16 0,-2.07821 0.4392,-5.35357 0.9691,-7.27857 0.53,-1.925 1.4744,-7.55 2.0986,-12.5 0.6243,-4.95 1.4971,-11.25 1.9395,-14 0.4424,-2.75 1.5081,-10.175 2.3682,-16.5 2.6032,-19.14276 3.381,-24.3862 4.0054,-27 0.3285,-1.375 1.0678,-7.45 1.6429,-13.5 0.5751,-6.05 1.4698,-13.925 1.9882,-17.5 0.5184,-3.575 1.6711,-13.7 2.5616,-22.5 0.8904,-8.8 1.9922,-19.375 2.4484,-23.5 0.4561,-4.125 1.5783,-15.825 2.4938,-26 0.9154,-10.175 2.061,-22.55 2.5458,-27.5 0.4847,-4.95 1.3499,-18 1.9227,-29 0.5727,-11 1.4843,-22.50209 2.0258,-25.5602 0.5414,-3.0581 0.9844,-9.36107 0.9844,-14.0066 0,-4.64552 0.397,-9.83074 0.8823,-11.52271 0.4852,-1.69197 1.212,-14.514 1.6151,-28.4934 l 0.7328,-25.41709 -8.8651,-3.21388 c -4.8758,-1.76764 -12.6901,-4.39631 -17.3651,-5.8415 -7.9699,-2.46373 -14.2934,-4.72688 -30,-10.73673 -3.575,-1.36792 -8.075,-2.9574 -10,-3.53218 -1.925,-0.57478 -8.675,-2.91343 -15,-5.19699 -6.325,-2.28357 -13.75,-4.74895 -16.5,-5.47862 -4.7663,-1.26465 -16.9556,-5.554 -35.5,-12.49226 -12.7105,-4.75555 -24.081,-8.70315 -38,-13.19289 -17.0243,-5.49137 -32.7656,-11.10652 -53.5,-19.08414 -4.95,-1.90453 -13.725,-4.91902 -19.5,-6.69886 -5.775,-1.77985 -14.2039,-4.56276 -18.7309,-6.18426 -4.527,-1.6215 -12.177,-4.33348 -17,-6.02664 -4.823,-1.69315 -12.1441,-4.3387 -16.2691,-5.879 -12.2999,-4.59285 -23.919,-8.64469 -34,-11.85652 -5.225,-1.6647 -14.675,-4.87557 -21,-7.13527 -6.325,-2.2597 -15.1,-5.37154 -19.5,-6.9152 -4.4,-1.54365 -11.825,-4.25011 -16.5,-6.01435 -4.675,-1.76423 -10.75,-3.8016 -13.5,-4.52749 -2.75,-0.72588 -10.175,-3.19443 -16.5,-5.48565 -6.325,-2.29122 -15.1,-5.42885 -19.5,-6.97251 -4.4,-1.54365 -11.825,-4.25988 -16.5,-6.03606 -4.675,-1.77618 -11.3877,-4.14589 -14.9172,-5.26602 l -6.4171,-2.0366 -6.5829,2.05658 c -7.5167,2.34834 -19.716,6.62793 -32.0828,11.25488 -18.2957,6.84521 -30.7166,11.22406 -35.5,12.51514 -4.8267,1.30277 -15.5058,4.93899 -28,9.53397 -16.0625,5.90729 -29.0791,10.50089 -40,14.11621 -18.5855,6.15265 -37.2269,12.69241 -53.5,18.76889 -11.6249,4.34079 -23.352,8.4141 -37,12.85159 -14.5419,4.72814 -26.0841,8.74792 -38,13.23421 -4.675,1.76013 -13.9,4.97122 -20.5,7.13578 -6.6,2.16455 -14.025,4.64198 -16.5,5.50539 -19.9355,6.95455 -29.9295,10.5321 -54,19.33031 -6.325,2.3119 -13.75,4.79076 -16.5,5.50857 -2.75,0.71781 -8.825,2.74858 -13.5,4.51281 -4.675,1.76424 -12.1,4.4707 -16.5,6.01435 -4.4,1.54366 -13.175,4.6555 -19.5,6.9152 -6.325,2.2597 -15.775,5.47078 -21,7.13575 -5.225,1.66496 -12.875,4.3171 -17,5.89364 -4.125,1.57654 -8.155,3.04439 -8.9555,3.26189 -1.2209,0.33172 -1.4076,3.36499 -1.1585,18.82051 0.1634,10.13378 0.5893,18.87795 0.9464,19.4315 0.3572,0.55355 0.9598,7.75645 1.339,16.00645 1.8728,40.7396 2.7945,57.35043 3.3844,61 0.3557,2.2 1.0126,8.95 1.4598,15 1.4512,19.6331 4.0202,48.81624 4.9736,56.5 0.5119,4.125 1.383,13.35 1.9358,20.5 0.5528,7.15 1.4586,15.925 2.0128,19.5 1.2698,8.1898 1.8126,12.45464 3.5638,28 2.621,23.26692 3.3945,29.48414 4.4478,35.75 1.9617,11.67026 3.0028,18.7356 3.647,24.75 0.3534,3.3 1.4888,10.01825 2.5231,14.92945 1.0343,4.9112 1.8805,10.39062 1.8805,12.1765 0,1.78587 0.9393,7.89261 2.0873,13.57054 1.148,5.67793 2.4326,12.79851 2.8546,15.82351 0.988,7.08088 4.5127,25.48003 7.5669,39.5 1.318,6.05 2.6885,13.025 3.0455,15.5 0.3571,2.475 2.6284,12.75994 5.0474,22.85541 2.4191,10.09548 4.3983,19.27196 4.3983,20.39219 0,1.12023 0.9362,5.18049 2.0805,9.02281 1.1443,3.84231 2.4685,9.06583 2.9427,11.60781 0.4742,2.54198 2.0569,9.12178 3.5172,14.62178 1.4602,5.5 3.709,14.05 4.9973,19 4.6808,17.98462 9.1089,33.22771 15.542,53.5 2.1816,6.875 3.9562,13.30985 3.9434,14.29966 -0.013,0.98981 0.6431,3.08796 1.4574,4.66255 0.8142,1.57458 3.0988,7.96474 5.0768,14.20034 1.978,6.2356 4.254,12.85131 5.0578,14.70159 0.8038,1.85028 2.9736,7.93192 4.8219,13.51476 1.8482,5.58284 4.267,12.16897 5.375,14.63586 1.108,2.46688 3.4647,8.53524 5.237,13.48524 1.7724,4.95 5.9079,15.3 9.19,23 3.2821,7.7 8.26,19.4 11.062,26 5.2611,12.3926 33.5457,69.0058 40.2186,80.5 2.0755,3.575 5.7874,10.1 8.2487,14.5 5.8812,10.5138 26.0062,41.5461 35.3442,54.5 2.1806,3.025 5.17,7.3 6.643,9.5 1.473,2.2 4.7645,6.475 7.3144,9.5 2.5499,3.025 5.7729,7.3 7.1623,9.5 1.3893,2.2 6.2488,8.275 10.799,13.5 4.5501,5.225 12.1268,14 16.8371,19.5 21.385,24.9705 67.4253,67.3252 91.6317,84.2965 35.6292,24.9799 45.6999,31.3022 68.5,43.003 25.8255,13.2535 36.411,18.4857 41,20.2652 2.475,0.9597 4.5137,1.7878 4.5304,1.8401 0.017,0.052 3.8417,-1.508 8.5,-3.4674 z"
       id="path16" />
  </g>
</svg>
