<?xml version="1.0" encoding="UTF-8" standalone="no"?>
<svg
   xmlns:dc="http://purl.org/dc/elements/1.1/"
   xmlns:cc="http://creativecommons.org/ns#"
   xmlns:rdf="http://www.w3.org/1999/02/22-rdf-syntax-ns#"
   xmlns:svg="http://www.w3.org/2000/svg"
   xmlns="http://www.w3.org/2000/svg"
   xmlns:sodipodi="http://sodipodi.sourceforge.net/DTD/sodipodi-0.dtd"
   xmlns:inkscape="http://www.inkscape.org/namespaces/inkscape"
   version="1.1"
   id="svg2"
   width="1045.0201"
   height="1337.8683"
   viewBox="0 0 1045.0201 1337.8683"
   sodipodi:docname="Illsterheim.svg"
   inkscape:version="1.0.1 (3bc2e813f5, 2020-09-07)">
  <metadata
     id="metadata8">
    <rdf:RDF>
      <cc:Work
         rdf:about="">
        <dc:format>image/svg+xml</dc:format>
        <dc:type
           rdf:resource="http://purl.org/dc/dcmitype/StillImage" />
        <dc:title></dc:title>
      </cc:Work>
    </rdf:RDF>
  </metadata>
  <defs
     id="defs6" />
  <sodipodi:namedview
     pagecolor="#ffffff"
     bordercolor="#666666"
     borderopacity="1"
     objecttolerance="10"
     gridtolerance="10"
     guidetolerance="10"
     inkscape:pageopacity="0"
     inkscape:pageshadow="2"
     inkscape:window-width="1920"
     inkscape:window-height="1057"
     id="namedview4"
     showgrid="false"
     inkscape:pagecheckerboard="true"
     inkscape:zoom="0.49"
     inkscape:cx="1659.6509"
     inkscape:cy="648.106"
     inkscape:window-x="-8"
     inkscape:window-y="-8"
     inkscape:window-maximized="1"
     inkscape:current-layer="g10" />
  <g
     inkscape:groupmode="layer"
     inkscape:label="Image"
     id="g10"
     transform="translate(-229,-75)">
    <path
       style="fill:#ffffff"
       d="m 746.50005,1412.3132 c -41.03263,-9.331 -62.68596,-16.5936 -92.5,-31.025 -61.00572,-29.5295 -124.17873,-72.7834 -176.49892,-120.8469 -32.04111,-29.4342 -73.79887,-74.1114 -93.0354,-99.5397 -27.30251,-36.0905 -40.63474,-55.3014 -55.42188,-79.8595 -5.53252,-9.1882 -24.31414,-42.9176 -28.8975,-51.8961 -3.08632,-6.046 -17.9065,-38.56363 -20.34776,-44.64603 -9.16884,-22.8441 -17.51484,-46.7129 -22.72796,-65 -1.72469,-6.05 -3.7834,-13.25 -4.57492,-16 -0.79153,-2.75 -2.34983,-9.4272 -3.4629,-14.8382 -1.11307,-5.411 -2.24539,-10.1968 -2.51628,-10.6351 C 245.80791,876.8801 241.1238,848.5268 239.4083,835 c -2.3305,-18.37597 -3.2009,-62.73455 -7.0545,-359.5 -0.8999,-69.3 -1.9613,-150.3 -2.3586,-180 -0.3973,-29.7 -0.7838,-91.4625 -0.8588,-137.25 L 229,75 h 522.51017 522.51003 l -0.3185,93.75 c -0.2857,84.07639 -1.6343,205.23622 -4.7499,426.75 -0.5724,40.7 -1.4572,107.075 -1.9662,147.5 -0.6433,51.08922 -1.3728,77.92118 -2.3926,88 -1.9111,18.88762 -5.3198,43.05626 -7.0518,50 -0.7546,3.025 -1.6683,7.52497 -2.0305,9.99997 -0.3621,2.475 -2.2349,11.025 -4.1616,19 -21.3804,88.4973 -62.5146,171.45033 -123.2244,248.50003 -41.0287,52.0714 -96.9145,105.7517 -152.62465,146.6011 -14.3811,10.545 -41.74547,28.9958 -53.74951,36.2414 -12.41366,7.4928 -35.89928,21.1043 -40.25049,23.3278 -2.2,1.1242 -8.275,4.296 -13.5,7.0485 -10.9124,5.7485 -52.6336,25.0096 -64.5,29.7773 -11.28932,4.5358 -22.85447,8.2611 -31.00854,9.9882 -6.52705,1.3826 -21.46216,1.8589 -25.99146,0.8289 z"
       id="path16-4"
       sodipodi:nodetypes="sssssssssssssssccccssssssssssssss" />
    <path
       style="fill:#1a1a1a"
       d="m 746.5,1412.3132 c -41.03263,-9.331 -62.68596,-16.5936 -92.5,-31.025 -61.00572,-29.5295 -124.17873,-72.7834 -176.49892,-120.8469 -32.04111,-29.4342 -73.79887,-74.1114 -93.0354,-99.5397 -27.30251,-36.0905 -40.63474,-55.3014 -55.42188,-79.8595 -5.53252,-9.1882 -24.31414,-42.9176 -28.8975,-51.8961 -3.08632,-6.046 -17.9065,-38.56362 -20.34776,-44.646 -9.16884,-22.84409 -17.51484,-46.71293 -22.72796,-65 -1.72469,-6.05 -3.7834,-13.25 -4.57492,-16 -0.79153,-2.75 -2.34983,-9.4272 -3.4629,-14.83821 -1.11307,-5.41102 -2.24539,-10.19682 -2.51628,-10.63512 -0.70862,-1.14657 -5.39273,-29.49987 -7.10822,-43.02667 -2.33048,-18.37597 -3.20094,-62.73455 -7.05455,-359.5 -0.89989,-69.3 -1.96124,-150.3 -2.35856,-180 -0.39732,-29.7 -0.78377,-91.4625 -0.85877,-137.25 L 229,75 h 522.51012 522.51008 l -0.3185,93.75 c -0.2857,84.07639 -1.6343,205.23622 -4.7499,426.75 -0.5724,40.7 -1.4572,107.075 -1.9662,147.5 -0.6433,51.08922 -1.3728,77.92118 -2.3926,88 -1.9111,18.88762 -5.3198,43.05626 -7.0518,50 -0.7546,3.025 -1.6683,7.525 -2.0305,10 -0.3621,2.475 -2.2349,11.025 -4.1616,19 -21.3804,88.49725 -62.5146,171.4503 -123.2245,248.5 -41.0287,52.0714 -96.9145,105.7517 -152.6246,146.6011 -14.3811,10.545 -41.74547,28.9958 -53.74951,36.2414 -12.41366,7.4928 -35.89928,21.1043 -40.25049,23.3278 -2.2,1.1242 -8.275,4.296 -13.5,7.0485 -10.9124,5.7485 -52.6336,25.0096 -64.5,29.7773 -11.28932,4.5358 -22.85447,8.2611 -31.00854,9.9882 -6.52705,1.3826 -21.46216,1.8589 -25.99146,0.8289 z m 34,-18.333 c 13.76307,-4.4465 25.42093,-9.2233 44.5,-18.234 5.225,-2.4677 11.75,-5.4897 14.5,-6.7155 12.83315,-5.7206 35.90113,-17.7276 51.5,-26.806 66.57023,-38.7433 121.1177,-80.9627 173.5867,-134.355 45.2072,-46.0027 82.9262,-96.0904 112.4343,-149.3035 9.0549,-16.3291 19.8758,-37.8123 24.9661,-49.5662 1.7864,-4.125 4.0951,-9.38781 5.1305,-11.69514 1.0353,-2.30732 1.8824,-4.44973 1.8824,-4.76089 0,-0.31117 0.8876,-2.47336 1.9724,-4.80487 2.1488,-4.61809 9.285,-24.38108 14.5298,-40.2391 5.776,-17.46377 12.6027,-43.79543 15.037,-58 0.8484,-4.95 1.9667,-10.35 2.4852,-12 1.1777,-3.7475 4.7129,-29.45483 6.6008,-48 0.9696,-9.52413 1.7227,-37.49832 2.3555,-87.5 0.5117,-40.425 1.3987,-106.8 1.9711,-147.5 3.0296,-215.39558 4.4619,-341.66812 4.7499,-418.75 L 1259.022,90 H 751.35102 243.68001 l 0.64714,128.57469 c 0.35593,70.71608 0.92147,129.01856 1.25675,129.56107 0.33529,0.5425 1.23879,57.54639 2.00779,126.6753 2.91236,261.80611 4.40961,340.35926 6.84628,359.18894 3.663,28.30632 11.2576,64.49627 18.04742,86 4.59104,14.54008 8.72778,26.78466 9.96635,29.5 0.75263,1.65 1.90288,5.025 2.55611,7.5 0.65323,2.475 1.52992,4.95 1.9482,5.5 0.41828,0.55 1.46738,3.025 2.33134,5.5 6.32575,18.12154 22.11705,51.3737 37.99163,80 20.6551,37.2469 34.56429,58.1351 69.18666,103.9016 19.01507,25.1356 58.82833,67.8167 90.05297,96.5397 50.79747,46.7278 113.50253,89.9784 170.98135,117.9338 6.6,3.21 13.575,6.6371 15.5,7.6159 1.925,0.9787 4.625,2.1089 6,2.5116 1.375,0.4026 4.85052,1.7927 7.72337,3.089 2.87286,1.2963 6.47286,2.6556 8,3.0206 1.52715,0.3649 3.22663,0.9904 3.77663,1.3899 1.42552,1.0354 19.82464,6.2721 34.5,9.8192 6.875,1.6618 13.4,3.2592 14.5,3.5499 1.1,0.2907 6.725,0.3736 12.5,0.1842 8.47083,-0.2779 12.43254,-0.9688 20.5,-3.5752 z m -40.38304,-24.5675 c -26.4164,-6.5168 -43.39391,-12.7075 -70.09149,-25.5583 -86.99454,-41.8746 -173.88078,-111.4618 -242.13495,-193.9259 -5.20253,-6.2857 -10.34371,-12.5978 -11.42484,-14.0269 -20.44945,-27.0316 -33.6292,-45.4521 -42.14374,-58.9016 -29.20277,-46.1284 -49.09606,-85.27341 -64.0325,-126 -9.60501,-26.18958 -11.83107,-33.12198 -18.7849,-58.5 -4.40339,-16.07016 -8.91239,-39.89292 -12.11346,-64 -2.31298,-17.41896 -3.16858,-61.06584 -7.03737,-359 -0.89989,-69.3 -1.96124,-150.3 -2.35856,-180 -0.39732,-29.7 -0.78377,-81.1125 -0.85877,-114.25 L 269,115 h 482.51319 482.51321 l -0.3248,70.75 c -0.2944,64.14634 -1.9368,203.75222 -4.7498,403.75 -0.5724,40.7 -1.4536,107.075 -1.9582,147.5 -0.922,73.8648 -1.3223,82.18602 -5.461,113.5 -2.5098,18.98949 -8.7681,49.48665 -13.7489,67 -28.5774,100.4822 -81.0206,189.4643 -159.3824,270.4295 -58.44457,60.3862 -132.53026,114.9079 -203.9013,150.0566 -36.40274,17.9276 -51.03599,24.4227 -68.82384,30.5483 -14.51801,4.9995 -18.45905,5.0969 -35.5592,0.8783 z M 711.5,1023.615 c 34.70049,-5.2615 60.96082,-15.3245 76,-29.12318 l 5,-4.58759 -5.5,0.57099 c -25.74225,2.67248 -41.53445,2.41744 -49.22275,-0.79493 -1.88249,-0.78655 -4.98988,-2.80609 -6.90531,-4.48787 l -3.48261,-3.05777 -10.44466,3.59546 c -9.00508,3.09989 -11.75406,3.60532 -19.94467,3.66705 -7.40185,0.0558 -10.24684,-0.33216 -12.88156,-1.7565 l -3.38155,-1.82808 2.88155,-1.89144 c 1.58486,-1.04028 16.43929,-10.08338 33.00986,-20.09577 l 30.1283,-18.20434 0.48804,-6.08 c 0.90925,-11.32729 9.67457,-23.35106 20.83283,-28.57731 2.70739,-1.26808 4.92253,-2.67867 4.92253,-3.13466 0,-1.27771 -9.85885,-0.91481 -16,0.58895 -20.6767,5.06305 -50.25836,24.29104 -86.5,56.22474 -11.3661,10.01505 -19.96978,16.10585 -29.5,20.88396 -26.78339,13.42822 -57.42547,16.38949 -82.5,7.97285 -1.1,-0.36923 0.49816,1.73963 3.55146,4.68636 13.63747,13.16148 43.53181,23.11328 80.44854,26.78148 13.23646,1.3152 57.07335,0.456 69,-1.3524 z m 383.3106,-15.4841 c 34.2942,-7.9657 57.69,-30.05726 64.7624,-61.15225 2.5558,-11.23661 1.6212,-29.84817 -2.0325,-40.47865 -3.8294,-11.14165 -10.3105,-21.1739 -18.6921,-28.93402 -5.681,-5.25974 -10.2003,-8.13746 -22.72,-14.46713 -25.8273,-13.05769 -53.1803,-24.48877 -72.1284,-30.14313 -18.9449,-5.65342 -30.4612,-13.88915 -33.4023,-23.88722 -0.8787,-2.98733 -1.5977,-6.87512 -1.5977,-8.63953 0,-4.63362 2.6077,-17.84819 6.6953,-33.92897 8.3511,-32.85369 4.1776,-54.32188 -14.7379,-75.81105 l -4.0118,-4.55766 7.9682,-6.06564 7.9681,-6.06565 h 101.9425 101.9424 l 0.6135,-2.75 c 0.3374,-1.5125 1.0713,-38.3 1.6309,-81.75 0.5596,-43.45 1.7702,-136.825 2.6902,-207.5 0.92,-70.675 1.82,-157.4125 2.0001,-192.75 L 1224.0289,125 H 751.51443 279 l 0.12397,53.25 c 0.0682,29.2875 0.4661,78.225 0.88425,108.75 0.41815,30.525 1.45612,110.85 2.3066,178.5 0.85048,67.65 1.86389,142.2375 2.25203,165.75 l 0.70572,42.75 h 48.34936 c 32.70616,0 49.89085,0.36846 53.11372,1.13881 13.01635,3.11128 15.505,4.08381 19.35815,7.56489 7.71483,6.96989 8.06375,11.1052 1.81029,21.45503 -3.45309,5.71506 -4.37971,8.26861 -4.72308,13.0156 -0.42599,5.88917 -0.41499,5.91689 3.94591,9.94492 4.19045,3.8706 4.37142,4.27611 4.33325,9.71002 -0.0456,6.49257 -3.8371,14.62722 -8.74085,18.75345 -2.81741,2.3707 -2.82794,2.41686 -0.54605,2.39532 3.32023,-0.0313 10.83534,-3.63085 14.16998,-6.78699 4.52329,-4.28116 7.70203,-11.48176 7.86892,-17.82498 0.12289,-4.67072 0.60238,-6.02677 2.9672,-8.3916 2.97099,-2.97098 3.17317,-4.04653 2.84575,-15.13867 -0.24381,-8.25973 1.67075,-10.8358 8.0533,-10.8358 3.43145,0 4.70664,0.63453 8.03864,4 2.54118,2.5667 4.86575,4 6.48732,4 3.70865,0 6.15259,1.55353 13.48756,8.57361 3.62557,3.46992 7.90057,6.62081 9.5,7.00198 4.24933,1.01267 6.12153,3.04567 7.99266,8.67912 2.15903,6.50022 1.48552,16.26639 -1.46687,21.27032 -1.16475,1.97411 -2.11773,3.79771 -2.11773,4.05245 0,1.47624 8.34221,-4.15935 11.33828,-7.65958 4.51165,-5.27084 6.6531,-11.39731 7.36913,-21.08232 l 0.56664,-7.66441 3.26153,-0.61187 c 4.07189,-0.76389 8.02786,-3.81441 10.07145,-7.76628 1.53577,-2.96984 1.49854,-3.10295 -1.86311,-6.66171 -1.88661,-1.99722 -4.39252,-5.03917 -5.5687,-6.75989 -2.43091,-3.55638 -7.63034,-16.24871 -8.65242,-21.12142 -0.62776,-2.99282 -0.48064,-3.25 1.8592,-3.25 2.14483,0 2.71761,0.6625 3.67447,4.25 3.28737,12.32527 11.1399,25.782 20.10194,34.44833 l 4.34159,4.19833 8.5,-5.45581 c 15.54384,-9.97697 30.95451,-16.47423 38.9315,-16.41383 3.05023,0.0231 2.14521,0.59137 -6.23134,3.91281 -5.38991,2.13719 -12.58991,5.54457 -16,7.57196 C 544.14953,711.00084 532,719.90506 532,720.94977 c 0,0.41824 2.70844,2.66031 6.01877,4.98237 4.068,2.85355 6.51385,5.41238 7.54627,7.89489 2.1226,5.10391 6.50514,11.24763 7.55881,10.59642 0.48188,-0.29781 0.87615,-1.68442 0.87615,-3.08134 0,-2.61198 2.9272,-9.74825 3.68695,-8.98849 0.23383,0.23382 -0.32553,3.28741 -1.24302,6.78576 -1.98189,7.55688 -1.48134,23.08247 1.0272,31.86062 0.86446,3.025 2.22513,8.51005 3.02372,12.18901 l 1.45199,6.68901 -3.58282,5.31099 c -3.95644,5.86484 -3.81521,3.68153 -1.71163,26.46207 0.73622,7.97271 -0.5516,11.63359 -6.61511,18.80483 -3.11524,3.68435 -5.04359,6.96918 -5.2347,8.91701 -0.28386,2.89306 -0.79755,3.25376 -8.30258,5.82992 -8.81636,3.02629 -8.76296,3.0312 -19.62586,-1.80663 -8.31511,-3.70317 -11.65938,-4.13072 -15.71985,-2.00975 -1.45986,0.76256 -5.20712,2.12462 -8.32724,3.02681 -3.12012,0.9022 -7.01257,2.89175 -8.6499,4.42124 -4.06632,3.79852 -6.7986,14.04534 -4.17715,15.66549 0.55,0.33992 1,0.0715 1,-0.59659 0,-2.29363 5.26579,-8.11652 8.5997,-9.50952 1.83484,-0.76664 4.92552,-1.39389 6.86818,-1.39389 3.07323,0 3.53212,0.31552 3.53212,2.42857 0,5.64426 5.47891,7.52432 15.80075,5.42196 8.53471,-1.73836 10.56848,-0.98874 10.03504,3.69878 L 525.5,877.5 517.35013,878 C 508.83102,878.52265 505,880.37771 505,883.9802 c 0,0.91862 -2.07196,4.33637 -4.60435,7.59501 -10.47173,13.47484 -11.77143,22.53533 -4.40581,30.71395 l 2.89166,3.21084 -0.56053,-5.55505 c -0.44329,-4.39313 -0.13631,-6.38018 1.46767,-9.5 4.00028,-7.78076 11.75111,-12.84923 19.24382,-12.58403 4.40037,0.15574 4.76625,-0.0663 11.03177,-6.69394 5.11274,-5.40825 7.60272,-7.22777 11.79792,-8.62119 4.14056,-1.37528 5.57424,-1.49936 6.47765,-0.56063 0.88838,0.9231 0.58001,1.59321 -1.31616,2.86019 -8.97866,5.99933 -10.9926,10.18569 -6.879,14.29929 l 2.14463,2.14463 -2.64463,9.15619 c -3.06594,10.6148 -3.30129,15.393 -0.97792,19.8542 l 1.66672,3.20034 1.798,-7.27453 c 0.9889,-4.00099 2.5349,-8.82741 3.43554,-10.72538 2.88155,-6.07241 9.41542,-12.50789 15.84302,-15.60445 3.3495,-1.61365 6.60146,-3.6165 7.22657,-4.45078 1.71093,-2.28342 0.0536,-7.8948 -3.54095,-11.98874 -2.54056,-2.89353 -2.92424,-3.90783 -2.07704,-5.49083 0.57153,-1.06792 2.22708,-2.23983 3.679,-2.60424 2.05678,-0.51621 3.06553,-0.13688 4.56707,1.71745 1.30335,1.60957 2.78636,2.29786 4.58128,2.12624 3.93669,-0.3764 9.00742,3.2493 11.10893,7.94317 1.71683,3.83467 1.91163,3.97008 2.94186,2.04508 2.72779,-5.09693 0.7338,-11.48633 -5.2951,-16.96724 -1.98089,-1.80084 -3.60459,-4.05084 -3.60821,-5 -0.009,-2.42864 -3.43876,-7.34998 -6.18317,-8.87289 -1.27063,-0.70509 -3.72992,-1.29794 -5.46508,-1.31742 -3.12799,-0.0351 -3.15012,-0.0716 -2.59989,-4.28544 0.30523,-2.3375 1.42303,-6.725 2.484,-9.75 1.06097,-3.025 2.5445,-8.46368 3.29673,-12.08596 1.80465,-8.69007 5.83223,-19.23883 9.56863,-25.06151 5.40109,-8.41687 10.31755,-12.00159 23.56064,-17.17867 22.76577,-8.89974 32.66747,-17.65118 34.79025,-30.7487 0.34242,-2.11275 1.78919,-4.73391 3.53739,-6.40878 2.60866,-2.49926 3.03622,-2.63011 3.62034,-1.10792 1.33217,3.4716 -0.35847,13.49814 -3.05061,18.09193 -1.45032,2.47479 -3.09454,4.49961 -3.65381,4.49961 -0.55928,0 -0.71377,0.49041 -0.34333,1.08981 0.82136,1.32897 4.1931,0.78994 19.49005,-3.11584 18.72172,-4.78022 25.88,-8.04969 47.90628,-21.88065 20.24777,-12.71417 26.77102,-15.29793 40.04817,-15.86246 8.3647,-0.35566 12.29547,-0.0178 19.32896,1.66135 4.85592,1.15928 8.95239,2.10779 9.10326,2.10779 0.15087,0 0.55046,-3.2625 0.88798,-7.25 1.1558,-13.65481 6.71621,-25.79081 15.57413,-33.99168 8.00398,-7.41028 14.45658,-9.86508 27.62514,-10.50959 25.98817,-1.27195 45.23625,8.928 52.39352,27.7644 2.5408,6.68685 3.58804,18.49588 2.3267,26.23687 -0.5153,3.1625 -0.66754,5.74527 -0.3383,5.73949 1.37987,-0.0242 13.06473,-9.40917 18.94889,-15.21921 C 900.6677,723.03875 908,710.1008 908,704.8029 908,703.2613 908.38061,702 908.84581,702 c 2.10719,0 22.31192,14.42116 28.22008,20.14213 10.44503,10.11411 17.63048,22.09195 19.91183,33.19218 2.01338,9.79638 0.0741,20.74849 -8.37046,47.27333 -2.43256,7.6408 -4.61762,15.69236 -4.85568,17.89236 -1.24,11.45914 7.72841,21.74584 26.03061,29.85693 9.91501,4.39409 18.78178,7.19465 48.21781,15.22951 33.8421,9.23756 48.5143,14.08026 61.6356,20.34347 23.5323,11.23266 35.3018,25.31958 35.4678,42.45168 0.085,8.78623 -0.5613,11.5965 -4.3185,18.7715 -6.929,13.23206 -21.8368,19.51379 -48.7849,20.55658 -22.2269,0.86009 -42.348,-1.24047 -106.5,-11.11816 -69.88826,-10.76092 -97.67453,-13.57783 -134,-13.58461 -25.20102,-0.005 -42.96971,1.48898 -60.41623,5.07874 -8.05908,1.65822 -12.29202,3.40339 -28.52362,11.7598 -10.48308,5.39694 -25.50017,13.35694 -33.37132,17.68889 -12.68453,6.98104 -14.04847,7.97771 -12,8.76872 3.74964,1.4479 17.72126,-0.007 25.41163,-2.64566 C 720.43805,980.96793 723.6775,979.44491 742,969.83535 759.08905,960.87269 767.19074,959.5 803,959.5 c 45.36049,0 75.14424,5.84621 175.5,34.44862 41.9721,11.96248 49.3421,13.76478 64,15.65058 15.0679,1.9387 40.7458,1.2179 52.3106,-1.4683 z M 435.5,685.31159 c -2.2,-0.17855 -5.47212,-0.5689 -7.27138,-0.86744 -3.34467,-0.55496 -9.51292,-5.23833 -11.30202,-8.58129 -0.96094,-1.79554 -0.0471,-1.86171 25.28822,-1.83106 24.18843,0.0293 26.12564,0.15848 24.28518,1.61985 -3.267,2.59407 -15.69246,8.04703 -20,8.77707 -2.2,0.37285 -4.675,0.79708 -5.5,0.94272 -0.825,0.14564 -3.3,0.11871 -5.5,-0.0598 z m 413.20508,244.87799 c -0.55938,-2.09573 -0.71044,-5.03208 -0.33569,-6.52521 1.08428,-4.3201 7.32501,-10.50499 11.82155,-11.71579 3.40365,-0.9165 4.2692,-1.7449 6.01785,-5.75952 1.12332,-2.57899 3.67339,-6.35031 5.66681,-8.38073 2.69806,-2.74815 4.26336,-5.77759 6.1244,-11.85304 1.375,-4.48875 2.95,-8.0025 3.5,-7.80833 1.06488,0.37594 1.0461,8.28769 -0.0381,16.06186 -0.54032,3.87419 -0.28035,5.23737 1.46668,7.69086 1.16787,1.64012 3.01171,3.26398 4.09742,3.60857 1.08571,0.34459 1.97402,1.08923 1.97402,1.65477 0,4.52317 11.2932,12.84029 17.42144,12.83039 l 4.07856,-0.007 -2.94207,-1.93939 C 900.71976,913.53974 897.62457,902.37543 902,898 c 2.92611,-2.92611 2.49038,-7.53317 -1.5,-15.8597 -1.925,-4.0168 -3.5,-7.92577 -3.5,-8.6866 0,-2.46055 3.6806,-3.4537 12.7994,-3.4537 9.80506,0 13.37177,-1.56155 14.58219,-6.38426 1.01217,-4.03279 9.7222,-5.88034 17.37501,-3.68555 3.67521,1.05404 4.14796,0.1984 1.3096,-2.37028 -2.94036,-2.66099 -8.95513,-4.46652 -15.0662,-4.52261 -3.74791,-0.0344 -6.45569,-0.6834 -8.5,-2.0373 -4.2926,-2.84288 -7.14181,-2.49025 -13.11414,1.62305 -4.42301,3.04624 -5.80584,3.52074 -8.68589,2.98044 -1.88397,-0.35343 -4.20457,-1.50358 -5.15689,-2.55589 -2.16498,-2.39227 -1.61588,-5.21989 3.14878,-16.21471 4.47187,-10.31918 4.30062,-15.62672 -0.88995,-27.58289 -2.98323,-6.87169 -3.30764,-8.25367 -1.94176,-8.27196 3.36869,-0.0451 9.96254,-3.87902 12.58517,-7.31747 1.81827,-2.38387 2.97378,-5.47071 3.50335,-9.35885 1.03921,-7.62999 0.37952,-9.08449 -2.31009,-5.09337 C 903.38559,784.03546 895.02469,788 888.0977,788 876.87174,788 869.78246,781.6672 868.51404,770.50606 868.20113,767.75273 867.84365,754.475 867.71963,741 c -0.26071,-28.32663 -0.67987,-30.02318 -9.42719,-38.15721 -9.68588,-9.00678 -20.41957,-12.36439 -36.95784,-11.5608 -11.72645,0.56978 -18.38935,3.03079 -24.50994,9.053 -7.56004,7.43853 -12.7725,22.72944 -12.8073,37.57062 -0.0205,8.7569 0.42291,9.49438 14.41685,23.97634 17.06331,17.65837 35.93554,31.89647 54.02657,40.76018 8.75457,4.28931 9.00535,4.51078 10.89796,9.6241 2.35994,6.37591 7.32932,14.24594 11.41503,18.07807 2.68828,2.52142 2.93,3.20178 2.12938,5.9934 -1.42147,4.95636 -1.08419,17.79162 0.54983,20.92409 1.35944,2.60612 1.29491,2.85729 -1.14485,4.45589 -1.78682,1.17076 -4.62781,1.68514 -9.19682,1.66513 -5.42031,-0.0237 -7.73209,-0.60127 -12.83279,-3.20588 -7.61756,-3.88982 -11.54559,-4.07082 -14.69094,-0.67693 -1.27431,1.375 -2.9851,2.5 -3.80177,2.5 -2.36217,0 -9.49836,5.22182 -12.26977,8.97826 -4.58185,6.21035 -5.23228,13.15859 -1.5442,16.49625 1.64786,1.4913 1.80121,1.3462 2.37596,-2.24809 0.71739,-4.48627 3.46162,-7.26782 9.46108,-9.58972 3.8681,-1.49703 4.53021,-1.5126 6.47251,-0.15216 1.23284,0.86351 4.32643,1.51786 7.19112,1.52104 5.44796,0.006 12.52749,1.62014 12.52749,2.85621 0,0.42228 -1.55297,1.50835 -3.45105,2.41348 -5.56101,2.65185 -6.92929,5.64807 -6.25458,13.69603 0.46786,5.58052 0.27447,7.14078 -1.0175,8.20937 -0.87733,0.72563 -2.64413,3.56933 -3.92624,6.31933 -4.47282,9.59383 -2.38013,22.62772 3.76044,23.42105 0.33609,0.0434 0.15339,-1.63574 -0.40599,-3.73147 z M 638.98904,924.75 c -2.60632,-4.27467 -2.60068,-11.23456 0.0126,-15.52068 1.09678,-1.79887 4.1082,-4.61137 6.69205,-6.25 3.75114,-2.3789 5.81724,-2.98121 10.25212,-2.9887 7.5224,-0.0127 14.9096,-4.18133 18.61534,-10.5047 2.33796,-3.98943 2.63821,-5.52074 2.53412,-12.92422 -0.113,-8.03729 7.1e-4,-8.49308 2.64334,-10.59558 2.48613,-1.97799 3.56024,-2.14218 10.77427,-1.64698 4.40706,0.30252 9.35706,1.05944 11,1.68206 4.11307,1.55871 7.48715,4.92647 7.48715,7.47311 0,2.8554 1.84676,4.52569 5.00383,4.52569 4.69603,0 12.11706,9.68549 12.35395,16.12366 0.18835,5.11865 1.09811,4.89135 2.6532,-0.66288 0.87043,-3.10885 1.02503,-6.65388 0.49064,-11.25 -0.42914,-3.69093 -0.83006,-11.06478 -0.89094,-16.38634 -0.0936,-8.18364 -0.43653,-10.11107 -2.22391,-12.5 -1.94619,-2.60117 -2.63566,-2.82444 -8.72218,-2.82444 -5.45278,0 -6.98944,-0.38048 -8.78391,-2.17492 C 706.69617,846.14062 704.51982,837 706.18422,837 c 0.47693,0 0.18058,-1.32765 -0.65854,-2.95034 -1.78708,-3.45583 -1.98219,-8.99729 -0.4314,-12.25261 2.57755,-5.41062 11.59998,-9.96741 28.77453,-14.53262 8.15459,-2.16758 12.18051,-2.60313 26.25931,-2.84089 15.68423,-0.26487 21.54361,-1.01844 28.20972,-3.62802 2.72844,-1.0681 2.52379,-1.20159 -5.30868,-3.46283 -4.48058,-1.29355 -9.93878,-3.26626 -12.12933,-4.38379 -5.72201,-2.91915 -11.25428,-8.85086 -12.67383,-13.58892 -2.43397,-8.12385 -1.32916,-13.33742 5.85834,-27.64554 2.70362,-5.38206 4.91566,-10.19841 4.91566,-10.703 0,-3.01175 -17.4647,-3.93307 -27.90508,-1.47209 -12.59223,2.96821 -30.88182,13.30886 -39.46966,22.31555 -4.73173,4.9625 -2.90739,8.26629 10.88065,19.70423 l 4.89314,4.05913 -2.36953,3.94087 c -1.30324,2.16748 -6.97083,10.05155 -12.59463,17.52016 -11.20092,14.87521 -15.86671,22.55847 -16.9553,27.92071 -0.39079,1.925 -1.22107,4.13699 -1.84506,4.91554 -3.08889,3.85396 -17.66981,11.11755 -25.13453,12.52093 -1.65,0.3102 -5.475,-0.10576 -8.5,-0.92436 -3.025,-0.81861 -6.90181,-1.49371 -8.61514,-1.50024 -3.22792,-0.0123 -8.38054,3.24898 -8.39061,5.31071 -0.003,0.64758 -2.43518,3.57691 -5.40448,6.50962 -12.85408,12.69565 -15.77776,28.5717 -6.07575,32.99224 2.91733,1.32922 2.93961,1.27397 0.99214,-2.46013 -3.12644,-5.99467 -0.51957,-13.30399 6.09794,-17.09786 4.59826,-2.63622 7.65688,-2.86184 9.45326,-0.69734 1.00971,1.21663 2.37599,1.42143 6.08217,0.9117 5.7283,-0.78784 10.86047,0.16759 10.86047,2.02185 0,0.73906 -3.2625,3.47333 -7.25,6.07615 -8.44054,5.50952 -9.74333,6.89148 -9.76871,10.36232 -0.0103,1.40738 -1.58528,5.65055 -3.5,9.42926 -5.35905,10.5762 -4.33609,19.36761 2.70847,23.27675 3.58539,1.98959 3.94067,1.61499 1.79928,-1.89714 z"
       id="path16" />
    <path
       style="fill:#434f6f"
       d="m 642.5,1024.9674 c -36.91673,-3.6682 -66.81107,-13.62 -80.44854,-26.78148 -3.0533,-2.94673 -4.65146,-5.05559 -3.55146,-4.68636 20.14239,6.76114 44.08441,6.25413 66.73078,-1.413 16.7295,-5.66393 28.97916,-13.0901 45.26922,-27.44381 36.24164,-31.9337 65.8233,-51.16169 86.5,-56.22474 6.14115,-1.50376 16,-1.86666 16,-0.58895 0,0.45599 -2.21514,1.86658 -4.92253,3.13466 -11.15826,5.22625 -19.92358,17.25002 -20.83283,28.57731 l -0.48804,6.08 -30.1283,18.20434 c -16.57057,10.01239 -31.425,19.05549 -33.00986,20.09577 l -2.88155,1.89144 3.38155,1.82808 c 2.63472,1.42434 5.47971,1.81228 12.88156,1.7565 8.19061,-0.0617 10.93959,-0.56716 19.94467,-3.66705 l 10.44466,-3.59546 3.48261,3.05777 c 1.91543,1.68178 5.02282,3.70132 6.90531,4.48787 7.6883,3.21237 23.4805,3.46741 49.22275,0.79493 l 5.5,-0.57099 -5,4.58759 c -15.03918,13.79868 -41.29951,23.86168 -76,29.12318 -11.92665,1.8084 -55.76354,2.6676 -69,1.3524 z m 400,-15.3682 c -14.6579,-1.8858 -22.0279,-3.6881 -64,-15.65058 C 878.14424,965.34621 848.36049,959.5 803,959.5 c -35.80926,0 -43.91095,1.37269 -61,10.33535 -18.3225,9.60956 -21.56195,11.13258 -29.39954,13.82204 -7.69037,2.63895 -21.66199,4.09356 -25.41163,2.64566 -2.04847,-0.79101 -0.68453,-1.78768 12,-8.76872 7.87115,-4.33195 22.88824,-12.29195 33.37132,-17.68889 16.2316,-8.35641 20.46454,-10.10158 28.52362,-11.7598 17.44652,-3.58976 35.21521,-5.08344 60.41623,-5.07874 36.32547,0.007 64.11174,2.82369 134,13.58461 64.152,9.87769 84.2731,11.97825 106.5,11.11816 26.9481,-1.04279 41.8559,-7.32452 48.7849,-20.55658 3.7572,-7.175 4.4037,-9.98527 4.3185,-18.7715 -0.166,-17.1321 -11.9355,-31.21902 -35.4678,-42.45168 C 1066.5143,879.6667 1051.8421,874.824 1018,865.58644 988.56397,857.55158 979.6972,854.75102 969.78219,850.35693 951.47999,842.24584 942.51158,831.95914 943.75158,820.5 c 0.23806,-2.2 2.42312,-10.25156 4.85568,-17.89236 8.4446,-26.52484 10.38384,-37.47695 8.37046,-47.27333 -2.28135,-11.10023 -9.4668,-23.07807 -19.91183,-33.19218 C 931.15773,716.42116 910.953,702 908.84581,702 908.38061,702 908,703.2613 908,704.8029 c 0,5.2979 -7.3323,18.23585 -14.14972,24.96738 -5.88416,5.81004 -17.56902,15.19498 -18.94889,15.21921 -0.32924,0.006 -0.177,-2.57699 0.3383,-5.73949 1.26134,-7.74099 0.2141,-19.55002 -2.3267,-26.23687 -7.15727,-18.8364 -26.40535,-29.03635 -52.39352,-27.7644 -13.16856,0.64451 -19.62116,3.09931 -27.62514,10.50959 -8.85792,8.20087 -14.41833,20.33687 -15.57413,33.99168 -0.33752,3.9875 -0.73711,7.25 -0.88798,7.25 -0.15087,0 -4.24734,-0.94851 -9.10326,-2.10779 -7.03349,-1.67915 -10.96426,-2.01701 -19.32896,-1.66135 -13.27715,0.56453 -19.8004,3.14829 -40.04817,15.86246 -22.02628,13.83096 -29.18456,17.10043 -47.90628,21.88065 -15.29695,3.90578 -18.66869,4.44481 -19.49005,3.11584 -0.37044,-0.5994 -0.21595,-1.08981 0.34333,-1.08981 0.55927,0 2.20349,-2.02482 3.65381,-4.49961 2.69214,-4.59379 4.38278,-14.62033 3.05061,-18.09193 -0.58412,-1.52219 -1.01168,-1.39134 -3.62034,1.10792 -1.7482,1.67487 -3.19497,4.29603 -3.53739,6.40878 -2.12278,13.09752 -12.02448,21.84896 -34.79025,30.7487 -13.24309,5.17708 -18.15955,8.7618 -23.56064,17.17867 -3.7364,5.82268 -7.76398,16.37144 -9.56863,25.06151 -0.75223,3.62228 -2.23576,9.06096 -3.29673,12.08596 -1.06097,3.025 -2.17877,7.4125 -2.484,9.75 -0.55023,4.21382 -0.5281,4.2503 2.59989,4.28544 1.73516,0.0195 4.19445,0.61233 5.46508,1.31742 2.74441,1.52291 6.1739,6.44425 6.18317,8.87289 0.004,0.94916 1.62732,3.19916 3.60821,5 6.0289,5.48091 8.02289,11.87031 5.2951,16.96724 -1.03023,1.925 -1.22503,1.78959 -2.94186,-2.04508 -2.10151,-4.69387 -7.17224,-8.31957 -11.10893,-7.94317 -1.79492,0.17162 -3.27793,-0.51667 -4.58128,-2.12624 -1.50154,-1.85433 -2.51029,-2.23366 -4.56707,-1.71745 -1.45192,0.36441 -3.10747,1.53632 -3.679,2.60424 -0.8472,1.583 -0.46352,2.5973 2.07704,5.49083 3.59452,4.09394 5.25188,9.70532 3.54095,11.98874 -0.62511,0.83428 -3.87707,2.83713 -7.22657,4.45078 -6.4276,3.09656 -12.96147,9.53204 -15.84302,15.60445 -0.90064,1.89797 -2.44664,6.72439 -3.43554,10.72538 l -1.798,7.27453 -1.66672,-3.20034 c -2.32337,-4.4612 -2.08802,-9.2394 0.97792,-19.8542 l 2.64463,-9.15619 -2.14463,-2.14463 c -4.1136,-4.1136 -2.09966,-8.29996 6.879,-14.29929 1.89617,-1.26698 2.20454,-1.93709 1.31616,-2.86019 -0.90341,-0.93873 -2.33709,-0.81465 -6.47765,0.56063 -4.1952,1.39342 -6.68518,3.21294 -11.79792,8.62119 -6.26552,6.62767 -6.6314,6.84968 -11.03177,6.69394 -7.49271,-0.2652 -15.24354,4.80327 -19.24382,12.58403 -1.60398,3.11982 -1.91096,5.10687 -1.46767,9.5 l 0.56053,5.55505 -2.89166,-3.21084 c -7.36562,-8.17862 -6.06592,-17.23911 4.40581,-30.71395 2.53239,-3.25864 4.60435,-6.67639 4.60435,-7.59501 0,-3.60249 3.83102,-5.45755 12.35013,-5.9802 l 8.14987,-0.5 0.33579,-2.95069 c 0.53344,-4.68752 -1.50033,-5.43714 -10.03504,-3.69878 C 505.47891,872.95289 500,871.07283 500,865.42857 500,863.31552 499.54111,863 496.46788,863 c -1.94266,0 -5.03334,0.62725 -6.86818,1.39389 -3.33391,1.393 -8.5997,7.21589 -8.5997,9.50952 0,0.66804 -0.45,0.93651 -1,0.59659 -2.62145,-1.62015 0.11083,-11.86697 4.17715,-15.66549 1.63733,-1.52949 5.52978,-3.51904 8.6499,-4.42124 3.12012,-0.90219 6.86738,-2.26425 8.32724,-3.02681 4.06047,-2.12097 7.40474,-1.69342 15.71985,2.00975 10.8629,4.83783 10.8095,4.83292 19.62586,1.80663 7.50503,-2.57616 8.01872,-2.93686 8.30258,-5.82992 0.19111,-1.94783 2.11946,-5.23266 5.2347,-8.91701 6.06351,-7.17124 7.35133,-10.83212 6.61511,-18.80483 -2.10358,-22.78054 -2.24481,-20.59723 1.71163,-26.46207 l 3.58282,-5.31099 -1.45199,-6.68901 C 559.69626,779.51005 558.33559,774.025 557.47113,771 c -2.50854,-8.77815 -3.00909,-24.30374 -1.0272,-31.86062 0.91749,-3.49835 1.47685,-6.55194 1.24302,-6.78576 C 556.9272,731.59386 554,738.73013 554,741.34211 c 0,1.39692 -0.39427,2.78353 -0.87615,3.08134 -1.05367,0.65121 -5.43621,-5.49251 -7.55881,-10.59642 -1.03242,-2.48251 -3.47827,-5.04134 -7.54627,-7.89489 C 534.70844,723.61008 532,721.36801 532,720.94977 c 0,-1.04471 12.14953,-9.94893 19.70016,-14.43798 3.41009,-2.02739 10.61009,-5.43477 16,-7.57196 8.37655,-3.32144 9.28157,-3.88972 6.23134,-3.91281 -7.97699,-0.0604 -23.38766,6.43686 -38.9315,16.41383 l -8.5,5.45581 -4.34159,-4.19833 c -9.09384,-8.79378 -18.26791,-24.96377 -20.62186,-36.34757 l -0.6512,-3.14923 12.30733,-6.10891 c 8.81016,-4.37304 15.433,-6.86113 23.30732,-8.75617 6.05,-1.45599 11.62691,-2.81292 12.39313,-3.01539 2.84961,-0.75301 0.17426,-1.3947 -6.01283,-1.44218 -7.8357,-0.0601 -19.482,2.83039 -32.48158,8.0617 -5.40872,2.17659 -10.00044,3.79103 -10.20382,3.58765 -1.08244,-1.08243 -2.15005,-8.99806 -2.17104,-16.09673 -0.0284,-9.61676 1.83662,-16.51154 6.23546,-23.05133 2.97702,-4.42595 3.85088,-5.00458 10.74068,-7.112 9.98891,-3.05535 23.68377,-5.24069 33.5,-5.34572 l 8,-0.0856 -3.5,-1.58608 c -4.89372,-2.21766 -21.84233,-1.9279 -33.5,0.57273 -4.95,1.0618 -9.09433,1.85406 -9.20961,1.76058 -0.79208,-0.64229 3.25351,-13.71857 5.81295,-18.78879 3.27216,-6.48211 11.22273,-16.95909 17.18254,-22.64255 l 3.51002,-3.34725 11.85205,1.10407 c 10.88939,1.0144 20.99416,2.85488 25.76609,4.69303 1.41446,0.54484 1.70731,0.40278 1.12199,-0.5443 C 573.45528,571.69157 554.893,566 545.99364,566 c -2.13158,0 -4.17699,-0.48765 -4.54535,-1.08367 -0.36836,-0.59601 0.95338,-4.36782 2.93719,-8.38179 4.28563,-8.67139 13.93235,-18.3448 20.97723,-21.03526 4.00782,-1.5306 5.66573,-1.60002 14.19343,-0.59429 5.8827,0.69379 12.64247,2.28757 17.29971,4.07883 l 7.64415,2.94009 -3.1388,-2.8485 c -3.51708,-3.19179 -11.99965,-6.67832 -20.55261,-8.44758 -3.13028,-0.64753 -5.97417,-1.46008 -6.31976,-1.80567 -1.48535,-1.48535 4.36151,-9.76341 12.95757,-18.34551 l 9.26759,-9.25254 9.34772,1.38948 c 5.90788,0.87818 11.71079,2.49531 15.76934,4.39453 6.0607,2.83615 6.33887,2.88039 4.94903,0.78718 -1.92238,-2.89525 -12.70827,-8.38612 -20.18145,-10.27394 -3.24575,-0.81992 -6.06625,-1.65565 -6.26777,-1.85717 -0.20152,-0.20152 0.53171,-2.3459 1.62941,-4.76529 1.09769,-2.4194 2.00569,-5.54637 2.01777,-6.94882 0.0198,-2.29461 0.59768,-2.66949 5.77196,-3.7441 7.45835,-1.54896 17.06052,-6.18953 20.34084,-9.83038 9.91865,-11.00879 10.16793,-22.64113 0.75374,-35.17167 -3.29397,-4.38436 -4.3547,-5.18067 -6.16176,-4.62577 -3.32117,1.01986 -3.30671,1.18789 0.44684,5.1902 4.41037,4.70265 5.87034,8.13745 5.87034,13.81081 0,11.63236 -9.59276,22.25644 -23.32565,25.8334 -3.2327,0.84201 -10.09794,1.51544 -15.49011,1.51946 -15.61112,0.0116 -25.06488,3.30419 -42.97681,14.96796 -5.88909,3.83481 -12.81946,7.87419 -15.40083,8.9764 -8.12879,3.47087 -9.60567,9.71985 -4.18501,17.70764 1.36249,2.00775 2.33381,3.7939 2.15849,3.96923 -0.17533,0.17532 -2.56007,-0.88993 -5.29943,-2.36724 -5.81216,-3.13445 -8.27425,-7.28427 -9.09997,-15.33794 -0.30158,-2.94144 -1.41061,-7.4565 -2.46451,-10.03346 -2.67687,-6.54543 -2.50583,-12.01757 0.48429,-15.4938 l 2.40047,-2.79071 -2.11763,-4.01505 c -1.60656,-3.04608 -2.12555,-5.851 -2.15046,-11.62249 -0.0319,-7.38684 -0.0908,-7.56837 -2.03284,-6.26041 -1.1,0.74086 -4.475,3.89369 -7.5,7.00629 -21.28894,21.90543 -54.2878,32.96304 -73.28827,24.55823 -6.72071,-2.97289 -6.33508,-3.79728 1.5674,-3.35075 22.62638,1.2785 52.19521,-12.09317 66.50672,-30.07579 12.91901,-16.23294 28.4321,-23.99035 47.68533,-23.84535 10.3393,0.0779 13.57557,0.53973 22.50427,3.21163 11.70019,3.50128 18.99766,9.22221 17.55633,13.76346 -0.9705,3.05776 -3.64221,3.351 -12.71072,1.3951 -6.16425,-1.3295 -12.72745,-1.79472 -25.32106,-1.79483 -15.10728,-1.3e-4 -17.73525,0.25402 -23.60386,2.28275 -9.80224,3.38855 -10.54266,4.11584 -9.09822,8.93695 1.44461,4.82169 4.83867,9.964 8.20208,12.42693 2.45258,1.79595 2.66895,1.774 11.40674,-1.15704 4.89871,-1.64324 17.49871,-4.81902 28,-7.05728 20.26641,-4.31962 26.76157,-6.74199 29.98761,-11.18389 1.98523,-2.73345 1.98557,-2.77701 0.052,-6.6665 -2.63497,-5.30029 -10.03527,-11.16064 -21.44632,-16.98349 -11.98759,-6.11705 -17.86875,-7.538 -31,-7.48991 -8.55728,0.0313 -12.16519,0.55001 -19.5,2.80329 -10.96133,3.36737 -27.79762,11.96459 -31.08753,15.87443 -3.05307,3.62837 -3.22894,9.86221 -0.40873,14.48778 2.48206,4.07095 2.47761,4.22583 -0.12139,4.22583 -3.39949,0 -9.70566,-7.04286 -10.44476,-11.66493 -0.58556,-3.66189 -0.96929,-4.06247 -4.89824,-5.1133 -5.21188,-1.39397 -7.06012,-4.90912 -6.26947,-11.92382 0.46318,-4.10931 0.16506,-5.11837 -2.48738,-8.41898 -3.44662,-4.28886 -4.72281,-11.22144 -2.87402,-15.6124 C 464.0147,400.63934 470.742,395 472.7699,395 c 0.52268,0 1.20796,-2.49622 1.52284,-5.54716 1.28308,-12.43179 11.49601,-22.02285 24.56981,-23.07371 4.8235,-0.38771 5.36546,-0.26731 3.75352,0.83387 -10.53114,7.19419 -11.49104,11.63887 -4.06749,18.83406 l 3.45963,3.3532 19.74591,-1.18501 c 22.76359,-1.36611 29.80285,-2.77208 35.59232,-7.10893 5.69884,-4.26895 15.71507,-9.92468 21.95942,-12.3995 6.13598,-2.43188 22.36871,-3.00898 26.99284,-0.95964 l 2.79867,1.24033 -4.04867,3.85141 c -4.90078,4.662 -5.36691,8.25123 -1.40843,10.84493 5.50179,3.60491 14.66692,0.89252 21.45356,-6.34912 1.97659,-2.1091 7.09388,-8.45583 11.37177,-14.10384 16.00893,-21.13628 26.51309,-28.01343 44.28443,-28.99335 5.0875,-0.28053 9.25,-0.24828 9.25,0.0717 0,0.31996 -3.2625,2.28713 -7.25,4.37151 -9.31946,4.87153 -22.31511,17.49787 -26.11249,25.37043 -3.41274,7.07514 -4.73373,15.0517 -3.54576,21.41055 1.19154,6.37801 3.23235,9.35795 7.68211,11.21717 9.65287,4.03323 28.93753,-7.27882 43.3693,-25.43967 10.8382,-13.63874 16.40527,-25.99115 17.68461,-39.2392 0.63712,-6.59757 0.87051,-7.23912 1.93965,-5.33181 4.4488,7.93646 5.46362,25.12888 2.23842,37.92185 -7.33707,29.10302 -30.30555,52.3752 -63.00584,63.83892 -4.125,1.4461 -8.05396,2.82377 -8.73102,3.06149 -0.71849,0.25226 0.97905,2.52241 4.07717,5.45249 9.88612,9.34988 13.46945,20.75609 11.64169,37.05706 -1.73826,15.50276 -5.33505,26.60973 -20.72523,64 -10.01244,24.32511 -9.66749,23.09523 -7.75897,27.66295 4.82035,11.53672 16.42628,14.88237 29.72345,8.56841 9.10793,-4.32476 14.205,-8.43965 18.2107,-14.70157 5.16031,-8.06685 6.56221,-7.22024 6.56221,3.9629 0,11.22644 -5.02425,23.38307 -12.66789,30.65112 -4.96341,4.71952 -16.14378,9.52483 -25.45879,10.94214 -13.9144,2.11714 -17.25219,5.32888 -12.88373,12.3972 3.39075,5.48635 16.31137,13.48931 26.57179,16.45842 23.26426,6.73209 71.56248,6.43463 155.93862,-0.96039 16.05912,-1.40747 40.59073,-1.18308 51.5,0.47109 10.87078,1.64832 21.34443,4.68498 28.30609,8.20688 l 4.80609,2.43139 7.67576,-2.10582 c 27.35751,-7.50542 49.22348,-26.02439 60.66248,-51.37694 1.76385,-3.90928 3.84147,-9.35778 4.61693,-12.10778 l 1.40991,-5 0.68001,6.5 c 0.68544,6.55193 -0.41574,21.52319 -2.05948,28 -3.3889,13.35325 -8.85561,22.72239 -19.98421,34.25 -3.05304,3.1625 -4.98359,5.75 -4.29012,5.75 3.16543,0 17.35561,-3.43303 25.59309,-6.19175 4.9959,-1.67311 13.1025,-5.0599 18.01462,-7.52619 8.8946,-4.46574 8.9237,-4.47245 7.1007,-1.63311 -6.0161,9.3703 -20.09856,23.85699 -32.58396,33.51936 -3.35172,2.59387 -3.39283,2.70967 -1.47346,4.15071 2.15979,1.62155 2.82061,1.5761 20.12937,-1.38433 9.69635,-1.65844 17.99945,-3.80977 24.89615,-6.45066 3.1722,-1.21469 -9.2219,11.10961 -17.7772,17.67709 l -7.77717,5.97017 4.01177,4.55766 c 18.9155,21.48917 23.089,42.95736 14.7379,75.81105 -4.0876,16.08078 -6.6953,29.29535 -6.6953,33.92897 0,14.81771 11.5142,25.51828 35,32.52675 18.9481,5.65436 46.3011,17.08544 72.1284,30.14313 12.5197,6.32967 17.039,9.20739 22.72,14.46713 8.3816,7.76012 14.8627,17.79237 18.6921,28.93402 3.6537,10.63048 4.5883,29.24204 2.0325,40.47865 -7.0724,31.09499 -30.4682,53.18652 -64.7624,61.15222 -11.5648,2.6862 -37.2427,3.407 -52.3106,1.4683 z M 530.8,477.8 c 1.79707,-1.79707 1.48577,-2.60086 -1.63164,-4.21294 -2.60858,-1.34895 -3.13245,-1.28274 -6.65043,0.84045 -3.51379,2.12065 -3.66701,2.39287 -1.91836,3.4082 2.54616,1.47841 8.70788,1.45684 10.20043,-0.0357 z m 59.76078,-81.47017 c -4.90509,-8.77616 -8.83884,-13.26534 -11.6535,-13.29891 -3.31254,-0.0395 -10.77603,3.88577 -12.59379,6.62347 -1.3534,2.03832 -1.21542,2.12742 4.37695,2.82614 7.13857,0.8919 14.84678,3.72873 18.80956,6.92243 1.65,1.32977 3.16407,2.25654 3.3646,2.05947 0.20053,-0.19706 -0.83619,-2.50673 -2.30382,-5.1326 z m 256.66818,537.00088 c -2.38344,-0.95897 -4.22898,-6.22153 -4.21919,-12.03105 0.0102,-6.04923 3.10538,-14.50395 6.2671,-17.11899 1.29197,-1.06859 1.48536,-2.62885 1.0175,-8.20937 -0.67471,-8.04796 0.69357,-11.04418 6.25458,-13.69603 1.89808,-0.90513 3.45105,-1.9912 3.45105,-2.41348 0,-1.23607 -7.07953,-2.85017 -12.52749,-2.85621 -2.86469,-0.003 -5.95828,-0.65753 -7.19112,-1.52104 -1.9423,-1.36044 -2.60441,-1.34487 -6.47251,0.15216 -5.99946,2.3219 -8.74369,5.10345 -9.46108,9.58972 -0.57475,3.59429 -0.7281,3.73939 -2.37596,2.24809 -3.68808,-3.33766 -3.03765,-10.2859 1.5442,-16.49625 2.77141,-3.75644 9.9076,-8.97826 12.26977,-8.97826 0.81667,0 2.52746,-1.125 3.80177,-2.5 3.14535,-3.39389 7.07338,-3.21289 14.69094,0.67693 5.1007,2.60461 7.41248,3.18214 12.83279,3.20588 4.56901,0.02 7.41,-0.49437 9.19682,-1.66513 2.43976,-1.5986 2.50429,-1.84977 1.14485,-4.45589 -1.63402,-3.13247 -1.9713,-15.96773 -0.54983,-20.92409 0.80062,-2.79162 0.5589,-3.47198 -2.12938,-5.9934 -4.08571,-3.83213 -9.05509,-11.70216 -11.41503,-18.07807 -1.89261,-5.11332 -2.14339,-5.33479 -10.89796,-9.6241 -18.09103,-8.86371 -36.96326,-23.10181 -54.02657,-40.76018 -13.99394,-14.48196 -14.43738,-15.21944 -14.41685,-23.97634 0.0348,-14.84118 5.24726,-30.13209 12.8073,-37.57062 6.12059,-6.02221 12.78349,-8.48322 24.50994,-9.053 16.53827,-0.80359 27.27196,2.55402 36.95784,11.5608 8.74732,8.13403 9.16648,9.83058 9.42719,38.15721 0.12402,13.475 0.4815,26.75273 0.79441,29.50606 C 869.78246,781.6672 876.87174,788 888.0977,788 c 6.92699,0 15.28789,-3.96454 18.54088,-8.79165 2.68961,-3.99112 3.3493,-2.53662 2.31009,5.09337 -0.52957,3.88814 -1.68508,6.97498 -3.50335,9.35885 -2.62263,3.43845 -9.21648,7.27235 -12.58517,7.31747 -1.36588,0.0183 -1.04147,1.40027 1.94176,8.27196 5.19057,11.95617 5.36182,17.26371 0.88995,27.58289 -4.76466,10.99482 -5.31376,13.82244 -3.14878,16.21471 0.95232,1.05231 3.27292,2.20246 5.15689,2.55589 2.88005,0.5403 4.26288,0.0658 8.68589,-2.98044 5.97233,-4.1133 8.82154,-4.46593 13.11414,-1.62305 2.04431,1.3539 4.75209,2.0029 8.5,2.0373 6.11107,0.0561 12.12584,1.86162 15.0662,4.52261 2.83836,2.56868 2.36561,3.42432 -1.3096,2.37028 -7.65281,-2.19479 -16.36284,-0.34724 -17.37501,3.68555 C 923.17117,868.43845 919.60446,870 909.7994,870 900.6806,870 897,870.99315 897,873.4537 c 0,0.76083 1.575,4.6698 3.5,8.6866 3.99038,8.32653 4.42611,12.93359 1.5,15.8597 -4.37543,4.37543 -1.28024,15.53974 5.55793,20.04743 l 2.94207,1.93939 -4.07856,0.007 C 900.2932,920.00331 889,911.68619 889,907.16302 c 0,-0.56554 -0.88831,-1.31018 -1.97402,-1.65477 -1.08571,-0.34459 -2.92955,-1.96845 -4.09742,-3.60857 -1.74703,-2.45349 -2.007,-3.81667 -1.46668,-7.69086 1.08422,-7.77417 1.103,-15.68592 0.0381,-16.06186 -0.55,-0.19417 -2.125,3.31958 -3.5,7.80833 -1.86104,6.07545 -3.42634,9.10489 -6.1244,11.85304 -1.99342,2.03042 -4.54349,5.80174 -5.66681,8.38073 -1.74865,4.01462 -2.6142,4.84302 -6.01785,5.75952 -4.49654,1.2108 -10.73727,7.39569 -11.82155,11.71579 -0.37475,1.49313 -0.22369,4.42948 0.33569,6.52521 1.01882,3.81703 0.88922,4.09282 -1.47612,3.14113 z m -210.0392,-6.68357 c -7.04456,-3.90914 -8.06752,-12.70055 -2.70847,-23.27675 1.91472,-3.77871 3.48972,-8.02188 3.5,-9.42926 0.0254,-3.47084 1.32817,-4.8528 9.76871,-10.36232 3.9875,-2.60282 7.25,-5.33709 7.25,-6.07615 0,-1.85426 -5.13217,-2.80969 -10.86047,-2.02185 -3.70618,0.50973 -5.07246,0.30493 -6.08217,-0.9117 -4.29106,-5.17041 -17.07148,4.13525 -17.0512,12.41529 0.003,1.38358 0.67839,3.80454 1.5,5.37991 1.94747,3.7341 1.92519,3.78935 -0.99214,2.46013 -9.70201,-4.42054 -6.77833,-20.29659 6.07575,-32.99224 2.9693,-2.93271 5.40132,-5.86204 5.40448,-6.50962 0.0101,-2.06173 5.16269,-5.32301 8.39061,-5.31071 1.71333,0.007 5.59014,0.68163 8.61514,1.50024 3.025,0.8186 6.85,1.23456 8.5,0.92436 7.46472,-1.40338 22.04564,-8.66697 25.13453,-12.52093 0.62399,-0.77855 1.45427,-2.99054 1.84506,-4.91554 1.08859,-5.36224 5.75438,-13.0455 16.9553,-27.92071 5.6238,-7.46861 11.29139,-15.35268 12.59463,-17.52016 l 2.36953,-3.94087 -4.89314,-4.05913 C 698.71787,770.12119 696.89353,766.8174 701.62526,761.8549 710.2131,752.84821 728.50269,742.50756 741.09492,739.53935 751.5353,737.07837 769,737.99969 769,741.01144 c 0,0.50459 -2.21204,5.32094 -4.91566,10.703 -7.1875,14.30812 -8.29231,19.52169 -5.85834,27.64554 1.41955,4.73806 6.95182,10.66977 12.67383,13.58892 2.19055,1.11753 7.64875,3.09024 12.12933,4.38379 7.83247,2.26124 8.03712,2.39473 5.30868,3.46283 -6.66611,2.60958 -12.52549,3.36315 -28.20972,3.62802 -14.0788,0.23776 -18.10472,0.67331 -26.25931,2.84089 -17.17455,4.56521 -26.19698,9.122 -28.77453,14.53262 -1.55079,3.25532 -1.35568,8.79678 0.4314,12.25261 0.83912,1.62269 1.13547,2.95034 0.65854,2.95034 -1.6644,0 0.51195,9.14062 2.69646,11.32508 1.79447,1.79444 3.33113,2.17492 8.78391,2.17492 6.08652,0 6.77599,0.22327 8.72218,2.82444 1.78738,2.38893 2.1303,4.31636 2.22391,12.5 0.0609,5.32156 0.4618,12.69541 0.89094,16.38634 0.53439,4.59612 0.37979,8.14115 -0.49064,11.25 -1.55509,5.55423 -2.46485,5.78153 -2.6532,0.66288 C 726.12089,887.68549 718.69986,878 714.00383,878 710.84676,878 709,876.32971 709,873.47431 c 0,-2.54664 -3.37408,-5.9144 -7.48715,-7.47311 -1.64294,-0.62262 -6.59294,-1.37954 -11,-1.68206 -7.21403,-0.4952 -8.28814,-0.33101 -10.77427,1.64698 -2.64263,2.1025 -2.75634,2.55829 -2.64334,10.59558 0.10409,7.40348 -0.19616,8.93479 -2.53412,12.92422 -3.70574,6.32337 -11.09294,10.49199 -18.61534,10.5047 -10.27191,0.0173 -18.9383,7.80105 -18.9383,17.00938 0,2.72596 0.78119,5.78125 1.98156,7.75 2.14139,3.51213 1.78611,3.88673 -1.79928,1.89714 z M 402.71932,755.58272 c 4.90375,-4.12623 8.69525,-12.26088 8.74085,-18.75345 0.0382,-5.43391 -0.1428,-5.83942 -4.33325,-9.71002 -4.3609,-4.02803 -4.3719,-4.05575 -3.94591,-9.94492 0.34337,-4.74699 1.26999,-7.30054 4.72308,-13.0156 6.25346,-10.34983 5.90454,-14.48514 -1.81029,-21.45503 -3.85583,-3.4835 -9.48259,-5.68833 -18.24235,-7.14821 -4.29475,-0.71574 -8.32679,-3.64023 -10.31217,-7.47952 -0.78141,-1.5111 -2.15101,-6.98386 -3.04354,-12.16171 -0.89253,-5.17784 -2.23873,-10.36441 -2.99154,-11.52571 -4.15379,-6.4077 -19.9293,-1.89095 -26.22758,7.50933 L 343,655.29577 v -3.24676 c 0,-4.66508 2.78712,-9.89875 7.94729,-14.92347 2.47081,-2.40595 4.96846,-5.33095 5.55033,-6.5 0.58187,-1.16905 2.78146,-2.69232 4.88798,-3.38505 5.22119,-1.71699 11.0697,-0.0826 15.70373,4.3885 3.14791,3.03722 3.74601,3.27434 4.86335,1.92803 2.64902,-3.19188 0.37634,-8.09422 -7.52296,-16.22759 -4.11773,-4.23975 -7.74078,-8.86082 -8.0512,-10.26903 -1.1923,-5.40879 -1.61765,-6.14101 -5.11828,-8.81107 -4.78764,-3.65172 -13.61114,-3.87897 -20.01024,-0.51538 -5.06475,2.66221 -5.44874,1.61864 -1.03022,-2.79988 4.65194,-4.65194 9.18507,-6.28751 17.38429,-6.27232 5.92086,0.011 8.16935,0.53576 13.5,3.15083 3.51776,1.72572 7.07093,3.5617 7.89593,4.07996 0.825,0.51826 2.9239,1.46806 4.66421,2.11066 2.11583,0.78126 3.54459,2.21676 4.31224,4.33259 2.31032,6.36779 5.169,11.20952 7.7224,13.07936 2.59863,1.90297 2.62679,1.90093 4.42628,-0.32135 0.99606,-1.23008 2.11028,-3.83173 2.47605,-5.78144 0.84203,-4.48841 -1.1231,-13.43486 -3.65923,-16.65903 -2.4009,-3.05225 -2.44708,-3.76814 -0.19195,-2.97535 8.28314,2.91191 15.02059,18.55779 13.1331,30.498 -0.70356,4.45069 -0.54826,5.56199 1.01841,7.28775 4.83774,5.32898 5.04818,8.01242 1.49287,19.03627 -2.02908,6.29152 -2.45918,9.20471 -2.01395,13.64108 1.14919,11.4507 6.7309,21.08264 13.75002,23.72738 3.46112,1.30412 14.21013,1.6804 19.86955,0.69556 6.76642,-1.17748 17.40547,-6.50713 27.81588,-13.93441 10.47196,-7.47118 13.6084,-9.26329 17.1078,-9.77512 2.27968,-0.33343 2.49482,0.0644 3.62102,6.69591 2.68959,15.83745 7.87806,28.36679 15.05025,36.34399 4.44158,4.9401 4.48368,5.05288 2.97517,7.97001 -2.00921,3.88538 -5.98677,6.93554 -10.03454,7.6949 l -3.26153,0.61187 -0.56664,7.66441 c -0.71603,9.68501 -2.85748,15.81148 -7.36913,21.08232 C 488.34221,752.41813 480,758.05372 480,756.57748 c 0,-0.25474 0.95298,-2.07834 2.11773,-4.05245 2.95239,-5.00393 3.6259,-14.7701 1.46687,-21.27032 -1.87113,-5.63345 -3.74333,-7.66645 -7.99266,-8.67912 -1.59943,-0.38117 -5.87443,-3.53206 -9.5,-7.00198 C 458.75697,708.55353 456.31303,707 452.60438,707 c -1.62157,0 -3.94614,-1.4333 -6.48732,-4 -3.332,-3.36547 -4.60719,-4 -8.03864,-4 -6.38255,0 -8.29711,2.57607 -8.0533,10.8358 0.32742,11.09214 0.12524,12.16769 -2.84575,15.13867 -2.36482,2.36483 -2.84431,3.72088 -2.9672,8.3916 -0.16689,6.34322 -3.34563,13.54382 -7.86892,17.82498 -3.33464,3.15614 -10.84975,6.75565 -14.16998,6.78699 -2.28189,0.0215 -2.27136,-0.0246 0.54605,-2.39532 z M 709.3255,629.97981 C 691.43863,628.5198 673.37026,624.35742 664.5,619.65343 l -4,-2.12124 7.5,-0.55757 c 5.67898,-0.4222 8.79401,-1.26431 12.82947,-3.46828 21.29274,-11.62908 34.0829,-50.59598 20.51681,-62.50716 -3.2717,-2.87259 -5.88993,-3.58319 -11.34628,-3.07941 -4.17407,0.38539 -8.2392,3.59255 -13.76002,10.85587 -4.96982,6.53842 -11.3329,11.46477 -12.84948,9.94819 -1.06861,-1.06861 -0.66778,-23.37126 0.58917,-32.78256 3.01285,-22.55841 11.64799,-49.28431 24.07154,-74.50174 29.94059,-60.77371 81.42705,-111.4412 148.41853,-146.05772 22.26822,-11.50667 46.95441,-22.29099 48.19228,-21.05313 0.82933,0.82934 -7.14638,6.23414 -18.37526,12.45214 -10.11852,5.60314 -10.36914,5.82887 -12.35174,11.12515 -4.24585,11.3423 -4.40032,28.13034 -0.37062,40.28089 1.83853,5.54362 7.98514,15.22443 12.0498,18.97825 l 2.8858,2.66511 11.5,-2.88375 c 6.325,-1.58605 16,-3.55402 21.5,-4.37324 10.32763,-1.53831 27.53799,-2.9327 24,-1.94449 -1.1,0.30725 -6.95,1.90365 -13,3.54756 -15.03488,4.08529 -39.33054,12.9397 -39.95248,14.56046 -0.27984,0.72926 -1.01543,5.27639 -1.63464,10.10472 -2.19436,17.11065 2.19657,31.4949 12.80873,41.96013 9.50433,9.37275 8.3906,9.19545 30.59457,4.87056 10.5511,-2.05514 25.70882,-4.39431 33.68382,-5.19816 7.975,-0.80385 16.74184,-1.71869 19.48187,-2.03298 7.98923,-0.91639 4.86775,0.26143 -8.01454,3.0241 -14.6749,3.1471 -56.51679,14.63548 -58.19871,15.97941 -1.17373,0.93787 -3.53655,18.89326 -3.98358,30.27175 -0.84628,21.541 1.64176,31.12615 10.40352,40.07952 l 4.81144,4.91665 11,1.79432 c 10.89867,1.77779 33.19276,7.84121 34.87226,9.48437 0.47975,0.46936 -0.85844,0.46304 -2.97374,-0.014 -4.55237,-1.02672 -33.7132,-3.39622 -35.10973,-2.85288 -0.80995,0.31512 -11.72643,16.10854 -30.50949,44.1396 -6.67476,9.96113 -10.73079,22.41205 -7.87579,24.17653 0.62656,0.38724 8.65666,1.14864 17.84466,1.692 9.18799,0.54336 16.8738,1.15628 17.07958,1.36206 0.20577,0.20577 -1.58379,0.96621 -3.97681,1.68986 -6.60812,1.99829 -61.04166,1.67642 -85.85094,-0.50765 -28.00869,-2.46573 -70.84324,-7.33823 -89.89898,-10.22614 -18.35214,-2.78129 -17.65744,-2.89709 -24.4255,4.07175 -4.57262,4.70828 -5.12685,7.11734 -2.29007,9.95412 4.04277,4.04276 12.57352,4.75943 40.94569,3.43983 36.6181,-1.70312 89.01156,-1.70845 100.16236,-0.0102 12.02075,1.83075 9.16853,2.64598 -11.9935,3.42801 -9.35,0.34552 -34.775,1.73063 -56.5,3.07801 -51.97066,3.22322 -61.55301,3.5572 -73.6745,2.56779 z M 872,605.22179 c 0,-5.66516 5.1637,-15.3612 20.11927,-37.77859 7.3594,-11.03125 14.19367,-21.49375 15.18727,-23.25 l 1.80653,-3.1932 -2.80653,0.0145 C 900.4057,541.045 867.989,543.0333 857,544.03872 c -58.06771,5.31276 -118.52398,18.45321 -125.92448,27.37027 -2.34013,2.81967 -0.43168,6.34489 5.19079,9.58826 15.48437,8.93227 65.76564,19.926 122.73369,26.83505 13.40195,1.62538 13,1.7061 13,-2.61053 z m -113,-58.0386 c 32.54593,-8.81143 82.78357,-15.16858 119.94617,-15.17817 l 19.44616,-0.005 -3.14421,-3.25 c -4.07887,-4.2161 -7.86498,-12.88601 -9.34919,-21.40896 -1.31459,-7.54896 -0.70526,-28.13145 1.11473,-37.65405 0.61105,-3.19716 0.97045,-6.21179 0.79867,-6.69919 -0.30013,-0.85158 -21.63708,7.01791 -39.66955,14.6309 -15.95141,6.73442 -44.52291,21.14249 -58.32042,29.4099 -26.29549,15.75614 -53.17056,38.01566 -51.41664,42.5863 0.82112,2.13982 5.94247,1.5351 20.59428,-2.43171 z m -40.56147,-9.59306 c 1.85587,-0.77543 11.70378,-7.07971 21.88425,-14.00951 45.3275,-30.85424 88.08969,-52.8171 128.67722,-66.08925 6.325,-2.06828 11.86091,-3.96598 12.30202,-4.21711 0.44111,-0.25113 -1.22267,-1.74062 -3.69731,-3.30999 -6.19792,-3.93061 -12.31394,-10.45696 -15.27444,-16.29922 -4.58519,-9.04843 -6.5268,-24.53503 -4.43234,-35.35299 l 0.81083,-4.18795 -8.10438,4.05181 c -11.2123,5.60561 -33.13081,18.85144 -45.10438,27.25753 -34.82368,24.44812 -65.4812,56.11574 -85.26299,88.07221 -9.68313,15.64261 -11.85366,21.47769 -9.03701,24.29434 1.55865,1.55865 3.11379,1.51356 7.23853,-0.20987 z M 693.63395,518.75 c 1.66446,-1.7875 5.14351,-6.27775 7.73124,-9.97834 8.28265,-11.84465 22.58012,-28.69169 36.54887,-43.06641 34.316,-35.31329 72.26273,-62.19681 110.88973,-78.56029 l 5.30379,-2.24683 -5.10085,-5.58114 c -5.51887,-6.03852 -7.69414,-9.79048 -10.61964,-18.31699 -2.24668,-6.54805 -2.69787,-29.30043 -0.68911,-34.75 0.65889,-1.7875 0.95259,-3.25 0.65267,-3.25 -1.61091,0 -33.7393,22.37922 -45.35065,31.58926 -15.72051,12.4694 -43.38501,39.74184 -54.20744,53.43922 -24.09623,30.49733 -41.9761,65.12526 -51.73141,100.18821 -1.99165,7.15848 -2.03349,7.93611 -0.57837,10.75 1.99637,3.86057 3.39401,3.81822 7.15117,-0.21669 z M 229.30987,271.5 c 0.006,-3.3 0.1923,-4.52944 0.41486,-2.73209 0.22256,1.79735 0.21797,4.49735 -0.0102,6 -0.22818,1.50265 -0.41027,0.0321 -0.40466,-3.26791 z"
       id="path20" />
    <path
       style="fill:#bc1d1d"
       d="m 747.5,1397.3659 c -1.1,-0.2935 -8.525,-2.1102 -16.5,-4.037 -14.18113,-3.4263 -43.32179,-12.5579 -45.43521,-14.2378 -0.58563,-0.4655 -2.18979,-1.1695 -3.56479,-1.5645 -9.88481,-2.8396 -55.24625,-26.5228 -80.49363,-42.0257 -38.40843,-23.5844 -81.22471,-56.0015 -114.98772,-87.0596 -31.22519,-28.7235 -71.38089,-71.776 -90.05297,-96.5493 -1.08112,-1.4344 -5.16475,-6.8344 -9.07472,-12 C 372.41681,1120.1091 345,1080.3764 345,1078.4586 c 0,-0.241 -1.93799,-3.4802 -4.30663,-7.1984 -4.3013,-6.7518 -19.26764,-33.5267 -26.13752,-46.7602 -8.80951,-16.9698 -21.37418,-45.6207 -27.62824,-63 -2.17713,-6.05 -4.39322,-11.9 -4.92464,-13 -2.13926,-4.42816 -9.57279,-28.27407 -14.18379,-45.5 -5.38628,-20.12222 -10.40509,-46.00163 -13.38121,-69 -2.36348,-18.26411 -3.21294,-61.3713 -7.08426,-359.5 -0.89989,-69.3 -1.96124,-150.3 -2.35856,-180 -0.39732,-29.7 -0.78377,-87.8625 -0.85877,-129.25 L 244,90 H 751.51101 1259.022 l -0.3203,85.75 c -0.288,77.08188 -1.7203,203.35442 -4.7499,418.75 -0.5724,40.7 -1.4594,107.075 -1.9711,147.5 -0.6328,50.00168 -1.3859,77.97587 -2.3555,87.5 -1.8887,18.55298 -5.4234,44.254 -6.6015,48 -0.5189,1.65 -1.4526,6.15 -2.0749,10 -3.7931,23.46617 -20.9517,80.84363 -29.9764,100.2391 -1.0848,2.33151 -1.9724,4.4937 -1.9724,4.80487 0,0.31116 -0.8471,2.45357 -1.8824,4.76089 -1.0354,2.30733 -3.3441,7.57014 -5.1305,11.69514 -5.0903,11.7539 -15.9112,33.2371 -24.9661,49.5662 -54.2018,97.7442 -138.5276,187.3593 -240.021,255.076 -32.89311,21.9464 -70.84629,43.5071 -97.5,55.3885 -2.75,1.2258 -9.275,4.2478 -14.5,6.7155 -19.07907,9.0107 -30.73693,13.7875 -44.5,18.234 -8.06746,2.6064 -12.02917,3.2973 -20.5,3.5752 -5.775,0.1894 -11.4,0.1041 -12.5,-0.1895 z m 28.17616,-28.8315 c 14.00942,-4.8244 18.67035,-6.7375 35.69245,-14.65 49.37254,-22.9503 77.23044,-38.4239 114.42101,-63.5551 74.54618,-50.3739 136.69088,-109.8711 187.83138,-179.8293 57.2817,-78.3592 96.3434,-172.47377 107.9116,-260 4.1387,-31.31398 4.539,-39.6352 5.461,-113.5 0.5046,-40.425 1.3858,-106.8 1.9582,-147.5 2.813,-199.99778 4.4554,-339.60366 4.7498,-403.75 L 1234.0264,115 H 751.51319 269 l 0.13638,60.25 c 0.075,33.1375 0.46145,84.55 0.85877,114.25 0.39732,29.7 1.45867,110.7 2.35856,180 3.86879,297.93416 4.72439,341.58104 7.03737,359 3.20107,24.10708 7.71007,47.92984 12.11346,64 6.95383,25.37802 9.17989,32.31042 18.7849,58.5 14.93644,40.72659 34.82973,79.8716 64.0325,126 8.51454,13.4495 21.69429,31.87 42.14374,58.9016 18.39,24.3093 56.54555,65.3269 86.12345,92.5835 50.91135,46.9158 110.44584,87.937 167.43634,115.3693 26.69758,12.8508 43.67509,19.0415 70.09149,25.5583 17.10015,4.2186 21.04119,4.1212 35.5592,-0.8783 z"
       id="path18" />
  </g>
</svg>
