<?xml version="1.0" encoding="UTF-8" standalone="no"?>
<svg
   xmlns:dc="http://purl.org/dc/elements/1.1/"
   xmlns:cc="http://creativecommons.org/ns#"
   xmlns:rdf="http://www.w3.org/1999/02/22-rdf-syntax-ns#"
   xmlns:svg="http://www.w3.org/2000/svg"
   xmlns="http://www.w3.org/2000/svg"
   xmlns:sodipodi="http://sodipodi.sourceforge.net/DTD/sodipodi-0.dtd"
   xmlns:inkscape="http://www.inkscape.org/namespaces/inkscape"
   version="1.1"
   id="svg2"
   width="1043.9584"
   height="1045.8192"
   viewBox="0 0 1043.9584 1045.8192"
   sodipodi:docname="Kastav.svg"
   inkscape:version="1.0.1 (3bc2e813f5, 2020-09-07)">
  <metadata
     id="metadata8">
    <rdf:RDF>
      <cc:Work
         rdf:about="">
        <dc:format>image/svg+xml</dc:format>
        <dc:type
           rdf:resource="http://purl.org/dc/dcmitype/StillImage" />
        <dc:title></dc:title>
      </cc:Work>
    </rdf:RDF>
  </metadata>
  <defs
     id="defs6" />
  <sodipodi:namedview
     pagecolor="#ffffff"
     bordercolor="#666666"
     borderopacity="1"
     objecttolerance="10"
     gridtolerance="10"
     guidetolerance="10"
     inkscape:pageopacity="0"
     inkscape:pageshadow="2"
     inkscape:window-width="1920"
     inkscape:window-height="1057"
     id="namedview4"
     showgrid="false"
     inkscape:pagecheckerboard="true"
     inkscape:zoom="0.49"
     inkscape:cx="519.95843"
     inkscape:cy="511.95843"
     inkscape:window-x="-8"
     inkscape:window-y="-8"
     inkscape:window-maximized="1"
     inkscape:current-layer="g10" />
  <g
     inkscape:groupmode="layer"
     inkscape:label="Image"
     id="g10"
     transform="translate(-230.04157,-238.04157)">
    <circle
       style="fill:#ffffff;fill-rule:evenodd"
       id="path20"
       cx="753.06122"
       cy="759.18365"
       r="502.0408" />
    <g
       id="g14">
      <path
         style="fill:#d1575d"
         d="m 718.5,1237.4775 c -83.05413,-7.6281 -157.99302,-32.9127 -223,-75.2408 -13.61424,-8.8647 -39.80378,-28.2292 -47.5,-35.1215 l -4.5,-4.0299 58.25,-0.043 58.25,-0.043 v 11 11 h 12.38569 c 9.04186,0 13.15899,-0.4033 15.25,-1.4938 1.57537,-0.8217 3.70177,-1.4967 4.72533,-1.5 1.02356,0 7.54856,-1.6304 14.5,-3.6156 15.19329,-4.3388 26.71556,-7.4703 38.13898,-10.3652 4.675,-1.1848 10.68918,-2.8002 13.36483,-3.5898 4.06673,-1.2001 19.16002,-1.4319 92,-1.4129 l 87.13517,0.023 11,3.0289 c 19.05679,5.2474 24.8165,6.8103 31.5,8.5475 8.12691,2.1124 24.99755,6.9326 31.13421,8.8957 3.08444,0.9866 8.85319,1.4824 17.25,1.4824 H 941 v -11 -11 l 60.75,0.043 60.75,0.043 -4.5,4.0299 c -14.0163,12.5522 -48.9058,36.911 -71.5,49.9193 -76.84041,44.2396 -183.21297,68.2302 -268,60.443 z M 573.7314,1134.2967 c 2.21995,-0.4287 2.23287,-0.5473 2.51973,-23.1138 l 0.28834,-22.6829 0.23026,23.25 L 577,1135 l -2.75,-0.1362 c -2.32982,-0.1154 -2.40906,-0.202 -0.5186,-0.5671 z m 353.53763,0.01 c 0.97297,-0.2535 2.32297,-0.2369 3,0.037 0.67703,0.2739 -0.11903,0.4813 -1.76903,0.461 -1.65,-0.02 -2.20394,-0.2445 -1.23097,-0.4981 z M 570.42879,1111.5 c 7e-4,-12.65 0.14401,-17.6871 0.31847,-11.1936 0.17445,6.4936 0.17388,16.8436 -10e-4,23 -0.17516,6.1565 -0.31789,0.8436 -0.31719,-11.8064 z m 13.00128,-0.5 c 0,-12.925 0.14251,-18.2125 0.3167,-11.75 0.17418,6.4625 0.17418,17.0375 0,23.5 -0.17419,6.4625 -0.3167,1.175 -0.3167,-11.75 z M 593.5,1131 c 1.1,-0.4727 2.675,-0.8594 3.5,-0.8594 0.94548,0 0.76064,0.3177 -0.5,0.8594 -1.1,0.4727 -2.675,0.8594 -3.5,0.8594 -0.94548,0 -0.76064,-0.3177 0.5,-0.8594 z m 307,-0.7131 c -1.1,-0.2646 -2.41965,-0.8795 -2.93255,-1.3665 -0.5129,-0.487 0.56071,-0.4572 2.38581,0.066 5.15345,1.478 5.58866,2.5131 0.54674,1.3003 z M 600,1129.0457 c 0.825,-0.5583 2.3625,-1.022 3.41667,-1.0304 2.55844,-0.02 1.76026,0.5519 -1.91667,1.3744 -2.19092,0.4901 -2.59546,0.3973 -1.5,-0.344 z m 9.76845,-2.2141 c 0.5811,-0.5812 1.64682,-0.8598 2.36826,-0.6194 0.74895,0.2497 0.29565,0.703 -1.05655,1.0566 -1.66335,0.435 -2.05378,0.3048 -1.31171,-0.4372 z M 888,1126.9543 c -1.09546,-0.7413 -0.69092,-0.8341 1.5,-0.344 3.67693,0.8225 4.47511,1.3948 1.91667,1.3744 -1.05417,-0.01 -2.59167,-0.4721 -3.41667,-1.0304 z m -273.1875,-1.6374 c 0.72187,-0.2889 1.58438,-0.2534 1.91667,0.079 0.33229,0.3323 -0.25834,0.5687 -1.3125,0.5253 -1.16495,-0.048 -1.4019,-0.285 -0.60417,-0.6042 z M 880,1124.5 c -1.925,-0.7413 -2.825,-1.3478 -2,-1.3478 0.825,0 3.075,0.6065 5,1.3478 1.925,0.7413 2.825,1.3478 2,1.3478 -0.825,0 -3.075,-0.6065 -5,-1.3478 z M 619,1124 c 0.825,-0.5332 2.175,-0.9446 3,-0.9144 0.98906,0.036 0.81874,0.3477 -0.5,0.9144 -2.74909,1.1813 -4.32797,1.1813 -2.5,0 z m 12,-2.8513 c 0.825,-0.4834 2.85,-1.1707 4.5,-1.5275 1.91973,-0.4151 2.45986,-0.3322 1.5,0.2301 -0.825,0.4834 -2.85,1.1707 -4.5,1.5275 -1.91973,0.4151 -2.45986,0.3322 -1.5,-0.2301 z m 236,-0.1944 c -1.09546,-0.7413 -0.69092,-0.8341 1.5,-0.344 3.67693,0.8225 4.47511,1.3948 1.91667,1.3744 -1.05417,-0.01 -2.59167,-0.4721 -3.41667,-1.0304 z m -19.1875,-5.6374 c 0.72187,-0.2889 1.58438,-0.2534 1.91667,0.079 0.33229,0.3323 -0.25834,0.5687 -1.3125,0.5253 -1.16495,-0.048 -1.4019,-0.285 -0.60417,-0.6042 z M 656.25,1114.3693 c 1.58861,-0.4684 1.75,-2.3007 1.75,-19.8693 0,-17.5686 -0.16139,-19.4009 -1.75,-19.8693 -1.36006,-0.4009 -1.30435,-0.4699 0.25,-0.3096 1.92636,0.1987 2,0.9417 2,20.1789 0,19.2372 -0.0736,19.9802 -2,20.1789 -1.55435,0.1603 -1.61006,0.091 -0.25,-0.3096 z m 186.30764,-0.276 c -0.30822,-0.4987 0.34022,-0.6713 1.44098,-0.3834 2.33499,0.6106 2.63015,1.2901 0.5604,1.2901 -0.79254,0 -1.69316,-0.408 -2.00138,-0.9067 z m 97.92676,-46.5933 0.0156,-44 53,-0.014 53,-0.014 -52.7396,0.2723 -52.73961,0.2724 -0.276,43.7411 -0.276,43.7412 0.0156,-44 z m 150.4686,11.4584 c -3.5491,-6.0723 -7.6258,-12.9345 -9.0591,-15.2494 -1.4334,-2.315 -5.5959,-9.0222 -9.25,-14.9049 -3.6542,-5.8827 -6.6439,-10.9753 -6.6439,-11.3167 0,-0.3415 -1.08,-2.0533 -2.4,-3.8041 -2.3467,-3.1127 -4.77,-7.154 -7.9052,-13.1833 -1.3246,-2.5475 -5.2524,-31.64437 -4.9271,-36.5 0.055,-0.825 -1.2109,-12.975 -2.8136,-27 -3,-26.25219 -6.533,-57.66363 -11.9788,-106.5 -1.7173,-15.4 -4.3502,-38.2375 -5.851,-50.75 L 1027.3956,777 h 14.7755 14.7754 l 0.2768,-14.75 0.2767,-14.75 9.5915,-0.2843 9.5915,-0.2843 0.6585,-22.62731 C 1077.7037,711.85907 1078,696.34951 1078,689.83839 V 678 h -26.047 -26.047 l 0.1543,14.25 0.1542,14.25 -8.4161,0.28614 -8.4161,0.28615 -2.1662,-44.28615 c -1.1914,-24.35737 -2.1715,-48.11114 -2.178,-52.78614 -0.011,-8.20188 -0.4738,-17.93426 -1.6275,-34.25 l -0.548,-7.75 h 8.0687 8.0687 v -5 -5 h 3.5 3.5 V 534.5 511 h -21 -21 v 10.5 10.5 h -7 -7 V 521.5 511 H 949.5 929 V 521.5 532 H 915.5 902 V 521.5 511 h -21 -21 v 23.5 23.5 h 3.5 3.5 v 5 5 h 8.02785 8.02785 l -0.5324,6.25 c -1.04722,12.2935 -2.60673,46.07845 -2.65696,57.55981 -0.0281,6.4296 -0.79706,25.86519 -1.70874,43.19019 l -1.6576,31.5 -15.10053,0.27524 -15.10054,0.27524 -0.59239,-8.27524 C 845.14433,690.92166 842.26811,631.26476 838.14798,542 c -1.02813,-22.275 -1.68046,-40.8375 -1.44964,-41.25 0.23083,-0.4125 5.56814,-0.75 11.86068,-0.75 H 860 v -6.94521 -6.94521 l 4.75,-0.30479 4.75,-0.30479 0.26425,-31.25 0.26424,-31.25 H 842.51425 815 V 438.5 454 H 802 789 V 438.5 423 H 761.5 734 V 438.5 454 H 711.5 689 V 438.5 423 H 661.5 634 v 31.5 31.5 h 5 5 v 7 7 h 11.64974 11.64975 l -0.6819,9.25 c -0.37505,5.0875 -0.91201,18.25 -1.19326,29.25 -0.28124,11 -1.84177,45.69621 -3.46784,77.10269 C 660.33042,647.00917 659,678.33387 659,685.21312 c 0,6.87926 -0.28617,14.59554 -0.63592,17.14731 L 657.72815,707 h -14.25278 -14.25279 l -0.55498,-3.25 c -0.30524,-1.7875 -1.0376,-15.625 -1.62746,-30.75 -2.25522,-57.82682 -4.1639,-99.60552 -4.67135,-102.25 L 621.84109,568 H 629.92054 638 v -5 -5 h 3.5 3.5 V 534.5 511 H 624.5 604 v 10.5 10.5 h -7 -7 V 521.5 511 H 569 548 V 521.5 532 H 534.5 521 V 521.5 511 H 500.5 480 v 23.5 23.5 h 3 c 2.93333,0 3,0.11111 3,5 v 5 h 8.60616 8.60616 l -0.62686,8.75 c -1.25012,17.44944 -4.51915,87.24962 -5.0386,107.58364 -0.29272,11.4585 -0.78707,21.246 -1.09855,21.75 C 496.13682,706.58764 491.63352,707 486.44098,707 H 477 V 692.5 678 h -26 -26 v 34.46379 34.46379 l 9.75,0.28621 9.75,0.28621 0.27673,14.75 0.27674,14.75 h 14.47326 c 13.11373,0 14.47417,0.16439 14.4829,1.75 0.01,1.74436 -1.53216,15.88775 -7.00382,64.25 -1.58677,14.025 -4.28448,38.1 -5.99491,53.5 -1.71042,15.4 -4.63855,41.275 -6.50693,57.5 -1.86839,16.225 -4.33606,37.69949 -5.48371,47.7211 l -2.08664,18.2211 -4.38847,7.2789 c -7.10434,11.7835 -13.79829,22.768 -17.54515,28.7908 -1.925,3.0943 -4.4,7.093 -5.5,8.886 -1.1,1.793 -4.6801,7.5643 -7.95579,12.8252 l -5.95579,9.5652 -4.97376,-5.3941 C 371.26033,1050.0587 341.90051,1006.9315 323.41905,968.5 287.38615,893.571 269.81537,803.38634 276.49569,727.65875 281.04249,676.11656 291.86516,630.03496 310.47009,583 329.08377,535.9429 356.20394,491.75709 392.5,449.35192 c 40.68667,-47.53477 97.2123,-91.1049 153,-117.93287 74.929,-36.0329 165.11366,-53.60368 240.84125,-46.92336 51.54219,4.5468 97.62379,15.36947 144.65875,33.9744 47.0571,18.61368 91.2429,45.73385 133.6481,82.02991 47.5347,40.68667 91.1049,97.2123 117.9328,153 22.2994,46.37068 37.2778,97.22497 44.4354,150.86637 C 1228.7256,717.1764 1229,725.01006 1229,761 c 0,45.06387 -0.6457,53.51923 -6.5125,85.27732 -9.3347,50.53026 -29.5617,106.63775 -53.4349,148.22268 -8.5931,14.9684 -24.9438,39.5472 -35.6828,53.6392 -9.6181,12.6211 -27.1478,33.3959 -32.5791,38.6102 l -3.3847,3.2494 z M 587.5,1087 c 1.65,-0.4199 3.9,-0.7718 5,-0.782 1.5672,-0.015 1.45899,0.1546 -0.5,0.782 -1.375,0.4404 -3.625,0.7923 -5,0.782 -2.2456,-0.017 -2.19472,-0.096 0.5,-0.782 z m 325.25,0.3377 c 0.6875,-0.2774 1.8125,-0.2774 2.5,0 0.6875,0.2774 0.125,0.5044 -1.25,0.5044 -1.375,0 -1.9375,-0.227 -1.25,-0.5044 z m -5,-1 c 0.6875,-0.2774 1.8125,-0.2774 2.5,0 0.6875,0.2774 0.125,0.5044 -1.25,0.5044 -1.375,0 -1.9375,-0.227 -1.25,-0.5044 z m -311.9375,-1.0208 c 0.72187,-0.2889 1.58438,-0.2534 1.91667,0.079 0.33229,0.3323 -0.25834,0.5687 -1.3125,0.5253 -1.16495,-0.048 -1.4019,-0.285 -0.60417,-0.6042 z m 308,0 c 0.72187,-0.2889 1.58438,-0.2534 1.91667,0.079 0.33229,0.3323 -0.25834,0.5687 -1.3125,0.5253 -1.16495,-0.048 -1.4019,-0.285 -0.60417,-0.6042 z M 570.41127,1066 c 0,-9.625 0.14998,-13.5625 0.3333,-8.75 0.18331,4.8125 0.18331,12.6875 0,17.5 -0.18332,4.8125 -0.3333,0.875 -0.3333,-8.75 z M 576,1066.07 c 0,-16.7625 -0.0223,-16.9348 -2.25,-17.3639 -1.92915,-0.3715 -1.85784,-0.4528 0.5,-0.5695 L 577,1048 v 17.5 c 0,9.625 -0.225,17.5 -0.5,17.5 -0.275,0 -0.5,-7.6187 -0.5,-16.9304 z m 7.35496,7.4304 c -0.003,-4.95 0.16605,-7.1011 0.37577,-4.7802 0.20972,2.3209 0.21222,6.3709 0.006,9 -0.20667,2.6291 -0.37827,0.7302 -0.38131,-4.2198 z m 5.39504,7.8377 c 0.6875,-0.2774 1.8125,-0.2774 2.5,0 0.6875,0.2774 0.125,0.5044 -1.25,0.5044 -1.375,0 -1.9375,-0.227 -1.25,-0.5044 z m 29.51903,-0.031 c 0.97297,-0.2535 2.32297,-0.2369 3,0.037 0.67703,0.2739 -0.11903,0.4813 -1.76903,0.461 -1.65,-0.02 -2.20394,-0.2445 -1.23097,-0.4981 z m 262,0 c 0.97297,-0.2535 2.32297,-0.2369 3,0.037 0.67703,0.2739 -0.11903,0.4813 -1.76903,0.461 -1.65,-0.02 -2.20394,-0.2445 -1.23097,-0.4981 z m 30,0 c 0.97297,-0.2535 2.32297,-0.2369 3,0.037 0.67703,0.2739 -0.11903,0.4813 -1.76903,0.461 -1.65,-0.02 -2.20394,-0.2445 -1.23097,-0.4981 z M 593.75,1080.3377 c 0.6875,-0.2774 1.8125,-0.2774 2.5,0 0.6875,0.2774 0.125,0.5044 -1.25,0.5044 -1.375,0 -1.9375,-0.227 -1.25,-0.5044 z m 30.0625,-0.021 c 0.72187,-0.2889 1.58438,-0.2534 1.91667,0.079 0.33229,0.3323 -0.25834,0.5687 -1.3125,0.5253 -1.16495,-0.048 -1.4019,-0.285 -0.60417,-0.6042 z m 250.9375,0.021 c 0.6875,-0.2774 1.8125,-0.2774 2.5,0 0.6875,0.2774 0.125,0.5044 -1.25,0.5044 -1.375,0 -1.9375,-0.227 -1.25,-0.5044 z m 31.0625,-0.021 c 0.72187,-0.2889 1.58438,-0.2534 1.91667,0.079 0.33229,0.3323 -0.25834,0.5687 -1.3125,0.5253 -1.16495,-0.048 -1.4019,-0.285 -0.60417,-0.6042 z m 172.6464,-1.3834 c -0.3626,-0.5866 -0.4447,-1.281 -0.1826,-1.5432 0.2622,-0.2621 0.7431,0.2179 1.0688,1.0666 0.6762,1.7621 0.1,2.072 -0.8862,0.4766 z m -654.89461,-1.2266 c 0.37553,-0.9862 0.93469,-1.5412 1.24258,-1.2334 0.30789,0.3079 6.4e-4,1.1148 -0.68278,1.7932 -0.98762,0.9802 -1.10248,0.8654 -0.5598,-0.5598 z m 197.18571,-2.369 c 0.6875,-0.2774 1.8125,-0.2774 2.5,0 0.6875,0.2774 0.125,0.5044 -1.25,0.5044 -1.375,0 -1.9375,-0.227 -1.25,-0.5044 z m 31.0625,-0.021 c 0.72187,-0.2889 1.58438,-0.2534 1.91667,0.079 0.33229,0.3323 -0.25834,0.5687 -1.3125,0.5253 -1.16495,-0.048 -1.4019,-0.285 -0.60417,-0.6042 z m 196.9375,0.021 c 0.6875,-0.2774 1.8125,-0.2774 2.5,0 0.6875,0.2774 0.125,0.5044 -1.25,0.5044 -1.375,0 -1.9375,-0.227 -1.25,-0.5044 z m 29.0625,-0.021 c 0.72187,-0.2889 1.58438,-0.2534 1.91667,0.079 0.33229,0.3323 -0.25834,0.5687 -1.3125,0.5253 -1.16495,-0.048 -1.4019,-0.285 -0.60417,-0.6042 z m -252.0625,-0.979 c 0.6875,-0.2774 1.8125,-0.2774 2.5,0 0.6875,0.2774 0.125,0.5044 -1.25,0.5044 -1.375,0 -1.9375,-0.227 -1.25,-0.5044 z m 218,0 c 0.6875,-0.2774 1.8125,-0.2774 2.5,0 0.6875,0.2774 0.125,0.5044 -1.25,0.5044 -1.375,0 -1.9375,-0.227 -1.25,-0.5044 z m 29,0 c 0.6875,-0.2774 1.8125,-0.2774 2.5,0 0.6875,0.2774 0.125,0.5044 -1.25,0.5044 -1.375,0 -1.9375,-0.227 -1.25,-0.5044 z M 918.38176,1060.5 c 0.002,-6.6 0.16382,-9.1699 0.35965,-5.7108 0.19583,3.459 0.19422,8.859 -0.004,12 -0.19781,3.1409 -0.35803,0.3108 -0.35606,-6.2892 z m -324.82412,6.5933 c -0.30822,-0.4987 0.34022,-0.6713 1.44098,-0.3834 2.33499,0.6106 2.63015,1.2901 0.5604,1.2901 -0.79254,0 -1.69316,-0.408 -2.00138,-0.9067 z m 313.26686,-1.7675 c 0.42673,-2.0929 0.67819,-2.3444 0.96961,-0.9696 0.2164,1.0209 -0.0429,2.2926 -0.57615,2.8258 -0.62614,0.6262 -0.76551,-0.031 -0.39346,-1.8562 z M 598.15789,1065 c 0,-1.375 0.22698,-1.9375 0.50439,-1.25 0.27741,0.6875 0.27741,1.8125 0,2.5 -0.27741,0.6875 -0.50439,0.125 -0.50439,-1.25 z m -3.9317,-1.5787 c 0.94941,-0.9912 1.94144,-1.587 2.20452,-1.3239 0.26308,0.2631 -0.5137,1.0741 -1.72619,1.8022 -2.10631,1.2649 -2.12762,1.2436 -0.47833,-0.4783 z M 582.34281,1056.5 c 0.004,-4.4 0.17944,-6.0756 0.39069,-3.7236 0.21124,2.3521 0.20827,5.9521 -0.007,8 -0.21487,2.048 -0.38771,0.1236 -0.38408,-4.2764 z m 42.15719,4 c 0,-1.27 0.3375,-2.1004 0.75,-1.8455 0.4125,0.2549 0.75,1.0854 0.75,1.8455 0,0.7601 -0.3375,1.5906 -0.75,1.8455 -0.4125,0.2549 -0.75,-0.5755 -0.75,-1.8455 z m -4.5,-1.393 c 0,-0.4912 0.73865,-1.1765 1.64144,-1.5229 1.37248,-0.5267 1.43434,-0.3803 0.37756,0.893 -1.44013,1.7353 -2.019,1.9158 -2.019,0.6299 z m 23.8125,0.2099 c 0.72187,-0.2889 1.58438,-0.2534 1.91667,0.079 0.33229,0.3323 -0.25834,0.5687 -1.3125,0.5253 -1.16495,-0.048 -1.4019,-0.285 -0.60417,-0.6042 z M 855,1059.6166 c 0,-0.2108 0.90062,-0.6189 2.00138,-0.9067 1.10076,-0.2879 1.7492,-0.1153 1.44098,0.3834 -0.53825,0.8709 -3.44236,1.3124 -3.44236,0.5233 z m -419,-2.5576 c 0,-0.5175 0.44485,-1.2159 0.98855,-1.5519 0.56686,-0.3504 0.7345,0.051 0.39301,0.941 -0.66479,1.7324 -1.38156,2.0493 -1.38156,0.6109 z m 2.56429,-4.3521 c 0.37553,-0.9862 0.93469,-1.5412 1.24258,-1.2334 0.30789,0.3079 6.4e-4,1.1148 -0.68278,1.7932 -0.98762,0.9802 -1.10248,0.8654 -0.5598,-0.5598 z M 588.25,1048.2837 c 1.5125,-0.2291 3.9875,-0.2291 5.5,0 1.5125,0.2292 0.275,0.4166 -2.75,0.4166 -3.025,0 -4.2625,-0.1874 -2.75,-0.4166 z m 319.01375,0 c 1.52006,-0.2298 3.77006,-0.2237 5,0.014 1.22994,0.2373 -0.0137,0.4254 -2.76375,0.4179 -2.75,-0.01 -3.75631,-0.2017 -2.23625,-0.4316 z m 20.00528,0.025 c 0.97297,-0.2535 2.32297,-0.2369 3,0.037 0.67703,0.2739 -0.11903,0.4813 -1.76903,0.461 -1.65,-0.02 -2.20394,-0.2445 -1.23097,-0.4981 z M 602.5,1046.9615 c 3.3,-0.4094 8.25,-0.7247 11,-0.7005 4.74175,0.042 4.66427,0.082 -1.5,0.7746 -3.575,0.4018 -8.525,0.7171 -11,0.7005 -4.06738,-0.027 -3.92317,-0.1017 1.5,-0.7746 z m 286,0.039 -6,-0.6638 5,-0.06 c 2.75,-0.033 7.7,0.2755 11,0.6849 l 6,0.7445 -5,-0.021 c -2.75,-0.012 -7.7,-0.3198 -11,-0.6849 z m -306.29246,-28.75 c 0.20703,-25.68583 0.54781,-22.72246 1.03513,9.0013 0.14153,9.2133 -0.0802,16.7508 -0.49267,16.75 -0.4125,-7e-4 -0.65661,-11.5888 -0.54246,-25.7513 z m 336.22816,0.25 c 5.7e-4,-14.3 0.14102,-20.01094 0.31211,-12.691 0.17108,7.32 0.17062,19.02 -10e-4,26 -0.17166,6.9801 -0.31164,0.991 -0.31107,-13.309 z M 570.43466,1018 c 0,-14.025 0.14065,-19.7625 0.31255,-12.75 0.1719,7.0125 0.1719,18.4875 0,25.5 -0.1719,7.0125 -0.31255,1.275 -0.31255,-12.75 z m 6,0 c 0,-14.025 0.14065,-19.7625 0.31255,-12.75 0.1719,7.0125 0.1719,18.4875 0,25.5 -0.1719,7.0125 -0.31255,1.275 -0.31255,-12.75 z m 30.82909,23.2824 c 1.52006,-0.2298 3.77006,-0.2237 5,0.014 1.22994,0.2373 -0.0137,0.4254 -2.76375,0.4179 -2.75,-0.01 -3.75631,-0.2017 -2.23625,-0.4316 z m 282.50416,-0.01 c 1.79735,-0.2226 4.49735,-0.218 6,0.01 1.50265,0.2281 0.0321,0.4102 -3.26791,0.4046 -3.3,-0.01 -4.52944,-0.1923 -2.73209,-0.4148 z M 617.25,1040.2837 c 1.5125,-0.2291 3.9875,-0.2291 5.5,0 1.5125,0.2292 0.275,0.4166 -2.75,0.4166 -3.025,0 -4.2625,-0.1874 -2.75,-0.4166 z m 261,0 c 1.5125,-0.2291 3.9875,-0.2291 5.5,0 1.5125,0.2292 0.275,0.4166 -2.75,0.4166 -3.025,0 -4.2625,-0.1874 -2.75,-0.4166 z m 175.8943,-2.0337 c -1.0912,-2.55 -1.0666,-2.6089 0.3394,-0.8089 0.834,1.0677 1.5163,2.3052 1.5163,2.75 0,1.5199 -0.6783,0.8104 -1.8557,-1.9411 z M 450,1034 c 0.5887,-1.1 1.29537,-2 1.57037,-2 0.275,0 0.0183,0.9 -0.57037,2 -0.5887,1.1 -1.29537,2 -1.57037,2 -0.275,0 -0.0183,-0.9 0.57037,-2 z m 599.5113,-3.6231 c -0.9453,-1.4427 -1.2245,-2.3177 -0.6204,-1.9443 1.1544,0.7134 3.4827,4.5674 2.7593,4.5674 -0.2311,0 -1.1936,-1.1804 -2.1389,-2.6231 z m -566.69117,-7.1263 c 14.47608,-0.1562 37.87608,-0.1561 52,3e-4 14.12393,0.1564 2.27987,0.2842 -26.32013,0.2841 -28.6,-2e-4 -40.15594,-0.1282 -25.67987,-0.2844 z m -24.68395,-11.9909 c 0.11636,-2.358 0.19927,-2.4322 0.56955,-0.5097 l 0.43337,2.25 H 506.06955 553 v -13.99001 -13.99002 l -46.25,-0.27529 -46.25,-0.2753 46.5,0.0153 46.5,0.0153 v 14.5 14.50002 l -47.75,0.2597 -47.75,0.2597 z m 489.53049,2.0736 C 947.3,1012.9667 947,1006.2167 947,998.33333 V 984 h 46.44098 c 25.54252,0 46.64972,0.3375 46.90492,0.75 0.2551,0.4125 -20.4183,0.62873 -45.94102,0.48051 L 948,984.96103 v 14.00988 14.00989 l 48.25,0.2694 48.25,0.2695 -48.08333,0.2401 c -26.44584,0.1321 -48.38334,-0.06 -48.75,-0.4265 z M 631.29966,1000 c 0,-3.025 0.18747,-4.2625 0.41659,-2.75 0.22913,1.5125 0.22913,3.9875 0,5.5 -0.22912,1.5125 -0.41659,0.275 -0.41659,-2.75 z m 238,0 c 0,-3.025 0.18747,-4.2625 0.41659,-2.75 0.22913,1.5125 0.22913,3.9875 0,5.5 -0.22912,1.5125 -0.41659,0.275 -0.41659,-2.75 z m -256,-1 c 0,-3.025 0.18747,-4.2625 0.41659,-2.75 0.22913,1.5125 0.22913,3.9875 0,5.5 -0.22912,1.5125 -0.41659,0.275 -0.41659,-2.75 z m 12.6991,-25.20136 c -0.27432,-14.68575 -0.1535,-26.35549 0.26849,-25.93275 0.42199,0.42274 0.64644,12.43835 0.49877,26.70136 L 626.49753,1000.5 Z m 248.20878,0.51038 c -0.11415,-14.40504 0.12996,-26.40035 0.54246,-26.65623 0.4125,-0.25588 0.63472,7.48006 0.49381,17.19098 -0.47309,32.60588 -0.82726,35.84083 -1.03627,9.46525 z M 637.75,995.26276 c 2.8875,-0.202 7.6125,-0.202 10.5,0 2.8875,0.202 0.525,0.36728 -5.25,0.36728 -5.775,0 -8.1375,-0.16528 -5.25,-0.36728 z m 215,0 c 2.8875,-0.202 7.6125,-0.202 10.5,0 2.8875,0.202 0.525,0.36728 -5.25,0.36728 -5.775,0 -8.1375,-0.16528 -5.25,-0.36728 z m -221.31273,-6.56565 c -0.27498,-0.71658 -0.35866,-7.12908 -0.18595,-14.25 l 0.31402,-12.94711 0.21733,13.68664 0.21733,13.68664 3.25,0.40332 3.25,0.40333 -3.28138,0.16003 c -1.90184,0.0928 -3.49158,-0.38772 -3.78135,-1.14285 z m 234.53491,0.74161 2.97218,-0.56129 0.32177,-13.44005 0.32178,-13.44006 -0.044,13.75134 L 869.5,989.5 l -3.25,0.25 c -3.15272,0.24252 -3.16104,0.2332 -0.27782,-0.31128 z M 601.75,988.26779 c 2.3375,-0.21053 6.1625,-0.21053 8.5,0 2.3375,0.21054 0.425,0.3828 -4.25,0.3828 -4.675,0 -6.5875,-0.17226 -4.25,-0.3828 z m 287.75,0.10064 c 7.16264,-0.74371 15.27741,-0.80844 14.84834,-0.11843 -0.25651,0.4125 -4.37732,0.67798 -9.15736,0.58996 -4.78004,-0.088 -7.34098,-0.30021 -5.69098,-0.47153 z M 575.76287,977.25211 c 0.46973,-19.21351 0.86326,-21.08444 1.05215,-5.00211 0.10174,8.6625 -0.15252,15.75095 -0.56502,15.75211 -0.4125,10e-4 -0.63171,-4.83634 -0.48713,-10.75 z M 582.40479,972.5 c 10e-4,-8.8 0.15425,-12.26613 0.33996,-7.70252 0.18572,4.56362 0.18468,11.76362 -0.002,16 -0.18698,4.23639 -0.33893,0.50252 -0.33766,-8.29748 z m 336,0 c 10e-4,-8.8 0.15425,-12.26613 0.33996,-7.70252 0.18572,4.56362 0.18468,11.76362 -0.002,16 -0.18698,4.23639 -0.33893,0.50252 -0.33766,-8.29748 z M 570.40249,972 c 0,-8.525 0.15337,-12.0125 0.34082,-7.75 0.18745,4.2625 0.18745,11.2375 0,15.5 -0.18745,4.2625 -0.34082,0.775 -0.34082,-7.75 z m 42.59351,1.79662 c -0.2728,-7.53686 -0.14449,-13.35035 0.28514,-12.91886 0.42962,0.43148 0.65282,6.598 0.49599,13.70338 L 613.49199,987.5 Z M 645,979.62244 c 0,-0.20765 0.7875,-0.99515 1.75,-1.75 1.58606,-1.24387 1.62143,-1.2085 0.37756,0.37756 C 645.82119,979.91575 645,980.44548 645,979.62244 Z M 853.87244,978.25 c -1.24387,-1.58606 -1.2085,-1.62143 0.37756,-0.37756 1.40337,1.1006 2.04712,1.12587 3.25,0.12756 0.86459,-0.71755 1.5,-0.81474 1.5,-0.22943 0,0.5585 -0.7118,1.2886 -1.58179,1.62244 -2.10856,0.80913 -1.98306,0.84959 -3.54577,-1.14301 z m 50.01842,-2.4562 c 0.70473,-0.9384 0.95156,-2.2884 0.54853,-3 -0.59012,-1.04189 -0.4692,-1.04903 0.62105,-0.0367 1.13102,1.05023 1.04074,1.544 -0.54853,3 -1.71278,1.56917 -1.77468,1.57282 -0.62105,0.0367 z M 645.87244,974.25 c -1.24387,-1.58606 -1.2085,-1.62143 0.37756,-0.37756 0.9625,0.75485 1.75,1.54235 1.75,1.75 0,0.82304 -0.82119,0.29331 -2.12756,-1.37244 z M 854.25,974.48095 c 1.72236,-1.87936 1.77764,-1.87936 3.5,0 1.66667,1.81858 1.66667,1.84677 0,0.59184 -1.44794,-1.09024 -2.05206,-1.09024 -3.5,0 -1.66667,1.25493 -1.66667,1.22674 0,-0.59184 z m -381,-0.22716 c 5.9125,-0.1768 15.5875,-0.1768 21.5,0 5.9125,0.17679 1.075,0.32145 -10.75,0.32145 -11.825,0 -16.6625,-0.14466 -10.75,-0.32145 z m 42.1841,-0.56493 c -0.27673,-0.72113 -0.35879,-6.45863 -0.18237,-12.75 l 0.32076,-11.43886 0.21375,12.23087 0.21376,12.23087 22.25,0.28926 22.25,0.28926 -22.28138,0.22987 c -17.62151,0.1818 -22.38661,-0.0443 -22.78452,-1.08127 z m 425.00723,0.0188 c -0.2807,-0.73148 -0.38233,-6.47746 -0.22585,-12.76883 L 940.5,949.5 h 23 23 v 12.5 12.5 l -22.77416,0.26884 c -18.21704,0.21504 -22.87628,0.003 -23.28451,-1.06115 z M 986,962 V 950 H 963.5 941 v 12 12 h 22.5 22.5 z m 31.7326,12.25114 21.2326,-0.29081 -0.4416,-6.23017 -0.4416,-6.23016 0.9224,5.5 c 0.5073,3.025 0.728,6.0625 0.4904,6.75 -0.3308,0.95712 -5.4183,1.19634 -21.7134,1.02098 L 996.5,974.54196 Z M 463.25218,965.5 c 0.0111,-2.2 0.21589,-2.98225 0.45508,-1.73834 0.23919,1.24391 0.23011,3.04391 -0.0202,4 -0.25029,0.95609 -0.446,-0.0617 -0.4349,-2.26166 z m 1,-8 c 0.0111,-2.2 0.21589,-2.98225 0.45508,-1.73834 0.23919,1.24391 0.23011,3.04391 -0.0202,4 -0.25029,0.95609 -0.446,-0.0617 -0.4349,-2.26166 z M 888.75,960.33772 c 0.6875,-0.27741 1.8125,-0.27741 2.5,0 0.6875,0.27741 0.125,0.50439 -1.25,0.50439 -1.375,0 -1.9375,-0.22698 -1.25,-0.50439 z M 656.4357,933.5 c 5.7e-4,-14.3 0.14102,-20.01094 0.31211,-12.69097 0.17108,7.31996 0.17062,19.01996 -10e-4,26 -0.17166,6.98003 -0.31164,0.99097 -0.31107,-13.30903 z m -25.24302,16.83333 c -0.12479,-4.64159 -0.6331,-7.34438 -1.44268,-7.67105 -0.97906,-0.39506 -0.97226,-0.5215 0.0314,-0.58333 1.91182,-0.11779 2.36015,1.94399 1.96277,9.02638 L 631.38538,957.5 631.1927,950.33333 Z M 869.32814,950.5 c 0.004,-3.85 0.18518,-5.30246 0.40166,-3.2277 0.21647,2.07477 0.21284,5.22477 -0.008,7 -0.22091,1.77524 -0.39803,0.0777 -0.39359,-3.7723 z m 18.58431,4.18586 c 0.4487,-0.44777 2.78946,-0.66455 5.20169,-0.48173 l 4.38586,0.33241 -5.20169,0.48173 c -2.86092,0.26495 -4.83456,0.11537 -4.38586,-0.33241 z M 605.75,954.29427 c 1.2375,-0.23836 3.2625,-0.23836 4.5,0 1.2375,0.23835 0.225,0.43337 -2.25,0.43337 -2.475,0 -3.4875,-0.19502 -2.25,-0.43337 z m 7.6844,-7.78367 c 0.0513,-5.46688 0.39235,-7.01268 1.5656,-7.09629 0.825,-0.0588 0.95662,0.0783 0.29249,0.30454 -0.73011,0.24877 -1.34907,3.0543 -1.56559,7.09629 L 613.3688,953.5 Z m -42.95235,4.30322 c -0.27862,-0.72607 -0.38299,-18.41871 -0.23193,-39.31698 L 570.52478,873.5 570.76239,912.25 571,951 h 2.48826 2.48825 l 0.27959,-38.50022 0.27959,-38.50021 -0.0178,38.75021 L 576.5,951.5 l -2.75569,0.31697 c -1.61125,0.18534 -2.96606,-0.23127 -3.26226,-1.00315 z m 11.05016,-31.01377 C 581.14664,902.03502 580.98166,884.35 581.16559,880.5 c 0.18392,-3.85 0.69892,10.48549 1.14443,31.85664 0.44551,21.37116 0.61049,39.05618 0.36662,39.30005 -0.24387,0.24387 -0.75886,-14.09162 -1.14443,-31.85664 z M 918.28601,947.5 c 0.008,-2.75 0.20172,-3.75631 0.43157,-2.23625 0.22986,1.52006 0.22371,3.77006 -0.0136,5 -0.23736,1.22994 -0.42542,-0.0137 -0.41792,-2.76375 z m 7.98302,3.80701 c 0.97297,-0.25354 2.32297,-0.23687 3,0.0371 0.67703,0.27393 -0.11903,0.48137 -1.76903,0.46099 -1.65,-0.0204 -2.20394,-0.2445 -1.23097,-0.49804 z m 80.48097,-2.05289 c 5.6375,-0.17825 14.8625,-0.17825 20.5,0 5.6375,0.17825 1.025,0.32409 -10.25,0.32409 -11.275,0 -15.8875,-0.14584 -10.25,-0.32409 z m -387.98155,-2.42257 c 0.5811,-0.5811 1.64682,-0.85979 2.36826,-0.61931 0.74895,0.24965 0.29565,0.70294 -1.05655,1.05655 -1.66335,0.43497 -2.05378,0.30483 -1.31171,-0.43724 z m 261.04405,-0.51466 c 0.72187,-0.28887 1.58438,-0.25335 1.91667,0.0789 0.33229,0.33229 -0.25834,0.56864 -1.3125,0.52522 -1.16495,-0.048 -1.4019,-0.28494 -0.60417,-0.60416 z m -0.22743,-5.2466 c 0.96479,-0.90643 8.27503,-2.67283 7.41493,-1.7917 -0.275,0.28172 -2.26172,0.99351 -4.41493,1.58175 -2.15322,0.58824 -3.50322,0.68271 -3,0.20995 z M 919.44956,908 c 0,-18.975 0.13447,-26.7375 0.29883,-17.25 0.16436,9.4875 0.16436,25.0125 0,34.5 -0.16436,9.4875 -0.29883,1.725 -0.29883,-17.25 z M 618.8125,940.31689 c 0.72187,-0.28887 1.58438,-0.25335 1.91667,0.0789 0.33229,0.33229 -0.25834,0.56864 -1.3125,0.52522 -1.16495,-0.048 -1.4019,-0.28494 -0.60417,-0.60416 z M 947,926 v -14 h 43 43 l -0.116,2.25 c -0.087,1.69317 -0.2292,1.81691 -0.5733,0.5 -0.4264,-1.63157 -3.2947,-1.75 -42.38402,-1.75 H 948 v 12.98949 12.98949 l 43.75,0.27129 43.75,0.2713 -44.25,0.23922 L 947,940 Z m 86.232,-6 c 0,-1.925 0.2058,-2.7125 0.4573,-1.75 0.2516,0.9625 0.2516,2.5375 0,3.5 -0.2515,0.9625 -0.4573,0.175 -0.4573,-1.75 z m -565,-1 c 0,-1.925 0.2058,-2.7125 0.45733,-1.75 0.25152,0.9625 0.25152,2.5375 0,3.5 -0.25153,0.9625 -0.45733,0.175 -0.45733,-1.75 z m 1.02503,-5 c 0.35608,-1.30501 6.31316,-1.50205 45.82613,-1.51574 l 45.41684,-0.0157 -44.94743,0.27617 c -34.357,0.21111 -45.15447,0.56824 -45.82613,1.51574 -0.64423,0.90881 -0.76949,0.83932 -0.46941,-0.26043 z m 375.82192,-5.58333 c 0.048,-1.16495 0.28494,-1.4019 0.60416,-0.60417 0.28887,0.72187 0.25335,1.58438 -0.0789,1.91667 -0.33229,0.33229 -0.56864,-0.25834 -0.52522,-1.3125 z M 654.16764,904.05105 C 653.58266,902.37297 653.31677,901 653.57677,901 c 0.6751,0 2.56204,5.19452 2.06683,5.68973 -0.2268,0.2268 -0.89098,-0.96061 -1.47596,-2.63868 z m -184.08869,-2.63438 c 0.048,-1.16495 0.28494,-1.4019 0.60416,-0.60417 0.28887,0.72187 0.25335,1.58438 -0.0789,1.91667 -0.33229,0.33229 -0.56864,-0.25834 -0.52522,-1.3125 z M 508.39994,888.5 c 10e-4,-8.25 0.15629,-11.49193 0.34419,-7.20429 0.1879,4.28763 0.18676,11.03763 -0.003,15 -0.1893,3.96236 -0.34304,0.45429 -0.34164,-7.79571 z m 10,0 c 10e-4,-8.25 0.15629,-11.49193 0.34419,-7.20429 0.1879,4.28763 0.18676,11.03763 -0.003,15 -0.1893,3.96236 -0.34304,0.45429 -0.34164,-7.79571 z M 722.98143,891 722.5,878.5 l -9.35072,-0.28886 c -6.49661,-0.20069 -9.85412,0.10454 -11,1 -1.47284,1.15098 -1.50246,1.10165 -0.27684,-0.46114 1.1307,-1.44175 3.00267,-1.75 10.62756,-1.75 6.68713,0 9.57562,0.38619 10.41023,1.39183 0.77078,0.92874 1.05488,5.3373 0.85387,13.25 L 723.46286,903.5 Z m 4.47189,-0.74848 L 727.5,877.5 l 10.85548,-0.2849 c 7.14676,-0.18757 11.33192,0.1105 12.25,0.87244 1.07444,0.89171 1.348,3.94092 1.19182,13.2849 L 751.5946,903.5 751.0473,891 750.5,878.5 l -11.21988,-0.28247 -11.21988,-0.28247 -0.3268,12.53399 -0.3268,12.53399 0.0467,-12.75152 z m 50.76171,0.53231 L 778,878.06766 l -10.75,-0.32145 -10.75,-0.32145 10.78138,-0.21238 c 8.11406,-0.15984 10.90559,0.11127 11.2834,1.09584 0.2761,0.71952 0.35875,6.68202 0.18365,13.25 L 778.43007,903.5 Z M 986.39994,888.5 c 10e-4,-8.25 0.15629,-11.49193 0.34419,-7.20429 0.1879,4.28763 0.18676,11.03763 -0.003,15 -0.1893,3.96236 -0.34304,0.45429 -0.34164,-7.79571 z m -46.00538,0 c 0.002,-7.7 0.15853,-10.71781 0.34883,-6.70625 0.1903,4.01156 0.18902,10.31156 -0.003,14 C 940.5487,899.48219 940.393,896.2 940.39456,888.5 Z m -290.52212,7.75 c -1.24387,-1.58606 -1.2085,-1.62143 0.37756,-0.37756 0.9625,0.75485 1.75,1.54235 1.75,1.75 0,0.82304 -0.82119,0.29331 -2.12756,-1.37244 z m -8.43131,-7.80517 c -1.86402,-1.49339 -1.85176,-1.51185 0.30887,-0.46481 1.2375,0.59969 2.25,1.29951 2.25,1.55516 0,0.76522 -0.51861,0.54424 -2.55887,-1.09035 z M 653.43709,885.75 650.5,882.5 l 3.25,2.93709 c 3.02946,2.73778 3.70965,3.56291 2.93709,3.56291 -0.1721,0 -1.6346,-1.4625 -3.25,-3.25 z M 859,888.57037 c 0,-0.275 0.9,-0.98167 2,-1.57037 1.1,-0.5887 2,-0.84537 2,-0.57037 0,0.275 -0.9,0.98167 -2,1.57037 -1.1,0.5887 -2,0.84537 -2,0.57037 z M 658.0856,887.5 c 0.10413,-1.89422 1.77076,-5.08385 1.8288,-3.5 0.0302,0.825 -0.38124,2.175 -0.9144,3 -0.53316,0.825 -0.94464,1.05 -0.9144,0.5 z m -185.83342,-6 c 0.0111,-2.2 0.21589,-2.98225 0.45508,-1.73834 0.23919,1.24391 0.23011,3.04391 -0.0202,4 -0.25029,0.95609 -0.446,-0.0617 -0.4349,-2.26166 z m 373.82677,1.91667 c 0.048,-1.16495 0.28494,-1.4019 0.60416,-0.60417 0.28887,0.72187 0.25335,1.58438 -0.0789,1.91667 -0.33229,0.33229 -0.56864,-0.25834 -0.52522,-1.3125 z M 627,881.41489 c -3.2755,-1.34103 -3.30757,-1.39576 -0.5,-0.85316 1.65,0.31889 3.4275,0.99795 3.95,1.50903 1.19761,1.17144 0.85339,1.106 -3.45,-0.65587 z M 871,882 c 0.825,-0.53316 1.95,-0.96937 2.5,-0.96937 0.55,0 0.325,0.43621 -0.5,0.96937 -0.825,0.53316 -1.95,0.96937 -2.5,0.96937 -0.55,0 -0.325,-0.43621 0.5,-0.96937 z m 10.76845,-3.16845 c 0.5811,-0.5811 1.64682,-0.85979 2.36826,-0.61931 0.74895,0.24965 0.29565,0.70294 -1.05655,1.05655 -1.66335,0.43497 -2.05378,0.30483 -1.31171,-0.43724 z M 614,878 c -2.00973,-0.64363 -2.10779,-0.8064 -0.5,-0.83003 1.1,-0.0162 2.9,0.35734 4,0.83003 2.54822,1.09501 -0.0808,1.09501 -3.5,0 z m 28.573,-0.52147 c -1.05985,-0.80183 -1.69459,-1.69027 -1.41054,-1.97433 0.28406,-0.28405 1.33345,0.3863 2.33199,1.48967 2.12638,2.34962 1.78263,2.53042 -0.92145,0.48466 z M 809.65176,877.75 c 0.25645,-0.4125 5.66286,-0.75 12.01425,-0.75 10.11939,0 11.47288,-0.19568 10.94098,-1.58179 C 832.27314,874.54823 832,873.64823 832,873.41821 832,873.1882 827.1051,873 821.12244,873 c -9.18844,0 -11.08318,-0.27175 -12.20177,-1.75 -1.12655,-1.48877 -1.11497,-1.56341 0.0776,-0.5 0.93725,0.83578 4.96901,1.25 12.16659,1.25 9.92416,0 10.85289,0.16457 11.89264,2.10736 0.6203,1.15905 0.74863,2.48212 0.28518,2.94016 -1.05257,1.04028 -24.33001,1.7305 -23.69088,0.70248 z m -137.00063,-0.5 c -0.25679,-0.4125 3.20415,-0.62877 7.69099,-0.4806 14.70074,0.48547 16.36188,0.87814 4.4669,1.05589 -6.43004,0.0961 -11.90109,-0.16279 -12.15789,-0.57529 z M 789.25,877.265 c 2.6125,-0.206 6.8875,-0.206 9.5,0 2.6125,0.206 0.475,0.37454 -4.75,0.37454 -5.225,0 -7.3625,-0.16854 -4.75,-0.37454 z m 68.75,0.3176 c 0,-0.21178 1.575,-1.31432 3.5,-2.4501 1.925,-1.13578 3.5,-1.71357 3.5,-1.28399 0,0.42959 -1.575,1.53213 -3.5,2.4501 -1.925,0.91797 -3.5,1.49576 -3.5,1.28399 z m 30.5,-0.54118 c 4.34396,-1.37821 14.49933,-2.84935 13.99095,-2.02678 -0.23789,0.38492 -2.58318,0.96606 -5.21174,1.29142 -2.62857,0.32536 -6.35421,0.83807 -8.27921,1.13936 -3.417,0.53481 -3.42885,0.52523 -0.5,-0.404 z m -415.42105,-1.62475 c 0.048,-1.16495 0.28494,-1.4019 0.60416,-0.60417 0.28887,0.72187 0.25335,1.58438 -0.0789,1.91667 -0.33229,0.33229 -0.56864,-0.25834 -0.52522,-1.3125 z M 603.5,876.27322 c -1.65,-0.23491 -3.37241,-0.7874 -3.82759,-1.22775 -0.73572,-0.71177 8.29264,0.47444 10.82759,1.4226 1.28629,0.48112 -3.11203,0.35869 -7,-0.19485 z m 73.5,-3.92197 c 8.20382,-0.73259 19.77961,-0.79317 19.34887,-0.10125 -0.2568,0.4125 -5.50285,0.67435 -11.65789,0.5819 C 678.53594,872.7394 675.075,872.52315 677,872.35125 Z M 701.87244,871.25 c -1.22562,-1.56279 -1.196,-1.61212 0.27684,-0.46114 1.14588,0.89546 4.50339,1.20069 11,1 L 722.5,871.5 l 0.28375,-11.35687 c 0.20231,-8.09743 -0.0847,-11.82845 -1,-13 -1.14531,-1.46594 -1.09503,-1.49513 0.46625,-0.27069 1.48043,1.16104 1.75,3.09422 1.75,12.55 0,7.36033 -0.40981,11.58737 -1.2,12.37756 -0.75899,0.75899 -4.57279,1.2 -10.37756,1.2 -7.55102,0 -9.42079,-0.31015 -10.55,-1.75 z m 37.62756,0.80233 11,-0.55233 0.54886,-12 0.54887,-12 0.20113,11.55 c 0.13745,7.89248 -0.17886,11.93 -0.99886,12.75 -0.80899,0.80899 -4.63766,1.13559 -11.75,1.00233 l -10.55,-0.19768 z m 27.71949,0.21994 10.71949,-0.33931 0.32666,-11.71648 0.32666,-11.71648 -0.0462,12 -0.0462,12 -11,0.0558 -11,0.0558 10.71949,-0.33931 z m 20.28051,0.0937 c 7.06971,-0.73995 16.27885,-0.80732 15.84865,-0.11593 -0.25668,0.4125 -4.60263,0.67798 -9.65767,0.58996 -5.05504,-0.088 -7.84098,-0.30133 -6.19098,-0.47403 z m -60.32529,-13.05691 c -0.0961,-6.70504 0.16279,-12.40107 0.57529,-12.65784 0.4125,-0.25677 0.62954,3.42917 0.48231,8.19098 -0.47222,15.27299 -0.87817,16.98754 -1.0576,4.46686 z M 474.57447,861 c 0.26825,-1.925 0.89949,-5.975 1.40276,-9 0.84147,-5.0578 0.87026,-4.897 0.35812,2 -0.3063,4.125 -0.93754,8.175 -1.40275,9 -0.5312,0.94201 -0.66442,0.19802 -0.35813,-2 z M 937,854.01232 v -9.98768 l -36.75,-0.27502 -36.75,-0.27503 37.25,-0.2373 L 938,843 v 10.5 c 0,5.775 -0.225,10.5 -0.5,10.5 -0.275,0 -0.5,-4.49446 -0.5,-9.98768 z M 947.2109,853.75 947,843 l 39.25,0.23791 39.25,0.23791 -38.71515,0.2738 -38.71514,0.2738 -0.32396,10.23829 L 947.42179,864.5 Z M 553.36523,853.5 c 0.003,-5.5 0.17053,-7.62242 0.37317,-4.71648 0.20265,2.90594 0.20052,7.40594 -0.005,10 -0.20525,2.59406 -0.37104,0.21648 -0.36844,-5.28352 z m 472.16417,1.97059 c -0.3927,-4.19064 -0.5022,-7.83111 -0.2434,-8.08993 0.2588,-0.25883 0.7919,2.95811 1.1846,7.14875 0.3927,4.19064 0.5022,7.83111 0.2434,8.08993 -0.2588,0.25883 -0.7919,-2.95811 -1.1846,-7.14875 z m -167.57524,3.44376 c -0.61391,-1.1471 -0.92784,-2.274 -0.69762,-2.50422 0.23022,-0.23022 0.93203,0.70832 1.55958,2.08564 1.37807,3.02454 0.70709,3.35038 -0.86196,0.41858 z m 10.49778,-1.00728 c -0.87968,-1.70111 -1.42188,-3.27046 -1.2049,-3.48744 0.21698,-0.21698 1.14288,1.17483 2.05756,3.09293 2.05658,4.3127 1.34401,4.64239 -0.85266,0.39451 z M 637,857.05902 c 0,-0.51754 0.44485,-1.21592 0.98855,-1.55194 0.56686,-0.35034 0.7345,0.0511 0.39301,0.94098 C 637.71677,858.18048 637,858.49745 637,857.05902 Z m 32.5,-2.24799 -2,-2.0701 2.25,1.16472 c 1.2375,0.64059 2.25,1.59888 2.25,2.12953 0,1.27684 -0.15885,1.19906 -2.5,-1.22415 z m 176.5,0.74033 c 0,-0.275 1.35,-1.19811 3,-2.05136 1.65,-0.85325 3,-1.32636 3,-1.05136 0,0.275 -1.35,1.19811 -3,2.05136 -1.65,0.85325 -3,1.32636 -3,1.05136 z m -15.89961,-5.84684 c -1.26492,-2.10631 -1.24361,-2.12762 0.47833,-0.47833 0.99123,0.94941 1.58698,1.94144 1.3239,2.20452 -0.26308,0.26308 -1.07408,-0.5137 -1.80223,-1.72619 z m -176.5361,-2.99765 c 0.37553,-0.98622 0.93469,-1.54122 1.24258,-1.23333 0.30789,0.30789 6.4e-4,1.11479 -0.68278,1.79313 -0.98762,0.98026 -1.10248,0.8654 -0.5598,-0.5598 z M 693,845.62244 c 0,-0.20765 0.7875,-0.99515 1.75,-1.75 1.58606,-1.24387 1.62143,-1.2085 0.37756,0.37756 C 693.82119,845.91575 693,846.44548 693,845.62244 Z m 115.11431,-3.17388 c -2.41213,-1.89671 -3.98713,-3.44187 -3.5,-3.43368 0.48713,0.008 2.68569,1.56628 4.88569,3.46245 5.15998,4.44736 4.28368,4.42916 -1.38569,-0.0288 z M 603.5,844 l -40,-0.53451 40.25,-0.23275 c 26.32183,-0.1522 40.25,0.1133 40.25,0.76726 0,0.55 -0.1125,0.89527 -0.25,0.76726 C 643.6125,844.63925 625.5,844.29398 603.5,844 Z m -107.68418,-0.74892 c 10.6237,-0.1621 27.7237,-0.16186 38,5.4e-4 10.2763,0.16239 1.58418,0.29502 -19.31582,0.29473 -20.9,-3e-4 -29.30788,-0.13317 -18.68418,-0.29527 z M 846,843.59106 c 0,-0.19039 0.675,-0.90637 1.5,-1.59106 0.86459,-0.71755 1.5,-0.81474 1.5,-0.22943 0,0.5585 -0.675,1.27447 -1.5,1.59106 -0.825,0.31658 -1.5,0.41982 -1.5,0.22943 z m -149,-0.96862 c 0,-0.20765 0.7875,-0.99515 1.75,-1.75 1.58606,-1.24387 1.62143,-1.2085 0.37756,0.37756 C 697.82119,842.91575 697,843.44548 697,842.62244 Z M 684.5,840 c 0.99549,-1.1 2.03498,-2 2.30998,-2 0.275,0 -0.31449,0.9 -1.30998,2 -0.99549,1.1 -2.03498,2 -2.30998,2 -0.275,0 0.31449,-0.9 1.30998,-2 z m 19.5,1.35517 c 8.36922,-0.738 17.77821,-0.79503 17.34881,-0.10517 -0.25677,0.4125 -5.05279,0.67435 -10.65783,0.5819 C 705.08594,841.7394 702.075,841.52491 704,841.35517 Z M 728.2,840.8 c -0.67596,-0.67596 -1.2,-3.91481 -1.2,-7.41667 0,-3.41916 -0.46125,-6.44541 -1.025,-6.725 -0.56375,-0.27958 -0.45125,-0.39431 0.25,-0.25495 0.82541,0.16403 1.45131,2.69406 1.775,7.175 l 0.5,6.92162 9.85242,0.28745 c 6.4056,0.18688 10.34135,-0.11834 11.25,-0.87245 0.96585,-0.80159 1.46046,-3.82504 1.60113,-9.78744 l 0.20354,-8.62756 0.33891,8.37435 C 752.21554,841.47675 751.66747,842 739.04501,842 732.87667,842 728.96744,841.56744 728.2,840.8 Z m 28.45277,0.45 c -0.25589,-0.4125 4.33005,-0.75 10.19098,-0.75 H 777.5 l 0.29381,-7.25 c 0.2573,-6.34911 0.52955,-7.25 2.19098,-7.25 1.04345,0 2.14935,0.40803 2.45757,0.90674 0.30822,0.49871 -0.34022,0.67122 -1.44098,0.38337 C 779.1531,826.80677 779,827.25759 779,833.18337 c 0,3.65738 -0.51602,6.93265 -1.2,7.61663 -1.32828,1.32828 -20.35127,1.73307 -21.14723,0.45 z m 26.99842,0 c -0.25676,-0.4125 2.75419,-0.62703 6.69099,-0.47673 12.86309,0.49108 14.34811,0.88738 3.96684,1.05863 -5.60504,0.0924 -10.40106,-0.1694 -10.65783,-0.5819 z M 664.25,839.01096 c -1.7875,-1.08986 -3.25,-2.198 -3.25,-2.46254 0,-0.26453 1.575,0.4483 3.5,1.58408 1.925,1.13578 3.5,2.2456 3.5,2.46628 0,0.63971 -0.31609,0.50588 -3.75,-1.58782 z M 723.32007,834 c 0,-3.575 0.1815,-5.0375 0.40333,-3.25 0.22182,1.7875 0.22182,4.7125 0,6.5 -0.22183,1.7875 -0.40333,0.325 -0.40333,-3.25 z m -34.58674,1.87591 c 0.67834,-0.68342 1.48524,-0.99067 1.79313,-0.68278 0.30789,0.30789 -0.24711,0.86705 -1.23333,1.24258 -1.4252,0.54268 -1.54006,0.42782 -0.5598,-0.5598 z m -210.84511,-2.32102 c -0.60906,-0.60906 2.39318,-25.18926 3.17014,-25.95479 0.3071,-0.30258 -0.17057,5.28861 -1.06148,12.42487 L 478.37705,833 h 14.78245 14.78245 l 0.32603,-13.25 0.32603,-13.25 -0.047,13.5 -0.047,13.5 -15.05832,0.27501 c -8.28208,0.15126 -15.28113,0.0522 -15.55346,-0.22012 z m 40.54805,-0.86036 c -0.27552,-0.71801 -0.3587,-6.90551 -0.18483,-13.75 l 0.31612,-12.44453 0.21622,13.23812 0.21622,13.23811 38.25,0.27413 38.25,0.27412 -38.28138,0.23776 c -30.73993,0.19092 -38.38008,-0.0194 -38.78235,-1.06771 z m 86.99783,-0.006 c -0.27673,-0.72113 -0.35879,-6.45863 -0.18237,-12.75 L 605.57249,808.5 605.78624,820.75 606,833 l 22.25,-0.0118 22.25,-0.0118 5.38114,-6.48818 c 2.95963,-3.56849 5.5798,-6.48817 5.82259,-6.48817 0.48846,0 -1.23346,2.23191 -7.16549,9.28771 L 650.57648,834 h -22.31963 c -17.48832,0 -22.42853,-0.28381 -22.82275,-1.31114 z M 854.65251,833.25 c -0.25604,-0.4125 6.5799,-0.63413 15.19098,-0.49251 28.90224,0.47534 31.82417,0.83395 8.46553,1.03896 -12.75504,0.11195 -23.40047,-0.13395 -23.65651,-0.54645 z m 56.34667,0 c -7.4e-4,-0.68311 27.52489,-0.66664 60.50082,0.0362 7.15,0.15239 -3.5375,0.37534 -23.75,0.49545 -20.2125,0.1201 -36.75037,-0.11913 -36.75082,-0.53163 z M 998.5,833.3291 c 12.0661,-0.72614 25.5042,-0.76784 25.5022,-0.0791 0,0.4125 -6.8647,0.66676 -15.2522,0.56502 -8.3875,-0.10174 -13,-0.32039 -10.25,-0.48588 z M 850.43709,827.75 847.5,824.5 l 3.25,2.93709 c 3.02946,2.73778 3.70965,3.56291 2.93709,3.56291 -0.1721,0 -1.6346,-1.4625 -3.25,-3.25 z M 698.5,828.48189 c 1.1,-0.89564 2.9,-2.07029 4,-2.61033 l 2,-0.98189 -2,1.62844 c -1.1,0.89564 -2.9,2.07029 -4,2.61033 l -2,0.98189 z M 669,827.62244 c 0,-0.20765 0.7875,-0.99515 1.75,-1.75 1.58606,-1.24387 1.62143,-1.2085 0.37756,0.37756 C 669.82119,827.91575 669,828.44548 669,827.62244 Z m 126.25,-5.84293 c -1.2375,-0.59683 -2.25,-1.47675 -2.25,-1.95538 0,-0.47863 1.125,-0.13311 2.5,0.76783 3.66762,2.40311 3.53884,3.01483 -0.25,1.18755 z M 844.40499,820.75 842.5,818.5 l 2.25,1.90499 c 2.11444,1.79022 2.70524,2.59501 1.90499,2.59501 -0.18976,0 -1.20226,-1.0125 -2.25,-2.25 z M 668.5,813.58318 c 2.75,-2.55694 5.9,-5.13927 7,-5.73849 2.54814,-1.3881 1.42967,-0.34565 -6,5.59222 l -6,4.79526 z m 153.36078,1.35747 -2.36078,-2.05935 2.75,1.67436 c 1.5125,0.9209 2.75,1.84761 2.75,2.05935 0,0.78084 -0.83549,0.33522 -3.13922,-1.67436 z m 17.01166,0.30935 c -1.24387,-1.58606 -1.2085,-1.62143 0.37756,-0.37756 1.66575,1.30637 2.19548,2.12756 1.37244,2.12756 -0.20765,0 -0.99515,-0.7875 -1.75,-1.75 z m -116.20577,-3.41667 c -0.90484,-2.30349 -1.48133,-4.352 -1.2811,-4.55224 0.20024,-0.20023 1.11423,1.51077 2.0311,3.80224 0.91686,2.29147 1.49335,4.33998 1.28109,4.55224 -0.21226,0.21227 -1.12625,-1.49874 -2.03109,-3.80224 z m 6.15129,2.94871 c 0.53328,-0.53328 1.8049,-0.79255 2.82582,-0.57615 1.37482,0.29142 1.12336,0.54288 -0.9696,0.96961 -1.82482,0.37205 -2.48236,0.23268 -1.85622,-0.39346 z m 66.22624,1.0962 c -0.0243,-0.34196 1.08789,-3.04196 2.47155,-6 1.38366,-2.95803 2.2265,-4.25324 1.87299,-2.87824 -0.67121,2.61067 -4.26764,9.96012 -4.34454,8.87824 z M 1021.232,813 c 0,-1.925 0.2058,-2.7125 0.4573,-1.75 0.2516,0.9625 0.2516,2.5375 0,3.5 -0.2515,0.9625 -0.4573,0.175 -0.4573,-1.75 z M 771,814 c -1.97958,-0.63397 -2.08367,-0.80064 -0.5,-0.80064 1.1,0 3.125,0.36029 4.5,0.80064 1.97958,0.63397 2.08367,0.80064 0.5,0.80064 -1.1,0 -3.125,-0.36029 -4.5,-0.80064 z m -36.1875,-0.68311 c 0.72187,-0.28887 1.58438,-0.25335 1.91667,0.0789 0.33229,0.33229 -0.25834,0.56864 -1.3125,0.52522 -1.16495,-0.048 -1.4019,-0.28494 -0.60417,-0.60416 z m 98.20202,-2.80191 c -1.8578,-1.91676 -3.18357,-3.63885 -2.94617,-3.82687 0.23741,-0.18802 1.94634,1.38024 3.79764,3.48502 4.20668,4.78267 3.66394,5.00057 -0.85147,0.34185 z M 816.87244,811.25 c -1.24387,-1.58606 -1.2085,-1.62143 0.37756,-0.37756 0.9625,0.75485 1.75,1.54235 1.75,1.75 0,0.82304 -0.82119,0.29331 -2.12756,-1.37244 z m -123.13911,-3.37409 c 0.67834,-0.68342 1.48524,-0.99067 1.79313,-0.68278 0.30789,0.30789 -0.24711,0.86705 -1.23333,1.24258 -1.4252,0.54268 -1.54006,0.42782 -0.5598,-0.5598 z m 117.77375,0.13554 c -0.35034,-0.56686 0.0511,-0.7345 0.94098,-0.39301 1.73242,0.66479 2.04939,1.38156 0.61096,1.38156 -0.51754,0 -1.21592,-0.44485 -1.55194,-0.98855 z M 697,806.53369 c 0,-0.275 2.25,-1.64016 5,-3.03369 2.75,-1.39353 5,-2.30869 5,-2.03369 0,0.275 -2.25,1.64016 -5,3.03369 -2.75,1.39353 -5,2.30869 -5,2.03369 z m 103.73333,-3.65778 c 0.67834,-0.68342 1.48524,-0.99067 1.79313,-0.68278 0.30789,0.30789 -0.24711,0.86705 -1.23333,1.24258 -1.4252,0.54268 -1.54006,0.42782 -0.5598,-0.5598 z m -83.08267,-3.34388 c -0.30982,-0.80739 -0.22638,-1.67622 0.18543,-1.93073 0.41181,-0.25451 0.81419,0.40608 0.89418,1.46798 0.17299,2.29656 -0.29838,2.4986 -1.07961,0.46275 z m 70.16184,-2.21514 c 0.72187,-0.28887 1.58438,-0.25335 1.91667,0.0789 0.33229,0.33229 -0.25834,0.56864 -1.3125,0.52522 -1.16495,-0.048 -1.4019,-0.28494 -0.60417,-0.60416 z M 501.81497,796.2512 c 10.07323,-0.16325 26.27323,-0.16299 36,5.9e-4 9.72676,0.16357 1.48503,0.29714 -18.31497,0.29682 -19.8,-3.3e-4 -27.75827,-0.13416 -17.68503,-0.29741 z m 99.39897,-7.6e-4 35.71394,-0.27562 0.32677,-9.73741 0.32677,-9.73741 0.20929,10.25 L 638,797 601.75,796.76304 565.5,796.52607 Z m 57.98064,0.004 c 5.88201,-0.17649 15.78201,-0.17711 22,-0.001 6.21798,0.17574 1.40542,0.32014 -10.69458,0.32089 -12.1,7.6e-4 -17.18744,-0.14302 -11.30542,-0.31951 z m 152.45785,-0.004 c -0.25609,-0.4125 6.35485,-0.63382 14.69098,-0.49183 28.34132,0.48276 31.20743,0.83428 8.46561,1.03828 -12.48004,0.11195 -22.90051,-0.13395 -23.15659,-0.54645 z m 91.06152,4.8e-4 34.21394,-0.27665 0.32677,-9.73692 0.32676,-9.73691 0.20929,10.25 L 938,797 l -34.75,-0.23643 -34.75,-0.23643 34.21395,-0.27666 z M 947.36996,787 c 0,-5.775 0.16528,-8.1375 0.36728,-5.25 0.202,2.8875 0.202,7.6125 0,10.5 -0.202,2.8875 -0.36728,0.525 -0.36728,-5.25 z m 18.31554,9.25188 c 9.45202,-0.1642 25.20202,-0.16448 35,-6.2e-4 9.798,0.16387 2.0645,0.29822 -17.1855,0.29856 -19.25,3.4e-4 -27.26653,-0.13373 -17.8145,-0.29794 z m 53.3934,-0.83521 c 0.048,-1.16495 0.285,-1.4019 0.6042,-0.60417 0.2889,0.72187 0.2534,1.58438 -0.079,1.91667 -0.3323,0.33229 -0.5687,-0.25834 -0.5253,-1.3125 z m -319.63777,-1.8615 C 700.50875,792.69982 701.82125,792 702.3578,792 c 1.27054,0 0.70323,0.4619 -2.3578,1.91971 -2.35727,1.12265 -2.38918,1.10183 -0.55887,-0.36454 z m 33.45777,0.14593 c 0.46573,-0.46573 2.36651,-0.6903 4.22394,-0.49903 3.29402,0.33919 3.27318,0.36004 -0.84678,0.84678 -2.32317,0.27447 -3.84289,0.11798 -3.37716,-0.34775 z m 40.8511,0.63662 c 0.6875,-0.27741 1.8125,-0.27741 2.5,0 0.6875,0.27741 0.125,0.50439 -1.25,0.50439 -1.375,0 -1.9375,-0.22698 -1.25,-0.50439 z m -6.98834,-1.04498 c 1.24391,-0.23919 3.04391,-0.23011 4,0.0202 0.95609,0.25029 -0.0617,0.446 -2.26166,0.4349 -2.2,-0.0111 -2.98225,-0.21589 -1.73834,-0.45508 z m -19.97247,-1.03415 c 3.45905,-0.19583 8.85905,-0.19422 12,0.004 3.14094,0.19781 0.31081,0.35803 -6.28919,0.35606 -6.6,-0.002 -9.16987,-0.16382 -5.71081,-0.35965 z m 49.62263,-3.62779 c -0.28898,-0.75306 -0.37986,-3.79056 -0.20196,-6.75 l 0.32345,-5.3808 0.48335,6.7521 c 0.4865,6.79624 0.36245,7.89941 -0.60484,5.3787 z M 730.19495,781.5 c 0.0204,-1.65 0.2445,-2.20394 0.49804,-1.23097 0.25354,0.97297 0.23687,2.32297 -0.0371,3 -0.27393,0.67703 -0.48137,-0.11903 -0.46099,-1.76903 z M 602.75,747.25003 c 81.5375,-0.14114 214.9625,-0.14114 296.5,0 81.5375,0.14113 14.825,0.2566 -148.25,0.2566 -163.075,0 -229.7875,-0.11547 -148.25,-0.2566 z M 435.36996,727 c 0,-5.775 0.16528,-8.1375 0.36728,-5.25 0.202,2.8875 0.202,7.6125 0,10.5 -0.202,2.8875 -0.36728,0.525 -0.36728,-5.25 z m 631.00004,0 c 0,-5.775 0.1652,-8.1375 0.3672,-5.25 0.202,2.8875 0.202,7.6125 0,10.5 -0.202,2.8875 -0.3672,0.525 -0.3672,-5.25 z M 435.36523,697.5 c 0.003,-5.5 0.17053,-7.62242 0.37317,-4.71648 0.20265,2.90594 0.20052,7.40594 -0.005,10 -0.20525,2.59406 -0.37104,0.21648 -0.36844,-5.28352 z m 8.88477,8.75669 c 4.2625,-0.18745 11.2375,-0.18745 15.5,0 4.2625,0.18745 0.775,0.34082 -7.75,0.34082 -8.525,0 -12.0125,-0.15337 -7.75,-0.34082 z m 86.95469,-0.006 25.7047,-0.28443 0.34944,-6.73321 0.34945,-6.73321 0.19586,7.25 L 558,707 l -26.25,-0.23236 -26.25,-0.23236 25.70469,-0.28443 z M 564.20794,699.25 564.5,691.5 l 27,-0.0241 27,-0.0241 -26.75,0.29017 -26.75,0.29018 v 6.9676 6.96759 l 26.75,0.28338 26.75,0.28337 -27.29206,0.23296 -27.29207,0.23296 0.29207,-7.75 z m 55.04424,4.25 c 0.0111,-2.2 0.21589,-2.98225 0.45508,-1.73834 0.23919,1.24391 0.23011,3.04391 -0.0202,4 -0.25029,0.95609 -0.446,-0.0617 -0.4349,-2.26166 z m 86.46297,2.75039 38.21515,-0.27409 0.32395,-10.23815 L 744.57821,685.5 744.7891,696.25 745,707 706.25,706.76224 667.5,706.52448 Z m 69.53485,8.6e-4 c 10.8625,-0.16144 28.6375,-0.16144 39.5,0 10.8625,0.16144 1.975,0.29353 -19.75,0.29353 -21.725,0 -30.6125,-0.13209 -19.75,-0.29353 z M 835.32007,701 c 0,-3.575 0.1815,-5.0375 0.40333,-3.25 0.22182,1.7875 0.22182,4.7125 0,6.5 -0.22183,1.7875 -0.40333,0.325 -0.40333,-3.25 z m 50.0314,4.47352 c -0.3292,-0.85788 -0.31795,-1.84037 0.025,-2.18331 0.34295,-0.34295 0.62354,0.12646 0.62354,1.04312 0,1.51282 2.4,1.66667 26,1.66667 h 26 v -6.9834 -6.98339 l -26.25,-0.29249 -26.25,-0.29248 26.5,0.0259 26.5,0.0259 v 7.5 7.5 l -26.27499,0.26665 c -23.0413,0.23384 -26.34866,0.0747 -26.87354,-1.29313 z m 73.45903,0.77839 c 7.87078,-0.16916 20.47078,-0.16875 28,9.2e-4 7.52923,0.16966 1.0895,0.30807 -14.3105,0.30756 -15.4,-5e-4 -21.56027,-0.13932 -13.6895,-0.30848 z m 84.987,0.003 c 4.5636,-0.18572 11.7636,-0.18468 16,0.002 4.2364,0.18698 0.5025,0.33893 -8.2975,0.33766 -8.8,-10e-4 -12.2661,-0.15425 -7.7025,-0.33996 z M 999.18498,698.26607 999,692.03214 l -27.25,-0.28282 -27.25,-0.28283 27.28138,-0.23324 c 22.32897,-0.19091 27.37677,0.0153 27.8068,1.13595 0.28898,0.75306 0.3581,3.79056 0.1536,6.75 L 999.36996,704.5 Z M 886.28601,697.5 c 0.008,-2.75 0.20172,-3.75631 0.43157,-2.23625 0.22986,1.52006 0.22371,3.77006 -0.0136,5 -0.23736,1.22994 -0.42542,-0.0137 -0.41792,-2.76375 z M 618.232,696 c 0,-1.925 0.2058,-2.7125 0.45733,-1.75 0.25152,0.9625 0.25152,2.5375 0,3.5 -0.25153,0.9625 -0.45733,0.175 -0.45733,-1.75 z m 216.05401,-6.5 c 0.008,-2.75 0.20172,-3.75631 0.43157,-2.23625 0.22986,1.52006 0.22371,3.77006 -0.0136,5 -0.23736,1.22994 -0.42542,-0.0137 -0.41792,-2.76375 z M 518.75,691.2526 c 7.2875,-0.17086 19.2125,-0.17086 26.5,0 7.2875,0.17086 1.325,0.31066 -13.25,0.31066 -14.575,0 -20.5375,-0.1398 -13.25,-0.31066 z M 465.5,689 c -0.33992,-0.55 -0.14148,-1 0.44098,-1 0.58246,0 1.05902,0.45 1.05902,1 0,0.55 -0.19844,1 -0.44098,1 -0.24254,0 -0.7191,-0.45 -1.05902,-1 z m 440.86996,-14 c 0,-5.775 0.16528,-8.1375 0.36728,-5.25 0.202,2.8875 0.202,7.6125 0,10.5 -0.202,2.8875 -0.36728,0.525 -0.36728,-5.25 z m 7,0 c 0,-5.775 0.16528,-8.1375 0.36728,-5.25 0.202,2.8875 0.202,7.6125 0,10.5 -0.202,2.8875 -0.36728,0.525 -0.36728,-5.25 z m 68,0 c 0,-5.775 0.16528,-8.1375 0.36728,-5.25 0.202,2.8875 0.202,7.6125 0,10.5 -0.202,2.8875 -0.36728,0.525 -0.36728,-5.25 z m 16.99054,1 c 0,-5.225 0.16854,-7.3625 0.37454,-4.75 0.206,2.6125 0.206,6.8875 0,9.5 -0.206,2.6125 -0.37454,0.475 -0.37454,-4.75 z m -492.01769,0.5 c 0.004,-4.4 0.17944,-6.07561 0.39069,-3.72357 0.21124,2.35204 0.20827,5.95204 -0.007,8 -0.21487,2.04796 -0.38771,0.12357 -0.38408,-4.27643 z m 468.0066,-1.5 c 0,-4.675 0.17226,-6.5875 0.3828,-4.25 0.21053,2.3375 0.21053,6.1625 0,8.5 -0.21054,2.3375 -0.3828,0.425 -0.3828,-4.25 z M 684.25,674.26622 699,673.94653 v -14.02464 -14.02465 l -14.45312,0.30138 c -7.94922,0.16576 -14.10102,-0.0493 -13.67067,-0.47795 0.43035,-0.42863 7.04675,-0.65363 14.70312,-0.5 L 699.5,645.5 v 14.5 14.5 l -15,0.043 -15,0.043 14.75,-0.31969 z m 47.5,-0.0152 c 12.2375,-0.15909 32.2625,-0.15909 44.5,0 12.2375,0.15909 2.225,0.28926 -22.25,0.28926 -24.475,0 -34.4875,-0.13017 -22.25,-0.28926 z m 89.21126,0.0167 11.9645,-0.32865 0.3467,-8.97204 0.3467,-8.97204 -0.0596,9.25252 -0.0596,9.25252 -12.25162,0.0482 -12.25162,0.0482 11.9645,-0.32865 z M 507.07895,666.4167 c 0.048,-1.16495 0.28494,-1.4019 0.60416,-0.60417 0.28887,0.72187 0.25335,1.58438 -0.0789,1.91667 -0.33229,0.33229 -0.56864,-0.25834 -0.52522,-1.3125 z m 0.34219,-8.76157 c -0.28384,-0.73969 -0.0705,-5.35219 0.47409,-10.25 l 0.99017,-8.9051 -0.50179,9.733 -0.50179,9.733 25.80909,0.28464 25.80909,0.28464 -25.78138,0.23236 c -20.83487,0.18778 -25.88041,-0.0257 -26.29748,-1.11254 z m 83.96422,0.60408 25.88536,-0.29349 -0.47994,-9.73285 c -0.33045,-6.70113 -0.20307,-8.7016 0.40894,-6.42219 0.48889,1.82085 0.75646,6.32085 0.59459,10 L 617.5,658.5 l -26,0.0263 -26,0.0263 25.88536,-0.29349 z m 308.80561,-0.006 c 6.98004,-0.17166 18.68004,-0.17212 26,-10e-4 7.31997,0.17109 1.60903,0.31154 -12.69097,0.31211 -14.3,5.7e-4 -20.28906,-0.13941 -13.30903,-0.31107 z m 46.23622,-0.58237 c -0.28052,-0.73103 -0.35893,-5.34353 -0.17425,-10.25 l 0.33579,-8.92086 0.20563,9.73312 0.20564,9.73312 25.75,0.28452 25.75,0.28452 -25.78138,0.23236 c -20.68525,0.18643 -25.88221,-0.0304 -26.29143,-1.09678 z M 731.75,645.251 c 12.2375,-0.15909 32.2625,-0.15909 44.5,0 12.2375,0.15909 2.225,0.28926 -22.25,0.28926 -24.475,0 -34.4875,-0.13017 -22.25,-0.28926 z m 83.5,0.01 c 3.1625,-0.19845 8.3375,-0.19845 11.5,0 3.1625,0.19845 0.575,0.36082 -5.75,0.36082 -6.325,0 -8.9125,-0.16237 -5.75,-0.36082 z M 671.32007,630 c 0,-3.575 0.1815,-5.0375 0.40333,-3.25 0.22182,1.7875 0.22182,4.7125 0,6.5 -0.22183,1.7875 -0.40333,0.325 -0.40333,-3.25 z m 86.07987,-8.5 c 10e-4,-8.25 0.15629,-11.49193 0.34419,-7.20429 0.1879,4.28763 0.18676,11.03763 -0.003,15 -0.1893,3.96236 -0.34304,0.45429 -0.34164,-7.79571 z m -248.61246,2.15988 c 0.43183,-11.98043 0.92292,-13.44297 1.06103,-3.15988 0.0665,4.95 -0.21124,9.52195 -0.61714,10.15988 -0.40591,0.63794 -0.60566,-2.51206 -0.44389,-7 z M 591.36996,622 c 0,-5.775 0.16528,-8.1375 0.36728,-5.25 0.202,2.8875 0.202,7.6125 0,10.5 -0.202,2.8875 -0.36728,0.525 -0.36728,-5.25 z m 24.9024,6 c 0,-2.475 0.19502,-3.4875 0.43337,-2.25 0.23836,1.2375 0.23836,3.2625 0,4.5 -0.23835,1.2375 -0.43337,0.225 -0.43337,-2.25 z m 290.09287,-5.5 c 0.003,-5.5 0.17053,-7.62242 0.37317,-4.71648 0.20265,2.90594 0.20052,7.40594 -0.005,10 -0.20525,2.59406 -0.37104,0.21648 -0.36844,-5.28352 z m 7.00473,-0.5 c 0,-5.775 0.16528,-8.1375 0.36728,-5.25 0.202,2.8875 0.202,7.6125 0,10.5 -0.202,2.8875 -0.36728,0.525 -0.36728,-5.25 z m 59,0 c 0,-5.775 0.16528,-8.1375 0.36728,-5.25 0.202,2.8875 0.202,7.6125 0,10.5 -0.202,2.8875 -0.36728,0.525 -0.36728,-5.25 z m -357.06009,-4.5 c 0.006,-3.3 0.1923,-4.52944 0.41486,-2.73209 0.22256,1.79735 0.21797,4.49735 -0.0102,6 -0.22818,1.50265 -0.41027,0.0321 -0.40466,-3.26791 z M 672.20124,615.25 672,607 l 37.75,0.23745 37.75,0.23746 -37.20815,0.27467 -37.20816,0.27468 -0.3406,7.73787 -0.3406,7.73787 z m -113.91473,6.00992 c 3.18258,-0.19905 8.13258,-0.1972 11,0.004 2.86742,0.20131 0.26349,0.36417 -5.78651,0.36191 -6.05,-0.002 -8.39607,-0.16696 -5.21349,-0.36601 z m 385.15783,0.0118 9.44898,-0.34289 0.40544,-4.71443 0.40544,-4.71443 -0.1021,5 -0.1021,5 -9.75232,0.0573 -9.75233,0.0573 9.44899,-0.34289 z M 553.27236,616 c 0,-2.475 0.19502,-3.4875 0.43337,-2.25 0.23836,1.2375 0.23836,3.2625 0,4.5 -0.23835,1.2375 -0.43337,0.225 -0.43337,-2.25 z M 831.18025,613.76247 831,608.02495 l -36.25,-0.27535 -36.25,-0.27534 36.28138,-0.23713 c 30.04879,-0.19639 36.37217,-5.7e-4 36.80982,1.13993 0.29063,0.75738 0.35762,3.56988 0.14886,6.25 L 831.3605,619.5 Z M 510.32007,599 c 0,-3.575 0.1815,-5.0375 0.40333,-3.25 0.22182,1.7875 0.22182,4.7125 0,6.5 -0.22183,1.7875 -0.40333,0.325 -0.40333,-3.25 z m 42.88117,-2.23011 -0.20124,-8.73011 -21.25,-0.29087 -21.25,-0.29087 21.28138,-0.22902 c 17.01321,-0.18309 21.38439,0.0394 21.79498,1.10937 0.28247,0.73612 0.35891,4.89862 0.16986,9.25 L 553.40249,605.5 Z m 61,8.2e-4 -0.20124,-8.7293 -20.25,-0.2926 -20.25,-0.29261 20.28138,-0.2281 c 16.17749,-0.18194 20.38531,0.0427 20.79498,1.11029 0.28247,0.73612 0.35891,4.89862 0.16986,9.25 L 614.40249,605.5 Z M 953.43437,596.5 l 0.0656,-9 20.25069,-0.0318 20.2507,-0.0319 -19.96206,0.30244 -19.96206,0.30243 -0.35427,8.72942 -0.35426,8.72942 0.0656,-9 z m -254.03443,-14 c 10e-4,-8.25 0.15629,-11.49193 0.34419,-7.20429 0.1879,4.28763 0.18676,11.03763 -0.003,15 -0.1893,3.96236 -0.34304,0.45429 -0.34164,-7.79571 z m 130.95502,6 c -0.003,-4.95 0.16605,-7.10108 0.37577,-4.78017 0.20972,2.3209 0.21222,6.3709 0.006,9 C 830.5296,595.34892 830.358,593.45 830.35496,588.5 Z M 794,582 v -14 h -12.45431 -12.45431 l -0.34983,6.75 -0.34983,6.75 -0.19586,-7.25 L 768,567 h 13.5 13.5 v 14.5 c 0,7.975 -0.225,14.5 -0.5,14.5 -0.275,0 -0.5,-6.3 -0.5,-14 z m 107.19458,5.25435 c 5.88201,-0.17649 15.78201,-0.17711 22,-0.001 6.21798,0.17574 1.40542,0.32014 -10.69458,0.32089 -12.1,7.6e-4 -17.18744,-0.14302 -11.30542,-0.31951 z M 738,575.02746 v -6.97255 l -14.25,-0.30719 -14.25,-0.3072 14.671,-0.22026 14.67099,-0.22026 0.32901,7.50233 c 0.18095,4.12628 -0.009,7.50128 -0.421,7.5 -0.4125,-10e-4 -0.75,-3.13997 -0.75,-6.97487 z m -146.01256,-0.82308 0.48744,-6.70438 0.31681,5.89575 c 0.17425,3.24266 -0.0451,6.25963 -0.48744,6.70438 -0.44234,0.44475 -0.5849,-2.20834 -0.31681,-5.89575 z m 299.67923,6.12895 c -0.83348,-0.83348 -0.8781,-9.61878 -0.0597,-11.75154 0.47775,-1.24501 2.18103,-1.58179 8,-1.58179 h 7.39301 v 6.44098 c 0,3.54254 -0.3375,6.65099 -0.75,6.90767 -0.4125,0.25667 -0.59815,-2.43823 -0.41256,-5.98867 l 0.33744,-6.45535 -6.83744,0.29769 L 892.5,568.5 v 6.25182 c 0,3.43851 -0.0375,6.25101 -0.0833,6.25 -0.0458,-10e-4 -0.38334,-0.30182 -0.75,-0.66849 z M 913.19268,573.75 913,567 l 30.25,0.23454 30.25,0.23455 -29.70267,0.28026 -29.70266,0.28027 -0.35466,6.23519 -0.35465,6.23519 z m 40.07968,2.25 c 0,-2.475 0.19502,-3.4875 0.43337,-2.25 0.23836,1.2375 0.23836,3.2625 0,4.5 -0.23835,1.2375 -0.43337,0.225 -0.43337,-2.25 z M 553.232,576 c 0,-1.925 0.2058,-2.7125 0.45733,-1.75 0.25152,0.9625 0.25152,2.5375 0,3.5 -0.25153,0.9625 -0.45733,0.175 -0.45733,-1.75 z M 829,573.53078 v -5.46922 L 816.75,567.747 804.5,567.43244 817.25,567.21622 830,567 v 6 c 0,3.3 -0.225,6 -0.5,6 -0.275,0 -0.5,-2.46115 -0.5,-5.46922 z M 613.28601,573.5 c 0.008,-2.75 0.20172,-3.75631 0.43157,-2.23625 0.22986,1.52006 0.22371,3.77006 -0.0136,5 -0.23736,1.22994 -0.42542,-0.0137 -0.41792,-2.76375 z M 511.25,570.75 l 0.25,-3.25 7,-0.0798 7,-0.0798 -6.68995,0.37411 c -6.50805,0.36393 -6.70517,0.45446 -7.25,3.32978 -0.53804,2.83951 -0.55022,2.82794 -0.31005,-0.29432 z M 993.15789,570 c 0,-1.375 0.22698,-1.9375 0.50439,-1.25 0.27741,0.6875 0.27741,1.8125 0,2.5 -0.27741,0.6875 -0.50439,0.125 -0.50439,-1.25 z m -13.25802,-2.30425 c 0.44475,-0.44234 3.46172,-0.66169 6.70438,-0.48744 l 5.89575,0.31681 -6.70438,0.48744 c -3.68741,0.26809 -6.3405,0.12553 -5.89575,-0.31681 z m -431.5887,-0.44396 c 8.14615,-0.16828 21.19615,-0.16789 29,8.6e-4 7.80386,0.16876 1.13883,0.30644 -14.81117,0.30596 -15.95,-4.7e-4 -22.33497,-0.13854 -14.18883,-0.30682 z m 54.93883,0.0197 c 2.0625,-0.21574 5.4375,-0.21574 7.5,0 2.0625,0.21575 0.375,0.39226 -3.75,0.39226 -4.125,0 -5.8125,-0.17651 -3.75,-0.39226 z m 76.5,-0.0119 c 3.4375,-0.19527 9.0625,-0.19527 12.5,0 3.4375,0.19527 0.625,0.35504 -6.25,0.35504 -6.875,0 -9.6875,-0.15977 -6.25,-0.35504 z M 738.21503,545.76425 738,533.02849 l -31.25,-0.27902 -31.25,-0.27901 31.28138,-0.23523 c 25.01309,-0.18809 31.38198,0.0269 31.7834,1.07299 0.2761,0.71952 0.35875,6.68202 0.18365,13.25 L 738.43007,558.5 Z M 768.45332,545.25152 768.5,532.5 l 29.25036,-0.0231 29.25036,-0.0231 -28.97059,0.28811 -28.9706,0.28811 -0.32644,12.48647 -0.32645,12.48646 0.0467,-12.75152 z m -243.27714,2.99894 c 20.17191,-0.15122 53.47191,-0.15129 74,-1.6e-4 20.5281,0.15114 4.02382,0.27486 -36.67618,0.27495 -40.7,9e-5 -57.49572,-0.12357 -37.32382,-0.27479 z m 344.22036,-0.65949 c -0.30013,-0.78211 -0.35455,-2.69754 -0.12095,-4.2565 0.35718,-2.38361 0.44858,-2.23798 0.57458,0.91553 L 870,548 h 72.93963 72.93967 l 0.4152,-3.50865 0.4152,-3.50866 -0.1049,3.75866 -0.1048,3.75865 -73.27889,0.2565 c -62.59587,0.2191 -73.35845,0.0492 -73.82457,-1.16553 z m -357.4078,-20.29562 c -0.26881,-3.96256 -0.12803,-6.84185 0.31283,-6.39843 0.44086,0.44342 0.6608,3.68551 0.48874,7.20465 L 512.47748,534.5 Z M 557.33621,527 c 0,-4.125 0.17651,-5.8125 0.39226,-3.75 0.21574,2.0625 0.21574,5.4375 0,7.5 -0.21575,2.0625 -0.39226,0.375 -0.39226,-3.75 z m 22.49585,-0.002 c -0.18263,-3.85124 0.005,-7.00124 0.41794,-7 0.4125,10e-4 0.75,3.15225 0.75,7.00225 0,3.85 -0.18807,7 -0.41794,7 -0.22987,0 -0.56737,-3.15101 -0.75,-7.00225 z m 289.49608,0.502 c 0.004,-3.85 0.18518,-5.30246 0.40166,-3.2277 0.21647,2.07477 0.21284,5.22477 -0.008,7 -0.22091,1.77524 -0.39803,0.0777 -0.39359,-3.7723 z m 23,0 c 0.004,-3.85 0.18518,-5.30246 0.40166,-3.2277 0.21647,2.07477 0.21284,5.22477 -0.008,7 -0.22091,1.77524 -0.39803,0.0777 -0.39359,-3.7723 z m 44.82169,-0.19098 c -0.0824,-3.95504 0.18767,-7.40023 0.60017,-7.65596 0.4125,-0.25574 0.62143,1.8552 0.46428,4.69098 -0.50957,9.19534 -0.91131,10.31439 -1.06445,2.96498 z m 55.98635,-0.059 c -0.0749,-3.9875 0.20132,-7.25028 0.61382,-7.25062 0.4125,-3.4e-4 0.62006,2.36216 0.46124,5.25 -0.4841,8.80258 -0.93165,9.63544 -1.07506,2.00062 z m 22.85362,-0.45477 c -0.2694,-4.23763 -0.1302,-7.34302 0.3093,-6.90087 0.4396,0.44214 0.66,3.90929 0.4899,7.70477 l -0.3093,6.90087 z M 699.36996,512 c 0,-5.775 0.16528,-8.1375 0.36728,-5.25 0.202,2.8875 0.202,7.6125 0,10.5 -0.202,2.8875 -0.36728,0.525 -0.36728,-5.25 z m 39.05866,3.5 0.0714,-6 h 15 15 l 0.0822,5.75501 0.0822,5.755 -0.38211,-5.505 L 767.9002,510 h -14.40238 -14.40238 l -0.36909,5.75 -0.3691,5.75 0.0714,-6 z m 57.94134,-3.5 c 0,-5.775 0.16528,-8.1375 0.36728,-5.25 0.202,2.8875 0.202,7.6125 0,10.5 -0.202,2.8875 -0.36728,0.525 -0.36728,-5.25 z m 10,0 c 0,-5.775 0.16528,-8.1375 0.36728,-5.25 0.202,2.8875 0.202,7.6125 0,10.5 -0.202,2.8875 -0.36728,0.525 -0.36728,-5.25 z M 959.5,521 c -0.33992,-0.55 -0.14148,-1 0.44098,-1 0.58246,0 1.05902,0.45 1.05902,1 0,0.55 -0.19844,1 -0.44098,1 -0.24254,0 -0.7191,-0.45 -1.05902,-1 z M 677.27236,506 c 0,-2.475 0.19502,-3.4875 0.43337,-2.25 0.23836,1.2375 0.23836,3.2625 0,4.5 -0.23835,1.2375 -0.43337,0.225 -0.43337,-2.25 z m -24.0152,-17 c 0.36039,-1.32033 12.19748,-1.50089 98.82613,-1.50745 l 98.41671,-0.007 -97.94404,0.2624 c -76.76573,0.20567 -98.13478,0.53162 -98.82614,1.50745 -0.65006,0.91755 -0.77439,0.85049 -0.47266,-0.25495 z m -9.07218,-18.74552 0.18498,-5.75448 0.36728,5.25 0.36728,5.25 H 752 858.89548 l 0.39763,-5.25 0.39763,-5.25 -0.0954,5.5 -0.0954,5.5 -107.75,0.25448 -107.75,0.25449 0.18498,-5.75449 z m 0.24527,-16.57566 c -0.27884,-0.72665 -0.37398,-5.78915 -0.21141,-11.25 l 0.29558,-9.92882 0.49279,11.25204 c 0.27103,6.18862 0.36617,11.25112 0.21141,11.25 -0.15477,-0.001 -0.50953,-0.59657 -0.78837,-1.32322 z m 99.99694,-0.008 c -0.28052,-0.73103 -0.37511,-5.34353 -0.21019,-10.25 l 0.29986,-8.92086 0.49157,10.25218 c 0.48758,10.16902 0.40207,11.48114 -0.58124,8.91868 z m 33.56721,-9.96675 0.4944,-11.20411 0.29238,10.41321 c 0.16082,5.72727 -0.0617,10.76912 -0.49439,11.20411 -0.43274,0.43499 -0.56431,-4.25095 -0.29239,-10.41321 z M 678.36523,444.5 c 0.003,-5.5 0.17053,-7.62242 0.37317,-4.71648 0.20265,2.90594 0.20052,7.40594 -0.005,10 -0.20525,2.59406 -0.37104,0.21648 -0.36844,-5.28352 z m 147.08233,-1 0.0524,-10 16.75,-0.27418 c 9.2125,-0.1508 16.7506,0.0742 16.75133,0.5 7.4e-4,0.4258 -7.40829,0.64083 -16.4645,0.47785 l -16.46584,-0.29633 -0.33794,9.79633 -0.33793,9.79633 0.0524,-10 z m 33.91294,1.5 c 0,-5.225 0.16854,-7.3625 0.37454,-4.75 0.206,2.6125 0.206,6.8875 0,9.5 -0.206,2.6125 -0.37454,0.475 -0.37454,-4.75 z M 653.75,433.25601 c 4.5375,-0.18529 11.9625,-0.18529 16.5,0 4.5375,0.1853 0.825,0.3369 -8.25,0.3369 -9.075,0 -12.7875,-0.1516 -8.25,-0.3369 z m 99,0 c 4.5375,-0.18529 11.9625,-0.18529 16.5,0 4.5375,0.1853 0.825,0.3369 -8.25,0.3369 -9.075,0 -12.7875,-0.1516 -8.25,-0.3369 z"
         id="path18" />
      <path
         style="fill:#0a0a0a"
         d="m 712,1282.9192 c -66.99094,-5.6818 -128.31866,-22.4676 -187.5,-51.3199 -25.55484,-12.4586 -37.84732,-19.4461 -60,-34.1063 -60.02584,-39.7238 -108.26918,-87.9672 -147.99301,-147.993 -14.66018,-22.1527 -21.64769,-34.4452 -34.10627,-60 -28.64851,-58.76335 -45.09047,-118.24529 -50.90503,-184.15875 -1.93883,-21.97847 -1.93883,-66.70403 0,-88.6825 5.81456,-65.91346 22.25652,-125.3954 50.90503,-184.15875 12.45858,-25.55484 19.44609,-37.84732 34.10627,-60 39.72383,-60.02584 87.96717,-108.26918 147.99301,-147.99301 22.15268,-14.66018 34.44516,-21.64769 60,-34.10627 58.76335,-28.64851 118.24529,-45.09047 184.15875,-50.90503 21.97847,-1.93883 66.70403,-1.93883 88.6825,0 65.91346,5.81456 125.3954,22.25652 184.15875,50.90503 25.5548,12.45858 37.8473,19.44609 60,34.10627 60.0258,39.72383 108.2692,87.96717 147.993,147.99301 14.6602,22.15268 21.6477,34.44516 34.1063,60 25.1829,51.65482 40.7426,103.35213 48.417,160.86637 1.7654,13.23021 1.9837,20.67384 1.9837,67.63363 0,46.95979 -0.2183,54.40342 -1.9837,67.63363 -7.6744,57.51424 -23.2341,109.21155 -48.417,160.86637 -12.4586,25.5548 -19.4461,37.8473 -34.1063,60 -39.7238,60.0258 -87.9672,108.2692 -147.993,147.993 -22.1527,14.6602 -34.4452,21.6477 -60,34.1063 -58.76335,28.6485 -118.24529,45.0904 -184.15875,50.905 -18.12854,1.5992 -68.49106,1.8441 -85.34125,0.4149 z m 77.34125,-35.4149 c 73.3912,-6.4742 144.57229,-28.2486 204.15875,-62.4524 85.574,-49.1212 155.8012,-124.1215 198.0885,-211.5519 23.1866,-47.9392 38.1421,-98.26488 45.4278,-152.86637 C 1238.7436,807.68852 1239,799.98171 1239,761 c 0,-38.98171 -0.2564,-46.68852 -1.9837,-59.63363 C 1229.7306,646.76488 1214.7751,596.4392 1191.5885,548.5 1144.3989,450.93388 1063.0661,369.60108 965.5,322.41152 877.51565,279.85635 779.61511,264.32336 685.78415,278.03153 545.09696,298.58514 423.8344,375.54954 345.51137,494 321.48385,530.33761 303.88421,566.79928 289.82145,609.37441 253.68775,718.76952 257.33604,832.81725 300.46186,942 c 43.71126,110.6649 131.87285,205.2724 240.03814,257.5885 77.40844,37.4399 168.58189,54.9959 248.84125,47.9158 z M 571,1111.8613 V 1089 h 2.5 2.5 v 22.3834 22.3834 l -2.5,0.478 -2.5,0.4779 z m 354,-0.1009 v -22.8932 l 2.75,0.3164 2.75,0.3164 0.26882,22.1337 0.26882,22.1338 -3.01882,0.443 -3.01882,0.4431 z m -341,-0.7918 c 0,-20.8813 0.15331,-22.9686 1.68698,-22.9686 0.92784,0 8.24034,-1.3182 16.25,-2.9294 8.00966,-1.6112 18.38802,-3.6205 23.06302,-4.4651 4.675,-0.8446 11.77086,-2.2341 15.76857,-3.0878 3.99772,-0.8537 9.51022,-1.7753 12.25,-2.048 L 658,1074.9738 v 19.2971 19.297 l -9.75,2.9475 c -5.3625,1.621 -10.07956,2.8459 -10.48237,2.7219 -0.4028,-0.1241 -2.73744,0.4552 -5.1881,1.2872 -2.45065,0.832 -6.39609,1.9196 -8.76763,2.4169 -2.37155,0.4972 -6.7869,1.6536 -9.8119,2.5697 -3.025,0.9162 -7.3,2.0205 -9.5,2.4541 -3.24595,0.6398 -12.24191,3.2372 -19.25,5.5581 -0.97573,0.3231 -1.25,-4.6257 -1.25,-22.5547 z m 323.5,20.4928 c -3.85,-1.3088 -8.28558,-2.5913 -9.85685,-2.8501 -1.57127,-0.2588 -6.97127,-1.6669 -12,-3.1293 -17.9937,-5.2324 -20.06127,-5.7936 -22.58547,-6.1307 -1.40673,-0.1879 -6.60768,-1.6247 -11.55768,-3.1929 l -9,-2.8512 -0.31385,-11.9036 c -0.17262,-6.547 -0.0183,-15.2026 0.34292,-19.2347 l 0.65676,-7.331 5.15709,0.6314 c 2.83639,0.3473 11.68208,1.9223 19.65708,3.4999 7.975,1.5777 22.375,4.3906 32,6.2509 l 17.5,3.3824 0.26877,22.6987 c 0.30881,26.0793 1.31751,24.099 -10.26877,20.1602 z m -485.21631,-27.0671 -9.21632,-8.5408 2.46632,-3.9069 c 1.35647,-2.1488 2.46631,-4.193 2.46631,-4.5428 0,-0.3497 1.575,-2.7814 3.5,-5.4038 1.925,-2.6224 3.5,-5.0393 3.5,-5.3709 0,-0.3316 3.375,-5.9855 7.5,-12.5642 4.125,-6.5788 7.5,-12.1871 7.5,-12.463 0,-0.2759 1.35,-2.502 3,-4.9468 1.65,-2.4448 3,-4.7874 3,-5.2057 0,-0.4184 1.04774,-2.1531 2.32832,-3.855 1.28057,-1.7019 3.64307,-5.4564 5.25,-8.3434 l 2.92168,-5.249 51.75,-10e-4 L 560,1024 v 44.5 44.5 l -64.25,-0.033 -64.25,-0.032 -9.21631,-8.5408 z M 941,1068.5 V 1024 h 52.25945 52.25945 l 1.4349,2.25 c 0.7892,1.2375 2.9222,4.725 4.74,7.75 1.8179,3.025 3.7528,6.175 4.2999,7 0.5471,0.825 3.8098,6.1439 7.2505,11.8199 3.4407,5.6759 7.4538,12.2685 8.918,14.6502 1.4641,2.3816 3.8318,6.4254 5.2614,8.986 1.4296,2.5607 3.4224,5.8681 4.4286,7.3498 3.1694,4.6677 8.1478,13.2939 8.1478,14.1181 0,0.435 -3.5596,4.0051 -7.9102,7.9335 L 1074.1796,1113 H 1007.5898 941 Z m -370,-2.8613 v -17.3614 l 2.5,0.4779 2.5,0.478 V 1066.1166 1083 h -2.5 -2.5 z m 354,0.1009 v -17.3932 l 3.02365,0.4438 3.02365,0.4437 -0.27365,16.6331 -0.27365,16.633 -2.75,0.3164 -2.75,0.3164 z m -341,12.0287 c 0,-2.4499 -0.29415,-9.9249 -0.65368,-16.6113 l -0.65367,-12.157 4.40367,-0.01 c 2.42203,0 18.57868,-1.3507 35.90368,-2.9925 17.325,-1.6418 32.30094,-2.9884 33.27988,-2.9925 1.62808,-0.01 1.75601,1.0756 1.5,12.6922 l -0.27988,12.6996 -13.5,2.6951 c -32.14472,6.4172 -41.82597,8.2599 -47,8.9455 -3.025,0.4009 -7.1875,1.056 -9.25,1.4558 l -3.75,0.7269 v -4.4543 z m 14.80287,-12.391 c 0.38495,-2.698 -2.61625,-3.9925 -4.61716,-1.9916 -2.03748,2.0375 -0.73945,4.8319 2.05982,4.4344 1.40311,-0.1992 2.36884,-1.1217 2.55734,-2.4428 z M 626,1060.5 c 0,-1.6865 -2.9637,-3.422 -4.75,-2.7815 -1.56813,0.5622 -1.62474,3.5068 -0.0968,5.0347 1.43158,1.4316 4.8468,-0.1561 4.8468,-2.2532 z m 21.04165,-2.0502 c 1.05985,-1.277 1.01023,-1.8265 -0.28159,-3.1183 -1.9868,-1.9868 -3.76006,-0.9363 -3.76006,2.2275 0,2.7768 2.09349,3.2382 4.04165,0.8908 z M 909,1080.841 c -5.07201,-0.8497 -19.00247,-3.4427 -47.84466,-8.9057 -6.23956,-1.1818 -12.87706,-2.5719 -14.75,-3.089 L 843,1067.906 v -12.5822 -12.5822 l 6.75,0.6168 c 3.7125,0.3392 18.87506,1.7681 33.69458,3.1753 14.81952,1.4071 27.86952,2.4879 29,2.4017 5.85638,-0.4467 5.55542,-1.344 5.55542,16.5646 0,18.6283 0.95058,17.008 -9,15.341 z m -1.19713,-15.4637 c 0.37447,-2.6245 -2.60476,-4.004 -4.51716,-2.0916 -0.75849,0.7585 -1.06573,2.124 -0.69518,3.0896 0.9349,2.4363 4.82871,1.6907 5.21234,-0.998 z M 881,1060.5776 c 0,-1.8152 -2.08663,-3.4816 -3.62186,-2.8925 -1.72043,0.6602 -1.81955,4.9897 -0.12814,5.5973 1.50945,0.5423 3.75,-1.0738 3.75,-2.7048 z m -22.17986,-3.3423 c 0.41015,-2.8753 -2.41728,-4.0667 -4.56178,-1.9222 -1.3278,1.3278 -1.37093,1.8463 -0.26442,3.1796 1.79955,2.1683 4.43549,1.4816 4.8262,-1.2574 z M 571,1018 v -25 h 2.5 2.5 v 25 25 h -2.5 -2.5 z m 12,-0.1446 v -25.14461 l 6.75,0.6375 c 3.7125,0.35062 10.43898,0.64069 14.94774,0.6446 l 8.19774,0.007 0.30226,5.25 0.30226,5.25001 9.25,0.2875 9.25,0.2876 -0.002,-4.7876 -0.002,-4.78751 12.39465,0.30559 12.39465,0.30559 0.72775,19.40903 c 0.40026,10.6749 0.49222,20.0228 0.20435,20.7729 -0.38516,1.0037 -4.84114,1.6782 -16.87058,2.5536 -8.99095,0.6544 -24.67218,1.8606 -34.84718,2.6805 -10.175,0.82 -19.5125,1.4868 -20.75,1.4818 L 583,1043 Z m 310,23.5335 c -8.525,-0.7212 -22.7635,-1.8344 -31.6411,-2.4738 -8.87761,-0.6393 -16.62567,-1.4619 -17.21791,-1.828 -0.74531,-0.4606 -0.88472,-6.8707 -0.45284,-20.8214 l 0.62397,-20.15594 12.34576,-0.30488 12.34576,-0.30488 -0.002,4.75 -0.002,4.75 h 9 9 v -5.03138 c 0,-3.15329 0.4666,-5.17498 1.25,-5.41606 0.6875,-0.21157 7.6625,-0.63903 15.5,-0.94992 l 14.25,-0.56525 V 1018.0187 1043 l -4.75,-0.15 c -2.6125,-0.082 -11.725,-0.74 -20.25,-1.4611 z M 925,1018 v -25 h 3 3 v 25 25 h -3 -3 z m -466.18045,-7.25 c -0.17575,-1.2375 0.31329,-7.5375 1.08677,-14 L 461.31263,985 H 507.15632 553 v 14 14 H 506.06955 459.1391 Z M 948,998.99001 v -14.00998 l 46.25,0.25998 46.25,0.25999 1.1689,9 c 0.6429,4.95 1.4459,11.1375 1.7844,13.75 l 0.6156,4.75 H 996.03444 948 Z M 619,973.44445 V 946.8889 l 3.25,0.37071 3.25,0.3707 0.2666,26.18484 L 626.03321,1000 H 622.5166 619 Z m 256.2334,0.3707 0.2666,-26.18484 3.25,-0.3707 3.25,-0.37071 V 973.44445 1000 h -3.5166 -3.51661 z M 635.25,989.2766 632,988.87328 v -13.45569 c 0,-13.4259 0.005,-13.45466 2.25,-12.98822 1.2375,0.25711 6.8625,1.01345 12.5,1.68075 L 657,965.32341 V 977.6617 990 l -9.25,-0.16004 c -5.0875,-0.088 -10.7125,-0.34153 -12.5,-0.56336 z M 648,976.57756 c 0,-1.81517 -2.08663,-3.48155 -3.62186,-2.89243 -1.72043,0.6602 -1.81955,4.98963 -0.12814,5.59726 1.50945,0.54227 3.75,-1.07381 3.75,-2.70483 z M 844.01531,978.75 c 0.008,-6.1875 0.34592,-11.76907 0.75,-12.40349 0.40408,-0.63443 6.02219,-1.78094 12.48469,-2.54781 L 869,962.40439 v 13.16188 13.16188 l -4.63957,0.63593 C 861.80866,989.71383 856.18366,990 851.86043,990 H 844 l 0.0153,-11.25 z m 13.4029,0.64301 c 2.00086,-0.7678 2.04628,-3.76263 0.0818,-5.39301 -2.86694,-2.37935 -5.96829,2.13171 -3.3,4.8 1.40234,1.40234 1.20426,1.36584 3.21821,0.59301 z M 571,972.56955 V 957 h 2.52605 2.52604 l -0.27604,15.25 c -0.27076,14.95786 -0.31915,15.25612 -2.52605,15.56955 L 571,988.1391 Z m 12,-0.1286 V 956.9619 l 2.25,0.49171 c 1.2375,0.27044 6.75,0.97077 12.25,1.55628 5.5,0.5855 11.21354,1.3033 12.69675,1.59509 l 2.69674,0.53054 0.30326,13.41492 0.30325,13.41493 -15.25,-0.0227 -15.25,-0.0227 v -15.47905 z m 16.41821,3.95206 C 602.08107,975.37118 601.37644,972 598.5,972 c -1.75758,0 -2.5,0.54444 -2.5,1.83333 0,2.83383 0.9161,3.51983 3.41821,2.55968 z M 887,974.59638 v -13.3663 l 7.75,-1.07235 c 4.2625,-0.58979 10.45,-1.35342 13.75,-1.69696 3.3,-0.34353 6.7875,-0.84306 7.75,-1.11007 1.61237,-0.4473 1.75,0.73565 1.75,15.04191 V 987.92 l -15.5,0.0213 -15.5,0.0213 v -13.3663 z m 17.96365,0.94742 c 1.61489,-1.94582 0.47737,-3.5438 -2.52267,-3.5438 -2.60876,0 -3.20752,1.83346 -1.24098,3.8 1.56316,1.56316 2.29506,1.51334 3.76365,-0.2562 z M 925,972.5 v -15.63284 l 2.75,0.31642 2.75,0.31642 v 15 15 l -2.75,0.31642 -2.75,0.31642 z m -461.4526,-3.75 c 0.40429,-2.8875 1.00901,-8.82986 1.34383,-13.20525 l 0.60877,-7.95524 18.99103,0.29519 c 10.44506,0.16235 19.33256,0.50627 19.75,0.76426 0.41743,0.25799 0.75897,6.06752 0.75897,12.91006 V 974 h -21.09384 -21.09384 z m 52.25975,-7.33694 c -0.16893,-6.92281 -0.11965,-12.77281 0.10952,-13 C 516.14583,948.18588 526.15833,948 538.16667,948 H 560 v 13 13 H 538.05715 516.11431 Z M 941,962 v -12 h 22.5 22.5 v 12 12 H 963.5 941 Z m 56,0 v -12 h 19.928 19.9281 l 0.5295,5.25 c 0.2913,2.8875 0.7567,8.2875 1.0344,12 l 0.5047,6.75 H 1017.9624 997 Z m -352.5,-3.53969 c -4.95,-0.7086 -9.76779,-1.32706 -10.70619,-1.37434 -1.41468,-0.0713 -1.75639,-1.32465 -2,-7.33597 -0.26074,-6.43404 -0.5189,-7.26449 -2.29381,-7.37877 -1.1,-0.0708 -4.87419,-0.88664 -8.3871,-1.81291 -4.03117,-1.06293 -6.73729,-1.33393 -7.3365,-0.73472 -0.52218,0.52218 -0.79799,4.06683 -0.61291,7.87701 L 613.5,954.6282 608,954.28219 c -6.84558,-0.43066 -24.31562,-2.26448 -24.6373,-2.58616 -0.13097,-0.13097 -0.56079,-17.66615 -0.95516,-38.96708 -0.69745,-37.67143 -0.66501,-38.72846 1.18772,-38.71118 4.63363,0.0432 20.50649,2.03997 28.33904,3.56496 22.94,4.46638 36.0616,12.35425 41.86689,25.16766 2.44739,5.40187 3.53698,57.32261 1.19881,57.12503 -0.825,-0.0697 -5.55,-0.70651 -10.5,-1.41511 z m 200.68905,-24.65356 c 0.34917,-29.54035 0.70929,-31.26094 8.3019,-39.66505 5.33144,-5.90127 18.06018,-12.77541 27.00905,-14.58621 1.1,-0.22259 5.16512,-1.08695 9.0336,-1.92082 C 895.1947,876.41439 914.17441,874 918.10595,874 c 1.01307,0 1.22784,60.81578 0.25129,71.15412 l -0.62854,6.65412 -9.61435,1.08275 c -5.28789,0.59551 -12.20246,1.20116 -15.36571,1.34588 l -5.75137,0.26313 0.001,-7.75 c 7.5e-4,-4.2625 -0.33757,-7.75 -0.75182,-7.75 -0.41425,0 -3.78925,0.86824 -7.5,1.92942 C 875.03607,941.9906 872,942.6105 872,942.30697 c 0,-0.30352 -0.675,0.008 -1.5,0.69303 -1.0464,0.86844 -1.5,3.17346 -1.5,7.62244 0,3.50766 -0.41744,6.37756 -0.92764,6.37756 -1.18564,0 -15.53128,1.85361 -19.88331,2.56913 l -3.31094,0.54436 z M 571,912.5 V 874 h 2.5 2.5 v 38.5 38.5 h -2.5 -2.5 z m 354,-0.0664 v -38.56642 l 2.75,0.31642 2.75,0.31642 0.26188,38.25 0.26189,38.25 H 928.01188 925 Z M 948,926 v -13 h 41.95469 41.95471 l 0.5329,3.25 c 0.9628,5.87178 2.5577,18.85564 2.5577,20.82236 0,1.87398 -1.211,1.92764 -43.5,1.92764 H 948 Z m -481,10.159 c 0,-2.24311 1.90606,-17.78686 2.56397,-20.909 L 470.0381,913 H 515.01905 560 v 12.5 12.5 h -46.5 c -44.49462,0 -46.5,-0.0794 -46.5,-1.841 z m 4,-36.58664 c 0,-3.19896 1.34095,-14.9021 2.5577,-22.32236 L 474.09063,874 H 491.04531 508 V 888.5 903 H 489.5 471 Z M 519,888.5 V 874 H 539.5 560 V 888.5 903 H 539.5 519 Z m 178.48221,13.25 c -0.25026,-0.6875 -0.57363,-6.425 -0.71861,-12.75 L 696.5,877.5 684.75,877.21826 c -6.4625,-0.15495 -11.74311,-0.60495 -11.73469,-1 0.0548,-2.56937 2.22264,-3.1636 12.52146,-3.43227 L 696.5,872.5 l 0.27848,-13.17119 c 0.24816,-11.73756 0.0933,-13.20698 -1.42276,-13.5 -1.29962,-0.25119 -0.8342,-0.99002 1.97153,-3.1297 2.02001,-1.54049 3.67275,-2.32799 3.67275,-1.75 0,1.61574 19.07554,1.30949 21.25,-0.34116 1.3324,-1.01143 1.75,-2.79354 1.75,-7.46819 0,-4.7909 0.32954,-6.13976 1.5,-6.13976 1.1746,0 1.5,1.36667 1.5,6.3 0,3.56667 0.52063,6.82063 1.2,7.5 0.76744,0.76744 4.67667,1.2 10.84501,1.2 C 751.46799,842 752,841.51123 752,830.09794 c 0,-7.31241 0.19786,-8.20687 1.75,-7.91097 1.47656,0.28149 1.82813,1.81641 2.25,9.82332 l 0.5,9.48971 9.85242,0.28745 c 6.4056,0.18688 10.34135,-0.11834 11.25,-0.87245 0.93247,-0.77388 1.39758,-3.3067 1.39758,-7.61077 0,-5.6037 0.22982,-6.40721 1.75,-6.11836 1.40781,0.2675 1.84777,1.69947 2.25,7.32332 l 0.5,6.99081 9.91736,0.28823 c 6.78198,0.19711 10.14631,-0.0822 10.64157,-0.88359 0.50529,-0.81756 1.87068,-0.30007 4.5165,1.71177 3.4364,2.61299 3.58733,2.91358 1.60842,3.20314 -2.10868,0.30855 -2.18385,0.74056 -2.18385,12.55 0,8.17924 0.39749,12.62794 1.2,13.43045 0.7837,0.7837 4.90956,1.2 11.89301,1.2 8.82814,0 10.79887,0.27587 11.3,1.58179 0.33385,0.86998 0.60699,1.7557 0.60699,1.96826 0,0.21256 -5.2875,0.51326 -11.75,0.66821 L 809.5,877.5 l -0.28038,12.81747 c -0.25147,11.49598 -0.45768,12.78366 -2,12.48949 -1.46954,-0.28028 -1.79633,-1.99889 -2.24706,-11.81747 -0.2901,-6.31922 -0.87915,-12.05199 -1.30902,-12.73949 -1.05199,-1.68248 -17.78807,-1.72547 -19.46354,-0.05 -0.79774,0.79774 -1.2,5.15556 -1.2,13 0,11.07368 -0.12127,11.8 -1.97012,11.8 -1.84252,0 -1.98825,-0.82583 -2.25,-12.75 L 778.5,877.5 h -11 -11 l -0.5,12.48875 c -0.435,10.86515 -0.72751,12.53224 -2.25,12.82332 -1.58771,0.30355 -1.75,-0.77372 -1.75,-11.6163 0,-9.00129 -0.34418,-12.23653 -1.39452,-13.10823 -0.91808,-0.76194 -5.10324,-1.06001 -12.25,-0.87244 L 727.5,877.5 l -0.27988,12.75 c -0.22883,10.42459 -0.548,12.75 -1.75,12.75 C 724.25968,903 724,900.91564 724,891.2 c 0,-7.84444 -0.40226,-12.20226 -1.2,-13 -0.75751,-0.75751 -4.55556,-1.2 -10.3,-1.2 -5.74444,0 -9.54249,0.44249 -10.3,1.2 -0.79774,0.79774 -1.2,5.15556 -1.2,13 0,9.9297 -0.24272,11.8 -1.53138,11.8 -0.84227,0 -1.73615,-0.5625 -1.98641,-1.25 z M 722.8,871.8 c 0.78919,-0.78919 1.2,-5 1.2,-12.3 0,-7.3 -0.41081,-11.51081 -1.2,-12.3 -0.77799,-0.77799 -4.82222,-1.2 -11.5,-1.2 H 701 v 12.3 c 0,8.23333 0.39675,12.69675 1.2,13.5 0.75751,0.75751 4.55556,1.2 10.3,1.2 5.74444,0 9.54249,-0.44249 10.3,-1.2 z m 28,0 c 1.80986,-1.80986 1.64158,-23.18863 -0.19452,-24.71246 -0.91808,-0.76194 -5.10324,-1.06001 -12.25,-0.87244 L 727.5,846.5 l -0.28267,11.85817 c -0.18803,7.8878 0.10409,12.32419 0.87244,13.25 1.5142,1.82449 20.9137,1.98836 22.71023,0.19183 z m 27.98267,-11.15817 c 0.18803,-7.8878 -0.10409,-12.32419 -0.87244,-13.25 C 777.05915,846.36634 774.02364,846 766.37756,846 H 756 v 12.83333 c 0,7.05834 0.31432,13.14765 0.69848,13.53182 0.38417,0.38417 5.44667,0.57167 11.25,0.41667 L 778.5,872.5 Z m 24.9966,-1.42714 0.27927,-13.2853 -10.27927,0.2853 L 783.5,846.5 l -0.28267,11.85817 c -0.19188,8.04939 0.0978,12.31663 0.90192,13.28552 0.90233,1.08724 3.35246,1.35931 10.28267,1.14183 L 803.5,872.5 Z M 941,888.5 V 874 H 963.5 986 V 888.5 903 H 963.5 941 Z m 56,0 V 874 h 15.5 c 8.525,0 15.5143,0.3375 15.5317,0.75 0.017,0.4125 0.6782,5.475 1.4683,11.25 0.7901,5.775 1.4509,11.9625 1.4683,13.75 l 0.032,3.25 h -17 -17 v -14.5 z m -344.20867,-3.77318 c -2.58977,-2.32475 -6.11679,-5.36118 -7.83784,-6.74763 l -3.12916,-2.52081 2.17669,-6.47919 c 1.19718,-3.56355 4.21061,-10.42317 6.69651,-15.24359 l 4.51982,-8.76439 3.64132,2.21291 c 2.00273,1.21709 5.44133,3.58141 7.64133,5.25403 2.2,1.67263 4.18934,3.16014 4.42077,3.30559 0.23142,0.14545 -1.67426,4.65011 -4.23483,10.01036 -5.30098,11.09691 -8.91681,21.06333 -8.11343,22.36323 1.31011,2.11979 -1.43839,0.50787 -5.78118,-3.39051 z m 193.28066,-3.96275 c -0.68915,-2.34524 -2.78804,-7.56831 -4.66419,-11.60682 -1.87615,-4.03851 -3.17592,-7.72343 -2.88836,-8.1887 0.28755,-0.46527 3.10081,-2.29337 6.25169,-4.06243 3.15088,-1.76907 6.51913,-3.8939 7.485,-4.72184 0.96587,-0.82794 1.91245,-1.32061 2.1035,-1.09482 1.47854,1.7474 9.64037,20.66639 9.64037,22.34622 0,0.10132 -2.8125,2.08703 -6.25,4.41268 -3.4375,2.32565 -7.18937,4.89251 -8.3375,5.70412 -1.98991,1.40669 -2.14606,1.27634 -3.34051,-2.78841 z M 475.33527,862.56868 c 0.30209,-0.78723 0.86128,-5.27684 1.24264,-9.97691 l 0.69338,-8.54559 37.86474,-0.27309 37.86473,-0.27309 -3.8e-4,10.25 L 553,864 h -39.10699 c -33.51696,0 -39.02848,-0.2046 -38.55774,-1.43132 z M 564,854 v -10 h 39.56739 39.56739 l -0.7106,2.25 c -0.39083,1.2375 -2.46732,5.7375 -4.61442,10 L 633.90594,864 H 598.95297 564 Z m 308.13046,8.65719 c -0.91004,-1.09652 -9.1295,-18.13283 -9.13086,-18.92533 -2.2e-4,-0.12752 16.64978,-0.1086 37,0.042 L 937,844.04777 v 9.97609 9.9761 h -31.87756 c -25.45713,0 -32.10201,-0.27045 -32.99198,-1.34281 z M 948,854 v -10 h 38.5 38.5 l 0.073,4.75 c 0.04,2.6125 0.4095,7.1125 0.8207,10 l 0.7477,5.25 H 987.32072 948 Z M 821.92683,841 c -6.12225,-6.07988 -13.27864,-12.08643 -17,-14.26857 -3.53476,-2.07272 -7.46379,-4.5681 -8.73118,-5.5453 l -2.30434,-1.77672 3.05355,-6.45471 c 1.67946,-3.55008 3.05392,-7.03132 3.05435,-7.73608 0.002,-2.53304 2.81861,-2.27414 7.90822,0.7268 2.84932,1.68002 5.55568,3.05458 6.01413,3.05458 0.45845,0 1.38048,0.65901 2.04894,1.46446 0.66847,0.80545 3.53722,3.00559 6.37501,4.88921 5.84642,3.88064 16.31011,13.80212 22.09726,20.95226 3.82741,4.72883 3.85907,4.8361 1.97352,6.68654 -1.05396,1.03433 -4.61629,3.37166 -7.91629,5.19407 l -6,3.31346 z M 670,841.89077 c -4.125,-2.80239 -7.64249,-5.47671 -7.81664,-5.94293 -0.17415,-0.46621 0.61335,-1.42845 1.75,-2.1383 1.13665,-0.70985 2.06664,-1.70799 2.06664,-2.21808 0,-1.45744 11.87663,-12.2974 18.5,-16.8852 3.3,-2.28581 9.90684,-6.24009 14.68187,-8.78729 l 8.68187,-4.63127 2.27105,6.10615 c 1.24908,3.35838 2.83171,7.19888 3.51695,8.53445 0.68525,1.33556 1.01115,2.80813 0.72423,3.27238 -0.28691,0.46424 -3.30138,2.23634 -6.69882,3.93799 -7.6091,3.81113 -19.10317,12.4712 -25.1919,18.98056 -2.51097,2.68442 -4.65986,4.87763 -4.77532,4.87378 -0.11546,-0.004 -3.58493,-2.29985 -7.70993,-5.10224 z M 479.95438,820.25 l 1.554,-12.75 13.24581,-0.27903 L 508,806.94195 V 819.97097 833 H 493.20019 478.40038 Z M 519,820 v -13 h 38 38 v 13 13 h -38 -38 z m 86.80715,0.41306 c -0.16893,-6.92281 -0.11965,-12.77281 0.10952,-13 C 606.14583,807.18588 622.05091,807 641.26128,807 h 34.92795 l -4.34462,3.57298 c -4.94922,4.07022 -17.29622,16.80511 -19.56244,20.17702 -1.4927,2.221 -1.79996,2.25 -23.84003,2.25 H 606.11431 Z M 853.606,830.52144 c -0.89321,-1.36321 -6.41074,-7.21912 -12.26119,-13.01313 l -10.63718,-10.53456 34.89619,0.26312 L 900.5,807.5 l 0.27988,12.75 0.27987,12.75 h -22.91486 -22.91487 z m 57.8281,1.16742 c -0.27673,-0.72113 -0.3751,-6.45863 -0.21862,-12.75 L 911.5,807.5 947.75,807.23753 984,806.97505 V 819.98753 833 h -36.03138 c -28.79876,0 -36.13238,-0.26319 -36.53452,-1.31114 z M 994,820 v -13 h 12.9809 c 12.6546,0 12.9929,0.0566 13.4551,2.25 0.7296,3.46236 2.564,18.77918 2.564,21.409 V 833 H 1008.5 994 Z M 722.2294,808.5692 c -4.47413,-10.42069 -4.46473,-10.59103 0.66963,-12.12873 15.02432,-4.49967 42.75419,-4.3821 61.35097,0.2601 3.7125,0.92673 6.75,2.03835 6.75,2.47026 0,0.7704 -6.89373,15.95434 -7.59048,16.71859 -0.19527,0.21418 -3.17979,-0.43159 -6.63227,-1.43504 -8.1432,-2.3668 -38.36188,-2.53938 -46.39496,-0.26496 l -5.11772,1.44898 z M 482.5448,796 c -0.14533,-0.275 0.23515,-4.55 0.84549,-9.5 l 1.10971,-9 35.75,-0.26263 35.75,-0.26263 v 9.76263 9.76263 h -36.59549 c -20.12752,0 -36.71439,-0.225 -36.85971,-0.5 z m 165.45512,-9.26263 8e-5,-9.76263 35.75,0.26263 35.75,0.26263 0.2982,4.05982 0.29821,4.05981 -8.79821,3.2444 c -4.83901,1.78441 -10.67978,4.13612 -12.97949,5.22602 -3.74363,1.77421 -6.59591,2.00404 -27.25008,2.19579 L 647.99985,796.5 Z m 219.41586,9.34596 C 867.1871,795.85417 867,791.46667 867,786.33333 V 777 h 35 35 v 9.47458 9.47458 l -34.58422,0.27542 c -19.02133,0.15148 -34.77133,0.0879 -35,-0.14125 z M 948,786.75 V 777 h 34.39301 c 28.91559,0 34.48049,0.22795 34.94229,1.43132 0.3021,0.78723 0.853,5.17473 1.2242,9.75 l 0.675,8.31868 H 983.61723 948 Z M 566,786.5 V 777 h 35.5 35.5 v 9.5 9.5 H 601.5 566 Z m 243.5,8.38642 c -1.65,-0.51327 -5.025,-1.93518 -7.5,-3.15982 L 797.5,789.5 797.20228,783.25 796.90457,777 H 826.95228 857 v 9.5 9.5 l -22.25,-0.0902 c -12.2375,-0.0496 -23.6,-0.51013 -25.25,-1.02339 z M 777,784.25637 c -5.9404,-1.64438 -38.19542,-2.40367 -43.13784,-1.01547 -2.37755,0.6678 -2.68123,0.44522 -3.07764,-2.25569 -0.24189,-1.64813 -0.21737,-3.21903 0.0545,-3.4909 C 731.11089,777.22244 743.63333,777 758.66667,777 H 786 v 4.5 c 0,5.15044 -0.16679,5.20152 -9,2.75637 z M 455,757.50167 V 748 h 296.03753 296.03757 l -0.2876,9.25 -0.2875,9.25 -295.75,0.25167 L 455,767.00334 Z M 436,727 v -10 h 315 315 v 10 10 H 751 436 Z M 435.999,697.25 436,688 h 14.3 c 9.78889,0 14.67855,0.37855 15.5,1.2 0.72691,0.72691 1.2,4.2558 1.2,8.9511 v 7.7511 l -15.50144,0.2989 -15.50144,0.2989 10e-4,-9.25 z M 591.75,706.25071 565,705.96733 V 698.98367 692 l 26.75,0.009 26.75,0.009 0.28356,7.49139 c 0.15595,4.12026 0.15595,7.38656 0,7.25843 -0.15596,-0.12813 -12.32106,-0.36048 -27.03356,-0.51633 z M 755,695.75 V 685 h 39.3554 39.35539 l 0.6375,6.75 c 0.35062,3.7125 0.64069,8.55 0.6446,10.75 l 0.007,4 h -40 -40 v -10.75 z m 296.75,10.47461 -15.75,-0.2754 V 696.97461 688 h 15.5314 c 12.0218,0 15.647,0.30135 16.0431,1.33359 0.2815,0.73347 0.3799,4.89597 0.2186,9.25 L 1067.5,706.5 Z M 506,699 v -7 l 25.75,-0.002 25.75,-0.002 -0.33206,7.00226 L 556.83588,706 H 531.41794 506 Z m 162.36408,2.36043 C 668.71383,698.80866 669,694.08366 669,690.86043 V 685 l 37.75,-0.002 37.75,-0.002 -0.31434,10.50211 -0.31434,10.50211 h -38.07158 -38.07159 l 0.63593,-4.63957 z M 886.39612,699.0076 886.5,692.0152 912.25,692.0076 938,692 v 7 7 H 912.14612 886.29225 Z M 945,699 v -7 h 27 27 v 5.41821 c 0,2.98002 0.27314,6.13002 0.60699,7 0.54451,1.41885 -2.23688,1.58179 -27,1.58179 H 945 Z M 507.01365,677.25 C 507.0359,664.62342 506.72532,665 517.11663,665 H 526 v 10 10 h -9.5 -9.5 l 0.0136,-7.75 z M 534,675 v -10 h 30 30 v 10 10 h -30 -30 z m 67,0.0389 v -10.03893 h 7.94098 c 4.36754,0 8.15053,0.33904 8.40663,0.75343 0.25611,0.41438 0.60663,4.80188 0.77895,9.75 l 0.3133,8.99657 -8.71993,0.28893 L 601,685.07784 Z M 887,675 v -10 h 9.5 9.5 v 10 10 h -9.5 -9.5 z m 27,0 v -10.02933 l 30.08728,0.26467 30.08729,0.26466 v 9.5 9.5 L 944.08728,684.76466 914,685.02933 Z m 68,-0.0421 v -10.04207 l 7.75,0.29207 7.75,0.29206 0.28621,9.75 0.28621,9.75 H 990.03621 982 Z M 670.35026,664.84638 c 0.35736,-5.0345 0.64974,-11.3345 0.64974,-14 V 646 h 14 14 v 14 14 H 684.35026 669.70051 Z M 710,660 v -14 h 44.5 44.5 v 14 14 H 754.5 710 Z m 99,0 v -14 h 12 12 v 14 14 h -12 -12 z m -300.64246,-8.14669 c 0.35335,-3.38068 0.64246,-7.65568 0.64246,-9.5 V 639 h 25 25 v 9.5 9.5 H 533.35754 507.71509 Z M 566,648.5 V 639 h 24.875 24.875 l 0.625,3.125 c 0.34375,1.71875 0.625,5.99375 0.625,9.5 V 658 H 591.5 566 Z m 322,4.63957 c 0,-2.67323 0.28617,-6.94823 0.63592,-9.5 L 889.27185,639 H 914.13592 939 v 9.5 9.5 H 913.5 888 Z M 947,648.5 V 639 h 24.8554 24.85539 l 0.6375,6.75 c 0.35062,3.7125 0.64069,7.9875 0.6446,9.5 L 998,658 H 972.5 947 Z M 672.344,626.25 c 0.35511,-5.3625 0.64798,-11.6625 0.65083,-14 L 673,608 h 37 37 v 14 14 h -37.65082 -37.65083 z m 85.65559,-4.5 -4e-4,-14.25 36.35403,0.27389 36.35403,0.2739 0.64038,8.2261 c 0.35221,4.52436 0.64308,10.81361 0.64638,13.97611 L 832,636 h -37 -37 z m -248.60658,8.66821 c 0.33385,-0.86998 0.60699,-5.36998 0.60699,-10 V 612 h 8 8 v 10 10 h -8.60699 c -7.4376,0 -8.52452,-0.21491 -8,-1.58179 z M 534,622 v -10 h 9.5 9.5 v 5 5 h 10.5 10.5 v -5 -5 h 8.5 8.5 v 10 10 H 562.5 534 Z m 65.66667,9.33333 C 599.3,630.96667 599,626.46667 599,621.33333 V 612 h 8 8 l 0.007,3.25 c 0.004,1.7875 0.29398,6.2875 0.6446,10 l 0.6375,6.75 h -7.97794 c -4.38786,0 -8.27794,-0.3 -8.6446,-0.66667 z m 289.69741,-3.9729 c 0.34975,-2.55177 0.63592,-7.05177 0.63592,-10 V 612 l 8.25,-0.002 8.25,-0.002 -0.31641,10.00218 -0.31642,10.00218 h -8.56951 -8.56951 l 0.63593,-4.63957 z M 914,622 v -10 h 10 10 v 5.03621 5.03621 l 9.75,-0.28621 9.75,-0.28621 0.30479,-4.75 0.30479,-4.75 H 963.05479 972 v 10 10 h -29 -29 z m 65,0 v -10 h 8.5 8.5 l 0.0136,7.75 c 0.008,4.2625 0.285,8.7625 0.61664,10 0.59303,2.21289 0.45262,2.25 -8.51366,2.25 H 979 Z M 511,596.5 V 588 h 21 21 v 8.5 8.5 h -21 -21 z m 63,0 V 588 h 20 20 v 8.5 8.5 h -20 -20 z m 317,0 V 588 h 21.5 21.5 v 8.5 8.5 H 912.5 891 Z m 63,0 V 588 h 19.89301 C 996.68277,588 995,587.19622 995,598.08179 V 605 H 974.5 954 Z M 673.35326,589.34912 C 673.70897,585.14114 674,578.64186 674,574.90628 v -6.79197 l 12.50182,-0.30716 12.50182,-0.30715 -0.002,14.75 L 699,597 H 685.85326 672.70653 Z M 710,582.5 V 568 h 14 14 v 7.02605 7.02604 l 15.25,-0.27604 15.25,-0.27605 0.29569,-6.75 0.29569,-6.75 h 12.40293 12.40293 l 0.30138,14.50156 0.30138,14.50155 -42.25,-0.002 L 710,597 Z m 95,0 V 568 h 11.85178 11.85179 l 0.64222,8.25 c 0.35322,4.5375 0.64492,11.0625 0.64822,14.5 L 830,597 H 817.5 805 Z m -293.47977,-3.46726 c -0.32879,-0.532 -0.30199,-3.19716 0.0596,-5.92259 l 0.65734,-4.95533 6.88369,-0.32741 6.8837,-0.32741 -0.002,6.25 -0.002,6.25 h -6.94098 c -3.81754,0 -7.21,-0.43527 -7.53879,-0.96726 z M 534,574.02954 v -5.97047 l 29.00059,-0.27953 29.00059,-0.27954 -5.9e-4,6.25 L 592,580 h -9 -9 v -4 -4 H 563.5 553 v 4 4 h -9.5 -9.5 z m 66,0.0162 v -6.04569 l 6.75,-6.7e-4 6.75,-6.8e-4 -0.13315,5.75068 -0.13315,5.75067 -6.61685,0.29569 L 600,580.09143 Z m 292.2001,0.20431 0.2999,-5.75 6.75,-0.29569 6.75,-0.29569 v 6.04569 6.04569 h -7.0499 -7.04991 z M 914,574 v -6 h 29.5 29.5 v 6 6 h -9.5 -9.5 v -4 -4 h -10 -10 v 4 4 h -10 -10 z m 66,0.0853 v -5.91468 l 6.41206,-0.33532 6.41206,-0.33533 0.57694,3.5 c 0.31731,1.925 0.58188,4.7375 0.58793,6.25 0.011,2.73914 -0.0166,2.75 -6.98899,2.75 h -7 z M 496,558 c 0,-0.65664 22.83333,-1 66.5,-1 43.66667,0 66.5,0.34336 66.5,1 0,0.65664 -22.83333,1 -66.5,1 -43.66667,0 -66.5,-0.34336 -66.5,-1 z m 381,0 c 0,-0.65657 22.66667,-1 66,-1 43.33333,0 66,0.34343 66,1 0,0.65657 -22.66667,1 -66,1 -43.33333,0 -66,-0.34343 -66,-1 z M 675.35326,550.34912 C 675.70897,546.14114 676,540.51614 676,537.84912 V 533 h 31 31 V 545.5 558 H 706.35326 674.70653 Z M 769,545.5 V 533 h 29.35326 29.35327 l 0.64673,7.65088 c 0.35571,4.20798 0.64674,9.83298 0.64674,12.5 V 558 h -30 -30 z m -280,-1 V 541 h 73.5 73.5 v 3.5 3.5 H 562.5 489 Z m 381,0 V 541 h 73 73 v 3.5 3.5 H 943 870 Z M 489,526.96725 v -7.03275 l 11.25,0.28275 11.25,0.28275 0.29569,6.75 0.29569,6.75 H 500.54569 489 Z m 69,-0.001 v -7.03383 l 10.75,0.28383 10.75,0.28383 0.29569,6.75 0.29569,6.75 H 569.04569 558 Z m 55.20431,0.28383 0.29569,-6.75 11.25,-0.28275 11.25,-0.28275 v 7.03275 7.03275 H 624.45431 612.90862 Z M 870,527 v -7 h 11 11 v 7 7 h -11 -11 z m 68,0 v -7 h 10.3 c 6.67778,0 10.72201,0.42201 11.5,1.2 0.66,0.66 1.2,3.81 1.2,7 V 534 H 949.5 938 Z m 56.20431,0.25 0.29569,-6.75 10.75,-0.28383 10.75,-0.28383 V 526.96617 534 h -11.0457 -11.04568 z M 677,518.14669 c 0,-2.11932 0.28911,-6.61932 0.64246,-10 L 678.28491,502 H 688.64246 699 v 10 10 H 688 677 Z M 710,512 v -10 h 43 43 v 10 10 l -13.75,0.002 -13.75,0.002 v -6.25183 -6.25182 h -15 -15 l -0.29772,6.25 -0.29771,6.25 H 723.95228 710 v -10 z m 97,0 v -10 h 9.38337 c 10.96527,0 10.58061,-0.44441 10.60298,12.25 L 827,522 H 817 807 Z M 654,489 c 0,-0.65986 33.33333,-1 98,-1 64.66667,0 98,0.34014 98,1 0,0.65986 -33.33333,1 -98,1 -64.66667,0 -98,-0.34014 -98,-1 z m -9,-19 v -5 h 107 107 v 5 5 H 752 645 Z m -10e-4,-26.25 -10e-4,-10.25 16.50134,0.29665 16.50133,0.29664 V 444.04665 454 h -16.5 -16.5 l -10e-4,-10.25 z M 745,444.04665 v -9.95336 l 16.50133,-0.29664 16.50134,-0.29665 -10e-4,10.25 L 778,454 H 761.5 745 Z m 81,-0.0714 v -10.02477 l 16.25,0.27477 16.25,0.27477 0.28621,9.75 0.28621,9.75 H 842.53621 826 Z"
         id="path16" />
    </g>
  </g>
</svg>
