<?xml version="1.0" encoding="UTF-8" standalone="no"?>
<svg
   xmlns:dc="http://purl.org/dc/elements/1.1/"
   xmlns:cc="http://creativecommons.org/ns#"
   xmlns:rdf="http://www.w3.org/1999/02/22-rdf-syntax-ns#"
   xmlns:svg="http://www.w3.org/2000/svg"
   xmlns="http://www.w3.org/2000/svg"
   xmlns:sodipodi="http://sodipodi.sourceforge.net/DTD/sodipodi-0.dtd"
   xmlns:inkscape="http://www.inkscape.org/namespaces/inkscape"
   version="1.1"
   id="svg2"
   width="1043.8724"
   height="1045.646"
   viewBox="0 0 1043.8724 1045.646"
   sodipodi:docname="Kolrand.svg"
   inkscape:version="1.0.1 (3bc2e813f5, 2020-09-07)">
  <metadata
     id="metadata8">
    <rdf:RDF>
      <cc:Work
         rdf:about="">
        <dc:format>image/svg+xml</dc:format>
        <dc:type
           rdf:resource="http://purl.org/dc/dcmitype/StillImage" />
        <dc:title></dc:title>
      </cc:Work>
    </rdf:RDF>
  </metadata>
  <defs
     id="defs6" />
  <sodipodi:namedview
     pagecolor="#ffffff"
     bordercolor="#666666"
     borderopacity="1"
     objecttolerance="10"
     gridtolerance="10"
     guidetolerance="10"
     inkscape:pageopacity="0"
     inkscape:pageshadow="2"
     inkscape:window-width="1920"
     inkscape:window-height="1057"
     id="namedview4"
     showgrid="false"
     inkscape:pagecheckerboard="true"
     inkscape:zoom="0.49"
     inkscape:cx="767.25496"
     inkscape:cy="533.30337"
     inkscape:window-x="-8"
     inkscape:window-y="-8"
     inkscape:window-maximized="1"
     inkscape:current-layer="g10" />
  <g
     inkscape:groupmode="layer"
     inkscape:label="Image"
     id="g10"
     transform="translate(-230.232,-238.12203)">
    <g
       id="g14">
      <path
         style="fill:#efb939"
         d="m 732.25,1283.3107 c 0.9625,-0.2516 2.5375,-0.2516 3.5,0 0.9625,0.2515 0.175,0.4573 -1.75,0.4573 -1.925,0 -2.7125,-0.2058 -1.75,-0.4573 z m 38,0 c 0.9625,-0.2516 2.5375,-0.2516 3.5,0 0.9625,0.2515 0.175,0.4573 -1.75,0.4573 -1.925,0 -2.7125,-0.2058 -1.75,-0.4573 z m -55.4375,-0.9938 c 0.72187,-0.2889 1.58438,-0.2534 1.91667,0.079 0.33229,0.3323 -0.25834,0.5687 -1.3125,0.5253 -1.16495,-0.048 -1.4019,-0.285 -0.60417,-0.6042 z m 75,0 c 0.72187,-0.2889 1.58438,-0.2534 1.91667,0.079 0.33229,0.3323 -0.25834,0.5687 -1.3125,0.5253 -1.16495,-0.048 -1.4019,-0.285 -0.60417,-0.6042 z M 729,1167.4441 c -52.26312,-4.7644 -97.02855,-16.1893 -143.08748,-36.5183 C 537.25573,1109.4502 484.40996,1070.1718 448.7798,1029 412.89937,987.53896 389.16043,947.69354 371.60072,899.45616 357.39054,860.4201 350.17613,826.53852 346.32462,780.75 c -1.54837,-18.40771 -1.54837,-21.09229 0,-39.5 4.66649,-55.47729 15.66146,-99.55865 36.74956,-147.33748 C 404.54979,545.25573 443.82815,492.40996 485,456.7798 c 41.46104,-35.88043 81.30646,-59.61937 129.54384,-77.17908 39.03606,-14.21018 72.91764,-21.42459 118.70616,-25.2761 18.40771,-1.54837 21.09229,-1.54837 39.5,0 45.78852,3.85151 79.6701,11.06592 118.70616,25.2761 48.23738,17.55971 88.0828,41.29865 129.54384,77.17908 41.1718,35.63016 80.4502,88.47593 101.9258,137.13272 16.3777,37.10643 26.5954,72.16877 33.272,114.17322 2.099,13.20494 2.2912,17.64431 2.2912,52.91426 0,35.26995 -0.1922,39.70932 -2.2912,52.91426 -6.6766,42.00445 -16.8943,77.06679 -33.272,114.17322 -14.616,33.11528 -37.6549,68.49902 -65.7056,100.91252 -35.6302,41.1718 -88.47593,80.4502 -137.13272,101.9258 -46.83542,20.6717 -91.02928,31.8399 -144.74623,36.5785 -19.69898,1.7378 -26.71842,1.7286 -46.34125,-0.06 z m 108.5,-57.026 c 9.99076,-1.7197 14.5,-6.7744 14.5,-16.2541 0,-7.0479 1.31078,-9.7978 7.55149,-15.8423 6.23465,-6.0386 6.44055,-7.0956 4.05597,-20.8217 -3.60399,-20.7453 -2.58707,-32.8748 3.95537,-47.1785 2.90196,-6.3445 3.68437,-9.4384 4.1432,-16.38343 C 872.37907,983.75056 871.37558,981 866.98582,981 c -4.77352,0 -15.51142,-3.98458 -19.41985,-7.20624 -3.99286,-3.29125 -7.57024,-9.44609 -7.55827,-13.00392 0.005,-1.60013 1.15258,-2.94338 3.80868,-4.45959 7.1311,-4.07072 14.0861,-10.29628 17.94937,-16.06687 6.79894,-10.15559 8.92414,-18.36644 9.86723,-38.12271 C 872.00425,894.3633 872.68113,888 873.13716,888 c 0.45603,0 1.9368,2.18585 3.2906,4.85744 3.17872,6.2729 7.03428,10.81301 10.86483,12.79386 8.99976,4.65396 23.51245,-1.41994 28.62449,-11.98001 4.68068,-9.669 3.37823,-23.33119 -3.56527,-37.39809 C 908.18308,847.82772 901.36117,840 898.16962,840 c -2.12506,0 -2.18281,0.29826 -1.93011,9.9689 0.23498,8.99272 0.0545,10.17518 -1.84276,12.07547 -1.24547,1.24744 -3.8964,2.31311 -6.5,2.61299 -2.41821,0.27853 -6.53979,1.23546 -9.15906,2.1265 -4.16297,1.41619 -4.94444,1.43735 -6.20941,0.16811 -0.79591,-0.79858 -4.99732,-9.32697 -9.33648,-18.95197 -4.33916,-9.625 -13.30495,-28.3 -19.92399,-41.5 -16.9923,-33.88685 -19.14165,-41.16056 -19.946,-67.5 -0.8404,-27.51959 1.85065,-43.45245 15.24746,-90.27549 4.05613,-14.17653 7.83737,-29.46472 8.40275,-33.97377 2.23079,-17.7909 0.63072,-59.71608 -3.46108,-90.68716 C 842.67992,517.77355 842,512.12645 842,511.51447 c 0,-0.61198 1.56138,-1.67729 3.46972,-2.36736 C 848.6524,507.99624 853,503.8352 853,501.93996 c 0,-0.43467 -2.84476,-0.77391 -6.32169,-0.75385 -7.86963,0.0454 -10.87715,-1.41737 -27.62494,-13.43597 -15.15546,-10.87592 -16.25397,-11.4354 -19.52578,-9.94466 -3.18435,1.45088 -4.10872,5.30212 -2.79382,11.63993 0.57677,2.78002 0.88522,5.2295 0.68543,5.44328 -0.88466,0.94662 -2.75902,-5.94229 -3.19053,-11.72633 -0.49768,-6.67089 0.72482,-10.53192 3.86716,-12.21365 2.05227,-1.09834 9.56247,3.56043 21.79204,13.51817 8.70044,7.08419 17.94831,13.53312 19.40671,13.53312 0.46211,0 0.56201,-0.8765 0.222,-1.94777 -0.51827,-1.6329 0.0771,-2.12392 3.68261,-3.03737 23.74473,-6.01562 37.31204,-16.58341 43.38671,-33.79459 1.81966,-5.15559 2.35559,-8.69932 2.30179,-15.22027 l -0.0701,-8.5 -1.7454,5.5 c -2.32548,7.32795 -5.40295,13.16821 -9.24422,17.54318 -3.95844,4.50841 -14.42648,9.79322 -22.44562,11.33171 -14.98855,2.87558 -37.01142,-4.0473 -42.50733,-13.36218 l -2.05876,-3.48933 -4.15812,2.40554 c -2.28697,1.32304 -9.19189,5.3172 -15.34427,8.8759 -8.33807,4.82296 -11.32229,6.11558 -11.72086,5.07692 -0.59492,-1.55036 1.76509,-3.17639 16.63517,-11.46152 5.35049,-2.98112 9.73799,-5.75772 9.75,-6.17022 0.0463,-1.58972 -15.13886,-0.69979 -22.49496,1.31833 -6.24357,1.71289 -8.1324,1.87252 -10.99161,0.9289 -1.89887,-0.62669 -3.85027,-0.89359 -4.33645,-0.59311 -1.64109,1.01425 -15.619,-6.93922 -20.43124,-11.62544 -6.79697,-6.61896 -9.70557,-13.56474 -10.47205,-25.00738 l -0.62103,-9.2713 -2.38827,7.5 c -1.57781,4.95487 -2.35958,9.70578 -2.30372,14 0.0732,5.63093 0.56533,10.5 1.06117,10.5 0.0842,0 0.30055,0.76554 0.48087,1.70121 0.47592,2.46959 5.15206,12.46157 6.69853,14.31342 0.72633,0.86976 2.00913,2.34728 2.85066,3.28338 4.55573,5.06767 4.55519,5.00918 0.0818,8.83824 -4.80109,4.10955 -7.28924,8.55243 -9.16422,16.36375 -2.79713,11.65309 -7.59534,18.7582 -23.10306,34.21068 -6.4639,6.44087 -12.37764,12.96587 -13.14163,14.5 -2.35791,4.73475 -4.21689,19.91182 -2.99819,24.47771 0.75484,2.828 0.74663,4.80479 -0.0285,6.8583 -0.94383,2.50048 -0.77658,3.21764 1.2546,5.37974 3.0329,3.22837 2.52676,6.56884 -2.837,18.72373 l -4.0284,9.12881 4.54783,5.05828 C 698.89009,608.20631 702,613.83181 702,617.50791 702,619.93046 697.84552,625 695.86025,625 694.94128,625 689,632.82839 689,634.03925 c 0,0.92352 25.30034,17.99375 55.5,37.44604 12.65,8.14815 23.45,15.24565 24,15.7722 2.96521,2.83884 -37.92458,-19.68674 -59.97732,-33.04061 -16.65555,-10.08565 -26.04074,-16.58954 -29.6994,-20.58154 -2.39737,-2.6158 -3.28738,-2.91194 -8.52797,-2.83764 -7.43745,0.10546 -9.01744,0.73991 -19.03964,7.6454 -15.64367,10.7788 -16.80599,12.65068 -13.63464,21.95808 2.29236,6.72771 1.39446,11.22564 -3.52766,17.67136 -5.34719,7.00239 -17.40513,31.019 -20.49294,40.81718 -1.31908,4.18565 -2.71419,10.58221 -3.10027,14.21457 -0.83551,7.86095 -0.92438,7.79103 10.99984,8.65414 6.71249,0.48588 7.51719,0.71912 5,1.44925 -1.65,0.4786 -6.18947,0.59612 -10.08771,0.26114 l -7.08772,-0.60904 -1.16228,13.87235 C 606.49491,776.63294 606.51692,777 609.37788,777 c 8.68657,0 30.43524,-15.85761 35.14295,-25.62378 1.02768,-2.13192 2.06088,-6.72882 2.29601,-10.21534 0.35068,-5.19995 0.0699,-6.8228 -1.56246,-9.03068 -4.99394,-6.75467 -6.58899,-11.41333 -6.55469,-19.14428 0.0283,-6.38428 0.50172,-8.44194 3.14846,-13.6851 3.59007,-7.1119 8.40388,-11.25668 13.93534,-11.99861 4.60337,-0.61744 4.81019,-0.44053 14.28097,12.21521 4.13845,5.53019 16.32416,18.47668 30.65242,32.56614 25.71136,25.28283 21.28618,22.54231 -10.71688,-6.63696 -10.725,-9.77868 -22.18748,-20.01829 -25.47218,-22.7547 -13.45992,-11.21316 -17.68598,-9.08136 -11.96428,6.03527 1.40995,3.72506 3.65954,13.41608 4.9991,21.53561 9.19927,55.76032 22.39387,90.08272 45.45406,118.23722 3.15338,3.85 10.7565,12.4 16.89582,19 12.32418,13.24896 19.63813,23.16573 23.46118,31.81033 1.38393,3.12932 2.37997,5.68967 2.21341,5.68967 -0.16656,0 -1.94725,-2.66415 -3.95708,-5.92034 -4.85987,-7.87362 -14.44322,-17.22333 -21.25281,-20.73468 l -5.51728,-2.84498 -9.20403,9.53388 c -10.18013,10.54495 -15.72916,20.01792 -17.81763,30.41721 -1.57506,7.8428 -0.0102,20.94048 5.80047,48.54891 6.06407,28.81244 7.35827,36.4319 7.35988,43.3305 10e-4,5.0051 -0.49929,6.5848 -3.53493,11.1582 -4.30009,6.4784 -21.79623,23.5104 -30.56518,29.7544 -3.51918,2.5059 -10.96699,6.8646 -16.55069,9.6862 -13.11575,6.6276 -13.58434,7.1997 -9.4173,11.499 1.78389,1.8405 5.00888,4.1425 7.16665,5.1155 2.15776,0.973 3.75177,1.9406 3.54224,2.1501 -0.6832,0.6832 -6.03509,-2.0135 -10.93642,-5.5106 -2.63835,-1.8824 -4.91007,-3.2563 -5.04827,-3.053 -0.13819,0.2033 -2.08308,2.6197 -4.32197,5.3697 -6.85951,8.4254 -12.33276,16.7342 -12.33276,18.722 0,4.7509 20.07367,8.9026 33.43556,6.9152 13.47512,-2.0042 18.47224,-5.9083 20.45374,-15.98 0.7287,-3.704 2.08886,-6.9206 3.62915,-8.5826 3.04989,-3.2909 11.95927,-7.5352 15.98155,-7.6134 2.41103,-0.047 3.88346,-1.1605 7.5,-5.6724 7.64764,-9.541 37.17253,-38.6466 43.49175,-42.8741 10.11491,-6.7668 10.56242,-7.927 10.42741,-27.03417 -0.1102,-15.59552 -0.005,-16.51355 2.52964,-22.04966 3.10532,-6.78291 5.19055,-9.33087 7.63633,-9.33087 1.60013,0 1.47801,-0.81345 -1.23853,-8.25 -5.47299,-14.9823 -7.90798,-25.66608 -8.54007,-37.47044 -0.49517,-9.2473 -0.29732,-12.01515 1.12508,-15.73965 0.94925,-2.48558 2.02797,-4.70568 2.39715,-4.93356 0.36918,-0.22788 0.71905,4.82996 0.77748,11.23966 0.0584,6.40969 0.83033,15.72632 1.71534,20.70361 4.35958,24.5183 15.46291,52.30994 24.06776,60.24161 4.53983,4.18467 25.3303,15.04177 43.61066,22.77407 6.325,2.6754 11.651,4.9562 11.83556,5.0685 0.56448,0.3432 -5.7957,43.9523 -7.90618,54.2094 -1.81478,8.82 -2.33987,10.0001 -6.20595,13.9468 l -4.22343,4.3116 2.5,1.9255 c 1.375,1.0591 4.3,2.5757 6.5,3.3703 2.2,0.7946 3.27591,1.4802 2.39092,1.5237 -0.88499,0.043 -4.15156,-1.2036 -7.25905,-2.771 l -5.64997,-2.8499 -5.37396,7.0999 c -6.04442,7.9857 -7.93526,11.2613 -7.19347,12.4615 1.23918,2.0051 19.51857,5.3487 24.58553,4.4971 0.825,-0.1386 3.3,-0.5619 5.5,-0.9406 z m 51.92152,-212.89534 c -2.73415,-1.36248 -6.76,-4.3793 -8.94635,-6.70405 L 876.5,886.5919 l 4.20494,3.66074 c 5.98965,5.21447 11.88703,7.96736 18.79506,8.77352 l 6,0.70019 -5.55366,0.13683 c -4.10573,0.10115 -6.84971,-0.50904 -10.52482,-2.34042 z m 16.66181,1.17458 c 0.22917,-0.16646 1.76667,-1.09317 3.41667,-2.05935 l 3,-1.75669 -2.36078,2.05935 C 908.84078,898.07329 907.30328,899 906.72255,899 c -0.58074,0 -0.86838,-0.1362 -0.63922,-0.30266 z m -18.55917,-9.29364 c -2.18671,-0.80046 -4.43671,-1.91722 -5,-2.4817 -0.56329,-0.56448 0.77584,-0.27021 2.97584,0.65393 6.20159,2.60505 16.14308,2.43049 20.87603,-0.36657 2.13182,-1.25984 4.06751,-2.09915 4.30154,-1.86512 0.23403,0.23402 -1.93604,1.60231 -4.82238,3.04063 -5.96768,2.97382 -12.06461,3.31269 -18.33103,1.01883 z M 885.5,880.09347 c -1.90023,-0.42433 -0.0476,-0.68001 5.05375,-0.69748 9.31644,-0.0319 16.50215,-2.78255 18.92605,-7.2448 0.79207,-1.45815 1.45814,-2.05407 1.48016,-1.32427 0.0762,2.52398 -5.6519,7.00412 -10.97694,8.58548 -5.54509,1.64672 -9.35604,1.82593 -14.48302,0.68107 z m -1,-6.10429 c 7.67557,-0.94304 10.30813,-2.05756 13.95625,-5.90854 2.04621,-2.15999 3.15947,-4.57671 3.61639,-7.85064 l 0.66013,-4.73 0.13362,4.10212 c 0.27956,8.58308 -8.17762,15.40564 -18.86639,15.21984 l -5.5,-0.0956 6,-0.73717 z M 725.87244,756.25 c -1.24387,-1.58606 -1.2085,-1.62143 0.37756,-0.37756 1.66575,1.30637 2.19548,2.12756 1.37244,2.12756 -0.20765,0 -0.99515,-0.7875 -1.75,-1.75 z M 703.25,606.99773 c -3.53773,-9.05292 -4.22656,-11.93329 -4.11013,-17.18667 l 0.13987,-6.31106 0.73941,7.5 c 0.50006,5.07219 1.9298,10.35839 4.41675,16.33016 2.02253,4.85659 3.53935,9.21558 3.37071,9.68666 -0.16863,0.47108 -2.21911,-4.03751 -4.55661,-10.01909 z m 7.52192,3.3428 C 709.85467,607.67824 708.19544,603.025 707.08474,600 c -1.26856,-3.45495 -1.9811,-7.73096 -1.91631,-11.5 l 0.10313,-6 0.76701,7 c 0.42185,3.85 2.17507,10.78204 3.89604,15.40453 1.72097,4.62249 2.98864,8.82573 2.81704,9.34053 -0.1716,0.5148 -1.06248,-1.24224 -1.97973,-3.90453 z m 6.34408,2.2629 c -0.0638,-1.04312 -1.466,-6.111 -3.116,-11.26196 -2.05606,-6.41859 -2.95728,-11.17085 -2.86422,-15.10343 l 0.13578,-5.73804 0.75469,7.16769 c 0.41507,3.94223 1.96342,10.7972 3.44076,15.23326 1.47735,4.43607 2.47884,8.86061 2.22554,9.83231 -0.41295,1.58415 -0.47254,1.57073 -0.57655,-0.12983 z m 5.04404,-1.6772 C 722.07202,608.96065 720.875,603.59385 719.5,599 c -1.62906,-5.44266 -2.44891,-10.4684 -2.35335,-14.42623 l 0.14665,-6.07377 0.68879,7 c 0.37884,3.85 1.69031,10.50157 2.91438,14.78127 1.22407,4.2797 2.04514,9.2297 1.82459,11 L 722.32007,614.5 Z M 727.25218,606.5 c 0.0111,-2.2 0.21589,-2.98225 0.45508,-1.73834 0.23919,1.24391 0.23011,3.04391 -0.0202,4 -0.25029,0.95609 -0.446,-0.0617 -0.4349,-2.26166 z m 4.87213,-2.5 c -0.0814,-1.925 -0.81237,-5.975 -1.62431,-9 -0.81194,-3.025 -1.40049,-8.65 -1.30788,-12.5 0.13314,-5.53512 0.23445,-5.95366 0.48412,-2 0.17366,2.75 1.03373,8.86209 1.91126,13.58243 0.87754,4.72034 1.39062,9.67034 1.14019,11 -0.34489,1.83119 -0.49124,1.56865 -0.60338,-1.08243 z m 4.50187,-5.5 c -1.43824,-12.6168 -1.76714,-23.08217 -0.8014,-25.5 0.76353,-1.9116 0.86648,-1.12484 0.4374,3.34285 -0.30863,3.21357 0.0189,10.22527 0.72782,15.58156 0.70893,5.35629 1.07098,10.377 0.80455,11.15715 -0.26642,0.78014 -0.79219,-1.28156 -1.16837,-4.58156 z m -11.99555,-2.91948 c -1.71934,-6.8447 -2.14883,-17.21602 -0.80087,-19.3393 0.43952,-0.69233 0.60482,1.42748 0.36734,4.7107 -0.26784,3.70283 0.22763,8.66034 1.30487,13.05613 0.95517,3.89765 1.51676,7.30655 1.24798,7.57534 -0.26878,0.26878 -1.22248,-2.43251 -2.11932,-6.00287 z m 15.97161,-14.7617 c -0.86491,-5.00664 0.99602,-12.68975 3.9771,-16.42 1.09866,-1.37475 1.03614,-0.93283 -0.2265,1.60118 -0.96774,1.94216 -2.01057,7.06078 -2.34294,11.5 -0.5951,7.94837 -0.60418,7.96979 -1.40766,3.31882 z m 8.52919,-4.0196 c -0.20801,-9.02251 1.61225,-15.56078 5.48072,-19.68644 l 3.38756,-3.61278 -3.59636,7.89333 c -2.23434,4.90396 -3.88875,10.3954 -4.36843,14.5 L 749.26285,582.5 Z m 62.78172,-4.99788 c 5.05014,-7.51094 7.3273,-15.18742 6.76379,-22.80134 -0.40722,-5.50207 -0.32748,-5.96266 0.51937,-3 1.63685,5.72642 0.46981,13.27716 -3.15627,20.42111 -1.81637,3.57853 -4.19881,7.31023 -5.29431,8.29266 -1.19778,1.07414 -0.73239,-0.0869 1.16742,-2.91243 z M 766.116,563.58333 c -0.0638,-6.00416 -0.41132,-10.62134 -0.77227,-10.26039 -0.36095,0.36095 -2.13447,4.82345 -3.94115,9.91667 l -3.28487,9.26039 -0.0589,-7.84879 c -0.0555,-7.40539 0.1049,-8.00175 2.83973,-10.55647 1.59422,-1.48922 4.85672,-3.34365 7.25,-4.12095 2.39328,-0.7773 4.94606,-1.98939 5.67285,-2.69353 0.72678,-0.70414 2.47839,-1.28026 3.89245,-1.28026 2.53939,0 2.56295,0.0708 1.91461,5.75 -0.36103,3.1625 -1.51807,8.675 -2.57121,12.25 l -1.9148,6.5 -0.18955,-7 c -0.21387,-7.89777 -1.19443,-13.49617 -2.1018,-12 -0.54511,0.89884 -4.96583,16.00233 -6.1466,21 -0.25989,1.1 -0.52473,-2.9125 -0.58853,-8.91667 z M 806.03063,570.5 c 0,-0.55 0.43621,-1.675 0.96937,-2.5 0.53316,-0.825 0.96937,-1.05 0.96937,-0.5 0,0.55 -0.43621,1.675 -0.96937,2.5 -0.53316,0.825 -0.96937,1.05 -0.96937,0.5 z m -13.55695,-11.26802 c 0,-6.76248 -0.42887,-8.72414 -3.07415,-14.06117 -2.87942,-5.80944 -2.94193,-6.16305 -0.98684,-5.58244 5.78845,1.71902 6.58848,3.02048 6.56802,10.68468 -0.0106,3.97482 -0.57903,9.38489 -1.26316,12.02237 l -1.24387,4.79543 z m -8.72756,0.0498 c -0.34344,-3.97003 -1.55261,-9.31653 -2.68705,-11.88113 l -2.06262,-4.66289 3.62568,0.58837 c 1.99412,0.3236 3.90742,0.87177 4.25177,1.21816 1.02946,1.03555 0.2484,12.62086 -1.17683,17.45573 l -1.32652,4.5 z M 808.76031,564 c 0.40683,-1.375 0.72185,-6.1 0.70005,-10.5 -0.0417,-8.41268 -1.99418,-13.96651 -6.82321,-19.40836 l -2.13715,-2.40836 3.34999,2.40836 c 5.35069,3.84669 7.55978,9.12509 7.49493,17.90836 -0.035,4.74091 -0.65666,8.78758 -1.68984,11 -0.89896,1.925 -1.30161,2.375 -0.89477,1 z M 698.75,563.31067 c -0.9625,-0.25152 -1.75,-0.90088 -1.75,-1.44301 0,-0.55336 0.54826,-0.63086 1.25,-0.17668 0.6875,0.44496 4.4,1.07376 8.25,1.39733 l 7,0.5883 -6.5,0.0457 c -3.575,0.0251 -7.2875,-0.16011 -8.25,-0.41164 z M 801,556.78706 c 0,-6.56058 -0.43523,-8.41102 -3.33203,-14.16667 C 795.83536,538.97918 794.70326,536 795.1522,536 c 0.44893,0 2.18849,1.2375 3.86567,2.75 3.80351,3.43004 5.29309,10.98631 3.79479,19.25 -0.54846,3.025 -1.18068,5.6875 -1.40493,5.91667 C 801.18348,564.14583 801,560.93751 801,556.78706 Z m -89.41783,-4.74541 c 3.91287,-1.74172 5.53397,-4.03472 6.74574,-9.54165 0.28979,-1.31696 0.4797,-0.96605 0.55609,1.02749 0.14987,3.91158 -2.28798,7.32553 -6.48257,9.07814 -4.89875,2.04683 -5.60003,1.56406 -0.81926,-0.56398 z M 710.8,547.8 c 0.66,-0.66 1.22852,-2.7975 1.26339,-4.75 0.0586,-3.28219 0.13562,-3.36942 1.0209,-1.15638 0.70436,1.76077 0.54931,3.01663 -0.58644,4.75 -0.84917,1.29601 -1.84858,2.35638 -2.2209,2.35638 -0.37232,0 -0.13695,-0.54 0.52305,-1.2 z m 57.7,-35.84166 c -2.75,-0.45868 -6.28978,-1.21572 -7.86617,-1.68231 l -2.86618,-0.84834 6.0169,-3.71385 c 6.90119,-4.25965 8.46891,-4.46638 12.98584,-1.7124 2.953,1.80045 6.17623,6.43186 5.14205,7.38855 -1.0644,0.98463 -8.92068,1.31754 -13.41244,0.56835 z m -42.31214,-6.68168 c 1.82168,-2.59784 7.09752,-8.56034 11.72409,-13.25 6.10606,-6.18932 6.64173,-6.60781 1.95414,-1.52666 -3.5518,3.85 -8.60098,9.8125 -11.2204,13.25 -5.58313,7.32682 -7.25191,8.36336 -2.45783,1.52666 z m 21.42259,-0.95166 c 21.29668,-14.64657 25.20064,-16.47432 30.49986,-14.27931 3.07895,1.27535 9.88969,8.22544 9.88969,10.09205 0,0.62259 -0.94254,-0.0663 -2.09453,-1.53078 -2.9814,-3.79024 -9.43285,-6.86968 -12.82922,-6.12371 -1.51894,0.33362 -5.86998,2.43004 -9.66898,4.65872 -7.73212,4.53604 -17.9994,9.85803 -19.0183,9.85803 -0.36744,0 1.08223,-1.20375 3.22148,-2.675 z M 553.57221,683.5344 c 3.5025,-1.04013 6.36361,-2.91581 9.85558,-6.46108 4.54945,-4.61891 4.97928,-5.48485 5.70189,-11.48722 0.42985,-3.57046 1.66358,-8.2207 2.74164,-10.33387 2.57267,-5.04284 10.11722,-11.91727 15.87342,-14.46351 9.15955,-4.05171 22.69762,-0.74377 33.34937,8.14871 3.59748,3.0033 3.67913,3.49476 2.84429,17.11924 -0.27175,4.43493 0.12031,6.30225 1.94211,9.25 1.25544,2.03133 2.59961,3.69333 2.98705,3.69333 0.38744,0 2.1809,-1.9125 3.98546,-4.25 2.96808,-3.84464 3.24457,-4.77458 2.8989,-9.75 -0.21016,-3.025 -1.02345,-7.69282 -1.8073,-10.37294 l -1.42519,-4.87295 4.47043,-3.96716 C 643.42111,640.07971 658.79304,630 661.06553,630 c 3.80167,0 1.74902,-1.58915 -10.14864,-7.85701 -6.63678,-3.49636 -13.36814,-7.62904 -14.95857,-9.18374 -5.77953,-5.64966 -18.73097,-4.98927 -29.64218,1.51146 -3.40112,2.02633 -11.50112,5.46879 -18,7.6499 -6.49888,2.18111 -17.72195,6.8674 -24.94017,10.41397 -10.93984,5.37514 -14.64794,7.82275 -22.28069,14.70687 l -9.15667,8.25855 3.68156,3.23639 c 2.02486,1.78002 5.97618,4.14997 8.7807,5.26656 4.22643,1.68271 4.50012,1.92554 1.59913,1.41881 -1.925,-0.33624 -6.38532,-2.17521 -9.91182,-4.08658 l -6.41182,-3.47523 -9.83818,9.80126 c -5.411,5.3907 -9.83818,10.31578 -9.83818,10.94463 0,1.08067 10.58884,4.87037 16,5.72633 6.56864,1.03906 22.98654,0.56403 27.57221,-0.79777 z M 394.92431,1142.25 392.5,1139.5 l 2.75,2.4243 c 2.57029,2.2659 3.20859,3.0757 2.42431,3.0757 -0.17912,0 -1.41662,-1.2375 -2.75,-2.75 z M 1110,1142.5 c 1.2917,-1.375 2.5736,-2.5 2.8486,-2.5 0.275,0 -0.5569,1.125 -1.8486,2.5 -1.2917,1.375 -2.5736,2.5 -2.8486,2.5 -0.275,0 0.5569,-1.125 1.8486,-2.5 z m -739.07569,-24.25 -2.42431,-2.75 2.75,2.4243 c 2.57029,2.2659 3.20859,3.0757 2.42431,3.0757 -0.17912,0 -1.41662,-1.2375 -2.75,-2.75 z M 1134,1118.5 c 1.2917,-1.375 2.5736,-2.5 2.8486,-2.5 0.275,0 -0.5569,1.125 -1.8486,2.5 -1.2917,1.375 -2.5736,2.5 -2.8486,2.5 -0.275,0 0.5569,-1.125 1.8486,-2.5 z M 231.07895,798.41667 c 0.048,-1.16495 0.28494,-1.4019 0.60416,-0.60417 0.28887,0.72187 0.25335,1.58438 -0.0789,1.91667 -0.3323,0.33229 -0.56864,-0.25834 -0.52522,-1.3125 z M 230.232,780 c 0,-1.925 0.2058,-2.7125 0.45733,-1.75 0.25152,0.9625 0.25152,2.5375 0,3.5 -0.25153,0.9625 -0.45733,0.175 -0.45733,-1.75 z m 0,-38 c 0,-1.925 0.2058,-2.7125 0.45733,-1.75 0.25152,0.9625 0.25152,2.5375 0,3.5 -0.25153,0.9625 -0.45733,0.175 -0.45733,-1.75 z m 0.84695,-18.58333 c 0.048,-1.16495 0.28494,-1.4019 0.60416,-0.60417 0.28887,0.72187 0.25335,1.58438 -0.0789,1.91667 -0.3323,0.33229 -0.56864,-0.25834 -0.52522,-1.3125 z M 371,403.5 c 1.29175,-1.375 2.57363,-2.5 2.84863,-2.5 0.275,0 -0.55688,1.125 -1.84863,2.5 -1.29175,1.375 -2.57363,2.5 -2.84863,2.5 -0.275,0 0.55688,-1.125 1.84863,-2.5 z m 762.9243,-0.25 -2.4243,-2.75 2.75,2.42431 c 1.5125,1.33338 2.75,2.57088 2.75,2.75 0,0.78428 -0.8098,0.14598 -3.0757,-2.42431 z M 395,379.5 c 1.29175,-1.375 2.57363,-2.5 2.84863,-2.5 0.275,0 -0.55688,1.125 -1.84863,2.5 -1.29175,1.375 -2.57363,2.5 -2.84863,2.5 -0.275,0 0.55688,-1.125 1.84863,-2.5 z m 714.9243,-0.25 -2.4243,-2.75 2.75,2.42431 c 1.5125,1.33338 2.75,2.57088 2.75,2.75 0,0.78428 -0.8098,0.14598 -3.0757,-2.42431 z M 714.8125,239.31689 c 0.72187,-0.28887 1.58438,-0.25335 1.91667,0.0789 0.33229,0.33229 -0.25834,0.56864 -1.3125,0.52522 -1.16495,-0.048 -1.4019,-0.28494 -0.60417,-0.60416 z m 75,0 c 0.72187,-0.28887 1.58438,-0.25335 1.91667,0.0789 0.33229,0.33229 -0.25834,0.56864 -1.3125,0.52522 -1.16495,-0.048 -1.4019,-0.28494 -0.60417,-0.60416 z M 732.25,238.31067 c 0.9625,-0.25152 2.5375,-0.25152 3.5,0 0.9625,0.25153 0.175,0.45733 -1.75,0.45733 -1.925,0 -2.7125,-0.2058 -1.75,-0.45733 z m 38,0 c 0.9625,-0.25152 2.5375,-0.25152 3.5,0 0.9625,0.25153 0.175,0.45733 -1.75,0.45733 -1.925,0 -2.7125,-0.2058 -1.75,-0.45733 z"
         id="path20" />
      <path
         style="fill:#af0505"
         d="m 712.5,1257.4775 c -63.69566,-5.8501 -120.99519,-21.6749 -177,-48.8831 -23.01618,-11.1817 -36.09775,-18.6152 -56.5,-32.1058 C 421.80325,1138.6684 375.3316,1092.1968 337.51137,1035 324.02079,1014.5977 316.58726,1001.5162 305.40556,978.5 248.52787,861.42415 239.4053,728.73467 279.82145,606.37441 300.7723,542.94553 332.56252,486.70577 376.49417,435.35168 404.95432,402.08308 440.31713,371.08966 479,345.51137 c 20.40225,-13.49058 33.48382,-20.92411 56.5,-32.10581 117.07585,-56.87769 249.76533,-66.00026 372.12559,-25.58411 63.42888,20.95085 119.66861,52.74107 171.02271,96.67272 40.368,34.53345 79.2126,81.62984 106.4025,129.00583 26.5342,46.23346 47.8063,104.09186 57.4367,156.22268 6.0088,32.52683 6.5125,39.58669 6.5125,91.27732 0,51.69063 -0.5037,58.75049 -6.5125,91.27732 -9.6304,52.13082 -30.9025,109.98922 -57.4367,156.22268 -38.5415,67.1552 -92.8437,124.8717 -158.0508,167.9886 -20.4023,13.4906 -33.48382,20.9241 -56.5,32.1058 -56.69121,27.5417 -113.86829,43.2385 -178.15875,48.9099 -20.32231,1.7927 -60.17563,1.7793 -79.84125,-0.027 z m 73.84125,-19.9732 c 51.54219,-4.5468 97.62379,-15.3695 144.65875,-33.9744 47.0571,-18.6137 91.2429,-45.7338 133.6481,-82.0299 47.5347,-40.6867 91.1049,-97.2123 117.9328,-153 22.2994,-46.37068 37.2778,-97.22497 44.4354,-150.86637 C 1228.7256,804.8236 1229,796.98994 1229,761 c 0,-35.98994 -0.2744,-43.8236 -1.9837,-56.63363 -7.1576,-53.6414 -22.136,-104.49569 -44.4354,-150.86637 -26.8279,-55.7877 -70.3981,-112.31333 -117.9328,-153 C 1022.2429,364.20394 978.0571,337.08377 931,318.47009 883.96504,299.86516 837.88344,289.04249 786.34125,284.49569 710.61366,277.81537 620.429,295.38615 545.5,331.41905 489.7123,358.24702 433.18667,401.81715 392.5,449.35192 356.20394,491.75709 329.08377,535.9429 310.47009,583 c -18.60493,47.03496 -29.4276,93.11656 -33.9744,144.65875 -6.68032,75.72759 10.89046,165.91225 46.92336,240.84125 21.70165,45.1277 55.53698,92.4556 92.58119,129.4998 37.04421,37.0442 84.37204,70.8795 129.49976,92.5811 74.79901,35.9704 165.24503,53.5921 240.84125,46.9234 z M 725.5,1187.4775 c -48.12801,-4.4203 -89.29439,-14.0781 -132,-30.9678 C 534.08494,1133.0116 474.14889,1090.1733 432.09527,1041.1483 391.54628,993.87737 366.48319,949.98964 347.77734,893.5 331.50782,844.36781 322.88569,785.40686 325.83463,743.44846 329.47159,691.70067 339.36873,647.32051 357.49029,601.5 380.98836,542.08494 423.82668,482.14889 472.85168,440.09527 520.12263,399.54628 564.01036,374.48319 620.5,355.77734 c 49.13219,-16.26952 108.09314,-24.89165 150.05154,-21.94271 51.74779,3.63696 96.12795,13.5341 141.94846,31.65566 42.13794,16.66514 81.42389,40.95829 120.6483,74.60498 41.5611,35.65105 80.8489,86.97442 104.4172,136.40473 20.1175,42.19308 33.5961,88.79561 39.9009,137.95846 2.1512,16.77414 2.1512,76.30894 0,93.08308 -6.3048,49.16285 -19.7834,95.76538 -39.9009,137.95846 -23.5683,49.43031 -62.8561,100.7537 -104.4172,136.4047 -47.18077,40.4717 -91.26936,65.669 -147.34593,84.2106 -34.76556,11.4952 -66.43706,17.8583 -106.46112,21.389 -19.81444,1.7479 -34.59779,1.7406 -53.84125,-0.027 z m 49.84125,-19.9732 c 53.71695,-4.7386 97.91081,-15.9068 144.74623,-36.5785 48.65679,-21.4756 101.50252,-60.754 137.13272,-101.9258 28.0507,-32.4135 51.0896,-67.79724 65.7056,-100.91252 16.3777,-37.10643 26.5954,-72.16877 33.272,-114.17322 2.099,-13.20494 2.2912,-17.64431 2.2912,-52.91426 0,-35.26995 -0.1922,-39.70932 -2.2912,-52.91426 -6.6766,-42.00445 -16.8943,-77.06679 -33.272,-114.17322 C 1101.4502,545.25573 1062.1718,492.40996 1021,456.7798 979.53896,420.89937 939.69354,397.16043 891.45616,379.60072 852.4201,365.39054 818.53852,358.17613 772.75,354.32462 c -18.40771,-1.54837 -21.09229,-1.54837 -39.5,0 -45.78852,3.85151 -79.6701,11.06592 -118.70616,25.2761 -48.23738,17.55971 -88.0828,41.29865 -129.54384,77.17908 -41.17185,35.63016 -80.45021,88.47593 -101.92582,137.13272 -21.0881,47.77883 -32.08307,91.86019 -36.74956,147.33748 -1.54837,18.40771 -1.54837,21.09229 0,39.5 3.85151,45.78852 11.06592,79.6701 25.2761,118.70616 17.55971,48.23738 41.29865,88.0828 77.17908,129.54384 35.63016,41.1718 88.47593,80.4502 137.13272,101.9258 46.05893,20.329 90.82436,31.7539 143.08748,36.5183 19.62283,1.7888 26.64227,1.798 46.34125,0.06 z"
         id="path18" />
      <path
         style="fill:#000000"
         d="M 724.5,1282.8909 C 596.54369,1275.9601 474.35566,1221.3548 383.50043,1130.4996 325.84087,1072.84 283.27381,1003.9457 257.45727,926.5 c -36.16988,-108.5041 -36.16988,-222.4959 0,-331 C 304.94581,453.04166 410.8217,338.51277 549.5,279.58927 c 21.01854,-8.93064 55.44001,-20.34206 78.5,-26.02437 96.21111,-23.70775 195.95419,-19.62451 290.5,11.89237 77.44565,25.81654 146.34,68.3836 203.9996,126.04316 83.76,83.76002 136.1951,192.69624 149.9365,311.49957 2.2245,19.2327 2.2245,96.7673 0,116 -13.7414,118.80333 -66.1765,227.7396 -149.9365,311.4996 -104.939,104.9389 -249.83056,160.4169 -397.9996,152.3913 z m 67.84125,-25.3866 c 64.29046,-5.6714 121.46754,-21.3682 178.15875,-48.9099 23.01618,-11.1817 36.0977,-18.6152 56.5,-32.1058 65.2071,-43.1169 119.5093,-100.8334 158.0508,-167.9886 26.5342,-46.23346 47.8063,-104.09186 57.4367,-156.22268 C 1248.4963,819.75049 1249,812.69063 1249,761 c 0,-51.69063 -0.5037,-58.75049 -6.5125,-91.27732 -9.6304,-52.13082 -30.9025,-109.98922 -57.4367,-156.22268 -27.1899,-47.37599 -66.0345,-94.47238 -106.4025,-129.00583 -51.3541,-43.93165 -107.59383,-75.72187 -171.02271,-96.67272 -100.04996,-33.04695 -209.20122,-33.04695 -309.25118,0 -63.42888,20.95085 -119.66864,52.74107 -171.02273,96.67272 -33.2686,28.46015 -64.26202,63.82296 -89.84031,102.50583 -13.49058,20.40225 -20.92411,33.48382 -32.10581,56.5 -56.87769,117.07585 -66.00026,249.76533 -25.58411,372.12559 20.95085,63.42888 52.74107,119.66861 96.67272,171.02271 28.46015,33.2686 63.82296,64.262 102.50583,89.8403 20.40225,13.4906 33.48382,20.9241 56.5,32.1058 56.00481,27.2082 113.30434,43.033 177,48.8831 19.66562,1.8061 59.51894,1.8195 79.84125,0.027 z M 718.5,1237.4775 c -61.78296,-5.6745 -120.2224,-21.5161 -173,-46.8966 -55.7877,-26.8279 -112.31333,-70.3981 -153,-117.9328 C 356.20394,1030.2429 329.08377,986.0571 310.47009,939 291.86516,891.96504 281.04249,845.88344 276.49569,794.34125 269.81537,718.61366 287.38615,628.429 323.41905,553.5 345.1207,508.37228 378.95603,461.04445 416.00024,424.00024 453.04445,386.95603 500.37228,353.1207 545.5,331.41905 c 74.929,-36.0329 165.11366,-53.60368 240.84125,-46.92336 51.54219,4.5468 97.62379,15.36947 144.65875,33.9744 47.0571,18.61368 91.2429,45.73385 133.6481,82.02991 47.5347,40.68667 91.1049,97.2123 117.9328,153 22.2994,46.37068 37.2778,97.22497 44.4354,150.86637 C 1228.7256,717.1764 1229,725.01006 1229,761 c 0,35.98994 -0.2744,43.8236 -1.9837,56.63363 -7.1576,53.6414 -22.136,104.49569 -44.4354,150.86637 -26.8279,55.7877 -70.3981,112.3133 -117.9328,153 -50.808,43.4883 -101.71235,72.4275 -163.02251,92.6785 -59.74199,19.7331 -127.74642,28.3852 -183.12559,23.299 z m 60.84125,-49.9732 c 40.02406,-3.5307 71.69556,-9.8938 106.46112,-21.389 56.07657,-18.5416 100.16516,-43.7389 147.34593,-84.2106 41.5611,-35.651 80.8489,-86.97439 104.4172,-136.4047 20.1175,-42.19308 33.5961,-88.79561 39.9009,-137.95846 2.1512,-16.77414 2.1512,-76.30894 0,-93.08308 C 1171.1616,665.29561 1157.683,618.69308 1137.5655,576.5 1113.9972,527.06969 1074.7094,475.74632 1033.1483,440.09527 985.87737,399.54628 941.98964,374.48319 885.5,355.77734 836.36781,339.50782 777.40686,330.88569 735.44846,333.83463 683.70067,337.47159 639.32051,347.36873 593.5,365.49029 534.08494,388.98836 474.14889,431.82668 432.09527,480.85168 391.54628,528.12263 366.48319,572.01036 347.77734,628.5 c -16.26952,49.13219 -24.89165,108.09314 -21.94271,150.05154 3.63696,51.74779 13.5341,96.12795 31.65566,141.94846 16.66514,42.13794 40.95829,81.4239 74.60498,120.6483 35.65105,41.5611 86.97442,80.8489 136.40473,104.4172 33.92996,16.1777 75.52012,29.5395 111.5,35.8219 40.96972,7.1536 68.42517,8.8442 99.34125,6.1169 z M 825.5,1111.2927 c -5.72078,-0.3639 -17.32975,-3.2082 -18.08553,-4.4311 -0.74179,-1.2002 1.14905,-4.4758 7.19347,-12.4615 l 5.37396,-7.0999 5.64997,2.8499 c 3.10749,1.5674 6.37406,2.8144 7.25905,2.771 0.88499,-0.043 -0.19092,-0.7291 -2.39092,-1.5237 -2.2,-0.7946 -5.125,-2.3112 -6.5,-3.3703 l -2.5,-1.9255 4.22343,-4.3116 c 3.86608,-3.9467 4.39117,-5.1268 6.20595,-13.9468 2.11048,-10.2571 8.47066,-53.8662 7.90618,-54.2094 -0.18456,-0.1123 -5.51056,-2.3931 -11.83556,-5.0685 -18.28036,-7.7323 -39.07083,-18.5894 -43.61066,-22.77407 -8.60485,-7.93167 -19.70818,-35.72331 -24.06776,-60.24161 -0.88501,-4.97729 -1.65691,-14.29392 -1.71534,-20.70361 -0.0584,-6.4097 -0.4083,-11.46754 -0.77748,-11.23966 -0.36918,0.22788 -1.4479,2.44798 -2.39715,4.93356 -1.4224,3.7245 -1.62025,6.49235 -1.12508,15.73965 0.63209,11.80436 3.06708,22.48814 8.54007,37.47044 2.71654,7.43655 2.83866,8.25 1.23853,8.25 -2.44578,0 -4.53101,2.54796 -7.63633,9.33087 -2.53452,5.53611 -2.63984,6.45414 -2.52964,22.04966 0.13501,19.10717 -0.3125,20.26737 -10.42741,27.03417 -6.31922,4.2275 -35.84411,33.3331 -43.49175,42.8741 -3.61654,4.5119 -5.08897,5.6255 -7.5,5.6724 -4.02228,0.078 -12.93166,4.3225 -15.98155,7.6134 -1.54029,1.662 -2.90045,4.8786 -3.62915,8.5826 -1.9815,10.0717 -6.97862,13.9758 -20.45374,15.98 C 639.07367,1101.1246 619,1096.9729 619,1092.222 c 0,-1.9878 5.47325,-10.2966 12.33276,-18.722 2.23889,-2.75 4.18378,-5.1664 4.32197,-5.3697 0.1382,-0.2033 2.40992,1.1706 5.04827,3.053 4.90133,3.4971 10.25322,6.1938 10.93642,5.5106 0.20953,-0.2095 -1.38448,-1.1771 -3.54224,-2.1501 -2.15777,-0.973 -5.38276,-3.275 -7.16665,-5.1155 -4.16704,-4.2993 -3.69845,-4.8714 9.4173,-11.499 5.5837,-2.8216 13.03151,-7.1803 16.55069,-9.6862 8.76895,-6.244 26.26509,-23.276 30.56518,-29.7544 5.41781,-8.1622 5.16386,-11.7798 -3.82495,-54.4887 -5.81066,-27.60843 -7.37553,-40.70611 -5.80047,-48.54891 2.08847,-10.39929 7.6375,-19.87226 17.81763,-30.41721 l 9.20403,-9.53388 5.51728,2.84498 c 6.80959,3.51135 16.39294,12.86106 21.25281,20.73468 2.00983,3.25619 3.79052,5.92034 3.95708,5.92034 0.16656,0 -0.82948,-2.56035 -2.21341,-5.68967 -3.82305,-8.6446 -11.137,-18.56137 -23.46118,-31.81033 -6.13932,-6.6 -13.74244,-15.15 -16.89582,-19 -23.06019,-28.1545 -36.25479,-62.4769 -45.45406,-118.23722 -1.33956,-8.11953 -3.58915,-17.81055 -4.9991,-21.53561 -5.7217,-15.11663 -1.49564,-17.24843 11.96428,-6.03527 3.2847,2.73641 14.74718,12.97602 25.47218,22.7547 32.00306,29.17927 36.42824,31.91979 10.71688,6.63696 -14.32826,-14.08946 -26.51397,-27.03595 -30.65242,-32.56614 -9.47078,-12.65574 -9.6776,-12.83265 -14.28097,-12.21521 -5.53146,0.74193 -10.34527,4.88671 -13.93534,11.99861 -2.64674,5.24316 -3.12014,7.30082 -3.14846,13.6851 -0.0343,7.73095 1.56075,12.38961 6.55469,19.14428 1.63236,2.20788 1.91314,3.83073 1.56246,9.03068 -0.23513,3.48652 -1.26833,8.08342 -2.29601,10.21534 C 639.81312,761.14239 618.06445,777 609.37788,777 c -2.86096,0 -2.88297,-0.36706 -1.21559,-20.26787 l 1.16228,-13.87235 7.08772,0.60904 c 3.89824,0.33498 8.43771,0.21746 10.08771,-0.26114 2.51719,-0.73013 1.71249,-0.96337 -5,-1.44925 -11.92422,-0.86311 -11.83535,-0.79319 -10.99984,-8.65414 0.38608,-3.63236 1.78119,-10.02892 3.10027,-14.21457 3.08781,-9.79818 15.14575,-33.81479 20.49294,-40.81718 4.92212,-6.44572 5.82002,-10.94365 3.52766,-17.67136 -3.17135,-9.3074 -2.00903,-11.17928 13.63464,-21.95808 10.0222,-6.90549 11.60219,-7.53994 19.03964,-7.6454 5.24059,-0.0743 6.1306,0.22184 8.52797,2.83764 3.65866,3.992 13.04385,10.49589 29.6994,20.58154 22.05274,13.35387 62.94253,35.87945 59.97732,33.04061 -0.55,-0.52655 -11.35,-7.62405 -24,-15.7722 C 714.30034,652.033 689,634.96277 689,634.03925 689,632.82839 694.94128,625 695.86025,625 697.84552,625 702,619.93046 702,617.50791 c 0,-3.6761 -3.10991,-9.3016 -8.38669,-15.17066 l -4.54783,-5.05828 4.0284,-9.12881 c 5.36376,-12.15489 5.8699,-15.49536 2.837,-18.72373 -2.03118,-2.1621 -2.19843,-2.87926 -1.2546,-5.37974 0.77511,-2.05351 0.78332,-4.0303 0.0285,-6.8583 -1.2187,-4.56589 0.64028,-19.74296 2.99819,-24.47771 0.76399,-1.53413 6.67773,-8.05913 13.14163,-14.5 15.5077,-15.45248 20.30591,-22.55759 23.10304,-34.21068 1.91205,-7.96577 4.44196,-12.39022 9.50444,-16.62193 l 4.46975,-3.73625 -2.71092,-2.5918 c -2.86822,-2.74219 -9.19614,-12.10458 -9.64368,-14.26817 -0.14583,-0.70502 -0.51848,-1.95685 -0.82812,-2.78185 -3.4274,-9.13212 -3.54904,-18.98947 -0.35787,-29 l 2.39086,-7.5 0.0514,6.55897 c 0.0584,7.44962 1.6606,14.86085 4.28873,19.83863 2.10358,3.98429 12.41552,14.1024 14.37254,14.1024 0.74168,0 1.49851,0.3375 1.68185,0.75 0.52185,1.17417 9.61267,5.38205 11.04723,5.11345 0.70736,-0.13244 2.73147,0.1011 4.49804,0.51897 2.19582,0.51941 5.60021,0.10456 10.76116,-1.31132 7.36532,-2.02065 22.55139,-2.91211 22.50506,-1.3211 -0.012,0.4125 -4.39951,3.1891 -9.75,6.17022 -14.87008,8.28513 -17.23009,9.91116 -16.63517,11.46152 0.39857,1.03866 3.38279,-0.25396 11.72086,-5.07692 6.15238,-3.5587 13.0573,-7.55286 15.34427,-8.8759 l 4.15812,-2.40554 2.05876,3.48933 c 5.49591,9.31488 27.51878,16.23776 42.50733,13.36218 8.01914,-1.53849 18.48718,-6.8233 22.44562,-11.33171 3.84127,-4.37497 6.91874,-10.21523 9.24422,-17.54318 l 1.7454,-5.5 0.0701,8.5 c 0.2028,24.58189 -15.42531,41.34782 -45.6885,49.01486 -3.60554,0.91345 -4.20088,1.40447 -3.68261,3.03737 0.34001,1.07127 0.24011,1.94777 -0.222,1.94777 -1.4584,0 -10.70627,-6.44893 -19.40671,-13.53312 -12.22957,-9.95774 -19.73977,-14.61651 -21.79204,-13.51817 -3.14234,1.68173 -4.36484,5.54276 -3.86716,12.21365 0.43151,5.78404 2.30587,12.67295 3.19053,11.72633 0.19979,-0.21378 -0.10866,-2.66326 -0.68543,-5.44328 -1.3149,-6.33781 -0.39053,-10.18905 2.79382,-11.63993 3.27181,-1.49074 4.37032,-0.93126 19.52578,9.94466 16.74779,12.0186 19.75531,13.48137 27.62494,13.43597 3.47693,-0.0201 6.32169,0.31918 6.32169,0.75385 0,1.89524 -4.3476,6.05628 -7.53028,7.20715 -1.90834,0.69007 -3.46972,1.75538 -3.46972,2.36736 0,0.61198 0.67992,6.25908 1.51094,12.54911 4.0918,30.97108 5.69187,72.89626 3.46108,90.68716 -0.56538,4.50905 -4.34662,19.79724 -8.40275,33.97377 -13.39681,46.82304 -16.08786,62.7559 -15.24746,90.27549 0.80435,26.33944 2.9537,33.61315 19.946,67.5 6.61904,13.2 15.58483,31.875 19.92399,41.5 4.33916,9.625 8.54057,18.15339 9.33648,18.95197 1.26497,1.26924 2.04644,1.24808 6.20941,-0.16811 2.61927,-0.89104 6.74085,-1.84797 9.15906,-2.1265 2.6036,-0.29988 5.25453,-1.36555 6.5,-2.61299 1.8973,-1.90029 2.07774,-3.08275 1.84276,-12.07547 -0.2527,-9.67064 -0.19495,-9.9689 1.93011,-9.9689 3.19155,0 10.01346,7.82772 14.18219,16.2732 6.9435,14.0669 8.24595,27.72909 3.56527,37.39809 -5.11204,10.56007 -19.62473,16.63397 -28.62449,11.98001 -3.83055,-1.98085 -7.68611,-6.52096 -10.86483,-12.79386 -1.3538,-2.67159 -2.83457,-4.85744 -3.2906,-4.85744 -0.45603,0 -1.13291,6.3633 -1.50418,14.14067 -0.94309,19.75627 -3.06829,27.96712 -9.86723,38.12271 -3.86327,5.77059 -10.81827,11.99615 -17.94937,16.06687 -2.6561,1.51621 -3.8033,2.85946 -3.80868,4.45959 -0.012,3.55783 3.56541,9.71267 7.55827,13.00392 3.90843,3.22166 14.64633,7.20624 19.41985,7.20624 4.38976,0 5.39325,2.75056 4.72021,12.93807 -0.45883,6.94503 -1.24124,10.03893 -4.1432,16.38343 -6.54244,14.3037 -7.55936,26.4332 -3.95537,47.1785 2.38458,13.7261 2.17868,14.7831 -4.05597,20.8217 -6.24071,6.0445 -7.55149,8.7944 -7.55149,15.8423 0,6.7038 -2.4005,11.4963 -6.88761,13.7507 -3.13999,1.5776 -5.15413,2.1066 -13.11239,3.444 -0.825,0.1387 -3.75,0.109 -6.5,-0.066 z m 74,-212.26654 c -6.90803,-0.80616 -12.80541,-3.55905 -18.79506,-8.77352 L 876.5,886.5919 l 3.97517,4.22681 c 5.66291,6.02138 12.53877,9.21526 19.47117,9.04447 L 905.5,899.72635 Z m 10.63922,-2.08551 2.36078,-2.05935 -3,1.75669 C 905.55157,898.95005 905.49283,899 906.72255,899 c 0.58073,0 2.11823,-0.92671 3.41667,-2.05935 z m -4.28403,-8.55578 c 2.88634,-1.43832 5.05641,-2.80661 4.82238,-3.04063 -0.23403,-0.23403 -2.16972,0.60528 -4.30154,1.86512 -4.73295,2.79706 -14.67444,2.97162 -20.87603,0.36657 -2.2,-0.92414 -3.53913,-1.21841 -2.97584,-0.65393 1.84667,1.85057 8.88606,3.93569 13.5295,4.00754 3.01895,0.0467 6.32233,-0.81091 9.80153,-2.54467 z m -5.87217,-8.97247 c 5.32504,-1.58136 11.0531,-6.0615 10.97694,-8.58548 -0.022,-0.7298 -0.68809,-0.13388 -1.48016,1.32427 -2.4239,4.46225 -9.60961,7.21291 -18.92605,7.2448 -5.10132,0.0175 -6.95398,0.27315 -5.05375,0.69748 5.12698,1.14486 8.93793,0.96565 14.48302,-0.68107 z m -5.99191,-6.70362 c 5.78331,-2.8443 9.0523,-7.67182 8.87528,-13.10666 l -0.13362,-4.10212 -0.66013,4.73 c -0.45692,3.27393 -1.57018,5.69065 -3.61639,7.85064 -3.64812,3.85098 -6.28068,4.9655 -13.95625,5.90854 l -6,0.73717 5.5,0.0956 c 3.80467,0.0661 6.88435,-0.58524 9.99111,-2.11318 z M 728,757.62244 c 0,-0.20765 -0.7875,-0.99515 -1.75,-1.75 -1.58606,-1.24387 -1.62143,-1.2085 -0.37756,0.37756 1.30637,1.66575 2.12756,2.19548 2.12756,1.37244 z M 704.4359,607.33016 C 701.94895,601.35839 700.51921,596.07219 700.01915,591 l -0.73941,-7.5 -0.13987,6.31106 c -0.11643,5.25338 0.5724,8.13375 4.11013,17.18667 2.3375,5.98158 4.38798,10.49017 4.55661,10.01909 0.16864,-0.47108 -1.34818,-4.83007 -3.37071,-9.68666 z m 5.49871,-2.42563 C 708.21364,600.28204 706.46042,593.35 706.03857,589.5 l -0.76701,-7 -0.10313,6 c -0.0648,3.76904 0.64775,8.04505 1.91631,11.5 1.1107,3.025 2.76993,7.67824 3.68718,10.34053 0.91725,2.66229 1.80813,4.41933 1.97973,3.90453 0.1716,-0.5148 -1.09607,-4.71804 -2.81704,-9.34053 z m 5.5324,-2.00358 c -1.47734,-4.43606 -3.02569,-11.29103 -3.44076,-15.23326 l -0.75469,-7.16769 -0.13578,5.73804 c -0.0931,3.93258 0.80816,8.68484 2.86422,15.10343 1.65,5.15096 3.0522,10.21884 3.116,11.26196 0.10401,1.70056 0.1636,1.71398 0.57655,0.12983 0.2533,-0.9717 -0.74819,-5.39624 -2.22554,-9.83231 z m 5.42946,-2.61968 C 719.6724,596.00157 718.36093,589.35 717.98209,585.5 l -0.68879,-7 -0.14665,6.07377 c -0.0956,3.95783 0.72429,8.98357 2.35335,14.42623 1.375,4.59385 2.57202,9.96065 2.66004,11.92623 l 0.16003,3.57377 0.40099,-3.21873 c 0.22055,-1.7703 -0.60052,-6.7203 -1.82459,-11 z m 6.81079,4.48039 c -0.23919,-1.24391 -0.44398,-0.46166 -0.45508,1.73834 -0.0111,2.2 0.18461,3.21775 0.4349,2.26166 0.25029,-0.95609 0.25937,-2.75609 0.0202,-4 z m 3.88024,-10.67923 C 730.70997,589.36209 729.8499,583.25 729.67624,580.5 c -0.24967,-3.95366 -0.35098,-3.53512 -0.48412,2 -0.0926,3.85 0.49594,9.475 1.30788,12.5 0.81194,3.025 1.54289,7.075 1.62431,9 0.11214,2.65108 0.25849,2.91362 0.60338,1.08243 0.25043,-1.32966 -0.26265,-6.27966 -1.14019,-11 z m 5.4025,-2.15802 c -0.70894,-5.35629 -1.03645,-12.36799 -0.72782,-15.58156 0.42908,-4.46769 0.32613,-5.25445 -0.4374,-3.34285 -0.56077,1.40394 -0.75392,6.2266 -0.44056,11 0.8187,12.47124 1.85799,20.69891 2.41033,19.08156 0.26643,-0.78015 -0.0956,-5.80086 -0.80455,-11.15715 z m -11.48803,2.08364 c -1.07724,-4.39579 -1.57271,-9.3533 -1.30487,-13.05613 0.23748,-3.28322 0.0722,-5.40303 -0.36734,-4.7107 -1.34796,2.12328 -0.91847,12.4946 0.80087,19.3393 0.89684,3.57036 1.85054,6.27165 2.11932,6.00287 0.26878,-0.26879 -0.29281,-3.67769 -1.24798,-7.57534 z M 744.35284,566 c 1.26264,-2.53401 1.32516,-2.97593 0.2265,-1.60118 -2.98108,3.73025 -4.84201,11.41336 -3.9771,16.42 0.80348,4.65097 0.81256,4.62955 1.40766,-3.31882 0.33237,-4.43922 1.3752,-9.55784 2.34294,-11.5 z m 10.05051,-4.60667 3.59636,-7.89333 -3.38756,3.61278 c -3.86847,4.12566 -5.68873,10.66393 -5.48072,19.68644 l 0.13142,5.70078 0.77207,-6.60667 c 0.47968,-4.1046 2.13409,-9.59604 4.36843,-14.5 z m 61.63669,5.02778 c 3.62608,-7.14395 4.79312,-14.69469 3.15627,-20.42111 -0.84685,-2.96266 -0.92659,-2.50207 -0.51937,3 0.56351,7.61392 -1.71365,15.2904 -6.76379,22.80134 -1.89981,2.82552 -2.3652,3.98657 -1.16742,2.91243 1.0955,-0.98243 3.47794,-4.71413 5.29431,-8.29266 z M 769.71086,561.5 c 1.39359,-4.95 2.80672,-9.45 3.14027,-10 0.90737,-1.49617 1.88793,4.10223 2.1018,12 l 0.18955,7 1.9148,-6.5 c 1.05314,-3.575 2.21018,-9.0875 2.57121,-12.25 0.64834,-5.67924 0.62478,-5.75 -1.91461,-5.75 -1.41406,0 -3.16567,0.57612 -3.89245,1.28026 -0.72679,0.70414 -3.27957,1.91623 -5.67285,2.69353 -2.39328,0.7773 -5.65578,2.63173 -7.25,4.12095 -2.73483,2.55472 -2.89526,3.15108 -2.83973,10.55647 l 0.0589,7.84879 3.28487,-9.26039 c 1.80668,-5.09322 3.5802,-9.55572 3.94115,-9.91667 0.36095,-0.36095 0.70847,4.25623 0.77227,10.26039 0.0638,6.00417 0.32864,10.01667 0.58853,8.91667 0.25989,-1.1 1.61274,-6.05 3.00633,-11 z m 38.25851,6 c 0,-0.55 -0.43621,-0.325 -0.96937,0.5 -0.53316,0.825 -0.96937,1.95 -0.96937,2.5 0,0.55 0.43621,0.325 0.96937,-0.5 0.53316,-0.825 0.96937,-1.95 0.96937,-2.5 z m -12.98866,-17.22695 c 0.0205,-7.6642 -0.77957,-8.96566 -6.56802,-10.68468 -1.95509,-0.58061 -1.89258,-0.227 0.98684,5.58244 2.64528,5.33703 3.07415,7.29869 3.07415,14.06117 v 7.85887 l 1.24387,-4.79543 c 0.68413,-2.63748 1.25255,-8.04755 1.26316,-12.02237 z m -7.71892,1.06399 c 0.13102,-3.38963 -0.0435,-6.44638 -0.38789,-6.79277 -0.34435,-0.34639 -2.25765,-0.89456 -4.25177,-1.21816 l -3.62568,-0.58837 2.06262,4.66289 c 1.13444,2.5646 2.34361,7.9111 2.68705,11.88113 l 0.62443,7.21824 1.32652,-4.5 c 0.72958,-2.475 1.43371,-7.27333 1.56472,-10.66296 z M 811.34492,552 c 0.0648,-8.78327 -2.14424,-14.06167 -7.49493,-17.90836 l -3.34999,-2.40836 2.13715,2.40836 c 4.82903,5.44185 6.78153,10.99568 6.82321,19.40836 0.0218,4.4 -0.29322,9.125 -0.70005,10.5 -0.40684,1.375 -0.004,0.925 0.89477,-1 1.03318,-2.21242 1.65484,-6.25909 1.68984,-11 z M 706.5,563.08831 c -3.85,-0.32357 -7.5625,-0.95237 -8.25,-1.39733 -0.70174,-0.45418 -1.25,-0.37668 -1.25,0.17668 0,1.42088 2.61858,1.90653 10,1.85465 l 6.5,-0.0457 z M 802.81266,558 c 1.4983,-8.26369 0.009,-15.81996 -3.79479,-19.25 -1.67718,-1.5125 -3.41674,-2.75 -3.86567,-2.75 -0.44894,0 0.68316,2.97918 2.51577,6.62039 2.8968,5.75565 3.33203,7.60609 3.33203,14.16667 0,4.15045 0.18348,7.35877 0.40773,7.12961 0.22425,-0.22917 0.85647,-2.89167 1.40493,-5.91667 z m -90.41123,-5.39437 c 4.19459,-1.75261 6.63244,-5.16656 6.48257,-9.07814 -0.0764,-1.99354 -0.2663,-2.34445 -0.55609,-1.02749 -1.21177,5.50693 -2.83287,7.79993 -6.74574,9.54165 -4.78077,2.12804 -4.07949,2.61081 0.81926,0.56398 z m 0.0964,-5.96201 c 1.13575,-1.73337 1.2908,-2.98923 0.58644,-4.75 -0.88528,-2.21304 -0.9623,-2.12581 -1.0209,1.15638 -0.0349,1.9525 -0.60339,4.09 -1.26339,4.75 -0.66,0.66 -0.89537,1.2 -0.52305,1.2 0.37232,0 1.37173,-1.06037 2.2209,-2.35638 z m 69.41459,-35.25363 c 1.03418,-0.95669 -2.18905,-5.5881 -5.14205,-7.38855 -4.51693,-2.75398 -6.08465,-2.54725 -12.98584,1.7124 l -6.0169,3.71385 2.86618,0.84834 c 7.52525,2.22737 19.40283,2.84917 21.27861,1.11396 z M 728.64569,503.75 c 2.61942,-3.4375 7.6686,-9.4 11.2204,-13.25 4.68759,-5.08115 4.15192,-4.66266 -1.95414,1.52666 C 730.42408,499.61663 722.0285,510 723.37942,510 c 0.27703,0 2.64685,-2.8125 5.26627,-6.25 z m 22.13283,0.34706 c 3.14681,-1.59662 8.82975,-4.72641 12.62875,-6.95509 3.799,-2.22868 8.15004,-4.3251 9.66898,-4.65872 3.39637,-0.74597 9.84782,2.33347 12.82922,6.12371 1.15199,1.46452 2.09453,2.15337 2.09453,1.53078 0,-1.86661 -6.81074,-8.8167 -9.88969,-10.09205 -4.20327,-1.74105 -9.38349,-0.003 -18.70055,6.27484 -17.81481,12.00335 -18.91414,12.99382 -8.63124,7.77653 z M 526,684.33217 c -5.41116,-0.85596 -16,-4.64566 -16,-5.72633 0,-0.62885 4.42718,-5.55393 9.83818,-10.94463 l 9.83818,-9.80126 6.41182,3.47523 c 3.5265,1.91137 7.98682,3.75034 9.91182,4.08658 2.90099,0.50673 2.6273,0.2639 -1.59913,-1.41881 -2.80452,-1.11659 -6.75584,-3.48654 -8.7807,-5.26656 l -3.68156,-3.23639 9.15667,-8.25855 c 7.63275,-6.88412 11.34085,-9.33173 22.28069,-14.70687 7.21822,-3.54657 18.44129,-8.23286 24.94017,-10.41397 6.49888,-2.18111 14.59888,-5.62357 18,-7.6499 10.91121,-6.50073 23.86265,-7.16112 29.64218,-1.51146 1.59043,1.5547 8.32179,5.68738 14.95857,9.18374 11.89766,6.26786 13.95031,7.85701 10.14864,7.85701 -2.27249,0 -17.64442,10.07971 -24.07567,15.78695 l -4.47043,3.96716 1.42519,4.87295 c 0.78385,2.68012 1.59714,7.34794 1.8073,10.37294 0.34567,4.97542 0.0692,5.90536 -2.8989,9.75 -1.80456,2.3375 -3.59802,4.25 -3.98546,4.25 -0.38744,0 -1.73161,-1.662 -2.98705,-3.69333 -1.8218,-2.94775 -2.21386,-4.81507 -1.94211,-9.25 0.83484,-13.62448 0.75319,-14.11594 -2.84429,-17.11924 -10.65175,-8.89248 -24.18982,-12.20042 -33.34937,-8.14871 -5.7562,2.54624 -13.30075,9.42067 -15.87342,14.46351 -1.07806,2.11317 -2.31179,6.76341 -2.74164,10.33387 -0.72261,6.00237 -1.15244,6.86831 -5.70189,11.48722 -6.31947,6.41593 -11.29126,7.97401 -24.85929,7.7905 -5.53768,-0.0749 -11.1935,-0.31414 -12.5685,-0.53165 z"
         id="path16" />
    </g>
  </g>
</svg>
