<?xml version="1.0" encoding="UTF-8" standalone="no"?>
<svg
   xmlns:dc="http://purl.org/dc/elements/1.1/"
   xmlns:cc="http://creativecommons.org/ns#"
   xmlns:rdf="http://www.w3.org/1999/02/22-rdf-syntax-ns#"
   xmlns:svg="http://www.w3.org/2000/svg"
   xmlns="http://www.w3.org/2000/svg"
   xmlns:sodipodi="http://sodipodi.sourceforge.net/DTD/sodipodi-0.dtd"
   xmlns:inkscape="http://www.inkscape.org/namespaces/inkscape"
   version="1.1"
   id="svg2"
   width="1043.6062"
   height="1045.6121"
   viewBox="0 0 1043.6062 1045.6121"
   sodipodi:docname="Logrheim.svg"
   inkscape:version="1.0.1 (3bc2e813f5, 2020-09-07)">
  <metadata
     id="metadata8">
    <rdf:RDF>
      <cc:Work
         rdf:about="">
        <dc:format>image/svg+xml</dc:format>
        <dc:type
           rdf:resource="http://purl.org/dc/dcmitype/StillImage" />
        <dc:title></dc:title>
      </cc:Work>
    </rdf:RDF>
  </metadata>
  <defs
     id="defs6" />
  <sodipodi:namedview
     pagecolor="#ffffff"
     bordercolor="#666666"
     borderopacity="1"
     objecttolerance="10"
     gridtolerance="10"
     guidetolerance="10"
     inkscape:pageopacity="0"
     inkscape:pageshadow="2"
     inkscape:window-width="1920"
     inkscape:window-height="1057"
     id="namedview4"
     showgrid="false"
     inkscape:pagecheckerboard="true"
     inkscape:zoom="0.49"
     inkscape:cx="519.72764"
     inkscape:cy="511.8845"
     inkscape:window-x="-8"
     inkscape:window-y="-8"
     inkscape:window-maximized="1"
     inkscape:current-layer="g10" />
  <g
     inkscape:groupmode="layer"
     inkscape:label="Image"
     id="g10"
     transform="translate(-230.27236,-238.1155)">
    <circle
       style="fill:#ffffff;fill-rule:evenodd"
       id="path845"
       cx="751.02039"
       cy="763.26532"
       r="453.06122" />
    <g
       id="g837">
      <path
         style="fill:#6aa67d"
         d="m 731.75,1283.2943 c 1.2375,-0.2384 3.2625,-0.2384 4.5,0 1.2375,0.2383 0.225,0.4333 -2.25,0.4333 -2.475,0 -3.4875,-0.195 -2.25,-0.4333 z m 38,0 c 1.2375,-0.2384 3.2625,-0.2384 4.5,0 1.2375,0.2383 0.225,0.4333 -2.25,0.4333 -2.475,0 -3.4875,-0.195 -2.25,-0.4333 z m -55.48097,-0.9873 c 0.97297,-0.2535 2.32297,-0.2369 3,0.037 0.67703,0.2739 -0.11903,0.4813 -1.76903,0.461 -1.65,-0.02 -2.20394,-0.2445 -1.23097,-0.4981 z m 75,0 c 0.97297,-0.2535 2.32297,-0.2369 3,0.037 0.67703,0.2739 -0.11903,0.4813 -1.76903,0.461 -1.65,-0.02 -2.20394,-0.2445 -1.23097,-0.4981 z m -86.45653,-0.9901 c 0.72187,-0.2889 1.58438,-0.2534 1.91667,0.079 0.33229,0.3323 -0.25834,0.5687 -1.3125,0.5253 -1.16495,-0.048 -1.4019,-0.285 -0.60417,-0.6042 z m 99,0 c 0.72187,-0.2889 1.58438,-0.2534 1.91667,0.079 0.33229,0.3323 -0.25834,0.5687 -1.3125,0.5253 -1.16495,-0.048 -1.4019,-0.285 -0.60417,-0.6042 z M 718.5,1237.4775 c -61.78296,-5.6745 -120.2224,-21.5161 -173,-46.8966 -55.7877,-26.8279 -112.31333,-70.3981 -153,-117.9328 C 356.20394,1030.2429 329.08377,986.0571 310.47009,939 291.86516,891.96504 281.04249,845.88344 276.49569,794.34125 269.81537,718.61366 287.38615,628.429 323.41905,553.5 345.1207,508.37228 378.95603,461.04445 416.00024,424.00024 453.04445,386.95603 500.37228,353.1207 545.5,331.41905 c 74.929,-36.0329 165.11366,-53.60368 240.84125,-46.92336 51.54219,4.5468 97.62379,15.36947 144.65875,33.9744 47.0571,18.61368 91.2429,45.73385 133.6481,82.02991 47.5347,40.68667 91.1049,97.2123 117.9328,153 22.2994,46.37068 37.2778,97.22497 44.4354,150.86637 C 1228.7256,717.1764 1229,725.01006 1229,761 c 0,35.98994 -0.2744,43.8236 -1.9837,56.63363 -7.1576,53.6414 -22.136,104.49569 -44.4354,150.86637 -26.8279,55.7877 -70.3981,112.3133 -117.9328,153 -50.808,43.4883 -101.71235,72.4275 -163.02251,92.6785 -59.74199,19.7331 -127.74642,28.3852 -183.12559,23.299 z m 37.36687,-38.2275 c 1.67671,-7.0125 7.12429,-29.85 12.10573,-50.75 4.98144,-20.9 10.16238,-42.5 11.5132,-48 2.45256,-9.9858 5.19026,-21.4099 14.61815,-61 2.75049,-11.55 7.43356,-31.125 10.40683,-43.5 2.97326,-12.375 7.66215,-31.91614 10.41974,-43.42476 l 5.01382,-20.92475 -6.02355,-8.4211 c -3.31296,-4.63161 -5.88793,-8.73697 -5.72217,-9.12303 0.25441,-0.59254 16.22926,-22.73443 32.68388,-45.30139 l 4.3825,-6.01045 -12.36667,-12.39643 -12.36666,-12.39643 3.735,-3.73499 3.73499,-3.735 12.4064,12.37661 12.40639,12.3766 25.60989,-18.64244 C 892.50978,826.3891 904.24644,818 904.5058,818 c 0.25936,0 4.2454,2.68206 8.85788,5.96014 l 8.38632,5.96014 20.875,-5.00178 c 11.48125,-2.75099 31,-7.43446 43.375,-10.40772 12.375,-2.97327 32.175,-7.70943 44,-10.5248 11.825,-2.81538 28.925,-6.91081 38,-9.10096 17.7692,-4.2884 34.1657,-8.21499 54,-12.93176 6.875,-1.63493 21.725,-5.18567 33,-7.89052 11.275,-2.70485 26.4625,-6.34138 33.75,-8.08118 7.2875,-1.73979 13.25,-3.53313 13.25,-3.98518 0,-0.45205 -5.0625,-2.02242 -11.25,-3.48969 -18.9679,-4.49797 -39.2938,-9.36233 -60.75,-14.53858 -11.275,-2.72006 -27.1375,-6.52564 -35.25,-8.45684 -8.1125,-1.9312 -21.1625,-5.05425 -29,-6.94013 -7.8375,-1.88587 -23.925,-5.74295 -35.75,-8.5713 -11.825,-2.82834 -32.75,-7.83361 -46.5,-11.12281 -13.75,-3.28921 -31.75,-7.57552 -40,-9.52514 -8.25,-1.94963 -16.54319,-3.93738 -18.42932,-4.41724 -3.18252,-0.80967 -4.02986,-0.44289 -11.77402,5.09645 -4.58959,3.28289 -8.53595,5.9689 -8.76969,5.9689 -0.23374,0 -11.97116,-8.38263 -26.08316,-18.62807 l -25.65818,-18.62806 -12.39198,12.36223 -12.39199,12.36223 -3.73499,-3.735 -3.735,-3.73499 12.37661,-12.4064 12.3766,-12.40639 -18.64244,-25.60989 C 816.3891,621.49022 808,609.75928 808,609.5069 c 0,-0.25237 2.68594,-4.21388 5.96876,-8.80335 l 5.96875,-8.3445 -2.00776,-8.42952 C 816.82549,579.29329 814.83887,571 813.51505,565.5 c -5.7115,-23.72916 -14.78287,-61.59375 -19.5253,-81.5 -2.81717,-11.825 -6.92224,-28.925 -9.12239,-38 -2.20015,-9.075 -4.85282,-20.1 -5.89482,-24.5 -2.28234,-9.63747 -8.16125,-34.2276 -11.47566,-48 -3.23849,-13.45689 -8.74247,-36.49798 -12.00357,-50.25 -1.46727,-6.1875 -3.03764,-11.25 -3.48969,-11.25 -0.45205,0 -2.19377,5.7375 -3.87049,12.75 -1.67671,7.0125 -7.12429,29.85 -12.10573,50.75 -4.98144,20.9 -10.16238,42.5 -11.5132,48 -2.45256,9.9858 -5.19026,21.40994 -14.61815,61 -6.68757,28.08275 -14.674,61.42628 -20.80529,86.8625 l -5.02881,20.8625 5.96902,8.39882 c 3.28297,4.61935 5.96903,8.61102 5.96903,8.87038 0,0.25936 -8.3891,11.99602 -18.64244,26.08146 l -18.64244,25.60989 12.3766,12.40639 12.37661,12.4064 -3.735,3.73499 -3.73499,3.735 -12.4064,-12.37661 -12.40639,-12.3766 -25.60989,18.64244 C 611.49022,697.6109 599.75928,706 599.5069,706 c -0.25237,0 -4.21388,-2.68594 -8.80335,-5.96876 l -8.3445,-5.96875 -8.42952,2.00776 c -4.63624,1.10426 -12.92953,3.09088 -18.42953,4.4147 -25.01081,6.01998 -61.8461,14.84258 -81.5,19.52046 -11.825,2.8145 -28.925,6.915 -38,9.11222 -9.075,2.19722 -20.1,4.85191 -24.5,5.89932 -16.53644,3.93647 -34.62567,8.26718 -54,12.92804 -11,2.64626 -27.9875,6.7016 -37.75,9.01187 -9.7625,2.31027 -17.75,4.5742 -17.75,5.03096 0,0.45676 5.9625,2.24794 13.25,3.9804 7.2875,1.73245 24.5,5.84489 38.25,9.13874 13.75,3.29385 28.6,6.84674 33,7.8953 4.4,1.04856 15.425,3.70034 24.5,5.89285 9.075,2.19251 30,7.20716 46.5,11.14366 16.5,3.9365 38.325,9.16388 48.5,11.6164 10.175,2.45252 25.025,5.9821 33,7.84351 7.975,1.86141 20.98072,4.98062 28.9016,6.93158 l 14.4016,3.5472 8.37242,-5.98873 C 595.28045,820.69493 599.25453,818 599.5069,818 c 0.25238,0 11.98332,8.3891 26.06876,18.64244 l 25.60989,18.64244 12.40639,-12.3766 12.4064,-12.37661 3.73499,3.735 3.735,3.73499 -12.36666,12.39643 -12.36667,12.39643 4.3825,6.01045 c 16.45462,22.56696 32.42947,44.70885 32.68388,45.30139 0.16576,0.38606 -2.40768,4.48928 -5.71875,9.11826 l -6.02014,8.41633 2.00776,8.42952 c 1.10426,4.63624 3.09088,12.92953 4.4147,18.42953 5.7115,23.72916 14.78287,61.5937 19.5253,81.5 2.81717,11.825 6.92224,28.925 9.12239,38 2.20015,9.075 4.85282,20.1 5.89482,24.5 1.74191,7.3554 3.73607,15.6988 12.07009,50.5 1.64639,6.875 4.06486,17 5.37437,22.5 1.3095,5.5 3.80491,15.9625 5.54535,23.25 1.74044,7.2875 3.53267,13.25 3.98273,13.25 0.45006,0 2.19015,-5.7375 3.86687,-12.75 z M 828.5,1180.9526 c 43.24948,-7.6197 95.89276,-26.582 133,-47.9071 31.86746,-18.3139 68.2368,-45.9683 92.9022,-70.6408 26.214,-26.2214 54.4371,-63.86163 73.4891,-98.0101 20.1953,-36.19767 37.6792,-86.28735 45.5566,-130.51525 2.0599,-11.56588 2.1317,-12.88584 0.678,-12.46781 -0.8943,0.25714 -14.2259,3.44539 -29.6259,7.085 -15.4,3.6396 -37.9,9.01226 -50,11.93923 -12.1,2.92697 -32.8,7.88959 -46,11.02805 -41.5987,9.8906 -76.32881,18.22834 -96.5,23.167 -16.10424,3.94293 -21.15434,4.7826 -29,4.82176 -5.225,0.0261 -10.89408,-0.26515 -12.59795,-0.64717 -2.77653,-0.62252 -4.27022,0.16639 -14.39633,7.60367 -10.0432,7.37637 -12.22027,9.55344 -19.59664,19.59664 -7.43728,10.12611 -8.22619,11.6198 -7.60367,14.39633 0.38202,1.70387 0.67325,7.37295 0.64717,12.59795 -0.0392,7.84318 -0.87959,12.90084 -4.81897,29 -5.31581,21.72426 -13.44919,55.5779 -22.58366,94 -6.27411,26.3907 -13.49667,56.4895 -24.42782,101.799 l -6.34477,26.299 2.61132,-0.5156 c 1.43623,-0.2836 8.01132,-1.467 14.61132,-2.6298 z M 691.47377,1179.75 c -0.78557,-3.7263 -12.7351,-53.8743 -21.86269,-91.75 -1.92188,-7.975 -5.79577,-24.175 -8.60864,-36 -4.61808,-19.4139 -8.37652,-35.0855 -20.86484,-87 -5.85222,-24.32795 -6.47731,-28.24864 -5.86687,-36.7982 0.30244,-4.23599 0.82108,-8.37901 1.15252,-9.2067 0.37687,-0.94115 -2.53162,-5.77229 -7.76398,-12.89633 -7.45232,-10.14659 -9.60128,-12.29826 -19.66499,-19.68969 -10.12611,-7.43728 -11.6198,-8.22619 -14.39633,-7.60367 -1.70387,0.38202 -7.37295,0.67459 -12.59795,0.65014 -7.95467,-0.0372 -12.916,-0.88189 -30.5,-5.1926 -11.55,-2.83149 -31.575,-7.67245 -44.5,-10.7577 -12.925,-3.08526 -28.9,-6.91095 -35.5,-8.50155 -27.06618,-6.52294 -72.76821,-17.45873 -84,-20.09991 -20.97497,-4.93231 -49.38449,-11.77789 -52.85052,-12.7349 l -3.3477,-0.92435 2.27713,12.78507 c 4.46716,25.08117 11.35474,49.99772 21.13837,76.47039 14.14564,38.27544 31.78683,70.38931 57.31185,104.33 27.90148,37.1006 51.04025,60.2394 88.1409,88.1409 41.77142,31.4141 82.97465,52.067 134.32997,67.332 19.92598,5.9229 48.40663,12.3515 55.82946,12.6017 2.67786,0.09 2.79274,-0.079 2.14431,-3.1546 z M 407,684.13921 c 14.025,-3.36662 36.975,-8.85046 51,-12.18632 23.03168,-5.47811 38.70601,-9.23569 91,-21.81529 24.32795,-5.85222 28.24864,-6.47731 36.7982,-5.86687 4.23599,0.30244 8.37901,0.82108 9.2067,1.15252 0.94115,0.37687 5.77229,-2.53162 12.89633,-7.76398 10.14659,-7.45232 12.29826,-9.60128 19.68969,-19.66499 7.43728,-10.12611 8.22619,-11.6198 7.60367,-14.39633 C 634.81257,601.89408 634.52,596.225 634.54445,591 c 0.0373,-7.97886 0.88735,-12.94259 5.3086,-31 5.79491,-23.66771 12.84396,-53.02285 22.092,-92 3.32768,-14.025 8.28164,-34.725 11.0088,-46 C 679.58447,394.58675 693,338.66486 693,338.43875 c 0,-0.46726 -27.02338,4.70736 -36.65734,7.01938 -36.20959,8.68984 -77.93244,24.57986 -106.73726,40.65058 -34.14847,19.05202 -71.78869,47.27508 -98.01013,73.48908 -24.67244,24.66544 -52.32684,61.03475 -70.64075,92.90221 -21.32516,37.10724 -40.28747,89.75052 -47.9071,133 -1.16278,6.6 -2.34721,13.17977 -2.63206,14.62171 l -0.51792,2.62172 25.80128,-6.24155 C 369.88942,693.06903 392.975,687.50582 407,684.13921 Z M 1175.6128,700.25 c -0.3003,-1.5125 -1.4974,-8.15 -2.6602,-14.75 -5.944,-33.73838 -19.689,-76.07584 -35.3871,-109 C 1113.9972,527.06969 1074.7094,475.74632 1033.1483,440.09527 978.43785,393.16466 923.42434,364.32869 855.5,346.97884 c -13.74298,-3.51036 -43.45678,-9.35539 -44.1311,-8.68108 -0.1566,0.1566 2.4073,11.51617 5.69756,25.24349 3.29025,13.72731 7.15782,29.90875 8.59459,35.95875 6.55186,27.58882 8.37823,35.23621 12.77701,53.5 2.58309,10.725 6.89067,28.725 9.57241,40 5.2944,22.25959 11.94344,49.8543 17.71006,73.5 3.70149,15.17773 4.86431,29.16149 3.08488,37.09795 -0.62271,2.77737 0.16903,4.27381 7.65077,14.46046 7.44403,10.13532 9.56927,12.25969 19.67758,19.66962 7.21641,5.29002 11.8832,8.08112 12.84924,7.68485 0.83435,-0.34225 5.342,-0.84699 10.017,-1.12165 9.08985,-0.53403 12.45494,0.12344 62.5,12.21132 10.45,2.52409 28.225,6.78799 39.5,9.47532 11.275,2.68734 29.275,6.989 40,9.55924 10.725,2.57025 24.675,5.90809 31,7.41744 16.3351,3.89808 48.8247,11.70829 67,16.10621 8.525,2.06281 15.8733,3.79302 16.3295,3.84491 0.4562,0.0519 0.5837,-1.14317 0.2833,-2.65567 z m -755.74036,464 c -1.24387,-1.5861 -1.2085,-1.6214 0.37756,-0.3776 0.9625,0.7549 1.75,1.5424 1.75,1.75 0,0.8231 -0.82119,0.2933 -2.12756,-1.3724 z M 1084,1165.6224 c 0,-0.2076 0.7875,-0.9951 1.75,-1.75 1.5861,-1.2438 1.6214,-1.2085 0.3776,0.3776 -1.3064,1.6657 -2.1276,2.1955 -2.1276,1.3724 z M 413.87244,1159.25 c -1.24387,-1.5861 -1.2085,-1.6214 0.37756,-0.3776 0.9625,0.7549 1.75,1.5424 1.75,1.75 0,0.8231 -0.82119,0.2933 -2.12756,-1.3724 z M 1090,1160.6224 c 0,-0.2076 0.7875,-0.9951 1.75,-1.75 1.5861,-1.2438 1.6214,-1.2085 0.3776,0.3776 -1.3064,1.6657 -2.1276,2.1955 -2.1276,1.3724 z M 406.40499,1152.75 404.5,1150.5 l 2.25,1.905 c 1.2375,1.0477 2.25,2.0602 2.25,2.25 0,0.8002 -0.80479,0.2094 -2.59501,-1.905 z M 1098.5,1153 c 0.9955,-1.1 2.035,-2 2.31,-2 0.275,0 -0.3145,0.9 -1.31,2 -0.9955,1.1 -2.035,2 -2.31,2 -0.275,0 0.3145,-0.9 1.31,-2 z m -703.55383,-10.75 -3.44617,-3.75 3.75,3.4462 c 2.0625,1.8954 3.75,3.5829 3.75,3.75 0,0.7636 -0.84622,0.044 -4.05383,-3.4462 z M 1110,1142.5 c 1.8658,-1.925 3.6173,-3.5 3.8923,-3.5 0.275,0 -1.0265,1.575 -2.8923,3.5 -1.8658,1.925 -3.6173,3.5 -3.8923,3.5 -0.275,0 1.0265,-1.575 2.8923,-3.5 z m -739.05383,-24.25 -3.44617,-3.75 3.75,3.4462 c 2.0625,1.8954 3.75,3.5829 3.75,3.75 0,0.7636 -0.84622,0.044 -4.05383,-3.4462 z M 1134,1118.5 c 1.8658,-1.925 3.6173,-3.5 3.8923,-3.5 0.275,0 -1.0265,1.575 -2.8923,3.5 -1.8658,1.925 -3.6173,3.5 -3.8923,3.5 -0.275,0 1.0265,-1.575 2.8923,-3.5 z m -773.59501,-11.75 -1.90499,-2.25 2.25,1.905 c 1.2375,1.0477 2.25,2.0602 2.25,2.25 0,0.8002 -0.80479,0.2094 -2.59501,-1.905 z M 1144.5,1107 c 0.9955,-1.1 2.035,-2 2.31,-2 0.275,0 -0.3145,0.9 -1.31,2 -0.9955,1.1 -2.035,2 -2.31,2 -0.275,0 0.3145,-0.9 1.31,-2 z m -790.62756,-7.75 c -1.24387,-1.5861 -1.2085,-1.6214 0.37756,-0.3776 0.9625,0.7549 1.75,1.5424 1.75,1.75 0,0.8231 -0.82119,0.2933 -2.12756,-1.3724 z M 1150,1100.6224 c 0,-0.2076 0.7875,-0.9951 1.75,-1.75 1.5861,-1.2438 1.6214,-1.2085 0.3776,0.3776 -1.3064,1.6657 -2.1276,2.1955 -2.1276,1.3724 z M 348.87244,1093.25 c -1.24387,-1.5861 -1.2085,-1.6214 0.37756,-0.3776 0.9625,0.7549 1.75,1.5424 1.75,1.75 0,0.8231 -0.82119,0.2933 -2.12756,-1.3724 z M 1155,1094.6224 c 0,-0.2076 0.7875,-0.9951 1.75,-1.75 1.5861,-1.2438 1.6214,-1.2085 0.3776,0.3776 -1.3064,1.6657 -2.1276,2.1955 -2.1276,1.3724 z M 232.07895,810.41667 c 0.048,-1.16495 0.28494,-1.4019 0.60416,-0.60417 0.28887,0.72187 0.25335,1.58438 -0.0789,1.91667 -0.3323,0.33229 -0.56864,-0.25834 -0.52522,-1.3125 z m 1040.99995,0 c 0.048,-1.16495 0.285,-1.4019 0.6042,-0.60417 0.2889,0.72187 0.2534,1.58438 -0.079,1.91667 -0.3323,0.33229 -0.5687,-0.25834 -0.5253,-1.3125 z M 231.19495,798.5 c 0.0204,-1.65 0.2445,-2.20394 0.49804,-1.23097 0.25354,0.97297 0.23687,2.32297 -0.0371,3 -0.27393,0.67703 -0.48137,-0.11903 -0.46099,-1.76903 z M 230.27236,780 c 0,-2.475 0.19502,-3.4875 0.43337,-2.25 0.23836,1.2375 0.23836,3.2625 0,4.5 -0.23835,1.2375 -0.43337,0.225 -0.43337,-2.25 z m 0,-38 c 0,-2.475 0.19502,-3.4875 0.43337,-2.25 0.23836,1.2375 0.23836,3.2625 0,4.5 -0.23835,1.2375 -0.43337,0.225 -0.43337,-2.25 z m 0.92259,-18.5 c 0.0204,-1.65 0.2445,-2.20394 0.49804,-1.23097 0.25354,0.97297 0.23687,2.32297 -0.0371,3 -0.27393,0.67703 -0.48137,-0.11903 -0.46099,-1.76903 z m 0.884,-12.08333 c 0.048,-1.16495 0.28494,-1.4019 0.60416,-0.60417 0.28887,0.72187 0.25335,1.58438 -0.0789,1.91667 -0.3323,0.33229 -0.56864,-0.25834 -0.52522,-1.3125 z m 1040.99995,0 c 0.048,-1.16495 0.285,-1.4019 0.6042,-0.60417 0.2889,0.72187 0.2534,1.58438 -0.079,1.91667 -0.3323,0.33229 -0.5687,-0.25834 -0.5253,-1.3125 z M 348,429.62244 c 0,-0.20765 0.7875,-0.99515 1.75,-1.75 1.58606,-1.24387 1.62143,-1.2085 0.37756,0.37756 C 348.82119,429.91575 348,430.44548 348,429.62244 Z M 1155.8724,428.25 c -1.2438,-1.58606 -1.2085,-1.62143 0.3776,-0.37756 1.6657,1.30637 2.1955,2.12756 1.3724,2.12756 -0.2076,0 -0.9951,-0.7875 -1.75,-1.75 z M 353,423.62244 c 0,-0.20765 0.7875,-0.99515 1.75,-1.75 1.58606,-1.24387 1.62143,-1.2085 0.37756,0.37756 C 353.82119,423.91575 353,424.44548 353,423.62244 Z M 1150.8724,422.25 c -1.2438,-1.58606 -1.2085,-1.62143 0.3776,-0.37756 1.6657,1.30637 2.1955,2.12756 1.3724,2.12756 -0.2076,0 -0.9951,-0.7875 -1.75,-1.75 z M 360.5,415 c 0.99549,-1.1 2.03498,-2 2.30998,-2 0.275,0 -0.31449,0.9 -1.30998,2 -0.99549,1.1 -2.03498,2 -2.30998,2 -0.275,0 0.31449,-0.9 1.30998,-2 z m 783.905,-0.25 -1.905,-2.25 2.25,1.90499 c 2.1144,1.79022 2.7052,2.59501 1.905,2.59501 -0.1898,0 -1.2023,-1.0125 -2.25,-2.25 z M 371,403.5 c 1.86578,-1.925 3.61733,-3.5 3.89233,-3.5 0.275,0 -1.02655,1.575 -2.89233,3.5 -1.86578,1.925 -3.61733,3.5 -3.89233,3.5 -0.275,0 1.02655,-1.575 2.89233,-3.5 z m 762.9462,-0.25 -3.4462,-3.75 3.75,3.44617 c 3.4904,3.20761 4.2098,4.05383 3.4462,4.05383 -0.1671,0 -1.8546,-1.6875 -3.75,-3.75 z M 395,379.5 c 1.86578,-1.925 3.61733,-3.5 3.89233,-3.5 0.275,0 -1.02655,1.575 -2.89233,3.5 -1.86578,1.925 -3.61733,3.5 -3.89233,3.5 -0.275,0 1.02655,-1.575 2.89233,-3.5 z m 714.9462,-0.25 -3.4462,-3.75 3.75,3.44617 c 3.4904,3.20761 4.2098,4.05383 3.4462,4.05383 -0.1671,0 -1.8546,-1.6875 -3.75,-3.75 z M 406.5,369 c 0.99549,-1.1 2.03498,-2 2.30998,-2 0.275,0 -0.31449,0.9 -1.30998,2 -0.99549,1.1 -2.03498,2 -2.30998,2 -0.275,0 0.31449,-0.9 1.30998,-2 z m 691.905,-0.25 -1.905,-2.25 2.25,1.90499 c 2.1144,1.79022 2.7052,2.59501 1.905,2.59501 -0.1898,0 -1.2023,-1.0125 -2.25,-2.25 z M 413,363.62244 c 0,-0.20765 0.7875,-0.99515 1.75,-1.75 1.58606,-1.24387 1.62143,-1.2085 0.37756,0.37756 C 413.82119,363.91575 413,364.44548 413,363.62244 Z M 1090.8724,362.25 c -1.2438,-1.58606 -1.2085,-1.62143 0.3776,-0.37756 0.9625,0.75485 1.75,1.54235 1.75,1.75 0,0.82304 -0.8212,0.29331 -2.1276,-1.37244 z M 419,358.62244 c 0,-0.20765 0.7875,-0.99515 1.75,-1.75 1.58606,-1.24387 1.62143,-1.2085 0.37756,0.37756 C 419.82119,358.91575 419,359.44548 419,358.62244 Z M 1084.8724,357.25 c -1.2438,-1.58606 -1.2085,-1.62143 0.3776,-0.37756 0.9625,0.75485 1.75,1.54235 1.75,1.75 0,0.82304 -0.8212,0.29331 -2.1276,-1.37244 z M 702.8125,240.31689 c 0.72187,-0.28887 1.58438,-0.25335 1.91667,0.0789 0.33229,0.33229 -0.25834,0.56864 -1.3125,0.52522 -1.16495,-0.048 -1.4019,-0.28494 -0.60417,-0.60416 z m 99,0 c 0.72187,-0.28887 1.58438,-0.25335 1.91667,0.0789 0.33229,0.33229 -0.25834,0.56864 -1.3125,0.52522 -1.16495,-0.048 -1.4019,-0.28494 -0.60417,-0.60416 z m -87.54347,-1.00988 c 0.97297,-0.25354 2.32297,-0.23687 3,0.0371 0.67703,0.27393 -0.11903,0.48137 -1.76903,0.46099 -1.65,-0.0204 -2.20394,-0.2445 -1.23097,-0.49804 z m 75,0 c 0.97297,-0.25354 2.32297,-0.23687 3,0.0371 0.67703,0.27393 -0.11903,0.48137 -1.76903,0.46099 -1.65,-0.0204 -2.20394,-0.2445 -1.23097,-0.49804 z M 731.75,238.29427 c 1.2375,-0.23836 3.2625,-0.23836 4.5,0 1.2375,0.23835 0.225,0.43337 -2.25,0.43337 -2.475,0 -3.4875,-0.19502 -2.25,-0.43337 z m 38,0 c 1.2375,-0.23836 3.2625,-0.23836 4.5,0 1.2375,0.23835 0.225,0.43337 -2.25,0.43337 -2.475,0 -3.4875,-0.19502 -2.25,-0.43337 z"
         id="path843" />
      <path
         style="fill:#243b2e"
         d="m 739.75,1283.2943 c 1.2375,-0.2384 3.2625,-0.2384 4.5,0 1.2375,0.2383 0.225,0.4333 -2.25,0.4333 -2.475,0 -3.4875,-0.195 -2.25,-0.4333 z m 22,0 c 1.2375,-0.2384 3.2625,-0.2384 4.5,0 1.2375,0.2383 0.225,0.4333 -2.25,0.4333 -2.475,0 -3.4875,-0.195 -2.25,-0.4333 z m -49.25,-25.8168 c -63.69566,-5.8501 -120.99519,-21.6749 -177,-48.8831 -23.01618,-11.1817 -36.09775,-18.6152 -56.5,-32.1058 C 421.80325,1138.6684 375.3316,1092.1968 337.51137,1035 324.02079,1014.5977 316.58726,1001.5162 305.40556,978.5 248.52787,861.42415 239.4053,728.73467 279.82145,606.37441 300.7723,542.94553 332.56252,486.70577 376.49417,435.35168 404.95432,402.08308 440.31713,371.08966 479,345.51137 c 20.40225,-13.49058 33.48382,-20.92411 56.5,-32.10581 117.07585,-56.87769 249.76533,-66.00026 372.12559,-25.58411 63.42888,20.95085 119.66861,52.74107 171.02271,96.67272 40.368,34.53345 79.2126,81.62984 106.4025,129.00583 26.5342,46.23346 47.8063,104.09186 57.4367,156.22268 6.0088,32.52683 6.5125,39.58669 6.5125,91.27732 0,51.69063 -0.5037,58.75049 -6.5125,91.27732 -9.6304,52.13082 -30.9025,109.98922 -57.4367,156.22268 -38.5415,67.1552 -92.8437,124.8717 -158.0508,167.9886 -20.4023,13.4906 -33.48382,20.9241 -56.5,32.1058 -56.69121,27.5417 -113.86829,43.2385 -178.15875,48.9099 -20.32231,1.7927 -60.17563,1.7793 -79.84125,-0.027 z m 76.84125,-9.9732 c 73.3912,-6.4742 144.57229,-28.2486 204.15875,-62.4524 85.574,-49.1212 155.8012,-124.1215 198.0885,-211.5519 23.1866,-47.9392 38.1421,-98.26488 45.4278,-152.86637 C 1238.7436,807.68852 1239,799.98171 1239,761 c 0,-38.98171 -0.2564,-46.68852 -1.9837,-59.63363 C 1229.7306,646.76488 1214.7751,596.4392 1191.5885,548.5 1144.3989,450.93388 1063.0661,369.60108 965.5,322.41152 877.51565,279.85635 779.61511,264.32336 685.78415,278.03153 545.09696,298.58514 423.8344,375.54954 345.51137,494 321.48385,530.33761 303.88421,566.79928 289.82145,609.37441 253.68775,718.76952 257.33604,832.81725 300.46186,942 c 43.71126,110.6649 131.87285,205.2724 240.03814,257.5885 77.40844,37.4399 168.58189,54.9959 248.84125,47.9158 z M 748.01727,1198.75 c -1.74044,-7.2875 -4.23585,-17.75 -5.54535,-23.25 -1.30951,-5.5 -3.72798,-15.625 -5.37437,-22.5 -8.33402,-34.8012 -10.32818,-43.1446 -12.07009,-50.5 -1.042,-4.4 -3.69467,-15.425 -5.89482,-24.5 -2.20015,-9.075 -6.30522,-26.175 -9.12239,-38 -4.74243,-19.9063 -13.8138,-57.77084 -19.5253,-81.5 -1.32382,-5.5 -3.31044,-13.79329 -4.4147,-18.42953 l -2.00776,-8.42952 6.02014,-8.41633 c 3.31107,-4.62898 5.88451,-8.7322 5.71875,-9.11826 -0.25441,-0.59254 -16.22926,-22.73443 -32.68388,-45.30139 l -4.3825,-6.01045 12.36667,-12.39643 12.36666,-12.39643 -3.735,-3.73499 -3.73499,-3.735 -12.4064,12.37661 -12.40639,12.3766 -25.60989,-18.64244 C 611.49022,826.3891 599.75928,818 599.5069,818 c -0.25237,0 -4.22645,2.69493 -8.83128,5.98873 l -8.37242,5.98873 -14.4016,-3.5472 C 559.98072,824.4793 546.975,821.36009 539,819.49868 c -7.975,-1.86141 -22.825,-5.39099 -33,-7.84351 -10.175,-2.45252 -32,-7.6799 -48.5,-11.6164 -16.5,-3.9365 -37.425,-8.95115 -46.5,-11.14366 -9.075,-2.19251 -20.1,-4.84429 -24.5,-5.89285 -4.4,-1.04856 -19.25,-4.60145 -33,-7.8953 -13.75,-3.29385 -30.9625,-7.40629 -38.25,-9.13874 -7.2875,-1.73246 -13.25,-3.52364 -13.25,-3.9804 0,-0.45676 7.9875,-2.72069 17.75,-5.03096 9.7625,-2.31027 26.75,-6.36561 37.75,-9.01187 19.37433,-4.66086 37.46356,-8.99157 54,-12.92804 4.4,-1.04741 15.425,-3.7021 24.5,-5.89932 9.075,-2.19722 26.175,-6.29772 38,-9.11222 19.6539,-4.67788 56.48919,-13.50048 81.5,-19.52046 5.5,-1.32382 13.79329,-3.31044 18.42953,-4.4147 l 8.42952,-2.00776 8.3445,5.96875 c 4.58947,3.28282 8.55098,5.96876 8.80335,5.96876 0.25238,0 11.98332,-8.3891 26.06876,-18.64244 l 25.60989,-18.64244 12.40639,12.3766 12.4064,12.37661 3.73499,-3.735 3.735,-3.73499 -12.37661,-12.4064 -12.3766,-12.40639 18.64244,-25.60989 C 687.6109,621.49022 696,609.75356 696,609.4942 c 0,-0.25936 -2.68606,-4.25103 -5.96903,-8.87038 l -5.96902,-8.39882 5.02881,-20.8625 c 6.13129,-25.43622 14.11772,-58.77975 20.80529,-86.8625 9.42789,-39.59006 12.16559,-51.0142 14.61815,-61 1.35082,-5.5 6.53176,-27.1 11.5132,-48 4.98144,-20.9 10.42902,-43.7375 12.10573,-50.75 1.67672,-7.0125 3.41844,-12.75 3.87049,-12.75 0.45205,0 2.02242,5.0625 3.48969,11.25 3.2611,13.75202 8.76508,36.79311 12.00357,50.25 3.31441,13.7724 9.19332,38.36253 11.47566,48 1.042,4.4 3.69467,15.425 5.89482,24.5 2.20015,9.075 6.30522,26.175 9.12239,38 4.74243,19.90625 13.8138,57.77084 19.5253,81.5 1.32382,5.5 3.31044,13.79329 4.4147,18.42953 l 2.00776,8.42952 -5.96875,8.3445 C 810.68594,605.29302 808,609.25453 808,609.5069 c 0,0.25238 8.3891,11.98332 18.64244,26.06876 l 18.64244,25.60989 -12.3766,12.40639 -12.37661,12.4064 3.735,3.73499 3.73499,3.735 12.39199,-12.36223 12.39198,-12.36223 25.65818,18.62806 C 892.55581,697.61737 904.29323,706 904.52697,706 c 0.23374,0 4.1801,-2.68601 8.76969,-5.9689 7.74416,-5.53934 8.5915,-5.90612 11.77402,-5.09645 1.88613,0.47986 10.17932,2.46761 18.42932,4.41724 8.25,1.94962 26.25,6.23593 40,9.52514 13.75,3.2892 34.675,8.29447 46.5,11.12281 11.825,2.82835 27.9125,6.68543 35.75,8.5713 7.8375,1.88588 20.8875,5.00893 29,6.94013 8.1125,1.9312 23.975,5.73678 35.25,8.45684 21.4562,5.17625 41.7821,10.04061 60.75,14.53858 6.1875,1.46727 11.25,3.03764 11.25,3.48969 0,0.45205 -5.9625,2.24539 -13.25,3.98518 -7.2875,1.7398 -22.475,5.37633 -33.75,8.08118 -11.275,2.70485 -26.125,6.25559 -33,7.89052 -19.8343,4.71677 -36.2308,8.64336 -54,12.93176 -9.075,2.19015 -26.175,6.28558 -38,9.10096 -11.825,2.81537 -31.625,7.55153 -44,10.5248 -12.375,2.97326 -31.89375,7.65673 -43.375,10.40772 l -20.875,5.00178 -8.38632,-5.96014 C 908.7512,820.68206 904.76516,818 904.5058,818 c -0.25936,0 -11.99602,8.3891 -26.08146,18.64244 l -25.60989,18.64244 -12.40639,-12.3766 -12.4064,-12.37661 -3.73499,3.735 -3.735,3.73499 12.36666,12.39643 12.36667,12.39643 -4.3825,6.01045 c -16.45462,22.56696 -32.42947,44.70885 -32.68388,45.30139 -0.16576,0.38606 2.40921,4.49142 5.72217,9.12303 l 6.02355,8.4211 -5.01382,20.92475 C 812.17293,964.08386 807.48404,983.625 804.51078,996 c -2.97327,12.375 -7.65634,31.95 -10.40683,43.5 -9.42789,39.5901 -12.16559,51.0142 -14.61815,61 -1.35082,5.5 -6.53176,27.1 -11.5132,48 -4.98144,20.9 -10.42902,43.7375 -12.10573,50.75 -1.67672,7.0125 -3.41681,12.75 -3.86687,12.75 -0.45006,0 -2.24229,-5.9625 -3.98273,-13.25 z M 764.4603,1029 c 1.9075,-7.975 5.78778,-24.175 8.62283,-36 2.83505,-11.825 6.87067,-28.76343 8.96804,-37.64095 l 3.8134,-16.14096 -3.90598,-7.35904 c -3.76417,-7.09189 -3.90693,-7.71404 -3.93228,-17.13757 -0.024,-8.90878 0.24092,-10.30789 2.97817,-15.73036 1.65247,-3.27352 7.27747,-11.8223 12.5,-18.99728 C 798.72702,872.81885 803,866.58846 803,866.14852 c 0,-0.43994 -1.17054,-1.89083 -2.6012,-3.22421 -1.43066,-1.33337 -4.13066,-5.45058 -6,-9.14935 C 791.27951,847.60298 791,846.30568 791,838 c 0,-8.31911 0.27566,-9.593 3.41361,-15.77496 4.15065,-8.17704 10.03448,-14.00203 18.30787,-18.12478 5.57999,-2.78059 7.15499,-3.10026 15.27497,-3.10026 8.30972,0 9.60595,0.27922 15.77851,3.3988 3.69877,1.86934 7.81598,4.56934 9.14935,6 1.33338,1.43066 2.78681,2.6012 3.22985,2.6012 0.44304,0 6.59054,-4.23114 13.66111,-9.40252 7.07056,-5.17139 15.6168,-10.79639 18.99163,-12.5 5.63085,-2.84245 6.94118,-3.09531 15.91458,-3.07117 9.42719,0.0254 10.04351,0.16695 17.15385,3.94085 l 7.37533,3.91454 25.12467,-6.00104 c 13.81857,-3.30058 31.64967,-7.55182 39.62467,-9.4472 7.975,-1.89538 24.85,-5.92826 37.5,-8.96195 12.65,-3.03369 26.2625,-6.28214 30.25,-7.21877 3.9875,-0.93663 7.2499,-1.93917 7.2498,-2.22785 -2e-4,-0.28869 -8.2127,-2.48889 -18.25,-4.88934 -10.0374,-2.40045 -26.5748,-6.356 -36.7498,-8.79012 -10.175,-2.43412 -27.95,-6.68367 -39.5,-9.44345 -11.55,-2.75978 -26.42403,-6.33198 -33.05339,-7.93824 l -12.05339,-2.92046 -7.44661,3.95205 c -7.19111,3.81645 -7.78212,3.95296 -17.22513,3.97836 -8.90878,0.024 -10.30789,-0.24092 -15.73036,-2.97817 -3.27352,-1.65247 -11.8223,-7.27747 -18.99728,-12.5 C 862.81885,715.27298 856.58846,711 856.14852,711 c -0.43994,0 -1.89083,1.17054 -3.22421,2.6012 -1.33337,1.43066 -5.45058,4.13066 -9.14935,6 -6.17256,3.11958 -7.46879,3.3988 -15.77851,3.3988 -8.11998,0 -9.69498,-0.31967 -15.27497,-3.10026 -8.27339,-4.12275 -14.15722,-9.94774 -18.30787,-18.12478 C 791.27566,695.593 791,694.31911 791,686 c 0,-8.30568 0.27951,-9.60298 3.3988,-15.77496 1.86934,-3.69877 4.56934,-7.81598 6,-9.14935 1.43066,-1.33338 2.6012,-2.78427 2.6012,-3.22421 0,-0.43994 -4.27298,-6.67033 -9.49552,-13.84532 -5.22253,-7.17498 -10.84753,-15.72376 -12.5,-18.99728 -2.73725,-5.42247 -3.00214,-6.82158 -2.97817,-15.73036 0.0254,-9.44339 0.16178,-10.03379 3.97928,-17.22688 l 3.95297,-7.44835 -2.4282,-10.05165 C 779.99887,559.93287 768.49868,511.92949 764.35235,494.5 c -7.83299,-32.92673 -11.63519,-48.03466 -12.26571,-48.73749 -0.3639,-0.40562 -2.60687,7.46938 -4.9844,17.5 -6.80638,28.71568 -12.76156,53.68448 -17.58673,73.73749 -2.44832,10.175 -6.01476,25.08019 -7.92542,33.12264 l -3.47393,14.62263 3.91561,7.37737 c 3.77511,7.11264 3.91656,7.72824 3.94192,17.15588 0.024,8.90878 -0.24092,10.30789 -2.97817,15.73036 -1.65247,3.27352 -7.27747,11.8223 -12.5,18.99728 C 705.27298,651.18115 701,657.41154 701,657.85148 c 0,0.43994 1.17054,1.89083 2.6012,3.22421 1.43066,1.33337 4.13066,5.45058 6,9.14935 C 712.72049,676.39702 713,677.69432 713,686 c 0,8.31911 -0.27566,9.593 -3.41361,15.77496 -4.15065,8.17704 -10.03448,14.00203 -18.30787,18.12478 -5.57999,2.78059 -7.15499,3.10026 -15.27497,3.10026 -8.30972,0 -9.60595,-0.27922 -15.77851,-3.3988 -3.69877,-1.86934 -7.81598,-4.56934 -9.14935,-6 -1.33338,-1.43066 -2.78427,-2.6012 -3.22421,-2.6012 -0.43994,0 -6.67033,4.27298 -13.84532,9.49552 -7.17498,5.22253 -15.72376,10.84753 -18.99728,12.5 -5.42247,2.73725 -6.82158,3.00214 -15.73036,2.97817 -9.44339,-0.0254 -10.03379,-0.16178 -17.22688,-3.97928 l -7.44835,-3.95297 -10.05165,2.4282 c -13.4604,3.25166 -61.39482,14.73844 -80.05164,19.1832 -36.72573,8.74947 -48.04802,11.58892 -48.72341,12.21904 -0.39787,0.37121 7.47713,2.62095 17.5,4.99943 18.79397,4.45989 46.90912,11.17991 75.72341,18.09924 9.075,2.17923 23.08019,5.52622 31.12264,7.43776 l 14.62263,3.47553 7.37737,-3.91561 c 7.11264,-3.77511 7.72824,-3.91656 17.15588,-3.94192 8.90878,-0.024 10.30789,0.24092 15.73036,2.97817 3.27352,1.65247 11.8223,7.27747 18.99728,12.5 7.17499,5.22254 13.40538,9.49552 13.84532,9.49552 0.43994,0 1.89083,-1.17054 3.22421,-2.6012 1.33337,-1.43066 5.45058,-4.13066 9.14935,-6 6.17256,-3.11958 7.46879,-3.3988 15.77851,-3.3988 8.11998,0 9.69498,0.31967 15.27497,3.10026 8.27339,4.12275 14.15722,9.94774 18.30787,18.12478 C 712.72434,828.407 713,829.68089 713,838 c 0,8.30568 -0.27951,9.60298 -3.3988,15.77496 -1.86934,3.69877 -4.56934,7.81598 -6,9.14935 -1.43066,1.33338 -2.6012,2.78681 -2.6012,3.22985 0,0.44304 4.23114,6.59054 9.40252,13.66111 5.17139,7.07056 10.79639,15.6168 12.5,18.99163 2.84245,5.63085 3.09531,6.94118 3.07117,15.91458 -0.0254,9.44339 -0.16178,10.03379 -3.97928,17.22688 l -3.95297,7.44835 2.4282,10.05165 c 3.65804,15.14263 15.13608,63.05964 19.17557,80.05164 6.05193,25.4573 11.36876,46.9285 12.00986,48.5 0.55938,1.3712 2.89311,-7.5589 12.80523,-49 z M 736.5,831.86128 c -4.7081,-2.38743 -10.80648,-7.8138 -28.32289,-25.20191 C 689.374,787.994 685.31384,783.43962 682.42711,777.77496 679.27187,771.58341 679,770.33173 679,761.99645 c 0,-14.40651 1.6063,-16.89022 28.33951,-43.81934 18.66553,-18.80233 23.2211,-22.86339 28.88553,-25.75 C 742.41601,689.27216 743.66876,689 752,689 c 8.33124,0 9.58399,0.27216 15.77496,3.42711 5.66443,2.88661 10.22,6.94767 28.88553,25.75 C 823.3937,745.10623 825,747.58994 825,761.99645 c 0,8.33528 -0.27187,9.58696 -3.42711,15.77851 -2.88661,5.66443 -6.94767,10.22 -25.75,28.88553 -27.05769,26.86084 -29.40298,28.36731 -44.04437,28.29141 -8.30481,-0.043 -9.90817,-0.36739 -15.27852,-3.09062 z m 37.50292,-48.36421 21.48548,-21.50292 -21.7442,-21.7442 -21.7442,-21.7442 -21.7442,21.7442 -21.7442,21.7442 21.48548,21.50292 C 741.81409,795.32368 751.71541,805 752,805 c 0.28459,0 10.18591,-9.67632 22.00292,-21.50293 z m 43.61921,374.30193 c 10.93115,-45.3095 18.15371,-75.4083 24.42782,-101.799 9.13447,-38.4221 17.26785,-72.27574 22.58366,-94 3.93938,-16.09916 4.77982,-21.15682 4.81897,-29 0.0261,-5.225 -0.26515,-10.89408 -0.64717,-12.59795 -0.62252,-2.77653 0.16639,-4.27022 7.60367,-14.39633 7.37637,-10.0432 9.55344,-12.22027 19.59664,-19.59664 10.12611,-7.43728 11.6198,-8.22619 14.39633,-7.60367 1.70387,0.38202 7.37295,0.67325 12.59795,0.64717 7.84566,-0.0392 12.89576,-0.87883 29,-4.82176 20.17119,-4.93866 54.9013,-13.2764 96.5,-23.167 13.2,-3.13846 33.9,-8.10108 46,-11.02805 12.1,-2.92697 34.6,-8.29963 50,-11.93923 15.4,-3.63961 28.7316,-6.82786 29.6259,-7.085 1.4537,-0.41803 1.3819,0.90193 -0.678,12.46781 -7.8774,44.2279 -25.3613,94.31758 -45.5566,130.51525 -19.052,34.14847 -47.2751,71.7887 -73.4891,98.0101 -24.6654,24.6725 -61.03474,52.3269 -92.9022,70.6408 -37.10724,21.3251 -89.75052,40.2874 -133,47.9071 -6.6,1.1628 -13.17509,2.3462 -14.61132,2.6298 l -2.61132,0.5156 z M 845,1166.8703 c 37.68829,-8.8147 79.82347,-24.8542 108.52939,-41.3137 42.97969,-24.6439 83.11181,-57.2753 112.28711,-91.3006 42.6549,-49.74545 68.2178,-95.85868 86.0666,-155.256 5.3439,-17.78359 11.6142,-44 10.5237,-44 -0.4673,0 -42.739,10.05605 -67.4068,16.03547 -11.275,2.73303 -31.975,7.69338 -46,11.02299 -38.7124,9.19056 -72.3798,17.28279 -94,22.59369 -17.56815,4.31553 -20.80912,4.81585 -32.71423,5.05023 l -13.21424,0.26016 -8.50538,6.26873 c -6.31368,4.65338 -10.08857,8.43817 -14.64929,14.68772 l -6.14392,8.41898 0.15839,10.66498 c 0.17543,11.81229 0.0942,12.24809 -10.43232,55.99705 -3.63927,15.125 -8.80583,36.725 -11.48126,48 -2.67543,11.275 -8.32608,34.9 -12.55701,52.5 -4.23092,17.6 -9.40163,39.2 -11.49047,48 -2.08884,8.8 -4.89972,20.6213 -6.24641,26.2695 l -2.44852,10.2695 3.61233,-0.6226 c 1.98678,-0.3424 9.23733,-1.9381 16.11233,-3.5461 z m 8.52351,-26.1527 c 0.36749,-1.7697 3.26903,-14.0176 6.44786,-27.2176 3.17883,-13.2 8.34898,-34.8 11.48921,-48 9.72557,-40.8815 18.19164,-76.16317 23.15579,-96.5 3.89883,-15.9725 4.83429,-21.5895 5.1712,-31.05072 0.40139,-11.27178 0.49357,-11.66406 3.8175,-16.24437 1.87341,-2.58151 5.54116,-6.26003 8.15056,-8.17449 4.6189,-3.38879 4.9956,-3.48173 14.24437,-3.51469 10.13636,-0.0361 11.36007,-0.27662 56,-11.0059 14.025,-3.37093 33.825,-8.10061 44,-10.51039 10.175,-2.40978 34.7,-8.2812 54.5,-13.0476 47.4415,-11.42048 53.5106,-12.77457 54.1938,-12.09136 0.7605,0.76052 -9.1587,30.94348 -15.1631,46.13952 -16.48,41.70772 -42.8474,82.59398 -78.356,121.5016 -28.7425,31.4937 -75.96064,66.6902 -114.6747,85.4785 -19.05899,9.2495 -45.81165,19.3966 -68.32233,25.9141 l -5.32234,1.541 z M 679,1181.3894 c -44.98773,-8.5166 -93.99813,-25.7498 -129.3946,-45.4981 -34.15213,-19.0541 -71.80843,-47.2899 -98.00761,-73.4891 C 425.39862,1036.203 397.16278,998.54673 378.10871,964.3946 362.10265,935.70567 346.14273,893.84856 337.54029,857.99824 334.75229,846.3794 331,826.69156 331,823.68211 c 0,-2.26688 -1.98179,-2.57546 24.5,3.81492 10.45,2.52172 24.4,5.85476 31,7.40676 11.23179,2.64118 56.93382,13.57697 84,20.09991 6.6,1.5906 22.575,5.41629 35.5,8.50155 12.925,3.08525 32.95,7.92621 44.5,10.7577 17.584,4.31071 22.54533,5.15538 30.5,5.1926 5.225,0.0245 10.89408,-0.26812 12.59795,-0.65014 2.77653,-0.62252 4.27022,0.16639 14.39633,7.60367 10.06371,7.39143 12.21267,9.5431 19.66499,19.68969 5.23236,7.12404 8.14085,11.95518 7.76398,12.89633 -0.33144,0.82769 -0.85008,4.97071 -1.15252,9.2067 -0.61044,8.54956 0.0147,12.47025 5.86687,36.7982 12.48832,51.9145 16.24676,67.5861 20.86484,87 2.81287,11.825 6.68676,28.025 8.60864,36 9.12759,37.8757 21.07712,88.0237 21.86269,91.75 0.64843,3.0759 0.53355,3.2449 -2.14431,3.1546 -1.55621,-0.052 -6.20446,-0.7343 -10.32946,-1.5152 z m -2.68551,-20.6394 c -1.34953,-5.6375 -4.23784,-17.675 -6.41845,-26.75 -2.18061,-9.075 -5.29237,-22.125 -6.91501,-29 -1.62265,-6.875 -5.2306,-21.95 -8.01767,-33.5 -2.78707,-11.55 -7.04166,-29.325 -9.45466,-39.5 -4.98073,-21.0025 -11.8408,-49.44076 -17.24774,-71.5 -3.12955,-12.76795 -3.71733,-16.96575 -3.95003,-28.21037 l -0.27337,-13.21037 -6.04917,-8.28963 c -4.45805,-6.10921 -8.28071,-9.93437 -14.53318,-14.5427 l -8.48402,-6.25306 -13.7356,-0.34959 c -11.44997,-0.29142 -15.81561,-0.8841 -26.23559,-3.56174 -6.875,-1.76668 -20.825,-5.18085 -31,-7.58705 -24.36364,-5.76155 -48.79788,-11.60318 -92,-21.99497 -19.525,-4.69652 -41.125,-9.86807 -48,-11.49233 -6.875,-1.62426 -18.83831,-4.45443 -26.58513,-6.28927 l -14.08514,-3.33607 0.84872,4.55857 c 4.98781,26.79035 18.21703,67.47838 31.24185,96.08797 22.09993,48.54351 63.35162,102.85251 105.5797,138.99871 12.57119,10.7606 37.0461,29.1553 49.5,37.2028 42.97684,27.7711 88.42341,45.86 146,58.1115 1.1,0.2341 2.06034,0.4778 2.1341,0.5416 0.0738,0.064 -0.97007,-4.4965 -2.31961,-10.134 z M 632.5,1137.581 c -32.40196,-10.7594 -55.83282,-21.2581 -79.77621,-35.7455 -31.11004,-18.8236 -66.34791,-47.2205 -87.89848,-70.8339 C 429.31386,992.09087 402.93177,951.18047 386.472,909.5 381.88816,897.89251 371,865.80037 371,863.8973 c 0,-0.51447 1.0125,-0.7059 2.25,-0.4254 1.2375,0.2805 9.675,2.28883 18.75,4.46295 9.075,2.17412 32.7,7.8208 52.5,12.54817 67.40615,16.09362 77.4974,18.51634 98.75,23.70807 17.72556,4.33012 23.16576,5.25882 32.80072,5.59945 11.27393,0.39856 11.66319,0.48997 16.24437,3.81453 2.58151,1.87341 6.21953,5.50882 8.08449,8.0787 3.31172,4.56348 3.4026,4.95417 3.89496,16.74437 0.44913,10.75491 1.39543,15.72647 8.67424,45.57186 4.49356,18.425 10.36224,42.725 13.0415,54 2.67927,11.275 7.19557,30.175 10.03623,42 2.84066,11.825 6.20832,26 7.48368,31.5 1.27536,5.5 3.2092,13.6 4.29741,18 3.33057,13.4665 3.33609,13.5044 1.96145,13.447 -0.69798,-0.029 -8.46905,-2.4439 -17.26905,-5.366 z M 330.41536,700.12171 c 0.28485,-1.44194 1.46928,-8.02171 2.63206,-14.62171 7.61963,-43.24948 26.58194,-95.89276 47.9071,-133 18.31391,-31.86746 45.96831,-68.23677 70.64075,-92.90221 26.22144,-26.214 63.86166,-54.43706 98.01013,-73.48908 28.80482,-16.07072 70.52767,-31.96074 106.73726,-40.65058 C 665.97662,343.14611 693,337.97149 693,338.43875 c 0,0.22611 -13.41553,56.148 -20.04615,83.56125 -2.72716,11.275 -7.68112,31.975 -11.0088,46 -9.24804,38.97715 -16.29709,68.33229 -22.092,92 -4.42125,18.05741 -5.27126,23.02114 -5.3086,31 -0.0245,5.225 0.26812,10.89408 0.65014,12.59795 0.62252,2.77653 -0.16639,4.27022 -7.60367,14.39633 -7.39143,10.06371 -9.5431,12.21267 -19.68969,19.66499 -7.12404,5.23236 -11.95518,8.14085 -12.89633,7.76398 -0.82769,-0.33144 -4.97071,-0.85008 -9.2067,-1.15252 -8.54956,-0.61044 -12.47025,0.0147 -36.7982,5.86687 -52.29399,12.5796 -67.96832,16.33718 -91,21.81529 -31.30041,7.44483 -68.16947,16.29221 -102.30128,24.54899 l -25.80128,6.24155 z M 379.5,680.02556 c 8.8,-2.10937 30.4,-7.28755 48,-11.50706 17.6,-4.21951 41.225,-9.86177 52.5,-12.53835 23.60413,-5.6034 51.92038,-12.42981 73.5,-17.71919 12.76795,-3.12955 16.96575,-3.71733 28.21037,-3.95003 l 13.21037,-0.27337 8.28963,-6.04917 c 6.11542,-4.46258 9.9338,-8.27996 14.55836,-14.55454 l 6.26873,-8.50538 0.25718,-13.21424 c 0.23554,-12.10198 0.70183,-15.02391 5.53987,-34.71423 5.68253,-23.1273 12.48454,-51.42988 22.11054,-92 3.32768,-14.025 8.28645,-34.725 11.01948,-46 C 668.94395,394.33219 679,352.06052 679,351.59324 c 0,-1.09053 -26.21641,5.17979 -44,10.5237 -59.39732,17.84873 -105.51055,43.4117 -155.25604,86.06651 -41.52352,35.60481 -82.35687,89.53611 -104.32366,137.78716 -13.36892,29.36543 -27.27048,72.66083 -31.84191,99.16932 l -0.62772,3.63992 10.27467,-2.45953 C 358.8764,684.96758 370.7,682.13494 379.5,680.02556 Z M 371.62729,655.75 c 6.48792,-22.41646 16.65471,-49.215 25.89259,-68.25 18.78833,-38.71406 53.98477,-85.93224 85.47854,-114.67469 C 521.90913,437.31386 562.81953,410.93177 604.5,394.472 616.39098,389.77621 648.21739,379 650.19494,379 c 1.34778,0 0.84349,2.58498 -6.14523,31.5 -3.19042,13.2 -8.3688,34.8 -11.50751,48 -10.67011,44.87377 -17.40747,72.95702 -22.67118,94.5 -4.39196,17.97515 -5.32015,23.3937 -5.66156,33.05072 -0.39856,11.27393 -0.48997,11.66319 -3.81453,16.24437 -1.87341,2.58151 -5.50882,6.21953 -8.0787,8.08449 -4.56348,3.31172 -4.95417,3.4026 -16.74437,3.89496 -10.75491,0.44913 -15.72647,1.39543 -45.57186,8.67424 -18.425,4.49356 -42.725,10.35886 -54,13.034 -28.79859,6.83283 -81.50311,19.42803 -94,22.46388 -5.775,1.40291 -10.81324,2.55133 -11.1961,2.55205 -0.38285,7.1e-4 -0.0123,-2.36121 0.82339,-5.24871 z M 1159,699.06076 c -18.1753,-4.39792 -50.6649,-12.20813 -67,-16.10621 -6.325,-1.50935 -20.275,-4.84719 -31,-7.41744 -10.725,-2.57024 -28.725,-6.8719 -40,-9.55924 -11.275,-2.68733 -29.05,-6.95123 -39.5,-9.47532 -50.04506,-12.08788 -53.41015,-12.74535 -62.5,-12.21132 -4.675,0.27466 -9.18265,0.7794 -10.017,1.12165 -0.96604,0.39627 -5.63283,-2.39483 -12.84924,-7.68485 -10.10831,-7.40993 -12.23355,-9.5343 -19.67758,-19.66962 -7.48174,-10.18665 -8.27348,-11.68309 -7.65077,-14.46046 1.77943,-7.93646 0.61661,-21.92022 -3.08488,-37.09795 -5.76662,-23.6457 -12.41566,-51.24041 -17.71006,-73.5 -2.68174,-11.275 -6.98932,-29.275 -9.57241,-40 -4.39878,-18.26379 -6.22515,-25.91118 -12.77701,-53.5 -1.43677,-6.05 -5.30434,-22.23144 -8.59459,-35.95875 -3.29026,-13.72732 -5.85416,-25.08689 -5.69756,-25.24349 0.67432,-0.67431 30.38812,5.17072 44.1311,8.68108 67.92434,17.34985 122.93785,46.18582 177.6483,93.11643 41.5611,35.65105 80.8489,86.97442 104.4172,136.40473 15.6981,32.92416 29.4431,75.26162 35.3871,109 1.1628,6.6 2.3599,13.2375 2.6602,14.75 0.3004,1.5125 0.1729,2.70755 -0.2833,2.65567 -0.4562,-0.0519 -7.8045,-1.7821 -16.3295,-3.84491 z m 3.4423,-13.81076 c -4.6153,-26.6938 -18.4687,-69.85904 -31.8626,-99.27939 C 1108.6129,537.71956 1067.7796,483.78826 1026.256,448.18345 976.51248,405.5303 930.44617,379.9923 871,362.11343 c -19.65148,-5.91032 -46,-11.97048 -46,-10.57999 0,0.34324 2.50034,11.05113 5.55631,23.79531 3.05597,12.74419 6.68485,27.89625 8.06418,33.67125 1.37933,5.775 4.02772,16.8 5.88531,24.5 1.8576,7.7 5.67889,23.675 8.49176,35.5 4.77698,20.08193 12.00267,50.1961 20.51514,85.5 6.00099,24.88799 6.57796,28.44589 6.41535,39.56044 l -0.1545,10.56043 6.26383,8.61384 c 4.75834,6.54353 8.30398,10.10151 14.75221,14.80354 l 8.48839,6.1897 10.77177,-0.15998 c 11.50387,-0.17085 15.27366,0.55647 64.45025,12.43458 10.45,2.52409 28.225,6.78799 39.5,9.47532 11.275,2.68734 29.275,6.98879 40,9.55878 10.725,2.56999 24.9,5.95929 31.5,7.53177 16.5172,3.93529 48.427,11.6351 57.5,13.87473 10.5462,2.60326 10.196,2.66606 9.4423,-1.69315 z M 1107,654.88066 c -15.675,-3.77094 -39.975,-9.595 -54,-12.94235 -14.025,-3.34735 -42.15,-10.08298 -62.5,-14.96806 C 937.60626,614.27293 936.24058,614 925.60038,614 h -9.42078 l -5.01956,-3.96773 c -2.76075,-2.18225 -6.34318,-5.89475 -7.96095,-8.25 -2.75058,-4.00448 -2.9753,-5.06072 -3.46399,-16.28227 -0.46222,-10.61359 -1.46601,-15.8704 -8.68829,-45.5 -4.49113,-18.425 -10.35783,-42.725 -13.03709,-54 -2.67927,-11.275 -7.19225,-30.175 -10.02886,-42 -2.8366,-11.825 -6.43639,-26.9 -7.99953,-33.5 -1.56314,-6.6 -3.94976,-16.62739 -5.30362,-22.28308 -2.1728,-9.07689 -2.26895,-10.22832 -0.81963,-9.81616 54.32576,15.44899 93.23558,34.47658 134.64192,65.84226 33.7047,25.53162 55.3612,47.123 80.861,80.6178 24.2507,31.85419 40.3889,61.08175 53.912,97.63918 5.2469,14.18405 13.0486,38.56811 12.4863,39.02583 -0.1426,0.1161 -13.0843,-2.87423 -28.7593,-6.64517 z M 382.97792,1130.25 374.5,1121.5 l 8.75,8.4779 c 8.12674,7.8741 9.20553,9.0221 8.47792,9.0221 -0.14964,0 -4.08714,-3.9375 -8.75,-8.75 z M 1122,1130.5 c 4.6507,-4.675 8.6808,-8.5 8.9558,-8.5 0.275,0 -3.3051,3.825 -7.9558,8.5 -4.6507,4.675 -8.6808,8.5 -8.9558,8.5 -0.275,0 3.3051,-3.825 7.9558,-8.5 z M 230.27236,772 c 0,-2.475 0.19502,-3.4875 0.43337,-2.25 0.23836,1.2375 0.23836,3.2625 0,4.5 -0.23835,1.2375 -0.43337,0.225 -0.43337,-2.25 z m 0,-22 c 0,-2.475 0.19502,-3.4875 0.43337,-2.25 0.23836,1.2375 0.23836,3.2625 0,4.5 -0.23835,1.2375 -0.43337,0.225 -0.43337,-2.25 z M 383,391.5 c 4.65071,-4.675 8.68084,-8.5 8.95584,-8.5 0.275,0 -3.30513,3.825 -7.95584,8.5 -4.65071,4.675 -8.68084,8.5 -8.95584,8.5 -0.275,0 3.30513,-3.825 7.95584,-8.5 z m 738.9779,-0.25 -8.4779,-8.75 8.75,8.47792 c 8.1267,7.87404 9.2055,9.02208 8.4779,9.02208 -0.1496,0 -4.0871,-3.9375 -8.75,-8.75 z M 739.75,238.29427 c 1.2375,-0.23836 3.2625,-0.23836 4.5,0 1.2375,0.23835 0.225,0.43337 -2.25,0.43337 -2.475,0 -3.4875,-0.19502 -2.25,-0.43337 z m 22,0 c 1.2375,-0.23836 3.2625,-0.23836 4.5,0 1.2375,0.23835 0.225,0.43337 -2.25,0.43337 -2.475,0 -3.4875,-0.19502 -2.25,-0.43337 z"
         id="path841" />
      <path
         style="fill:#000000"
         d="M 729.5,1282.9689 C 654.63918,1279.5012 584.34395,1260.9742 517,1226.9624 465.54319,1200.9743 426.00874,1172.2017 383.90354,1130.0965 341.79833,1087.9913 313.02565,1048.4568 287.03759,997 255.46927,934.4942 238.12266,872.64591 231.92514,800.5 c -2.39636,-27.89631 -1.26763,-72.85328 2.61111,-104 11.14039,-89.45842 45.62272,-175.33837 99.37568,-247.5 15.51992,-20.83499 28.1133,-35.21815 49.99161,-57.09646 21.87831,-21.87831 36.26147,-34.47169 57.09646,-49.99161 72.16163,-53.75296 158.04158,-88.23529 247.5,-99.37568 41.54247,-5.17334 87.45753,-5.17334 129,0 89.45842,11.14039 175.33837,45.62272 247.5,99.37568 20.835,15.51992 35.2181,28.1133 57.0965,49.99161 21.8783,21.87831 34.4717,36.26147 49.9916,57.09646 48.5521,65.17967 82.1788,143.46484 95.7878,223 5.3611,31.33262 5.6241,35.49373 5.6241,89 0,53.50627 -0.263,57.66738 -5.6241,89 -13.609,79.53516 -47.2357,157.8203 -95.7878,223 -15.5199,20.835 -28.1133,35.2181 -49.9916,57.0965 -21.8784,21.8783 -36.2615,34.4717 -57.0965,49.9916 -96.17973,71.6439 -216.08348,108.4123 -335.5,102.8808 z m 62.84125,-25.4646 c 64.29046,-5.6714 121.46754,-21.3682 178.15875,-48.9099 23.01618,-11.1817 36.0977,-18.6152 56.5,-32.1058 65.2071,-43.1169 119.5093,-100.8334 158.0508,-167.9886 26.5342,-46.23346 47.8063,-104.09186 57.4367,-156.22268 C 1248.4963,819.75049 1249,812.69063 1249,761 c 0,-51.69063 -0.5037,-58.75049 -6.5125,-91.27732 -9.6304,-52.13082 -30.9025,-109.98922 -57.4367,-156.22268 -27.1899,-47.37599 -66.0345,-94.47238 -106.4025,-129.00583 -51.3541,-43.93165 -107.59383,-75.72187 -171.02271,-96.67272 -100.04996,-33.04695 -209.20122,-33.04695 -309.25118,0 -63.42888,20.95085 -119.66864,52.74107 -171.02273,96.67272 -33.2686,28.46015 -64.26202,63.82296 -89.84031,102.50583 -13.49058,20.40225 -20.92411,33.48382 -32.10581,56.5 -56.87769,117.07585 -66.00026,249.76533 -25.58411,372.12559 20.95085,63.42888 52.74107,119.66861 96.67272,171.02271 28.46015,33.2686 63.82296,64.262 102.50583,89.8403 20.40225,13.4906 33.48382,20.9241 56.5,32.1058 56.00481,27.2082 113.30434,43.033 177,48.8831 19.66562,1.8061 59.51894,1.8195 79.84125,0.027 z M 715.5,1247.4775 c -62.75235,-5.7635 -120.67654,-21.6145 -175,-47.889 C 442.93388,1152.3989 361.60108,1071.0661 314.41152,973.5 282.49536,907.51218 265.01004,832.29923 265.01004,761 c 0,-71.29923 17.48532,-146.51218 49.40148,-212.5 C 361.60108,450.93388 442.93388,369.60108 540.5,322.41152 606.48782,290.49536 681.70077,273.01004 753,273.01004 c 71.29923,0 146.51218,17.48532 212.5,49.40148 97.5661,47.18956 178.8989,128.52236 226.0885,226.08848 23.1866,47.9392 38.1421,98.26488 45.4278,152.86637 1.7273,12.94511 1.9837,20.65192 1.9837,59.63363 0,48.37481 -0.571,56.11473 -6.5125,88.27732 -9.4902,51.37204 -30.2197,108.29416 -55.4356,152.22268 -49.1212,85.574 -124.1215,155.8012 -211.5519,198.0885 -66.89626,32.3555 -142.24391,49.669 -214.5,49.2881 -11.825,-0.062 -27.8,-0.6919 -35.5,-1.3991 z m 70.84125,-9.9732 c 51.54219,-4.5468 97.62379,-15.3695 144.65875,-33.9744 47.0571,-18.6137 91.2429,-45.7338 133.6481,-82.0299 47.5347,-40.6867 91.1049,-97.2123 117.9328,-153 22.2994,-46.37068 37.2778,-97.22497 44.4354,-150.86637 C 1228.7256,804.8236 1229,796.98994 1229,761 c 0,-35.98994 -0.2744,-43.8236 -1.9837,-56.63363 -7.1576,-53.6414 -22.136,-104.49569 -44.4354,-150.86637 -26.8279,-55.7877 -70.3981,-112.31333 -117.9328,-153 C 1022.2429,364.20394 978.0571,337.08377 931,318.47009 883.96504,299.86516 837.88344,289.04249 786.34125,284.49569 710.61366,277.81537 620.429,295.38615 545.5,331.41905 489.7123,358.24702 433.18667,401.81715 392.5,449.35192 356.20394,491.75709 329.08377,535.9429 310.47009,583 c -18.60493,47.03496 -29.4276,93.11656 -33.9744,144.65875 -6.68032,75.72759 10.89046,165.91225 46.92336,240.84125 21.70165,45.1277 55.53698,92.4556 92.58119,129.4998 37.04421,37.0442 84.37204,70.8795 129.49976,92.5811 74.79901,35.9704 165.24503,53.5921 240.84125,46.9234 z"
         id="path839" />
    </g>
  </g>
</svg>
