<?xml version="1.0" encoding="UTF-8" standalone="no"?>
<svg
   xmlns:dc="http://purl.org/dc/elements/1.1/"
   xmlns:cc="http://creativecommons.org/ns#"
   xmlns:rdf="http://www.w3.org/1999/02/22-rdf-syntax-ns#"
   xmlns:svg="http://www.w3.org/2000/svg"
   xmlns="http://www.w3.org/2000/svg"
   xmlns:sodipodi="http://sodipodi.sourceforge.net/DTD/sodipodi-0.dtd"
   xmlns:inkscape="http://www.inkscape.org/namespaces/inkscape"
   version="1.1"
   id="svg2"
   width="1043.8228"
   height="1045.7148"
   viewBox="0 0 1043.8228 1045.7148"
   sodipodi:docname="Malvindaar.svg"
   inkscape:version="1.0.1 (3bc2e813f5, 2020-09-07)">
  <metadata
     id="metadata8">
    <rdf:RDF>
      <cc:Work
         rdf:about="">
        <dc:format>image/svg+xml</dc:format>
        <dc:type
           rdf:resource="http://purl.org/dc/dcmitype/StillImage" />
        <dc:title></dc:title>
      </cc:Work>
    </rdf:RDF>
  </metadata>
  <defs
     id="defs6" />
  <sodipodi:namedview
     pagecolor="#ffffff"
     bordercolor="#666666"
     borderopacity="1"
     objecttolerance="10"
     gridtolerance="10"
     guidetolerance="10"
     inkscape:pageopacity="0"
     inkscape:pageshadow="2"
     inkscape:window-width="1920"
     inkscape:window-height="1057"
     id="namedview4"
     showgrid="false"
     inkscape:pagecheckerboard="true"
     inkscape:zoom="0.49"
     inkscape:cx="519.84211"
     inkscape:cy="511.87277"
     inkscape:window-x="-8"
     inkscape:window-y="-8"
     inkscape:window-maximized="1"
     inkscape:current-layer="g10" />
  <g
     inkscape:groupmode="layer"
     inkscape:label="Image"
     id="g10"
     transform="translate(-230.15789,-238.12723)">
    <circle
       style="fill:#ffffff;fill-rule:evenodd"
       id="path24"
       cx="753"
       cy="764"
       r="508.22449" />
    <g
       id="g14">
      <path
         style="fill:#fdca57"
         d="m 731.75,1283.3377 c 0.6875,-0.2774 1.8125,-0.2774 2.5,0 0.6875,0.2774 0.125,0.5044 -1.25,0.5044 -1.375,0 -1.9375,-0.227 -1.25,-0.5044 z m 40,0 c 0.6875,-0.2774 1.8125,-0.2774 2.5,0 0.6875,0.2774 0.125,0.5044 -1.25,0.5044 -1.375,0 -1.9375,-0.227 -1.25,-0.5044 z M 395.87244,1143.25 c -1.24387,-1.5861 -1.2085,-1.6214 0.37756,-0.3776 0.9625,0.7549 1.75,1.5424 1.75,1.75 0,0.8231 -0.82119,0.2933 -2.12756,-1.3724 z M 1108,1144.6224 c 0,-0.2076 0.7875,-0.9951 1.75,-1.75 1.5861,-1.2438 1.6214,-1.2085 0.3776,0.3776 -1.3064,1.6657 -2.1276,2.1955 -2.1276,1.3724 z M 369.87244,1117.25 c -1.24387,-1.5861 -1.2085,-1.6214 0.37756,-0.3776 1.66575,1.3064 2.19548,2.1276 1.37244,2.1276 -0.20765,0 -0.99515,-0.7875 -1.75,-1.75 z M 1134,1118.6224 c 0,-0.2076 0.7875,-0.9951 1.75,-1.75 1.5861,-1.2438 1.6214,-1.2085 0.3776,0.3776 -1.3064,1.6657 -2.1276,2.1955 -2.1276,1.3724 z M 982.232,1108 c 0,-1.925 0.2058,-2.7125 0.45733,-1.75 0.25152,0.9625 0.25152,2.5375 0,3.5 -0.25153,0.9625 -0.45733,0.175 -0.45733,-1.75 z m -129.35956,-1.75 c -1.24387,-1.5861 -1.2085,-1.6214 0.37756,-0.3776 0.9625,0.7549 1.75,1.5424 1.75,1.75 0,0.8231 -0.82119,0.2933 -2.12756,-1.3724 z M 884.75,1088.3377 c 0.6875,-0.2774 1.8125,-0.2774 2.5,0 0.6875,0.2774 0.125,0.5044 -1.25,0.5044 -1.375,0 -1.9375,-0.227 -1.25,-0.5044 z M 1001.2724,1077 c 0,-2.475 0.195,-3.4875 0.4333,-2.25 0.2384,1.2375 0.2384,3.2625 0,4.5 -0.2383,1.2375 -0.4333,0.225 -0.4333,-2.25 z M 952.25,1065.2837 c 1.5125,-0.2291 3.9875,-0.2291 5.5,0 1.5125,0.2292 0.275,0.4166 -2.75,0.4166 -3.025,0 -4.2625,-0.1874 -2.75,-0.4166 z m -27.48834,-1.991 c 1.24391,-0.2392 3.04391,-0.2301 4,0.02 0.95609,0.2503 -0.0617,0.446 -2.26166,0.4349 -2.2,-0.011 -2.98225,-0.2159 -1.73834,-0.4551 z M 831.25,1046.2837 c 1.5125,-0.2291 3.9875,-0.2291 5.5,0 1.5125,0.2292 0.275,0.4166 -2.75,0.4166 -3.025,0 -4.2625,-0.1874 -2.75,-0.4166 z m 182.75,-0.6613 c 0,-0.2076 0.7875,-0.9951 1.75,-1.75 1.5861,-1.2438 1.6214,-1.2085 0.3776,0.3776 -1.3064,1.6657 -2.1276,2.1955 -2.1276,1.3724 z m -168.1875,-1.3055 c 0.72187,-0.2889 1.58438,-0.2534 1.91667,0.079 0.33229,0.3323 -0.25834,0.5687 -1.3125,0.5253 -1.16495,-0.048 -1.4019,-0.285 -0.60417,-0.6042 z M 1011,1038.5 c 1.2917,-1.375 2.5736,-2.5 2.8486,-2.5 0.275,0 -0.5569,1.125 -1.8486,2.5 -1.2917,1.375 -2.5736,2.5 -2.8486,2.5 -0.275,0 0.5569,-1.125 1.8486,-2.5 z m -103.73097,0.807 c 0.97297,-0.2535 2.32297,-0.2369 3,0.037 0.67703,0.2739 -0.11903,0.4813 -1.76903,0.461 -1.65,-0.02 -2.20394,-0.2445 -1.23097,-0.4981 z m -114.39659,-3.057 c -1.24387,-1.5861 -1.2085,-1.6214 0.37756,-0.3776 1.66575,1.3064 2.19548,2.1276 1.37244,2.1276 -0.20765,0 -0.99515,-0.7875 -1.75,-1.75 z M 1024,1035.6224 c 0,-0.2076 0.7875,-0.9951 1.75,-1.75 1.5861,-1.2438 1.6214,-1.2085 0.3776,0.3776 -1.3064,1.6657 -2.1276,2.1955 -2.1276,1.3724 z m -93,-4 c 0,-0.2076 0.7875,-0.9951 1.75,-1.75 1.58606,-1.2438 1.62143,-1.2085 0.37756,0.3776 -1.30637,1.6657 -2.12756,2.1955 -2.12756,1.3724 z m -52.07569,-4.3724 -2.42431,-2.75 2.75,2.4243 c 1.5125,1.3334 2.75,2.5709 2.75,2.75 0,0.7843 -0.8098,0.146 -3.07569,-2.4243 z m 29.32569,-6.9393 c 0.9625,-0.2516 2.5375,-0.2516 3.5,0 0.9625,0.2515 0.175,0.4573 -1.75,0.4573 -1.925,0 -2.7125,-0.2058 -1.75,-0.4573 z M 783.87244,1015.25 c -1.24387,-1.5861 -1.2085,-1.6214 0.37756,-0.3776 0.9625,0.7549 1.75,1.5424 1.75,1.75 0,0.8231 -0.82119,0.2933 -2.12756,-1.3724 z M 922,1016.6224 c 0,-0.2076 0.7875,-0.9951 1.75,-1.75 1.58606,-1.2438 1.62143,-1.2085 0.37756,0.3776 -1.30637,1.6657 -2.12756,2.1955 -2.12756,1.3724 z M 934.232,1007 c 0,-1.925 0.2058,-2.7125 0.45733,-1.75 0.25152,0.9625 0.25152,2.5375 0,3.5 -0.25153,0.9625 -0.45733,0.175 -0.45733,-1.75 z m -126.07411,0 c 0,-1.375 0.22698,-1.9375 0.50439,-1.25 0.27741,0.6875 0.27741,1.8125 0,2.5 -0.27741,0.6875 -0.50439,0.125 -0.50439,-1.25 z m 67,-5 c 0,-1.375 0.22698,-1.9375 0.50439,-1.25 0.27741,0.6875 0.27741,1.8125 0,2.5 -0.27741,0.6875 -0.50439,0.125 -0.50439,-1.25 z m 16.03706,-0.5 c 0.0204,-1.65 0.2445,-2.20394 0.49804,-1.231 0.25354,0.973 0.23687,2.323 -0.0371,3 -0.27393,0.6771 -0.48137,-0.119 -0.46099,-1.769 z m 6.884,0.9167 c 0.048,-1.165 0.28494,-1.4019 0.60416,-0.6042 0.28887,0.7219 0.25335,1.5844 -0.0789,1.9167 -0.33229,0.3323 -0.56864,-0.2584 -0.52522,-1.3125 z M 863,963.09844 c 0,-1.03844 1.90221,-2.54172 2.46567,-1.94858 0.18294,0.19258 -0.297,0.93038 -1.06653,1.63957 C 863.62961,963.49861 863,963.63767 863,963.09844 Z M 861.5,937 c 3.8205,-3.85 7.17136,-7 7.44636,-7 0.275,0 -2.62586,3.15 -6.44636,7 -3.8205,3.85 -7.17136,7 -7.44636,7 -0.275,0 2.62586,-3.15 6.44636,-7 z M 877,922.62244 c 0,-0.20765 0.7875,-0.99515 1.75,-1.75 1.58606,-1.24387 1.62143,-1.2085 0.37756,0.37756 C 877.82119,922.91575 877,923.44548 877,922.62244 Z M 1007.5,918 c 0.9955,-1.1 2.035,-2 2.31,-2 0.275,0 -0.3145,0.9 -1.31,2 -0.9955,1.1 -2.035,2 -2.31,2 -0.275,0 0.3145,-0.9 1.31,-2 z m 7.7997,-25 c 0,-3.025 0.1874,-4.2625 0.4166,-2.75 0.2291,1.5125 0.2291,3.9875 0,5.5 -0.2292,1.5125 -0.4166,0.275 -0.4166,-2.75 z M 1140.5,885 c 0.9955,-1.1 2.035,-2 2.31,-2 0.275,0 -0.3145,0.9 -1.31,2 -0.9955,1.1 -2.035,2 -2.31,2 -0.275,0 0.3145,-0.9 1.31,-2 z m -4.5,-14.5 c 1.8658,-1.925 3.6173,-3.5 3.8923,-3.5 0.275,0 -1.0265,1.575 -2.8923,3.5 -1.8658,1.925 -3.6173,3.5 -3.8923,3.5 -0.275,0 1.0265,-1.575 2.8923,-3.5 z m 17.5,1.5 c 0.9955,-1.1 2.035,-2 2.31,-2 0.275,0 -0.3145,0.9 -1.31,2 -0.9955,1.1 -2.035,2 -2.31,2 -0.275,0 0.3145,-0.9 1.31,-2 z m -195.30505,-9.5 c 0.0204,-1.65 0.2445,-2.20394 0.49804,-1.23097 0.25354,0.97297 0.23687,2.32297 -0.0371,3 -0.27393,0.67703 -0.48137,-0.11903 -0.46099,-1.76903 z M 1164.5,847 c -0.3399,-0.55 -0.1415,-1 0.441,-1 0.5824,0 1.059,0.45 1.059,1 0,0.55 -0.1984,1 -0.441,1 -0.2425,0 -0.7191,-0.45 -1.059,-1 z m -8.6875,-1.68311 c 0.7219,-0.28887 1.5844,-0.25335 1.9167,0.0789 0.3323,0.33229 -0.2584,0.56864 -1.3125,0.52522 -1.165,-0.048 -1.4019,-0.28494 -0.6042,-0.60416 z m -22.0625,-5.97917 c 0.6875,-0.27741 1.8125,-0.27741 2.5,0 0.6875,0.27741 0.125,0.50439 -1.25,0.50439 -1.375,0 -1.9375,-0.22698 -1.25,-0.50439 z m 34,0 c 0.6875,-0.27741 1.8125,-0.27741 2.5,0 0.6875,0.27741 0.125,0.50439 -1.25,0.50439 -1.375,0 -1.9375,-0.22698 -1.25,-0.50439 z m -79.9375,-18.02083 c 0.7219,-0.28887 1.5844,-0.25335 1.9167,0.0789 0.3323,0.33229 -0.2584,0.56864 -1.3125,0.52522 -1.165,-0.048 -1.4019,-0.28494 -0.6042,-0.60416 z M 230.15789,781 c 0,-1.375 0.22698,-1.9375 0.50439,-1.25 0.27741,0.6875 0.27741,1.8125 0,2.5 -0.27741,0.6875 -0.50439,0.125 -0.50439,-1.25 z m 0,-40 c 0,-1.375 0.22698,-1.9375 0.50439,-1.25 0.27741,0.6875 0.27741,1.8125 0,2.5 -0.27741,0.6875 -0.50439,0.125 -0.50439,-1.25 z M 524.232,716 c 0,-1.925 0.2058,-2.7125 0.45733,-1.75 0.25152,0.9625 0.25152,2.5375 0,3.5 -0.25153,0.9625 -0.45733,0.175 -0.45733,-1.75 z m -129.35956,-1.75 c -1.24387,-1.58606 -1.2085,-1.62143 0.37756,-0.37756 0.9625,0.75485 1.75,1.54235 1.75,1.75 0,0.82304 -0.82119,0.29331 -2.12756,-1.37244 z m 556.68939,-29 c -3.24229,-13.0625 -6.09149,-24.51422 -6.33155,-25.44828 -0.39427,-1.534 0.84092,-1.69827 12.76972,-1.69827 11.9288,0 13.16399,0.16427 12.76972,1.69827 -0.24006,0.93406 -3.08926,12.38578 -6.33155,25.44828 C 961.19588,698.3125 958.29871,709 958,709 c -0.29871,0 -3.19588,-10.6875 -6.43817,-23.75 z m -39.57193,15.7 c -0.0242,-3.47016 3.20538,-49.56932 3.55056,-50.68104 0.28128,-0.90595 1.63656,-0.69336 5.13224,0.80507 2.61252,1.11985 7.86901,2.90041 11.68109,3.95679 3.81209,1.05639 7.14169,2.13133 7.39913,2.38877 0.41346,0.41346 -24.7686,41.61638 -26.91015,44.03041 -0.50653,0.57098 -0.8468,0.37149 -0.85287,-0.5 z m 77.57954,-21.01944 c -7.57642,-12.13191 -13.56808,-22.26525 -13.3148,-22.51853 0.25328,-0.25328 3.57948,-1.32482 7.39157,-2.38121 3.81208,-1.05638 9.06857,-2.83694 11.68109,-3.95679 3.49626,-1.49867 4.8513,-1.71117 5.1337,-0.80507 0.6018,1.93077 3.7346,50.86881 3.2852,51.3182 -0.2208,0.22078 -6.60033,-9.52469 -14.17676,-21.6566 z M 426.75,696.33772 c 0.6875,-0.27741 1.8125,-0.27741 2.5,0 0.6875,0.27741 0.125,0.50439 -1.25,0.50439 -1.375,0 -1.9375,-0.22698 -1.25,-0.50439 z M 543.27236,685 c 0,-2.475 0.19502,-3.4875 0.43337,-2.25 0.23836,1.2375 0.23836,3.2625 0,4.5 -0.23835,1.2375 -0.43337,0.225 -0.43337,-2.25 z M 871,680.22455 c 0,-0.98171 18.74814,-47.30603 19.41557,-47.97346 0.21744,-0.21743 3.25039,1.91433 6.73989,4.73726 3.4895,2.82294 8.03204,6.08825 10.09454,7.25627 2.0625,1.16801 3.75,2.44157 3.75,2.83012 0,0.38855 -7.96558,7.39319 -17.70128,15.56586 C 871.26612,681.13593 871,681.34579 871,680.22455 Z m 154.044,-15.63017 c -10.7008,-8.98178 -19.5967,-16.75234 -19.7685,-17.26791 -0.1719,-0.51557 1.3833,-1.89773 3.456,-3.07146 2.0727,-1.17373 6.6235,-4.44372 10.113,-7.26666 3.4895,-2.82293 6.5225,-4.95469 6.7399,-4.73726 0.886,0.88602 19.4312,47.19921 19.1836,47.90742 -0.1474,0.42151 -9.0232,-6.58235 -19.724,-15.56413 z m -530.794,8.68937 c 1.5125,-0.22913 3.9875,-0.22913 5.5,0 1.5125,0.22912 0.275,0.41659 -2.75,0.41659 -3.025,0 -4.2625,-0.18747 -2.75,-0.41659 z m -27.48834,-1.99101 c 1.24391,-0.23919 3.04391,-0.23011 4,0.0202 0.95609,0.25029 -0.0617,0.446 -2.26166,0.4349 -2.2,-0.0111 -2.98225,-0.21589 -1.73834,-0.45508 z M 373.25,654.28375 c 1.5125,-0.22913 3.9875,-0.22913 5.5,0 1.5125,0.22912 0.275,0.41659 -2.75,0.41659 -3.025,0 -4.2625,-0.18747 -2.75,-0.41659 z M 556,653.62244 c 0,-0.20765 0.7875,-0.99515 1.75,-1.75 1.58606,-1.24387 1.62143,-1.2085 0.37756,0.37756 C 556.82119,653.91575 556,654.44548 556,653.62244 Z m -168.1875,-1.30555 c 0.72187,-0.28887 1.58438,-0.25335 1.91667,0.0789 0.33229,0.33229 -0.25834,0.56864 -1.3125,0.52522 -1.16495,-0.048 -1.4019,-0.28494 -0.60417,-0.60416 z m 554.52907,-2.72777 C 907.21929,642.8793 880.21469,617.91319 870.85625,583.5 c -1.76622,-6.49481 -2.17554,-10.72815 -2.17554,-22.5 0,-11.77185 0.40932,-16.00519 2.17554,-22.5 8.64741,-31.79856 32.84519,-55.99634 64.64375,-64.64375 6.49481,-1.76622 10.72815,-2.17554 22.5,-2.17554 11.77185,0 16.00519,0.40932 22.5,2.17554 31.7986,8.64741 55.9963,32.84519 64.6437,64.64375 1.7663,6.49481 2.1756,10.72815 2.1756,22.5 0,11.77185 -0.4093,16.00519 -2.1756,22.5 -8.6561,31.83053 -33.2399,56.37861 -64.6437,64.54977 -10.3115,2.68302 -28.36065,3.41114 -38.15843,1.53935 z M 553,646.5 c 1.29175,-1.375 2.57363,-2.5 2.84863,-2.5 0.275,0 -0.55688,1.125 -1.84863,2.5 -1.29175,1.375 -2.57363,2.5 -2.84863,2.5 -0.275,0 0.55688,-1.125 1.84863,-2.5 z m -103.73097,0.80701 c 0.97297,-0.25354 2.32297,-0.23687 3,0.0371 0.67703,0.27393 -0.11903,0.48137 -1.76903,0.46099 -1.65,-0.0204 -2.20394,-0.2445 -1.23097,-0.49804 z m 390.40839,-1.60573 C 846.9087,636.58089 871.3554,608 871.92526,608 c 0.38855,0 1.66211,1.6875 2.83012,3.75 1.16802,2.0625 4.43333,6.60504 7.25627,10.09454 2.82293,3.4895 4.95469,6.52245 4.73726,6.73989 C 886.08148,629.25186 839.75716,648 838.77545,648 c -0.50634,0 -0.10045,-1.03442 0.90197,-2.29872 z m 212.89908,-7.28555 c -12.6079,-5.18618 -23.1029,-9.6088 -23.3221,-9.82804 -0.2193,-0.21923 1.911,-3.25365 4.734,-6.74315 2.8229,-3.4895 6.0882,-8.03204 7.2562,-10.09454 1.168,-2.0625 2.4416,-3.75 2.8301,-3.75 0.3886,0 7.3932,7.96558 15.5659,17.70128 19.3158,23.01003 18.7782,22.31474 17.182,22.2213 -0.7274,-0.0426 -11.6382,-4.32066 -24.2461,-9.50685 z M 334.87244,644.25 c -1.24387,-1.58606 -1.2085,-1.62143 0.37756,-0.37756 1.66575,1.30637 2.19548,2.12756 1.37244,2.12756 -0.20765,0 -0.99515,-0.7875 -1.75,-1.75 z M 566,643.62244 c 0,-0.20765 0.7875,-0.99515 1.75,-1.75 1.58606,-1.24387 1.62143,-1.2085 0.37756,0.37756 C 566.82119,643.91575 566,644.44548 566,643.62244 Z m -93,-4 c 0,-0.20765 0.7875,-0.99515 1.75,-1.75 1.58606,-1.24387 1.62143,-1.2085 0.37756,0.37756 C 473.82119,639.91575 473,640.44548 473,639.62244 Z M 420.92431,635.25 418.5,632.5 l 2.75,2.42431 c 2.57029,2.26589 3.20859,3.07569 2.42431,3.07569 -0.17912,0 -1.41662,-1.2375 -2.75,-2.75 z M 450.25,628.31067 c 0.9625,-0.25152 2.5375,-0.25152 3.5,0 0.9625,0.25153 0.175,0.45733 -1.75,0.45733 -1.925,0 -2.7125,-0.2058 -1.75,-0.45733 z M 325.87244,623.25 c -1.24387,-1.58606 -1.2085,-1.62143 0.37756,-0.37756 0.9625,0.75485 1.75,1.54235 1.75,1.75 0,0.82304 -0.82119,0.29331 -2.12756,-1.37244 z M 464,624.62244 c 0,-0.20765 0.7875,-0.99515 1.75,-1.75 1.58606,-1.24387 1.62143,-1.2085 0.37756,0.37756 C 464.82119,624.91575 464,625.44548 464,624.62244 Z M 476.232,615 c 0,-1.925 0.2058,-2.7125 0.45733,-1.75 0.25152,0.9625 0.25152,2.5375 0,3.5 -0.25153,0.9625 -0.45733,0.175 -0.45733,-1.75 z m -126.07411,0 c 0,-1.375 0.22698,-1.9375 0.50439,-1.25 0.27741,0.6875 0.27741,1.8125 0,2.5 -0.27741,0.6875 -0.50439,0.125 -0.50439,-1.25 z m 67,-5 c 0,-1.375 0.22698,-1.9375 0.50439,-1.25 0.27741,0.6875 0.27741,1.8125 0,2.5 -0.27741,0.6875 -0.50439,0.125 -0.50439,-1.25 z m 16.03706,-0.5 c 0.0204,-1.65 0.2445,-2.20394 0.49804,-1.23097 0.25354,0.97297 0.23687,2.32297 -0.0371,3 -0.27393,0.67703 -0.48137,-0.11903 -0.46099,-1.76903 z m 6.884,0.91667 c 0.048,-1.16495 0.28494,-1.4019 0.60416,-0.60417 0.28887,0.72187 0.25335,1.58438 -0.0789,1.91667 -0.33229,0.33229 -0.56864,-0.25834 -0.52522,-1.3125 z M 817.55,606.15723 c 2.41403,-2.14155 43.61695,-27.32361 44.03041,-26.91015 0.25744,0.25744 1.33238,3.58704 2.38877,7.39913 1.05638,3.81208 2.83694,9.06857 3.95679,11.68109 1.49843,3.49568 1.71102,4.85096 0.80507,5.13224 -1.11172,0.34518 -47.21088,3.57475 -50.68104,3.55056 -0.87149,-0.006 -1.07098,-0.34634 -0.5,-0.85287 z M 1068,605.10691 c -13.0353,-0.97426 -21.4056,-2.00062 -21.2603,-2.60691 0.1319,-0.55 1.3543,-4.15 2.7164,-8 1.3622,-3.85 2.9592,-8.9125 3.5489,-11.25 0.5896,-2.3375 1.3339,-4.25 1.6538,-4.25 0.6472,0 42.2879,25.82364 43.7912,27.15723 1.2352,1.09576 -4.2824,0.90544 -30.45,-1.05032 z M 834.25,567.67373 C 820.9125,564.30082 810,561.2972 810,560.99903 c 0,-0.29817 10.6875,-3.19491 23.75,-6.4372 13.0625,-3.24229 24.51422,-6.09149 25.44828,-6.33155 1.5335,-0.39414 1.69827,0.83482 1.69827,12.66661 0,9.56805 -0.32328,13.07698 -1.19827,13.00626 -0.65906,-0.0533 -12.11078,-2.85651 -25.44828,-6.22942 z M 1055.1034,561 c 0,-11.9288 0.1643,-13.16399 1.6983,-12.76972 0.9341,0.24006 12.3858,3.08926 25.4483,6.33155 13.0625,3.24229 23.75,6.13946 23.75,6.43817 0,0.29871 -10.6875,3.19588 -23.75,6.43817 -13.0625,3.24229 -24.5142,6.09149 -25.4483,6.33155 -1.534,0.39427 -1.6983,-0.84092 -1.6983,-12.76972 z M 405,571.09844 c 0,-1.03844 1.90221,-2.54172 2.46567,-1.94858 0.18294,0.19258 -0.297,0.93038 -1.06653,1.63957 C 405.62961,571.49861 405,571.63767 405,571.09844 Z M 403.5,545 c 3.8205,-3.85 7.17136,-7 7.44636,-7 0.275,0 -2.62586,3.15 -6.44636,7 -3.8205,3.85 -7.17136,7 -7.44636,7 -0.275,0 2.62586,-3.15 6.44636,-7 z m 435.25683,-15.7109 c -11.95875,-7.49985 -21.56304,-13.81622 -21.34288,-14.03639 0.43384,-0.43383 49.34209,2.67437 51.23902,3.25633 0.77852,0.23884 0.2151,2.89297 -1.73483,8.17234 -1.58829,4.30024 -3.36197,9.73112 -3.94152,12.06862 -0.57954,2.3375 -1.37386,4.23317 -1.76516,4.2126 -0.3913,-0.0206 -10.49589,-6.17365 -22.45463,-13.6735 z m 214.26657,9.4609 c -0.5796,-2.3375 -2.3532,-7.76838 -3.9415,-12.06862 -1.95,-5.27937 -2.5134,-7.9335 -1.7349,-8.17234 1.9,-0.5829 50.8056,-3.6898 51.2402,-3.25521 0.4048,0.4048 -42.9016,27.74617 -43.9476,27.74617 -0.3094,0 -1.0367,-1.9125 -1.6162,-4.25 z M 419,530.62244 c 0,-0.20765 0.7875,-0.99515 1.75,-1.75 1.58606,-1.24387 1.62143,-1.2085 0.37756,0.37756 C 419.82119,530.91575 419,531.44548 419,530.62244 Z M 549.5,526 c 0.99549,-1.1 2.03498,-2 2.30998,-2 0.275,0 -0.31449,0.9 -1.30998,2 -0.99549,1.1 -2.03498,2 -2.30998,2 -0.275,0 0.31449,-0.9 1.30998,-2 z m 305.14871,-31.75 c -9.11259,-10.8625 -16.22466,-19.87059 -15.8046,-20.01798 0.70615,-0.24776 47.01989,18.29865 47.9048,19.18355 0.21743,0.21744 -1.91433,3.25039 -4.73726,6.73989 -2.82294,3.4895 -6.08825,8.03204 -7.25627,10.09454 -1.16801,2.0625 -2.44196,3.75 -2.83099,3.75 -0.38904,0 -8.16309,-8.8875 -17.27568,-19.75 z m 186.60629,16.01849 c -1.1737,-2.07267 -4.4437,-6.62353 -7.2666,-10.11303 -2.823,-3.4895 -4.9547,-6.52245 -4.7373,-6.73989 0.886,-0.88602 47.1992,-19.43119 47.9074,-19.18355 0.8441,0.29515 -31.3249,38.99013 -32.832,39.49249 -0.5156,0.17186 -1.8978,-1.38335 -3.0715,-3.45602 z M 557.29966,501 c 0,-3.025 0.18747,-4.2625 0.41659,-2.75 0.22913,1.5125 0.22913,3.9875 0,5.5 -0.22912,1.5125 -0.41659,0.275 -0.41659,-2.75 z M 682.5,493 c 0.99549,-1.1 2.03498,-2 2.30998,-2 0.275,0 -0.31449,0.9 -1.30998,2 -0.99549,1.1 -2.03498,2 -2.30998,2 -0.275,0 0.31449,-0.9 1.30998,-2 z m 197.98928,-27.02637 c -5.37343,-13.21451 -9.5846,-24.21164 -9.35816,-24.43808 0.50945,-0.50945 39.16074,31.84004 39.59339,33.13798 0.17186,0.51557 -1.38335,1.89773 -3.45602,3.07146 -2.07267,1.17373 -6.58326,4.41127 -10.02353,7.19453 -3.44027,2.78326 -6.41946,5.06048 -6.62043,5.06048 -0.20096,0 -4.76183,-10.81187 -10.13525,-24.02637 z m 139.64132,20.10359 c -2.4032,-2.11062 -6.7845,-5.35394 -9.7363,-7.20736 -2.9517,-1.85342 -5.2406,-3.76673 -5.0865,-4.2518 0.3968,-1.24906 39.0616,-33.58203 39.5611,-33.08251 0.5652,0.56526 -18.9744,48.47501 -19.7485,48.42181 -0.3412,-0.0234 -2.5866,-1.76951 -4.9898,-3.88014 z M 678,478.5 c 1.86578,-1.925 3.61733,-3.5 3.89233,-3.5 0.275,0 -1.02655,1.575 -2.89233,3.5 -1.86578,1.925 -3.61733,3.5 -3.89233,3.5 -0.275,0 1.02655,-1.575 2.89233,-3.5 z m 17.5,1.5 c 0.99549,-1.1 2.03498,-2 2.30998,-2 0.275,0 -0.31449,0.9 -1.30998,2 -0.99549,1.1 -2.03498,2 -2.30998,2 -0.275,0 0.31449,-0.9 1.30998,-2 z m -195.30505,-9.5 c 0.0204,-1.65 0.2445,-2.20394 0.49804,-1.23097 0.25354,0.97297 0.23687,2.32297 -0.0371,3 -0.27393,0.67703 -0.48137,-0.11903 -0.46099,-1.76903 z m 415.34405,1.23104 c -0.60176,-1.93077 -3.73457,-50.86881 -3.28517,-51.3182 0.22077,-0.22078 6.6003,9.52469 14.17673,21.6566 7.57642,12.13191 13.56808,22.26525 13.3148,22.51853 -0.25328,0.25328 -3.57948,1.32482 -7.39157,2.38121 -3.81208,1.05638 -9.06857,2.83694 -11.68109,3.95679 -3.49626,1.49867 -4.8513,1.71117 -5.1337,0.80507 z M 995,470.81911 c -2.475,-1.07254 -7.60159,-2.8097 -11.39243,-3.86035 -3.79083,-1.05066 -7.09965,-2.11751 -7.35293,-2.37079 -0.25328,-0.25328 5.73838,-10.38662 13.3148,-22.51853 7.57643,-12.13191 13.95336,-21.88002 14.17086,-21.66247 0.6071,0.60706 -2.9248,51.00541 -3.625,51.72762 -0.33843,0.34902 -2.6403,-0.24294 -5.1153,-1.31548 z m -49.76972,-8.62083 c 0.24006,-0.93406 3.08926,-12.38578 6.33155,-25.44828 C 954.80412,423.6875 957.70129,413 958,413 c 0.29871,0 3.19588,10.6875 6.43817,23.75 3.24229,13.0625 6.09149,24.51422 6.33155,25.44828 0.39427,1.534 -0.84092,1.69827 -12.76972,1.69827 -11.9288,0 -13.16399,-0.16427 -12.76972,-1.69827 z M 706.5,455 c -0.33992,-0.55 -0.14148,-1 0.44098,-1 0.58246,0 1.05902,0.45 1.05902,1 0,0.55 -0.19844,1 -0.44098,1 -0.24254,0 -0.7191,-0.45 -1.05902,-1 z m -8.6875,-1.68311 c 0.72187,-0.28887 1.58438,-0.25335 1.91667,0.0789 0.33229,0.33229 -0.25834,0.56864 -1.3125,0.52522 -1.16495,-0.048 -1.4019,-0.28494 -0.60417,-0.60416 z M 675.75,447.33772 c 0.6875,-0.27741 1.8125,-0.27741 2.5,0 0.6875,0.27741 0.125,0.50439 -1.25,0.50439 -1.375,0 -1.9375,-0.22698 -1.25,-0.50439 z m 34,0 c 0.6875,-0.27741 1.8125,-0.27741 2.5,0 0.6875,0.27741 0.125,0.50439 -1.25,0.50439 -1.375,0 -1.9375,-0.22698 -1.25,-0.50439 z m -79.9375,-18.02083 c 0.72187,-0.28887 1.58438,-0.25335 1.91667,0.0789 0.33229,0.33229 -0.25834,0.56864 -1.3125,0.52522 -1.16495,-0.048 -1.4019,-0.28494 -0.60417,-0.60416 z M 369,405.62244 c 0,-0.20765 0.7875,-0.99515 1.75,-1.75 1.58606,-1.24387 1.62143,-1.2085 0.37756,0.37756 C 369.82119,405.91575 369,406.44548 369,405.62244 Z M 1134.8724,404.25 c -1.2438,-1.58606 -1.2085,-1.62143 0.3776,-0.37756 0.9625,0.75485 1.75,1.54235 1.75,1.75 0,0.82304 -0.8212,0.29331 -2.1276,-1.37244 z M 395,379.62244 c 0,-0.20765 0.7875,-0.99515 1.75,-1.75 1.58606,-1.24387 1.62143,-1.2085 0.37756,0.37756 C 395.82119,379.91575 395,380.44548 395,379.62244 Z M 1108.8724,378.25 c -1.2438,-1.58606 -1.2085,-1.62143 0.3776,-0.37756 1.6657,1.30637 2.1955,2.12756 1.3724,2.12756 -0.2076,0 -0.9951,-0.7875 -1.75,-1.75 z M 731.75,238.33772 c 0.6875,-0.27741 1.8125,-0.27741 2.5,0 0.6875,0.27741 0.125,0.50439 -1.25,0.50439 -1.375,0 -1.9375,-0.22698 -1.25,-0.50439 z m 40,0 c 0.6875,-0.27741 1.8125,-0.27741 2.5,0 0.6875,0.27741 0.125,0.50439 -1.25,0.50439 -1.375,0 -1.9375,-0.22698 -1.25,-0.50439 z"
         id="path22" />
      <path
         style="fill:#0066a8"
         d="m 736.26903,1283.307 c 0.97297,-0.2535 2.32297,-0.2369 3,0.037 0.67703,0.2739 -0.11903,0.4813 -1.76903,0.461 -1.65,-0.02 -2.20394,-0.2445 -1.23097,-0.4981 z m 31,0 c 0.97297,-0.2535 2.32297,-0.2369 3,0.037 0.67703,0.2739 -0.11903,0.4813 -1.76903,0.461 -1.65,-0.02 -2.20394,-0.2445 -1.23097,-0.4981 z M 712.5,1257.4775 c -63.69566,-5.8501 -120.99519,-21.6749 -177,-48.8831 -23.01618,-11.1817 -36.09775,-18.6152 -56.5,-32.1058 C 413.79292,1133.3717 359.49073,1075.6552 320.94921,1008.5 295.41353,964.00634 274.5017,908.13199 264.57537,857.8746 259.24644,830.89403 255.01529,793.70165 255.00502,773.75 L 255,764 h 5 5 l 0.005,8.25 c 0.007,10.97334 2.48549,38.57284 5.02651,55.96585 20.55361,140.68719 97.51801,261.94975 215.96847,340.27275 20.09102,13.2848 33.57302,20.9782 54.5,31.0999 45.71849,22.1125 94.16658,36.912 145.28415,44.38 18.2536,2.6667 45.15933,5.0201 57.46585,5.0265 l 9.75,0.01 v 5 5 l -13.25,-0.1184 c -7.2875,-0.065 -19.55,-0.6969 -27.25,-1.4041 z m 6,-20 c -61.78296,-5.6745 -120.2224,-21.5161 -173,-46.8966 -45.12772,-21.7016 -92.45555,-55.5369 -129.49976,-92.5811 C 378.95603,1060.9556 345.1207,1013.6277 323.41905,968.5 302.18997,924.35497 287.36047,875.38162 280.03153,825.21585 277.63248,808.79459 275.01219,780.40193 275.00502,770.75 L 275,764 h 239 239 v 237.5 237.5 l -10.25,-0.1184 c -5.6375,-0.065 -16.55,-0.6969 -24.25,-1.4041 z M 587,1075.9708 c 3.575,-0.5577 9.65,-1.9758 13.5,-3.1513 7.88181,-2.4065 8.29704,-2.0394 -6,-5.3043 -3.85,-0.8792 -11.07207,-3.6024 -16.04904,-6.0516 -16.49082,-8.1152 -28.78721,-20.4256 -36.92147,-36.9636 -6.63546,-13.4907 -7.97357,-19.5322 -7.97357,-36 0,-16.47246 1.33495,-22.49527 7.99022,-36.04904 8.09016,-16.47599 20.40861,-28.78364 36.95386,-36.92147 10.8044,-5.31418 18.96095,-7.52008 31,-8.3838 l 9,-0.64569 -7.48433,-3.35084 c -13.08781,-5.8596 -20.79881,-7.44433 -36.51567,-7.50451 -15.56048,-0.0596 -22.51207,1.22099 -35.11932,6.4694 -19.49201,8.11454 -37.03404,24.34105 -46.36285,42.88595 -1.24502,2.475 -2.42449,4.67864 -2.62106,4.89697 -0.19656,0.21834 -3.21281,-1.00875 -6.70278,-2.72685 -7.76074,-3.8206 -16.80534,-12.96432 -20.16788,-20.3889 -7.55169,-16.67434 -4.51284,-34.60484 8.10715,-47.83558 12.64702,-13.25908 31.73736,-17.16044 48.27128,-9.86488 2.42249,1.06893 4.61767,1.73037 4.87816,1.46987 0.26049,-0.26049 -1.96446,-2.85345 -4.94434,-5.76213 -19.98047,-19.50301 -51.19681,-19.40407 -70.82537,0.22449 -19.71827,19.71827 -19.71827,51.25575 0,70.97402 9.24629,9.24629 22.86534,14.96197 35.73701,14.99821 2.8875,0.008 5.24977,0.12728 5.2495,0.26478 -2.8e-4,0.1375 -0.89758,2.61022 -1.994,5.49493 -8.60547,22.6412 -5.53913,52.72777 7.64118,74.97427 18.93519,31.96 55.77034,49.803 91.35332,44.2516 z M 392.40499,1139.75 390.5,1137.5 l 2.25,1.905 c 2.11444,1.7902 2.70524,2.595 1.90499,2.595 -0.18976,0 -1.20226,-1.0125 -2.25,-2.25 z M 1112.5,1140 c 0.9955,-1.1 2.035,-2 2.31,-2 0.275,0 -0.3145,0.9 -1.31,2 -0.9955,1.1 -2.035,2 -2.31,2 -0.275,0 0.3145,-0.9 1.31,-2 z m -739.09501,-19.25 -1.90499,-2.25 2.25,1.905 c 2.11444,1.7902 2.70524,2.595 1.90499,2.595 -0.18976,0 -1.20226,-1.0125 -2.25,-2.25 z M 1131.5,1121 c 0.9955,-1.1 2.035,-2 2.31,-2 0.275,0 -0.3145,0.9 -1.31,2 -0.9955,1.1 -2.035,2 -2.31,2 -0.275,0 0.3145,-0.9 1.31,-2 z m -149.384,-5.25 c 0.12053,-5.4549 0.51358,-4.9311 1.12556,1.5 0.19626,2.0625 -0.003,3.75 -0.44236,3.75 -0.43956,0 -0.747,-2.3625 -0.6832,-5.25 z M 1015.5,1101 c 0.9955,-1.1 2.035,-2 2.31,-2 0.275,0 -0.3145,0.9 -1.31,2 -0.9955,1.1 -2.035,2 -2.31,2 -0.275,0 0.3145,-0.9 1.31,-2 z m -13.5,-0.3776 c 0,-0.2076 0.7875,-0.9951 1.75,-1.75 1.5861,-1.2438 1.6214,-1.2085 0.3776,0.3776 -1.3064,1.6657 -2.1276,2.1955 -2.1276,1.3724 z M 1001.3605,1090 c 0,-5.225 0.1685,-7.3625 0.3745,-4.75 0.206,2.6125 0.206,6.8875 0,9.5 -0.206,2.6125 -0.3745,0.475 -0.3745,-4.75 z m -18.28155,6.4167 c 0.048,-1.165 0.28494,-1.4019 0.60416,-0.6042 0.28887,0.7219 0.25335,1.5844 -0.0789,1.9167 -0.33229,0.3323 -0.56864,-0.2584 -0.52522,-1.3125 z M 1027.5,1089 c 0.9955,-1.1 2.035,-2 2.31,-2 0.275,0 -0.3145,0.9 -1.31,2 -0.9955,1.1 -2.035,2 -2.31,2 -0.275,0 0.3145,-0.9 1.31,-2 z M 914,1075.5 c 1.86578,-1.925 3.61733,-3.5 3.89233,-3.5 0.275,0 -1.02655,1.575 -2.89233,3.5 -1.86578,1.925 -3.61733,3.5 -3.89233,3.5 -0.275,0 1.02655,-1.575 2.89233,-3.5 z m 10.89436,1.2009 c 0.44214,-0.4396 3.90929,-0.66 7.70477,-0.4899 l 6.90087,0.3093 -7.70477,0.4899 c -4.23763,0.2694 -7.34302,0.1302 -6.90087,-0.3093 z M 946.75,1065.3377 c 0.6875,-0.2774 1.8125,-0.2774 2.5,0 0.6875,0.2774 0.125,0.5044 -1.25,0.5044 -1.375,0 -1.9375,-0.227 -1.25,-0.5044 z m 14.0625,-0.021 c 0.72187,-0.2889 1.58438,-0.2534 1.91667,0.079 0.33229,0.3323 -0.25834,0.5687 -1.3125,0.5253 -1.16495,-0.048 -1.4019,-0.285 -0.60417,-0.6042 z m -24,-1 c 0.72187,-0.2889 1.58438,-0.2534 1.91667,0.079 0.33229,0.3323 -0.25834,0.5687 -1.3125,0.5253 -1.16495,-0.048 -1.4019,-0.285 -0.60417,-0.6042 z M 823.92431,1059.25 821.5,1056.5 l 2.64229,2.3231 c 1.96787,1.7302 2.77725,1.9854 3.17105,1 0.35087,-0.878 0.55533,-0.7343 0.60771,0.4269 0.11265,2.4971 -1.20433,2.1675 -3.99674,-1 z m 2.43486,-9.173 c 0.0867,-2.107 0.71749,-3.578 1.64083,-3.8261 1.01294,-0.2723 1.12342,-0.1339 0.34023,0.4262 -0.63787,0.4562 -1.37624,2.1779 -1.64083,3.8262 -0.44069,2.7452 -0.46924,2.7095 -0.34023,-0.4263 z M 1009,1049.6224 c 0,-0.2076 0.7875,-0.9951 1.75,-1.75 1.5861,-1.2438 1.6214,-1.2085 0.3776,0.3776 -1.3064,1.6657 -2.1276,2.1955 -2.1276,1.3724 z m -169.1875,-3.3055 c 0.72187,-0.2889 1.58438,-0.2534 1.91667,0.079 0.33229,0.3323 -0.25834,0.5687 -1.3125,0.5253 -1.16495,-0.048 -1.4019,-0.285 -0.60417,-0.6042 z m 3,-2 c 0.72187,-0.2889 1.58438,-0.2534 1.91667,0.079 0.33229,0.3323 -0.25834,0.5687 -1.3125,0.5253 -1.16495,-0.048 -1.4019,-0.285 -0.60417,-0.6042 z M 1020,1039.5 c 1.8658,-1.925 3.6173,-3.5 3.8923,-3.5 0.275,0 -1.0265,1.575 -2.8923,3.5 -1.8658,1.925 -3.6173,3.5 -3.8923,3.5 -0.275,0 1.0265,-1.575 2.8923,-3.5 z m -218.59501,-6.75 -1.90499,-2.25 2.25,1.905 c 2.11444,1.7902 2.70524,2.595 1.90499,2.595 -0.18976,0 -1.20226,-1.0125 -2.25,-2.25 z m 82.54118,-11.5 -3.44617,-3.75 3.75,3.4462 c 3.49042,3.2076 4.20979,4.0538 3.44617,4.0538 -0.16711,0 -1.85461,-1.6875 -3.75,-3.75 z M 797,1016.559 c 0,-1.8925 0.34578,-3.6547 0.7684,-3.9159 0.42263,-0.2612 0.60036,1.2873 0.39497,3.441 -0.46113,4.8354 -1.16337,5.1221 -1.16337,0.4749 z m 99.87244,-1.309 c -1.24387,-1.5861 -1.2085,-1.6214 0.37756,-0.3776 0.9625,0.7549 1.75,1.5424 1.75,1.75 0,0.8231 -0.82119,0.2933 -2.12756,-1.3724 z M 916,1012.6224 c 0,-0.2076 0.7875,-0.9951 1.75,-1.75 1.58606,-1.2438 1.62143,-1.2085 0.37756,0.3776 -1.30637,1.6657 -2.12756,2.1955 -2.12756,1.3724 z M 1025.2997,1002 c 0,-3.025 0.1874,-4.2625 0.4166,-2.75 0.2291,1.5125 0.2291,3.9875 0,5.5 -0.2292,1.5125 -0.4166,0.275 -0.4166,-2.75 z m -157.14181,-1 c 0,-1.375 0.22698,-1.9375 0.50439,-1.25 0.27741,0.6875 0.27741,1.8125 0,2.5 -0.27741,0.6875 -0.50439,0.125 -0.50439,-1.25 z M 901,993.62244 c 0,-0.20765 0.7875,-0.99515 1.75,-1.75 1.58606,-1.24387 1.62143,-1.2085 0.37756,0.37756 C 901.82119,993.91575 901,994.44548 901,993.62244 Z M 896.5,989 c 0.99549,-1.1 2.03498,-2 2.30998,-2 0.275,0 -0.31449,0.9 -1.30998,2 -0.99549,1.1 -2.03498,2 -2.30998,2 -0.275,0 0.31449,-0.9 1.30998,-2 z m 35.37244,0.25 c -1.24387,-1.58606 -1.2085,-1.62143 0.37756,-0.37756 0.9625,0.75485 1.75,1.54235 1.75,1.75 0,0.82304 -0.82119,0.29331 -2.12756,-1.37244 z m -92.05994,-3.93311 c 0.72187,-0.28887 1.58438,-0.25335 1.91667,0.0789 0.33229,0.33229 -0.25834,0.56864 -1.3125,0.52522 -1.16495,-0.048 -1.4019,-0.28494 -0.60417,-0.60416 z M 851.75,984.2766 c 1.7875,-0.22182 4.7125,-0.22182 6.5,0 1.7875,0.22183 0.325,0.40333 -3.25,0.40333 -3.575,0 -5.0375,-0.1815 -3.25,-0.40333 z M 884,982.62244 c 0,-0.20765 0.7875,-0.99515 1.75,-1.75 1.58606,-1.24387 1.62143,-1.2085 0.37756,0.37756 C 884.82119,982.91575 884,983.44548 884,982.62244 Z m 32.8125,-0.30555 c 0.72187,-0.28887 1.58438,-0.25335 1.91667,0.0789 0.33229,0.33229 -0.25834,0.56864 -1.3125,0.52522 -1.16495,-0.048 -1.4019,-0.28494 -0.60417,-0.60416 z m -46,-2 c 0.72187,-0.28887 1.58438,-0.25335 1.91667,0.0789 0.33229,0.33229 -0.25834,0.56864 -1.3125,0.52522 -1.16495,-0.048 -1.4019,-0.28494 -0.60417,-0.60416 z M 857.5,976 c 0.99549,-1.1 2.03498,-2 2.30998,-2 0.275,0 -0.31449,0.9 -1.30998,2 -0.99549,1.1 -2.03498,2 -2.30998,2 -0.275,0 0.31449,-0.9 1.30998,-2 z m 8.57895,0.41667 c 0.048,-1.16495 0.28494,-1.4019 0.60416,-0.60417 0.28887,0.72187 0.25335,1.58438 -0.0789,1.91667 -0.33229,0.33229 -0.56864,-0.25834 -0.52522,-1.3125 z m 4.73355,-4.09978 c 0.72187,-0.28887 1.58438,-0.25335 1.91667,0.0789 0.33229,0.33229 -0.25834,0.56864 -1.3125,0.52522 -1.16495,-0.048 -1.4019,-0.28494 -0.60417,-0.60416 z M 1017.8724,965.25 c -1.2438,-1.58606 -1.2085,-1.62143 0.3776,-0.37756 0.9625,0.75485 1.75,1.54235 1.75,1.75 0,0.82304 -0.8212,0.29331 -2.1276,-1.37244 z M 840,962.5 c 1.29175,-1.375 2.57363,-2.5 2.84863,-2.5 0.275,0 -0.55688,1.125 -1.84863,2.5 -1.29175,1.375 -2.57363,2.5 -2.84863,2.5 -0.275,0 0.55688,-1.125 1.84863,-2.5 z m 10,-12.87756 c 0,-0.20765 0.7875,-0.99515 1.75,-1.75 1.58606,-1.24387 1.62143,-1.2085 0.37756,0.37756 C 850.82119,949.91575 850,950.44548 850,949.62244 Z M 858.5,946 c 2.14824,-2.2 4.1309,-4 4.4059,-4 0.275,0 -1.25766,1.8 -3.4059,4 -2.14824,2.2 -4.1309,4 -4.4059,4 -0.275,0 1.25766,-1.8 3.4059,-4 z M 874,925.5 c 1.29175,-1.375 2.57363,-2.5 2.84863,-2.5 0.275,0 -0.55688,1.125 -1.84863,2.5 -1.29175,1.375 -2.57363,2.5 -2.84863,2.5 -0.275,0 0.55688,-1.125 1.84863,-2.5 z m 8,-6.87756 c 0,-0.20765 0.7875,-0.99515 1.75,-1.75 1.58606,-1.24387 1.62143,-1.2085 0.37756,0.37756 C 882.82119,918.91575 882,919.44548 882,918.62244 Z m 113,-5 c 0,-0.20765 0.7875,-0.99515 1.75,-1.75 1.58606,-1.24387 1.62143,-1.2085 0.37756,0.37756 C 995.82119,913.91575 995,914.44548 995,913.62244 Z m 135,-17 c 0,-0.20765 0.7875,-0.99515 1.75,-1.75 1.5861,-1.24387 1.6214,-1.2085 0.3776,0.37756 -1.3064,1.66575 -2.1276,2.19548 -2.1276,1.37244 z M 942.92431,891.25 940.5,888.5 l 2.75,2.42431 c 1.5125,1.33338 2.75,2.57088 2.75,2.75 0,0.78428 -0.8098,0.14598 -3.07569,-2.42431 z M 1136.5,889 c 0.9955,-1.1 2.035,-2 2.31,-2 0.275,0 -0.3145,0.9 -1.31,2 -0.9955,1.1 -2.035,2 -2.31,2 -0.275,0 0.3145,-0.9 1.31,-2 z m -8.5,-9.5 c 1.2917,-1.375 2.5736,-2.5 2.8486,-2.5 0.275,0 -0.5569,1.125 -1.8486,2.5 -1.2917,1.375 -2.5736,2.5 -2.8486,2.5 -0.275,0 0.5569,-1.125 1.8486,-2.5 z m 28,-9.87756 c 0,-0.20765 0.7875,-0.99515 1.75,-1.75 1.5861,-1.24387 1.6214,-1.2085 0.3776,0.37756 -1.3064,1.66575 -2.1276,2.19548 -2.1276,1.37244 z M 945.15789,866 c 0,-1.375 0.22698,-1.9375 0.50439,-1.25 0.27741,0.6875 0.27741,1.8125 0,2.5 -0.27741,0.6875 -0.50439,0.125 -0.50439,-1.25 z M 1145.5,862 c 0.9955,-1.1 2.035,-2 2.31,-2 0.275,0 -0.3145,0.9 -1.31,2 -0.9955,1.1 -2.035,2 -2.31,2 -0.275,0 0.3145,-0.9 1.31,-2 z M 997.92431,850.25 995.5,847.5 l 3,2.5 c 1.65,1.375 3.1875,2.6125 3.4167,2.75 0.2291,0.1375 -0.03,0.25 -0.5757,0.25 -0.5458,0 -2.08331,-1.2375 -3.41669,-2.75 z M 1072,852.05902 c 0,-0.51754 0.375,-1.17275 0.8333,-1.45601 0.4584,-0.28327 0.8334,0.14017 0.8334,0.94098 0,0.8008 -0.375,1.45601 -0.8334,1.45601 -0.4583,0 -0.8333,-0.42344 -0.8333,-0.94098 z M 950.5,850 c 0.99549,-1.1 2.03498,-2 2.30998,-2 0.275,0 -0.31449,0.9 -1.30998,2 -0.99549,1.1 -2.03498,2 -2.30998,2 -0.275,0 0.31449,-0.9 1.30998,-2 z m 126.5,-2.37756 c 0,-0.20765 0.7875,-0.99515 1.75,-1.75 1.5861,-1.24387 1.6214,-1.2085 0.3776,0.37756 -1.3064,1.66575 -2.1276,2.19548 -2.1276,1.37244 z M 940.5,845 c 0.99549,-1.1 2.03498,-2 2.30998,-2 0.275,0 -0.31449,0.9 -1.30998,2 -0.99549,1.1 -2.03498,2 -2.30998,2 -0.275,0 0.31449,-0.9 1.30998,-2 z m 169.3125,1.31689 c 0.7219,-0.28887 1.5844,-0.25335 1.9167,0.0789 0.3323,0.33229 -0.2584,0.56864 -1.3125,0.52522 -1.165,-0.048 -1.4019,-0.28494 -0.6042,-0.60416 z m 8.9375,-0.97917 c 0.6875,-0.27741 1.8125,-0.27741 2.5,0 0.6875,0.27741 0.125,0.50439 -1.25,0.50439 -1.375,0 -1.9375,-0.22698 -1.25,-0.50439 z m 17.9777,-1.05945 c 1.7752,-0.22091 4.9252,-0.22454 7,-0.008 2.0748,0.21648 0.6223,0.39722 -3.2277,0.40166 -3.85,0.004 -5.5475,-0.17268 -3.7723,-0.39359 z M 1082,843.62244 c 0,-0.20765 0.7875,-0.99515 1.75,-1.75 1.5861,-1.24387 1.6214,-1.2085 0.3776,0.37756 -1.3064,1.66575 -2.1276,2.19548 -2.1276,1.37244 z M 1106,837.5 c 1.8658,-1.925 3.6173,-3.5 3.8923,-3.5 0.275,0 -1.0265,1.575 -2.8923,3.5 -1.8658,1.925 -3.6173,3.5 -3.8923,3.5 -0.275,0 1.0265,-1.575 2.8923,-3.5 z m 16.75,2.83772 c 0.6875,-0.27741 1.8125,-0.27741 2.5,0 0.6875,0.27741 0.125,0.50439 -1.25,0.50439 -1.375,0 -1.9375,-0.22698 -1.25,-0.50439 z m 56.0625,-0.0208 c 0.7219,-0.28887 1.5844,-0.25335 1.9167,0.0789 0.3323,0.33229 -0.2584,0.56864 -1.3125,0.52522 -1.165,-0.048 -1.4019,-0.28494 -0.6042,-0.60416 z m -40.0508,-1.02415 c 1.2439,-0.23919 3.0439,-0.23011 4,0.0202 0.956,0.25029 -0.062,0.446 -2.2617,0.4349 -2.2,-0.0111 -2.9823,-0.21589 -1.7383,-0.45508 z m 23,0 c 1.2439,-0.23919 3.0439,-0.23011 4,0.0202 0.956,0.25029 -0.062,0.446 -2.2617,0.4349 -2.2,-0.0111 -2.9823,-0.21589 -1.7383,-0.45508 z m -201.9492,-2.97585 c 0.72187,-0.28887 1.58438,-0.25335 1.91667,0.0789 0.33229,0.33229 -0.25834,0.56864 -1.3125,0.52522 -1.16495,-0.048 -1.4019,-0.28494 -0.60417,-0.60416 z m 10,0 c 0.72187,-0.28887 1.58438,-0.25335 1.91667,0.0789 0.33229,0.33229 -0.25834,0.56864 -1.3125,0.52522 -1.16495,-0.048 -1.4019,-0.28494 -0.60417,-0.60416 z m 119,-9 c 0.7219,-0.28887 1.5844,-0.25335 1.9167,0.0789 0.3323,0.33229 -0.2584,0.56864 -1.3125,0.52522 -1.165,-0.048 -1.4019,-0.28494 -0.6042,-0.60416 z m 34,-5 c 0.7219,-0.28887 1.5844,-0.25335 1.9167,0.0789 0.3323,0.33229 -0.2584,0.56864 -1.3125,0.52522 -1.165,-0.048 -1.4019,-0.28494 -0.6042,-0.60416 z m -32,-1 c 0.7219,-0.28887 1.5844,-0.25335 1.9167,0.0789 0.3323,0.33229 -0.2584,0.56864 -1.3125,0.52522 -1.165,-0.048 -1.4019,-0.28494 -0.6042,-0.60416 z m 19.9375,0.0208 c 0.6875,-0.27741 1.8125,-0.27741 2.5,0 0.6875,0.27741 0.125,0.50439 -1.25,0.50439 -1.375,0 -1.9375,-0.22698 -1.25,-0.50439 z M 230.19495,776.5 c 0.0204,-1.65 0.2445,-2.20394 0.49804,-1.23097 0.25354,0.97297 0.23687,2.32297 -0.0371,3 -0.27393,0.67703 -0.48137,-0.11903 -0.46099,-1.76903 z m 0,-31 c 0.0204,-1.65 0.2445,-2.20394 0.49804,-1.23097 0.25354,0.97297 0.23687,2.32297 -0.0371,3 -0.27393,0.67703 -0.48137,-0.11903 -0.46099,-1.76903 z M 524.116,723.75 c 0.12053,-5.45493 0.51358,-4.93112 1.12556,1.5 0.19626,2.0625 -0.003,3.75 -0.44236,3.75 -0.43956,0 -0.747,-2.3625 -0.6832,-5.25 z M 557.5,709 c 0.99549,-1.1 2.03498,-2 2.30998,-2 0.275,0 -0.31449,0.9 -1.30998,2 -0.99549,1.1 -2.03498,2 -2.30998,2 -0.275,0 0.31449,-0.9 1.30998,-2 z M 544,708.62244 c 0,-0.20765 0.7875,-0.99515 1.75,-1.75 1.58606,-1.24387 1.62143,-1.2085 0.37756,0.37756 C 544.82119,708.91575 544,709.44548 544,708.62244 Z M 543.3605,698 c 0,-5.225 0.16854,-7.3625 0.37454,-4.75 0.206,2.6125 0.206,6.8875 0,9.5 -0.206,2.6125 -0.37454,0.475 -0.37454,-4.75 z m -18.28155,6.41667 c 0.048,-1.16495 0.28494,-1.4019 0.60416,-0.60417 0.28887,0.72187 0.25335,1.58438 -0.0789,1.91667 -0.33229,0.33229 -0.56864,-0.25834 -0.52522,-1.3125 z M 569.5,697 c 0.99549,-1.1 2.03498,-2 2.30998,-2 0.275,0 -0.31449,0.9 -1.30998,2 -0.99549,1.1 -2.03498,2 -2.30998,2 -0.275,0 0.31449,-0.9 1.30998,-2 z M 456,683.5 c 1.86578,-1.925 3.61733,-3.5 3.89233,-3.5 0.275,0 -1.02655,1.575 -2.89233,3.5 -1.86578,1.925 -3.61733,3.5 -3.89233,3.5 -0.275,0 1.02655,-1.575 2.89233,-3.5 z m 10.89436,1.20087 c 0.44214,-0.43952 3.90929,-0.65995 7.70477,-0.48984 l 6.90087,0.30929 -7.70477,0.48984 c -4.23763,0.26941 -7.34302,0.13023 -6.90087,-0.30929 z M 488.75,673.33772 c 0.6875,-0.27741 1.8125,-0.27741 2.5,0 0.6875,0.27741 0.125,0.50439 -1.25,0.50439 -1.375,0 -1.9375,-0.22698 -1.25,-0.50439 z m 14.0625,-0.0208 c 0.72187,-0.28887 1.58438,-0.25335 1.91667,0.0789 0.33229,0.33229 -0.25834,0.56864 -1.3125,0.52522 -1.16495,-0.048 -1.4019,-0.28494 -0.60417,-0.60416 z m -24,-1 c 0.72187,-0.28887 1.58438,-0.25335 1.91667,0.0789 0.33229,0.33229 -0.25834,0.56864 -1.3125,0.52522 -1.16495,-0.048 -1.4019,-0.28494 -0.60417,-0.60416 z M 365.92431,667.25 363.5,664.5 l 2.64229,2.32313 c 1.96787,1.73017 2.77725,1.98541 3.17105,1 0.35087,-0.87798 0.55533,-0.73437 0.60771,0.42687 0.11265,2.49706 -1.20433,2.16754 -3.99674,-1 z m 2.43486,-9.17299 c 0.0867,-2.10706 0.71749,-3.57797 1.64083,-3.82613 1.01294,-0.27224 1.12342,-0.13384 0.34023,0.42624 -0.63787,0.45616 -1.37624,2.17792 -1.64083,3.82613 -0.44069,2.74527 -0.46924,2.7095 -0.34023,-0.42624 z M 551,657.62244 c 0,-0.20765 0.7875,-0.99515 1.75,-1.75 1.58606,-1.24387 1.62143,-1.2085 0.37756,0.37756 C 551.82119,657.91575 551,658.44548 551,657.62244 Z m -169.1875,-3.30555 c 0.72187,-0.28887 1.58438,-0.25335 1.91667,0.0789 0.33229,0.33229 -0.25834,0.56864 -1.3125,0.52522 -1.16495,-0.048 -1.4019,-0.28494 -0.60417,-0.60416 z m 3,-2 c 0.72187,-0.28887 1.58438,-0.25335 1.91667,0.0789 0.33229,0.33229 -0.25834,0.56864 -1.3125,0.52522 -1.16495,-0.048 -1.4019,-0.28494 -0.60417,-0.60416 z M 562,647.5 c 1.86578,-1.925 3.61733,-3.5 3.89233,-3.5 0.275,0 -1.02655,1.575 -2.89233,3.5 -1.86578,1.925 -3.61733,3.5 -3.89233,3.5 -0.275,0 1.02655,-1.575 2.89233,-3.5 z M 343.40499,640.75 341.5,638.5 l 2.25,1.90499 c 2.11444,1.79022 2.70524,2.59501 1.90499,2.59501 -0.18976,0 -1.20226,-1.0125 -2.25,-2.25 z m 82.54118,-11.5 -3.44617,-3.75 3.75,3.44617 c 2.0625,1.89539 3.75,3.58289 3.75,3.75 0,0.76362 -0.84622,0.0442 -4.05383,-3.44617 z M 339,624.55902 c 0,-1.89254 0.34578,-3.65469 0.7684,-3.91589 0.42263,-0.26119 0.60036,1.28725 0.39497,3.44099 C 339.70224,628.91953 339,629.2062 339,624.55902 Z M 438.87244,623.25 c -1.24387,-1.58606 -1.2085,-1.62143 0.37756,-0.37756 0.9625,0.75485 1.75,1.54235 1.75,1.75 0,0.82304 -0.82119,0.29331 -2.12756,-1.37244 z M 458,620.62244 c 0,-0.20765 0.7875,-0.99515 1.75,-1.75 1.58606,-1.24387 1.62143,-1.2085 0.37756,0.37756 C 458.82119,620.91575 458,621.44548 458,620.62244 Z M 567.29966,610 c 0,-3.025 0.18747,-4.2625 0.41659,-2.75 0.22913,1.5125 0.22913,3.9875 0,5.5 -0.22912,1.5125 -0.41659,0.275 -0.41659,-2.75 z m -157.14177,-1 c 0,-1.375 0.22698,-1.9375 0.50439,-1.25 0.27741,0.6875 0.27741,1.8125 0,2.5 -0.27741,0.6875 -0.50439,0.125 -0.50439,-1.25 z M 443,601.62244 c 0,-0.20765 0.7875,-0.99515 1.75,-1.75 1.58606,-1.24387 1.62143,-1.2085 0.37756,0.37756 C 443.82119,601.91575 443,602.44548 443,601.62244 Z M 438.5,597 c 0.99549,-1.1 2.03498,-2 2.30998,-2 0.275,0 -0.31449,0.9 -1.30998,2 -0.99549,1.1 -2.03498,2 -2.30998,2 -0.275,0 0.31449,-0.9 1.30998,-2 z m 35.37244,0.25 c -1.24387,-1.58606 -1.2085,-1.62143 0.37756,-0.37756 0.9625,0.75485 1.75,1.54235 1.75,1.75 0,0.82304 -0.82119,0.29331 -2.12756,-1.37244 z m -92.05994,-3.93311 c 0.72187,-0.28887 1.58438,-0.25335 1.91667,0.0789 0.33229,0.33229 -0.25834,0.56864 -1.3125,0.52522 -1.16495,-0.048 -1.4019,-0.28494 -0.60417,-0.60416 z M 393.75,592.2766 c 1.7875,-0.22182 4.7125,-0.22182 6.5,0 1.7875,0.22183 0.325,0.40333 -3.25,0.40333 -3.575,0 -5.0375,-0.1815 -3.25,-0.40333 z M 426,590.62244 c 0,-0.20765 0.7875,-0.99515 1.75,-1.75 1.58606,-1.24387 1.62143,-1.2085 0.37756,0.37756 C 426.82119,590.91575 426,591.44548 426,590.62244 Z m 32.8125,-0.30555 c 0.72187,-0.28887 1.58438,-0.25335 1.91667,0.0789 0.33229,0.33229 -0.25834,0.56864 -1.3125,0.52522 -1.16495,-0.048 -1.4019,-0.28494 -0.60417,-0.60416 z m -46,-2 c 0.72187,-0.28887 1.58438,-0.25335 1.91667,0.0789 0.33229,0.33229 -0.25834,0.56864 -1.3125,0.52522 -1.16495,-0.048 -1.4019,-0.28494 -0.60417,-0.60416 z M 399.5,584 c 0.99549,-1.1 2.03498,-2 2.30998,-2 0.275,0 -0.31449,0.9 -1.30998,2 -0.99549,1.1 -2.03498,2 -2.30998,2 -0.275,0 0.31449,-0.9 1.30998,-2 z m 8.57895,0.41667 c 0.048,-1.16495 0.28494,-1.4019 0.60416,-0.60417 0.28887,0.72187 0.25335,1.58438 -0.0789,1.91667 -0.33229,0.33229 -0.56864,-0.25834 -0.52522,-1.3125 z m 4.73355,-4.09978 c 0.72187,-0.28887 1.58438,-0.25335 1.91667,0.0789 0.33229,0.33229 -0.25834,0.56864 -1.3125,0.52522 -1.16495,-0.048 -1.4019,-0.28494 -0.60417,-0.60416 z M 559.87244,573.25 c -1.24387,-1.58606 -1.2085,-1.62143 0.37756,-0.37756 0.9625,0.75485 1.75,1.54235 1.75,1.75 0,0.82304 -0.82119,0.29331 -2.12756,-1.37244 z M 382,570.5 c 1.29175,-1.375 2.57363,-2.5 2.84863,-2.5 0.275,0 -0.55688,1.125 -1.84863,2.5 -1.29175,1.375 -2.57363,2.5 -2.84863,2.5 -0.275,0 0.55688,-1.125 1.84863,-2.5 z m 10,-12.87756 c 0,-0.20765 0.7875,-0.99515 1.75,-1.75 1.58606,-1.24387 1.62143,-1.2085 0.37756,0.37756 C 392.82119,557.91575 392,558.44548 392,557.62244 Z M 400.5,554 c 2.14824,-2.2 4.1309,-4 4.4059,-4 0.275,0 -1.25766,1.8 -3.4059,4 -2.14824,2.2 -4.1309,4 -4.4059,4 -0.275,0 1.25766,-1.8 3.4059,-4 z M 416,533.5 c 1.29175,-1.375 2.57363,-2.5 2.84863,-2.5 0.275,0 -0.55688,1.125 -1.84863,2.5 -1.29175,1.375 -2.57363,2.5 -2.84863,2.5 -0.275,0 0.55688,-1.125 1.84863,-2.5 z m 8,-6.87756 c 0,-0.20765 0.7875,-0.99515 1.75,-1.75 1.58606,-1.24387 1.62143,-1.2085 0.37756,0.37756 C 424.82119,526.91575 424,527.44548 424,526.62244 Z m 113,-5 c 0,-0.20765 0.7875,-0.99515 1.75,-1.75 1.58606,-1.24387 1.62143,-1.2085 0.37756,0.37756 C 537.82119,521.91575 537,522.44548 537,521.62244 Z m 135,-17 c 0,-0.20765 0.7875,-0.99515 1.75,-1.75 1.58606,-1.24387 1.62143,-1.2085 0.37756,0.37756 C 672.82119,504.91575 672,505.44548 672,504.62244 Z M 484.92431,499.25 482.5,496.5 l 2.75,2.42431 c 2.57029,2.26589 3.20859,3.07569 2.42431,3.07569 -0.17912,0 -1.41662,-1.2375 -2.75,-2.75 z M 678.5,497 c 0.99549,-1.1 2.03498,-2 2.30998,-2 0.275,0 -0.31449,0.9 -1.30998,2 -0.99549,1.1 -2.03498,2 -2.30998,2 -0.275,0 0.31449,-0.9 1.30998,-2 z m -8.5,-9.5 c 1.29175,-1.375 2.57363,-2.5 2.84863,-2.5 0.275,0 -0.55688,1.125 -1.84863,2.5 -1.29175,1.375 -2.57363,2.5 -2.84863,2.5 -0.275,0 0.55688,-1.125 1.84863,-2.5 z m 28,-9.87756 c 0,-0.20765 0.7875,-0.99515 1.75,-1.75 1.58606,-1.24387 1.62143,-1.2085 0.37756,0.37756 C 698.82119,477.91575 698,478.44548 698,477.62244 Z M 487.15789,474 c 0,-1.375 0.22698,-1.9375 0.50439,-1.25 0.27741,0.6875 0.27741,1.8125 0,2.5 -0.27741,0.6875 -0.50439,0.125 -0.50439,-1.25 z M 687.5,470 c 0.99549,-1.1 2.03498,-2 2.30998,-2 0.275,0 -0.31449,0.9 -1.30998,2 -0.99549,1.1 -2.03498,2 -2.30998,2 -0.275,0 0.31449,-0.9 1.30998,-2 z M 539.92431,458.25 537.5,455.5 l 3,2.5 c 1.65,1.375 3.1875,2.6125 3.41667,2.75 0.22916,0.1375 -0.0299,0.25 -0.57569,0.25 -0.54579,0 -2.08329,-1.2375 -3.41667,-2.75 z M 614,460.05902 c 0,-0.51754 0.375,-1.17275 0.83333,-1.45601 0.45834,-0.28327 0.83334,0.14017 0.83334,0.94098 0,0.8008 -0.375,1.45601 -0.83334,1.45601 C 614.375,461 614,460.57656 614,460.05902 Z M 492.5,458 c 0.99549,-1.1 2.03498,-2 2.30998,-2 0.275,0 -0.31449,0.9 -1.30998,2 -0.99549,1.1 -2.03498,2 -2.30998,2 -0.275,0 0.31449,-0.9 1.30998,-2 z M 619,455.62244 c 0,-0.20765 0.7875,-0.99515 1.75,-1.75 1.58606,-1.24387 1.62143,-1.2085 0.37756,0.37756 C 619.82119,455.91575 619,456.44548 619,455.62244 Z M 482.5,453 c 0.99549,-1.1 2.03498,-2 2.30998,-2 0.275,0 -0.31449,0.9 -1.30998,2 -0.99549,1.1 -2.03498,2 -2.30998,2 -0.275,0 0.31449,-0.9 1.30998,-2 z m 169.3125,1.31689 c 0.72187,-0.28887 1.58438,-0.25335 1.91667,0.0789 0.33229,0.33229 -0.25834,0.56864 -1.3125,0.52522 -1.16495,-0.048 -1.4019,-0.28494 -0.60417,-0.60416 z m 8.9375,-0.97917 c 0.6875,-0.27741 1.8125,-0.27741 2.5,0 0.6875,0.27741 0.125,0.50439 -1.25,0.50439 -1.375,0 -1.9375,-0.22698 -1.25,-0.50439 z m 17.9777,-1.05945 c 1.77523,-0.22091 4.92523,-0.22454 7,-0.008 2.07476,0.21648 0.6223,0.39722 -3.2277,0.40166 -3.85,0.004 -5.54754,-0.17268 -3.7723,-0.39359 z M 624,451.62244 c 0,-0.20765 0.7875,-0.99515 1.75,-1.75 1.58606,-1.24387 1.62143,-1.2085 0.37756,0.37756 C 624.82119,451.91575 624,452.44548 624,451.62244 Z M 648,445.5 c 1.86578,-1.925 3.61733,-3.5 3.89233,-3.5 0.275,0 -1.02655,1.575 -2.89233,3.5 -1.86578,1.925 -3.61733,3.5 -3.89233,3.5 -0.275,0 1.02655,-1.575 2.89233,-3.5 z m 16.75,2.83772 c 0.6875,-0.27741 1.8125,-0.27741 2.5,0 0.6875,0.27741 0.125,0.50439 -1.25,0.50439 -1.375,0 -1.9375,-0.22698 -1.25,-0.50439 z m 56.0625,-0.0208 c 0.72187,-0.28887 1.58438,-0.25335 1.91667,0.0789 0.33229,0.33229 -0.25834,0.56864 -1.3125,0.52522 -1.16495,-0.048 -1.4019,-0.28494 -0.60417,-0.60416 z m -40.05084,-1.02415 c 1.24391,-0.23919 3.04391,-0.23011 4,0.0202 0.95609,0.25029 -0.0617,0.446 -2.26166,0.4349 -2.2,-0.0111 -2.98225,-0.21589 -1.73834,-0.45508 z m 23,0 c 1.24391,-0.23919 3.04391,-0.23011 4,0.0202 0.95609,0.25029 -0.0617,0.446 -2.26166,0.4349 -2.2,-0.0111 -2.98225,-0.21589 -1.73834,-0.45508 z M 501.8125,444.31689 c 0.72187,-0.28887 1.58438,-0.25335 1.91667,0.0789 0.33229,0.33229 -0.25834,0.56864 -1.3125,0.52522 -1.16495,-0.048 -1.4019,-0.28494 -0.60417,-0.60416 z m 10,0 c 0.72187,-0.28887 1.58438,-0.25335 1.91667,0.0789 0.33229,0.33229 -0.25834,0.56864 -1.3125,0.52522 -1.16495,-0.048 -1.4019,-0.28494 -0.60417,-0.60416 z m 119,-9 c 0.72187,-0.28887 1.58438,-0.25335 1.91667,0.0789 0.33229,0.33229 -0.25834,0.56864 -1.3125,0.52522 -1.16495,-0.048 -1.4019,-0.28494 -0.60417,-0.60416 z m 34,-5 c 0.72187,-0.28887 1.58438,-0.25335 1.91667,0.0789 0.33229,0.33229 -0.25834,0.56864 -1.3125,0.52522 -1.16495,-0.048 -1.4019,-0.28494 -0.60417,-0.60416 z m -32,-1 c 0.72187,-0.28887 1.58438,-0.25335 1.91667,0.0789 0.33229,0.33229 -0.25834,0.56864 -1.3125,0.52522 -1.16495,-0.048 -1.4019,-0.28494 -0.60417,-0.60416 z m 19.9375,0.0208 c 0.6875,-0.27741 1.8125,-0.27741 2.5,0 0.6875,0.27741 0.125,0.50439 -1.25,0.50439 -1.375,0 -1.9375,-0.22698 -1.25,-0.50439 z M 373.5,401 c 0.99549,-1.1 2.03498,-2 2.30998,-2 0.275,0 -0.31449,0.9 -1.30998,2 -0.99549,1.1 -2.03498,2 -2.30998,2 -0.275,0 0.31449,-0.9 1.30998,-2 z m 757.905,-0.25 -1.905,-2.25 2.25,1.90499 c 2.1144,1.79022 2.7052,2.59501 1.905,2.59501 -0.1898,0 -1.2023,-1.0125 -2.25,-2.25 z M 392.5,382 c 0.99549,-1.1 2.03498,-2 2.30998,-2 0.275,0 -0.31449,0.9 -1.30998,2 -0.99549,1.1 -2.03498,2 -2.30998,2 -0.275,0 0.31449,-0.9 1.30998,-2 z m 719.905,-0.25 -1.905,-2.25 2.25,1.90499 c 2.1144,1.79022 2.7052,2.59501 1.905,2.59501 -0.1898,0 -1.2023,-1.0125 -2.25,-2.25 z M 736.26903,238.30701 c 0.97297,-0.25354 2.32297,-0.23687 3,0.0371 0.67703,0.27393 -0.11903,0.48137 -1.76903,0.46099 -1.65,-0.0204 -2.20394,-0.2445 -1.23097,-0.49804 z m 31,0 c 0.97297,-0.25354 2.32297,-0.23687 3,0.0371 0.67703,0.27393 -0.11903,0.48137 -1.76903,0.46099 -1.65,-0.0204 -2.20394,-0.2445 -1.23097,-0.49804 z"
         id="path20" />
      <path
         style="fill:#c80100"
         d="M 753,523.5 V 283 l 8.25,0.005 c 10.97334,0.007 38.57284,2.48549 55.96585,5.02651 50.16577,7.32894 99.13912,22.15844 143.28415,43.38752 45.1277,21.70165 92.4556,55.53698 129.4998,92.58119 37.0442,37.04421 70.8795,84.37204 92.5811,129.49976 17.9273,37.27908 32.4071,81.62662 39.9066,122.22268 5.0701,27.44579 6.5125,42.03952 6.5125,65.89369 v 22.38363 H 991 753 v -240.5 z m 211.43817,161.75 c 3.24229,-13.0625 6.09149,-24.51422 6.33155,-25.44828 0.39427,-1.534 -0.84092,-1.69827 -12.76972,-1.69827 -11.9288,0 -13.16399,0.16427 -12.76972,1.69827 0.24006,0.93406 3.08926,12.38578 6.33155,25.44828 3.24229,13.0625 6.13946,23.75 6.43817,23.75 0.29871,0 3.19588,-10.6875 6.43817,-23.75 z m -37.48491,-6.05617 c 7.29725,-11.7184 13.0571,-21.51681 12.79966,-21.77424 -0.25744,-0.25744 -3.58704,-1.33238 -7.39913,-2.38877 -3.81208,-1.05638 -9.06857,-2.83694 -11.68109,-3.95679 -3.49568,-1.49843 -4.85096,-1.71102 -5.13224,-0.80507 -0.34518,1.11172 -3.57475,47.21088 -3.55056,50.68104 0.0151,2.16767 0.54866,1.39189 14.96336,-21.75617 z m 75.54284,-2.85096 c -0.9083,-13.66358 -1.8241,-25.39684 -2.0351,-26.07391 -0.2824,-0.9061 -1.63744,-0.6936 -5.1337,0.80507 -2.61252,1.11985 -7.86901,2.90041 -11.68109,3.95679 -3.81209,1.05639 -7.13829,2.12793 -7.39157,2.38121 -0.25328,0.25328 5.73838,10.38662 13.3148,22.51853 7.57643,12.13191 13.95596,21.87738 14.17676,21.6566 0.2208,-0.22078 -0.3418,-11.58071 -1.2501,-25.24429 z M 893.29872,662.6406 C 903.03442,654.46793 911,647.46329 911,647.07474 c 0,-0.38855 -1.6875,-1.66211 -3.75,-2.83012 -2.0625,-1.16802 -6.60504,-4.43333 -10.09454,-7.25627 -3.4895,-2.82293 -6.52245,-4.95469 -6.73989,-4.73726 C 889.74814,632.91852 871,679.24284 871,680.22455 c 0,1.12124 0.26612,0.91138 22.29872,-17.58395 z m 142.20918,-6.62131 c -5.2405,-12.85507 -9.706,-23.55076 -9.9235,-23.7682 -0.2174,-0.21743 -3.2504,1.91433 -6.7399,4.73726 -3.4895,2.82294 -8.0403,6.09293 -10.113,7.26666 -2.0727,1.17373 -3.6279,2.55589 -3.456,3.07146 0.5024,1.50708 39.1973,33.67612 39.4925,32.83204 0.1474,-0.4215 -4.0197,-11.28416 -9.2601,-24.13922 z M 980.5,648.04977 c 31.4038,-8.17116 55.9876,-32.71924 64.6437,-64.54977 1.7663,-6.49481 2.1756,-10.72815 2.1756,-22.5 0,-11.77185 -0.4093,-16.00519 -2.1756,-22.5 -7.1801,-26.40312 -24.7104,-47.33955 -49.45261,-59.06137 C 983.04535,473.44762 974.461,471.68071 958,471.68071 c -11.77185,0 -16.00519,0.40932 -22.5,2.17554 -31.79856,8.64741 -55.99634,32.84519 -64.64375,64.64375 -1.76622,6.49481 -2.17554,10.72815 -2.17554,22.5 0,11.77185 0.40932,16.00519 2.17554,22.5 9.35844,34.41319 36.36304,59.3793 71.48532,66.08912 9.79778,1.87179 27.84693,1.14367 38.15843,-1.53935 z m -117.47519,-9.55988 c 12.83081,-5.23057 23.50666,-9.68802 23.7241,-9.90546 0.21743,-0.21744 -1.91433,-3.25039 -4.73726,-6.73989 -2.82294,-3.4895 -6.08825,-8.03204 -7.25627,-10.09454 -1.16801,-2.0625 -2.44157,-3.75 -2.83012,-3.75 -0.38855,0 -7.39319,7.96558 -15.56586,17.70128 C 837.86407,647.73388 837.65421,648 838.77545,648 c 0.50634,0 11.41855,-4.27955 24.24936,-9.51011 z m 213.29779,7.21139 C 1069.0913,636.58089 1044.6446,608 1044.0747,608 c -0.3885,0 -1.6621,1.6875 -2.8301,3.75 -1.168,2.0625 -4.4333,6.60504 -7.2562,10.09454 -2.823,3.4895 -4.9533,6.52392 -4.734,6.74315 0.7676,0.76761 46.2587,19.25824 47.5682,19.33489 0.9358,0.0548 0.7896,-0.59481 -0.5,-2.2213 z M 843.5,605.43099 c 13.2,-0.87408 24.55397,-1.76122 25.23104,-1.97145 0.90595,-0.28128 0.69336,-1.63656 -0.80507,-5.13224 -1.11985,-2.61252 -2.90041,-7.86901 -3.95679,-11.68109 -1.05639,-3.81209 -2.13133,-7.14169 -2.38877,-7.39913 -0.41346,-0.41346 -41.61638,24.7686 -44.03041,26.91015 -1.24268,1.10241 -1.97564,1.12292 25.95,-0.72624 z m 254.95,0.72624 C 1096.9467,604.82364 1055.306,579 1054.6588,579 c -0.3199,0 -1.0642,1.9125 -1.6538,4.25 -0.5897,2.3375 -2.1867,7.4 -3.5489,11.25 -1.3621,3.85 -2.5845,7.45 -2.7164,8 -0.1453,0.60629 8.225,1.63265 21.2603,2.60691 26.1676,1.95576 31.6852,2.14608 30.45,1.05032 z M 860.89655,560.89689 c 0,-11.83179 -0.16477,-13.06075 -1.69827,-12.66661 -0.93406,0.24006 -12.38578,3.08926 -25.44828,6.33155 -13.0625,3.24229 -23.75,6.13903 -23.75,6.4372 0,0.49528 46.92859,12.68026 49.69828,12.90412 0.87499,0.0707 1.19827,-3.43821 1.19827,-13.00626 z M 1082.25,567.43817 C 1095.3125,564.19588 1106,561.29871 1106,561 c 0,-0.29871 -10.6875,-3.19588 -23.75,-6.43817 -13.0625,-3.24229 -24.5142,-6.09149 -25.4483,-6.33155 -1.534,-0.39427 -1.6983,0.84092 -1.6983,12.76972 0,11.9288 0.1643,13.16399 1.6983,12.76972 0.9341,-0.24006 12.3858,-3.08926 25.4483,-6.33155 z M 862.97662,538.75 c 0.57955,-2.3375 2.35323,-7.76838 3.94152,-12.06862 1.94993,-5.27937 2.51335,-7.9335 1.73483,-8.17234 -1.89693,-0.58196 -50.80518,-3.69016 -51.23902,-3.25633 -0.42692,0.42693 42.59596,27.64672 43.79751,27.70989 0.3913,0.0206 1.18562,-1.8751 1.76516,-4.2126 z m 214.11878,-9.42238 c 12.0412,-7.51981 21.7125,-13.85302 21.4918,-14.07379 -0.4346,-0.43459 -49.3402,2.67231 -51.2402,3.25521 -0.7785,0.23884 -0.2151,2.89297 1.7349,8.17234 1.5883,4.30024 3.3619,9.73112 3.9415,12.06862 0.5795,2.3375 1.3068,4.25 1.6162,4.25 0.3094,0 10.4145,-6.15257 22.4558,-13.67238 z M 874.75538,510.25 c 1.16802,-2.0625 4.43333,-6.60504 7.25627,-10.09454 2.82293,-3.4895 4.95469,-6.52245 4.73726,-6.73989 -0.88491,-0.8849 -47.19865,-19.43131 -47.9048,-19.18355 C 837.98686,474.53281 870.81693,514 871.92439,514 c 0.38903,0 1.66298,-1.6875 2.83099,-3.75 z m 186.83902,-16.29398 c 8.9818,-10.70081 15.9856,-19.57661 15.5641,-19.724 -0.7082,-0.24764 -47.0214,18.29753 -47.9074,19.18355 -0.2174,0.21744 1.9143,3.25039 4.7373,6.73989 2.8229,3.4895 6.0929,8.04036 7.2666,10.11303 1.1737,2.07267 2.5559,3.62788 3.0715,3.45602 0.5155,-0.17186 8.2861,-9.06768 17.2679,-19.76849 z m -164.34944,-9.0165 c 3.44027,-2.78326 7.95086,-6.0208 10.02353,-7.19453 2.07267,-1.17373 3.62788,-2.55589 3.45602,-3.07146 -0.43265,-1.29794 -39.08394,-33.64743 -39.59339,-33.13798 -0.43953,0.43952 18.8771,48.46445 19.49341,48.46445 0.20097,0 3.18016,-2.27722 6.62043,-5.06048 z m 138.26574,-18.96589 c 5.3734,-13.21451 9.5846,-24.21164 9.3582,-24.43808 -0.4995,-0.49952 -39.1643,31.83345 -39.5611,33.08251 -0.1541,0.48507 2.1348,2.39838 5.0865,4.2518 2.9518,1.85342 7.3331,5.09674 9.7363,7.20736 2.4032,2.11063 4.6486,3.85669 4.9898,3.88014 0.3413,0.0235 5.0169,-10.76923 10.3903,-23.98373 z m -103.15691,0.99555 c 3.81209,-1.05639 7.13829,-2.12793 7.39157,-2.38121 0.25328,-0.25328 -5.73838,-10.38662 -13.3148,-22.51853 -7.57643,-12.13191 -13.95596,-21.87738 -14.17673,-21.6566 -0.4494,0.44939 2.68341,49.38743 3.28517,51.3182 0.2824,0.9061 1.63744,0.6936 5.1337,-0.80507 2.61252,-1.11985 7.86901,-2.90041 11.68109,-3.95679 z m 70.07941,-20.81792 c 0.9365,-13.94181 1.5247,-25.52674 1.3071,-25.74429 -0.2175,-0.21755 -6.59443,9.53056 -14.17086,21.66247 -7.57642,12.13191 -13.56808,22.26525 -13.3148,22.51853 0.25328,0.25328 3.5621,1.32013 7.35293,2.37079 3.79084,1.05065 8.91743,2.78781 11.39243,3.86035 2.475,1.07254 4.77687,1.6645 5.1153,1.31548 0.3384,-0.34902 1.3814,-12.04152 2.3179,-25.98333 z m -31.66348,16.04702 C 970.52966,461.26422 967.68046,449.8125 964.43817,436.75 961.19588,423.6875 958.29871,413 958,413 c -0.29871,0 -3.19588,10.6875 -6.43817,23.75 -3.24229,13.0625 -6.09149,24.51422 -6.33155,25.44828 -0.39427,1.534 0.84092,1.69827 12.76972,1.69827 11.9288,0 13.16399,-0.16427 12.76972,-1.69827 z M 1239,740.11637 c 0,-25.47924 -1.3497,-39.44632 -6.5125,-67.39369 C 1222.9973,621.35064 1202.2678,564.42852 1177.0519,520.5 1127.9307,434.92598 1052.9304,364.69876 965.5,322.41152 919.78151,300.29898 871.33342,285.49953 820.21585,278.03153 801.96225,275.36479 775.05652,273.01135 762.75,273.00502 L 753,273 v -5 -5 l 11.25,0.005 c 40.79776,0.0182 98.57552,10.01877 143.37559,24.81643 63.42888,20.95085 119.66861,52.74107 171.02271,96.67272 40.368,34.53345 79.2126,81.62984 106.4025,129.00583 26.5342,46.23346 47.8063,104.09186 57.4367,156.22268 5.2479,28.40799 6.5125,41.78578 6.5125,68.89369 v 25.38363 h -5 -5 v -23.88363 z"
         id="path18" />
      <path
         style="fill:#020202"
         d="M 726,1283.0089 C 595.19688,1275.4973 474.9962,1221.9667 383.51475,1130.4852 304.20554,1051.176 252.81196,949.19323 236.11867,838 c -7.42845,-49.48059 -7.42845,-104.51941 0,-154 C 252.81196,572.80677 304.20554,470.82397 383.51475,391.51475 462.82397,312.20554 564.80677,260.81196 676,244.11867 c 49.48059,-7.42845 104.51941,-7.42845 154,0 111.19323,16.69329 213.176,68.08687 292.4852,147.39608 77.184,77.18398 128.0369,175.96766 145.9355,283.48525 4.9234,29.57495 5.56,39.42251 5.56,86 0,46.57749 -0.6366,56.42505 -5.56,86 -17.8986,107.51759 -68.7515,206.3013 -145.9355,283.4852 -79.3092,79.3093 -181.29197,130.7028 -292.4852,147.3961 -31.26723,4.6941 -74.46306,6.8239 -104,5.1276 z m 66.34125,-25.5046 c 64.29046,-5.6714 121.46754,-21.3682 178.15875,-48.9099 23.01618,-11.1817 36.0977,-18.6152 56.5,-32.1058 65.2071,-43.1169 119.5093,-100.8334 158.0508,-167.9886 26.5342,-46.23346 47.8063,-104.09186 57.4367,-156.22268 C 1248.4963,819.75049 1249,812.69063 1249,761 c 0,-51.69063 -0.5037,-58.75049 -6.5125,-91.27732 -9.6304,-52.13082 -30.9025,-109.98922 -57.4367,-156.22268 -27.1899,-47.37599 -66.0345,-94.47238 -106.4025,-129.00583 -51.3541,-43.93165 -107.59383,-75.72187 -171.02271,-96.67272 -100.04996,-33.04695 -209.20122,-33.04695 -309.25118,0 -63.42888,20.95085 -119.66864,52.74107 -171.02273,96.67272 -33.2686,28.46015 -64.26202,63.82296 -89.84031,102.50583 -13.49058,20.40225 -20.92411,33.48382 -32.10581,56.5 -56.87769,117.07585 -66.00026,249.76533 -25.58411,372.12559 20.95085,63.42888 52.74107,119.66861 96.67272,171.02271 28.46015,33.2686 63.82296,64.262 102.50583,89.8403 20.40225,13.4906 33.48382,20.9241 56.5,32.1058 56.00481,27.2082 113.30434,43.033 177,48.8831 19.66562,1.8061 59.51894,1.8195 79.84125,0.027 z M 715.5,1247.4775 c -62.75235,-5.7635 -120.67654,-21.6145 -175,-47.889 C 442.93388,1152.3989 361.60108,1071.0661 314.41152,973.5 282.49536,907.51218 265.01004,832.29923 265.01004,761 c 0,-71.29923 17.48532,-146.51218 49.40148,-212.5 C 361.60108,450.93388 442.93388,369.60108 540.5,322.41152 606.48782,290.49536 681.70077,273.01004 753,273.01004 c 71.29923,0 146.51218,17.48532 212.5,49.40148 97.5661,47.18956 178.8989,128.52236 226.0885,226.08848 23.1866,47.9392 38.1421,98.26488 45.4278,152.86637 1.7273,12.94511 1.9837,20.65192 1.9837,59.63363 0,48.37481 -0.571,56.11473 -6.5125,88.27732 -9.4902,51.37204 -30.2197,108.29416 -55.4356,152.22268 -49.1212,85.574 -124.1215,155.8012 -211.5519,198.0885 -66.89626,32.3555 -142.24391,49.669 -214.5,49.2881 -11.825,-0.062 -27.8,-0.6919 -35.5,-1.3991 z m 70.84125,-9.9732 c 51.54219,-4.5468 97.62379,-15.3695 144.65875,-33.9744 47.0571,-18.6137 91.2429,-45.7338 133.6481,-82.0299 47.5347,-40.6867 91.1049,-97.2123 117.9328,-153 22.2994,-46.37068 37.2778,-97.22497 44.4354,-150.86637 C 1228.7256,804.8236 1229,796.98994 1229,761 c 0,-35.98994 -0.2744,-43.8236 -1.9837,-56.63363 -7.1576,-53.6414 -22.136,-104.49569 -44.4354,-150.86637 -26.8279,-55.7877 -70.3981,-112.31333 -117.9328,-153 C 1022.2429,364.20394 978.0571,337.08377 931,318.47009 883.96504,299.86516 837.88344,289.04249 786.34125,284.49569 710.61366,277.81537 620.429,295.38615 545.5,331.41905 489.7123,358.24702 433.18667,401.81715 392.5,449.35192 356.20394,491.75709 329.08377,535.9429 310.47009,583 c -18.60493,47.03496 -29.4276,93.11656 -33.9744,144.65875 -6.68032,75.72759 10.89046,165.91225 46.92336,240.84125 21.70165,45.1277 55.53698,92.4556 92.58119,129.4998 37.04421,37.0442 84.37204,70.8795 129.49976,92.5811 74.79901,35.9704 165.24503,53.5921 240.84125,46.9234 z m 196.96888,-133.3403 0.62344,-15.8361 -3.26439,-3.1639 c -1.79542,-1.7402 -3.81546,-3.164 -4.48898,-3.164 -0.67353,0 -4.92711,1.9084 -9.4524,4.241 -4.52529,2.3325 -8.54625,4.3887 -8.93546,4.5692 -0.38921,0.1805 -1.41887,-1.3739 -2.28814,-3.4544 -3.35498,-8.0296 -7.24636,-10.1954 -19.8001,-11.02 l -9.29098,-0.6103 -9.82745,7.6821 c -12.4631,9.7423 -19.79237,14.7159 -27.20659,18.4622 -14.14968,7.1495 -28.05932,9.5349 -33.77251,5.7918 -2.83997,-1.8606 -2.91942,-2.4675 -1.09106,-8.3336 0.58611,-1.8806 -0.0769,-2.5413 -4.93985,-4.9224 -9.28374,-4.5458 -9.16258,-5.4056 0.76172,-5.4056 h 8.58226 l 2.11163,-6.75 c 1.16139,-3.7125 2.3505,-9.9 2.64246,-13.75 0.47097,-6.2106 0.26557,-7.3842 -1.82145,-10.4072 -5.72908,-8.2983 -15.70368,-12.4509 -28.5588,-11.8895 L 826.5,1046.5 l 0.34242,7.5 0.34241,7.5 -2.67935,-2.5 c -1.47365,-1.375 -4.24577,-5.2978 -6.16026,-8.7174 -3.07594,-5.4941 -3.90929,-6.2891 -7.16306,-6.8332 -13.10943,-2.1922 -19.73194,-7.2202 -22.49899,-17.0818 -0.92574,-3.2994 -1.68317,-6.5279 -1.68317,-7.1746 0,-0.6466 -1.53543,-3.1872 -3.41207,-5.6457 -4.11498,-5.391 -5.13204,-9.3686 -3.5901,-14.04074 2.14623,-6.50312 5.86042,-7.55339 18.8405,-5.32755 5.85974,1.00483 7.89377,0.9282 13.76856,-0.5187 12.82373,-3.15837 18.35184,-8.62888 22.8989,-22.66031 0.98028,-3.025 2.36256,-5.8431 3.07172,-6.26244 0.70916,-0.41935 4.87361,-5.36935 9.25434,-11 12.88476,-16.56109 34.6036,-36.75961 41.64688,-38.7316 4.39369,-1.23016 4.52525,-1.39166 7.64031,-9.37884 1.7433,-4.46991 4.56719,-12.74945 6.2753,-18.39896 l 3.10566,-10.27184 13.99709,-9.22816 c 12.72781,-8.39133 14.07249,-9.56021 14.82845,-12.88981 1.03433,-4.55565 6.51077,-11.07208 12.01684,-14.29885 5.73989,-3.3638 16.49402,-4.93161 24.72978,-3.60528 8.08759,1.30247 17.30598,5.80206 23.74231,11.58888 l 4.98443,4.48147 14.3506,-7.01911 c 43.6022,-21.32663 74.2139,-27.95487 107.7252,-23.32534 l 4.3746,0.60435 -6.4773,3.41936 c -3.5626,1.88065 -9.5812,6.29975 -13.3747,9.82021 -7.5979,7.05099 -7.5489,7.12607 3.6027,5.52049 21.0336,-3.02838 57.7282,-3.21656 78.2671,-0.40139 l 4.628,0.63433 -8.6976,5.44348 C 1172.0013,855.96 1162.7188,863.3478 1149.6406,876 c -30.1986,29.21499 -40.693,47.21755 -69.6611,119.5 -24.2141,60.4197 -47.2178,95.2241 -75.2786,113.895 -7.92826,5.2753 -18.42486,10.605 -20.88607,10.605 -0.81629,0 -0.9558,-4.3777 -0.5047,-15.836 z m 31.47777,-18.2672 c 24.7866,-30.92 30.6528,-42.1567 50.847,-97.3968 13.1787,-36.04952 27.4648,-63.20637 46.7522,-88.87256 16.0513,-21.35978 30.6228,-36.21556 46.3537,-47.25787 3.7175,-2.60956 6.9467,-4.88526 7.1759,-5.05711 1.1536,-0.86514 -1.5802,-1.36836 -12.6611,-2.33052 -14.7638,-1.28196 -35.0746,-0.0375 -57.3354,3.51295 -8.4811,1.35269 -17.2202,2.72569 -19.4202,3.05111 l -4,0.59167 4,-3.57386 c 2.2,-1.96562 9.2578,-7.50909 15.684,-12.31883 l 11.684,-8.74498 -6.5045,-0.2973 c -19.2126,-0.87813 -49.9925,10.25598 -79.4947,28.75583 l -9.6312,6.03942 3.0968,8.75102 c 2.8434,8.0351 3.0996,9.81457 3.1312,21.75103 0.03,11.47665 -0.2337,13.58162 -2.2538,17.96346 -2.6383,5.72291 -4.9229,8.53654 -6.9314,8.53654 -0.7753,0 -3.6436,-0.96101 -6.37395,-2.13559 -4.53143,-1.94937 -4.80309,-2.24851 -3.1154,-3.43061 1.0169,-0.71226 3.39154,-4.58875 5.27695,-8.61441 3.2522,-6.94372 3.4282,-7.88397 3.4301,-18.31939 0,-9.98263 -0.2529,-11.51881 -2.7529,-16.60948 -3.28298,-6.685 -11.39436,-14.66556 -18.63541,-18.33488 l -5.22486,-2.64764 -3.40024,2.10146 c -9.26618,5.72682 -10.83546,12.84993 -5.44841,24.73083 l 3.03628,6.69637 -2.28628,1.75944 c -1.25745,0.96768 -2.59107,1.76943 -2.96359,1.78166 -1.30638,0.0429 -7.12998,-16.53035 -7.58635,-21.58979 -0.57558,-6.38097 1.74395,-11.712 6.41034,-14.73304 1.83071,-1.18521 3.33413,-2.49243 3.34094,-2.90493 0.007,-0.4125 -2.80012,-0.74832 -6.23762,-0.74626 -10.41545,0.006 -15.67594,5.08165 -17.09776,16.49626 -0.56549,4.53986 -0.1628,6.00343 4.37571,15.90344 2.74918,5.99688 4.88006,11.00407 4.73528,11.12708 -0.14478,0.123 -2.14378,1.1718 -4.44223,2.33067 l -4.17901,2.10702 -4.07099,-4.6249 c -2.23905,-2.54369 -4.071,-5.23653 -4.071,-5.9841 0,-2.50927 -8.40944,-1.48999 -18.78389,2.27672 -3.64132,1.32207 -4.71166,2.40351 -7.13572,7.20972 -3.55903,7.0565 -8.60186,21.27191 -9.54526,26.90749 -0.59665,3.56414 -1.14316,4.33621 -3.37356,4.76593 -13.32552,2.56735 -22.84355,6.94313 -33.42011,15.36445 -8.70723,6.9329 -13.98023,13.19059 -17.85462,21.18881 -3.42133,7.06292 -3.51278,8.38877 -0.87678,12.71223 2.24775,3.68668 5.50294,5.31058 8.48994,4.23534 2.7281,-0.98205 6.34569,-6.52143 7.65518,-11.72189 0.59524,-2.36391 1.61908,-4.29801 2.2752,-4.29801 4.01254,0 28.42097,7.87136 30.80469,9.93406 0.40429,0.34984 -1.86101,2.52659 -5.034,4.83722 -6.72389,4.89646 -12.51997,12.08766 -14.76948,18.32448 -5.80939,16.10674 10.43503,35.51664 30.73484,36.72404 15.28395,0.909 26.04679,-7.7965 27.54128,-22.2767 1.57898,-15.29883 -14.87261,-26.36898 -28.67183,-19.2931 -8.31918,4.26586 -10.47528,13.1175 -4.72385,19.3934 2.77426,3.0273 4.14226,3.6938 8.42539,4.1054 4.50947,0.4333 5.41743,0.1873 7.68797,-2.0833 3.00825,-3.0082 3.34501,-7.2305 1.08711,-13.63006 l -1.48749,-4.21601 3.23749,2.02813 c 9.67897,6.06334 9.07494,16.67044 -1.24727,21.90244 -10.03616,5.087 -20.56542,1.6297 -25.12519,-8.25 -6.2782,-13.60303 4.00644,-26.85476 20.78375,-26.77979 15.62567,0.0698 26.43075,12.93084 25.07313,29.84389 -0.87253,10.8699 -7.07155,19.3233 -17.74692,24.2009 -2.42029,1.1059 -6.58489,1.6202 -13.5,1.6671 -9.18513,0.062 -10.53352,-0.1849 -16.54737,-3.0347 -14.72957,-6.98 -21.60119,-17.6386 -23.46543,-36.3974 -0.35528,-3.575 -1.06917,-8.15623 -1.58642,-10.18052 -0.90484,-3.54114 -1.14418,-3.70598 -6.32013,-4.35267 -8.18937,-1.02319 -24.38192,1.00803 -26.96893,3.38304 -4.11077,3.77389 -14.28111,9.71293 -19.90868,11.6258 L 808,1001.4142 l -0.0153,5.0429 c -0.0219,7.2276 -0.90849,8.2433 -6.00718,6.8824 -4.98062,-1.3294 -5.52279,-0.5592 -4.52143,6.4228 1.21999,8.5064 2.79371,12.3264 6.12477,14.8672 6.43548,4.9085 21.84167,8.6569 41.16325,10.0151 9.30729,0.6542 9.91517,0.844 15.27541,4.7684 3.07031,2.2478 10.36826,7.1814 16.21767,10.9635 l 10.63529,6.8766 -3.39459,9.3777 -3.39458,9.3777 2.50854,1.6436 c 2.19359,1.4373 3.22417,1.487 8.20835,0.3955 12.51412,-2.7404 23.23941,-9.7591 29.26741,-19.1529 l 3.30829,-5.1556 11.06205,0.8805 c 17.00873,1.3537 31.24711,1.0194 37.56206,-0.8819 6.00701,-1.8085 29.58699,-16.26 37.38009,-22.9091 16.0028,-13.6536 19.847,-33.975 12.4799,-65.97187 -2.0215,-8.77982 -2.4781,-9.52279 -7.6185,-12.39588 -0.1421,-0.0795 1.6291,-4.15315 3.9361,-9.05266 l 4.1946,-8.90819 1.2668,9.10596 c 0.6968,5.00828 2.8925,14.45828 4.8793,21 4.2614,14.0307 6.2013,21.99567 8.0112,32.89404 l 1.3286,8 -4.0725,7 c -2.8127,4.8345 -7.8835,10.7516 -16.3916,19.1272 -12.2064,12.0164 -12.3375,12.1943 -14.3565,19.4799 -1.6652,6.0094 -2.0375,10.3252 -2.0375,23.6228 0,8.9486 0.3781,16.2701 0.8403,16.2701 0.4622,0 6.2886,-6.7964 12.9476,-15.1032 z M 874.06574,979.96482 c 2.82803,-1.51352 2.51671,-5.74232 -0.52478,-7.12811 -1.96918,-0.89722 -2.9652,-0.78876 -5,0.54449 -3.12944,2.05049 -3.23294,4.02071 -0.31845,6.0621 2.62167,1.83628 3.27724,1.8948 5.84323,0.52152 z m -348.75561,-267.80085 0.62344,-15.83602 -3.26439,-3.16398 C 520.87376,691.42379 518.85372,690 518.1802,690 c -0.67353,0 -4.92711,1.90844 -9.4524,4.24098 -4.52529,2.33255 -8.54625,4.38869 -8.93546,4.56922 -0.38921,0.18053 -1.41887,-1.37394 -2.28814,-3.45438 -3.35498,-8.0296 -7.24636,-10.1954 -19.8001,-11.02003 l -9.29098,-0.6103 -9.82745,7.68209 c -12.4631,9.74236 -19.79237,14.71596 -27.20659,18.4622 -14.14968,7.14951 -28.05932,9.53496 -33.77251,5.79185 -2.83997,-1.86066 -2.91942,-2.4675 -1.09106,-8.33368 0.58611,-1.8805 -0.077,-2.54121 -4.93985,-4.92234 C 382.29192,697.8598 382.41308,697 392.33738,697 h 8.58226 l 2.11163,-6.75 c 1.16139,-3.7125 2.3505,-9.9 2.64246,-13.75 0.47097,-6.2106 0.26557,-7.38423 -1.82145,-10.40717 -5.72908,-8.29832 -15.70368,-12.45091 -28.5588,-11.88951 L 368.5,654.5 l 0.34242,7.5 0.34241,7.5 -2.67935,-2.5 c -1.47365,-1.375 -4.24577,-5.29784 -6.16026,-8.71741 -3.07594,-5.49408 -3.90929,-6.28905 -7.16306,-6.83316 -13.10943,-2.19219 -19.73194,-7.22019 -22.49899,-17.08186 C 329.75743,631.06824 329,627.83971 329,627.19305 c 0,-0.64666 -1.53543,-3.18727 -3.41207,-5.64579 -4.11498,-5.39093 -5.13204,-9.36857 -3.5901,-14.0407 2.14623,-6.50312 5.86042,-7.55339 18.8405,-5.32755 5.85974,1.00483 7.89377,0.9282 13.76856,-0.5187 12.82373,-3.15837 18.35184,-8.62888 22.8989,-22.66031 0.98028,-3.025 2.36256,-5.8431 3.07172,-6.26244 0.70916,-0.41935 4.87361,-5.36935 9.25434,-11 12.88476,-16.56109 34.6036,-36.75961 41.64688,-38.7316 4.39369,-1.23016 4.52525,-1.39166 7.64031,-9.37884 1.7433,-4.46991 4.56719,-12.74945 6.2753,-18.39896 l 3.10566,-10.27184 13.99709,-9.22816 c 12.72781,-8.39133 14.07249,-9.56021 14.82845,-12.88981 1.03433,-4.55565 6.51077,-11.07208 12.01684,-14.29885 5.73989,-3.3638 16.49402,-4.93161 24.72978,-3.60528 8.08759,1.30247 17.30598,5.80206 23.74231,11.58888 l 4.98447,4.48147 14.35053,-7.01911 c 43.60221,-21.32663 74.21393,-27.95487 107.72519,-23.32534 l 4.37465,0.60435 -6.47734,3.41936 c -3.56254,1.88065 -9.58113,6.29975 -13.37466,9.82021 -7.59787,7.05099 -7.54887,7.12607 3.60269,5.52049 21.03359,-3.02838 57.72823,-3.21656 78.26713,-0.40139 l 4.62796,0.63433 -8.69755,5.44348 C 714.00132,463.96 704.71876,471.3478 691.64059,484 661.44201,513.21499 650.94763,531.21755 621.97947,603.5 597.76545,663.91975 574.76165,698.72406 546.70093,717.39502 538.77264,722.67032 528.27604,728 525.81483,728 c -0.81629,0 -0.9558,-4.37771 -0.5047,-15.83603 z m 31.47779,-18.26717 c 24.78655,-30.91996 30.65282,-42.15673 50.84699,-97.3968 13.17866,-36.04952 27.46476,-63.20637 46.75217,-88.87256 16.05128,-21.35978 30.62283,-36.21556 46.3537,-47.25787 3.71757,-2.60956 6.94672,-4.88526 7.17589,-5.05711 1.15366,-0.86514 -1.58018,-1.36836 -12.66107,-2.33052 -14.76382,-1.28196 -35.07465,-0.0375 -57.33538,3.51295 C 629.4391,457.84758 620.7,459.22058 618.5,459.546 l -4,0.59167 4,-3.57386 c 2.2,-1.96562 9.2578,-7.50909 15.68399,-12.31883 l 11.68399,-8.74498 -6.50452,-0.2973 c -19.21253,-0.87813 -49.99247,10.25598 -79.49468,28.75583 l -9.63123,6.03942 3.09682,8.75102 c 2.84347,8.0351 3.09964,9.81457 3.13123,21.75103 0.0304,11.47665 -0.23373,13.58162 -2.25379,17.96346 -2.63831,5.72291 -4.92289,8.53654 -6.93142,8.53654 -0.77529,0 -3.64357,-0.96101 -6.37394,-2.13559 -4.53143,-1.94937 -4.80309,-2.24851 -3.1154,-3.43061 1.0169,-0.71226 3.39154,-4.58875 5.27699,-8.61441 3.25213,-6.94372 3.42818,-7.88397 3.43002,-18.31939 0.002,-9.98263 -0.25285,-11.51881 -2.75286,-16.60948 -3.28298,-6.685 -11.39436,-14.66556 -18.63541,-18.33488 l -5.22486,-2.64764 -3.40024,2.10146 c -9.26618,5.72682 -10.83546,12.84993 -5.44841,24.73083 l 3.03628,6.69637 -2.28628,1.75944 c -1.25745,0.96768 -2.59107,1.76943 -2.96359,1.78166 -1.30638,0.0429 -7.12998,-16.53035 -7.58635,-21.58979 -0.57558,-6.38097 1.74395,-11.712 6.41034,-14.73304 1.83071,-1.18521 3.33413,-2.49243 3.34094,-2.90493 0.007,-0.4125 -2.80012,-0.74832 -6.23762,-0.74626 -10.41545,0.006 -15.67594,5.08165 -17.09776,16.49626 -0.56549,4.53986 -0.1628,6.00343 4.37571,15.90344 2.74918,5.99688 4.88006,11.00407 4.73528,11.12708 -0.14478,0.123 -2.14378,1.1718 -4.44223,2.33067 l -4.17901,2.10702 -4.07099,-4.6249 c -2.23905,-2.54369 -4.071,-5.23653 -4.071,-5.9841 0,-2.50927 -8.40944,-1.48999 -18.78389,2.27672 -3.64132,1.32207 -4.71166,2.40351 -7.13572,7.20972 -3.55903,7.0565 -8.60186,21.27191 -9.54526,26.90749 -0.59665,3.56414 -1.14316,4.33621 -3.37356,4.76593 -13.32552,2.56735 -22.84355,6.94313 -33.42011,15.36445 -8.70723,6.9329 -13.98023,13.19059 -17.85462,21.18881 -3.42133,7.06292 -3.51278,8.38877 -0.87678,12.71223 2.24775,3.68668 5.50294,5.31058 8.48994,4.23534 2.7281,-0.98205 6.34569,-6.52143 7.65518,-11.72189 0.59524,-2.36391 1.61908,-4.29801 2.2752,-4.29801 4.01254,0 28.42097,7.87136 30.80469,9.93406 0.40429,0.34984 -1.86101,2.52659 -5.034,4.83722 -6.72389,4.89646 -12.51997,12.08766 -14.76948,18.32448 -5.80939,16.10676 10.43503,35.51666 30.73484,36.724 15.28395,0.90902 26.04679,-7.79648 27.54128,-22.2767 1.57898,-15.29879 -14.87261,-26.36894 -28.67183,-19.29306 -8.31918,4.26586 -10.47528,13.11753 -4.72385,19.39342 2.77426,3.02724 4.14226,3.69382 8.42539,4.10537 4.50947,0.4333 5.41743,0.18726 7.68797,-2.08327 3.00825,-3.00825 3.34501,-7.23052 1.08711,-13.63008 l -1.48749,-4.21601 3.23749,2.02813 c 9.67897,6.06339 9.07494,16.67043 -1.24727,21.90244 -10.03616,5.08703 -20.56542,1.62968 -25.12519,-8.25 -6.2782,-13.60303 4.00644,-26.85476 20.78375,-26.77979 15.62567,0.0698 26.43075,12.93084 25.07313,29.8439 -0.87253,10.86986 -7.07155,19.32327 -17.74692,24.20093 -2.42029,1.10585 -6.58489,1.62013 -13.5,1.66707 -9.18513,0.0624 -10.53352,-0.18493 -16.54737,-3.03475 C 419.22306,636.41738 412.35144,625.75877 410.4872,607 c -0.35528,-3.575 -1.06917,-8.15623 -1.58642,-10.18052 -0.90484,-3.54114 -1.14418,-3.70598 -6.32013,-4.35267 -8.18937,-1.02319 -24.38192,1.00803 -26.96893,3.38304 -4.11077,3.77389 -14.28111,9.71293 -19.90868,11.6258 L 350,609.41417 l -0.0153,5.04292 c -0.022,7.22764 -0.90849,8.24335 -6.00718,6.88243 -4.98062,-1.3294 -5.52279,-0.55925 -4.52143,6.42276 1.21999,8.50645 2.79371,12.32646 6.12477,14.86718 6.43548,4.90858 21.84167,8.65694 41.16325,10.01511 9.30729,0.65424 9.91517,0.844 15.27541,4.76839 3.07031,2.24787 10.36826,7.18149 16.21767,10.96359 l 10.63529,6.87654 -3.39459,9.37769 -3.39458,9.37769 2.50854,1.64366 c 2.19359,1.4373 3.22417,1.48695 8.20835,0.3955 12.51412,-2.74038 23.23941,-9.75916 29.26741,-19.15298 l 3.30829,-5.15552 11.06205,0.88044 c 17.00873,1.35373 31.24711,1.01946 37.56206,-0.88182 6.00701,-1.80857 29.58704,-16.26005 37.3801,-22.90912 16.00281,-13.65367 19.84702,-33.97505 12.47994,-65.9719 -2.02151,-8.77982 -2.47813,-9.52279 -7.61852,-12.39588 -0.14216,-0.0795 1.6291,-4.15315 3.93613,-9.05266 l 4.19459,-8.90819 1.26681,9.10596 c 0.69674,5.00828 2.89242,14.45828 4.87927,21 4.26142,14.0307 6.20126,21.99567 8.01121,32.89404 l 1.32861,8 -4.07256,7 c -2.81271,4.83452 -7.88349,10.75159 -16.39154,19.12719 -12.20645,12.01644 -12.33757,12.19435 -14.3565,19.4799 C 543.37225,675.11649 543,679.4323 543,692.7299 c 0,8.94856 0.37815,16.2701 0.84032,16.2701 0.46218,0 6.2886,-6.79644 12.9476,-15.1032 z M 416.06574,587.96482 c 2.82803,-1.51352 2.51671,-5.74232 -0.52478,-7.12811 -1.96918,-0.89722 -2.9652,-0.78876 -5,0.54449 -3.12944,2.05049 -3.23294,4.02071 -0.31845,6.0621 2.62167,1.83628 3.27724,1.8948 5.84323,0.52152 z"
         id="path16" />
    </g>
  </g>
</svg>
