<?xml version="1.0" encoding="UTF-8" standalone="no"?>
<svg
   xmlns:dc="http://purl.org/dc/elements/1.1/"
   xmlns:cc="http://creativecommons.org/ns#"
   xmlns:rdf="http://www.w3.org/1999/02/22-rdf-syntax-ns#"
   xmlns:svg="http://www.w3.org/2000/svg"
   xmlns="http://www.w3.org/2000/svg"
   xmlns:sodipodi="http://sodipodi.sourceforge.net/DTD/sodipodi-0.dtd"
   xmlns:inkscape="http://www.inkscape.org/namespaces/inkscape"
   version="1.1"
   id="svg2"
   width="1043.5688"
   height="1045.5787"
   viewBox="0 0 1043.5688 1045.5787"
   sodipodi:docname="Markarth.svg"
   inkscape:version="1.0.1 (3bc2e813f5, 2020-09-07)">
  <metadata
     id="metadata8">
    <rdf:RDF>
      <cc:Work
         rdf:about="">
        <dc:format>image/svg+xml</dc:format>
        <dc:type
           rdf:resource="http://purl.org/dc/dcmitype/StillImage" />
        <dc:title></dc:title>
      </cc:Work>
    </rdf:RDF>
  </metadata>
  <defs
     id="defs6" />
  <sodipodi:namedview
     pagecolor="#ffffff"
     bordercolor="#666666"
     borderopacity="1"
     objecttolerance="10"
     gridtolerance="10"
     guidetolerance="10"
     inkscape:pageopacity="0"
     inkscape:pageshadow="2"
     inkscape:window-width="1920"
     inkscape:window-height="1057"
     id="namedview4"
     showgrid="false"
     inkscape:pagecheckerboard="true"
     inkscape:zoom="0.49"
     inkscape:cx="519.69026"
     inkscape:cy="511.8887"
     inkscape:window-x="-8"
     inkscape:window-y="-8"
     inkscape:window-maximized="1"
     inkscape:current-layer="g10" />
  <g
     inkscape:groupmode="layer"
     inkscape:label="Image"
     id="g10"
     transform="translate(-230.30974,-238.1113)">
    <circle
       style="fill:#ffffff;fill-rule:evenodd"
       id="path20"
       cx="755.10205"
       cy="759.18365"
       r="504.08163" />
    <g
       id="g14">
      <path
         style="fill:#556125"
         d="m 735.76791,1283.2753 c 1.79735,-0.2226 4.49735,-0.218 6,0.01 1.50265,0.2281 0.0321,0.4102 -3.26791,0.4046 -3.3,-0.01 -4.52944,-0.1923 -2.73209,-0.4148 z m 29,0 c 1.79735,-0.2226 4.49735,-0.218 6,0.01 1.50265,0.2281 0.0321,0.4102 -3.26791,0.4046 -3.3,-0.01 -4.52944,-0.1923 -2.73209,-0.4148 z M 715.75,1282.3377 c 0.6875,-0.2774 1.8125,-0.2774 2.5,0 0.6875,0.2774 0.125,0.5044 -1.25,0.5044 -1.375,0 -1.9375,-0.227 -1.25,-0.5044 z m 72,0 c 0.6875,-0.2774 1.8125,-0.2774 2.5,0 0.6875,0.2774 0.125,0.5044 -1.25,0.5044 -1.375,0 -1.9375,-0.227 -1.25,-0.5044 z m -83.9375,-1.0208 c 0.72187,-0.2889 1.58438,-0.2534 1.91667,0.079 0.33229,0.3323 -0.25834,0.5687 -1.3125,0.5253 -1.16495,-0.048 -1.4019,-0.285 -0.60417,-0.6042 z m 97,0 c 0.72187,-0.2889 1.58438,-0.2534 1.91667,0.079 0.33229,0.3323 -0.25834,0.5687 -1.3125,0.5253 -1.16495,-0.048 -1.4019,-0.285 -0.60417,-0.6042 z m -115,-2 c 0.72187,-0.2889 1.58438,-0.2534 1.91667,0.079 0.33229,0.3323 -0.25834,0.5687 -1.3125,0.5253 -1.16495,-0.048 -1.4019,-0.285 -0.60417,-0.6042 z m 133,0 c 0.72187,-0.2889 1.58438,-0.2534 1.91667,0.079 0.33229,0.3323 -0.25834,0.5687 -1.3125,0.5253 -1.16495,-0.048 -1.4019,-0.285 -0.60417,-0.6042 z M 712.5,1257.4775 c -63.69566,-5.8501 -120.99519,-21.6749 -177,-48.8831 -23.01618,-11.1817 -36.09775,-18.6152 -56.5,-32.1058 C 421.80325,1138.6684 375.3316,1092.1968 337.51137,1035 324.02079,1014.5977 316.58726,1001.5162 305.40556,978.5 248.52787,861.42415 239.4053,728.73467 279.82145,606.37441 300.7723,542.94553 332.56252,486.70577 376.49417,435.35168 404.95432,402.08308 440.31713,371.08966 479,345.51137 c 20.40225,-13.49058 33.48382,-20.92411 56.5,-32.10581 117.07585,-56.87769 249.76533,-66.00026 372.12559,-25.58411 63.42888,20.95085 119.66861,52.74107 171.02271,96.67272 40.368,34.53345 79.2126,81.62984 106.4025,129.00583 26.5342,46.23346 47.8063,104.09186 57.4367,156.22268 6.0088,32.52683 6.5125,39.58669 6.5125,91.27732 0,51.69063 -0.5037,58.75049 -6.5125,91.27732 -9.6304,52.13082 -30.9025,109.98922 -57.4367,156.22268 -38.5415,67.1552 -92.8437,124.8717 -158.0508,167.9886 -20.4023,13.4906 -33.48382,20.9241 -56.5,32.1058 -56.69121,27.5417 -113.86829,43.2385 -178.15875,48.9099 -20.32231,1.7927 -60.17563,1.7793 -79.84125,-0.027 z m 76.84125,-9.9732 c 73.3912,-6.4742 144.57229,-28.2486 204.15875,-62.4524 85.574,-49.1212 155.8012,-124.1215 198.0885,-211.5519 23.1866,-47.9392 38.1421,-98.26488 45.4278,-152.86637 C 1238.7436,807.68852 1239,799.98171 1239,761 c 0,-38.98171 -0.2564,-46.68852 -1.9837,-59.63363 C 1229.7306,646.76488 1214.7751,596.4392 1191.5885,548.5 1144.3989,450.93388 1063.0661,369.60108 965.5,322.41152 877.51565,279.85635 779.61511,264.32336 685.78415,278.03153 545.09696,298.58514 423.8344,375.54954 345.51137,494 321.48385,530.33761 303.88421,566.79928 289.82145,609.37441 253.68775,718.76952 257.33604,832.81725 300.46186,942 c 43.71126,110.6649 131.87285,205.2724 240.03814,257.5885 77.40844,37.4399 168.58189,54.9959 248.84125,47.9158 z M 718.5,1237.4775 c -61.78296,-5.6745 -120.2224,-21.5161 -173,-46.8966 -55.7877,-26.8279 -112.31333,-70.3981 -153,-117.9328 C 356.20394,1030.2429 329.08377,986.0571 310.47009,939 291.86516,891.96504 281.04249,845.88344 276.49569,794.34125 269.81537,718.61366 287.38615,628.429 323.41905,553.5 345.1207,508.37228 378.95603,461.04445 416.00024,424.00024 453.04445,386.95603 500.37228,353.1207 545.5,331.41905 c 74.929,-36.0329 165.11366,-53.60368 240.84125,-46.92336 51.54219,4.5468 97.62379,15.36947 144.65875,33.9744 47.0571,18.61368 91.2429,45.73385 133.6481,82.02991 47.5347,40.68667 91.1049,97.2123 117.9328,153 22.2994,46.37068 37.2778,97.22497 44.4354,150.86637 C 1228.7256,717.1764 1229,725.01006 1229,761 c 0,35.98994 -0.2744,43.8236 -1.9837,56.63363 -7.1576,53.6414 -22.136,104.49569 -44.4354,150.86637 -26.8279,55.7877 -70.3981,112.3133 -117.9328,153 -50.808,43.4883 -101.71235,72.4275 -163.02251,92.6785 -59.74199,19.7331 -127.74642,28.3852 -183.12559,23.299 z m 41.64831,-196.3795 c 1.32992,-1.0461 3.41935,-4.0836 4.64318,-6.75 2.49878,-5.4442 30.62192,-99.24954 32.78286,-109.348 0.76501,-3.575 1.39874,-8.78406 1.40829,-11.57569 0.0142,-4.16029 0.48511,-5.5129 2.61096,-7.5 4.13114,-3.86149 11.37056,-13.91034 14.52924,-20.16765 6.74507,-13.36191 7.69988,-30.7167 2.34628,-42.64612 l -2.8022,-6.24413 3.41654,-3.29253 c 1.8791,-1.8109 14.96988,-14.15092 29.09064,-27.42228 28.35013,-26.64481 31.55668,-30.13757 35.42487,-38.58681 3.58852,-7.83836 3.10378,-16.27781 -1.45237,-25.28627 -1.73063,-3.42182 -3.1466,-6.40181 -3.1466,-6.6222 0,-0.22038 1.84129,-0.69514 4.09177,-1.055 5.62074,-0.8988 11.33423,-3.98647 13.80977,-7.46305 2.93433,-4.12089 4.45759,-12.36434 3.73044,-20.18815 l -0.61849,-6.65473 7.94077,-0.61234 c 8.96927,-0.69166 14.24024,-2.55082 18.38899,-6.4861 3.23512,-3.06866 7.07395,-10.14112 8.11299,-14.94695 0.82532,-3.81728 1.00136,-3.85078 6.68456,-1.27196 4.97011,2.25524 11.31621,2.56454 17.09502,0.83316 4.51645,-1.35316 12.60965,-8.20706 15.8148,-13.3931 l 2.15993,-3.49484 4.67289,4.37094 c 8.43897,7.89368 20.18226,9.99067 27.14026,4.84643 3.7339,-2.76063 4.62,-2.69648 5.3948,0.39058 0.3494,1.39217 2.7607,4.72223 5.3584,7.40015 5.0246,5.17969 9.4886,7.05309 16.8302,7.06306 l 4.1071,0.006 0.5396,7.87276 c 0.6462,9.42791 1.3628,10.97415 8.4609,18.25829 5.2967,5.43548 5.4339,5.71333 3.9515,8 -3.0744,4.74211 -3.8884,10.8568 -2.4052,18.06887 l 1.3754,6.68833 -6.0682,4.82727 c -3.3375,2.65501 -7.1561,6.50515 -8.4857,8.55588 -2.3608,3.64109 -2.5625,3.7286 -8.5911,3.7286 -3.3955,0 -8.2788,0.63358 -10.8518,1.40795 l -4.6782,1.40794 -2.4143,-3.1652 c -4.0335,-5.28824 -7.5269,-13.83946 -7.5373,-18.45035 -0.012,-5.44913 2.0016,-9.34562 6.6669,-12.89865 5.6793,-4.32532 9.3233,-10.77216 9.3233,-16.49459 0,-4.08484 -0.5236,-5.38085 -3.5084,-8.68467 -6.3244,-7.00043 -18.30675,-10.32708 -29.17513,-8.09989 -9.06005,1.85661 -15.98402,5.66739 -23.81781,13.10873 -11.83325,11.24043 -15.49955,20.53815 -15.49782,39.30239 0.004,41.01014 9.83224,60.26247 33.46863,65.5595 3.3504,0.75084 7.20184,2.83896 11.98383,6.49722 3.87568,2.96493 10.1967,6.88002 14.0467,8.7002 6.5554,3.09922 7.6669,3.30789 17.5,3.28535 11.7138,-0.0268 16.6858,-1.48455 27.5602,-8.0803 5.7298,-3.4753 6.258,-3.59763 14.9398,-3.46011 13.8208,0.21893 22.3801,-3.15002 32.8236,-12.91937 6.5233,-6.10224 11.4087,-13.87839 13.796,-21.95912 0.9742,-3.29752 3.1566,-6.26234 8.4652,-11.5 12.0347,-11.87385 16.0135,-22.4114 15.1076,-40.01168 -0.3126,-6.07494 -1.2274,-13.3957 -2.0328,-16.26835 -1.398,-4.98655 -1.3476,-5.57507 1.1134,-13 2.1671,-6.5381 2.5897,-9.68863 2.6524,-19.777 0.063,-10.07145 -0.2969,-13.07524 -2.2371,-18.69044 -3.9073,-11.3083 -13.0124,-23.34942 -19.1226,-25.28871 -1.5118,-0.47982 -2.0704,-1.50906 -2.0831,-3.83824 -0.034,-6.18049 -2.9997,-17.27013 -6.5471,-24.47885 -8.0726,-16.40458 -25.4934,-28.99046 -43.9602,-31.75973 -4.613,-0.69177 -5.5593,-1.38594 -14.0985,-10.34279 -14.5173,-15.22719 -26.3456,-21.03794 -42.8768,-21.06355 -9.01393,-0.014 -16.85033,1.4859 -23.60722,4.51838 l -3.60722,1.61891 -10.39278,-5.00819 c -20.64182,-9.94711 -36.65924,-10.74883 -53.67311,-2.68648 -4.69198,2.22338 -9.22877,5.39835 -12.76074,8.93033 l -5.48041,5.48041 -6.73926,-1.41357 c -33.23962,-6.97203 -59.57533,2.45853 -71.08542,25.455 -2.0857,4.1671 -4.05643,8.58701 -4.37939,9.82203 -0.5063,1.93607 -1.25465,2.24646 -5.43083,2.2525 -7.31147,0.0106 -20.48864,3.52421 -28.99991,7.73271 -8.95669,4.42874 -18.99832,13.24809 -22.41304,19.68489 C 757.59569,628.94108 756.27689,631 756,631 c -0.27689,0 -1.59569,-2.05892 -2.93067,-4.57539 -3.41472,-6.4368 -13.45635,-15.25615 -22.41304,-19.68489 -8.51127,-4.2085 -21.68844,-7.72214 -28.99991,-7.73271 -4.17618,-0.006 -4.92453,-0.31643 -5.43083,-2.2525 -0.32296,-1.23502 -2.29369,-5.65493 -4.37939,-9.82203 -11.51009,-22.99647 -37.8458,-32.42703 -71.08542,-25.455 l -6.73926,1.41357 -5.48041,-5.48041 c -3.53197,-3.53198 -8.06876,-6.70695 -12.76074,-8.93033 -17.01387,-8.06235 -33.03129,-7.26063 -53.67311,2.68648 l -10.39278,5.00819 -3.60722,-1.61891 c -10.98454,-4.92984 -27.14697,-6.02306 -38.26716,-2.58839 -11.4536,3.53766 -23.33672,12.28637 -33.48912,24.65571 -2.90612,3.54071 -4.09955,4.21826 -8.4455,4.79477 -18.30557,2.42832 -36.21038,15.2633 -44.34093,31.7856 -3.54737,7.20872 -6.51343,18.29836 -6.54715,24.47885 -0.0127,2.32918 -0.57129,3.35842 -2.08307,3.83824 -6.11014,1.93929 -15.21529,13.98041 -19.12258,25.28871 -1.94019,5.6152 -2.29972,8.61899 -2.2371,18.69044 0.0627,10.08837 0.48525,13.2389 2.65236,19.777 2.46106,7.42493 2.51147,8.01345 1.11343,13 -0.80538,2.87265 -1.72015,10.19341 -2.03282,16.26835 -0.90585,17.60028 3.07291,28.13783 15.1076,40.01168 5.28366,5.21305 7.49981,8.21797 8.48134,11.5 2.27527,7.60798 6.11795,14.10657 11.96967,20.24266 10.07666,10.56634 20.24591,14.86374 34.63381,14.63583 8.6818,-0.13752 9.21,-0.0152 14.93976,3.46011 10.87448,6.59575 15.84642,8.05346 27.56024,8.0803 9.83309,0.0225 10.94461,-0.18613 17.5,-3.28535 3.85,-1.82018 10.17102,-5.73527 14.0467,-8.7002 4.78199,-3.65826 8.63343,-5.74638 11.98383,-6.49722 23.63639,-5.29703 33.46485,-24.54936 33.46863,-65.5595 0.002,-18.76424 -3.66457,-28.06196 -15.49782,-39.30239 -7.83379,-7.44134 -14.75776,-11.25212 -23.81781,-13.10873 -10.86838,-2.22719 -22.8507,1.09946 -29.17517,8.09989 -2.925,3.23762 -3.50836,4.63772 -3.50836,8.42029 0,5.98628 2.88829,11.41242 8.53977,16.04338 5.6031,4.59132 7.46324,7.99035 7.45046,13.61424 -0.0105,4.61089 -3.50383,13.16211 -7.53737,18.45035 l -2.41422,3.1652 -4.67825,-1.40794 C 491.78735,761.63358 486.90405,761 483.50861,761 c -6.02863,0 -6.23026,-0.0875 -8.59107,-3.7286 -1.32965,-2.05073 -5.14824,-5.90087 -8.48575,-8.55588 l -6.06821,-4.82727 1.37543,-6.68833 c 1.48314,-7.21207 0.66921,-13.32676 -2.40517,-18.06887 -1.48248,-2.28667 -1.34524,-2.56452 3.95145,-8 7.09815,-7.28414 7.81468,-8.83038 8.46089,-18.25829 L 472.28579,685 l 4.1071,-0.006 c 7.34162,-0.01 11.80566,-1.88337 16.83022,-7.06306 2.59772,-2.67792 5.009,-6.00798 5.35841,-7.40015 0.77481,-3.08706 1.66086,-3.15121 5.39482,-0.39058 6.95796,5.14424 18.70125,3.04725 27.14022,-4.84643 l 4.67289,-4.37094 2.15993,3.49484 c 3.20515,5.18604 11.29835,12.03994 15.8148,13.3931 5.77881,1.73138 12.12491,1.42208 17.09502,-0.83316 5.6832,-2.57882 5.85924,-2.54532 6.68456,1.27196 1.03904,4.80583 4.87787,11.87829 8.11299,14.94695 4.14875,3.93528 9.41972,5.79444 18.38899,6.4861 l 7.94077,0.61234 -0.61849,6.65473 c -0.72715,7.82381 0.79611,16.06726 3.73044,20.18815 2.47554,3.47658 8.18903,6.56425 13.80977,7.46305 4.60563,0.73647 4.67746,0.96331 2.50108,7.89868 -0.86297,2.75 -1.63499,8.375 -1.7156,12.5 -0.19839,10.15096 3.40135,17.95227 12.39041,26.8524 4.52575,4.48097 49.28589,38.55387 58.67756,44.66729 0.14392,0.0937 -1.70244,4.01957 -4.10302,8.72419 -5.50599,10.79051 -7.80152,19.85837 -7.80152,30.81775 0,14.47627 5.77248,26.49088 17.22367,35.84866 l 5.61647,4.58971 0.52512,7 c 0.37061,4.94031 5.12977,22.74192 16.17433,60.5 17.94726,61.35642 17.8545,61.07762 21.82972,65.60512 3.39034,3.8614 6.34549,4.3061 9.92186,1.4929 z m -6.12026,-9.1861 c -0.59215,-1.3265 -7.87056,-26.2619 -16.17424,-55.4119 -17.24643,-60.54345 -17.9224,-64.32957 -13.86854,-77.67912 1.22272,-4.02648 2.89624,-8.67088 3.71893,-10.32088 2.8769,-5.76994 8.80159,-15.46521 9.46124,-15.48253 0.36599,-0.01 3.19441,2.86307 6.28538,6.38373 l 5.61995,6.40121 -3.45975,6.34879 c -8.73193,16.02349 -9.55062,33.74327 -1.89769,41.07353 9.28328,8.89186 21.48866,6.55345 25.77018,-4.93727 2.25539,-6.05301 4.85153,-8.91948 9.41354,-10.39376 1.98162,-0.6404 5.34705,-2.04148 7.47873,-3.11352 l 3.87578,-1.94916 -0.69983,5.60123 c -1.01174,8.09768 -31.04113,112.48575 -32.89102,114.33565 -1.40803,1.408 -1.65842,1.3266 -2.63266,-0.856 z m -3.36138,-118.57857 c -1.06371,-1.0637 -0.6291,-7.51939 0.76298,-11.33333 1.24601,-3.41375 1.39508,-3.4915 6.0489,-3.15503 2.62428,0.18973 6.78014,-0.21744 9.23525,-0.90483 5.93445,-1.66154 14.12196,-9.22522 17.53803,-16.20174 2.71187,-5.53837 5.32216,-18.00065 4.16312,-19.87601 -0.72937,-1.18014 3.12373,-5.4028 12.78093,-14.00677 l 6.69588,-5.96562 1.70989,3.305 c 4.44084,8.58354 5.51923,20.08032 2.84635,30.3449 -2.06239,7.92011 -5.2774,13.18171 -13.16068,21.5384 -8.7048,9.22755 -16.96225,13.36374 -30.78732,15.42149 -10.80998,1.60898 -16.77891,1.88797 -17.83333,0.83354 z M 708.81321,893.25 c -11.63654,-11.98576 -14.60097,-28.76322 -8.33655,-47.18139 4.42018,-12.99586 12.17587,-24.02768 25.32977,-36.02947 l 7.6479,-6.97804 2.84168,2.71945 c 1.56292,1.4957 4.66723,5.08431 6.89848,7.97469 l 4.05681,5.25524 -10.37565,10.76772 c -5.70661,5.92224 -11.68601,13.20216 -13.28757,16.17759 -3.72576,6.92185 -4.54626,16.67179 -2.16927,25.77721 l 1.62714,6.23301 -2.90944,5.76699 c -1.60019,3.17185 -3.48176,7.6795 -4.18126,10.017 -0.6995,2.3375 -1.55501,4.25 -1.90113,4.25 -0.34612,0 -2.70452,-2.1375 -5.24091,-4.75 z m 52.16961,-7.91328 C 754.51577,879.83633 728,853.79105 728,852.93914 c 0,-0.50606 10.07767,-14.35015 11.4317,-15.70417 0.90594,-0.90594 14.36806,9.79601 20.23312,16.08469 3.20935,3.44115 8.45174,9.68346 11.64976,13.87181 5.78209,7.57265 5.80839,7.63814 4.70792,11.72499 C 774.88333,883.14699 769.69374,890 767.62923,890 c -0.63997,0 -3.63085,-2.09847 -6.64641,-4.66328 z M 768.75,851.56487 c -3.7125,-4.01368 -6.75,-7.61215 -6.75,-7.99658 0,-0.38444 11.14859,-12.03207 24.77464,-25.88363 24.88902,-25.30094 31.36773,-33.25027 36.94954,-45.33686 2.32067,-5.02506 2.70591,-7.18438 2.73822,-15.3478 0.0324,-8.18004 -0.32211,-10.26683 -2.55134,-15.01903 -3.29513,-7.0245 -11.45865,-15.83735 -25.50958,-27.53866 -17.56981,-14.63177 -27.18423,-26.55092 -32.55267,-40.35612 -3.32384,-8.54741 -3.73094,-23.54854 -0.87077,-32.08619 4.18331,-12.48721 12.50444,-22.18597 24.02346,-28.00076 5.82601,-2.94096 16.68728,-5.94183 21.65063,-5.98188 2.12092,-0.0171 2.12943,0.0515 0.5869,4.73264 -2.58363,7.84056 -2.27701,28.70372 0.57685,39.25 4.80589,17.75985 16.56006,38.22696 34.17059,59.5 11.50562,13.89847 18.21468,23.59086 22.30076,32.21728 2.72862,5.7606 3.21275,7.91293 3.21262,14.28272 -1.4e-4,6.45069 -0.41986,8.26536 -3,12.97047 -3.85417,7.02841 -12.61914,16.34318 -29.49985,31.35029 -7.425,6.6009 -24.20989,21.94159 -37.29975,34.09044 -13.08986,12.14884 -24.33986,22.17036 -25,22.27004 -0.66014,0.0997 -4.23775,-3.10269 -7.95025,-7.11637 z M 729.62533,785.93113 C 709.97834,763.94982 694.19891,745.48718 694.55992,744.90306 695.72326,743.02073 714.30474,728 715.46994,728 c 1.63229,0 28.31101,32.52346 54.43784,66.36402 l 12.24793,15.86402 -2.82786,2.97992 c -1.55532,1.63896 -5.33724,5.16451 -8.40428,7.83456 l -5.57644,4.85464 z M 477.5,822.06961 c -9.83674,-2.3794 -18.90861,-10.29436 -22.49783,-19.62872 -1.71302,-4.45498 -2.40548,-8.75109 -2.76856,-17.1765 -0.42046,-9.75703 1.08416,-29.32115 2.4234,-31.51072 1.28519,-2.10121 12.86165,7.48105 15.72319,13.01465 0.81708,1.58007 2.44181,6.61795 3.61051,11.19531 5.12021,20.05385 16.20522,32.13093 34.03452,37.08046 l 4.47477,1.24222 -4.10689,1.83228 c -9.67263,4.31541 -22.56835,5.96469 -30.89311,3.95102 z m 535.6537,-0.57558 c -2.9404,-0.82627 -7.2154,-2.33603 -9.5,-3.35502 l -4.1537,-1.8527 4.4748,-1.24222 c 17.8293,-4.94953 28.9143,-17.02661 34.0345,-37.08046 1.1687,-4.57736 2.7934,-9.61524 3.6105,-11.19531 2.8615,-5.5336 14.438,-15.11586 15.7232,-13.01465 1.3392,2.18957 2.8439,21.75369 2.4234,31.51072 -0.6098,14.15009 -3.0348,21.1061 -9.6597,27.70843 -6.6936,6.67086 -12.7746,9.21239 -23.1067,9.65742 -5.5684,0.23984 -10.3439,-0.15203 -13.8463,-1.13621 z M 681.98508,804.52412 C 647.86566,779.52321 643.08668,774.04647 642.26098,759 641.55757,746.18214 646.71,735.24282 662.66941,715.67011 676.85868,698.26829 684.57087,687.21618 690.35129,676 701.84689,653.69424 705.37095,634.85734 701.48264,616.50037 700.66719,612.65058 700,609.21536 700,608.86655 c 0,-0.34881 3.0375,-0.0501 6.75,0.66383 23.26866,4.47459 37.14107,15.4299 41.698,32.92972 2.0608,7.91403 1.95679,13.63726 -0.41648,22.91666 -4.03464,15.77528 -14.40903,30.71774 -31.46949,45.32616 -18.64481,15.96507 -26.09941,23.02145 -30.18793,28.5753 -11.72484,15.92708 -7.64782,26.64293 20.5574,54.03207 l 12.14006,11.78881 -6.53578,7.16108 C 708.9411,816.19877 706,819.77647 706,820.21063 706,820.64478 705.65579,821 705.23508,821 c -0.4207,0 -10.8832,-7.41415 -23.25,-16.47588 z m -242.53713,7.10129 c -9.88341,-3.20257 -16.96859,-7.27438 -23.17679,-13.31957 -16.05398,-15.63245 -12.37776,-37.0214 9.95158,-57.90026 9.4162,-8.80454 23.57903,-19.64613 24.73294,-18.93297 0.54448,0.33651 1.46112,2.36154 2.03696,4.50007 1.43463,5.32779 0.0532,10.81777 -5.4852,21.7995 -6.72294,13.33041 -8.57636,19.44375 -9.22173,30.41703 -0.87686,14.90962 2.01003,26.12317 8.5114,33.06079 3.16464,3.37699 2.08429,3.43218 -7.34916,0.37541 z M 1065.2029,811.25 c 6.5014,-6.93762 9.3883,-18.15117 8.5114,-33.06079 -0.6454,-10.97328 -2.4988,-17.08662 -9.2217,-30.41703 -5.5385,-10.98173 -6.9199,-16.47171 -5.4852,-21.7995 0.5758,-2.13853 1.4924,-4.16356 2.0369,-4.50007 1.1539,-0.71316 15.3168,10.12843 24.733,18.93297 13.3836,12.51427 21.1982,27.71041 19.8975,38.69265 -1.7275,14.58593 -14.3932,26.79525 -34.0301,32.80407 -8.8777,2.71652 -9.5363,2.64983 -6.4418,-0.6523 z m -555.05463,-5.18599 c -10.39251,-3.85781 -18.42906,-12.03524 -25.1603,-25.60135 -2.19338,-4.42053 -3.98797,-8.58303 -3.98797,-9.25 0,-0.79344 1.81494,-1.22025 5.25,-1.23461 4.481,-0.0187 7.06548,0.89675 17.64436,6.25 12.36629,6.25775 12.41384,6.27192 21,6.25792 10.10054,-0.0165 14.82656,-2.01129 25.18201,-10.62919 l 6.23834,-5.1916 -0.6817,5.91741 c -1.47368,12.79199 -11.23395,27.15089 -21.99043,32.35138 -6.79552,3.28547 -16.43841,3.74928 -23.49431,1.13004 z m 472.24803,0.51779 c -5.47374,-1.71321 -12.48477,-6.64309 -16.30233,-11.46315 -4.6259,-5.84068 -8.94197,-15.84739 -9.72019,-22.53606 l -0.68849,-5.91741 6.23834,5.1916 c 10.35545,8.6179 15.08147,10.61272 25.18201,10.62919 8.58616,0.014 8.63371,-1.7e-4 20.99996,-6.25792 10.5789,-5.35325 13.1634,-6.26873 17.6444,-6.25 3.4351,0.0144 5.25,0.44117 5.25,1.23461 0,2.3766 -8.04,17.36564 -11.738,21.88311 -10.1135,12.35482 -24.11506,17.47682 -36.8657,13.48603 z M 770,783.29932 c -3.025,-3.67067 -6.07324,-7.46856 -6.77388,-8.43976 -1.1086,-1.53673 -0.445,-2.84224 5.11498,-10.06269 6.32284,-8.21114 18.57861,-26.28259 23.92634,-35.27999 l 2.76744,-4.65615 4.73256,4.16271 c 5.56398,4.89402 14.24499,14.93758 14.20389,16.43328 -0.0719,2.6177 -35.34258,44.55745 -37.44893,44.52991 -0.56232,-0.007 -3.4974,-3.01664 -6.5224,-6.68731 z M 395.2784,767.75 c -8.02442,-8.72126 -12.77741,-21.98562 -12.03478,-33.58596 1.26317,-19.73139 11.16263,-30.10922 35.78119,-37.51026 C 426.17654,694.50377 459.94325,687 462.4665,687 c 1.19312,0 -0.27878,10.7408 -1.89608,13.83613 -2.75232,5.26762 -13.32935,12.87312 -33.00514,23.73261 -10.64669,5.87613 -23.07666,17.48068 -26.3529,24.60291 -2.38646,5.18793 -4.55857,16.76261 -3.60972,19.23529 0.84416,2.19983 0.1145,1.99359 -2.32426,-0.65694 z m 116.4716,1.58542 c -4.21223,-0.51238 -4.59231,-1.26317 -1.88142,-3.71649 3.19323,-2.88983 8.28968,-15.27273 8.85592,-21.51731 0.7601,-8.38246 -0.95289,-12.39075 -8.87001,-20.75535 -7.48198,-7.90487 -8.37044,-10.61567 -4.60449,-14.04878 6.13702,-5.59462 16.93512,-5.48706 28.61418,0.28505 12.40796,6.13234 18.89606,14.34368 21.20576,26.83799 1.14427,6.18992 0.52699,12.4502 -1.64662,16.69943 -2.25964,4.41742 -11.18709,11.64796 -17.12432,13.86936 -5.64649,2.11262 -17.30716,3.22701 -24.549,2.3461 z m 470.5197,-0.32492 c -6.78631,-1.44297 -12.78152,-4.51932 -17.77215,-9.11952 -7.48004,-6.89486 -9.48318,-13.10756 -7.56749,-23.47045 2.3097,-12.49431 8.7978,-20.70565 21.20576,-26.83799 11.67906,-5.77211 22.47718,-5.87967 28.61418,-0.28505 3.766,3.43311 2.8775,6.14391 -4.6045,14.04878 -7.92912,8.37729 -9.63051,12.36836 -8.86613,20.79801 0.568,6.26406 5.32064,17.72973 8.95413,21.60178 1.1593,1.23533 1.89,2.46374 1.624,2.7298 -0.9919,0.99189 -17.51304,1.40106 -21.5878,0.53464 z m 132.0474,-0.35356 c 1.0139,-2.70202 -1.0497,-14.09457 -3.5295,-19.48529 -3.2762,-7.12223 -15.7062,-18.72678 -26.3529,-24.60291 -19.6758,-10.85949 -30.2528,-18.46499 -33.0051,-23.73261 C 1049.8123,697.7408 1048.3404,687 1049.5335,687 c 2.5233,0 36.29,7.50377 43.4417,9.65378 24.6186,7.40104 34.518,17.77887 35.7812,37.51026 0.6097,9.52485 -1.9168,18.68745 -7.5494,27.37749 -4.1542,6.40938 -8.1881,10.57526 -6.8899,7.11541 z M 631.25848,726.29538 c -1.23283,-0.23774 -3.569,-1.75975 -5.19148,-3.38223 -6.18774,-6.18773 -5.27198,-16.91266 3.79223,-44.41315 6.48963,-19.6893 8.59762,-28.8055 10.17435,-44 2.28225,-21.9933 -2.75668,-42.82071 -13.91141,-57.5 l -4.17943,-5.5 4.27863,-1.40672 c 2.72239,-0.89506 8.82518,-1.42001 16.77863,-1.44329 10.68515,-0.0313 13.33513,0.29242 18.25209,2.22935 11.03496,4.347 19.51704,13.1981 23.45093,24.47118 1.39416,3.99514 1.77962,8.06365 1.71952,18.14948 -0.0675,11.32389 -0.42776,14.06402 -2.79432,21.25256 -1.49427,4.53892 -12.13816,27.15142 -23.6531,50.25 -20.23501,40.59079 -21.029,41.99288 -23.70568,41.86126 -1.52319,-0.0749 -3.77812,-0.3307 -5.01096,-0.56844 z m 220.7664,-41.29282 c -11.51494,-23.09858 -22.15883,-45.71108 -23.6531,-50.25 -2.36656,-7.18854 -2.72684,-9.92867 -2.79432,-21.25256 -0.0601,-10.08583 0.32536,-14.15434 1.71952,-18.14948 3.93389,-11.27308 12.41597,-20.12418 23.45093,-24.47118 4.91696,-1.93693 7.56694,-2.26061 18.25209,-2.22935 7.95345,0.0233 14.05624,0.54823 16.77863,1.44329 l 4.27863,1.40672 -4.17943,5.5 c -11.15473,14.67929 -16.19366,35.5067 -13.91141,57.5 1.57673,15.1945 3.68472,24.3107 10.17435,44 6.52545,19.79796 8.51674,29.62973 7.44654,36.76633 C 888.48801,722.59697 882.95997,727 874.85556,727 c -1.49684,0 -6.28849,-8.81433 -22.83068,-41.99744 z M 383.60186,694.25 c -1.89522,-10.32623 -1.98684,-14.31147 -0.49316,-21.45078 2.64266,-12.63096 10.67403,-22.18723 22.63921,-26.93766 4.85455,-1.92735 7.54652,-2.276 17.25209,-2.23437 10.22947,0.0439 12.82577,0.44677 23.5,3.6467 6.6,1.97856 19.425,6.29397 28.5,9.58981 17.6095,6.39538 17.76065,6.51958 14.32172,11.76804 -0.83512,1.27457 -3.8964,3.48084 -6.80284,4.90282 -5.00664,2.44953 -5.98709,2.56948 -18.65165,2.28189 -31.59834,-0.71753 -41.91331,0.2544 -52.86723,4.98143 -6.88367,2.97056 -16.13488,10.43872 -20.53717,16.57891 -2.17956,3.03998 -4.25358,5.54883 -4.60894,5.57522 -0.35536,0.0264 -1.36878,-3.88951 -2.25203,-8.70201 z m 737.93534,3.12679 c -4.4023,-6.14019 -13.6535,-13.60835 -20.5372,-16.57891 -10.9539,-4.72703 -21.2689,-5.69896 -52.8672,-4.98143 -12.6646,0.28759 -13.645,0.16764 -18.6517,-2.28189 -2.9064,-1.42198 -5.9677,-3.62825 -6.8028,-4.90282 -3.4389,-5.24846 -3.2878,-5.37266 14.3217,-11.76804 9.075,-3.29584 21.9,-7.61125 28.5,-9.58981 10.6742,-3.19993 13.2705,-3.60282 23.5,-3.6467 13.3123,-0.0571 19.5858,1.81603 27.7827,8.29531 7.5977,6.00564 13.2132,18.69702 13.2193,29.87672 0,4.72913 -3.0028,21.21616 -3.8559,21.15279 -0.3554,-0.0264 -2.4294,-2.53524 -4.6089,-5.57522 z M 599,689.87927 c -3.51959,-1.39932 -7.84896,-5.72953 -10.09585,-10.09779 -2.99362,-5.82003 -4.71518,-14.71306 -6.92673,-35.78148 -2.2579,-21.5099 -4.3974,-31.97807 -8.93297,-43.7074 -5.67504,-14.67605 -16.24294,-27.82653 -27.56953,-34.30695 -6.61846,-3.7867 -6.62286,-3.7761 3.76818,-9.07743 28.30057,-14.4385 56.14205,-0.99586 64.39518,31.09178 2.21623,8.61657 2.19745,27.48818 -0.0448,45 -1.13904,8.89583 -1.74556,20.77097 -1.77841,34.81938 l -0.0498,21.31938 -2.44772,0.93062 c -3.07686,1.16982 -7.08268,1.09601 -10.31752,-0.19011 z m 303.34857,0.12603 c -2.106,-0.8496 -2.15212,-1.31812 -2.18402,-22.18661 -0.0216,-14.134 -0.61462,-25.86837 -1.75959,-34.81869 -2.24079,-17.51628 -2.25892,-36.38556 -0.0432,-45 6.98646,-27.16293 28.80108,-41.79702 52.93509,-35.51091 5.57735,1.45272 15.29771,5.91782 19.09899,8.77323 1.77691,1.33477 1.53419,1.63095 -3.87072,4.72333 -11.32659,6.48042 -21.89449,19.6309 -27.56953,34.30695 -4.53557,11.72933 -6.67507,22.1975 -8.93297,43.7074 -2.21155,21.06842 -3.93311,29.96145 -6.92673,35.78148 -4.56791,8.88064 -13.34971,13.20813 -20.74728,10.22382 z M 554.92666,668.02255 C 547.67265,664.18768 541.01033,654.98978 531.00745,635 c -8.68239,-17.35092 -14.01253,-25.26867 -22.96965,-34.12063 -9.24788,-9.13932 -19.68349,-14.74034 -33.93442,-18.21334 l -9.39663,-2.28998 6.1756,-5.43803 c 23.4683,-20.6654 43.54412,-22.23345 62.49874,-4.88153 14.35528,13.14147 21.15034,26.5953 25.61708,50.72038 2.16572,11.69713 6.63326,25.76457 11.93034,37.56635 1.68932,3.76377 3.07149,7.01712 3.07149,7.22967 0,0.21256 -1.78207,1.29561 -3.96016,2.40679 -4.90568,2.50269 -10.43055,2.51836 -15.11318,0.0429 z M 941.75,667.93191 c -2.0625,-1.08883 -3.75,-2.15199 -3.75,-2.36258 0,-0.21059 1.38217,-3.46234 3.07149,-7.22611 5.29708,-11.80178 9.76462,-25.86922 11.93034,-37.56635 4.46674,-24.12508 11.2618,-37.57891 25.61708,-50.72038 18.95462,-17.35192 39.03039,-15.78387 62.49879,4.88153 l 6.1755,5.43803 -9.3966,2.28998 c -14.2509,3.473 -24.6865,9.07402 -33.9344,18.21334 -8.95712,8.85196 -14.28726,16.76971 -22.96965,34.12063 -7.24099,14.47041 -11.40563,21.23771 -16.62548,27.01545 -7.02815,7.77933 -15.0924,9.88888 -22.61707,5.91646 z M 509.5,663.0747 c -4.67678,-1.15379 -9.29617,-3.80201 -18.5,-10.60576 -23.19496,-17.1464 -43.77528,-25.36334 -60.5,-24.15534 -7.35025,0.53089 -15.79318,3.33485 -20.82054,6.91465 l -2.98395,2.12475 0.6979,-5.261 c 3.39777,-25.61364 23.21801,-42.18889 46.60659,-38.97613 13.83026,1.89979 26.19866,10.68187 45.60878,32.38413 5.41102,6.05 14.16823,15.4059 19.46048,20.79089 l 9.62227,9.79088 -3.0394,2.55749 c -4.80972,4.04711 -10.92234,5.72567 -16.15213,4.43544 z m 484.22846,-0.40374 c -2.07435,-0.64403 -5.27734,-2.38016 -7.11776,-3.85808 l -3.34622,-2.68711 9.64426,-9.81289 C 998.21309,640.9158 1006.9802,631.55 1012.3912,625.5 c 13.392,-14.97343 23.5934,-23.89557 32.0624,-28.04164 15.8085,-7.73918 32.9709,-5.9197 45.1797,4.78978 7.1523,6.27389 13.5339,18.99346 14.9733,29.84386 l 0.6979,5.261 -2.984,-2.12475 c -5.0273,-3.5798 -13.4703,-6.38376 -20.8205,-6.91465 -16.7276,-1.20821 -37.3243,7.01654 -60.5,24.15916 -13.6666,10.1089 -19.9686,12.46555 -27.27154,10.1982 z M 412.87244,1158.25 c -1.24387,-1.5861 -1.2085,-1.6214 0.37756,-0.3776 0.9625,0.7549 1.75,1.5424 1.75,1.75 0,0.8231 -0.82119,0.2933 -2.12756,-1.3724 z M 1091,1159.6224 c 0,-0.2076 0.7875,-0.9951 1.75,-1.75 1.5861,-1.2438 1.6214,-1.2085 0.3776,0.3776 -1.3064,1.6657 -2.1276,2.1955 -2.1276,1.3724 z M 404.87244,1151.25 c -1.24387,-1.5861 -1.2085,-1.6214 0.37756,-0.3776 1.66575,1.3064 2.19548,2.1276 1.37244,2.1276 -0.20765,0 -0.99515,-0.7875 -1.75,-1.75 z M 1099,1152.6224 c 0,-0.2076 0.7875,-0.9951 1.75,-1.75 1.5861,-1.2438 1.6214,-1.2085 0.3776,0.3776 -1.3064,1.6657 -2.1276,2.1955 -2.1276,1.3724 z M 392,1139.5 c -2.42903,-2.475 -4.19142,-4.5 -3.91642,-4.5 0.275,0 2.48739,2.025 4.91642,4.5 2.42903,2.475 4.19142,4.5 3.91642,4.5 -0.275,0 -2.48739,-2.025 -4.91642,-4.5 z m 720.9582,0.25 c 4.144,-4.4152 5.0418,-5.2091 5.0418,-4.4582 0,0.1605 -2.1375,2.298 -4.75,4.75 l -4.75,4.4582 z M 374,1121.5 c -2.42903,-2.475 -4.19142,-4.5 -3.91642,-4.5 0.275,0 2.48739,2.025 4.91642,4.5 2.42903,2.475 4.19142,4.5 3.91642,4.5 -0.275,0 -2.48739,-2.025 -4.91642,-4.5 z m 756.9582,0.25 c 4.144,-4.4152 5.0418,-5.2091 5.0418,-4.4582 0,0.1605 -2.1375,2.298 -4.75,4.75 l -4.75,4.4582 z m -769.08576,-13.5 c -1.24387,-1.5861 -1.2085,-1.6214 0.37756,-0.3776 0.9625,0.7549 1.75,1.5424 1.75,1.75 0,0.8231 -0.82119,0.2933 -2.12756,-1.3724 z M 1142,1109.6224 c 0,-0.2076 0.7875,-0.9951 1.75,-1.75 1.5861,-1.2438 1.6214,-1.2085 0.3776,0.3776 -1.3064,1.6657 -2.1276,2.1955 -2.1276,1.3724 z M 354.87244,1100.25 c -1.24387,-1.5861 -1.2085,-1.6214 0.37756,-0.3776 1.66575,1.3064 2.19548,2.1276 1.37244,2.1276 -0.20765,0 -0.99515,-0.7875 -1.75,-1.75 z M 1149,1101.6224 c 0,-0.2076 0.7875,-0.9951 1.75,-1.75 1.5861,-1.2438 1.6214,-1.2085 0.3776,0.3776 -1.3064,1.6657 -2.1276,2.1955 -2.1276,1.3724 z M 234.07895,827.41667 c 0.048,-1.16495 0.28494,-1.4019 0.60416,-0.60417 0.28887,0.72187 0.25335,1.58438 -0.0789,1.91667 -0.3323,0.33229 -0.56864,-0.25834 -0.52522,-1.3125 z m 1036.99995,0 c 0.048,-1.16495 0.285,-1.4019 0.6042,-0.60417 0.2889,0.72187 0.2534,1.58438 -0.079,1.91667 -0.3323,0.33229 -0.5687,-0.25834 -0.5253,-1.3125 z m -1038.99995,-18 c 0.048,-1.16495 0.28494,-1.4019 0.60416,-0.60417 0.28887,0.72187 0.25335,1.58438 -0.0789,1.91667 -0.3323,0.33229 -0.56864,-0.25834 -0.52522,-1.3125 z m 1040.99995,0 c 0.048,-1.16495 0.285,-1.4019 0.6042,-0.60417 0.2889,0.72187 0.2534,1.58438 -0.079,1.91667 -0.3323,0.33229 -0.5687,-0.25834 -0.5253,-1.3125 z M 231.15789,797 c 0,-1.375 0.22698,-1.9375 0.50439,-1.25 0.27741,0.6875 0.27741,1.8125 0,2.5 -0.27741,0.6875 -0.50439,0.125 -0.50439,-1.25 z m -0.84802,-21.5 c 0.006,-3.3 0.1923,-4.52944 0.41486,-2.73209 0.22256,1.79735 0.21797,4.49735 -0.0102,6 -0.22818,1.50265 -0.41027,0.0321 -0.40466,-3.26791 z m 0,-29 c 0.006,-3.3 0.1923,-4.52944 0.41486,-2.73209 0.22256,1.79735 0.21797,4.49735 -0.0102,6 -0.22818,1.50265 -0.41027,0.0321 -0.40466,-3.26791 z m 0.84802,-21.5 c 0,-1.375 0.22698,-1.9375 0.50439,-1.25 0.27741,0.6875 0.27741,1.8125 0,2.5 -0.27741,0.6875 -0.50439,0.125 -0.50439,-1.25 z m 0.92106,-12.58333 c 0.048,-1.16495 0.28494,-1.4019 0.60416,-0.60417 0.28887,0.72187 0.25335,1.58438 -0.0789,1.91667 -0.3323,0.33229 -0.56864,-0.25834 -0.52522,-1.3125 z m 1040.99995,0 c 0.048,-1.16495 0.285,-1.4019 0.6042,-0.60417 0.2889,0.72187 0.2534,1.58438 -0.079,1.91667 -0.3323,0.33229 -0.5687,-0.25834 -0.5253,-1.3125 z m -1038.99995,-18 c 0.048,-1.16495 0.28494,-1.4019 0.60416,-0.60417 0.28887,0.72187 0.25335,1.58438 -0.0789,1.91667 -0.3323,0.33229 -0.56864,-0.25834 -0.52522,-1.3125 z m 1036.99995,0 c 0.048,-1.16495 0.285,-1.4019 0.6042,-0.60417 0.2889,0.72187 0.2534,1.58438 -0.079,1.91667 -0.3323,0.33229 -0.5687,-0.25834 -0.5253,-1.3125 z M 354,422.62244 c 0,-0.20765 0.7875,-0.99515 1.75,-1.75 1.58606,-1.24387 1.62143,-1.2085 0.37756,0.37756 C 354.82119,422.91575 354,423.44548 354,422.62244 Z M 1149.8724,421.25 c -1.2438,-1.58606 -1.2085,-1.62143 0.3776,-0.37756 1.6657,1.30637 2.1955,2.12756 1.3724,2.12756 -0.2076,0 -0.9951,-0.7875 -1.75,-1.75 z M 361,414.62244 c 0,-0.20765 0.7875,-0.99515 1.75,-1.75 1.58606,-1.24387 1.62143,-1.2085 0.37756,0.37756 C 361.82119,414.91575 361,415.44548 361,414.62244 Z M 1142.8724,413.25 c -1.2438,-1.58606 -1.2085,-1.62143 0.3776,-0.37756 1.6657,1.30637 2.1955,2.12756 1.3724,2.12756 -0.2076,0 -0.9951,-0.7875 -1.75,-1.75 z M 373.95821,400.75 C 378.10217,396.33481 379,395.54091 379,396.29179 c 0,0.16049 -2.1375,2.29799 -4.75,4.75 L 369.5,405.5 Z M 1131,400.5 c -2.429,-2.475 -4.1914,-4.5 -3.9164,-4.5 0.275,0 2.4874,2.025 4.9164,4.5 2.429,2.475 4.1914,4.5 3.9164,4.5 -0.275,0 -2.4874,-2.025 -4.9164,-4.5 z M 391.95821,382.75 C 396.10217,378.33481 397,377.54091 397,378.29179 c 0,0.16049 -2.1375,2.29799 -4.75,4.75 L 387.5,387.5 Z M 1113,382.5 c -2.429,-2.475 -4.1914,-4.5 -3.9164,-4.5 0.275,0 2.4874,2.025 4.9164,4.5 2.429,2.475 4.1914,4.5 3.9164,4.5 -0.275,0 -2.4874,-2.025 -4.9164,-4.5 z M 404,371.62244 c 0,-0.20765 0.7875,-0.99515 1.75,-1.75 1.58606,-1.24387 1.62143,-1.2085 0.37756,0.37756 C 404.82119,371.91575 404,372.44548 404,371.62244 Z M 1099.8724,370.25 c -1.2438,-1.58606 -1.2085,-1.62143 0.3776,-0.37756 1.6657,1.30637 2.1955,2.12756 1.3724,2.12756 -0.2076,0 -0.9951,-0.7875 -1.75,-1.75 z M 412,364.62244 c 0,-0.20765 0.7875,-0.99515 1.75,-1.75 1.58606,-1.24387 1.62143,-1.2085 0.37756,0.37756 C 412.82119,364.91575 412,365.44548 412,364.62244 Z M 1091.8724,363.25 c -1.2438,-1.58606 -1.2085,-1.62143 0.3776,-0.37756 1.6657,1.30637 2.1955,2.12756 1.3724,2.12756 -0.2076,0 -0.9951,-0.7875 -1.75,-1.75 z M 685.8125,242.31689 c 0.72187,-0.28887 1.58438,-0.25335 1.91667,0.0789 0.33229,0.33229 -0.25834,0.56864 -1.3125,0.52522 -1.16495,-0.048 -1.4019,-0.28494 -0.60417,-0.60416 z m 133,0 c 0.72187,-0.28887 1.58438,-0.25335 1.91667,0.0789 0.33229,0.33229 -0.25834,0.56864 -1.3125,0.52522 -1.16495,-0.048 -1.4019,-0.28494 -0.60417,-0.60416 z m -115,-2 c 0.72187,-0.28887 1.58438,-0.25335 1.91667,0.0789 0.33229,0.33229 -0.25834,0.56864 -1.3125,0.52522 -1.16495,-0.048 -1.4019,-0.28494 -0.60417,-0.60416 z m 97,0 c 0.72187,-0.28887 1.58438,-0.25335 1.91667,0.0789 0.33229,0.33229 -0.25834,0.56864 -1.3125,0.52522 -1.16495,-0.048 -1.4019,-0.28494 -0.60417,-0.60416 z M 715.75,239.33772 c 0.6875,-0.27741 1.8125,-0.27741 2.5,0 0.6875,0.27741 0.125,0.50439 -1.25,0.50439 -1.375,0 -1.9375,-0.22698 -1.25,-0.50439 z m 72,0 c 0.6875,-0.27741 1.8125,-0.27741 2.5,0 0.6875,0.27741 0.125,0.50439 -1.25,0.50439 -1.375,0 -1.9375,-0.22698 -1.25,-0.50439 z m -51.98209,-1.06245 c 1.79735,-0.22256 4.49735,-0.21797 6,0.0102 1.50265,0.22818 0.0321,0.41027 -3.26791,0.40466 -3.3,-0.006 -4.52944,-0.1923 -2.73209,-0.41486 z m 29,0 c 1.79735,-0.22256 4.49735,-0.21797 6,0.0102 1.50265,0.22818 0.0321,0.41027 -3.26791,0.40466 -3.3,-0.006 -4.52944,-0.1923 -2.73209,-0.41486 z"
         id="path18" />
      <path
         style="fill:#000000"
         d="M 736,1283.3724 C 659.95219,1280.5213 586.70473,1261.9319 519.88737,1228.5252 497.34163,1217.253 484.82015,1209.9714 463,1195.4436 404.87623,1156.7449 357.25507,1109.1238 318.55637,1051 304.02856,1029.1799 296.74697,1016.6584 285.47478,994.11263 255.57477,934.30898 237.98158,871.04209 231.91326,801.5 c -1.46191,-16.75326 -1.46191,-64.24674 0,-81 6.06832,-69.54209 23.66151,-132.80898 53.56152,-192.61263 C 296.74697,505.34163 304.02856,492.82015 318.55637,471 357.25507,412.87623 404.87623,365.25507 463,326.55637 c 21.82015,-14.52781 34.34163,-21.8094 56.88737,-33.08159 59.80365,-29.90001 123.07054,-47.4932 192.61263,-53.56152 16.75326,-1.46191 64.24674,-1.46191 81,0 69.54209,6.06832 132.80898,23.66151 192.61263,53.56152 22.54577,11.27219 35.06727,18.55378 56.88737,33.08159 58.1238,38.6987 105.7449,86.31986 144.4436,144.44363 14.5278,21.82015 21.8094,34.34163 33.0816,56.88737 25.4887,50.98043 42.2892,105.53069 50.6977,164.61263 2.1374,15.01828 2.2771,19.22128 2.2771,68.5 0,49.27872 -0.1397,53.48172 -2.2771,68.5 -14.767,103.75912 -56.0855,195.4189 -123.4432,273.8429 -20.1918,23.509 -48.5485,50.3275 -75.2797,71.196 -13.2521,10.3456 -43.8811,30.8653 -58.8874,39.4513 -67.02098,38.3463 -143.68699,62.0599 -219.6126,67.9283 -14.60847,1.1291 -45.80465,1.9111 -58,1.4539 z m 56.34125,-25.8681 c 64.29046,-5.6714 121.46754,-21.3682 178.15875,-48.9099 23.01618,-11.1817 36.0977,-18.6152 56.5,-32.1058 65.2071,-43.1169 119.5093,-100.8334 158.0508,-167.9886 26.5342,-46.23346 47.8063,-104.09186 57.4367,-156.22268 C 1248.4963,819.75049 1249,812.69063 1249,761 c 0,-51.69063 -0.5037,-58.75049 -6.5125,-91.27732 -9.6304,-52.13082 -30.9025,-109.98922 -57.4367,-156.22268 -27.1899,-47.37599 -66.0345,-94.47238 -106.4025,-129.00583 -51.3541,-43.93165 -107.59383,-75.72187 -171.02271,-96.67272 -100.04996,-33.04695 -209.20122,-33.04695 -309.25118,0 -63.42888,20.95085 -119.66864,52.74107 -171.02273,96.67272 -33.2686,28.46015 -64.26202,63.82296 -89.84031,102.50583 -13.49058,20.40225 -20.92411,33.48382 -32.10581,56.5 -56.87769,117.07585 -66.00026,249.76533 -25.58411,372.12559 20.95085,63.42888 52.74107,119.66861 96.67272,171.02271 28.46015,33.2686 63.82296,64.262 102.50583,89.8403 20.40225,13.4906 33.48382,20.9241 56.5,32.1058 56.00481,27.2082 113.30434,43.033 177,48.8831 19.66562,1.8061 59.51894,1.8195 79.84125,0.027 z"
         id="path16" />
    </g>
  </g>
</svg>
