<?xml version="1.0" encoding="UTF-8" standalone="no"?>
<svg
   xmlns:dc="http://purl.org/dc/elements/1.1/"
   xmlns:cc="http://creativecommons.org/ns#"
   xmlns:rdf="http://www.w3.org/1999/02/22-rdf-syntax-ns#"
   xmlns:svg="http://www.w3.org/2000/svg"
   xmlns="http://www.w3.org/2000/svg"
   xmlns:sodipodi="http://sodipodi.sourceforge.net/DTD/sodipodi-0.dtd"
   xmlns:inkscape="http://www.inkscape.org/namespaces/inkscape"
   version="1.1"
   id="svg2"
   width="1043.729"
   height="1045.6755"
   viewBox="0 0 1043.729 1045.6755"
   sodipodi:docname="Metalvaalz.svg"
   inkscape:version="1.0.1 (3bc2e813f5, 2020-09-07)">
  <metadata
     id="metadata8">
    <rdf:RDF>
      <cc:Work
         rdf:about="">
        <dc:format>image/svg+xml</dc:format>
        <dc:type
           rdf:resource="http://purl.org/dc/dcmitype/StillImage" />
        <dc:title></dc:title>
      </cc:Work>
    </rdf:RDF>
  </metadata>
  <defs
     id="defs6" />
  <sodipodi:namedview
     pagecolor="#ffffff"
     bordercolor="#666666"
     borderopacity="1"
     objecttolerance="10"
     gridtolerance="10"
     guidetolerance="10"
     inkscape:pageopacity="0"
     inkscape:pageshadow="2"
     inkscape:window-width="1920"
     inkscape:window-height="1057"
     id="namedview4"
     showgrid="false"
     inkscape:pagecheckerboard="true"
     inkscape:zoom="0.49"
     inkscape:cx="519.74829"
     inkscape:cy="511.88089"
     inkscape:window-x="-8"
     inkscape:window-y="-8"
     inkscape:window-maximized="1"
     inkscape:current-layer="g10" />
  <g
     inkscape:groupmode="layer"
     inkscape:label="Image"
     id="g10"
     transform="translate(-230.25171,-238.11911)">
    <circle
       style="fill:#ffffff;fill-rule:evenodd"
       id="path843"
       cx="755.10199"
       cy="761.22449"
       r="506.12244" />
    <g
       id="g837">
      <path
         style="fill:#9e1313"
         d="m 735.76166,1283.2927 c 1.24391,-0.2392 3.04391,-0.2301 4,0.02 0.95609,0.2503 -0.0617,0.446 -2.26166,0.4349 -2.2,-0.011 -2.98225,-0.2159 -1.73834,-0.4551 z m 31,0 c 1.24391,-0.2392 3.04391,-0.2301 4,0.02 0.95609,0.2503 -0.0617,0.446 -2.26166,0.4349 -2.2,-0.011 -2.98225,-0.2159 -1.73834,-0.4551 z m -51.01166,-0.955 c 0.6875,-0.2774 1.8125,-0.2774 2.5,0 0.6875,0.2774 0.125,0.5044 -1.25,0.5044 -1.375,0 -1.9375,-0.227 -1.25,-0.5044 z m 72,0 c 0.6875,-0.2774 1.8125,-0.2774 2.5,0 0.6875,0.2774 0.125,0.5044 -1.25,0.5044 -1.375,0 -1.9375,-0.227 -1.25,-0.5044 z m -83.9375,-1.0208 c 0.72187,-0.2889 1.58438,-0.2534 1.91667,0.079 0.33229,0.3323 -0.25834,0.5687 -1.3125,0.5253 -1.16495,-0.048 -1.4019,-0.285 -0.60417,-0.6042 z m 97,0 c 0.72187,-0.2889 1.58438,-0.2534 1.91667,0.079 0.33229,0.3323 -0.25834,0.5687 -1.3125,0.5253 -1.16495,-0.048 -1.4019,-0.285 -0.60417,-0.6042 z M 718.5,1237.4775 c -61.78296,-5.6745 -120.2224,-21.5161 -173,-46.8966 -55.7877,-26.8279 -112.31333,-70.3981 -153,-117.9328 C 356.20394,1030.2429 329.08377,986.0571 310.47009,939 291.86516,891.96504 281.04249,845.88344 276.49569,794.34125 269.81537,718.61366 287.38615,628.429 323.41905,553.5 345.1207,508.37228 378.95603,461.04445 416.00024,424.00024 453.04445,386.95603 500.37228,353.1207 545.5,331.41905 c 74.929,-36.0329 165.11366,-53.60368 240.84125,-46.92336 51.54219,4.5468 97.62379,15.36947 144.65875,33.9744 47.0571,18.61368 91.2429,45.73385 133.6481,82.02991 47.5347,40.68667 91.1049,97.2123 117.9328,153 22.2994,46.37068 37.2778,97.22497 44.4354,150.86637 C 1228.7256,717.1764 1229,725.01006 1229,761 c 0,35.98994 -0.2744,43.8236 -1.9837,56.63363 -7.1576,53.6414 -22.136,104.49569 -44.4354,150.86637 -26.8279,55.7877 -70.3981,112.3133 -117.9328,153 -50.808,43.4883 -101.71235,72.4275 -163.02251,92.6785 -59.74199,19.7331 -127.74642,28.3852 -183.12559,23.299 z M 794,1095.1166 c 0,-0.4858 -0.7875,-1.1556 -1.75,-1.4883 -0.9625,-0.3328 -3.1,-1.5155 -4.75,-2.6283 -1.65,-1.1128 -3.7875,-2.2955 -4.75,-2.6283 -0.9625,-0.3327 -1.75,-0.95 -1.75,-1.3717 0,-0.4217 -0.7875,-1.0312 -1.75,-1.3543 -2.0137,-0.6762 -4.30396,-2.0915 -9.24605,-5.7141 -1.92717,-1.4126 -5.19145,-3.3462 -7.25395,-4.2969 -2.0625,-0.9507 -3.75,-2.1049 -3.75,-2.565 0,-0.46 -0.7875,-1.1009 -1.75,-1.424 -1.7561,-0.5897 -3.18966,-1.4351 -8.72496,-5.1457 -4.6676,-3.1289 -6.88326,-4.4168 -8.77504,-5.1006 -0.9625,-0.348 -1.75,-0.9504 -1.75,-1.3388 0,-0.3883 -1.9125,-1.7028 -4.25,-2.921 -6.14017,-3.2 -8.05318,-4.45 -9.39635,-6.1396 -0.65584,-0.825 -1.5662,-1.5389 -2.02304,-1.5864 -1.17788,-0.1224 -4.64623,-1.6679 -5.83061,-2.5981 -0.55,-0.4319 -2.4625,-1.9571 -4.25,-3.3893 -1.7875,-1.4322 -3.25,-2.299 -3.25,-1.9262 0,0.3728 -1.38453,-0.4872 -3.07673,-1.9111 -1.69219,-1.4239 -3.53973,-2.5889 -4.10564,-2.5889 -0.5659,0 -2.44388,-1.1318 -4.17327,-2.5151 -1.7294,-1.3833 -3.62893,-2.9032 -4.22117,-3.3776 -0.59225,-0.4744 -2.16725,-1.2042 -3.5,-1.6218 -1.33276,-0.4175 -3.64511,-1.7804 -5.13856,-3.0286 -3.38078,-2.8256 -2.17046,-4.1681 4.59356,-5.0953 2.57203,-0.3525 4.91568,-1.0281 5.20813,-1.5013 0.29244,-0.4731 1.8286,-0.8603 3.41368,-0.8603 1.58508,0 3.14401,-0.424 3.46429,-0.9422 0.32028,-0.5182 2.70934,-1.25 5.30902,-1.6262 2.59968,-0.3761 5.17669,-1.0204 5.72669,-1.4316 0.55,-0.4112 3.12701,-1.0555 5.72669,-1.4316 2.59968,-0.3762 4.98874,-1.108 5.30902,-1.6262 0.32028,-0.5182 1.90577,-0.9422 3.52331,-0.9422 1.61754,0 2.94098,-0.4058 2.94098,-0.9018 0,-0.496 2.70081,-1.2153 6.00179,-1.5984 3.30099,-0.3831 6.24449,-1.0893 6.5411,-1.5692 0.29662,-0.4799 2.78091,-1.17 5.52065,-1.5334 2.73974,-0.3635 5.22281,-1.0515 5.51792,-1.529 0.29512,-0.4775 1.83346,-0.8682 3.41854,-0.8682 1.58508,0 3.14401,-0.424 3.46429,-0.9422 0.32028,-0.5182 2.70934,-1.25 5.30902,-1.6262 2.59968,-0.3761 5.17669,-1.02674 5.72669,-1.44577 0.55,-0.41904 3.45704,-1.0925 6.4601,-1.49659 3.00305,-0.40409 6.15305,-1.07697 7,-1.4953 4.08164,-2.01602 6.89076,-2.93379 10.7899,-3.52515 5.16199,-0.7829 5.4934,-2.1449 0.73895,-3.03684 -1.93107,-0.36227 -3.75763,-1.05766 -4.05901,-1.54531 C 792.12855,987.39899 790.55852,987 788.94098,987 787.32344,987 786,986.58238 786,986.07196 c 0,-0.51043 -2.475,-1.23728 -5.5,-1.61523 -3.025,-0.37795 -5.5,-1.08533 -5.5,-1.57195 C 775,982.39815 773.90156,982 772.55902,982 c -1.34254,0 -2.70695,-0.43035 -3.03203,-0.95633 -0.32507,-0.52598 -1.28199,-0.69118 -2.12648,-0.36712 -0.84449,0.32406 -2.63007,0.0794 -3.96797,-0.54367 -5.22357,-2.43271 -7.08423,-3.04252 -11.1773,-3.66321 -2.33462,-0.35403 -4.49868,-1.05454 -4.80902,-1.55668 C 747.13588,974.41084 745.58508,974 744,974 c -1.58508,0 -3.14793,-0.43035 -3.47301,-0.95633 -0.32507,-0.52598 -1.20611,-0.7203 -1.95786,-0.43182 -0.75176,0.28847 -1.6639,0.0438 -2.027,-0.54368 C 736.17904,971.48068 734.58508,971 733,971 c -1.58508,0 -3.13588,-0.41084 -3.44622,-0.91299 -0.31034,-0.50214 -2.4744,-1.20265 -4.80902,-1.55668 -4.06471,-0.61639 -5.90709,-1.21689 -11.08114,-3.61174 -1.285,-0.59478 -2.9725,-0.9738 -3.75,-0.84228 -1.47298,0.24917 -4.18355,-0.56563 -7.15005,-2.14931 -0.95504,-0.50985 -2.53004,-0.94318 -3.5,-0.96296 -2.57196,-0.0524 3.37218,-4.72513 7.03397,-5.52939 1.56045,-0.34273 4.04437,-1.25297 5.51982,-2.02274 1.47545,-0.76977 3.24514,-1.40236 3.93264,-1.40575 0.6875,-0.003 1.25,-0.45616 1.25,-1.00616 0,-0.55 1.125,-1 2.5,-1 1.375,0 2.5,-0.45 2.5,-1 0,-0.55 0.56916,-1 1.26481,-1 0.69564,0 2.94401,-0.9 4.99637,-2 2.05237,-1.1 4.6332,-2 5.7352,-2 1.10199,0 2.00362,-0.45 2.00362,-1 0,-0.55 2.25,-1 5,-1 2.75,0 5,0.41418 5,0.92041 0,0.50622 3.0375,1.23587 6.75,1.62145 3.7125,0.38558 7.2,1.04087 7.75,1.4562 0.55,0.41534 3.65995,1.07711 6.911,1.47062 3.25105,0.3935 6.62605,1.0862 7.5,1.53932 0.87395,0.45313 3.32002,1.6492 5.4357,2.65793 6.56939,3.13221 7.6533,3.78312 7.6533,4.59595 0,0.43319 1.0125,1.22541 2.25,1.76048 3.23528,1.39888 6.36199,3.44045 11.27407,7.36135 2.67471,2.13499 4.43893,2.4983 15.27117,3.14483 6.73591,0.40203 12.48914,1.12258 12.78495,1.60121 C 829.876,970.60839 832.76492,971 836,971 c 3.23508,0 6.16008,0.45 6.5,1 0.33992,0.55 2.84148,1 5.55902,1 2.71754,0 4.94098,-0.45 4.94098,-1 0,-0.55 -1.99844,-1 -4.44098,-1 -2.44254,0 -4.70041,-0.41976 -5.01749,-0.9328 -0.31708,-0.51304 -4.17852,-1.24701 -8.58099,-1.63104 -4.40246,-0.38404 -8.24615,-1.08928 -8.54153,-1.5672 C 826.12364,966.39103 824.13508,966 822,966 c -2.13508,0 -4.18667,-0.49303 -4.55909,-1.09562 -0.37775,-0.6112 -2.28294,-0.90368 -4.30902,-0.66151 -3.68842,0.44087 -6.98299,-0.72857 -8.43158,-2.99287 -0.43983,-0.6875 -1.37389,-1.25 -2.07569,-1.25 -0.70179,0 -2.33287,-1.125 -3.62462,-2.5 -1.29175,-1.375 -2.78108,-2.5 -3.30964,-2.5 -0.52856,0 -1.94162,-1.0125 -3.14014,-2.25 -2.39293,-2.47077 -4.97938,-4.28208 -8.05022,-5.63762 -1.1,-0.48557 -2.85724,-1.8345 -3.90499,-2.99762 C 779.54727,942.95164 777.88633,942 776.90403,942 c -0.9823,0 -2.04804,-0.424 -2.36832,-0.94222 -0.32028,-0.51822 -2.59684,-1.24432 -5.05902,-1.61355 C 767.01451,939.07501 765,938.44673 765,938.04807 c 0,-0.39867 14.5125,-1.02182 32.25,-1.38478 48.46107,-0.99166 59.83603,-0.867 62.81665,0.68845 1.41166,0.73667 3.85921,1.66382 5.43901,2.06032 1.57979,0.39651 4.05225,1.56108 5.49434,2.58794 1.44209,1.02686 3.94454,2.19835 5.56099,2.60331 1.61646,0.40496 5.74351,2.19737 9.17124,3.98313 3.42772,1.78576 7.59022,3.54511 9.25,3.90966 1.65977,0.36454 3.01777,1.02457 3.01777,1.46672 0,1.73896 11.14516,3.22536 12.67949,1.69103 C 911.0391,955.29423 919.71833,955 929.96667,955 c 10.29931,0 19.05823,-0.42074 19.58333,-0.94071 1.55297,-1.53777 67.0667,-1.83317 68.5958,-0.30929 0.6898,0.6875 3.1142,1.25 5.3875,1.25 2.2734,0 4.4525,0.31917 4.8426,0.70926 0.3901,0.3901 2.4443,0.58399 4.565,0.43088 2.1206,-0.15311 4.153,0.20272 4.5164,0.79074 0.3634,0.58801 2.4342,1.06912 4.6017,1.06912 2.1676,0 3.941,0.408 3.941,0.90668 0,0.49867 4.275,1.22718 9.5,1.61891 5.225,0.39174 9.5,1.10873 9.5,1.59333 0,0.48459 1.725,0.88108 3.8333,0.88108 2.1084,0 4.1525,0.31917 4.5426,0.70926 0.3901,0.3901 2.4443,0.58399 4.565,0.43088 2.1206,-0.15311 4.153,0.20272 4.5164,0.79074 0.3634,0.58801 2.4342,1.06912 4.6017,1.06912 2.1676,0 3.941,0.40223 3.941,0.89384 0,0.49161 4.0531,1.21463 9.0069,1.60671 4.9538,0.39208 9.2554,1.11485 9.5591,1.60616 0.3036,0.49131 2.1066,0.89329 4.0066,0.89329 1.9,0 4.3372,0.55123 5.416,1.22496 1.5478,0.96661 2.2198,0.96661 3.1864,0 0.9667,-0.96661 0.6556,-1.22496 -1.475,-1.22496 -1.485,0 -2.7,-0.40582 -2.7,-0.90181 0,-0.496 -2.7008,-1.21528 -6.0018,-1.5984 -3.301,-0.38312 -6.2525,-1.1023 -6.559,-1.59819 C 1105.1327,966.40572 1103.5851,966 1102,966 c -1.5851,0 -3.1863,-0.49238 -3.5582,-1.09417 -0.3719,-0.60179 -1.7592,-0.88714 -3.0829,-0.63411 -1.3236,0.25303 -2.6475,0.0704 -2.9418,-0.40583 -0.2943,-0.47624 -1.8586,-0.86589 -3.4761,-0.86589 -1.6176,0 -2.941,-0.40433 -2.941,-0.89851 0,-0.49418 -3.1518,-1.21503 -7.004,-1.60189 -3.8521,-0.38686 -7.2537,-1.10753 -7.559,-1.60149 C 1071.1317,958.40415 1069.5851,958 1068,958 c -1.5851,0 -3.1472,-0.42921 -3.4714,-0.95379 -0.3243,-0.52458 -3.2758,-1.25771 -6.5591,-1.62917 -3.2832,-0.37145 -5.9695,-1.02306 -5.9695,-1.44802 0,-0.42496 -2.7008,-1.08611 -6.0018,-1.46923 -3.301,-0.38312 -6.2525,-1.1023 -6.559,-1.59819 C 1039.1327,950.40572 1037.5851,950 1036,950 c -1.5851,0 -3.1276,-0.39741 -3.4278,-0.88313 -0.3002,-0.48571 -3.1392,-1.20639 -6.309,-1.6015 -3.1698,-0.39511 -6.086,-1.2352 -6.4806,-1.86687 -0.8947,-1.43222 -89.7552,-1.01975 -91.2326,0.42348 -1.8505,1.80769 -9.359,0.97331 -14.14602,-1.57198 -2.58602,-1.375 -5.53484,-2.5 -6.55292,-2.5 C 906.83298,942 906,941.58575 906,941.07946 c 0,-0.5063 -1.38031,-1.22372 -3.06736,-1.59425 -1.68705,-0.37054 -4.27455,-1.30353 -5.75,-2.0733 -1.47545,-0.76977 -3.24514,-1.40236 -3.93264,-1.40575 C 892.5625,936.00277 892,935.55 892,935 c 0,-0.55 -0.83298,-1 -1.85106,-1 -1.01808,0 -3.9669,-1.125 -6.55292,-2.5 -2.58601,-1.375 -5.17253,-2.5 -5.74781,-2.5 -1.00783,0 -6.58831,-2.24906 -9.99556,-4.02844 -0.90605,-0.47316 -18.11855,-1.18034 -38.25,-1.57151 C 809.47119,923.00889 793,922.36696 793,921.97355 c 0,-0.39342 3.59213,-1.02864 7.98251,-1.41162 4.39039,-0.38298 8.24194,-1.11609 8.55902,-1.62913 0.31708,-0.51304 2.79995,-0.9328 5.51749,-0.9328 2.71754,0 4.94098,-0.39678 4.94098,-0.88172 0,-0.48495 3.82332,-1.20021 8.49627,-1.58946 4.67295,-0.38926 8.74951,-1.11748 9.05902,-1.61828 0.30951,-0.5008 2.67369,-0.92485 5.25373,-0.94234 4.34205,-0.0294 4.54659,-0.14102 2.74985,-1.5 -1.06762,-0.80751 -3.62856,-1.4682 -5.69098,-1.4682 -2.06242,0 -4.00442,-0.41189 -4.31555,-0.91531 -0.31113,-0.50341 -3.94418,-1.23189 -8.07344,-1.61884 -4.12927,-0.38694 -7.72927,-1.06194 -8,-1.5 -0.27074,-0.43805 -3.86424,-1.11244 -7.98557,-1.49864 C 807.372,904.08101 804,903.36789 804,902.88251 804,902.39713 802.29,902 800.2,902 c -2.09,0 -4.23032,-0.43032 -4.75628,-0.95628 -0.52595,-0.52595 -4.66595,-1.26565 -9.2,-1.64377 C 781.70968,899.02182 778,898.32715 778,897.85622 778,897.3853 776.275,897 774.16667,897 c -2.10834,0 -4.15747,-0.32414 -4.55364,-0.7203 -0.39617,-0.39617 -2.27117,-0.58669 -4.16667,-0.42339 -1.8955,0.16331 -3.44636,-0.0777 -3.44636,-0.53558 0,-1.7402 5.85067,-3.2356 15.27688,-3.9047 5.37728,-0.3817 10.01634,-1.08145 10.30901,-1.55501 0.29268,-0.47356 2.90559,-0.86102 5.80646,-0.86102 2.90087,0 5.58896,-0.31464 5.97351,-0.6992 0.38456,-0.38456 2.66374,-0.57839 5.06485,-0.43073 2.4011,0.14765 4.66302,-0.21271 5.02648,-0.8008 C 809.82065,886.48117 812.53992,886 815.5,886 c 2.96008,0 5.62657,-0.39577 5.92552,-0.8795 0.29896,-0.48372 5.27573,-1.20204 11.0595,-1.59626 5.78376,-0.39422 10.76728,-1.12345 11.07447,-1.6205 C 843.86669,881.40668 846.53992,881 849.5,881 c 2.96008,0 5.67894,-0.48052 6.04192,-1.06783 0.3694,-0.59769 3.03041,-0.95802 6.0441,-0.81842 2.96129,0.13718 5.69086,-0.0573 6.06573,-0.43217 C 868.02662,878.30671 870.73333,878 873.66667,878 876.6,878 879,877.55 879,877 c 0,-0.55 2.475,-1 5.5,-1 7.55327,0 7.1026,-1.73821 -1.50497,-5.80458 C 879.14776,868.37791 876,866.57156 876,866.18132 876,865.41823 868.63689,862 866.99314,862 866.44691,862 866,861.54866 866,860.99703 c 0,-0.55164 -1.8,-1.78279 -4,-2.7359 -2.2,-0.95311 -4,-2.04102 -4,-2.41757 0,-0.37656 -1.31891,-0.97433 -2.9309,-1.32838 -1.612,-0.35406 -3.4671,-1.28981 -4.12245,-2.07946 C 850.2913,851.64607 849.17271,851 848.46089,851 c -0.71182,0 -1.44422,-0.35871 -1.62756,-0.79713 C 846.65,849.76445 844.475,848.39606 842,847.16199 836.35349,844.34658 829.65775,840.65775 829,840 c -0.82859,-0.82859 -4.15838,-2.70199 -10.83893,-6.09819 -3.48641,-1.77239 -6.87881,-3.71286 -7.53867,-4.31217 -2.23808,-2.03269 -5.8142,-3.73119 -6.46978,-3.07285 -0.35894,0.36045 0.47238,1.54141 1.84738,2.62435 1.375,1.08294 3.69709,3.06921 5.16019,4.41392 1.4631,1.34472 3.06233,2.44494 3.55383,2.44494 0.49151,0 2.4202,1.575 4.28598,3.5 1.86578,1.925 3.88767,3.5 4.49308,3.5 0.60541,0 2.20463,1.33094 3.55383,2.95765 1.3492,1.62671 2.9314,2.97671 3.516,3 0.5846,0.0233 2.35629,1.39235 3.93709,3.04235 1.5808,1.65 3.30217,3 3.82526,3 0.87214,0 3.52918,2.21878 13.91186,11.61716 2.05542,1.86056 4.13782,3.38284 4.62756,3.38284 0.48974,0 1.45063,0.675 2.13532,1.5 1.07183,1.29148 0.68001,1.5 -2.81854,1.5 -2.23488,0 -4.31477,0.40668 -4.62197,0.90374 -0.30719,0.49705 -5.29071,1.22628 -11.07447,1.6205 -5.78377,0.39422 -10.76054,1.11254 -11.0595,1.59626 -0.29895,0.48373 -2.917,0.8795 -5.81787,0.8795 -2.90087,0 -5.58896,0.31464 -5.97351,0.6992 -0.38456,0.38456 -2.66374,0.57839 -5.06485,0.43073 -2.4011,-0.14765 -4.66302,0.21271 -5.02648,0.8008 C 807.17935,880.51883 804.46008,881 801.5,881 c -2.96008,0 -5.62657,0.39577 -5.92552,0.8795 -0.29896,0.48372 -5.27573,1.20204 -11.0595,1.59626 -5.78376,0.39422 -10.76728,1.12345 -11.07447,1.6205 -0.77756,1.25811 -8.44051,1.13877 -8.44051,-0.13144 0,-0.98462 2.83141,-5.90399 4.00869,-6.96482 0.30519,-0.275 2.01855,-3.425 3.80747,-7 3.63377,-7.26179 5.3611,-10.25459 6.35456,-11.01002 0.36889,-0.28051 0.98017,-1.74301 1.3584,-3.25 0.37823,-1.50699 1.03643,-2.73998 1.46266,-2.73998 0.42622,0 1.0472,-0.7875 1.37994,-1.75 0.33274,-0.9625 1.47091,-3.1 2.52927,-4.75 5.10355,-7.95649 3.3832,-15.3458 -5.62562,-24.16338 C 777.37392,820.49677 775,817.78377 775,817.30773 c 0,-0.47603 -2.925,-3.76451 -6.5,-7.30773 -3.575,-3.54322 -6.5,-6.87115 -6.5,-7.3954 0,-0.87283 -3.66871,-4.9187 -20.16157,-22.23427 C 738.62729,776.99902 736,773.86605 736,773.40819 c 0,-0.45787 -1.88123,-2.74932 -4.18052,-5.09213 -3.96463,-4.03966 -4.09373,-4.35553 -2.5,-6.11659 0.92429,-1.02132 1.68052,-2.3802 1.68052,-3.01974 0,-0.63953 0.9,-1.72484 2,-2.4118 1.1,-0.68696 2,-1.73734 2,-2.33416 0,-0.59683 1.10509,-2.12332 2.45575,-3.3922 1.35067,-1.26888 2.36591,-2.58482 2.25611,-2.92431 -0.24463,-0.75638 3.01184,-5.43071 5.97753,-8.58012 1.20417,-1.27876 1.98891,-2.5255 1.74387,-2.77054 -0.24504,-0.24504 0.45724,-1.26251 1.56061,-2.26105 1.10337,-0.99854 2.00613,-2.39842 2.00613,-3.11085 0,-0.71242 0.58508,-1.65518 1.30018,-2.09501 1.73106,-1.06471 7.01578,-8.56532 9.35507,-13.27767 0.40353,-0.81289 1.65868,-2.39112 2.78922,-3.50717 2.28962,-2.26028 4.09238,-4.93875 5.4948,-8.16394 0.51397,-1.18199 1.7504,-2.76384 2.74761,-3.51521 1.91112,-1.43998 3.73191,-4.00821 5.20074,-7.3357 0.48557,-1.1 1.8345,-2.85724 2.99762,-3.90499 1.16312,-1.04774 2.11476,-2.52436 2.11476,-3.28138 0,-0.75702 0.675,-1.63542 1.5,-1.952 0.825,-0.31659 1.5,-1.12402 1.5,-1.7943 0,-0.67029 1.125,-2.27558 2.5,-3.56733 1.375,-1.29175 2.5,-2.78634 2.5,-3.32132 0,-0.53498 1.6875,-3.02634 3.75,-5.53634 3.57825,-4.35463 5.28431,-6.85503 6.90525,-10.12032 0.40353,-0.81289 1.69221,-2.38789 2.86374,-3.5 1.17152,-1.11211 2.45165,-2.69702 2.84474,-3.52202 1.48568,-3.11808 3.25183,-5.71932 6.88627,-10.14234 2.0625,-2.51 3.75,-5.00136 3.75,-5.53634 0,-0.53498 1.125,-2.02957 2.5,-3.32132 1.375,-1.29175 2.5,-2.92283 2.5,-3.62462 0,-0.7018 0.5625,-1.63586 1.25,-2.07569 1.35474,-0.8667 3.23668,-3.626 4.63762,-6.79969 0.48557,-1.1 1.8345,-2.85724 2.99762,-3.90499 1.16312,-1.04774 2.11476,-2.4621 2.11476,-3.14301 0,-0.68091 0.675,-1.49704 1.5,-1.81363 0.825,-0.31658 1.5,-1.18628 1.5,-1.93267 0,-0.74639 1.125,-2.41395 2.5,-3.7057 1.375,-1.29175 2.5,-2.73918 2.5,-3.21652 0,-0.90379 0.11529,-1.06685 4.79651,-6.78348 1.57633,-1.925 3.16412,-4.175 3.52841,-5 1.2496,-2.82992 3.17673,-5.47081 4.9882,-6.8357 0.99721,-0.75137 2.23364,-2.33322 2.74761,-3.51521 1.41127,-3.24555 3.2278,-5.92494 5.3507,-7.8923 1.89923,-1.76009 3.65382,-4.42767 5.43087,-8.25679 0.51049,-1.1 1.87982,-2.85724 3.04294,-3.90499 1.16312,-1.04774 2.11476,-2.4621 2.11476,-3.14301 0,-0.68091 0.675,-1.49704 1.5,-1.81363 0.825,-0.31658 1.5,-1.18628 1.5,-1.93267 0,-0.74639 1.125,-2.41395 2.5,-3.7057 1.375,-1.29175 2.5,-2.73918 2.5,-3.21652 0,-0.92415 0.24994,-1.27226 4.96522,-6.9155 1.66913,-1.9976 3.03478,-3.94013 3.03478,-4.31672 0,-0.88344 5.26521,-7.94691 6.25,-8.38459 0.4125,-0.18334 0.75,-0.90109 0.75,-1.59502 0,-0.69392 0.9,-2.07616 2,-3.07165 1.1,-0.99549 2,-2.31589 2,-2.93423 0,-0.61834 0.9,-1.77293 2,-2.56577 1.1,-0.79284 2,-1.93874 2,-2.54645 0,-0.6077 1.10509,-2.1431 2.45575,-3.41198 1.35067,-1.26888 2.36591,-2.58482 2.25611,-2.92431 -0.24463,-0.75638 3.01184,-5.43071 5.97753,-8.58012 1.20417,-1.27876 1.98891,-2.5255 1.74387,-2.77054 -0.24504,-0.24504 0.45724,-1.26251 1.56061,-2.26105 1.10337,-0.99854 2.00613,-2.39842 2.00613,-3.11085 0,-0.71242 0.56516,-1.65518 1.25591,-2.09501 1.47491,-0.93913 6.74409,-7.85442 6.74409,-8.85095 0,-0.37659 1.36565,-2.31912 3.03478,-4.31672 4.71528,-5.64324 4.96522,-5.99135 4.96522,-6.9155 0,-0.47734 1.125,-1.92477 2.5,-3.21652 1.375,-1.29175 2.5,-2.95931 2.5,-3.7057 0,-0.74639 0.675,-1.61609 1.5,-1.93267 1.62004,-0.62167 2.20117,-8.36163 0.62781,-8.36163 -0.47971,0 -1.14341,-1.6875 -1.4749,-3.75 -0.38068,-2.36858 -1.53289,-4.44626 -3.12781,-5.64007 C 938.1363,442.57039 937,441.23936 937,440.65209 937,439.15871 929.85926,432 928.36963,432 c -0.67346,0 -2.06272,-1.0125 -3.08725,-2.25 -2.14465,-2.59047 -3.55958,-3.5225 -11.73249,-7.72837 -3.27256,-1.6841 -7.66006,-3.33542 -9.75,-3.66962 C 901.70995,418.01782 900,417.3519 900,416.87219 900,416.39249 897.75,416 895,416 c -2.75,0 -5,0.45 -5,1 0,0.55 -0.59081,1 -1.31291,1 -1.57451,0 -6.68709,5.14385 -6.68709,6.72799 0,0.61521 -1.06343,2.39059 -2.36317,3.94528 -1.29974,1.5547 -2.71039,3.95173 -3.13478,5.32673 -0.42439,1.375 -1.04846,2.725 -1.38683,3 -0.98844,0.80332 -3.1233,4.35112 -3.76088,6.25 -0.32318,0.9625 -0.98512,1.75 -1.47097,1.75 -0.48585,0 -0.88337,0.6199 -0.88337,1.37756 0,0.75765 -0.64607,1.91374 -1.43572,2.56909 -0.78965,0.65535 -1.7254,2.51045 -2.07946,4.12245 -0.35405,1.61199 -1.00549,2.9309 -1.44764,2.9309 -0.44216,0 -1.06834,0.7875 -1.39152,1.75 -0.57108,1.70083 -2.63529,5.23963 -3.64566,6.25 -0.7579,0.7579 -2.67855,4.02776 -5.13959,8.75 -1.21821,2.3375 -2.53637,4.25 -2.92926,4.25 -0.39288,0 -1.0238,1.23299 -1.40203,2.73998 -0.37823,1.50699 -0.98951,2.96949 -1.3584,3.25 -0.99647,0.75772 -2.93964,4.03203 -4.90201,8.26002 -0.95728,2.0625 -2.07311,3.75 -2.47962,3.75 -0.40651,0 -1.69907,2.1375 -2.87237,4.75 -1.17329,2.6125 -2.95729,5.65 -3.96444,6.75 -1.00715,1.1 -1.89786,2.32719 -1.97936,2.72708 -0.6466,3.1728 -1.33139,4.77292 -2.04263,4.77292 -0.46005,0 -1.619,1.6875 -2.57545,3.75 -0.95645,2.0625 -2.72533,5.1 -3.93085,6.75 -1.20552,1.65 -2.53346,4.125 -2.95097,5.5 -0.41751,1.375 -1.56463,3.20166 -2.54914,4.05925 -0.98451,0.85759 -2.09393,2.77009 -2.46536,4.25 -0.37144,1.47991 -0.97823,2.69075 -1.34843,2.69075 -0.3702,0 -2.21974,2.925 -4.11009,6.5 -1.89035,3.575 -3.75292,6.5 -4.13904,6.5 -0.38613,0 -0.99173,1.31891 -1.34578,2.9309 -0.35406,1.612 -1.34027,3.50897 -2.19159,4.21551 -0.85132,0.70653 -2.63558,3.66262 -3.96503,6.56909 -1.32945,2.90648 -2.74783,5.2845 -3.15197,5.2845 -0.40413,0 -1.51461,1.8 -2.46772,4 -0.95311,2.2 -2.14851,4 -2.65644,4 -0.50794,0 -1.2132,1.31891 -1.56725,2.9309 -0.35406,1.612 -1.3285,3.49921 -2.16543,4.1938 -0.83693,0.69459 -2.46822,3.31318 -3.62509,5.81909 -1.15687,2.50592 -3.03182,5.90621 -4.16654,7.55621 -2.88528,4.19546 -4.10093,6.26906 -7.03502,12 -2.65694,5.1896 -4.66269,8.63959 -5.5231,9.5 -1.01037,1.01037 -3.07458,4.54917 -3.64566,6.25 -0.32318,0.9625 -0.93634,1.75 -1.36256,1.75 -0.42623,0 -1.07276,1.1865 -1.43673,2.63667 -0.36397,1.45017 -1.6962,4.03767 -2.96052,5.75 -1.26432,1.71233 -2.58745,3.78833 -2.94028,4.61333 -0.71343,1.66814 -2.88041,5.22616 -3.65425,6 -0.84028,0.84028 -2.81177,4.27355 -5.16808,9 -1.23388,2.475 -3.12927,5.5125 -4.21198,6.75 -1.08271,1.2375 -1.55263,2.25689 -1.04425,2.26531 0.50837,0.008 0.47431,0.34592 -0.0757,0.75 -1.19203,0.87577 -2.82249,3.47262 -5.17025,8.23469 -0.94905,1.925 -1.97399,3.725 -2.27765,4 -0.89587,0.81133 -2.92219,4.27925 -4.38228,7.5 -0.74801,1.65 -2.07579,3.59359 -2.95064,4.3191 -0.87484,0.7255 -1.8803,2.638 -2.23436,4.25 -0.35405,1.61199 -1.05931,2.9309 -1.56725,2.9309 -0.50793,0 -1.70333,1.8 -2.65644,4 -0.95311,2.2 -2.07678,4 -2.49703,4 -0.42026,0 -0.7641,0.6199 -0.7641,1.37756 0,0.75765 -0.63085,1.90111 -1.40189,2.54101 -0.77103,0.63991 -1.70115,2.35585 -2.06692,3.8132 -0.36578,1.45735 -1.50481,3.37806 -2.53119,4.26823 -1.02638,0.89017 -2.17005,2.82934 -2.54148,4.30925 -0.37144,1.47991 -1.02407,2.69075 -1.4503,2.69075 -0.42622,0 -1.0472,0.7875 -1.37994,1.75 -1.11576,3.2275 -4.14844,7.51292 -5.14328,7.26786 -0.54175,-0.13345 -3.01,-1.14443 -5.485,-2.24661 C 683.39704,729.4948 682.16284,729 681.09887,729 680.49449,729 680,728.55 680,728 c 0,-0.55 -0.94307,-1 -2.09571,-1 -1.92335,0 -7.72247,-2.67397 -8.90429,-4.10576 -0.275,-0.33316 -2.1875,-0.91605 -4.25,-1.29531 -2.0625,-0.37926 -3.75,-1.06668 -3.75,-1.52761 0,-0.75013 -2.82147,-2.00554 -5.5,-2.44722 -0.55,-0.0907 -3.11281,-1.16822 -5.69514,-2.3945 -2.58232,-1.22628 -5.21285,-2.2296 -5.84563,-2.2296 -0.63277,0 -2.56996,-1.01075 -4.30486,-2.24611 -1.7349,-1.23536 -3.15437,-2.10631 -3.15437,-1.93545 0,0.40621 -3.20222,-0.67991 -7.15113,-2.4255 C 627.61575,705.62682 625.70325,705 625.09887,705 624.49449,705 624,704.55 624,704 c 0,-0.55 -1.09844,-1 -2.44098,-1 -1.34254,0 -2.7191,-0.45 -3.05902,-1 -0.95579,-1.5465 -7.82839,-1.18175 -11.41127,0.60562 -1.7702,0.88309 -3.63826,2.57059 -4.15125,3.75 C 601.96634,708.58836 599.864,712.136 599,713 c -0.8984,0.8984 -2.94223,4.43837 -4.33018,7.5 -0.74801,1.65 -2.07579,3.59359 -2.95064,4.3191 -0.87484,0.7255 -1.8803,2.638 -2.23436,4.25 -0.35405,1.61199 -1.00549,2.9309 -1.44764,2.9309 -0.44216,0 -1.06834,0.7875 -1.39152,1.75 -0.57108,1.70083 -2.63529,5.23963 -3.64566,6.25 -0.7579,0.7579 -2.67855,4.02776 -5.13959,8.75 -1.21821,2.3375 -2.5494,4.25 -2.95821,4.25 -0.40881,0 -1.0398,1.35 -1.4022,3 -0.3624,1.65 -1.00441,3 -1.42668,3 -0.42227,0 -2.23877,2.8125 -4.03666,6.25 -1.79789,3.4375 -3.57759,6.475 -3.95488,6.75 -0.37729,0.275 -1.47115,2.1875 -2.4308,4.25 -0.95965,2.0625 -2.13795,3.75 -2.61844,3.75 -0.4805,0 -1.16331,1.31891 -1.51736,2.9309 -0.35406,1.612 -1.34027,3.50897 -2.19159,4.21551 -0.85132,0.70653 -2.63558,3.66262 -3.96503,6.56909 -1.32945,2.90648 -2.74149,5.28801 -3.13787,5.2923 -2.74666,0.0297 -4.20675,11.29518 -1.97069,15.20501 2.62918,4.59722 60.27871,61.43263 64.10559,63.20031 3.54409,1.63704 3.80545,2.03166 3.23495,4.88419 -0.34136,1.7068 -0.95138,3.35064 -1.3556,3.65298 -1.05977,0.79267 -3.19584,4.26033 -3.8806,6.29971 -0.32318,0.9625 -0.93263,1.75 -1.35434,1.75 -0.42171,0 -1.05141,0.7875 -1.39935,1.75 -0.34794,0.9625 -1.29379,2.875 -2.10189,4.25 -2.53095,4.30646 -1.2814,11.40439 2.23623,12.70268 0.97076,0.35829 2.0482,1.07294 2.39432,1.58811 0.34612,0.51517 3.00813,0.97256 5.91558,1.01642 5.05164,0.0762 5.45635,-0.11748 9.11799,-4.36373 2.10744,-2.44391 3.83293,-4.92754 3.83442,-5.51917 10e-4,-0.59162 1.1277,-2.13256 2.5027,-3.42431 1.375,-1.29175 2.5,-2.94519 2.5,-3.67431 0,-0.72913 0.42545,-1.32569 0.94543,-1.32569 0.51999,0 1.53671,-1.2375 2.25937,-2.75 1.75321,-3.66939 4.73278,-3.90741 10.26314,-0.81984 2.51707,1.40526 4.904,2.50969 5.30428,2.45428 1.50213,-0.20793 5.22778,1.38286 5.22778,2.23219 0,0.48585 0.49449,0.88337 1.09887,0.88337 1.17911,0 5.39351,1.75903 13.41548,5.59945 2.7579,1.3203 5.59472,2.40055 6.30405,2.40055 0.70934,0 3.71606,1.35 6.6816,3 2.96554,1.65 6.31622,3 7.44595,3 1.12973,0 2.05405,0.40122 2.05405,0.89159 0,0.49038 1.21005,1.1953 2.68901,1.56649 1.47895,0.37119 3.91091,1.54498 5.40437,2.60841 1.49345,1.06343 3.32089,1.94878 4.06099,1.96744 0.7401,0.0187 3.14563,0.90339 5.34563,1.96607 2.2,1.06268 4.76094,1.94741 5.69098,1.96607 0.93004,0.0187 1.9691,0.48393 2.30902,1.03393 0.39454,0.63837 -2.63661,1 -8.38197,1 -4.95,0 -9.2455,-0.39723 -9.54556,-0.88274 -0.30006,-0.4855 -10.45161,-1.21307 -22.55901,-1.61681 C 665.90606,923.09671 656,922.36894 656,921.88319 656,921.39743 649.475,921 641.5,921 c -7.975,0 -14.5,0.39186 -14.5,0.87079 0,0.47893 -3.15,1.18118 -7,1.56055 -3.85,0.37937 -7,1.11252 -7,1.62921 0,0.5167 -1.32344,0.93945 -2.94098,0.93945 -1.61754,0 -3.18256,0.39087 -3.47781,0.8686 -0.29526,0.47773 -3.69681,1.17998 -7.55902,1.56055 -3.8622,0.38058 -7.02219,1.05656 -7.02219,1.50219 0,0.44563 -3.13965,1.11961 -6.97701,1.49774 -3.83735,0.37812 -7.23891,1.11126 -7.55901,1.62921 -0.32011,0.51794 -1.90546,0.94171 -3.523,0.94171 -1.61754,0 -2.94098,0.39186 -2.94098,0.87079 0,0.47893 -3.13965,1.18016 -6.97701,1.55829 -3.83735,0.37812 -7.21708,1.07595 -7.51052,1.55074 -0.29343,0.47478 -3.46003,1.17665 -7.03689,1.5597 -3.57686,0.38305 -6.74869,1.09336 -7.0485,1.57847 -0.29981,0.4851 -1.77856,0.88201 -3.2861,0.88201 -1.50754,0 -3.30491,0.5625 -3.99415,1.25 -1.70925,1.70493 -35.35667,1.62049 -35.92688,-0.0902 C 498.99658,942.48974 496.75727,942 493.91667,942 491.2125,942 489,941.59918 489,941.1093 c 0,-0.48989 -4.95,-1.21408 -11,-1.6093 -6.05,-0.39522 -11,-1.11941 -11,-1.6093 0,-0.48988 -2.16,-0.8907 -4.8,-0.8907 -2.64,0 -5.28921,-0.48921 -5.88713,-1.08713 -0.78285,-0.78285 -1.2752,-0.78285 -1.75902,0 -0.37408,0.60527 0.0191,1.08713 0.88713,1.08713 0.85746,0 1.55902,0.39148 1.55902,0.86995 0,0.75929 4.1197,1.64466 11.74277,2.52365 1.23352,0.14223 2.54602,0.56186 2.91666,0.9325 0.37065,0.37065 1.92235,0.6739 3.44822,0.6739 1.52587,0 3.02507,0.40572 3.33154,0.9016 0.30647,0.49589 3.25803,1.21507 6.55902,1.59819 3.30098,0.38312 6.00179,1.07515 6.00179,1.53785 0,0.46269 3.15,1.15165 7,1.53102 3.85,0.37937 7,1.08162 7,1.56055 0,0.47893 1.5375,0.87079 3.41667,0.87079 1.87916,0 3.59952,0.54856 3.823,1.21902 0.54389,1.63166 18.36,1.58131 19.99783,-0.0565 C 532.87688,950.52312 535.11,950 537.2,950 c 2.09,0 3.8,-0.39713 3.8,-0.88251 0,-0.48538 3.372,-1.1985 7.49333,-1.5847 4.12133,-0.3862 7.723,-1.07381 8.00373,-1.52803 0.28072,-0.45421 4.33372,-1.14432 9.00667,-1.53358 C 570.17668,944.08193 574,943.36667 574,942.88172 574,942.39678 575.77344,942 577.94098,942 c 2.16754,0 4.19555,-0.41189 4.50668,-0.91531 0.31113,-0.50341 3.94418,-1.23189 8.07344,-1.61884 4.12927,-0.38694 7.73414,-1.06981 8.01082,-1.51749 0.27668,-0.44768 4.10507,-1.12817 8.50754,-1.5122 4.40246,-0.38404 8.24615,-1.08928 8.54153,-1.5672 0.29537,-0.47793 2.22049,-0.86896 4.27803,-0.86896 2.05754,0 4.30358,-0.5625 4.9912,-1.25 1.56517,-1.5649 30.45112,-1.34597 30.97804,0.23479 0.19,0.57 3.72244,1.01521 8.05507,1.01521 4.24417,0 8.14417,0.42529 8.66667,0.94509 0.5225,0.5198 3.65,1.10972 6.95,1.31092 l 6,0.36582 -7.19098,0.18909 c -3.95504,0.10399 -7.43767,0.58823 -7.73918,1.07608 -0.30151,0.48785 -6.85307,1.21345 -14.55902,1.61244 C 648.30487,939.89843 642,940.51812 642,940.87654 642,941.59733 634.56757,945 632.99314,945 632.44691,945 632,945.45134 632,946.00297 c 0,0.55164 -1.8,1.78279 -4,2.7359 -2.2,0.95311 -4,2.04102 -4,2.41757 0,0.37656 -1.30334,0.97091 -2.89631,1.32079 -1.59297,0.34987 -3.65077,1.4698 -4.57289,2.48874 -1.36063,1.50348 -2.27408,1.68125 -4.84709,0.94332 C 609.93993,955.40918 601.90726,955 593.83333,955 c -13.71702,0 -14.8658,0.14758 -17.51451,2.25 -3.62606,2.8782 -6.05075,4.37323 -9.94674,6.13305 -1.72036,0.77709 -3.45157,1.93655 -3.84714,2.5766 -0.39557,0.64004 -1.80051,1.57482 -3.12208,2.07728 C 556.74376,969.04792 556.14896,971 558.5,971 c 0.825,0 1.5,-0.41425 1.5,-0.92054 0,-0.5063 1.35,-1.21706 3,-1.57946 1.65,-0.3624 3,-1.02067 3,-1.46282 0,-0.44216 1.0125,-1.13337 2.25,-1.53603 1.2375,-0.40266 2.475,-0.85318 2.75,-1.00115 0.275,-0.14797 1.5125,-0.59849 2.75,-1.00115 1.2375,-0.40266 2.25,-1.09387 2.25,-1.53603 0,-0.44215 1.34484,-1.09929 2.98853,-1.4603 1.6437,-0.36102 3.24525,-1.07177 3.55902,-1.57946 C 583.3267,957.66237 597,957.73516 597,959 c 0,0.60476 4.25629,1 10.76888,1 10.55677,0 10.92456,-0.0782 18.67291,-3.97076 4.34722,-2.18391 8.16372,-4.34486 8.48112,-4.8021 C 635.64355,950.189 642.41681,947 643.90113,947 644.50551,947 645,946.59916 645,946.10925 c 0,-0.48991 8.78252,-1.22005 19.51671,-1.62253 10.73419,-0.40248 19.76075,-1.12665 20.05902,-1.60925 0.7319,-1.18425 14.42427,-1.12609 14.42427,0.0613 0,0.5163 -2.025,1.24239 -4.5,1.61354 -2.475,0.37115 -4.5,1.01621 -4.5,1.43347 0,0.41725 -1.8,1.04648 -4,1.39827 -2.2,0.35179 -4,1.08431 -4,1.62781 0,0.5435 -1.125,0.98818 -2.5,0.98818 -1.375,0 -2.5,0.39249 -2.5,0.87219 0,0.47971 -1.7941,1.15908 -3.98689,1.50972 -2.19279,0.35064 -5.52469,1.50126 -7.40422,2.55693 -1.87953,1.05567 -3.6416,1.69511 -3.91573,1.42099 -0.27412,-0.27412 -1.44222,-0.0172 -2.59578,0.57088 -4.7962,2.44521 -5.81009,2.84728 -8.8802,3.52159 -1.76945,0.38864 -3.21718,1.0943 -3.21718,1.56814 0,1.37645 2.31686,2.4415 4.65449,2.13966 1.18497,-0.15301 2.44902,0.19837 2.80902,0.78085 0.35999,0.58248 1.97797,1.05905 3.59551,1.05905 1.61754,0 2.94098,0.40582 2.94098,0.90181 0,0.496 2.70081,1.21528 6.00179,1.5984 3.30099,0.38312 6.25255,1.1023 6.55902,1.59819 0.30647,0.49588 1.85411,0.9016 3.43919,0.9016 1.58508,0 3.18262,0.48646 3.55008,1.08103 0.36746,0.59456 1.71644,0.81791 2.99773,0.49633 1.28129,-0.32159 2.60876,-0.13305 2.94992,0.41897 0.34117,0.55202 1.94375,1.00367 3.56129,1.00367 1.61754,0 2.94098,0.40582 2.94098,0.90181 0,0.496 2.70081,1.21528 6.00179,1.5984 3.30099,0.38312 6.25255,1.1023 6.55902,1.59819 0.30647,0.49588 1.85411,0.9016 3.43919,0.9016 1.58508,0 3.18627,0.49238 3.5582,1.09417 0.37193,0.60179 1.75923,0.88714 3.08288,0.63411 1.32366,-0.25303 2.64747,-0.0704 2.9418,0.40583 0.29434,0.47624 1.8586,0.86589 3.47614,0.86589 1.61754,0 2.94098,0.39186 2.94098,0.87079 0,0.47893 3.13965,1.18016 6.97701,1.55829 3.83735,0.37812 7.23891,1.11126 7.55901,1.62921 0.32011,0.5179 1.8789,0.94167 3.46398,0.94167 1.58508,0 3.12355,0.39089 3.41882,0.86865 0.29527,0.47775 2.34683,1.15807 4.55902,1.51182 5.52219,0.88303 5.04587,2.41484 -1.00028,3.2169 -2.76235,0.36643 -5.26391,1.05693 -5.55902,1.53444 C 744.12342,994.60931 742.58508,995 741,995 c -1.58508,0 -3.14401,0.424 -3.46429,0.94222 -0.32028,0.51822 -2.70934,1.24999 -5.30902,1.62615 -2.59968,0.37615 -5.17669,1.03379 -5.72669,1.4614 -0.55,0.42762 -3.5875,1.09773 -6.75,1.48903 -3.1625,0.3914 -5.75,1.1098 -5.75,1.5964 0,0.4867 -1.09844,0.8848 -2.44098,0.8848 -1.34254,0 -2.70625,0.4292 -3.03046,0.9538 -0.32421,0.5246 -3.27577,1.2577 -6.55902,1.6292 -3.28325,0.3714 -5.96954,1.0154 -5.96954,1.4309 0,0.4156 -2.475,1.0649 -5.5,1.4428 -3.025,0.378 -5.5,1.1048 -5.5,1.6153 0,0.5104 -1.32344,0.928 -2.94098,0.928 -1.61754,0 -3.18244,0.3907 -3.47756,0.8682 -0.29511,0.4775 -2.77818,1.1655 -5.51792,1.529 -2.73974,0.3634 -5.22403,1.0535 -5.52065,1.5334 -0.29661,0.4799 -3.24092,1.1862 -6.54289,1.5694 -3.30197,0.3832 -6.25434,1.1025 -6.56081,1.5984 -0.30647,0.4959 -1.88067,0.9016 -3.49821,0.9016 -4.85588,0 -3.37308,2.2996 3.54645,5.5 3.56743,1.65 6.49217,3.3375 6.49941,3.75 0.007,0.4125 0.52044,0.75 1.14045,0.75 1.2941,0 14.119,6.1081 14.87271,7.0834 0.275,0.3559 1.625,0.9849 3,1.3979 1.375,0.413 3.85,1.7322 5.5,2.9316 1.65,1.1994 13.125,7.2477 25.5,13.4407 22.77729,11.3987 26.09943,13.1535 27,14.2616 0.275,0.3384 1.625,0.9615 3,1.3848 1.375,0.4233 2.725,1.0699 3,1.4369 0.69564,0.9284 7.56284,4.0631 8.90113,4.0631 0.60438,0 1.09887,0.4142 1.09887,0.9205 0,0.5063 1.35,1.2171 3,1.5795 1.65,0.3624 3,0.967 3,1.3436 0,0.7448 7.39272,4.1564 9.00686,4.1564 0.54623,0 0.99314,0.4012 0.99314,0.8916 0,0.4904 1.21005,1.1953 2.68901,1.5665 1.47895,0.3712 4.06142,1.6575 5.73883,2.8584 3.78591,2.7105 12.64161,7.3818 14.32216,7.5548 0.6875,0.071 1.25,-0.2688 1.25,-0.7547 z M 746,920.47985 C 746,918.79995 752.20055,907 753.08329,907 753.58748,907 754,906.36782 754,905.59516 c 0,-1.07078 1.01063,-1.27646 4.25,-0.86495 2.3375,0.29694 4.7,0.88575 5.25,1.30847 0.55,0.42271 3.59345,1.08953 6.76322,1.48182 3.16976,0.39229 6.00882,1.11066 6.30901,1.59637 0.30019,0.48572 1.86925,0.88313 3.48679,0.88313 1.61754,0 2.94098,0.45 2.94098,1 0,0.55 1.8,1 4,1 2.75634,0 4,0.43401 4,1.39592 0,1.01922 -2.15887,1.58702 -8,2.10408 -4.4,0.38949 -8,1.11133 -8,1.60408 0,0.49276 -1.71,0.89592 -3.8,0.89592 -2.09,0 -4.25658,0.45658 -4.81461,1.01461 C 765.14507,920.25493 746,921.63102 746,920.47985 Z M 608.31155,908.66659 c -3.95263,-1.96479 -4.36005,-7.26707 -0.87649,-11.40705 1.33929,-1.59165 2.73807,-4.10118 3.10841,-5.57672 0.37034,-1.47555 1.0759,-2.68282 1.56791,-2.68282 0.49201,0 1.67438,-1.8 2.62749,-4 1.8799,-4.33924 2.73765,-4.71051 5.70226,-2.4682 1.06762,0.80751 2.98012,1.4682 4.25,1.4682 1.26988,0 2.30887,0.39752 2.30887,0.88337 0,0.48585 0.91275,1.12206 2.02832,1.41379 1.97984,0.51774 1.96427,0.64601 -0.65143,5.36663 -1.47386,2.65991 -2.9491,5.06121 -3.27832,5.33621 -0.72989,0.60969 -2.86076,3.96199 -3.79869,5.97612 -2.8037,6.02069 -7.86397,8.23771 -12.98833,5.69047 z M 698.5,893.47407 c -2.2,-1.31303 -5.0125,-2.40684 -6.25,-2.4307 -1.2375,-0.0238 -2.25,-0.44089 -2.25,-0.92674 0,-0.48585 -1.0125,-1.21282 -2.25,-1.61548 -1.2375,-0.40266 -2.475,-0.83151 -2.75,-0.95299 -0.275,-0.12149 -1.4,-0.5593 -2.5,-0.9729 -1.1,-0.41361 -4.25646,-1.83724 -7.01435,-3.16363 C 672.72775,882.08523 669.69025,881 668.73565,881 667.78104,881 667,880.55 667,880 c 0,-0.55 -0.3375,-0.95133 -0.75,-0.89185 -1.39804,0.2016 -5.25,-1.33696 -5.25,-2.09697 0,-0.41556 -1.8,-1.0434 -4,-1.39519 -2.2,-0.35179 -4,-1.03182 -4,-1.51118 0,-0.78316 -2.87356,-2.12033 -5.5,-2.55934 -0.55,-0.0919 -3.11281,-1.15228 -5.69514,-2.35631 C 639.22254,867.98512 636.59201,867 635.95923,867 c -0.63277,0 -2.3724,-0.87008 -3.86585,-1.93351 -1.49346,-1.06343 -4.03792,-2.25048 -5.65437,-2.63789 -1.61646,-0.38741 -3.38901,-1.03725 -3.93901,-1.4441 -0.55,-0.40685 -1.93869,-1.02669 -3.08597,-1.37744 C 617.22733,858.93855 566,808.34989 566,806.85896 c 0,-1.35339 1.63466,-1.00409 3,0.64104 0.68469,0.825 1.86479,1.5 2.62244,1.5 0.75766,0 1.37756,0.46114 1.37756,1.02475 0,0.56361 1.0125,1.48294 2.25,2.04294 3.5911,1.62507 6.06584,3.20866 10.44272,6.68231 2.2523,1.7875 4.42092,3.25 4.81917,3.25 0.39824,0 2.35849,1.36565 4.35609,3.03478 4.85578,4.0573 5.38575,4.44941 7.13202,5.27666 0.825,0.39082 2.85,1.61087 4.5,2.71122 1.65,1.10035 3.7875,2.27288 4.75,2.60562 0.9625,0.33274 1.75,0.96954 1.75,1.41511 0,0.44557 1.31539,1.46633 2.9231,2.26836 2.76855,1.38114 3.05932,1.31603 5.5,-1.23148 1.41729,-1.47934 2.5769,-3.06126 2.5769,-3.51537 0,-0.45411 6.525,-7.69089 14.5,-16.08172 7.975,-8.39083 14.5,-15.65673 14.5,-16.14644 0,-0.48971 3.15,-4.01624 7,-7.83674 3.85,-3.8205 7,-7.29593 7,-7.72318 0,-0.42725 3.34696,-4.26432 7.4377,-8.52682 4.09073,-4.2625 10.82056,-11.35 14.95517,-15.75 l 7.51748,-8 4.54483,4.45821 c 2.49965,2.45201 4.54482,4.86069 4.54482,5.35261 0,0.49193 3.15,3.95206 7,7.68918 3.85,3.73712 7,7.16429 7,7.61594 0,0.45164 2.34713,3.19782 5.21584,6.10261 3.2754,3.3166 4.62305,5.28145 3.62244,5.28145 -0.87636,0 -2.15359,-0.675 -2.83828,-1.5 -0.68469,-0.825 -1.78635,-1.5 -2.44813,-1.5 -0.66178,0 -2.26012,-1.125 -3.55187,-2.5 -1.29175,-1.375 -2.95931,-2.5 -3.7057,-2.5 -0.74639,0 -1.61609,-0.675 -1.93267,-1.5 -0.31659,-0.825 -1.12402,-1.5 -1.7943,-1.5 -0.67029,0 -2.27558,-1.125 -3.56733,-2.5 -1.29175,-1.375 -2.76793,-2.5 -3.28041,-2.5 -0.89767,0 -8.68558,-5.719 -9.72961,-7.14488 -0.83928,-1.14625 -5.41455,-1.93235 -6.48998,-1.11507 -1.17054,0.88955 -2.58665,3.15197 -5.63959,9.00995 -1.21821,2.3375 -2.53267,4.25 -2.92103,4.25 -0.38837,0 -0.97836,0.7875 -1.3111,1.75 -0.33274,0.9625 -1.50527,3.1 -2.60562,4.75 -1.10035,1.65 -2.31346,3.675 -2.69579,4.5 -0.38234,0.825 -1.51982,2.09329 -2.52775,2.81842 -1.00792,0.72513 -1.61066,1.67749 -1.33943,2.11636 0.27123,0.43886 -0.39624,1.60281 -1.48327,2.58656 -1.08703,0.98375 -1.97642,2.37153 -1.97642,3.08396 0,0.71242 -0.59644,1.65518 -1.32541,2.09501 -0.72898,0.43983 -1.63393,1.47469 -2.01101,2.29969 -0.37708,0.825 -1.57569,2.85 -2.66358,4.5 -1.08789,1.65 -2.2908,3.675 -2.67313,4.5 -0.38234,0.825 -1.51982,2.09329 -2.52775,2.81842 -1.00792,0.72513 -1.61066,1.67749 -1.33943,2.11636 0.27123,0.43886 -0.39624,1.60281 -1.48327,2.58656 -1.08703,0.98375 -1.97642,2.37153 -1.97642,3.08396 0,0.71242 -0.59644,1.65518 -1.32541,2.09501 -0.72898,0.43983 -1.63393,1.47469 -2.01101,2.29969 -0.37708,0.825 -1.58589,2.85 -2.68624,4.5 -1.10035,1.65 -2.27288,3.7875 -2.60562,4.75 -0.33274,0.9625 -1.0025,1.75 -1.48835,1.75 -0.48585,0 -0.88337,0.6199 -0.88337,1.37756 0,0.75765 -0.68055,1.94236 -1.51233,2.63267 -1.15031,0.95467 -1.24069,1.58244 -0.37756,2.62245 0.62413,0.75203 1.55117,1.36732 2.06008,1.36732 0.50892,0 1.91955,1.0125 3.13473,2.25 2.22111,2.26191 4.91191,4.16973 7.69508,5.45594 1.62957,0.75309 1.82295,0.89141 7.00329,5.00928 3.82991,3.04441 6.67711,4.93239 8.99671,5.96573 0.825,0.36753 1.85986,1.26466 2.29969,1.99364 0.43983,0.72897 1.37389,1.32541 2.07569,1.32541 0.70179,0 2.33287,1.125 3.62462,2.5 1.29175,1.375 2.73918,2.5 3.21652,2.5 0.47734,0 1.4114,0.44322 2.07569,0.98493 5.4348,4.43194 7.59829,6.01507 8.22013,6.01507 0.398,0 2.35804,1.36565 4.35564,3.03478 4.81592,4.024 5.37353,4.43876 7.13202,5.30487 4.05882,1.99909 5.92607,3.40095 5.32741,3.99961 -1.07553,1.07553 -2.59629,0.66007 -6.82741,-1.86519 z M 713.39007,748.3743 C 709.31036,742.70676 706.76597,740 705.5181,740 c -1.92447,0 -2.63548,-2.73976 -1.10754,-4.2677 0.72907,-0.72907 1.67432,-2.42959 2.10056,-3.77894 0.42623,-1.34935 1.58049,-3.15502 2.565,-4.01261 0.98451,-0.85759 2.08929,-2.75163 2.45507,-4.20898 0.36577,-1.45735 1.29589,-3.17329 2.06692,-3.8132 C 714.36915,719.27867 715,718.13521 715,717.37756 715,716.6199 715.39752,716 715.88337,716 c 0.48585,0 1.14779,-0.7875 1.47097,-1.75 0.57108,-1.70083 2.63529,-5.23963 3.64566,-6.25 0.7579,-0.7579 2.67855,-4.02776 5.13959,-8.75 1.21821,-2.3375 2.53637,-4.25 2.92926,-4.25 0.39288,0 1.01823,-1.21084 1.38967,-2.69075 0.37143,-1.47991 1.48085,-3.39241 2.46536,-4.25 0.98451,-0.85759 2.14415,-2.68425 2.57696,-4.05925 0.43281,-1.375 1.73581,-3.85 2.89556,-5.5 2.78625,-3.96408 4.46734,-6.66678 5.28702,-8.5 0.36888,-0.825 0.92852,-1.725 1.24364,-2 0.78499,-0.68506 2.57809,-3.69504 5.21253,-8.75 1.21821,-2.3375 2.53267,-4.25 2.92103,-4.25 0.62387,0 1.93123,-3.02362 2.30486,-5.33061 0.074,-0.45684 0.85654,-1.35856 1.739,-2.00384 0.88247,-0.64527 1.94669,-2.2965 2.36494,-3.66939 0.41825,-1.37289 1.57875,-3.39616 2.5789,-4.49616 1.00015,-1.1 2.29736,-3.125 2.88268,-4.5 1.06868,-2.51047 3.1361,-6.0671 4.069,-7 0.66179,-0.66179 2.41078,-3.60123 5.05757,-8.5 1.18865,-2.2 2.47291,-4.225 2.85391,-4.5 0.381,-0.275 1.47789,-2.1875 2.43754,-4.25 0.95965,-2.0625 2.13795,-3.75 2.61844,-3.75 0.4805,0 1.16331,-1.31891 1.51736,-2.9309 0.35406,-1.612 1.35952,-3.5245 2.23436,-4.25 0.87485,-0.72551 2.20263,-2.6691 2.95064,-4.3191 1.4935,-3.29445 2.77155,-5.46595 5.88559,-10 1.13324,-1.65 2.84298,-4.6875 3.79943,-6.75 0.95645,-2.0625 2.06173,-3.75 2.45618,-3.75 0.39445,0 1.497,-1.8 2.45011,-4 0.95311,-2.2 2.13548,-4 2.62749,-4 0.49201,0 1.20171,-1.2375 1.5771,-2.75 0.3754,-1.5125 1.49095,-3.65 2.479,-4.75 1.805,-2.00951 3.40516,-4.80259 6.73158,-11.75 0.98753,-2.0625 2.1281,-3.75 2.53461,-3.75 0.40651,0 1.6616,-2.025 2.78909,-4.5 1.12749,-2.475 2.37889,-4.5 2.78088,-4.5 0.40199,0 1.36767,-1.4625 2.14594,-3.25 0.77828,-1.7875 2.46097,-4.63965 3.73933,-6.33812 1.27835,-1.69846 2.09868,-3.31372 1.82293,-3.58946 -0.27574,-0.27574 0.40142,-1.31833 1.50479,-2.31687 1.10337,-0.99854 2.00613,-2.38625 2.00613,-3.08381 0,-0.69756 1.14842,-2.63311 2.55204,-4.30122 1.40363,-1.66812 2.56806,-3.26733 2.58763,-3.55381 0.13602,-1.99114 1.23691,-4.56671 1.95197,-4.56671 0.4721,0 1.78087,-2.025 2.90836,-4.5 1.12749,-2.475 2.38258,-4.5 2.78909,-4.5 0.40651,0 1.52234,-1.6875 2.47962,-3.75 1.73023,-3.72784 3.77551,-7.29422 4.73129,-8.25 0.8984,-0.8984 2.94223,-4.43837 4.33018,-7.5 0.74801,-1.65 2.07579,-3.59359 2.95064,-4.3191 0.87484,-0.7255 1.8803,-2.638 2.23436,-4.25 0.35405,-1.61199 1.03686,-2.9309 1.51736,-2.9309 0.48049,0 1.65617,-1.6875 2.61262,-3.75 0.95645,-2.0625 2.66619,-5.1 3.79943,-6.75 2.76217,-4.02173 4.42993,-6.70511 5.23538,-8.42361 1.8854,-4.02262 4.55967,-5.35618 10.57018,-5.27095 3.89799,0.0553 6.56744,0.62449 7.68913,1.63961 0.94501,0.85522 2.24527,1.55495 2.88946,1.55495 0.64419,0 1.17126,0.67119 1.17126,1.49153 0,0.82034 0.9,2.05358 2,2.74054 2.55924,1.59828 2.70861,7.37276 0.25,9.66472 -2.05693,1.91751 -3.83937,4.63082 -5.32199,8.10138 -0.58697,1.37399 -1.78344,3.28959 -2.65883,4.25689 -1.77082,1.95672 -3.44945,4.75075 -5.55432,9.24494 -0.77278,1.65 -2.14976,3.6176 -3.05996,4.37244 -0.91019,0.75485 -1.6549,1.96999 -1.6549,2.70031 0,0.73033 -0.5625,1.68773 -1.25,2.12756 -1.39162,0.89029 -2.62464,2.7849 -5.88959,9.04969 -1.21821,2.3375 -2.53267,4.25 -2.92103,4.25 -0.38837,0 -0.97054,0.7875 -1.29372,1.75 -0.58964,1.7561 -1.4351,3.18966 -5.14566,8.72496 -3.12889,4.6676 -4.41678,6.88326 -5.10065,8.77504 -0.34794,0.9625 -1.01888,1.75 -1.49099,1.75 -0.4721,0 -1.88212,2.07864 -3.13337,4.6192 -3.71296,7.53887 -4.21396,8.3808 -4.98713,8.3808 -0.40583,0 -1.66037,2.025 -2.78786,4.5 -1.12749,2.475 -2.43626,4.5 -2.90836,4.5 -0.47211,0 -1.14305,0.7875 -1.49099,1.75 -0.68387,1.89178 -1.97176,4.10744 -5.10065,8.77504 -3.71056,5.5353 -4.55602,6.96886 -5.14566,8.72496 -0.32318,0.9625 -0.90535,1.75 -1.29372,1.75 -0.38836,0 -1.70282,1.9125 -2.92103,4.25 -3.33483,6.39888 -4.46985,8.09144 -6.40632,9.55321 -0.9717,0.7335 -1.54481,1.6927 -1.27358,2.13157 0.27123,0.43886 -0.39624,1.60281 -1.48327,2.58656 -1.08703,0.98375 -1.97642,2.35936 -1.97642,3.05692 0,0.69756 -1.0125,2.54388 -2.25,4.10292 -2.96159,3.73113 -4.48599,6.16003 -6.21233,9.89843 -0.78217,1.69378 -2.12312,3.66138 -2.97989,4.37244 -0.85678,0.71106 -1.55778,1.89038 -1.55778,2.6207 0,0.73033 -0.5625,1.68773 -1.25,2.12756 -1.32756,0.84931 -2.34468,2.39047 -5.80757,8.79969 -1.18865,2.2 -2.44946,4.225 -2.80181,4.5 -0.99385,0.77569 -3.13481,4.30976 -3.78628,6.25 -0.32318,0.9625 -0.93263,1.75 -1.35434,1.75 -0.42171,0 -1.03898,0.7875 -1.37172,1.75 -0.33274,0.9625 -1.51546,3.1 -2.62828,4.75 -1.11282,1.65 -2.29554,3.7875 -2.62828,4.75 -0.33274,0.9625 -0.99125,1.75 -1.46336,1.75 -0.4721,0 -1.78087,2.025 -2.90836,4.5 -1.12749,2.475 -2.38203,4.5 -2.78786,4.5 -0.77317,0 -1.27417,0.84193 -4.98713,8.3808 -1.25125,2.54056 -2.66127,4.6192 -3.13337,4.6192 -0.47211,0 -1.1228,0.7875 -1.44598,1.75 -0.62973,1.8755 -2.76022,5.42939 -3.74675,6.25 -0.90855,0.75575 -5.84112,9.25517 -6.52885,11.25 -0.33183,0.9625 -0.89851,1.75 -1.25929,1.75 -0.36078,0 -1.52403,1.6875 -2.58499,3.75 -1.06097,2.0625 -3.44343,5.6625 -5.29436,8 -1.85092,2.3375 -3.07019,4.25 -2.70948,4.25 0.36072,0 -0.50915,1.38453 -1.93305,3.07673 C 744.165,707.76892 743,709.72418 743,710.42174 c 0,0.69756 -0.88939,2.07317 -1.97642,3.05692 -1.08703,0.98375 -1.7545,2.1477 -1.48327,2.58656 0.27123,0.43887 -0.34982,1.39123 -1.38012,2.11636 -1.0303,0.72513 -2.2244,2.44342 -2.65356,3.81842 -0.42916,1.375 -1.8505,3.85 -3.15854,5.5 -3.81079,4.80707 -5.45559,7.34394 -7.91256,12.204 -0.89087,1.76221 -2.25331,3.72981 -3.02764,4.37245 C 720.63355,744.71909 720,745.79504 720,746.46746 720,747.64569 716.90018,751 715.81133,751 c -0.29215,0 -1.38172,-1.18156 -2.42126,-2.6257 z M 857,973.55902 c 0,-0.24254 -0.45,-0.7191 -1,-1.05902 -0.55,-0.33992 -1,-0.14148 -1,0.44098 0,0.58246 0.45,1.05902 1,1.05902 0.55,0 1,-0.19844 1,-0.44098 z M 646.29966,631.35179 c 6.37052,-3.2809 10.21378,-7.04779 18.21751,-17.85554 9.66476,-13.0507 10.29119,-14.1471 11.36407,-19.88993 0.81972,-4.38775 0.80194,-4.42664 -2.27754,-4.98284 -1.70703,-0.30831 -14.4662,-0.87009 -28.3537,-1.24839 L 620,586.68726 v 2.18269 c 0,3.78269 7.71347,10.32876 16,13.57847 4.125,1.6177 7.64311,3.0342 7.81803,3.14779 0.17492,0.11358 -0.38758,2.58258 -1.25,5.48666 -1.62682,5.47812 -2.02378,13.38838 -0.94303,18.79213 0.73007,3.65037 0.55909,3.59635 4.67466,1.47679 z M 511.5,571.97201 c 4.95,-3.20843 12.38269,-7.56946 16.5171,-9.69117 4.1344,-2.12171 15.1594,-8.81111 24.5,-14.86535 12.73543,-8.25464 19.10877,-11.7234 25.4829,-13.86936 12.38452,-4.16945 18.40673,-7.45584 28.5,-15.55278 4.95,-3.97095 13.275,-10.17602 18.5,-13.78904 5.225,-3.61302 14.45,-10.46095 20.5,-15.21762 6.05,-4.75666 16.11579,-11.75239 22.36842,-15.54606 l 11.36841,-6.89757 -9.89026,-9.52153 C 658.79395,446.86233 638.30348,430 636.51102,430 c -0.59389,0 -1.84919,1.30247 -2.78956,2.89438 -1.76892,2.99456 -1.45895,7.01839 1.24017,16.09902 1.91227,6.43345 1.37562,7.77688 -6.71163,16.80172 -16.11081,17.97861 -26.19441,27.76433 -40.24494,39.05603 -7.97222,6.40687 -17.42222,14.39709 -21,17.75605 -4.82036,4.52553 -7.53204,6.29587 -10.4705,6.83573 -5.29777,0.97331 -8.2327,2.60114 -13.14971,7.29337 -2.26333,2.15987 -9.23833,7.46894 -15.5,11.79795 -11.10368,7.67654 -21.22698,16.99395 -27.01649,24.86579 -5.57401,7.57883 -2.66046,7.18749 10.63164,-1.42803 z M 546,511.45034 c 0,-1.6006 -3.97179,-7.94639 -9.9832,-15.95034 -3.71773,-4.95 -8.83617,-12.95301 -11.3743,-17.78447 -7.40145,-14.089 -12.20309,-20.45967 -25.0528,-33.23928 -6.64934,-6.61307 -16.07407,-16.62557 -20.94385,-22.25 C 473.77607,416.60181 469.02667,412 468.09163,412 c -2.47328,0 -9.70691,4.83645 -16.59163,11.09327 -3.3,2.99903 -7.80736,6.66827 -10.01637,8.15385 -2.209,1.48559 -6.01519,4.73772 -8.4582,7.22697 L 428.58358,443 l 5.45821,-0.0356 c 3.00202,-0.0196 8.15821,-0.68756 11.45821,-1.48438 3.3,-0.79682 8.49819,-1.45579 11.55154,-1.46438 l 5.55154,-0.0156 8.94846,8.26365 c 4.92165,4.54501 10.74846,9.59915 12.94846,11.23141 13.55107,10.05406 30.24903,25.06999 37.66204,33.86825 5.76392,6.84103 13.8652,14.01183 18.83796,16.67434 3.6564,1.9577 5,2.33732 5,1.41269 z M 404.87244,1151.25 c -1.24387,-1.5861 -1.2085,-1.6214 0.37756,-0.3776 1.66575,1.3064 2.19548,2.1276 1.37244,2.1276 -0.20765,0 -0.99515,-0.7875 -1.75,-1.75 z M 1099,1152.6224 c 0,-0.2076 0.7875,-0.9951 1.75,-1.75 1.5861,-1.2438 1.6214,-1.2085 0.3776,0.3776 -1.3064,1.6657 -2.1276,2.1955 -2.1276,1.3724 z M 392.43709,1139.75 389.5,1136.5 l 3.25,2.9371 c 3.02946,2.7378 3.70965,3.5629 2.93709,3.5629 -0.1721,0 -1.6346,-1.4625 -3.25,-3.25 z M 1110,1142.6871 c 0,-0.1721 1.4625,-1.6346 3.25,-3.25 l 3.25,-2.9371 -2.9371,3.25 c -2.7378,3.0295 -3.5629,3.7097 -3.5629,2.9371 z M 373.43709,1120.75 370.5,1117.5 l 3.25,2.9371 c 3.02946,2.7378 3.70965,3.5629 2.93709,3.5629 -0.1721,0 -1.6346,-1.4625 -3.25,-3.25 z M 1129,1123.6871 c 0,-0.1721 1.4625,-1.6346 3.25,-3.25 l 3.25,-2.9371 -2.9371,3.25 c -2.7378,3.0295 -3.5629,3.7097 -3.5629,2.9371 z M 361.87244,1108.25 c -1.24387,-1.5861 -1.2085,-1.6214 0.37756,-0.3776 0.9625,0.7549 1.75,1.5424 1.75,1.75 0,0.8231 -0.82119,0.2933 -2.12756,-1.3724 z M 1142,1109.6224 c 0,-0.2076 0.7875,-0.9951 1.75,-1.75 1.5861,-1.2438 1.6214,-1.2085 0.3776,0.3776 -1.3064,1.6657 -2.1276,2.1955 -2.1276,1.3724 z M 232.07895,809.41667 c 0.048,-1.16495 0.28494,-1.4019 0.60416,-0.60417 0.28887,0.72187 0.25335,1.58438 -0.0789,1.91667 -0.3323,0.33229 -0.56864,-0.25834 -0.52522,-1.3125 z m 1040.99995,0 c 0.048,-1.16495 0.285,-1.4019 0.6042,-0.60417 0.2889,0.72187 0.2534,1.58438 -0.079,1.91667 -0.3323,0.33229 -0.5687,-0.25834 -0.5253,-1.3125 z M 231.15789,797 c 0,-1.375 0.22698,-1.9375 0.50439,-1.25 0.27741,0.6875 0.27741,1.8125 0,2.5 -0.27741,0.6875 -0.50439,0.125 -0.50439,-1.25 z m -0.90571,-20.5 c 0.0111,-2.2 0.21589,-2.98225 0.45508,-1.73834 0.23919,1.24391 0.23011,3.04391 -0.0202,4 -0.25029,0.95609 -0.446,-0.0617 -0.4349,-2.26166 z m 0,-31 c 0.0111,-2.2 0.21589,-2.98225 0.45508,-1.73834 0.23919,1.24391 0.23011,3.04391 -0.0202,4 -0.25029,0.95609 -0.446,-0.0617 -0.4349,-2.26166 z m 0.90571,-20.5 c 0,-1.375 0.22698,-1.9375 0.50439,-1.25 0.27741,0.6875 0.27741,1.8125 0,2.5 -0.27741,0.6875 -0.50439,0.125 -0.50439,-1.25 z m 0.92106,-12.58333 c 0.048,-1.16495 0.28494,-1.4019 0.60416,-0.60417 0.28887,0.72187 0.25335,1.58438 -0.0789,1.91667 -0.3323,0.33229 -0.56864,-0.25834 -0.52522,-1.3125 z m 1040.99995,0 c 0.048,-1.16495 0.285,-1.4019 0.6042,-0.60417 0.2889,0.72187 0.2534,1.58438 -0.079,1.91667 -0.3323,0.33229 -0.5687,-0.25834 -0.5253,-1.3125 z M 361,414.62244 c 0,-0.20765 0.7875,-0.99515 1.75,-1.75 1.58606,-1.24387 1.62143,-1.2085 0.37756,0.37756 C 361.82119,414.91575 361,415.44548 361,414.62244 Z M 1142.8724,413.25 c -1.2438,-1.58606 -1.2085,-1.62143 0.3776,-0.37756 1.6657,1.30637 2.1955,2.12756 1.3724,2.12756 -0.2076,0 -0.9951,-0.7875 -1.75,-1.75 z M 371,403.68709 c 0,-0.1721 1.4625,-1.6346 3.25,-3.25 l 3.25,-2.93709 -2.93709,3.25 C 371.82513,403.77946 371,404.45965 371,403.68709 Z m 760.4371,-2.93709 -2.9371,-3.25 3.25,2.93709 c 3.0295,2.73778 3.7097,3.56291 2.9371,3.56291 -0.1721,0 -1.6346,-1.4625 -3.25,-3.25 z M 390,384.68709 c 0,-0.1721 1.4625,-1.6346 3.25,-3.25 l 3.25,-2.93709 -2.93709,3.25 C 390.82513,384.77946 390,385.45965 390,384.68709 Z m 722.4371,-2.93709 -2.9371,-3.25 3.25,2.93709 c 3.0295,2.73778 3.7097,3.56291 2.9371,3.56291 -0.1721,0 -1.6346,-1.4625 -3.25,-3.25 z M 404,371.62244 c 0,-0.20765 0.7875,-0.99515 1.75,-1.75 1.58606,-1.24387 1.62143,-1.2085 0.37756,0.37756 C 404.82119,371.91575 404,372.44548 404,371.62244 Z M 1099.8724,370.25 c -1.2438,-1.58606 -1.2085,-1.62143 0.3776,-0.37756 1.6657,1.30637 2.1955,2.12756 1.3724,2.12756 -0.2076,0 -0.9951,-0.7875 -1.75,-1.75 z M 703.8125,240.31689 c 0.72187,-0.28887 1.58438,-0.25335 1.91667,0.0789 0.33229,0.33229 -0.25834,0.56864 -1.3125,0.52522 -1.16495,-0.048 -1.4019,-0.28494 -0.60417,-0.60416 z m 97,0 c 0.72187,-0.28887 1.58438,-0.25335 1.91667,0.0789 0.33229,0.33229 -0.25834,0.56864 -1.3125,0.52522 -1.16495,-0.048 -1.4019,-0.28494 -0.60417,-0.60416 z M 715.75,239.33772 c 0.6875,-0.27741 1.8125,-0.27741 2.5,0 0.6875,0.27741 0.125,0.50439 -1.25,0.50439 -1.375,0 -1.9375,-0.22698 -1.25,-0.50439 z m 72,0 c 0.6875,-0.27741 1.8125,-0.27741 2.5,0 0.6875,0.27741 0.125,0.50439 -1.25,0.50439 -1.375,0 -1.9375,-0.22698 -1.25,-0.50439 z m -51.98834,-1.04498 c 1.24391,-0.23919 3.04391,-0.23011 4,0.0202 0.95609,0.25029 -0.0617,0.446 -2.26166,0.4349 -2.2,-0.0111 -2.98225,-0.21589 -1.73834,-0.45508 z m 31,0 c 1.24391,-0.23919 3.04391,-0.23011 4,0.0202 0.95609,0.25029 -0.0617,0.446 -2.26166,0.4349 -2.2,-0.0111 -2.98225,-0.21589 -1.73834,-0.45508 z"
         id="path841" />
      <path
         style="fill:#000000"
         d="M 726.81692,1282.9369 C 513.31177,1271.8808 328.79482,1133.1697 258.9246,931.19762 218.12757,813.26673 221.3227,683.34983 267.88639,566.80238 320.77708,434.41864 426.41864,328.77708 558.80238,275.88639 c 124.90889,-49.9043 263.48635,-49.9043 388.39524,0 160.48788,64.11903 280.11918,205.43099 316.28588,373.60623 8.9656,41.68998 10.4972,57.96 10.4972,111.50738 0,32.03297 -0.3959,47.05873 -1.5019,57 -22.3941,201.2842 -157.9204,370.8761 -349.28118,437.0754 -46.53011,16.0966 -94.10909,25.1728 -146.19762,27.8887 -21.35805,1.1137 -28.22464,1.1099 -50.18308,-0.027 z m 65.52433,-25.4326 c 64.29046,-5.6714 121.46754,-21.3682 178.15875,-48.9099 23.01618,-11.1817 36.0977,-18.6152 56.5,-32.1058 65.2071,-43.1169 119.5093,-100.8334 158.0508,-167.9886 26.5342,-46.23346 47.8063,-104.09186 57.4367,-156.22268 C 1248.4963,819.75049 1249,812.69063 1249,761 c 0,-51.69063 -0.5037,-58.75049 -6.5125,-91.27732 -9.6304,-52.13082 -30.9025,-109.98922 -57.4367,-156.22268 -27.1899,-47.37599 -66.0345,-94.47238 -106.4025,-129.00583 -51.3541,-43.93165 -107.59383,-75.72187 -171.02271,-96.67272 -100.04996,-33.04695 -209.20122,-33.04695 -309.25118,0 -63.42888,20.95085 -119.66864,52.74107 -171.02273,96.67272 -33.2686,28.46015 -64.26202,63.82296 -89.84031,102.50583 -13.49058,20.40225 -20.92411,33.48382 -32.10581,56.5 -56.87769,117.07585 -66.00026,249.76533 -25.58411,372.12559 20.95085,63.42888 52.74107,119.66861 96.67272,171.02271 28.46015,33.2686 63.82296,64.262 102.50583,89.8403 20.40225,13.4906 33.48382,20.9241 56.5,32.1058 56.00481,27.2082 113.30434,43.033 177,48.8831 19.66562,1.8061 59.51894,1.8195 79.84125,0.027 z M 715.5,1247.4775 c -62.75235,-5.7635 -120.67654,-21.6145 -175,-47.889 C 442.93388,1152.3989 361.60108,1071.0661 314.41152,973.5 282.49536,907.51218 265.01004,832.29923 265.01004,761 c 0,-71.29923 17.48532,-146.51218 49.40148,-212.5 C 361.60108,450.93388 442.93388,369.60108 540.5,322.41152 606.48782,290.49536 681.70077,273.01004 753,273.01004 c 71.29923,0 146.51218,17.48532 212.5,49.40148 97.5661,47.18956 178.8989,128.52236 226.0885,226.08848 23.1866,47.9392 38.1421,98.26488 45.4278,152.86637 1.7273,12.94511 1.9837,20.65192 1.9837,59.63363 0,48.37481 -0.571,56.11473 -6.5125,88.27732 -9.4902,51.37204 -30.2197,108.29416 -55.4356,152.22268 -49.1212,85.574 -124.1215,155.8012 -211.5519,198.0885 -66.89626,32.3555 -142.24391,49.669 -214.5,49.2881 -11.825,-0.062 -27.8,-0.6919 -35.5,-1.3991 z m 70.84125,-9.9732 c 51.54219,-4.5468 97.62379,-15.3695 144.65875,-33.9744 47.0571,-18.6137 91.2429,-45.7338 133.6481,-82.0299 47.5347,-40.6867 91.1049,-97.2123 117.9328,-153 22.2994,-46.37068 37.2778,-97.22497 44.4354,-150.86637 C 1228.7256,804.8236 1229,796.98994 1229,761 c 0,-35.98994 -0.2744,-43.8236 -1.9837,-56.63363 -7.1576,-53.6414 -22.136,-104.49569 -44.4354,-150.86637 -26.8279,-55.7877 -70.3981,-112.31333 -117.9328,-153 C 1022.2429,364.20394 978.0571,337.08377 931,318.47009 883.96504,299.86516 837.88344,289.04249 786.34125,284.49569 710.61366,277.81537 620.429,295.38615 545.5,331.41905 489.7123,358.24702 433.18667,401.81715 392.5,449.35192 356.20394,491.75709 329.08377,535.9429 310.47009,583 c -18.60493,47.03496 -29.4276,93.11656 -33.9744,144.65875 -6.68032,75.72759 10.89046,165.91225 46.92336,240.84125 21.70165,45.1277 55.53698,92.4556 92.58119,129.4998 37.04421,37.0442 84.37204,70.8795 129.49976,92.5811 74.79901,35.9704 165.24503,53.5921 240.84125,46.9234 z"
         id="path839" />
    </g>
  </g>
</svg>
