<?xml version="1.0" encoding="UTF-8" standalone="no"?>
<svg
   xmlns:dc="http://purl.org/dc/elements/1.1/"
   xmlns:cc="http://creativecommons.org/ns#"
   xmlns:rdf="http://www.w3.org/1999/02/22-rdf-syntax-ns#"
   xmlns:svg="http://www.w3.org/2000/svg"
   xmlns="http://www.w3.org/2000/svg"
   xmlns:sodipodi="http://sodipodi.sourceforge.net/DTD/sodipodi-0.dtd"
   xmlns:inkscape="http://www.inkscape.org/namespaces/inkscape"
   version="1.1"
   id="svg2"
   width="860.61481"
   height="1337.4586"
   viewBox="0 0 860.61481 1337.4586"
   sodipodi:docname="Mindereth.svg"
   inkscape:version="1.0.1 (3bc2e813f5, 2020-09-07)">
  <metadata
     id="metadata8">
    <rdf:RDF>
      <cc:Work
         rdf:about="">
        <dc:format>image/svg+xml</dc:format>
        <dc:type
           rdf:resource="http://purl.org/dc/dcmitype/StillImage" />
        <dc:title></dc:title>
      </cc:Work>
    </rdf:RDF>
  </metadata>
  <defs
     id="defs6" />
  <sodipodi:namedview
     pagecolor="#ffffff"
     bordercolor="#666666"
     borderopacity="1"
     objecttolerance="10"
     gridtolerance="10"
     guidetolerance="10"
     inkscape:pageopacity="0"
     inkscape:pageshadow="2"
     inkscape:window-width="1920"
     inkscape:window-height="1057"
     id="namedview4"
     showgrid="false"
     inkscape:pagecheckerboard="true"
     inkscape:zoom="0.49"
     inkscape:cx="408.80965"
     inkscape:cy="674.80312"
     inkscape:window-x="-8"
     inkscape:window-y="-8"
     inkscape:window-maximized="1"
     inkscape:current-layer="g10" />
  <g
     inkscape:groupmode="layer"
     inkscape:label="Image"
     id="g10"
     transform="translate(-341.19035,-75.196877)">
    <g
       id="g14">
      <path
         style="fill:#fef6c8"
         d="m 763,1369.0956 c -6.875,-2.0799 -14.975,-4.7982 -18,-6.0408 -3.025,-1.2425 -7.075,-2.8615 -9,-3.5976 -12.64416,-4.8355 -48.81567,-26.6667 -67,-40.4376 -1.925,-1.4578 -6.91776,-5.2028 -11.09503,-8.3223 -25.92759,-19.362 -59.58726,-50.5039 -82.98379,-76.7766 -18.71877,-21.0199 -22.50994,-25.4383 -27.92118,-32.5399 -3.025,-3.97 -8.2,-10.5622 -11.5,-14.6493 -16.56948,-20.5215 -32.78427,-44.7886 -57.28401,-85.7315 -8.57399,-14.3285 -22.29771,-40.9772 -30.12668,-58.5 -2.9488,-6.6 -6.14797,-13.575 -7.10928,-15.5 -2.94904,-5.9054 -7.77167,-17.1404 -10.51667,-24.5 -1.43597,-3.85 -3.96177,-10.6 -5.61289,-15 -1.65111,-4.4 -5.17749,-14.75 -7.83638,-23 -2.6589,-8.25 -5.796,-17.925 -6.97132,-21.5 -1.17533,-3.575 -2.5633,-8.47202 -3.08437,-10.88226 -0.52108,-2.41024 -1.8017,-6.91024 -2.84583,-10 -2.97815,-8.81281 -9.79613,-41.46218 -13.07994,-62.63607 C 385.26026,822.26161 384.56362,801.6086 383.07276,623.5 382.50649,555.85 381.51287,466.075 380.86472,424 380.21656,381.925 379.5141,317.02437 379.30369,279.77638 l -0.38255,-67.72362 4.78943,-3.00539 c 7.35234,-4.61363 43.12307,-22.159 58.78943,-28.83594 25.22699,-10.75163 51.34776,-20.4964 69.5,-25.9281 4.675,-1.3989 12.1,-3.627 16.5,-4.95133 23.2358,-6.99363 58.54641,-15.18252 83.18876,-19.29231 6.15382,-1.02632 12.05763,-2.14181 13.11958,-2.47886 3.19033,-1.01257 29.3826,-4.39927 50.69166,-6.5545 11,-1.11256 23.375,-2.46584 27.5,-3.00731 17.58521,-2.30829 55.17485,-3.27309 100,-2.56665 25.025,0.39439 49.1,1.08744 53.5,1.54013 4.4,0.45268 16.1,1.55021 26,2.43894 9.9,0.88874 21.375,2.07265 25.5,2.63091 4.125,0.55826 12.45,1.65422 18.5,2.43547 10.55559,1.36307 14.88673,2.0637 40.5,6.55149 42.66,7.4746 74.146,15.24644 117.5,29.00311 5.4439,1.7274 11.4213,3.85231 27.5,9.77595 10.9741,4.04305 29.0422,11.69467 41.9333,17.75829 l 10.0667,4.73509 -0.026,28.59912 c -0.014,15.72952 -0.6801,86.64913 -1.4791,157.59913 -0.799,70.95 -1.8942,180.75 -2.4338,244 -1.42,166.43738 -1.7329,182.52847 -4.0798,209.81554 -1.1266,13.09854 -2.7338,27.49854 -3.5716,32 -0.8378,4.50145 -1.9433,11.91782 -2.4568,16.48082 -0.5134,4.56299 -1.8377,11.83797 -2.9429,16.16661 -1.1052,4.32864 -2.0095,9.2012 -2.0095,10.82792 0,1.62671 -0.6797,4.88423 -1.5105,7.23892 -0.8308,2.3547 -1.8942,6.57378 -2.3632,9.37573 -2.3628,14.11655 -18.6511,66.06325 -28.0148,89.34446 -1.1613,2.8875 -2.9564,7.3875 -3.9891,10 -3.0931,7.8251 -16.4676,37.0055 -22.1149,48.25 -14.7573,29.3839 -40.8458,71.694 -58.4383,94.7745 -3.888,5.101 -8.6442,11.4264 -10.5692,14.0565 -20.25851,27.6788 -75.49976,85.6585 -99.14199,104.0567 -2.55309,1.9867 -10.24402,8.1123 -17.09096,13.6123 -6.84693,5.5 -15.10804,11.8804 -18.35801,14.1786 -3.24997,2.2982 -9.32598,6.6155 -13.50224,9.5939 -14.11418,10.066 -38.61155,24.7593 -65.9068,39.5305 -8.22389,4.4505 -20.79324,9.6325 -25.5,10.513 -1.96071,0.3667 -7.33039,-0.7489 -15.5,-3.2204 z m 22.67976,-10.167 c 15.05082,-5.9788 56.6464,-30.048 77.32024,-44.7411 4.125,-2.9317 10.15907,-7.2107 13.40904,-9.5089 5.42171,-3.834 18.48656,-14.1362 37.59096,-29.6421 24.61615,-19.9794 76.86421,-75.0606 96,-101.2055 1.925,-2.6301 6.6843,-8.9555 10.5763,-14.0565 15.9754,-20.9381 39.5003,-58.6118 54.4974,-87.2745 6.4319,-12.2926 19.9532,-41.389 24.0487,-51.75 1.0327,-2.6125 2.8278,-7.1125 3.9891,-10 9.3637,-23.28121 25.652,-75.22791 28.0148,-89.34446 0.469,-2.80195 1.5324,-7.02103 2.3632,-9.37573 0.8308,-2.35469 1.5105,-5.61221 1.5105,-7.23892 0,-1.62672 0.9043,-6.49928 2.0095,-10.82792 1.1052,-4.32864 2.4295,-11.60362 2.9429,-16.16661 0.5135,-4.563 1.6195,-11.9821 2.4579,-16.4869 0.8383,-4.50479 2.4628,-18.67979 3.6098,-31.5 1.8669,-20.866 2.1807,-34.68319 2.9939,-131.80946 0.4996,-59.675 1.3669,-142.7 1.9274,-184.5 2.2195,-165.54006 3.3534,-313.60518 2.4089,-314.54974 -1.5662,-1.56619 -28.5922,-13.13075 -47.8503,-20.47541 -13.981,-5.33206 -43.9715,-14.94531 -61,-19.55312 -29.5221,-7.98849 -50.17791,-12.57959 -80.5,-17.89242 -25.61327,-4.48779 -29.94441,-5.18842 -40.5,-6.55149 -6.05,-0.78125 -14.375,-1.87721 -18.5,-2.43547 -4.125,-0.55826 -15.6,-1.73861 -25.5,-2.623 -9.9,-0.8844 -21.825,-1.99589 -26.5,-2.47 -4.675,-0.47411 -27.4,-1.17104 -50.5,-1.54873 -41.36568,-0.67635 -79.34234,0.34623 -96.5,2.5984 -4.125,0.54147 -16.5,1.89475 -27.5,3.00731 -21.30906,2.15523 -47.50133,5.54193 -50.69166,6.5545 -1.06195,0.33705 -6.96576,1.44906 -13.11958,2.47112 -23.75895,3.94604 -60.48563,12.46675 -83.18876,19.30005 -4.4,1.32433 -11.825,3.55243 -16.5,4.95133 -34.88919,10.43989 -93.70994,35.15477 -120.77216,50.74518 l -5.27216,3.03726 0.34604,61.71712 c 0.19032,33.94441 1.08829,116.61711 1.99549,183.71711 0.9072,67.1 2.10103,169.25 2.65295,227 1.01785,106.50366 1.11135,110.03694 3.63808,137.48142 2.56813,27.89421 11.15282,75.24117 16.52433,91.13632 1.04413,3.08976 2.32475,7.58976 2.84583,10 0.52107,2.41024 1.90904,7.30726 3.08437,10.88226 1.17532,3.575 4.31242,13.25 6.97132,21.5 2.65889,8.25 6.18527,18.6 7.83638,23 1.65112,4.4 4.15452,11.08784 5.56311,14.86186 2.91743,7.81664 11.48233,26.99034 22.17334,49.63814 19.52031,41.3517 54.89794,98.5114 80.91308,130.7315 3.3,4.0871 8.475,10.6793 11.5,14.6493 6.04927,7.939 11.47334,14.1848 32.75565,37.7182 50.20457,55.5147 123.06511,109.108 168.24435,123.7538 5.225,1.6938 11.525,3.7343 14,4.5345 6.32578,2.0451 7.0227,1.9802 15.67976,-1.4587 z M 773.22727,1000 C 769.50464,878.61584 759.97411,819.37709 736.83667,773.80762 702.01355,705.22306 633.96718,678.79778 477.22569,672.9897 445.82559,671.82617 430.6484,671.00711 431.17902,670.50474 431.35556,670.33759 445,669.69539 461.5,669.07763 536.39446,666.27356 583.56316,661.0084 622.06516,651.15471 719.15357,626.3072 756.23565,570.78713 768.43949,432 c 2.43442,-27.6852 3.42709,-46.54776 4.78903,-91 L 774.5,299.5 775.16955,332 c 2.80002,135.91354 16.11651,207.72286 46.95205,253.1894 13.10394,19.32157 34.24643,37.46702 56.8362,48.77943 44.10662,22.08751 100.27617,31.13843 221.5422,35.69837 18.8502,0.70882 19.4826,0.79378 11,1.47787 -4.95,0.39919 -22.5,1.21277 -39,1.80793 C 912.13285,678.73757 844.08429,705.93263 809.61732,778.01195 792.37527,814.06952 783.02579,861.12222 778.026,937 c -1.09546,16.62484 -3.01038,68.5679 -3.31793,90 -0.13159,9.1702 -0.67589,-0.7542 -1.4808,-27 z M 788.3792,767.5 c 10.10638,-20.73083 18.73571,-32.87809 34.49461,-48.55711 10.05971,-10.00871 16.64213,-15.56015 25.14898,-21.20996 12.79606,-8.49849 31.50674,-17.76557 45.97721,-22.77175 5.225,-1.80763 9.8775,-3.61338 10.33889,-4.01278 0.46139,-0.3994 -2.23861,-1.73741 -6,-2.97336 -29.12473,-9.57005 -56.07009,-25.73554 -75.82424,-45.48969 -19.75415,-19.75415 -35.91964,-46.69951 -45.48969,-75.82424 -1.23595,-3.76139 -2.57619,-6.46139 -2.97832,-6 -0.40212,0.46139 -1.97531,4.43889 -3.49598,8.83889 -16.84358,48.73635 -47.52576,84.53589 -91.05066,106.23665 -8.43989,4.20798 -14.28873,6.58387 -34.90368,14.1784 -1.40735,0.51847 0.54805,1.57174 7.5,4.03984 46.46362,16.49565 78.84492,42.16682 101.27975,80.29233 7.40061,12.57653 13.9622,27.69007 20.29785,46.75278 0.2742,0.825 2.2691,-3.45 4.43312,-9.5 2.16403,-6.05 6.78649,-16.85 10.27216,-24 z M 772.52894,744.46435 C 756.226,717.58679 735.0084,695.11987 710.61264,678.90234 704.07459,674.55605 698.26527,671 697.70303,671 c -0.56224,0 2.67682,-2.22321 7.19792,-4.94047 24.07439,-14.46913 49.88061,-40.11171 64.26427,-63.85675 l 5.02607,-8.29723 5.65436,8.9838 c 15.53038,24.67513 41.78525,50.36168 66.12019,64.68895 l 5.22851,3.07831 -6.96452,4.13754 c -16.50084,9.80297 -37.80065,28.43684 -50.49129,44.17166 -5.10719,6.33229 -14.12969,19.43155 -18.32504,26.60511 -1.00806,1.72366 -1.21631,1.64377 -2.88456,-1.10657 z M 901.76195,566.11361 c -19.84438,-6.53559 -31.67107,-23.97773 -30.52275,-45.01533 0.77205,-14.14448 6.45444,-25.1023 17.2847,-33.33151 8.46463,-6.43172 14.30728,-8.20987 26.9761,-8.20987 9.03257,0 11.98371,0.39607 16.5,2.21443 11.06736,4.45597 20.7727,14.16131 25.22867,25.22867 3.19222,7.92856 3.19222,25.07144 0,33 -4.47355,11.11102 -14.26737,20.87971 -25.22867,25.16391 -7.83552,3.0625 -22.43094,3.52091 -30.23805,0.9497 z M 491.56429,1194.2931 c -0.54268,-1.4252 -0.42782,-1.54 0.5598,-0.5598 0.68342,0.6784 0.99067,1.4853 0.68278,1.7932 -0.30789,0.3078 -0.86705,-0.2472 -1.24258,-1.2334 z m -14.10541,-19.3596 c -0.36253,-0.5866 -0.44468,-1.281 -0.18255,-1.5432 0.26212,-0.2621 0.74306,0.2179 1.06875,1.0666 0.67618,1.7621 0.0999,2.072 -0.8862,0.4766 z m -13.89459,-21.6404 c -0.54268,-1.4252 -0.42782,-1.54 0.5598,-0.5598 0.68342,0.6784 0.99067,1.4853 0.68278,1.7932 -0.30789,0.3078 -0.86705,-0.2472 -1.24258,-1.2334 z m 16,0 c -0.54268,-1.4252 -0.42782,-1.54 0.5598,-0.5598 0.68342,0.6784 0.99067,1.4853 0.68278,1.7932 -0.30789,0.3078 -0.86705,-0.2472 -1.24258,-1.2334 z M 1076,1142.059 c 0,-0.5175 0.4448,-1.2159 0.9885,-1.5519 0.5669,-0.3504 0.7346,0.051 0.3931,0.941 -0.6648,1.7324 -1.3816,2.0493 -1.3816,0.6109 z m -610.54112,-11.1255 c -0.36253,-0.5866 -0.44468,-1.281 -0.18255,-1.5432 0.26212,-0.2621 0.74306,0.2179 1.06875,1.0666 0.67618,1.7621 0.0999,2.072 -0.8862,0.4766 z M 1090,1119.059 c 0,-0.5175 0.4448,-1.2159 0.9885,-1.5519 0.5669,-0.3504 0.7346,0.051 0.3931,0.941 -0.6648,1.7324 -1.3816,2.0493 -1.3816,0.6109 z m 16,-1 c 0,-0.5175 0.4448,-1.2159 0.9885,-1.5519 0.5669,-0.3504 0.7346,0.051 0.3931,0.941 -0.6648,1.7324 -1.3816,2.0493 -1.3816,0.6109 z m -670.54112,-12.1255 c -0.36253,-0.5866 -0.44468,-1.281 -0.18255,-1.5432 0.26212,-0.2621 0.74306,0.2179 1.06875,1.0666 0.67618,1.7621 0.0999,2.072 -0.8862,0.4766 z M 1104,1094.059 c 0,-0.5175 0.4448,-1.2159 0.9885,-1.5519 0.5669,-0.3504 0.7346,0.051 0.3931,0.941 -0.6648,1.7324 -1.3816,2.0493 -1.3816,0.6109 z m -666.43571,-12.7659 c -0.54268,-1.4252 -0.42782,-1.54 0.5598,-0.5598 0.68342,0.6784 0.99067,1.4853 0.68278,1.7932 -0.30789,0.3078 -0.86705,-0.2472 -1.24258,-1.2334 z M 1118.0306,1066.5 c 0,-0.55 0.4362,-1.675 0.9694,-2.5 0.5332,-0.825 0.9694,-1.05 0.9694,-0.5 0,0.55 -0.4362,1.675 -0.9694,2.5 -0.5332,0.825 -0.9694,1.05 -0.9694,0.5 z m -694.40706,-14.0387 c -0.96498,-2.5147 -0.68031,-3.1635 0.49853,-1.1363 0.58369,1.0038 0.8506,2.0357 0.59313,2.2931 -0.25747,0.2575 -0.74872,-0.2631 -1.09166,-1.1568 z M 1132.0306,1034.5 c 0,-0.55 0.4362,-1.675 0.9694,-2.5 0.5332,-0.825 0.9694,-1.05 0.9694,-0.5 0,0.55 -0.4362,1.675 -0.9694,2.5 -0.5332,0.825 -0.9694,1.05 -0.9694,0.5 z m -722.46631,-14.2069 c -0.54268,-1.4252 -0.42782,-1.54 0.5598,-0.5598 0.68342,0.6784 0.99067,1.4853 0.68278,1.7932 -0.30789,0.3078 -0.86705,-0.2472 -1.24258,-1.2334 z M 1153.0306,1016.5 c 0,-0.55 0.4362,-1.675 0.9694,-2.5 0.5332,-0.825 0.9694,-1.05 0.9694,-0.5 0,0.55 -0.4362,1.675 -0.9694,2.5 -0.5332,0.825 -0.9694,1.05 -0.9694,0.5 z m -764.40706,-14.0387 c -0.96498,-2.51465 -0.68031,-3.16351 0.49853,-1.1363 0.58369,1.0038 0.8506,2.0357 0.59313,2.2931 -0.25747,0.2575 -0.74872,-0.2631 -1.09166,-1.1568 z m 758.45536,-7.04463 c 0.048,-1.16495 0.285,-1.4019 0.6042,-0.60417 0.2889,0.72187 0.2534,1.58438 -0.079,1.91667 -0.3323,0.33229 -0.5687,-0.25834 -0.5253,-1.3125 z m 16,-7 c 0.048,-1.16495 0.285,-1.4019 0.6042,-0.60417 0.2889,0.72187 0.2534,1.58438 -0.079,1.91667 -0.3323,0.33229 -0.5687,-0.25834 -0.5253,-1.3125 z m -12,-5 c 0.048,-1.16495 0.285,-1.4019 0.6042,-0.60417 0.2889,0.72187 0.2534,1.58438 -0.079,1.91667 -0.3323,0.33229 -0.5687,-0.25834 -0.5253,-1.3125 z m -755.99995,-1 c 0.048,-1.16495 0.28494,-1.4019 0.60416,-0.60417 0.28887,0.72187 0.25335,1.58438 -0.0789,1.91667 -0.33229,0.33229 -0.56864,-0.25834 -0.52522,-1.3125 z m -16,-7 c 0.048,-1.16495 0.28494,-1.4019 0.60416,-0.60417 0.28887,0.72187 0.25335,1.58438 -0.0789,1.91667 -0.33229,0.33229 -0.56864,-0.25834 -0.52522,-1.3125 z M 1167.1406,975 c 0,-0.825 0.3867,-2.4 0.8594,-3.5 0.5417,-1.26064 0.8594,-1.44548 0.8594,-0.5 0,0.825 -0.3867,2.4 -0.8594,3.5 -0.5417,1.26064 -0.8594,1.44548 -0.8594,0.5 z m -776.06165,-4.58333 c 0.048,-1.16495 0.28494,-1.4019 0.60416,-0.60417 0.28887,0.72187 0.25335,1.58438 -0.0789,1.91667 -0.33229,0.33229 -0.56864,-0.25834 -0.52522,-1.3125 z m 764.99995,-4 c 0.048,-1.16495 0.285,-1.4019 0.6042,-0.60417 0.2889,0.72187 0.2534,1.58438 -0.079,1.91667 -0.3323,0.33229 -0.5687,-0.25834 -0.5253,-1.3125 z M 374.625,960.875 c -0.83365,-4.16825 -0.0258,-4.97614 0.875,-0.875 0.37968,1.72866 0.48187,3.35146 0.22711,3.60623 -0.25477,0.25477 -0.75072,-0.97429 -1.10211,-2.73123 z m 797.4539,-3.45833 c 0.048,-1.16495 0.285,-1.4019 0.6042,-0.60417 0.2889,0.72187 0.2534,1.58438 -0.079,1.91667 -0.3323,0.33229 -0.5687,-0.25834 -0.5253,-1.3125 z m -785.99995,-4 c 0.048,-1.16495 0.28494,-1.4019 0.60416,-0.60417 0.28887,0.72187 0.25335,1.58438 -0.0789,1.91667 -0.33229,0.33229 -0.56864,-0.25834 -0.52522,-1.3125 z M 1161.1579,949 c 0,-1.375 0.227,-1.9375 0.5044,-1.25 0.2774,0.6875 0.2774,1.8125 0,2.5 -0.2774,0.6875 -0.5044,0.125 -0.5044,-1.25 z m -791.00001,-4 c 0,-1.375 0.22698,-1.9375 0.50439,-1.25 0.27741,0.6875 0.27741,1.8125 0,2.5 -0.27741,0.6875 -0.50439,0.125 -0.50439,-1.25 z m 807.00001,-7 c 0,-1.375 0.227,-1.9375 0.5044,-1.25 0.2774,0.6875 0.2774,1.8125 0,2.5 -0.2774,0.6875 -0.5044,0.125 -0.5044,-1.25 z m -796.07895,-1.58333 c 0.048,-1.16495 0.28494,-1.4019 0.60416,-0.60417 0.28887,0.72187 0.25335,1.58438 -0.0789,1.91667 -0.33229,0.33229 -0.56864,-0.25834 -0.52522,-1.3125 z M 1165.1994,933.5 c 0,-1.1 0.3602,-3.125 0.8006,-4.5 0.634,-1.97958 0.8006,-2.08367 0.8006,-0.5 0,1.1 -0.3602,3.125 -0.8006,4.5 -0.634,1.97958 -0.8006,2.08367 -0.8006,0.5 z M 365.15789,926 c 0,-1.375 0.22698,-1.9375 0.50439,-1.25 0.27741,0.6875 0.27741,1.8125 0,2.5 -0.27741,0.6875 -0.50439,0.125 -0.50439,-1.25 z m 11.95811,-4.16821 c -0.0638,-0.91752 -0.37498,-2.49252 -0.69151,-3.5 -0.54548,-1.73622 -0.51588,-1.73885 0.56728,-0.0504 0.62853,0.97978 0.9397,2.55478 0.6915,3.5 -0.40654,1.54825 -0.46276,1.55325 -0.56727,0.0504 z M 1181.218,920.5 c 0.01,-1.1 0.3621,-3.35 0.782,-5 0.6857,-2.69472 0.7653,-2.7456 0.782,-0.5 0.01,1.375 -0.3416,3.625 -0.782,5 -0.6274,1.95899 -0.7966,2.0672 -0.782,0.5 z M 1170.1579,910 c 0,-1.375 0.227,-1.9375 0.5044,-1.25 0.2774,0.6875 0.2774,1.8125 0,2.5 -0.2774,0.6875 -0.5044,0.125 -0.5044,-1.25 z m -809.03537,-0.5 c -0.0824,-1.1 -0.38139,-3.125 -0.66439,-4.5 l -0.51456,-2.5 1.07114,2.45316 c 0.58913,1.34923 0.8881,3.37423 0.66439,4.5 -0.39626,1.99405 -0.41061,1.99526 -0.55658,0.0468 z m 10.95642,-10.08333 c 0.048,-1.16495 0.28494,-1.4019 0.60416,-0.60417 0.28887,0.72187 0.25335,1.58438 -0.0789,1.91667 -0.33229,0.33229 -0.56864,-0.25834 -0.52522,-1.3125 z M 1186.232,894 c 0,-1.925 0.2058,-2.7125 0.4573,-1.75 0.2516,0.9625 0.2516,2.5375 0,3.5 -0.2515,0.9625 -0.4573,0.175 -0.4573,-1.75 z M 356.19495,883.5 c 0.0204,-1.65 0.2445,-2.20394 0.49804,-1.23097 0.25354,0.97297 0.23687,2.32297 -0.0371,3 -0.27393,0.67703 -0.48137,-0.11903 -0.46099,-1.76903 z m 818.99995,-2 c 0.02,-1.65 0.2445,-2.20394 0.4981,-1.23097 0.2535,0.97297 0.2369,2.32297 -0.037,3 -0.2739,0.67703 -0.4813,-0.11903 -0.461,-1.76903 z m -808.11595,-7.08333 c 0.048,-1.16495 0.28494,-1.4019 0.60416,-0.60417 0.28887,0.72187 0.25335,1.58438 -0.0789,1.91667 -0.33229,0.33229 -0.56864,-0.25834 -0.52522,-1.3125 z M 1191.2724,860 c 0,-2.475 0.195,-3.4875 0.4333,-2.25 0.2384,1.2375 0.2384,3.2625 0,4.5 -0.2383,1.2375 -0.4333,0.225 -0.4333,-2.25 z M 351.232,852 c 0,-1.925 0.2058,-2.7125 0.45733,-1.75 0.25152,0.9625 0.25152,2.5375 0,3.5 -0.25153,0.9625 -0.45733,0.175 -0.45733,-1.75 z m 827.8383,-1.08333 c 0.039,-2.42917 0.4458,-5.31667 0.9049,-6.41667 0.5039,-1.20754 0.6194,0.37738 0.2916,4 -0.6537,7.22485 -1.2936,8.51718 -1.1965,2.41667 z m -816.42964,-6.12701 c -0.33734,-1.25931 -0.56049,-4.08966 -0.49589,-6.28966 0.0969,-3.29979 0.25236,-2.94968 0.88808,2 0.80985,6.30544 0.64138,8.14806 -0.39219,4.28966 z M 1195.8099,751 c 0.1705,-38.225 0.4558,-70.175 0.634,-71 0.5904,-2.73248 0.2969,108.19623 -0.3293,124.5 -0.338,8.8 -0.4751,-15.275 -0.3047,-53.5 z m -848.58208,39.5 c -0.12841,-12.1 -0.4268,-30.55 -0.66308,-41 l -0.42961,-19 0.92684,18 c 0.50976,9.9 0.80815,28.35 0.66308,41 l -0.26375,23 z M 358.46203,683 c 0,-26.125 0.12919,-36.8125 0.28709,-23.75 0.15789,13.0625 0.15789,34.4375 0,47.5 -0.1579,13.0625 -0.28709,2.375 -0.28709,-23.75 z m 825.92647,-17.5 c 0,-7.15 0.1611,-9.94379 0.354,-6.20841 0.1929,3.73537 0.1915,9.58537 0,13 -0.1947,3.41462 -0.3525,0.35841 -0.3508,-6.79159 z M 1200.4634,336 c 0,-27.225 0.1286,-38.3625 0.2858,-24.75 0.1571,13.6125 0.1571,35.8875 0,49.5 -0.1572,13.6125 -0.2858,2.475 -0.2858,-24.75 z m -858.07486,25.5 c 0.002,-7.15 0.16103,-9.94379 0.35396,-6.20841 0.19293,3.73537 0.19149,9.58537 -0.003,13 -0.19468,3.41462 -0.35253,0.35841 -0.35078,-6.79159 z M 1189.4552,222 c 0,-21.725 0.1321,-30.6125 0.2936,-19.75 0.1614,10.8625 0.1614,28.6375 0,39.5 -0.1615,10.8625 -0.2936,1.975 -0.2936,-19.75 z m -836.02054,6 c 0,-14.025 0.14065,-19.7625 0.31255,-12.75 0.1719,7.0125 0.1719,18.4875 0,25.5 -0.1719,7.0125 -0.31255,1.275 -0.31255,-12.75 z m -11.35571,-31.58333 c 0.048,-1.16495 0.28494,-1.4019 0.60416,-0.60417 0.28887,0.72187 0.25335,1.58437 -0.0789,1.91667 -0.33229,0.33229 -0.56864,-0.25834 -0.52522,-1.3125 z m 857.99995,-20 c 0.048,-1.16495 0.285,-1.4019 0.6042,-0.60417 0.2889,0.72187 0.2534,1.58437 -0.079,1.91667 -0.3323,0.33229 -0.5687,-0.25834 -0.5253,-1.3125 z"
         id="path20" />
      <path
         style="fill:#9d3333"
         d="m 763,1395.9276 c -18.87958,-5.8475 -28.38446,-9.0667 -32.16944,-10.8954 -2.31342,-1.1177 -4.61619,-2.0322 -5.11726,-2.0322 -1.24582,0 -8.09384,-3.2268 -8.71622,-4.1071 -0.27661,-0.3913 -2.52661,-1.5136 -5,-2.4941 -2.47339,-0.9805 -4.94708,-2.3019 -5.49708,-2.9364 -0.55,-0.6345 -2.575,-1.769 -4.5,-2.5211 -1.925,-0.752 -3.95,-1.7212 -4.5,-2.1537 -2.96838,-2.3342 -11.77407,-7.7398 -13.50067,-8.2878 -1.09963,-0.349 -1.99933,-1.0543 -1.99933,-1.5672 0,-0.5129 -0.49774,-0.9326 -1.1061,-0.9326 -0.60835,0 -2.81061,-1.35 -4.8939,-3 -2.08329,-1.65 -4.0317,-3 -4.32979,-3 -0.29808,0 -3.38333,-2.0054 -6.85609,-4.4564 -3.47277,-2.451 -9.35162,-6.5356 -13.06412,-9.0768 -3.7125,-2.5412 -6.75,-5.0358 -6.75,-5.5436 C 645,1332.4154 644.512,1332 643.91555,1332 642.50154,1332 631,1322.9634 631,1321.8525 c 0,-0.4689 -0.57566,-0.8525 -1.27924,-0.8525 -0.70358,0 -1.92792,-0.9 -2.72076,-2 -0.79284,-1.1 -1.91784,-2 -2.5,-2 -0.58216,0 -1.70716,-0.9 -2.5,-2 -0.79284,-1.1 -1.774,-2 -2.18036,-2 -0.40636,0 -2.5752,-1.8 -4.81964,-4 -2.24444,-2.2 -4.32291,-4 -4.61882,-4 -0.29591,0 -2.32012,-1.8 -4.49824,-4 -2.17812,-2.2 -4.13231,-4 -4.34264,-4 -0.21032,0 -2.40741,-2.025 -4.88241,-4.5 -2.475,-2.475 -4.9552,-4.5 -5.51155,-4.5 -0.55636,0 -1.29721,-0.9 -1.64634,-2 -0.34913,-1.1 -1.20341,-2 -1.89841,-2 -0.695,0 -1.86571,-1.125 -2.60159,-2.5 -0.73588,-1.375 -1.69692,-2.5 -2.13565,-2.5 -1.13581,0 -7.86435,-6.8731 -7.86435,-8.0333 0,-0.5317 -0.59896,-0.9667 -1.33102,-0.9667 -0.73206,0 -1.9331,-1.125 -2.66898,-2.5 -0.73588,-1.375 -1.89942,-2.5 -2.58565,-2.5 -0.68622,0 -1.39768,-0.4414 -1.58102,-0.9809 -0.3733,-1.0985 -7.99184,-9.7712 -14.83333,-16.8859 -2.475,-2.5738 -5.625,-6.2337 -7,-8.1332 -1.375,-1.8995 -4.525,-5.5463 -7,-8.1041 -6.74357,-6.9691 -10,-10.9669 -10,-12.2765 0,-0.6462 -0.7875,-1.8865 -1.75,-2.7562 -1.75213,-1.5831 -4.56497,-4.8628 -9.25,-10.7851 -1.375,-1.7381 -3.7375,-4.5921 -5.25,-6.342 -1.5125,-1.75 -2.75,-3.5315 -2.75,-3.959 0,-0.4274 -0.7875,-1.6095 -1.75,-2.6268 -3.13837,-3.3172 -5.12197,-6.002 -6.72576,-9.1034 -0.86658,-1.6758 -2.01404,-3.0469 -2.54992,-3.0469 -0.53588,0 -0.97432,-0.6093 -0.97432,-1.354 0,-0.7447 -1.0125,-2.4562 -2.25,-3.8035 -1.2375,-1.3472 -2.88854,-3.6629 -3.66898,-5.146 -0.78044,-1.4831 -1.79658,-2.6965 -2.2581,-2.6965 -0.46151,0 -1.55933,-1.8 -2.4396,-4 -0.88026,-2.2 -1.95034,-4 -2.37796,-4 -0.42761,0 -1.52486,-1.575 -2.43834,-3.5 -0.91347,-1.925 -2.08974,-3.5 -2.61394,-3.5 -0.52419,0 -0.95308,-0.5901 -0.95308,-1.3114 0,-0.7213 -0.92738,-2.3069 -2.06084,-3.5235 -1.13347,-1.2167 -2.73367,-3.8224 -3.55601,-5.7905 -0.82235,-1.9682 -2.36997,-4.5175 -3.43916,-5.6651 -1.06919,-1.1476 -1.94399,-2.6079 -1.94399,-3.2451 0,-0.6371 -0.91225,-2.2102 -2.02723,-3.4958 -1.11498,-1.2856 -2.28876,-3.3794 -2.60841,-4.653 -0.31965,-1.2736 -1.0058,-2.3156 -1.52479,-2.3156 -0.51898,0 -1.41422,-1.35 -1.98941,-3 -0.5752,-1.65 -1.47835,-3 -2.007,-3 -0.52866,0 -0.68308,-0.45 -0.34316,-1 0.33992,-0.55 0.24763,-1 -0.20508,-1 -0.45272,0 -1.60294,-1.8 -2.55605,-4 -0.95311,-2.2 -2.11224,-4 -2.57584,-4 -0.4636,0 -1.42922,-1.7765 -2.14581,-3.9478 -0.7166,-2.1713 -1.8568,-4.1604 -2.53379,-4.4202 -0.67699,-0.2598 -1.53081,-2.071 -1.89737,-4.025 -0.36657,-1.9539 -1.23732,-3.9024 -1.935,-4.3298 -0.69768,-0.4275 -1.87405,-2.3522 -2.61416,-4.2772 -0.7401,-1.925 -1.96803,-4.0119 -2.72873,-4.6376 -0.7607,-0.6257 -1.2877,-1.5257 -1.17111,-2 0.22791,-0.9273 -2.20645,-6.5368 -3.19504,-7.3624 -1.03539,-0.8647 -3.94202,-7.2454 -3.94202,-8.6536 0,-0.7405 -0.45,-1.3464 -1,-1.3464 -0.55,0 -1,-0.8734 -1,-1.941 0,-1.0675 -0.45,-2.2191 -1,-2.559 -0.55,-0.3399 -1,-1.4593 -1,-2.4876 0,-1.0282 -0.61117,-2.4807 -1.35815,-3.2277 -0.74698,-0.747 -1.98448,-3.1416 -2.75,-5.3214 -0.76552,-2.1798 -1.86268,-4.4663 -2.43813,-5.081 -0.57545,-0.6147 -1.68684,-3.0897 -2.46974,-5.5 -0.7829,-2.4103 -1.95852,-4.9359 -2.61247,-5.6125 -0.65396,-0.6766 -1.49993,-3.0704 -1.87993,-5.3196 -0.37999,-2.2492 -1.32106,-4.3313 -2.09124,-4.6268 -0.77019,-0.2956 -1.40034,-1.2448 -1.40034,-2.1094 0,-2.3251 -2.31383,-8.5172 -3.75,-10.0354 -0.6875,-0.7268 -1.25,-2.0449 -1.25,-2.929 0,-2.152 -2.28173,-8.59794 -3.30917,-9.34848 -0.45091,-0.32939 -1.50254,-3.59189 -2.33696,-7.25 C 396.51945,983.993 395.47455,981 395.03187,981 c -0.44268,0 -1.05368,-1.2375 -1.35777,-2.75 -1.2286,-6.11077 -2.00822,-8.77453 -2.70726,-9.25 C 390.08974,968.40342 387,956.65713 387,953.91923 387,952.86365 386.59488,952 386.09974,952 c -0.86447,0 -2.30474,-5.3235 -3.58478,-13.25 -0.33307,-2.0625 -0.94237,-3.75 -1.354,-3.75 -0.70314,0 -2.3189,-6.73301 -3.6663,-15.27779 -0.32764,-2.07778 -1.01998,-3.51558 -1.53853,-3.1951 -0.51855,0.32048 -0.91133,-0.45451 -0.87286,-1.72221 0.11073,-3.64818 -2.41637,-16.24045 -3.39688,-16.92634 -0.48861,-0.34179 -1.46258,-5.90602 -2.16438,-12.36496 -0.7018,-6.45894 -1.71839,-12.02929 -2.25909,-12.37856 -0.5407,-0.34927 -1.23751,-3.78504 -1.54846,-7.63504 -1.26253,-15.6316 -3.07508,-30.0316 -3.84445,-30.54262 -1.14991,-0.76377 -2.84414,-88.86238 -2.8582,-148.62405 -0.008,-32.45807 -0.3639,-50.28433 -1.00924,-50.5 C 357.34958,635.61511 356.63705,573.51414 355.9392,456 355.28815,346.36687 354.50869,276.37026 353.93663,276.16667 352.67369,275.7172 352.73395,267 354,267 c 0.5641,0 1,-2.83333 1,-6.5 0,-3.575 -0.3375,-6.4994 -0.75,-6.49867 -0.96859,0.002 0.16906,-52.78022 1.20167,-55.75223 C 356.69651,194.66624 371.34501,185.62172 394,174.44794 411.41888,165.85669 432.54733,156 433.54437,156 c 0.29647,0 3.4265,-1.35 6.95563,-3 3.52913,-1.65 6.78653,-3 7.23866,-3 0.45213,0 4.574,-1.58237 9.15971,-3.51638 4.58571,-1.93401 11.54705,-4.60002 15.46964,-5.92448 3.9226,-1.32446 10.95699,-3.75243 15.63199,-5.39551 4.675,-1.64307 13.225,-4.4095 19,-6.14763 5.775,-1.73812 13.875,-4.20063 18,-5.47224 4.125,-1.27162 9.525,-2.64142 12,-3.04402 2.475,-0.4026 5.28862,-1.14617 6.25248,-1.65238 2.2724,-1.19344 20.36197,-5.43692 33.74752,-7.91655 5.775,-1.0698 11.4,-2.32525 12.5,-2.78989 1.1,-0.46464 7.4,-1.6353 14,-2.60146 6.6,-0.96616 12.9,-2.11941 14,-2.56278 1.1,-0.44337 6.05,-1.31448 11,-1.93581 4.95,-0.62132 11.925,-1.566223 15.5,-2.099779 3.575,-0.533555 15.5,-1.860001 26.5,-2.947657 11,-1.087656 23.15,-2.41556 27,-2.950898 17.00197,-2.364102 54.83457,-3.309359 105,-2.62345 28.05,0.383526 54.6,1.07561 59,1.537965 4.4,0.462355 16.325,1.5709 26.5,2.463434 10.175,0.892534 21.65,2.075348 25.5,2.628476 3.85,0.553128 13.75,1.877565 22,2.943194 8.25,1.065625 17.25,2.402645 20,2.971155 2.75,0.56851 10.175,1.92896 16.5,3.02324 25.85134,4.47248 47.8807,9.134 66,13.96593 6.325,1.68671 15.775,4.18922 21,5.56113 5.225,1.37191 10.4,2.91028 11.5,3.41861 1.1,0.50832 4.475,1.46545 7.5,2.12696 3.025,0.6615 5.95,1.54685 6.5,1.96743 0.55,0.42058 4.375,1.73286 8.5,2.91617 4.125,1.18332 8.4,2.55761 9.5,3.05399 1.1,0.49637 4.25,1.61041 7,2.47563 2.75,0.86523 5.9,1.96902 7,2.45288 1.1,0.48386 4.7,1.89378 8,3.13316 3.3,1.23937 6.4275,2.63324 6.95,3.09748 0.5225,0.46425 1.6039,0.84408 2.4032,0.84408 0.7992,0 4.3104,1.35 7.8026,3 3.4923,1.65 6.6012,3 6.9088,3 1.7211,0 31.9047,14.71387 35.619,17.36353 1.8185,1.29725 3.0587,3.47818 3.8473,6.76523 0.8829,3.68021 0.9031,37.61303 0.084,140.61104 -0.5939,74.66811 -1.3675,179.7477 -1.7191,233.5102 -0.3596,54.97608 -1.0236,97.75 -1.5175,97.75 -0.4949,0 -0.8717,26.94848 -0.8633,61.75 0.016,65.06562 -1.5963,127.27761 -3.3274,128.40796 -0.5542,0.36188 -1.1633,3.28688 -1.3536,6.5 -0.7257,12.25747 -2.7091,28.86549 -3.5118,29.40583 -0.4607,0.31008 -1.2944,5.48508 -1.8529,11.5 -1.2595,13.56702 -1.9431,17.43621 -3.0805,17.43621 -0.4888,0 -0.8887,1.43541 -0.8887,3.1898 0,4.07927 -2.2078,15.14738 -3.1584,15.83312 -0.3986,0.2876 -1.245,3.4376 -1.8807,7 -0.6358,3.56239 -1.3992,7.82708 -1.6966,9.47708 -0.2973,1.65 -0.88,3.225 -1.2949,3.5 -0.4148,0.275 -1.468,4.29247 -2.3404,8.92771 -0.8723,4.63524 -1.9835,8.68524 -2.4694,9 -0.4858,0.31476 -1.1414,1.92229 -1.4568,3.57229 -1.6333,8.5449 -2.8006,12.94534 -3.5664,13.44481 -0.4681,0.30535 -1.4631,3.03019 -2.211,6.05519 -0.748,3.025 -1.6948,5.74085 -2.1042,6.03523 -0.4093,0.29437 -1.4133,3.40347 -2.2311,6.90907 -0.8178,3.5057 -1.8774,6.6398 -2.3545,6.9648 -0.4772,0.325 -1.6142,3.2575 -2.5268,6.5166 -0.9126,3.2591 -2.0268,6.1841 -2.476,6.5 -0.4492,0.3159 -1.4592,2.5993 -2.2445,5.0743 -0.7853,2.475 -1.9628,5.0536 -2.6168,5.7302 -0.654,0.6766 -1.4961,3.048 -1.8715,5.2698 -0.3754,2.2218 -1.2175,4.5932 -1.8715,5.2698 -0.654,0.6766 -1.8296,3.2022 -2.6125,5.6125 -0.7829,2.4103 -2.0068,4.9656 -2.7197,5.6786 -0.713,0.7129 -1.2963,1.9768 -1.2963,2.8087 0,0.8318 -0.45,1.7905 -1,2.1304 -0.55,0.3399 -1,1.2986 -1,2.1304 0,0.8319 -0.5833,2.0958 -1.2963,2.8087 -0.7129,0.713 -1.9316,3.2683 -2.708,5.6786 -0.7765,2.4103 -1.6867,4.6073 -2.0226,4.8823 -0.336,0.275 -1.4082,2.5237 -2.3827,4.9971 -0.9746,2.4734 -2.0686,4.7234 -2.4312,5 -1.1578,0.8833 -3.1592,4.9265 -3.1592,6.3823 0,0.7737 -0.5641,1.6231 -1.2536,1.8877 -0.6894,0.2645 -1.8837,2.2252 -2.6539,4.357 -0.7701,2.1317 -1.9564,4.3259 -2.6361,4.8759 -0.6796,0.55 -1.7703,2.6875 -2.4236,4.75 -0.6534,2.0625 -1.519,3.75 -1.9237,3.75 -0.4047,0 -1.3538,1.575 -2.1091,3.5 -0.7553,1.925 -1.7429,3.5 -2.1947,3.5 -0.4518,0 -1.5417,1.8 -2.422,4 -0.8802,2.2 -1.9527,4 -2.3833,4 -0.4306,0 -1.5031,1.8 -2.3833,4 -0.8803,2.2 -1.9637,4 -2.4077,4 -0.444,0 -1.3768,1.575 -2.0728,3.5 -0.6961,1.925 -1.6654,3.5 -2.154,3.5 -0.4886,0 -1.6727,1.6875 -2.6313,3.75 -0.9587,2.0625 -2.3298,4.1099 -3.0469,4.5497 -0.7172,0.4398 -1.304,1.4523 -1.304,2.25 0,0.7977 -0.7875,2.2515 -1.75,3.2307 -0.9625,0.9792 -2.425,3.0926 -3.25,4.6965 -0.825,1.6038 -2.5125,4.0184 -3.75,5.3656 -1.2375,1.3473 -2.25,2.8107 -2.25,3.252 0,0.4414 -1.1089,1.999 -2.4642,3.4614 -1.3553,1.4624 -2.3678,2.9568 -2.25,3.3208 0.1178,0.3641 -0.7983,1.7506 -2.0358,3.0812 -1.2375,1.3306 -2.25,2.7844 -2.25,3.2307 0,0.4463 -0.7875,1.6658 -1.75,2.71 -4.978,5.4009 -6.0231,6.7868 -6.6747,8.8514 -0.3905,1.2375 -1.3548,2.25 -2.1427,2.25 -0.7879,0 -1.4326,0.594 -1.4326,1.3199 0,0.7259 -1.2375,2.7213 -2.75,4.4341 -3.0308,3.4323 -6.4299,7.5324 -10.25,12.3639 -1.375,1.7391 -3.4,4.1832 -4.5,5.4314 -1.1,1.2481 -3.125,3.6787 -4.5,5.4011 -1.375,1.7225 -3.7375,4.5636 -5.25,6.3135 -1.5125,1.75 -2.75,3.5315 -2.75,3.959 0,0.4274 -0.675,0.7771 -1.5,0.7771 -0.825,0 -1.5,0.358 -1.5,0.7955 0,0.9937 -8.22157,10.2127 -17.75,19.9034 -3.9875,4.0554 -7.25,7.8071 -7.25,8.3373 0,0.5301 -0.41869,0.9638 -0.93043,0.9638 -0.51173,0 -5.18253,4.1625 -10.37955,9.25 -10.94128,10.7107 -22.74506,21.75 -23.25623,21.75 -0.19414,0 -2.18935,1.8 -4.43379,4 -2.24444,2.2 -4.30661,4 -4.58261,4 -0.6446,0 -2.85113,1.7899 -6.47213,5.25 -1.58282,1.5125 -3.18091,2.75 -3.55131,2.75 -0.37041,0 -1.17307,0.6326 -1.78371,1.4058 -1.78876,2.2651 -21.08674,17.2721 -24.44143,19.0069 -1.68817,0.873 -3.42927,2.1498 -3.86911,2.8373 -0.79375,1.2407 -2.1509,2.2189 -7.67026,5.5286 -1.57881,0.9468 -5.17881,3.5279 -8,5.7358 -2.82119,2.2079 -6.47944,4.6822 -8.12944,5.4984 -1.65,0.8162 -3.225,1.7097 -3.5,1.9856 -1.49689,1.5017 -7.06666,5.0016 -7.95951,5.0016 -0.57227,0 -1.04049,0.4197 -1.04049,0.9326 0,0.5129 -0.94224,1.2317 -2.09386,1.5972 -1.15162,0.3655 -3.96412,1.9139 -6.25,3.4409 -2.28588,1.527 -6.96693,4.2958 -10.40235,6.1528 -3.43541,1.8571 -8.38541,4.5896 -11,6.0722 -2.61458,1.4827 -6.32879,3.4706 -8.25379,4.4177 -1.925,0.947 -4.175,2.2473 -5,2.8896 -0.825,0.6422 -3.075,1.7671 -5,2.4999 -1.925,0.7328 -4.09765,1.7912 -4.82812,2.352 -0.73047,0.5608 -5.68047,2.7703 -11,4.91 -12.36976,4.9756 -23.82294,5.868 -34.17188,2.6627 z m 26,-27.1325 c 16.23196,-6.4055 59.71428,-31.4085 80.9068,-46.5226 4.17626,-2.9784 10.25227,-7.2957 13.50224,-9.5939 3.24997,-2.2982 11.51108,-8.6786 18.35801,-14.1786 6.84694,-5.5 14.53787,-11.6256 17.09096,-13.6123 23.78219,-18.5071 78.6163,-76.0635 99.14199,-104.0641 1.925,-2.626 6.6851,-8.9481 10.5779,-14.0491 18.1853,-23.829 43.9665,-65.8056 59.1299,-96.2745 8.0653,-16.2062 24.0755,-52.3114 28.1579,-63.5 1.1038,-3.025 3.0857,-8.425 4.4042,-12 6.0204,-16.32296 19.2908,-61.24059 20.8564,-70.59446 0.469,-2.80195 1.5324,-7.02103 2.3632,-9.37573 0.8308,-2.35469 1.5105,-5.61221 1.5105,-7.23892 0,-1.62672 0.9043,-6.49928 2.0095,-10.82792 1.1052,-4.32864 2.4295,-11.60362 2.9429,-16.16661 0.5135,-4.563 1.619,-11.97937 2.4568,-16.48082 0.8378,-4.50146 2.445,-18.90146 3.5716,-32 2.3469,-27.28707 2.6598,-43.37816 4.0798,-209.81554 0.5396,-63.25 1.6348,-173.05 2.4338,-244 0.799,-70.95 1.4646,-141.86961 1.4791,-157.59913 l 0.026,-28.59912 -10.0667,-4.73509 c -12.8911,-6.06362 -30.9592,-13.71524 -41.9333,-17.75829 -16.0787,-5.92364 -22.0561,-8.04855 -27.5,-9.77595 -43.354,-13.75667 -74.84,-21.52851 -117.5,-29.00311 -25.61327,-4.48779 -29.94441,-5.18842 -40.5,-6.55149 -6.05,-0.78125 -14.375,-1.87721 -18.5,-2.43547 -4.125,-0.55826 -15.6,-1.74217 -25.5,-2.63091 -9.9,-0.88873 -21.6,-1.98626 -26,-2.43894 -4.4,-0.45269 -28.475,-1.14574 -53.5,-1.54013 -44.82515,-0.70644 -82.41479,0.25836 -100,2.56665 -4.125,0.54147 -16.5,1.89475 -27.5,3.00731 -21.30906,2.15523 -47.50133,5.54193 -50.69166,6.5545 -1.06195,0.33705 -6.96576,1.45254 -13.11958,2.47886 -24.64235,4.10979 -59.95296,12.29868 -83.18876,19.29231 -4.4,1.32433 -11.825,3.55243 -16.5,4.95133 -18.15224,5.4317 -44.27301,15.17647 -69.5,25.9281 -15.66636,6.67694 -51.43709,24.22231 -58.78943,28.83594 l -4.78943,3.00539 0.38255,67.72362 c 0.21041,37.24799 0.91287,102.14862 1.56103,144.22362 0.64815,42.075 1.64177,131.85 2.20804,199.5 1.49086,178.1086 2.1875,198.76161 7.95987,235.98167 3.28381,21.17389 10.10179,53.82326 13.07994,62.63607 1.04413,3.08976 2.32475,7.58976 2.84583,10 0.52107,2.41024 1.83521,7.08226 2.9203,10.38226 1.08508,3.3 2.95572,9.375 4.15696,13.5 1.20125,4.125 2.99453,9.75 3.98508,12.5 0.99055,2.75 3.00497,8.375 4.47649,12.5 7.66221,21.4789 13.52887,36.0799 18.4828,46 0.96131,1.925 4.16048,8.9 7.10928,15.5 20.85534,46.6784 57.92028,107.6202 88.73665,145.8998 4.02928,5.0051 9.17792,11.5752 11.44142,14.6002 3.98578,5.3267 6.54162,8.2903 26.6538,30.9061 23.28961,26.1887 57.02095,57.4029 82.98379,76.7912 4.17727,3.1195 9.17003,6.8645 11.09503,8.3223 18.18433,13.7709 54.35584,35.6021 67,40.4376 1.925,0.7361 5.975,2.3551 9,3.5976 10.72923,4.4072 30.39108,9.8427 33.5,9.2612 1.65,-0.3087 6.375,-1.8931 10.5,-3.5209 z m -19,-8.4078 c -2.475,-0.8002 -8.775,-2.8407 -14,-4.5345 C 710.82076,1341.207 637.96022,1287.6137 587.75565,1232.099 566.47334,1208.5656 561.04927,1202.3198 555,1194.3808 c -3.025,-3.97 -8.2,-10.5622 -11.5,-14.6493 C 517.48486,1147.5114 482.10723,1090.3517 462.58692,1049 451.89591,1026.3522 443.33101,1007.1785 440.41358,999.36186 439.00499,995.58784 436.50159,988.9 434.85047,984.5 c -1.65111,-4.4 -5.17749,-14.75 -7.83638,-23 -2.6589,-8.25 -5.796,-17.925 -6.97132,-21.5 -1.17533,-3.575 -2.5633,-8.47202 -3.08437,-10.88226 -0.52108,-2.41024 -1.8017,-6.91024 -2.84583,-10 -5.37151,-15.89515 -13.9562,-63.24211 -16.52433,-91.13632 -2.52673,-27.44448 -2.62023,-30.97776 -3.63808,-137.48142 -0.55192,-57.75 -1.74575,-159.9 -2.65295,-227 -0.9072,-67.1 -1.80517,-149.7727 -1.99549,-183.71711 l -0.34604,-61.71712 5.27216,-3.03726 C 421.29006,199.4381 480.11081,174.72322 515,164.28333 c 4.675,-1.3989 12.1,-3.627 16.5,-4.95133 22.70313,-6.8333 59.42981,-15.35401 83.18876,-19.30005 6.15382,-1.02206 12.05763,-2.13407 13.11958,-2.47112 3.19033,-1.01257 29.3826,-4.39927 50.69166,-6.5545 11,-1.11256 23.375,-2.46584 27.5,-3.00731 17.15766,-2.25217 55.13432,-3.27475 96.5,-2.5984 23.1,0.37769 45.825,1.07462 50.5,1.54873 4.675,0.47411 16.6,1.5856 26.5,2.47 9.9,0.88439 21.375,2.06474 25.5,2.623 4.125,0.55826 12.45,1.65422 18.5,2.43547 10.55559,1.36307 14.88673,2.0637 40.5,6.55149 65.8151,11.53169 120.6569,27.53521 174.4476,50.90602 7.6712,3.33296 14.3774,6.48967 14.9027,7.01493 0.9445,0.94456 -0.1894,149.00968 -2.4089,314.54974 -0.5605,41.8 -1.4278,124.825 -1.9274,184.5 -0.8132,97.12627 -1.127,110.94346 -2.9939,131.80946 -1.147,12.82021 -2.7715,26.99521 -3.6098,31.5 -0.8384,4.5048 -1.9444,11.9239 -2.4579,16.4869 -0.5134,4.56299 -1.8377,11.83797 -2.9429,16.16661 -1.1052,4.32864 -2.0095,9.2012 -2.0095,10.82792 0,1.62671 -0.6797,4.88423 -1.5105,7.23892 -0.8308,2.3547 -1.8942,6.57378 -2.3632,9.37573 -2.3628,14.11655 -18.6511,66.06325 -28.0148,89.34446 -1.1613,2.8875 -2.9564,7.3875 -3.9891,10 -4.0955,10.361 -17.6168,39.4574 -24.0487,51.75 -14.9971,28.6627 -38.522,66.3364 -54.4974,87.2745 -3.892,5.101 -8.6513,11.4264 -10.5763,14.0565 -19.13579,26.1449 -71.38385,81.2261 -96,101.2055 -19.1044,15.5059 -32.16925,25.8081 -37.59096,29.6421 -3.24997,2.2982 -9.28404,6.5772 -13.40904,9.5089 -15.42693,10.9641 -26.32203,17.5601 -60.04421,36.3513 -10.18597,5.676 -23.89276,11.5123 -26.73182,11.3823 -0.94818,-0.043 -3.74897,-0.7337 -6.22397,-1.5338 z M 776.94543,956.5 c 2.9856,-56.67181 7.71629,-95.62791 15.54385,-128 10.09539,-41.75103 24.61456,-70.62381 46.51521,-92.5 42.30278,-42.25554 109.12705,-59.18306 252.33211,-63.91926 15.3101,-0.50635 28.0976,-1.18166 28.4167,-1.50069 0.319,-0.31903 -1.6325,-0.58024 -4.3366,-0.58048 -10.7865,-9.5e-4 -58.234,-2.10079 -79.9167,-3.5368 C 865.292,655.19013 808.34178,613.32861 786.5896,483.5 c -6.49634,-38.77361 -11.16563,-104.58152 -11.77825,-166 -0.22119,-22.17474 -0.42139,-19.06853 -1.80468,28 -4.16933,141.86754 -18.96705,207.89208 -56.59144,252.5 -28.70589,34.03404 -76.36478,54.09289 -150.82589,63.48016 -31.08715,3.91914 -57.80477,5.78239 -117.08934,8.16563 -19.70465,0.79212 -18.49307,2.14226 2.04608,2.28009 26.90395,0.18053 81.2151,3.71358 109.45392,7.12018 128.09666,15.45302 178.39807,57.3447 199.86943,166.45394 7.52788,38.25382 11.62402,88.2697 13.84055,169 l 0.76877,28 0.68017,-32.5 c 0.3741,-17.875 1.17803,-41.95 1.78651,-53.5 z M 773.55458,799.89313 C 773.2837,799.12691 771.47324,794 769.53132,788.5 764.60864,774.55769 753.2245,752.2866 745.25112,741 736.67371,728.85836 716.23557,708.40279 704,699.71368 c -11.15648,-7.9228 -35.51427,-20.25721 -49,-24.81287 -5.225,-1.76507 -9.8775,-3.53983 -10.33889,-3.9439 -0.46139,-0.40408 2.23861,-1.75423 6,-3.00033 41.65353,-13.79931 74.66504,-38.14739 96.882,-71.45658 8.22605,-12.33306 17.75541,-31.46781 22.41059,-45 1.70284,-4.95 3.33637,-9.66837 3.63008,-10.48526 0.2937,-0.81689 2.91244,4.80811 5.81942,12.5 2.90698,7.69189 7.20297,17.78223 9.54665,22.42298 21.85092,43.26726 56.46414,73.35162 103.55015,90.00144 4.95,1.75034 9.84152,3.51201 10.87004,3.91482 1.37472,0.53839 -1.27401,1.87771 -10,5.05646 -32.2445,11.74622 -58.79325,29.12591 -78.043,51.08956 -15.31617,17.47549 -28.87874,41.05181 -36.79033,63.95398 -3.92996,11.37632 -4.24903,12.01285 -4.98213,9.93915 z m 8.52641,-64.78656 c 15.12389,-23.32287 39.17661,-46.66487 62.14884,-60.31242 l 6.96452,-4.13754 -5.22851,-3.07831 c -11.7282,-6.90501 -23.03903,-15.72875 -35.06999,-27.35859 -14.02276,-13.55523 -22.50393,-23.75179 -31.0502,-37.33036 l -5.65436,-8.9838 -5.02607,8.29723 c -14.38366,23.74504 -40.18988,49.38762 -64.26427,63.85675 -4.5211,2.71726 -7.76016,4.94047 -7.19792,4.94047 0.56224,0 6.37156,3.55605 12.90961,7.90234 24.39576,16.21753 45.61336,38.68445 61.9163,65.56201 1.66825,2.75034 1.8765,2.83023 2.88456,1.10657 0.59758,-1.02179 3.59795,-5.73074 6.66749,-10.46435 z M 932,565.16391 c 10.9613,-4.2842 20.75512,-14.05289 25.22867,-25.16391 3.19222,-7.92856 3.19222,-25.07144 0,-33 C 952.7727,495.93264 943.06736,486.2273 932,481.77133 c -4.51629,-1.81836 -7.46743,-2.21443 -16.5,-2.21443 -12.66882,0 -18.51147,1.77815 -26.9761,8.20987 -10.83026,8.22921 -16.51265,19.18703 -17.2847,33.33151 -1.14832,21.0376 10.67837,38.47974 30.52275,45.01533 7.80711,2.57121 22.40253,2.1128 30.23805,-0.9497 z M 516.56429,1226.2931 c -0.54268,-1.4252 -0.42782,-1.54 0.5598,-0.5598 0.68342,0.6784 0.99067,1.4853 0.68278,1.7932 -0.30789,0.3078 -0.86705,-0.2472 -1.24258,-1.2334 z m -47,-64 c -0.54268,-1.4252 -0.42782,-1.54 0.5598,-0.5598 0.68342,0.6784 0.99067,1.4853 0.68278,1.7932 -0.30789,0.3078 -0.86705,-0.2472 -1.24258,-1.2334 z M 1086,1151.059 c 0,-0.5175 0.4448,-1.2159 0.9885,-1.5519 0.5669,-0.3504 0.7346,0.051 0.3931,0.941 -0.6648,1.7324 -1.3816,2.0493 -1.3816,0.6109 z m -630.54112,-11.1255 c -0.36253,-0.5866 -0.44468,-1.281 -0.18255,-1.5432 0.26212,-0.2621 0.74306,0.2179 1.06875,1.0666 0.67618,1.7621 0.0999,2.072 -0.8862,0.4766 z M 1100,1128.059 c 0,-0.5175 0.4448,-1.2159 0.9885,-1.5519 0.5669,-0.3504 0.7346,0.051 0.3931,0.941 -0.6648,1.7324 -1.3816,2.0493 -1.3816,0.6109 z m 14,-25 c 0,-0.5175 0.4448,-1.2159 0.9885,-1.5519 0.5669,-0.3504 0.7346,0.051 0.3931,0.941 -0.6648,1.7324 -1.3816,2.0493 -1.3816,0.6109 z m 5.5643,-10.3521 c 0.3755,-0.9862 0.9347,-1.5412 1.2426,-1.2334 0.3079,0.3079 6e-4,1.1148 -0.6828,1.7932 -0.9876,0.9802 -1.1025,0.8654 -0.5598,-0.5598 z m -692.00001,-2.4138 c -0.54268,-1.4252 -0.42782,-1.54 0.5598,-0.5598 0.68342,0.6784 0.99067,1.4853 0.68278,1.7932 -0.30789,0.3078 -0.86705,-0.2472 -1.24258,-1.2334 z m -4.94075,-9.8318 c -0.96498,-2.5147 -0.68031,-3.1635 0.49853,-1.1363 0.58369,1.0038 0.8506,2.0357 0.59313,2.2931 -0.25747,0.2575 -0.74872,-0.2631 -1.09166,-1.1568 z M 1128.0306,1075.5 c 0,-0.55 0.4362,-1.675 0.9694,-2.5 0.5332,-0.825 0.9694,-1.05 0.9694,-0.5 0,0.55 -0.4362,1.675 -0.9694,2.5 -0.5332,0.825 -0.9694,1.05 -0.9694,0.5 z m 5,-11 c 0,-0.55 0.4362,-1.675 0.9694,-2.5 0.5332,-0.825 0.9694,-1.05 0.9694,-0.5 0,0.55 -0.4362,1.675 -0.9694,2.5 -0.5332,0.825 -0.9694,1.05 -0.9694,0.5 z m -719.40706,-3.0387 c -0.96498,-2.5147 -0.68031,-3.1635 0.49853,-1.1363 0.58369,1.0038 0.8506,2.0357 0.59313,2.2931 -0.25747,0.2575 -0.74872,-0.2631 -1.09166,-1.1568 z m -5,-11 c -0.96498,-2.5147 -0.68031,-3.1635 0.49853,-1.1363 0.58369,1.0038 0.8506,2.0357 0.59313,2.2931 -0.25747,0.2575 -0.74872,-0.2631 -1.09166,-1.1568 z M 1142.0856,1044 c -0.03,-0.825 0.3812,-2.175 0.9144,-3 1.1813,-1.828 1.1813,-0.2491 0,2.5 -0.5667,1.3187 -0.8782,1.4891 -0.9144,0.5 z m -742.35439,-13.9198 c -0.43497,-1.6634 -0.30483,-2.0538 0.43724,-1.3118 0.5811,0.5812 0.85979,1.6469 0.61931,2.3683 -0.24965,0.749 -0.70294,0.2957 -1.05655,-1.0565 z m 747.29939,1.4198 c 0,-0.55 0.4362,-1.675 0.9694,-2.5 0.5332,-0.825 0.9694,-1.05 0.9694,-0.5 0,0.55 -0.4362,1.675 -0.9694,2.5 -0.5332,0.825 -0.9694,1.05 -0.9694,0.5 z m 5.0483,-13.0833 c 0.048,-1.165 0.285,-1.4019 0.6042,-0.6042 0.2889,0.7219 0.2534,1.5844 -0.079,1.9167 -0.3323,0.3323 -0.5687,-0.2584 -0.5253,-1.3125 z m -757.45536,-0.9554 c -0.96498,-2.5147 -0.68031,-3.1635 0.49853,-1.1363 0.58369,1.0038 0.8506,2.0357 0.59313,2.2931 -0.25747,0.2575 -0.74872,-0.2631 -1.09166,-1.1568 z M 1156.0306,1007.5 c 0,-0.55 0.4362,-1.675 0.9694,-2.5 0.5332,-0.825 0.9694,-1.05 0.9694,-0.5 0,0.55 -0.4362,1.675 -0.9694,2.5 -0.5332,0.825 -0.9694,1.05 -0.9694,0.5 z M 385.62354,993.46134 c -0.96498,-2.51469 -0.68031,-3.16355 0.49853,-1.13634 0.58369,1.00375 0.8506,2.03566 0.59313,2.29313 -0.25747,0.25747 -0.74872,-0.26309 -1.09166,-1.15679 z M 1161.0306,993.5 c 0,-0.55 0.4362,-1.675 0.9694,-2.5 0.5332,-0.825 0.9694,-1.05 0.9694,-0.5 0,0.55 -0.4362,1.675 -0.9694,2.5 -0.5332,0.825 -0.9694,1.05 -0.9694,0.5 z M 380.62354,979.46134 c -0.96498,-2.51469 -0.68031,-3.16355 0.49853,-1.13634 0.58369,1.00375 0.8506,2.03566 0.59313,2.29313 -0.25747,0.25747 -0.74872,-0.26309 -1.09166,-1.15679 z m -4.54459,-14.04467 c 0.048,-1.16495 0.28494,-1.4019 0.60416,-0.60417 0.28887,0.72187 0.25335,1.58438 -0.0789,1.91667 -0.33229,0.33229 -0.56864,-0.25834 -0.52522,-1.3125 z m 794.99995,-5 c 0.048,-1.16495 0.285,-1.4019 0.6042,-0.60417 0.2889,0.72187 0.2534,1.58438 -0.079,1.91667 -0.3323,0.33229 -0.5687,-0.25834 -0.5253,-1.3125 z m -799.99995,-12 c 0.048,-1.16495 0.28494,-1.4019 0.60416,-0.60417 0.28887,0.72187 0.25335,1.58438 -0.0789,1.91667 -0.33229,0.33229 -0.56864,-0.25834 -0.52522,-1.3125 z m 803.99995,-3 c 0.048,-1.16495 0.285,-1.4019 0.6042,-0.60417 0.2889,0.72187 0.2534,1.58438 -0.079,1.91667 -0.3323,0.33229 -0.5687,-0.25834 -0.5253,-1.3125 z m 1,-4 c 0.048,-1.16495 0.285,-1.4019 0.6042,-0.60417 0.2889,0.72187 0.2534,1.58438 -0.079,1.91667 -0.3323,0.33229 -0.5687,-0.25834 -0.5253,-1.3125 z M 366.5,932 c -0.37968,-1.72866 -0.48187,-3.35146 -0.22711,-3.60623 0.25477,-0.25477 0.75072,0.97429 1.10211,2.73123 0.83365,4.16825 0.0258,4.97614 -0.875,0.875 z m 813.6579,-8 c 0,-1.375 0.227,-1.9375 0.5044,-1.25 0.2774,0.6875 0.2774,1.8125 0,2.5 -0.2774,0.6875 -0.5044,0.125 -0.5044,-1.25 z M 362.15789,913 c 0,-1.375 0.22698,-1.9375 0.50439,-1.25 0.27741,0.6875 0.27741,1.8125 0,2.5 -0.27741,0.6875 -0.50439,0.125 -0.50439,-1.25 z m 823.03701,-13.5 c 0.02,-1.65 0.2445,-2.20394 0.4981,-1.23097 0.2535,0.97297 0.2369,2.32297 -0.037,3 -0.2739,0.67703 -0.4813,-0.11903 -0.461,-1.76903 z m -827.99995,-11 c 0.0204,-1.65 0.2445,-2.20394 0.49804,-1.23097 0.25354,0.97297 0.23687,2.32297 -0.0371,3 -0.27393,0.67703 -0.48137,-0.11903 -0.46099,-1.76903 z M 1189.1891,875 c -0.023,-1.375 0.3195,-4.525 0.7599,-7 0.6004,-3.37449 0.8176,-3.74966 0.8682,-1.5 0.037,1.65 -0.3048,4.8 -0.7598,7 -0.5179,2.5038 -0.8427,3.06488 -0.8683,1.5 z M 352.5,862 c -0.39084,-3.36749 -0.49807,-6.33527 -0.23829,-6.59505 0.25979,-0.25978 0.78487,2.29014 1.16686,5.66648 0.38199,3.37634 0.48922,6.34411 0.23829,6.59505 C 353.41592,867.91741 352.89084,865.36749 352.5,862 Z m 841.8201,-36 c 0,-3.575 0.1815,-5.0375 0.4033,-3.25 0.2218,1.7875 0.2218,4.7125 0,6.5 -0.2218,1.7875 -0.4033,0.325 -0.4033,-3.25 z m -845.98389,-7 c 0,-4.125 0.17651,-5.8125 0.39226,-3.75 0.21574,2.0625 0.21574,5.4375 0,7.5 -0.21575,2.0625 -0.39226,0.375 -0.39226,-3.75 z M 1199.4631,433.5 c 2e-4,-26.95 0.129,-37.83127 0.2862,-24.1806 0.1573,13.65067 0.1571,35.70067 -3e-4,49 -0.1574,13.29933 -0.2861,2.1306 -0.2859,-24.8194 z m -856.00071,-12 c 1.9e-4,-26.4 0.12931,-37.05639 0.28692,-23.68087 0.15761,13.37553 0.15745,34.97553 -3.6e-4,48 -0.1578,13.02448 -0.28676,2.08087 -0.28656,-24.31913 z"
         id="path18" />
      <path
         style="fill:#020202"
         d="m 763,1411.0451 c -3.575,-1.0456 -9.03396,-2.6085 -12.13101,-3.4732 -13.76214,-3.8423 -38.83729,-14.136 -48.86899,-20.0613 -1.925,-1.137 -5.1875,-2.9444 -7.25,-4.0164 -2.0625,-1.0719 -3.75,-2.2967 -3.75,-2.7216 0,-0.4249 -0.52661,-0.7726 -1.17024,-0.7726 -1.0281,0 -21.52951,-12.5298 -22.82976,-13.9528 -0.275,-0.301 -4.325,-3.1579 -9,-6.3487 -15.46476,-10.555 -31.9757,-22.9884 -42,-31.6274 -1.375,-1.185 -4.70186,-4.0483 -7.39302,-6.3628 -2.69116,-2.3146 -5.84116,-5.0253 -7,-6.024 -19.20795,-16.5522 -51.44989,-49.3612 -65.5318,-66.6843 -2.9061,-3.575 -6.05544,-7.175 -6.99854,-8 C 526.63175,1238.8613 518,1228.4173 518,1227.5979 c 0,-0.3776 -4.275,-5.7872 -9.5,-12.0214 -5.225,-6.2342 -9.5,-11.7842 -9.5,-12.3333 0,-0.5491 -0.73465,-1.608 -1.63256,-2.3532 -0.89791,-0.7452 -2.58541,-2.7848 -3.75,-4.5324 -1.16459,-1.7476 -5.82994,-8.4206 -10.36744,-14.8288 -4.5375,-6.4082 -8.25,-12.004 -8.25,-12.4351 0,-0.431 -0.9,-1.5982 -2,-2.5937 -1.1,-0.9955 -2,-2.2008 -2,-2.6784 0,-0.4776 -2.25,-4.1374 -5,-8.1329 -2.75,-3.9955 -5,-7.7549 -5,-8.3542 0,-0.5993 -0.701,-1.6714 -1.55778,-2.3824 -0.85677,-0.7111 -2.2309,-2.6787 -3.05362,-4.3725 -2.12083,-4.3663 -4.94782,-9.3391 -6.14971,-10.8177 -0.56417,-0.694 -1.97372,-2.9494 -3.13233,-5.0119 -1.15861,-2.0625 -3.08229,-5.4375 -4.27485,-7.5 -4.76818,-8.2465 -10.93987,-19.9721 -22.50118,-42.75 -0.55832,-1.1 -2.01946,-4.25 -3.24698,-7 -1.22752,-2.75 -3.32348,-7.3625 -4.6577,-10.25 -1.33422,-2.8875 -3.61269,-7.8375 -5.06326,-11 -1.45058,-3.1625 -3.47558,-7.4142 -4.5,-9.4481 -1.02443,-2.034 -1.86259,-4.3505 -1.86259,-5.1479 0,-0.7974 -1.11958,-3.4083 -2.48795,-5.8019 -1.36838,-2.3937 -2.49338,-5.1546 -2.5,-6.1353 -0.007,-0.9808 -1.13705,-4.0034 -2.51205,-6.7168 -1.375,-2.7134 -2.5,-5.6114 -2.5,-6.44 0,-0.8286 -0.85045,-3.431 -1.88988,-5.7832 -2.12488,-4.8086 -2.12593,-4.81162 -8.58654,-24.7768 -2.58066,-7.975 -5.55419,-16.7587 -6.60785,-19.51933 -1.05365,-2.76063 -1.91573,-5.78868 -1.91573,-6.729 0,-0.94032 -0.86081,-4.53162 -1.91291,-7.98067 -2.7323,-8.95716 -6.09622,-22.2069 -7.55843,-29.771 -0.69108,-3.575 -1.97318,-9.425 -2.84912,-13 -0.87595,-3.575 -2.05947,-9.425 -2.63005,-13 -0.57059,-3.575 -1.46369,-8.75 -1.98466,-11.5 -0.52098,-2.75 -1.69226,-10.4 -2.60285,-17 -0.91058,-6.6 -2.06271,-14.925 -2.56028,-18.5 -2.07544,-14.91206 -4.58673,-172.19422 -5.71657,-358.02872 -0.43647,-71.7908 -1.05341,-130.9658 -1.37098,-131.5 -0.31757,-0.5342 -0.88385,-33.46634 -1.25839,-73.18252 -0.62839,-66.63316 -0.5474,-72.69702 1.0484,-78.5 2.94141,-10.6961 8.03274,-16.23858 21.89584,-23.83607 12.62387,-6.91834 15.3577,-8.35722 27.5,-14.47393 15.18966,-7.65182 21.52509,-10.56812 39,-17.95237 7.425,-3.13752 14.85,-6.30137 16.5,-7.03077 3.35577,-1.48345 6.66645,-2.68907 31,-11.28899 9.35,-3.30446 22.625,-7.6687 29.5,-9.6983 6.875,-2.0296 14.075,-4.2563 16,-4.94822 1.925,-0.69191 6.425,-1.84299 10,-2.55794 3.575,-0.71495 7.28509,-1.69746 8.24465,-2.18336 5.49427,-2.78217 62.55669,-14.265884 88.75535,-17.861857 7.975,-1.094631 16.525,-2.412471 19,-2.928532 2.475,-0.516061 12.375,-1.634985 22,-2.486499 9.625,-0.851513 20.875,-1.993519 25,-2.53779 17.85223,-2.355502 55.34797,-3.270297 106,-2.586115 28.325,0.3826 55.1,1.074065 59.5,1.536589 4.4,0.462524 16.1,1.568101 26,2.456838 18.74008,1.682324 20.50761,1.894618 50,6.005392 36.06889,5.027434 72.6448,12.254345 104,20.549034 6.6,1.74596 15.15,3.98934 19,4.98529 6.9285,1.79231 9.0067,2.41443 27.5,8.23207 10.0572,3.1638 19.4662,6.45386 29.7698,10.40965 3.4484,1.32392 6.7158,2.40712 7.2609,2.40712 0.5451,0 2.8987,0.85994 5.2302,1.91097 2.3315,1.05103 11.4391,4.9444 20.2391,8.65191 16.8354,7.09293 34.9515,16.07388 39.2601,19.46308 4.4038,3.46398 7.8857,9.23043 9.6456,15.97404 1.8974,7.27066 1.9139,-5.32813 -0.2483,189.5 -0.6409,57.75 -1.6595,151.125 -2.2635,207.5 -1.8603,173.6213 -2.814,238.88613 -3.7192,254.5 -0.8639,14.90246 -3.7863,39.22698 -6.6677,55.5 -0.8278,4.675 -1.7739,10.75 -2.1024,13.5 -1.9409,16.24687 -13.9907,63.72949 -23.4739,92.5 -5.4734,16.605 -5.9835,18.0473 -8.0563,22.7768 -1.0309,2.3522 -1.8744,4.9546 -1.8744,5.7832 0,0.8286 -1.125,3.7266 -2.5,6.44 -1.375,2.7134 -2.5023,5.736 -2.5051,6.7168 0,0.9807 -1.1138,3.5832 -2.4688,5.7832 -1.355,2.2 -2.4777,4.8108 -2.4949,5.8019 -0.017,0.991 -0.8797,3.466 -1.9168,5.5 -2.5427,4.9868 -6.1746,12.6955 -11.6365,24.6981 -4.774,10.4908 -8.2313,17.4152 -15.7279,31.5 -8.1466,15.306 -9.9157,18.4801 -11.1476,20 -0.6686,0.825 -1.7494,2.625 -2.4018,4 -1.3595,2.8656 -2.8121,5.243 -5.8042,9.5 -1.1597,1.65 -2.4099,3.9532 -2.778,5.1181 -0.3682,1.165 -1.558,2.9222 -2.6439,3.905 -1.086,0.9828 -1.9745,2.1584 -1.9745,2.6125 0,0.454 -1.6875,3.37 -3.75,6.4799 -2.0625,3.1098 -4.2,6.3414 -4.75,7.1814 -3.5741,5.458 -15.1387,22.2015 -19.1775,27.7656 -5.4934,7.5681 -40.438,50.37 -44.8867,54.9794 -1.6147,1.6731 -6.754,7.2404 -11.4206,12.3719 -14.66392,16.1244 -39.05833,39.562 -55.91966,53.7263 -1.87245,1.5729 -5.02245,4.2498 -7,5.9486 -5.64148,4.8463 -27.31151,21.7947 -30.20523,23.6239 -1.43533,0.9073 -3.23533,2.2431 -4,2.9685 -0.76467,0.7254 -3.41531,2.6621 -5.89031,4.3037 -2.475,1.6417 -7.26979,5.0167 -10.65509,7.5 -3.3853,2.4834 -7.4353,5.2512 -9,6.1508 -1.5647,0.8997 -6.83187,4.2011 -11.70482,7.3366 -4.87294,3.1355 -10.72294,6.7115 -13,7.9466 -5.8771,3.1879 -14.49215,7.9442 -18.94954,10.462 -14.20867,8.0259 -18.16913,10.1123 -26.19055,13.7976 -14.17554,6.5125 -20.98661,8.4653 -31,8.8879 -6.78337,0.2862 -10.6009,-0.089 -15.5,-1.5212 z m 32.48573,-17.0054 c 10.89275,-4.3735 18.95124,-8.3151 32.51427,-15.9038 6.325,-3.5389 13.525,-7.5668 16,-8.951 2.475,-1.3841 5.85,-3.3294 7.5,-4.3228 1.65,-0.9935 4.35,-2.5601 6,-3.4814 1.65,-0.9213 6.24218,-3.8588 10.20484,-6.5279 3.96266,-2.669 7.48434,-4.8528 7.82596,-4.8528 0.34161,0 3.17443,-1.9238 6.29516,-4.2752 3.12072,-2.3514 7.69904,-5.6139 10.17404,-7.25 2.475,-1.6361 5.12564,-3.5683 5.89031,-4.2937 0.76467,-0.7254 2.56467,-2.0612 4,-2.9685 2.86383,-1.8103 25.80255,-19.8046 27.94625,-21.9224 0.73511,-0.7263 2.97026,-2.5512 4.96701,-4.0553 1.99674,-1.5042 4.35397,-3.4099 5.23828,-4.2349 0.8843,-0.825 5.39915,-4.875 10.03299,-9 16.04816,-14.2859 37.27462,-35.3446 49.39033,-49 3.17193,-3.575 6.51943,-7.175 7.43893,-8 1.707,-1.5316 28.5658,-33.9381 33.0959,-39.932 1.375,-1.8192 4.4125,-5.7224 6.75,-8.6737 2.3375,-2.9513 4.25,-5.744 4.25,-6.2059 0,-0.4619 1.125,-1.8967 2.5,-3.1884 1.375,-1.2917 2.5,-2.8754 2.5,-3.5193 0,-0.6439 0.9,-1.9852 2,-2.9807 1.1,-0.9955 2,-2.3368 2,-2.9807 0,-0.6439 1.125,-2.2276 2.5,-3.5193 1.375,-1.2917 2.5,-2.6917 2.5,-3.1111 0,-0.4194 2.025,-3.7203 4.5,-7.3354 2.475,-3.6151 4.5,-6.7312 4.5,-6.9247 0,-0.1934 2.1375,-3.6865 4.75,-7.7624 2.6125,-4.0759 5.2923,-8.3008 5.955,-9.3886 1.3006,-2.1346 6.9867,-11.7189 8.886,-14.9778 2.0696,-3.5512 9.9342,-17.8879 12.0684,-22 0.5709,-1.1 1.7818,-3.35 2.691,-5 0.9091,-1.65 3.0444,-5.925 4.745,-9.5 1.7006,-3.575 4.1677,-8.75 5.4824,-11.5 6.8072,-14.2383 12.4222,-26.6716 12.4222,-27.5065 0,-0.517 0.849,-2.8645 1.8866,-5.2167 2.1049,-4.7716 5.7331,-13.4685 9.0849,-21.7768 1.2203,-3.025 2.6096,-7.1045 3.0872,-9.0655 0.4777,-1.961 1.5571,-4.88602 2.3987,-6.5 0.8417,-1.61397 1.5331,-3.74669 1.5364,-4.73936 0,-0.99268 0.9175,-3.80519 2.0312,-6.25003 1.1138,-2.44484 2.2846,-5.90765 2.6019,-7.69514 0.3172,-1.78748 1.4348,-5.63956 2.4834,-8.56017 1.0487,-2.92061 2.3098,-6.97061 2.8026,-9 0.4928,-2.02939 2.678,-10.6648 4.856,-19.1898 7.0572,-27.62189 10.2228,-44.35292 14.9473,-79 4.3893,-32.18949 4.4727,-35.53409 7.1777,-288 0.604,-56.375 1.6226,-149.75 2.2635,-207.5 2.1159,-190.65136 2.1066,-182.12243 0.2027,-186.3006 -0.9271,-2.03467 -2.6249,-4.50708 -3.7729,-5.49424 -1.8476,-1.58883 -22.1837,-11.86511 -31.5872,-15.96178 -10.1635,-4.42776 -18.3684,-7.82748 -26,-10.77321 -4.675,-1.80451 -9.85,-3.84341 -11.5,-4.5309 -1.65,-0.68749 -5.025,-1.82135 -7.5,-2.51971 -2.475,-0.69835 -4.96,-1.61095 -5.5222,-2.028 -0.5621,-0.41705 -4.2685,-1.65787 -8.2362,-2.75739 -3.9677,-1.09952 -7.721,-2.31244 -8.3406,-2.69538 -0.6196,-0.38294 -4.1133,-1.52519 -7.7638,-2.53834 -3.6505,-1.01315 -11.5872,-3.24007 -17.6372,-4.9487 -30.9495,-8.74072 -58.0573,-14.85699 -88.5,-19.96803 -6.325,-1.06191 -13.525,-2.39057 -16,-2.95258 -2.475,-0.56201 -11.7,-1.9584 -20.5,-3.103086 -8.8,-1.144689 -18.925,-2.489087 -22.5,-2.987551 -3.575,-0.498464 -14.825,-1.623812 -25,-2.500773 -10.175,-0.876961 -23,-2.078898 -28.5,-2.67097 -13.91148,-1.497565 -132.36552,-1.523295 -148,-0.03215 -6.6,0.629479 -19.425,1.832209 -28.5,2.672734 -9.075,0.840525 -19.875,1.958415 -24,2.4842 -25.59122,3.261936 -38.93242,5.185316 -42,6.055056 -1.925,0.5458 -8.675,1.86917 -15,2.94083 -23.42445,3.96886 -61.28494,12.70202 -78.5,18.10734 -3.3,1.03616 -10.05,3.08088 -15,4.54382 -10.84766,3.20595 -25.16816,7.89497 -32,10.47788 -2.75,1.03969 -8.825,3.30176 -13.5,5.02682 -4.675,1.72506 -9.85,3.70329 -11.5,4.39606 -1.65,0.69277 -6.6,2.75646 -11,4.58597 -23.50263,9.77237 -47.56804,21.29316 -66.41179,31.7932 -14.9286,8.31846 -16.88311,9.84634 -19.25716,15.05371 -1.9459,4.26824 -1.97992,5.90378 -1.40384,67.5 0.3247,34.71917 1.03021,77.07577 1.56779,94.12577 0.53757,17.05 1.23297,82.525 1.54532,145.5 0.59684,120.33521 1.61961,204.53317 3.39512,279.5 1.0489,44.28762 1.33059,48.55101 4.45985,67.5 0.86286,5.225 1.57691,11.11552 1.58677,13.09004 0.01,1.97452 0.91794,7.109 2.01794,11.40996 1.1,4.30096 2,9.49136 2,11.53424 0,2.04287 0.69182,5.67514 1.53738,8.07171 0.84556,2.39658 2.16532,7.74065 2.9328,11.87573 1.65182,8.89983 6.74725,27.89034 12.88401,48.01832 4.54379,14.90319 5.52895,17.88391 8.76491,26.51933 1.03449,2.76063 1.8809,5.58809 1.8809,6.28324 0,0.69515 1.125,3.484 2.5,6.19743 1.375,2.71343 2.5,5.6384 2.5,6.5 0,0.8616 1.125,3.7866 2.5,6.5 1.375,2.7134 2.49875,5.511 2.49722,6.2168 -0.002,0.7057 0.8629,3.0832 1.92096,5.2832 1.05805,2.2 3.37939,7.375 5.15854,11.5 5.70663,13.231 18.50353,40.5796 22.22609,47.5 4.27716,7.9514 5.55312,10.3429 6.55641,12.2881 0.62743,1.2166 1.68153,3.2244 2.34244,4.4619 0.66092,1.2375 1.91737,3.6242 2.79211,5.3037 0.87474,1.6795 2.49343,4.3795 3.59709,6 1.10366,1.6205 2.56503,4.0713 3.24749,5.4463 0.68246,1.375 1.78552,3.4038 2.45124,4.5084 0.66573,1.1047 4.55502,7.6297 8.64288,14.5 4.08786,6.8704 8.25036,13.4206 9.25,14.5561 0.99964,1.1354 1.81753,2.3987 1.81753,2.8073 0,0.4086 2.025,3.6401 4.5,7.181 2.475,3.541 4.5,6.8117 4.5,7.2684 0,0.4566 1.125,1.8871 2.5,3.1788 1.375,1.2917 2.5,2.8667 2.5,3.5 0,0.6333 1.125,2.2083 2.5,3.5 1.375,1.2917 2.5,2.7677 2.5,3.28 0,0.5122 1.0125,2.2008 2.25,3.7523 1.2375,1.5516 4.48445,5.8915 7.21545,9.6444 2.731,3.7528 7.9319,10.4233 11.55757,14.8233 3.62566,4.4 7.98124,10.0371 9.67908,12.5269 1.69784,2.4898 4.83662,6.3148 6.97507,8.5 2.13845,2.1852 6.11754,6.6731 8.84243,9.9731 15.64205,18.9434 45.75585,49.3892 67.41452,68.1576 2.43877,2.1133 5.43632,4.757 6.66123,5.8748 1.22491,1.1178 3.67705,3.1428 5.44918,4.5 1.77214,1.3572 4.17459,3.3063 5.33877,4.3313 8.72672,7.6838 22.51751,17.7992 42.6167,31.2588 7.975,5.3406 15.625,10.4656 17,11.3889 1.375,0.9233 4.053,2.4818 5.9511,3.4633 1.89811,0.9816 4.06775,2.4013 4.82143,3.155 0.75368,0.7537 1.9525,1.3703 2.66404,1.3703 0.71154,0 2.40432,0.8736 3.76172,1.9413 1.35741,1.0678 4.4556,2.7243 6.88486,3.6812 2.42927,0.9569 4.64185,1.9965 4.91685,2.3102 2.04854,2.3372 22.40717,9.9864 41.5,15.5925 4.95,1.4534 9.45,2.8234 10,3.0444 0.55,0.221 5.05,0.2386 10,0.039 7.24928,-0.2922 10.55342,-0.9865 16.98573,-3.569 z M 708.94617,735.25 705.5,731.5 l 3.75,3.44617 c 3.49042,3.20761 4.20979,4.05383 3.44617,4.05383 -0.16711,0 -1.85461,-1.6875 -3.75,-3.75 z m 113.01204,-16.5 c 2.45201,-2.6125 4.58951,-4.75 4.75,-4.75 0.75088,0 -0.043,0.89783 -4.45821,5.04179 L 817.5,723.5 Z m 5.91423,-90.5 c -1.24387,-1.58606 -1.2085,-1.62143 0.37756,-0.37756 0.9625,0.75485 1.75,1.54235 1.75,1.75 0,0.82304 -0.82119,0.29331 -2.12756,-1.37244 z m -12,-12 c -1.24387,-1.58606 -1.2085,-1.62143 0.37756,-0.37756 1.66575,1.30637 2.19548,2.12756 1.37244,2.12756 -0.20765,0 -0.99515,-0.7875 -1.75,-1.75 z M 703,611.62244 c 0,-0.20765 0.7875,-0.99515 1.75,-1.75 1.58606,-1.24387 1.62143,-1.2085 0.37756,0.37756 C 703.82119,611.91575 703,612.44548 703,611.62244 Z m 10,-10 c 0,-0.20765 0.7875,-0.99515 1.75,-1.75 1.58606,-1.24387 1.62143,-1.2085 0.37756,0.37756 C 713.82119,601.91575 713,602.44548 713,601.62244 Z M 522.8125,94.316886 c 0.72187,-0.288871 1.58438,-0.253344 1.91667,0.07895 0.33229,0.332292 -0.25834,0.568641 -1.3125,0.52522 -1.16495,-0.04798 -1.4019,-0.284941 -0.60417,-0.604167 z M 546.75,90.337719 c 0.6875,-0.277412 1.8125,-0.277412 2.5,0 0.6875,0.277413 0.125,0.504386 -1.25,0.504386 -1.375,0 -1.9375,-0.226973 -1.25,-0.504386 z"
         id="path16" />
    </g>
  </g>
</svg>
