<?xml version="1.0" encoding="UTF-8" standalone="no"?>
<svg
   xmlns:dc="http://purl.org/dc/elements/1.1/"
   xmlns:cc="http://creativecommons.org/ns#"
   xmlns:rdf="http://www.w3.org/1999/02/22-rdf-syntax-ns#"
   xmlns:svg="http://www.w3.org/2000/svg"
   xmlns="http://www.w3.org/2000/svg"
   xmlns:sodipodi="http://sodipodi.sourceforge.net/DTD/sodipodi-0.dtd"
   xmlns:inkscape="http://www.inkscape.org/namespaces/inkscape"
   version="1.1"
   id="svg2"
   width="1043.9584"
   height="1045.8192"
   viewBox="0 0 1043.9584 1045.8192"
   sodipodi:docname="Myrkfolk.svg"
   inkscape:version="1.0.1 (3bc2e813f5, 2020-09-07)">
  <metadata
     id="metadata8">
    <rdf:RDF>
      <cc:Work
         rdf:about="">
        <dc:format>image/svg+xml</dc:format>
        <dc:type
           rdf:resource="http://purl.org/dc/dcmitype/StillImage" />
        <dc:title></dc:title>
      </cc:Work>
    </rdf:RDF>
  </metadata>
  <defs
     id="defs6" />
  <sodipodi:namedview
     pagecolor="#ffffff"
     bordercolor="#666666"
     borderopacity="1"
     objecttolerance="10"
     gridtolerance="10"
     guidetolerance="10"
     inkscape:pageopacity="0"
     inkscape:pageshadow="2"
     inkscape:window-width="1920"
     inkscape:window-height="1057"
     id="namedview4"
     showgrid="false"
     inkscape:pagecheckerboard="true"
     inkscape:zoom="0.49"
     inkscape:cx="519.95843"
     inkscape:cy="511.95843"
     inkscape:window-x="-8"
     inkscape:window-y="-8"
     inkscape:window-maximized="1"
     inkscape:current-layer="g10" />
  <g
     inkscape:groupmode="layer"
     inkscape:label="Image"
     id="g10"
     transform="translate(-230.04157,-238.04157)">
    <circle
       style="fill:#ffffff;fill-rule:evenodd"
       id="path24"
       cx="748.97961"
       cy="761.22449"
       r="377.55103" />
    <g
       id="g14">
      <path
         style="fill:#f0a157"
         d="m 712.5,1257.4775 c -63.69566,-5.8501 -120.99519,-21.6749 -177,-48.8831 -23.01618,-11.1817 -36.09775,-18.6152 -56.5,-32.1058 C 421.80325,1138.6684 375.3316,1092.1968 337.51137,1035 324.02079,1014.5977 316.58726,1001.5162 305.40556,978.5 248.52787,861.42415 239.4053,728.73467 279.82145,606.37441 300.7723,542.94553 332.56252,486.70577 376.49417,435.35168 404.95432,402.08308 440.31713,371.08966 479,345.51137 c 20.40225,-13.49058 33.48382,-20.92411 56.5,-32.10581 117.07585,-56.87769 249.76533,-66.00026 372.12559,-25.58411 63.42888,20.95085 119.66861,52.74107 171.02271,96.67272 40.368,34.53345 79.2126,81.62984 106.4025,129.00583 26.5342,46.23346 47.8063,104.09186 57.4367,156.22268 6.0088,32.52683 6.5125,39.58669 6.5125,91.27732 0,51.69063 -0.5037,58.75049 -6.5125,91.27732 -9.6304,52.13082 -30.9025,109.98922 -57.4367,156.22268 -38.5415,67.1552 -92.8437,124.8717 -158.0508,167.9886 -20.4023,13.4906 -33.48382,20.9241 -56.5,32.1058 -56.69121,27.5417 -113.86829,43.2385 -178.15875,48.9099 -20.32231,1.7927 -60.17563,1.7793 -79.84125,-0.027 z m 68.84125,-44.9732 c 51.19075,-4.5158 94.35449,-14.6375 140.65875,-32.984 45.25612,-17.9311 85.3719,-42.6484 126.6258,-78.0203 37.1143,-31.8225 72.6925,-75.2003 98.4234,-120 23.0372,-40.10986 42.853,-96.23002 51.3755,-145.5 5.0527,-29.21055 5.5753,-36.24095 5.5753,-75 0,-38.75905 -0.5226,-45.78945 -5.5753,-75 -8.5225,-49.26998 -28.3383,-105.39014 -51.3755,-145.5 -25.7309,-44.79969 -61.3091,-88.17753 -98.4234,-120 C 999.2708,378.18204 952.56776,351.62098 892.80237,331.87973 849.39494,317.54172 793.56886,308.01004 753,308.01004 c -40.56886,0 -96.39494,9.53168 -139.80237,23.86969 -59.76539,19.74125 -106.46843,46.30231 -155.82345,88.62027 -44.41719,38.08416 -86.40922,92.58715 -110.94533,144 -24.71039,51.77801 -39.5735,107.40202 -44.93316,168.15875 -1.87589,21.26497 -1.87589,35.41753 0,56.6825 4.5158,51.19075 14.63754,94.35449 32.98396,140.65875 17.93114,45.25612 42.64842,85.3719 78.02035,126.6258 31.82247,37.1143 75.20031,72.6925 120,98.4234 40.12062,23.0434 96.32205,42.8853 145.5,51.3687 41.72074,7.197 71.12227,8.9286 103.34125,6.0864 z M 870,1068.3445 c -31.19503,-2.9894 -52.38029,-8.9214 -79.5,-22.2604 C 731.92862,1017.2753 691.85346,965.71722 675.41771,898.02671 673.94516,891.96202 672.43816,887 672.06882,887 c -0.36934,0 -4.69841,2.38236 -9.62017,5.29413 -50.11383,29.64793 -85.62556,69.19856 -105.86662,117.90727 -1.89668,4.5642 -4.20815,10.0986 -5.1366,12.2986 l -1.6881,4 -5.40749,-11.4589 C 531.5411,987.89827 525.45949,962.05868 524.33458,930 c -1.80036,-51.30811 14.50482,-99.69296 47.68401,-141.5 3.49196,-4.4 11.97455,-13.74425 18.85021,-20.765 7.60894,-7.7695 12.1353,-13.11805 11.5662,-13.66716 -0.51425,-0.49619 -5.84499,-3.62295 -11.84609,-6.94836 -27.46966,-15.22182 -60.11139,-26.32842 -90.53053,-30.80369 -16.07522,-2.365 -44.93988,-2.19226 -63.80838,0.38184 -7.8375,1.06922 -14.25,1.80107 -14.25,1.62634 0,-0.17474 3.91568,-5.83161 8.70152,-12.57084 41.9166,-59.02526 115.67718,-93.96374 187.46359,-88.79666 21.4088,1.54097 45.382,6.08102 60.71062,11.49737 2.40665,0.85039 4.60432,1.54616 4.88371,1.54616 0.2794,0 0.26235,-9.3375 -0.0379,-20.75 -0.61126,-23.23542 -2.59257,-37.42227 -8.23188,-58.94313 -9.27,-35.3764 -22.03264,-59.73467 -49.88666,-95.21175 -0.93898,-1.19594 0.38414,-1.29939 8.89699,-0.69557 27.53535,1.9531 51.16899,8.48278 78,21.55042 24.57307,11.96795 42.60167,25.08545 61.57932,44.80475 26.84329,27.89233 44.8107,61.44637 55.39251,103.4452 l 3.19981,12.69992 5.91418,-3.06325 c 17.11663,-8.86554 42.18981,-27.73587 58.82605,-44.27307 23.68047,-23.53951 40.14877,-48.65632 53.5955,-81.74181 l 4.33991,-10.67829 5.70074,12.17829 c 12.86964,27.49296 18.54585,51.82842 19.64968,84.24358 1.23435,36.24807 -5.44208,67.82392 -21.13032,99.93471 -11.263,23.05319 -24.62936,41.51908 -45.41967,62.74818 -6.86658,7.0115 -12.29636,12.89885 -12.0662,13.083 1.88103,1.50496 14.28122,8.38228 22.61989,12.5453 26.50566,13.23277 54.03768,21.88354 81.79861,25.70174 16.4955,2.26877 42.7554,2.07164 61.4952,-0.46163 7.9724,-1.07771 14.6564,-1.79828 14.8535,-1.60127 0.197,0.19701 -3.4009,5.63613 -7.9953,12.08694 -28.6212,40.186 -72.9685,70.44636 -121.5778,82.95856 C 935.52297,905.13041 920.19977,907 900.5,907 c -23.77078,0 -49.28706,-3.83152 -70.5,-10.58627 -4.125,-1.31351 -7.89913,-2.39394 -8.38695,-2.40096 -1.37013,-0.0197 0.0522,38.19468 1.83529,49.31031 5.51844,34.40105 16.2459,64.87862 31.81744,90.39592 3.09415,5.0704 9.61576,14.5204 14.49245,21 4.8767,6.4795 9.20266,12.3435 9.61326,13.031 0.76031,1.273 -1.0756,1.3895 -9.37149,0.5945 z M 800.35684,998.25 c -10.72192,-32.63178 -13.79336,-51.90161 -13.82971,-86.76601 l -0.0271,-26.01601 3.25968,-6.62638 c 5.91447,-12.02309 16.44977,-18.83714 30.37031,-19.64298 6.52086,-0.37749 9.21979,0.0241 18.01979,2.68154 56.75031,17.13731 106.13907,12.24567 153.34238,-15.18759 l 6.99216,-4.06365 -10.99216,-2.19443 C 958.08544,834.56385 935.83628,826.9233 908.72351,813.38467 881.84736,799.96419 875.19857,794.91352 870.10111,784.04563 867.87133,779.29168 867.5,777.1438 867.5,769 c 0,-13.82113 2.04917,-17.66847 18.29112,-34.34187 7.0497,-7.23697 15.68027,-16.75813 19.17903,-21.15813 23.42279,-29.4562 35.92398,-59.45323 40.00777,-96 1.18129,-10.57168 1.3491,-27.51348 0.27208,-27.46908 -0.4125,0.017 -2.325,2.13961 -4.25,4.7169 -5.42489,7.26313 -30.43579,31.89741 -41,40.38261 -20.09254,16.13839 -46.07041,32.15919 -57.42504,35.41455 -15.68595,4.49716 -33.35289,-2.53432 -40.81483,-16.24438 -1.43882,-2.64357 -3.96455,-10.43017 -5.61274,-17.30355 -13.45774,-56.12222 -41.67435,-95.89147 -87.28259,-123.0184 -4.54434,-2.70289 -8.42427,-4.75251 -8.62206,-4.55472 -0.1978,0.19779 1.44371,5.69582 3.64779,12.21785 5.05647,14.96242 9.44688,32.45609 12.29341,48.98327 1.91205,11.10152 2.22428,16.66287 2.26678,40.37495 l 0.0493,27.5 -2.63517,5.62001 c -5.78475,12.33713 -16.70539,19.78507 -30.28826,20.65677 -6.22369,0.39941 -8.96581,-0.009 -17.71985,-2.63957 -44.95596,-13.50888 -83.15633,-13.65601 -121.26489,-0.46705 -11.28881,3.90693 -25.09145,10.39544 -34.0271,15.99585 l -5.93528,3.71992 7.75507,1.30989 c 25.30022,4.27339 56.87878,14.89674 82.54595,27.76931 25.36825,12.72265 32.81513,18.49707 37.93436,29.41486 2.26758,4.83605 2.63517,6.9452 2.63517,15.12001 0,13.82113 -2.04917,17.66847 -18.29112,34.34187 -30.3191,31.12449 -45.86776,56.96563 -54.25233,90.16485 -4.25786,16.85925 -7.38215,47.61466 -5.36969,52.85904 0.42837,1.11631 1.96684,-0.14441 5.6967,-4.66822 8.14684,-9.88101 29.29733,-30.47301 40.71644,-39.64128 13.41242,-10.76867 34.8357,-24.87072 46.90607,-30.8763 9.23424,-4.59447 9.58133,-4.67996 19,-4.67996 8.27629,0 10.36579,0.36192 15.21394,2.63517 12.35647,5.79382 17.20633,12.97027 22.36407,33.09267 5.8603,22.86332 12.86475,40.76653 22.06675,56.40207 15.68332,26.64822 37.32411,48.3793 63.69885,63.96459 5.03119,2.973 9.4029,5.4055 9.7149,5.4055 0.31201,0 -1.76147,-7.0875 -4.60774,-15.75 z"
         id="path20" />
      <path
         style="fill:#994422"
         d="m 726.5,1202.4775 c -57.98737,-5.3259 -110.0887,-18.9234 -160.52939,-41.8955 -40.18317,-18.3006 -89.64459,-53.3257 -124.43573,-88.1169 -34.79113,-34.7911 -69.81632,-84.25254 -88.11685,-124.43571 -24.29081,-53.33625 -38.11851,-108.51841 -42.5453,-169.78536 -2.7936,-38.66354 5.30846,-97.08278 20.14364,-145.24403 18.91086,-61.39266 45.80977,-109.69057 89.41141,-160.54121 38.37187,-44.7514 95.21713,-88.12104 145.54283,-111.04076 53.33625,-24.29081 108.51841,-38.11851 169.78536,-42.5453 38.66354,-2.7936 97.08278,5.30846 145.24403,20.14364 61.39266,18.91086 109.69057,45.80977 160.5412,89.41141 36.9786,31.70711 72.2431,74.88572 98.0405,120.04283 21.4149,37.48563 40.4193,92.1801 48.829,140.52939 4.9841,28.65448 5.5893,36.45022 5.5893,72 0,35.54978 -0.6052,43.34552 -5.5893,72 -6.6287,38.10977 -19.246,78.61815 -35.8287,115.02939 -18.3006,40.18317 -53.3257,89.64461 -88.1169,124.43571 -34.7911,34.7912 -84.25254,69.8163 -124.43571,88.1169 -51.16861,23.3036 -102.94155,36.7062 -162.02939,41.945 -19.42281,1.7221 -32.34591,1.7097 -51.5,-0.05 z M 884.52794,1077.8053 C 887.55036,1076.4282 890,1072.2626 890,1068.5 c 0,-3.7699 -2.22106,-7.5501 -12.20264,-20.7683 -16.79718,-22.244 -25.7038,-39.0192 -33.83768,-63.7317 -7.2303,-21.96718 -11.40892,-43.55556 -12.65878,-65.40015 l -0.62467,-10.91778 2.41189,0.64794 C 855.55317,914.3651 876.04033,917 900.5,917 c 22.84899,0 37.19322,-1.65601 55.77561,-6.43918 16.83542,-4.3335 28.22359,-8.71583 45.72049,-17.59389 36.2422,-18.38958 62.7233,-41.59265 85.3404,-74.77631 6.107,-8.96007 6.985,-12.73436 4.2107,-18.09943 -2.7461,-5.31034 -5.6218,-5.66472 -25.6488,-3.1608 -42.2988,5.28846 -78.96782,0.21899 -119.70718,-16.54944 -7.27051,-2.99256 -25.97928,-11.95688 -27.09317,-12.9817 -0.22107,-0.2034 3.18629,-4.10741 7.57192,-8.67557 17.16352,-17.87793 30.63128,-37.23309 41.90498,-60.22368 17.09819,-34.86852 23.25904,-64.05481 22.13656,-104.86938 -0.98543,-35.83169 -6.20822,-58.41185 -20.80927,-89.96674 C 963.20831,489.19736 961.30917,487 955.5,487 c -5.78122,0 -8.01595,2.36195 -12.49868,13.21019 -7.32005,17.71456 -14.60364,32.33364 -21.16974,42.4903 -17.84762,27.60728 -41.84037,51.65422 -71.57264,71.7343 -5.63258,3.80404 -10.38138,6.72491 -10.55289,6.49082 C 839.53454,620.69152 838.33751,616.675 837.04599,612 829.52949,584.79214 814.29404,553.79889 797.22857,531 790.13825,521.52757 771.80389,502.64849 762,494.72476 737.42775,474.86492 702.05706,457.293 671.07818,449.55543 c -12.40526,-3.09846 -21.12196,-4.37777 -35.37477,-5.19181 -13.14697,-0.75088 -16.89332,0.16916 -19.25057,4.72757 -3.27178,6.32693 -2.35,8.47996 11.41439,26.66083 10.07575,13.30869 15.44602,21.81034 21.88125,34.6401 12.92995,25.77815 22.31328,62.4338 23.92857,93.47615 0.61737,11.86454 0.56578,12.34418 -1.26673,11.77674 -6.98847,-2.16396 -24.70155,-5.79665 -34.41032,-7.05704 -47.4532,-6.16036 -90.886,0.44984 -130.5,19.86128 -39.01682,19.11882 -66.38978,42.89925 -90.83909,78.91702 -5.05554,7.44761 -5.83439,11.4638 -3.20807,16.54254 2.68755,5.19713 5.39816,5.52484 24.71353,2.98784 37.02803,-4.86351 68.81759,-1.6896 104.33363,10.41677 15.90597,5.42188 35.88887,14.167 42.45157,18.5781 1.1643,0.78258 -0.13632,2.62965 -6.57191,9.33312 -17.27238,17.99131 -30.77558,37.40411 -41.92646,60.27536 -16.94079,34.74677 -23.26996,64.62241 -22.1384,104.5 1.01046,35.60954 6.66167,59.82393 21.04154,90.159 6.65784,14.0451 8.29973,15.8458 14.44071,15.8373 5.99809,-0.01 8.4696,-2.9061 14.16901,-16.6127 7.31587,-17.594 12.69452,-28.15913 20.04997,-39.3836 13.44732,-20.5207 31.28587,-40.093 50.90018,-55.84722 10.58377,-8.5009 29.81489,-21.80133 30.45205,-21.06095 0.1932,0.22449 2.03134,5.80817 4.08476,12.40817 20.28719,65.20609 58.16033,110.8947 115.54698,139.3912 28.79945,14.3009 50.11657,20.3979 82,23.4533 8.20761,0.7866 15.08242,0.5751 17.52794,-0.5392 z"
         id="path18" />
      <path
         style="fill:#090909"
         d="m 712,1282.9192 c -66.99094,-5.6818 -128.31866,-22.4676 -187.5,-51.3199 -25.55484,-12.4586 -37.84732,-19.4461 -60,-34.1063 -60.02584,-39.7238 -108.26918,-87.9672 -147.99301,-147.993 -14.66018,-22.1527 -21.64769,-34.4452 -34.10627,-60 -28.64851,-58.76335 -45.09047,-118.24529 -50.90503,-184.15875 -1.93883,-21.97847 -1.93883,-66.70403 0,-88.6825 5.81456,-65.91346 22.25652,-125.3954 50.90503,-184.15875 12.45858,-25.55484 19.44609,-37.84732 34.10627,-60 39.72383,-60.02584 87.96717,-108.26918 147.99301,-147.99301 22.15268,-14.66018 34.44516,-21.64769 60,-34.10627 58.76335,-28.64851 118.24529,-45.09047 184.15875,-50.90503 21.97847,-1.93883 66.70403,-1.93883 88.6825,0 65.91346,5.81456 125.3954,22.25652 184.15875,50.90503 25.5548,12.45858 37.8473,19.44609 60,34.10627 60.0258,39.72383 108.2692,87.96717 147.993,147.99301 14.6602,22.15268 21.6477,34.44516 34.1063,60 25.1829,51.65482 40.7426,103.35213 48.417,160.86637 1.7654,13.23021 1.9837,20.67384 1.9837,67.63363 0,46.95979 -0.2183,54.40342 -1.9837,67.63363 -7.6744,57.51424 -23.2341,109.21155 -48.417,160.86637 -12.4586,25.5548 -19.4461,37.8473 -34.1063,60 -39.7238,60.0258 -87.9672,108.2692 -147.993,147.993 -22.1527,14.6602 -34.4452,21.6477 -60,34.1063 -58.76335,28.6485 -118.24529,45.0904 -184.15875,50.905 -18.12854,1.5992 -68.49106,1.8441 -85.34125,0.4149 z m 80.34125,-25.4149 c 64.29046,-5.6714 121.46754,-21.3682 178.15875,-48.9099 23.01618,-11.1817 36.0977,-18.6152 56.5,-32.1058 65.2071,-43.1169 119.5093,-100.8334 158.0508,-167.9886 26.5342,-46.23346 47.8063,-104.09186 57.4367,-156.22268 C 1248.4963,819.75049 1249,812.69063 1249,761 c 0,-51.69063 -0.5037,-58.75049 -6.5125,-91.27732 -9.6304,-52.13082 -30.9025,-109.98922 -57.4367,-156.22268 -27.1899,-47.37599 -66.0345,-94.47238 -106.4025,-129.00583 -51.3541,-43.93165 -107.59383,-75.72187 -171.02271,-96.67272 -100.04996,-33.04695 -209.20122,-33.04695 -309.25118,0 -63.42888,20.95085 -119.66864,52.74107 -171.02273,96.67272 -33.2686,28.46015 -64.26202,63.82296 -89.84031,102.50583 -13.49058,20.40225 -20.92411,33.48382 -32.10581,56.5 -56.87769,117.07585 -66.00026,249.76533 -25.58411,372.12559 20.95085,63.42888 52.74107,119.66861 96.67272,171.02271 28.46015,33.2686 63.82296,64.262 102.50583,89.8403 20.40225,13.4906 33.48382,20.9241 56.5,32.1058 56.00481,27.2082 113.30434,43.033 177,48.8831 19.66562,1.8061 59.51894,1.8195 79.84125,0.027 z M 723.5,1212.4775 c -60.13416,-5.523 -115.8949,-20.5171 -167,-44.9063 C 505.08715,1143.035 450.58416,1101.043 412.5,1056.6258 377.12807,1015.3719 352.41079,975.25612 334.47965,930 316.13323,883.69574 306.01149,840.532 301.49569,789.34125 c -1.87589,-21.26497 -1.87589,-35.41753 0,-56.6825 5.35966,-60.75673 20.22277,-116.38074 44.93316,-168.15875 24.53611,-51.41285 66.52814,-105.91584 110.94533,-144 49.35502,-42.31796 96.05806,-68.87902 155.82345,-88.62027 43.40743,-14.33801 99.23351,-23.86969 139.80237,-23.86969 40.56886,0 96.39494,9.53168 139.80237,23.86969 59.76539,19.74125 106.46843,46.30231 155.82343,88.62027 37.1143,31.82247 72.6925,75.20031 98.4234,120 23.0372,40.10986 42.853,96.23002 51.3755,145.5 5.0527,29.21055 5.5753,36.24095 5.5753,75 0,38.75905 -0.5226,45.78945 -5.5753,75 -8.5225,49.26998 -28.3383,105.39014 -51.3755,145.5 -19.5076,33.9644 -48.2105,71.6163 -75.0717,98.4775 -34.2821,34.2821 -81.44199,68.01 -122.4775,87.5937 -70.89048,33.8315 -158.0395,51.1481 -226,44.9063 z m 54.5,-9.9505 c 59.08784,-5.2388 110.86078,-18.6414 162.02939,-41.945 40.18317,-18.3006 89.64461,-53.3257 124.43571,-88.1169 34.7912,-34.7911 69.8163,-84.25254 88.1169,-124.43571 16.5827,-36.41124 29.2,-76.91962 35.8287,-115.02939 4.9841,-28.65448 5.5893,-36.45022 5.5893,-72 0,-35.54978 -0.6052,-43.34552 -5.5893,-72 -6.6287,-38.10977 -19.246,-78.61815 -35.8287,-115.02939 -18.3006,-40.18317 -53.3257,-89.64459 -88.1169,-124.43573 -34.7911,-34.79113 -84.25254,-69.81632 -124.43571,-88.11685 -53.33625,-24.29081 -108.51841,-38.11851 -169.78536,-42.5453 -38.66354,-2.7936 -97.08278,5.30846 -145.24403,20.14364 -61.39266,18.91086 -109.69057,45.80977 -160.54121,89.41141 -44.7514,38.37187 -88.12104,95.21713 -111.04076,145.54283 -24.29081,53.33625 -38.11851,108.51841 -42.5453,169.78536 -2.7936,38.66354 5.30846,97.08278 20.14364,145.24403 18.91086,61.39266 45.80977,109.69057 89.41141,160.5412 38.37187,44.7514 95.21713,88.121 145.54283,111.0408 50.44069,22.9721 102.54202,36.5696 160.52939,41.8955 19.15409,1.7592 32.07719,1.7716 51.5,0.05 z m 89,-124.1825 c -31.88343,-3.0554 -53.20055,-9.1524 -82,-23.4533 -57.38665,-28.4965 -95.25979,-74.18511 -115.54698,-139.3912 -2.05342,-6.6 -3.89156,-12.18368 -4.08476,-12.40817 -0.63716,-0.74038 -19.86828,12.56005 -30.45205,21.06095 C 615.3019,939.907 597.46335,959.4793 584.01603,980 c -7.35545,11.22447 -12.7341,21.7896 -20.04997,39.3836 -5.69941,13.7066 -8.17092,16.6044 -14.16901,16.6127 -6.14098,0.01 -7.78287,-1.7922 -14.44071,-15.8373 -3.48934,-7.3609 -7.50211,-16.5934 -8.91727,-20.51651 -13.64627,-37.83065 -16.23605,-89.43133 -6.48695,-129.25084 9.40816,-38.42697 30.08552,-75.64531 58.42754,-105.16701 6.43559,-6.70347 7.73621,-8.55054 6.57191,-9.33312 -6.5627,-4.4111 -26.5456,-13.15622 -42.45157,-18.5781 -35.51604,-12.10637 -67.3056,-15.28028 -104.33363,-10.41677 -19.31537,2.537 -22.02598,2.20929 -24.71353,-2.98784 -2.62632,-5.07874 -1.84747,-9.09493 3.20807,-16.54254 19.48052,-28.69794 42.14075,-50.70118 69.38502,-67.37335 46.03716,-28.17249 96.50634,-38.60316 151.95407,-31.40495 9.70877,1.26039 27.42185,4.89308 34.41032,7.05704 1.83251,0.56744 1.8841,0.0878 1.26673,-11.77674 -1.61529,-31.04235 -10.99862,-67.698 -23.92857,-93.47615 -6.43523,-12.82976 -11.8055,-21.33141 -21.88125,-34.6401 -11.08846,-14.64634 -12.85881,-17.54359 -12.86349,-21.05168 -0.006,-4.18959 2.5155,-8.25856 6.01505,-9.70812 3.42081,-1.41695 20.32909,-0.85876 33.36867,1.10158 34.70863,5.21803 78.23659,24.88866 107.61254,48.63096 9.80389,7.92373 28.13825,26.80281 35.22857,36.27524 17.06547,22.79889 32.30092,53.79214 39.81742,81 1.29152,4.675 2.48855,8.69152 2.66006,8.92561 0.17151,0.23409 4.92031,-2.68678 10.55289,-6.49082 29.73227,-20.08008 53.72502,-44.12702 71.57264,-71.7343 6.5661,-10.15666 13.84969,-24.77574 21.16974,-42.4903 C 947.48405,489.36195 949.71878,487 955.5,487 c 5.80917,0 7.70831,2.19736 14.40224,16.66388 14.60105,31.55489 19.82384,54.13505 20.80927,89.96674 1.12248,40.81457 -5.03837,70.00086 -22.13656,104.86938 -11.2737,22.99059 -24.74146,42.34575 -41.90498,60.22368 -4.38563,4.56816 -7.79299,8.47217 -7.57192,8.67557 1.11389,1.02482 19.82266,9.98914 27.09317,12.9817 40.73936,16.76843 77.40838,21.8379 119.70718,16.54944 20.027,-2.50392 22.9027,-2.14954 25.6488,3.1608 2.7743,5.36507 1.8963,9.13936 -4.2107,18.09943 -17.3916,25.51689 -37.5729,45.48025 -62.6031,61.92709 -10.8168,7.10751 -33.58601,18.74136 -45.97073,23.4886 -12.65921,4.85245 -33.3514,10.04914 -47.28828,11.8761 -15.26748,2.00139 -46.73374,1.99149 -62.17317,-0.0196 -9.95923,-1.29724 -26.94335,-4.64257 -36.2131,-7.13283 l -2.41189,-0.64794 0.62467,10.91778 c 1.24986,21.84459 5.42848,43.43297 12.65878,65.40015 8.13388,24.71253 17.0405,41.48773 33.83768,63.73173 12.71708,16.8408 13.98658,19.9179 10.77764,26.1233 -2.451,4.7397 -7.65794,5.8232 -21.575,4.4895 z m 12.37149,-10.5945 c -0.4106,-0.6875 -4.73656,-6.5515 -9.61326,-13.031 -25.25157,-33.5513 -39.2077,-67.12205 -46.30989,-111.39592 -1.78311,-11.11563 -3.20542,-49.33003 -1.83529,-49.31031 0.48782,0.007 4.26195,1.08745 8.38695,2.40096 10.86274,3.45898 28.73282,7.28176 42.30122,9.04911 15.06133,1.96181 41.28725,1.97095 56.17317,0.0196 57.54711,-7.54377 112.77801,-40.70221 146.37901,-87.88015 4.5944,-6.45081 8.1923,-11.88993 7.9953,-12.08694 -0.1971,-0.19701 -6.8811,0.52356 -14.8535,1.60127 -48.6728,6.57963 -96.39522,-1.82632 -143.2938,-25.24011 -8.33867,-4.16302 -20.73886,-11.04034 -22.61989,-12.5453 -0.23016,-0.18415 5.19962,-6.0715 12.0662,-13.083 20.79031,-21.2291 34.15667,-39.69499 45.41967,-62.74818 15.68824,-32.11079 22.36467,-63.68664 21.13032,-99.93471 -1.10383,-32.41516 -6.78004,-56.75062 -19.64968,-84.24358 l -5.70074,-12.17829 -4.33991,10.67829 c -13.44673,33.08549 -29.91503,58.2023 -53.5955,81.74181 -16.63624,16.5372 -41.70942,35.40753 -58.82605,44.27307 l -5.91418,3.06325 -3.19981,-12.69992 C 818.89002,582.20112 800.92261,548.64708 774.07932,520.75475 755.10167,501.03545 737.07307,487.91795 712.5,475.95 c -26.83101,-13.06764 -50.46465,-19.59732 -78,-21.55042 -8.51285,-0.60382 -9.83597,-0.50037 -8.89699,0.69557 27.85402,35.47708 40.61666,59.83535 49.88666,95.21175 5.63931,21.52086 7.62062,35.70771 8.23188,58.94313 0.30024,11.4125 0.31729,20.75 0.0379,20.75 -0.27939,0 -2.47706,-0.69577 -4.88371,-1.54616 -15.32862,-5.41635 -39.30182,-9.9564 -60.71062,-11.49737 -71.78641,-5.16708 -145.54699,29.7714 -187.46359,88.79666 -4.78584,6.73923 -8.70152,12.3961 -8.70152,12.57084 0,0.17473 6.4125,-0.55712 14.25,-1.62634 18.8685,-2.5741 47.73316,-2.74684 63.80838,-0.38184 30.41914,4.47527 63.06087,15.58187 90.53053,30.80369 6.0011,3.32541 11.33184,6.45217 11.84609,6.94836 0.5691,0.54911 -3.95726,5.89766 -11.5662,13.66716 -6.87566,7.02075 -15.35825,16.365 -18.85021,20.765 -33.17919,41.80704 -49.48437,90.19189 -47.68401,141.5 1.12491,32.05868 7.20652,57.89827 20.01526,85.04107 l 5.40749,11.4589 1.6881,-4 c 0.92845,-2.2 3.23992,-7.7344 5.1366,-12.2986 20.24106,-48.70868 55.75279,-88.25931 105.86662,-117.90724 4.92176,-2.91177 9.25083,-5.29413 9.62017,-5.29413 0.36934,0 1.87634,4.96202 3.34889,11.02671 16.43575,67.69051 56.51091,119.24856 115.08229,148.05736 27.11971,13.339 48.30497,19.271 79.5,22.2604 8.29589,0.795 10.1318,0.6785 9.37149,-0.5945 z"
         id="path16" />
    </g>
  </g>
</svg>
