<?xml version="1.0" encoding="UTF-8" standalone="no"?>
<svg
   xmlns:dc="http://purl.org/dc/elements/1.1/"
   xmlns:cc="http://creativecommons.org/ns#"
   xmlns:rdf="http://www.w3.org/1999/02/22-rdf-syntax-ns#"
   xmlns:svg="http://www.w3.org/2000/svg"
   xmlns="http://www.w3.org/2000/svg"
   xmlns:sodipodi="http://sodipodi.sourceforge.net/DTD/sodipodi-0.dtd"
   xmlns:inkscape="http://www.inkscape.org/namespaces/inkscape"
   version="1.1"
   id="svg2"
   width="1044.7208"
   height="1337.2157"
   viewBox="0 0 1044.7208 1337.2157"
   sodipodi:docname="Nimguard.svg"
   inkscape:version="1.0.1 (3bc2e813f5, 2020-09-07)">
  <metadata
     id="metadata8">
    <rdf:RDF>
      <cc:Work
         rdf:about="">
        <dc:format>image/svg+xml</dc:format>
        <dc:type
           rdf:resource="http://purl.org/dc/dcmitype/StillImage" />
        <dc:title></dc:title>
      </cc:Work>
    </rdf:RDF>
  </metadata>
  <defs
     id="defs6" />
  <sodipodi:namedview
     pagecolor="#ffffff"
     bordercolor="#666666"
     borderopacity="1"
     objecttolerance="10"
     gridtolerance="10"
     guidetolerance="10"
     inkscape:pageopacity="0"
     inkscape:pageshadow="2"
     inkscape:window-width="1920"
     inkscape:window-height="1057"
     id="namedview4"
     showgrid="false"
     inkscape:pagecheckerboard="true"
     inkscape:zoom="0.49"
     inkscape:cx="520.88026"
     inkscape:cy="674.34686"
     inkscape:window-x="-8"
     inkscape:window-y="-8"
     inkscape:window-maximized="1"
     inkscape:current-layer="g10" />
  <g
     inkscape:groupmode="layer"
     inkscape:label="Image"
     id="g10"
     transform="translate(-229.11974,-75.653138)">
    <path
       style="fill:#ffffff;fill-opacity:1"
       d="m 746.5,1412.3191 c -40.33262,-9.0517 -62.49618,-16.485 -92.5,-31.0232 -61.12149,-29.616 -124.18828,-72.7999 -176.49891,-120.8546 -32.04111,-29.4342 -73.79887,-74.1114 -93.0354,-99.5397 -27.73724,-36.6652 -40.38969,-54.895 -55.39078,-79.808 -5.5569,-9.2287 -24.3334,-42.9459 -28.9286,-51.9476 -3.1406,-6.1523 -18.1098,-38.94183 -19.6971,-43.14601 -0.7269,-1.925 -2.742,-6.875 -4.4781,-11 -3.285,-7.80519 -4.9543,-12.44198 -11.7007,-32.5 -7.8298,-23.27935 -10.2826,-31.95819 -14.807,-52.39336 -1.3874,-6.26635 -2.7288,-11.72715 -2.981,-12.13512 -0.6835,-1.10602 -5.4037,-29.79565 -7.0699,-42.97152 -2.4309,-19.22263 -4.1589,-109.01719 -6.3216,-328.5 -0.5854,-59.4 -1.5194,-123.525 -2.0757,-142.5 -0.5563,-18.975 -1.2804,-62.69893 -1.6092,-97.1643 -0.6596,-69.14647 -0.6676,-69.03309 5.4995,-77.54646 4.4411,-6.13084 8.5206,-8.77999 25.8112,-16.76145 42.5837,-19.65694 90.01679,-36.81765 144.7833,-52.38079 9.95177,-2.82802 50.67081,-12.89675 59,-14.58913 18.63581,-3.78654 27.58475,-5.632816 34,-7.014646 3.85,-0.82928 11.725,-2.22211 17.5,-3.09519 5.775,-0.87308 12.075,-1.98459 14,-2.47003 1.925,-0.48544 9.125,-1.58536 16,-2.44427 6.875,-0.85891 14.525,-2.00356 17,-2.54367 2.475,-0.5401 13.05,-1.92842 23.5,-3.08515 35.25403,-3.90232 31.55815,-3.57202 91.49999,-8.17726 18.86541,-1.44939 164.97908,-1.42558 181.50001,0.0296 6.6,0.58133 22.0036,1.78494 34.23021,2.67469 12.22662,0.88975 25.72662,2.01131 30,2.49236 4.27339,0.48105 16.54479,1.80968 27.26979,2.9525 10.725,1.14282 20.85,2.34651 22.5,2.67487 1.65,0.32835 10.65,1.67071 20,2.98302 31.04159,4.35681 58.40689,9.19406 86.99999,15.378596 27.114,5.86462 32.1282,7.02153 46,10.61338 7.7,1.99377 16.7,4.28192 20,5.08477 3.3,0.80286 8.7,2.3104 12,3.35009 3.3,1.0397 10.05,3.09509 15,4.56755 36.0327,10.71849 79.9306,27.37828 88.5026,33.58776 5.1798,3.75226 9.5937,10.66799 11.0167,17.26097 0.7401,3.42908 0.9785,17.84825 0.7213,43.62221 -0.4405,44.14886 -3.2494,262.05222 -4.7888,371.5 -0.5724,40.7 -1.4572,107.075 -1.9662,147.5 -0.6433,51.08922 -1.3728,77.92118 -2.3926,88 -1.9111,18.88762 -5.3198,43.05626 -7.0518,50 -0.7546,3.025 -1.6663,7.525 -2.0261,10 -0.3597,2.475 -2.0055,10.125 -3.6572,17 -17.4005,72.42793 -46.8629,139.20689 -90.2237,204.49999 -15.6519,23.5688 -40.7829,56.2351 -59.6729,77.5654 -24.8111,28.0162 -66.8545,68.0457 -96.4613,91.8407 -35.47761,28.5133 -64.45243,48.3553 -105.7495,72.4172 -7.83777,4.5667 -16.05049,9.2229 -18.25049,10.3471 -2.2,1.1242 -8.275,4.296 -13.5,7.0485 -10.9124,5.7485 -52.6336,25.0096 -64.50001,29.7773 -11.28932,4.5358 -22.85447,8.2611 -31.00854,9.9882 -6.51246,1.3795 -21.42969,1.8586 -25.99146,0.8348 z"
       id="path16-0"
       sodipodi:nodetypes="ssssssssssssssssssssssssssssssssssssccccssssssssssssssss" />
    <g
       id="g14">
      <path
         style="fill:#cca61f"
         d="m 754.5,1372.2972 c -39.26257,-9.13 -53.26226,-13.9002 -83.47453,-28.4428 C 583.86548,1301.9001 496.43564,1231.8168 427.94239,1149 c -5.23106,-6.325 -10.39558,-12.6693 -11.47671,-14.0984 C 383.5125,1091.3416 368.43239,1068.7063 349.24305,1034 329.04884,997.47634 317.99664,972.50368 302.773,929 292.58923,899.89847 284.00784,862.38151 279.44216,827 c -2.45386,-19.01607 -4.16196,-107.1968 -6.3632,-328.5 -0.58537,-58.85 -1.51537,-124.1 -2.06668,-145 -0.55131,-20.9 -1.22114,-60.8353 -1.48852,-88.7451 l -0.48613,-50.7451 5.93293,-2.99494 C 282.56965,207.17885 305.7375,197.2442 318,192.56332 c 5.225,-1.9945 10.625,-4.11282 12,-4.70737 9.12744,-3.94669 46.30761,-16.52398 66.5,-22.49557 22.07588,-6.52861 27.9131,-8.12683 43,-11.77327 8.25,-1.99399 17.475,-4.30285 20.5,-5.13081 9.99569,-2.73585 43.71277,-9.5045 64.24658,-12.89739 8.11061,-1.34015 15.08561,-2.64207 15.5,-2.89314 0.41438,-0.25108 6.82842,-1.1913 14.25342,-2.08937 7.425,-0.89808 15.3,-2.07256 17.5,-2.60997 3.48438,-0.85114 21.17021,-2.97308 50.5,-6.05897 8.43787,-0.88778 33.7976,-2.91277 64.5,-5.15035 20.17489,-1.47035 148.08136,-1.46085 165,0.0123 6.6,0.57466 22.0036,1.77281 34.23021,2.66256 12.22662,0.88975 25.72662,2.01131 30,2.49236 4.27339,0.48105 16.54479,1.81102 27.26979,2.95548 10.725,1.14447 20.625,2.3172 22,2.60609 1.375,0.28888 10.375,1.63879 20,2.9998 88.5872,12.52655 169.4929,32.63576 236.278,58.72721 l 12.778,4.99207 -0.3552,30.14754 c -0.6671,56.61035 -3.7061,289.00064 -4.749,363.14753 -0.5724,40.7 -1.4594,107.075 -1.9711,147.5 -0.6328,50.00168 -1.3859,77.97587 -2.3555,87.5 -1.8887,18.55298 -5.4234,44.254 -6.6015,48 -0.5189,1.65 -1.4526,6.15 -2.0749,10 -4.1907,25.92614 -16.8296,67.47397 -31.1806,102.5 -48.0344,117.23555 -140.5998,226.66025 -259.97858,307.32935 -37.1626,25.1123 -65.1219,40.6445 -114.28962,63.4915 -28.79874,13.3821 -49.10138,20.0806 -56,18.4764 z m 13.14466,-12.4009 c 15.13243,-4.6437 35.24097,-13.4183 70.85534,-30.9188 33.68448,-16.5521 75.74351,-42.6591 109.78962,-68.149 C 1051.8499,1183.2942 1132.2642,1083.5788 1174.7602,980 c 14.3274,-34.9213 26.994,-76.54954 31.1886,-102.5 0.6223,-3.85 1.556,-8.35 2.0749,-10 1.1781,-3.746 4.7128,-29.44702 6.6015,-48 0.9696,-9.52413 1.7227,-37.49832 2.3555,-87.5 0.5117,-40.425 1.3987,-106.8 1.9711,-147.5 0.5725,-40.7 1.793,-132.275 2.7124,-203.5 0.9193,-71.225 1.8356,-140.81522 2.0361,-154.64492 l 0.3647,-25.14492 -4.2825,-1.53658 c -2.3554,-0.84511 -8.3325,-3.07341 -13.2825,-4.95177 -25.7281,-9.76296 -68.6442,-22.85867 -99,-30.20954 -42.1303,-10.20215 -82.8088,-17.98993 -125.5,-24.02662 -9.625,-1.36101 -18.625,-2.71092 -20,-2.9998 -1.375,-0.28889 -11.275,-1.46162 -22,-2.60609 -10.725,-1.14446 -22.9964,-2.47443 -27.26979,-2.95548 -4.27338,-0.48105 -17.77338,-1.60261 -30,-2.49236 C 870.5036,128.54217 855.1,127.34577 848.5,126.77325 c -16.86085,-1.4626 -138.93013,-1.47301 -159,-0.0136 -30.35478,2.20735 -56.02568,4.25615 -64.5,5.14777 -29.32979,3.08589 -47.01562,5.20783 -50.5,6.05897 -2.2,0.53741 -10.075,1.71189 -17.5,2.60997 -7.425,0.89807 -13.83904,1.83829 -14.25342,2.08937 -0.41439,0.25107 -7.38939,1.55299 -15.5,2.89314 -20.53381,3.39289 -54.25089,10.16154 -64.24658,12.89739 -3.025,0.82796 -12.25,3.13682 -20.5,5.13081 -32.03952,7.74382 -90.37543,26.0004 -109.5,34.26869 -1.375,0.59447 -7.675,3.07762 -14,5.51811 -10.70821,4.13175 -38.90345,16.14384 -39.48863,16.82344 -0.14333,0.16646 0.0919,27.52765 0.52268,60.80265 0.43081,33.275 1.49359,116.3 2.36173,184.5 3.68314,289.3429 4.68432,340.3283 7.03973,358.5 4.60441,35.52239 13.16034,72.91737 23.33749,102 15.11994,43.20733 25.2895,66.30387 44.47099,101.00004 19.18109,34.6954 34.26599,57.3383 67.22169,100.9016 18.39,24.3093 56.54555,65.3269 86.12345,92.5835 63.41182,58.4352 143.89426,109.9378 203.41087,130.1673 12.60727,4.2852 39.25368,11.1673 43.64466,11.2724 1.72957,0.041 6.22957,-0.8715 10,-2.0285 z M 754.07569,1070.25 c -5.13815,-19.2411 -38.92968,-156.72934 -38.60129,-157.05774 0.2366,-0.2366 5.609,0.10376 11.93866,0.75635 14.75614,1.52136 42.41774,1.52136 57.17388,0 6.32966,-0.65259 11.70206,-0.99295 11.93866,-0.75635 0.32839,0.3284 -33.46314,137.81664 -38.60129,157.05774 -0.55077,2.0625 -1.41671,3.75 -1.92431,3.75 -0.5076,0 -1.37354,-1.6875 -1.92431,-3.75 z m -138.07326,-20 c 10e-4,-0.9625 0.44591,-7.6 0.98795,-14.75 1.56492,-20.6428 5.66509,-78.8235 8.492,-120.5 0.8394,-12.375 1.76316,-23.92795 2.05281,-25.67323 l 0.52663,-3.17322 10.13146,4.43098 c 18.58989,8.13026 43.88807,15.9726 64.64764,20.0405 1.65948,0.32518 2.16132,0.92676 1.72393,2.06656 -0.48055,1.25231 -67.27859,108.85781 -83.21914,134.05841 -3.38569,5.3525 -5.34764,6.6376 -5.34328,3.5 z m 277.26184,0.5 c -1.8535,-2.3627 -85.2054,-136.43301 -85.82564,-138.04933 -0.44146,-1.15043 0.0549,-1.74927 1.72045,-2.07564 20.75957,-4.0679 46.05775,-11.91024 64.64764,-20.0405 l 10.13146,-4.43098 0.52663,3.17322 c 0.28965,1.74528 1.21341,13.29823 2.05281,25.67323 2.82691,41.6765 6.92708,99.8572 8.492,120.5 0.54204,7.15 0.98662,13.7875 0.98795,14.75 0.003,2.0428 -1.33152,2.2869 -2.7333,0.5 z M 491,987.7672 c 0,-0.74295 1.8339,-5.83201 4.07534,-11.30901 2.24144,-5.47701 9.71504,-23.90819 16.608,-40.95819 32.48484,-80.35244 40.53711,-100.05232 41.16698,-100.71496 0.37378,-0.39323 3.92965,2.17054 7.90193,5.69727 15.56549,13.81955 34.0696,27.20468 50.45044,36.4938 4.23648,2.40239 7.46788,4.74791 7.18089,5.21227 -0.28699,0.46436 -23.1032,19.82774 -50.70269,43.02974 C 540.0814,948.42011 512.1,971.9521 505.5,977.51141 491.74641,989.09635 491,989.62428 491,987.7672 Z m 516.5,-9.40654 c -7.15,-6.01811 -35.5814,-29.92887 -63.18089,-53.13501 -27.59949,-23.20614 -50.4157,-42.57291 -50.70269,-43.03727 -0.28699,-0.46436 2.94441,-2.80988 7.18089,-5.21227 16.38084,-9.28912 34.88495,-22.67425 50.45044,-36.4938 3.97228,-3.52673 7.52815,-6.0905 7.90193,-5.69727 0.63363,0.66659 10.33166,24.38817 41.17502,100.71496 6.8899,17.05 14.37,35.5 16.6225,41 2.2526,5.5 3.9734,10.63061 3.8242,11.40135 -0.1671,0.86256 -5.2696,-2.80558 -13.2714,-9.54069 z M 727,893.44871 c -34.14615,-3.91189 -64.04535,-12.76635 -93,-27.54138 -10.85637,-5.53981 -29.30836,-16.73922 -35.63009,-21.62565 l -2.86991,-2.21832 27,-0.0491 c 29.50552,-0.0537 38.4195,-1.0069 52,-5.56053 13.88767,-4.65662 28.16482,-13.34632 37.3201,-22.71464 l 5.32009,-5.4439 5.67991,1.37722 c 12.24517,2.96911 58.73094,2.64881 67.14196,-0.46263 1.64803,-0.60965 3.29913,0.39798 8.29768,5.06387 7.66047,7.15066 16.89341,13.34844 27.10266,18.19315 16.47765,7.81932 27.49219,9.4849 63.1376,9.54746 l 28,0.0491 -2.86991,2.21832 c -12.74224,9.8492 -39.86934,24.65243 -58.63009,31.99436 -40.29258,15.76832 -86.33704,21.94571 -128,17.17267 z M 391.63135,887.75 c 0.41216,-0.6875 5.29792,-6.65 10.85724,-13.25 5.55931,-6.6 29.0913,-34.5814 52.29329,-62.18089 23.202,-27.59949 42.56538,-50.4157 43.02974,-50.70269 0.46436,-0.28699 2.80988,2.94441 5.21227,7.18089 9.28912,16.38084 22.67425,34.88495 36.4938,50.45044 3.52673,3.97228 6.0905,7.52815 5.69727,7.90193 -0.66264,0.62987 -20.36252,8.68214 -100.71496,41.16698 -17.05,6.89296 -35.48118,14.36656 -40.95819,16.608 -10.46466,4.28261 -13.16865,4.92404 -11.91046,2.82534 z M 1111,886.05619 c -3.575,-1.53834 -14.375,-5.98239 -24,-9.87569 -9.625,-3.89329 -40.45,-16.36164 -68.5,-27.70743 -28.05,-11.3458 -51.32173,-20.93793 -51.71496,-21.31585 -0.39323,-0.37793 2.17054,-3.93719 5.69727,-7.90947 13.81955,-15.56549 27.20468,-34.0696 36.49379,-50.45044 2.4024,-4.23648 4.7479,-7.46788 5.2123,-7.18089 0.4643,0.28699 19.8277,23.1032 43.0297,50.70269 23.202,27.59949 46.734,55.58089 52.2933,62.18089 5.5593,6.6 10.4451,12.5625 10.8573,13.25 1.2003,2.00227 -2.2136,1.38504 -9.3687,-1.69381 z m -542.5,-66.53736 -11,-10.46451 28.99177,-29.02539 28.99176,-29.0254 5.777,5.777 5.777,5.777 -24.51876,24.44414 C 589.03345,800.44594 578,811.82961 578,812.2987 c 0,0.92732 71.45996,0.31636 76.70962,-0.65584 8.87902,-1.64433 22.46868,-7.66408 30.29038,-13.41759 5.76622,-4.24154 14.43486,-13.36619 18.26448,-19.22527 10.6731,-16.32922 15.13936,-38.37123 11.14436,-55 -0.85888,-3.575 -1.72317,-7.27074 -1.92063,-8.21276 -0.39746,-1.89609 -2.98271,-8.0247 -4.88585,-11.58241 -1.1313,-2.11485 -0.757,-2.76303 4.76409,-8.25 3.29552,-3.27516 6.16543,-5.95483 6.37757,-5.95483 0.92625,0 8.61653,17.81185 10.50514,24.33149 1.71609,5.92407 2.08489,10.03287 2.12444,23.66851 0.0465,16.02971 -0.0467,16.7911 -3.27063,26.71332 -7.87173,24.22673 -24.50128,43.85021 -46.12091,54.42435 -19.328,9.45331 -28.57746,10.86529 -71.10139,10.854 l -31.38067,-0.008 -11,-10.46451 z m 295.5,9.94509 c -0.825,-0.16725 -5.1,-0.85931 -9.5,-1.53793 -8.76928,-1.35248 -16.55992,-3.60773 -23.5,-6.80282 -5.95221,-2.74029 -13.19438,-6.84531 -13.91948,-7.88986 -0.31929,-0.45996 -2.75246,-2.37663 -5.40706,-4.25928 -2.86329,-2.03066 -4.28695,-3.59867 -3.5,-3.85487 0.7296,-0.23752 4.86704,-1.70563 9.19433,-3.26247 8.38054,-3.01508 9.46854,-2.89317 15.63221,1.75153 3.45197,2.60126 15.95791,6.68465 24.41837,7.97298 C 867.228,813.07498 931,813.65169 931,812.24662 931,811.83226 906.025,786.52128 875.5,756 844.975,725.47872 820,700.07248 820,699.5417 c 0,-0.53078 2.54785,-3.33623 5.66189,-6.23434 l 5.6619,-5.26929 61.0881,61.09706 61.08811,61.09706 -10.5,9.85697 -10.5,9.85698 -33.5,-0.0891 c -18.425,-0.049 -34.175,-0.22591 -35,-0.39315 z m 93.97306,-25.66991 3.47306,-3.8352 -29.37765,-29.39031 -29.37765,-29.39032 2.99532,-3.83909 C 919.82666,719.21521 931.28042,695.0947 938.37477,668.5 940.01512,662.35076 944,639.23921 944,635.87467 944,634.0695 942.32863,634 898.91413,634 c -38.26126,0 -46.0946,0.24649 -51.75,1.62839 -10.6057,2.59152 -18.05056,5.38705 -27.04589,10.15566 l -8.38175,4.44335 -13.39979,-13.39979 -13.3998,-13.3998 13.55952,-13.6145 c 10.43982,-10.48215 13.84068,-13.34978 14.78155,-12.46391 2.64484,2.49025 22.44976,11.6506 25.1889,11.6506 0.91554,0 2.52321,0.4595 3.5726,1.02112 5.13572,2.74856 24.69764,3.97888 63.26345,3.97888 h 38.93007 l -0.69608,-6.75 c -0.38285,-3.7125 -1.09833,-8.60067 -1.58995,-10.86261 -0.49162,-2.26193 -1.08584,-5.63693 -1.3205,-7.5 -0.52784,-4.1907 -5.05303,-21.28368 -7.17177,-27.08986 -0.86252,-2.36364 -1.98025,-5.60124 -2.48384,-7.19466 -1.92912,-6.10389 -15.67031,-32.55931 -17.97306,-34.60287 -0.30988,-0.275 -2.0163,-2.79741 -3.79203,-5.60535 -1.77574,-2.80795 -4.06338,-5.86081 -5.08366,-6.78415 -1.77554,-1.60684 -0.59032,-2.94015 27.64901,-31.10395 l 29.50407,-29.42514 5.28713,6.45021 c 66.89319,81.60863 79.40009,198.30883 31.34403,292.46838 -10.53625,20.64439 -26.23089,43.76597 -38.05599,56.0646 -2.94269,3.06054 -3.78747,3.83877 -1.87729,1.72941 z M 622.26578,785.8481 636.5,771.46117 l 4.5,2.95342 c 2.475,1.62437 4.725,3.23187 5,3.5722 0.275,0.34033 2.3,1.69628 4.5,3.01321 2.2,1.31693 4.225,2.69618 4.5,3.06498 0.275,0.36881 3.79227,2.38939 7.81615,4.49018 l 7.31615,3.81963 -2.68802,1.40839 c -9.18694,4.81353 -13.22097,5.46998 -36.6785,5.9686 l -22.73423,0.48325 z M 744,799.36712 c -3.025,-0.1865 -8.29511,-0.60435 -11.71135,-0.92856 -6.02105,-0.57141 -6.17424,-0.65609 -5,-2.76402 0.66624,-1.19599 1.47198,-2.39954 1.79053,-2.67454 0.31855,-0.275 1.83164,-2.75 3.36242,-5.5 l 2.78324,-5 h 19.63758 c 19.3094,0 24.90422,-0.60407 38.63758,-4.17166 18.19773,-4.72733 35.23663,-12.2217 49.5144,-21.77836 4.56046,-3.05249 8.57573,-5.54998 8.92283,-5.54998 0.3471,0 3.09072,2.49628 6.09693,5.54729 l 5.46584,5.54728 -2.5,1.96438 c -9.37518,7.36657 -23.78391,15.88547 -34.5,20.3975 -1.65,0.69474 -4.125,1.76472 -5.5,2.37773 -8.08177,3.60311 -25.32211,8.51703 -37,10.54592 -8.74308,1.519 -30.25696,2.58771 -40,1.98702 z m 113.5,-0.39766 c -5.66139,-0.88434 -12.63374,-3.2493 -15.50155,-5.25799 -1.78953,-1.25344 -1.36897,-1.67169 5.75856,-5.72695 8.15521,-4.63997 16.76424,-10.3464 21.78675,-14.4412 l 3.04377,-2.48155 14.4433,14.46911 L 901.47413,800 881.98707,799.87524 C 871.26918,799.80663 860.25,799.39903 857.5,798.96946 Z M 543.79501,792.36089 C 483.74696,717.04945 468.44507,614.91917 503.73707,525 c 9.84702,-25.08884 28.04495,-56.0639 42.59395,-72.5 l 3.54074,-4 28.56412,28.49342 C 594.14615,492.6648 607,505.76594 607,506.10706 c 0,0.34112 -1.03297,1.69408 -2.29548,3.00658 C 602.38715,511.52275 595,521.65141 595,522.41969 c 0,0.22828 -2.025,3.8402 -4.5,8.02648 -2.475,4.18629 -4.5,7.82568 -4.5,8.08753 0,0.26186 -1.14743,2.8364 -2.54985,5.7212 C 574.53045,562.60291 567,591.22199 567,606.77285 V 614 l 38.75,-0.0317 c 43.35111,-0.0354 53.33244,-0.88538 67.75,-5.76905 4.95,-1.67671 12.54558,-4.93077 16.87906,-7.23124 l 7.87906,-4.18266 13.37562,13.34809 13.37562,13.34809 -13.40958,13.40958 -13.40958,13.40958 -8.89612,-4.59466 c -9.87225,-5.0988 -15.19288,-7.0879 -26.29408,-9.82991 -6.7297,-1.66224 -12.07223,-1.85372 -52.01723,-1.86431 L 566.46554,634 l 0.62893,8.75 c 0.77981,10.84901 3.85134,26.42011 7.052,35.75 0.56604,1.65 1.38989,4.35 1.83078,6 1.73224,6.48287 12.39899,29.8301 14.76682,32.32143 0.69076,0.72678 1.25593,1.70001 1.25593,2.16271 0,0.78617 5.88796,10.30197 7.74427,12.51586 0.46116,0.55 2.2505,3.05976 3.97629,5.57725 l 3.13781,4.57725 -28.79649,28.78364 -28.79648,28.78365 z M 673.42595,779.73263 C 641.25445,762.86747 612.73264,733.94036 597.27544,702.5 590.50343,688.72555 585.78303,674.88682 582.43755,659 c -1.33193,-6.325 -2.42526,-11.89175 -2.42962,-12.37056 -0.004,-0.48797 16.58215,-0.64124 37.74207,-0.34876 30.82835,0.42613 38.85013,0.82481 43.75,2.1744 7.51144,2.0689 17.69161,5.94848 23.2557,8.86255 l 4.25571,2.22884 -6.25595,6.20034 -6.25595,6.20034 -4.99975,-2.39047 C 660.12802,664.11966 652.27206,663 625.49549,663 H 600.8242 l 0.70615,4.25 c 0.38838,2.3375 1.32793,5.46515 2.0879,6.95034 0.75996,1.48519 1.38175,3.40379 1.38175,4.26357 0,0.85977 0.4153,2.34462 0.9229,3.29966 0.50759,0.95504 2.95173,6.01143 5.43141,11.23643 14.86829,31.32936 41.00747,57.92634 71.32959,72.57885 5.60114,2.70663 10.21364,5.31005 10.25,5.78536 0.0788,1.03059 -9.84473,12.64345 -10.78284,12.61842 -0.35808,-0.01 -4.28438,-1.92205 -8.72511,-4.25 z M 740.97125,766.75 c 0.41834,-1.7875 1.34148,-5.275 2.05141,-7.75 0.82693,-2.88289 1.28057,-10.42941 1.26235,-21 -0.0234,-13.59549 -0.40307,-17.90825 -2.15669,-24.5 -3.18177,-11.96007 -6.84994,-20.93056 -11.70149,-28.61591 l -2.60144,-4.12095 3.8373,-4.00619 c 2.11052,-2.2034 8.21504,-8.35322 13.5656,-13.66626 l 9.7283,-9.66007 13.54021,13.56618 c 8.42407,8.44022 13.19624,13.93213 12.62984,14.53469 -1.9065,2.02824 -11.51209,22.49563 -11.70831,24.94783 -0.0449,0.56137 -0.92781,3.72068 -1.96198,7.02068 -2.6282,8.3865 -2.73694,39.17092 -0.16833,47.65391 2.85205,9.41904 3.67349,8.84609 -12.68271,8.84609 h -14.39469 z m 39.68752,-5.5 c -5.36348,-18.602 -2.38552,-48.51255 6.39689,-64.25 11.30954,-20.26592 24.93213,-33.43786 43.65668,-42.21248 16.14856,-7.56747 19.0871,-7.97396 61.69154,-8.53382 33.35328,-0.43829 37.83503,-0.31868 37.33044,0.99626 -0.31538,0.82189 -0.87819,3.68937 -1.25067,6.37219 -0.87025,6.26791 -5.21872,23.0143 -6.68979,25.76303 -0.6225,1.16315 -1.02742,2.23793 -0.89981,2.3884 0.26562,0.31322 -3.3942,10.28891 -4.75256,12.95421 -0.49677,0.97471 -1.93307,4.02221 -3.19179,6.77221 -3.00586,6.56709 -10.11017,18.29498 -15.22748,25.13772 l -4.09233,5.47217 -6.02108,-6.02108 -6.02107,-6.02107 2.07082,-2.28387 c 1.13895,-1.25613 3.36921,-4.46113 4.95613,-7.12224 1.58692,-2.6611 3.64676,-6.0361 4.57743,-7.5 C 898.62658,694.61345 909,669.26369 909,664.53155 c 0,-1.33446 -3.18496,-1.53003 -24.75,-1.51974 -25.38708,0.0121 -31.35042,0.72614 -43.25,5.1786 -20.15087,7.53984 -37.56214,27.15308 -44.16885,49.7548 -2.52177,8.62704 -2.76988,31.32576 -0.4163,38.08561 2.39505,6.87893 2.17753,7.4172 -3.75274,9.28656 -9.14032,2.88123 -10.09294,2.55843 -12.00334,-4.06738 z M 328,762.98758 c 0,-0.55683 2.3625,-2.50681 5.25,-4.33329 25.20059,-15.94055 132.8061,-82.73859 134.05841,-83.21914 1.1398,-0.43739 1.74138,0.0644 2.06656,1.72393 4.0679,20.75957 11.91024,46.05775 20.0405,64.64764 l 4.43098,10.13146 -3.17322,0.52663 c -1.74528,0.28965 -13.29823,1.21341 -25.67323,2.05281 -41.6765,2.82691 -99.85719,6.92708 -120.5,8.492 -16.10682,1.22105 -16.5,1.22053 -16.5,-0.022 z m 837.5,-0.0621 c -17.4807,-1.38068 -72.7213,-5.30019 -118,-8.37252 -12.65,-0.85835 -24.428,-1.79782 -26.1732,-2.08771 l -3.1733,-0.52707 4.431,-10.13146 c 8.1108,-18.54527 16.0877,-44.27084 20.0177,-64.55672 0.2398,-1.2375 0.7885,-2.25 1.2194,-2.25 1.5347,0 139.5262,86.5433 139.9318,87.76021 0.4663,1.39881 -2.3167,1.424 -18.2534,0.16527 z M 690,755.18507 c -7.65556,-3.85988 -15.10222,-8.13187 -16,-9.17886 -0.275,-0.32071 -1.97954,-1.49966 -3.78786,-2.61989 l -3.28786,-2.03679 14.73757,-14.68934 c 11.80024,-11.76163 14.98395,-14.43731 15.97377,-13.42477 2.11285,2.16135 5.36375,16.79372 5.3772,24.20292 0.0143,7.90608 -2.80525,21.57066 -4.44566,21.54491 -0.58694,-0.009 -4.44216,-1.71839 -8.56716,-3.79818 z m 119.34518,-0.0161 c -2.55148,-5.80021 -3.00219,-24.46537 -0.76822,-31.81434 1.89475,-6.23307 2.09345,-6.92922 2.31335,-8.10464 0.0772,-0.4125 0.57133,-1.425 1.09813,-2.25 0.76734,-1.20172 3.84657,1.38084 15.48468,12.98707 7.98979,7.96788 14.52688,14.79582 14.52688,15.1732 0,1.72447 -22.79151,15.185 -28.77043,16.99164 -1.92583,0.58192 -2.5154,0.12918 -3.88439,-2.98293 z M 650.71241,727.21565 C 648.12058,724.58426 646,721.99484 646,721.46139 c 0,-0.53345 19.79851,-20.76459 43.9967,-44.95809 l 43.99669,-43.98817 5.74574,5.74574 5.74574,5.74574 -43.98817,43.99669 C 677.3032,712.20149 657.03969,732 656.46667,732 c -0.57302,0 -3.16244,-2.15296 -5.75426,-4.78435 z m -15.15646,-18.03936 c -0.31835,-1.00305 -1.56501,-2.88226 -2.77034,-4.17604 C 630.30772,702.34055 618,678.52477 618,676.38968 618,675.27448 620.57595,675 631.04216,675 c 13.25081,0 24.56149,1.65724 32.21728,4.72048 l 3.92506,1.5705 -14.82975,14.85451 C 644.19839,704.31547 637.2122,711 636.82989,711 c -0.38231,0 -0.95559,-0.82067 -1.27394,-1.82371 z m 222.092,-13.02809 -14.81261,-14.83735 2.83233,-1.15954 c 7.9248,-3.24437 14.68362,-4.33302 30.08233,-4.84541 16.80635,-0.55923 17.34097,-0.43899 15.37306,3.45767 -0.48232,0.95504 -2.78013,5.56143 -5.10625,10.23643 -4.97029,9.98923 -7.58999,14.45271 -11.03653,18.80422 l -2.51972,3.18133 z m -108.65132,-66.65157 -40.45766,-40.46691 5.48052,-5.74169 c 3.01428,-3.15793 5.58937,-5.93597 5.72242,-6.17343 0.13305,-0.23746 18.54443,17.87645 40.91418,40.25315 l 40.67227,40.68489 -5.93704,5.95545 -5.93704,5.95544 z m -362.77814,15.575 c -43.60484,-10.89073 -79.56734,-20.08714 -79.91667,-20.43648 -0.34933,-0.34933 -0.34974,-0.92056 -9e-4,-1.2694 0.88334,-0.88334 159.97379,-40.42437 160.50544,-39.89272 0.23736,0.23735 -0.10652,5.6505 -0.76416,12.02921 -1.43334,13.90236 -1.4696,44.68064 -0.0666,56.49776 1.2107,10.19719 1.27058,13.02085 0.27437,12.93648 -0.4125,-0.0349 -36.42668,-8.97412 -80.03151,-19.86485 z m 658.78911,17.69742 c 0,-1.24798 0.4617,-6.09405 1.0168,-10.76905 1.403,-11.81712 1.3667,-42.5954 -0.067,-56.49776 -0.6576,-6.37871 -1.0015,-11.79186 -0.7642,-12.02921 0.5317,-0.53165 159.6221,39.00938 160.5055,39.89272 0.3488,0.34884 0.3506,0.91786 0,1.26449 -0.4516,0.45164 -128.9158,32.77379 -158.4531,39.8675 -1.8323,0.44005 -2.2486,0.11915 -2.2424,-1.72869 z m -275.2617,-54.52056 -5.72124,-5.78157 44.48434,-44.47592 44.48434,-44.47592 5.7472,5.7472 5.74719,5.74719 -44.51029,44.5103 -44.5103,44.51029 z M 580.00558,599.75 c 0.003,-0.6875 0.43887,-2.825 0.96845,-4.75 0.52959,-1.925 1.16105,-5.13029 1.40326,-7.12288 0.66128,-5.44033 4.68217,-18.87818 8.93986,-29.87712 4.62132,-11.93832 15.80752,-31.62075 22.89936,-40.29207 l 2.28349,-2.79207 5.71326,5.79207 5.71326,5.79207 -5.04038,7.37973 C 618.35799,540.50949 610.77793,554.62381 606.71012,564 604.73206,568.55939 601,580.78737 601,582.70907 c 0,2.38303 53.4322,1.35275 60.5,-1.16657 14.55128,-5.1868 24.04168,-10.97045 32.98682,-20.10286 16.63321,-16.98142 25.33854,-45.83615 19.90569,-65.97954 -3.49716,-12.96646 -3.47423,-12.41065 -0.53877,-13.05437 1.45544,-0.31916 5.05713,-1.24265 8.00375,-2.0522 2.94661,-0.80954 5.44548,-1.33276 5.55303,-1.16271 0.10755,0.17005 1.07168,3.68418 2.14251,7.80918 2.67679,10.31139 2.70737,35.62847 0.0537,44.5 -3.20318,10.70878 -8.56072,23.5 -9.84285,23.5 -0.42016,0 -0.76392,0.48142 -0.76392,1.06982 0,2.11227 -6.44669,10.37673 -13.91152,17.83417 -14.88469,14.86993 -29.46521,22.25542 -50.58848,25.62462 -12.14498,1.93715 -74.5029,2.12247 -74.49442,0.22139 z M 854,599.4182 c -6.58431,-1.14445 -10.37069,-2.13712 -18.55696,-4.86505 C 830.75939,592.9924 822.5,588.34674 822.5,587.27308 c 0,-0.63535 2.39978,-3.64683 5.33285,-6.69218 l 5.33285,-5.53701 3.95438,2.01737 c 11.02044,5.62221 14.5793,6.16 44.12992,6.66859 31.60001,0.54387 29.76005,1.12521 25.78554,-8.14694 C 905.95508,573.06231 905.24856,571 905.46548,571 c 0.59682,0 -4.50625,-12.35982 -5.55318,-13.45 -0.50176,-0.5225 -0.9123,-1.463 -0.9123,-2.09 0,-1.45865 -8.44608,-16.4367 -12.94828,-22.96211 -6.0259,-8.73386 -18.70942,-22.83967 -25.63807,-28.51307 -3.68409,-3.01665 -7.42179,-6.21171 -8.306,-7.10013 -3.31957,-3.3354 -16.45918,-11.32384 -27.33826,-16.62074 -4.25184,-2.07017 -7.73934,-4.2536 -7.75,-4.85206 -0.0107,-0.59846 2.37273,-3.72035 5.29644,-6.93754 l 5.31583,-5.84942 9.43417,5.04636 c 23.39607,12.5146 42.94106,29.11581 57.4872,48.82871 4.05845,5.5 8.24836,11.14071 9.31092,12.53492 2.49415,3.27263 13.33776,25.55144 16.53349,33.96897 2.92578,7.7065 7.13342,23.51152 8.08621,30.37396 0.37248,2.68282 0.91418,5.49532 1.20378,6.25 0.73234,1.90844 -64.54173,1.72764 -75.68743,-0.20965 z M 741.30193,579.75 728.13165,566.5 l 2.42789,-4 c 1.33534,-2.2 2.92914,-5.125 3.54177,-6.5 0.61264,-1.375 1.5564,-3.34694 2.09725,-4.38208 1.58202,-3.02788 3.80253,-9.56677 5.98278,-17.61792 2.91396,-10.76056 2.93109,-38.09996 0.0307,-49 l -1.99567,-7.5 7.14181,-0.57098 c 3.928,-0.31403 10.40432,-0.36158 14.39182,-0.10566 8.19002,0.52565 8.18603,0.51966 5.73423,8.602 -2.00473,6.60858 -2.91261,28.16261 -1.60375,38.07464 1.81103,13.71505 7.06443,28.80457 13.37288,38.41137 l 2.89678,4.41136 -13.31117,13.33864 C 761.51782,586.99762 755.29028,593 755,593 c -0.29028,0 -6.45441,-5.9625 -13.69807,-13.25 z M 401.45168,531.91464 C 323.62096,483.4291 328,486.2269 328,484.98581 c 0,-1.21361 0.43258,-1.21349 16.5,0.005 20.64281,1.56492 78.8235,5.66509 120.5,8.492 12.375,0.8394 23.92795,1.76316 25.67323,2.05281 l 3.17322,0.52663 -4.43098,10.13146 c -8.11075,18.54527 -16.08771,44.27084 -20.01768,64.55672 -0.23974,1.2375 -0.78657,2.25 -1.21516,2.25 -0.4286,0 -30.45753,-18.48841 -66.73095,-41.08536 z m 641.17332,38.92628 c -4.0679,-20.75957 -11.9102,-46.05775 -20.0405,-64.64764 l -4.431,-10.13146 3.1733,-0.52663 c 1.7452,-0.28965 13.2982,-1.21341 25.6732,-2.05281 38.4585,-2.60864 91.654,-6.35292 121.3406,-8.54084 8.1623,-0.60156 15.1105,-0.82379 15.4404,-0.49384 0.33,0.32996 -0.048,1.20755 -0.8405,1.95021 -1.7469,1.63748 -135.9494,85.28453 -138.2398,86.16346 -1.1505,0.44146 -1.7493,-0.0549 -2.0757,-1.72045 z M 618,570.45034 c 0,-0.30231 0.68412,-1.8726 1.52026,-3.48952 0.83615,-1.61693 1.51028,-3.17 1.49808,-3.45127 -0.0439,-1.01125 4.65955,-10.14859 8.82656,-17.14741 7.23445,-12.15083 5.56217,-12.48362 22.49388,4.47637 16.58646,16.61415 16.20318,15.13162 4.79639,18.55256 C 653.12309,570.5943 647.5127,571 634.88517,571 625.59832,571 618,570.75265 618,570.45034 Z m 231.40968,-2.05939 -7.09031,-2.45116 14.97306,-14.9699 C 865.52762,542.73645 872.414,536 872.59549,536 874.14599,536 892,567.47169 892,570.2048 c 0,0.43736 -7.9875,0.75967 -17.75,0.71625 -16.12543,-0.0717 -18.39894,-0.30329 -24.84032,-2.5301 z M 618.24685,498.74687 C 585.66108,466.15766 559,438.97759 559,438.34673 c 0,-0.63086 4.66506,-5.46695 10.3668,-10.74687 L 579.7336,418 l 33.8832,0.0439 c 33.91754,0.044 43.46756,0.64262 52.95528,3.31962 10.03527,2.83149 24.63919,10.72157 33.58237,18.1436 l 2.65445,2.20295 -8.65445,2.82487 c -4.75995,1.55368 -9.15893,2.9948 -9.77551,3.20247 -0.61658,0.20768 -1.77724,-0.27858 -2.57924,-1.08057 -1.68542,-1.68543 -13.02654,-7.11947 -19.71979,-9.44865 -3.77179,-1.31255 -11.58475,-1.69208 -44.27904,-2.15098 L 578.10175,434.5 l 2.69912,2.84289 c 1.48452,1.56359 26.74257,26.89249 56.12899,56.28643 l 53.42987,53.44354 -5.39571,5.46357 C 681.99639,555.54139 679.10153,558 678.53101,558 c -0.57052,0 -27.69839,-26.66391 -60.28416,-59.25313 z m 171.62422,56.54776 c -1.97489,-2.33221 -7.37176,-15.26908 -9.30065,-22.29463 -4.48754,-16.34492 -2.89211,-43.82578 3.33821,-57.5 0.50119,-1.1 1.93325,-4.25 3.18235,-7 1.24911,-2.75 2.54723,-5.225 2.88472,-5.5 0.33748,-0.275 1.53022,-2.075 2.65053,-4 3.21401,-5.52254 10.7428,-13.81898 18.39806,-20.27396 6.79907,-5.73303 13.69298,-9.93161 21.97571,-13.3838 16.58001,-6.91043 14.63017,-6.67745 59,-7.04978 l 40.5,-0.33985 10,9.46325 10,9.46325 -29.24563,29.30394 -29.24564,29.30394 -5.7451,-5.7451 -5.74511,-5.74511 24.49074,-24.53054 24.49074,-24.53055 -39.5,0.29483 -39.5,0.29484 -7.85145,2.8286 c -24.23196,8.72993 -40.71322,26.54826 -48.12303,52.02708 -1.23258,4.23826 -1.71109,9.59804 -1.71305,19.18772 -0.002,11.70764 0.31906,14.30066 2.67494,21.57822 1.47271,4.54935 3.35995,9.59095 4.19386,11.20355 1.51262,2.92509 1.50228,2.94592 -4.38716,8.83536 -5.55155,5.55155 -5.99393,5.79641 -7.42304,4.10874 z m -107.89022,-34.81381 -14.47052,-14.49639 2.65708,-2.24221 c 4.84332,-4.08712 26.04357,-15.74498 28.62592,-15.74118 1.37683,0.002 4.23486,14.60113 4.22087,21.56062 -0.0148,7.36869 -3.26245,22.03778 -5.3526,24.17694 -0.95533,0.97773 -4.25797,-1.81459 -15.68075,-13.25778 z m 127.56266,6.46756 c -1.96347,-6.21548 -2.5408,-10.14928 -2.53164,-17.25 0.0114,-8.83772 1.86122,-18.97147 3.82075,-20.931 C 812.42278,487.17722 842,503.29944 842,505.75638 842,506.71281 813.73662,535 812.781,535 c -0.3817,0 -1.83857,-3.62323 -3.23749,-8.05162 z M 652.11376,490.61519 c -2.94389,-2.98091 -5.06083,-5.89182 -4.70431,-6.46868 1.0867,-1.75831 19.64699,-13.68512 27.12827,-17.43257 25.06066,-12.55317 53.89187,-19.64638 80.05328,-19.69513 10.46649,-0.0195 26.32923,1.64997 27.68768,2.91399 0.42827,0.39851 -0.0332,1.81415 -1.02545,3.14588 -0.99227,1.33173 -2.80821,4.5017 -4.03544,7.04439 l -2.23131,4.62306 -13.51673,-0.51577 c -19.13344,-0.73011 -34.67263,1.19873 -52.46975,6.51294 -3.025,0.90326 -5.73958,1.66803 -6.0324,1.69949 -3.40133,0.36547 -29.0733,13.17699 -36.9287,18.42916 -3.5964,2.40457 -6.99648,4.54996 -7.55576,4.76752 -0.55927,0.21757 -3.42549,-2.04336 -6.36938,-5.02428 z M 495.36099,483.76812 C 493.67444,481.97065 474.35827,459.125 452.43619,433 430.5141,406.875 407.65473,379.65 401.63758,372.5 c -6.73445,-8.00235 -10.40154,-13.10432 -9.53893,-13.27137 0.77074,-0.14925 5.90135,1.57215 11.40135,3.82534 5.5,2.25319 23.95,9.73641 41,16.62937 80.17846,32.4145 100.05134,40.53614 100.70339,41.1554 0.38686,0.36742 -2.6765,4.49151 -6.80746,9.16465 -13.52898,15.30462 -24.90459,31.35197 -37.75816,53.26473 l -2.21031,3.76812 z m 513.76651,-4.27386 c -9.83178,-17.28031 -21.85247,-33.97945 -35.98343,-49.98817 -3.88094,-4.39664 -6.73852,-8.29573 -6.35016,-8.66464 0.65452,-0.62174 20.48644,-8.72696 100.70609,-41.15811 17.05,-6.89296 35.5,-14.37618 41,-16.62937 5.5,-2.25319 10.6306,-3.97459 11.4013,-3.82534 0.8626,0.16704 -2.8055,5.26953 -9.5406,13.27137 -6.0182,7.15 -29.9289,35.5814 -53.135,63.18089 -23.2062,27.59949 -42.573,50.4157 -43.0373,50.70269 -0.4644,0.28699 -2.7418,-2.8132 -5.0609,-6.88932 z M 622.87518,461.37496 608.52587,447 h 20.49025 c 21.63052,0 28.23607,1.00342 37.33481,5.67135 l 3.76222,1.93013 -2.80658,1.4479 c -3.46039,1.78519 -14.44295,8.1523 -15.80657,9.16381 -0.55,0.40798 -3.98699,2.94565 -7.63775,5.63926 l -6.63776,4.89747 z m 248.12617,13.12667 c -1.98222,-2.38843 -19.60268,-13.88571 -26.20012,-17.09547 l -5.69877,-2.77254 4.19877,-1.91342 c 2.30932,-1.05238 4.64877,-2.02013 5.19877,-2.15057 0.55,-0.13043 3.51055,-0.99652 6.57901,-1.92464 4.59703,-1.39047 9.13187,-1.63975 25.76428,-1.41624 l 20.18527,0.27125 -14.33971,14.31281 c -12.74844,12.72452 -14.48927,14.13259 -15.6875,12.68882 z m -156.07704,-39.0851 c -7.03092,-7.49252 -26.9555,-20.13987 -37.60046,-23.86732 -15.85199,-5.55076 -17.18866,-5.71935 -49.65843,-6.26331 l -30.83459,-0.51657 4.83459,-3.45522 c 7.42989,-5.31005 24.83426,-15.59089 34.83458,-20.57694 73.81145,-36.80153 165.18855,-36.80153 239,0 9.99725,4.98452 27.40419,15.26651 34.82865,20.57272 l 4.82865,3.45101 -32.32865,0.52716 c -28.39118,0.46296 -33.20104,0.77339 -39.49145,2.54878 -3.93954,1.11189 -8.55204,2.74002 -10.25,3.61807 -1.69796,0.87805 -3.0872,1.37243 -3.0872,1.09862 0,-0.89577 -14.35043,6.9163 -20.94562,11.40236 -3.5451,2.41138 -8.60819,6.61623 -11.25131,9.34412 -5.33334,5.50438 -4.53053,5.38838 -19.27994,2.78568 -9.47553,-1.67207 -40.66277,-1.44335 -50.02313,0.36685 -10.43251,2.01754 -10.73167,1.99471 -13.57569,-1.03601 z M 552.69206,413.30158 C 552.21458,412.52004 537.00783,375.14107 511.68334,312.5 c -6.89296,-17.05 -14.37618,-35.5 -16.62937,-41 -2.25319,-5.5 -3.97459,-10.63061 -3.82534,-11.40135 0.16704,-0.86256 5.26953,2.80558 13.27137,9.54069 7.15,6.01811 35.5814,29.92887 63.18089,53.13501 27.59949,23.20614 50.4157,42.57291 50.70269,43.03727 0.28699,0.46436 -2.94441,2.80988 -7.18089,5.21227 -16.2817,9.2329 -35.74142,23.41519 -52.86179,38.5258 -2.83751,2.50441 -5.37949,4.19276 -5.64884,3.75189 z m 398.55569,-5.78389 c -15.56549,-13.81955 -34.0696,-27.20468 -50.45044,-36.4938 -4.23648,-2.40239 -7.46788,-4.74791 -7.18089,-5.21227 0.28699,-0.46436 23.1032,-19.83113 50.70269,-43.03727 27.59949,-23.20614 56.03089,-47.1169 63.18089,-53.13501 8.0018,-6.73511 13.1043,-10.40325 13.2714,-9.54069 0.1492,0.77074 -1.5716,5.90135 -3.8242,11.40135 -2.2525,5.5 -9.7326,23.95 -16.6225,41 -30.84336,76.32679 -40.54139,100.04837 -41.17502,100.71496 -0.37378,0.39323 -3.92965,-2.17054 -7.90193,-5.69727 z M 627.53519,358.67323 C 627.24554,356.92795 626.32178,345.375 625.48238,333 c -2.60864,-38.45855 -6.35292,-91.65401 -8.54084,-121.34056 -0.60156,-8.16231 -0.82379,-15.11052 -0.49384,-15.44048 0.32996,-0.32995 1.20755,0.0483 1.95021,0.84056 1.63748,1.74683 85.28453,135.94934 86.16346,138.23981 0.44146,1.15043 -0.0549,1.74927 -1.72045,2.07564 -20.75957,4.0679 -46.05775,11.91024 -64.64764,20.0405 l -10.13146,4.43098 z m 246.0012,-1.3609 c -18.36228,-8.04163 -43.67332,-15.88035 -64.37731,-19.93736 -1.66554,-0.32637 -2.16191,-0.92521 -1.72045,-2.07564 0.87893,-2.29047 84.52598,-136.49298 86.16346,-138.23981 0.74266,-0.79226 1.62126,-1.1695 1.95244,-0.83832 0.33119,0.33119 0.12403,7.0544 -0.46035,14.94048 -2.09632,28.28932 -6.1711,86.21221 -8.60631,122.33832 -0.8898,13.2 -1.92607,24.93956 -2.30284,26.08791 -0.6653,2.02776 -0.97206,1.96221 -10.64864,-2.27558 z M 715.50226,332.75 c 7.09371,-29.5373 39.41586,-158.00146 39.8675,-158.45309 0.34663,-0.34664 0.91565,-0.34483 1.26449,0.004 0.88334,0.88334 40.42437,159.97379 39.89272,160.50544 -0.23735,0.23736 -5.6505,-0.10652 -12.02921,-0.76416 -13.90236,-1.43334 -44.68064,-1.4696 -56.49776,-0.0666 -12.58618,1.49434 -13.13798,1.44023 -12.49774,-1.22563 z"
         id="path18" />
      <path
         style="fill:#000000"
         d="m 746.5,1412.3191 c -40.33262,-9.0517 -62.49618,-16.485 -92.5,-31.0232 -61.1215,-29.616 -124.18829,-72.7999 -176.49892,-120.8546 -32.04111,-29.4342 -73.79887,-74.1114 -93.0354,-99.5397 -27.73724,-36.6652 -40.38968,-54.895 -55.39081,-79.808 -5.55693,-9.2287 -24.33341,-42.9459 -28.92857,-51.9476 -3.14059,-6.1523 -18.10979,-38.94182 -19.69716,-43.146 -0.72682,-1.925 -2.74193,-6.875 -4.47803,-11 -3.28499,-7.80519 -4.95433,-12.44198 -11.7007,-32.5 -7.82984,-23.27935 -10.28259,-31.95819 -14.80703,-52.39336 -1.3874,-6.26635 -2.72884,-11.72715 -2.98098,-12.13512 -0.68356,-1.10602 -5.40376,-29.79565 -7.06995,-42.97152 -2.43085,-19.22263 -4.15884,-109.01719 -6.32161,-328.5 -0.58532,-59.4 -1.51936,-123.525 -2.07565,-142.5 -0.55629,-18.975 -1.28042,-62.69893 -1.60919,-97.1643 -0.65958,-69.14647 -0.66762,-69.03309 5.49944,-77.54646 4.44115,-6.13084 8.52062,-8.77999 25.81121,-16.76145 42.58369,-19.65694 90.01682,-36.81765 144.78335,-52.38079 9.95177,-2.82802 50.67081,-12.89675 59,-14.58913 18.63581,-3.78654 27.58475,-5.632819 34,-7.014649 3.85,-0.82928 11.725,-2.222118 17.5,-3.095195 5.775,-0.873078 12.075,-1.98459 14,-2.470027 1.925,-0.485437 9.125,-1.585358 16,-2.444269 6.875,-0.85891 14.525,-2.003561 17,-2.543668 2.475,-0.540106 13.05,-1.928425 23.5,-3.085151 35.25404,-3.902323 31.55816,-3.572027 91.5,-8.17726 18.86541,-1.449398 164.97907,-1.425584 181.5,0.02958 6.6,0.581329 22.0036,1.784938 34.23021,2.674688 12.22662,0.889749 25.72662,2.011313 30,2.492363 4.27339,0.48105 16.54479,1.809673 27.26979,2.952497 10.725,1.142823 20.85,2.346512 22.5,2.674865 1.65,0.328352 10.65,1.670712 20,2.983021 31.0416,4.356808 58.4069,9.194059 87,15.378605 27.114,5.86462 32.1282,7.02153 46,10.61338 7.7,1.99377 16.7,4.28192 20,5.08477 3.3,0.80286 8.7,2.3104 12,3.35009 3.3,1.0397 10.05,3.09509 15,4.56755 36.0327,10.71849 79.9306,27.37828 88.5026,33.58776 5.1798,3.75226 9.5937,10.66799 11.0167,17.26097 0.7401,3.42908 0.9785,17.84825 0.7213,43.62221 -0.4405,44.14886 -3.2494,262.05222 -4.7888,371.5 -0.5724,40.7 -1.4572,107.075 -1.9662,147.5 -0.6433,51.08922 -1.3728,77.92118 -2.3926,88 -1.9111,18.88762 -5.3198,43.05626 -7.0518,50 -0.7546,3.025 -1.6663,7.525 -2.0261,10 -0.3597,2.475 -2.0055,10.125 -3.6572,17 -17.4005,72.42793 -46.8629,139.2069 -90.2237,204.5 -15.6519,23.5688 -40.7829,56.2351 -59.6729,77.5653 -24.8111,28.0162 -66.8545,68.0457 -96.4613,91.8407 -35.47762,28.5133 -64.45244,48.3553 -105.74951,72.4172 -7.83777,4.5667 -16.05049,9.2229 -18.25049,10.3471 -2.2,1.1242 -8.275,4.296 -13.5,7.0485 -10.9124,5.7485 -52.6336,25.0096 -64.5,29.7773 -11.28932,4.5358 -22.85447,8.2611 -31.00854,9.9882 -6.51246,1.3795 -21.42969,1.8586 -25.99146,0.8348 z m 34,-18.3389 c 13.76307,-4.4465 25.42093,-9.2233 44.5,-18.234 5.225,-2.4677 11.75,-5.4897 14.5,-6.7155 12.83315,-5.7206 35.90113,-17.7276 51.5,-26.806 66.57023,-38.7433 121.1177,-80.9627 173.5867,-134.355 45.2072,-46.0027 82.9262,-96.0904 112.4343,-149.3035 9.0549,-16.3291 19.8758,-37.8123 24.9661,-49.5662 1.7864,-4.125 4.0951,-9.38781 5.1305,-11.69514 1.0353,-2.30732 1.8824,-4.44973 1.8824,-4.76089 0,-0.31117 0.8876,-2.47336 1.9724,-4.80487 2.1488,-4.61809 9.285,-24.38108 14.5298,-40.2391 5.776,-17.46377 12.6027,-43.79543 15.037,-58 0.8484,-4.95 1.9667,-10.35 2.4852,-12 1.1777,-3.7475 4.7129,-29.45483 6.6008,-48 0.9696,-9.52413 1.7227,-37.49832 2.3555,-87.5 0.5117,-40.425 1.3987,-106.8 1.9711,-147.5 3.9289,-279.33809 5.3382,-406.885 4.544,-411.26475 -0.9608,-5.29889 -6.0969,-9.41527 -17.5911,-14.09844 -5.7226,-2.33162 -11.3047,-4.66256 -12.4047,-5.17987 -2.6903,-1.26518 -25.2868,-9.243 -39.5,-13.94571 -57.4425,-19.00589 -125.8204,-34.46053 -197,-44.52558 -9.625,-1.36101 -18.625,-2.71092 -20,-2.9998 -1.375,-0.28889 -11.275,-1.46162 -22,-2.606088 -10.725,-1.144463 -22.9964,-2.474428 -27.26979,-2.955478 -4.27338,-0.48105 -17.77338,-1.602614 -30,-2.492363 C 880.5036,93.542171 865.1,92.339015 858.5,91.75824 841.99341,90.305724 697.84081,90.281703 679,91.72833 c -44.4577,3.413531 -56.30545,4.372592 -64,5.18072 -29.04616,3.050605 -47.01377,5.20579 -50.5,6.05738 -2.2,0.53741 -10.075,1.71189 -17.5,2.60997 -7.425,0.89807 -13.83904,1.83829 -14.25342,2.08937 -0.41439,0.25107 -7.38939,1.55299 -15.5,2.89314 -20.53381,3.39289 -54.25089,10.16154 -64.24658,12.89739 -3.025,0.82796 -12.25,3.13029 -20.5,5.11629 -20.54544,4.94586 -32.62203,8.38946 -62,17.67912 -16.36937,5.17619 -46.61737,15.74769 -52,18.17369 -1.65,0.74368 -4.125,1.67724 -5.5,2.0746 -1.375,0.39736 -3.85,1.31718 -5.5,2.04405 -1.65,0.72688 -7.05,2.9682 -12,4.98072 -4.95,2.01252 -11.37584,4.74275 -14.27964,6.06718 -2.90379,1.32443 -5.48809,2.40805 -5.74287,2.40805 -0.25478,0 -6.07453,2.70785 -12.93277,6.01743 -9.44976,4.56018 -13.14461,6.90421 -15.25713,9.6792 L 244.5,201.35839 v 33.07081 c 0,18.18894 0.27446,51.2958 0.60991,73.5708 0.33545,22.275 1.34567,97.2 2.24493,166.5 3.86586,297.91455 4.71936,341.23367 7.08313,359.5 3.663,28.30632 11.2576,64.49627 18.04742,86 4.59104,14.54008 8.72778,26.78466 9.96635,29.5 0.75263,1.65 1.90288,5.025 2.55611,7.5 0.65323,2.475 1.52992,4.95 1.9482,5.5 0.41828,0.55 1.46738,3.025 2.33134,5.5 6.32575,18.12154 22.11705,51.3737 37.99163,80 20.6551,37.2469 34.56429,58.1351 69.18666,103.9016 19.01507,25.1356 58.82833,67.8167 90.05297,96.5397 50.79747,46.7278 113.50253,89.9784 170.98135,117.9338 6.6,3.21 13.575,6.6371 15.5,7.6159 1.925,0.9787 4.625,2.1089 6,2.5116 1.375,0.4026 4.85052,1.7927 7.72337,3.089 2.87286,1.2963 6.47286,2.6556 8,3.0206 1.52715,0.3649 3.22663,0.9904 3.77663,1.3899 1.42552,1.0354 19.82464,6.2721 34.5,9.8192 6.875,1.6618 13.4,3.2592 14.5,3.5499 1.1,0.2907 6.725,0.3736 12.5,0.1842 8.47083,-0.2779 12.43254,-0.9688 20.5,-3.5752 z"
         id="path16" />
    </g>
  </g>
</svg>
