<?xml version="1.0" encoding="UTF-8" standalone="no"?>
<svg
   xmlns:dc="http://purl.org/dc/elements/1.1/"
   xmlns:cc="http://creativecommons.org/ns#"
   xmlns:rdf="http://www.w3.org/1999/02/22-rdf-syntax-ns#"
   xmlns:svg="http://www.w3.org/2000/svg"
   xmlns="http://www.w3.org/2000/svg"
   xmlns:sodipodi="http://sodipodi.sourceforge.net/DTD/sodipodi-0.dtd"
   xmlns:inkscape="http://www.inkscape.org/namespaces/inkscape"
   version="1.1"
   id="svg2"
   width="860.5282"
   height="1337.8187"
   viewBox="0 0 860.5282 1337.8187"
   sodipodi:docname="Odden.svg"
   inkscape:version="1.0.1 (3bc2e813f5, 2020-09-07)">
  <metadata
     id="metadata8">
    <rdf:RDF>
      <cc:Work
         rdf:about="">
        <dc:format>image/svg+xml</dc:format>
        <dc:type
           rdf:resource="http://purl.org/dc/dcmitype/StillImage" />
        <dc:title></dc:title>
      </cc:Work>
    </rdf:RDF>
  </metadata>
  <defs
     id="defs6" />
  <sodipodi:namedview
     pagecolor="#ffffff"
     bordercolor="#666666"
     borderopacity="1"
     objecttolerance="10"
     gridtolerance="10"
     guidetolerance="10"
     inkscape:pageopacity="0"
     inkscape:pageshadow="2"
     inkscape:window-width="1920"
     inkscape:window-height="1057"
     id="namedview4"
     showgrid="false"
     inkscape:pagecheckerboard="true"
     inkscape:zoom="0.49"
     inkscape:cx="408.72306"
     inkscape:cy="674.98202"
     inkscape:window-x="-8"
     inkscape:window-y="-8"
     inkscape:window-maximized="1"
     inkscape:current-layer="g10" />
  <g
     inkscape:groupmode="layer"
     inkscape:label="Image"
     id="g10"
     transform="translate(-341.27694,-75.01798)">
    <path
       style="fill:#ffffff;fill-opacity:1;stroke-width:0.906973"
       d="m 766.87401,1411.684 c -33.17761,-9.0517 -51.40936,-16.485 -76.09051,-31.0232 -50.27855,-29.616 -102.1573,-72.7999 -145.18803,-120.8546 -26.35702,-29.4342 -60.70696,-74.1114 -76.53093,-99.5397 -22.81666,-36.6652 -33.22457,-54.895 -45.56446,-79.808 -4.57111,-9.2288 -20.01666,-42.946 -23.79667,-51.9477 -2.58346,-6.1523 -14.89713,-38.94179 -16.20284,-43.14597 -0.59795,-1.925 -2.25557,-6.875 -3.68369,-11 -2.70224,-7.80519 -4.0754,-12.44198 -9.62499,-32.5 -6.4408,-23.27935 -8.45847,-31.95819 -12.18024,-52.39336 -1.14128,-6.26635 -2.24472,-11.72715 -2.45218,-12.13512 -0.56224,-1.10602 -4.44508,-29.79565 -5.8157,-42.97152 -1.99965,-19.22263 -3.42111,-109.01719 -5.20014,-328.5 -0.48155,-59.4 -1.24986,-123.525 -1.70748,-142.5 -0.45761,-18.975 -1.05325,-62.69893 -1.32372,-97.1643 -0.54259,-69.14647 -0.54917,-69.03309 4.52389,-77.54646 3.65324,-6.13084 7.00904,-8.77999 21.23229,-16.76145 35.02936,-19.65694 74.04782,-36.81765 119.09876,-52.38079 8.18633,-2.82802 41.68182,-12.89675 48.53341,-14.58913 15.32982,-3.78654 22.69122,-5.632814 27.9684,-7.014644 3.16701,-0.82928 9.64499,-2.22211 14.39551,-3.09519 4.75051,-0.87308 9.93289,-1.98459 11.5164,-2.47003 1.5835,-0.48544 7.50622,-1.58536 13.1616,-2.44427 5.65537,-0.85891 11.94827,-2.00356 13.9842,-2.54367 2.03594,-0.5401 10.73493,-1.92842 19.3311,-3.08515 28.99998,-3.90232 25.95975,-3.57202 75.26792,-8.17726 15.51868,-1.44939 135.7118,-1.42558 149.30192,0.0296 5.42916,0.58133 18.10016,1.78494 28.15776,2.67469 10.0576,0.88975 21.1627,2.01131 24.678,2.49236 3.5153,0.48105 13.60975,1.80968 22.43214,2.9525 8.82239,1.14282 17.15121,2.34651 18.5085,2.67487 1.35729,0.32835 8.76069,1.67071 16.45201,2.98302 25.53482,4.35681 48.04556,9.19406 71.56616,15.378594 22.304,5.86462 26.4287,7.02153 37.8397,10.61338 6.334,1.99377 13.7374,4.28192 16.452,5.08477 2.7145,0.80286 7.1566,2.3104 9.8712,3.35009 2.7145,1.0397 8.2671,3.09509 12.339,4.56755 29.6405,10.71849 65.7509,27.37828 72.8022,33.58776 4.2609,3.75226 7.8918,10.66799 9.0623,17.26097 0.6089,3.42908 0.805,17.84825 0.5934,43.62221 -0.3624,44.14886 -2.673,262.05222 -3.9393,371.5 -0.4708,40.7 -1.1987,107.075 -1.6174,147.5 -0.5292,51.08922 -1.1292,77.92118 -1.9681,88 -1.5721,18.88762 -4.3761,43.05626 -5.8008,50 -0.6208,3.025 -1.3707,7.525 -1.6667,10 -0.2959,2.475 -1.6497,10.125 -3.0084,17 -14.3137,72.42793 -38.5495,139.20685 -74.2181,204.50005 -12.8752,23.5688 -33.548,56.2351 -49.0869,77.5654 -20.4096,28.0162 -54.9945,68.0457 -79.34906,91.8407 -29.18388,28.5133 -53.01856,48.3553 -86.98955,72.4172 -6.44738,4.5667 -13.20314,9.2229 -15.01286,10.3471 -1.80972,1.1242 -6.80702,4.296 -11.1051,7.0485 -8.97654,5.7485 -43.29641,25.0096 -53.05771,29.7773 -9.2866,4.5358 -18.80009,8.2611 -25.50763,9.9882 -5.35715,1.3795 -17.62806,1.8586 -21.38058,0.8348 z"
       id="path16-0"
       sodipodi:nodetypes="ssssssssssssssssssssssssssssssssssssccccssssssssssssssss" />
    <g
       id="g14">
      <path
         style="fill:#fdca00"
         d="m 770,1360.3873 c -2.475,-0.8002 -8.775,-2.8407 -14,-4.5345 -45.19325,-14.6503 -118.14054,-68.3138 -168.24435,-123.7684 -22.13108,-24.4946 -27.16059,-30.2474 -30.54928,-34.9424 -1.72999,-2.3969 -6.30256,-8.2469 -10.16126,-13 -28.87364,-35.5662 -63.93944,-91.6752 -84.45819,-135.142 -10.69101,-22.6478 -19.25591,-41.8215 -22.17334,-49.63814 -1.40859,-3.77402 -3.91199,-10.46186 -5.56311,-14.86186 -1.65111,-4.4 -5.17749,-14.75 -7.83638,-23 -2.6589,-8.25 -5.796,-17.925 -6.97132,-21.5 -1.17533,-3.575 -2.5633,-8.47202 -3.08437,-10.88226 -0.52108,-2.41024 -1.8017,-6.91024 -2.84583,-10 -5.37151,-15.89515 -13.9562,-63.24211 -16.52433,-91.13632 -2.52673,-27.44448 -2.62023,-30.97776 -3.63808,-137.48142 -0.55192,-57.75 -1.74575,-159.9 -2.65295,-227 -0.9072,-67.1 -1.80517,-149.7727 -1.99549,-183.71711 l -0.34604,-61.71712 5.27216,-3.03726 C 421.29006,199.4381 480.11081,174.72322 515,164.28333 c 4.675,-1.3989 12.1,-3.627 16.5,-4.95133 22.70313,-6.8333 59.42981,-15.35401 83.18876,-19.30005 6.15382,-1.02206 12.05763,-2.13407 13.11958,-2.47112 3.17337,-1.00719 29.32057,-4.39241 50.69166,-6.56295 11,-1.1172 23.6,-2.4796 28,-3.02754 C 716.72632,126.69684 750.38167,125 765.41423,125 H 777 v 618.5 c 0,494.1754 -0.25126,618.4841 -1.25,618.4211 -0.6875,-0.043 -3.275,-0.7337 -5.75,-1.5338 z M 605,946.60155 c 0,-1.31915 -1.35,-4.96485 -3,-8.10155 -3.56811,-6.78308 -3.62244,-7.58276 -0.89759,-13.21155 3.87714,-8.0091 12.55312,-9.83292 18.49759,-3.88845 4.31191,4.31191 4.67874,9.41217 0.94545,13.14545 -6.0861,6.08611 -16.98905,-1.07614 -11.65468,-7.65607 2.23423,-2.75592 3.85159,-2.05095 2.0207,0.88078 -1.57821,2.52711 -0.62182,4.94906 2.5195,6.38034 3.70841,1.68967 7.57988,-1.09612 7.53723,-5.42355 -0.096,-9.74181 -13.2763,-11.98836 -17.85116,-3.04269 C 598.94961,933.83325 606.14813,944 616.0854,944 c 4.58702,0 11.38083,-3.5291 14.81561,-7.69607 4.57927,-5.55545 5.35817,-10.25257 5.48436,-33.07324 0.10824,-19.5754 0.24758,-21.0249 2.50039,-26.01002 2.05989,-4.55821 2.26477,-5.97724 1.5,-10.38887 l -0.88576,-5.10954 -4.98679,7.88887 c -6.76003,10.69405 -8.44078,15.97412 -8.48056,26.64175 l -0.0326,8.75288 -3.57779,-3.96018 c -1.96778,-2.1781 -4.37188,-4.21222 -5.34245,-4.52027 -1.64607,-0.52244 -1.66968,-1.04617 -0.35122,-7.7927 2.00224,-10.24535 1.2366,-19.95038 -2.08924,-26.48261 -1.47014,-2.8875 -3.00291,-5.24615 -3.40615,-5.24145 -0.40323,0.005 -1.5648,2.67668 -2.58125,5.93774 -1.56002,5.00496 -1.65956,6.50046 -0.63859,9.59403 2.30891,6.99607 -1.42405,18.06936 -7.07688,20.99256 -3.51629,1.81834 -12.94714,3.17402 -12.91419,1.85641 0.0122,-0.48911 0.90222,-2.01429 1.97776,-3.38929 1.07554,-1.375 1.96553,-3.08889 1.97776,-3.80864 0.0243,-1.4294 -5.88764,-9.19136 -7.00063,-9.19136 -0.37848,0 -3.54742,3.63718 -7.04209,8.08263 -3.49466,4.44544 -7.54288,8.69746 -8.99604,9.44892 -1.45316,0.75145 -4.05891,2.97993 -5.79056,4.95216 L 560,905.06959 559.9789,896.2848 C 559.9467,882.89399 556.19745,873.6912 541.93093,851.98532 534.20431,840.22959 528.2647,828.11411 527.54832,822.64796 527.24933,820.36658 526.63048,809.725 526.17311,799 525.39931,780.85499 525.16152,779.14852 522.75107,774.44173 519.56609,768.22254 516.26642,764.66096 508.5,759.05948 486.88532,743.47002 476.35371,725.21774 473.42342,698.26842 472.66517,691.29501 474.41044,687 478.00233,687 c 1.07592,0 6.80304,2.43809 12.72694,5.41797 5.9239,2.97989 16.05494,7.93474 22.51341,11.01078 15.52011,7.39192 23.56964,14.72753 30.15748,27.48281 5.25628,10.17712 11.24027,16.38776 15.31801,15.8982 6.1546,-0.7389 5.42607,-6.73476 -2.81965,-23.20586 -14.26499,-28.4948 -33.35169,-47.68686 -64.23678,-64.59139 -9.68206,-5.29934 -13.19729,-8.21069 -16.82984,-13.93863 -3.67175,-5.78974 -3.75605,-7.94598 -0.20135,-5.14985 5.59799,4.40338 14.69357,4.71452 20.80279,0.7116 3.95361,-2.5905 3.96762,-6.07301 0.0709,-17.63293 -5.68609,-16.86834 -7.88368,-30.09464 -7.89272,-47.5027 -0.0115,-22.1081 2.71151,-27.85304 22.60404,-47.68958 l 12.7254,-12.68959 -2.07381,-4.6882 c -3.9876,-9.01461 -3.42848,-28.21865 1.10439,-37.93263 l 1.86653,-4 0.0865,16.5 c 0.0853,16.26164 0.84011,22.00571 3.3161,25.23455 1.12461,1.46655 2.04009,1.00713 8.56095,-4.29619 4.01593,-3.2661 7.67667,-5.93836 8.13499,-5.93836 0.45832,0 1.51267,1.03683 2.343,2.30408 1.47466,2.25062 1.28703,2.47682 -8.08716,9.75 -5.27826,4.09525 -15.51092,13.29592 -22.73923,20.44592 -15.94787,15.77508 -17.78015,18.97582 -18.30613,31.97837 C 496.5273,579.80006 499.8899,589 506.10982,589 c 5.02499,0 10.33856,-6.92004 25.81299,-33.61712 7.93258,-13.68558 14.50098,-25.00129 14.59646,-25.14601 0.0955,-0.14472 1.83414,0.4307 3.8637,1.2787 2.89154,1.20817 4.52259,1.31766 7.537,0.50596 4.13285,-1.11286 24.70481,-8.7122 26.88026,-9.92964 0.89481,-0.50076 -0.54175,-1.88805 -4.49241,-4.33833 -14.50516,-8.99639 -27.5121,-22.57763 -33.78878,-35.28063 -6.62207,-13.40204 -6.6153,-23.28131 0.0178,-26.05281 1.86935,-0.78107 4.91629,-1.42012 6.77098,-1.42012 4.51121,0 16.97948,3.24937 24.27774,6.32705 l 5.90742,2.49116 -2.81703,1.28353 c -2.28918,1.04302 -3.41279,1.0439 -5.99654,0.005 -8.92044,-3.58783 -14.02268,-5.12931 -18.85941,-5.69777 -11.07699,-1.30189 -13.32026,6.06587 -6.24396,20.50753 6.42259,13.10755 31.27878,35.84034 41.22912,37.70704 4.50111,0.84441 9.74469,-1.62629 20.03197,-9.43874 C 618.40534,502.43706 622,501.07558 622,503.95658 c 0,1.14094 -12.61323,11.4052 -18.44226,15.00774 -4.46042,2.75669 -4.86816,2.42678 9.81637,7.94254 16.15967,6.06985 17.88853,6.42807 22.24286,4.60871 2.02956,-0.848 3.76823,-1.42342 3.8637,-1.2787 0.0955,0.14472 6.66388,11.46043 14.59646,25.14601 15.47443,26.69708 20.788,33.61712 25.81299,33.61712 6.21992,0 9.58252,-9.19994 8.96273,-24.52163 -0.27359,-6.76339 -0.92056,-10.11209 -2.62245,-13.5739 -6.03038,-12.26632 -38.30286,-41.01893 -71.31519,-63.53703 l -11.92262,-8.13257 2.49107,-1.63221 c 2.42086,-1.58621 2.72393,-1.48696 10.7537,3.52164 10.25787,6.39838 22.81516,15.32363 33.16853,23.57495 4.34824,3.46541 8.27317,6.30075 8.72206,6.30075 0.4489,0 1.59914,-2.5875 2.55609,-5.75 1.32906,-4.39224 1.73573,-9.33661 1.72222,-20.93894 -0.01,-8.35392 0.33896,-14.96852 0.77488,-14.69911 0.43592,0.26942 1.56754,3.05444 2.5147,6.18895 2.53703,8.39594 2.34272,25.82061 -0.37368,33.50988 l -2.05279,5.81079 12.61532,12.68921 c 19.80366,19.91968 22.51521,25.66589 22.50376,47.68922 -0.009,17.40806 -2.20663,30.63436 -7.89272,47.5027 -3.89669,11.55992 -3.88268,15.04243 0.0709,17.63293 6.10922,4.00292 15.2048,3.69178 20.80279,-0.7116 3.5547,-2.79613 3.4704,-0.63989 -0.20135,5.14985 -3.63255,5.72794 -7.14778,8.63929 -16.82984,13.93863 -30.88509,16.90453 -49.97179,36.09659 -64.23678,64.59139 -8.24572,16.4711 -8.97425,22.46696 -2.81965,23.20586 4.07774,0.48956 10.06173,-5.72108 15.31801,-15.8982 6.58784,-12.75528 14.63737,-20.09089 30.15748,-27.48281 6.45847,-3.07604 16.58951,-8.03089 22.51341,-11.01078 C 701.1946,689.43809 706.92172,687 707.99764,687 c 3.59189,0 5.33716,4.29501 4.57891,11.26842 -2.93029,26.94932 -13.4619,45.2016 -35.07658,60.79106 -7.76933,5.60358 -11.0681,9.16519 -14.24706,15.38225 -2.37672,4.64811 -2.65093,6.51784 -3.38171,23.05827 -0.4374,9.9 -0.94601,20.48293 -1.13025,23.51762 -0.37524,6.18071 -4.41696,15.7348 -10.83314,25.60809 l -3.98081,6.12572 2.28649,3.58196 c 1.25756,1.97008 2.51148,3.59762 2.78648,3.61677 1.20316,0.0838 18.02191,-32.93799 19.07424,-37.45016 0.64135,-2.75 1.46263,-13.775 1.82507,-24.5 0.51604,-15.27063 1.01519,-20.15067 2.30137,-22.5 1.97826,-3.61345 9.45301,-10.84175 16.29932,-15.7619 10.72974,-7.71101 20.03775,-19.70412 26.03707,-33.54801 4.55611,-10.51357 8.38418,-24.96438 9.05708,-34.19009 0.46704,-6.40317 0.2512,-7.96736 -1.47586,-10.69574 -3.94573,-6.2334 -13.99662,-5.23838 -28.16061,2.78784 -4.05063,2.29534 -11.21069,5.72273 -15.91123,7.61642 -19.85978,8.00081 -29.72777,16.89302 -39.89977,35.95433 -2.55567,4.78908 -5.2564,8.90235 -6.00162,9.1406 -2.19715,0.70243 -0.49719,-3.35184 5.68818,-13.56591 C 645.86178,709.9798 652.27735,701.70186 662.04294,692 672.1621,681.9469 681.65306,675.21203 696,667.90381 c 17.90363,-9.11998 24.9673,-18.56829 25.80875,-34.52158 0.23938,-4.53847 0.0105,-8.37592 -0.51916,-8.70325 -0.52103,-0.32202 -2.53063,0.71961 -4.46579,2.31473 -7.3364,6.04728 -17.64221,9.85455 -20.079,7.41776 -0.32369,-0.32369 0.53232,-3.56635 1.90225,-7.20592 3.36876,-8.94995 6.983,-24.61263 8.42549,-36.51269 1.541,-12.71275 0.72,-33.54674 -1.57531,-39.97568 -3.04513,-8.52911 -10.67999,-18.8189 -21.2416,-28.62812 l -10.07783,-9.35991 0.528,-11.11458 c 0.30026,-6.3206 0.0525,-13.70251 -0.57454,-17.11457 -1.52235,-8.28461 -6.80804,-18.42263 -10.82315,-20.75893 -3.13968,-1.82692 -3.22555,-1.82363 -5.25,0.20082 C 656.15214,465.84786 656,467.18274 656,482 c 0,8.8 -0.26394,16 -0.58652,16 C 654.21953,498 646,491.62717 646,490.70147 c 0,-0.52773 1.19696,-4.16394 2.65992,-8.08048 3.54874,-9.50048 3.99236,-24.10259 0.84008,-27.65169 -7.24231,-8.15399 -24.63144,-7.76021 -46.75,1.05867 l -9.75,3.88741 -9.75,-3.88741 c -22.11856,-8.81888 -39.50769,-9.21266 -46.75,-1.05867 -3.15228,3.5491 -2.70866,18.15121 0.84008,27.65169 C 538.80304,486.53753 540,490.17374 540,490.70147 540,491.62717 531.78047,498 530.58652,498 530.26394,498 530,490.8 530,482 c 0,-14.81726 -0.15214,-16.15214 -2.05811,-18.05811 -2.02445,-2.02445 -2.11032,-2.02774 -5.25,-0.20082 -4.01511,2.3363 -9.3008,12.47432 -10.82315,20.75893 -0.62699,3.41206 -0.8748,10.79397 -0.57454,17.11457 l 0.528,11.11458 -10.07783,9.35991 c -10.56161,9.80922 -18.19647,20.09901 -21.2416,28.62812 -2.29531,6.42894 -3.11631,27.26293 -1.57531,39.97568 1.44249,11.90006 5.05673,27.56274 8.42549,36.51269 1.36993,3.63957 2.22594,6.88223 1.90225,7.20592 -2.43679,2.43679 -12.7426,-1.37048 -20.079,-7.41776 -1.93516,-1.59512 -3.94476,-2.63675 -4.46579,-2.31473 -0.52963,0.32733 -0.75854,4.16478 -0.51916,8.70325 0.84145,15.95329 7.90512,25.4016 25.80875,34.52158 25.30626,12.89083 42.19194,28.95408 58.16676,55.33373 6.18537,10.21407 7.88533,14.26834 5.68818,13.56591 -0.74522,-0.23825 -3.44595,-4.35152 -6.00162,-9.1406 -10.172,-19.06131 -20.03999,-27.95352 -39.89977,-35.95433 -4.70054,-1.89369 -11.8606,-5.32108 -15.91123,-7.61642 -14.16399,-8.02622 -24.21488,-9.02124 -28.16061,-2.78784 -1.72706,2.72838 -1.9429,4.29257 -1.47586,10.69574 1.08165,14.82986 8.383,36.00121 16.65591,48.2963 5.48749,8.15545 10.89111,13.77623 19.43824,20.21947 15.9792,12.04589 17.5,15.03359 17.5,34.37975 0,16.13068 1.38014,27.84317 3.97783,33.75773 1.00326,2.28429 6.86447,12.79244 13.02491,23.35144 17.55919,30.09652 16.47659,26.75811 16.61189,51.226 0.12619,22.82067 0.90509,27.51779 5.48436,33.07324 3.43478,4.16697 10.22859,7.69607 14.81561,7.69607 12.52488,0 18.96756,-14.73563 9.71836,-22.22776 -3.65475,-2.96047 -10.24584,-1.90346 -13.35116,2.1411 -2.20248,2.86866 -1.55469,7.86175 1.25916,9.70546 4.55919,2.98729 10.29159,-1.45477 7.54757,-5.84864 -1.83089,-2.93173 -0.21353,-3.6367 2.0207,-0.88078 5.33437,6.57993 -5.56858,13.74218 -11.65468,7.65607 -3.73329,-3.73328 -3.36646,-8.83354 0.94545,-13.14545 5.94447,-5.94447 14.62045,-4.12065 18.49759,3.88845 2.72485,5.62879 2.67052,6.42847 -0.89759,13.21155 -1.65,3.1367 -3,6.7824 -3,8.10155 0,2.39802 0.002,2.39845 12,2.39845 11.99785,0 12,-4.3e-4 12,-2.39845 z M 505.63279,572.72003 c -1.17626,-11.48099 1.6264,-20.79128 8.50523,-28.25394 C 518.43127,539.80847 555.26488,509 556.54014,509 c 0.37195,0 3.61437,2.33791 7.20537,5.19536 l 6.52909,5.19535 -6.83209,2.30465 c -8.3694,2.82322 -10.61539,2.87608 -12.94251,0.30464 -0.99549,-1.1 -2.83137,-2 -4.07975,-2 -2.31229,0 -2.88798,0.87387 -31.56832,47.9193 -3.49356,5.73062 -6.85062,10.58435 -7.46014,10.78607 -0.69148,0.22885 -1.35293,-2.02185 -1.759,-5.98534 z M 675.6428,575.25 c -1.31206,-2.0625 -9.20238,-15.06175 -17.53405,-28.88722 -12.20609,-20.25465 -15.62532,-25.22838 -17.60347,-25.60652 -1.58275,-0.30256 -3.05193,0.19031 -4.13513,1.38722 -2.21687,2.44962 -5.54216,2.34174 -13.81266,-0.44812 l -6.83209,-2.30465 6.69957,-5.33101 c 6.08704,-4.8436 6.91044,-5.21815 9.00592,-4.09668 3.86536,2.06867 28.36366,22.8939 35.13035,29.86319 7.19658,7.41205 12.01308,15.6562 13.39064,22.92006 1.01532,5.35378 0.29268,16.25373 -1.07759,16.25373 -0.46525,0 -1.91942,-1.6875 -3.23149,-3.75 z m -89.23776,-70.15784 c -3.24777,-2.1493 -7.21709,-5.00139 -8.82072,-6.33797 l -2.91567,-2.43013 4.41567,-3.00423 c 2.42863,-1.65232 6.56914,-4.25234 9.20115,-5.77783 l 4.78546,-2.77361 8.08178,4.8658 c 4.44498,2.6762 8.31046,5.44993 8.58996,6.16385 0.2795,0.71393 -0.33576,1.97654 -1.36724,2.80581 C 605.85621,500.62919 593.25872,509 592.72993,509 c -0.23092,0 -3.07712,-1.75853 -6.32489,-3.90784 z M 566.2,487.8 c -0.66,-0.66 -1.2,-1.51373 -1.2,-1.89718 0,-1.27902 19.05003,-13.0583 29.844,-18.45355 19.30323,-9.64853 35.89881,-14.00937 43.61843,-11.46167 6.87911,2.27031 8.09975,10.37588 3.38134,22.45356 -2.55951,6.55157 -4.07725,8.18736 -5.73887,6.18523 -0.98163,-1.18278 -0.82112,-2.26231 0.81242,-5.46433 4.87676,-9.55923 4.61921,-17.21023 -0.64939,-19.29118 -8.07212,-3.18827 -36.91862,8.67496 -61.46306,25.27691 -6.25104,4.22823 -6.8456,4.41148 -8.60487,2.65221 z m -10.59142,-12.82024 c -2.5513,-6.37632 -2.24551,-7.32183 2.10407,-6.50584 2.04196,0.38307 5.20518,1.46221 7.02938,2.39808 l 3.31673,1.70158 -4.55862,3.21321 c -2.50724,1.76727 -4.9466,3.21321 -5.4208,3.21321 -0.4742,0 -1.58604,-1.80911 -2.47076,-4.02024 z M 623,475.85337 c -2.475,-1.59928 -4.64104,-3.31865 -4.81341,-3.82081 -0.3412,-0.99397 12.79536,-5.38394 13.62582,-4.55348 0.71124,0.71123 -1.4886,7.72445 -3.0334,9.6707 -1.15541,1.45566 -1.71389,1.33037 -5.77901,-1.29641 z M 578.54222,876.63935 C 578.79535,866.08927 584.19148,858.6 591.53987,858.6 c 2.73338,0 3.54558,-0.55599 4.87029,-3.33393 2.25147,-4.72137 1.99664,-6.01781 -1.32632,-6.74766 -7.17687,-1.5763 -17.20046,3.4117 -21.45917,10.67865 -3.76776,6.4292 -5.97638,16.13361 -5.30591,23.31353 0.95144,10.18871 1.39229,10.55615 6.0478,5.04063 3.68488,-4.36558 4.04092,-5.296 4.17566,-10.91187 z m 24.12913,12.59131 c 4.07144,-5.50692 3.91325,-6.75441 -1.64734,-12.99108 -2.81457,-3.15677 -6.55888,-7.86548 -8.3207,-10.46379 -1.76182,-2.59832 -3.57543,-4.73582 -4.03023,-4.75 -1.55928,-0.0486 -6.67308,5.81962 -6.66414,7.64729 0.0114,2.33372 15.98114,22.88544 18.053,23.23273 0.30907,0.0518 1.4833,-1.15201 2.60941,-2.67515 z M 605.30254,865.25 c 2.94572,-6.21856 3.19466,-7.53731 3.16187,-16.75 -0.0331,-9.30466 -0.55072,-11.86003 -7.44403,-36.75 C 596.94573,797.0375 593.33656,785 593,785 c -1.06082,0 -14.95243,52.20173 -15.6342,58.75 -0.35789,3.4375 -0.37687,6.25 -0.0422,6.25 0.33469,0 2.10727,-0.7147 3.93907,-1.58823 2.51456,-1.1991 3.74023,-2.74172 5.00273,-6.29637 0.9197,-2.58949 2.84784,-5.81229 4.28474,-7.16178 l 2.61256,-2.45362 2.86955,3.21084 c 3.40769,3.81298 5.34817,10.22169 4.4276,14.62284 -0.36426,1.74148 -1.92105,5.52438 -3.45955,8.40644 l -2.79726,5.24013 2.90474,4.00987 c 1.59761,2.20544 3.37556,4.00988 3.95101,4.00988 0.57545,0 2.48513,-3.0375 4.24373,-6.75 z m -50.35322,-38.21391 c 1.67363,-1.19173 4.22091,-4.1768 5.66062,-6.63348 l 2.61766,-4.46669 -2.8638,-4.17615 C 556.98476,806.83226 532.16905,781 530.81449,781 c -0.51289,0 -0.73389,0.3375 -0.49111,0.75 0.24277,0.4125 0.72975,8.175 1.08217,17.25 0.59392,15.29391 0.84008,16.89749 3.3676,21.93787 4.49706,8.96802 12.67474,11.43971 20.17617,6.09822 z M 541.6563,822.86747 C 536.99149,820.15587 535.16813,805.83187 539,802 c 3.0114,-3.0114 6.34419,-2.51095 9.84708,1.47862 8.40715,9.5752 2.64674,25.10726 -7.19078,19.38885 z m 7.28949,-5.30215 c 0.65487,-0.78907 1.04747,-2.91844 0.87244,-4.73194 -0.24593,-2.54814 -0.93615,-3.51321 -3.03795,-4.24772 -4.87866,-1.70492 -8.40795,3.5045 -5.7451,8.48008 1.23628,2.31 6.15052,2.62035 7.91061,0.49958 z m 97.87209,9.56436 c 5.33389,-3.79806 6.95889,-9.71739 7.72794,-28.15034 0.37814,-9.06364 0.88659,-16.81684 1.12988,-17.22934 3.46221,-5.87031 -24.78847,22.35241 -30.0395,30.00977 l -2.8638,4.17615 2.61766,4.46669 c 2.4257,4.13914 5.97923,7.43989 9.60994,8.92633 2.64844,1.08429 8.81929,-0.0641 11.81788,-2.19926 z m -11.15102,-4.9453 c -3.96817,-4.38478 -3.25988,-13.30044 1.48606,-18.70576 C 640.65581,799.48905 643.9886,798.9886 647,802 c 3.92494,3.92494 1.96066,18.34514 -2.8496,20.91951 -3.02433,1.61857 -6.63675,1.30554 -8.48354,-0.73513 z m 9.29796,-5.11864 c 1.58426,-2.96023 1.24249,-5.56815 -0.9951,-7.59314 -3.12893,-2.83164 -7.3668,-1.00285 -7.78795,3.36078 -0.17503,1.8135 0.21757,3.94287 0.87244,4.73194 1.76009,2.12077 6.67433,1.81042 7.91061,-0.49958 z M 534.54701,747.56875 533.5,739.1375 l -7.55654,-7.81875 c -4.15609,-4.30031 -9.07653,-9.96551 -10.93429,-12.58932 -4.17909,-5.90234 -11.75771,-11.84379 -19.44231,-15.24228 -10.15538,-4.49119 -9.5978,-2.64994 2.65871,8.77972 6.35017,5.92178 12.09819,12.10054 12.77338,13.73059 1.84872,4.46321 0.54713,7.87643 -3.67657,9.6412 -4.56136,1.90586 -7.91068,1.10018 -12.07238,-2.904 -1.7875,-1.71985 -3.25,-2.79579 -3.25,-2.39099 0,2.20245 4.39584,8.76648 8.24985,12.31899 4.9697,4.5809 8.40171,5.89329 17.6423,6.74631 4.51564,0.41685 7.89162,1.46443 11.5,3.56849 2.80932,1.63813 5.354,2.98835 5.65486,3.00048 0.30086,0.0121 0.0759,-3.772 -0.5,-8.40919 z m 121.95711,5.42889 c 3.68115,-2.10614 7.15027,-3.17793 11.62172,-3.59055 9.22161,-0.85096 12.65676,-2.16551 17.62431,-6.74443 C 689.60416,739.11015 694,732.54612 694,730.34367 c 0,-0.4048 -1.4625,0.67114 -3.25,2.39099 -4.1617,4.00418 -7.51102,4.80986 -12.07238,2.904 -4.2237,-1.76477 -5.52529,-5.17799 -3.67657,-9.6412 0.67519,-1.63005 6.42321,-7.80881 12.77338,-13.73059 12.25651,-11.42966 12.81409,-13.27091 2.65871,-8.77972 -7.6846,3.39849 -15.26322,9.33994 -19.44231,15.24228 -1.85776,2.62381 -6.7782,8.28901 -10.93429,12.58932 l -7.55654,7.81875 -1.04701,8.43125 C 650.87713,752.20594 650.59736,756 650.83126,756 c 0.23391,0 2.78669,-1.35106 5.67286,-3.00236 z M 602.3574,737.75 c 12.76185,-12.64423 23.69242,-31.50088 29.12823,-50.25 3.74454,-12.91561 3.65724,-18.45639 -0.41649,-26.43598 -4.42435,-8.66636 -14.84183,-25.47458 -22.93874,-37.01081 -3.64672,-5.19573 -6.99049,-10.03364 -7.4306,-10.75091 -0.50177,-0.81776 0.23262,-2.65821 1.96922,-4.93501 l 2.76942,-3.63089 3.90389,4.3818 c 2.14714,2.40999 10.8411,14.77133 19.31991,27.46965 C 645.24136,661.41761 647.76822,664 655.48503,664 c 11.18945,0 19.28566,-10.77887 21.58948,-28.74315 2.40209,-18.73047 -2.45623,-33.70753 -15.00469,-46.256 -12.4293,-12.42929 -25.39388,-16.16073 -41.37224,-11.90765 -11.40708,3.03631 -44.37622,45.05427 -63.63873,81.10521 -5.85991,10.96718 -6.24398,14.33535 -3.11317,27.30159 4.90004,20.29359 16.44274,40.34818 30.78931,53.49422 3.60484,3.30318 7.39817,6.00578 8.42961,6.00578 1.03145,0 5.16821,-3.2625 9.1928,-7.25 z m -16.35488,-12.5 c -14.86249,-16.57006 -25.57513,-43.52096 -22.07059,-55.52525 1.8007,-6.16805 10.22215,-21.61831 18.65482,-34.22475 10.77163,-16.10306 9.94337,-15.27508 12.40296,-12.39891 5.31194,6.21164 18.81699,27.43678 23.26518,36.56462 5.58948,11.46979 6.20814,16.72426 3.20294,27.2035 C 617.06068,702.20225 598.31656,731 592.7336,731 c -0.8655,0 -3.89448,-2.5875 -6.73108,-5.75 z m 64.55847,-73.38068 c -1.48979,-1.17188 -8.02224,-10.08313 -14.51653,-19.80278 -6.4943,-9.71966 -14.77948,-21.61216 -18.41152,-26.42779 l -6.6037,-8.75569 4.57791,-4.89416 c 5.97157,-6.38408 11.34652,-8.4877 19.50749,-7.63471 7.61222,0.79564 16.71487,5.47365 21.55138,11.07565 13.11041,15.18539 16.67931,41.38762 7.27139,53.38522 -4.25988,5.43249 -8.98221,6.51074 -13.37642,3.05426 z m -113.77887,12.58 c 5.65497,-2.35862 9.68796,-6.84934 17.46686,-19.44932 27.5706,-44.65786 48.47743,-68.84505 65.66005,-75.96232 1.70003,-0.70418 3.0907,-1.56323 3.09038,-1.909 -3.2e-4,-0.34577 -4.28502,-2.37485 -9.52155,-4.50905 -9.21128,-3.75415 -13.10928,-6.20349 -8.31165,-5.22269 1.28359,0.26241 4.27822,0.74088 6.65475,1.06325 2.37653,0.32238 7.4278,2.15072 11.22504,4.06298 7.36466,3.70878 9.79782,4.14002 13.26974,2.35187 9.98997,-5.14516 8.64525,-13.87757 -3.41609,-22.18366 -3.04179,-2.09474 -13.26358,-7.12099 -22.71509,-11.16946 L 593,524.16108 l -17.18456,7.36084 c -9.45151,4.04847 -19.6733,9.07472 -22.71509,11.16946 -12.06134,8.30609 -13.40606,17.0385 -3.41609,22.18366 3.47192,1.78815 5.90508,1.35691 13.26974,-2.35187 3.79724,-1.91226 8.84851,-3.7406 11.22504,-4.06298 2.37653,-0.32237 5.37116,-0.80084 6.65475,-1.06325 4.79763,-0.9808 0.89963,1.46854 -8.31165,5.22269 -5.23653,2.1342 -9.49702,4.10537 -9.46776,4.38037 0.0293,0.275 2.74167,1.81521 6.02756,3.4227 3.28589,1.60748 8.54918,5.28513 11.6962,8.17255 l 5.72186,5.24986 -2.69129,2.74601 -2.6913,2.74601 -4.52655,-3.70917 c -2.48961,-2.04004 -7.12853,-4.9284 -10.30871,-6.41856 -4.93493,-2.31241 -7.0276,-2.69762 -14.28215,-2.629 -15.00176,0.14189 -24.12404,5.42038 -33.08183,19.14234 C 511.29948,607.39339 509.5,613.94257 509.5,630 c 0,13.00793 0.1124,13.73717 3.08359,20.00667 3.37066,7.11241 8.15737,12.53482 12.88244,14.5933 4.02949,1.75544 6.83564,1.71809 11.31609,-0.15065 z m -11.03915,-11.53336 c -4.68149,-2.72628 -8.39569,-16.99179 -7.23842,-27.80128 3.0718,-28.69204 22.23256,-45.80116 42.70794,-38.13498 5.88466,2.20327 12.78751,7.38937 12.78751,9.60723 0,0.79273 -2.10975,4.02247 -4.68834,7.1772 -2.57858,3.15473 -9.37951,12.93587 -15.11318,21.73587 -14.90473,22.87571 -15.25394,23.36888 -18.45367,26.06127 -3.0317,2.55101 -7.01998,3.0912 -10.00184,1.35469 z m 64.1984,-77.47837 c -1.32399,-1.40932 -3.87743,-3.47102 -5.67431,-4.58156 -1.79688,-1.11053 -3.25218,-2.31995 -3.234,-2.68759 0.0182,-0.36764 2.73917,-1.89075 6.04665,-3.38469 l 6.01359,-2.71626 5.70335,2.7024 c 3.13684,1.48632 5.9012,2.83149 6.14302,2.98926 0.24181,0.15777 -0.65819,1.05514 -2,1.99415 -1.34182,0.93902 -4.06921,3.17867 -6.06087,4.977 -1.99166,1.79834 -3.82572,3.2697 -4.07569,3.2697 -0.24996,0 -1.53775,-1.15308 -2.86174,-2.56241 z m -36.67963,-19.73835 c 0.98174,-2.98381 12.38295,-9.93051 25.48826,-15.52984 l 14.25,-6.0884 14.25,6.0884 c 13.10531,5.59933 24.50652,12.54603 25.48826,15.52984 0.50472,1.53404 -2.81909,0.60404 -12.31935,-3.44694 -9.90239,-4.22245 -14.03432,-4.74427 -21.33847,-2.69483 -5.73127,1.60811 -6.42961,1.60811 -12.16088,0 -7.30415,-2.04944 -11.43608,-1.52762 -21.33847,2.69483 -9.50026,4.05098 -12.82407,4.98098 -12.31935,3.44694 z"
         id="path22" />
      <path
         style="fill:#0d5484"
         d="m 516.56429,1226.2931 c -0.54268,-1.4252 -0.42782,-1.54 0.5598,-0.5598 0.68342,0.6784 0.99067,1.4853 0.68278,1.7932 -0.30789,0.3078 -0.86705,-0.2472 -1.24258,-1.2334 z M 988,1216.5 c 1.29175,-1.375 2.57363,-2.5 2.84863,-2.5 0.275,0 -0.55688,1.125 -1.84863,2.5 -1.29175,1.375 -2.57363,2.5 -2.84863,2.5 -0.275,0 0.55688,-1.125 1.84863,-2.5 z m -486.43571,-31.2069 c -0.54268,-1.4252 -0.42782,-1.54 0.5598,-0.5598 0.68342,0.6784 0.99067,1.4853 0.68278,1.7932 -0.30789,0.3078 -0.86705,-0.2472 -1.24258,-1.2334 z m 548.00001,-3.5862 c 0.3755,-0.9862 0.9347,-1.5412 1.2426,-1.2334 0.3079,0.3079 6e-4,1.1148 -0.6828,1.7932 -0.9876,0.9802 -1.1025,0.8654 -0.5598,-0.5598 z m -562.10542,-15.7734 c -0.36253,-0.5866 -0.44468,-1.281 -0.18255,-1.5432 0.26212,-0.2621 0.74306,0.2179 1.06875,1.0666 0.67618,1.7621 0.0999,2.072 -0.8862,0.4766 z m -17.89459,-3.6404 c -0.54268,-1.4252 -0.42782,-1.54 0.5598,-0.5598 0.68342,0.6784 0.99067,1.4853 0.68278,1.7932 -0.30789,0.3078 -0.86705,-0.2472 -1.24258,-1.2334 z M 1086,1151.059 c 0,-0.5175 0.4448,-1.2159 0.9885,-1.5519 0.5669,-0.3504 0.7346,0.051 0.3931,0.941 -0.6648,1.7324 -1.3816,2.0493 -1.3816,0.6109 z m -612.43571,-6.7659 c -0.54268,-1.4252 -0.42782,-1.54 0.5598,-0.5598 0.68342,0.6784 0.99067,1.4853 0.68278,1.7932 -0.30789,0.3078 -0.86705,-0.2472 -1.24258,-1.2334 z m -18.10541,-4.3596 c -0.36253,-0.5866 -0.44468,-1.281 -0.18255,-1.5432 0.26212,-0.2621 0.74306,0.2179 1.06875,1.0666 0.67618,1.7621 0.0999,2.072 -0.8862,0.4766 z M 1100,1128.059 c 0,-0.5175 0.4448,-1.2159 0.9885,-1.5519 0.5669,-0.3504 0.7346,0.051 0.3931,0.941 -0.6648,1.7324 -1.3816,2.0493 -1.3816,0.6109 z m 5.5643,-9.3521 c 0.3755,-0.9862 0.9347,-1.5412 1.2426,-1.2334 0.3079,0.3079 6e-4,1.1148 -0.6828,1.7932 -0.9876,0.9802 -1.1025,0.8654 -0.5598,-0.5598 z M 1096,1109.059 c 0,-0.5175 0.4448,-1.2159 0.9885,-1.5519 0.5669,-0.3504 0.7346,0.051 0.3931,0.941 -0.6648,1.7324 -1.3816,2.0493 -1.3816,0.6109 z m -659.43571,-1.7659 c -0.54268,-1.4252 -0.42782,-1.54 0.5598,-0.5598 0.68342,0.6784 0.99067,1.4853 0.68278,1.7932 -0.30789,0.3078 -0.86705,-0.2472 -1.24258,-1.2334 z M 1114,1103.059 c 0,-0.5175 0.4448,-1.2159 0.9885,-1.5519 0.5669,-0.3504 0.7346,0.051 0.3931,0.941 -0.6648,1.7324 -1.3816,2.0493 -1.3816,0.6109 z m -13,-3 c 0,-0.5175 0.4448,-1.2159 0.9885,-1.5519 0.5669,-0.3504 0.7346,0.051 0.3931,0.941 -0.6648,1.7324 -1.3816,2.0493 -1.3816,0.6109 z m -655.54112,-3.1255 c -0.36253,-0.5866 -0.44468,-1.281 -0.18255,-1.5432 0.26212,-0.2621 0.74306,0.2179 1.06875,1.0666 0.67618,1.7621 0.0999,2.072 -0.8862,0.4766 z m 674.10542,-4.2266 c 0.3755,-0.9862 0.9347,-1.5412 1.2426,-1.2334 0.3079,0.3079 6e-4,1.1148 -0.6828,1.7932 -0.9876,0.9802 -1.1025,0.8654 -0.5598,-0.5598 z m -692.00001,-2.4138 c -0.54268,-1.4252 -0.42782,-1.54 0.5598,-0.5598 0.68342,0.6784 0.99067,1.4853 0.68278,1.7932 -0.30789,0.3078 -0.86705,-0.2472 -1.24258,-1.2334 z m 13,-3 c -0.54268,-1.4252 -0.42782,-1.54 0.5598,-0.5598 0.68342,0.6784 0.99067,1.4853 0.68278,1.7932 -0.30789,0.3078 -0.86705,-0.2472 -1.24258,-1.2334 z M 1110.0306,1083.5 c 0,-0.55 0.4362,-1.675 0.9694,-2.5 0.5332,-0.825 0.9694,-1.05 0.9694,-0.5 0,0.55 -0.4362,1.675 -0.9694,2.5 -0.5332,0.825 -0.9694,1.05 -0.9694,0.5 z m -687.40706,-3.0387 c -0.96498,-2.5147 -0.68031,-3.1635 0.49853,-1.1363 0.58369,1.0038 0.8506,2.0357 0.59313,2.2931 -0.25747,0.2575 -0.74872,-0.2631 -1.09166,-1.1568 z M 1128.0306,1075.5 c 0,-0.55 0.4362,-1.675 0.9694,-2.5 0.5332,-0.825 0.9694,-1.05 0.9694,-0.5 0,0.55 -0.4362,1.675 -0.9694,2.5 -0.5332,0.825 -0.9694,1.05 -0.9694,0.5 z m -13,-2 c 0,-0.55 0.4362,-1.675 0.9694,-2.5 0.5332,-0.825 0.9694,-1.05 0.9694,-0.5 0,0.55 -0.4362,1.675 -0.9694,2.5 -0.5332,0.825 -0.9694,1.05 -0.9694,0.5 z m -683.46631,-4.2069 c -0.54268,-1.4252 -0.42782,-1.54 0.5598,-0.5598 0.68342,0.6784 0.99067,1.4853 0.68278,1.7932 -0.30789,0.3078 -0.86705,-0.2472 -1.24258,-1.2334 z M 1133.0306,1064.5 c 0,-0.55 0.4362,-1.675 0.9694,-2.5 0.5332,-0.825 0.9694,-1.05 0.9694,-0.5 0,0.55 -0.4362,1.675 -0.9694,2.5 -0.5332,0.825 -0.9694,1.05 -0.9694,0.5 z m -719.40706,-3.0387 c -0.96498,-2.5147 -0.68031,-3.1635 0.49853,-1.1363 0.58369,1.0038 0.8506,2.0357 0.59313,2.2931 -0.25747,0.2575 -0.74872,-0.2631 -1.09166,-1.1568 z m 13,-2 c -0.96498,-2.5147 -0.68031,-3.1635 0.49853,-1.1363 0.58369,1.0038 0.8506,2.0357 0.59313,2.2931 -0.25747,0.2575 -0.74872,-0.2631 -1.09166,-1.1568 z M 1124.0306,1053.5 c 0,-0.55 0.4362,-1.675 0.9694,-2.5 0.5332,-0.825 0.9694,-1.05 0.9694,-0.5 0,0.55 -0.4362,1.675 -0.9694,2.5 -0.5332,0.825 -0.9694,1.05 -0.9694,0.5 z m -715.40706,-3.0387 c -0.96498,-2.5147 -0.68031,-3.1635 0.49853,-1.1363 0.58369,1.0038 0.8506,2.0357 0.59313,2.2931 -0.25747,0.2575 -0.74872,-0.2631 -1.09166,-1.1568 z M 1142.0856,1044 c -0.03,-0.825 0.3812,-2.175 0.9144,-3 1.1813,-1.828 1.1813,-0.2491 0,2.5 -0.5667,1.3187 -0.8782,1.4891 -0.9144,0.5 z M 1129,1042.059 c 0,-0.5175 0.4448,-1.2159 0.9885,-1.5519 0.5669,-0.3504 0.7346,0.051 0.3931,0.941 -0.6648,1.7324 -1.3816,2.0493 -1.3816,0.6109 z m -711.43571,-2.7659 c -0.54268,-1.4252 -0.42782,-1.54 0.5598,-0.5598 0.68342,0.6784 0.99067,1.4853 0.68278,1.7932 -0.30789,0.3078 -0.86705,-0.2472 -1.24258,-1.2334 z m -17.83308,-9.2129 c -0.43497,-1.6634 -0.30483,-2.0538 0.43724,-1.3118 0.5811,0.5812 0.85979,1.6469 0.61931,2.3683 -0.24965,0.749 -0.70294,0.2957 -1.05655,-1.0565 z m 747.29939,1.4198 c 0,-0.55 0.4362,-1.675 0.9694,-2.5 0.5332,-0.825 0.9694,-1.05 0.9694,-0.5 0,0.55 -0.4362,1.675 -0.9694,2.5 -0.5332,0.825 -0.9694,1.05 -0.9694,0.5 z m -734.46631,-3.2069 c -0.54268,-1.4252 -0.42782,-1.54 0.5598,-0.5598 0.68342,0.6784 0.99067,1.4853 0.68278,1.7932 -0.30789,0.3078 -0.86705,-0.2472 -1.24258,-1.2334 z M 1138.0306,1020.5 c 0,-0.55 0.4362,-1.675 0.9694,-2.5 0.5332,-0.825 0.9694,-1.05 0.9694,-0.5 0,0.55 -0.4362,1.675 -0.9694,2.5 -0.5332,0.825 -0.9694,1.05 -0.9694,0.5 z m 14.0483,-2.0833 c 0.048,-1.165 0.285,-1.4019 0.6042,-0.6042 0.2889,0.7219 0.2534,1.5844 -0.079,1.9167 -0.3323,0.3323 -0.5687,-0.2584 -0.5253,-1.3125 z m -757.45536,-0.9554 c -0.96498,-2.5147 -0.68031,-3.1635 0.49853,-1.1363 0.58369,1.0038 0.8506,2.0357 0.59313,2.2931 -0.25747,0.2575 -0.74872,-0.2631 -1.09166,-1.1568 z m 9,-11 c -0.96498,-2.5147 -0.68031,-3.1635 0.49853,-1.1363 0.58369,1.0038 0.8506,2.0357 0.59313,2.2931 -0.25747,0.2575 -0.74872,-0.2631 -1.09166,-1.1568 z m 739.46206,1.0387 c 0.1041,-1.8942 1.7708,-5.0838 1.8288,-3.5 0.03,0.825 -0.3812,2.175 -0.9144,3 -0.5332,0.825 -0.9446,1.05 -0.9144,0.5 z m 12.945,0 c 0,-0.55 0.4362,-1.675 0.9694,-2.5 0.5332,-0.825 0.9694,-1.05 0.9694,-0.5 0,0.55 -0.4362,1.675 -0.9694,2.5 -0.5332,0.825 -0.9694,1.05 -0.9694,0.5 z M 385.62354,993.46134 c -0.96498,-2.51469 -0.68031,-3.16355 0.49853,-1.13634 0.58369,1.00375 0.8506,2.03566 0.59313,2.29313 -0.25747,0.25747 -0.74872,-0.26309 -1.09166,-1.15679 z m 13,0 c -0.34295,-0.8937 -0.59502,-2.15061 -0.56015,-2.79313 0.0349,-0.64251 0.49453,-0.0904 1.02148,1.22697 0.52695,1.31735 0.77902,2.57426 0.56015,2.79313 -0.21887,0.21887 -0.67854,-0.33327 -1.02148,-1.22697 z m 749.45536,-1.04467 c 0.048,-1.16495 0.285,-1.4019 0.6042,-0.60417 0.2889,0.72187 0.2534,1.58438 -0.079,1.91667 -0.3323,0.33229 -0.5687,-0.25834 -0.5253,-1.3125 z m 12.9517,1.08333 c 0,-0.55 0.4362,-1.675 0.9694,-2.5 0.5332,-0.825 0.9694,-1.05 0.9694,-0.5 0,0.55 -0.4362,1.675 -0.9694,2.5 -0.5332,0.825 -0.9694,1.05 -0.9694,0.5 z m -8.89,-12.5 c 0,-0.825 0.3867,-2.4 0.8594,-3.5 0.5417,-1.26064 0.8594,-1.44548 0.8594,-0.5 0,0.825 -0.3867,2.4 -0.8594,3.5 -0.5417,1.26064 -0.8594,1.44548 -0.8594,0.5 z m -771.51706,-1.53866 c -0.96498,-2.51469 -0.68031,-3.16355 0.49853,-1.13634 0.58369,1.00375 0.8506,2.03566 0.59313,2.29313 -0.25747,0.25747 -0.74872,-0.26309 -1.09166,-1.15679 z m 13.45541,-0.0447 c 0.048,-1.16495 0.28494,-1.4019 0.60416,-0.60417 0.28887,0.72187 0.25335,1.58438 -0.0789,1.91667 -0.33229,0.33229 -0.56864,-0.25834 -0.52522,-1.3125 z m -4.50752,-12.9881 c -0.36782,-1.46551 -0.47591,-2.85742 -0.24019,-3.09314 0.23571,-0.23571 0.72951,0.77049 1.09733,2.236 0.36782,1.46551 0.47591,2.85742 0.24019,3.09314 -0.23571,0.23571 -0.72951,-0.77049 -1.09733,-2.236 z m -13.49248,-1.0119 c 0.048,-1.16495 0.28494,-1.4019 0.60416,-0.60417 0.28887,0.72187 0.25335,1.58438 -0.0789,1.91667 -0.33229,0.33229 -0.56864,-0.25834 -0.52522,-1.3125 z M 1157.1406,964 c 0,-0.825 0.3867,-2.4 0.8594,-3.5 0.5417,-1.26064 0.8594,-1.44548 0.8594,-0.5 0,0.825 -0.3867,2.4 -0.8594,3.5 -0.5417,1.26064 -0.8594,1.44548 -0.8594,0.5 z m 12.945,-0.5 c 0.1041,-1.89422 1.7708,-5.08385 1.8288,-3.5 0.03,0.825 -0.3812,2.175 -0.9144,3 -0.5332,0.825 -0.9446,1.05 -0.9144,0.5 z M 371.57143,950.42857 c -0.36782,-1.46551 -0.47591,-2.85742 -0.24019,-3.09314 0.23571,-0.23571 0.72951,0.77049 1.09733,2.236 0.36782,1.46551 0.47591,2.85742 0.24019,3.09314 -0.23571,0.23571 -0.72951,-0.77049 -1.09733,-2.236 z m 13.15978,-0.34841 c -0.43497,-1.66335 -0.30483,-2.05378 0.43724,-1.31171 0.5811,0.5811 0.85979,1.64682 0.61931,2.36826 -0.24965,0.74895 -0.70294,0.29565 -1.05655,-1.05655 z m 562.96636,-1.71592 C 946.35539,947.02206 947.02404,944.1574 950,938.5 c 3.50559,-6.66424 3.58226,-7.62079 1.05662,-13.18368 C 948.87946,920.52098 944.88007,918 939.44966,918 934.29473,918 929,923.2926 929,928.44545 c 0,6.96221 7.81572,11.11633 12.80232,6.80455 3.07158,-2.65591 3.53392,-5.61361 1.30691,-8.36062 -2.23423,-2.75592 -3.85159,-2.05095 -2.0207,0.88078 1.57821,2.52711 0.62182,4.94906 -2.5195,6.38034 C 934.80386,935.86603 931,933.05942 931,928.56584 931,924.57432 935.60665,920 939.62639,920 c 12.0367,0 14.20271,17.05697 2.8501,22.44413 -8.45013,4.00985 -18.79603,-0.58563 -23.78941,-10.56686 -2.80496,-5.60683 -2.81344,-5.68456 -3,-27.5 -0.22083,-25.82398 1.05075,-21.87994 -17.17487,-53.27116 -6.47783,-11.15721 -12.67017,-23.0579 -13.76077,-26.44597 -1.58547,-4.92547 -2.07505,-9.86806 -2.44268,-24.66014 -0.25288,-10.175 -0.93955,-20.04994 -1.52595,-21.94431 -1.33904,-4.32582 -8.27702,-11.80477 -16.19742,-17.46035 -15.66057,-11.18249 -26.86628,-28.71429 -33.12146,-51.81993 -1.38108,-5.10148 -2.75721,-12.65041 -3.05808,-16.77541 -0.46704,-6.40317 -0.2512,-7.96736 1.47586,-10.69574 3.93589,-6.21785 14.14262,-5.22474 27.91604,2.71622 3.90991,2.25424 10.88773,5.62234 15.50627,7.48469 20.48466,8.26008 31.45965,18.12798 40.78317,36.66921 2.1225,4.22091 4.35112,7.97848 4.95248,8.35014 6.36623,3.93454 -7.18937,-19.36428 -20.87075,-35.87182 -11.34173,-13.6846 -26.09189,-25.02847 -43.9059,-33.76664 -15.90658,-7.80253 -23.25567,-18.03122 -24.07177,-33.50383 -0.2355,-4.46477 -0.015,-8.37312 0.48996,-8.68521 0.50497,-0.31209 2.92078,1.03657 5.36846,2.99702 2.44768,1.96045 6.25033,4.3964 8.45033,5.41324 3.8957,1.80059 9.57065,2.48874 10.7552,1.30419 0.32369,-0.32369 -0.53232,-3.56635 -1.90225,-7.20592 -3.36876,-8.94995 -6.983,-24.61263 -8.42549,-36.51269 -1.69063,-13.94712 -0.77841,-33.69261 1.87205,-40.52161 3.50191,-9.02278 10.08866,-17.90251 20.56063,-27.71822 l 10.03103,-9.4024 0.0889,-15.27531 c 0.077,-13.21866 0.38081,-15.99935 2.25681,-20.65287 2.82899,-7.01748 6.72024,-12.55408 9.81401,-13.9637 2.07747,-0.94656 2.79979,-0.80804 4.46381,0.85598 C 895.82965,465.82965 896,467.3729 896,482 c 0,8.8 0.26394,16 0.58652,16 1.19395,0 9.41348,-6.37283 9.41348,-7.29853 0,-0.52773 -1.16963,-4.16394 -2.59917,-8.08048 -3.62821,-9.94025 -4.31546,-21.89152 -1.51365,-26.32244 5.95034,-9.41018 24.22141,-9.51679 47.36282,-0.27637 l 9.75,3.8932 9.75,-3.8932 c 23.14141,-9.24042 41.4125,-9.13381 47.3628,0.27637 2.8018,4.43092 2.1146,16.38219 -1.5136,26.32244 -1.4296,3.91654 -2.5992,7.55275 -2.5992,8.08048 0,0.9257 8.2195,7.29853 9.4135,7.29853 0.3226,0 0.5865,-7.2 0.5865,-16 0,-14.6271 0.1703,-16.17035 1.9853,-17.98527 1.664,-1.66402 2.3863,-1.80254 4.4638,-0.85598 3.0938,1.40962 6.985,6.94622 9.814,13.9637 1.876,4.65352 2.1798,7.43421 2.2568,20.65287 l 0.089,15.27531 10.0311,9.4024 c 10.4719,9.81571 17.0587,18.69544 20.5606,27.71822 2.6505,6.829 3.5627,26.57449 1.872,40.52161 -1.4425,11.90006 -5.0567,27.56274 -8.4255,36.51269 -1.3699,3.63957 -2.2259,6.88223 -1.9022,7.20592 1.1846,1.18455 6.8595,0.4964 10.7552,-1.30419 2.2,-1.01684 6.0026,-3.45279 8.4503,-5.41324 2.4477,-1.96045 4.8635,-3.30911 5.3685,-2.99702 0.505,0.31209 0.7254,4.22044 0.49,8.68521 -0.8161,15.47261 -8.1652,25.7013 -24.0718,33.50383 -17.814,8.73817 -32.5642,20.08204 -43.9059,33.76664 -13.6814,16.50754 -27.237,39.80636 -20.87077,35.87182 0.60136,-0.37166 2.82997,-4.12923 4.95247,-8.35014 9.3235,-18.54123 20.2985,-28.40913 40.7832,-36.66921 4.6185,-1.86235 11.5963,-5.23045 15.5063,-7.48469 13.7734,-7.94096 23.9801,-8.93407 27.916,-2.71622 1.727,2.72838 1.9429,4.29257 1.4759,10.69574 -0.3009,4.125 -1.6771,11.67393 -3.0581,16.77541 -6.2552,23.10564 -17.4609,40.63744 -33.1215,51.81993 -7.9204,5.65558 -14.8584,13.13453 -16.1974,17.46035 -0.5864,1.89437 -1.2796,11.76931 -1.5405,21.94431 -0.3447,13.44761 -0.9374,20.00206 -2.1703,24 -1.6155,5.23843 -17.4575,36.00891 -18.5064,35.94555 -0.275,-0.0166 -1.5289,-1.64208 -2.7865,-3.61216 l -2.2865,-3.58196 3.9808,-6.12572 c 6.1008,-9.38796 10.4149,-19.3828 10.8194,-25.06653 0.198,-2.78255 0.7143,-13.38418 1.1473,-23.55918 0.7275,-17.09818 0.9826,-18.87887 3.3665,-23.5 3.1201,-6.04848 7.0169,-10.11736 16.259,-16.97683 19.3898,-14.39116 29.7179,-32.13891 32.6668,-56.1344 1.0103,-8.22123 0.9495,-9.56236 -0.5367,-11.83056 -0.9219,-1.40702 -2.5575,-2.55821 -3.6346,-2.55821 -1.0771,0 -6.8043,2.41364 -12.727,5.36364 -5.9227,2.95001 -16.0747,7.92559 -22.56,11.05686 -15.5809,7.52281 -23.5566,14.80512 -30.1087,27.49106 -6.7009,12.97424 -14.72274,19.26001 -18.60682,14.57998 -2.01784,-2.43135 -0.49764,-8.0654 5.48501,-20.32817 14.09241,-28.8856 32.32971,-47.6181 63.76521,-65.49688 11.7696,-6.69389 13.9504,-8.47439 17.8977,-14.61227 3.9318,-6.11383 3.6835,-7.55339 -0.7804,-4.52408 -7.441,5.04959 -19.921,3.03792 -22.2291,-3.58313 -0.9254,-2.65443 -0.5725,-4.67947 2.3918,-13.72737 6.175,-18.84791 9.0692,-37.77988 8.1488,-53.30478 -1.0009,-16.88358 -4.9286,-24.14075 -22.7873,-42.10408 l -12.6153,-12.68921 2.0528,-5.81079 c 2.7164,-7.68927 2.9107,-25.11394 0.3736,-33.50988 -0.9471,-3.13451 -2.0899,-5.92641 -2.5394,-6.20422 -0.4495,-0.27781 -0.8061,6.33678 -0.7926,14.6991 0.019,11.5511 -0.3891,16.58577 -1.6975,20.95422 -0.9472,3.1625 -2.0771,5.75 -2.5108,5.75 -0.4338,0 -4.8087,-3.20294 -9.7221,-7.11765 -10.2604,-8.17496 -23.90204,-17.79249 -33.7101,-23.76611 -6.52942,-3.97676 -6.86696,-4.06822 -9.25041,-2.50652 l -2.47371,1.62083 11.67305,7.9712 c 23.43297,16.00173 40.99717,30.3046 57.37597,46.7225 14.1458,14.17949 16.1828,17.87473 16.7839,30.44695 0.7262,15.18925 -2.701,24.6288 -8.942,24.6288 -5.0444,0 -10.3364,-6.89581 -25.792,-33.60845 -7.9211,-13.69035 -14.4895,-25.00996 -14.5965,-25.15468 -0.107,-0.14472 -1.8551,0.4307 -3.8846,1.2787 -2.9867,1.24791 -4.48042,1.32902 -7.8359,0.42549 -3.82419,-1.02975 -26.83658,-9.66321 -27.48468,-10.31131 -0.1566,-0.15659 2.75015,-2.37313 6.45943,-4.92564 9.80339,-6.74611 15.71799,-12.1284 14.85765,-13.52047 -1.26234,-2.0425 -2.91379,-1.31908 -9.98848,4.3755 -9.44346,7.60127 -15.97786,10.80756 -20.52263,10.07005 C 947.099,516.00586 922.23648,493.32751 915.48596,479.66876 909.42661,467.40851 910.8158,459 918.90069,459 c 3.88003,0 13.7991,2.72885 19.67948,5.41405 4.67494,2.13476 5.30627,2.20134 7.91456,0.83472 3.48719,-1.82713 3.11362,-2.07799 -9.27591,-6.22886 -22.67091,-7.59545 -32.38642,-3.77815 -29.21878,11.48029 3.33261,16.05311 18.79178,35.13126 38.26513,47.22299 3.17084,1.96889 5.62758,3.71739 5.45943,3.88554 -0.66365,0.66365 -23.61036,9.28342 -27.5057,10.33233 -3.35548,0.90353 -4.8492,0.82242 -7.83587,-0.42549 -2.02956,-0.848 -3.77764,-1.42342 -3.88462,-1.2787 -0.10699,0.14472 -6.67539,11.46433 -14.59646,25.15468 C 882.44634,582.10419 877.1543,589 872.10988,589 c -6.24096,0 -9.66818,-9.43955 -8.94197,-24.6288 0.61359,-12.83373 2.53551,-16.2248 17.77995,-31.3712 6.91949,-6.875 17.13187,-16.08737 22.69416,-20.47193 9.84279,-7.75872 10.07334,-8.03285 8.62061,-10.25 C 911.44167,501.02513 910.39499,500 909.93667,500 c -0.45832,0 -4.11906,2.67226 -8.13499,5.93836 -6.52086,5.30332 -7.43634,5.76274 -8.56095,4.29619 -2.47599,-3.22884 -3.23083,-8.97291 -3.3161,-25.23455 l -0.0865,-16.5 -1.86653,4 c -4.53287,9.71398 -5.09199,28.91802 -1.10439,37.93263 l 2.07381,4.6882 -12.7254,12.68959 c -17.95145,17.90092 -21.8813,25.13035 -22.88759,42.10444 -0.92039,15.5249 1.97379,34.45687 8.14882,53.30478 2.96431,9.0479 3.31715,11.07294 2.39181,13.72737 -1.236,3.54557 -4.77053,5.72784 -9.86863,6.09302 -6.36651,0.45603 -8.68309,-0.0144 -12.36045,-2.50989 -4.46394,-3.02931 -4.71228,-1.58975 -0.78045,4.52408 3.94729,6.13788 6.12812,7.91838 17.89771,14.61227 31.43553,17.87878 49.67276,36.61128 63.7652,65.49688 5.98265,12.26277 7.50285,17.89682 5.48501,20.32817 -3.85037,4.63941 -11.53321,-1.3598 -18.47058,-14.42292 C 902.13789,717.1371 891.75242,708.24687 874,700.64852 870.425,699.11835 862.65415,695.42146 856.73145,692.4332 850.80876,689.44494 845.08163,687 844.00451,687 c -1.07712,0 -2.71269,1.15119 -3.63461,2.55821 -1.48618,2.2682 -1.54702,3.60933 -0.53669,11.83056 2.94887,23.99549 13.27698,41.74324 32.66679,56.1344 9.24205,6.85947 13.13889,10.92835 16.25904,16.97683 2.38384,4.62113 2.63893,6.40184 3.3665,23.5 0.43297,10.175 0.96171,20.59501 1.17498,23.15558 0.51781,6.21714 5.84733,17.15894 16.41995,33.71108 4.78954,7.49834 10.26555,17.2313 12.16891,21.62881 2.99914,6.92921 3.52082,9.34845 3.91187,18.14102 l 0.45122,10.14556 3.02221,-3.44211 c 1.66221,-1.89316 4.21116,-4.05694 5.66432,-4.80839 1.45316,-0.75146 5.50138,-5.00348 8.99604,-9.44892 3.49467,-4.44545 6.69999,-8.08263 7.12294,-8.08263 1.01736,0 6.94829,8.09701 6.91978,9.447 -0.0122,0.57915 -0.90222,2.178 -1.97776,3.553 -2.98285,3.81336 -2.47411,4.33109 3.55912,3.622 7.23102,-0.84987 10.2019,-2.91331 13.07368,-9.08043 2.55516,-5.48717 2.95756,-9.85861 1.3071,-14.19963 -0.81962,-2.15579 -0.65233,-4.21208 0.73752,-9.0651 0.98868,-3.45226 2.0692,-6.27684 2.40116,-6.27684 0.33196,0 1.87294,2.33227 3.42441,5.18283 3.48574,6.40446 4.28925,15.98991 2.22555,26.54978 -1.31846,6.74653 -1.29485,7.27026 0.35122,7.7927 0.97057,0.30805 3.37467,2.34217 5.34245,4.52027 L 992,905.00576 v -7.78495 c 0,-10.77213 1.7875,-16.67085 8.0839,-26.67698 l 5.4161,-8.60702 0.7853,4.60407 c 0.637,3.73423 0.3018,6.00509 -1.7741,12.01956 -2.4413,7.07291 -2.5521,8.33887 -2.3989,27.4035 l 0.1605,19.98802 -2.88639,5.77402 c -5.06754,10.13719 -15.35235,14.75667 -23.8629,10.71815 C 964.1709,937.05697 966.33691,920 978.37361,920 c 4.01974,0 8.62639,4.57432 8.62639,8.56584 0,4.49358 -3.80386,7.30019 -7.56903,5.58466 -3.14132,-1.43128 -4.09771,-3.85323 -2.5195,-6.38034 1.83089,-2.93173 0.21353,-3.6367 -2.0207,-0.88078 -2.22701,2.74701 -1.76467,5.70471 1.30691,8.36062 C 981.18428,939.56178 989,935.40766 989,928.44545 989,923.2926 983.70527,918 978.55034,918 c -5.43041,0 -9.4298,2.52098 -11.60696,7.31632 -2.52962,5.57167 -2.45131,6.51501 1.10165,13.26928 1.67476,3.18378 2.91226,6.71697 2.75,7.85154 -0.27483,1.92163 -1.05171,2.08209 -11.34746,2.34376 -6.07884,0.1545 -11.36634,-0.033 -11.75,-0.41666 z M 892.16945,549.42683 c 18.85822,-30.87299 20.02123,-32.18858 24.28771,-27.47416 2.37125,2.62019 4.58508,2.57632 12.98535,-0.25731 l 6.83209,-2.30465 -6.52909,-5.19535 C 926.15451,511.33791 922.90123,509 922.51601,509 c -1.00776,0 -31.93984,25.44112 -38.7965,31.90948 -7.08842,6.68699 -9.19159,9.99538 -11.21894,17.64797 -1.78403,6.73412 -1.17532,20.82587 0.87093,20.16221 0.62068,-0.2013 9.07975,-13.38308 18.79795,-29.29283 z m 154.13475,23.91484 c 1.2274,-11.89289 -3.1844,-22.71919 -13.6458,-33.4856 -6.6208,-6.8139 -31.4123,-27.8512 -35.22751,-29.89305 -2.09548,-1.12147 -2.91888,-0.74692 -9.00592,4.09668 l -6.69957,5.33101 6.83209,2.30465 c 8.30345,2.80097 11.59571,2.89788 13.84931,0.40764 3.8786,-4.28585 5.8568,-2.10116 21.2141,23.42931 19.493,32.40562 20.1657,33.46769 21.1979,33.46769 0.4958,0 1.1642,-2.54625 1.4854,-5.65833 z m -79.5343,-69.27685 c 3.15155,-2.19048 6.80804,-4.83996 8.12552,-5.88774 l 2.39541,-1.90506 -5.89541,-3.99148 c -3.24248,-2.19531 -7.39367,-4.76156 -9.22487,-5.70277 l -3.32945,-1.7113 -6.71166,3.98732 c -3.69141,2.19303 -7.74607,4.82494 -9.01035,5.8487 l -2.2987,1.86137 5.83981,4.56963 c 7.01744,5.49113 11.39412,7.94591 13.1097,7.35294 0.69844,-0.24141 3.84844,-2.23114 7,-4.42161 z m -25.96503,-18.91703 c 24.54444,-16.60195 53.39094,-28.46518 61.46303,-25.27691 1.5224,0.60129 3.1673,2.14351 3.6553,3.42715 1.1448,3.01104 -0.2489,10.46 -2.9465,15.74762 -1.6824,3.2979 -1.8542,4.39707 -0.8718,5.58074 1.6616,2.00213 3.1794,0.36634 5.7389,-6.18523 4.7131,-12.06425 3.4966,-20.18364 -3.3635,-22.44766 -11.22589,-3.70488 -36.60506,5.486 -64.2303,23.26054 -5.0875,3.27338 -9.25,6.26533 -9.25,6.64878 0,0.97809 2.22698,3.09718 3.25487,3.09718 0.47018,0 3.41768,-1.73349 6.55,-3.85221 z m -11.17062,-9.35159 4.46121,-3.20379 -3.33508,-1.711 c -1.83429,-0.94105 -5.00577,-2.02442 -7.04773,-2.40749 C 920.69291,467.90741 920,468.07437 920,469.36847 c 0,2.49388 3.10887,9.63153 4.1951,9.63153 0.53787,0 2.98549,-1.44171 5.43915,-3.2038 z m 67.55498,-4.03345 c 0.62216,-2.0766 0.9026,-4.00426 0.62318,-4.28367 -0.83046,-0.83046 -13.96702,3.55951 -13.62582,4.55348 0.17237,0.50216 2.33841,2.22153 4.81341,3.82081 4.06512,2.62678 4.6236,2.75207 5.77901,1.29641 0.70345,-0.88626 1.78805,-3.31042 2.41022,-5.38703 z m 164.88967,473.65392 c 0.048,-1.16495 0.285,-1.4019 0.6042,-0.60417 0.2889,0.72187 0.2534,1.58438 -0.079,1.91667 -0.3323,0.33229 -0.5687,-0.25834 -0.5253,-1.3125 z m 13,0 c 0.048,-1.16495 0.285,-1.4019 0.6042,-0.60417 0.2889,0.72187 0.2534,1.58438 -0.079,1.91667 -0.3323,0.33229 -0.5687,-0.25834 -0.5253,-1.3125 z m 1,-4 c 0.048,-1.16495 0.285,-1.4019 0.6042,-0.60417 0.2889,0.72187 0.2534,1.58438 -0.079,1.91667 -0.3323,0.33229 -0.5687,-0.25834 -0.5253,-1.3125 z M 366.5,932 c -0.37968,-1.72866 -0.48187,-3.35146 -0.22711,-3.60623 0.25477,-0.25477 0.75072,0.97429 1.10211,2.73123 0.83365,4.16825 0.0258,4.97614 -0.875,0.875 z m 799.67,-2.5 c -0.016,-1.1 0.3573,-2.9 0.83,-4 1.095,-2.54822 1.095,0.0808 0,3.5 -0.6436,2.00973 -0.8064,2.10779 -0.83,0.5 z m 13.9879,-5.5 c 0,-1.375 0.227,-1.9375 0.5044,-1.25 0.2774,0.6875 0.2774,1.8125 0,2.5 -0.2774,0.6875 -0.5044,0.125 -0.5044,-1.25 z m -804.53436,-6.53866 c -0.34295,-0.8937 -0.59502,-2.15061 -0.56015,-2.79313 0.0349,-0.64251 0.49453,-0.0904 1.02148,1.22697 0.52695,1.31735 0.77902,2.57426 0.56015,2.79313 -0.21887,0.21887 -0.67854,-0.33327 -1.02148,-1.22697 z M 362.15789,913 c 0,-1.375 0.22698,-1.9375 0.50439,-1.25 0.27741,0.6875 0.27741,1.8125 0,2.5 -0.27741,0.6875 -0.50439,0.125 -0.50439,-1.25 z M 1171.17,906.5 c -0.016,-1.1 0.3573,-2.9 0.83,-4 1.095,-2.54822 1.095,0.0808 0,3.5 -0.6436,2.00973 -0.8064,2.10779 -0.83,0.5 z m 14.0249,-7 c 0.02,-1.65 0.2445,-2.20394 0.4981,-1.23097 0.2535,0.97297 0.2369,2.32297 -0.037,3 -0.2739,0.67703 -0.4813,-0.11903 -0.461,-1.76903 z m -814.55424,-3.71034 c -0.33734,-1.25931 -0.57429,-3.18966 -0.52655,-4.28966 0.0477,-1.1 0.49867,-0.24458 1.00207,1.90093 0.97494,4.1552 0.55831,6.24809 -0.47552,2.38873 z M 935.26905,889.25 c -1.3256,-4.74013 -0.65647,-18.44425 1.13524,-23.25 4.49776,-12.06403 15.0764,-19.59079 24.59571,-17.5 3.47432,0.76309 3.81359,2.64313 1.24127,6.87834 -1.26588,2.08421 -2.64333,2.94876 -4.99256,3.13356 -7.41414,0.58324 -12.44642,7.71836 -12.81192,18.16565 -0.19399,5.54463 -0.60772,6.64602 -4.03822,10.75 -2.10215,2.51485 -3.94323,4.57245 -4.09128,4.57245 -0.14805,0 -0.61526,-1.2375 -1.03824,-2.75 z M 962,887.76677 c -8.40273,-9.72651 -14,-17.34968 -14,-19.06722 0,-1.8501 5.10671,-7.72261 6.67308,-7.67376 0.4548,0.0142 2.26841,2.15168 4.03023,4.75 1.76182,2.59831 5.56893,7.37748 8.46025,10.62036 l 5.25694,5.89616 -2.5383,4.54653 c -1.39606,2.50059 -2.95317,4.6439 -3.46025,4.76292 -0.50707,0.11902 -2.49695,-1.60673 -4.42195,-3.83499 z M 357.19495,888.5 c 0.0204,-1.65 0.2445,-2.20394 0.49804,-1.23097 0.25354,0.97297 0.23687,2.32297 -0.0371,3 -0.27393,0.67703 -0.48137,-0.11903 -0.46099,-1.76903 z m 818.88395,-11.08333 c 0.048,-1.16495 0.285,-1.4019 0.6042,-0.60417 0.2889,0.72187 0.2534,1.58438 -0.079,1.91667 -0.3323,0.33229 -0.5687,-0.25834 -0.5253,-1.3125 z M 1189.1891,875 c -0.023,-1.375 0.3195,-4.525 0.7599,-7 0.6004,-3.37449 0.8176,-3.74966 0.8682,-1.5 0.037,1.65 -0.3048,4.8 -0.7598,7 -0.5179,2.5038 -0.8427,3.06488 -0.8683,1.5 z M 366.232,870 c 0,-1.925 0.2058,-2.7125 0.45733,-1.75 0.25152,0.9625 0.25152,2.5375 0,3.5 -0.25153,0.9625 -0.45733,0.175 -0.45733,-1.75 z m 597.31889,-1.34439 c -3.13468,-4.10978 -3.14036,-4.55884 -0.13274,-10.49408 3.53987,-6.9856 4.12636,-11.44722 2.17607,-16.554 -0.9045,-2.3684 -2.75823,-5.35243 -4.11939,-6.63117 L 959,832.65137 l -2.5312,2.37794 c -1.39215,1.30786 -3.28368,4.4966 -4.20338,7.08609 -1.2625,3.55465 -2.48817,5.09727 -5.00273,6.29637 -1.8318,0.87353 -3.60438,1.58823 -3.93907,1.58823 -1.67321,0 1.41786,-15.13108 7.91609,-38.75 C 955.21187,796.8125 958.704,785 959,785 c 0.296,0 3.8885,12.0375 7.98332,26.75 6.93974,24.93412 7.44757,27.42883 7.48091,36.75 0.0329,9.21288 -0.21591,10.5313 -3.16169,16.75 -1.7586,3.7125 -3.6482,6.75 -4.19911,6.75 -0.55091,0 -2.14955,-1.50498 -3.55254,-3.34439 z M 352.5,862 c -0.39084,-3.36749 -0.49807,-6.33527 -0.23829,-6.59505 0.25979,-0.25978 0.78487,2.29014 1.16686,5.66648 0.38199,3.37634 0.48922,6.34411 0.23829,6.59505 C 353.41592,867.91741 352.89084,865.36749 352.5,862 Z m 828.203,-22.5 c 0.6032,-9.14456 1.1369,-10.53957 1.1478,-3 0,3.3 -0.3554,6.9 -0.8004,8 -0.4703,1.16246 -0.6157,-0.93138 -0.3474,-5 z M 361.5,835 c -0.39666,-5.01167 -0.5057,-9.32763 -0.24232,-9.59102 0.26339,-0.26338 0.79993,3.62508 1.19232,8.64102 0.39239,5.01594 0.50143,9.3319 0.24232,9.59102 C 362.4332,843.90013 361.89666,840.01167 361.5,835 Z m 832.8201,-9 c 0,-3.575 0.1815,-5.0375 0.4033,-3.25 0.2218,1.7875 0.2218,4.7125 0,6.5 -0.2218,1.7875 -0.4033,0.325 -0.4033,-3.25 z m -287.3357,2.18246 c -5.58991,-2.91582 -8.96147,-10.57073 -9.07834,-20.61177 -0.0517,-4.43888 -0.38917,-12.23329 -0.75,-17.32092 -0.36083,-5.08762 -0.3836,-9.25012 -0.0506,-9.25 1.21013,4.6e-4 25.54799,25.62771 28.71826,30.23972 2.83419,4.12311 3.10226,5.03347 2.06119,7 C 924.0938,825.40075 918.20746,830 912.83327,830 c -1.30046,0 -3.93245,-0.81789 -5.84887,-1.81754 z m 9.94302,-6.81732 c 3.67587,-4.67311 2.44224,-13.24782 -2.67813,-18.61514 -3.26522,-3.4227 -7.50316,-3.65334 -9.69259,-0.52749 -3.25483,4.64692 -1.23085,18.12772 3.0996,20.64496 3.29912,1.91773 7.06032,1.30825 9.27112,-1.50233 z m -9.89224,-4.2994 c -1.58426,-2.96023 -1.24249,-5.56815 0.9951,-7.59314 3.12893,-2.83164 7.3668,-1.00285 7.78795,3.36078 0.17503,1.8135 -0.21757,3.94287 -0.87244,4.73194 -1.76009,2.12077 -6.67433,1.81042 -7.91061,-0.49958 z m 92.25196,11.35814 c -3.13206,-1.59653 -6.75585,-5.62027 -9.17206,-10.18439 -1.04107,-1.96653 -0.773,-2.87689 2.06119,-7 3.17027,-4.61201 27.50813,-30.23926 28.71823,-30.23972 0.333,-1.2e-4 0.3103,4.16238 -0.051,9.25 -0.3608,5.08763 -0.7027,12.85023 -0.7597,17.25023 -0.1718,13.25106 -5.1397,21.12448 -13.9726,22.14451 -2.1454,0.24776 -4.9159,-0.24777 -6.82446,-1.22063 z m 10.86326,-5.50437 c 4.477,-2.39604 6.6306,-15.93179 3.2929,-20.697 -2.1894,-3.12585 -6.4274,-2.89521 -9.6926,0.52749 -9.12009,9.55995 -3.98952,25.72965 6.3997,20.16951 z m -7.0962,-5.35419 c -0.6549,-0.78907 -1.0475,-2.91844 -0.8724,-4.73194 0.2459,-2.54814 0.9361,-3.51321 3.0379,-4.24772 4.8787,-1.70492 8.408,3.5045 5.7451,8.48008 -1.2363,2.31 -6.1505,2.62035 -7.9106,0.49958 z M 348.33621,819 c 0,-4.125 0.17651,-5.8125 0.39226,-3.75 0.21574,2.0625 0.21574,5.4375 0,7.5 -0.21575,2.0625 -0.39226,0.375 -0.39226,-3.75 z m 547.03574,-66.06361 c -3.5566,-2.05339 -7.01128,-3.11492 -11.4798,-3.52742 -9.24059,-0.85302 -12.6726,-2.16541 -17.6423,-6.74631 C 862.39584,739.11015 858,732.54612 858,730.34367 c 0,-0.4048 1.4625,0.67114 3.25,2.39099 4.1617,4.00418 7.51102,4.80986 12.07238,2.904 4.23398,-1.76907 5.52468,-5.17946 3.66207,-9.67619 -0.68316,-1.64929 -6.4041,-7.81307 -12.7132,-13.69729 -6.3091,-5.88421 -11.03806,-10.84291 -10.5088,-11.01933 2.04747,-0.68249 12.49352,4.09553 17.99447,8.23067 3.17398,2.38592 7.32148,6.51726 9.21668,9.18076 1.89519,2.6635 6.88941,8.45749 11.09826,12.87554 l 7.65246,8.03281 0.73013,7.79156 c 0.40157,4.28536 0.56701,7.95468 0.36764,8.15405 -0.19937,0.19937 -2.65193,-0.95932 -5.45014,-2.57485 z m 121.70105,-0.113 c 0.2456,-11.1793 1.1827,-13.41169 9.0534,-21.56645 4.1177,-4.26632 9.03,-9.93616 10.9162,-12.59966 1.8863,-2.6635 6.0265,-6.79484 9.2005,-9.18076 5.5009,-4.13514 15.947,-8.91316 17.9944,-8.23067 0.5293,0.17642 -4.1997,5.13512 -10.5088,11.01933 -6.3091,5.88422 -12.03,12.048 -12.7132,13.69729 -1.8626,4.49673 -0.5719,7.90712 3.6621,9.67619 4.5614,1.90586 7.9107,1.10018 12.0724,-2.904 1.7875,-1.71985 3.25,-2.79579 3.25,-2.39099 0,2.20245 -4.3958,8.76648 -8.2499,12.31899 -4.9675,4.57892 -8.4026,5.89347 -17.6243,6.74443 -4.5154,0.41668 -7.9417,1.48509 -11.75,3.66395 L 1017,756.14678 Z m -65.92272,-13.42552 c -14.33543,-12.97281 -26.322,-33.6765 -31.2046,-53.89787 -3.10724,-12.86863 -2.72784,-16.37199 2.91496,-26.91682 19.48286,-36.40802 52.41769,-78.45043 63.83694,-81.48998 16.01492,-4.26279 29.11822,-0.44776 41.46612,12.07283 12.5465,12.72191 17.3081,27.39769 14.9232,45.99449 -0.6414,5.00149 -1.8442,10.72393 -2.6728,12.71655 -4.0068,9.63504 -11.5984,16.12293 -18.8658,16.12293 -7.7338,0 -10.1977,-2.51373 -26.84243,-27.38485 -8.50824,-12.71333 -17.24046,-25.10545 -19.40494,-27.53804 l -3.93542,-4.42288 -2.80732,3.68059 -2.80732,3.68058 5.119,7.2423 c 8.09664,11.45505 19.43008,29.44306 24.70362,39.20866 4.26262,7.89357 4.82281,9.62845 4.68171,14.5 -0.35017,12.09171 -8.93363,34.1862 -19.27673,49.61977 C 974.89867,731.65817 961.92935,745 959.19039,745 c -1.01726,0 -4.63531,-2.52096 -8.04011,-5.60213 z M 964.25873,726.75 c 13.76216,-14.80175 24.72469,-37.32341 24.97407,-51.30728 0.0953,-5.34299 -0.4512,-7.17078 -4.6343,-15.5 -4.38247,-8.72619 -18.82011,-31.26085 -23.60391,-36.84163 -2.46072,-2.87066 -1.58509,-3.74429 -12.42728,12.39891 -8.36978,12.46195 -16.80411,27.952 -18.63538,34.22475 -2.53083,8.66899 2.62986,26.68318 11.97024,41.78397 C 947.64233,720.78896 956.45994,731 958.7336,731 c 0.86549,0 3.3518,-1.9125 5.52513,-4.25 z m 62.35477,-74.65602 c 1.7124,-1.0442 4.0901,-3.91602 5.2838,-6.38181 10.0932,-20.84972 -2.9131,-53.24604 -24.1276,-60.09757 -10.67794,-3.44857 -19.15449,-1.30929 -26.49667,6.68713 l -4.22698,4.60362 6.64487,8.79733 c 3.65468,4.83852 11.80217,16.56849 18.10548,26.06659 14.9868,22.58249 17.602,24.72432 24.8171,20.32471 z m -135.14747,12.50599 c -4.72507,-2.05848 -9.51178,-7.48089 -12.88244,-14.5933 C 875.6124,643.73717 875.5,643.00793 875.5,630 c 0,-16.05743 1.79948,-22.60661 9.41817,-34.27726 8.96739,-13.73667 18.10101,-19.02031 33.10286,-19.14941 7.6677,-0.066 9.16985,0.24907 15,3.14608 3.56343,1.77068 8.18958,4.80641 10.28032,6.74606 l 3.80136,3.52666 2.41704,-2.74607 c 1.32938,-1.51033 2.43127,-3.04757 2.44865,-3.41607 0.0746,-1.58184 -11.56353,-10.80667 -16.96623,-13.44809 -3.24202,-1.58504 -5.91564,-3.1069 -5.94138,-3.3819 -0.0257,-0.275 4.44691,-2.3 9.93921,-4.5 13.34816,-5.34675 13.21561,-6.35613 -0.5,-3.80782 -1.65,0.30656 -6.02627,2.07623 -9.72504,3.9326 -7.19228,3.60973 -9.63563,4.02973 -13.0907,2.25026 -9.96779,-5.13373 -8.64384,-13.88068 3.35065,-22.1368 3.0058,-2.06897 13.22759,-7.09145 22.71509,-11.16107 l 17.25,-7.39931 17.25,7.39931 c 9.4875,4.06962 19.70929,9.0921 22.71509,11.16107 11.99451,8.25612 13.31841,17.00307 3.35061,22.1368 -3.46319,1.78367 -5.90269,1.35809 -13.15748,-2.29536 -3.73552,-1.88118 -8.56178,-3.71151 -10.72503,-4.0674 -2.16326,-0.35589 -5.17069,-0.8775 -6.68319,-1.15913 -5.69426,-1.06029 -2.38997,1.28546 7.25,5.14685 8.97443,3.59481 12.05074,5.5 8.88081,5.5 -1.88798,0 -12.60194,6.89978 -18.37052,11.83059 -11.81605,10.10001 -28.00204,31.26594 -46.14731,60.34543 -10.73401,17.20225 -14.09158,21.24631 -19.86298,23.92413 -4.70417,2.18265 -7.8694,2.31411 -12.03397,0.49982 z M 903.17401,650.25 c 1.96894,-2.0625 6.40837,-8.25 9.86539,-13.75 9.5893,-15.25624 17.48424,-26.83733 22.45847,-32.94434 2.47617,-3.04007 4.50213,-6.176 4.50213,-6.96873 0,-2.21786 -6.90285,-7.40396 -12.78751,-9.60723 -20.47538,-7.66618 -39.63614,9.44294 -42.70794,38.13498 -1.15727,10.80949 2.55693,25.075 7.23842,27.80128 3.72843,2.17128 7.69673,1.24578 11.43104,-2.66596 z m 59.70479,-75.5197 c 1.99166,-1.79833 4.71905,-4.03798 6.06087,-4.977 1.34181,-0.93901 2.24181,-1.83638 2,-1.99415 -0.24182,-0.15777 -3.00618,-1.50294 -6.14302,-2.98926 l -5.70335,-2.7024 -6.01052,2.71626 c -3.3058,1.49394 -5.91429,2.98691 -5.79666,3.31772 0.22285,0.62669 10.92906,9.70253 11.59268,9.82731 0.20834,0.0392 2.00834,-1.40014 4,-3.19848 z m -31.18945,-22.52407 c 10.04985,-4.2852 14.61731,-4.80189 21.60237,-2.44375 5.63631,1.90281 5.78025,1.90281 11.41656,0 6.98506,-2.35814 11.55252,-1.84145 21.60237,2.44375 14.08825,6.00715 16.20805,5.58469 7.2513,-1.44513 -3.37063,-2.64548 -10.9742,-6.62338 -20,-10.46324 L 959,534.10277 l -14.56195,6.19509 c -9.0258,3.83986 -16.62937,7.81776 -20,10.46324 -8.95671,7.02982 -6.83694,7.45228 7.2513,1.44513 z m 253.45235,57.21044 c 0.078,-24.15417 0.4589,-62.81667 0.8465,-85.91667 0.4303,-25.64419 0.52,-8.70424 0.2305,43.5 -0.2608,47.025 -0.6418,85.6875 -0.8465,85.91667 -0.2047,0.22916 -0.3084,-19.34584 -0.2305,-43.5 z M 356.54223,562.79544 C 356.15711,522.48295 355.99006,484.55 356.171,478.5 c 0.18095,-6.05 0.70348,26.72552 1.16117,72.8345 0.45769,46.10897 0.62475,84.04192 0.37123,84.29543 -0.25352,0.25352 -0.77604,-32.522 -1.16117,-72.83449 z M 1199.4631,433.5 c 2e-4,-26.95 0.129,-37.83127 0.2862,-24.1806 0.1573,13.65067 0.1571,35.70067 -3e-4,49 -0.1574,13.29933 -0.2861,2.1306 -0.2859,-24.8194 z m -856.00071,-12 c 1.9e-4,-26.4 0.12931,-37.05639 0.28692,-23.68087 0.15761,13.37553 0.15745,34.97553 -3.6e-4,48 -0.1578,13.02448 -0.28676,2.08087 -0.28656,-24.31913 z m -2.15252,-150 c 0.006,-3.3 0.1923,-4.52944 0.41486,-2.73209 0.22256,1.79735 0.21797,4.49735 -0.0102,6 -0.22818,1.50265 -0.41027,0.0321 -0.40466,-3.26791 z m 11.97614,0 c 0.008,-2.75 0.20172,-3.75631 0.43157,-2.23625 0.22986,1.52006 0.22371,3.77006 -0.0136,5 -0.23736,1.22994 -0.42542,-0.0138 -0.41792,-2.76375 z"
         id="path20" />
      <path
         style="fill:#c3170b"
         d="m 581,946.60155 c 0,-1.31915 1.35,-4.96485 3,-8.10155 3.56811,-6.78308 3.62244,-7.58276 0.89759,-13.21155 -3.87714,-8.0091 -12.55312,-9.83292 -18.49759,-3.88845 -4.31191,4.31191 -4.67874,9.41217 -0.94545,13.14545 6.0861,6.08611 16.98905,-1.07614 11.65468,-7.65607 -2.23423,-2.75592 -3.85159,-2.05095 -2.0207,0.88078 1.57821,2.52711 0.62182,4.94906 -2.5195,6.38034 -3.70841,1.68967 -7.57988,-1.09612 -7.53723,-5.42355 0.096,-9.74181 13.2763,-11.98836 17.85116,-3.04269 C 587.05039,933.83325 579.85187,944 569.9146,944 c -4.58702,0 -11.38083,-3.5291 -14.81561,-7.69607 -4.57927,-5.55545 -5.35817,-10.25257 -5.48436,-33.07324 -0.1353,-24.46789 0.9473,-21.12948 -16.61189,-51.226 -6.16044,-10.559 -12.02165,-21.06715 -13.02491,-23.35144 C 517.38014,822.73869 516,811.0262 516,794.89552 516,775.54936 514.4792,772.56166 498.5,760.51577 489.95287,754.07253 484.54925,748.45175 479.06176,740.2963 470.78885,728.00121 463.4875,706.82986 462.40585,692 c -0.46704,-6.40317 -0.2512,-7.96736 1.47586,-10.69574 3.94573,-6.2334 13.99662,-5.23838 28.16061,2.78784 4.05063,2.29534 11.21069,5.72273 15.91123,7.61642 19.85978,8.00081 29.72777,16.89302 39.89977,35.95433 2.55567,4.78908 5.2564,8.90235 6.00162,9.1406 2.19715,0.70243 0.49719,-3.35184 -5.68818,-13.56591 C 540.13822,709.9798 533.72265,701.70186 523.95706,692 513.8379,681.9469 504.34694,675.21203 490,667.90381 c -17.90363,-9.11998 -24.9673,-18.56829 -25.80875,-34.52158 -0.23938,-4.53847 -0.0105,-8.37592 0.51916,-8.70325 0.52103,-0.32202 2.53063,0.71961 4.46579,2.31473 7.3364,6.04728 17.64221,9.85455 20.079,7.41776 0.32369,-0.32369 -0.53232,-3.56635 -1.90225,-7.20592 -3.36876,-8.94995 -6.983,-24.61263 -8.42549,-36.51269 -1.541,-12.71275 -0.72,-33.54674 1.57531,-39.97568 3.04513,-8.52911 10.67999,-18.8189 21.2416,-28.62812 l 10.07783,-9.35991 -0.528,-11.11458 c -0.30026,-6.3206 -0.0524,-13.70251 0.57454,-17.11457 1.52235,-8.28461 6.80804,-18.42263 10.82315,-20.75893 3.13968,-1.82692 3.22555,-1.82363 5.25,0.20082 C 529.84786,465.84786 530,467.18274 530,482 c 0,8.8 0.26394,16 0.58652,16 1.19395,0 9.41348,-6.37283 9.41348,-7.29853 0,-0.52773 -1.19696,-4.16394 -2.65992,-8.08048 -3.54874,-9.50048 -3.99236,-24.10259 -0.84008,-27.65169 7.24231,-8.15399 24.63144,-7.76021 46.75,1.05867 l 9.75,3.88741 9.75,-3.88741 c 22.11856,-8.81888 39.50769,-9.21266 46.75,-1.05867 3.15228,3.5491 2.70866,18.15121 -0.84008,27.65169 C 647.19696,486.53753 646,490.17374 646,490.70147 646,491.62717 654.21953,498 655.41348,498 655.73606,498 656,490.8 656,482 c 0,-14.81726 0.15214,-16.15214 2.05811,-18.05811 2.02445,-2.02445 2.11032,-2.02774 5.25,-0.20082 4.01511,2.3363 9.3008,12.47432 10.82315,20.75893 0.62699,3.41206 0.8748,10.79397 0.57454,17.11457 l -0.528,11.11458 10.07783,9.35991 c 10.56161,9.80922 18.19647,20.09901 21.2416,28.62812 2.29531,6.42894 3.11631,27.26293 1.57531,39.97568 -1.44249,11.90006 -5.05673,27.56274 -8.42549,36.51269 -1.36993,3.63957 -2.22594,6.88223 -1.90225,7.20592 2.43679,2.43679 12.7426,-1.37048 20.079,-7.41776 1.93516,-1.59512 3.94476,-2.63675 4.46579,-2.31473 0.52963,0.32733 0.75854,4.16478 0.51916,8.70325 -0.84145,15.95329 -7.90512,25.4016 -25.80875,34.52158 -25.30626,12.89083 -42.19194,28.95408 -58.16676,55.33373 -6.18537,10.21407 -7.88533,14.26834 -5.68818,13.56591 0.74522,-0.23825 3.44595,-4.35152 6.00162,-9.1406 10.172,-19.06131 20.03999,-27.95352 39.89977,-35.95433 4.70054,-1.89369 11.8606,-5.32108 15.91123,-7.61642 14.16399,-8.02622 24.21488,-9.02124 28.16061,-2.78784 1.72706,2.72838 1.9429,4.29257 1.47586,10.69574 -0.6729,9.22571 -4.50097,23.67652 -9.05708,34.19009 -5.99932,13.84389 -15.30733,25.837 -26.03707,33.54801 -6.84631,4.92015 -14.32106,12.14845 -16.29932,15.7619 -1.28618,2.34933 -1.78533,7.22937 -2.30137,22.5 -0.36244,10.725 -1.18372,21.75 -1.82507,24.5 -1.05233,4.51217 -17.87108,37.53392 -19.07424,37.45016 -0.275,-0.0191 -1.52892,-1.64669 -2.78648,-3.61677 l -2.28649,-3.58196 3.98081,-6.12572 c 6.41618,-9.87329 10.4579,-19.42738 10.83314,-25.60809 0.18424,-3.03469 0.69285,-13.61762 1.13025,-23.51762 0.73078,-16.54043 1.00499,-18.41016 3.38171,-23.05827 3.17896,-6.21706 6.47773,-9.77867 14.24706,-15.38225 21.61468,-15.58946 32.14629,-33.84174 35.07658,-60.79106 C 713.33483,691.29501 711.58956,687 707.99767,687 c -1.07592,0 -6.80304,2.43809 -12.72694,5.41797 -5.9239,2.97989 -16.05494,7.93474 -22.51341,11.01078 -15.52011,7.39192 -23.56964,14.72753 -30.15748,27.48281 -5.25628,10.17712 -11.24027,16.38776 -15.31801,15.8982 -6.1546,-0.7389 -5.42607,-6.73476 2.81965,-23.20586 14.26499,-28.4948 33.35169,-47.68686 64.23678,-64.59139 9.68206,-5.29934 13.19729,-8.21069 16.82984,-13.93863 3.67175,-5.78974 3.75605,-7.94598 0.20135,-5.14985 -5.59799,4.40338 -14.69357,4.71452 -20.80279,0.7116 -3.95361,-2.5905 -3.96762,-6.07301 -0.0709,-17.63293 5.68609,-16.86834 7.88368,-30.09464 7.89272,-47.5027 0.0114,-22.02333 -2.7001,-27.76954 -22.50376,-47.68922 l -12.61532,-12.68921 2.05279,-5.81079 c 2.7164,-7.68927 2.91071,-25.11394 0.37368,-33.50988 -0.94716,-3.13451 -2.07878,-5.91953 -2.5147,-6.18895 -0.43592,-0.26941 -0.78462,6.34519 -0.77488,14.69911 0.0135,11.60233 -0.39316,16.5467 -1.72222,20.93894 -0.95695,3.1625 -2.10719,5.75 -2.55609,5.75 -0.44889,0 -4.37382,-2.83534 -8.72206,-6.30075 -10.35337,-8.25132 -22.91066,-17.17657 -33.16853,-23.57495 -8.02977,-5.0086 -8.33284,-5.10785 -10.7537,-3.52164 l -2.49107,1.63221 11.92262,8.13257 c 33.01233,22.5181 65.28481,51.27071 71.31519,63.53703 1.70189,3.46181 2.34886,6.81051 2.62245,13.5739 C 689.47264,579.80006 686.11004,589 679.89012,589 c -5.02499,0 -10.33856,-6.92004 -25.81299,-33.61712 -7.93258,-13.68558 -14.50098,-25.00129 -14.59646,-25.14601 -0.0955,-0.14472 -1.83414,0.4307 -3.8637,1.2787 -4.35433,1.81936 -6.08319,1.46114 -22.24286,-4.60871 -14.68453,-5.51576 -14.27679,-5.18585 -9.81637,-7.94254 C 609.38677,515.36178 622,505.09752 622,503.95658 c 0,-2.881 -3.59466,-1.51952 -11.16277,4.22793 -10.28728,7.81245 -15.53086,10.28315 -20.03197,9.43874 -5.58106,-1.04702 -15.77145,-8.45188 -26.90919,-19.55361 -12.11267,-12.0735 -17.88433,-21.73461 -18.216,-30.49153 -0.39447,-10.41495 7.56361,-11.09322 28.99944,-2.47166 2.58375,1.03919 3.70736,1.03831 5.99654,-0.005 l 2.81703,-1.28353 -5.90742,-2.49116 C 570.2874,458.24937 557.81913,455 553.30792,455 c -1.85469,0 -4.90163,0.63905 -6.77098,1.42012 -6.63314,2.7715 -6.63991,12.65077 -0.0178,26.05281 6.27668,12.703 19.28362,26.28424 33.78878,35.28063 3.95066,2.45028 5.38722,3.83757 4.49241,4.33833 -2.17545,1.21744 -22.74741,8.81678 -26.88026,9.92964 -3.01441,0.8117 -4.64546,0.70221 -7.537,-0.50596 -2.02956,-0.848 -3.76823,-1.42342 -3.8637,-1.2787 -0.0955,0.14472 -6.66388,11.46043 -14.59646,25.14601 C 516.44844,582.07996 511.13487,589 506.10988,589 c -6.21992,0 -9.58252,-9.19994 -8.96273,-24.52163 0.52598,-13.00255 2.35826,-16.20329 18.30613,-31.97837 7.22831,-7.15 17.46097,-16.35067 22.73923,-20.44592 9.37419,-7.27318 9.56182,-7.49938 8.08716,-9.75 -0.83033,-1.26725 -1.88468,-2.30408 -2.343,-2.30408 -0.45832,0 -4.11906,2.67226 -8.13499,5.93836 -6.52086,5.30332 -7.43634,5.76274 -8.56095,4.29619 -2.47599,-3.22884 -3.23083,-8.97291 -3.3161,-25.23455 l -0.0865,-16.5 -1.86653,4 c -4.53287,9.71398 -5.09199,28.91802 -1.10439,37.93263 l 2.07381,4.6882 -12.7254,12.68959 c -19.89253,19.83654 -22.61553,25.58148 -22.60404,47.68958 0.009,17.40806 2.20663,30.63436 7.89272,47.5027 3.89669,11.55992 3.88268,15.04243 -0.0709,17.63293 -6.10922,4.00292 -15.2048,3.69178 -20.80279,-0.7116 -3.5547,-2.79613 -3.4704,-0.63989 0.20135,5.14985 3.63255,5.72794 7.14778,8.63929 16.82984,13.93863 30.88509,16.90453 49.97179,36.09659 64.23678,64.59139 8.24572,16.4711 8.97425,22.46696 2.81965,23.20586 -4.07774,0.48956 -10.06173,-5.72108 -15.31801,-15.8982 -6.58784,-12.75528 -14.63737,-20.09089 -30.15748,-27.48281 -6.45847,-3.07604 -16.58951,-8.03089 -22.51341,-11.01078 C 484.80537,689.43809 479.07825,687 478.00233,687 c -3.59189,0 -5.33716,4.29501 -4.57891,11.26842 2.93029,26.94932 13.4619,45.2016 35.07658,60.79106 7.76642,5.60148 11.06609,9.16306 14.25107,15.38225 2.41045,4.70679 2.64824,6.41326 3.42204,24.55827 0.45737,10.725 1.07622,21.36658 1.37521,23.64796 0.71638,5.46615 6.65599,17.58163 14.38262,29.33736 14.26652,21.70588 18.01582,30.90867 18.04797,44.29948 l 0.0211,8.78479 3.14844,-3.58588 c 1.73165,-1.97223 4.3374,-4.20071 5.79056,-4.95216 1.45316,-0.75146 5.50138,-5.00348 8.99604,-9.44892 3.49467,-4.44545 6.66361,-8.08263 7.04209,-8.08263 1.11299,0 7.02492,7.76196 7.00063,9.19136 -0.0122,0.71975 -0.90222,2.43364 -1.97776,3.80864 -1.07554,1.375 -1.96553,2.90018 -1.97776,3.38929 -0.033,1.31761 9.3979,-0.0381 12.91419,-1.85641 5.65283,-2.9232 9.38579,-13.99649 7.07688,-20.99256 -1.02097,-3.09357 -0.92143,-4.58907 0.63859,-9.59403 1.01645,-3.26106 2.17802,-5.93304 2.58125,-5.93774 0.40324,-0.005 1.93601,2.35395 3.40615,5.24145 3.32584,6.53223 4.09148,16.23726 2.08924,26.48261 -1.31846,6.74653 -1.29485,7.27026 0.35122,7.7927 0.97057,0.30805 3.37467,2.34217 5.34245,4.52027 l 3.57779,3.96018 0.0326,-8.75288 c 0.0398,-10.66763 1.72053,-15.9477 8.48056,-26.64175 l 4.98679,-7.88887 0.88576,5.10954 c 0.76477,4.41163 0.55989,5.83066 -1.5,10.38887 -2.25281,4.98512 -2.39215,6.43462 -2.50039,26.01002 -0.12619,22.82067 -0.90509,27.51779 -5.48436,33.07324 C 627.46623,940.4709 620.67242,944 616.0854,944 c -12.52488,0 -18.96756,-14.73563 -9.71836,-22.22776 3.65475,-2.96047 10.24584,-1.90346 13.35116,2.1411 2.20248,2.86866 1.55469,7.86175 -1.25916,9.70546 -4.55919,2.98729 -10.29159,-1.45477 -7.54757,-5.84864 1.83089,-2.93173 0.21353,-3.6367 -2.0207,-0.88078 -5.33437,6.57993 5.56858,13.74218 11.65468,7.65607 3.73329,-3.73328 3.36646,-8.83354 -0.94545,-13.14545 -5.94447,-5.94447 -14.62045,-4.12065 -18.49759,3.88845 -2.72485,5.62879 -2.67052,6.42847 0.89759,13.21155 1.65,3.1367 3,6.7824 3,8.10155 0,2.39802 -0.002,2.39845 -12,2.39845 -11.99785,0 -12,-4.3e-4 -12,-2.39845 z M 514.85193,567.9193 C 543.53227,520.87387 544.10796,520 546.42025,520 c 1.24838,0 3.08426,0.9 4.07975,2 2.32712,2.57144 4.57311,2.51858 12.94251,-0.30464 l 6.83209,-2.30465 -6.52909,-5.19535 C 560.15451,511.33791 556.91209,509 556.54014,509 c -1.27526,0 -38.10887,30.80847 -42.40212,35.46609 -4.79152,5.19819 -6.74919,9.21065 -8.18327,16.7725 -1.1625,6.12984 -0.1856,18.0038 1.43704,17.46678 0.60952,-0.20172 3.96658,-5.05545 7.46014,-10.78607 z m 165.45226,5.42237 c 1.23416,-11.95788 -3.11852,-22.57292 -13.74295,-33.51546 -6.76669,-6.96929 -31.26499,-27.79452 -35.13035,-29.86319 -2.09548,-1.12147 -2.91888,-0.74692 -9.00592,4.09668 l -6.69957,5.33101 6.83209,2.30465 c 8.2705,2.78986 11.59579,2.89774 13.81266,0.44812 1.0832,-1.19691 2.55238,-1.68978 4.13513,-1.38722 1.97815,0.37814 5.39738,5.35187 17.60347,25.60652 C 676.85423,577.46882 677.82845,579 678.87429,579 c 0.46525,0 1.1087,-2.54625 1.4299,-5.65833 z m -80.4793,-68.78586 c 9.2277,-6.14367 10.501,-7.26805 9.91778,-8.75777 -0.2795,-0.71392 -4.14498,-3.48765 -8.58996,-6.16385 l -8.08178,-4.8658 -4.78546,2.77361 c -2.63201,1.52549 -6.77252,4.12551 -9.20115,5.77783 l -4.41567,3.00423 2.91567,2.43013 C 580.66293,501.32013 592.01551,509 592.72993,509 c 0.23092,0 3.42366,-1.99989 7.09496,-4.44419 z m -25.02002,-19.40802 c 24.54444,-16.60195 53.39094,-28.46518 61.46306,-25.27691 5.2686,2.08095 5.52615,9.73195 0.64939,19.29118 -1.63354,3.20202 -1.79405,4.28155 -0.81242,5.46433 1.66162,2.00213 3.17936,0.36634 5.73887,-6.18523 4.71841,-12.07768 3.49777,-20.18325 -3.38134,-22.45356 -7.71962,-2.5477 -24.3152,1.81314 -43.61843,11.46167 C 584.05003,472.84452 565,484.6238 565,485.90282 c 0,0.97809 2.22698,3.09718 3.25487,3.09718 0.47018,0 3.41768,-1.73349 6.55,-3.85221 z m -11.30473,-9.361 4.55862,-3.21321 -3.31673,-1.70158 c -1.8242,-0.93587 -4.98742,-2.01501 -7.02938,-2.39808 C 554.69291,467.90741 554,468.07437 554,469.36847 c 0,2.35589 3.08153,9.63153 4.07934,9.63153 0.4742,0 2.91356,-1.44594 5.4208,-3.21321 z m 67.68909,-4.02404 c 0.62216,-2.0766 0.9026,-4.00426 0.62318,-4.28367 -0.83046,-0.83046 -13.96702,3.55951 -13.62582,4.55348 0.17237,0.50216 2.33841,2.22153 4.81341,3.82081 4.06512,2.62678 4.6236,2.75207 5.77901,1.29641 0.70345,-0.88626 1.78805,-3.31042 2.41022,-5.38703 z m -61.57995,418.66144 c -2.96887,-7.73677 -1.0625,-22.56237 4.01539,-31.22713 4.25871,-7.26695 14.2823,-12.25495 21.45917,-10.67865 3.32296,0.72985 3.57779,2.02629 1.32632,6.74766 -1.32471,2.77794 -2.13691,3.33393 -4.87029,3.33393 -7.34839,0 -12.74452,7.48927 -12.99765,18.03935 -0.13474,5.61587 -0.49078,6.54629 -4.17566,10.91187 -3.53016,4.18229 -4.1185,4.53759 -4.75728,2.87297 z m 25.95127,-3.08281 c -7.4572,-8.46193 -13.54269,-16.84513 -13.55161,-18.6683 -0.009,-1.82767 5.10486,-7.69592 6.66414,-7.64729 0.4548,0.0142 2.26841,2.15168 4.03023,4.75 1.76182,2.59831 5.50613,7.30702 8.3207,10.46379 4.10576,4.60496 4.97677,6.1826 4.40609,7.98065 -0.80069,2.52275 -4.50754,7.82983 -5.36816,7.68558 -0.30907,-0.0518 -2.33469,-2.1058 -4.50139,-4.56443 z m 1.54725,-19.35126 -2.90474,-4.00987 2.79726,-5.24013 c 1.5385,-2.88206 3.09529,-6.66496 3.45955,-8.40644 0.92057,-4.40115 -1.01991,-10.80986 -4.4276,-14.62284 l -2.86955,-3.21084 -2.61256,2.45362 c -1.4369,1.34949 -3.36504,4.57229 -4.28474,7.16178 -1.2625,3.55465 -2.48817,5.09727 -5.00273,6.29637 -1.8318,0.87353 -3.60438,1.58823 -3.93907,1.58823 -0.33469,0 -0.31571,-2.8125 0.0422,-6.25 C 578.04757,837.20173 591.93918,785 593,785 c 0.33656,0 3.94573,12.0375 8.02038,26.75 6.89331,24.88997 7.41092,27.44534 7.44403,36.75 0.0328,9.21269 -0.21615,10.53144 -3.16187,16.75 -1.7586,3.7125 -3.66828,6.75 -4.24373,6.75 -0.57545,0 -2.3534,-1.80444 -3.95101,-4.00988 z M 541,828.24637 c -2.3997,-1.28256 -4.35724,-3.58013 -6.22685,-7.3085 -2.52752,-5.04038 -2.77368,-6.64396 -3.3676,-21.93787 -0.35242,-9.075 -0.8394,-16.8375 -1.08217,-17.25 -3.44602,-5.85512 24.78735,22.34943 30.04042,30.00977 l 2.8638,4.17615 -2.61766,4.46669 C 555.71136,828.76142 547.8483,831.90655 541,828.24637 Z m 9.33314,-6.06199 c 3.96817,-4.38478 3.25988,-13.30044 -1.48606,-18.70576 C 545.34419,799.48905 542.0114,798.9886 539,802 c -3.83187,3.83187 -2.00851,18.15587 2.6563,20.86747 2.8328,1.64667 6.855,1.33002 8.67684,-0.68309 z m -9.29796,-5.11864 c -1.58426,-2.96023 -1.24249,-5.56815 0.9951,-7.59314 3.12893,-2.83164 7.3668,-1.00285 7.78795,3.36078 0.17503,1.8135 -0.21757,3.94287 -0.87244,4.73194 -1.76009,2.12077 -6.67433,1.81042 -7.91061,-0.49958 z M 635,829.32894 c -3.63071,-1.48644 -7.18424,-4.78719 -9.60994,-8.92633 l -2.61766,-4.46669 2.8638,-4.17615 C 629.01524,806.83226 653.83095,781 655.18551,781 c 0.51289,0 0.73347,0.3375 0.49019,0.75 -0.24329,0.4125 -0.75174,8.1657 -1.12988,17.22934 -0.76905,18.43295 -2.39405,24.35228 -7.72794,28.15034 -2.99859,2.13518 -9.16944,3.28355 -11.81788,2.19926 z m 9.1504,-6.40943 C 648.96066,820.34514 650.92494,805.92494 647,802 c -3.0114,-3.0114 -6.34419,-2.51095 -9.84708,1.47862 -8.3729,9.5362 -2.90106,24.73843 6.99748,19.44089 z m -7.09619,-5.35419 c -0.65487,-0.78907 -1.04747,-2.91844 -0.87244,-4.73194 0.24593,-2.54814 0.93615,-3.51321 3.03795,-4.24772 4.87866,-1.70492 8.40795,3.5045 5.7451,8.48008 -1.23628,2.31 -6.15052,2.62035 -7.91061,0.49958 z M 529.39215,752.97746 c -3.60838,-2.10406 -6.98436,-3.15164 -11.5,-3.56849 -9.24059,-0.85302 -12.6726,-2.16541 -17.6423,-6.74631 C 496.39584,739.11015 492,732.54612 492,730.34367 c 0,-0.4048 1.4625,0.67114 3.25,2.39099 4.1617,4.00418 7.51102,4.80986 12.07238,2.904 4.2237,-1.76477 5.52529,-5.17799 3.67657,-9.6412 -0.67519,-1.63005 -6.42321,-7.80881 -12.77338,-13.73059 -12.25651,-11.42966 -12.81409,-13.27091 -2.65871,-8.77972 7.6846,3.39849 15.26322,9.33994 19.44231,15.24228 1.85776,2.62381 6.7782,8.28901 10.93429,12.58932 l 7.55654,7.81875 1.04701,8.43125 c 0.57586,4.63719 0.80086,8.42132 0.5,8.40919 -0.30086,-0.0121 -2.84554,-1.36235 -5.65486,-3.00048 z m 122.06084,-5.40871 1.04701,-8.43125 7.55654,-7.81875 c 4.15609,-4.30031 9.07653,-9.96551 10.93429,-12.58932 4.17909,-5.90234 11.75771,-11.84379 19.44231,-15.24228 10.15538,-4.49119 9.5978,-2.64994 -2.65871,8.77972 -6.35017,5.92178 -12.09819,12.10054 -12.77338,13.73059 -1.84872,4.46321 -0.54713,7.87643 3.67657,9.6412 4.56136,1.90586 7.91068,1.10018 12.07238,-2.904 1.7875,-1.71985 3.25,-2.79579 3.25,-2.39099 0,2.20245 -4.39584,8.76648 -8.24985,12.31899 -4.96755,4.57892 -8.4027,5.89347 -17.62431,6.74443 -4.47145,0.41262 -7.94057,1.48441 -11.62172,3.59055 -2.88617,1.6513 -5.43895,3.00236 -5.67286,3.00236 -0.2339,0 0.0459,-3.79406 0.62173,-8.43125 z m -66.718,-8.57453 C 570.38842,725.84818 558.84572,705.79359 553.94568,685.5 c -3.13081,-12.96624 -2.74674,-16.33441 3.11317,-27.30159 19.26251,-36.05094 52.23165,-78.0689 63.63873,-81.10521 7.38629,-1.96606 11.92044,-2.26521 17.82871,-1.17629 8.92023,1.64403 16.08573,5.62615 23.54353,13.08394 12.54846,12.54847 17.40678,27.52553 15.00469,46.256 C 674.77069,653.22113 666.67448,664 655.48503,664 c -7.71681,0 -10.24367,-2.58239 -26.82279,-27.41215 -8.47881,-12.69832 -17.17277,-25.05966 -19.31991,-27.46965 l -3.90389,-4.3818 -2.76942,3.63089 c -1.7366,2.2768 -2.47099,4.11725 -1.96922,4.93501 0.44011,0.71727 3.78388,5.55518 7.4306,10.75091 8.09691,11.53623 18.51439,28.34445 22.93874,37.01081 2.63254,5.15659 3.25986,7.52931 3.15575,11.93598 -0.28261,11.96128 -8.88582,34.12646 -19.24642,49.58613 C 608.87339,731.6959 595.92543,745 593.1646,745 c -1.03144,0 -4.82477,-2.7026 -8.42961,-6.00578 z M 598.25873,726.75 c 9.34482,-10.05072 19.79768,-28.01988 23.1991,-39.88079 3.0052,-10.47924 2.38654,-15.73371 -3.20294,-27.2035 -4.44819,-9.12784 -17.95324,-30.35298 -23.26518,-36.56462 -2.45959,-2.87617 -1.63133,-3.70415 -12.40296,12.39891 -8.43267,12.60644 -16.85412,28.0567 -18.65482,34.22475 -2.53083,8.66899 2.62986,26.68318 11.97024,41.78397 C 581.64233,720.78896 590.45994,731 592.7336,731 c 0.86549,0 3.3518,-1.9125 5.52513,-4.25 z m 61.40728,-74.03544 c 13.92165,-7.80641 12.25588,-39.6143 -2.99999,-57.28472 -4.83651,-5.602 -13.93916,-10.28001 -21.55138,-11.07565 -8.16097,-0.85299 -13.53592,1.25063 -19.50749,7.63471 l -4.57791,4.89416 6.6037,8.75569 c 3.63204,4.81563 11.91722,16.70813 18.41152,26.42779 6.49429,9.71965 13.02674,18.6309 14.51653,19.80278 3.03203,2.38499 5.88652,2.64998 9.10502,0.84524 z m -134.19998,11.88541 c -4.72507,-2.05848 -9.51178,-7.48089 -12.88244,-14.5933 C 509.6124,643.73717 509.5,643.00793 509.5,630 c 0,-16.05743 1.79948,-22.60661 9.41817,-34.27726 8.95779,-13.72196 18.08007,-19.00045 33.08183,-19.14234 7.25455,-0.0686 9.34722,0.31659 14.28215,2.629 3.18018,1.49016 7.8191,4.37852 10.30871,6.41856 l 4.52655,3.70917 2.6913,-2.74601 2.69129,-2.74601 -5.72186,-5.24986 c -3.14702,-2.88742 -8.41031,-6.56507 -11.6962,-8.17255 -3.28589,-1.60749 -5.99829,-3.1477 -6.02756,-3.4227 -0.0293,-0.275 4.23123,-2.24617 9.46776,-4.38037 9.21128,-3.75415 13.10928,-6.20349 8.31165,-5.22269 -1.28359,0.26241 -4.27822,0.74088 -6.65475,1.06325 -2.37653,0.32238 -7.4278,2.15072 -11.22504,4.06298 -7.36466,3.70878 -9.79782,4.14002 -13.26974,2.35187 -9.98997,-5.14516 -8.64525,-13.87757 3.41609,-22.18366 3.04179,-2.09474 13.26358,-7.12099 22.71509,-11.16946 L 593,524.16108 l 17.18456,7.36084 c 9.45151,4.04847 19.6733,9.07472 22.71509,11.16946 12.06134,8.30609 13.40606,17.0385 3.41609,22.18366 -3.47192,1.78815 -5.90508,1.35691 -13.26974,-2.35187 -3.79724,-1.91226 -8.84851,-3.7406 -11.22504,-4.06298 -2.37653,-0.32237 -5.37116,-0.80084 -6.65475,-1.06325 -4.79763,-0.9808 -0.89963,1.46854 8.31165,5.22269 5.23653,2.1342 9.52123,4.16328 9.52155,4.50905 3.2e-4,0.34577 -1.39035,1.20482 -3.09038,1.909 -17.18262,7.11727 -38.08945,31.30446 -65.66005,75.96232 -7.7789,12.59998 -11.81189,17.0907 -17.46686,19.44932 -4.48045,1.86874 -7.2866,1.90609 -11.31609,0.15065 z m 10.27878,-13.0387 c 3.19973,-2.69239 3.54894,-3.18556 18.45367,-26.06127 5.73367,-8.8 12.5346,-18.58114 15.11318,-21.73587 2.57859,-3.15473 4.68834,-6.38447 4.68834,-7.1772 0,-2.21786 -6.90285,-7.40396 -12.78751,-9.60723 -20.47538,-7.66618 -39.63614,9.44294 -42.70794,38.13498 -1.15727,10.80949 2.55693,25.075 7.23842,27.80128 2.98186,1.73651 6.97014,1.19632 10.00184,-1.35469 z M 596.8788,574.7303 c 1.99166,-1.79833 4.71905,-4.03798 6.06087,-4.977 1.34181,-0.93901 2.24181,-1.83638 2,-1.99415 -0.24182,-0.15777 -3.00618,-1.50294 -6.14302,-2.98926 l -5.70335,-2.7024 -6.01359,2.71626 c -3.30748,1.49394 -6.02847,3.01705 -6.04665,3.38469 -0.0182,0.36764 1.43712,1.57706 3.234,2.68759 1.79688,1.11054 4.35032,3.17224 5.67431,4.58156 1.32399,1.40933 2.61178,2.56241 2.86174,2.56241 0.24997,0 2.08403,-1.47136 4.07569,-3.2697 z m -31.29771,-22.478 c 9.90239,-4.22245 14.03432,-4.74427 21.33847,-2.69483 5.73127,1.60811 6.42961,1.60811 12.16088,0 7.30415,-2.04944 11.43608,-1.52762 21.33847,2.69483 9.50026,4.05098 12.82407,4.98098 12.31935,3.44694 -0.98174,-2.98381 -12.38295,-9.93051 -25.48826,-15.52984 L 593,534.081 l -14.25,6.0884 c -13.10531,5.59933 -24.50652,12.54603 -25.48826,15.52984 -0.50472,1.53404 2.81909,0.60404 12.31935,-3.44694 z"
         id="path18" />
      <path
         style="fill:#010101"
         d="m 763,1410.9663 c -17.62351,-5.0243 -21.11483,-6.1075 -29,-8.9973 -9.18682,-3.3668 -26.35272,-11.1228 -32,-14.4584 -1.925,-1.137 -5.1875,-2.9444 -7.25,-4.0164 -2.0625,-1.0719 -3.75,-2.2967 -3.75,-2.7216 0,-0.4249 -0.52661,-0.7726 -1.17024,-0.7726 -1.0281,0 -21.52951,-12.5298 -22.82976,-13.9528 -0.275,-0.301 -4.325,-3.1579 -9,-6.3487 -15.11629,-10.3172 -29.39721,-20.9781 -36.6167,-27.3348 -1.16418,-1.025 -3.56663,-2.9741 -5.33877,-4.3313 -1.77213,-1.3572 -4.2294,-3.3822 -5.46059,-4.5 -1.23119,-1.1178 -5.33504,-4.7324 -9.11966,-8.0324 -21.11514,-18.4113 -51.02313,-48.8274 -65.3891,-66.5 -2.9061,-3.575 -6.05544,-7.175 -6.99854,-8 C 526.65204,1238.879 518,1228.4205 518,1227.6106 c 0,-0.3705 -4.275,-5.8088 -9.5,-12.085 -5.225,-6.2762 -9.5,-11.7151 -9.5,-12.0864 0,-0.3714 -1.2375,-2.1404 -2.75,-3.9313 -4.07289,-4.8225 -21.25,-29.3491 -21.25,-30.3421 0,-0.4707 -0.9,-1.6703 -2,-2.6658 -1.1,-0.9955 -2,-2.2008 -2,-2.6784 0,-0.4776 -2.25,-4.1374 -5,-8.1329 -2.75,-3.9955 -5,-7.7549 -5,-8.3542 0,-0.5993 -0.701,-1.6714 -1.55778,-2.3824 -0.85677,-0.7111 -2.2309,-2.6787 -3.05362,-4.3725 -2.12083,-4.3663 -4.94782,-9.3391 -6.14971,-10.8177 -0.56417,-0.694 -1.97372,-2.9494 -3.13233,-5.0119 -1.15861,-2.0625 -3.08229,-5.4375 -4.27485,-7.5 -4.76818,-8.2465 -10.93987,-19.9721 -22.50118,-42.75 -0.55832,-1.1 -2.01946,-4.25 -3.24698,-7 -1.22752,-2.75 -3.32348,-7.3625 -4.6577,-10.25 -1.33422,-2.8875 -3.61269,-7.8375 -5.06326,-11 -1.45058,-3.1625 -3.47558,-7.4142 -4.5,-9.4481 -1.02443,-2.034 -1.86259,-4.3505 -1.86259,-5.1479 0,-0.7974 -1.11958,-3.4083 -2.48795,-5.8019 -1.36838,-2.3937 -2.49338,-5.1546 -2.5,-6.1353 -0.007,-0.9808 -1.13705,-4.0034 -2.51205,-6.7168 -1.375,-2.7134 -2.5,-5.6114 -2.5,-6.44 0,-0.8286 -0.84348,-3.431 -1.8744,-5.7832 -1.03093,-2.35226 -2.41244,-5.8518 -3.07003,-7.7768 -4.02885,-11.7938 -9.12531,-27.47789 -10.88565,-33.5 -8.03952,-27.50321 -10.72989,-37.61237 -12.64126,-47.5 -0.69108,-3.575 -1.97318,-9.425 -2.84912,-13 -0.87595,-3.575 -2.05947,-9.425 -2.63005,-13 -0.57059,-3.575 -1.46369,-8.75 -1.98466,-11.5 -0.52098,-2.75 -1.69226,-10.4 -2.60285,-17 -0.91058,-6.6 -2.06271,-14.925 -2.56028,-18.5 -1.9594,-14.07828 -4.51582,-167.31282 -5.87245,-352 -0.4949,-67.375 -1.40988,-158.5 -2.03327,-202.5 -1.05783,-74.6628 -1.01856,-80.43365 0.58859,-86.5 2.87416,-10.84882 8.0506,-16.51661 21.91543,-23.99563 3.3,-1.7801 8.25,-4.48084 11,-6.00163 14.78493,-8.17633 34.88741,-17.76624 55.5,-26.47635 7.425,-3.13752 14.85,-6.30137 16.5,-7.03077 3.35577,-1.48345 6.66645,-2.68907 31,-11.28899 9.35,-3.30446 22.625,-7.6687 29.5,-9.6983 6.875,-2.0296 14.075,-4.2563 16,-4.94822 1.925,-0.69191 6.425,-1.84299 10,-2.55794 3.575,-0.71495 7.28509,-1.69746 8.24465,-2.18336 5.49427,-2.78217 62.55669,-14.265884 88.75535,-17.861857 7.975,-1.094631 16.525,-2.412471 19,-2.928532 2.475,-0.516061 12.375,-1.638789 22,-2.494953 9.625,-0.856163 21.1,-2.007272 25.5,-2.558021 31.44947,-3.936532 151.01929,-3.945604 175,-0.01328 3.3,0.54113 14.775,1.704761 25.5,2.585847 10.725,0.881085 21.3,2.007595 23.5,2.503355 2.2,0.49576 10.975,1.798939 19.5,2.895953 30.99993,3.989135 69.9323,11.66764 101.5,20.018548 6.6,1.74596 15.15,3.98934 19,4.98529 6.9285,1.79231 9.0067,2.41443 27.5,8.23207 10.0572,3.1638 19.4662,6.45386 29.7698,10.40965 3.4484,1.32392 6.7158,2.40712 7.2609,2.40712 0.5451,0 2.8987,0.85994 5.2302,1.91097 2.3315,1.05103 11.4391,4.9444 20.2391,8.65191 16.8354,7.09293 34.9515,16.07388 39.2601,19.46308 4.4038,3.46398 7.8857,9.23043 9.6456,15.97404 1.8974,7.27066 1.9139,-5.32813 -0.2483,189.5 -0.6409,57.75 -1.6595,151.125 -2.2635,207.5 -1.8603,173.6213 -2.814,238.88613 -3.7192,254.5 -0.8682,14.97541 -3.8111,39.42741 -6.6797,55.5 -0.8344,4.675 -1.9091,11.425 -2.3883,15 -1.3545,10.10592 -9.5258,44.99656 -15.1058,64.5 -1.1014,3.85 -2.8866,10.15 -3.967,14 -1.0804,3.85 -3.5776,11.5 -5.5494,17 -1.9717,5.5 -3.941,11.35 -4.3761,13 -0.4351,1.65 -1.5375,4.4402 -2.4498,6.2003 -0.9122,1.7602 -1.6586,3.9127 -1.6586,4.7833 0,0.8706 -1.125,3.803 -2.5,6.5164 -1.375,2.7134 -2.5023,5.736 -2.5051,6.7168 0,0.9807 -1.1138,3.5832 -2.4688,5.7832 -1.355,2.2 -2.4777,4.8108 -2.4949,5.8019 -0.017,0.991 -0.8797,3.466 -1.9168,5.5 -2.5427,4.9868 -6.1746,12.6955 -11.6365,24.6981 -4.774,10.4908 -8.2313,17.4152 -15.7279,31.5 -8.1466,15.306 -9.9157,18.4801 -11.1476,20 -0.6686,0.825 -1.7494,2.625 -2.4018,4 -1.3595,2.8656 -2.8121,5.243 -5.8042,9.5 -1.1597,1.65 -2.4099,3.9532 -2.778,5.1181 -0.3682,1.165 -1.558,2.9222 -2.6439,3.905 -1.086,0.9828 -1.9745,2.1584 -1.9745,2.6125 0,0.454 -1.6875,3.3659 -3.75,6.4708 -2.0625,3.1048 -4.2027,6.376 -4.756,7.2694 -2.917,4.7095 -12.5599,18.5368 -17.4328,24.9975 -3.0587,4.0554 -6.0112,8.0922 -6.5612,8.9708 -1.5353,2.4524 -36.7511,45.2498 -40.0711,48.6978 -1.6109,1.6731 -6.7471,7.2404 -11.4137,12.3719 -14.66392,16.1244 -39.05833,39.562 -55.91966,53.7263 -1.87245,1.5729 -5.02245,4.2498 -7,5.9486 -5.64148,4.8463 -27.31151,21.7947 -30.20523,23.6239 -1.43533,0.9073 -3.23533,2.2431 -4,2.9685 -0.76467,0.7254 -3.41531,2.6621 -5.89031,4.3037 -2.475,1.6417 -7.26979,5.0167 -10.65509,7.5 -3.3853,2.4834 -7.4353,5.2512 -9,6.1508 -1.5647,0.8997 -6.83187,4.2011 -11.70482,7.3366 -4.87294,3.1355 -10.72294,6.7115 -13,7.9466 -5.8771,3.1879 -14.49215,7.9442 -18.94954,10.462 -2.09519,1.1835 -6.82019,3.8537 -10.5,5.9339 -9.96978,5.6358 -28.80062,13.7189 -36.25444,15.5621 -8.41035,2.0798 -17.71794,1.9325 -25.93611,-0.4105 z m 32.48573,-16.9266 c 10.89275,-4.3735 18.95124,-8.3151 32.51427,-15.9038 6.325,-3.5389 13.525,-7.5668 16,-8.951 2.475,-1.3841 5.85,-3.3294 7.5,-4.3228 1.65,-0.9935 4.35,-2.5555 6,-3.4713 1.65,-0.9157 6.27118,-3.8533 10.26929,-6.5279 3.99812,-2.6746 7.5198,-4.8629 7.82596,-4.8629 0.30616,0 3.10998,-1.9238 6.23071,-4.2752 3.12072,-2.3514 7.69904,-5.6139 10.17404,-7.25 2.475,-1.6361 5.12564,-3.5683 5.89031,-4.2937 0.76467,-0.7254 2.56467,-2.0612 4,-2.9685 2.86383,-1.8103 25.80255,-19.8046 27.94625,-21.9224 0.73511,-0.7263 2.97026,-2.5512 4.96701,-4.0553 1.99674,-1.5042 4.35397,-3.4099 5.23828,-4.2349 0.8843,-0.825 5.38427,-4.875 9.99992,-9 16.30968,-14.5759 33.14034,-31.0746 44.9734,-44.0862 4.66665,-5.1315 9.80453,-10.6988 11.41763,-12.3719 3.0486,-3.1621 29.1888,-34.6808 33.5672,-40.4739 1.375,-1.8192 4.4125,-5.7224 6.75,-8.6737 2.3375,-2.9513 4.25,-5.744 4.25,-6.2059 0,-0.4619 1.125,-1.8967 2.5,-3.1884 1.375,-1.2917 2.5,-2.8754 2.5,-3.5193 0,-0.6439 0.9,-1.9852 2,-2.9807 1.1,-0.9955 2,-2.3368 2,-2.9807 0,-0.6439 1.125,-2.2276 2.5,-3.5193 1.375,-1.2917 2.5,-2.6917 2.5,-3.1111 0,-0.4194 2.025,-3.7203 4.5,-7.3354 2.475,-3.6151 4.5,-6.7312 4.5,-6.9247 0,-0.1934 2.1375,-3.6865 4.75,-7.7624 2.6125,-4.0759 5.2923,-8.3008 5.955,-9.3886 1.3006,-2.1346 6.9867,-11.7189 8.886,-14.9778 2.8213,-4.8411 10.3459,-18.5267 12.1169,-22.0381 0.5442,-1.0791 1.7298,-3.3119 2.6346,-4.9619 1.8638,-3.3989 8.0375,-15.9893 10.7877,-22 1.0066,-2.2 4.0891,-8.8525 6.85,-14.7833 2.7609,-5.9307 5.0198,-11.2062 5.0198,-11.7232 0,-0.517 0.849,-2.8645 1.8866,-5.2167 2.1049,-4.7716 5.7331,-13.4685 9.0849,-21.7768 1.2203,-3.025 2.6096,-7.1045 3.0872,-9.0655 0.4777,-1.961 1.5571,-4.88602 2.3987,-6.5 0.8417,-1.61397 1.5331,-3.74669 1.5364,-4.73936 0,-0.99268 0.9175,-3.80519 2.0312,-6.25003 1.1138,-2.44484 2.2846,-5.90765 2.6019,-7.69514 0.3172,-1.78748 1.4348,-5.63956 2.4834,-8.56017 1.0487,-2.92061 2.3098,-6.97061 2.8026,-9 0.4928,-2.02939 2.678,-10.6648 4.856,-19.1898 7.0572,-27.62189 10.2228,-44.35292 14.9473,-79 4.3893,-32.18949 4.4727,-35.53409 7.1777,-288 0.604,-56.375 1.6226,-149.75 2.2635,-207.5 2.1159,-190.65136 2.1066,-182.12243 0.2027,-186.3006 -0.9271,-2.03467 -2.6249,-4.50708 -3.7729,-5.49424 -1.8476,-1.58883 -22.1837,-11.86511 -31.5872,-15.96178 -10.1635,-4.42776 -18.3684,-7.82748 -26,-10.77321 -4.675,-1.80451 -9.85,-3.84341 -11.5,-4.5309 -1.65,-0.68749 -5.025,-1.82135 -7.5,-2.51971 -2.475,-0.69835 -4.96,-1.61095 -5.5222,-2.028 -0.5621,-0.41705 -4.2685,-1.65787 -8.2362,-2.75739 -3.9677,-1.09952 -7.721,-2.31244 -8.3406,-2.69538 -0.6196,-0.38294 -4.1133,-1.52519 -7.7638,-2.53834 -3.6505,-1.01315 -11.5872,-3.24007 -17.6372,-4.9487 -30.6615,-8.65939 -59.3216,-15.14329 -88,-19.90861 -6.6,-1.09669 -14.025,-2.45294 -16.5,-3.0139 -2.475,-0.56096 -11.7,-1.9565 -20.5,-3.101186 -8.8,-1.144689 -18.925,-2.489087 -22.5,-2.987551 -3.575,-0.498464 -14.825,-1.623812 -25,-2.500773 -10.175,-0.876961 -23,-2.078898 -28.5,-2.67097 -13.91148,-1.497565 -132.36552,-1.523295 -148,-0.03215 -6.6,0.629479 -19.425,1.832209 -28.5,2.672734 -9.075,0.840525 -19.875,1.958415 -24,2.4842 -25.59122,3.261936 -38.93242,5.185316 -42,6.055056 -1.925,0.5458 -8.675,1.86917 -15,2.94083 -23.42445,3.96886 -61.28494,12.70202 -78.5,18.10734 -3.3,1.03616 -10.05,3.08088 -15,4.54382 -10.84766,3.20595 -25.16816,7.89497 -32,10.47788 -2.75,1.03969 -8.825,3.30176 -13.5,5.02682 -4.675,1.72506 -9.85,3.70329 -11.5,4.39606 -1.65,0.69277 -6.6,2.75646 -11,4.58597 -23.50263,9.77237 -47.56804,21.29316 -66.41179,31.7932 -14.9286,8.31846 -16.88311,9.84634 -19.25716,15.05371 -1.9459,4.26824 -1.97992,5.90378 -1.40384,67.5 0.3247,34.71917 1.03021,77.07577 1.56779,94.12577 0.53757,17.05 1.23297,82.525 1.54532,145.5 0.59684,120.33521 1.61961,204.53317 3.39512,279.5 1.0489,44.28762 1.33059,48.55101 4.45985,67.5 0.86286,5.225 1.57691,11.11552 1.58677,13.09004 0.01,1.97452 0.91794,7.109 2.01794,11.40996 1.1,4.30096 2,9.49136 2,11.53424 0,2.04287 0.69182,5.67514 1.53738,8.07171 0.84556,2.39658 2.16532,7.74065 2.9328,11.87573 1.65182,8.89983 6.74725,27.89034 12.88401,48.01832 4.54379,14.90319 5.52895,17.88391 8.76491,26.51933 1.03449,2.76063 1.8809,5.58809 1.8809,6.28324 0,0.69515 1.125,3.484 2.5,6.19743 1.375,2.71343 2.5,5.6384 2.5,6.5 0,0.8616 1.125,3.7866 2.5,6.5 1.375,2.7134 2.49875,5.511 2.49722,6.2168 -0.002,0.7057 0.87164,3.0832 1.94037,5.2832 1.06873,2.2 5.63091,12.325 10.13817,22.5 8.45081,19.0774 13.79899,30.2227 20.3757,42.4619 1.19345,2.2209 2.7051,5.0506 3.35923,6.2881 0.65412,1.2375 1.73006,3.2625 2.39097,4.5 0.66092,1.2375 1.91737,3.6242 2.79211,5.3037 0.87474,1.6795 2.49343,4.3795 3.59709,6 1.10366,1.6205 2.56503,4.0713 3.24749,5.4463 0.68246,1.375 1.78552,3.4038 2.45124,4.5084 0.66573,1.1047 4.55502,7.6297 8.64288,14.5 4.08786,6.8704 8.25036,13.4206 9.25,14.5561 0.99964,1.1354 1.81753,2.3987 1.81753,2.8073 0,0.4086 2.025,3.6401 4.5,7.181 2.475,3.541 4.5,6.8117 4.5,7.2684 0,0.4566 1.125,1.8871 2.5,3.1788 1.375,1.2917 2.5,2.8667 2.5,3.5 0,0.6333 1.125,2.2083 2.5,3.5 1.375,1.2917 2.5,2.7677 2.5,3.28 0,0.5122 1.0125,2.2008 2.25,3.7523 1.2375,1.5516 4.48445,5.8915 7.21545,9.6444 2.731,3.7528 7.9319,10.4233 11.55757,14.8233 3.62566,4.4 7.97877,10.025 9.67358,12.5 1.69481,2.475 4.71256,6.1715 6.70611,8.2145 1.99354,2.043 5.94925,6.543 8.79046,10 15.16107,18.4471 45.98376,49.5893 67.74095,68.4431 2.43877,2.1133 5.43632,4.757 6.66123,5.8748 1.22491,1.1178 3.67705,3.1428 5.44918,4.5 1.77214,1.3572 4.17459,3.3063 5.33877,4.3313 7.21949,6.3567 21.50041,17.0176 36.6167,27.3348 4.675,3.1908 8.725,6.0635 9,6.3837 0.6902,0.8036 14.62695,9.4239 19.43731,12.0226 2.16552,1.1698 4.56017,2.7498 5.32143,3.5111 0.76126,0.7612 1.96629,1.3841 2.67783,1.3841 0.71154,0 2.40432,0.8736 3.76172,1.9413 1.35741,1.0678 4.4556,2.7243 6.88486,3.6812 2.42927,0.9569 4.64185,1.9965 4.91685,2.3102 2.04854,2.3372 22.40717,9.9864 41.5,15.5925 4.95,1.4534 9.45,2.8234 10,3.0444 0.55,0.221 5.05,0.2386 10,0.039 7.24928,-0.2922 10.55342,-0.9865 16.98573,-3.569 z M 763,1369.0956 c -6.875,-2.0799 -14.975,-4.7982 -18,-6.0408 -3.025,-1.2425 -7.075,-2.8615 -9,-3.5976 -9.7112,-3.7139 -34.2363,-17.8557 -52.5,-30.273 -36.41932,-24.761 -74.89911,-58.1755 -103.69242,-90.0428 -21.80461,-24.1325 -27.06341,-30.1585 -31.5402,-36.1414 -2.2635,-3.025 -7.41214,-9.5951 -11.44142,-14.6002 -31.68378,-39.3571 -69.22795,-101.595 -91.02478,-150.894 -2.18716,-4.9469 -4.56426,-10.1219 -5.28243,-11.5 -3.96593,-7.6107 -10.52338,-23.9868 -18.02152,-45.0058 -1.47152,-4.125 -3.48594,-9.75 -4.47649,-12.5 -0.99055,-2.75 -2.78383,-8.375 -3.98508,-12.5 -1.20124,-4.125 -3.07188,-10.2 -4.15696,-13.5 -1.08509,-3.3 -2.39923,-7.97202 -2.9203,-10.38226 -0.52108,-2.41024 -1.8017,-6.91024 -2.84583,-10 -5.37151,-15.89515 -13.9562,-63.24211 -16.52433,-91.13632 -2.52673,-27.44448 -2.62023,-30.97776 -3.63808,-137.48142 -0.55192,-57.75 -1.74639,-159.9 -2.65438,-227 -0.908,-67.1 -1.80536,-151.80585 -1.99414,-188.23522 l -0.34324,-66.23521 4.7708,-2.9938 c 7.33615,-4.60361 43.12172,-22.15477 58.7708,-28.82434 25.22699,-10.75163 51.34776,-20.4964 69.5,-25.9281 4.675,-1.3989 12.1,-3.627 16.5,-4.95133 22.70313,-6.8333 59.42981,-15.35401 83.18876,-19.30005 6.15382,-1.02206 12.05763,-2.13407 13.11958,-2.47112 3.19033,-1.01257 29.3826,-4.39927 50.69166,-6.5545 11,-1.11256 23.375,-2.46584 27.5,-3.00731 17.58521,-2.30829 55.17485,-3.27309 100,-2.56665 25.025,0.39439 49.1,1.08744 53.5,1.54013 4.4,0.45268 16.1,1.55021 26,2.43894 9.9,0.88874 21.375,2.07265 25.5,2.63091 4.125,0.55826 12.45,1.65422 18.5,2.43547 10.55559,1.36307 14.88673,2.0637 40.5,6.55149 34.5469,6.05308 65.1445,13.1432 95.5,22.12939 7.7884,2.30563 41.4851,13.47313 44.8495,14.86369 1.1828,0.48886 5.3005,2.09504 9.1505,3.56929 10.3634,3.96839 26.6996,10.95099 37.75,16.13559 l 9.75,4.57448 -0.014,26.59912 c -0.015,30.14323 -2.5767,275.49874 -3.5191,337.09913 -0.3407,22.275 -1.0115,88.425 -1.4906,147 -0.7794,95.29064 -1.0906,108.95337 -2.9566,129.80946 -1.1471,12.82021 -2.7716,26.99521 -3.6099,31.5 -0.8384,4.5048 -1.9444,11.9239 -2.4579,16.4869 -0.5134,4.56299 -1.8377,11.83797 -2.9429,16.16661 -1.1052,4.32864 -2.0095,9.2012 -2.0095,10.82792 0,1.62671 -0.6797,4.88423 -1.5105,7.23892 -0.8308,2.3547 -1.8942,6.57378 -2.3632,9.37573 -1.5656,9.35387 -14.836,54.2715 -20.8564,70.59446 -1.3185,3.575 -3.3004,8.975 -4.4042,12 -4.572,12.5304 -20.6075,48.4209 -29.4882,66 -15.284,30.2546 -40.2908,70.8246 -57.8012,93.7745 -3.892,5.101 -8.6513,11.4231 -10.5763,14.0491 -19.4253,26.4994 -72.15263,82.0625 -97,102.2168 -19.38082,15.7202 -32.1825,25.8136 -37.59096,29.6382 -3.24997,2.2982 -9.32598,6.6155 -13.50224,9.5939 -14.11418,10.066 -38.61155,24.7593 -65.9068,39.5305 -8.22389,4.4505 -20.79324,9.6325 -25.5,10.513 -1.96071,0.3667 -7.33039,-0.7489 -15.5,-3.2204 z m 22.67976,-10.167 c 15.05082,-5.9788 56.6464,-30.048 77.32024,-44.7411 4.125,-2.9317 10.15907,-7.2107 13.40904,-9.5089 5.42171,-3.834 18.48656,-14.1362 37.59096,-29.6421 24.61615,-19.9794 76.86421,-75.0606 96,-101.2055 1.925,-2.6301 6.6843,-8.9555 10.5763,-14.0565 15.9754,-20.9381 39.5003,-58.6118 54.4974,-87.2745 6.4319,-12.2926 19.9532,-41.389 24.0487,-51.75 1.0327,-2.6125 2.8278,-7.1125 3.9891,-10 9.3637,-23.28121 25.652,-75.22791 28.0148,-89.34446 0.469,-2.80195 1.5324,-7.02103 2.3632,-9.37573 0.8308,-2.35469 1.5105,-5.61221 1.5105,-7.23892 0,-1.62672 0.9043,-6.49928 2.0095,-10.82792 1.1052,-4.32864 2.4295,-11.60362 2.9429,-16.16661 0.5135,-4.563 1.6195,-11.9821 2.4579,-16.4869 0.8383,-4.50479 2.4628,-18.67979 3.6098,-31.5 1.8669,-20.866 2.1807,-34.68319 2.9939,-131.80946 0.4996,-59.675 1.3669,-142.7 1.9274,-184.5 2.2195,-165.54006 3.3534,-313.60518 2.4089,-314.54974 -1.5662,-1.56619 -28.5922,-13.13075 -47.8503,-20.47541 -13.981,-5.33206 -43.9715,-14.94531 -61,-19.55312 -29.5221,-7.98849 -50.17791,-12.57959 -80.5,-17.89242 -25.61327,-4.48779 -29.94441,-5.18842 -40.5,-6.55149 -6.05,-0.78125 -14.375,-1.87721 -18.5,-2.43547 -4.125,-0.55826 -15.6,-1.73861 -25.5,-2.623 -9.9,-0.8844 -21.825,-1.99589 -26.5,-2.47 -4.675,-0.47411 -27.4,-1.17104 -50.5,-1.54873 -41.36568,-0.67635 -79.34234,0.34623 -96.5,2.5984 -4.125,0.54147 -16.5,1.89475 -27.5,3.00731 -21.30906,2.15523 -47.50133,5.54193 -50.69166,6.5545 -1.06195,0.33705 -6.96576,1.44906 -13.11958,2.47112 -23.75895,3.94604 -60.48563,12.46675 -83.18876,19.30005 -4.4,1.32433 -11.825,3.55243 -16.5,4.95133 -34.88919,10.43989 -93.70994,35.15477 -120.77216,50.74518 l -5.27216,3.03726 0.34604,61.71712 c 0.19032,33.94441 1.08829,116.61711 1.99549,183.71711 0.9072,67.1 2.10103,169.25 2.65295,227 1.01785,106.50366 1.11135,110.03694 3.63808,137.48142 2.56813,27.89421 11.15282,75.24117 16.52433,91.13632 1.04413,3.08976 2.32475,7.58976 2.84583,10 0.52107,2.41024 1.90904,7.30726 3.08437,10.88226 1.17532,3.575 4.31242,13.25 6.97132,21.5 2.65889,8.25 6.18527,18.6 7.83638,23 1.65112,4.4 4.15452,11.08784 5.56311,14.86186 2.91743,7.81664 11.48233,26.99034 22.17334,49.63814 19.52031,41.3517 54.89794,98.5114 80.91308,130.7315 3.3,4.0871 8.475,10.6793 11.5,14.6493 6.04927,7.939 11.47334,14.1848 32.75565,37.7182 50.20457,55.5147 123.06511,109.108 168.24435,123.7538 5.225,1.6938 11.525,3.7343 14,4.5345 6.32578,2.0451 7.0227,1.9802 15.67976,-1.4587 z M 522.8125,94.316886 c 0.72187,-0.288871 1.58438,-0.253344 1.91667,0.07895 0.33229,0.332292 -0.25834,0.568641 -1.3125,0.52522 -1.16495,-0.04798 -1.4019,-0.284941 -0.60417,-0.604167 z M 546.75,90.337719 c 0.6875,-0.277412 1.8125,-0.277412 2.5,0 0.6875,0.277413 0.125,0.504386 -1.25,0.504386 -1.375,0 -1.9375,-0.226973 -1.25,-0.504386 z"
         id="path16" />
    </g>
  </g>
</svg>
