<?xml version="1.0" encoding="UTF-8" standalone="no"?>
<svg
   xmlns:dc="http://purl.org/dc/elements/1.1/"
   xmlns:cc="http://creativecommons.org/ns#"
   xmlns:rdf="http://www.w3.org/1999/02/22-rdf-syntax-ns#"
   xmlns:svg="http://www.w3.org/2000/svg"
   xmlns="http://www.w3.org/2000/svg"
   xmlns:sodipodi="http://sodipodi.sourceforge.net/DTD/sodipodi-0.dtd"
   xmlns:inkscape="http://www.inkscape.org/namespaces/inkscape"
   version="1.1"
   id="svg2"
   width="1043.6799"
   height="1045.7371"
   viewBox="0 0 1043.6799 1045.7371"
   sodipodi:docname="Palemarch.svg"
   inkscape:version="1.0.1 (3bc2e813f5, 2020-09-07)">
  <metadata
     id="metadata8">
    <rdf:RDF>
      <cc:Work
         rdf:about="">
        <dc:format>image/svg+xml</dc:format>
        <dc:type
           rdf:resource="http://purl.org/dc/dcmitype/StillImage" />
        <dc:title></dc:title>
      </cc:Work>
    </rdf:RDF>
  </metadata>
  <defs
     id="defs6" />
  <sodipodi:namedview
     pagecolor="#ffffff"
     bordercolor="#666666"
     borderopacity="1"
     objecttolerance="10"
     gridtolerance="10"
     guidetolerance="10"
     inkscape:pageopacity="0"
     inkscape:pageshadow="2"
     inkscape:window-width="1920"
     inkscape:window-height="1057"
     id="namedview4"
     showgrid="false"
     inkscape:pagecheckerboard="true"
     inkscape:zoom="0.49"
     inkscape:cx="519.67993"
     inkscape:cy="511.88976"
     inkscape:window-x="-8"
     inkscape:window-y="-8"
     inkscape:window-maximized="1"
     inkscape:current-layer="g10" />
  <g
     inkscape:groupmode="layer"
     inkscape:label="Image"
     id="g10"
     transform="translate(-230.32007,-238.11024)">
    <circle
       style="fill:#ffffff;fill-rule:evenodd"
       id="path20"
       cx="753.06122"
       cy="757.14282"
       r="502.0408" />
    <g
       id="g14">
      <path
         style="fill:#433726"
         d="m 735.75,1283.2766 c 1.7875,-0.2218 4.7125,-0.2218 6.5,0 1.7875,0.2218 0.325,0.4033 -3.25,0.4033 -3.575,0 -5.0375,-0.1815 -3.25,-0.4033 z m 28,0 c 1.7875,-0.2218 4.7125,-0.2218 6.5,0 1.7875,0.2218 0.325,0.4033 -3.25,0.4033 -3.575,0 -5.0375,-0.1815 -3.25,-0.4033 z m -47.48097,-0.9696 c 0.97297,-0.2535 2.32297,-0.2369 3,0.037 0.67703,0.2739 -0.11903,0.4813 -1.76903,0.461 -1.65,-0.02 -2.20394,-0.2445 -1.23097,-0.4981 z m 71,0 c 0.97297,-0.2535 2.32297,-0.2369 3,0.037 0.67703,0.2739 -0.11903,0.4813 -1.76903,0.461 -1.65,-0.02 -2.20394,-0.2445 -1.23097,-0.4981 z M 703.75,1281.3377 c 0.6875,-0.2774 1.8125,-0.2774 2.5,0 0.6875,0.2774 0.125,0.5044 -1.25,0.5044 -1.375,0 -1.9375,-0.227 -1.25,-0.5044 z m 96,0 c 0.6875,-0.2774 1.8125,-0.2774 2.5,0 0.6875,0.2774 0.125,0.5044 -1.25,0.5044 -1.375,0 -1.9375,-0.227 -1.25,-0.5044 z m -104.9375,-1.0208 c 0.72187,-0.2889 1.58438,-0.2534 1.91667,0.079 0.33229,0.3323 -0.25834,0.5687 -1.3125,0.5253 -1.16495,-0.048 -1.4019,-0.285 -0.60417,-0.6042 z m 115,0 c 0.72187,-0.2889 1.58438,-0.2534 1.91667,0.079 0.33229,0.3323 -0.25834,0.5687 -1.3125,0.5253 -1.16495,-0.048 -1.4019,-0.285 -0.60417,-0.6042 z M 712.5,1257.4775 c -63.69566,-5.8501 -120.99519,-21.6749 -177,-48.8831 -23.01618,-11.1817 -36.09775,-18.6152 -56.5,-32.1058 C 421.80325,1138.6684 375.3316,1092.1968 337.51137,1035 324.02079,1014.5977 316.58726,1001.5162 305.40556,978.5 248.52787,861.42415 239.4053,728.73467 279.82145,606.37441 300.7723,542.94553 332.56252,486.70577 376.49417,435.35168 404.95432,402.08308 440.31713,371.08966 479,345.51137 c 20.40225,-13.49058 33.48382,-20.92411 56.5,-32.10581 117.07585,-56.87769 249.76533,-66.00026 372.12559,-25.58411 63.42888,20.95085 119.66861,52.74107 171.02271,96.67272 40.368,34.53345 79.2126,81.62984 106.4025,129.00583 26.5342,46.23346 47.8063,104.09186 57.4367,156.22268 6.0088,32.52683 6.5125,39.58669 6.5125,91.27732 0,51.69063 -0.5037,58.75049 -6.5125,91.27732 -9.6304,52.13082 -30.9025,109.98922 -57.4367,156.22268 -38.5415,67.1552 -92.8437,124.8717 -158.0508,167.9886 -20.4023,13.4906 -33.48382,20.9241 -56.5,32.1058 -56.69121,27.5417 -113.86829,43.2385 -178.15875,48.9099 -20.32231,1.7927 -60.17563,1.7793 -79.84125,-0.027 z m 76.84125,-9.9732 c 73.3912,-6.4742 144.57229,-28.2486 204.15875,-62.4524 85.574,-49.1212 155.8012,-124.1215 198.0885,-211.5519 23.1866,-47.9392 38.1421,-98.26488 45.4278,-152.86637 C 1238.7436,807.68852 1239,799.98171 1239,761 c 0,-38.98171 -0.2564,-46.68852 -1.9837,-59.63363 C 1229.7306,646.76488 1214.7751,596.4392 1191.5885,548.5 1144.3989,450.93388 1063.0661,369.60108 965.5,322.41152 877.51565,279.85635 779.61511,264.32336 685.78415,278.03153 545.09696,298.58514 423.8344,375.54954 345.51137,494 321.48385,530.33761 303.88421,566.79928 289.82145,609.37441 253.68775,718.76952 257.33604,832.81725 300.46186,942 c 43.71126,110.6649 131.87285,205.2724 240.03814,257.5885 77.40844,37.4399 168.58189,54.9959 248.84125,47.9158 z M 718.5,1237.4775 c -61.78296,-5.6745 -120.2224,-21.5161 -173,-46.8966 -55.7877,-26.8279 -112.31333,-70.3981 -153,-117.9328 C 356.20394,1030.2429 329.08377,986.0571 310.47009,939 291.86516,891.96504 281.04249,845.88344 276.49569,794.34125 269.81537,718.61366 287.38615,628.429 323.41905,553.5 345.1207,508.37228 378.95603,461.04445 416.00024,424.00024 453.04445,386.95603 500.37228,353.1207 545.5,331.41905 c 74.929,-36.0329 165.11366,-53.60368 240.84125,-46.92336 51.54219,4.5468 97.62379,15.36947 144.65875,33.9744 47.0571,18.61368 91.2429,45.73385 133.6481,82.02991 47.5347,40.68667 91.1049,97.2123 117.9328,153 22.2994,46.37068 37.2778,97.22497 44.4354,150.86637 C 1228.7256,717.1764 1229,725.01006 1229,761 c 0,35.98994 -0.2744,43.8236 -1.9837,56.63363 -7.1576,53.6414 -22.136,104.49569 -44.4354,150.86637 -26.8279,55.7877 -70.3981,112.3133 -117.9328,153 -50.808,43.4883 -101.71235,72.4275 -163.02251,92.6785 -59.74199,19.7331 -127.74642,28.3852 -183.12559,23.299 z m 65.96789,-194.9942 c 16.83061,-70.39083 30.78459,-128.51488 31.00886,-129.1646 0.22426,-0.64971 -2.04126,-4.5945 -5.0345,-8.7662 C 807.44901,900.3808 805,896.53755 805,896.01195 c 0,-0.5256 6.64888,-10.08081 14.77528,-21.23379 8.1264,-11.15299 15.83809,-21.78426 17.13708,-23.62504 l 2.3618,-3.34688 -11.37059,-11.40294 -11.37059,-11.40294 3.73369,-3.73369 3.73369,-3.73369 11.40294,11.37059 11.40294,11.37059 3.34688,-2.3618 c 1.84078,-1.29899 12.47205,-9.01068 23.62504,-17.13708 C 884.93114,812.64888 894.48635,806 895.01195,806 c 0.5256,0 4.36885,2.44901 8.54055,5.44225 4.1717,2.99324 8.11649,5.25876 8.7662,5.0345 C 914.13698,815.84912 1168.8132,755 1169.6218,755 c 0.3913,0 0.518,-0.19358 0.2814,-0.43017 -0.2366,-0.2366 -58.0241,-14.20361 -128.4167,-31.03781 -70.39258,-16.8342 -128.51808,-30.78963 -129.1678,-31.01208 -0.64971,-0.22244 -4.5945,2.04457 -8.7662,5.03781 -4.1717,2.99324 -8.01495,5.44225 -8.54055,5.44225 -0.5256,0 -10.08081,-6.64888 -21.23379,-14.77528 -11.15299,-8.1264 -21.78426,-15.83809 -23.62504,-17.13708 l -3.34688,-2.3618 -11.40294,11.37059 -11.40294,11.37059 -3.73369,-3.73369 -3.73369,-3.73369 11.37059,-11.40294 11.37059,-11.40294 -2.3618,-3.34688 C 835.61337,656.0061 827.90168,645.37483 819.77528,634.22184 811.64888,623.06886 805,613.51365 805,612.98805 c 0,-0.5256 2.44901,-4.36885 5.44225,-8.54055 2.99324,-4.1717 5.25876,-8.11649 5.0345,-8.7662 C 814.84912,593.86302 754,339.18681 754,338.37824 c 0,-0.39136 -0.19503,-0.51655 -0.43339,-0.27818 -0.23837,0.23837 -14.20389,58.02587 -31.0345,128.41667 -16.83061,70.3908 -30.78459,128.51485 -31.00886,129.16457 -0.22426,0.64971 2.04126,4.5945 5.0345,8.7662 2.99324,4.1717 5.44225,8.01495 5.44225,8.54055 0,0.5256 -6.64888,10.08081 -14.77528,21.23379 -8.1264,11.15299 -15.83809,21.78426 -17.13708,23.62504 l -2.3618,3.34688 11.37059,11.40294 11.37059,11.40294 -3.73369,3.73369 -3.73369,3.73369 -11.40294,-11.37059 -11.40294,-11.37059 -3.34688,2.3618 c -1.84078,1.29899 -12.47205,9.01068 -23.62504,17.13708 C 622.06886,696.35112 612.51365,703 611.98805,703 c -0.5256,0 -4.36885,-2.44901 -8.54055,-5.44225 -4.1717,-2.99324 -8.11649,-5.25876 -8.7662,-5.0345 C 592.86302,693.15088 338.18681,754 337.37824,754 c -0.39136,0 -0.51655,0.19503 -0.27818,0.43339 0.23837,0.23837 58.02587,14.20389 128.41667,31.0345 70.3908,16.83061 128.51485,30.78459 129.16457,31.00886 0.64971,0.22426 4.5945,-2.04126 8.7662,-5.0345 4.1717,-2.99324 8.01495,-5.44225 8.54055,-5.44225 0.5256,0 10.08081,6.64888 21.23379,14.77528 11.15299,8.1264 21.78426,15.83809 23.62504,17.13708 l 3.34688,2.3618 11.40294,-11.37059 11.40294,-11.37059 3.73369,3.73369 3.73369,3.73369 -11.37059,11.40294 -11.37059,11.40294 2.3618,3.34688 c 1.29899,1.84078 9.01068,12.47205 17.13708,23.62504 8.1264,11.15298 14.77528,20.70819 14.77528,21.23379 0,0.5256 -2.44901,4.36885 -5.44225,8.54055 -2.99324,4.1717 -5.25876,8.11649 -5.0345,8.7662 0.62763,1.81828 61.47675,256.4945 61.47675,257.3031 0,0.3913 0.19503,0.5165 0.43339,0.2781 0.23837,-0.2383 14.20389,-58.0258 31.0345,-128.4166 z M 753,1118.5133 c 0,-0.4511 -10.83006,-46.0232 -24.0668,-101.2714 C 715.69646,961.99365 705.09877,916.18499 705.38279,915.44486 706.68148,912.0605 752.36223,849 753.51515,849 c 0.71582,0 6.92783,7.94721 13.80447,17.66048 l 12.50297,17.66047 -2.09936,2.83953 C 776.56859,888.72221 775.35506,890 775.0265,890 c -0.32856,0 -5.25177,-6.55717 -10.94046,-14.57149 -5.68869,-8.01431 -10.70896,-14.20181 -11.15616,-13.75 C 749.70568,864.93599 713,917.68327 713,919.05907 c 0,1.80647 39.92144,169.19533 40.48728,169.76143 0.1762,0.1762 1.02081,-2.7488 1.87693,-6.5 0.85611,-3.7513 9.8994,-41.6311 20.09618,-84.17739 C 785.65718,955.59683 794,920.00184 794,919.04315 c 0,-0.95869 -1.36685,-3.62996 -3.03745,-5.93615 l -3.03745,-4.19308 2.10555,-2.95696 c 1.15804,-1.62633 2.4124,-2.94625 2.78744,-2.93316 0.37505,0.0131 2.66451,2.93288 5.08768,6.48841 l 4.40576,6.46461 -24.2463,101.26158 c -13.33547,55.6939 -24.43056,101.4491 -24.65577,101.6783 -0.2252,0.2291 -0.40946,0.048 -0.40946,-0.4034 z m -0.82276,-83.725 c -0.59371,-2.3586 -6.28803,-26.1133 -12.65404,-52.7883 -6.36601,-26.675 -11.79831,-49.12615 -12.07177,-49.89144 -1.11799,-3.1287 2.49068,1.34181 13.54857,16.78428 6.325,8.83294 11.95,16.05989 12.5,16.05989 0.55,0 6.175,-7.22695 12.5,-16.05989 11.06457,-15.4518 14.66083,-19.90607 13.5512,-16.78428 -0.27202,0.76529 -6.13051,24.97713 -13.01886,53.80408 -6.88836,28.82696 -12.69333,52.58166 -12.89995,52.78826 -0.20662,0.2067 -0.86143,-1.554 -1.45515,-3.9126 z M 740.55597,926.51868 C 727.98082,909.1766 727.83105,908.90679 729.42769,906.47002 730.31782,905.11151 731.44905,904 731.94153,904 c 0.49248,0 5.31961,6.28145 10.72695,13.95877 5.40733,7.67732 10.28152,13.95565 10.83152,13.95184 0.55,-0.004 6.65294,-7.97275 13.56209,-17.70877 6.90915,-9.73601 19.68875,-27.52553 28.39911,-39.53225 l 15.83702,-21.83041 -8.7733,-8.81414 c -4.82531,-4.84778 -8.50207,-9.253 -8.17056,-9.78938 0.3315,-0.53639 1.99745,-1.55296 3.70211,-2.25905 l 3.09939,-1.28381 9.93528,9.89799 c 5.4644,5.4439 9.7537,10.37116 9.53179,10.94946 -0.40715,1.06101 -65.10803,90.27535 -66.54593,91.75842 -0.42588,0.43927 -6.51035,-7.11173 -13.52103,-16.77999 z m -30.23893,-41.62525 c -15.42901,-21.02476 -23.54169,-32.31562 -23.90947,-33.2761 -0.23531,-0.61453 9.47672,-11.01349 21.58229,-23.10881 C 720.09544,816.41321 730,806.05696 730,805.49463 730,804.20145 703.80829,778 702.51559,778 c -0.52668,0 -3.52478,2.5404 -6.66245,5.64533 l -5.70486,5.64533 -1.57414,-3.76746 C 687.70836,783.45111 687,781.46265 687,781.10442 c 0,-0.35824 3.6046,-4.2348 8.01022,-8.61458 l 8.01021,-7.96323 20.23434,20.23433 20.23433,20.23433 -23.88432,23.89988 -23.88431,23.89988 11.13976,15.46668 c 6.12687,8.50668 11.12976,15.8653 11.11753,16.35249 -0.0122,0.48719 -0.85035,1.96285 -1.86249,3.27923 l -1.84026,2.39344 z m 25.87807,-48.41364 c -9.0911,-2.07901 -9.76228,-2.59833 -6.86993,-5.31556 2.07448,-1.94887 2.73818,-2.08379 5.27397,-1.07211 5.0062,1.99727 26.88607,2.31303 35.40085,0.51088 14.50408,-3.06977 32.80722,-13.81596 41.90163,-24.60139 l 4.36628,-5.17815 2.05658,2.05658 2.05657,2.05658 -4.02946,4.78169 c -8.79986,10.44265 -22.3961,19.2513 -37.8516,24.52306 -7.98794,2.72464 -10.51809,3.10417 -22.5,3.37505 -9.18837,0.20774 -15.51365,-0.15528 -19.80489,-1.13663 z M 610.99576,788.92671 C 585.97309,770.7364 565.1406,755.5045 564.70133,755.07804 c -0.43927,-0.42646 7.10638,-6.50751 16.7681,-13.51345 l 17.56676,-12.73808 3.11952,1.97514 3.11952,1.97514 -6.0154,4.37709 c -3.30848,2.4074 -9.87883,7.07012 -14.6008,10.3616 -4.72197,3.29149 -8.5803,6.43452 -8.57406,6.98452 0.006,0.55 7.97717,6.65294 17.71319,13.56209 9.73601,6.90915 27.52553,19.68875 39.53225,28.39911 l 21.83041,15.83702 8.81414,-8.7733 c 4.84778,-4.82531 9.253,-8.50207 9.78938,-8.17056 0.53639,0.3315 1.55296,1.99745 2.25905,3.70211 l 1.28381,3.09939 -9.88484,9.92207 C 661.9857,817.53507 657.30217,822 657.01453,822 c -0.28765,0 -20.9961,-14.88298 -46.01877,-33.07329 z M 827.5,800 C 815.40938,787.9 805.05696,778 804.49463,778 803.20145,778 777,804.19171 777,805.48441 c 0,0.52668 2.5404,3.52478 5.64533,6.66245 l 5.64533,5.70486 -3.76746,1.57414 C 782.45111,820.29164 780.46265,821 780.10442,821 c -0.35824,0 -4.2348,-3.6046 -8.61458,-8.01022 l -7.96323,-8.01021 20.23433,-20.23434 20.23433,-20.23433 23.89988,23.88432 23.89988,23.88431 15.70332,-11.3102 c 15.29952,-11.01937 15.76746,-11.27128 18.19771,-9.79669 1.37191,0.83242 2.52697,1.91266 2.5668,2.40052 C 888.32996,794.39491 851.18255,822 850.00966,822 849.71997,822 839.59062,812.1 827.5,800 Z m -130.81838,15.90397 c -9.8983,-8.82221 -19.08701,-23.71321 -23.69774,-38.40397 -3.0609,-9.75267 -3.82568,-28.14002 -1.61496,-38.82814 2.19309,-10.60292 2.66719,-11.32677 5.46685,-8.34668 1.94887,2.07448 2.08379,2.73818 1.07211,5.27397 -1.99727,5.0062 -2.31303,26.88607 -0.51088,35.40085 3.06594,14.48598 13.81589,32.80717 24.57048,41.87557 4.93106,4.15793 5.07531,4.41966 3.43488,6.23232 -0.94178,1.04066 -2.00276,1.89211 -2.35773,1.89211 -0.35497,0 -3.21832,-2.29321 -6.36301,-5.09603 z M 490,778.94146 c -54.725,-13.15498 -99.9125,-23.92339 -100.41667,-23.9298 -0.50416,-0.006 -0.72916,-0.19555 -0.5,-0.42031 1.00163,-0.98237 202.28096,-48.66554 203.48146,-48.20486 3.40834,1.3079 66.43521,46.98326 66.43521,48.14537 0,0.72503 -7.94371,6.93963 -17.65268,13.81024 l -17.65268,12.49201 -2.84732,-2.10511 C 619.28129,777.57118 618,776.35506 618,776.0265 c 0,-0.32856 6.55717,-5.25177 14.57149,-10.94046 8.01431,-5.68869 14.20181,-10.70896 13.75,-11.15616 C 643.07348,750.71505 590.31883,714 588.94756,714 c -0.95358,0 -36.54439,8.34282 -79.09067,18.53961 -42.54629,10.19678 -80.42611,19.24007 -84.17737,20.09618 -3.75127,0.85612 -6.67627,1.70045 -6.5,1.8763 C 419.74406,755.07529 587.17374,795 588.97107,795 c 0.95087,0 3.61574,-1.36685 5.92193,-3.03745 l 4.19308,-3.03745 2.95696,2.10555 c 1.62633,1.15804 2.94625,2.4124 2.93316,2.78744 -0.0398,1.13911 -12.39508,9.18691 -13.98867,9.11171 C 590.16939,802.89119 544.725,792.09644 490,778.94146 Z m 391.1879,0.43702 C 862.93455,766.38664 848,755.17037 848,754.45343 c 0,-0.71693 7.94371,-6.92492 17.65268,-13.79553 l 17.65268,-12.49201 2.84732,2.10511 c 1.56603,1.15782 2.84732,2.37394 2.84732,2.7025 0,0.32856 -6.55717,5.25177 -14.57149,10.94046 -8.01431,5.68869 -14.20181,10.70896 -13.75,11.15616 3.24801,3.21483 56.00266,39.92988 57.37393,39.92988 0.95358,0 36.54439,-8.34282 79.09067,-18.53961 42.54629,-10.19678 80.42609,-19.24007 84.17739,-20.09618 3.7512,-0.85612 6.6762,-1.70073 6.5,-1.87693 C 1087.2525,753.91956 919.86238,714 918.04979,714 c -0.96234,0 -3.6366,1.36685 -5.94279,3.03745 l -4.19308,3.03745 -2.95696,-2.10555 c -1.62633,-1.15804 -2.94625,-2.4124 -2.93316,-2.78744 0.0131,-0.37505 2.93548,-2.6663 6.49421,-5.09167 l 6.4704,-4.40976 97.25579,23.31512 c 53.4907,12.82332 99.2001,23.73844 101.5764,24.25581 2.3764,0.51738 4.1764,1.08136 4,1.25329 C 1117.4064,754.90854 916.60894,803 915.33697,803 c -0.52864,0 -15.89573,-10.62969 -34.14907,-23.62152 z m -147.94705,-4.63741 -20.24107,-20.25915 20.25915,-20.24107 20.25915,-20.24107 20.24107,20.25915 20.24107,20.25915 -20.25915,20.24107 -20.25915,20.24107 z M 546,773.40911 c -16.775,-4.06669 -40.98827,-9.92161 -53.80726,-13.01095 -12.81899,-3.08934 -23.12968,-5.79455 -22.91264,-6.0116 0.21704,-0.21704 23.98031,-6.03054 52.80726,-12.9189 28.82695,-6.88835 53.03879,-12.74684 53.80408,-13.01886 3.12179,-1.10963 -1.33248,2.48663 -16.78428,13.5512 -8.83294,6.325 -16.05989,11.95 -16.05989,12.5 0,0.55 7.22695,6.175 16.05989,12.5 13.57476,9.72048 19.50597,14.36172 17.76528,13.90154 C 576.6676,780.84738 562.775,777.47579 546,773.40911 Z m 284.16423,5.26571 c -1.94887,-2.07448 -2.08379,-2.73818 -1.07211,-5.27397 1.99727,-5.0062 2.31303,-26.88607 0.51088,-35.40085 -3.06977,-14.50408 -13.81596,-32.80722 -24.60139,-41.90163 l -5.17815,-4.36628 2.05658,-2.05658 2.05658,-2.05657 4.78169,4.02946 c 10.45453,8.80987 19.27168,22.42691 24.50924,37.8516 3.93552,11.59018 4.93597,28.58457 2.40353,40.82814 -2.19309,10.60292 -2.66719,11.32677 -5.46685,8.34668 z m 100.61081,1.09807 c 0.58185,-0.70009 8.28487,-6.44789 17.1178,-12.77289 8.83294,-6.325 16.05989,-11.95 16.05989,-12.5 0,-0.55 -7.22695,-6.175 -16.05989,-12.5 -15.44247,-11.05789 -19.91298,-14.66656 -16.78428,-13.54857 0.76529,0.27346 23.21644,5.70576 49.89144,12.07177 58.0082,13.8437 57.174,13.63613 56.7009,14.10919 -0.2066,0.20662 -23.9613,6.01159 -52.78826,12.89995 -28.82695,6.88835 -53.03879,12.74684 -53.80408,13.01886 -1.0288,0.36568 -1.11572,0.16283 -0.33352,-0.77831 z M 905.22251,778.4433 C 904.00013,777.58711 903,776.49879 903,776.02482 c 0,-0.47398 6.28145,-5.28596 13.95877,-10.6933 7.67732,-5.40733 13.95565,-10.28152 13.95184,-10.83152 -0.004,-0.55 -7.97275,-6.65294 -17.70877,-13.56209 -9.73601,-6.90915 -27.52553,-19.68875 -39.53225,-28.39911 l -21.83041,-15.83702 -8.81414,8.7733 c -4.84778,4.82531 -9.253,8.50207 -9.78938,8.17056 -0.53639,-0.3315 -1.55296,-1.99745 -2.25905,-3.70211 l -1.28381,-3.09939 9.89799,-9.93528 c 5.4439,-5.4644 10.36378,-9.75653 10.93308,-9.53807 1.17131,0.44947 89.26254,64.24787 91.28308,66.11003 1.04657,0.96454 -2.17056,3.72613 -16.14847,13.86184 C 916.058,774.3042 908.0325,780 907.82404,780 c -0.20847,0 -1.37916,-0.70052 -2.60153,-1.5567 z m -226.39877,-58.1143 -23.67101,-23.671 -10.82636,7.85181 c -22.41205,16.25433 -20.26084,14.99319 -22.8722,13.40871 -1.28581,-0.78019 -2.42716,-1.86852 -2.53632,-2.41852 -0.17455,-0.87937 36.72321,-28.5 38.07249,-28.5 0.28969,0 10.41904,9.9 22.50966,22 12.09062,12.1 22.43076,22 22.97807,22 C 703.77252,731 730,704.83429 730,703.54289 c 0,-0.54169 -2.5404,-3.55208 -5.64533,-6.68975 l -5.64533,-5.70486 3.76746,-1.57414 C 724.54889,688.70836 726.53735,688 726.89558,688 c 0.35824,0 4.23339,3.60318 8.61144,8.00707 l 7.96011,8.00706 -19.97419,19.99294 C 712.50714,735.00318 703.28835,744 703.00674,744 c -0.2816,0 -11.16395,-10.65195 -24.183,-23.671 z m 104.67548,3.67022 -19.98203,-20.00078 23.88117,-23.89674 23.88117,-23.89673 -11.3102,-15.70332 c -11.24831,-15.6174 -11.3014,-15.71782 -9.70278,-18.35249 0.88408,-1.45704 1.96432,-2.6121 2.40053,-2.5668 0.79367,0.0824 28.33292,37.4145 28.33292,38.40798 0,0.28969 -9.9,10.41904 -22,22.50966 -12.1,12.09062 -22,22.44304 -22,23.00537 0,1.29318 26.19171,27.49463 27.48441,27.49463 0.52668,0 3.52478,-2.5404 6.66245,-5.64533 l 5.70486,-5.64533 1.57414,3.76746 C 819.29164,725.54889 820,727.53735 820,727.89558 820,728.64073 804.71027,744 803.9685,744 c -0.26799,0 -9.47917,-9.00035 -20.46928,-20.00078 z m -94.98355,-17.98191 c -1.79601,-1.98456 -1.75048,-2.12706 2.16379,-6.77226 8.7777,-10.41683 22.41632,-19.24199 37.82054,-24.4726 11.59018,-3.93552 28.58457,-4.93597 40.82814,-2.40353 10.60292,2.19309 11.32677,2.66719 8.34668,5.46685 -2.07448,1.94887 -2.73818,2.08379 -5.27397,1.07211 -1.59547,-0.63653 -8.52585,-1.36903 -15.40085,-1.62778 -15.33161,-0.57704 -24.02067,1.04496 -35.75941,6.67527 -11.19038,5.36729 -16.55012,9.1693 -24.31545,17.24853 -6.52683,6.79066 -6.58826,6.82582 -8.40947,4.81341 z m 7.00912,-37.99243 -9.93769,-9.97512 2.03478,-2.77488 C 688.74101,653.7487 703.52595,633.375 720.47731,610 c 16.95135,-23.375 31.3578,-43.08813 32.01433,-43.80695 0.95288,-1.04329 3.76636,2.24096 13.94639,16.27999 12.58113,17.35032 12.73092,17.62016 11.13428,20.05694 -0.89013,1.35851 -2.02136,2.47002 -2.51384,2.47002 -0.49248,0 -5.31961,-6.28145 -10.72695,-13.95877 C 758.92419,583.36391 754.05,577.08558 753.5,577.08939 c -0.55,0.004 -6.65294,7.97275 -13.56209,17.70877 -6.90915,9.73601 -19.68875,27.52553 -28.39911,39.53225 l -15.83702,21.83041 8.64911,8.68938 c 4.75701,4.77915 8.64911,9.00641 8.64911,9.3939 0,0.75726 -5.36441,3.7559 -6.7191,3.7559 -0.45013,0 -5.29038,-4.4888 -10.75611,-9.97512 z m 44.15559,-25.68536 -12.50297,-17.66047 2.09936,-2.83953 C 730.43141,620.27779 731.64494,619 731.9735,619 c 0.32856,0 5.25177,6.55717 10.94046,14.57149 5.68869,8.01431 10.70896,14.20181 11.15616,13.75 C 757.29432,644.06401 794,591.31673 794,589.94093 c 0,-1.80647 -39.92144,-169.19533 -40.48728,-169.76141 -0.1762,-0.17627 -1.02081,2.74873 -1.87693,6.5 -0.85611,3.75126 -9.8994,41.63108 -20.09618,84.17737 C 721.34282,553.40317 713,588.99816 713,589.95685 c 0,0.95869 1.36685,3.62996 3.03745,5.93615 l 3.03745,4.19308 -2.10555,2.95696 c -1.15804,1.62633 -2.4124,2.94625 -2.78744,2.93316 -0.37505,-0.0131 -2.66509,-2.93372 -5.08898,-6.4903 l -4.40707,-6.4665 23.73846,-99.2597 c 13.05616,-54.59283 23.98088,-100.29316 24.27717,-101.55627 0.29629,-1.26311 0.66824,-2.16311 0.82656,-2 0.91036,0.93791 48.51518,202.24153 48.08916,203.35171 C 800.31852,596.9395 754.63777,660 753.48485,660 c -0.71582,0 -6.92783,-7.94721 -13.80447,-17.66048 z M 727.4488,576.89144 c 0.27202,-0.76529 6.13051,-24.97713 13.01886,-53.80408 6.88836,-28.82695 12.69333,-52.58169 12.89995,-52.7883 0.47306,-0.47307 0.26549,-1.30722 14.10919,56.70094 6.36601,26.675 11.79831,49.12615 12.07177,49.89144 1.11799,3.1287 -2.49068,-1.34181 -13.54857,-16.78428 -6.325,-8.83294 -11.95,-16.05989 -12.5,-16.05989 -0.55,0 -6.175,7.22695 -12.5,16.05989 -11.06457,15.4518 -14.66083,19.90607 -13.5512,16.78428 z M 418.87244,1163.25 c -1.24387,-1.5861 -1.2085,-1.6214 0.37756,-0.3776 1.66575,1.3064 2.19548,2.1276 1.37244,2.1276 -0.20765,0 -0.99515,-0.7875 -1.75,-1.75 z M 1085,1164.6224 c 0,-0.2076 0.7875,-0.9951 1.75,-1.75 1.5861,-1.2438 1.6214,-1.2085 0.3776,0.3776 -1.3064,1.6657 -2.1276,2.1955 -2.1276,1.3724 z M 412.87244,1158.25 c -1.24387,-1.5861 -1.2085,-1.6214 0.37756,-0.3776 0.9625,0.7549 1.75,1.5424 1.75,1.75 0,0.8231 -0.82119,0.2933 -2.12756,-1.3724 z M 1091,1159.6224 c 0,-0.2076 0.7875,-0.9951 1.75,-1.75 1.5861,-1.2438 1.6214,-1.2085 0.3776,0.3776 -1.3064,1.6657 -2.1276,2.1955 -2.1276,1.3724 z M 404.40499,1150.75 402.5,1148.5 l 2.25,1.905 c 2.11444,1.7902 2.70524,2.595 1.90499,2.595 -0.18976,0 -1.20226,-1.0125 -2.25,-2.25 z M 1100.5,1151 c 0.9955,-1.1 2.035,-2 2.31,-2 0.275,0 -0.3145,0.9 -1.31,2 -0.9955,1.1 -2.035,2 -2.31,2 -0.275,0 0.3145,-0.9 1.31,-2 z m -710.53416,-13.75 -5.46584,-5.75 5.75,5.4658 c 3.1625,3.0063 5.75,5.5938 5.75,5.75 0,0.7423 -0.95622,-0.1239 -6.03416,-5.4658 z M 1115,1137.5 c 2.9874,-3.025 5.6567,-5.5 5.9317,-5.5 0.275,0 -1.9443,2.475 -4.9317,5.5 -2.9874,3.025 -5.6567,5.5 -5.9317,5.5 -0.275,0 1.9443,-2.475 4.9317,-5.5 z m -739.03416,-14.25 -5.46584,-5.75 5.75,5.4658 c 3.1625,3.0063 5.75,5.5938 5.75,5.75 0,0.7423 -0.95622,-0.1239 -6.03416,-5.4658 z M 1129,1123.5 c 2.9874,-3.025 5.6567,-5.5 5.9317,-5.5 0.275,0 -1.9443,2.475 -4.9317,5.5 -2.9874,3.025 -5.6567,5.5 -5.9317,5.5 -0.275,0 1.9443,-2.475 4.9317,-5.5 z m -766.59501,-14.75 -1.90499,-2.25 2.25,1.905 c 2.11444,1.7902 2.70524,2.595 1.90499,2.595 -0.18976,0 -1.20226,-1.0125 -2.25,-2.25 z M 1142.5,1109 c 0.9955,-1.1 2.035,-2 2.31,-2 0.275,0 -0.3145,0.9 -1.31,2 -0.9955,1.1 -2.035,2 -2.31,2 -0.275,0 0.3145,-0.9 1.31,-2 z m -787.62756,-8.75 c -1.24387,-1.5861 -1.2085,-1.6214 0.37756,-0.3776 1.66575,1.3064 2.19548,2.1276 1.37244,2.1276 -0.20765,0 -0.99515,-0.7875 -1.75,-1.75 z M 1149,1101.6224 c 0,-0.2076 0.7875,-0.9951 1.75,-1.75 1.5861,-1.2438 1.6214,-1.2085 0.3776,0.3776 -1.3064,1.6657 -2.1276,2.1955 -2.1276,1.3724 z M 349.87244,1094.25 c -1.24387,-1.5861 -1.2085,-1.6214 0.37756,-0.3776 0.9625,0.7549 1.75,1.5424 1.75,1.75 0,0.8231 -0.82119,0.2933 -2.12756,-1.3724 z M 1154,1095.6224 c 0,-0.2076 0.7875,-0.9951 1.75,-1.75 1.5861,-1.2438 1.6214,-1.2085 0.3776,0.3776 -1.3064,1.6657 -2.1276,2.1955 -2.1276,1.3724 z M 233.07895,818.41667 c 0.048,-1.16495 0.28494,-1.4019 0.60416,-0.60417 0.28887,0.72187 0.25335,1.58438 -0.0789,1.91667 -0.3323,0.33229 -0.56864,-0.25834 -0.52522,-1.3125 z m 1038.99995,0 c 0.048,-1.16495 0.285,-1.4019 0.6042,-0.60417 0.2889,0.72187 0.2534,1.58438 -0.079,1.91667 -0.3323,0.33229 -0.5687,-0.25834 -0.5253,-1.3125 z M 232.15789,809 c 0,-1.375 0.22698,-1.9375 0.50439,-1.25 0.27741,0.6875 0.27741,1.8125 0,2.5 -0.27741,0.6875 -0.50439,0.125 -0.50439,-1.25 z m 1041.00001,0 c 0,-1.375 0.227,-1.9375 0.5044,-1.25 0.2774,0.6875 0.2774,1.8125 0,2.5 -0.2774,0.6875 -0.5044,0.125 -0.5044,-1.25 z M 231.19495,796.5 c 0.0204,-1.65 0.2445,-2.20394 0.49804,-1.23097 0.25354,0.97297 0.23687,2.32297 -0.0371,3 -0.27393,0.67703 -0.48137,-0.11903 -0.46099,-1.76903 z M 230.32007,775 c 0,-3.575 0.1815,-5.0375 0.40333,-3.25 0.22182,1.7875 0.22182,4.7125 0,6.5 -0.22183,1.7875 -0.40333,0.325 -0.40333,-3.25 z m 0,-28 c 0,-3.575 0.1815,-5.0375 0.40333,-3.25 0.22182,1.7875 0.22182,4.7125 0,6.5 -0.22183,1.7875 -0.40333,0.325 -0.40333,-3.25 z m 0.87488,-21.5 c 0.0204,-1.65 0.2445,-2.20394 0.49804,-1.23097 0.25354,0.97297 0.23687,2.32297 -0.0371,3 -0.27393,0.67703 -0.48137,-0.11903 -0.46099,-1.76903 z m 0.96294,-12.5 c 0,-1.375 0.22698,-1.9375 0.50439,-1.25 0.27741,0.6875 0.27741,1.8125 0,2.5 -0.27741,0.6875 -0.50439,0.125 -0.50439,-1.25 z m 1041.00001,0 c 0,-1.375 0.227,-1.9375 0.5044,-1.25 0.2774,0.6875 0.2774,1.8125 0,2.5 -0.2774,0.6875 -0.5044,0.125 -0.5044,-1.25 z M 233.07895,703.41667 c 0.048,-1.16495 0.28494,-1.4019 0.60416,-0.60417 0.28887,0.72187 0.25335,1.58438 -0.0789,1.91667 -0.3323,0.33229 -0.56864,-0.25834 -0.52522,-1.3125 z m 1038.99995,0 c 0.048,-1.16495 0.285,-1.4019 0.6042,-0.60417 0.2889,0.72187 0.2534,1.58438 -0.079,1.91667 -0.3323,0.33229 -0.5687,-0.25834 -0.5253,-1.3125 z M 349,428.62244 c 0,-0.20765 0.7875,-0.99515 1.75,-1.75 1.58606,-1.24387 1.62143,-1.2085 0.37756,0.37756 C 349.82119,428.91575 349,429.44548 349,428.62244 Z M 1154.8724,427.25 c -1.2438,-1.58606 -1.2085,-1.62143 0.3776,-0.37756 1.6657,1.30637 2.1955,2.12756 1.3724,2.12756 -0.2076,0 -0.9951,-0.7875 -1.75,-1.75 z M 354,422.62244 c 0,-0.20765 0.7875,-0.99515 1.75,-1.75 1.58606,-1.24387 1.62143,-1.2085 0.37756,0.37756 C 354.82119,422.91575 354,423.44548 354,422.62244 Z M 1149.8724,421.25 c -1.2438,-1.58606 -1.2085,-1.62143 0.3776,-0.37756 1.6657,1.30637 2.1955,2.12756 1.3724,2.12756 -0.2076,0 -0.9951,-0.7875 -1.75,-1.75 z M 362.5,413 c 0.99549,-1.1 2.03498,-2 2.30998,-2 0.275,0 -0.31449,0.9 -1.30998,2 -0.99549,1.1 -2.03498,2 -2.30998,2 -0.275,0 0.31449,-0.9 1.30998,-2 z m 779.905,-0.25 -1.905,-2.25 2.25,1.90499 c 2.1144,1.79022 2.7052,2.59501 1.905,2.59501 -0.1898,0 -1.2023,-1.0125 -2.25,-2.25 z M 376,398.5 c 2.98742,-3.025 5.65668,-5.5 5.93168,-5.5 0.275,0 -1.94426,2.475 -4.93168,5.5 -2.98742,3.025 -5.65668,5.5 -5.93168,5.5 -0.275,0 1.94426,-2.475 4.93168,-5.5 z m 752.9658,-0.25 -5.4658,-5.75 5.75,5.46584 c 5.3419,5.07794 6.2081,6.03416 5.4658,6.03416 -0.1562,0 -2.7437,-2.5875 -5.75,-5.75 z M 390,384.5 c 2.98742,-3.025 5.65668,-5.5 5.93168,-5.5 0.275,0 -1.94426,2.475 -4.93168,5.5 -2.98742,3.025 -5.65668,5.5 -5.93168,5.5 -0.275,0 1.94426,-2.475 4.93168,-5.5 z m 724.9658,-0.25 -5.4658,-5.75 5.75,5.46584 c 5.3419,5.07794 6.2081,6.03416 5.4658,6.03416 -0.1562,0 -2.7437,-2.5875 -5.75,-5.75 z M 404.5,371 c 0.99549,-1.1 2.03498,-2 2.30998,-2 0.275,0 -0.31449,0.9 -1.30998,2 -0.99549,1.1 -2.03498,2 -2.30998,2 -0.275,0 0.31449,-0.9 1.30998,-2 z m 695.905,-0.25 -1.905,-2.25 2.25,1.90499 c 2.1144,1.79022 2.7052,2.59501 1.905,2.59501 -0.1898,0 -1.2023,-1.0125 -2.25,-2.25 z M 412,364.62244 c 0,-0.20765 0.7875,-0.99515 1.75,-1.75 1.58606,-1.24387 1.62143,-1.2085 0.37756,0.37756 C 412.82119,364.91575 412,365.44548 412,364.62244 Z M 1091.8724,363.25 c -1.2438,-1.58606 -1.2085,-1.62143 0.3776,-0.37756 1.6657,1.30637 2.1955,2.12756 1.3724,2.12756 -0.2076,0 -0.9951,-0.7875 -1.75,-1.75 z M 418,359.62244 c 0,-0.20765 0.7875,-0.99515 1.75,-1.75 1.58606,-1.24387 1.62143,-1.2085 0.37756,0.37756 C 418.82119,359.91575 418,360.44548 418,359.62244 Z M 1085.8724,358.25 c -1.2438,-1.58606 -1.2085,-1.62143 0.3776,-0.37756 1.6657,1.30637 2.1955,2.12756 1.3724,2.12756 -0.2076,0 -0.9951,-0.7875 -1.75,-1.75 z M 694.8125,241.31689 c 0.72187,-0.28887 1.58438,-0.25335 1.91667,0.0789 0.33229,0.33229 -0.25834,0.56864 -1.3125,0.52522 -1.16495,-0.048 -1.4019,-0.28494 -0.60417,-0.60416 z m 115,0 c 0.72187,-0.28887 1.58438,-0.25335 1.91667,0.0789 0.33229,0.33229 -0.25834,0.56864 -1.3125,0.52522 -1.16495,-0.048 -1.4019,-0.28494 -0.60417,-0.60416 z M 703.75,240.33772 c 0.6875,-0.27741 1.8125,-0.27741 2.5,0 0.6875,0.27741 0.125,0.50439 -1.25,0.50439 -1.375,0 -1.9375,-0.22698 -1.25,-0.50439 z m 96,0 c 0.6875,-0.27741 1.8125,-0.27741 2.5,0 0.6875,0.27741 0.125,0.50439 -1.25,0.50439 -1.375,0 -1.9375,-0.22698 -1.25,-0.50439 z m -83.48097,-1.03071 c 0.97297,-0.25354 2.32297,-0.23687 3,0.0371 0.67703,0.27393 -0.11903,0.48137 -1.76903,0.46099 -1.65,-0.0204 -2.20394,-0.2445 -1.23097,-0.49804 z m 71,0 c 0.97297,-0.25354 2.32297,-0.23687 3,0.0371 0.67703,0.27393 -0.11903,0.48137 -1.76903,0.46099 -1.65,-0.0204 -2.20394,-0.2445 -1.23097,-0.49804 z M 735.75,238.2766 c 1.7875,-0.22182 4.7125,-0.22182 6.5,0 1.7875,0.22183 0.325,0.40333 -3.25,0.40333 -3.575,0 -5.0375,-0.1815 -3.25,-0.40333 z m 28,0 c 1.7875,-0.22182 4.7125,-0.22182 6.5,0 1.7875,0.22183 0.325,0.40333 -3.25,0.40333 -3.575,0 -5.0375,-0.1815 -3.25,-0.40333 z"
         id="path18" />
      <path
         style="fill:#000000"
         d="M 729,1282.9342 C 528.03649,1273.6943 349.52268,1149.2058 271.48731,963.88296 221.12059,844.26919 217.12902,708.47818 260.4035,586.81782 313.45801,437.66226 429.66226,321.45801 578.81782,268.4035 c 111.62525,-39.705 236.73911,-39.705 348.36436,0 149.15552,53.05451 265.35982,169.25876 318.41432,318.41432 9.9021,27.8385 17.8151,58.577 22.8293,88.68218 4.8257,28.97329 5.5742,40.45435 5.5742,85.5 0,45.04565 -0.7485,56.52671 -5.5742,85.5 -20.5805,123.56496 -84.8575,235.7836 -180.9258,315.8717 -78.8145,65.7042 -176.24868,107.052 -278.29882,118.1005 -13.86287,1.5009 -51.58766,3.6191 -59.70118,3.3522 -2.2,-0.072 -11.425,-0.4729 -20.5,-0.8902 z m 63.34125,-25.4299 c 64.29046,-5.6714 121.46754,-21.3682 178.15875,-48.9099 23.01618,-11.1817 36.0977,-18.6152 56.5,-32.1058 65.2071,-43.1169 119.5093,-100.8334 158.0508,-167.9886 26.5342,-46.23346 47.8063,-104.09186 57.4367,-156.22268 C 1248.4963,819.75049 1249,812.69063 1249,761 c 0,-51.69063 -0.5037,-58.75049 -6.5125,-91.27732 -9.6304,-52.13082 -30.9025,-109.98922 -57.4367,-156.22268 -27.1899,-47.37599 -66.0345,-94.47238 -106.4025,-129.00583 -51.3541,-43.93165 -107.59383,-75.72187 -171.02271,-96.67272 -100.04996,-33.04695 -209.20122,-33.04695 -309.25118,0 -63.42888,20.95085 -119.66864,52.74107 -171.02273,96.67272 -33.2686,28.46015 -64.26202,63.82296 -89.84031,102.50583 -13.49058,20.40225 -20.92411,33.48382 -32.10581,56.5 -56.87769,117.07585 -66.00026,249.76533 -25.58411,372.12559 20.95085,63.42888 52.74107,119.66861 96.67272,171.02271 28.46015,33.2686 63.82296,64.262 102.50583,89.8403 20.40225,13.4906 33.48382,20.9241 56.5,32.1058 56.00481,27.2082 113.30434,43.033 177,48.8831 19.66562,1.8061 59.51894,1.8195 79.84125,0.027 z"
         id="path16" />
    </g>
  </g>
</svg>
