<?xml version="1.0" encoding="UTF-8" standalone="no"?>
<svg
   xmlns:dc="http://purl.org/dc/elements/1.1/"
   xmlns:cc="http://creativecommons.org/ns#"
   xmlns:rdf="http://www.w3.org/1999/02/22-rdf-syntax-ns#"
   xmlns:svg="http://www.w3.org/2000/svg"
   xmlns="http://www.w3.org/2000/svg"
   xmlns:sodipodi="http://sodipodi.sourceforge.net/DTD/sodipodi-0.dtd"
   xmlns:inkscape="http://www.inkscape.org/namespaces/inkscape"
   version="1.1"
   id="svg2"
   width="1044.5309"
   height="1337.2346"
   viewBox="0 0 1044.5309 1337.2346"
   sodipodi:docname="Riftmarch.svg"
   inkscape:version="1.0.1 (3bc2e813f5, 2020-09-07)">
  <metadata
     id="metadata8">
    <rdf:RDF>
      <cc:Work
         rdf:about="">
        <dc:format>image/svg+xml</dc:format>
        <dc:type
           rdf:resource="http://purl.org/dc/dcmitype/StillImage" />
        <dc:title></dc:title>
      </cc:Work>
    </rdf:RDF>
  </metadata>
  <defs
     id="defs6" />
  <sodipodi:namedview
     pagecolor="#ffffff"
     bordercolor="#666666"
     borderopacity="1"
     objecttolerance="10"
     gridtolerance="10"
     guidetolerance="10"
     inkscape:pageopacity="0"
     inkscape:pageshadow="2"
     inkscape:window-width="1920"
     inkscape:window-height="1057"
     id="namedview4"
     showgrid="false"
     inkscape:pagecheckerboard="true"
     inkscape:zoom="0.49"
     inkscape:cx="520.69026"
     inkscape:cy="674.3664"
     inkscape:window-x="-8"
     inkscape:window-y="-8"
     inkscape:window-maximized="1"
     inkscape:current-layer="g10" />
  <g
     inkscape:groupmode="layer"
     inkscape:label="Image"
     id="g10"
     transform="translate(-229.30974,-75.633604)">
    <g
       id="g14">
      <path
         style="fill:#e4c261"
         d="m 752,1371.3763 c -13.18587,-2.9702 -23.79808,-5.5898 -28.46952,-7.0276 -15.022,-4.6236 -30.52419,-10.3534 -40.03048,-14.7957 -80.35238,-37.549 -152.9362,-90.4022 -218.35586,-158.9998 -14.89185,-15.6152 -39.00914,-43.2658 -47.66806,-54.6516 -11.32025,-14.8852 -26.45149,-35.4868 -30.77541,-41.9016 -17.97549,-26.6675 -20.64113,-30.9977 -36.01252,-58.5 -13.88553,-24.8438 -20.65725,-38.77602 -34.7525,-71.5 -2.79678,-6.49311 -10.73194,-28.44257 -12.91172,-35.71517 -1.02456,-3.41834 -2.18201,-6.7316 -2.57211,-7.36279 -0.39011,-0.6312 -1.59469,-4.35938 -2.67686,-8.28484 -1.08217,-3.92546 -3.07996,-11.1872 -4.43955,-16.1372 -5.60756,-20.41611 -10.88618,-47.22165 -13.88306,-70.5 -0.88727,-6.89193 -1.8483,-27.72842 -2.39837,-52 -0.50482,-22.275 -1.18835,-47.025 -1.51897,-55 -0.33061,-7.975 -1.26187,-80.875 -2.06946,-162 -0.8076,-81.125 -1.91191,-168.425 -2.45402,-194 -0.54211,-25.575 -1.10398,-69.62858 -1.24859,-97.89685 L 269.5,213.70629 l 12,-5.45486 c 28.44818,-12.93176 71.73711,-29.33139 101.5,-38.45238 3.575,-1.09558 10.1,-3.10042 14.5,-4.45521 15.80009,-4.86496 26.53935,-7.74937 55.73992,-14.97093 30.37243,-7.51138 67.7857,-14.78344 102.26008,-19.87642 8.8,-1.30005 16.9,-2.62329 18,-2.94055 1.1,-0.31725 10.55,-1.49318 21,-2.61317 10.45,-1.11998 22.6,-2.45292 27,-2.96209 4.4,-0.50916 17.225,-1.63946 28.5,-2.51177 11.275,-0.87231 26.575,-2.09388 34,-2.7146 18.18035,-1.51985 148.84845,-1.51817 167,0.002 7.425,0.62189 26.1,2.06016 41.5,3.19615 15.4,1.13599 30.25,2.49394 33,3.01765 2.75,0.52372 12.65,1.66144 22,2.52827 9.35,0.86684 17.675,1.83282 18.5,2.14663 0.825,0.31382 9.15,1.62586 18.5,2.91565 60.2355,8.30923 123.1549,22.00638 180.5,39.29373 18.2915,5.51417 59.5143,20.29159 66.0881,23.691 l 2.969,1.53538 -0.3635,29.70955 c -0.2,16.34024 -1.311,110.70954 -2.4689,209.70954 -1.1579,99 -2.3478,188.325 -2.6443,198.5 -0.2965,10.175 -0.992,53.6 -1.5455,96.5 -0.6835,52.97353 -1.4601,82.49193 -2.4206,92 -1.7227,17.05309 -5.4042,44.44513 -6.2496,46.5 -0.3394,0.825 -1.643,6.9 -2.8968,13.5 -2.4505,12.89916 -5.7356,27.16742 -7.9362,34.46952 -0.7509,2.49176 -2.786,9.25548 -4.5225,15.03048 -8.0023,26.61273 -19.4498,55.7456 -32.4502,82.58264 -7.768,16.0358 -21.8325,42.2577 -27.1762,50.6674 -1.3105,2.0625 -3.4406,5.4375 -4.7335,7.5 -2.2015,3.512 -18.3761,27.9083 -21.623,32.6141 -17.766,25.7494 -46.1905,59.6586 -72.9262,86.998 -58.26563,59.5813 -139.74633,118.1194 -210.1001,150.9419 -6.875,3.2074 -15.425,7.216 -19,8.9079 -20.13457,9.5288 -30.81536,13.9882 -42.3747,17.6922 -10.53018,3.3742 -14.50551,3.8507 -20.6253,2.4722 z m 16.62742,-12.2062 c 11.94656,-3.8103 20.08413,-7.1117 37.87258,-15.3651 33.5826,-15.5813 61.00864,-29.893 81,-42.2682 1.65,-1.0214 4.575,-2.8361 6.5,-4.0326 70.52908,-43.84 137.5309,-102.1612 185.5855,-161.5417 8.6699,-10.7132 24.7165,-31.7511 29.4408,-38.5984 3.1513,-4.5673 19.4052,-29.0748 21.7962,-32.8641 1.3882,-2.2 3.5183,-5.575 4.7336,-7.5 5.1523,-8.1614 19.308,-34.5259 26.0195,-48.4602 12.1324,-25.18921 23.7096,-54.85256 31.4336,-80.5398 1.7365,-5.775 3.7716,-12.53872 4.5225,-15.03048 2.2006,-7.3021 5.4857,-21.57036 7.9362,-34.46952 1.2538,-6.6 2.5574,-12.675 2.8968,-13.5 0.8454,-2.05487 4.5269,-29.44691 6.2496,-46.5 0.9605,-9.50807 1.7371,-39.02647 2.4206,-92 0.5535,-42.9 1.249,-86.325 1.5455,-96.5 0.2965,-10.175 1.4844,-99.5 2.6398,-198.5 1.1555,-99 2.268,-191.27198 2.4724,-205.04885 l 0.3716,-25.04886 -4.7821,-1.61894 c -2.6301,-0.89042 -8.8321,-3.16448 -13.7821,-5.05347 -22.2754,-8.5006 -41.6766,-14.64881 -77,-24.40114 -42.2321,-11.65973 -98.8629,-23.12764 -147,-29.76794 -9.35,-1.28979 -17.675,-2.60183 -18.5,-2.91565 -0.825,-0.31381 -9.15,-1.27979 -18.5,-2.14663 -9.35,-0.86683 -19.25,-2.00455 -22,-2.52827 -2.75,-0.52371 -17.6,-1.88166 -33,-3.01765 -15.4,-1.13599 -34.075,-2.57276 -41.5,-3.19282 -18.0784,-1.50973 -142.89303,-1.51139 -161,-0.002 -7.425,0.61889 -22.725,1.83896 -34,2.71127 -11.275,0.87231 -24.1,2.00261 -28.5,2.51177 -4.4,0.50917 -16.55,1.84211 -27,2.96209 -10.45,1.11999 -19.9,2.29592 -21,2.61317 -1.1,0.31726 -9.2,1.6405 -18,2.94055 -53.31143,7.87582 -113.55824,21.16342 -158,34.84735 -4.4,1.35479 -10.925,3.35963 -14.5,4.45521 -28.6671,8.78518 -74.96121,26.2323 -98.35686,37.0683 l -8.85686,4.10217 0.64421,46.76524 c 0.35431,25.72088 1.07712,67.46524 1.60625,92.76524 0.52913,25.3 1.62245,112.375 2.42961,193.5 0.80715,81.125 1.73805,154.025 2.06866,162 0.33062,7.975 1.01415,32.725 1.51897,55 0.55007,24.27158 1.5111,45.10807 2.39837,52 2.99688,23.27835 8.2755,50.08389 13.88306,70.5 1.35959,4.95 3.35738,12.21174 4.43955,16.1372 1.08217,3.92546 2.28675,7.65364 2.67686,8.28484 0.3901,0.63119 1.54755,3.94445 2.57211,7.36279 2.17978,7.2726 10.11494,29.22206 12.91172,35.71517 13.86423,32.18764 19.30667,43.40066 32.76226,67.49996 15.31034,27.4212 18.00294,31.7964 36.00276,58.5 4.32392,6.4148 19.45516,27.0164 30.77541,41.9016 8.55332,11.247 32.75503,39.0231 47.16386,54.1296 46.8481,49.1166 98.67559,91.0704 153.36006,124.1434 43.91308,26.5584 80.58197,42.8347 114.53048,50.8366 4.93324,1.1628 10.31952,2.4899 11.96952,2.9491 4.95004,1.3777 6.85977,1.1657 16.12742,-1.7902 z M 1074.7028,951.87067 C 1066.7223,941.2168 1048.6527,917.2 1034.5481,898.5 1020.4435,879.8 999.93446,852.52495 988.97246,837.88877 l -19.93089,-26.61122 -4.52399,-0.62009 c -5.11854,-0.70157 -10.81364,-3.35281 -15.28608,-7.11612 l -3.03556,-2.55425 -8.34797,2.92996 c -11.76367,4.1288 -19.81161,6.07781 -31.4165,7.6083 -21.84889,2.8815 -27.70357,2.8713 -52.21303,-0.091 -15.26428,-1.84489 -50.22345,-17.60221 -62.32491,-28.09202 -1.26877,-1.0998 -1.75527,-4.45336 -2.31436,-15.95338 -0.38935,-8.00847 -0.95208,-15.19718 -1.25052,-15.97491 C 787.87484,750.23146 790.41689,750 803.85859,750 h 16.07256 l 6.28443,3.38132 c 9.93852,5.3474 27.06992,11.20331 35.39878,12.10012 2.1371,0.23011 9.25484,0.73873 15.81719,1.13027 l 11.93156,0.71188 -2.23763,-3.62055 c -1.23069,-1.99131 -2.94935,-5.04725 -3.81924,-6.79099 -6.7536,-13.53791 -35.64564,-55.0024 -51.25436,-73.55783 C 814.36728,662.331 759.05907,604 756.80991,604 c -1.33391,0 -17.44756,15.76514 -25.55268,25 -3.62036,4.125 -14.77313,16.05 -24.78392,26.5 -21.20857,22.13906 -22.1408,23.18897 -34.62849,39 -13.96964,17.68736 -29.44359,38.72432 -43.19164,58.71936 l -8.74549,12.71937 2.67014,0.67016 c 2.72701,0.68444 18.12228,-0.0609 24.40732,-1.18163 8.01514,-1.42925 23.03799,-8.30083 30.69813,-14.0416 3.06454,-2.29668 3.81985,-2.38566 20.25,-2.38566 H 715 v 16.94155 16.94156 l -6.09823,4.69247 c -12.23929,9.41793 -40.99514,22.44936 -52.81503,23.93446 -2.00493,0.25191 -6.10714,0.92564 -9.11603,1.49718 -9.73193,1.8486 -25.10611,2.3065 -35.77219,1.06543 -18.45501,-2.14737 -27.68599,-4.5214 -40.47824,-10.41026 l -9.22028,-4.24451 -5,2.75133 c -2.75,1.51324 -7.18193,3.31567 -9.84874,4.00542 -5.40007,1.39668 -2.30422,-2.09127 -32.2419,36.32537 -8.57218,11 -16.68357,21.24761 -18.02531,22.77247 -2.8936,3.28852 -17.36437,21.70914 -41.85115,53.27455 -9.79314,12.62414 -18.4376,23.62798 -19.20991,24.45298 -0.77231,0.825 -2.62343,3.11597 -4.1136,5.09103 -6.38808,8.46677 -17.47805,21.90819 -18.06813,21.89916 -3.51212,-0.0537 -81.45776,-6.97336 -81.74098,-7.25658 -0.20831,-0.2083 -1.05229,-10.47108 -1.87551,-22.80617 -0.82322,-12.33509 -1.70429,-24.67744 -1.95793,-27.42744 -0.25365,-2.75 -0.73816,-11.75 -1.07669,-20 l -0.61552,-15 19.31269,-14.25622 c 10.62197,-7.84092 23.58397,-17.51592 28.80444,-21.5 5.22047,-3.98408 19.4305,-14.66878 31.57786,-23.74378 68.50735,-51.18022 78.97749,-59.23968 79.62983,-61.29561 0.38469,-1.21241 1.21162,-4.27385 1.83762,-6.80319 0.626,-2.52935 2.80024,-6.79787 4.83164,-9.48561 l 3.69346,-4.88681 -3.82494,-10.37007 c -5.22102,-14.15511 -7.37426,-24.14365 -8.78767,-40.76458 -1.13784,-13.38028 -0.57616,-27.84854 1.70113,-43.81936 0.84345,-5.9152 4.78039,-18.44331 8.35554,-26.58896 6.54758,-14.91807 16.89213,-31.74129 18.82423,-30.61361 0.36825,0.21493 7.19454,-0.21583 15.16954,-0.95724 7.975,-0.74141 15.5125,-1.36308 16.75,-1.38149 2.22373,-0.0331 2.25,0.12395 2.25,13.44839 v 13.48187 l -4.08096,8.76813 c -10.15733,21.8235 -12.75538,31.32366 -12.92661,47.26814 -0.14758,13.74084 -0.13213,14 0.83436,14 0.45473,0 9.79223,-5.46917 20.75,-12.15372 22.88257,-13.95901 60.63224,-41.70607 77.51014,-56.9721 6.27719,-5.67771 11.93232,-10.7846 12.56696,-11.34865 C 645.94903,592.81941 693,546.55174 693,546.05087 c 0,-0.96102 -29.61955,-24.30314 -44,-34.67485 -22.43208,-16.17883 -38.0629,-26.20773 -52.80169,-33.87812 -8.45509,-4.40022 -10.86184,-7.04571 -17.69831,-19.45394 -6.27346,-11.38637 -21.2708,-37.64695 -36.05829,-63.13866 -6.25169,-10.77709 -12.84608,-22.29364 -14.6542,-25.59233 -1.80813,-3.2987 -5.81511,-10.45608 -8.90439,-15.9053 -3.08928,-5.44922 -8.5482,-15.30767 -12.13093,-21.90767 -3.58272,-6.6 -8.65399,-15.825 -11.26947,-20.5 -9.58267,-17.12837 -27.50559,-52.31047 -26.93788,-52.87817 0.32135,-0.32135 2.01409,0.23632 3.76164,1.23928 1.74755,1.00296 8.356,4.54545 14.68544,7.87221 6.32945,3.32676 12.63308,6.82684 14.00808,7.77795 1.375,0.95111 6.325,3.73089 11,6.17729 4.675,2.44639 21.55,11.66537 37.5,20.48661 15.95,8.82125 33.95,18.63061 40,21.7986 6.05,3.16798 11.675,6.32672 12.5,7.01943 0.825,0.69271 15.225,8.81913 32,18.05873 16.775,9.2396 32.525,17.97984 35,19.42275 2.475,1.44292 5.89449,3.19033 7.59886,3.88312 1.89165,0.76892 4.01008,2.89241 5.43793,5.45092 2.67331,4.79018 18.64578,29.06544 27.43174,41.69128 7.15053,10.27564 31.18597,41.68478 32.26272,42.16042 0.42281,0.18677 3.67604,3.82229 7.22939,8.07894 3.55335,4.25665 6.748,7.40665 7.09922,7 3.64718,-4.22276 15.17315,-18.8447 21.47185,-27.23936 4.33311,-5.775 8.54477,-11.175 9.35925,-12 2.13344,-2.16098 21.17827,-31.40558 25.07219,-38.5 1.81127,-3.3 3.84776,-6.675 4.52554,-7.5 0.67777,-0.825 2.94436,-4.60106 5.03686,-8.39124 2.0925,-3.79018 4.96778,-7.52071 6.3895,-8.29008 1.42172,-0.76937 14.50995,-8.2016 29.08495,-16.51607 14.575,-8.31447 31.225,-17.80224 37,-21.08393 5.775,-3.28169 11.175,-6.53863 12,-7.23764 0.825,-0.69902 5.55,-3.40441 10.5,-6.01198 4.95,-2.60757 13.5,-7.32323 19,-10.47924 11.1297,-6.38645 25.87806,-14.61476 35,-19.52696 3.3,-1.77706 12.75,-6.90604 21,-11.39773 21.2146,-11.5502 47.4346,-24.4639 48.1727,-23.72572 0.3434,0.3434 -0.5133,2.32001 -1.9038,4.39248 -2.9654,4.41964 -43.7689,77.82637 -43.7689,78.74149 0,0.34194 -3.98009,7.68782 -8.84465,16.32417 C 980.2908,366.4339 970.32142,384.3 963.00119,397.5 c -7.32023,13.2 -16.11015,28.95 -19.53316,35 -3.423,6.05 -7.67566,13.925 -9.45035,17.5 -7.61514,15.34018 -10.72083,19.31506 -19.20161,24.57551 -28.75385,17.83542 -54.12742,36.16972 -82.74447,59.78905 l -13.16343,10.86455 17.29592,16.68755 c 32.67047,31.5213 54.37448,51.25987 73.29591,66.65845 C 921.74953,638.54398 975.03026,676 976.96134,676 c 2.50619,0 1.14722,-22.07574 -1.95629,-31.77889 -2.41644,-7.55505 -8.78332,-19.80441 -13.25604,-25.50357 -2.68547,-3.42183 -2.91267,-4.2799 -2.38302,-9 0.322,-2.86965 0.59639,-10.24843 0.60974,-16.3973 L 960,582.14047 l 16.90612,-0.0889 16.90612,-0.0889 4.55078,5.20223 c 8.48538,9.70003 22.55838,39.00806 24.06018,50.10682 0.2402,1.77557 1.1997,7.94097 2.1322,13.70089 1.8485,11.41775 1.5964,38.23715 -0.4231,45.02741 -0.5726,1.925 -1.2507,5.3 -1.507,7.5 -0.6234,5.35217 -3.0004,12.15058 -8.0415,23 l -4.1818,9 2.2968,4 c 1.2632,2.2 3.0617,6.38418 3.9968,9.29819 2.0031,6.24279 4.6188,8.81385 24.8775,24.45297 33.3743,25.76397 48.3186,37.45482 53.9269,42.18659 3.3,2.78424 17.475,13.91817 31.5,24.74207 14.025,10.82391 26.4,20.50025 27.5,21.50298 1.1,1.00273 2.9569,2.49681 4.1266,3.32017 1.1696,0.82337 6.5696,5.07803 12,9.4548 5.4303,4.37677 10.0045,8.03291 10.1648,8.12474 0.1603,0.0918 -0.3904,8.43584 -1.2237,18.54223 -0.8333,10.10639 -2.2054,26.92526 -3.0491,37.37526 -0.8438,10.45 -1.7738,20.84981 -2.0667,23.1107 l -0.5327,4.1107 -12.2096,0.6709 c -6.7153,0.369 -17.8346,1.08867 -24.7096,1.59927 -6.875,0.5106 -16.325,1.16339 -21,1.45064 -4.675,0.28725 -12.6146,0.80957 -17.6437,1.1607 l -9.1436,0.63842 -14.5099,-19.37066 z m 42.3487,10.65987 c 12.3467,-0.8082 28.7018,-1.68404 36.3448,-1.9463 7.643,-0.26227 14.2386,-0.83851 14.6569,-1.28054 0.7812,-0.82539 2.7675,-24.47747 2.8809,-34.3037 0.035,-3.025 0.7744,-13.15 1.6432,-22.5 l 1.5797,-17 -3.3285,-2.79428 c -1.8307,-1.53685 -10.9785,-8.59195 -20.3285,-15.678 -9.35,-7.08606 -17.9,-13.72516 -19,-14.75357 -1.8658,-1.74435 -5.6197,-4.66293 -28.25,-21.96338 -4.8125,-3.67907 -15.4278,-11.89157 -23.5897,-18.25 -36.6698,-28.56748 -58.0427,-45.00923 -58.2286,-44.79406 -0.6761,0.78277 1.8238,13.39591 2.8361,14.30942 0.6777,0.61158 10.6822,8.83432 22.2322,18.27275 11.55,9.43843 32.0835,26.2711 45.6299,37.40595 13.5465,11.13484 29.9715,24.61074 36.5,29.94643 6.5286,5.33569 13.2201,10.90264 14.8701,12.371 1.65,1.46837 6.0375,5.14099 9.75,8.16139 3.7125,3.02039 6.75,6.23292 6.75,7.13893 0,0.90602 -0.6796,10.02625 -1.5103,20.26717 -0.8307,10.24092 -1.5869,21.39757 -1.6805,24.79256 -0.094,3.39499 -0.4264,6.32516 -0.7397,6.51148 -0.3132,0.18632 -10.2445,0.84185 -22.0695,1.45673 -11.825,0.61487 -23.9867,1.34974 -27.026,1.63303 l -5.5259,0.51507 -3.953,-5.27431 c -2.1741,-2.90087 -8.6875,-11.16748 -14.474,-18.37024 -5.7866,-7.20276 -16.1461,-20.42007 -23.0211,-29.3718 -12.9365,-16.84421 -26.1967,-33.79153 -41.1754,-52.6245 -30.07932,-37.81913 -34.91957,-45.00453 -36.31355,-53.90777 -1.36452,-8.71509 -1.04441,-8.3044 -6.506,-8.34671 -5.71164,-0.0442 -5.67337,-0.13586 -3.91559,9.37284 1.55446,8.40884 3.7875,12.17116 22.83528,38.47387 9.35996,12.925 23.62506,32.725 31.70036,44 8.0752,11.275 19.0351,26.35 24.3554,33.5 8.4901,11.40995 16.2548,22.21027 30.5993,42.56194 5.7519,8.16068 10.6997,13.93806 11.9368,13.93806 0.5975,0 11.1882,-0.66126 23.5349,-1.46946 z M 430.26308,938.75 c 10.30855,-13.3375 22.67899,-29.2723 27.48987,-35.41067 4.81088,-6.13837 13.47205,-17.32326 19.24705,-24.8553 5.775,-7.53204 13.2,-17.08882 16.5,-21.23729 3.3,-4.14847 12.67249,-16.13859 20.82775,-26.64471 L 529.1555,811.5 l -5.82775,-0.32767 c -5.68757,-0.31979 -5.90451,-0.2356 -9.01871,3.5 -1.75503,2.10522 -7.51614,9.00267 -12.80247,15.32767 -5.28633,6.325 -23.61633,28.6 -40.73334,49.5 -17.117,20.9 -34.30589,41.75522 -38.19753,46.34493 -3.89163,4.58971 -8.66737,10.26085 -10.61274,12.60255 -1.94537,2.34169 -4.7453,5.69357 -6.22207,7.44861 l -2.68504,3.19098 -12.27792,-1.0906 C 384.02507,947.39664 372.2,946.65812 364.5,946.35531 c -7.7,-0.3028 -14.18774,-0.73186 -14.41719,-0.95346 -0.22946,-0.22159 -0.56083,-2.99016 -0.73639,-6.15238 C 347.53841,906.68226 347,896.17282 347,893.44853 c 0,-2.82672 0.95924,-3.93674 8.25,-9.54674 4.5375,-3.49145 10.95,-8.61198 14.25,-11.37895 3.3,-2.76697 17.25,-13.67402 31,-24.23788 13.75,-10.56387 27.475,-21.23419 30.5,-23.71184 3.025,-2.47764 14.66453,-11.60767 25.86562,-20.28896 41.07272,-31.83299 39.5979,-30.87899 50.60398,-32.73345 4.2079,-0.70901 6.99025,-1.65955 6.9304,-2.36765 -0.055,-0.65068 -0.1675,-3.01063 -0.25,-5.24433 l -0.15,-4.06128 -4.75,0.63985 c -10.65256,1.43495 -14.5528,3.28053 -28.95823,13.70295 -7.81452,5.65386 -18.33262,13.20475 -23.37355,16.77975 -5.04093,3.575 -13.49723,9.68516 -18.79177,13.57814 -5.29455,3.89297 -13.00145,9.56028 -17.12645,12.59402 -4.125,3.03374 -10.2,7.36213 -13.5,9.61864 -3.3,2.25652 -10.275,7.24842 -15.5,11.09311 -5.225,3.84469 -18.05,13.09083 -28.5,20.54699 -31.50709,22.48055 -31.49321,22.46862 -30.94476,26.5691 0.86601,6.47465 2.54065,34.35568 3.13866,52.25517 0.35202,10.5368 1.04301,18.33084 1.69964,19.17114 0.82308,1.05332 6.86903,1.82332 23.60646,3.00648 12.375,0.87478 27.675,1.96763 34,2.42855 6.325,0.46092 12.62956,0.90568 14.01013,0.98835 2.15519,0.12906 5.16045,-3.27875 21.25295,-24.09969 z M 650,801.45808 c 15.43169,-3.37605 30.9647,-9.67834 45.51446,-18.46681 L 704,777.86576 l 0.011,-5.18288 c 0.006,-2.85058 0.28993,-6.87038 0.63084,-8.93288 l 0.61983,-3.75 -10.38084,0.004 c -8.32846,0.003 -10.97944,0.36878 -13.40855,1.85011 -1.66523,1.01551 -7.42947,3.72702 -12.80941,6.02559 -27.51891,11.75737 -52.29853,12.03618 -82.35522,0.92663 l -8.19235,-3.02805 -6.80765,2.58815 c -3.74421,1.42348 -9.40355,3.30779 -12.5763,4.18736 -4.9571,1.37425 -6.03369,2.11603 -7.65268,5.27285 -6.44946,12.57555 -21.40794,14.84752 -32.66729,4.96167 -2.90536,-2.55093 -4.41274,-3.16102 -7.28723,-2.9494 -5.25211,0.38667 -13.12416,3.1186 -13.12416,4.55463 0,3.01914 9.99137,9.98674 19.28751,13.45037 12.10655,4.51074 30.7742,0.96628 39.8935,-7.57466 l 2.68101,-2.51098 10.31899,4.08813 c 11.72026,4.64327 26.57693,8.8162 38.31899,10.76298 10.07316,1.67009 31.29538,1.08147 41.5,-1.15104 z m 258,-2.05987 c 14.49193,-2.6546 27.21194,-6.09751 34.24671,-9.2695 l 6.74671,-3.04211 1.43855,2.78185 C 952.4671,793.80394 959.6097,800 962.11129,800 c 1.80235,0 2.00332,-0.39598 1.39572,-2.75 -0.3904,-1.5125 -1.04229,-5.13775 -1.44865,-8.05612 -0.61623,-4.42557 -1.33119,-5.79439 -4.30837,-8.24843 C 953.06587,777.0844 949,768.86369 949,763.254 c 0,-4.30899 1.84368,-9.15887 4.73733,-12.46173 1.3355,-1.52437 1.28989,-2.06089 -0.42474,-4.99673 -2.87246,-4.91834 -5.12081,-4.84708 -5.92592,0.1878 -1.24096,7.76059 -7.69342,14.66717 -20.38667,21.8215 -13.93403,7.85367 -28.67558,11.55813 -46,11.5595 -15.80705,10e-4 -27.34391,-2.53894 -46,-10.12832 -19.21591,-7.81712 -19.71328,-7.96276 -27.88636,-8.16597 l -7.38636,-0.18366 0.63636,3.18181 c 0.35,1.74999 0.63636,5.36083 0.63636,8.02409 v 4.84228 l 9.25,5.43866 c 9.01579,5.30094 24.28312,12.18615 28.93435,13.04872 1.27361,0.23618 2.31565,0.50037 2.31565,0.58707 0,0.0867 0.9,0.29611 2,0.46533 1.1,0.16923 5.46222,1.05942 9.69382,1.97821 15.78946,3.42827 39.06105,3.82981 54.80618,0.94565 z m 91.41538,-4.14692 c 2.06182,-2.0618 5.39932,-7.1243 7.41662,-11.25 3.4665,-7.08919 3.6642,-8.02319 3.5982,-17.00129 -0.079,-10.74019 -2.1,-17.33633 -7.9961,-26.09792 l -3.41161,-5.06963 3.34681,-8.16623 c 12.8717,-31.40732 15.6494,-62.48822 7.9199,-88.62 -1.3904,-4.70042 -2.5492,-9.20102 -2.5752,-10.00132 -0.055,-1.70324 -9.7052,-20.76068 -15.08677,-29.7949 l -3.72304,-6.25 -6.20209,-0.0689 c -3.41116,-0.0379 -7.4396,-0.2322 -8.9521,-0.43178 L 971,592.13644 v 10.31063 c 0,9.95774 0.1167,10.50442 3.40962,15.97286 4.79788,7.96767 11.25714,28.18655 12.65378,39.60909 1.98093,16.20112 -0.93231,36.63067 -7.59781,53.28077 l -2.62537,6.55807 3.03682,8.81607 c 1.67025,4.84884 3.52346,10.72823 4.11823,13.0653 0.87647,3.44397 1.80834,4.62009 4.91728,6.20615 12.72875,6.49375 14.63995,23.18708 3.81262,33.30135 l -2.97782,2.7817 1.1986,6.09235 c 1.26231,6.4162 2.9207,10.86922 4.0479,10.86922 0.37005,0 2.35974,-1.68692 4.42153,-3.74871 z M 537.02002,778.48965 c 4.7787,-2.47117 5.24317,-4.34193 4.04713,-16.30108 -0.7992,-7.99125 -1.4955,-11.00401 -2.75919,-11.93857 -2.52811,-1.86966 -8.74232,-1.52861 -11.40293,0.62582 -2.15222,1.74276 -2.29661,2.50531 -2.03561,10.75002 0.38779,12.24977 1.20443,15.59887 4.1695,17.09929 3.20829,1.6235 4.4575,1.58664 7.9811,-0.23548 z M 984,771.17588 c 4.0276,-0.60493 4.61773,-1.04012 5.62142,-4.1455 1.29329,-4.00136 0.30392,-7.88298 -2.70279,-10.60402 -1.76704,-1.59915 -2.9942,-1.6736 -12.86268,-0.78039 -6.0783,0.55016 -11.60601,1.56565 -12.48262,2.29317 -2.00252,1.66194 -2.02663,7.2836 -0.0477,11.11052 1.50743,2.91505 1.62406,2.94945 9.75,2.87622 4.52338,-0.0408 10.24932,-0.37827 12.72432,-0.75 z M 560.36002,760.76266 c 3.37699,-1.78054 9.08143,-6.16804 12.67653,-9.75 7.43781,-7.41062 36.62985,-42.5662 43.30357,-52.14991 9.53173,-13.68791 25.53562,-42.32034 24.32906,-43.52691 -0.49129,-0.49128 -14.46538,6.80144 -18.82355,9.82353 -1.4599,1.01235 -3.1474,1.84063 -3.75,1.84063 -0.6026,0 -1.09563,0.45 -1.09563,1 0,0.55 -0.47032,1 -1.04516,1 -3.48896,0 -36.43129,24.85095 -53.82662,40.6056 -15.04585,13.62675 -15.10484,14.25389 -1.19398,12.69443 9.29067,-1.04152 9.93307,-0.70822 10.77811,5.59207 1.02485,7.64077 -6.06847,17.39188 -16.2497,22.33831 L 551,752.39853 v 5.80074 c 0,7.0103 0.60942,7.1772 9.36002,2.56339 z m 362.19072,-1.84476 c 0.2994,-0.48443 -5.79777,-9.55164 -13.54926,-20.14934 C 901.24998,728.17085 889.51803,712.075 882.93046,703 836.53667,639.08814 830.74237,631.50558 814.53799,613.5 801.74445,599.2844 782.8446,580 781.706,580 c -0.53052,0 -2.8189,1.93106 -5.08529,4.29125 -2.26639,2.36019 -6.36453,6.13736 -9.10698,8.3937 l -4.98627,4.10245 4.93419,5.3563 c 2.71381,2.94597 12.40352,13.2313 21.5327,22.8563 9.12917,9.625 19.91295,21.1 23.96395,25.5 4.051,4.4 9.65635,10.25 12.45632,13 7.55713,7.42224 40.69139,44.32381 80.96518,90.17077 l 8.8798,10.10861 3.3734,-1.99035 c 1.85536,-1.09469 3.61835,-2.3867 3.91774,-2.87113 z M 615.75339,741.25 c 10.43642,-11.4125 32.39504,-35.6 48.79694,-53.75 41.77928,-46.23207 99.53949,-107.5 101.34541,-107.5 0.3527,0 5.13294,-4.40467 10.62276,-9.78816 20.87452,-20.47018 47.05856,-43.21179 70.87116,-61.5537 6.53931,-5.03698 12.38931,-9.6382 13,-10.22494 2.50906,-2.41068 19.94919,-14.6144 32.11034,-22.46919 7.15,-4.61813 13.225,-8.68648 13.5,-9.04077 0.275,-0.3543 1.85,-1.33921 3.5,-2.18869 4.30776,-2.21781 6.706,-5.18273 11.51393,-14.23455 2.33709,-4.4 8.85803,-16.11497 14.49099,-26.03327 5.63295,-9.9183 11.48566,-20.4933 13.00602,-23.5 1.52035,-3.0067 7.36557,-13.56673 12.98937,-23.46673 28.21515,-49.66926 41.56949,-73.7635 41.12839,-74.20464 -0.7744,-0.77436 -17.07433,16.16803 -27.13518,28.20464 -14.17512,16.95885 -35.49459,44.91402 -46.99352,61.62032 -8.28809,12.04139 -17.81743,25.29789 -19.181,26.68314 -0.70568,0.7169 -2.8528,3.6419 -4.77138,6.5 -9.27311,13.81411 -10.46516,14.91692 -20.19279,18.68117 -13.16026,5.09255 -25.48727,12.10276 -38.84167,22.08876 -19.85334,14.84569 -27.15237,21.70116 -99.39231,93.35218 C 686.79821,619.26461 674.53449,633.29808 643,678.42758 c -5.225,7.47758 -13.45026,19.10288 -18.27836,25.83401 C 589.96718,752.71473 587,756.93561 587,757.92145 c 0,0.74566 6.76508,3.70632 9.13904,3.9996 0.35148,0.0434 9.17794,-9.25855 19.61435,-20.67105 z m -105.6968,8.76187 c 1.6323,-0.008 4.28292,-1.61951 7.33166,-4.45863 8.53556,-7.94868 18.56624,-9.4962 26.693,-4.11817 3.71345,2.45744 4.10531,2.51982 6.86509,1.09268 1.60976,-0.83244 3.23362,-2.00991 3.60857,-2.6166 1.04969,-1.69842 -1.65799,-3.68369 -5.73247,-4.20304 -4.80848,-0.61291 -9.01559,-3.70131 -13.72371,-10.07447 -6.20578,-8.40044 -9.80386,-15.50311 -13.757,-27.15649 L 517.61798,687.5 l 0.005,-18 c 0.004,-17.16488 0.14772,-18.48716 3.08836,-28.5 3.22429,-10.97873 10.20568,-28.61526 12.78501,-32.29776 C 534.505,607.26171 535,604.12483 535,599.17133 v -7.38365 l -9.25,0.69996 c -7.74641,0.58618 -9.54175,1.05045 -11.04484,2.85616 -2.76614,3.32306 -14.77291,28.16704 -15.14592,31.33939 -0.18216,1.54925 -0.41595,2.81681 -0.51953,2.81681 -0.10358,0 -0.38262,1.125 -0.62008,2.5 -0.23746,1.375 -1.20908,5.425 -2.15916,9 -1.37353,5.16835 -1.72933,10.80224 -1.73674,27.5 -0.009,19.72067 0.169,21.7615 2.91756,33.5 1.60977,6.875 4.67312,16.775 6.80743,22 5.31472,13.01095 5.21851,12.27579 1.85354,14.16423 -3.73036,2.0935 -9.10226,9.40886 -9.10226,12.3953 0,2.23649 0.0533,2.24525 5.25,0.86183 2.8875,-0.76869 6.40047,-1.40296 7.80659,-1.40949 z M 933.32388,739.4144 c -0.0969,-4.72282 -0.41551,-9.21081 -0.70811,-9.97331 C 931.80413,727.326 935.96021,725 940.55106,725 c 7.09792,0 16.2079,7.33377 20.76716,16.7181 L 963.39853,746 h 5.92574 5.92573 l -0.64095,-3.20477 c -0.85469,-4.27341 -7.4918,-14.31482 -12.8148,-19.38774 -16.00741,-15.25536 -53.60457,-44.6846 -66.55964,-52.09966 -4.61994,-2.64431 -8.92521,-5.26038 -9.56725,-5.8135 -1.64718,-1.41903 -19.6711,-9.83288 -20.07944,-9.37339 -0.96175,1.0822 20.72749,36.44339 29.06056,47.37906 9.82109,12.88843 36.95256,44.4994 38.19463,44.50068 0.36129,3.7e-4 0.57764,-3.86346 0.48077,-8.58628 z M 547.2477,706.12229 c 4.54868,-3.23274 10.12175,-7.39524 12.38458,-9.25 2.26283,-1.85476 12.33094,-9.22229 22.37356,-16.37229 10.04263,-7.15 20.78716,-14.89372 23.87674,-17.20826 3.08958,-2.31454 15.51742,-11.2966 27.61742,-19.96014 12.1,-8.66353 23.8,-17.3941 26,-19.40127 2.2,-2.00717 7.375,-6.45627 11.5,-9.88688 15.01064,-12.4838 40.05354,-36.44188 62.43152,-59.72709 12.58864,-13.099 35.55768,-36.41636 51.04231,-51.81636 27.91257,-27.76002 38.32859,-39.53824 48.66692,-55.03152 6.27064,-9.39735 14.49917,-25.48464 19.10531,-37.35208 l 3.25394,-8.3836 20.15743,-14.6164 c 11.08659,-8.03902 25.03659,-17.95933 31,-22.04513 5.96342,-4.0858 15.5484,-10.8358 21.29997,-15 5.75158,-4.1642 11.60158,-8.30459 13,-9.20086 1.39843,-0.89628 3.51253,-2.56164 4.69799,-3.70082 1.18547,-1.13917 6.81047,-5.78892 12.5,-10.33277 10.56558,-8.43802 36.461,-33.55376 35.54245,-34.47231 -0.47798,-0.47799 -41.00125,21.64558 -49.66158,27.1126 C 941.83817,320.8647 939.8233,322 939.55875,322 c -0.26454,0 -4.66099,2.5354 -9.76987,5.63423 -11.30648,6.85801 -21.33156,12.79113 -37.78888,22.36452 -6.875,3.99926 -22.97403,13.43427 -35.77562,20.96668 l -23.27562,13.6953 -7.60609,13.41963 c -8.47263,14.9485 -22.27175,36.01059 -30.08487,45.91964 -2.81883,3.575 -8.6766,11.10194 -13.01726,16.72654 -24.42461,31.64923 -65.09229,75.06525 -110.74054,118.22442 -33.98388,32.13082 -59.61522,55.42199 -125.29327,113.85384 -6.9887,6.21765 -12.69001,11.61765 -12.66957,12 0.067,1.25277 3.94494,7.1824 4.70152,7.18888 0.40627,0.003 4.46033,-2.63865 9.00902,-5.87139 z M 970.94044,706.25 c 0.73821,-2.0625 1.52428,-4.2409 1.74682,-4.8409 0.36741,-0.9906 -11.22641,-11.7652 -67.82199,-63.02969 -21.71786,-19.67212 -49.98451,-45.91477 -75.11445,-69.73596 l -17.78265,-16.85655 -3.23409,2.55819 c -1.77874,1.407 -6.53351,5.61745 -10.56615,9.35655 l -7.33207,6.79836 11.35572,11 c 35.56885,34.45464 42.08193,40.09489 66.12961,57.26752 9.44834,6.74713 17.85381,12.82549 18.67881,13.50747 0.825,0.68198 8.25,5.94059 16.5,11.68581 17.26927,12.02614 32.52273,22.92735 51,36.44823 7.15,5.23207 13.4721,9.53043 14.04911,9.55191 0.57701,0.0215 1.65311,-1.64844 2.39133,-3.71094 z M 708.09039,530.75 c 3.46299,-3.9875 7.40022,-8.4684 8.7494,-9.95755 l 2.45305,-2.70754 -16.89642,-16.82739 C 672.42379,471.40734 653.57081,458.2651 622.51419,445.57235 l -9.98581,-4.08117 -8.83603,-11.99559 C 589.22246,409.85158 586.80241,406.47758 580,396.46387 561.84195,369.73377 540.29739,341.56688 523.55352,322.667 c -5.945,-6.71051 -19.56723,-18.98662 -20.27889,-18.27497 -0.19926,0.19926 1.23128,3.00507 3.17897,6.23513 1.94769,3.23006 3.54242,6.21335 3.54383,6.62952 0.004,1.06294 10.56891,19.60885 29.47732,51.74332 8.89977,15.125 16.68236,28.4 17.29463,29.5 0.61226,1.1 6.03117,10.325 12.04201,20.5 6.01085,10.175 13.52151,23.225 16.69037,29 6.73225,12.26901 10.06557,17 11.9777,17 0.75773,0 1.97233,0.57034 2.69911,1.26742 0.72679,0.69708 5.59643,3.70303 10.82143,6.6799 24.5798,14.00395 62.78413,41.65331 83.5,60.43088 2.75,2.4927 5.51616,4.55234 6.14702,4.57699 0.63085,0.0246 3.98037,-3.21769 7.44337,-7.20519 z m 30.83924,-34.16916 C 743.91833,490.8503 748,485.67815 748,485.08718 748,484.21313 735.15729,468.78132 732.94742,467 c -1.51545,-1.22157 -17.42546,-21.662 -26.07505,-33.5 -5.22424,-7.15 -15.18789,-21.56462 -22.14143,-32.03249 l -12.6428,-19.03248 -15.79407,-8.87213 c -8.68674,-4.87967 -24.04165,-13.55202 -34.12202,-19.2719 -10.08037,-5.71988 -19.39521,-10.80555 -20.69965,-11.30149 -1.30443,-0.49595 -6.78185,-3.56136 -12.17205,-6.81203 -8.66534,-5.22582 -26.37324,-15.19004 -54.69993,-30.77961 -4.89476,-2.69383 -11.57463,-6.393 -14.84415,-8.22038 -3.26952,-1.82738 -6.13635,-3.13074 -6.37075,-2.89635 -0.75512,0.75513 19.74014,19.88922 33.43972,31.21886 19.04718,15.75214 24.41677,19.85214 45.47558,34.72334 10.34045,7.30216 23.61545,16.80976 29.5,21.12799 5.88455,4.31823 14.79702,10.71921 19.8055,14.22441 10.26707,7.18544 10.48088,7.41035 12.28614,12.92426 5.42077,16.55688 20.50438,40.96358 36.26377,58.6782 10.99113,12.35476 37.89854,39.8218 39.01046,39.8218 0.38091,0 4.77423,-4.68862 9.76294,-10.41916 z"
         id="path20" />
      <path
         style="fill:#330923"
         d="m 747.5,1397.3712 c -1.1,-0.2907 -7.625,-1.8881 -14.5,-3.5499 -14.67536,-3.5471 -33.07448,-8.7838 -34.5,-9.8192 -0.55,-0.3995 -2.24948,-1.025 -3.77663,-1.3899 -1.52714,-0.365 -5.12714,-1.7243 -8,-3.0206 -2.87285,-1.2963 -6.34837,-2.6864 -7.72337,-3.089 -1.375,-0.4027 -4.075,-1.5329 -6,-2.5116 -1.925,-0.9788 -8.9,-4.4059 -15.5,-7.6159 -57.47882,-27.9554 -120.18388,-71.206 -170.98135,-117.9338 -31.22464,-28.723 -71.0379,-71.4041 -90.05297,-96.5397 -34.62237,-45.7665 -48.53156,-66.6547 -69.18666,-103.9016 -15.87458,-28.6263 -31.66588,-61.87846 -37.99163,-80 -0.86396,-2.475 -1.91306,-4.95 -2.33134,-5.5 -0.41828,-0.55 -1.29497,-3.025 -1.9482,-5.5 -0.65323,-2.475 -1.80348,-5.85 -2.55611,-7.5 -1.23857,-2.71534 -5.37531,-14.95992 -9.96635,-29.5 -4.52166,-14.32034 -10.63723,-40.46173 -14.03652,-60 -4.65574,-26.75996 -5.45397,-36.48793 -6.40032,-78 -0.5078,-22.275 -1.19287,-47.25 -1.52238,-55.5 -0.32951,-8.25 -1.25564,-80.925 -2.05807,-161.5 -0.80243,-80.575 -1.92403,-167.875 -2.49245,-194 -0.56842,-26.125 -1.13297,-75.175 -1.25457,-109 L 244.5,200.5 l 2.16677,-3.03749 c 2.00996,-2.81765 5.65401,-4.9233 20.33323,-11.7492 C 274.05228,182.43397 301.00464,171 301.68248,171 c 0.28339,0 1.93327,-0.64938 3.66639,-1.44306 C 309.51952,167.647 326.7865,161 327.57734,161 c 0.34122,0 2.03841,-0.65305 3.77153,-1.45122 3.63278,-1.67304 48.44485,-16.65934 56.65113,-18.94558 3.025,-0.84275 9.55,-2.69703 14.5,-4.12063 43.46268,-12.49962 100.32864,-24.69137 142,-30.44401 7.7,-1.06297 16.025,-2.4062 18.5,-2.98495 2.475,-0.57876 13.05,-1.97364 23.5,-3.099732 10.45,-1.126094 22.6,-2.464033 27,-2.973197 4.4,-0.509165 17.225,-1.639463 28.5,-2.511772 11.275,-0.87231 26.575,-2.097323 34,-2.722251 18.34744,-1.544221 164.68192,-1.542512 183,0.0021 7.425,0.626104 26.1,2.067818 41.5,3.203809 15.4,1.135991 30.25,2.493933 33,3.017649 2.75,0.523716 12.65,1.661438 22,2.528264 9.35,0.86684 17.675,1.83163 18.5,2.144 0.825,0.31236 9.375,1.64769 19,2.96739 22.8639,3.13492 71.4981,11.43792 75,12.80427 0.825,0.32189 6.225,1.48856 12,2.59259 22.7798,4.35492 55.6373,12.71893 89,22.65533 11.5311,3.43429 43.7884,14.15301 47.5,15.78369 1.65,0.72492 4.8,1.87982 7,2.56645 2.2,0.68662 4.45,1.58112 5,1.98776 0.55,0.40664 2.8,1.31317 5,2.01449 8.9119,2.84097 20.4104,9.05089 22.6982,12.25846 l 2.3018,3.22705 -0.062,40.5 c -0.073,47.37877 -4.0665,391.86502 -4.8571,419 -0.2965,10.175 -0.992,53.6 -1.5455,96.5 -0.6835,52.97353 -1.4601,82.49193 -2.4206,92 -1.86,18.41198 -5.404,44.22643 -6.5899,48 -0.5185,1.65 -1.6368,7.05 -2.4852,12 -2.4343,14.20457 -9.261,40.53623 -15.037,58 -5.2448,15.85802 -12.381,35.62101 -14.5298,40.2391 -1.0848,2.33151 -1.9724,4.4937 -1.9724,4.80487 0,0.31116 -0.8471,2.45357 -1.8824,4.76089 -1.0354,2.30733 -3.3441,7.57018 -5.1305,11.69518 -8.0918,18.6848 -26.6886,53.899 -38.8155,73.5 -15.3678,24.8392 -30.2477,45.8144 -50.7685,71.5653 -66.2932,83.1891 -160.53428,159.1584 -257.4031,207.4969 -5.775,2.8818 -12.75,6.2426 -15.5,7.4685 -2.75,1.2258 -9.275,4.2478 -14.5,6.7155 -19.07907,9.0107 -30.73693,13.7875 -44.5,18.234 -8.06746,2.6064 -12.02917,3.2973 -20.5,3.5752 -5.775,0.1894 -11.4,0.1065 -12.5,-0.1842 z m 25.1253,-28.4671 c 11.55934,-3.704 22.24013,-8.1634 42.3747,-17.6922 3.575,-1.6919 12.125,-5.7005 19,-8.9079 70.35377,-32.8225 151.83447,-91.3606 210.1001,-150.9419 26.7357,-27.3394 55.1602,-61.2486 72.9262,-86.998 3.2469,-4.7058 19.4215,-29.1021 21.623,-32.6141 1.2929,-2.0625 3.423,-5.4375 4.7335,-7.5 5.3437,-8.4097 19.4082,-34.6316 27.1762,-50.6674 13.0004,-26.837 24.4479,-55.96987 32.4502,-82.5826 1.7365,-5.775 3.7716,-12.53872 4.5225,-15.03048 2.2006,-7.3021 5.4857,-21.57036 7.9362,-34.46952 1.2538,-6.6 2.5574,-12.675 2.8968,-13.5 0.8454,-2.05487 4.5269,-29.44691 6.2496,-46.5 0.9605,-9.50807 1.7371,-39.02647 2.4206,-92 0.5535,-42.9 1.249,-86.325 1.5455,-96.5 0.2965,-10.175 1.4864,-99.5 2.6443,-198.5 1.1579,-99 2.2689,-193.3693 2.4689,-209.70954 l 0.3635,-29.70955 -2.969,-1.53538 c -3.1796,-1.64418 -9.2939,-3.99492 -29.0881,-11.1832 -24.7441,-8.98584 -36.1342,-12.54562 -70.5,-22.03359 -42.2321,-11.65973 -98.8629,-23.12764 -147,-29.76794 -9.35,-1.28979 -17.675,-2.60183 -18.5,-2.91565 -0.825,-0.31381 -9.15,-1.27979 -18.5,-2.14663 -9.35,-0.86683 -19.25,-2.00455 -22,-2.52827 -2.75,-0.52371 -17.6,-1.88166 -33,-3.01765 -15.4,-1.13599 -34.075,-2.57426 -41.5,-3.19615 -18.15155,-1.52031 -148.81965,-1.52199 -167,-0.002 -7.425,0.62072 -22.725,1.84229 -34,2.7146 -11.275,0.87231 -24.1,2.00261 -28.5,2.51177 -4.4,0.50917 -16.55,1.84211 -27,2.96209 -10.45,1.11999 -19.9,2.29592 -21,2.61317 -1.1,0.31726 -9.2,1.6405 -18,2.94055 -53.31143,7.87582 -113.55824,21.16342 -158,34.84735 -4.4,1.35479 -10.925,3.35963 -14.5,4.45521 -29.76289,9.12099 -73.05182,25.52062 -101.5,38.45238 l -12,5.45486 0.26294,51.39686 c 0.14461,28.26827 0.70648,72.32185 1.24859,97.89685 0.54211,25.575 1.64642,112.875 2.45402,194 0.80759,81.125 1.73885,154.025 2.06946,162 0.33062,7.975 1.01415,32.725 1.51897,55 0.55007,24.27158 1.5111,45.10807 2.39837,52 2.99688,23.27835 8.2755,50.08389 13.88306,70.5 1.35959,4.95 3.35738,12.21174 4.43955,16.1372 1.08217,3.92546 2.28675,7.65364 2.67686,8.28484 0.3901,0.63119 1.54755,3.94445 2.57211,7.36279 2.17978,7.2726 10.11494,29.22206 12.91172,35.71517 14.09525,32.72398 20.86697,46.65616 34.7525,71.49996 15.37139,27.5023 18.03703,31.8325 36.01252,58.5 4.32392,6.4148 19.45516,27.0164 30.77541,41.9016 8.65892,11.3858 32.77621,39.0364 47.66806,54.6516 65.41966,68.5976 138.00348,121.4508 218.35586,158.9998 14.36277,6.7117 36.91331,14.4181 54.03048,18.4642 22.19883,5.2473 21.53907,5.2306 35.09482,0.8869 z M 752.5,1360.9603 c -1.65,-0.4592 -7.03628,-1.7863 -11.96952,-2.9491 -33.94851,-8.0019 -70.6174,-24.2782 -114.53048,-50.8366 -54.68447,-33.073 -106.51196,-75.0268 -153.36006,-124.1434 -14.40883,-15.1065 -38.61054,-42.8826 -47.16386,-54.1296 -11.32025,-14.8852 -26.45149,-35.4868 -30.77541,-41.9016 -17.99982,-26.7036 -20.69242,-31.0788 -36.00276,-58.5 -13.45559,-24.0993 -18.89803,-35.31236 -32.76226,-67.5 -2.79678,-6.49311 -10.73194,-28.44257 -12.91172,-35.71517 -1.02456,-3.41834 -2.18201,-6.7316 -2.57211,-7.36279 -0.39011,-0.6312 -1.59469,-4.35938 -2.67686,-8.28484 -1.08217,-3.92546 -3.07996,-11.1872 -4.43955,-16.1372 -5.60756,-20.41611 -10.88618,-47.22165 -13.88306,-70.5 -0.88727,-6.89193 -1.8483,-27.72842 -2.39837,-52 -0.50482,-22.275 -1.18835,-47.025 -1.51897,-55 -0.33061,-7.975 -1.26151,-80.875 -2.06866,-162 -0.80716,-81.125 -1.90048,-168.2 -2.42961,-193.5 -0.52913,-25.3 -1.25194,-67.04436 -1.60625,-92.76524 l -0.64421,-46.76524 8.85686,-4.10217 c 23.39565,-10.836 69.68976,-28.28312 98.35686,-37.0683 3.575,-1.09558 10.1,-3.10042 14.5,-4.45521 15.80009,-4.86496 26.53935,-7.74937 55.73992,-14.97093 30.37243,-7.51138 67.7857,-14.78344 102.26008,-19.87642 8.8,-1.30005 16.9,-2.62329 18,-2.94055 1.1,-0.31725 10.55,-1.49318 21,-2.61317 10.45,-1.11998 22.6,-2.45292 27,-2.96209 4.4,-0.50916 17.225,-1.63946 28.5,-2.51177 11.275,-0.87231 26.575,-2.09238 34,-2.71127 18.10697,-1.50925 142.9216,-1.50759 161,0.002 7.425,0.62006 26.1,2.05683 41.5,3.19282 15.4,1.13599 30.25,2.49394 33,3.01765 2.75,0.52372 12.65,1.66144 22,2.52827 9.35,0.86684 17.675,1.83282 18.5,2.14663 0.825,0.31382 9.15,1.62586 18.5,2.91565 48.1371,6.6403 104.7679,18.10821 147,29.76794 35.3234,9.75233 54.7246,15.90054 77,24.40114 4.95,1.88899 11.152,4.16305 13.7821,5.05347 l 4.7821,1.61894 -0.3716,25.04886 c -0.2044,13.77687 -1.3169,106.04885 -2.4724,205.04885 -1.1554,99 -2.3433,188.325 -2.6398,198.5 -0.2965,10.175 -0.992,53.6 -1.5455,96.5 -0.6835,52.97353 -1.4601,82.49193 -2.4206,92 -1.7227,17.05309 -5.4042,44.44513 -6.2496,46.5 -0.3394,0.825 -1.643,6.9 -2.8968,13.5 -2.4505,12.89916 -5.7356,27.16742 -7.9362,34.46952 -0.7509,2.49176 -2.786,9.25548 -4.5225,15.03048 -7.724,25.68724 -19.3012,55.35059 -31.4336,80.53984 -6.7115,13.9343 -20.8672,40.2988 -26.0195,48.4602 -1.2153,1.925 -3.3454,5.3 -4.7336,7.5 -2.391,3.7893 -18.6449,28.2968 -21.7962,32.8641 -4.7243,6.8473 -20.7709,27.8852 -29.4408,38.5984 -48.0546,59.3805 -115.05642,117.7017 -185.5855,161.5417 -1.925,1.1965 -4.85,3.0112 -6.5,4.0326 -19.99136,12.3752 -47.4174,26.6869 -81,42.2682 -17.78845,8.2534 -25.92602,11.5548 -37.87258,15.3651 -9.26765,2.9559 -11.17738,3.1679 -16.12742,1.7902 z M 1116,969.44221 c 4.675,-0.28725 14.125,-0.94004 21,-1.45064 6.875,-0.5106 17.9943,-1.23027 24.7096,-1.59927 l 12.2096,-0.6709 0.5327,-4.1107 c 0.2929,-2.26089 1.2229,-12.6607 2.0667,-23.1107 0.8437,-10.45 2.2158,-27.26887 3.0491,-37.37526 0.8333,-10.10639 1.384,-18.45039 1.2237,-18.54223 -0.1603,-0.0918 -4.7345,-3.74797 -10.1648,-8.12474 -5.4304,-4.37677 -10.8304,-8.63143 -12,-9.4548 -1.1697,-0.82336 -3.0266,-2.31744 -4.1266,-3.32017 -1.1,-1.00273 -13.475,-10.67907 -27.5,-21.50298 -14.025,-10.8239 -28.2,-21.95783 -31.5,-24.74207 -5.6083,-4.73177 -20.5526,-16.42262 -53.9269,-42.18659 -20.2587,-15.63912 -22.8744,-18.21018 -24.8775,-24.45297 -0.9351,-2.91401 -2.7336,-7.09819 -3.9968,-9.29819 l -2.2968,-4 4.1818,-9 c 5.0411,-10.84942 7.4181,-17.64783 8.0415,-23 0.2563,-2.2 0.9344,-5.575 1.507,-7.5 2.0195,-6.79026 2.2716,-33.60966 0.4231,-45.02741 -0.9325,-5.75992 -1.892,-11.92532 -2.1322,-13.70089 -1.5018,-11.09876 -15.5748,-40.40679 -24.06018,-50.10682 l -4.55078,-5.20223 -16.90612,0.0889 -16.90612,0.0889 -0.0243,11.17977 c -0.0133,6.14887 -0.28774,13.52765 -0.60974,16.3973 -0.52965,4.7201 -0.30245,5.57817 2.38302,9 4.47272,5.69916 10.8396,17.94852 13.25604,25.50357 C 978.10856,653.92426 979.46753,676 976.96134,676 975.03026,676 921.74953,638.54398 909.5,628.57511 890.57857,613.17653 868.87456,593.43796 836.20409,561.91666 l -17.29592,-16.68755 13.16343,-10.86455 c 28.61705,-23.61933 53.99062,-41.95363 82.74447,-59.78905 8.48078,-5.26045 11.58647,-9.23533 19.20161,-24.57551 1.77469,-3.575 6.02735,-11.45 9.45035,-17.5 3.42301,-6.05 12.21293,-21.8 19.53316,-35 7.32023,-13.2 17.28961,-31.0661 22.15416,-39.70245 C 990.01991,349.1612 994,341.81532 994,341.47338 c 0,-0.91512 40.8035,-74.32185 43.7689,-78.74149 1.3905,-2.07247 2.2472,-4.04908 1.9038,-4.39248 -0.7381,-0.73818 -26.9581,12.17552 -48.1727,23.72572 -8.25,4.49169 -17.7,9.62067 -21,11.39773 -9.12194,4.9122 -23.8703,13.14051 -35,19.52696 -5.5,3.15601 -14.05,7.87167 -19,10.47924 -4.95,2.60757 -9.675,5.31296 -10.5,6.01198 -0.825,0.69901 -6.225,3.95595 -12,7.23764 -5.775,3.28169 -22.425,12.76946 -37,21.08393 -14.575,8.31447 -27.66323,15.7467 -29.08495,16.51607 -1.42172,0.76937 -4.297,4.4999 -6.3895,8.29008 -2.0925,3.79018 -4.35909,7.56624 -5.03686,8.39124 -0.67778,0.825 -2.71427,4.2 -4.52554,7.5 -3.89392,7.09442 -22.93875,36.33902 -25.07219,38.5 -0.81448,0.825 -5.02614,6.225 -9.35925,12 -6.2987,8.39466 -17.82467,23.0166 -21.47185,27.23936 -0.35122,0.40665 -3.54587,-2.74335 -7.09922,-7 -3.55335,-4.25665 -6.80658,-7.89217 -7.22939,-8.07894 C 740.6545,460.68478 716.61906,429.27564 709.46853,419 c -8.78596,-12.62584 -24.75843,-36.9011 -27.43174,-41.69128 -1.42785,-2.55851 -3.54628,-4.682 -5.43793,-5.45092 -1.70437,-0.69279 -5.12386,-2.4402 -7.59886,-3.88312 -2.475,-1.44291 -18.225,-10.18315 -35,-19.42275 -16.775,-9.2396 -31.175,-17.36602 -32,-18.05873 -0.825,-0.69271 -6.45,-3.85145 -12.5,-7.01943 -6.05,-3.16799 -24.05,-12.97735 -40,-21.7986 -15.95,-8.82124 -32.825,-18.04022 -37.5,-20.48661 -4.675,-2.4464 -9.625,-5.22618 -11,-6.17729 -1.375,-0.95111 -7.67863,-4.45119 -14.00808,-7.77795 -6.32944,-3.32676 -12.93789,-6.86925 -14.68544,-7.87221 -1.74755,-1.00296 -3.44029,-1.56063 -3.76164,-1.23928 -0.56771,0.5677 17.35521,35.7498 26.93788,52.87817 2.61548,4.675 7.68675,13.9 11.26947,20.5 3.58273,6.6 9.04165,16.45845 12.13093,21.90767 3.08928,5.44922 7.09626,12.6066 8.90439,15.9053 1.80812,3.29869 8.40251,14.81524 14.6542,25.59233 14.78749,25.49171 29.78483,51.75229 36.05829,63.13866 6.83647,12.40823 9.24322,15.05372 17.69831,19.45394 14.73879,7.67039 30.36961,17.69929 52.80169,33.87812 14.38045,10.37171 44,33.71383 44,34.67485 0,0.50087 -47.05097,46.76854 -52.34611,51.47466 -0.63464,0.56405 -6.28977,5.67094 -12.56696,11.34865 -16.8779,15.26603 -54.62757,43.01309 -77.51014,56.9721 C 539.61902,672.53083 530.28152,678 529.82679,678 c -0.96649,0 -0.98194,-0.25916 -0.83436,-14 0.17123,-15.94448 2.76928,-25.44464 12.92661,-47.26814 L 546,607.96373 v -13.48187 c 0,-13.32444 -0.0263,-13.48147 -2.25,-13.44839 -1.2375,0.0184 -8.775,0.64008 -16.75,1.38149 -7.975,0.74141 -14.80129,1.17217 -15.16954,0.95724 -1.9321,-1.12768 -12.27665,15.69554 -18.82423,30.61361 -3.57515,8.14565 -7.51209,20.67376 -8.35554,26.58896 -4.58709,32.16969 -2.33607,59.03758 7.08654,84.58394 l 3.82494,10.37007 -3.69346,4.88681 c -2.0314,2.68774 -4.20564,6.95626 -4.83164,9.48561 -0.626,2.52934 -1.45293,5.59078 -1.83762,6.80319 -0.65234,2.05593 -11.12248,10.11539 -79.62983,61.29561 -12.14736,9.075 -26.35739,19.7597 -31.57786,23.74378 -5.22047,3.98408 -18.18247,13.65908 -28.80444,21.5 L 325.87463,877.5 l 0.61552,15 c 0.33853,8.25 0.82304,17.25 1.07669,20 0.25364,2.75 1.13471,15.09235 1.95793,27.42744 0.82322,12.33509 1.6672,22.59787 1.87551,22.80617 0.28322,0.28322 78.22886,7.20287 81.74098,7.25658 0.59008,0.009 11.68005,-13.43239 18.06813,-21.89916 1.49017,-1.97506 3.34129,-4.26603 4.1136,-5.09103 0.77231,-0.825 9.41677,-11.82884 19.20991,-24.45298 24.48678,-31.56541 38.95755,-49.98603 41.85115,-53.27455 1.34174,-1.52486 9.45313,-11.77247 18.02531,-22.77247 29.93768,-38.41664 26.84183,-34.92869 32.2419,-36.32537 2.66681,-0.68975 7.09874,-2.49218 9.84874,-4.00542 l 5,-2.75133 9.22028,4.24451 c 12.79225,5.88886 22.02323,8.26289 40.47824,10.41026 10.66608,1.24107 26.04026,0.78317 35.77219,-1.06543 3.00889,-0.57154 7.1111,-1.24527 9.11603,-1.49718 11.81989,-1.4851 40.57574,-14.51653 52.81503,-23.93446 L 715,782.88311 V 765.94155 749 h -17.06672 c -16.43015,0 -17.18546,0.089 -20.25,2.38566 -7.66014,5.74077 -22.68299,12.61235 -30.69813,14.0416 -6.28504,1.12073 -21.68031,1.86607 -24.40732,1.18163 l -2.67014,-0.67016 8.74549,-12.71937 c 13.74805,-19.99504 29.222,-41.032 43.19164,-58.71936 12.48769,-15.81103 13.41992,-16.86094 34.62849,-39 10.01079,-10.45 21.16356,-22.375 24.78392,-26.5 8.10512,-9.23486 24.21877,-25 25.55268,-25 2.24916,0 57.55737,58.331 75.24197,79.35422 15.60872,18.55543 44.50076,60.01992 51.25436,73.55783 0.86989,1.74374 2.58855,4.79968 3.81924,6.79099 l 2.23763,3.62055 -11.93156,-0.71188 c -6.56235,-0.39154 -13.68009,-0.90016 -15.81719,-1.13027 -8.32886,-0.89681 -25.46026,-6.75272 -35.39878,-12.10012 L 819.93115,750 h -16.07256 c -13.4417,0 -15.98375,0.23146 -15.52994,1.41405 0.29844,0.77773 0.86117,7.96644 1.25052,15.97491 0.55909,11.50002 1.04559,14.85358 2.31436,15.95338 12.10146,10.48981 47.06063,26.24713 62.32491,28.09202 24.50946,2.96229 30.36414,2.97249 52.21303,0.091 11.60489,-1.53049 19.65283,-3.4795 31.4165,-7.6083 l 8.34797,-2.92996 3.03556,2.55425 c 4.47244,3.76331 10.16754,6.41455 15.28608,7.11612 l 4.52399,0.62009 19.93089,26.61122 c 10.962,14.63618 31.47104,41.91123 45.57564,60.61123 14.1046,18.7 32.1742,42.7168 40.1547,53.37067 l 14.5099,19.37066 9.1436,-0.63842 c 5.0291,-0.35113 12.9687,-0.87345 17.6437,-1.1607 z m -27.0349,-9.63027 c -1.9058,-2.30343 -5.2292,-6.69093 -7.3853,-9.75 -14.3445,-20.35167 -22.1092,-31.15199 -30.5993,-42.56194 -5.3203,-7.15 -16.2802,-22.225 -24.3554,-33.5 -8.0753,-11.275 -22.3404,-31.075 -31.70036,-44 -19.04778,-26.30271 -21.28082,-30.06503 -22.83528,-38.47387 -1.75778,-9.5087 -1.79605,-9.41708 3.91559,-9.37284 5.46159,0.0423 5.14148,-0.36838 6.506,8.34671 1.39398,8.90324 6.23423,16.08864 36.31355,53.90777 14.9787,18.83297 28.2389,35.78029 41.1754,52.6245 6.875,8.95173 17.2345,22.16904 23.0211,29.3718 5.7865,7.20276 12.2999,15.46937 14.474,18.37024 l 3.953,5.27431 5.5259,-0.51507 c 3.0393,-0.28329 15.201,-1.01816 27.026,-1.63303 11.825,-0.61488 21.7563,-1.27041 22.0695,-1.45673 0.3133,-0.18632 0.6461,-3.11649 0.7397,-6.51148 0.094,-3.39499 0.8498,-14.55164 1.6805,-24.79256 0.8307,-10.24092 1.5103,-19.36115 1.5103,-20.26717 0,-0.90601 -3.0375,-4.11854 -6.75,-7.13893 -3.7125,-3.0204 -8.1,-6.69302 -9.75,-8.16139 -1.65,-1.46836 -8.3415,-7.03531 -14.8701,-12.371 -6.5285,-5.33569 -22.9535,-18.81159 -36.5,-29.94643 -13.5464,-11.13485 -34.0799,-27.96752 -45.6299,-37.40595 -11.55,-9.43843 -21.5545,-17.66117 -22.2322,-18.27275 -1.0123,-0.91351 -3.5122,-13.52665 -2.8361,-14.30942 0.1859,-0.21517 21.5588,16.22658 58.2286,44.79406 8.1619,6.35843 18.7772,14.57093 23.5897,18.25 22.6303,17.30045 26.3842,20.21903 28.25,21.96338 1.1,1.02841 9.65,7.66751 19,14.75357 9.35,7.08605 18.4978,14.14115 20.3285,15.678 l 3.3285,2.79428 -1.5797,17 c -0.8688,9.35 -1.6083,19.475 -1.6432,22.5 -0.1134,9.82623 -2.0997,33.47831 -2.8809,34.3037 -0.4183,0.44203 -7.0139,1.01827 -14.6569,1.28054 -7.643,0.26226 -23.9981,1.1381 -36.3448,1.9463 -12.3467,0.8082 -22.9374,1.46946 -23.5349,1.46946 -0.5976,0 -2.6457,-1.88463 -4.5515,-4.18806 z M 395,961.86134 c -6.325,-0.46092 -21.625,-1.55377 -34,-2.42855 -16.73743,-1.18316 -22.78338,-1.95316 -23.60646,-3.00648 -0.65663,-0.8403 -1.34762,-8.63434 -1.69964,-19.17114 -0.59801,-17.89949 -2.27265,-45.78052 -3.13866,-52.25517 -0.54845,-4.10048 -0.56233,-4.08855 30.94476,-26.5691 10.45,-7.45616 23.275,-16.7023 28.5,-20.54699 5.225,-3.84469 12.2,-8.83659 15.5,-11.09311 3.3,-2.25651 9.375,-6.5849 13.5,-9.61864 4.125,-3.03374 11.8319,-8.70105 17.12645,-12.59402 5.29454,-3.89298 13.75084,-10.00314 18.79177,-13.57814 5.04093,-3.575 15.55903,-11.12589 23.37355,-16.77975 14.40543,-10.42242 18.30567,-12.268 28.95823,-13.70295 l 4.75,-0.63985 0.15,4.06128 c 0.0825,2.2337 0.195,4.59365 0.25,5.24433 0.0598,0.7081 -2.7225,1.65864 -6.9304,2.36765 -11.00608,1.85446 -9.53126,0.90046 -50.60398,32.73345 -11.20109,8.68129 -22.84062,17.81132 -25.86562,20.28896 -3.025,2.47765 -16.75,13.14797 -30.5,23.71184 -13.75,10.56386 -27.7,21.47091 -31,24.23788 -3.3,2.76697 -9.7125,7.8875 -14.25,11.37895 -7.29076,5.61 -8.25,6.72002 -8.25,9.54674 0,2.72429 0.53841,13.23373 2.34642,45.80094 0.17556,3.16222 0.50693,5.93079 0.73639,6.15238 0.22945,0.2216 6.71719,0.65066 14.41719,0.95346 7.7,0.30281 19.52507,1.04133 26.27793,1.64116 l 12.27792,1.0906 2.68504,-3.19098 c 1.47677,-1.75504 4.2767,-5.10692 6.22207,-7.44861 1.94537,-2.3417 6.72111,-8.01284 10.61274,-12.60255 3.89164,-4.58971 21.08053,-25.44493 38.19753,-46.34493 17.11701,-20.9 35.44701,-43.175 40.73334,-49.5 5.28633,-6.325 11.04744,-13.22245 12.80247,-15.32767 3.1142,-3.7356 3.33114,-3.81979 9.01871,-3.5 L 529.1555,811.5 514.32775,830.60203 C 506.17249,841.10815 496.8,853.09827 493.5,857.24674 c -3.3,4.14847 -10.725,13.70525 -16.5,21.23729 -5.775,7.53204 -14.43617,18.71693 -19.24705,24.8553 -4.81088,6.13837 -17.18132,22.07317 -27.48987,35.41067 -16.0925,20.82094 -19.09776,24.22875 -21.25295,24.09969 C 407.62956,962.76702 401.325,962.32226 395,961.86134 Z M 608.5,802.60912 c -11.74206,-1.94678 -26.59873,-6.11971 -38.31899,-10.76298 l -10.31899,-4.08813 -2.68101,2.51098 c -9.1193,8.54094 -27.78695,12.0854 -39.8935,7.57466 C 507.99137,794.38002 498,787.41242 498,784.39328 c 0,-1.43603 7.87205,-4.16796 13.12416,-4.55463 2.87449,-0.21162 4.38187,0.39847 7.28723,2.9494 11.25935,9.88585 26.21783,7.61388 32.66729,-4.96167 1.61899,-3.15682 2.69558,-3.8986 7.65268,-5.27285 3.17275,-0.87957 8.83209,-2.76388 12.5763,-4.18736 l 6.80765,-2.58815 8.19235,3.02805 c 30.05669,11.10955 54.83631,10.83074 82.35522,-0.92663 5.37994,-2.29857 11.14418,-5.01008 12.80941,-6.02559 2.42911,-1.48133 5.08009,-1.84711 13.40855,-1.85011 l 10.38084,-0.004 -0.61983,3.75 c -0.34091,2.0625 -0.62479,6.0823 -0.63084,8.93288 l -0.011,5.18288 -8.48554,5.12551 C 680.9647,791.77974 665.43169,798.08203 650,801.45808 c -10.20462,2.23251 -31.42684,2.82113 -41.5,1.15104 z m 260.69382,-1.78186 c -4.56839,-0.3873 -11.76839,-1.45592 -16,-2.3747 -4.2316,-0.91879 -8.59382,-1.80898 -9.69382,-1.97821 -1.1,-0.16922 -2,-0.37862 -2,-0.46533 0,-0.0867 -1.04204,-0.35089 -2.31565,-0.58707 -4.65123,-0.86257 -19.91856,-7.74778 -28.93435,-13.04872 L 801,776.93457 v -4.84228 c 0,-2.66326 -0.28636,-6.2741 -0.63636,-8.02409 l -0.63636,-3.18181 7.38636,0.18366 c 8.17308,0.20321 8.67045,0.34885 27.88636,8.16597 18.65609,7.58938 30.19295,10.12957 46,10.12832 17.32442,-10e-4 32.06597,-3.70583 46,-11.5595 12.69325,-7.15433 19.14571,-14.06091 20.38667,-21.8215 0.80511,-5.03488 3.05346,-5.10614 5.92592,-0.1878 1.71463,2.93584 1.76024,3.47236 0.42474,4.99673 C 950.84368,754.09513 949,758.94501 949,763.254 c 0,5.60969 4.06587,13.8304 8.74999,17.69145 2.97718,2.45404 3.69214,3.82286 4.30837,8.24843 0.40636,2.91837 1.05825,6.54362 1.44865,8.05612 0.6076,2.35402 0.40663,2.75 -1.39572,2.75 -2.50159,0 -9.64419,-6.19606 -11.67932,-10.13155 l -1.43855,-2.78185 -6.74671,3.04211 c -18.03683,8.13285 -49.30422,12.71194 -73.05289,10.69855 z m 124.03897,-4.21569 c -0.59854,-1.31364 -1.62761,-5.12999 -2.28684,-8.48079 l -1.1986,-6.09235 2.97782,-2.7817 c 10.82733,-10.11427 8.91613,-26.8076 -3.81262,-33.30135 -3.10894,-1.58606 -4.04081,-2.76218 -4.91728,-6.20615 -0.59477,-2.33707 -2.44798,-8.21646 -4.11823,-13.0653 l -3.03682,-8.81607 2.62537,-6.55807 c 6.6655,-16.6501 9.57874,-37.07965 7.59781,-53.28077 -1.39664,-11.42254 -7.8559,-31.64142 -12.65378,-39.60909 C 971.1167,612.95149 971,612.40481 971,602.44707 v -10.31063 l 2.75,0.36288 c 1.5125,0.19958 5.54094,0.39389 8.9521,0.43178 l 6.20209,0.0689 3.72304,6.25 c 5.38157,9.03422 15.03137,28.09166 15.08677,29.7949 0.026,0.8003 1.1848,5.3009 2.5752,10.00132 7.7295,26.13178 4.9518,57.21268 -7.9199,88.62 l -3.34681,8.16623 3.41161,5.06963 c 5.8961,8.76159 7.9171,15.35773 7.9961,26.09792 0.066,8.9781 -0.1317,9.9121 -3.5982,17.00129 C 1003.6272,790.55543 996.96209,799 994.99385,799 c -0.37005,0 -1.16253,-1.07479 -1.76106,-2.38843 z M 529.03892,778.72513 c -2.96507,-1.50042 -3.78171,-4.84952 -4.1695,-17.09929 -0.261,-8.24471 -0.11661,-9.00726 2.03561,-10.75002 2.66061,-2.15443 8.87482,-2.49548 11.40293,-0.62582 1.26369,0.93456 1.95999,3.94732 2.75919,11.93857 1.19604,11.95915 0.73157,13.82991 -4.04713,16.30108 -3.5236,1.82212 -4.77281,1.85898 -7.9811,0.23548 z m 432.48676,-9.67547 c -1.97898,-3.82692 -1.95487,-9.44858 0.0477,-11.11052 0.87661,-0.72752 6.40432,-1.74301 12.48262,-2.29317 9.86848,-0.89321 11.09564,-0.81876 12.86268,0.78039 3.00671,2.72104 3.99608,6.60266 2.70279,10.60402 -1.00369,3.10538 -1.59382,3.54057 -5.62142,4.1455 -2.475,0.37173 -8.20094,0.70923 -12.72432,0.75 -8.12594,0.0732 -8.24257,0.0388 -9.75,-2.87622 z M 551,758.19927 v -5.80074 l 4.46265,-2.16812 c 10.18123,-4.94643 17.27455,-14.69754 16.2497,-22.33831 -0.84504,-6.30029 -1.48744,-6.63359 -10.77811,-5.59207 -13.91086,1.55946 -13.85187,0.93232 1.19398,-12.69443 C 579.52355,693.85095 612.46588,669 615.95484,669 616.52968,669 617,668.55 617,668 c 0,-0.55 0.49303,-1 1.09563,-1 0.6026,0 2.2901,-0.82828 3.75,-1.84063 4.35817,-3.02209 18.33226,-10.31481 18.82355,-9.82353 1.20656,1.20657 -14.79733,29.839 -24.32906,43.52691 -6.67372,9.58371 -35.86576,44.73929 -43.30357,52.14991 C 566.8467,757.17988 556.12,764 552.61002,764 551.31503,764 551,762.86498 551,758.19927 Z m 355.3798,-4.5285 C 866.10601,707.82381 832.97175,670.92224 825.41462,663.5 c -2.79997,-2.75 -8.40532,-8.6 -12.45632,-13 -4.051,-4.4 -14.83478,-15.875 -23.96395,-25.5 -9.12918,-9.625 -18.81889,-19.91033 -21.5327,-22.8563 l -4.93419,-5.3563 4.98627,-4.10245 c 2.74245,-2.25634 6.84059,-6.03351 9.10698,-8.3937 C 778.8871,581.93106 781.17548,580 781.706,580 c 1.1386,0 20.03845,19.2844 32.83199,33.5 16.20438,18.00558 21.99868,25.58814 68.39247,89.5 6.58757,9.075 18.31952,25.17085 26.07102,35.76856 7.75149,10.5977 13.84866,19.66491 13.54926,20.14934 -0.29939,0.48443 -2.06238,1.77644 -3.91774,2.87113 l -3.3734,1.99035 z M 591.25,760.33772 c -2.3375,-0.82741 -4.25,-1.91474 -4.25,-2.41627 0,-0.98584 2.96718,-5.20672 37.72164,-53.65986 4.8281,-6.73113 13.05336,-18.35643 18.27836,-25.83401 31.53449,-45.1295 43.79821,-59.16297 103.12085,-118.00201 72.23994,-71.65102 79.53897,-78.50649 99.39231,-93.35218 13.3544,-9.986 25.68141,-16.99621 38.84167,-22.08876 9.72763,-3.76425 10.91968,-4.86706 20.19279,-18.68117 1.91858,-2.8581 4.0657,-5.7831 4.77138,-6.5 1.36357,-1.38525 10.89291,-14.64175 19.181,-26.68314 11.49893,-16.7063 32.8184,-44.66147 46.99352,-61.62032 10.06085,-12.03661 26.36078,-28.979 27.13518,-28.20464 0.4411,0.44114 -12.91324,24.53538 -41.12839,74.20464 -5.6238,9.9 -11.46902,20.46003 -12.98937,23.46673 -1.52036,3.0067 -7.37307,13.5817 -13.00602,23.5 -5.63296,9.9183 -12.1539,21.63327 -14.49099,26.03327 -4.80793,9.05182 -7.20617,12.01674 -11.51393,14.23455 -1.65,0.84948 -3.225,1.83439 -3.5,2.18869 -0.275,0.35429 -6.35,4.42264 -13.5,9.04077 -12.16115,7.85479 -29.60128,20.05851 -32.11034,22.46919 -0.61069,0.58674 -6.46069,5.18796 -13,10.22494 -23.8126,18.34191 -49.99664,41.08352 -70.87116,61.5537 C 771.02868,575.59533 766.24844,580 765.89574,580 c -1.80592,0 -59.56613,61.26793 -101.34541,107.5 -45.53856,50.39202 -67.70713,74.50804 -68.41129,74.42105 -0.35147,-0.0434 -2.55154,-0.75592 -4.88904,-1.58333 z M 497,750.55953 c 0,-2.98644 5.3719,-10.3018 9.10226,-12.3953 3.36497,-1.88844 3.46118,-1.15328 -1.85354,-14.16423 -2.13431,-5.225 -5.19766,-15.125 -6.80743,-22 -2.74856,-11.7385 -2.9263,-13.77933 -2.91756,-33.5 0.007,-16.69776 0.36321,-22.33165 1.73674,-27.5 0.95008,-3.575 1.9217,-7.625 2.15916,-9 0.23746,-1.375 0.5165,-2.5 0.62008,-2.5 0.10358,0 0.33737,-1.26756 0.51953,-2.81681 0.37301,-3.17235 12.37978,-28.01633 15.14592,-31.33939 1.50309,-1.80571 3.29843,-2.26998 11.04484,-2.85616 l 9.25,-0.69996 v 7.38365 c 0,4.9535 -0.495,8.09038 -1.50399,9.53091 -2.57933,3.6825 -9.56072,21.31903 -12.78501,32.29776 -2.94064,10.01284 -3.08392,11.33512 -3.08836,28.5 l -0.005,18 3.72375,10.97715 c 3.95314,11.65338 7.55122,18.75605 13.757,27.15649 4.70812,6.37316 8.91523,9.46156 13.72371,10.07447 4.07448,0.51935 6.78216,2.50462 5.73247,4.20304 -0.37495,0.60669 -1.99881,1.78416 -3.60857,2.6166 -2.75978,1.42714 -3.15164,1.36476 -6.86509,-1.09268 -8.12676,-5.37803 -18.15744,-3.83051 -26.693,4.11817 -3.04874,2.83912 -5.69936,4.45105 -7.33166,4.45863 -1.40612,0.007 -4.91909,0.6408 -7.80659,1.40949 -5.19666,1.38342 -5.25,1.37466 -5.25,-0.86183 z M 920.20361,734.25 c -21.14931,-24.26875 -27.82872,-32.88166 -37.7964,-48.73742 -8.40914,-13.37656 -17.27822,-28.87523 -16.81929,-29.39164 0.40834,-0.45949 18.43226,7.95436 20.07944,9.37339 0.64204,0.55312 4.94731,3.16919 9.56725,5.8135 12.95507,7.41506 50.55223,36.8443 66.55964,52.09966 5.323,5.07292 11.96011,15.11433 12.8148,19.38774 L 975.25,746 h -5.92573 -5.92574 l -2.08031,-4.2819 C 956.75896,732.33377 947.64898,725 940.55106,725 c -4.59085,0 -8.74693,2.326 -7.93529,4.44109 0.78934,2.057 0.9915,18.56037 0.22734,18.55959 -0.36129,-3.8e-4 -6.04907,-6.18818 -12.6395,-13.75068 z M 535.53716,708.74368 c -1.07956,-1.78403 -1.97956,-3.55652 -2,-3.93888 -0.0204,-0.38235 5.68087,-5.78235 12.66957,-12 C 611.88478,634.37295 637.51612,611.08178 671.5,578.95096 717.14825,535.79179 757.81593,492.37577 782.24054,460.72654 786.5812,455.10194 792.43897,447.575 795.2578,444 c 7.81312,-9.90905 21.61224,-30.97114 30.08487,-45.91964 l 7.60609,-13.41963 23.27562,-13.6953 C 869.02597,363.43302 885.125,353.99801 892,349.99875 c 16.45732,-9.57339 26.4824,-15.50651 37.78888,-22.36452 5.10888,-3.09883 9.50533,-5.63423 9.76987,-5.63423 0.26455,0 2.27942,-1.1353 4.47751,-2.52289 8.66033,-5.46702 49.1836,-27.59059 49.66158,-27.1126 0.91855,0.91855 -24.97687,26.03429 -35.54245,34.47231 -5.68953,4.54385 -11.31453,9.1936 -12.5,10.33277 -1.18546,1.13918 -3.29956,2.80454 -4.69799,3.70082 -1.39842,0.89627 -7.24842,5.03666 -13,9.20086 -5.75157,4.1642 -15.33655,10.9142 -21.29997,15 -5.96341,4.0858 -19.91341,14.00611 -31,22.04513 L 855.5,401.7328 l -3.25394,8.3836 c -4.60614,11.86744 -12.83467,27.95473 -19.10531,37.35208 -10.33833,15.49328 -20.75435,27.2715 -48.66692,55.03152 -15.48463,15.4 -38.45367,38.71736 -51.04231,51.81636 -22.37798,23.28521 -47.42088,47.24329 -62.43152,59.72709 -4.125,3.43061 -9.3,7.87971 -11.5,9.88688 -2.2,2.00717 -13.9,10.73774 -26,19.40127 -12.1,8.66354 -24.52784,17.6456 -27.61742,19.96014 -3.08958,2.31454 -13.83411,10.05826 -23.87674,17.20826 -10.04262,7.15 -20.11073,14.51753 -22.37356,16.37229 -5.69647,4.66918 -20.49504,15.12908 -21.3936,15.12139 -0.40627,-0.003 -1.62196,-1.46598 -2.70152,-3.25 z M 954.5,700.40903 c -18.47727,-13.52088 -33.73073,-24.42209 -51,-36.44823 -8.25,-5.74522 -15.675,-11.00383 -16.5,-11.68581 -0.825,-0.68198 -9.23047,-6.76034 -18.67881,-13.50747 C 844.27351,621.59489 837.76043,615.95464 802.19158,581.5 l -11.35572,-11 7.33207,-6.79836 c 4.03264,-3.7391 8.78741,-7.94955 10.56615,-9.35655 l 3.23409,-2.55819 17.78265,16.85655 c 25.12994,23.82119 53.39659,50.06384 75.11445,69.73596 56.59558,51.26449 68.1894,62.03909 67.82199,63.02969 -0.22254,0.6 -1.00861,2.7784 -1.74682,4.8409 -0.73822,2.0625 -1.81432,3.73242 -2.39133,3.71094 C 967.9721,709.93946 961.65,705.6411 954.5,700.40903 Z M 694.5,533.3782 C 673.78413,514.60063 635.5798,486.95127 611,472.94732 605.775,469.97045 600.90536,466.9645 600.17857,466.26742 599.45179,465.57034 598.23719,465 597.47946,465 c -1.91213,0 -5.24545,-4.73099 -11.9777,-17 -3.16886,-5.775 -10.67952,-18.825 -16.69037,-29 -6.01084,-10.175 -11.42975,-19.4 -12.04201,-20.5 -0.61227,-1.1 -8.39486,-14.375 -17.29463,-29.5 -18.90841,-32.13447 -29.47371,-50.68038 -29.47732,-51.74332 -0.001,-0.41617 -1.59614,-3.39946 -3.54383,-6.62952 -1.94769,-3.23006 -3.37823,-6.03587 -3.17897,-6.23513 0.71166,-0.71165 14.33389,11.56446 20.27889,18.27497 16.74387,18.89988 38.28843,47.06677 56.44648,73.79687 6.80241,10.01371 9.22246,13.38771 23.69235,33.03172 l 8.83603,11.99559 9.98581,4.08117 c 31.05662,12.69275 49.9096,25.83499 79.88223,55.68517 l 16.89642,16.82739 -2.45305,2.70754 c -1.34918,1.48915 -5.28641,5.97005 -8.7494,9.95755 -3.463,3.9875 -6.81252,7.22983 -7.44337,7.20519 C 700.01616,537.93054 697.25,535.8709 694.5,533.3782 Z M 714.35127,492.75 C 693.72402,471.93706 681.07454,457.34373 672.49863,444.46587 665.24595,433.57501 656.68256,417.02192 653.89246,408.5 c -1.80526,-5.51391 -2.01907,-5.73882 -12.28614,-12.92426 -5.00848,-3.5052 -13.92095,-9.90618 -19.8055,-14.22441 -5.88455,-4.31823 -19.15955,-13.82583 -29.5,-21.12799 -21.05881,-14.8712 -26.4284,-18.9712 -45.47558,-34.72334 -13.69958,-11.32964 -34.19484,-30.46373 -33.43972,-31.21886 0.2344,-0.23439 3.10123,1.06897 6.37075,2.89635 3.26952,1.82738 9.94939,5.52655 14.84415,8.22038 28.32669,15.58957 46.03459,25.55379 54.69993,30.77961 5.3902,3.25067 10.86762,6.31608 12.17205,6.81203 1.30444,0.49594 10.61928,5.58161 20.69965,11.30149 10.08037,5.71988 25.43528,14.39223 34.12202,19.2719 l 15.79407,8.87213 12.6428,19.03248 c 6.95354,10.46787 16.91719,24.88249 22.14143,32.03249 8.64959,11.838 24.5596,32.27843 26.07505,33.5 C 735.15729,468.78132 748,484.21313 748,485.08718 748,486.31508 730.22203,507 729.16669,507 c -0.38091,0 -7.04785,-6.4125 -14.81542,-14.25 z M 229.30987,271.5 c 0.006,-3.3 0.1923,-4.52944 0.41486,-2.73209 0.22256,1.79735 0.21797,4.49735 -0.0102,6 -0.22818,1.50265 -0.41027,0.0321 -0.40466,-3.26791 z"
         id="path18" />
      <path
         style="fill:#000000"
         d="m 746.5,1412.3132 c -41.03263,-9.331 -62.68596,-16.5936 -92.5,-31.025 -61.00572,-29.5295 -124.17873,-72.7834 -176.49892,-120.8469 -32.04111,-29.4342 -73.79887,-74.1114 -93.0354,-99.5397 -27.30251,-36.0905 -40.63474,-55.3014 -55.42188,-79.8595 -5.53252,-9.1882 -24.31414,-42.9176 -28.8975,-51.8961 -3.08632,-6.046 -17.9065,-38.56362 -20.34776,-44.646 -9.16884,-22.84409 -17.51484,-46.71293 -22.72796,-65 -1.72469,-6.05 -3.7834,-13.25 -4.57492,-16 -0.79153,-2.75 -2.34983,-9.4272 -3.4629,-14.83821 -1.11307,-5.41102 -2.24539,-10.19682 -2.51628,-10.63512 -0.70703,-1.144 -5.38933,-29.47654 -7.11068,-43.02667 -2.32446,-18.29758 -3.44327,-75.60148 -6.97014,-357 -0.83754,-66.825 -1.97273,-155.85514 -2.52264,-197.84476 -1.10274,-84.2017 -1.20677,-82.30827 4.99242,-90.866 4.43893,-6.12777 8.51609,-8.77696 25.81121,-16.77119 43.04665,-19.89722 84.35063,-34.84042 143.78335,-52.01881 10.36153,-2.99488 50.95423,-13.10339 60,-14.94137 18.63581,-3.78654 27.58475,-5.632819 34,-7.014649 3.85,-0.82928 11.725,-2.222118 17.5,-3.095195 5.775,-0.873078 12.075,-1.98459 14,-2.470027 1.925,-0.485437 9.125,-1.585358 16,-2.444269 6.875,-0.85891 14.525,-2.003561 17,-2.543668 3.936,-0.858934 23.28401,-3.166508 51,-6.082605 8.35755,-0.879327 32.9702,-2.846859 64.5,-5.156122 20.41665,-1.495328 163.9529,-1.488233 181,0.0089 6.6,0.579652 22.0036,1.781889 34.23021,2.671639 12.22662,0.889749 25.72662,2.011313 30,2.492363 4.27339,0.48105 16.54479,1.809673 27.26979,2.952497 10.725,1.142823 20.85,2.346512 22.5,2.674865 1.65,0.328352 10.65,1.670712 20,2.983021 34.3349,4.819044 74.2022,12.06563 101.5,18.44947 34.2809,8.01689 37.4566,8.82051 60,15.18327 46.41,13.09899 96.4739,31.32246 107.0026,38.94941 5.1798,3.75226 9.5937,10.66799 11.0167,17.26097 0.7401,3.42908 0.9785,17.84825 0.7213,43.62221 -0.4405,44.14886 -3.2494,262.05222 -4.7888,371.5 -0.5724,40.7 -1.4572,107.075 -1.9662,147.5 -0.6433,51.08922 -1.3728,77.92118 -2.3926,88 -1.9111,18.88762 -5.3198,43.05626 -7.0518,50 -0.7546,3.025 -1.6683,7.525 -2.0305,10 -0.3621,2.475 -2.2349,11.025 -4.1616,19 -21.3804,88.49725 -62.5146,171.45035 -123.2245,248.50005 -41.0287,52.0714 -96.9145,105.7517 -152.6246,146.6011 -14.3811,10.545 -41.74547,28.9958 -53.74951,36.2414 -12.41366,7.4928 -35.89928,21.1043 -40.25049,23.3278 -2.2,1.1242 -8.275,4.296 -13.5,7.0485 -10.9124,5.7485 -52.6336,25.0096 -64.5,29.7773 -11.28932,4.5358 -22.85447,8.2611 -31.00854,9.9882 -6.52705,1.3826 -21.46216,1.8589 -25.99146,0.8289 z m 34,-18.333 c 13.76307,-4.4465 25.42093,-9.2233 44.5,-18.234 5.225,-2.4677 11.75,-5.4897 14.5,-6.7155 12.83315,-5.7206 35.90113,-17.7276 51.5,-26.806 66.57023,-38.7433 121.1177,-80.9627 173.5867,-134.355 45.2072,-46.0027 82.9262,-96.0904 112.4343,-149.3035 9.0549,-16.3291 19.8758,-37.8123 24.9661,-49.5662 1.7864,-4.125 4.0951,-9.38781 5.1305,-11.69514 1.0353,-2.30732 1.8824,-4.44973 1.8824,-4.76089 0,-0.31117 0.8876,-2.47336 1.9724,-4.80487 2.1488,-4.61809 9.285,-24.38108 14.5298,-40.2391 5.776,-17.46377 12.6027,-43.79543 15.037,-58 0.8484,-4.95 1.9667,-10.35 2.4852,-12 1.1859,-3.77357 4.7299,-29.58802 6.5899,-48 0.9605,-9.50807 1.7371,-39.02647 2.4206,-92 0.5535,-42.9 1.249,-86.325 1.5455,-96.5 0.7906,-27.13498 4.784,-371.62123 4.8571,-419 l 0.062,-40.5 -2.3018,-3.22705 c -2.2878,-3.20757 -13.7863,-9.41749 -22.6982,-12.25846 -2.2,-0.70132 -4.45,-1.60785 -5,-2.01449 -0.55,-0.40664 -2.8,-1.30114 -5,-1.98776 -2.2,-0.68663 -5.35,-1.84153 -7,-2.56645 -3.7116,-1.63068 -35.9689,-12.3494 -47.5,-15.78369 -33.3627,-9.9364 -66.2202,-18.30041 -89,-22.65533 -5.775,-1.10403 -11.175,-2.2707 -12,-2.59259 -3.5019,-1.36635 -52.1361,-9.66935 -75,-12.80427 -9.625,-1.3197 -18.175,-2.65503 -19,-2.96739 -0.825,-0.31237 -9.15,-1.27716 -18.5,-2.144 -9.35,-0.86683 -19.25,-2.004552 -22,-2.528268 -2.75,-0.523716 -17.6,-1.881658 -33,-3.017649 -15.4,-1.135991 -34.075,-2.577705 -41.5,-3.203809 -18.31808,-1.544648 -164.65256,-1.546357 -183,-0.0021 -7.425,0.624928 -22.725,1.849941 -34,2.722251 -11.275,0.872309 -24.1,2.002607 -28.5,2.511772 -4.4,0.509164 -16.55,1.847103 -27,2.973197 -10.45,1.126096 -21.025,2.520976 -23.5,3.099736 -2.475,0.57875 -10.8,1.92198 -18.5,2.98495 -41.67136,5.75264 -98.53732,17.94439 -142,30.44401 -4.95,1.4236 -11.475,3.27788 -14.5,4.12063 -8.20628,2.28624 -53.01835,17.27254 -56.65113,18.94558 -1.73312,0.79817 -3.43031,1.45122 -3.77153,1.45122 -0.79084,0 -18.05782,6.647 -22.22847,8.55694 -1.73312,0.79368 -3.383,1.44306 -3.66639,1.44306 -0.67784,0 -27.6302,11.43397 -34.68248,14.71331 -14.67922,6.8259 -18.32327,8.93155 -20.33323,11.7492 L 244.5,200.5 244.72108,262 c 0.1216,33.825 0.68615,82.875 1.25457,109 0.56842,26.125 1.69002,113.425 2.49245,194 0.80243,80.575 1.72856,153.25 2.05807,161.5 0.32951,8.25 1.01458,33.225 1.52238,55.5 0.94635,41.51207 1.74458,51.24004 6.40032,78 3.39929,19.53827 9.51486,45.67966 14.03652,60 4.59104,14.54008 8.72778,26.78466 9.96635,29.5 0.75263,1.65 1.90288,5.025 2.55611,7.5 0.65323,2.475 1.52992,4.95 1.9482,5.5 0.41828,0.55 1.46738,3.025 2.33134,5.5 6.32575,18.12154 22.11705,51.3737 37.99163,80 20.6551,37.2469 34.56429,58.1351 69.18666,103.9016 19.01507,25.1356 58.82833,67.8167 90.05297,96.5397 50.79747,46.7278 113.50253,89.9784 170.98135,117.9338 6.6,3.21 13.575,6.6371 15.5,7.6159 1.925,0.9787 4.625,2.1089 6,2.5116 1.375,0.4026 4.85052,1.7927 7.72337,3.089 2.87286,1.2963 6.47286,2.6556 8,3.0206 1.52715,0.3649 3.22663,0.9904 3.77663,1.3899 1.42552,1.0354 19.82464,6.2721 34.5,9.8192 6.875,1.6618 13.4,3.2592 14.5,3.5499 1.1,0.2907 6.725,0.3736 12.5,0.1842 8.47083,-0.2779 12.43254,-0.9688 20.5,-3.5752 z"
         id="path16" />
    </g>
  </g>
</svg>
