<?xml version="1.0" encoding="UTF-8" standalone="no"?>
<svg
   xmlns:dc="http://purl.org/dc/elements/1.1/"
   xmlns:cc="http://creativecommons.org/ns#"
   xmlns:rdf="http://www.w3.org/1999/02/22-rdf-syntax-ns#"
   xmlns:svg="http://www.w3.org/2000/svg"
   xmlns="http://www.w3.org/2000/svg"
   xmlns:sodipodi="http://sodipodi.sourceforge.net/DTD/sodipodi-0.dtd"
   xmlns:inkscape="http://www.inkscape.org/namespaces/inkscape"
   version="1.1"
   id="svg2"
   width="1043.9584"
   height="1045.8192"
   viewBox="0 0 1043.9584 1045.8192"
   sodipodi:docname="Rodorn.svg"
   inkscape:version="1.0.1 (3bc2e813f5, 2020-09-07)">
  <metadata
     id="metadata8">
    <rdf:RDF>
      <cc:Work
         rdf:about="">
        <dc:format>image/svg+xml</dc:format>
        <dc:type
           rdf:resource="http://purl.org/dc/dcmitype/StillImage" />
        <dc:title></dc:title>
      </cc:Work>
    </rdf:RDF>
  </metadata>
  <defs
     id="defs6" />
  <sodipodi:namedview
     pagecolor="#ffffff"
     bordercolor="#666666"
     borderopacity="1"
     objecttolerance="10"
     gridtolerance="10"
     guidetolerance="10"
     inkscape:pageopacity="0"
     inkscape:pageshadow="2"
     inkscape:window-width="1920"
     inkscape:window-height="1057"
     id="namedview4"
     showgrid="false"
     inkscape:pagecheckerboard="true"
     inkscape:zoom="0.49"
     inkscape:cx="519.95843"
     inkscape:cy="511.95843"
     inkscape:window-x="-8"
     inkscape:window-y="-8"
     inkscape:window-maximized="1"
     inkscape:current-layer="g10" />
  <g
     inkscape:groupmode="layer"
     inkscape:label="Image"
     id="g10"
     transform="translate(-230.04157,-238.04157)">
    <g
       id="g14">
      <path
         style="fill:#daa867"
         d="m 712.5,1257.4775 c -63.69566,-5.8501 -120.99519,-21.6749 -177,-48.8831 -23.01618,-11.1817 -36.09775,-18.6152 -56.5,-32.1058 C 421.80325,1138.6684 375.3316,1092.1968 337.51137,1035 324.02079,1014.5977 316.58726,1001.5162 305.40556,978.5 248.52787,861.42415 239.4053,728.73467 279.82145,606.37441 300.7723,542.94553 332.56252,486.70577 376.49417,435.35168 404.95432,402.08308 440.31713,371.08966 479,345.51137 c 20.40225,-13.49058 33.48382,-20.92411 56.5,-32.10581 117.07585,-56.87769 249.76533,-66.00026 372.12559,-25.58411 63.42888,20.95085 119.66861,52.74107 171.02271,96.67272 40.368,34.53345 79.2126,81.62984 106.4025,129.00583 26.5342,46.23346 47.8063,104.09186 57.4367,156.22268 6.0088,32.52683 6.5125,39.58669 6.5125,91.27732 0,51.69063 -0.5037,58.75049 -6.5125,91.27732 -9.6304,52.13082 -30.9025,109.98922 -57.4367,156.22268 -38.5415,67.1552 -92.8437,124.8717 -158.0508,167.9886 -20.4023,13.4906 -33.48382,20.9241 -56.5,32.1058 -56.69121,27.5417 -113.86829,43.2385 -178.15875,48.9099 -20.32231,1.7927 -60.17563,1.7793 -79.84125,-0.027 z m 76.84125,-9.9732 c 73.3912,-6.4742 144.57229,-28.2486 204.15875,-62.4524 85.574,-49.1212 155.8012,-124.1215 198.0885,-211.5519 23.1866,-47.9392 38.1421,-98.26488 45.4278,-152.86637 C 1238.7436,807.68852 1239,799.98171 1239,761 c 0,-38.98171 -0.2564,-46.68852 -1.9837,-59.63363 C 1229.7306,646.76488 1214.7751,596.4392 1191.5885,548.5 1144.3989,450.93388 1063.0661,369.60108 965.5,322.41152 877.51565,279.85635 779.61511,264.32336 685.78415,278.03153 545.09696,298.58514 423.8344,375.54954 345.51137,494 321.48385,530.33761 303.88421,566.79928 289.82145,609.37441 253.68775,718.76952 257.33604,832.81725 300.46186,942 c 43.71126,110.6649 131.87285,205.2724 240.03814,257.5885 77.40844,37.4399 168.58189,54.9959 248.84125,47.9158 z m -102.64401,-149.373 c -11.04685,-28.569 -14.74567,-48.5963 -11.79303,-63.8536 l 0.81712,-4.2223 -17.11067,0.2223 c -22.85615,0.297 -31.17041,-1.8049 -38.99008,-9.8565 -6.47335,-6.6654 -9.04974,-20.0996 -6.31751,-32.94178 3.68883,-17.33845 10.7003,-21.66266 48.69693,-30.03303 15.52926,-3.42098 34.35452,-8.59963 43.61191,-11.99721 l 4.1119,-1.50912 -5.44313,-8.22003 c -6.69809,-10.11524 -14.46945,-25.96256 -18.40187,-37.52504 -2.82279,-8.29983 -7.01401,-26.54471 -8.32549,-36.24181 l -0.61493,-4.54683 -5.71919,0.9206 c -5.55725,0.89454 -9.70639,0.0495 -18.36425,-3.7403 -1.38512,-0.6063 -1.96747,0.68025 -3.68557,8.14233 -4.87338,21.16613 -5.25123,40.31188 -1.15889,58.72036 1.09423,4.92214 1.98951,9.14533 1.98951,9.38486 0,0.23954 -0.84124,-0.63767 -1.86943,-1.94934 -4.01046,-5.11619 -11.24191,-21.2993 -14.76974,-33.05289 L 629.6594,883.5 629.5797,862.75035 629.5,842.00069 l -4,-0.033 c -2.2,-0.0181 -6.475,-0.95771 -9.5,-2.08792 -9.16447,-3.42405 -10.55417,-3.35019 -29.31576,1.558 -20.60475,5.39039 -44.88262,14.00282 -66.63921,23.63986 -8.50023,3.76517 -15.59218,6.70855 -15.75988,6.54085 -0.47214,-0.47215 21.25671,-15.84595 30.28756,-21.42933 15.0314,-9.29327 33.39068,-17.78068 49.64291,-22.94969 l 8.61333,-2.73947 -6.84033,-8.48066 c -6.70048,-8.30728 -6.97984,-8.51849 -13.66447,-10.33086 C 568.57087,804.67087 561,803.52487 555.5,803.14182 l -10,-0.69647 8.44816,-2.76897 c 4.64649,-1.52293 10.38399,-3.0343 12.75,-3.3586 C 569.06417,795.99349 571,795.544 571,795.31892 c 0,-1.56436 -16.10471,-23.91983 -23.85061,-33.1078 l -4.45878,-5.28889 -2.95031,2.78889 c -3.69424,3.49211 -9.74394,12.44655 -12.18722,18.03888 -1.02126,2.3375 -2.26318,4.25 -2.75982,4.25 -0.49665,0 -3.4664,-1.74078 -6.59946,-3.86839 -15.87822,-10.7827 -24.91467,-27.53949 -25.45065,-47.1946 l -0.24315,-8.91635 -6.20078,-0.0103 c -11.15217,-0.0186 -21.33787,-2.98099 -40.00138,-11.634 -14.50179,-6.7235 -21.27152,-8.50961 -34.54784,-9.11504 -6.4625,-0.29471 -11.75,-0.74857 -11.75,-1.00858 0,-1.808 7.19462,-13.3651 10.85369,-17.43487 11.70898,-13.02321 27.04554,-18.47213 54.88039,-19.49845 l 16.23407,-0.59857 -5.73407,-6.19068 c -11.3639,-12.2688 -16.26965,-23.95332 -20.64716,-49.1774 -2.39481,-13.79932 -5.28457,-26.35113 -7.00956,-30.44625 -0.5969,-1.41703 1.63196,-1.66484 20.1257,-2.2376 18.74701,-0.58061 32.41597,0.0184 42.29694,1.85369 12.54575,2.33019 28.17671,10.5202 37.84637,19.83001 l 5.34637,5.14741 -0.44716,-7.5 c -0.88137,-14.78269 3.56278,-30.85519 12.40135,-44.85007 2.27506,-3.6023 9.89827,-14.15729 16.94047,-23.45553 7.0422,-9.29823 14.27506,-19.74314 16.073,-23.2109 l 3.269,-6.30502 5.27853,9.94285 c 2.9032,5.46857 8.67725,15.21591 12.83124,21.66076 15.70449,24.36531 22.05593,40.64549 23.16863,59.38648 l 0.57405,9.66858 4.18725,-5.66858 c 9.83082,-13.30868 22.47589,-24.5982 34.03945,-30.3904 C 691.50514,556.27177 707.37923,552 715.12863,552 h 2.76131 l -2.32421,5.25547 c -3.60107,8.14265 -7.24393,20.40784 -12.69547,42.74453 -5.91924,24.25301 -9.87365,34.56209 -16.88577,44.02092 -2.84559,3.83849 -5.46871,6.99781 -5.82915,7.02071 -0.36044,0.0229 -2.41184,1.59273 -4.55867,3.48852 l -3.90333,3.44689 3.18375,6.90722 c 5.76661,12.51082 7.66792,29.57982 5.00086,44.89518 -0.99416,5.70892 -0.86632,7.42783 1.1217,15.08191 1.23406,4.75126 2.59536,9.02254 3.02512,9.49173 0.42977,0.46919 3.58265,-1.04922 7.00642,-3.37426 7.54893,-5.12638 18.31363,-10.17087 26.6399,-12.48382 7.77195,-2.15897 9.48404,-1.63722 5.03306,1.5338 -10.72637,7.64182 -21.3289,20.29146 -27.80719,33.17614 l -4.0109,7.97729 1.55697,12.00063 c 0.85633,6.60034 1.55697,12.45421 1.55697,13.0086 0,0.6423 4.54952,0.8811 12.54077,0.65825 12.46516,-0.3476 12.54368,-0.36478 13.02382,-2.84971 2.76018,-14.28521 9.87815,-31.02738 18.48399,-43.47618 6.10882,-8.83672 19.78632,-22.77238 29.76124,-30.32297 l 7.30982,-5.53322 -0.80982,-4.08382 c -1.02314,-5.15955 -0.73347,-14.33932 0.55982,-17.74093 1.12603,-2.96168 2.57069,-2.49322 -16.86964,-5.47033 -19.54143,-2.99261 -39.7032,-0.84382 -53.59787,5.71232 -2.69617,1.27218 -5.35213,2.50382 -5.90213,2.73698 -0.55,0.23316 1.025,-1.68983 3.5,-4.27332 9.13528,-9.5357 20.00449,-15.89263 33.63834,-19.6736 6.32111,-1.75298 10.74276,-2.19929 22.56437,-2.27757 l 14.7027,-0.0974 0.61671,-5.5 c 0.33919,-3.025 0.94825,-7.3 1.35347,-9.5 0.57626,-3.12865 0.23344,-5.15198 -1.57374,-9.28828 -2.28194,-5.22294 -12.59318,-20.76411 -14.19127,-21.38919 -0.45352,-0.17739 -3.25143,-2.52619 -6.21758,-5.21956 l -5.393,-4.89703 3.94321,0.72859 c 6.03074,1.1143 15.93489,5.36393 22.71646,9.74707 3.36038,2.17192 6.43225,3.58207 6.82637,3.13367 0.39412,-0.4484 1.48665,-3.64516 2.42785,-7.10391 1.47561,-5.42263 1.54968,-7.35056 0.53785,-14 -1.87386,-12.31447 0.13519,-25.86491 5.29491,-35.71258 1.41541,-2.70141 1.32977,-2.85339 -5.39948,-9.58265 -9.52355,-9.52354 -11.73858,-14.65889 -18.80864,-43.60621 -2.17484,-8.90454 -5.50298,-20.31324 -7.39586,-25.35266 l -3.4416,-9.16259 5.64946,0.70206 c 7.68936,0.95556 19.5521,4.85095 25.86105,8.49206 6.65448,3.84052 17.40896,13.86781 22.80131,21.25951 l 4.19346,5.74831 0.57585,-9.24831 c 0.97387,-15.64054 4.15399,-23.50399 19.34745,-47.8402 3.98035,-6.37554 8.46929,-14.10449 9.97543,-17.17544 l 2.73842,-5.58355 4.12745,6.69452 c 2.27009,3.68199 8.71794,12.7444 14.32854,20.13871 15.99022,21.07374 21.9502,35.76245 20.52279,50.5795 l -0.57206,5.93816 4.37489,-4.14861 c 9.01067,-8.54461 20.80552,-14.20341 34.31222,-16.46192 6.58554,-1.1012 43.94371,-0.84177 45.09866,0.31318 0.26695,0.26696 -0.21531,2.46807 -1.07169,4.89136 -0.85638,2.42329 -2.64301,10.59097 -3.97028,18.1504 -1.32727,7.55942 -3.08483,16.00596 -3.90568,18.77009 -2.11811,7.13244 -6.94164,15.78058 -12.07413,21.64778 l -4.40781,5.0388 12.1968,0.59102 c 20.43281,0.99013 31.36414,4.5758 40.77177,13.37388 4.70793,4.40289 10.89053,13.37012 10.91703,15.83402 0.01,0.58145 -2.1872,0.86527 -5.2406,0.67812 -7.69014,-0.47137 -18.6162,2.15743 -30.11808,7.24636 -16.99116,7.51764 -20.64147,8.67345 -29.32885,9.28653 L 933,608.29706 v 5.64137 c 0,15.43293 -8.34211,30.93903 -21.02246,39.07598 -2.77947,1.78358 -5.14897,3.07249 -5.26556,2.86423 -0.11659,-0.20825 -1.51013,-2.97661 -3.09675,-6.1519 -1.58663,-3.17529 -4.52959,-7.62674 -6.53993,-9.8921 l -3.65515,-4.11885 -4.33055,4.8921 c -6.21936,7.02585 -18.25801,24.64637 -17.35473,25.40146 0.42082,0.35177 4.14013,1.40741 8.26513,2.34585 9.98219,2.27097 12.01899,3.6095 5.52285,3.62949 -2.73744,0.008 -8.52639,0.778 -12.86435,1.71018 l -7.8872,1.69488 -5.52243,6.83501 c -3.03734,3.75925 -5.34838,6.99915 -5.13565,7.19978 0.21273,0.20063 3.31178,1.27502 6.88678,2.38754 3.575,1.11253 8.23614,2.76129 10.35809,3.66393 2.12194,0.90263 4.05086,1.44838 4.28647,1.21276 0.23562,-0.23561 0.94141,-3.18698 1.56842,-6.55858 C 877.84,686.75859 878.76035,684 879.25821,684 c 3.45129,0 16.99302,15.06969 21.18258,23.57268 1.34927,2.73843 3.99255,5.28958 8.73167,8.42732 3.73814,2.475 8.49107,5.96171 10.56208,7.74825 l 3.76546,3.24825 -8.87758,-4.01113 -8.87757,-4.01113 0.7037,3.26288 c 2.17779,10.09784 3.48577,18.89529 3.51656,23.65243 l 0.0349,5.38954 2.61381,-3.88954 c 10.6033,-15.7785 19.14817,-21.99519 49.12234,-35.73819 8.86474,-4.06444 18.37128,-8.77653 21.12566,-10.47131 l 5.00797,-3.08143 -0.18489,11.20069 c -0.10169,6.16038 0.22056,19.7731 0.71612,30.25049 1.02394,21.64906 0.24611,28.43278 -4.57835,39.92962 -1.61084,3.83868 -4.77246,9.42133 -7.02582,12.40588 -3.73332,4.94476 -3.88396,5.36393 -1.69693,4.7221 1.32005,-0.3874 6.95804,-0.96939 12.52887,-1.29331 14.80301,-0.86073 27.53531,2.69776 42.62561,11.91324 7.5354,4.60179 30.2456,20.82933 30.2456,21.61196 0,0.36339 -8.325,8.77917 -18.5,18.70172 -16.075,15.6762 -19.5048,18.53309 -26.1657,21.79501 -4.2161,2.0647 -10.4036,4.26317 -13.75,4.88549 -3.34635,0.62233 -6.07714,1.38957 -6.06839,1.705 0.009,0.31542 3.49624,2.78616 7.74999,5.49054 11.1311,7.07676 25.0291,21.33102 29.0033,29.74677 4.2342,8.9664 5.9681,23.37283 3.6828,30.5996 -0.266,0.84121 -1.8959,0.12123 -4.8772,-2.15445 -4.9183,-3.75424 -13.5719,-7.99254 -19.6731,-9.63545 -2.1562,-0.5806 -10.1734,-2.15248 -17.816,-3.49306 -15.57395,-2.73182 -22.89578,-5.14201 -29.86203,-9.82995 l -4.74807,-3.19521 -3.43156,5.25861 c -8.41051,12.88848 -21.26478,20.64678 -37.75376,22.78661 -2.86535,0.37184 -6.46535,0.40054 -8,0.0638 L 907.5,940.952 v -12.39077 c 0,-6.81493 -0.28276,-12.67439 -0.62836,-13.02103 -1.07203,-1.07526 -9.77999,1.48188 -24.55009,7.20926 l -14.17845,5.49795 7.44996,8.52145 c 4.09748,4.6868 7.21804,8.75337 6.93458,9.03683 -0.28346,0.28346 -1.30564,-0.15456 -2.27151,-0.97337 C 875.85875,941.10445 860.13209,934 856.27732,934 c -0.8165,0 -5.24419,1.17219 -9.8393,2.60488 l -8.35475,2.60487 5.3271,6.64513 c 7.1276,8.89109 15.63943,22.29471 21.26249,33.48215 5.05931,10.06581 14.58544,33.45517 14.12025,34.66927 -0.16121,0.4207 -3.64936,-4.4711 -7.75144,-10.8707 C 860.53282,986.74091 845.65213,966.83308 835.31523,955.33973 824.36679,943.16642 822.14382,941.14402 819,940.49657 c -2.60792,-0.53709 -12.38236,-3.70303 -15.02783,-4.86751 -1.13982,-0.50173 -2.46046,1.05418 -5.2002,6.12662 -8.19116,15.16538 -25.66478,33.47114 -38.02197,39.83269 -2.6125,1.34493 -4.75,2.72351 -4.75,3.06352 0,0.34001 2.87296,4.49493 6.38435,9.23316 19.23793,25.95945 30.13295,52.89735 34.62682,85.61495 0.60436,4.4 1.23668,9.0125 1.40516,10.25 0.2542,1.8671 -0.16663,2.25 -2.47321,2.25 -1.52875,0 -3.44079,0.2537 -4.24898,0.5639 -1.17441,0.4506 -1.70992,-1.2057 -2.66724,-8.25 -4.50702,-33.1643 -15.10522,-59.9963 -33.48986,-84.78813 -5.76216,-7.77033 -5.21272,-7.10161 -19.92251,-24.24776 l -10.48532,-12.22199 -3.40243,4.72199 C 705.13454,990.80518 689,1015.9216 689,1018.7233 c 0,1.168 4.65618,2.2767 9.56165,2.2767 5.18726,0 18.50747,3.4925 23.97455,6.286 15.68001,8.0119 22.44096,21.0364 22.53136,43.4049 0.0249,6.1551 -0.25139,12.7721 -0.61391,14.7045 -0.61789,3.2936 -0.85613,3.4796 -3.8064,2.9725 -1.73099,-0.2975 -3.62588,-0.6807 -4.21087,-0.8515 -0.73868,-0.2157 -0.77786,-2.8597 -0.12827,-8.6543 1.72702,-15.4055 -1.94976,-30.3499 -9.26739,-37.6675 C 720.12986,1034.2837 704.0745,1029 689.98564,1029 c -5.66722,0 -5.77878,0.2268 -6.64085,13.5 -0.897,13.8109 3.61341,33.5734 12.68124,55.5631 1.63568,3.9666 2.97397,7.5318 2.97397,7.9227 0,0.391 -1.75618,1.4007 -3.90262,2.2438 l -3.90262,1.533 z m -16.83503,-76.7942 8.3622,-0.6508 2.73929,-6.0932 c 3.82528,-8.5087 9.23685,-17.11855 24.72465,-39.33693 13.30717,-19.09009 13.40033,-19.26239 11.66151,-21.56759 l -1.75281,-2.32376 -14.54853,4.70429 C 693.04684,958.65647 676.375,963.1161 664,965.9794 c -12.375,2.86329 -25.11597,6.36351 -28.31328,7.77825 -10.26159,4.54057 -14.71326,12.10994 -14.66476,24.93517 0.0458,12.12268 6.66583,19.69528 19.47804,22.28078 5.1111,1.0315 18.63034,1.1989 29.36221,0.3635 z m 88.8656,-46.0871 c 2.70914,-3.1625 6.39751,-7.9198 8.19638,-10.57179 3.64587,-5.37492 11.09114,-20.76081 13.39355,-27.67821 l 1.4978,-4.5 -5.65777,-1.5 c -3.11177,-0.825 -6.63054,-2.05707 -7.81948,-2.73793 -1.91828,-1.09853 -3.94861,-0.3159 -18.02939,6.9498 l -15.86768,8.18774 -2.27255,5.79675 -2.27254,5.79674 11.25316,13.00345 c 6.18925,7.1519 11.56809,13.00345 11.953,13.00345 0.3849,0 2.91639,-2.5875 5.62552,-5.75 z m -29.21816,-46.93326 c 3.03319,-14.45366 0.70561,-49.98493 -5.07741,-77.50852 -0.66942,-3.18599 -5.95886,-5.28382 -18.26031,-7.24215 L 698.5,842.34473 704,841.12019 c 3.025,-0.6735 8.3125,-1.49114 11.75,-1.81697 5.42802,-0.51452 6.25,-0.86042 6.25,-2.6301 0,-1.78518 -0.9871,-11.06182 -2.58349,-24.27939 l -0.49595,-4.10626 -5.21028,0.85967 c -2.86565,0.47281 -9.32412,1.59463 -14.35215,2.49293 l -9.14187,1.63326 1.58038,3.61334 c 2.55554,5.84292 2.23779,19.44039 -0.59826,25.60087 -1.26284,2.74315 -3.18026,5.92872 -4.26094,7.07905 -1.81967,1.93695 -1.88471,2.67685 -0.88024,10.01246 3.79741,27.73223 12.70969,51.96705 26.8602,73.03989 l 5.4174,8.06755 4.70681,-1.98857 4.7068,-1.98856 z M 749.5,925.6422 l 10,-5.32605 -0.34186,-8.43672 c -0.30442,-7.51262 -0.0435,-9.06679 2.38173,-14.18904 1.55081,-3.27537 4.58176,-7.38795 7.03886,-9.55078 l 4.31526,-3.79844 -6.69699,-6.50356 c -3.68335,-3.57695 -9.172,-8.55954 -12.197,-11.07242 -6.13188,-5.09378 -19.20109,-13.89744 -19.77662,-13.3219 -0.20422,0.20422 0.87382,8.40052 2.39564,18.21401 2.85365,18.40171 3.88586,45.2367 2.11916,55.0927 -0.419,2.3375 -0.419,4.24286 0,4.23413 0.419,-0.009 5.26182,-2.4126 10.76182,-5.34193 z m 183.46267,-23.62203 c 9.66923,-18.73165 21.96425,-19.68381 44.58672,-3.45293 4.16468,2.98802 7.81556,5.43276 8.11309,5.43276 0.29752,0 -3.76078,-4.52417 -9.01846,-10.0537 -14.76049,-15.52373 -19.31607,-26.72286 -15.31794,-37.65666 3.0632,-8.37704 13.80051,-16.71136 30.7625,-23.87792 l 8.41142,-3.55389 -10.19965,0.52618 c -5.6098,0.2894 -14.1884,0.0809 -19.06354,-0.46344 l -8.8639,-0.98963 -24.80175,12.03453 C 923.9302,846.58446 911.89171,852 910.81896,852 c -1.07274,0 -2.88173,-0.49841 -4.01997,-1.10758 -1.64913,-0.88258 -3.03249,-0.65655 -6.80984,1.11266 l -4.7403,2.22024 5.46842,7.62184 c 14.27996,19.9033 24.16233,42.83475 24.35516,56.51471 l 0.0724,5.13813 2.75267,-8.5 c 1.51397,-4.675 3.79329,-10.51593 5.06515,-12.97983 z M 793.90761,851.17546 c 3.96141,-4.22679 5.03747,-9.00603 5.06794,-22.50885 0.0234,-10.37993 -2.32444,-23.71296 -5.08355,-28.8684 -1.91028,-3.56941 0.93257,-1.71831 5.30114,3.45179 5.33198,6.31027 10.88867,15.50024 13.32199,22.03266 0.97984,2.63046 2.11365,4.98792 2.51959,5.2388 0.40593,0.25088 3.58753,-2.08639 7.07022,-5.19394 4.67415,-4.17067 6.91267,-7.07841 8.54923,-11.10508 4.63318,-11.39969 13.92427,-22.37075 24.44407,-28.86394 3.24597,-2.00352 5.90176,-3.72214 5.90176,-3.81914 0,-0.097 -0.72842,-2.62053 -1.61872,-5.60786 -0.92072,-3.08941 -1.65791,-9.31235 -1.70961,-14.4315 -0.10739,-10.63495 1.73778,-18.12534 9.73039,-39.5 2.98208,-7.975 5.12406,-14.80445 4.75995,-15.17656 -0.3641,-0.37211 -7.18701,-2.33985 -15.16201,-4.37277 -12.60206,-3.2124 -14.89268,-3.53727 -17.5,-2.48193 -2.86862,1.16111 -7.10175,2.32314 -12.5,3.43137 l -2.5,0.51323 -0.10769,15.84682 c -0.10034,14.76578 -0.32699,16.58451 -3.3224,26.66052 -3.33359,11.21357 -15.27372,35.26086 -12.70083,25.57932 1.94974,-7.33669 3.42726,-22.92371 3.00582,-31.70969 -0.35928,-7.48985 -3.536,-25.08383 -4.88426,-27.05099 -0.0983,-0.14337 -2.10543,0.41913 -4.46038,1.25 -6.02486,2.1257 -12.53554,1.89806 -17.56577,-0.61416 l -4.25458,-2.12483 -7.85495,5.98633 c -22.71563,17.31177 -40.4819,44.04282 -43.87449,66.01334 -0.63359,4.10312 -0.56395,4.25 2.01502,4.25 5.53738,0 19.35931,4.30816 29.00451,9.04042 9.98727,4.90009 25.08045,16.43861 27.55777,21.06752 0.62504,1.16791 0.75524,1.9387 0.28934,1.71288 -0.46591,-0.22583 -3.77211,-1.82911 -7.34711,-3.56286 -3.575,-1.73374 -10.1,-4.09852 -14.5,-5.25505 -7.98694,-2.09935 -28.92159,-4.03495 -34.61024,-3.20004 l -3.00592,0.44118 0.68898,8.12797 c 0.37893,4.47039 1.19257,11.48475 1.80808,15.58747 l 1.1191,7.45949 5.5,1.1138 c 13.02061,2.63678 24.2374,7.69789 38,17.14589 l 8.5,5.83523 3.6459,-4.50695 c 2.00524,-2.47882 5.04801,-6.00299 6.76171,-7.83149 z M 902,844.19154 c 0,-1.27766 0.49133,-3.24107 1.09183,-4.36313 0.60051,-1.12206 9.71301,-7.72998 20.25,-14.68426 L 942.5,812.5 l -0.94157,-5.9468 c -1.2058,-7.61564 0.98632,-21.08863 5.90858,-36.31472 C 949.41016,764.22774 951,758.98745 951,758.59339 c 0,-0.39407 -2.7066,2.87545 -6.01466,7.26558 -17.94181,23.81058 -35.77331,29.50872 -47.78078,15.26857 -5.02505,-5.95941 -7.88114,-11.5487 -11.30704,-22.12754 l -2.75267,-8.5 -0.0724,13.68462 c -0.0842,15.91836 -1.76463,25.28168 -6.06656,33.80376 -3.86509,7.65669 -12.09575,15.74455 -20.58092,20.22383 l -6.66744,3.51972 3.87124,0.72476 c 9.52013,1.78234 24.09064,11.67819 34.34139,23.32365 l 5.29204,6.01206 4.36891,-2.63892 C 900.77851,847.25237 902,845.86508 902,844.19154 Z M 527.94768,742.6879 c 12.50718,-13.27671 36.8773,-27.37348 62.24429,-36.00488 1.50702,-0.51278 1.38074,-1.14484 -1.15518,-5.78214 -2.4295,-4.44268 -3.33637,-5.25999 -6.18206,-5.57152 -1.8342,-0.2008 -4.07342,-1.14455 -4.97605,-2.09723 C 576.97605,692.27946 569.03561,679.35 560.23327,664.5 544.59114,638.11094 544.11893,637.44723 539.3645,635.16798 c -6.81493,-3.26704 -18.01647,-10.30807 -24.88861,-15.6444 -3.19898,-2.48406 -5.98068,-4.35212 -6.18157,-4.15124 -0.20088,0.20089 2.0695,3.91179 5.0453,8.24645 10.21066,14.87326 14.73811,26.00459 14.83665,36.47789 0.052,5.52991 -0.42901,7.59702 -2.76799,11.8945 -5.30053,9.73882 -18.95438,17.04535 -40.01183,21.41135 l -11.89645,2.46658 13.85566,0.0654 c 20.69723,0.0978 30.50657,3.31983 35.72959,11.73608 2.1358,3.44157 2.36375,4.89269 2.2509,14.32937 -0.11714,9.79688 -1.45689,16.63843 -5.77683,29.5 -0.51478,1.53262 -0.25288,1.41578 1.12069,-0.5 0.98584,-1.375 4.2563,-5.11544 7.26767,-8.3121 z m 86.25049,-42.18086 c 4.78399,-0.88475 13.10899,-1.63477 18.5,-1.6667 9.28565,-0.055 14.01735,0.91482 22.60238,4.63268 1.39532,0.60426 1.00362,-0.67009 -1.74043,-5.66227 -13.92538,-25.33412 -10.51373,-46.03176 12.68988,-76.98632 3.7125,-4.95262 6.75,-9.23767 6.75,-9.52231 0,-0.28465 -2.8125,2.08753 -6.25,5.27151 -12.84817,11.90061 -27.2495,19.44565 -37.03751,19.40441 -18.3728,-0.0774 -28.37176,-18.89971 -29.7372,-55.97804 -0.0506,-1.375 -1.62114,2.99049 -3.49,9.70108 -5.75573,20.66735 -11.83477,33.69794 -19.50004,41.79892 l -3.78487,4 10.39981,24.39385 C 589.32009,673.31047 594,685.50323 594,686.98886 c 0,1.48564 -0.88028,3.49781 -1.95618,4.47148 -1.9342,1.75043 -1.92309,1.83586 0.98886,7.6044 l 2.94503,5.83408 4.76115,-1.39157 c 2.61863,-0.76536 8.67532,-2.11546 13.45931,-3.00021 z m 294.68668,-78.12385 c -2.99686,-10.82658 -2.97765,-20.87893 0.0493,-25.77657 1.24709,-2.01784 3.98483,-4.54494 6.08387,-5.61579 5.36128,-2.73512 16.97856,-4.31994 26.98202,-3.68085 l 8.5,0.54304 -9,-1.83363 c -27.26432,-5.55474 -38.87095,-15.45732 -36.40454,-31.05973 0.9481,-5.99767 5.98787,-17.19247 11.27273,-25.04004 1.96652,-2.9201 3.40367,-5.48109 3.19369,-5.69108 -0.20999,-0.20999 -3.45982,1.84555 -7.22184,4.56787 -3.76202,2.72232 -8.86504,5.96556 -11.34004,7.20721 -8.25601,4.14185 -9.66633,5.83325 -21.0271,25.21778 C 865.73483,585.51538 864.6507,587 861.14837,587 c -2.24943,0 -3.12989,0.78226 -4.8383,4.29868 l -2.08846,4.29868 6.34742,2.27644 c 17.17812,6.16075 35.97585,17.56564 44.70554,27.1236 2.87398,3.14667 5.353,5.61947 5.50891,5.4951 0.15591,-0.12437 -0.69847,-3.77356 -1.89863,-8.10931 z M 809.5,591.24328 c 2.51864,-0.93651 7.33307,-1.46192 13,-1.41872 7.73535,0.059 11.87997,0.67503 26.17729,3.89104 1.75573,0.39493 2.58552,-0.31043 4.28566,-3.64297 1.92724,-3.77771 1.97644,-4.32108 0.57271,-6.32519 C 852.69104,582.54159 852,580.97212 852,580.25972 c 0,-0.7124 3.7937,-10.25752 8.43045,-21.21136 l 8.43045,-19.91609 -3.19733,-3.39016 C 859.90289,529.63401 854.98699,518.4112 848.25545,496 c -0.97438,-3.244 -1.05874,-2.97753 -1.15336,3.64304 -0.21861,15.29589 -5.51477,31.0954 -12.14284,36.22452 -9.11007,7.04979 -23.7877,3.12379 -38.66941,-10.34339 C 792.93242,522.48588 789.94513,520 789.65143,520 c -0.29369,0 2.44179,3.9375 6.07886,8.75 11.33143,14.99353 17.13036,30.23358 15.69586,41.25 -0.85055,6.53191 -3.31346,13.72086 -6.62471,19.33677 -2.33341,3.95746 -2.54743,4.76608 -1.09944,4.15394 0.9889,-0.41806 3.598,-1.4294 5.798,-2.24743 z"
         id="path20" />
      <path
         style="fill:#32305c"
         d="m 718.5,1237.4775 c -61.78296,-5.6745 -120.2224,-21.5161 -173,-46.8966 -55.7877,-26.8279 -112.31333,-70.3981 -153,-117.9328 C 356.20394,1030.2429 329.08377,986.0571 310.47009,939 291.86516,891.96504 281.04249,845.88344 276.49569,794.34125 269.81537,718.61366 287.38615,628.429 323.41905,553.5 345.1207,508.37228 378.95603,461.04445 416.00024,424.00024 453.04445,386.95603 500.37228,353.1207 545.5,331.41905 c 74.929,-36.0329 165.11366,-53.60368 240.84125,-46.92336 51.54219,4.5468 97.62379,15.36947 144.65875,33.9744 47.0571,18.61368 91.2429,45.73385 133.6481,82.02991 47.5347,40.68667 91.1049,97.2123 117.9328,153 22.2994,46.37068 37.2778,97.22497 44.4354,150.86637 C 1228.7256,717.1764 1229,725.01006 1229,761 c 0,35.98994 -0.2744,43.8236 -1.9837,56.63363 -7.1576,53.6414 -22.136,104.49569 -44.4354,150.86637 -26.8279,55.7877 -70.3981,112.3133 -117.9328,153 -50.808,43.4883 -101.71235,72.4275 -163.02251,92.6785 -59.74199,19.7331 -127.74642,28.3852 -183.12559,23.299 z M 699,1105.9858 c 0,-0.3909 -1.33829,-3.9561 -2.97397,-7.9227 -9.06783,-21.9897 -13.57824,-41.7522 -12.68124,-55.5631 0.86207,-13.2732 0.97363,-13.5 6.64085,-13.5 14.08886,0 30.14422,5.2837 37.05508,12.1946 7.31763,7.3176 10.99441,22.262 9.26739,37.6675 -0.64959,5.7946 -0.61041,8.4386 0.12827,8.6543 0.58499,0.1708 2.47988,0.554 4.21087,0.8515 2.95027,0.5071 3.18851,0.3211 3.8064,-2.9725 0.36252,-1.9324 0.63878,-8.5494 0.61391,-14.7045 -0.0904,-22.3685 -6.85135,-35.393 -22.53136,-43.4049 -5.46708,-2.7935 -18.78729,-6.286 -23.97455,-6.286 -4.90547,0 -9.56165,-1.1087 -9.56165,-2.2767 0,-2.8017 16.13454,-27.91812 32.72678,-50.94529 l 3.40243,-4.72199 10.48532,12.22199 c 14.70979,17.14615 14.16035,16.47743 19.92251,24.24776 18.38464,24.79183 28.98284,51.62383 33.48986,84.78813 0.95732,7.0443 1.49283,8.7006 2.66724,8.25 0.80819,-0.3102 2.72023,-0.5639 4.24898,-0.5639 2.30658,0 2.72741,-0.3829 2.47321,-2.25 -0.16848,-1.2375 -0.8008,-5.85 -1.40516,-10.25 -4.49387,-32.7176 -15.38889,-59.6555 -34.62682,-85.61495 C 758.87296,989.14682 756,984.9919 756,984.65189 c 0,-0.34001 2.1375,-1.71859 4.75,-3.06352 12.35719,-6.36155 29.83081,-24.66731 38.02197,-39.83269 2.73974,-5.07244 4.06038,-6.62835 5.2002,-6.12662 2.64547,1.16448 12.41991,4.33042 15.02783,4.86751 3.14382,0.64745 5.36679,2.66985 16.31523,14.84316 10.3369,11.49335 25.21759,31.40118 35.72644,47.79587 4.10208,6.3996 7.59023,11.2914 7.75144,10.8707 0.46519,-1.2141 -9.06094,-24.60346 -14.12025,-34.66927 -5.62306,-11.18744 -14.13489,-24.59106 -21.26249,-33.48215 l -5.3271,-6.64513 8.35475,-2.60487 c 4.59511,-1.43269 9.0228,-2.60488 9.8393,-2.60488 3.85477,0 19.58143,7.10445 23.97881,10.83232 0.96587,0.81881 1.98805,1.25683 2.27151,0.97337 0.28346,-0.28346 -2.8371,-4.35003 -6.93458,-9.03683 l -7.44996,-8.52145 14.17845,-5.49795 c 14.7701,-5.72738 23.47806,-8.28452 24.55009,-7.20926 0.3456,0.34664 0.62836,6.2061 0.62836,13.02103 V 940.952 l 2.79027,0.6123 c 1.53465,0.33676 5.13465,0.30806 8,-0.0638 16.48898,-2.13983 29.34325,-9.89813 37.75376,-22.78661 l 3.43156,-5.25861 4.74807,3.19521 c 6.96625,4.68794 14.28808,7.09813 29.86203,9.82995 7.64261,1.34058 15.65981,2.91246 17.81601,3.49306 6.1012,1.64291 14.7548,5.88121 19.6731,9.63545 2.9813,2.27568 4.6112,2.99566 4.8772,2.15445 2.2853,-7.22677 0.5514,-21.6332 -3.6828,-30.5996 -3.9742,-8.41575 -17.8722,-22.67001 -29.0033,-29.74677 -4.25376,-2.70438 -7.74126,-5.17512 -7.75,-5.49054 -0.009,-0.31543 2.72204,-1.08267 6.0684,-1.705 3.3464,-0.62232 9.5339,-2.82079 13.75,-4.88549 6.6609,-3.26192 10.0907,-6.11881 26.1657,-21.79501 10.175,-9.92255 18.5,-18.33833 18.5,-18.70172 0,-0.78263 -22.7102,-17.01017 -30.2456,-21.61196 -15.0903,-9.21548 -27.8226,-12.77397 -42.62562,-11.91324 -5.57083,0.32392 -11.20882,0.90591 -12.52887,1.29331 -2.18703,0.64183 -2.03639,0.22266 1.69693,-4.7221 2.25336,-2.98455 5.41498,-8.5672 7.02582,-12.40588 4.82446,-11.49684 5.60229,-18.28056 4.57835,-39.92962 -0.49556,-10.47739 -0.81781,-24.09011 -0.71612,-30.25049 l 0.18489,-11.20069 -5.00797,3.08143 c -2.75438,1.69478 -12.26092,6.40687 -21.12566,10.47131 -29.97417,13.743 -38.51904,19.95969 -49.12234,35.73819 L 910,751.27909 l -0.0349,-5.38954 c -0.0308,-4.75714 -1.33877,-13.55459 -3.51656,-23.65243 l -0.7037,-3.26288 8.87757,4.01113 8.87758,4.01113 -3.76546,-3.24825 c -2.071,-1.78654 -6.82393,-5.27325 -10.56207,-7.74825 -4.73912,-3.13774 -7.3824,-5.68889 -8.73167,-8.42732 C 896.25123,699.06969 882.7095,684 879.25821,684 c -0.49786,0 -1.41821,2.75859 -2.04523,6.13019 -0.62701,3.3716 -1.3328,6.32297 -1.56842,6.55858 -0.23561,0.23562 -2.16453,-0.31013 -4.28647,-1.21276 -2.12195,-0.90264 -6.78309,-2.5514 -10.35809,-3.66393 -3.575,-1.11252 -6.67405,-2.18691 -6.88678,-2.38754 -0.21273,-0.20063 2.09831,-3.44053 5.13565,-7.19978 l 5.52243,-6.83501 7.8872,-1.69488 c 4.33796,-0.93218 10.12691,-1.70176 12.86435,-1.71018 6.49614,-0.02 4.45934,-1.35852 -5.52285,-3.62949 -4.125,-0.93844 -7.84431,-1.99408 -8.26513,-2.34585 -0.90328,-0.75509 11.13537,-18.37561 17.35473,-25.40146 l 4.33055,-4.8921 3.65515,4.11885 c 2.01034,2.26536 4.9533,6.71681 6.53993,9.8921 1.58662,3.17529 2.98016,5.94365 3.09675,6.1519 0.11659,0.20826 2.48609,-1.08065 5.26556,-2.86423 C 924.65789,644.87746 933,629.37136 933,613.93843 v -5.64137 l 8.30447,-0.58605 c 8.68738,-0.61308 12.33769,-1.76889 29.32885,-9.28653 11.50188,-5.08893 22.42794,-7.71773 30.11808,-7.24636 3.0534,0.18715 5.2468,-0.0967 5.2406,-0.67812 -0.026,-2.4639 -6.2091,-11.43113 -10.91703,-15.83402 -9.40763,-8.79808 -20.33896,-12.38375 -40.77177,-13.37388 l -12.1968,-0.59102 4.40781,-5.0388 c 5.13249,-5.8672 9.95602,-14.51534 12.07413,-21.64778 0.82085,-2.76413 2.57841,-11.21067 3.90568,-18.77009 1.32727,-7.55943 3.1139,-15.72711 3.97028,-18.1504 0.85638,-2.42329 1.33864,-4.6244 1.07169,-4.89136 -1.15495,-1.15495 -38.51312,-1.41438 -45.09866,-0.31318 -13.5067,2.25851 -25.30155,7.91731 -34.31222,16.46192 l -4.37489,4.14861 0.57206,-5.93816 c 1.42741,-14.81705 -4.53257,-29.50576 -20.52279,-50.5795 -5.6106,-7.39431 -12.05845,-16.45672 -14.32854,-20.13871 l -4.12745,-6.69452 -2.73842,5.58355 c -1.50614,3.07095 -5.99508,10.7999 -9.97543,17.17544 -15.19346,24.33621 -18.37358,32.19966 -19.34745,47.8402 l -0.57585,9.24831 -4.19346,-5.74831 c -5.39235,-7.3917 -16.14683,-17.41899 -22.80131,-21.25951 -6.30895,-3.64111 -18.17169,-7.5365 -25.86105,-8.49206 l -5.64946,-0.70206 3.4416,9.16259 c 1.89288,5.03942 5.22102,16.44812 7.39586,25.35266 7.07006,28.94732 9.28509,34.08267 18.80864,43.60621 6.72925,6.72926 6.81489,6.88124 5.39948,9.58265 -5.15972,9.84767 -7.16877,23.39811 -5.29491,35.71258 1.01183,6.64944 0.93776,8.57737 -0.53785,14 -0.9412,3.45875 -2.03373,6.65551 -2.42785,7.10391 -0.39412,0.4484 -3.46599,-0.96175 -6.82637,-3.13367 -6.78157,-4.38314 -16.68572,-8.63277 -22.71646,-9.74707 l -3.94321,-0.72859 5.393,4.89703 c 2.96615,2.69337 5.76406,5.04217 6.21758,5.21956 1.59809,0.62508 11.90933,16.16625 14.19127,21.38919 1.80718,4.1363 2.15,6.15963 1.57374,9.28828 -0.40522,2.2 -1.01428,6.475 -1.35347,9.5 l -0.61671,5.5 -14.7027,0.0974 c -11.82161,0.0783 -16.24326,0.52459 -22.56437,2.27757 -13.63385,3.78097 -24.50306,10.1379 -33.63834,19.6736 -2.475,2.58349 -4.05,4.50648 -3.5,4.27332 0.55,-0.23316 3.20596,-1.4648 5.90213,-2.73698 13.89467,-6.55614 34.05644,-8.70493 53.59787,-5.71232 19.44033,2.97711 17.99567,2.50865 16.86964,5.47033 -1.29329,3.40161 -1.58296,12.58138 -0.55982,17.74093 l 0.80982,4.08382 -7.30982,5.53322 c -9.97492,7.55059 -23.65242,21.48625 -29.76124,30.32297 -8.60584,12.4488 -15.72381,29.19097 -18.48399,43.47618 -0.48014,2.48493 -0.55866,2.50211 -13.02382,2.84971 C 698.54952,787.07256 694,786.83376 694,786.19146 c 0,-0.55439 -0.70064,-6.40826 -1.55697,-13.0086 l -1.55697,-12.00063 4.0109,-7.97729 c 6.47829,-12.88468 17.08082,-25.53432 27.80719,-33.17614 4.45098,-3.17102 2.73889,-3.69277 -5.03306,-1.5338 -8.32627,2.31295 -19.09097,7.35744 -26.6399,12.48382 -3.42377,2.32504 -6.57665,3.84345 -7.00642,3.37426 -0.42976,-0.46919 -1.79106,-4.74047 -3.02512,-9.49173 -1.98802,-7.65408 -2.11586,-9.37299 -1.1217,-15.08191 2.66706,-15.31536 0.76575,-32.38436 -5.00086,-44.89518 l -3.18375,-6.90722 3.90333,-3.44689 c 2.14683,-1.89579 4.19823,-3.46563 4.55867,-3.48852 0.36044,-0.0229 2.98356,-3.18222 5.82915,-7.02071 7.01212,-9.45883 10.96653,-19.76791 16.88577,-44.02092 5.45154,-22.33669 9.0944,-34.60188 12.69547,-42.74453 L 717.88994,552 h -2.76131 c -7.7494,0 -23.62349,4.27177 -32.62008,8.77817 -11.56356,5.7922 -24.20863,17.08172 -34.03945,30.3904 l -4.18725,5.66858 -0.57405,-9.66858 c -1.1127,-18.74099 -7.46414,-35.02117 -23.16863,-59.38648 -4.15399,-6.44485 -9.92804,-16.19219 -12.83124,-21.66076 l -5.27853,-9.94285 -3.269,6.30502 c -1.79794,3.46776 -9.0308,13.91267 -16.073,23.2109 -7.0422,9.29824 -14.66541,19.85323 -16.94047,23.45553 -8.83857,13.99488 -13.28272,30.06738 -12.40135,44.85007 l 0.44716,7.5 -5.34637,-5.14741 C 539.17671,587.04278 523.54575,578.85277 511,576.52258 c -9.88097,-1.83525 -23.54993,-2.4343 -42.29694,-1.85369 -18.49374,0.57276 -20.7226,0.82057 -20.1257,2.2376 1.72499,4.09512 4.61475,16.64693 7.00956,30.44625 4.37751,25.22408 9.28326,36.9086 20.64716,49.1774 l 5.73407,6.19068 -16.23407,0.59857 c -27.83485,1.02632 -43.17141,6.47524 -54.88039,19.49845 C 407.19462,686.88761 400,698.44471 400,700.25271 c 0,0.26001 5.2875,0.71387 11.75,1.00858 13.27632,0.60543 20.04605,2.39154 34.54784,9.11504 18.66351,8.65301 28.84921,11.61542 40.00138,11.634 l 6.20078,0.0103 0.24315,8.91635 c 0.53598,19.65511 9.57243,36.4119 25.45065,47.1946 3.13306,2.12761 6.10281,3.86839 6.59946,3.86839 0.49664,0 1.73856,-1.9125 2.75982,-4.25 2.44328,-5.59233 8.49298,-14.54677 12.18722,-18.03888 l 2.95031,-2.78889 4.45878,5.28889 c 7.7459,9.18797 23.85061,31.54344 23.85061,33.1078 0,0.22508 -1.93583,0.67457 -4.30184,0.99886 -2.36601,0.3243 -8.10351,1.83567 -12.75,3.3586 l -8.44816,2.76897 10,0.69647 c 5.5,0.38305 13.07087,1.52905 16.82415,2.54666 6.68463,1.81237 6.96399,2.02358 13.66447,10.33086 l 6.84033,8.48066 -8.61333,2.73947 c -16.25223,5.16901 -34.61151,13.65642 -49.64291,22.94969 -9.03085,5.58338 -30.7597,20.95718 -30.28756,21.42933 0.1677,0.1677 7.25965,-2.77568 15.75988,-6.54085 21.75659,-9.63704 46.03446,-18.24947 66.63921,-23.63986 18.76159,-4.90819 20.15129,-4.98205 29.31576,-1.558 3.025,1.13021 7.3,2.06977 9.5,2.08792 l 4,0.033 0.0797,20.74966 0.0797,20.74965 3.70143,12.33197 c 3.52783,11.75359 10.75928,27.9367 14.76974,33.05289 1.02819,1.31167 1.86943,2.18888 1.86943,1.94934 0,-0.23953 -0.89528,-4.46272 -1.98951,-9.38486 -4.09234,-18.40848 -3.71449,-37.55423 1.15889,-58.72036 1.7181,-7.46208 2.30045,-8.74863 3.68557,-8.14233 8.65786,3.78977 12.807,4.63484 18.36425,3.7403 l 5.71919,-0.9206 0.61493,4.54683 c 1.31148,9.6971 5.5027,27.94198 8.32549,36.24181 3.93242,11.56248 11.70378,27.4098 18.40187,37.52504 l 5.44313,8.22003 -4.1119,1.50912 c -9.25739,3.39758 -28.08265,8.57623 -43.61191,11.99721 -22.32565,4.91817 -31.54691,7.84995 -37.61211,11.95828 -6.27083,4.24762 -9.13753,8.92202 -11.08482,18.07475 -2.73223,12.8422 -0.15584,26.2764 6.31751,32.9418 7.81967,8.0516 16.13393,10.1535 38.99008,9.8565 l 17.11067,-0.2223 -0.81712,4.2223 c -2.95264,15.2573 0.74618,35.2846 11.79303,63.8536 l 4.49752,11.6313 3.90262,-1.533 c 2.14644,-0.8431 3.90262,-1.8528 3.90262,-2.2438 z m -58.5,-85.0122 c -12.81221,-2.5855 -19.43219,-10.1581 -19.47804,-22.28078 -0.0485,-12.82523 4.40317,-20.3946 14.66476,-24.93517 3.19731,-1.41474 15.93828,-4.91496 28.31328,-7.77825 12.375,-2.8633 29.04684,-7.32293 37.04852,-9.91029 l 14.54853,-4.70429 1.75281,2.32376 c 1.73882,2.3052 1.64566,2.4775 -11.66151,21.56759 -15.4878,22.21838 -20.89937,30.82823 -24.72465,39.33693 l -2.73929,6.0932 -8.3622,0.6508 c -10.73187,0.8354 -24.25111,0.668 -29.36221,-0.3635 z m 100.64929,-52.97705 -11.25316,-13.00345 2.27254,-5.79674 2.27255,-5.79675 15.86768,-8.18774 c 14.08078,-7.2657 16.11111,-8.04833 18.02939,-6.9498 1.18894,0.68086 4.70771,1.91293 7.81948,2.73793 l 5.65777,1.5 -1.4978,4.5 c -2.30241,6.9174 -9.74768,22.30329 -13.39355,27.67821 C 762.98894,970.47975 754.08,981 753.10229,981 c -0.38491,0 -5.76375,-5.85155 -11.953,-13.00345 z M 712.9174,932.61894 c -14.15051,-21.07284 -23.06279,-45.30766 -26.8602,-73.03989 -1.00447,-7.33561 -0.93943,-8.07551 0.88024,-10.01246 1.08068,-1.15033 2.9981,-4.3359 4.26094,-7.07905 2.83605,-6.16048 3.1538,-19.75795 0.59826,-25.60087 l -1.58038,-3.61334 9.14187,-1.63326 c 5.02803,-0.8983 11.4865,-2.02012 14.35215,-2.49293 l 5.21028,-0.85967 0.49595,4.10626 C 721.0129,825.6113 722,834.88794 722,836.67312 c 0,1.76968 -0.82198,2.11558 -6.25,2.6301 -3.4375,0.32583 -8.725,1.14347 -11.75,1.81697 l -5.5,1.22454 7.67193,1.22134 c 12.30145,1.95833 17.59089,4.05616 18.26031,7.24215 5.78302,27.52359 8.1106,63.05486 5.07741,77.50852 l -1.76124,8.39262 -4.7068,1.98856 -4.70681,1.98857 z M 738.73818,926.75 c 1.7667,-9.856 0.73449,-36.69099 -2.11916,-55.0927 -1.52182,-9.81349 -2.59986,-18.00979 -2.39564,-18.21401 0.57553,-0.57554 13.64474,8.22812 19.77662,13.3219 3.025,2.51288 8.51365,7.49547 12.197,11.07242 l 6.69699,6.50356 -4.31526,3.79844 c -2.4571,2.16283 -5.48805,6.27541 -7.03886,9.55078 -2.42527,5.12225 -2.68615,6.67642 -2.38173,14.18904 l 0.34186,8.43672 -10,5.32605 c -5.5,2.92933 -10.34282,5.3332 -10.76182,5.34193 -0.419,0.009 -0.419,-1.89663 0,-4.23413 z m 186.33425,-8.38813 c -0.19283,-13.67996 -10.0752,-36.61141 -24.35516,-56.51471 l -5.46842,-7.62184 4.7403,-2.22024 c 3.77735,-1.76921 5.16071,-1.99524 6.80984,-1.11266 1.13824,0.60917 2.94723,1.10758 4.01997,1.10758 1.07275,0 13.11124,-5.41554 26.7522,-12.03453 l 24.80175,-12.03453 8.8639,0.98963 c 4.87514,0.54429 13.45374,0.75284 19.06354,0.46344 l 10.19965,-0.52618 -8.41142,3.55389 c -29.01327,12.25831 -37.79384,25.91542 -28.54627,44.40022 2.49683,4.99087 6.36367,10.04791 13.10171,17.13436 5.25768,5.52953 9.31598,10.0537 9.01846,10.0537 -0.29753,0 -3.94841,-2.44474 -8.11309,-5.43276 C 950.97747,879.50276 938.00243,883.79697 927.89752,915 l -2.75267,8.5 -0.0724,-5.13813 z M 775,857.67867 c -13.7626,-9.448 -24.97939,-14.50911 -38,-17.14589 l -5.5,-1.1138 -1.1191,-7.45949 c -0.61551,-4.10272 -1.42915,-11.11708 -1.80808,-15.58747 l -0.68898,-8.12797 3.00592,-0.44118 c 5.68865,-0.83491 26.6233,1.10069 34.61024,3.20004 4.4,1.15653 10.925,3.52131 14.5,5.25505 3.575,1.73375 6.8812,3.33703 7.34711,3.56286 0.4659,0.22582 0.3357,-0.54497 -0.28934,-1.71288 C 784.58045,813.47903 769.48727,801.94051 759.5,797.04042 749.8548,792.30816 736.03287,788 730.49549,788 c -2.57897,0 -2.64861,-0.14688 -2.01502,-4.25 3.39259,-21.97052 21.15886,-48.70157 43.87449,-66.01334 l 7.85495,-5.98633 4.25458,2.12483 c 5.03023,2.51222 11.54091,2.73986 17.56577,0.61416 2.35495,-0.83087 4.36212,-1.39337 4.46038,-1.25 1.34826,1.96716 4.52498,19.56114 4.88426,27.05099 0.42144,8.78598 -1.05608,24.373 -3.00582,31.70969 -2.57289,9.68154 9.36724,-14.36575 12.70083,-25.57932 2.99541,-10.07601 3.22206,-11.89474 3.3224,-26.66052 L 824.5,703.91334 827,703.40011 c 5.39825,-1.10823 9.63138,-2.27026 12.5,-3.43137 2.60732,-1.05534 4.89794,-0.73047 17.5,2.48193 7.975,2.03292 14.79791,4.00066 15.16201,4.37277 0.36411,0.37211 -1.77787,7.20156 -4.75995,15.17656 -7.99261,21.37466 -9.83778,28.86505 -9.73039,39.5 0.0517,5.11915 0.78889,11.34209 1.70961,14.4315 0.8903,2.98733 1.61872,5.51087 1.61872,5.60786 0,0.097 -2.65579,1.81562 -5.90176,3.81914 -10.5198,6.49319 -19.81089,17.46425 -24.44407,28.86394 -1.63656,4.02667 -3.87508,6.93441 -8.54923,11.10508 -3.48269,3.10755 -6.66429,5.44482 -7.07022,5.19394 -0.40594,-0.25088 -1.53975,-2.60834 -2.51959,-5.2388 -2.43332,-6.53242 -7.99001,-15.72239 -13.32199,-22.03266 -4.36857,-5.1701 -7.21142,-7.0212 -5.30114,-3.45179 2.75911,5.15544 5.10698,18.48847 5.08355,28.8684 -0.0305,13.50282 -1.10653,18.28206 -5.06794,22.50885 -1.7137,1.8285 -4.75647,5.35267 -6.76171,7.83149 L 783.5,863.5139 Z m 112.97014,-11.89833 c -10.25075,-11.64546 -24.82126,-21.54131 -34.34139,-23.32365 l -3.87124,-0.72476 6.66744,-3.51972 c 8.48517,-4.47928 16.71583,-12.56714 20.58092,-20.22383 4.30193,-8.52208 5.98231,-17.8854 6.06656,-33.80376 l 0.0724,-13.68462 2.75267,8.5 c 3.4259,10.57884 6.28199,16.16813 11.30704,22.12754 12.00747,14.24015 29.83897,8.54201 47.78078,-15.26857 3.30806,-4.39013 6.01466,-7.65965 6.01466,-7.26558 0,0.39406 -1.58984,5.63435 -3.53299,11.64509 -4.92226,15.22609 -7.11438,28.69908 -5.90858,36.31472 L 942.5,812.5 923.34183,825.14415 c -10.53699,6.95428 -19.64949,13.5622 -20.25,14.68426 -0.6005,1.12206 -1.09183,3.08547 -1.09183,4.36313 0,1.67354 -1.22149,3.06083 -4.36891,4.96194 l -4.36891,2.63892 z M 519.55932,751.5 c 4.31994,-12.86157 5.65969,-19.70312 5.77683,-29.5 0.11285,-9.43668 -0.1151,-10.8878 -2.2509,-14.32937 -5.22302,-8.41625 -15.03236,-11.63831 -35.72959,-11.73608 l -13.85566,-0.0654 11.89645,-2.46658 c 45.86743,-9.51005 54.50795,-31.08841 27.94317,-69.78374 -2.9758,-4.33466 -5.24618,-8.04556 -5.0453,-8.24645 0.20089,-0.20088 2.98259,1.66718 6.18157,4.15124 6.87214,5.33633 18.07368,12.37736 24.88861,15.6444 4.75443,2.27925 5.22664,2.94296 20.86877,29.33202 8.80234,14.85 16.74278,27.77946 17.64541,28.73213 0.90263,0.95268 3.14185,1.89643 4.97605,2.09723 2.84569,0.31153 3.75256,1.12884 6.18206,5.57152 2.53592,4.6373 2.6622,5.26936 1.15518,5.78214 -17.18667,5.84796 -38.2258,16.46708 -50.23052,25.35296 -6.29905,4.66255 -15.55385,13.76499 -19.28144,18.96402 -1.37357,1.91578 -1.63547,2.03262 -1.12069,0.5 z m 73.47336,-52.43526 c -2.91195,-5.76854 -2.92306,-5.85397 -0.98886,-7.6044 1.0759,-0.97367 1.95618,-2.98584 1.95618,-4.47148 0,-1.48563 -4.67991,-13.67839 -10.39981,-27.09501 L 573.20038,635.5 l 3.78487,-4 c 7.66527,-8.10098 13.74431,-21.13157 19.50004,-41.79892 1.86886,-6.71059 3.43936,-11.07608 3.49,-9.70108 1.36544,37.07833 11.3644,55.90063 29.7372,55.97804 9.78801,0.0412 24.18934,-7.5038 37.03751,-19.40441 3.4375,-3.18398 6.25,-5.55616 6.25,-5.27151 0,0.28464 -3.0375,4.56969 -6.75,9.52231 -23.20361,30.95456 -26.61526,51.6522 -12.68988,76.98632 2.74405,4.99218 3.13575,6.26653 1.74043,5.66227 -8.58503,-3.71786 -13.31673,-4.68769 -22.60238,-4.63268 -9.67718,0.0573 -22.68884,1.95737 -31.95931,4.66691 l -4.76115,1.39157 z M 905.27457,624.9974 c -8.72969,-9.55796 -27.52742,-20.96285 -44.70554,-27.1236 l -6.34742,-2.27644 2.08846,-4.29868 c 1.70841,-3.51642 2.58887,-4.29868 4.8383,-4.29868 3.50233,0 4.58646,-1.48462 18.82453,-25.7786 11.36077,-19.38453 12.77109,-21.07593 21.0271,-25.21778 2.475,-1.24165 7.57802,-4.48489 11.34004,-7.20721 3.76202,-2.72232 7.01185,-4.77786 7.22184,-4.56787 0.20998,0.20999 -1.22717,2.77098 -3.19369,5.69108 -5.28486,7.84757 -10.32463,19.04237 -11.27273,25.04004 -2.46641,15.60241 9.14022,25.50499 36.40454,31.05973 l 9,1.83363 -8.5,-0.54304 c -10.00346,-0.63909 -21.62074,0.94573 -26.98202,3.68085 -2.09904,1.07085 -4.83678,3.59795 -6.08387,5.61579 -3.02691,4.89764 -3.04612,14.94999 -0.0493,25.77657 1.20016,4.33575 2.05454,7.98494 1.89863,8.10931 -0.15591,0.12437 -2.63493,-2.34843 -5.50891,-5.4951 z M 804.80144,589.33677 c 3.31125,-5.61591 5.77416,-12.80486 6.62471,-19.33677 1.4345,-11.01642 -4.36443,-26.25647 -15.69586,-41.25 -3.63707,-4.8125 -6.37255,-8.75 -6.07886,-8.75 0.2937,0 3.28099,2.48588 6.63841,5.52417 14.88171,13.46718 29.55934,17.39318 38.66941,10.34339 6.62807,-5.12912 11.92423,-20.92863 12.14284,-36.22452 0.0946,-6.62057 0.17898,-6.88704 1.15336,-3.64304 6.73154,22.4112 11.64744,33.63401 17.40812,39.74211 l 3.19733,3.39016 -8.43045,19.91609 C 855.7937,570.0022 852,579.54732 852,580.25972 c 0,0.7124 0.69104,2.28187 1.53566,3.48772 1.40373,2.00411 1.35453,2.54748 -0.57271,6.32519 -1.70014,3.33254 -2.52993,4.0379 -4.28566,3.64297 -14.29732,-3.21601 -18.44194,-3.83207 -26.17729,-3.89104 -8.25109,-0.0629 -11.45524,0.562 -18.798,3.66615 -1.44799,0.61214 -1.23397,-0.19648 1.09944,-4.15394 z"
         id="path18" />
      <path
         style="fill:#000000"
         d="m 712,1282.9192 c -66.99094,-5.6818 -128.31866,-22.4676 -187.5,-51.3199 -25.55484,-12.4586 -37.84732,-19.4461 -60,-34.1063 -60.02584,-39.7238 -108.26918,-87.9672 -147.99301,-147.993 -14.66018,-22.1527 -21.64769,-34.4452 -34.10627,-60 -28.64851,-58.76335 -45.09047,-118.24529 -50.90503,-184.15875 -1.93883,-21.97847 -1.93883,-66.70403 0,-88.6825 5.81456,-65.91346 22.25652,-125.3954 50.90503,-184.15875 12.45858,-25.55484 19.44609,-37.84732 34.10627,-60 39.72383,-60.02584 87.96717,-108.26918 147.99301,-147.99301 22.15268,-14.66018 34.44516,-21.64769 60,-34.10627 58.76335,-28.64851 118.24529,-45.09047 184.15875,-50.90503 21.97847,-1.93883 66.70403,-1.93883 88.6825,0 65.91346,5.81456 125.3954,22.25652 184.15875,50.90503 25.5548,12.45858 37.8473,19.44609 60,34.10627 60.0258,39.72383 108.2692,87.96717 147.993,147.99301 14.6602,22.15268 21.6477,34.44516 34.1063,60 25.1829,51.65482 40.7426,103.35213 48.417,160.86637 1.7654,13.23021 1.9837,20.67384 1.9837,67.63363 0,46.95979 -0.2183,54.40342 -1.9837,67.63363 -7.6744,57.51424 -23.2341,109.21155 -48.417,160.86637 -12.4586,25.5548 -19.4461,37.8473 -34.1063,60 -39.7238,60.0258 -87.9672,108.2692 -147.993,147.993 -22.1527,14.6602 -34.4452,21.6477 -60,34.1063 -58.76335,28.6485 -118.24529,45.0904 -184.15875,50.905 -18.12854,1.5992 -68.49106,1.8441 -85.34125,0.4149 z m 80.34125,-25.4149 c 64.29046,-5.6714 121.46754,-21.3682 178.15875,-48.9099 23.01618,-11.1817 36.0977,-18.6152 56.5,-32.1058 65.2071,-43.1169 119.5093,-100.8334 158.0508,-167.9886 26.5342,-46.23346 47.8063,-104.09186 57.4367,-156.22268 C 1248.4963,819.75049 1249,812.69063 1249,761 c 0,-51.69063 -0.5037,-58.75049 -6.5125,-91.27732 -9.6304,-52.13082 -30.9025,-109.98922 -57.4367,-156.22268 -27.1899,-47.37599 -66.0345,-94.47238 -106.4025,-129.00583 -51.3541,-43.93165 -107.59383,-75.72187 -171.02271,-96.67272 -100.04996,-33.04695 -209.20122,-33.04695 -309.25118,0 -63.42888,20.95085 -119.66864,52.74107 -171.02273,96.67272 -33.2686,28.46015 -64.26202,63.82296 -89.84031,102.50583 -13.49058,20.40225 -20.92411,33.48382 -32.10581,56.5 -56.87769,117.07585 -66.00026,249.76533 -25.58411,372.12559 20.95085,63.42888 52.74107,119.66861 96.67272,171.02271 28.46015,33.2686 63.82296,64.262 102.50583,89.8403 20.40225,13.4906 33.48382,20.9241 56.5,32.1058 56.00481,27.2082 113.30434,43.033 177,48.8831 19.66562,1.8061 59.51894,1.8195 79.84125,0.027 z M 715.5,1247.4775 c -62.75235,-5.7635 -120.67654,-21.6145 -175,-47.889 C 442.93388,1152.3989 361.60108,1071.0661 314.41152,973.5 282.49536,907.51218 265.01004,832.29923 265.01004,761 c 0,-71.29923 17.48532,-146.51218 49.40148,-212.5 C 361.60108,450.93388 442.93388,369.60108 540.5,322.41152 606.48782,290.49536 681.70077,273.01004 753,273.01004 c 71.29923,0 146.51218,17.48532 212.5,49.40148 97.5661,47.18956 178.8989,128.52236 226.0885,226.08848 23.1866,47.9392 38.1421,98.26488 45.4278,152.86637 1.7273,12.94511 1.9837,20.65192 1.9837,59.63363 0,48.37481 -0.571,56.11473 -6.5125,88.27732 -9.4902,51.37204 -30.2197,108.29416 -55.4356,152.22268 -49.1212,85.574 -124.1215,155.8012 -211.5519,198.0885 -66.89626,32.3555 -142.24391,49.669 -214.5,49.2881 -11.825,-0.062 -27.8,-0.6919 -35.5,-1.3991 z m 70.84125,-9.9732 c 51.54219,-4.5468 97.62379,-15.3695 144.65875,-33.9744 47.0571,-18.6137 91.2429,-45.7338 133.6481,-82.0299 47.5347,-40.6867 91.1049,-97.2123 117.9328,-153 22.2994,-46.37068 37.2778,-97.22497 44.4354,-150.86637 C 1228.7256,804.8236 1229,796.98994 1229,761 c 0,-35.98994 -0.2744,-43.8236 -1.9837,-56.63363 -7.1576,-53.6414 -22.136,-104.49569 -44.4354,-150.86637 -26.8279,-55.7877 -70.3981,-112.31333 -117.9328,-153 C 1022.2429,364.20394 978.0571,337.08377 931,318.47009 883.96504,299.86516 837.88344,289.04249 786.34125,284.49569 710.61366,277.81537 620.429,295.38615 545.5,331.41905 489.7123,358.24702 433.18667,401.81715 392.5,449.35192 356.20394,491.75709 329.08377,535.9429 310.47009,583 c -18.60493,47.03496 -29.4276,93.11656 -33.9744,144.65875 -6.68032,75.72759 10.89046,165.91225 46.92336,240.84125 21.70165,45.1277 55.53698,92.4556 92.58119,129.4998 37.04421,37.0442 84.37204,70.8795 129.49976,92.5811 74.79901,35.9704 165.24503,53.5921 240.84125,46.9234 z"
         id="path16" />
    </g>
  </g>
</svg>
