<?xml version="1.0" encoding="UTF-8" standalone="no"?>
<svg
   xmlns:dc="http://purl.org/dc/elements/1.1/"
   xmlns:cc="http://creativecommons.org/ns#"
   xmlns:rdf="http://www.w3.org/1999/02/22-rdf-syntax-ns#"
   xmlns:svg="http://www.w3.org/2000/svg"
   xmlns="http://www.w3.org/2000/svg"
   xmlns:sodipodi="http://sodipodi.sourceforge.net/DTD/sodipodi-0.dtd"
   xmlns:inkscape="http://www.inkscape.org/namespaces/inkscape"
   version="1.1"
   id="svg2"
   width="1045.0201"
   height="1337.8683"
   viewBox="0 0 1045.0201 1337.8683"
   sodipodi:docname="Rornhold.svg"
   inkscape:version="1.0.1 (3bc2e813f5, 2020-09-07)">
  <metadata
     id="metadata8">
    <rdf:RDF>
      <cc:Work
         rdf:about="">
        <dc:format>image/svg+xml</dc:format>
        <dc:type
           rdf:resource="http://purl.org/dc/dcmitype/StillImage" />
        <dc:title></dc:title>
      </cc:Work>
    </rdf:RDF>
  </metadata>
  <defs
     id="defs6" />
  <sodipodi:namedview
     pagecolor="#ffffff"
     bordercolor="#666666"
     borderopacity="1"
     objecttolerance="10"
     gridtolerance="10"
     guidetolerance="10"
     inkscape:pageopacity="0"
     inkscape:pageshadow="2"
     inkscape:window-width="1920"
     inkscape:window-height="1057"
     id="namedview4"
     showgrid="false"
     inkscape:pagecheckerboard="true"
     inkscape:zoom="0.49"
     inkscape:cx="521"
     inkscape:cy="675"
     inkscape:window-x="-8"
     inkscape:window-y="-8"
     inkscape:window-maximized="1"
     inkscape:current-layer="g10" />
  <g
     inkscape:groupmode="layer"
     inkscape:label="Image"
     id="g10"
     transform="translate(-229,-75)">
    <path
       style="fill:#ffffff"
       d="m 746.50005,1412.3132 c -41.03263,-9.331 -62.68596,-16.5936 -92.5,-31.025 -61.00572,-29.5295 -124.17873,-72.7834 -176.49892,-120.8469 -32.04111,-29.4342 -73.79887,-74.1114 -93.0354,-99.5397 -27.30251,-36.0905 -40.63474,-55.3014 -55.42188,-79.8595 -5.53252,-9.1882 -24.31414,-42.9176 -28.8975,-51.8961 -3.08632,-6.046 -17.9065,-38.56367 -20.34776,-44.64607 -9.16884,-22.84406 -17.51484,-46.71286 -22.72796,-64.99996 -1.72469,-6.05 -3.7834,-13.25 -4.57492,-16 -0.79153,-2.75 -2.34983,-9.4272 -3.4629,-14.8382 -1.11307,-5.411 -2.24539,-10.1968 -2.51628,-10.6351 C 245.80791,876.8801 241.1238,848.5268 239.4083,835 c -2.3305,-18.37597 -3.2009,-62.73455 -7.0545,-359.5 -0.8999,-69.3 -1.9613,-150.3 -2.3586,-180 -0.3973,-29.7 -0.7838,-91.4625 -0.8588,-137.25 L 229,75 h 522.51017 522.51003 l -0.3185,93.75 c -0.2857,84.07639 -1.6343,205.23622 -4.7499,426.75 -0.5724,40.7 -1.4572,107.075 -1.9662,147.5 -0.6433,51.08922 -1.3728,77.92118 -2.3926,88 -1.9111,18.88762 -5.3198,43.05626 -7.0518,50 -0.7546,3.025 -1.6683,7.52497 -2.0305,9.99997 -0.3621,2.475 -2.2349,11.025 -4.1616,19 -21.3804,88.49726 -62.5146,171.45033 -123.2244,248.50003 -41.0287,52.0714 -96.9145,105.7517 -152.62465,146.6011 -14.3811,10.545 -41.74547,28.9958 -53.74951,36.2414 -12.41366,7.4928 -35.89928,21.1043 -40.25049,23.3278 -2.2,1.1242 -8.275,4.296 -13.5,7.0485 -10.9124,5.7485 -52.6336,25.0096 -64.5,29.7773 -11.28932,4.5358 -22.85447,8.2611 -31.00854,9.9882 -6.52705,1.3826 -21.46216,1.8589 -25.99146,0.8289 z"
       id="path16-4"
       sodipodi:nodetypes="sssssssssssssssccccssssssssssssss" />
    <g
       id="g14">
      <path
         style="fill:#6a5036"
         d="m 747.5,1397.3659 c -1.1,-0.2935 -8.525,-2.1102 -16.5,-4.037 -14.18113,-3.4263 -43.32179,-12.5579 -45.43521,-14.2378 -0.58563,-0.4655 -2.18979,-1.1695 -3.56479,-1.5645 -9.88481,-2.8396 -55.24625,-26.5228 -80.49363,-42.0257 -38.40843,-23.5844 -81.22471,-56.0015 -114.98772,-87.0596 -31.22519,-28.7235 -71.38089,-71.776 -90.05297,-96.5493 -1.08112,-1.4344 -5.16475,-6.8344 -9.07472,-12 C 372.41681,1120.1091 345,1080.3764 345,1078.4586 c 0,-0.241 -1.93799,-3.4802 -4.30663,-7.1984 -4.3013,-6.7518 -19.26764,-33.5267 -26.13752,-46.7602 -8.80951,-16.9698 -21.37418,-45.6207 -27.62824,-63 -2.17713,-6.05 -4.39322,-11.9 -4.92464,-13 -2.13926,-4.42816 -9.57279,-28.27407 -14.18379,-45.5 -5.38628,-20.12222 -10.40509,-46.00163 -13.38121,-69 -2.36348,-18.26411 -3.21294,-61.3713 -7.08426,-359.5 -0.89989,-69.3 -1.96124,-150.3 -2.35856,-180 -0.39732,-29.7 -0.78377,-87.8625 -0.85877,-129.25 L 244,90 H 751.51101 1259.022 l -0.3203,85.75 c -0.288,77.08188 -1.7203,203.35442 -4.7499,418.75 -0.5724,40.7 -1.4594,107.075 -1.9711,147.5 -0.6328,50.00168 -1.3859,77.97587 -2.3555,87.5 -1.8887,18.55298 -5.4234,44.254 -6.6015,48 -0.5189,1.65 -1.4526,6.15 -2.0749,10 -3.7931,23.46617 -20.9517,80.84363 -29.9764,100.2391 -1.0848,2.33151 -1.9724,4.4937 -1.9724,4.80487 0,0.31116 -0.8471,2.45357 -1.8824,4.76089 -1.0354,2.30733 -3.3441,7.57014 -5.1305,11.69514 -5.0903,11.7539 -15.9112,33.2371 -24.9661,49.5662 -54.2018,97.7442 -138.5276,187.3593 -240.021,255.076 -32.89311,21.9464 -70.84629,43.5071 -97.5,55.3885 -2.75,1.2258 -9.275,4.2478 -14.5,6.7155 -19.07907,9.0107 -30.73693,13.7875 -44.5,18.234 -8.06746,2.6064 -12.02917,3.2973 -20.5,3.5752 -5.775,0.1894 -11.4,0.1041 -12.5,-0.1895 z m 28.17616,-28.8315 c 14.00942,-4.8244 18.67035,-6.7375 35.69245,-14.65 49.37254,-22.9503 77.23044,-38.4239 114.42101,-63.5551 74.54618,-50.3739 136.69088,-109.8711 187.83138,-179.8293 57.2817,-78.3592 96.3434,-172.47377 107.9116,-260 4.1387,-31.31398 4.539,-39.6352 5.461,-113.5 0.5046,-40.425 1.3858,-106.8 1.9582,-147.5 2.813,-199.99778 4.4554,-339.60366 4.7498,-403.75 L 1234.0264,115 H 751.51319 269 l 0.13638,60.25 c 0.075,33.1375 0.46145,84.55 0.85877,114.25 0.39732,29.7 1.45867,110.7 2.35856,180 3.86879,297.93416 4.72439,341.58104 7.03737,359 3.20107,24.10708 7.71007,47.92984 12.11346,64 6.95383,25.37802 9.17989,32.31042 18.7849,58.5 14.93644,40.72659 34.82973,79.8716 64.0325,126 8.51454,13.4495 21.69429,31.87 42.14374,58.9016 18.39,24.3093 56.54555,65.3269 86.12345,92.5835 50.91135,46.9158 110.44584,87.937 167.43634,115.3693 26.69758,12.8508 43.67509,19.0415 70.09149,25.5583 17.10015,4.2186 21.04119,4.1212 35.5592,-0.8783 z m -32.63143,-9.2645 c -15.3714,-3.6578 -35.93588,-10.185 -48.02406,-15.2428 -57.88996,-24.2218 -129.14295,-71.6709 -185.20232,-123.3308 -29.32048,-27.0195 -67.03288,-67.5782 -85.35267,-91.7947 -20.44945,-27.0316 -33.6292,-45.4521 -42.14374,-58.9016 -28.95193,-45.7322 -47.28422,-81.78648 -62.0325,-122 -9.60501,-26.18958 -11.83107,-33.12198 -18.7849,-58.5 -4.40339,-16.07016 -8.91239,-39.89292 -12.11346,-64 -2.31298,-17.41896 -3.16858,-61.06584 -7.03737,-359 -0.89989,-69.3 -1.96124,-150.3 -2.35856,-180 -0.39732,-29.7 -0.78377,-78.1875 -0.85877,-107.75 L 279,125 h 472.51443 472.51447 l -0.3273,64.25 c -0.2989,58.67109 -2.0638,206.28119 -4.7498,397.25 -0.5724,40.7 -1.4536,107.075 -1.9582,147.5 -0.922,73.8648 -1.3223,82.18602 -5.461,113.5 -9.4033,71.14626 -38.1276,149.95872 -78.3599,215 -62.1789,100.5213 -152.30898,186.223 -263.1727,250.2422 -27.20298,15.7086 -72.77386,37.2514 -96,45.3822 -14.1022,4.9368 -14.89899,4.9663 -30.95527,1.1455 z m 19.76051,-154.8498 c 4.03984,-4.901 5.02075,-8.6271 22.09243,-83.9201 C 799.91639,1054.2613 802,1043.6311 802,1033.2468 c 0,-5.1404 0.45943,-6.2919 5.50425,-13.796 6.62918,-9.8609 11.62552,-20.40985 14.70902,-31.05577 1.98418,-6.85046 2.28613,-10.14425 2.2822,-24.89503 -0.004,-15.98669 -0.1685,-17.46416 -2.75536,-24.78701 l -2.75083,-7.78702 29.75536,-36.88471 c 30.56123,-37.88367 34.57254,-43.45247 39.08634,-54.26247 2.27298,-5.4435 2.61823,-7.67564 2.59524,-16.77879 -0.0291,-11.51431 -0.97167,-14.78598 -9.2677,-32.16786 -2.2293,-4.67085 -7.40645,-17.45639 -11.50476,-28.4123 -4.09832,-10.95591 -13.57276,-35.99787 -21.05432,-55.64879 -12.0456,-31.63871 -18.5622,-51.62673 -18.59032,-57.02105 -0.0118,-2.25875 4.65773,-2.37208 7.77493,-0.1887 1.22599,0.85871 4.58862,2.0019 7.47251,2.54041 2.88389,0.53851 7.64949,1.424 10.59022,1.96775 2.94072,0.54375 6.99072,1.81171 9,2.81769 2.00927,1.00598 4.8734,2.12213 6.36474,2.48034 1.49133,0.35822 6.66633,2.48938 11.5,4.73592 4.83366,2.24654 10.13848,4.66275 11.78848,5.36935 8.13832,3.48519 18.5,8.82514 18.5,9.53409 0,0.43862 1.2375,1.29689 2.75,1.90725 1.5125,0.61037 4.41139,2.11689 6.44197,3.34783 2.03059,1.23094 6.19309,3.7336 9.25,5.56146 3.05692,1.82787 5.55803,3.74037 5.55803,4.25 0,0.50964 0.49754,0.92661 1.10564,0.92661 0.60811,0 2.52061,1.12295 4.25,2.49545 1.7294,1.37249 4.45401,3.50999 6.05469,4.75 1.60069,1.24 3.73819,3.04205 4.75,4.00455 1.01182,0.9625 2.2793,1.75 2.81662,1.75 0.53732,0 1.64304,1.01659 2.45715,2.25908 0.81412,1.2425 2.77265,3.02255 4.35229,3.95567 l 2.87209,1.69658 3.17076,-6.84356 C 970.57316,705.30381 972,701.07532 972,699.67112 c 0,-1.4042 0.39812,-2.79914 0.8847,-3.09986 0.48659,-0.30073 1.0979,-1.78979 1.35847,-3.30902 C 974.50374,691.74301 976.75049,682.4 979.23595,672.5 988.92964,633.88847 988.5,638.68852 988.5,569 c 0,-55.6935 -0.17062,-62.25532 -1.80708,-69.5 -0.9939,-4.4 -2.36854,-11.15 -3.05476,-15 -0.68622,-3.85 -1.78553,-7.98292 -2.44292,-9.18426 C 980.53786,474.1144 980,471.6169 980,469.76574 c 0,-1.85116 -0.38621,-3.79324 -0.85825,-4.31574 -0.47203,-0.5225 -1.43939,-3.875 -2.14969,-7.45 -0.71029,-3.575 -1.61164,-6.95 -2.00299,-7.5 -0.39135,-0.55 -0.96127,-2.62938 -1.26648,-4.62085 -0.30521,-1.99146 -1.49265,-5.67928 -2.63876,-8.19513 C 969.93772,435.16816 969,432.46514 969,431.67731 c 0,-4.18686 -6.23595,-4.03394 -9.21979,0.2261 -0.78189,1.1163 -3.26224,3.5072 -5.51189,5.31311 -2.24966,1.80592 -9.17283,7.49777 -15.38482,12.64856 -6.212,5.1508 -12.43956,9.84918 -13.83902,10.44084 -1.39947,0.59167 -3.4571,1.8745 -4.57253,2.85073 -2.74315,2.40081 -11.28292,7.21103 -16.47195,9.2782 -0.825,0.32865 -3.525,1.91726 -6,3.53022 -6.76274,4.40731 -13.35913,7.73526 -16.85342,8.50274 -1.718,0.37733 -3.38036,1.10144 -3.69413,1.60913 -0.31377,0.50768 -1.90357,0.92306 -3.53291,0.92306 -1.62933,0 -4.64027,1.07712 -6.69098,2.39361 -2.05071,1.31648 -6.20356,3.14049 -9.22856,4.05335 -3.025,0.91286 -6.26785,2.07728 -7.20633,2.58759 -0.93847,0.51032 -3.63847,1.19873 -6,1.52982 -2.36152,0.33108 -7.44367,1.43155 -11.29367,2.44549 -13.67886,3.60248 -20.09077,4.90983 -27.16598,5.539 -6.92597,0.6159 -7.22288,0.55039 -8.86519,-1.95608 -2.23262,-3.40741 -1.27197,-12.55598 1.59047,-15.14644 1.40596,-1.27238 1.9407,-3.07505 1.9407,-6.54231 0,-2.6323 -0.45,-5.06411 -1,-5.40403 -1.42674,-0.88178 -1.23946,-13.20976 0.24026,-15.81574 2.85029,-5.01971 3.40521,-9.02417 1.94801,-14.05731 -1.92291,-6.64167 -1.19239,-15.40805 1.61219,-19.34672 2.33012,-3.27236 2.93427,-9.1455 1.1267,-10.95307 -1.8883,-1.8883 -0.67731,-7.71742 1.83196,-8.81822 2.66523,-1.16921 2.87778,-1.74232 4.23948,-11.43164 C 812.15457,387.85191 813.16557,386 816.5,386 c 1.24031,0 2.79308,-0.64821 3.45059,-1.44047 1.9842,-2.39082 15.00698,-8.55953 18.07003,-8.55953 1.57374,0 3.13946,-0.45 3.47938,-1 0.33992,-0.55 1.75532,-1 3.14533,-1 1.39002,0 5.75096,-0.89806 9.69099,-1.99568 3.94002,-1.09763 11.43868,-3.07455 16.66368,-4.39317 5.225,-1.31862 12.2,-3.38955 15.5,-4.60206 3.3,-1.21252 8.42823,-2.49809 11.39606,-2.85683 7.98222,-0.96487 9.62898,-3.59346 9.5224,-15.19985 -0.0448,-4.88375 -0.65995,-11.48344 -1.36689,-14.66598 C 902.81492,315.71549 897.74654,297.1158 895.96219,293.2609 894.88299,290.92939 894,288.54455 894,287.96124 c 0,-1.9904 -3.21867,-7.45572 -6.30812,-10.71124 -3.36185,-3.54256 -5.9983,-4.01141 -10.36084,-1.8425 -4.12343,2.05003 -7.0979,3.263 -13.83104,5.64019 -5.41145,1.91057 -9.05766,2.93447 -22,6.17786 -2.2,0.55133 -4.9,1.36882 -6,1.81665 -2.2877,0.93136 -8.88618,2.32055 -19,4.00008 -3.85,0.63934 -9.22081,1.57949 -11.93514,2.08923 -7.61948,1.43089 -8.06486,0.57521 -8.06486,-15.4945 0,-13.16466 -0.0281,-13.32894 -2.94966,-17.21426 -5.56929,-7.40661 -17.49412,-18.47705 -22.74278,-21.1133 -3.68636,-1.85155 -7.36188,-2.77375 -12.32443,-3.09223 -6.38438,-0.40972 -7.65956,-0.15695 -13.12412,2.60155 C 739.68919,243.68089 728,253.79176 728,255.8339 c 0,0.50666 -0.7362,1.5322 -1.63601,2.27898 -0.8998,0.74677 -2.80488,3.16437 -4.23352,5.37244 -2.40092,3.71083 -2.62514,5.01885 -2.96253,17.28223 -0.33265,12.09101 -0.54439,13.36355 -2.38773,14.35008 -2.03318,1.08812 -8.8534,0.6805 -17.78021,-1.06268 -2.475,-0.48331 -7.2,-1.3929 -10.5,-2.02132 -3.3,-0.62842 -6.9,-1.51678 -8,-1.97412 -2.8843,-1.19921 -9.37098,-2.87067 -13.9986,-3.60709 -2.19922,-0.34997 -6.57316,-1.71994 -9.71986,-3.04437 C 653.63484,282.08362 649.97681,281 648.65258,281 c -1.32423,0 -2.96789,-0.675 -3.65258,-1.5 -0.68469,-0.825 -2.00378,-1.5 -2.93132,-1.5 -0.92753,0 -2.55993,-0.66069 -3.62755,-1.4682 -5.44959,-4.12186 -11.55664,1.00336 -16.7918,14.09218 -2.00713,5.0182 -3.64933,9.80426 -3.64933,10.6357 0,0.83144 -0.67223,2.80064 -1.49384,4.37601 -0.82161,1.57537 -1.49661,4.30025 -1.5,6.05529 -0.003,1.75504 -0.39006,3.42825 -0.85927,3.71824 -0.46921,0.28998 -1.43158,4.02904 -2.13861,8.30901 -0.70703,4.27997 -1.67314,8.20927 -2.1469,8.73177 -1.23374,1.36067 -1.06545,19.66616 0.21456,23.338 1.10752,3.17704 1.53796,3.36947 10.58183,4.73079 2.28677,0.34421 4.98677,1.25399 6,2.02172 1.01323,0.76774 3.2046,1.41019 4.86972,1.42769 1.66513,0.0175 3.91513,0.61314 5,1.32367 1.08488,0.71053 6.47251,2.34538 11.97251,3.63301 5.5,1.28763 10.9,2.67511 12,3.08329 2.7369,1.01559 15.05204,3.77642 20.29023,4.5487 2.38672,0.35188 6.57769,2.17187 9.44584,4.10199 2.83559,1.90821 6.42846,3.72405 7.98416,4.03519 3.13214,0.62642 6.77977,5.00267 6.77977,8.13403 0,4.1138 2.39225,12.73484 4.07131,14.67192 1.25158,1.44391 1.83023,4.22435 2.08114,10 0.2749,6.32776 0.81787,8.65936 2.59755,11.15437 2.71283,3.80323 3.15945,12.34596 0.75,14.34563 -0.99721,0.82761 -1.5,3.06976 -1.5,6.68917 0,4.31363 0.5366,6.1478 2.58385,8.83188 2.35434,3.0867 2.5373,3.99122 2.05983,10.18327 -0.28822,3.73763 -0.8207,8.68179 -1.1833,10.98703 -0.50919,3.23722 -0.1676,5.17583 1.50055,8.51598 1.6068,3.21729 2.08035,5.7288 1.84945,9.80864 L 719.5,503.5 l -3.82441,0.3148 c -2.10343,0.17314 -6.82843,-0.41019 -10.5,-1.29629 -24.34887,-5.87636 -32.02777,-7.87118 -34.67559,-9.00801 -1.65,-0.70842 -4.125,-1.6144 -5.5,-2.01329 -1.375,-0.39889 -3.90312,-1.57394 -5.61803,-2.61123 C 657.66705,487.84869 655.46845,487 654.49619,487 c -2.66003,0 -17.6883,-7.26451 -27.81786,-13.44687 C 623.47641,471.59891 620.3673,470 619.7692,470 c -0.59811,0 -3.381,-1.73163 -6.1842,-3.84808 -2.80321,-2.11644 -6.5566,-4.60299 -8.34087,-5.52568 C 603.45986,459.70356 602,458.5102 602,457.97432 602,457.43844 601.406,457 600.68,457 c -0.726,0 -3.0885,-1.50007 -5.25,-3.33348 -2.1615,-1.83342 -4.6997,-3.75384 -5.64045,-4.26762 -2.47252,-1.35033 -19.5881,-16.16219 -24.28955,-21.02023 -5.49853,-5.68167 -7.84806,-6.7988 -9.66726,-4.59649 -1.99967,2.42077 -3.619,6.20942 -4.15355,9.71782 -0.56635,3.7171 -5.39183,16.61264 -6.70947,17.93028 -0.53335,0.53335 -0.96972,2.14956 -0.96972,3.59158 0,1.44202 -0.62222,4.61452 -1.38272,7.05 -5.30174,16.97873 -10.84367,42.19734 -12.62017,57.42814 -0.51321,4.4 -1.4391,12.05 -2.05755,17 -1.4817,11.85957 -1.45694,67.53788 0.0349,78.5 3.1099,22.85149 4.82655,33.82352 6.49297,41.5 0.83576,3.85 1.99336,9.65608 2.57244,12.90241 0.57908,3.24632 1.50889,6.75448 2.06625,7.79591 0.55735,1.04143 1.93838,5.58535 3.06893,10.09759 1.13056,4.51225 2.38385,8.65409 2.78508,9.20409 0.40123,0.55 1.31568,3.25 2.0321,6 0.71643,2.75 1.68626,5.4275 2.15518,5.95 0.46891,0.5225 0.85257,2.435 0.85257,4.25 0,5.06549 3.56098,4.43755 11.05827,-1.95 3.38915,-2.8875 7.05136,-5.76086 8.13824,-6.38525 1.08688,-0.62439 3.77679,-2.64939 5.97757,-4.5 2.20079,-1.85061 5.48385,-4.60225 7.29569,-6.11475 1.81184,-1.5125 3.95261,-2.75 4.75726,-2.75 0.80465,0 2.27748,-0.9 3.27297,-2 0.99549,-1.1 2.33679,-2 2.98067,-2 0.64389,0 2.22758,-1.125 3.51933,-2.5 1.29175,-1.375 3.11509,-2.5 4.05187,-2.5 0.93678,0 2.27669,-0.69096 2.97757,-1.53547 0.70088,-0.84452 4.69348,-3.1216 8.87245,-5.0602 4.17896,-1.9386 8.27311,-3.92703 9.09811,-4.41874 0.825,-0.49171 4.425,-2.29813 8,-4.01427 3.575,-1.71614 7.69443,-3.76175 9.15429,-4.54579 1.45986,-0.78404 3.79581,-1.42553 5.19099,-1.42553 1.39518,0 2.77442,-0.38466 3.06499,-0.85481 0.59987,-0.97061 9.18899,-4.08364 18.08973,-6.55642 3.3,-0.9168 8.7,-2.55388 12,-3.63796 7.33795,-2.41058 8.50254,-2.43812 8.49088,-0.20081 -0.0281,5.3938 -6.54444,25.38185 -18.58949,57.02105 -7.48111,19.65092 -17.63775,46.52895 -22.57031,59.72895 -4.93256,13.2 -9.54769,24.9 -10.25583,26 -3.13958,4.87687 -5.05921,15.90118 -5.04967,29 0.011,15.15222 1.37945,19.73354 9.49959,31.80367 5.71693,8.49789 13.15349,16.31055 41.75146,43.86299 l 21.27663,20.49877 -2.99057,7.02772 c -9.44122,22.18655 -12.24677,46.31446 -7.54411,64.87994 2.40808,9.50676 8.7711,21.36181 15.28463,28.47711 l 5.90436,6.4498 0.53606,9.5 c 0.40981,7.2627 4.44293,26.9273 17.12546,83.5 18.30775,81.665 17.50844,78.3794 20.49054,84.2248 3.67991,7.2133 7.50933,8.0773 11.94561,2.6953 z m -6.65695,-11.1701 c -0.50714,-0.9625 -1.6336,-5.2161 -2.50323,-9.4524 -0.86963,-4.2364 -8.00502,-37.0864 -15.85641,-73 l -14.27527,-65.2976 0.0153,-13 c 0.0176,-14.9763 1.91068,-23.6549 8.61635,-39.5 6.78213,-16.02579 6.02232,-15.72986 12.93636,-5.03848 l 5.91452,9.14578 -1.62264,3.1378 C 744.47895,1009.7096 740,1028.857 740,1040.3154 c 0,17.6219 10.20725,30.4115 21.33905,26.7377 4.95148,-1.6341 8.24005,-5.9275 10.60409,-13.844 1.10192,-3.69 2.68751,-7.6809 3.52352,-8.8686 1.23992,-1.7616 15.47639,-10.3405 17.15978,-10.3405 1.2125,0 -1.36669,15.0264 -7.29486,42.5 -18.2165,84.4227 -25.30344,116.6455 -25.84849,117.5274 -0.91931,1.4874 -2.31259,1.1626 -3.3348,-0.7774 z m -3.65942,-160.6266 c -1.41194,-2.1549 -1.40566,-3.1106 0.0673,-10.2418 0.89352,-4.3258 1.80179,-8.1518 2.01839,-8.5023 0.21659,-0.3505 2.3978,-0.4113 4.84713,-0.1352 7.15214,0.8061 11.00585,-0.4239 16.3326,-5.2131 C 784.73962,1000.4524 791,984.32704 791,969.26143 v -7.41865 l 6.16382,-7.67139 C 804.37061,945.20193 810.09325,939 811.16277,939 c 1.88092,0 5.05347,13.9992 5.56401,24.55177 0.87056,17.99396 -2.45851,30.5144 -12.00925,45.16603 -9.67129,14.8367 -19.56685,21.4283 -36.59898,24.3795 -13.59207,2.3551 -13.77978,2.3494 -15.62968,-0.4739 z m -41.84984,-24.434 c -7.83657,-10.67555 -11.37923,-20.95653 -12.33076,-35.78454 -1.23697,-19.27629 5.28227,-43.30086 16.50856,-60.83696 3.91504,-6.1155 14.56363,-19.68709 17.97544,-22.90962 l 3.00864,-2.84172 3.93778,5.84172 c 6.53789,9.69901 9.45554,15.21843 8.69509,16.44887 -0.39667,0.64182 -3.69404,4.88065 -7.3275,9.41962 -17.92995,22.39838 -22.51132,36.96308 -18.6111,59.16692 l 1.75901,10.01401 -2.64653,6.61529 c -1.4556,3.63841 -3.41735,9.55421 -4.35945,13.14611 -0.9421,3.592 -2.02003,6.5309 -2.39539,6.5309 -0.37537,0 -2.27157,-2.1648 -4.21379,-4.8106 z m 51.27214,-13.47808 C 752.25951,983.59102 730,954.06157 730,952.37798 c 0,-0.74627 2.5116,-5.8534 5.58133,-11.34918 l 5.58132,-9.99234 3.76769,3.0278 c 11.31072,9.08954 34.12096,42.62472 34.02577,50.02402 -0.0776,6.03096 -5.28732,17.04002 -8.68709,18.35742 -0.67704,0.2623 -4.43807,-3.21816 -8.35785,-7.73438 z M 771.25,951.08158 c -3.9875,-5.45109 -7.25,-10.32572 -7.25,-10.83252 0,-1.19363 20.17233,-28.74434 30.84052,-42.12098 20.20597,-25.33588 31.22902,-45.62626 34.75049,-63.96605 1.77161,-9.22647 1.75305,-13.87402 -0.0901,-22.57447 -2.95229,-13.93578 -9.98635,-25.5535 -25.57754,-42.2448 C 791.01271,755.52118 782.53868,744.24612 776.6091,733.00003 772.09806,724.44433 767,711.26867 767,708.16581 c 0,-0.81614 1.94377,-3.32482 4.31949,-5.57485 5.96946,-5.65363 13.41734,-15.46185 16.39511,-21.59096 0.76319,-1.57086 1.32068,-8.71269 1.5,-19.21621 0.35906,-21.03071 -0.15993,-20.283 12.95943,-18.67073 l 9.54291,1.17276 0.54189,14.10709 c 1.22647,31.92903 13.13897,65.20644 36.73082,102.60709 19.77858,31.35539 25.99257,45.64215 26.74929,61.5 0.9035,18.9338 -4.27,28.52163 -34.26402,63.5 -13.6151,15.87764 -30.98082,36.89852 -51.84898,62.76222 -5.43074,6.73078 -10.15574,12.23613 -10.5,12.2341 -0.34427,-0.002 -3.88844,-4.46365 -7.87594,-9.91474 z M 732.62062,864.75 c -19.11521,-28.1875 -35.4764,-52.44211 -36.35819,-53.89914 -1.58667,-2.62172 -1.53512,-2.73038 4.98109,-10.5 3.6214,-4.31797 8.61845,-9.82796 11.10455,-12.24442 l 4.52019,-4.39356 7.38661,11.39356 C 740.74238,820.53779 784,892.79023 784,894.89768 c 0,1.16177 -15.11077,20.96668 -16.06223,21.05194 -0.30922,0.0277 -16.20194,-23.01212 -35.31715,-51.19962 z m -52.32968,20.44685 c -13.86498,-13.58327 -27.018,-27.34541 -29.22892,-30.58254 -13.04602,-19.10137 -12.55604,-41.75488 1.49371,-69.05909 2.46184,-4.78433 8.77965,-15.52898 14.03958,-23.877 23.94826,-38.00821 35.65619,-70.52017 37.09532,-103.01063 0.71094,-16.05067 0.0824,-15.25126 12.83891,-16.32958 7.26013,-0.6137 7.27906,-0.60879 8.76313,2.27348 1.04877,2.03684 1.61765,7.3112 1.92943,17.88851 0.49568,16.81616 1.54916,20.47168 8.18348,28.39607 2.02422,2.41784 4.07063,5.11784 4.54758,6 0.47695,0.88216 2.67933,3.56068 4.89418,5.95226 l 4.027,4.34834 -3.02879,8.65166 c -6.2694,17.90839 -13.54769,29.01122 -34.84555,53.15594 -15.69329,17.79099 -22.52581,26.82389 -26.19885,34.63603 -9.32296,19.82887 -3.7595,35.25761 26.32184,72.99644 4.88235,6.12521 8.87701,11.3884 8.87701,11.69597 0,0.30758 -2.8125,4.57751 -6.25,9.48875 -3.4375,4.91123 -6.7,9.63663 -7.25,10.50088 -0.8219,1.2915 -5.48965,-2.82707 -26.20906,-23.12549 z m 90.80234,-28.25898 -7.12024,-11.06214 8.06509,-14.18786 c 7.79541,-13.71344 22.96822,-43.83679 24.39764,-48.43787 0.38445,-1.2375 1.07993,-2.25 1.54551,-2.25 C 800.05133,781 817,804.80079 817,807.70772 817,811.76698 781.51252,868 778.9508,868 c -0.4055,0 -3.94139,-4.97796 -7.85752,-11.06213 z M 888.5,627.43705 c -12.49333,-2.69348 -24.43429,-7.6929 -34.82204,-14.57922 -13.90093,-9.21531 -19.77256,-13.96782 -29.17796,-23.61674 -5.5,-5.64241 -10.54879,-10.25491 -11.21953,-10.25 -0.67074,0.005 -3.42215,3.27141 -6.11424,7.25891 -8.25421,12.22602 -16.53576,19.28464 -30.05146,25.61374 -5.37404,2.51655 -6.27236,2.6208 -20.95236,2.43141 -8.43567,-0.10882 -16.98567,-0.71969 -19,-1.35749 -8.93978,-2.83061 -18.98318,-9.97881 -29.62683,-21.08631 l -10.54774,-11.00742 -11.74392,9.42381 c -27.39667,21.98424 -52.15265,34.59453 -71.43214,36.38637 -6.87655,0.63911 -20.29148,-1.05295 -22.26178,-2.80793 C 591.0275,623.38078 589.86345,623 588.96321,623 c -2.71786,0 -19.2148,-17.87927 -22.14444,-24 -5.71945,-11.94929 -8.32322,-24.78318 -7.52566,-37.09365 0.52607,-8.12002 0.99102,-9.75343 4.69989,-16.51119 6.37307,-11.61206 10.89873,-16.50271 22.37258,-24.17688 6.01002,-4.01975 8.75679,-5.2146 13.2894,-5.78091 7.79125,-0.97345 24.25128,0.21805 30.07003,2.1767 18.09455,6.09081 44.33754,22.39064 58.8449,36.54927 l 9.06992,8.85189 6.77454,-7.67565 c 7.9866,-9.04892 13.38364,-13.66443 21.86783,-18.70122 10.26796,-6.09576 17.2716,-7.83015 32.2178,-7.97847 l 13,-0.129 8,3.77806 c 7.19103,3.39602 9.33278,5.15585 21.17994,17.40305 12.26531,12.67947 13.31519,13.52655 15.12891,12.20649 1.07193,-0.78017 6.67617,-5.52871 12.45386,-10.55232 18.24668,-15.86519 27.68761,-21.31516 49.73729,-28.71186 21.15566,-7.0968 38.60386,-8.44495 48.3342,-3.73457 8.92212,4.31912 19.90316,17.64396 23.74658,28.81506 1.62611,4.72637 1.917,8.41792 1.90467,24.17175 -0.0151,19.29557 -0.49456,22.29057 -4.97394,31.07089 -3.48304,6.82733 -10.79815,12.87932 -22.98711,19.01789 -13.30875,6.70252 -22.87757,8.16829 -35.5244,5.44172 z m 21,-9.07582 c 15.77438,-3.96867 30.0869,-17.61155 33.07046,-31.5232 5.34182,-24.90772 -7.82022,-48.83878 -31.30526,-56.91881 -11.35052,-3.90515 -24.08884,-1.91216 -39.92291,6.24622 -30.15402,15.53661 -53.94796,32.58289 -53.1594,38.08405 0.18874,1.31663 2.91763,4.24408 6.74088,7.23135 3.53307,2.76054 11.40807,9.00388 17.5,13.87408 11.33367,9.06074 22.01233,15.18938 31.64711,18.16275 2.98601,0.92151 7.22912,2.36435 9.42912,3.20632 3.52898,1.35059 9.57522,2.37375 17.5,2.96139 1.375,0.10196 5.2,-0.49391 8.5,-1.32415 z m -16.82882,-25.96238 c -6.43176,-1.64076 -8.93869,-3.47323 -12.07649,-8.82749 -5.39983,-9.21411 -2.41099,-21.96166 6.61595,-28.21733 3.2638,-2.26182 5.00939,-2.72903 10.19616,-2.72903 5.20656,0 7.08451,0.50666 11.17569,3.01515 7.24975,4.44516 9.61448,9.07213 9.12773,17.85985 -0.56565,10.21233 -4.00899,15.96133 -11.46521,19.14235 -3.66318,1.5628 -6.70717,1.5082 -13.57383,-0.2435 z m -269.48123,22.20159 c 10.21284,-2.13681 16.2209,-4.3149 29.31005,-10.62571 9.48138,-4.57135 13.87589,-7.43214 20.93769,-13.63021 C 682.1546,582.69378 693,570.89568 693,569.06378 693,567.79382 673.34886,550.88057 664.48092,544.51812 655.54125,538.1042 639.42987,529.76693 632,527.71 c -8.0348,-2.22441 -21.405,-3.01388 -29.37691,-1.73462 -6.20804,0.99621 -7.58281,1.68036 -14.13459,7.03402 -9.34744,7.63807 -13.71651,13.82225 -16.91216,23.93827 -4.68159,14.81987 -3.2866,27.34585 4.26834,38.32658 1.73543,2.52235 3.15532,5.03739 3.15532,5.58898 0,1.28988 7.33478,7.266 12.5,10.18457 8.93273,5.04737 19.0988,6.18705 31.68995,3.55264 z m -12.00571,-22.66909 c -5.48775,-1.08021 -10.51021,-4.18109 -13.8374,-8.54327 -2.40384,-3.1516 -2.60027,-4.14735 -2.48296,-12.58695 0.14856,-10.68783 1.6926,-13.88702 9.13612,-18.92968 4.23448,-2.86867 4.9485,-3.02409 12.1013,-2.63398 8.89925,0.48536 12.04483,2.24824 16.78736,9.40815 4.09947,6.18907 4.78124,10.38791 2.73878,16.86734 -2.76255,8.7638 -12.25148,17.75213 -18.34532,17.37747 -0.98017,-0.0603 -3.72421,-0.49184 -6.09788,-0.95908 z m 156.94281,13.60066 c 5.93401,-0.52409 13.3232,-4.10707 19.90246,-9.6506 5.78736,-4.87629 17.51013,-18.03336 20.23562,-22.71149 l 1.76513,-3.02973 -4.98125,-5.98558 c -18.59524,-22.34445 -54.47789,-32.67363 -72.15356,-20.77014 -5.6165,3.78237 -20.4672,16.96741 -25.79103,22.8983 -3.04999,3.39776 -3.27656,4.04401 -2.22612,6.34946 2.04647,4.49153 18.00599,21.95778 23.41287,25.62328 12.22906,8.29048 17.48493,9.25052 39.83588,7.2765 z M 753,468.73016 c -3.16573,-1.63186 -5.24665,-5.89925 -4.44132,-9.10793 2.28991,-9.12372 15.84132,-7.51739 15.84132,1.87777 0,6.01407 -6.169,9.9266 -11.4,7.23016 z m -1,-28 c -3.16573,-1.63186 -5.24665,-5.89925 -4.44132,-9.10793 2.28991,-9.12372 15.84132,-7.51739 15.84132,1.87777 0,6.01407 -6.169,9.9266 -11.4,7.23016 z m 0,-31 c -3.16573,-1.63186 -5.24665,-5.89925 -4.44132,-9.10793 2.28991,-9.12372 15.84132,-7.51739 15.84132,1.87777 0,6.01407 -6.169,9.9266 -11.4,7.23016 z m -80.19027,-59.41675 c -0.65394,-1.54738 -1.46574,-8.21341 -1.804,-14.81341 -0.69588,-13.57777 -2.12006,-17.71094 -7.32218,-21.25 -3.97925,-2.70713 -10.62164,-2.9919 -14.25513,-0.61114 -4.548,2.97996 -7.39815,10.93765 -8.20463,22.90752 -0.58133,8.62817 -1.06824,10.95919 -2.47379,11.843 -1.2767,0.80278 -2.2233,0.7973 -3.5,-0.0203 -2.75176,-1.76219 -2.26587,-21.75594 0.7202,-29.6347 C 639.22339,307.51232 644.04894,304 655.21369,304 c 6.68735,0 7.7533,0.29651 12.45935,3.46575 7.71508,5.19564 10.07305,10.79926 10.74466,25.53425 0.28829,6.325 0.64974,13.3 0.80323,15.5 0.26855,3.84926 0.15657,4.01181 -2.97157,4.31341 -2.75416,0.26553 -3.43225,-0.11631 -4.43963,-2.5 z m 165.64899,0.28007 c -1.75325,-1.28201 -1.81443,-1.81444 -0.69113,-6.01435 0.67783,-2.53431 1.23241,-9.01302 1.23241,-14.39714 0,-12.61467 2.56102,-18.48635 10.35135,-23.73267 4.67906,-3.15106 5.75431,-3.44932 12.43496,-3.44932 11.16475,0 15.9903,3.51232 20.24349,14.7344 2.98607,7.87876 3.47196,27.87251 0.7202,29.6347 -1.2767,0.81758 -2.2233,0.82306 -3.5,0.0203 -1.40555,-0.88381 -1.89246,-3.21483 -2.47379,-11.843 -0.80648,-11.96987 -3.65663,-19.92756 -8.20463,-22.90752 -3.63349,-2.38076 -10.27588,-2.09599 -14.25513,0.61114 -5.20212,3.53906 -6.6263,7.67223 -7.32218,21.25 -0.84404,16.46848 -2.85008,20.25079 -8.53555,16.09348 z m -89.15725,-51.2386 C 740.06648,296.43783 733,286.34487 733,277.5 c 0,-12.05097 11.44903,-23.5 23.5,-23.5 5.379,0 12.24992,2.98521 16.38235,7.11765 9.22896,9.22895 9.22896,23.53575 0,32.7647 -6.55449,6.5545 -15.74814,8.60131 -24.58088,5.47253 z M 229.30987,271.5 c 0.006,-3.3 0.1923,-4.52944 0.41486,-2.73209 0.22256,1.79735 0.21797,4.49735 -0.0102,6 -0.22818,1.50265 -0.41027,0.0321 -0.40466,-3.26791 z"
         id="path18" />
      <path
         style="fill:#000000"
         d="m 746.5,1412.3132 c -41.03263,-9.331 -62.68596,-16.5936 -92.5,-31.025 -61.00572,-29.5295 -124.17873,-72.7834 -176.49892,-120.8469 -32.04111,-29.4342 -73.79887,-74.1114 -93.0354,-99.5397 -27.30251,-36.0905 -40.63474,-55.3014 -55.42188,-79.8595 -5.53252,-9.1882 -24.31414,-42.9176 -28.8975,-51.8961 -3.08632,-6.046 -17.9065,-38.56362 -20.34776,-44.646 -9.16884,-22.84409 -17.51484,-46.71293 -22.72796,-65 -1.72469,-6.05 -3.7834,-13.25 -4.57492,-16 -0.79153,-2.75 -2.34983,-9.4272 -3.4629,-14.83821 -1.11307,-5.41102 -2.24539,-10.19682 -2.51628,-10.63512 -0.70862,-1.14657 -5.39273,-29.49987 -7.10822,-43.02667 -2.33048,-18.37597 -3.20094,-62.73455 -7.05455,-359.5 -0.89989,-69.3 -1.96124,-150.3 -2.35856,-180 -0.39732,-29.7 -0.78377,-91.4625 -0.85877,-137.25 L 229,75 h 522.51012 522.51008 l -0.3185,93.75 c -0.2857,84.07639 -1.6343,205.23622 -4.7499,426.75 -0.5724,40.7 -1.4572,107.075 -1.9662,147.5 -0.6433,51.08922 -1.3728,77.92118 -2.3926,88 -1.9111,18.88762 -5.3198,43.05626 -7.0518,50 -0.7546,3.025 -1.6683,7.525 -2.0305,10 -0.3621,2.475 -2.2349,11.025 -4.1616,19 -21.3804,88.49725 -62.5146,171.4503 -123.2245,248.5 -41.0287,52.0714 -96.9145,105.7517 -152.6246,146.6011 -14.3811,10.545 -41.74547,28.9958 -53.74951,36.2414 -12.41366,7.4928 -35.89928,21.1043 -40.25049,23.3278 -2.2,1.1242 -8.275,4.296 -13.5,7.0485 -10.9124,5.7485 -52.6336,25.0096 -64.5,29.7773 -11.28932,4.5358 -22.85447,8.2611 -31.00854,9.9882 -6.52705,1.3826 -21.46216,1.8589 -25.99146,0.8289 z m 34,-18.333 c 13.76307,-4.4465 25.42093,-9.2233 44.5,-18.234 5.225,-2.4677 11.75,-5.4897 14.5,-6.7155 12.83315,-5.7206 35.90113,-17.7276 51.5,-26.806 66.57023,-38.7433 121.1177,-80.9627 173.5867,-134.355 45.2072,-46.0027 82.9262,-96.0904 112.4343,-149.3035 9.0549,-16.3291 19.8758,-37.8123 24.9661,-49.5662 1.7864,-4.125 4.0951,-9.38781 5.1305,-11.69514 1.0353,-2.30732 1.8824,-4.44973 1.8824,-4.76089 0,-0.31117 0.8876,-2.47336 1.9724,-4.80487 2.1488,-4.61809 9.285,-24.38108 14.5298,-40.2391 5.776,-17.46377 12.6027,-43.79543 15.037,-58 0.8484,-4.95 1.9667,-10.35 2.4852,-12 1.1777,-3.7475 4.7129,-29.45483 6.6008,-48 0.9696,-9.52413 1.7227,-37.49832 2.3555,-87.5 0.5117,-40.425 1.3987,-106.8 1.9711,-147.5 3.0296,-215.39558 4.4619,-341.66812 4.7499,-418.75 L 1259.022,90 H 751.35102 243.68001 l 0.64714,128.57469 c 0.35593,70.71608 0.92147,129.01856 1.25675,129.56107 0.33529,0.5425 1.23879,57.54639 2.00779,126.6753 2.91236,261.80611 4.40961,340.35926 6.84628,359.18894 3.663,28.30632 11.2576,64.49627 18.04742,86 4.59104,14.54008 8.72778,26.78466 9.96635,29.5 0.75263,1.65 1.90288,5.025 2.55611,7.5 0.65323,2.475 1.52992,4.95 1.9482,5.5 0.41828,0.55 1.46738,3.025 2.33134,5.5 6.32575,18.12154 22.11705,51.3737 37.99163,80 20.6551,37.2469 34.56429,58.1351 69.18666,103.9016 19.01507,25.1356 58.82833,67.8167 90.05297,96.5397 50.79747,46.7278 113.50253,89.9784 170.98135,117.9338 6.6,3.21 13.575,6.6371 15.5,7.6159 1.925,0.9787 4.625,2.1089 6,2.5116 1.375,0.4026 4.85052,1.7927 7.72337,3.089 2.87286,1.2963 6.47286,2.6556 8,3.0206 1.52715,0.3649 3.22663,0.9904 3.77663,1.3899 1.42552,1.0354 19.82464,6.2721 34.5,9.8192 6.875,1.6618 13.4,3.2592 14.5,3.5499 1.1,0.2907 6.725,0.3736 12.5,0.1842 8.47083,-0.2779 12.43254,-0.9688 20.5,-3.5752 z"
         id="path16" />
    </g>
  </g>
</svg>
