<?xml version="1.0" encoding="UTF-8" standalone="no"?>
<svg
   xmlns:dc="http://purl.org/dc/elements/1.1/"
   xmlns:cc="http://creativecommons.org/ns#"
   xmlns:rdf="http://www.w3.org/1999/02/22-rdf-syntax-ns#"
   xmlns:svg="http://www.w3.org/2000/svg"
   xmlns="http://www.w3.org/2000/svg"
   xmlns:sodipodi="http://sodipodi.sourceforge.net/DTD/sodipodi-0.dtd"
   xmlns:inkscape="http://www.inkscape.org/namespaces/inkscape"
   version="1.1"
   id="svg2"
   width="1044.7208"
   height="1337.2346"
   viewBox="0 0 1044.7208 1337.2346"
   sodipodi:docname="Roskrhold.svg"
   inkscape:version="1.0.1 (3bc2e813f5, 2020-09-07)">
  <metadata
     id="metadata8">
    <rdf:RDF>
      <cc:Work
         rdf:about="">
        <dc:format>image/svg+xml</dc:format>
        <dc:type
           rdf:resource="http://purl.org/dc/dcmitype/StillImage" />
        <dc:title></dc:title>
      </cc:Work>
    </rdf:RDF>
  </metadata>
  <defs
     id="defs6" />
  <sodipodi:namedview
     pagecolor="#ffffff"
     bordercolor="#666666"
     borderopacity="1"
     objecttolerance="10"
     gridtolerance="10"
     guidetolerance="10"
     inkscape:pageopacity="0"
     inkscape:pageshadow="2"
     inkscape:window-width="1920"
     inkscape:window-height="1057"
     id="namedview4"
     showgrid="false"
     inkscape:pagecheckerboard="true"
     inkscape:zoom="0.49"
     inkscape:cx="521.12518"
     inkscape:cy="674.17547"
     inkscape:window-x="-8"
     inkscape:window-y="-8"
     inkscape:window-maximized="1"
     inkscape:current-layer="g10" />
  <g
     inkscape:groupmode="layer"
     inkscape:label="Image"
     id="g10"
     transform="translate(-229.11973,-75.633604)">
    <path
       style="fill:#ffffff;fill-opacity:1"
       d="m 746.5,1412.3132 c -40.33262,-9.0517 -62.49618,-16.485 -92.5,-31.0232 -61.1215,-29.616 -124.18829,-72.7999 -176.49892,-120.8546 -32.04111,-29.4342 -73.79887,-74.1114 -93.0354,-99.5397 -27.73724,-36.6652 -40.38969,-54.895 -55.39078,-79.808 -5.5569,-9.2287 -24.3334,-42.9459 -28.9286,-51.9476 -3.1406,-6.1523 -18.1098,-38.94184 -19.6971,-43.14602 -0.7269,-1.925 -2.742,-6.875 -4.4781,-11 -3.285,-7.80519 -4.9543,-12.44198 -11.7007,-32.5 -7.8298,-23.27935 -10.2826,-31.95819 -14.807,-52.39336 -1.3874,-6.26635 -2.7288,-11.72715 -2.981,-12.13512 -0.6835,-1.10602 -5.4037,-29.79565 -7.0699,-42.97152 -2.4309,-19.22263 -4.1589,-109.01719 -6.3216,-328.5 -0.5854,-59.4 -1.5194,-123.525 -2.0757,-142.5 -0.5563,-18.975 -1.2804,-62.69893 -1.6092,-97.1643 -0.6596,-69.14647 -0.6676,-69.03309 5.4995,-77.54646 4.4411,-6.13084 8.5206,-8.77999 25.8112,-16.76145 42.5837,-19.65694 90.01679,-36.81765 144.7833,-52.38079 9.95177,-2.82802 50.67081,-12.89675 59,-14.58913 18.63581,-3.78654 27.58475,-5.63282 34,-7.01465 3.85,-0.82928 11.725,-2.22211 17.5,-3.09519 5.775,-0.87308 12.075,-1.98459 14,-2.47003 1.925,-0.48544 9.125,-1.58536 16,-2.44427 6.875,-0.85891 14.525,-2.00356 17,-2.54367 2.475,-0.5401 13.05,-1.92842 23.5,-3.08515 35.25404,-3.90232 31.55816,-3.57202 91.5,-8.17726 18.86541,-1.44939 164.97907,-1.42558 181.5,0.0296 6.6,0.58133 22.0036,1.78494 34.23021,2.67469 12.2266,0.88975 25.7266,2.01131 30,2.49236 4.2734,0.48105 16.5448,1.80968 27.2698,2.9525 10.725,1.14282 20.85,2.34651 22.5,2.67487 1.65,0.32835 10.65,1.67071 20,2.98302 31.04159,4.35681 58.40689,9.19406 86.99999,15.3786 27.114,5.86462 32.1282,7.02153 46,10.61338 7.7,1.99377 16.7,4.28192 20,5.08477 3.3,0.80286 8.7,2.3104 12,3.35009 3.3,1.0397 10.05,3.09509 15,4.56755 36.0327,10.71849 79.9306,27.37828 88.5026,33.58776 5.1798,3.75226 9.5937,10.66799 11.0167,17.26097 0.7401,3.42908 0.9785,17.84825 0.7213,43.62221 -0.4405,44.14886 -3.2494,262.05222 -4.7888,371.5 -0.5724,40.7 -1.4572,107.075 -1.9662,147.5 -0.6433,51.08922 -1.3728,77.92118 -2.3926,88 -1.9111,18.88762 -5.3198,43.05626 -7.0518,50 -0.7546,3.025 -1.6663,7.525 -2.0261,10 -0.3597,2.475 -2.0055,10.125 -3.6572,17 -17.4005,72.42793 -46.8629,139.2069 -90.2237,204.5 -15.6519,23.5688 -40.7829,56.2351 -59.6729,77.5654 -24.8111,28.0162 -66.8545,68.0457 -96.4613,91.8407 -35.47759,28.5133 -64.45239,48.3553 -105.74949,72.4172 -7.83779,4.5667 -16.05051,9.2229 -18.25051,10.3471 -2.2,1.1242 -8.275,4.296 -13.5,7.0485 -10.9124,5.7485 -52.6336,25.0096 -64.5,29.7773 -11.28932,4.5358 -22.85447,8.2611 -31.00854,9.9882 -6.51246,1.3795 -21.42969,1.8586 -25.99146,0.8348 z"
       id="path16-0"
       sodipodi:nodetypes="ssssssssssssssssssssssssssssssssssssccccssssssssssssssss" />
    <g
       id="g837">
      <path
         style="fill:#1c325b"
         d="m 747.5,1397.3659 c -1.1,-0.2935 -8.525,-2.1102 -16.5,-4.037 -14.18113,-3.4263 -43.32179,-12.5579 -45.43521,-14.2378 -0.58563,-0.4655 -2.18979,-1.1695 -3.56479,-1.5645 -9.88481,-2.8396 -55.24625,-26.5228 -80.49363,-42.0257 -38.40843,-23.5844 -81.22471,-56.0015 -114.98772,-87.0596 -31.22519,-28.7235 -71.38089,-71.776 -90.05297,-96.5493 -1.08112,-1.4344 -5.16475,-6.8344 -9.07472,-12 C 372.41681,1120.1091 345,1080.3764 345,1078.4586 c 0,-0.241 -1.93799,-3.4802 -4.30663,-7.1984 -4.3013,-6.7518 -19.26764,-33.5267 -26.13752,-46.7602 -8.80951,-16.9698 -21.37418,-45.6207 -27.62824,-63 -2.17713,-6.05 -4.39322,-11.9 -4.92464,-13 -2.13926,-4.42816 -9.57279,-28.27407 -14.18379,-45.5 -5.38292,-20.10968 -10.39767,-45.96338 -13.38367,-69 -2.3577,-18.18931 -3.44278,-73.54699 -7.0075,-357.5 -0.84236,-67.1 -1.97989,-153.95 -2.52784,-193 -0.54795,-39.05 -0.83662,-73.5435 -0.64148,-76.65223 0.55016,-8.76473 3.30381,-11.60035 18.28603,-18.83034 C 269.40296,184.70785 275.22271,182 275.47749,182 c 0.25478,0 2.83908,-1.08362 5.74287,-2.40805 2.9038,-1.32443 9.32964,-4.05466 14.27964,-6.06718 4.95,-2.01252 10.35,-4.25384 12,-4.98072 1.65,-0.72687 4.125,-1.64669 5.5,-2.04405 1.375,-0.39736 3.85,-1.33092 5.5,-2.0746 8.13278,-3.66553 57.84216,-20.51683 71.5,-24.23824 1.925,-0.52452 8.9,-2.53641 15.5,-4.47088 6.6,-1.93448 18.75,-5.14563 27,-7.13591 8.25,-1.99028 17.475,-4.29611 20.5,-5.12407 9.99569,-2.73585 43.71277,-9.5045 64.24658,-12.89739 8.11061,-1.34015 15.08561,-2.64207 15.5,-2.89314 0.41438,-0.25108 6.82842,-1.1913 14.25342,-2.08937 7.425,-0.89808 15.3,-2.07256 17.5,-2.60997 3.48438,-0.85114 21.17021,-2.973083 50.5,-6.058973 8.36645,-0.880264 33.06644,-2.854531 64.5,-5.155476 20.38909,-1.492488 161.96722,-1.485097 179,0.0093 6.6,0.579078 22.0036,1.780846 34.23021,2.670596 12.22662,0.889749 25.72662,2.011313 30,2.492363 4.27339,0.48105 16.54479,1.811015 27.26979,2.955478 10.725,1.144472 20.625,2.317202 22,2.606092 1.375,0.28888 10.375,1.63879 20,2.9998 70.9088,10.02676 139.776,25.592 197,44.52558 14.2132,4.70271 36.8097,12.68053 39.5,13.94571 1.1,0.51731 6.6821,2.84825 12.4047,5.17987 11.4942,4.68317 16.6303,8.79955 17.5911,14.09844 0.7942,4.37975 -0.6151,131.92666 -4.544,411.26475 -0.5724,40.7 -1.4594,107.075 -1.9711,147.5 -0.6328,50.00168 -1.3859,77.97587 -2.3555,87.5 -1.8887,18.55298 -5.4234,44.254 -6.6015,48 -0.5189,1.65 -1.4526,6.15 -2.0749,10 -3.7931,23.46617 -20.9517,80.84363 -29.9764,100.2391 -1.0848,2.33151 -1.9724,4.4937 -1.9724,4.80487 0,0.31116 -0.8471,2.45357 -1.8824,4.76089 -1.0354,2.30733 -3.3441,7.57018 -5.1305,11.69518 -5.0903,11.7539 -15.9112,33.2371 -24.9661,49.5662 -54.2018,97.7442 -138.5276,187.3593 -240.021,255.076 -32.89311,21.9464 -70.84629,43.5071 -97.5,55.3885 -2.75,1.2258 -9.275,4.2478 -14.5,6.7155 -19.07907,9.0107 -30.73693,13.7875 -44.5,18.234 -8.06746,2.6064 -12.02917,3.2973 -20.5,3.5752 -5.775,0.1894 -11.4,0.1041 -12.5,-0.1895 z m 28.17616,-28.8315 c 14.00942,-4.8244 18.67035,-6.7375 35.69245,-14.65 49.37254,-22.9503 77.23044,-38.4239 114.42101,-63.5551 74.54618,-50.3739 136.69088,-109.8711 187.83138,-179.8293 57.2817,-78.3592 96.3434,-172.47377 107.9116,-260 4.1387,-31.31398 4.539,-39.6352 5.461,-113.5 0.5046,-40.425 1.3858,-106.8 1.9582,-147.5 2.3553,-167.4579 4.4133,-334.93284 4.4786,-364.45917 l 0.07,-31.45918 -8.5,-3.36809 c -17.8603,-7.07708 -46.3929,-16.9779 -65,-22.55502 -8.0012,-2.39821 -18.3336,-5.3047 -34.5,-9.70489 -18.4424,-5.01965 -65.6353,-15.48095 -83.247,-18.45344 -5.0859,-0.85839 -9.8109,-1.76774 -10.5,-2.02079 -1.4802,-0.54352 -22.5289,-3.78754 -42.253,-6.51204 -7.7,-1.06361 -16.7,-2.41024 -20,-2.99252 -3.3,-0.58228 -14.325,-1.95628 -24.5,-3.05333 -10.175,-1.09706 -22.325,-2.42742 -27,-2.95637 -4.675,-0.52895 -18.175,-1.65782 -30,-2.50858 -11.825,-0.85077 -27.125,-2.0427 -34,-2.64874 -17.374,-1.53153 -148.67322,-1.57218 -169.5,-0.0525 -32.81296,2.39433 -55.27751,4.19502 -64.5,5.17014 -27.30422,2.88694 -45.97805,5.13174 -50,6.01053 -2.475,0.54079 -10.31641,1.69863 -17.42536,2.57297 -7.10894,0.87435 -13.21823,1.77072 -13.57618,1.99195 -0.35795,0.22123 -5.34154,1.12464 -11.07464,2.00757 -29.61771,4.56134 -85.6698,17.06288 -114.92382,25.63195 -5.775,1.69162 -12.075,3.50872 -14,4.038 -13.32026,3.66248 -60.64102,19.67484 -70,23.68656 -1.375,0.58939 -7.675,3.07182 -14,5.51651 -12.15628,4.69856 -33.28935,13.75459 -41.24851,17.676 l -4.7485,2.33954 0.50362,52.05146 c 0.27698,28.6283 0.95461,69.15146 1.50583,90.05146 0.55122,20.9 1.48115,86.15 2.06652,145 2.19515,220.69127 3.9119,309.84037 6.31631,328 3.18033,24.01978 7.70072,47.911 12.10927,64 6.95383,25.37802 9.17989,32.31042 18.7849,58.5 14.93644,40.72659 34.82973,79.87162 64.0325,126.00002 8.51454,13.4495 21.69429,31.87 42.14374,58.9016 18.39,24.3093 56.54555,65.3269 86.12345,92.5835 50.91135,46.9158 110.44584,87.937 167.43634,115.3693 26.69758,12.8508 43.67509,19.0415 70.09149,25.5583 17.10015,4.2186 21.04119,4.1212 35.5592,-0.8783 z m -32.63143,-9.2645 c -15.3714,-3.6578 -35.93588,-10.185 -48.02406,-15.2428 -57.88996,-24.2218 -129.14295,-71.6709 -185.20232,-123.3308 -29.32048,-27.0195 -67.03288,-67.5782 -85.35267,-91.7947 -20.44945,-27.0316 -33.6292,-45.4521 -42.14374,-58.9016 -28.95193,-45.7322 -47.28422,-81.78648 -62.0325,-122 -9.60501,-26.18958 -11.83107,-33.12198 -18.7849,-58.5 -4.40036,-16.0591 -8.90256,-39.84111 -12.11592,-64 -2.30558,-17.33396 -3.32132,-69.35053 -6.99074,-358 -0.86698,-68.2 -1.94017,-151.675 -2.38486,-185.5 -0.44469,-33.825 -0.51181,-61.82023 -0.14915,-62.21162 0.92588,-0.99925 24.38678,-11.09254 38.13613,-16.40684 6.325,-2.44469 12.625,-4.92712 14,-5.51651 9.35898,-4.01172 56.67974,-20.02408 70,-23.68656 1.925,-0.52928 8.225,-2.34638 14,-4.038 29.25402,-8.56907 85.30611,-21.07061 114.92382,-25.63195 5.7331,-0.88293 10.71669,-1.78634 11.07464,-2.00757 0.35795,-0.22123 6.46724,-1.1176 13.57618,-1.99195 7.10895,-0.87434 14.95036,-2.03218 17.42536,-2.57297 4.02195,-0.87879 22.69578,-3.12359 50,-6.01053 9.25355,-0.9784 32.04101,-2.80413 64.5,-5.16772 20.72546,-1.50918 146.17943,-1.46793 163.5,0.0538 6.875,0.604 22.175,1.79427 34,2.64504 11.825,0.85076 25.325,1.97963 30,2.50858 4.675,0.52895 16.825,1.85931 27,2.95637 10.175,1.09705 21.2,2.47105 24.5,3.05333 3.3,0.58228 12.3,1.92891 20,2.99252 19.7241,2.7245 40.7728,5.96852 42.253,6.51204 0.6891,0.25305 5.4141,1.1624 10.5,2.02079 17.6117,2.97249 64.8046,13.43379 83.247,18.45344 27.162,7.39297 37.6673,10.48817 54.5,16.05758 11.9027,3.93823 32.7699,11.39193 41.5,14.82371 l 5,1.96548 -0.073,26.34979 c -0.071,25.43801 -2.3269,206.61769 -4.4751,359.34979 -0.5724,40.7 -1.4536,107.075 -1.9582,147.5 -0.922,73.8648 -1.3223,82.18602 -5.461,113.5 -9.4033,71.14626 -38.1276,149.95872 -78.3599,214.99996 -62.1789,100.5213 -152.30898,186.223 -263.1727,250.2422 -27.20298,15.7086 -72.77386,37.2514 -96,45.3822 -14.1022,4.9368 -14.89899,4.9663 -30.95527,1.1455 z m 35.91551,-183.2301 c 3.07623,-3.0763 9.81322,-16.4835 12.15215,-24.1839 2.05033,-6.7503 2.06439,-7.1375 0.39372,-10.8423 -1.92229,-4.2629 -1.8086,-6.7928 0.92189,-20.5136 1.79378,-9.0138 5.86038,-19.6645 8.27258,-21.6665 1.17371,-0.9741 1.98826,-3.4021 3.71819,-11.0835 0.34063,-1.5125 1.27719,-2.75 2.08123,-2.75 0.80404,0 1.66817,-1.0125 1.92027,-2.25 0.25211,-1.2375 0.67965,-3.375 0.9501,-4.75 0.27044,-1.375 1.01347,-4.525 1.65118,-7 0.78745,-3.0562 0.94253,-9.1524 0.48333,-19 -0.37188,-7.975 -0.85459,-24.175 -1.07269,-36 -0.27345,-14.826 -0.85999,-23.20729 -1.88952,-27 -1.58441,-5.83685 -1.78047,-24.02653 -0.27048,-25.0937 1.50877,-1.06631 2.02718,-11.66033 0.80759,-16.50373 -0.65323,-2.59424 -2.45428,-7.4586 -4.00231,-10.80968 -2.64075,-5.71652 -2.85192,-7.1739 -3.41846,-23.59289 -0.33211,-9.625 -1.05908,-20.49973 -1.61547,-24.16606 -0.81422,-5.36527 -0.72204,-7.35915 0.47241,-10.21788 1.48558,-3.55549 1.99488,-15.108 0.85376,-19.36606 -0.42233,-1.57593 -1.35529,-2.25 -3.11415,-2.25 -2.41766,0 -2.48031,-0.15827 -1.68242,-4.25 0.45581,-2.3375 0.87064,-9.61157 0.92183,-16.16461 l 0.0931,-11.91461 -2.70184,-1.01983 c -2.33047,-0.87965 -2.79407,-1.75795 -3.37276,-6.38959 -0.369,-2.95337 -1.5717,-8.60787 -2.67267,-12.56556 -2.1822,-7.84442 -1.92175,-13.1164 0.85756,-17.35816 1.21467,-1.85382 1.67198,-4.94671 1.72692,-11.6796 0.07,-8.57325 -0.0689,-9.22107 -2.17526,-10.14517 -2.13303,-0.93581 -2.26232,-1.61163 -2.48698,-13 -0.13033,-6.60708 -0.0965,-15.75103 0.0751,-20.31989 0.17165,-4.56886 -0.11176,-8.84386 -0.62982,-9.5 -1.71566,-2.17298 -2.20152,-20.15222 -0.6266,-23.18787 2.17223,-4.18698 3.40242,-13.84604 3.41072,-26.77986 0.007,-11.46115 -0.0554,-11.79868 -2.35576,-12.67328 -2.57192,-0.97784 -3.60184,-3.57424 -3.62304,-9.13356 -0.0122,-3.20482 0.51218,-3.92231 4.98502,-6.82061 2.83677,-1.83817 5.19082,-4.1816 5.44295,-5.41841 0.24435,-1.19867 0.63934,-8.06274 0.87775,-15.25351 0.47098,-14.20515 0.78951,-15.12837 8.56114,-24.81338 4.39875,-5.48173 4.27009,-10.31015 -0.4739,-17.78518 -2.02171,-3.18558 -4.78026,-6.15366 -6.30697,-6.78605 -5.0773,-2.10308 -5.97004,-7.77968 -6.41185,-40.77036 -0.44609,-33.30971 -0.75909,-31.80519 8.39772,-40.36498 4.61876,-4.31762 4.91449,-4.89508 4.91449,-9.59636 0,-6.62648 -2.1349,-10.83503 -8.35527,-16.47079 l -5.14473,-4.66123 V 427.83878 393.5 l 2.86607,-9 c 1.57634,-4.95 3.86464,-12.375 5.08511,-16.5 2.46232,-8.32226 6.24717,-17.69691 8.07465,-20 0.65462,-0.825 2.61345,-4.2 4.35294,-7.5 1.73949,-3.3 5.32612,-8.925 7.97028,-12.5 4.33126,-5.85602 5.49352,-6.76364 11.73124,-9.16102 3.80802,-1.46356 9.62278,-3.11562 12.92169,-3.67123 15.66573,-2.63849 135.56781,-3.77315 146.49802,-1.38635 3.025,0.66056 9.55,1.87962 14.50001,2.70903 4.95,0.8294 11.025,1.91509 13.5,2.41264 2.475,0.49755 7.2,1.43338 10.5,2.07963 3.3,0.64625 10.05,2.23937 15,3.54027 19.058,5.00857 38.9032,7.32621 49.4255,5.7722 5.1618,-0.76233 5.3407,-0.88613 3.6801,-2.54672 -0.96,-0.96 -2.9515,-2.01141 -4.4255,-2.33647 -2.9181,-0.6435 -9.0054,-2.64468 -31.1801,-10.25036 -18.221,-6.24959 -36.4351,-11.77095 -45.4665,-13.7825 -3.8315,-0.8534 -8.1802,-2.17931 -9.6637,-2.94647 -2.695,-1.39359 -21.69946,-6.75328 -27.36981,-7.71887 -1.65,-0.28098 -9.3,-2.15309 -17,-4.16026 -7.7,-2.00717 -17.6,-4.06302 -22,-4.56856 -4.4,-0.50554 -14.075,-1.59387 -21.5,-2.41852 -7.425,-0.82466 -20.475,-2.59224 -29,-3.92798 -8.525,-1.33573 -19.775,-2.71388 -25,-3.06255 -18.71657,-1.24896 -34.52585,-2.69908 -36,-3.30212 -0.825,-0.33749 -6.225,-1.39783 -12,-2.35631 -17.55304,-2.91328 -38.97798,-8.37658 -47.5,-12.11236 -7.20838,-3.15993 -17.45693,-9.54149 -23,-14.32163 C 736.97942,233.998 735.08056,233 730.26149,233 c -3.46148,0 -23.13742,6.28175 -32.26149,10.29982 -1.925,0.84773 -7.86102,2.72132 -13.19115,4.16353 -11.13289,3.01229 -30.52255,3.98118 -39.53014,1.97529 -2.87171,-0.6395 -5.41967,-0.96435 -5.66213,-0.72189 -0.24246,0.24247 -2.84288,-0.25482 -5.77871,-1.10508 -2.93583,-0.85026 -10.21104,-2.73004 -16.16713,-4.17728 -17.23146,-4.18699 -24.32482,-6.84423 -44.35211,-16.61477 -20.71699,-10.10702 -29.1316,-15.98762 -37.3629,-26.11128 -2.77632,-3.41458 -6.00315,-7.33334 -7.17072,-8.70834 -1.16758,-1.375 -3.69793,-5.425 -5.62301,-9 -3.32393,-6.17276 -4.74523,-7.94997 -6.38564,-7.98469 -1.11929,-0.0237 -19.02963,18.00002 -22.25328,22.39412 -1.57744,2.15019 -4.25295,5.34264 -5.94558,7.09435 -3.10126,3.20949 -5.38663,6.98581 -10.89105,17.99622 -1.64976,3.3 -3.79259,7.575 -4.76183,9.5 -0.96925,1.925 -2.75851,6.425 -3.97615,10 -1.21764,3.575 -2.58188,6.96926 -3.03166,7.54279 -0.44977,0.57354 -2.05166,6.64854 -3.55977,13.5 -2.4027,10.91575 -2.72177,14.37518 -2.57849,27.95721 0.19595,18.57411 0.62768,23.98708 2.75171,34.5 5.858,28.99424 16.32744,52.07601 36.51323,80.5 9.43778,13.28952 16.752,21.01173 26.25838,27.72309 16.92744,11.95052 25.00665,15.87051 29.32537,14.22853 2.79583,-1.06297 2.7653,-0.87836 0.93978,-5.68138 -2.65684,-6.99029 -5.57897,-21.13128 -6.21331,-30.06796 -0.5255,-7.40329 -0.24307,-10.42648 1.70042,-18.20141 2.03977,-8.16012 3.072,-10.30546 8.2722,-17.19261 10.22466,-13.54153 17.7589,-19.66452 33.96956,-27.60667 18.70363,-9.16355 30.85259,-12.80093 52.70411,-15.77955 13.4822,-1.83778 29.79341,-1.97445 34.89928,-0.29242 5.09916,1.67982 11.81844,6.48499 20.3011,14.51797 5.69989,5.39773 16.89499,24.41689 19.33765,32.85241 1.51476,5.2311 1.74157,10.99788 1.76986,45 l 0.0324,39 -4.67017,4.88884 c -4.54828,4.76124 -5.1435,6.3502 -4.72408,12.61116 0.31697,4.73149 2.32137,9.50952 5.7865,13.79364 l 3.47283,4.29364 -0.71029,8.97427 c -0.4841,6.1165 -0.35494,9.40245 0.40562,10.31886 0.63447,0.76449 1.09708,4.96325 1.07225,9.73209 -0.024,4.61313 0.22433,17.05 0.55186,27.6375 0.57896,18.71468 0.54049,19.25 -1.38311,19.25 -2.25154,0 -5.82129,5.14772 -6.73384,9.71046 -0.6051,3.02547 2.98011,13.28954 4.64199,13.28954 0.44199,0 1.51158,1.41914 2.37686,3.15364 1.21967,2.44488 1.57324,6.50502 1.57324,18.06574 0,8.20166 0.44626,15.74594 0.99168,16.76508 0.54543,1.01914 2.34027,2.14917 3.98854,2.51119 1.64826,0.36202 3.17855,0.9611 3.40063,1.33129 0.22208,0.37018 0.69904,5.27152 1.05991,10.89185 l 0.65612,10.21879 -2.63991,0.66258 c -2.24823,0.56426 -2.54698,1.05109 -2.01359,3.2812 1.67002,6.98238 2.36491,18.04896 1.48307,23.61864 -0.52249,3.3 -1.05718,10.39878 -1.18821,15.77506 l -0.23824,9.77507 2.75083,-0.6047 c 3.71959,-0.81766 4.27744,1.0637 2.19929,7.41726 -1.29446,3.95758 -1.51338,6.85378 -0.97295,12.87194 0.38352,4.27095 0.77855,17.44037 0.87784,29.26537 0.0993,11.825 0.53041,22.48117 0.95805,23.68038 0.44546,1.24919 0.0991,5.80085 -0.811,10.65776 -1.43851,7.67685 -1.44279,9.10578 -0.0453,15.13168 0.84878,3.65986 1.54323,8.3998 1.54323,10.53322 0,2.13341 0.37454,4.11041 0.83232,4.39333 2.04015,1.26088 6.7401,58.20898 4.97913,60.33082 -2.76468,3.33124 -1.45593,17.34711 2.7871,29.84799 1.97322,5.81351 2.40145,9.07963 2.40145,18.31574 0,6.84244 0.46827,12.0952 1.19678,13.42482 1.84752,3.37194 4.81518,31.93964 5.68069,54.68426 0.5873,15.4338 0.4391,23.2185 -0.59969,31.5 -1.0292,8.205 -1.10752,12.0861 -0.30823,15.2744 0.99458,3.9674 0.66532,5.4758 -4.58422,21 -6.48366,19.1739 -8.42002,23.7256 -10.0932,23.7256 -1.74377,0 -2.61095,1.1949 -6.8945,9.5 -6.13115,11.8873 -11.4046,20.2333 -15.037,23.7981 -2.98122,2.9258 -3.36063,3.8999 -3.36063,8.6276 0,6.0745 0.80132,7.0702 6.76874,8.411 2.30449,0.5178 6.56178,2.5025 9.46063,4.4105 10.99631,7.2377 14.47175,9.1639 24.98986,13.8505 5.9525,2.6522 13.36154,6.6403 16.46454,8.8623 3.103,2.222 5.79356,4.04 5.97902,4.04 0.18547,0 1.21932,-0.8821 2.29745,-1.9602 z M 1019.4209,761.76293 C 1011.4894,737.98254 1005,718.22177 1005,717.8501 c 0,-0.37166 16.4117,-12.52748 36.4705,-27.01293 20.0588,-14.48544 36.4838,-26.67467 36.5,-27.08717 0.016,-0.4125 -20.333,-0.75261 -45.2205,-0.75579 l -45.25,-0.006 -13.93448,-42.97639 c -7.66397,-23.63701 -14.18897,-42.72815 -14.5,-42.42474 -0.31104,0.30341 -6.90296,19.53289 -14.64873,42.73219 L 930.33358,662.5 l -45.66679,0.26009 c -25.11673,0.14305 -45.65576,0.59305 -45.64228,1 0.0135,0.40695 16.66518,12.64258 37.00379,27.19029 32.08849,22.95212 36.89406,26.72146 36.33498,28.5 -0.35437,1.12729 -6.83913,20.49962 -14.41058,43.04962 -7.57145,22.55 -13.5941,41.17663 -13.38365,41.3925 0.21044,0.21588 0.95599,-0.0469 1.65678,-0.58392 0.7008,-0.53703 17.37326,-12.57032 37.04992,-26.74064 34.41399,-24.78355 35.8604,-25.70632 38,-24.24303 1.22334,0.83665 17.74925,13.01687 36.72425,27.06716 18.975,14.05028 34.8019,25.55991 35.1709,25.57695 0.369,0.017 -5.8185,-19.4257 -13.75,-43.20609 z m -405.99997,-2 C 605.48942,735.98254 599,716.22177 599,715.8501 c 0,-0.37166 16.41173,-12.52748 36.47051,-27.01293 20.05878,-14.48544 36.48378,-26.67467 36.5,-27.08717 0.0162,-0.4125 -20.33301,-0.75261 -45.22051,-0.75579 l -45.25,-0.006 -13.93448,-42.97639 c -7.66397,-23.63701 -14.18897,-42.72815 -14.5,-42.42474 -0.31104,0.30341 -6.90296,19.53289 -14.64873,42.73219 L 524.33358,660.5 l -45.66679,0.26009 c -25.11673,0.14305 -45.65576,0.59305 -45.64228,1 0.0135,0.40695 16.66518,12.64258 37.00379,27.19029 32.08849,22.95212 36.89406,26.72146 36.33498,28.5 -0.35437,1.12729 -6.83913,20.49962 -14.41058,43.04962 -7.57145,22.55 -13.5941,41.17663 -13.38365,41.3925 0.21044,0.21588 0.95599,-0.0469 1.65678,-0.58392 0.7008,-0.53703 17.37326,-12.57032 37.04992,-26.74064 34.41399,-24.78355 35.8604,-25.70632 38,-24.24303 1.22334,0.83665 17.74925,13.01687 36.72425,27.06716 18.975,14.05028 34.80192,25.55991 35.17093,25.57695 0.36901,0.017 -5.81849,-19.4257 -13.75,-43.20609 z M 229.30987,271.5 c 0.006,-3.3 0.1923,-4.52944 0.41486,-2.73209 0.22256,1.79735 0.21797,4.49735 -0.0102,6 -0.22818,1.50265 -0.41027,0.0321 -0.40466,-3.26791 z"
         id="path841" />
      <path
         style="fill:#000000"
         d="m 746.5,1412.3132 c -41.03263,-9.331 -62.68596,-16.5936 -92.5,-31.025 -61.00572,-29.5295 -124.17873,-72.7834 -176.49892,-120.8469 -32.04111,-29.4342 -73.79887,-74.1114 -93.0354,-99.5397 -27.30251,-36.0905 -40.63474,-55.3014 -55.42188,-79.8595 -5.53252,-9.1882 -24.31414,-42.9176 -28.8975,-51.8961 -3.08632,-6.046 -17.9065,-38.56362 -20.34776,-44.646 -9.16884,-22.84409 -17.51484,-46.71293 -22.72796,-65 -1.72469,-6.05 -3.7834,-13.25 -4.57492,-16 -0.79153,-2.75 -2.34983,-9.4272 -3.4629,-14.83821 -1.11307,-5.41102 -2.24539,-10.19682 -2.51628,-10.63512 -0.70703,-1.144 -5.38933,-29.47654 -7.11068,-43.02667 -2.32446,-18.29758 -3.44327,-75.60148 -6.97014,-357 -0.83754,-66.825 -1.97273,-155.85514 -2.52264,-197.84476 -1.10274,-84.2017 -1.20677,-82.30827 4.99242,-90.866 4.43893,-6.12777 8.51609,-8.77696 25.81121,-16.77119 43.04665,-19.89722 84.35063,-34.84042 143.78335,-52.01881 10.36153,-2.99488 50.95423,-13.10339 60,-14.94137 18.63581,-3.78654 27.58475,-5.632819 34,-7.014649 3.85,-0.82928 11.725,-2.222118 17.5,-3.095195 5.775,-0.873078 12.075,-1.98459 14,-2.470027 1.925,-0.485437 9.125,-1.585358 16,-2.444269 6.875,-0.85891 14.525,-2.003561 17,-2.543668 3.936,-0.858934 23.28401,-3.166508 51,-6.082605 8.35755,-0.879327 32.9702,-2.846859 64.5,-5.156122 20.41665,-1.495328 163.9529,-1.488233 181,0.0089 6.6,0.579652 22.0036,1.781889 34.23021,2.671639 12.22662,0.889749 25.72662,2.011313 30,2.492363 4.27339,0.48105 16.54479,1.809673 27.26979,2.952497 10.725,1.142823 20.85,2.346512 22.5,2.674865 1.65,0.328352 10.65,1.670712 20,2.983021 34.3349,4.819044 74.2022,12.06563 101.5,18.44947 34.2809,8.01689 37.4566,8.82051 60,15.18327 46.41,13.09899 96.4739,31.32246 107.0026,38.94941 5.1798,3.75226 9.5937,10.66799 11.0167,17.26097 0.7401,3.42908 0.9785,17.84825 0.7213,43.62221 -0.4405,44.14886 -3.2494,262.05222 -4.7888,371.5 -0.5724,40.7 -1.4572,107.075 -1.9662,147.5 -0.6433,51.08922 -1.3728,77.92118 -2.3926,88 -1.9111,18.88762 -5.3198,43.05626 -7.0518,50 -0.7546,3.025 -1.6683,7.525 -2.0305,10 -0.3621,2.475 -2.2349,11.025 -4.1616,19 -21.3804,88.49725 -62.5146,171.45035 -123.2245,248.50005 -41.0287,52.0714 -96.9145,105.7517 -152.6246,146.6011 -14.3811,10.545 -41.74547,28.9958 -53.74951,36.2414 -12.41366,7.4928 -35.89928,21.1043 -40.25049,23.3278 -2.2,1.1242 -8.275,4.296 -13.5,7.0485 -10.9124,5.7485 -52.6336,25.0096 -64.5,29.7773 -11.28932,4.5358 -22.85447,8.2611 -31.00854,9.9882 -6.52705,1.3826 -21.46216,1.8589 -25.99146,0.8289 z m 34,-18.333 c 13.76307,-4.4465 25.42093,-9.2233 44.5,-18.234 5.225,-2.4677 11.75,-5.4897 14.5,-6.7155 12.83315,-5.7206 35.90113,-17.7276 51.5,-26.806 66.57023,-38.7433 121.1177,-80.9627 173.5867,-134.355 45.2072,-46.0027 82.9262,-96.0904 112.4343,-149.3035 9.0549,-16.3291 19.8758,-37.8123 24.9661,-49.5662 1.7864,-4.125 4.0951,-9.38781 5.1305,-11.69514 1.0353,-2.30732 1.8824,-4.44973 1.8824,-4.76089 0,-0.31117 0.8876,-2.47336 1.9724,-4.80487 2.1488,-4.61809 9.285,-24.38108 14.5298,-40.2391 5.776,-17.46377 12.6027,-43.79543 15.037,-58 0.8484,-4.95 1.9667,-10.35 2.4852,-12 1.1777,-3.7475 4.7129,-29.45483 6.6008,-48 0.9696,-9.52413 1.7227,-37.49832 2.3555,-87.5 0.5117,-40.425 1.3987,-106.8 1.9711,-147.5 3.9289,-279.33809 5.3382,-406.885 4.544,-411.26475 -0.9608,-5.29889 -6.0969,-9.41527 -17.5911,-14.09844 -5.7226,-2.33162 -11.3047,-4.66256 -12.4047,-5.17987 -2.6903,-1.26518 -25.2868,-9.243 -39.5,-13.94571 -57.4425,-19.00589 -125.8204,-34.46053 -197,-44.52558 -9.625,-1.36101 -18.625,-2.71092 -20,-2.9998 -1.375,-0.28889 -11.275,-1.46162 -22,-2.606088 -10.725,-1.144463 -22.9964,-2.474428 -27.26979,-2.955478 -4.27338,-0.48105 -17.77338,-1.602614 -30,-2.492363 C 880.5036,93.542171 865.1,92.339015 858.5,91.75824 841.99341,90.305724 697.84081,90.281703 679,91.72833 c -44.4577,3.413531 -56.30545,4.372592 -64,5.18072 -29.04616,3.050605 -47.01377,5.20579 -50.5,6.05738 -2.2,0.53741 -10.075,1.71189 -17.5,2.60997 -7.425,0.89807 -13.83904,1.83829 -14.25342,2.08937 -0.41439,0.25107 -7.38939,1.55299 -15.5,2.89314 -20.53381,3.39289 -54.25089,10.16154 -64.24658,12.89739 -3.025,0.82796 -12.25,3.13029 -20.5,5.11629 -20.54544,4.94586 -32.62203,8.38946 -62,17.67912 -16.36937,5.17619 -46.61737,15.74769 -52,18.17369 -1.65,0.74368 -4.125,1.67724 -5.5,2.0746 -1.375,0.39736 -3.85,1.31718 -5.5,2.04405 -1.65,0.72688 -7.05,2.9682 -12,4.98072 -4.95,2.01252 -11.37584,4.74275 -14.27964,6.06718 -2.90379,1.32443 -5.48809,2.40805 -5.74287,2.40805 -0.25478,0 -6.07453,2.70785 -12.93277,6.01743 -9.44976,4.56018 -13.14461,6.90421 -15.25713,9.6792 L 244.5,201.35839 v 33.07081 c 0,18.18894 0.27446,51.2958 0.60991,73.5708 0.33545,22.275 1.34567,97.2 2.24493,166.5 3.86586,297.91455 4.71936,341.23367 7.08313,359.5 3.663,28.30632 11.2576,64.49627 18.04742,86 4.59104,14.54008 8.72778,26.78466 9.96635,29.5 0.75263,1.65 1.90288,5.025 2.55611,7.5 0.65323,2.475 1.52992,4.95 1.9482,5.5 0.41828,0.55 1.46738,3.025 2.33134,5.5 6.32575,18.12154 22.11705,51.3737 37.99163,80 20.6551,37.2469 34.56429,58.1351 69.18666,103.9016 19.01507,25.1356 58.82833,67.8167 90.05297,96.5397 50.79747,46.7278 113.50253,89.9784 170.98135,117.9338 6.6,3.21 13.575,6.6371 15.5,7.6159 1.925,0.9787 4.625,2.1089 6,2.5116 1.375,0.4026 4.85052,1.7927 7.72337,3.089 2.87286,1.2963 6.47286,2.6556 8,3.0206 1.52715,0.3649 3.22663,0.9904 3.77663,1.3899 1.42552,1.0354 19.82464,6.2721 34.5,9.8192 6.875,1.6618 13.4,3.2592 14.5,3.5499 1.1,0.2907 6.725,0.3736 12.5,0.1842 8.47083,-0.2779 12.43254,-0.9688 20.5,-3.5752 z"
         id="path839" />
    </g>
  </g>
</svg>
