<?xml version="1.0" encoding="UTF-8" standalone="no"?>
<svg
   xmlns:dc="http://purl.org/dc/elements/1.1/"
   xmlns:cc="http://creativecommons.org/ns#"
   xmlns:rdf="http://www.w3.org/1999/02/22-rdf-syntax-ns#"
   xmlns:svg="http://www.w3.org/2000/svg"
   xmlns="http://www.w3.org/2000/svg"
   xmlns:sodipodi="http://sodipodi.sourceforge.net/DTD/sodipodi-0.dtd"
   xmlns:inkscape="http://www.inkscape.org/namespaces/inkscape"
   version="1.1"
   id="svg2"
   width="1044.7208"
   height="1337.2346"
   viewBox="0 0 1044.7208 1337.2346"
   sodipodi:docname="Runvald.svg"
   inkscape:version="1.0.1 (3bc2e813f5, 2020-09-07)">
  <metadata
     id="metadata8">
    <rdf:RDF>
      <cc:Work
         rdf:about="">
        <dc:format>image/svg+xml</dc:format>
        <dc:type
           rdf:resource="http://purl.org/dc/dcmitype/StillImage" />
        <dc:title></dc:title>
      </cc:Work>
    </rdf:RDF>
  </metadata>
  <defs
     id="defs6" />
  <sodipodi:namedview
     pagecolor="#ffffff"
     bordercolor="#666666"
     borderopacity="1"
     objecttolerance="10"
     gridtolerance="10"
     guidetolerance="10"
     inkscape:pageopacity="0"
     inkscape:pageshadow="2"
     inkscape:window-width="1920"
     inkscape:window-height="1057"
     id="namedview4"
     showgrid="false"
     inkscape:pagecheckerboard="true"
     inkscape:zoom="0.49"
     inkscape:cx="715.4381"
     inkscape:cy="674.3664"
     inkscape:window-x="-8"
     inkscape:window-y="-8"
     inkscape:window-maximized="1"
     inkscape:current-layer="g10" />
  <g
     inkscape:groupmode="layer"
     inkscape:label="Image"
     id="g10"
     transform="translate(-229.11972,-75.633604)">
    <path
       style="fill:#ffffff;fill-opacity:1"
       d="m 746.5,1412.3132 c -40.33262,-9.0517 -62.49618,-16.485 -92.5,-31.0232 -61.1215,-29.616 -124.18829,-72.7999 -176.49892,-120.8546 -32.04111,-29.4342 -73.79887,-74.1114 -93.0354,-99.5397 -27.73724,-36.6652 -40.38969,-54.895 -55.39078,-79.808 -5.5569,-9.2288 -24.3334,-42.946 -28.9286,-51.9477 -3.1406,-6.1523 -18.1098,-38.94182 -19.6971,-43.146 -0.7269,-1.925 -2.742,-6.875 -4.4781,-11 -3.285,-7.80519 -4.9543,-12.44198 -11.7007,-32.5 -7.8298,-23.27935 -10.2826,-31.95819 -14.807,-52.39336 -1.3874,-6.26635 -2.7288,-11.72715 -2.981,-12.13512 -0.6835,-1.10602 -5.4037,-29.79565 -7.0699,-42.97152 -2.43091,-19.22263 -4.15891,-109.01719 -6.32161,-328.5 -0.5854,-59.4 -1.5194,-123.525 -2.0757,-142.5 -0.5563,-18.975 -1.2804,-62.69893 -1.6092,-97.1643 -0.6596,-69.14647 -0.6676,-69.03309 5.4995,-77.54646 4.44111,-6.13084 8.52061,-8.77999 25.81121,-16.76145 42.5837,-19.65694 90.01679,-36.81765 144.7833,-52.38078 9.95177,-2.82802 50.67081,-12.89675 59,-14.58913 18.63581,-3.78654 27.58475,-5.632821 34,-7.014651 3.85,-0.82928 11.725,-2.22211 17.5,-3.09519 5.775,-0.87308 12.075,-1.98459 14,-2.47003 1.925,-0.48544 9.125,-1.58536 16,-2.44427 6.875,-0.85891 14.525,-2.00356 17,-2.54367 2.475,-0.5401 13.05,-1.92842 23.5,-3.08515 35.25404,-3.90232 31.55816,-3.57202 91.5,-8.17726 18.86541,-1.44939 164.9791,-1.42558 181.5,0.0296 6.6,0.58133 22.0036,1.78494 34.2302,2.67469 12.2266,0.88975 25.7266,2.01131 30,2.49236 4.2734,0.48105 16.5448,1.80968 27.2698,2.9525 10.725,1.14282 20.85,2.34651 22.5,2.67487 1.65,0.32835 10.65,1.67071 20,2.98302 31.0416,4.35681 58.4069,9.19406 87,15.378601 27.114,5.86462 32.1282,7.02153 46,10.61338 7.7,1.99377 16.7,4.28192 20,5.08476 3.3,0.80286 8.7,2.3104 12,3.35009 3.3,1.0397 10.05,3.09509 15,4.56755 36.0327,10.71849 79.9306,27.37828 88.5026,33.58776 5.1798,3.75226 9.5937,10.66799 11.0167,17.26097 0.7401,3.42908 0.9785,17.84825 0.7213,43.62221 -0.4405,44.14886 -3.2494,262.05222 -4.7888,371.5 -0.5724,40.7 -1.4572,107.075 -1.9662,147.5 -0.6433,51.08922 -1.3728,77.92118 -2.3926,88 -1.9111,18.88762 -5.3198,43.05626 -7.0518,50 -0.7546,3.025 -1.6663,7.525 -2.0261,10 -0.3597,2.475 -2.0055,10.125 -3.6572,17 -17.4005,72.42793 -46.8629,139.20688 -90.2237,204.50008 -15.6519,23.5688 -40.7829,56.2351 -59.6729,77.5654 -24.8111,28.0162 -66.8545,68.0457 -96.4613,91.8407 -35.4776,28.5133 -64.4524,48.3553 -105.7495,72.4172 -7.8378,4.5667 -16.0505,9.2229 -18.2505,10.3471 -2.2,1.1242 -8.275,4.296 -13.5,7.0485 -10.9124,5.7485 -52.6336,25.0096 -64.5,29.7773 -11.2893,4.5358 -22.8545,8.2611 -31.0085,9.9882 -6.5125,1.3795 -21.4297,1.8586 -25.9915,0.8348 z"
       id="path16-0"
       sodipodi:nodetypes="ssssssssssssssssssssssssssssssssssssccccssssssssssssssss" />
    <g
       id="g14">
      <path
         style="fill:#907782"
         d="m 747.5,1397.3712 c -1.1,-0.2907 -7.625,-1.8881 -14.5,-3.5499 -14.67536,-3.5471 -33.07448,-8.7838 -34.5,-9.8192 -0.55,-0.3995 -2.24948,-1.025 -3.77663,-1.3899 -1.52714,-0.365 -5.12714,-1.7243 -8,-3.0206 -2.87285,-1.2963 -6.34837,-2.6864 -7.72337,-3.089 -1.375,-0.4027 -4.075,-1.5329 -6,-2.5116 -1.925,-0.9788 -8.9,-4.4059 -15.5,-7.6159 -57.47882,-27.9554 -120.18388,-71.206 -170.98135,-117.9338 -31.22464,-28.723 -71.0379,-71.4041 -90.05297,-96.5397 -34.62237,-45.7665 -48.53156,-66.6547 -69.18666,-103.9016 -15.87458,-28.6263 -31.66588,-61.87846 -37.99163,-80 -0.86396,-2.475 -1.91306,-4.95 -2.33134,-5.5 -0.41828,-0.55 -1.29497,-3.025 -1.9482,-5.5 -0.65323,-2.475 -1.80348,-5.85 -2.55611,-7.5 -1.23857,-2.71534 -5.37531,-14.95992 -9.96635,-29.5 -6.78982,-21.50373 -14.38442,-57.69368 -18.04742,-86 C 252.0742,815.73367 251.2207,772.41455 247.35484,474.5 246.45558,405.2 245.44536,330.275 245.10991,308 244.77446,285.725 244.5,252.61814 244.5,234.4292 v -33.07081 l 2.78759,-3.66176 c 2.11252,-2.77499 5.80737,-5.11902 15.25713,-9.6792 C 269.40296,184.70785 275.22271,182 275.47749,182 c 0.25478,0 2.83908,-1.08362 5.74287,-2.40805 2.9038,-1.32443 9.32964,-4.05466 14.27964,-6.06718 4.95,-2.01252 10.35,-4.25384 12,-4.98072 1.65,-0.72687 4.125,-1.64669 5.5,-2.04405 1.375,-0.39736 3.85,-1.33092 5.5,-2.0746 5.38263,-2.426 35.63063,-12.9975 52,-18.17369 29.37797,-9.28966 41.45456,-12.73326 62,-17.67912 8.25,-1.986 17.475,-4.28833 20.5,-5.11629 9.99569,-2.73585 43.71277,-9.5045 64.24658,-12.89739 8.11061,-1.34015 15.08561,-2.64207 15.5,-2.89314 0.41438,-0.25108 6.82842,-1.1913 14.25342,-2.08937 7.425,-0.89808 15.3,-2.07256 17.5,-2.60997 3.48623,-0.85159 21.45384,-3.006775 50.5,-6.05738 7.69455,-0.808128 19.5423,-1.767189 64,-5.18072 18.84081,-1.446627 162.99341,-1.422606 179.5,0.02991 6.6,0.580775 22.0036,1.783931 34.23021,2.673681 12.22662,0.889749 25.72662,2.011313 30,2.492363 4.27339,0.48105 16.54479,1.811015 27.26979,2.955478 10.725,1.144468 20.625,2.317198 22,2.606088 1.375,0.28888 10.375,1.63879 20,2.9998 71.1796,10.06505 139.5575,25.51969 197,44.52558 14.2132,4.70271 36.8097,12.68053 39.5,13.94571 1.1,0.51731 6.6821,2.84825 12.4047,5.17987 11.4942,4.68317 16.6303,8.79955 17.5911,14.09844 0.7942,4.37975 -0.6151,131.92666 -4.544,411.26475 -0.5724,40.7 -1.4594,107.075 -1.9711,147.5 -0.6328,50.00168 -1.3859,77.97587 -2.3555,87.5 -1.8879,18.54517 -5.4231,44.2525 -6.6008,48 -0.5185,1.65 -1.6368,7.05 -2.4852,12 -2.4343,14.20457 -9.261,40.53623 -15.037,58 -5.2448,15.85802 -12.381,35.62101 -14.5298,40.2391 -1.0848,2.33151 -1.9724,4.4937 -1.9724,4.80487 0,0.31116 -0.8471,2.45357 -1.8824,4.76089 -1.0354,2.30733 -3.3441,7.57014 -5.1305,11.69514 -8.0918,18.6848 -26.6886,53.899 -38.8155,73.5 -15.3678,24.8392 -30.2477,45.8144 -50.7685,71.5653 -66.2932,83.1891 -160.53428,159.1584 -257.4031,207.4969 -5.775,2.8818 -12.75,6.2426 -15.5,7.4685 -2.75,1.2258 -9.275,4.2478 -14.5,6.7155 -19.07907,9.0107 -30.73693,13.7875 -44.5,18.234 -8.06746,2.6064 -12.02917,3.2973 -20.5,3.5752 -5.775,0.1894 -11.4,0.1065 -12.5,-0.1842 z m 28.17616,-28.8368 c 14.00942,-4.8244 18.67035,-6.7375 35.69245,-14.65 49.37254,-22.9503 77.23044,-38.4239 114.42101,-63.5551 74.54618,-50.3739 136.69088,-109.8711 187.83138,-179.8293 57.2817,-78.3592 96.3434,-172.47377 107.9116,-260 4.1387,-31.31398 4.539,-39.6352 5.461,-113.5 0.5046,-40.425 1.3858,-106.8 1.9582,-147.5 2.3553,-167.4579 4.4133,-334.93284 4.4786,-364.45917 l 0.07,-31.45918 -8.5,-3.36809 c -17.8603,-7.07708 -46.3929,-16.9779 -65,-22.55502 -8.0012,-2.39821 -18.3336,-5.3047 -34.5,-9.70489 -18.4424,-5.01965 -65.6353,-15.48095 -83.247,-18.45344 -5.0859,-0.85839 -9.8109,-1.76774 -10.5,-2.02079 -1.4802,-0.54352 -22.5289,-3.78754 -42.253,-6.51204 -7.7,-1.06361 -16.7,-2.41024 -20,-2.99252 -3.3,-0.58228 -14.325,-1.95628 -24.5,-3.05333 -10.175,-1.09706 -22.325,-2.42742 -27,-2.95637 -4.675,-0.52895 -18.175,-1.65782 -30,-2.50858 -11.825,-0.85077 -27.125,-2.0427 -34,-2.64874 -17.374,-1.53153 -148.67322,-1.57218 -169.5,-0.0525 -32.81296,2.39433 -55.27751,4.19502 -64.5,5.17014 -27.30422,2.88694 -45.97805,5.13174 -50,6.01053 -2.475,0.54079 -10.31641,1.69863 -17.42536,2.57297 -7.10894,0.87435 -13.21823,1.77072 -13.57618,1.99195 -0.35795,0.22123 -5.34154,1.12464 -11.07464,2.00757 -29.61771,4.56134 -85.6698,17.06288 -114.92382,25.63195 -5.775,1.69162 -12.075,3.50872 -14,4.038 -13.32026,3.66248 -60.64102,19.67484 -70,23.68656 -1.375,0.58939 -7.675,3.07182 -14,5.51651 -12.15628,4.69856 -33.28935,13.75459 -41.24851,17.676 l -4.7485,2.33954 0.50362,52.05146 c 0.27698,28.6283 0.95461,69.15146 1.50583,90.05146 0.55122,20.9 1.48115,86.15 2.06652,145 2.19515,220.69127 3.9119,309.84037 6.31631,328 3.18033,24.01978 7.70072,47.911 12.10927,64 6.95383,25.37802 9.17989,32.31042 18.7849,58.5 14.93644,40.72659 34.82973,79.87162 64.0325,126.00002 8.51454,13.4495 21.69429,31.87 42.14374,58.9016 18.39,24.3093 56.54555,65.3269 86.12345,92.5835 50.91135,46.9158 110.44584,87.937 167.43634,115.3693 26.69758,12.8508 43.67509,19.0415 70.09149,25.5583 17.10015,4.2186 21.04119,4.1212 35.5592,-0.8783 z m -32.63143,-9.2645 c -15.3714,-3.6578 -35.93588,-10.185 -48.02406,-15.2428 -57.88996,-24.2218 -129.14295,-71.6709 -185.20232,-123.3308 -29.32048,-27.0195 -67.03288,-67.5782 -85.35267,-91.7947 -20.44945,-27.0316 -33.6292,-45.4521 -42.14374,-58.9016 -28.95193,-45.7322 -47.28422,-81.78648 -62.0325,-122 -9.60501,-26.18958 -11.83107,-33.12198 -18.7849,-58.5 -4.40036,-16.0591 -8.90256,-39.84111 -12.11592,-64 -2.30558,-17.33396 -3.32132,-69.35053 -6.99074,-358 -0.86698,-68.2 -1.94017,-151.675 -2.38486,-185.5 -0.44469,-33.825 -0.51181,-61.82023 -0.14915,-62.21162 0.92588,-0.99925 24.38678,-11.09254 38.13613,-16.40684 6.325,-2.44469 12.625,-4.92712 14,-5.51651 9.35898,-4.01172 56.67974,-20.02408 70,-23.68656 1.925,-0.52928 8.225,-2.34638 14,-4.038 29.25402,-8.56907 85.30611,-21.07061 114.92382,-25.63195 5.7331,-0.88293 10.71669,-1.78634 11.07464,-2.00757 0.35795,-0.22123 6.46724,-1.1176 13.57618,-1.99195 7.10895,-0.87434 14.95036,-2.03218 17.42536,-2.57297 4.02195,-0.87879 22.69578,-3.12359 50,-6.01053 9.25355,-0.9784 32.04101,-2.80413 64.5,-5.16772 20.72546,-1.50918 146.17943,-1.46793 163.5,0.0538 6.875,0.604 22.175,1.79427 34,2.64504 11.825,0.85076 25.325,1.97963 30,2.50858 4.675,0.52895 16.825,1.85931 27,2.95637 10.175,1.09705 21.2,2.47105 24.5,3.05333 3.3,0.58228 12.3,1.92891 20,2.99252 19.7241,2.7245 40.7728,5.96852 42.253,6.51204 0.6891,0.25305 5.4141,1.1624 10.5,2.02079 17.6117,2.97249 64.8046,13.43379 83.247,18.45344 27.162,7.39297 37.6673,10.48817 54.5,16.05758 11.9027,3.93823 32.7699,11.39193 41.5,14.82371 l 5,1.96548 -0.073,26.34979 c -0.071,25.43801 -2.3269,206.61769 -4.4751,359.34979 -0.5724,40.7 -1.4536,107.075 -1.9582,147.5 -0.922,73.8648 -1.3223,82.18602 -5.461,113.5 -9.4033,71.14626 -38.1276,149.95872 -78.3599,214.99996 -62.1789,100.5213 -152.30898,186.223 -263.1727,250.2422 -27.20298,15.7086 -72.77386,37.2514 -96,45.3822 -14.1022,4.9368 -14.89899,4.9663 -30.95527,1.1455 z m 23.01768,-20.1955 c 15.98373,-5.5421 31.30191,-12.3414 64.43759,-28.602 32.51666,-15.9568 72.46691,-40.7634 106,-65.8193 80.4953,-60.146 146.4682,-133.823 190.8647,-213.1531 33.0369,-59.03234 56.0235,-126.37875 64.1679,-188 4.1387,-31.31398 4.539,-39.6352 5.461,-113.5 0.5046,-40.425 1.3858,-106.8 1.9582,-147.5 0.5725,-40.7 1.7873,-132.275 2.6997,-203.5 0.9124,-71.225 1.8336,-137.20161 2.0472,-146.61469 l 0.3883,-17.11469 -12.7935,-4.57483 c -31.4218,-11.23614 -55.6846,-18.51673 -88.2935,-26.49446 -25.5203,-6.2435 -53.1145,-12.23145 -67.747,-14.70112 -5.0859,-0.85839 -9.8109,-1.76774 -10.5,-2.02079 -1.4802,-0.54352 -22.5289,-3.78754 -42.253,-6.51204 -7.7,-1.06361 -16.7,-2.41024 -20,-2.99252 -3.3,-0.58228 -14.325,-1.95628 -24.5,-3.05333 -10.175,-1.09706 -22.325,-2.42742 -27,-2.95637 -4.675,-0.52895 -18.175,-1.65782 -30,-2.50858 -11.825,-0.85077 -27.125,-2.03861 -34,-2.63964 -17.23995,-1.50717 -134.92351,-1.54919 -155.5,-0.0555 -31.94968,2.31926 -55.19918,4.18069 -64.5,5.16409 -27.30422,2.88694 -45.97805,5.13174 -50,6.01053 -2.475,0.54079 -10.31641,1.69863 -17.42536,2.57297 -7.10894,0.87435 -13.21823,1.77072 -13.57618,1.99195 -0.35795,0.22123 -5.34154,1.12464 -11.07464,2.00757 -28.71934,4.42298 -90.27747,18.28322 -117.92382,26.55137 -37.73115,11.28419 -70.90756,22.87523 -100,34.9376 -6.875,2.85053 -13.625,5.64822 -15,6.21709 l -2.5,1.03431 0.21802,38.62556 c 0.11991,21.24405 0.68571,55.72555 1.25733,76.62555 0.57162,20.9 1.51824,86.15 2.10361,145 2.19515,220.69127 3.9119,309.84037 6.31631,328 4.15649,31.39239 7.63748,48.16842 16.18483,78 3.48825,12.17453 5.49252,18.09553 13.70934,40.5 20.08892,54.77565 50.58604,109.04437 92.10152,163.89197 3.90997,5.1656 7.9936,10.5656 9.07472,12 17.80229,23.6193 53.71328,62.3189 82.53432,88.9434 61.55715,56.8656 139.17988,106.6674 197.5,126.7136 7.76843,2.6702 33.38943,9.9398 36.56241,10.374 0.30933,0.042 4.35933,-1.2395 9,-2.8486 z M 457.5,998.47116 c -2.2,-0.79257 -4.10094,-1.44782 -4.22432,-1.4561 -0.12338,-0.008 -0.89935,-1.32042 -1.72439,-2.91587 -1.29196,-2.49838 -1.37036,-6.34819 -0.56511,-27.75 1.87975,-49.96034 6.84699,-70.99951 25.81673,-109.34919 4.76102,-9.625 8.78644,-17.75016 8.94538,-18.0559 0.15894,-0.30575 -1.25192,-1.29071 -3.13525,-2.1888 -3.15427,-1.50417 -3.89682,-2.84 -9.41872,-16.9441 -14.78852,-37.77299 -23.92447,-74.70212 -27.2617,-110.19667 -1.57248,-16.72479 -0.67766,-61.56138 1.49555,-74.93761 5.6392,-34.70956 11.81675,-52.13545 34.36101,-96.92692 0.20762,-0.4125 -0.58236,-0.75 -1.75551,-0.75 -5.00826,0 -8.13878,-2.94592 -12.03807,-11.32817 C 460.68803,509.9628 450.60743,478.84041 442.67559,447.5 436.52971,423.21626 435,414.45472 435,403.53742 c 0,-10.99076 1.80312,-14.66684 8.96996,-18.28742 8.98176,-4.53744 32.07552,-2.53356 60.53004,5.25229 27.09249,7.41317 61.89623,20.3889 87.24529,32.52728 10.21569,4.89177 13.96375,6.29528 13.25,4.96163 -1.44151,-2.69348 -1.2215,-7.65308 0.48595,-10.95493 1.09163,-2.11097 4.18231,-4.18782 11.75,-7.89569 26.64986,-13.05734 65.54761,-24.33639 100.62324,-29.17737 12.65069,-1.74599 18.54976,-2.03292 33.5,-1.62944 42.19206,1.13871 58.89814,3.35827 80.68343,10.71958 28.12427,9.50327 56.59205,24.30405 85.46209,44.43289 l 11,7.66944 -5.63628,-5.82784 C 916.37412,428.61768 915,426.30846 915,422.11279 c 0,-7.21187 3.98064,-10.46241 25.1451,-20.53322 C 972.0893,386.37938 1000.6942,379 1027.6708,379 c 16.7595,0 20.6325,1.21882 23.5916,7.42409 6.394,13.40844 4.0438,44.61006 -5.8158,77.20845 -5.1893,17.15733 -19.8044,56.02146 -25.9921,69.11746 L 1014.139,544 h 2.9802 c 5.6501,0 8.6289,2.54335 12.8791,10.99669 14.7298,29.29595 25.4603,68.73683 28.976,106.50331 1.3263,14.24732 1.3108,50.79247 -0.028,65.5 -3.7511,41.21423 -15.4931,79.58659 -34.8738,113.96675 -2.79,4.94921 -5.0727,9.23136 -5.0727,9.5159 0,0.28454 1.1473,0.51735 2.5497,0.51735 7.2618,0 12.3464,7.33744 18.3637,26.5 6.5739,20.93538 15.5653,72.81342 16.7561,96.67825 1.0309,20.66103 -0.7794,22.47425 -23.416,23.45424 -34.59423,1.49766 -72.84927,-9.31574 -124.20683,-35.10905 l -9.07412,-4.5573 -1.18715,2.60552 c -2.76669,6.07221 -46.93984,24.55867 -75.2854,31.50694 -24.18914,5.92942 -37.02828,7.29957 -69,7.36346 -19.11162,0.0382 -32.2393,-0.398 -38.5,-1.27922 -23.51544,-3.30989 -48.50617,-9.78166 -68.95606,-17.85731 -11.6368,-4.59536 -38.06431,-17.39948 -45.16822,-21.88398 C 599.76593,957.0897 597.8058,956 597.51987,956 597.23394,956 597,957.37235 597,959.04966 c 0,5.61794 -2.32229,8.2388 -11.65932,13.15834 -21.40088,11.27581 -55.49249,21.69853 -86.02844,26.30121 -12.80051,1.92939 -36.41067,1.90789 -41.81224,-0.038 z m 38.81224,-9.96195 c 21.23931,-3.2014 48.11402,-10.26815 66.68776,-17.53565 10.75776,-4.20927 24,-10.86643 24,-12.06531 0,-0.36898 -1.6875,-1.93858 -3.75,-3.488 -2.0625,-1.54943 -8.38406,-6.66534 -14.04791,-11.36869 -5.66386,-4.70336 -13.08886,-10.26664 -16.5,-12.36284 -7.71269,-4.73957 -9.60827,-4.57397 -28.70209,2.50756 -7.425,2.75379 -16.53859,6.05974 -20.25242,7.34656 l -6.75243,2.33966 0.6398,-4.19125 c 0.35188,-2.30519 1.72319,-7.79125 3.04734,-12.19125 1.32416,-4.4 4.15414,-13.85 6.28885,-21 10.73927,-35.97011 26.09362,-62.33744 51.45573,-88.36262 9.75572,-10.01076 27.16188,-25.12897 32.13842,-27.91398 1.59967,-0.89522 1.35742,-1.79212 -2.79594,-10.35177 -2.50104,-5.1544 -5.78065,-12.85913 -7.28802,-17.12163 -1.50737,-4.2625 -2.94903,-7.75 -3.2037,-7.75 -1.02482,0 -15.21659,11.53859 -25.36048,20.61929 -27.97799,25.0456 -52.62656,57.56377 -67.78125,89.42193 -15.24429,32.04652 -21.46769,57.82271 -22.68541,93.95878 -0.26874,7.975 -0.68871,17.95834 -0.93326,22.18521 -0.42256,7.30363 -0.33472,7.70648 1.76907,8.11381 5.29615,1.02543 25.02043,0.56759 34.02594,-0.78981 z m 298.40501,-1.38971 c 18.02297,-2.75157 33.08725,-6.45495 50.14,-12.32632 15.13611,-5.21146 45.13516,-18.37059 45.12281,-19.79318 -0.002,-0.275 -5.2599,-3.19236 -11.68335,-6.48301 -8.5828,-4.39687 -13.31865,-7.57817 -17.86383,-12 -3.40166,-3.30935 -6.60187,-6.81491 -7.11158,-7.79016 -0.85861,-1.64281 -1.69475,-1.48478 -11.37402,2.14972 -12.23023,4.59238 -35.04778,10.38941 -49.94728,12.68963 -14.07381,2.17275 -53.44435,3.04626 -68.10632,1.51106 -33.43611,-3.50096 -62.16689,-11.46204 -90.65557,-25.11998 -29.35316,-14.07238 -48.46155,-28.13034 -66.86567,-49.19278 l -7.633,-8.73553 -9.86972,15.42824 C 543.44137,885.94272 539,893.25674 539,893.71058 c 0,1.14397 18.99498,19.72414 27.5,26.89945 42.84536,36.14677 99.82868,61.29948 152.5,67.31424 5.225,0.59667 11.075,1.26651 13,1.48854 9.64222,1.11216 50.10163,-0.36728 62.71725,-2.29331 z m 250.84245,-0.78077 c 1.5401,-0.59102 1.6556,-1.78706 1.0803,-11.18983 -1.4288,-23.3524 -10.5514,-74.97799 -16.725,-94.6489 -2.8058,-8.94001 -7.316,-19.5 -8.3285,-19.5 -0.2088,0 -6.3151,7.01666 -13.5693,15.59257 l -13.18962,15.59257 2.09451,18.65743 C 999.00061,929.35756 999.415,936.7224 998,930 l -0.73672,-3.5 -0.13164,3.25 c -0.0725,1.79027 -0.69307,3.30314 -1.38164,3.36831 -0.6875,0.0651 0.1,0.49653 1.75,0.9588 1.95679,0.54821 0.41608,0.65369 -4.43065,0.30333 -26.84375,-1.94048 -63.53397,-19.0567 -94.73209,-44.19314 -10.09527,-8.1338 -27.22346,-24.40546 -35.12404,-33.3676 l -4.12592,-4.68031 -8.29365,4.99353 C 842.31343,862.23878 826.74343,870 824.98065,870 c -1.93512,0 -0.89702,2.21953 4.3677,9.33849 24.26231,32.80754 54.02102,58.79537 85.24817,74.44596 10.97414,5.50008 38.00178,17.26184 49.40348,21.49918 11.79806,4.38465 31.58332,9.36676 44.6208,11.23594 9.7084,1.39188 33.1394,1.27717 36.9389,-0.18084 z M 789,933.52853 c 14.94691,-2.2747 35.87293,-7.51182 48.69021,-12.18564 l 10.19021,-3.71585 -5.92304,-6.33176 c -6.97313,-7.45429 -19.15752,-22.56674 -24.31445,-30.15749 -5.7069,-8.40027 -4.57128,-17.34252 2.55991,-20.1577 6.41611,-2.53289 20.48326,-9.79333 27.81581,-14.3565 7.79296,-4.8497 12.38579,-5.77535 16.56308,-3.33815 1.14495,0.66801 5.70094,5.26456 10.12441,10.21456 15.65821,17.52203 41.02507,38.39121 58.79386,48.36941 4.64293,2.60727 2.05316,0.66322 -8.485,-6.36941 -11.08044,-7.39451 -14.19604,-13.38165 -10.59117,-20.3527 0.7831,-1.51435 4.7206,-5.28276 8.75,-8.37424 15.9461,-12.23436 33.02624,-32.03444 44.62296,-51.729 33.92681,-57.61737 41.56761,-142.7874 19.02303,-212.04406 -1.70085,-5.225 -3.22779,-9.65918 -3.39321,-9.85373 -0.16541,-0.19456 -5.84156,5.37995 -12.61368,12.38778 -12.46803,12.90203 -30.23655,28.04352 -37.02309,31.54934 -6.97944,3.60546 -14.44593,1.70162 -16.80975,-4.28623 -2.48882,-6.30449 -9.75261,-20.34816 -14.85081,-28.71226 -7.61496,-12.4931 -6.94157,-17.24052 3.56092,-25.10458 8.27729,-6.19787 25.87391,-24.08331 32.93967,-33.48032 10.17433,-13.5312 14.89944,-20.92999 12.76878,-19.99394 -1.04426,0.45877 -3.70469,1.01943 -5.91208,1.24591 -3.39761,0.3486 -4.93203,-0.20726 -10,-3.62261 C 932.19396,520.91044 924.775,515.00123 919,509.99779 887.26474,482.50244 870.7818,471.35329 845.05342,459.97991 823.3991,450.4075 785.92583,440.20588 765.87333,438.42414 745.79326,436.63996 695.34282,445.79236 664,456.90536 c -6.325,2.24261 -13.05195,4.08134 -14.94877,4.08606 l -3.44877,0.009 11.99261,12.25 c 17.54127,17.91776 35.30452,38.74904 38.75641,45.45034 4.21137,8.1757 1.15284,13.42709 -10.94936,18.79971 -4.89617,2.17359 -12.72712,6.0921 -17.40212,8.7078 -13.79208,7.71676 -16.6885,6.8845 -28.27509,-8.12461 -9.41045,-12.19016 -27.54481,-31.18371 -38.1432,-39.9504 l -7.34342,-6.07427 -0.56862,2.72072 c -0.53173,2.54424 -9.40534,15.39615 -41.37727,59.92791 -27.36859,38.12005 -38.76158,60.24857 -44.45064,86.33613 -2.01051,9.21931 -2.28135,13.23747 -2.28886,33.95667 -0.009,24.70633 0.80846,32.97011 6.03374,61 2.18475,11.71956 11.21494,50.97453 11.91421,51.79197 0.13737,0.16058 5.00511,-4.40041 10.81721,-10.13554 11.24391,-11.09501 27.30683,-24.89475 34.60258,-29.72726 4.75531,-3.14978 9.24502,-3.72207 13.6073,-1.73448 3.01785,1.37502 4.47474,3.89838 8.09955,14.02857 1.43207,4.00221 4.57674,11.23269 6.98814,16.06774 4.56519,9.15357 5.4277,14.2571 3.09893,18.33673 -0.66801,1.17025 -5.03956,4.99404 -9.71456,8.49732 -4.675,3.50327 -13.76613,11.47464 -20.2025,17.71414 -25.0574,24.29095 -41.25199,49.68297 -50.80629,79.66081 -2.27879,7.15 -5.16899,16.22663 -6.42265,20.17028 l -2.27939,7.17028 2.60542,-1.02246 c 12.68582,-4.97835 22.31987,-7.9757 27.3128,-8.49757 l 5.94878,-0.62177 -7.9673,-8.09938 C 530.0592,900.31836 529,898.61398 529,893.2042 c 0,-3.88919 1.73137,-6.98306 18.84713,-33.6788 3.52228,-5.49377 6.23353,-7.43656 10.45253,-7.48996 4.34015,-0.0549 7.76748,2.22969 13.68197,9.12029 34.90268,40.66291 86.68808,65.73169 152.51837,73.83259 11.59109,1.42636 51.4651,0.52392 64.5,-1.45979 z M 739.89788,880.75 c -2.70012,-1.78796 -5.08513,-5.63831 -11.61426,-18.75 -4.519,-9.075 -9.98714,-20.55 -12.15141,-25.5 -2.16427,-4.95 -5.97937,-13.61265 -8.47801,-19.25032 -2.61097,-5.89114 -6.11141,-16.52297 -8.23104,-25 C 697.39472,784.13735 694.19293,773 692.30807,767.5 690.4232,762 687.25754,751.425 685.27326,744 c -3.30084,-12.35141 -3.64474,-14.92806 -4.04204,-30.28472 -0.45966,-17.76702 0.94958,-34.81889 3.35295,-40.57096 0.77871,-1.86371 1.41583,-4.47654 1.41583,-5.80628 0,-3.5689 3.43112,-9.66479 7.19602,-12.78478 1.81719,-1.50591 17.36648,-10.65993 34.55398,-20.34225 17.1875,-9.68233 31.25,-17.86198 31.25,-18.177 0,-0.31502 -6.28471,-2.75217 -13.96602,-5.4159 -11.28643,-3.91392 -15.21705,-4.83592 -20.48644,-4.80552 -8.16378,0.0471 -16.43581,2.35545 -23.54754,6.57106 -3.025,1.79313 -9.79757,5.82251 -15.05016,8.95418 -8.95051,5.33643 -10.04932,5.72878 -17.5,6.24865 -6.89613,0.48118 -8.38182,0.28147 -11.20898,-1.50675 -5.50352,-3.48105 -7.45823,-7.62603 -6.80817,-14.43679 0.82959,-8.69181 4.57512,-14.67759 16.53088,-26.41826 13.40729,-13.16606 17.32704,-15.79067 35.53643,-23.79467 14.12297,-6.2078 15.67239,-6.66161 26.5,-7.76165 6.52468,-0.66289 27.50755,-1.16836 48.5,-1.16836 h 37 l 7.58577,2.65472 c 22.91426,8.0191 35.34797,18.98083 45.45757,40.07602 3.21846,6.71579 3.45666,7.89009 3.45666,17.04071 0,11.73004 -0.69418,13.35092 -8.7192,20.35886 -9.79327,8.55208 -23.49424,14.11604 -46.2808,18.7946 -6.875,1.41159 -15.38471,3.44906 -18.91048,4.52772 -6.30935,1.93026 -16.51111,7.48063 -20.75424,11.29155 -1.1906,1.06932 -4.63557,3.58933 -7.65549,5.60002 -6.28949,4.1876 -12.16681,10.8266 -14.79013,16.70689 -0.994,2.2281 -2.82625,9.96285 -4.07165,17.18833 -1.90198,11.03467 -2.06862,13.67863 -1.0412,16.51991 0.69263,1.91544 1.22768,8.33998 1.23354,14.81167 0.006,6.79161 0.79831,15.93158 1.95229,22.52577 1.06806,6.10322 2.44688,17.12822 3.06403,24.5 1.71251,20.4555 6.87553,67.79614 7.9865,73.22952 2.21512,10.83346 -0.0174,18.87636 -6.30351,22.7092 -4.55255,2.77583 -12.38964,2.64275 -16.81178,-0.28549 z m 13.20086,-9.84874 c 1.76853,-1.76853 1.99182,-2.81171 1.41918,-6.63031 -0.37375,-2.49237 -1.07578,-5.48544 -1.56006,-6.65127 -0.48428,-1.16582 -1.52946,-7.96968 -2.32263,-15.11968 -1.57665,-14.2128 -1.53068,-13.73986 -2.05823,-21.17575 -0.20195,-2.84667 -0.64299,-5.62201 -0.98008,-6.16744 -0.33709,-0.54542 -0.84685,-5.41633 -1.13279,-10.82424 -0.62924,-11.9006 -1.13049,-17.39762 -2.52549,-27.69649 -0.58585,-4.32515 -0.82584,-8.48765 -0.5333,-9.25 0.29254,-0.76234 0.17101,-1.38608 -0.27006,-1.38608 -0.44107,0 -0.83403,-0.5625 -0.87323,-1.25 -0.0392,-0.6875 -0.57684,-3.725 -1.19474,-6.75 -1.69274,-8.28706 -1.43227,-54.82248 0.35336,-63.13107 1.64312,-7.64548 6.16475,-17.24319 7.68181,-16.30559 0.56721,0.35055 0.89193,0.0297 0.72162,-0.71299 -0.52665,-2.29656 5.3517,-8.72185 12.48626,-13.64803 3.7457,-2.58627 9.5957,-6.624 13,-8.97273 3.4043,-2.34873 7.31464,-4.53976 8.68964,-4.86897 1.375,-0.3292 3.43034,-1.17656 4.56743,-1.88302 3.20636,-1.99206 13.84765,-5.03702 25.93257,-7.4205 11.31726,-2.23207 26.32428,-6.90416 32.5,-10.11813 1.925,-1.00181 4.93809,-3.19791 6.69577,-4.88022 1.75767,-1.68231 3.65434,-3.05875 4.21481,-3.05875 3.86365,0 4.28612,-14.88773 0.64443,-22.70948 -5.86349,-12.59381 -16.72985,-24.81174 -26.4459,-29.73523 -2.87405,-1.45639 -9.09838,-3.96524 -13.83186,-5.57521 l -8.60631,-2.92723 -30.58547,-0.12376 c -18.57716,-0.0752 -33.53008,0.32533 -38.08547,1.02006 -4.125,0.6291 -9.627,1.0374 -12.22666,0.90733 -2.59967,-0.13007 -5.03717,0.074 -5.41667,0.45352 -0.3795,0.3795 -1.45166,0.69 -2.38257,0.69 -0.93091,0 -4.22241,1.35 -7.31444,3 -6.25169,3.33609 -7.06532,3.56782 -6.14452,1.75 0.34825,-0.6875 -0.0453,-0.41744 -0.87445,0.60014 -0.82919,1.01757 -1.98756,1.55352 -2.57416,1.19098 C 703.47994,571.17859 703,571.34995 703,571.92193 c 0,0.57198 -1.2375,1.33398 -2.75,1.69333 -1.5125,0.35935 -5.38878,2.39293 -8.61395,4.51905 -3.22518,2.12613 -6.01032,3.86569 -6.18921,3.86569 -0.1789,0 -3.78148,3.2625 -8.00575,7.25 -4.22426,3.9875 -8.18912,7.2601 -8.81078,7.27244 -0.62167,0.0123 -1.00586,0.76596 -0.85376,1.6747 0.1521,0.90875 -0.55066,2.24865 -1.56168,2.97756 -2.86941,2.06876 -6.38862,10.27664 -5.97168,13.92781 0.28486,2.49451 0.90635,3.29732 2.77315,3.58221 1.32331,0.20195 3.09848,0.0613 3.94484,-0.31252 0.84635,-0.37383 2.6091,-0.85864 3.91722,-1.07735 1.30811,-0.21871 4.70025,-1.88294 7.53809,-3.69828 8.39529,-5.3704 16.36115,-9.59657 18.08848,-9.59657 0.88718,0 1.36409,-0.40285 1.05979,-0.89522 -0.3043,-0.49236 0.14251,-1.16221 0.99292,-1.48854 1.01626,-0.38998 1.33161,-0.16884 0.9201,0.64521 -0.34435,0.6812 0.0523,0.40599 0.88153,-0.61159 0.87864,-1.07825 2.01704,-1.53529 2.72866,-1.09549 0.80413,0.49698 0.96331,0.33761 0.46619,-0.46674 -0.4684,-0.75788 -0.24241,-1.11639 0.59549,-0.94471 0.74269,0.15218 2.39801,-0.30237 3.67849,-1.01012 1.28048,-0.70774 2.91314,-1.06232 3.62815,-0.78795 0.715,0.27437 1.69233,0.1168 2.17185,-0.35017 1.26291,-1.22984 11.91853,-1.95999 17.81344,-1.22061 4.70233,0.58979 4.84723,0.687 2.05842,1.38091 -2.61868,0.65159 -2.49158,0.70903 1,0.45193 4.44311,-0.32717 32.95962,9.06515 43.11636,14.20099 l 5.70871,2.88665 -13.90359,7.90273 c -7.64697,4.34649 -14.24512,7.79022 -14.66253,7.65272 -0.41742,-0.1375 -0.75895,0.16968 -0.75895,0.68261 0,1.04616 -3.95749,2.61634 -5.5,2.18218 -0.55,-0.1548 -0.66931,0.0492 -0.26513,0.45341 0.40417,0.40418 -0.27083,1.27547 -1.5,1.93621 -6.56007,3.52634 -11.60767,6.37505 -14.73487,8.3159 -3.87753,2.40652 -5.49021,2.78189 -4.40451,1.02518 0.44563,-0.72104 0.27393,-0.88282 -0.45729,-0.4309 -0.64395,0.39798 -0.96296,1.05994 -0.70889,1.47102 0.66181,1.07083 -5.23123,4.35484 -6.45614,3.59781 -0.5625,-0.34764 -0.89907,-0.0361 -0.74795,0.69225 0.15113,0.72838 -0.28772,1.21183 -0.97522,1.07433 -0.6875,-0.1375 -1.25,0.12777 -1.25,0.58948 0,0.92119 -5.04785,3.61475 -6.25,3.33503 -0.4125,-0.096 -0.75,0.22663 -0.75,0.71691 0,0.49028 -1.72321,1.58091 -3.82935,2.42362 C 700.8163,660.45743 696,666.18609 696,670.41235 c 0,1.83852 -0.64825,3.88076 -1.44056,4.53832 -0.79231,0.65756 -1.19416,1.83766 -0.89301,2.62244 0.30115,0.78479 0.13534,1.42689 -0.36846,1.42689 -0.50381,0 -0.99971,2.1375 -1.10202,4.75 -0.1023,2.6125 -0.52574,10.375 -0.94098,17.25 -0.41523,6.875 -0.42472,15.71979 -0.0211,19.65508 0.85889,8.37391 6.2959,30.00078 10.77124,42.84492 1.72476,4.95 4.90967,15.975 7.07759,24.5 3.84073,15.10311 7.54938,25.5489 12.52875,35.28859 1.34648,2.63373 3.28466,6.90873 4.30706,9.5 2.89362,7.33388 17.22656,36.50703 18.89632,38.46141 2.01869,2.36279 5.72854,2.20662 8.2839,-0.34874 z m 4.56354,-5.15126 c -0.27741,-0.6875 -0.50439,-0.125 -0.50439,1.25 0,1.375 0.22698,1.9375 0.50439,1.25 0.27741,-0.6875 0.27741,-1.8125 0,-2.5 z m -4,-19 c -0.27741,-0.6875 -0.50439,-0.125 -0.50439,1.25 0,1.375 0.22698,1.9375 0.50439,1.25 0.27741,-0.6875 0.27741,-1.8125 0,-2.5 z m -10,-154 c -0.27741,-0.6875 -0.50439,-0.125 -0.50439,1.25 0,1.375 0.22698,1.9375 0.50439,1.25 0.27741,-0.6875 0.27741,-1.8125 0,-2.5 z m 244.00681,227 c -0.30443,-1.7875 -1.08631,-8.29894 -1.73753,-14.46987 l -1.18404,-11.21987 -3.72295,3.21987 c -2.04763,1.77093 -6.60332,5.7464 -10.12376,8.83438 -3.52045,3.08798 -7.75081,6.31443 -9.40081,7.16988 l -3,1.55536 2.95192,1.13215 c 8.06643,3.09369 21.15391,6.81357 24.40937,6.93791 2.12272,0.0811 2.30537,-0.23817 1.8078,-3.15981 z m -20.29997,-24.62227 c 34.24048,-29.96539 60.40468,-73.7712 73.09088,-122.37338 10.6457,-40.78468 12.5905,-87.54407 5.4799,-131.75435 -4.431,-27.54967 -14.5821,-60.48132 -25.0123,-81.14349 l -3.0406,-6.02342 -12.5991,16.77149 -12.59912,16.77149 3.60493,11.06196 c 10.06949,30.899 14.62979,64.52699 13.36759,98.57333 -2.1004,56.6529 -17.46237,104.7124 -45.71973,143.0327 -7.71861,10.46736 -24.04283,27.26477 -33.69609,34.67286 -6.1538,4.72253 -7.06418,5.79726 -6,7.08315 0.68998,0.83375 6.87952,5.22225 13.75452,9.75224 6.875,4.52998 13.625,9.32909 15,10.66468 1.375,1.33559 3.01804,2.17065 3.6512,1.85568 0.63315,-0.31497 5.45622,-4.34019 10.71792,-8.94494 z M 499.67233,812.16764 c 4.84454,-6.95497 10.05611,-14.06663 11.58127,-15.80369 l 2.77301,-3.15829 -4.53282,-18.34047 C 504.54815,754.85436 500.05322,732.24202 497.2955,713.5 c -1.34368,-9.13193 -1.76368,-18.33366 -1.75726,-38.5 0.008,-23.87795 0.23479,-27.53464 2.29615,-36.95667 5.87086,-26.8345 18.90158,-52.02482 47.46873,-91.76413 7.25829,-10.09688 18.90976,-26.41593 25.89217,-36.26456 l 12.69528,-17.90659 -11.19528,-5.93825 c -6.15741,-3.26604 -14.55711,-7.62103 -18.66601,-9.67775 l -7.47072,-3.7395 -10.02928,10.37373 c -37.97374,39.27789 -66.12231,90.25525 -75.85475,137.37372 -4.66865,22.60272 -5.17703,28.50454 -5.12527,59.5 0.0424,25.39774 0.36055,31.51636 2.28783,44 4.5004,29.15051 12.78342,60.00571 23.95036,89.21782 5.25083,13.73588 5.74129,14.61365 7.35141,13.15652 0.94886,-0.85872 5.68892,-7.25173 10.53347,-14.2067 z M 937.1518,621.79754 C 956.99472,606.50927 976.99851,584.76772 991.24978,563 c 18.47062,-28.21241 42.62882,-89.05556 50.37372,-126.86746 3.8567,-18.82912 3.7295,-41.63669 -0.2544,-45.62059 -1.1784,-1.17839 -4.1147,-1.51195 -13.3095,-1.51195 -25.0158,0 -56.12057,8.46689 -86.5596,23.56197 -19.69371,9.76636 -19.48846,6.94137 -1.79018,24.63965 l 15.15535,15.15535 4.31741,-1.25223 c 2.37458,-0.68873 10.39242,-3.9945 17.81742,-7.34615 7.425,-3.35165 16.02573,-7.08582 19.11272,-8.29814 l 5.61268,-2.20424 -0.4509,4.6219 c -2.14007,21.93145 -21.64472,66.26628 -43.60772,99.12189 -14.83475,22.1921 -28.2235,36.74118 -48.54551,52.75272 l -2.37874,1.87418 5.69471,9.43655 C 918.10157,610.44966 926,626.14774 926,628.01935 c 0,1.95248 1.96562,0.85582 11.1518,-6.22181 z m -273.36711,-85.1629 c 4.24342,-2.40095 11.09031,-5.82548 15.21531,-7.61007 4.125,-1.78459 7.85761,-3.57528 8.29469,-3.97933 1.70561,-1.57669 -25.28479,-32.91023 -44.44145,-51.59271 -23.98248,-23.38885 -34.08939,-30.89469 -55.07925,-40.90431 -35.17292,-16.77321 -84.0071,-33.2354 -113.06128,-38.11339 -12.56852,-2.11016 -24.67542,-1.68354 -27.6108,0.97294 -4.1174,3.72619 -2.66074,16.5562 5.57368,49.09223 9.74016,38.48548 25.15707,83.4337 28.24223,82.34055 C 482.3332,526.33905 509,492.23799 509,490.92952 c 0,-0.61331 -2.23508,-7.26085 -4.96684,-14.77231 -5.32179,-14.63317 -7.49694,-22.49926 -8.57012,-30.99235 l -0.67414,-5.33515 5.85555,0.6751 c 45.18278,5.20923 89.29347,28.80979 127.35555,68.1391 6.875,7.10389 15.82701,17.29015 19.89336,22.63613 4.06634,5.34598 7.56945,9.71996 7.78469,9.71996 0.21523,0 3.86322,-1.96441 8.10664,-4.36536 z M 956.47434,503.89162 C 962.26345,496.68201 967,490.41424 967,489.96324 c 0,-0.45099 -5.9625,-6.30946 -13.25,-13.01881 -41.71406,-38.40469 -82.67543,-63.88417 -125.89345,-78.31035 -20.25959,-6.76265 -36.41723,-8.93896 -76.44029,-10.29589 -12.03343,-0.40797 -18.20128,-0.0811 -30.5,1.61639 -25.78304,3.55863 -57.47774,11.60094 -80.81091,20.50522 C 628.85662,414.75248 614,421.8948 614,423.00995 c 0,0.44 2.1375,2.04523 4.75,3.56717 7.71728,4.4958 15.28089,10.33485 22.90872,17.68538 l 7.15871,6.89847 12.9063,-4.48998 c 33.12497,-11.52386 79.56052,-19.74905 103.75796,-18.37876 5.59141,0.31664 17.43145,2.16085 26.77873,4.17106 C 842.93876,443.36212 881.80407,462.85308 919,496.02318 928.3965,504.40267 944.1046,517 945.15682,517 c 0.43552,0 5.52841,-5.89877 11.31752,-13.10838 z m -414.59794,-39.83165 3.3764,-1.7331 -10.8764,-3.57528 c -11.38811,-3.74349 -26.15245,-7.30887 -26.95264,-6.50869 -0.54765,0.54765 9.44978,30.12543 11.067,32.74214 0.29726,0.48098 4.92094,-3.64045 10.27486,-9.15872 5.35391,-5.51828 11.25376,-10.81314 13.11078,-11.76635 z m 441.5851,0.46861 c 1.8586,-4.96572 3.68702,-10.25869 4.06317,-11.76215 l 0.6839,-2.73357 -8.85429,4.10774 c -11.32095,5.25208 -18.85603,7.857 -22.76083,7.86854 -2.97011,0.009 -2.65488,0.43738 7.90655,10.75 l 11,10.74086 2.29112,-4.97142 c 1.26012,-2.73428 3.81179,-9.03428 5.67038,-14 z"
         id="path20" />
      <path
         style="fill:#632f46"
         d="m 743.5,1338.4162 c -28.30826,-7.4688 -54.24286,-18.1511 -83.98667,-34.5935 -76.35361,-42.2083 -148.96382,-103.0229 -207.62281,-173.8942 -5.20253,-6.2857 -10.34371,-12.6021 -11.42484,-14.0365 -1.08112,-1.4344 -5.16475,-6.8344 -9.07472,-12 -41.51548,-54.8476 -72.0126,-109.11635 -92.10152,-163.892 -8.21682,-22.40447 -10.22109,-28.32547 -13.70934,-40.5 -8.54735,-29.83158 -12.02834,-46.60761 -16.18483,-78 -2.40441,-18.15963 -4.12116,-107.30873 -6.31631,-328 -0.58537,-58.85 -1.53199,-124.1 -2.10361,-145 -0.57162,-20.9 -1.13742,-55.3815 -1.25733,-76.62555 L 299.5,233.24889 302,232.21458 c 1.375,-0.56887 8.125,-3.36656 15,-6.21709 29.09244,-12.06237 62.26885,-23.65341 100,-34.9376 27.64635,-8.26815 89.20448,-22.12839 117.92382,-26.55137 5.7331,-0.88293 10.71669,-1.78634 11.07464,-2.00757 0.35795,-0.22123 6.46724,-1.1176 13.57618,-1.99195 7.10895,-0.87434 14.95036,-2.03218 17.42536,-2.57297 4.02195,-0.87879 22.69578,-3.12359 50,-6.01053 9.30082,-0.9834 32.55032,-2.84483 64.5,-5.16409 20.57649,-1.49366 138.26005,-1.45164 155.5,0.0555 6.875,0.60103 22.175,1.78887 34,2.63964 11.825,0.85076 25.325,1.97963 30,2.50858 4.675,0.52895 16.825,1.85931 27,2.95637 10.175,1.09705 21.2,2.47105 24.5,3.05333 3.3,0.58228 12.3,1.92891 20,2.99252 19.7241,2.7245 40.7728,5.96852 42.253,6.51204 0.6891,0.25305 5.4141,1.1624 10.5,2.02079 14.6325,2.46967 42.2267,8.45762 67.747,14.70112 32.6089,7.97773 56.8717,15.25832 88.2935,26.49446 l 12.7935,4.57483 -0.3883,17.11469 c -0.2136,9.41308 -1.1348,75.38969 -2.0472,146.61469 -0.9124,71.225 -2.1272,162.8 -2.6997,203.5 -0.5724,40.7 -1.4536,107.075 -1.9582,147.5 -0.922,73.8648 -1.3223,82.18602 -5.461,113.5 -8.1444,61.62125 -31.131,128.96766 -64.1679,188.00003 -44.3965,79.3301 -110.3694,153.0071 -190.8647,213.1531 -33.53309,25.0559 -73.48334,49.8625 -106,65.8193 -19.2853,9.4639 -43.76658,20.8561 -50.63139,23.561 -7.11988,2.8055 -22.09701,7.9867 -22.8062,7.8896 -0.30932,-0.042 -6.41241,-1.6204 -13.56241,-3.5068 z M 499.31224,998.50921 C 529.84819,993.90653 563.9398,983.48381 585.34068,972.208 594.67771,967.28846 597,964.6676 597,959.04966 597,957.37235 597.23394,956 597.51987,956 c 0.28593,0 2.24606,1.0897 4.35585,2.42155 7.10391,4.4845 33.53142,17.28862 45.16822,21.88398 20.44989,8.07565 45.44062,14.54742 68.95606,17.85731 6.2607,0.88122 19.38838,1.3174 38.5,1.27922 24.66493,-0.0493 31.09279,-0.38412 43,-2.23994 32.19273,-5.01744 61.77387,-14.73406 93.54912,-30.72839 4.20406,-2.11614 6.97421,-4.22952 7.73628,-5.90207 l 1.18715,-2.60552 9.07412,4.5573 c 51.35756,25.79331 89.6126,36.60671 124.20683,35.10905 22.6366,-0.97999 24.4469,-2.79321 23.416,-23.45424 -1.1908,-23.86483 -10.1822,-75.74287 -16.7561,-96.67825 -6.0173,-19.16256 -11.1019,-26.5 -18.3637,-26.5 -1.4024,0 -2.5497,-0.23281 -2.5497,-0.51735 0,-0.28454 2.2827,-4.56669 5.0727,-9.5159 19.3807,-34.38016 31.1227,-72.75252 34.8738,-113.96675 1.3386,-14.70753 1.3541,-51.25268 0.028,-65.5 -3.5157,-37.76648 -14.2462,-77.20736 -28.976,-106.50331 C 1025.7481,546.54335 1022.7693,544 1017.1192,544 h -2.9802 l 5.3155,-11.25 c 6.1877,-13.096 20.8028,-51.96013 25.9921,-69.11746 9.8596,-32.59839 12.2098,-63.80001 5.8158,-77.20845 -2.9591,-6.20527 -6.8321,-7.42409 -23.5916,-7.42409 -26.9766,0 -55.5815,7.37938 -87.5257,22.57957 C 918.98064,411.65038 915,414.90092 915,422.11279 c 0,4.19567 1.37412,6.50489 7.86372,13.21505 l 5.63628,5.82784 -11,-7.66944 c -28.87004,-20.12884 -57.33782,-34.92962 -85.46209,-44.43289 -21.78529,-7.36131 -38.49137,-9.58087 -80.68343,-10.71958 -14.95024,-0.40348 -20.84931,-0.11655 -33.5,1.62944 -35.07563,4.84098 -73.97338,16.12003 -100.62324,29.17737 -7.56769,3.70787 -10.65837,5.78472 -11.75,7.89569 -1.70745,3.30185 -1.92746,8.26145 -0.48595,10.95493 0.71375,1.33365 -3.03431,-0.0699 -13.25,-4.96163 C 566.39623,410.89119 531.59249,397.91546 504.5,390.50229 485.78331,385.38095 471.35505,383 459.037,383 c -9.01999,0 -11.28182,0.33777 -15.06704,2.25 -7.16684,3.62058 -8.96996,7.29666 -8.96996,18.28742 0,10.9173 1.52971,19.67884 7.67559,43.96258 7.93184,31.34041 18.01244,62.4628 25.32001,78.17183 3.89929,8.38225 7.02981,11.32817 12.03807,11.32817 1.17315,0 1.96313,0.3375 1.75551,0.75 -22.54426,44.79147 -28.72181,62.21736 -34.36101,96.92692 -2.17321,13.37623 -3.06803,58.21282 -1.49555,74.93761 3.33723,35.49455 12.47318,72.42368 27.2617,110.19667 5.5219,14.1041 6.26445,15.43993 9.41872,16.9441 1.88333,0.89809 3.29419,1.88305 3.13525,2.1888 -26.97833,51.89806 -32.71179,72.91154 -34.76211,127.40509 -0.80525,21.40181 -0.72685,25.25162 0.56511,27.75 0.82504,1.59545 1.60101,2.90759 1.72439,2.91587 0.12338,0.008 2.02432,0.66353 4.22432,1.4561 5.40157,1.94594 29.01173,1.96744 41.81224,0.038 z M 724.5,934.98832 c -32.77205,-4.03284 -60.83971,-11.91054 -87,-24.41812 -26.95408,-12.88711 -47.40411,-28.31069 -65.51837,-49.41447 -5.91449,-6.8906 -9.34182,-9.17523 -13.68197,-9.12029 -4.219,0.0534 -6.93025,1.99619 -10.45253,7.48996 C 530.73137,886.22114 529,889.31501 529,893.2042 c 0,5.40978 1.0592,7.11416 10.18887,16.39518 l 7.9673,8.09938 -5.94878,0.62177 c -4.99293,0.52187 -14.62698,3.51922 -27.3128,8.49757 l -2.60542,1.02246 2.27939,-7.17028 c 1.25366,-3.94365 4.14386,-13.02028 6.42265,-20.17028 9.5543,-29.97784 25.74889,-55.36986 50.80629,-79.66081 6.43637,-6.2395 15.5275,-14.21087 20.2025,-17.71414 4.675,-3.50328 9.04655,-7.32707 9.71456,-8.49732 2.32877,-4.07963 1.46626,-9.18316 -3.09893,-18.33673 -2.4114,-4.83505 -5.55607,-12.06553 -6.98814,-16.06774 -3.62481,-10.13019 -5.0817,-12.65355 -8.09955,-14.02857 -4.36228,-1.98759 -8.85199,-1.4153 -13.6073,1.73448 -7.29575,4.83251 -23.35867,18.63225 -34.60258,29.72726 -5.8121,5.73513 -10.67984,10.29612 -10.81721,10.13554 -0.69927,-0.81744 -9.72946,-40.07241 -11.91421,-51.79197 -5.22528,-28.02989 -6.04268,-36.29367 -6.03374,-61 0.008,-20.7192 0.27835,-24.73736 2.28886,-33.95667 5.68906,-26.08756 17.08205,-48.21608 44.45064,-86.33613 31.97193,-44.53176 40.84554,-57.38367 41.37727,-59.92791 l 0.56862,-2.72072 7.34342,6.07427 c 10.59839,8.76669 28.73275,27.76024 38.1432,39.9504 11.58659,15.00911 14.48301,15.84137 28.27509,8.12461 4.675,-2.6157 12.50595,-6.53421 17.40212,-8.7078 12.1022,-5.37262 15.16073,-10.62401 10.94936,-18.79971 -3.45189,-6.7013 -21.21514,-27.53258 -38.75641,-45.45034 L 645.60246,461 l 3.44877,-0.009 c 1.89682,-0.005 8.62377,-1.84345 14.94877,-4.08606 31.34282,-11.113 81.79326,-20.2654 101.87333,-18.48122 20.0525,1.78174 57.52577,11.98336 79.18009,21.55577 25.72838,11.37338 42.21132,22.52253 73.94658,50.01788 5.775,5.00344 13.19396,10.91265 16.48657,13.13157 5.06797,3.41535 6.60239,3.97121 10,3.62261 2.20739,-0.22648 4.86782,-0.78714 5.91208,-1.24591 2.13066,-0.93605 -2.59445,6.46274 -12.76878,19.99394 -7.06576,9.39701 -24.66238,27.28245 -32.93967,33.48032 -10.50249,7.86406 -11.17588,12.61148 -3.56092,25.10458 5.0982,8.3641 12.36199,22.40777 14.85081,28.71226 2.36382,5.98785 9.83031,7.89169 16.80975,4.28623 6.78654,-3.50582 24.55506,-18.64731 37.02309,-31.54934 6.77212,-7.00783 12.44827,-12.58234 12.61368,-12.38778 0.16542,0.19455 1.69236,4.62873 3.39321,9.85373 22.54458,69.25666 14.90378,154.42669 -19.02303,212.04406 -11.59672,19.69456 -28.67686,39.49464 -44.62296,51.729 -4.0294,3.09148 -7.9669,6.85989 -8.75,8.37424 -3.60487,6.97105 -0.48927,12.95819 10.59117,20.3527 10.53816,7.03263 13.12793,8.97668 8.485,6.36941 -17.76879,-9.9782 -43.13565,-30.84738 -58.79386,-48.36941 -4.42347,-4.95 -8.97946,-9.54655 -10.12441,-10.21456 -4.17729,-2.4372 -8.77012,-1.51155 -16.56308,3.33815 -7.33255,4.56317 -21.3997,11.82361 -27.81581,14.3565 -7.13119,2.81518 -8.26681,11.75743 -2.55991,20.1577 5.15693,7.59075 17.34132,22.7032 24.31445,30.15749 l 5.92304,6.33176 -10.19021,3.71585 c -12.81728,4.67382 -33.7433,9.91094 -48.69021,12.18564 -13.0349,1.98371 -52.90891,2.88615 -64.5,1.45979 z m 32.20966,-53.95283 c 6.28612,-3.83284 8.51863,-11.87574 6.30351,-22.7092 -1.11097,-5.43338 -6.27399,-52.77402 -7.9865,-73.22952 -0.61715,-7.37178 -1.99597,-18.39678 -3.06403,-24.5 -1.15398,-6.59419 -1.94613,-15.73416 -1.95229,-22.52577 -0.006,-6.47169 -0.54091,-12.89623 -1.23354,-14.81167 -1.02742,-2.84128 -0.86078,-5.48524 1.0412,-16.51991 1.2454,-7.22548 3.07765,-14.96023 4.07165,-17.18833 2.62332,-5.88029 8.50064,-12.51929 14.79013,-16.70689 3.01992,-2.01069 6.46489,-4.5307 7.65549,-5.60002 4.24313,-3.81092 14.44489,-9.36129 20.75424,-11.29155 3.52577,-1.07866 12.03548,-3.11613 18.91048,-4.52772 22.78656,-4.67856 36.48753,-10.24252 46.2808,-18.7946 8.02502,-7.00794 8.7192,-8.62882 8.7192,-20.35886 0,-9.15062 -0.2382,-10.32492 -3.45666,-17.04071 -10.1096,-21.09519 -22.54331,-32.05692 -45.45757,-40.07602 L 814.5,552.5 h -37 c -20.99245,0 -41.97532,0.50547 -48.5,1.16836 -10.82761,1.10004 -12.37703,1.55385 -26.5,7.76165 -18.20939,8.004 -22.12914,10.62861 -35.53643,23.79467 -11.95576,11.74067 -15.70129,17.72645 -16.53088,26.41826 -0.65006,6.81076 1.30465,10.95574 6.80817,14.43679 2.82716,1.78822 4.31285,1.98793 11.20898,1.50675 7.45068,-0.51987 8.54949,-0.91222 17.5,-6.24865 5.25259,-3.13167 12.02516,-7.16105 15.05016,-8.95418 7.11173,-4.21561 15.38376,-6.52397 23.54754,-6.57106 5.26939,-0.0304 9.20001,0.8916 20.48644,4.80552 7.68131,2.66373 13.96602,5.10088 13.96602,5.4159 0,0.31502 -14.0625,8.49467 -31.25,18.177 -17.1875,9.68232 -32.73679,18.83634 -34.55398,20.34225 -3.7649,3.11999 -7.19602,9.21588 -7.19602,12.78478 0,1.32974 -0.63712,3.94257 -1.41583,5.80628 -2.40337,5.75207 -3.81261,22.80394 -3.35295,40.57096 0.3973,15.35666 0.7412,17.93331 4.04204,30.28472 1.98428,7.425 5.14994,18 7.03481,23.5 1.88486,5.5 5.08665,16.63735 7.11509,24.74968 2.11963,8.47703 5.62007,19.10886 8.23104,25 2.49864,5.63767 6.31374,14.30032 8.47801,19.25032 2.16427,4.95 7.63241,16.425 12.15141,25.5 6.52913,13.11169 8.91414,16.96204 11.61426,18.75 4.42214,2.92824 12.25923,3.06132 16.81178,0.28549 z M 757.15789,867 c 0,-1.375 0.22698,-1.9375 0.50439,-1.25 0.27741,0.6875 0.27741,1.8125 0,2.5 -0.27741,0.6875 -0.50439,0.125 -0.50439,-1.25 z m -4,-19 c 0,-1.375 0.22698,-1.9375 0.50439,-1.25 0.27741,0.6875 0.27741,1.8125 0,2.5 -0.27741,0.6875 -0.50439,0.125 -0.50439,-1.25 z m -10,-154 c 0,-1.375 0.22698,-1.9375 0.50439,-1.25 0.27741,0.6875 0.27741,1.8125 0,2.5 -0.27741,0.6875 -0.50439,0.125 -0.50439,-1.25 z m -51.07894,-13.58333 c 0.048,-1.16495 0.28494,-1.4019 0.60416,-0.60417 0.28887,0.72187 0.25335,1.58438 -0.0789,1.91667 -0.33229,0.33229 -0.56864,-0.25834 -0.52522,-1.3125 z m 3.73355,-77.09978 c 0.72187,-0.28887 1.58438,-0.25335 1.91667,0.0789 0.33229,0.33229 -0.25834,0.56864 -1.3125,0.52522 -1.16495,-0.048 -1.4019,-0.28494 -0.60417,-0.60416 z m 36.4375,-6.00622 c 0.9625,-0.25152 2.5375,-0.25152 3.5,0 0.9625,0.25153 0.175,0.45733 -1.75,0.45733 -1.925,0 -2.7125,-0.2058 -1.75,-0.45733 z M 980,921.86525 c -5.0319,-1.37209 -15.10224,-4.57178 -18.54808,-5.89335 l -2.95192,-1.13215 3,-1.55536 c 1.65,-0.85545 5.88036,-4.0819 9.40081,-7.16988 3.52044,-3.08798 8.07613,-7.06345 10.12376,-8.83438 l 3.72295,-3.21987 1.18404,11.21987 c 0.65122,6.17093 1.4331,12.68237 1.73753,14.46987 0.49757,2.92164 0.31492,3.24089 -1.8078,3.15981 -1.29871,-0.0496 -3.93629,-0.51965 -5.86129,-1.04456 z M 518.49076,484.98504 c -1.61722,-2.61671 -11.61465,-32.19449 -11.067,-32.74214 0.80019,-0.80018 15.56453,2.7652 26.95264,6.50869 l 10.8764,3.57528 -3.3764,1.7331 c -1.85702,0.95321 -7.75687,6.24807 -13.11078,11.76635 -5.35392,5.51827 -9.9776,9.6397 -10.27486,9.15872 z M 964.5,472.75914 c -10.56143,-10.31262 -10.87666,-10.74122 -7.90655,-10.75 3.9048,-0.0115 11.43988,-2.61646 22.76083,-7.86854 l 8.85429,-4.10774 -0.6839,2.73357 c -0.96445,3.85489 -7.00273,19.83664 -9.73355,25.76215 L 975.5,483.5 Z M 229.30987,271.5 c 0.006,-3.3 0.1923,-4.52944 0.41486,-2.73209 0.22256,1.79735 0.21797,4.49735 -0.0102,6 -0.22818,1.50265 -0.41027,0.0321 -0.40466,-3.26791 z"
         id="path18" />
      <path
         style="fill:#000000"
         d="m 746.5,1412.3132 c -41.03263,-9.331 -62.68596,-16.5936 -92.5,-31.025 -61.00572,-29.5295 -124.17873,-72.7834 -176.49892,-120.8469 -32.04111,-29.4342 -73.79887,-74.1114 -93.0354,-99.5397 -27.30251,-36.0905 -40.63474,-55.3014 -55.42188,-79.8595 -5.53252,-9.1882 -24.31414,-42.9176 -28.8975,-51.8961 -3.08632,-6.046 -17.9065,-38.56362 -20.34776,-44.646 -9.16884,-22.84409 -17.51484,-46.71293 -22.72796,-65 -1.72469,-6.05 -3.7834,-13.25 -4.57492,-16 -0.79153,-2.75 -2.34983,-9.4272 -3.4629,-14.83821 -1.11307,-5.41102 -2.24539,-10.19682 -2.51628,-10.63512 -0.70703,-1.144 -5.38933,-29.47654 -7.11068,-43.02667 -2.32446,-18.29758 -3.44327,-75.60148 -6.97014,-357 -0.83754,-66.825 -1.97273,-155.85514 -2.52264,-197.84476 -1.10274,-84.2017 -1.20677,-82.30827 4.99242,-90.866 4.43893,-6.12777 8.51609,-8.77696 25.81121,-16.77119 43.04665,-19.89722 84.35063,-34.84042 143.78335,-52.01881 10.36153,-2.99488 50.95423,-13.10339 60,-14.94137 18.63581,-3.78654 27.58475,-5.632819 34,-7.014649 3.85,-0.82928 11.725,-2.222118 17.5,-3.095195 5.775,-0.873078 12.075,-1.98459 14,-2.470027 1.925,-0.485437 9.125,-1.585358 16,-2.444269 6.875,-0.85891 14.525,-2.003561 17,-2.543668 3.936,-0.858934 23.28401,-3.166508 51,-6.082605 8.35755,-0.879327 32.9702,-2.846859 64.5,-5.156122 20.41665,-1.495328 163.9529,-1.488233 181,0.0089 6.6,0.579652 22.0036,1.781889 34.23021,2.671639 12.22662,0.889749 25.72662,2.011313 30,2.492363 4.27339,0.48105 16.54479,1.809673 27.26979,2.952497 10.725,1.142823 20.85,2.346512 22.5,2.674865 1.65,0.328352 10.65,1.670712 20,2.983021 34.3349,4.819044 74.2022,12.06563 101.5,18.44947 34.2809,8.01689 37.4566,8.82051 60,15.18327 46.41,13.09899 96.4739,31.32246 107.0026,38.94941 5.1798,3.75226 9.5937,10.66799 11.0167,17.26097 0.7401,3.42908 0.9785,17.84825 0.7213,43.62221 -0.4405,44.14886 -3.2494,262.05222 -4.7888,371.5 -0.5724,40.7 -1.4572,107.075 -1.9662,147.5 -0.6433,51.08922 -1.3728,77.92118 -2.3926,88 -1.9111,18.88762 -5.3198,43.05626 -7.0518,50 -0.7546,3.025 -1.6683,7.525 -2.0305,10 -0.3621,2.475 -2.2349,11.025 -4.1616,19 -21.3804,88.49725 -62.5146,171.45035 -123.2245,248.50005 -41.0287,52.0714 -96.9145,105.7517 -152.6246,146.6011 -14.3811,10.545 -41.74547,28.9958 -53.74951,36.2414 -12.41366,7.4928 -35.89928,21.1043 -40.25049,23.3278 -2.2,1.1242 -8.275,4.296 -13.5,7.0485 -10.9124,5.7485 -52.6336,25.0096 -64.5,29.7773 -11.28932,4.5358 -22.85447,8.2611 -31.00854,9.9882 -6.52705,1.3826 -21.46216,1.8589 -25.99146,0.8289 z m 34,-18.333 c 13.76307,-4.4465 25.42093,-9.2233 44.5,-18.234 5.225,-2.4677 11.75,-5.4897 14.5,-6.7155 12.83315,-5.7206 35.90113,-17.7276 51.5,-26.806 66.57023,-38.7433 121.1177,-80.9627 173.5867,-134.355 45.2072,-46.0027 82.9262,-96.0904 112.4343,-149.3035 9.0549,-16.3291 19.8758,-37.8123 24.9661,-49.5662 1.7864,-4.125 4.0951,-9.38781 5.1305,-11.69514 1.0353,-2.30732 1.8824,-4.44973 1.8824,-4.76089 0,-0.31117 0.8876,-2.47336 1.9724,-4.80487 2.1488,-4.61809 9.285,-24.38108 14.5298,-40.2391 5.776,-17.46377 12.6027,-43.79543 15.037,-58 0.8484,-4.95 1.9667,-10.35 2.4852,-12 1.1777,-3.7475 4.7129,-29.45483 6.6008,-48 0.9696,-9.52413 1.7227,-37.49832 2.3555,-87.5 0.5117,-40.425 1.3987,-106.8 1.9711,-147.5 3.9289,-279.33809 5.3382,-406.885 4.544,-411.26475 -0.9608,-5.29889 -6.0969,-9.41527 -17.5911,-14.09844 -5.7226,-2.33162 -11.3047,-4.66256 -12.4047,-5.17987 -2.6903,-1.26518 -25.2868,-9.243 -39.5,-13.94571 -57.4425,-19.00589 -125.8204,-34.46053 -197,-44.52558 -9.625,-1.36101 -18.625,-2.71092 -20,-2.9998 -1.375,-0.28889 -11.275,-1.46162 -22,-2.606088 -10.725,-1.144463 -22.9964,-2.474428 -27.26979,-2.955478 -4.27338,-0.48105 -17.77338,-1.602614 -30,-2.492363 C 880.5036,93.542171 865.1,92.339015 858.5,91.75824 841.99341,90.305724 697.84081,90.281703 679,91.72833 c -44.4577,3.413531 -56.30545,4.372592 -64,5.18072 -29.04616,3.050605 -47.01377,5.20579 -50.5,6.05738 -2.2,0.53741 -10.075,1.71189 -17.5,2.60997 -7.425,0.89807 -13.83904,1.83829 -14.25342,2.08937 -0.41439,0.25107 -7.38939,1.55299 -15.5,2.89314 -20.53381,3.39289 -54.25089,10.16154 -64.24658,12.89739 -3.025,0.82796 -12.25,3.13029 -20.5,5.11629 -20.54544,4.94586 -32.62203,8.38946 -62,17.67912 -16.36937,5.17619 -46.61737,15.74769 -52,18.17369 -1.65,0.74368 -4.125,1.67724 -5.5,2.0746 -1.375,0.39736 -3.85,1.31718 -5.5,2.04405 -1.65,0.72688 -7.05,2.9682 -12,4.98072 -4.95,2.01252 -11.37584,4.74275 -14.27964,6.06718 -2.90379,1.32443 -5.48809,2.40805 -5.74287,2.40805 -0.25478,0 -6.07453,2.70785 -12.93277,6.01743 -9.44976,4.56018 -13.14461,6.90421 -15.25713,9.6792 L 244.5,201.35839 v 33.07081 c 0,18.18894 0.27446,51.2958 0.60991,73.5708 0.33545,22.275 1.34567,97.2 2.24493,166.5 3.86586,297.91455 4.71936,341.23367 7.08313,359.5 3.663,28.30632 11.2576,64.49627 18.04742,86 4.59104,14.54008 8.72778,26.78466 9.96635,29.5 0.75263,1.65 1.90288,5.025 2.55611,7.5 0.65323,2.475 1.52992,4.95 1.9482,5.5 0.41828,0.55 1.46738,3.025 2.33134,5.5 6.32575,18.12154 22.11705,51.3737 37.99163,80 20.6551,37.2469 34.56429,58.1351 69.18666,103.9016 19.01507,25.1356 58.82833,67.8167 90.05297,96.5397 50.79747,46.7278 113.50253,89.9784 170.98135,117.9338 6.6,3.21 13.575,6.6371 15.5,7.6159 1.925,0.9787 4.625,2.1089 6,2.5116 1.375,0.4026 4.85052,1.7927 7.72337,3.089 2.87286,1.2963 6.47286,2.6556 8,3.0206 1.52715,0.3649 3.22663,0.9904 3.77663,1.3899 1.42552,1.0354 19.82464,6.2721 34.5,9.8192 6.875,1.6618 13.4,3.2592 14.5,3.5499 1.1,0.2907 6.725,0.3736 12.5,0.1842 8.47083,-0.2779 12.43254,-0.9688 20.5,-3.5752 z"
         id="path16" />
    </g>
  </g>
</svg>
