<?xml version="1.0" encoding="UTF-8" standalone="no"?>
<svg
   xmlns:dc="http://purl.org/dc/elements/1.1/"
   xmlns:cc="http://creativecommons.org/ns#"
   xmlns:rdf="http://www.w3.org/1999/02/22-rdf-syntax-ns#"
   xmlns:svg="http://www.w3.org/2000/svg"
   xmlns="http://www.w3.org/2000/svg"
   xmlns:sodipodi="http://sodipodi.sourceforge.net/DTD/sodipodi-0.dtd"
   xmlns:inkscape="http://www.inkscape.org/namespaces/inkscape"
   version="1.1"
   id="svg2"
   width="1043.7084"
   height="1045.671"
   viewBox="0 0 1043.7084 1045.671"
   sodipodi:docname="Shanagh.svg"
   inkscape:version="1.0.1 (3bc2e813f5, 2020-09-07)">
  <metadata
     id="metadata8">
    <rdf:RDF>
      <cc:Work
         rdf:about="">
        <dc:format>image/svg+xml</dc:format>
        <dc:type
           rdf:resource="http://purl.org/dc/dcmitype/StillImage" />
        <dc:title></dc:title>
      </cc:Work>
    </rdf:RDF>
  </metadata>
  <defs
     id="defs6" />
  <sodipodi:namedview
     pagecolor="#ffffff"
     bordercolor="#666666"
     borderopacity="1"
     objecttolerance="10"
     gridtolerance="10"
     guidetolerance="10"
     inkscape:pageopacity="0"
     inkscape:pageshadow="2"
     inkscape:window-width="1920"
     inkscape:window-height="1057"
     id="namedview4"
     showgrid="false"
     inkscape:pagecheckerboard="true"
     inkscape:zoom="0.49"
     inkscape:cx="519.72764"
     inkscape:cy="511.8845"
     inkscape:window-x="-8"
     inkscape:window-y="-8"
     inkscape:window-maximized="1"
     inkscape:current-layer="g10" />
  <g
     inkscape:groupmode="layer"
     inkscape:label="Image"
     id="g10"
     transform="translate(-230.27236,-238.1155)">
    <circle
       style="fill:#ffffff;fill-rule:evenodd"
       id="path24"
       cx="754.33673"
       cy="758.75513"
       r="510.96939" />
    <g
       id="g14">
      <path
         style="fill:#fdbf2b"
         d="m 718.5,1237.4775 c -82.96339,-7.6198 -158.21086,-32.9928 -222.80356,-75.1282 -21.95066,-14.3189 -47.44972,-33.98 -63.69644,-49.1132 L 426.5,1108.113 763.30651,771.30651 1100.113,434.5 l 5.1231,5.5 c 21.108,22.66122 46.5882,57.60744 63.7984,87.5 23.8043,41.34609 44.112,97.65846 53.453,148.22268 5.8668,31.75809 6.5125,40.21345 6.5125,85.27732 0,35.98994 -0.2744,43.8236 -1.9837,56.63363 -7.1576,53.6414 -22.136,104.49569 -44.4354,150.86637 -26.8279,55.7877 -70.3981,112.3133 -117.9328,153 -50.808,43.4883 -101.71235,72.4275 -163.02251,92.6785 -59.74199,19.7331 -127.74642,28.3852 -183.12559,23.299 z m 262.57378,-118.0931 c 20.24442,-3.4698 37.59072,-12.3675 51.76242,-26.5514 4.6065,-4.6105 10.5065,-11.5499 11.1638,-13.1305 0.275,-0.6614 1.6716,-3.0025 3.1035,-5.2025 12.5114,-19.2224 17.471,-46.3722 13.4101,-73.4092 -1.314,-8.74878 -5.424,-22.80172 -7.4843,-25.5908 -0.4063,-0.55 -2.4392,-4.15 -4.5174,-8 C 1043.5414,958.29223 1037.933,951.21124 1024,936.55165 1002.2359,913.65264 997.97843,907.67487 992.9818,893 c -7.31077,-21.47143 -4.50469,-49.27009 6.95398,-68.89004 8.43382,-14.44069 23.49702,-27.26091 38.06422,-32.39624 25.2682,-8.90774 52.3105,-2.91677 70.1907,15.55018 11.4055,11.77972 15.2664,22.12725 14.6397,39.2361 -0.3331,9.09624 -0.6972,10.67782 -4.0282,17.5 -2.0141,4.125 -5.1951,9.10081 -7.069,11.05736 -3.4863,3.64011 -16.0876,12.11656 -17.4672,11.74953 -0.4213,-0.1121 -2.9156,0.13988 -5.5429,0.55996 -6.0111,0.9611 -14.8592,-0.79638 -19.8404,-3.94087 -10.8963,-6.87857 -15.3568,-24.47834 -7.5837,-29.92288 3.322,-2.32679 8.5346,-1.86741 12.4176,1.09434 3.9972,3.04881 5.7903,3.45131 9.5638,2.14686 7.5153,-2.59794 7.6202,-16.82734 0.1879,-25.51024 -1.7657,-2.06294 -5.2164,-4.75257 -7.668,-5.97697 -3.8409,-1.91826 -5.7607,-2.18401 -13.8789,-1.92127 -7.8221,0.25315 -10.2862,0.74926 -14.5159,2.92257 -15.8899,8.16468 -24.4578,27.27928 -21.4495,47.85316 0.6639,4.54061 1.9162,10.08553 2.7829,12.32205 1.8883,4.87294 9.2048,15.17465 13.0215,18.33447 7.1465,5.91648 9.5502,7.4966 15.4221,10.13793 31.2408,14.05287 67.1653,3.26766 86.8065,-26.06095 3.1879,-4.76023 6.7858,-11.28523 7.9954,-14.5 2.9806,-7.92149 6.0156,-23.99584 6.0156,-31.8602 0,-6.36298 -2.3576,-21.10142 -3.9967,-24.98485 -0.4642,-1.1 -1.5332,-4.15397 -2.3755,-6.7866 -3.8139,-11.92103 -20.3463,-32.04195 -32.8972,-40.03784 C 1115.5574,768.654 1112.736,767 1112.4607,767 c -0.2752,0 -2.3687,-1.17938 -4.6521,-2.62085 -10.1332,-6.3968 -29.9993,-11.36244 -45.4965,-11.37214 -27.212,-0.017 -53.096,11.01097 -73.83202,31.45646 -14.79503,14.58777 -24.44264,31.06159 -28.94221,49.42039 -6.79636,27.72999 -13.22054,42.25995 -25.08755,56.74208 -7.62226,9.30195 -23.94097,20.02952 -37.12821,24.40727 -5.55247,1.84324 -9.73053,2.34906 -22.44978,2.71787 -18.86753,0.54709 -28.11618,-1.29166 -38.99006,-7.75172 C 832.17971,907.79971 828.74455,906 828.24858,906 c -2.02535,0 -16.19345,-15.98161 -19.94681,-22.5 -4.59509,-7.9802 -6.72183,-14.03461 -8.38769,-23.87813 -3.47602,-20.53965 6.92732,-44.01526 24.41417,-55.09173 C 833.32998,798.82829 839.77353,797 850.8671,797 c 12.39062,0 19.18193,2.44251 26.46644,9.51871 7.57309,7.35652 9.66646,12.27846 9.66646,22.72781 0,7.96098 -0.21589,8.84905 -3.25,13.36865 -5.46899,8.14661 -13.63629,11.33721 -19.7605,7.71956 -4.08549,-2.41336 -4.92425,-4.96182 -3.66165,-11.12543 0.99533,-4.85887 0.90913,-5.41661 -1.15604,-7.47984 -3.30445,-3.30133 -10.72769,-2.87776 -16.1194,0.91979 -11.3319,7.9814 -11.3601,26.28795 -0.0596,38.65256 14.52328,15.89078 40.00568,16.73877 58.60054,1.95009 5.83269,-4.6388 13.13545,-15.17459 16.17453,-23.33521 2.46496,-6.61899 4.42811,-19.5687 3.75051,-24.73988 -0.26498,-2.02224 -0.6958,-5.54641 -0.95737,-7.83148 -1.28351,-11.21257 -6.27553,-20.86769 -17.82648,-34.47839 -3.4179,-4.02738 -17.72715,-13.34332 -24.33614,-15.84388 -17.54212,-6.63719 -38.11523,-6.58971 -56.39845,0.13016 -21.16128,7.77769 -40.02597,25.34952 -49.52741,46.13314 -7.94582,17.38086 -9.83462,41.01935 -4.85938,60.81573 7.10022,28.2516 26.36174,52.81041 52.60135,67.06771 9.22708,5.01354 21.34069,9.41598 28.28544,10.27977 29.09096,3.61833 33.60183,3.1713 67,-6.63974 10.38453,-3.05056 11.89523,-3.23105 27,-3.2258 l 16,0.006 11.5,3.98119 c 21.80147,7.54746 37.78845,19.65751 46.82565,35.47039 8.2059,14.35806 10.127,22.38009 9.8088,40.95879 -0.2664,15.5521 -1.7756,21.1368 -9.1816,33.9768 -4.9212,8.5317 -15.0978,19.0164 -22.83001,23.521 -10.33844,6.0229 -25.47549,8.4646 -38.12284,6.1494 -10.04586,-1.8389 -13.59186,-3.3618 -21.27333,-9.1361 -16.25583,-12.2197 -22.822,-29.9487 -17.09747,-46.1642 2.35242,-6.6635 8.72761,-15.1295 13.19232,-17.519 9.13336,-4.888 19.74236,-3.9921 25.92848,2.1895 3.23364,3.2313 3.75,4.3731 3.75,8.2924 0,3.6793 -0.48513,4.9266 -2.54696,6.5485 -1.40083,1.1019 -3.81367,2.2816 -5.36186,2.6217 -2.8611,0.6284 -5.09118,3.9179 -5.09118,7.5099 0,3.3576 3.86574,8.5751 7.73539,10.4403 4.22964,2.0387 15.06757,2.2639 18.65047,0.3876 15.94508,-8.3504 21.74313,-31.0325 12.60674,-49.3178 -3.62465,-7.2542 -4.15204,-7.91236 -10.4926,-13.09433 -17.8298,-14.57179 -44.75123,-15.6748 -65.25074,-2.6734 -7.58505,4.81066 -11.78593,8.76008 -16.81669,15.81003 -9.33709,13.0848 -12.50146,24.2986 -12.12199,42.9577 0.28559,14.0433 2.61181,24.0509 7.37549,31.7301 1.27266,2.0516 2.31393,3.9631 2.31393,4.2477 0,1.4447 8.06102,11.7019 13.06779,16.628 12.62849,12.4252 27.79307,19.4713 49.93221,23.2007 5.85422,0.9862 17.30227,0.5813 26.07378,-0.9221 z"
         id="path22" />
      <path
         style="fill:#f70400"
         d="m 955,1120.3065 c -22.13914,-3.7294 -37.30372,-10.7755 -49.93221,-23.2007 C 900.06102,1092.1797 892,1081.9225 892,1080.4778 c 0,-0.2846 -1.04127,-2.1961 -2.31393,-4.2477 -4.76368,-7.6792 -7.0899,-17.6868 -7.37549,-31.7301 -0.37947,-18.6591 2.7849,-29.8729 12.12199,-42.9577 19.24213,-26.96543 57.62842,-33.10999 82.06743,-13.13667 6.34056,5.18197 6.86795,5.84013 10.4926,13.09437 9.13639,18.2853 3.33834,40.9674 -12.60674,49.3178 -3.5829,1.8763 -14.42083,1.6511 -18.65047,-0.3876 C 951.86574,1048.565 948,1043.3475 948,1039.9899 c 0,-3.592 2.23008,-6.8815 5.09118,-7.5099 1.54819,-0.3401 3.96103,-1.5198 5.36186,-2.6217 2.06183,-1.6219 2.54696,-2.8692 2.54696,-6.5485 0,-3.9193 -0.51636,-5.0611 -3.75,-8.2924 -6.18612,-6.1816 -16.79512,-7.0775 -25.92848,-2.1895 -4.46471,2.3895 -10.8399,10.8555 -13.19232,17.519 -5.72453,16.2155 0.84164,33.9445 17.09747,46.1642 7.68147,5.7743 11.22747,7.2972 21.27333,9.1361 12.64735,2.3152 27.7844,-0.1265 38.12284,-6.1494 7.73226,-4.5046 17.90876,-14.9893 22.82996,-23.521 7.406,-12.84 8.9152,-18.4247 9.1816,-33.9768 0.3182,-18.5787 -1.6029,-26.60077 -9.8088,-40.95883 C 1007.7884,965.22829 991.80147,953.11824 970,945.57078 l -11.5,-3.98119 -16,-0.006 c -15.10477,-0.005 -16.61547,0.17524 -27,3.2258 -33.39817,9.81104 -37.90904,10.25807 -67,6.63974 -6.94475,-0.86379 -19.05836,-5.26623 -28.28544,-10.27977 -26.23961,-14.2573 -45.50113,-38.81611 -52.60135,-67.06771 -3.69516,-14.70295 -3.7206,-32.44474 -0.0661,-46.10209 3.0256,-11.30716 5.76016,-17.53306 11.80548,-26.87817 12.48409,-19.29843 35.81369,-34.71718 57.64743,-38.09972 13.47253,-2.08721 29.36755,-0.55103 41.39845,4.00095 6.60899,2.50056 20.91824,11.8165 24.33614,15.84388 11.55095,13.6107 16.54297,23.26582 17.82648,34.47839 0.26157,2.28507 0.69239,5.80924 0.95737,7.83148 0.6776,5.17118 -1.28555,18.12089 -3.75051,24.73988 -4.88953,13.12949 -15.02252,24.50513 -26.57518,29.83419 C 865.0912,891.79112 834.6838,875.81246 834.57681,850 c -0.0462,-11.15794 7.57665,-20.05145 17.44325,-20.35075 3.881,-0.11773 5.39151,0.32163 7.15175,2.08021 2.06517,2.06323 2.15137,2.62097 1.15604,7.47984 -1.2626,6.16361 -0.42384,8.71207 3.66165,11.12543 6.12421,3.61765 14.29151,0.42705 19.7605,-7.71956 3.03411,-4.5196 3.25,-5.40767 3.25,-13.36865 0,-10.44935 -2.09337,-15.37129 -9.66646,-22.72781 C 870.04903,799.44251 863.25772,797 850.8671,797 c -18.27415,0 -31.36425,7.33003 -42.44694,23.76891 -12.03554,17.85224 -12.08103,41.9558 -0.11839,62.73109 3.75336,6.51839 17.92146,22.5 19.94681,22.5 0.49597,0 3.93113,1.79971 7.63369,3.99936 10.87388,6.46006 20.12253,8.29881 38.99006,7.75172 12.71925,-0.36881 16.89731,-0.87463 22.44978,-2.71787 13.18724,-4.37775 29.50595,-15.10532 37.12821,-24.40727 11.86701,-14.48213 18.29119,-29.01209 25.08755,-56.74208 4.49957,-18.3588 14.14718,-34.83262 28.94221,-49.42039 20.73602,-20.44549 46.62002,-31.4735 73.83202,-31.45646 15.4972,0.01 35.3633,4.97534 45.4965,11.37214 2.2834,1.44147 4.3769,2.62085 4.6521,2.62085 0.2753,0 3.0967,1.654 6.2699,3.67556 12.5509,7.99589 29.0833,28.11681 32.8972,40.03784 0.8423,2.63263 1.9113,5.6866 2.3755,6.7866 1.6391,3.88343 3.9967,18.62187 3.9967,24.98485 0,7.86436 -3.035,23.93871 -6.0156,31.8602 -1.2096,3.21477 -4.8075,9.73977 -7.9954,14.5 -19.6412,29.32861 -55.5657,40.11382 -86.8065,26.06095 -5.8719,-2.64133 -8.2756,-4.22145 -15.4221,-10.13793 -3.8167,-3.15982 -11.1332,-13.46153 -13.0215,-18.33447 -0.8667,-2.23652 -2.119,-7.78144 -2.7829,-12.32205 -3.0083,-20.57388 5.5596,-39.68848 21.4495,-47.85316 4.2297,-2.17331 6.6938,-2.66942 14.5159,-2.92257 8.1182,-0.26274 10.038,0.003 13.8789,1.92127 2.4516,1.2244 5.9023,3.91403 7.668,5.97697 7.4323,8.6829 7.3274,22.9123 -0.1879,25.51024 -3.7735,1.30445 -5.5666,0.90195 -9.5638,-2.14686 -3.883,-2.96175 -9.0956,-3.42113 -12.4176,-1.09434 -7.7731,5.44454 -3.3126,23.04431 7.5837,29.92288 4.9812,3.14449 13.8293,4.90197 19.8404,3.94087 2.6273,-0.42008 5.1216,-0.67206 5.5429,-0.55996 1.3796,0.36703 13.9809,-8.10942 17.4672,-11.74953 1.8739,-1.95655 5.0549,-6.93236 7.069,-11.05736 3.331,-6.82218 3.6951,-8.40376 4.0282,-17.5 0.6267,-17.10885 -3.2342,-27.45638 -14.6397,-39.2361 -30.9981,-32.01525 -84.5889,-23.67574 -108.25492,16.84606 -11.45867,19.61995 -14.26475,47.41861 -6.95398,68.89004 4.99663,14.67487 9.2541,20.65264 31.0182,43.55165 13.933,14.65959 19.5414,21.74058 24.5119,30.94835 2.0782,3.85 4.1111,7.45 4.5174,8 2.0603,2.78908 6.1703,16.84202 7.4843,25.5908 4.0609,27.037 -0.8987,54.1868 -13.4101,73.4092 -1.4319,2.2 -2.8285,4.5411 -3.1035,5.2025 -1.2345,2.9687 -11.9427,14.4343 -18.4899,19.7975 -7.4835,6.1302 -18.855,12.539 -28.0101,15.7861 -12.51546,4.4389 -32.16961,6.7606 -42.5,5.0204 z"
         id="path20" />
      <path
         style="fill:#07538d"
         d="m 735.75,1283.2943 c 1.2375,-0.2384 3.2625,-0.2384 4.5,0 1.2375,0.2383 0.225,0.4333 -2.25,0.4333 -2.475,0 -3.4875,-0.195 -2.25,-0.4333 z m 30,0 c 1.2375,-0.2384 3.2625,-0.2384 4.5,0 1.2375,0.2383 0.225,0.4333 -2.25,0.4333 -2.475,0 -3.4875,-0.195 -2.25,-0.4333 z m -50,-0.9566 c 0.6875,-0.2774 1.8125,-0.2774 2.5,0 0.6875,0.2774 0.125,0.5044 -1.25,0.5044 -1.375,0 -1.9375,-0.227 -1.25,-0.5044 z m 72,0 c 0.6875,-0.2774 1.8125,-0.2774 2.5,0 0.6875,0.2774 0.125,0.5044 -1.25,0.5044 -1.375,0 -1.9375,-0.227 -1.25,-0.5044 z m -83.9375,-1.0208 c 0.72187,-0.2889 1.58438,-0.2534 1.91667,0.079 0.33229,0.3323 -0.25834,0.5687 -1.3125,0.5253 -1.16495,-0.048 -1.4019,-0.285 -0.60417,-0.6042 z m 97,0 c 0.72187,-0.2889 1.58438,-0.2534 1.91667,0.079 0.33229,0.3323 -0.25834,0.5687 -1.3125,0.5253 -1.16495,-0.048 -1.4019,-0.285 -0.60417,-0.6042 z M 404.87244,1151.25 c -1.24387,-1.5861 -1.2085,-1.6214 0.37756,-0.3776 1.66575,1.3064 2.19548,2.1276 1.37244,2.1276 -0.20765,0 -0.99515,-0.7875 -1.75,-1.75 z M 1099,1152.6224 c 0,-0.2076 0.7875,-0.9951 1.75,-1.75 1.5861,-1.2438 1.6214,-1.2085 0.3776,0.3776 -1.3064,1.6657 -2.1276,2.1955 -2.1276,1.3724 z M 392.43709,1139.75 389.5,1136.5 l 3.25,2.9371 c 3.02946,2.7378 3.70965,3.5629 2.93709,3.5629 -0.1721,0 -1.6346,-1.4625 -3.25,-3.25 z M 1110,1142.6871 c 0,-0.1721 1.4625,-1.6346 3.25,-3.25 l 3.25,-2.9371 -2.9371,3.25 c -2.7378,3.0295 -3.5629,3.7097 -3.5629,2.9371 z M 373.43709,1120.75 370.5,1117.5 l 3.25,2.9371 c 3.02946,2.7378 3.70965,3.5629 2.93709,3.5629 -0.1721,0 -1.6346,-1.4625 -3.25,-3.25 z M 1129,1123.6871 c 0,-0.1721 1.4625,-1.6346 3.25,-3.25 l 3.25,-2.9371 -2.9371,3.25 c -2.7378,3.0295 -3.5629,3.7097 -3.5629,2.9371 z M 361.87244,1108.25 c -1.24387,-1.5861 -1.2085,-1.6214 0.37756,-0.3776 0.9625,0.7549 1.75,1.5424 1.75,1.75 0,0.8231 -0.82119,0.2933 -2.12756,-1.3724 z M 1142,1109.6224 c 0,-0.2076 0.7875,-0.9951 1.75,-1.75 1.5861,-1.2438 1.6214,-1.2085 0.3776,0.3776 -1.3064,1.6657 -2.1276,2.1955 -2.1276,1.3724 z M 762.5,771 C 947.84939,585.65 1099.7239,434 1099.9989,434 1100.2739,434 948.84939,585.65 763.5,771 578.15061,956.35 426.27611,1108 426.00111,1108 425.72611,1108 577.15061,956.35 762.5,771 Z M 386.26592,1065.25 C 353.47806,1025.8008 328.05319,983.45168 310.47009,939 291.86516,891.96504 281.04249,845.88344 276.49569,794.34125 269.81537,718.61366 287.38615,628.429 323.41905,553.5 345.1207,508.37228 378.95603,461.04445 416.00024,424.00024 453.04445,386.95603 500.37228,353.1207 545.5,331.41905 c 74.929,-36.0329 165.11366,-53.60368 240.84125,-46.92336 40.96918,3.6141 78.75063,11.25851 115.28434,23.32576 49.62215,16.39043 91.02917,37.74649 132.67801,68.42993 12.8282,9.45077 34.6964,27.42308 34.6964,28.5151 C 1069,405.7264 397.72529,1077 396.76537,1077 c -0.40344,0 -5.12819,-5.2875 -10.49945,-11.75 z m 199.4491,-277.452 c 1.3958,-1.31129 3.31881,-5.45742 4.75402,-10.25 1.32556,-4.4264 5.80848,-19.41219 9.96205,-33.30175 4.15356,-13.88956 8.05601,-28.5026 8.67211,-32.47343 0.96784,-6.2379 1.66765,-7.83523 5.14612,-11.74625 5.39858,-6.06988 8.78167,-13.95395 9.42919,-21.97409 0.49169,-6.08996 -0.0922,-9.14465 -3.08135,-16.12149 -0.49203,-1.1484 4.32262,-6.23044 17.96003,-18.95752 10.24775,-9.56367 20.0225,-19.40912 21.72167,-21.87878 4.12307,-5.99268 4.80692,-13.04607 1.8305,-18.88033 C 660.94921,599.94028 660,597.85409 660,597.57838 c 0,-0.27571 1.71681,-0.96358 3.81513,-1.5286 2.09832,-0.56502 4.90905,-2.19173 6.24605,-3.61491 2.0652,-2.1983 2.48506,-3.77968 2.79076,-10.51123 L 673.21177,574 h 5.24623 c 7.00067,0 11.26079,-2.85782 14.542,-9.75522 1.80787,-3.80031 2.91528,-5.08345 4,-4.63475 3.95231,1.63487 8.41712,2.11358 11.57658,1.24121 4.02077,-1.11018 10.03275,-6.045 10.97279,-9.00679 0.62724,-1.97626 0.71829,-1.96222 3.29784,0.50854 2.86074,2.7401 8.97945,5.64701 11.88627,5.64701 0.98875,0 3.34472,-0.82966 5.23548,-1.84369 l 3.43776,-1.84369 1.54664,3.07376 C 747.10367,561.65986 752.45348,565 757.14788,565 H 761 v 4.56574 c 0,5.26162 1.04614,7.67244 5.26372,12.13016 2.81734,2.97774 2.93724,3.40472 1.7566,6.25505 -0.74394,1.79602 -1.0785,5.33394 -0.81027,8.56846 l 0.45688,5.50931 -5.34126,5.34126 c -5.2288,5.2288 -5.48946,5.35368 -12.38111,5.93145 l -7.03986,0.5902 -1.96079,-3.19582 c -2.9361,-4.78544 -3.99258,-9.4376 -2.83479,-12.48282 0.5472,-1.43923 2.9965,-4.75666 5.44289,-7.37205 6.63593,-7.09434 5.79649,-12.58185 -2.57825,-16.85433 -9.18968,-4.68822 -21.58425,-1.46 -30.28363,7.8875 -6.98362,7.50392 -7.69013,9.83598 -7.69013,25.38367 0,19.8751 2.86497,28.73427 11.25871,34.81467 2.18758,1.58467 5.61178,3.17244 7.60935,3.52837 1.99757,0.35593 5.88194,2.33829 8.63194,4.40526 8.823,6.63157 11.14204,7.47697 20.5,7.47328 8.31899,-0.003 13.66639,-1.64482 18.81312,-5.77521 0.72222,-0.5796 4.54722,-1.12228 8.5,-1.20597 5.55511,-0.1176 8.33124,-0.73873 12.22703,-2.73567 6.49016,-3.32678 12.66473,-10.06231 14.96187,-16.32116 1.02866,-2.80271 3.86501,-7.10537 6.55342,-9.94135 2.6069,-2.75 5.70457,-6.93118 6.8837,-9.29151 2.85172,-5.70847 3.59057,-15.0502 1.84596,-23.33957 -1.18209,-5.61663 -1.18706,-7.22298 -0.0325,-10.5 4.86899,-13.81964 0.95867,-30.63076 -9.06889,-38.98869 -2.62402,-2.18711 -3.63211,-3.96314 -4.1891,-7.38023 -2.63576,-16.17036 -14.80053,-29.0705 -29.72019,-31.51681 -3.52041,-0.57722 -5.3924,-1.84478 -10.61191,-7.18549 -8.71061,-8.91289 -16.81847,-12.72364 -27.16253,-12.76657 -4.94004,-0.0205 -9.1195,0.59373 -12.24472,1.79956 l -4.74471,1.83069 -6.03581,-3.01613 c -15.2196,-7.60532 -31.8598,-6.10636 -41.72476,3.7586 l -3.23784,3.23784 -9.46506,-1.23833 c -20.85,-2.72783 -34.73895,3.88584 -41.21086,19.62388 -1.60166,3.89484 -2.22225,4.46574 -4.85788,4.46901 -4.6425,0.006 -15.71664,3.36731 -20.68484,6.27887 -4.21057,2.46756 -10.0769,8.25689 -12.29497,12.1336 -0.8762,1.53141 -1.3945,1.19269 -4.14424,-2.7084 -5.59633,-7.93957 -17.37189,-14.22519 -28.87708,-15.41416 -4.97615,-0.51424 -5.04742,-0.57134 -7.68033,-6.15261 -7.03883,-14.92103 -20.92221,-21.02574 -41.25346,-18.13972 l -8.72165,1.23804 -3.6609,-3.56658 c -10.15799,-9.89632 -26.48561,-11.10856 -42.22126,-3.1347 l -5.09107,2.57984 -5.17428,-1.79083 c -3.25925,-1.12803 -7.95007,-1.77404 -12.67428,-1.74546 -10.2067,0.0617 -17.21636,3.40807 -26.01014,12.41695 -5.08205,5.20635 -7.33828,6.80377 -10.28531,7.282 -5.91127,0.95927 -14.12607,5.15249 -19.12976,9.76474 -5.35437,4.93548 -10.28738,14.35231 -11.24297,21.46217 -0.57932,4.31027 -1.31955,5.58221 -5.36612,9.22057 -8.72491,7.84477 -11.95934,21.18941 -8.54286,35.24611 1.42719,5.87198 1.50774,7.89775 0.51474,12.94508 -2.67372,13.59023 0.2408,24.12911 9.03109,32.65635 3.07932,2.98717 5.08265,5.89191 5.46345,7.92175 0.85442,4.55443 6.55735,12.14262 12.0731,16.06417 5.0421,3.58481 13.62777,5.94699 18.83651,5.18251 2.25138,-0.33043 4.8356,0.49811 9.4296,3.02329 11.86331,6.52089 23.02776,5.50192 34.55429,-3.15374 3.39322,-2.54809 7.39253,-4.62522 9.57839,-4.97475 5.37289,-0.85916 11.63855,-5.79015 14.45002,-11.37197 3.49377,-6.93644 4.64874,-13.81994 4.62401,-27.55859 -0.0254,-14.08089 -1.18037,-17.71035 -7.98549,-25.09303 -10.21292,-11.07972 -27.71156,-13.1369 -34.82465,-4.09407 -3.85071,4.89538 -2.67828,9.42347 4.07467,15.73703 3.84156,3.59159 3.99147,3.96176 3.53375,8.72542 -0.29651,3.08583 -1.49439,6.51055 -3.15484,9.01966 -2.26906,3.42879 -2.96725,3.88952 -4.58341,3.02458 -1.0486,-0.5612 -3.8713,-1.02037 -6.27263,-1.02037 -3.93288,0 -4.92486,-0.54123 -9.99813,-5.45508 l -5.63206,-5.45508 0.56086,-5.4342 c 0.39295,-3.80726 0.10775,-6.34249 -0.9526,-8.46802 -1.46431,-2.93527 -1.41576,-3.12563 1.49468,-5.86072 3.78654,-3.55839 5.76183,-8.11615 5.76183,-13.29478 0,-3.99201 0.0373,-4.03216 3.75,-4.03586 4.87037,-0.005 9.8569,-3.10407 11.90513,-7.39924 l 1.62929,-3.41667 3.87236,2.01838 c 4.84501,2.52536 9.04104,1.88939 14.73154,-2.23279 l 4.12445,-2.98773 4.24361,4.40643 c 5.41684,5.62466 10.03757,7.03772 16.55042,5.06126 2.58126,-0.78334 4.73447,-1.42912 4.78491,-1.43508 0.0504,-0.006 0.60113,1.68945 1.22375,3.76756 0.62261,2.07812 2.72204,5.31949 4.6654,7.20306 3.13915,3.0426 4.25776,3.47081 10.02625,3.83812 L 492,574.23299 v 7.30678 c 0,6.39023 0.32275,7.69035 2.573,10.36462 1.48753,1.76782 4.25797,3.51155 6.56703,4.13332 3.87112,1.04238 3.96888,1.17374 3.177,4.26888 -0.44937,1.75638 -0.81703,6.13398 -0.81703,9.72802 0,9.87816 2.98158,13.40809 25.65779,30.37659 l 18.59052,13.91121 -3.42101,7.20367 c -2.4515,5.16216 -3.58684,9.18169 -4.00616,14.18333 -0.85433,10.19048 1.37575,16.14748 8.83898,23.61071 4.86603,4.86603 5.83988,6.416 5.83988,9.2947 0,1.90015 1.54275,8.72665 3.42834,15.17 1.88559,6.44335 5.4661,18.69018 7.95669,27.21518 2.49059,8.525 5.83968,19.9003 7.44241,25.27844 4.01868,13.48511 6.86223,16.24063 11.88758,11.51956 z m -5.74949,-7.98332 c -0.63052,-2.37307 -5.1557,-18.40766 -10.05596,-35.63241 C 564.1067,723.78481 561,711.13598 561,707.90729 c 0,-5.9024 2.84815,-14.5004 6.8322,-20.62508 l 2.88331,-4.4325 3.59553,4.20057 3.59554,4.20057 -2.33637,4.62458 c -5.06443,10.02446 -5.37866,21.27299 -0.71222,25.49605 5.65681,5.11934 13.04486,3.35389 16.13524,-3.85569 1.61362,-3.76443 2.76554,-4.91211 6.5648,-6.54066 6.28009,-2.69196 6.64449,-2.58122 5.84029,1.77487 -1.61657,8.75639 -20.00267,70.64079 -21.09236,70.9932 -0.70007,0.22641 -1.66829,-1.39879 -2.34043,-3.92852 z m -1.38093,-71.6778 c -0.37247,-0.60266 -0.12949,-2.92387 0.53995,-5.15824 1.1136,-3.71689 1.44903,-4.01157 3.94271,-3.46387 3.18792,0.70019 9.34457,-1.62066 12.76641,-4.8125 3.54914,-3.31058 6.05484,-8.90232 6.78924,-15.15089 0.61918,-5.26828 0.9946,-5.88845 6.39843,-10.56987 6.35847,-5.50843 6.96821,-5.40404 8.86912,1.51849 1.49043,5.4277 1.38921,9.19525 -0.4098,15.25317 -2.76793,9.32064 -12.09238,18.55431 -21.44555,21.23676 -5.60022,1.60612 -16.71523,2.33667 -17.45051,1.14695 z m -26.88844,-13.17874 c -8.18551,-9.56294 -7.97022,-25.64965 0.5148,-38.46496 3.66773,-5.53954 14.49997,-16.52827 16.19547,-16.42943 0.60146,0.0351 2.80282,2.11606 4.89191,4.62444 l 3.79833,4.56069 -7.05975,7.28075 c -3.88286,4.00441 -7.72961,8.88396 -8.54833,10.84344 -1.69278,4.05138 -1.95905,12.25932 -0.52046,16.04311 0.76711,2.01765 0.45565,3.56673 -1.5,7.46033 -1.35747,2.70267 -2.46813,5.63609 -2.46813,6.51872 0,2.6086 -1.62342,1.86265 -5.30384,-2.43709 z m 28.41627,-8.91152 c -4.87879,-4.37436 -10.3007,-9.75913 -12.04869,-11.96615 l -3.17817,-4.01276 3.30722,-4.49485 c 1.81896,-2.47217 3.77988,-4.51241 4.35759,-4.53386 1.60004,-0.0594 12.0768,9.60063 17.5662,16.19681 3.29673,3.96142 4.88342,6.78208 4.88342,8.68125 0,2.81163 -3.31365,8.08294 -5.0811,8.08294 -0.51477,0 -4.92768,-3.57902 -9.80647,-7.95338 z m 10.36942,-16.06505 -4.85473,-4.92884 15.48433,-15.77636 c 20.72911,-21.12008 25.82285,-28.76663 25.86659,-38.83003 0.0331,-7.60858 -3.72075,-14.2249 -12.3247,-21.72299 C 601.44672,577.21416 593.35785,568.43001 590.37813,562.36156 587.8206,557.15293 587.5,555.44177 587.5,547 c 0,-8.53048 0.27675,-9.97076 2.71178,-14.11285 4.99054,-8.48913 13.54795,-14.20715 23.25266,-15.53733 l 4.64568,-0.63676 -0.80506,2.89347 c -0.44278,1.59141 -0.76951,7.61847 -0.72606,13.39347 0.0665,8.83413 0.49562,11.5708 2.70492,17.24928 3.77901,9.71305 9.3471,18.58856 20.23264,32.25072 17.3596,21.7876 19.17791,29.34482 10.07851,41.88796 -1.15229,1.58838 -8.44901,8.57042 -16.21494,15.51565 -7.76592,6.94522 -19.50269,17.66298 -26.08171,23.81724 l -11.96185,11.18956 z M 566,628.82407 C 554.175,615.56526 544.36616,604.16633 544.20259,603.49311 543.90903,602.28497 555.15912,592.5 556.8417,592.5 c 1.20766,0 10.12109,10.56367 27.33079,32.39081 l 14.67249,18.60919 -4.6349,4.75 c -2.54919,2.6125 -5.10181,4.73448 -5.67249,4.7155 C 587.96692,652.94653 577.825,642.08288 566,628.82407 Z m -159.15736,22.20124 c -12.33257,-3.72567 -17.50244,-15.34099 -15.03529,-33.78025 0.62747,-4.68963 1.36526,-8.751 1.63953,-9.02527 0.27428,-0.27428 2.1129,0.73254 4.08583,2.23736 3.80883,2.90514 6.55682,8.00151 8.53872,15.83574 2.42632,9.59095 9.45681,16.98745 18.81065,19.78993 4.93603,1.47887 4.47186,2.19262 -2.81358,4.32639 -5.81321,1.70258 -10.94239,1.91013 -15.22586,0.6161 z m 336.39054,-0.49167 c -8.11014,-2.53288 -8.09462,-2.48952 -1.80634,-5.04527 10.06917,-4.09242 15.21526,-10.76289 19.02952,-24.66647 1.21888,-4.44304 2.46537,-6.45502 5.73067,-9.25 2.29513,-1.96454 4.50241,-3.5719 4.90507,-3.5719 1.19656,0 2.17428,7.87878 2.17756,17.54751 0.004,10.70743 -1.97482,16.23051 -7.57553,21.14794 -5.88835,5.16997 -13.84377,6.52942 -22.46095,3.83819 z m -208.38851,-11.1285 c -17.66942,-13.0505 -17.51092,-12.91197 -20.99599,-18.35092 -5.70896,-8.90967 -3.41718,-19.45724 7.18205,-33.05422 18.10284,-23.22284 23.20072,-31.79405 26.4434,-44.4601 1.77587,-6.93659 1.96939,-16.40247 0.4474,-21.88367 -0.58703,-2.11408 -0.88453,-4.02657 -0.66111,-4.24998 1.04933,-1.04933 12.19515,2.17477 17.41057,5.03627 18.41255,10.10226 18.1825,33.58103 -0.5131,52.36731 -3.66184,3.67959 -10.98009,10.59811 -16.26278,15.37448 -17.61598,15.92759 -17.48789,21.07037 0.99854,40.09117 l 10.47276,10.77548 -4.39141,4.47452 C 552.55972,647.98646 550.26988,650 549.88646,650 c -0.38342,0 -7.15222,-4.76769 -15.04179,-10.59486 z m -154.11447,4.17471 c -11.55945,-4.75352 -16.89598,-10.72358 -17.53962,-19.62185 -0.54541,-7.54019 2.01547,-13.22044 9.5158,-21.10688 7.10281,-7.46845 16.94171,-15.18664 18.29403,-14.35087 2.30913,1.42712 0.94787,8.9269 -3.25041,17.90801 -4.19674,8.97781 -4.25,9.2305 -4.25,20.16477 0,10.41938 0.16317,11.3196 2.76419,15.25 3.21574,4.85931 2.5356,5.07523 -5.53399,1.75682 z M 778.8204,641.25 c 2.43441,-4.31537 2.6796,-5.71076 2.6796,-15.25 0,-10.12868 -0.1361,-10.78291 -3.84857,-18.5 -2.11672,-4.4 -4.23469,-9.27892 -4.7066,-10.84204 -0.98116,-3.24993 -0.1764,-8.65796 1.28838,-8.65796 0.54076,0 3.76042,2.2099 7.1548,4.91089 18.6921,14.87375 24.7215,28.21753 17.73089,39.24057 -3.37646,5.32413 -7.28237,8.31492 -15.01136,11.49434 -7.87972,3.24142 -8.34764,3.02939 -5.28714,-2.3958 z m -353.59292,-1.36643 c -4.96896,-2.45959 -8.90155,-6.91868 -13.17821,-14.94251 -2.613,-4.90249 -2.82459,-5.8133 -1.47115,-6.33266 2.34958,-0.90162 6.14469,0.21492 13.65182,4.01642 9.11244,4.61441 14.00291,5.19098 20.46188,2.41241 2.79018,-1.2003 6.33514,-3.49971 7.8777,-5.1098 1.54257,-1.61009 3.19086,-2.92743 3.66288,-2.92743 1.04121,0 -0.005,6.31655 -1.76196,10.63956 -1.78666,4.39569 -8.35487,11.40848 -12.18832,13.01331 -4.78494,2.00316 -12.12224,1.67219 -17.05464,-0.7693 z m 295.18737,-0.35141 c -6.22046,-3.72896 -12.24459,-13.64643 -12.37096,-20.36619 -0.0434,-2.30977 -0.003,-2.30176 3.87661,0.77106 9.85285,7.8036 17.7433,8.70108 27.59854,3.13913 6.31697,-3.56507 13.35151,-5.60561 14.6946,-4.26252 1.18323,1.18323 -3.2511,10.56295 -7.33731,15.52023 -6.30688,7.65134 -18.40489,10.02796 -26.46148,5.19829 z M 590.58878,626.11208 c -2.12947,-2.68835 -3.85499,-5.19794 -3.83447,-5.57685 0.0205,-0.37892 2.59581,-4.14185 5.72286,-8.36208 3.12706,-4.22023 7.50023,-10.71065 9.71816,-14.42315 2.21793,-3.7125 4.56499,-6.75 5.21569,-6.75 1.08568,0 5.43361,4.22641 10.00013,9.72063 1.83103,2.20302 1.79968,2.28068 -3.95242,9.79055 C 607.06717,618.85593 596.21035,631 595.14169,631 c -0.37463,0 -2.42343,-2.19956 -4.55291,-4.88792 z m -236.8835,-11.63209 c -10.32834,-15.64482 -6.07946,-32.67552 9.85619,-39.50634 5.51077,-2.36219 10.02751,-3.58081 23.76365,-6.41143 l 10.89935,-2.24603 -0.49397,4.38248 c -0.27169,2.41037 -1.33469,5.31894 -2.36224,6.4635 -2.50392,2.78905 -11.62958,8.93445 -18.20847,12.26196 -5.59628,2.8305 -12.90081,8.99905 -16.28622,13.75343 -1.09721,1.54089 -2.56775,5.6098 -3.26786,9.04202 l -1.27293,6.2404 z M 427,617.40437 c 0,-0.3276 0.82143,-1.7901 1.8254,-3.25 1.95246,-2.83911 3.66531,-7.05076 4.5709,-11.23914 0.88679,-4.10142 -1.05159,-8.98484 -5.30476,-13.36448 -5.30309,-5.46076 -5.75095,-8.47364 -1.54449,-10.39023 11.17899,-5.09349 28.73566,6.1474 29.45795,18.86085 0.40586,7.14373 -0.0672,8.97988 -3.24642,12.60081 -4.63011,5.27341 -9.80356,7.32949 -18.50858,7.35586 -3.9875,0.0121 -7.25,-0.24607 -7.25,-0.57367 z m 291.3894,-1.89762 c -9.04404,-4.50683 -12.12005,-11.78016 -8.98009,-21.2337 2.01653,-6.07121 6.49205,-10.8285 13.09069,-13.91487 8.43817,-3.94677 18.5,-2.49724 18.5,2.66514 0,1.05046 -1.98188,4.14141 -4.40418,6.86879 -2.4223,2.72738 -4.70641,6.33491 -5.0758,8.01673 -0.81944,3.73088 1.64655,12.7619 4.4621,16.3413 1.10984,1.41093 2.01788,2.83184 2.01788,3.15759 0,0.32575 -3.28665,0.59227 -7.30366,0.59227 -5.78079,0 -8.34687,-0.51986 -12.30694,-2.49325 z m 88.8462,-2.08029 c -0.49249,-8.49861 -6.89167,-16.73947 -17.7987,-22.92112 C 771.8745,580.55168 767,576.11521 767,570.08462 v -3.76193 l 8.75,1.82854 c 20.90988,4.36969 30.16046,7.89697 35.41609,13.50428 3.8013,4.05566 6.24113,12.25831 5.50214,18.49798 -0.57496,4.85465 -6.21044,16.86676 -8.22217,17.52567 -0.52033,0.17043 -1.06504,-1.74329 -1.21046,-4.2527 z M 500.86078,589.08411 C 497.13851,586.0633 497.75362,577.5182 502.81041,562 c 7.03505,-21.5891 8.65029,-35.17906 5.67907,-47.78148 -1.68992,-7.16781 -4.22567,-12.56312 -8.02884,-17.08293 -2.45009,-2.91176 -2.50606,-3.18423 -0.7978,-3.88353 1.01044,-0.41363 6.33716,-0.74813 11.83716,-0.74333 8.39082,0.007 10.66834,0.36471 14.15327,2.22097 11.43314,6.08989 16.00112,20.238 11.78609,36.50431 -0.85835,3.31248 -7.60996,18.11494 -15.00357,32.89434 C 509.50477,589.97672 508.88297,591 506.10721,591 c -1.5871,0 -3.94799,-0.86215 -5.24643,-1.91589 z m 141.34764,-24.9029 c -7.31036,-14.74561 -13.94252,-29.25617 -14.73813,-32.2457 -4.79604,-18.02138 1.0835,-33.16255 14.93107,-38.45099 3.64546,-1.39221 6.50493,-1.65324 13.64873,-1.24592 4.97042,0.2834 9.32303,0.80119 9.67248,1.15064 0.34945,0.34945 -0.29173,1.88931 -1.42483,3.42192 -11.27653,15.25232 -12.24497,35.48543 -3.02684,63.23814 5.01882,15.10999 6.1422,21.16896 4.72248,25.47075 -1.28914,3.90615 -3.49875,5.48203 -7.67764,5.47566 -2.68621,-0.004 -3.42717,-1.2376 -16.10732,-26.8145 z M 348.34961,571.25 c -2.60849,-16.03015 3.11614,-27.17492 16.06433,-31.2742 5.1568,-1.63259 17.15574,-0.68583 25.58606,2.01885 14.24938,4.57158 26,9.29086 26,10.44211 0,1.94402 -4.38564,5.5252 -8.08987,6.60594 -2.01382,0.58754 -8.32366,0.73024 -15.41013,0.34851 -19.17109,-1.03272 -28.82816,1.90681 -37.80988,11.50899 -2.62364,2.80489 -4.94966,5.0998 -5.16892,5.0998 -0.21926,0 -0.74648,-2.1375 -1.17159,-4.75 z m 460.63331,-1.2879 C 800.17878,560.95525 795.57812,559.57518 774,559.46822 c -18.97196,-0.094 -22.04807,-0.7733 -24.47458,-5.40446 l -1.33753,-2.55276 11.65606,-4.29518 c 28.16929,-10.38019 39.61403,-10.84625 49.63953,-2.02145 6.06473,5.3384 7.90262,10.57495 7.30922,20.82562 -0.25642,4.42944 -0.87717,8.39838 -1.37946,8.81987 -0.50228,0.4215 -3.39593,-1.77349 -6.43032,-4.87776 z M 483.5,568.05464 c -5.64185,-2.30916 -8.12171,-8.55823 -10.03874,-25.29689 -0.8351,-7.29176 -1.95543,-15.73275 -2.48963,-18.75775 -2.46352,-13.95029 -9.60053,-26.00319 -19.24244,-32.49644 l -5.00084,-3.36776 3.38583,-2.08896 c 15.51512,-9.57239 33.16921,-4.40098 40.78474,11.94707 2.32085,4.98211 2.55891,6.64806 2.50155,17.50609 -0.12333,23.34493 -1.63528,51.97794 -2.78462,52.73469 -1.43205,0.94287 -4.56602,0.86358 -7.11585,-0.18005 z m 190.88134,0.23162 c -1.19077,-0.83694 -2.62443,-27.19967 -2.78907,-51.28626 -0.0857,-12.54594 0.0908,-13.88869 2.49789,-19 3.49242,-7.41586 6.77827,-11.08035 12.49592,-13.93589 8.61058,-4.30033 19.34739,-3.54005 28.33918,2.00671 l 3.42526,2.11294 -4.51185,2.80825 c -8.89167,5.53432 -16.04471,16.49952 -19.24925,29.50799 -0.81293,3.3 -2.17765,12.24626 -3.03272,19.88057 -1.81957,16.24584 -2.92124,20.44878 -6.45442,24.6241 -2.64381,3.12432 -8.4264,4.89432 -10.72094,3.28159 z M 456.37176,554.59931 c -4.20228,-1.88117 -8.76245,-8.11706 -15.37176,-21.0204 -9.8478,-19.22586 -19.64279,-28.52014 -33.93732,-32.2025 l -7.04138,-1.8139 3.62886,-3.71629 c 4.25894,-4.36155 13.25833,-9.32149 18.65346,-10.28071 2.44462,-0.43463 5.81573,-0.0913 9.43523,0.9609 4.61416,1.34138 6.83084,2.84189 12.26939,8.30537 8.35168,8.38999 11.16748,14.20819 14.87204,30.72957 1.6108,7.18374 4.33237,16.157 6.04792,19.94058 2.5433,5.60913 2.88157,7.11688 1.83211,8.16633 -2.02126,2.02126 -6.96367,2.46421 -10.38855,0.93105 z m 243.66486,0.2906 c -1.35485,-0.54083 -2.62999,-1.14994 -2.83363,-1.35359 -0.20365,-0.20364 1.21944,-4.34512 3.16242,-9.20329 1.94297,-4.85817 4.65062,-14.11378 6.017,-20.56803 2.90697,-13.73148 6.62463,-21.46888 13.83469,-28.79357 6.51642,-6.62001 11.83985,-9.2677 18.7829,-9.34194 6.82544,-0.073 14.48385,3.2977 21.33449,9.38994 l 4.83449,4.29929 -7.3895,2.13135 c -15.25153,4.39899 -23.77486,12.3526 -33.59279,31.34738 -7.56434,14.63474 -10.99459,19.40898 -15.4716,21.53346 -3.96511,1.88157 -5.17068,1.95922 -8.67847,0.559 z M 425.34195,550.5478 c -1.73692,-0.75566 -6.73176,-3.8781 -11.09964,-6.93875 -20.15474,-14.1228 -36.09471,-17.6138 -48.09524,-10.53331 l -3.38313,1.99609 0.6867,-3.78592 c 1.04991,-5.78844 4.85188,-13.43459 8.48849,-17.07119 5.2127,-5.2127 8.74911,-6.63891 16.56087,-6.67889 12.39078,-0.0634 18.12476,3.945 40.34158,28.20133 5.88394,6.4241 9.9972,11.71468 9.60329,12.35204 -0.78572,1.27133 -6.73555,3.93049 -8.66275,3.87166 -0.70517,-0.0215 -2.70324,-0.65741 -4.44017,-1.41306 z m 305.67861,0.33616 c -6.37997,-2.54552 -6.25485,-2.98899 3.96858,-14.06638 22.11657,-23.96393 27.68523,-28.28107 38.06539,-29.51044 7.75348,-0.91829 13.60106,1.23935 19.60819,7.235 4.15099,4.14306 5.57176,6.47718 7.25,11.9107 1.148,3.7168 2.08728,7.14186 2.08728,7.61123 0,0.46937 -2.35217,-0.32803 -5.22705,-1.772 -4.21953,-2.11935 -6.58074,-2.61316 -12.25,-2.5619 -10.98069,0.0993 -20.56294,4.085 -34.63808,14.40766 -6.52523,4.78559 -12.60006,7.92251 -15.10275,7.79878 -0.70517,-0.0349 -2.39787,-0.50855 -3.76156,-1.05265 z M 232.07895,809.41667 c 0.048,-1.16495 0.28494,-1.4019 0.60416,-0.60417 0.28887,0.72187 0.25335,1.58438 -0.0789,1.91667 -0.3323,0.33229 -0.56864,-0.25834 -0.52522,-1.3125 z m 1040.99995,0 c 0.048,-1.16495 0.285,-1.4019 0.6042,-0.60417 0.2889,0.72187 0.2534,1.58438 -0.079,1.91667 -0.3323,0.33229 -0.5687,-0.25834 -0.5253,-1.3125 z M 231.15789,797 c 0,-1.375 0.22698,-1.9375 0.50439,-1.25 0.27741,0.6875 0.27741,1.8125 0,2.5 -0.27741,0.6875 -0.50439,0.125 -0.50439,-1.25 z m -0.88553,-21 c 0,-2.475 0.19502,-3.4875 0.43337,-2.25 0.23836,1.2375 0.23836,3.2625 0,4.5 -0.23835,1.2375 -0.43337,0.225 -0.43337,-2.25 z m 0,-30 c 0,-2.475 0.19502,-3.4875 0.43337,-2.25 0.23836,1.2375 0.23836,3.2625 0,4.5 -0.23835,1.2375 -0.43337,0.225 -0.43337,-2.25 z m 0.88553,-21 c 0,-1.375 0.22698,-1.9375 0.50439,-1.25 0.27741,0.6875 0.27741,1.8125 0,2.5 -0.27741,0.6875 -0.50439,0.125 -0.50439,-1.25 z m 0.92106,-12.58333 c 0.048,-1.16495 0.28494,-1.4019 0.60416,-0.60417 0.28887,0.72187 0.25335,1.58438 -0.0789,1.91667 -0.3323,0.33229 -0.56864,-0.25834 -0.52522,-1.3125 z m 1040.99995,0 c 0.048,-1.16495 0.285,-1.4019 0.6042,-0.60417 0.2889,0.72187 0.2534,1.58438 -0.079,1.91667 -0.3323,0.33229 -0.5687,-0.25834 -0.5253,-1.3125 z M 361,414.62244 c 0,-0.20765 0.7875,-0.99515 1.75,-1.75 1.58606,-1.24387 1.62143,-1.2085 0.37756,0.37756 C 361.82119,414.91575 361,415.44548 361,414.62244 Z M 1142.8724,413.25 c -1.2438,-1.58606 -1.2085,-1.62143 0.3776,-0.37756 1.6657,1.30637 2.1955,2.12756 1.3724,2.12756 -0.2076,0 -0.9951,-0.7875 -1.75,-1.75 z M 371,403.68709 c 0,-0.1721 1.4625,-1.6346 3.25,-3.25 l 3.25,-2.93709 -2.93709,3.25 C 371.82513,403.77946 371,404.45965 371,403.68709 Z m 760.4371,-2.93709 -2.9371,-3.25 3.25,2.93709 c 3.0295,2.73778 3.7097,3.56291 2.9371,3.56291 -0.1721,0 -1.6346,-1.4625 -3.25,-3.25 z M 390,384.68709 c 0,-0.1721 1.4625,-1.6346 3.25,-3.25 l 3.25,-2.93709 -2.93709,3.25 C 390.82513,384.77946 390,385.45965 390,384.68709 Z m 722.4371,-2.93709 -2.9371,-3.25 3.25,2.93709 c 3.0295,2.73778 3.7097,3.56291 2.9371,3.56291 -0.1721,0 -1.6346,-1.4625 -3.25,-3.25 z M 404,371.62244 c 0,-0.20765 0.7875,-0.99515 1.75,-1.75 1.58606,-1.24387 1.62143,-1.2085 0.37756,0.37756 C 404.82119,371.91575 404,372.44548 404,371.62244 Z M 1099.8724,370.25 c -1.2438,-1.58606 -1.2085,-1.62143 0.3776,-0.37756 1.6657,1.30637 2.1955,2.12756 1.3724,2.12756 -0.2076,0 -0.9951,-0.7875 -1.75,-1.75 z M 703.8125,240.31689 c 0.72187,-0.28887 1.58438,-0.25335 1.91667,0.0789 0.33229,0.33229 -0.25834,0.56864 -1.3125,0.52522 -1.16495,-0.048 -1.4019,-0.28494 -0.60417,-0.60416 z m 97,0 c 0.72187,-0.28887 1.58438,-0.25335 1.91667,0.0789 0.33229,0.33229 -0.25834,0.56864 -1.3125,0.52522 -1.16495,-0.048 -1.4019,-0.28494 -0.60417,-0.60416 z M 715.75,239.33772 c 0.6875,-0.27741 1.8125,-0.27741 2.5,0 0.6875,0.27741 0.125,0.50439 -1.25,0.50439 -1.375,0 -1.9375,-0.22698 -1.25,-0.50439 z m 72,0 c 0.6875,-0.27741 1.8125,-0.27741 2.5,0 0.6875,0.27741 0.125,0.50439 -1.25,0.50439 -1.375,0 -1.9375,-0.22698 -1.25,-0.50439 z m -52,-1.04345 c 1.2375,-0.23836 3.2625,-0.23836 4.5,0 1.2375,0.23835 0.225,0.43337 -2.25,0.43337 -2.475,0 -3.4875,-0.19502 -2.25,-0.43337 z m 30,0 c 1.2375,-0.23836 3.2625,-0.23836 4.5,0 1.2375,0.23835 0.225,0.43337 -2.25,0.43337 -2.475,0 -3.4875,-0.19502 -2.25,-0.43337 z"
         id="path18" />
      <path
         style="fill:#000000"
         d="M 727.46395,1282.9509 C 523.45007,1272.8663 343.54277,1144.5632 267.88639,955.19762 c -49.8892,-124.87109 -49.8892,-263.52415 0,-388.39524 52.8568,-132.29892 158.61707,-238.05919 290.91599,-290.91599 124.87109,-49.8892 263.52415,-49.8892 388.39524,0 132.29888,52.8568 238.05918,158.61707 290.91598,290.91599 17.5065,43.81818 29.1462,90.28793 34.3652,137.19762 1.106,9.94127 1.5019,24.96703 1.5019,57 0,45.35451 -0.6394,55.90792 -5.0293,83 -29.3821,181.3314 -151.6692,334.1605 -321.75378,402.1136 -54.95709,21.9568 -109.72119,33.7796 -170.69762,36.8512 -21.80724,1.0986 -26.55845,1.0972 -49.03605,-0.014 z m 64.8773,-25.4466 c 64.29046,-5.6714 121.46754,-21.3682 178.15875,-48.9099 23.01618,-11.1817 36.0977,-18.6152 56.5,-32.1058 65.2071,-43.1169 119.5093,-100.8334 158.0508,-167.9886 26.5342,-46.23346 47.8063,-104.09186 57.4367,-156.22268 C 1248.4963,819.75049 1249,812.69063 1249,761 c 0,-51.69063 -0.5037,-58.75049 -6.5125,-91.27732 -9.6304,-52.13082 -30.9025,-109.98922 -57.4367,-156.22268 -27.1899,-47.37599 -66.0345,-94.47238 -106.4025,-129.00583 -51.3541,-43.93165 -107.59383,-75.72187 -171.02271,-96.67272 -100.04996,-33.04695 -209.20122,-33.04695 -309.25118,0 -63.42888,20.95085 -119.66864,52.74107 -171.02273,96.67272 -33.2686,28.46015 -64.26202,63.82296 -89.84031,102.50583 -13.49058,20.40225 -20.92411,33.48382 -32.10581,56.5 -52.21497,107.47821 -64.24195,227.03403 -34.41687,342.12559 18.28612,70.56403 52.56259,137.41891 99.26131,193.60531 5.3625,6.452 9.75,11.9198 9.75,12.1508 0,0.2309 7.7625,8.2394 17.25,17.7966 42.44755,42.7595 85.80221,73.936 138.25,99.4161 56.00481,27.2082 113.30434,43.033 177,48.8831 19.66562,1.8061 59.51894,1.8195 79.84125,0.027 z"
         id="path16" />
    </g>
  </g>
</svg>
