<?xml version="1.0" encoding="UTF-8" standalone="no"?>
<svg
   xmlns:dc="http://purl.org/dc/elements/1.1/"
   xmlns:cc="http://creativecommons.org/ns#"
   xmlns:rdf="http://www.w3.org/1999/02/22-rdf-syntax-ns#"
   xmlns:svg="http://www.w3.org/2000/svg"
   xmlns="http://www.w3.org/2000/svg"
   xmlns:sodipodi="http://sodipodi.sourceforge.net/DTD/sodipodi-0.dtd"
   xmlns:inkscape="http://www.inkscape.org/namespaces/inkscape"
   version="1.1"
   id="svg2"
   width="1025"
   height="1318.9783"
   viewBox="0 0 1025 1318.9783"
   sodipodi:docname="Shearhold.svg"
   inkscape:version="1.0.1 (3bc2e813f5, 2020-09-07)">
  <metadata
     id="metadata8">
    <rdf:RDF>
      <cc:Work
         rdf:about="">
        <dc:format>image/svg+xml</dc:format>
        <dc:type
           rdf:resource="http://purl.org/dc/dcmitype/StillImage" />
        <dc:title></dc:title>
      </cc:Work>
    </rdf:RDF>
  </metadata>
  <defs
     id="defs6" />
  <sodipodi:namedview
     pagecolor="#ffffff"
     bordercolor="#666666"
     borderopacity="1"
     objecttolerance="10"
     gridtolerance="10"
     guidetolerance="10"
     inkscape:pageopacity="0"
     inkscape:pageshadow="2"
     inkscape:window-width="1920"
     inkscape:window-height="1057"
     id="namedview4"
     showgrid="false"
     inkscape:pagecheckerboard="true"
     inkscape:zoom="0.49"
     inkscape:cx="513"
     inkscape:cy="667.97823"
     inkscape:window-x="-8"
     inkscape:window-y="-8"
     inkscape:window-maximized="1"
     inkscape:current-layer="g10" />
  <g
     inkscape:groupmode="layer"
     inkscape:label="Image"
     id="g10"
     transform="translate(-237,-82.02177)">
    <g
       id="g14">
      <path
         style="fill:#fdbf2b"
         d="m 750,740.5 c 0,-418.36521 0.32371,-609.5 1.03226,-609.5 0.98434,0 9.85633,3.21402 23.96774,8.6827 3.575,1.38544 8.975,3.32738 12,4.31543 3.025,0.98805 10.675,3.68169 17,5.98588 6.325,2.30418 13.75,4.78333 16.5,5.50921 2.75,0.72589 8.825,2.76326 13.5,4.52749 4.675,1.76424 12.1,4.4707 16.5,6.01435 4.4,1.54366 13.175,4.6555 19.5,6.9152 6.325,2.2597 15.775,5.47057 21,7.13527 10.08097,3.21183 21.70009,7.26367 34,11.85652 4.125,1.5403 11.325,4.13986 16,5.77679 4.675,1.63693 12.325,4.34892 17,6.02664 4.675,1.67771 13.225,4.50662 19,6.28647 5.775,1.77984 14.55,4.79433 19.5,6.69886 20.7344,7.97762 36.4757,13.59277 53.5,19.08414 13.919,4.48974 25.2895,8.43734 38,13.19289 18.5444,6.93826 30.7337,11.22761 35.5,12.49226 2.75,0.72967 10.175,3.19505 16.5,5.47862 6.325,2.28356 13.075,4.62221 15,5.19699 1.925,0.57478 6.425,2.16426 10,3.53218 17.5307,6.70785 22.4842,8.45938 34.8154,12.31077 7.3235,2.28732 13.532,4.72302 13.7966,5.41266 0.5032,1.31137 -1.1422,36.12817 -2.6025,55.06868 -0.4664,6.05 -1.3171,19.325 -1.8904,29.5 -0.5732,10.175 -1.303,20.975 -1.6217,24 -1.0177,9.66054 -2.2829,22.99773 -3.9842,42 -0.9111,10.175 -2.0296,21.875 -2.4857,26 -0.4562,4.125 -1.558,14.7 -2.4484,23.5 -0.8905,8.8 -2.0432,18.925 -2.5616,22.5 -0.5184,3.575 -1.4131,11.45 -1.9882,17.5 -0.5751,6.05 -1.3144,12.125 -1.6429,13.5 -0.6244,2.6138 -1.4022,7.85724 -4.0054,27 -0.8601,6.325 -1.9258,13.75 -2.3682,16.5 -0.4424,2.75 -1.3152,9.05 -1.9395,14 -0.6242,4.95 -1.5686,10.575 -2.0986,12.5 -0.5299,1.925 -0.9661,5.20036 -0.9691,7.27857 0,2.07821 -1.0881,9.27821 -2.4111,16 -1.323,6.72179 -2.6968,14.69643 -3.0529,17.72143 -0.356,3.025 -1.3483,8.2 -2.205,11.5 -0.8567,3.3 -1.9265,8.7 -2.3775,12 -1.0804,7.90682 -5.1062,27.38424 -12.5048,60.5 -1.2903,5.775 -2.6343,12.28658 -2.9867,14.47019 -0.3525,2.1836 -1.3296,5.999 -2.1715,8.47865 -0.8419,2.47966 -1.9009,6.76808 -2.3535,9.52982 -1.0025,6.11851 -6.7514,28.62144 -12.9067,50.52134 -1.1594,4.125 -2.7381,9.75 -3.5083,12.5 -0.7701,2.75 -2.7394,9.5 -4.3762,15 -1.6368,5.5 -3.9673,13.375 -5.1789,17.5 -3.6359,12.37873 -12.043,38.26358 -13.597,41.86414 -0.7986,1.85028 -3.0078,8.06373 -4.9094,13.80766 -1.9016,5.74394 -3.989,11.43008 -4.6388,12.63586 -1.2509,2.32154 -5.0043,12.18078 -7.4967,19.69234 -0.8213,2.475 -3.5249,9.225 -6.0081,15 -2.4832,5.775 -5.5543,12.975 -6.8246,16 -9.9663,23.7333 -27.8896,61.5996 -36.6833,77.5 -12.3936,22.4098 -16.3206,29.2287 -20.2227,35.115 -2.2506,3.3949 -6.7203,10.3829 -9.9328,15.5288 -7.4908,11.9991 -12.7607,19.9674 -17.76161,26.8562 -2.19597,3.025 -6.01424,8.425 -8.48505,12 -9.07958,13.1372 -11.68171,16.624 -16.74309,22.4351 -2.84314,3.2642 -6.74435,8.3149 -8.66935,11.2237 -5.5664,8.4111 -44.50076,48.7246 -61.64028,63.8237 -4.32284,3.8082 -10.36039,9.1951 -13.41677,11.9708 -3.05638,2.7757 -8.45638,7.1321 -12,9.6808 -3.54362,2.5488 -9.72401,7.3863 -13.73419,10.75 -4.01018,3.3638 -7.68764,6.1159 -8.17214,6.1159 -0.48451,0 -4.85345,3.0012 -9.70877,6.6694 -12.34727,9.3284 -39.76524,25.5098 -63.10789,37.2447 C 764.20295,1344.4689 752.12568,1350 750.46298,1350 750.20834,1350 750,1075.725 750,740.5 Z m 63.18377,108.49515 c 3.47393,-2.75267 7.32425,-5.79017 8.55627,-6.75 1.23202,-0.95983 3.3927,-2.75765 4.80152,-3.99515 1.40882,-1.2375 3.03604,-2.25 3.61606,-2.25 0.58001,0 2.69611,-1.2375 4.70242,-2.75 2.00632,-1.5125 4.54608,-3.311 5.64391,-3.99667 2.22797,-1.39151 23.15032,-11.79383 25.49605,-12.6763 0.825,-0.31036 2.175,-0.95826 3,-1.43976 2.1156,-1.23474 10.5104,-4.08815 17,-5.77832 3.025,-0.78784 6.4,-1.87109 7.5,-2.40722 2.35916,-1.14984 20.93453,-4.92872 27.75,-5.64532 L 926,800.80697 V 819.40349 838 h 28 28 v -18.59384 -18.59384 l 5.25,0.71487 c 2.8875,0.39318 5.475,1.04795 5.75,1.45504 0.62969,0.93217 9.7257,2.42089 12.82,2.09822 1.276,-0.13306 3.751,0.4305 5.5,1.25236 1.749,0.82185 5.4089,1.82299 8.1332,2.22475 7.3679,1.08657 18.9875,5.51166 31.7011,12.07266 1.4599,0.75338 3.2701,1.36978 4.0228,1.36978 0.7527,0 3.76,1.575 6.683,3.5 2.923,1.925 5.4923,3.5 5.7096,3.5 0.937,0 13.9617,8.33241 14.2636,9.12505 0.1834,0.48122 0.8584,0.87703 1.5,0.87958 0.6417,0.003 2.5167,1.25646 4.1667,2.78647 1.65,1.53002 4.6875,3.81464 6.75,5.07694 2.0625,1.26229 3.75,2.65662 3.75,3.09851 0,0.44189 1.1257,1.54101 2.5015,2.44251 l 2.5016,1.63907 2.3988,-5.27406 c 2.4934,-5.48187 3.9485,-10.45018 7.4755,-25.52407 0.4826,-2.0625 1.357,-5.775 1.9432,-8.25 1.2047,-5.08683 3.074,-13.56778 3.9058,-17.72027 0.3062,-1.52885 0.7588,-21.00473 1.0058,-43.27973 0.4361,-39.31821 -0.4754,-58.77701 -2.8782,-61.45 -0.4697,-0.5225 -0.854,-2.90083 -0.854,-5.28518 0,-2.38435 -0.6116,-5.33185 -1.3591,-6.55 -0.7476,-1.21815 -1.945,-5.58982 -2.661,-9.71482 -0.7161,-4.125 -1.6392,-7.95 -2.0514,-8.5 -0.4122,-0.55 -1.0658,-2.69247 -1.4524,-4.76105 -0.3865,-2.06857 -1.1018,-4.00763 -1.5895,-4.30901 -0.4876,-0.30139 -0.8866,-1.55642 -0.8866,-2.78896 0,-1.23254 -0.5048,-2.74581 -1.1219,-3.36284 -1.9222,-1.92223 -4.0467,-0.59752 -13.1856,8.22186 -4.3714,4.21856 -17.9017,14.5 -19.0818,14.5 -0.54,0 -1.9108,0.85891 -3.0462,1.90868 -1.1355,1.04978 -5.6645,3.82009 -10.0645,6.15625 -4.4,2.33616 -8.15,4.62726 -8.3333,5.09132 -0.1834,0.46406 -1.1408,0.84375 -2.1276,0.84375 -0.9868,0 -2.3544,0.675 -3.0391,1.5 -0.6847,0.825 -2.2882,1.5 -3.5634,1.5 -1.2752,0 -2.5967,0.45 -2.9366,1 -0.3399,0.55 -1.6163,1 -2.8365,1 -1.2202,0 -3.1061,0.5922 -4.191,1.316 -3.195,2.13164 -13.5781,5.80305 -18.9725,6.70862 -4.7348,0.79485 -10.273,2.09646 -17,3.99547 -1.65,0.46579 -5.5875,1.15367 -8.75,1.52862 L 982,703.23045 V 618.61522 534 h -28 -28 v 83.975 83.975 l -2.75,-0.50414 c -1.5125,-0.27727 -4.775,-0.87998 -7.25,-1.33935 -7.31468,-1.35762 -22.25323,-5.28919 -25.65113,-6.75093 -1.73312,-0.74557 -3.75812,-1.36989 -4.5,-1.38738 -0.74188,-0.0175 -2.22238,-0.6925 -3.29,-1.5 C 881.49125,689.66069 880.04305,689 879.34065,689 875.48011,689 842.31303,670.58772 841.16667,667.80821 840.98333,667.3637 840.25093,667 839.53911,667 c -0.71182,0 -1.90521,-0.7362 -2.65199,-1.63601 -0.74677,-0.8998 -3.12572,-2.75207 -5.28657,-4.11615 -3.76939,-2.37952 -10.55249,-8.28586 -17.04059,-14.838 -1.68298,-1.69959 -3.83515,-3.36824 -4.78259,-3.70812 C 807.63364,641.93272 805,645.4048 805,649 c 0,1.40524 -0.65911,3.496 -1.46469,4.64613 -0.80559,1.15013 -1.23354,2.32231 -0.951,2.60485 0.28253,0.28253 -0.34193,2.03707 -1.3877,3.89897 -1.04577,1.86191 -2.16555,4.72735 -2.48841,6.36767 -1.33488,6.78209 -1.90135,9.08297 -2.70379,10.98238 -0.46472,1.1 -1.10011,3.575 -1.41197,5.5 -0.31186,1.925 -1.25395,5.975 -2.09353,9 -2.41789,8.71162 -4.71262,26.25754 -5.49293,42 -0.86482,17.4472 -0.26398,46.95481 1.06902,52.5 0.52885,2.2 1.38736,7.375 1.9078,11.5 1.53628,12.17659 4.47918,26.38015 6.05761,29.23643 0.52778,0.95504 0.95959,2.57052 0.95959,3.58996 0,1.01944 1.35,5.7497 3,10.51169 1.65,4.76199 3,9.55901 3,10.66004 0,3.35953 3.43096,2.34781 10.18377,-3.00297 z M 1224.1949,646.5 c 0.02,-1.65 0.2445,-2.20394 0.4981,-1.23097 0.2535,0.97297 0.2369,2.32297 -0.037,3 -0.2739,0.67703 -0.4813,-0.11903 -0.461,-1.76903 z"
         id="path22" />
      <path
         style="fill:#3e3b36"
         d="m 742.1507,1386.5248 c -2.94211,-1.3886 -5.86711,-2.5323 -6.5,-2.5414 -0.63288,-0.01 -9.2507,-4.1264 -19.1507,-9.1496 -9.9,-5.0231 -22.05,-11.153 -27,-13.6219 -9.60745,-4.792 -35.76211,-20.4067 -46.5,-27.7613 -3.575,-2.4486 -8.62678,-5.9142 -11.22618,-7.7013 -2.59939,-1.7871 -6.16794,-4.4868 -7.9301,-5.9993 -1.76217,-1.5125 -3.55212,-2.75 -3.97768,-2.75 -1.54727,0 -37.2759,-29.3126 -45.00136,-36.9202 -1.99942,-1.9689 -5.24824,-4.9298 -7.21959,-6.5798 -1.97135,-1.65 -5.06046,-4.5425 -6.86468,-6.4278 -1.80423,-1.8853 -4.02031,-4.0704 -4.92464,-4.8558 -3.96525,-3.4436 -7.60449,-7.0662 -10.8946,-10.8448 -1.94636,-2.2353 -3.99687,-4.2458 -4.55669,-4.4679 -0.55982,-0.222 -6.63781,-6.9287 -13.50664,-14.9037 -6.86882,-7.975 -16.85581,-19.5601 -22.19331,-25.7447 C 499.36704,1200.0708 495,1194.5698 495,1194.031 c 0,-0.5388 -2.62408,-4.0287 -5.83129,-7.7553 -3.2072,-3.7266 -6.42392,-7.9007 -7.14827,-9.2757 -0.72434,-1.375 -2.40718,-3.85 -3.73966,-5.5 -1.33247,-1.65 -3.5013,-4.575 -4.8196,-6.5 -1.31831,-1.925 -4.54888,-6.5566 -7.17905,-10.2925 -2.63017,-3.7359 -6.35713,-9.4398 -8.28213,-12.6755 -3.12406,-5.2511 -7.90397,-12.6242 -13.0341,-20.1054 -0.97058,-1.4154 -3.87347,-6.3654 -6.45087,-11 -2.5774,-4.6346 -6.90466,-12.2516 -9.61613,-16.9266 -2.71147,-4.675 -6.03704,-10.75 -7.39017,-13.5 -1.35313,-2.75 -2.84814,-5.675 -3.32224,-6.5 -0.47411,-0.825 -1.78547,-3.3 -2.91415,-5.5 -8.84726,-17.2449 -11.41429,-22.1935 -12.19036,-23.5 -0.49007,-0.825 -2.55749,-5.325 -4.59427,-10 -2.03677,-4.675 -4.32973,-9.2104 -5.09547,-10.0787 -0.76573,-0.8683 -1.39224,-2.0262 -1.39224,-2.5731 0,-0.5469 -2.40636,-6.5865 -5.34746,-13.4213 C 371.87887,974.59451 364,955.19162 364,953.14164 c 0,-0.67172 -0.88827,-2.96246 -1.97392,-5.09053 -1.99026,-3.90122 -6.45262,-16.0004 -7.94839,-21.55111 -0.44462,-1.65 -1.51728,-4.575 -2.38367,-6.5 -0.86639,-1.925 -2.47019,-6.425 -3.56401,-10 -2.76013,-9.02117 -4.10321,-12.86092 -6.12132,-17.50034 -0.95706,-2.20019 -2.04316,-5.57519 -2.41355,-7.5 -0.37038,-1.92482 -2.41823,-9.12466 -4.55076,-15.99966 -4.1895,-13.50638 -8.61023,-28.39814 -10.09317,-34 -0.50958,-1.925 -1.63398,-5.975 -2.49865,-9 -0.86467,-3.025 -1.96388,-7.075 -2.44269,-9 -0.47882,-1.925 -1.59835,-6.2 -2.48786,-9.5 -0.88951,-3.3 -2.01081,-7.575 -2.49178,-9.5 -0.48097,-1.925 -1.58453,-5.91418 -2.45236,-8.86483 C 311.71004,786.18451 311,782.71818 311,781.43222 c 0,-1.28596 -0.39245,-3.37179 -0.87211,-4.63517 -1.94616,-5.12602 -3.14241,-9.6466 -4.05434,-15.32117 -0.52819,-3.28674 -1.4121,-7.77588 -1.96424,-9.97588 -0.55214,-2.2 -1.71848,-7.15 -2.59186,-11 -0.87337,-3.85 -2.04766,-8.8 -2.60952,-11 -0.56185,-2.2 -1.6393,-7.6 -2.39433,-12 -0.75502,-4.4 -1.88695,-10.025 -2.5154,-12.5 -0.62844,-2.475 -1.58442,-7.425 -2.12439,-11 -0.53997,-3.575 -1.40747,-7.88195 -1.92778,-9.571 C 289.42571,682.73995 289,680.17363 289,678.72606 c 0,-1.44758 -0.44816,-3.66563 -0.99592,-4.92901 -0.54776,-1.26338 -1.4308,-5.44705 -1.96232,-9.29705 -1.40685,-10.19034 -2.00704,-13.58075 -3.09795,-17.5 -0.53582,-1.925 -1.39942,-7.325 -1.91912,-12 -0.51971,-4.675 -1.43013,-10.975 -2.02316,-14 -0.59303,-3.025 -1.75091,-10.225 -2.57307,-16 -0.82215,-5.775 -1.91934,-13.425 -2.43818,-17 -2.06571,-14.23343 -4.146,-30.13618 -5.55956,-42.5 -0.81746,-7.15 -1.9353,-16.375 -2.48408,-20.5 -0.54879,-4.125 -1.67283,-14.7 -2.49788,-23.5 -0.82505,-8.8 -1.94303,-19.6 -2.48439,-24 -0.91957,-7.47392 -2.80457,-28.64163 -4.9423,-55.5 -0.50342,-6.325 -1.18551,-13.525 -1.51575,-16 -0.33024,-2.475 -1.05109,-13.5 -1.60189,-24.5 -0.5508,-11 -1.43582,-26.975 -1.96671,-35.5 -1.32462,-21.27064 -2.84662,-49.85712 -3.50067,-65.75 -0.51774,-12.58076 -0.44848,-13.25 1.3713,-13.25 1.05411,0 5.19036,-1.35 9.19165,-3 4.00129,-1.65 7.87535,-3 8.60902,-3 0.73368,0 3.93428,-1.17218 7.11247,-2.60484 3.17818,-1.43267 8.02851,-3.17874 10.77851,-3.88017 4.91713,-1.25418 7.5547,-2.13513 22.5,-7.51499 4.125,-1.48488 9.6375,-3.44233 12.25,-4.34989 2.6125,-0.90756 6.8875,-2.39266 9.5,-3.30022 5.7817,-2.00852 18.83731,-6.81322 26.0813,-9.59839 2.93222,-1.12738 6.98222,-2.38884 9,-2.80325 3.47384,-0.71344 17.86445,-5.70749 32.1687,-11.16367 3.575,-1.36364 8.6375,-3.22302 11.25,-4.13196 2.6125,-0.90894 6.8875,-2.39517 9.5,-3.30273 2.6125,-0.90756 8.125,-2.92058 12.25,-4.47337 4.125,-1.55279 9.3,-3.23756 11.5,-3.74393 4.1452,-0.95409 8.55862,-2.43187 21.75,-7.2827 4.2625,-1.56744 11.2375,-4.13234 15.5,-5.69978 4.2625,-1.56744 9.8875,-3.59244 12.5,-4.5 10.0283,-3.48375 14.46851,-5.04616 20.77121,-7.30891 3.58667,-1.28766 7.18667,-2.33878 8,-2.33582 0.81334,0.003 4.85379,-1.2795 8.97879,-2.84989 4.125,-1.5704 9.75,-3.64078 12.5,-4.60085 2.75,-0.96007 8.375,-3.00966 12.5,-4.55464 4.125,-1.54498 9.75,-3.5957 12.5,-4.55715 2.75,-0.96144 7.925,-2.85991 11.5,-4.21882 3.575,-1.3589 8.75,-3.0363 11.5,-3.72755 5.18563,-1.30347 10.41054,-3.06733 21.5,-7.2581 3.575,-1.35102 8.975,-3.27195 12,-4.26874 3.025,-0.9968 9.1,-3.15478 13.5,-4.79553 4.4,-1.64074 10.25,-3.76981 13,-4.73126 2.75,-0.96144 7.81723,-2.80441 11.26052,-4.09547 3.44329,-1.29106 7.04329,-2.34496 8,-2.342 0.95671,0.003 5.11448,-1.2795 9.23948,-2.84989 4.125,-1.5704 9.75,-3.64078 12.5,-4.60085 2.75,-0.96007 8.375,-3.00966 12.5,-4.55464 4.125,-1.54498 9.75,-3.59457 12.5,-4.55464 2.75,-0.96007 8.375,-2.95817 12.5,-4.44022 20.76885,-7.461943 22.26697,-7.796077 26.63563,-5.940704 2.19415,0.931859 5.53624,2.00289 7.42687,2.380068 1.89062,0.377178 6.925,2.006465 11.1875,3.620636 10.29655,3.89922 22.20391,8.27258 27.75,10.19209 11.72132,4.05676 15.02324,5.24219 22,7.89826 4.125,1.57039 8.28277,2.85284 9.23948,2.84989 0.95671,-0.003 4.78171,1.1635 8.5,2.59212 8.13989,3.12748 20.01186,7.49481 26.51052,9.75239 2.6125,0.90756 6.8875,2.39266 9.5,3.30022 2.6125,0.90756 8.125,2.86501 12.25,4.34989 15.00131,5.40002 17.5873,6.26161 22.5,7.49648 2.75,0.69125 8.15,2.4812 12,3.97767 7.90539,3.07277 19.67434,7.41771 26.75,9.87574 2.6125,0.90756 6.8875,2.39266 9.5,3.30022 2.6125,0.90756 8.125,2.87533 12.25,4.37282 4.125,1.49748 11.55,3.95594 16.5,5.46323 8.26182,2.51576 17.5469,5.88777 37.5,13.61869 4.125,1.59825 7.95,2.90106 8.5,2.89515 0.55,-0.006 4.375,1.28443 8.5,2.86744 4.125,1.583 11.55,4.11099 16.5,5.61775 4.95,1.50676 12.375,3.97144 16.5,5.47707 4.125,1.50563 9.75,3.52303 12.5,4.4831 2.75,0.96007 8.375,3.00966 12.5,4.55464 4.125,1.54498 9.75,3.59457 12.5,4.55464 2.75,0.96007 8.375,3.03045 12.5,4.60085 4.125,1.57039 8.2828,2.85284 9.2395,2.84989 0.9567,-0.003 4.5567,1.05094 8,2.342 3.4433,1.29106 8.398,3.09106 11.0105,4 2.6125,0.90894 6.8875,2.39517 9.5,3.30273 4.6894,1.62905 12.8729,4.61647 28,10.22148 4.2625,1.57937 11.8,4.11884 16.75,5.64327 4.95,1.52443 12.375,3.98966 16.5,5.4783 4.125,1.48864 9.75,3.49597 12.5,4.46074 2.75,0.96477 7.25,2.57496 10,3.5782 l 5,1.82406 -0.061,6.32192 c -0.033,3.47706 -0.5856,7.67192 -1.227,9.32192 -0.6935,1.78397 -1.5836,14.95764 -2.196,32.5 -0.5664,16.225 -1.4616,34.9 -1.9893,41.5 -0.5278,6.6 -1.6449,22.35 -2.4825,35 -0.8376,12.65 -1.9641,27.5 -2.5034,33 -0.5393,5.5 -1.6796,17.875 -2.5341,27.5 -0.8545,9.625 -1.9793,21.325 -2.4995,26 -0.5202,4.675 -1.6249,15.25 -2.4548,23.5 -0.83,8.25 -1.9549,18.15 -2.4998,22 -0.545,3.85 -1.6649,12.85 -2.4887,20 -0.8238,7.15 -1.9492,15.925 -2.501,19.5 -0.5517,3.575 -1.7051,11.675 -2.5631,18 -0.858,6.325 -2.0206,14.425 -2.5835,18 -0.5629,3.575 -1.2342,8.525 -1.4919,11 -0.2576,2.475 -0.9265,6.975 -1.4864,10 -0.5599,3.025 -1.4432,9.325 -1.9629,14 -0.5197,4.675 -1.3833,10.075 -1.9191,12 -1.0457,3.75678 -1.3812,5.61581 -3.5192,19.5 -0.7622,4.95 -1.898,11.025 -2.5239,13.5 -0.6259,2.475 -1.5687,7.65 -2.0951,11.5 -0.5264,3.85 -1.2374,7.675 -1.58,8.5 -0.3425,0.825 -0.985,3.525 -1.4277,6 -1.4318,8.0041 -3.7532,19.38611 -4.895,24 -0.6125,2.475 -1.7375,7.65 -2.5,11.5 -0.7625,3.85 -1.8886,9.025 -2.5025,11.5 -0.6138,2.475 -1.5368,6.975 -2.0511,10 -0.5143,3.025 -1.8019,8.425 -2.8613,12 -1.0595,3.575 -2.4288,8.975 -3.0429,12 -0.6142,3.025 -1.5375,7.075 -2.0518,9 -0.5144,1.925 -1.5774,6.425 -2.3622,10 -0.7849,3.575 -2.1957,8.975 -3.1351,12 -1.7257,5.55673 -3.7499,12.58408 -5.4731,19 -3.2238,12.00331 -4.4122,16.19713 -6.2339,22 -1.1223,3.575 -2.4055,7.85 -2.8516,9.5 -0.4461,1.65 -1.553,5.475 -2.4599,8.5 -0.9069,3.025 -2.0221,7.075 -2.4784,9 -0.4562,1.925 -1.7796,6.2 -2.9408,9.5 -1.1611,3.3 -2.5839,7.35 -3.1616,9 -0.5777,1.65 -1.9453,5.925 -3.0391,9.5 -1.0938,3.575 -2.6976,8.075 -3.564,10 -0.8664,1.925 -1.9391,4.85 -2.3837,6.5 -1.4958,5.55071 -5.9581,17.64989 -7.9484,21.55111 -1.0856,2.12807 -1.9739,4.5771 -1.9739,5.4423 0,0.86519 -1.125,3.79316 -2.5,6.50659 -1.375,2.71343 -2.4923,5.73597 -2.4829,6.71676 0.015,1.55535 -4.3488,11.9558 -12.6106,30.05544 -1.3236,2.8996 -2.4065,6.062 -2.4065,7.0274 0,0.9655 -0.6328,2.6589 -1.4063,3.7632 -0.7735,1.1043 -3.4986,6.7169 -6.0557,12.4725 -14.3094,32.2072 -45.5119,91.7742 -51.6715,98.6431 -0.8984,1.0019 -2.6474,3.8466 -3.8866,6.3216 -1.2393,2.475 -3.2042,5.701 -4.3666,7.1689 -1.1623,1.4678 -3.2383,4.5617 -4.6133,6.8752 -5.6394,9.4888 -8.9983,14.665 -11.976,18.4559 -3.7601,4.7871 -7.383,9.9411 -9.7729,13.9031 -0.9631,1.5967 -3.6075,5.234 -5.8765,8.0829 -2.2689,2.8488 -4.6755,6.2077 -5.3479,7.4642 -0.6725,1.2565 -4.0512,5.5277 -7.5082,9.4916 -3.4571,3.9639 -6.99103,8.5236 -7.85321,10.1327 -1.96649,3.6699 -17.36617,21.5788 -19.71347,22.9255 -0.95863,0.55 -5.20282,5.05 -9.43152,10 -4.22871,4.95 -8.50621,9.45 -9.50557,10 -0.99935,0.55 -3.94161,3.5875 -6.53834,6.75 -2.59674,3.1625 -5.0532,5.75 -5.4588,5.75 -0.40559,0 -4.28798,3.3609 -8.62752,7.4688 -4.33954,4.1078 -9.46507,8.8791 -11.39007,10.603 -1.925,1.7238 -5.92746,5.3478 -8.89437,8.0533 -2.9669,2.7055 -7.5794,6.3349 -10.25,8.0654 -2.67059,1.7305 -4.85563,3.4902 -4.85563,3.9105 0,0.4203 -0.84054,1.031 -1.86787,1.3571 -1.02733,0.326 -4.06483,2.5833 -6.75,5.0162 -2.68517,2.4329 -5.62381,5.0757 -6.5303,5.8728 -0.90649,0.7971 -3.83149,2.7019 -6.5,4.233 -2.66851,1.5311 -5.52683,3.3799 -6.35183,4.1084 -8.1643,7.2097 -47.22928,30.9639 -64.5,39.2204 -6.05,2.8922 -13.025,6.4504 -15.5,7.9071 -6.13154,3.6086 -35.20609,15.9538 -39.24063,16.6617 -2.31282,0.4058 -4.81285,-0.1613 -8.60867,-1.9529 z m 15.87966,-28.0874 c 26.79502,-11.271 75.37023,-38.2239 93.29749,-51.768 4.85532,-3.6682 9.22426,-6.6694 9.70877,-6.6694 0.4845,0 4.16196,-2.7521 8.17214,-6.1159 4.01018,-3.3637 10.19057,-8.2012 13.73419,-10.75 3.54362,-2.5487 8.94362,-6.9137 12,-9.6999 3.05638,-2.7861 9.15705,-8.2096 13.55705,-12.0522 16.74079,-14.6198 56.75851,-56.0445 62.44824,-64.6438 1.95347,-2.9525 5.87797,-8.0389 8.72111,-11.3031 5.06138,-5.8111 7.66351,-9.2979 16.74309,-22.4351 2.47081,-3.575 6.28906,-8.975 8.48506,-12 5.0009,-6.8888 10.2708,-14.8571 17.7616,-26.8562 3.2125,-5.1459 7.6822,-12.1339 9.9328,-15.5288 3.8465,-5.8025 8.1754,-13.3096 19.4313,-33.6976 11.3001,-20.4683 27.9166,-55.3701 39.4764,-82.9174 1.2694,-3.025 4.3397,-10.225 6.8229,-16 2.4832,-5.775 5.1868,-12.525 6.0081,-15 2.4924,-7.51156 6.2458,-17.3708 7.4967,-19.69234 0.6498,-1.20578 2.7372,-6.89192 4.6388,-12.63586 1.9016,-5.74393 4.1108,-11.95738 4.9094,-13.80766 1.554,-3.60056 9.9611,-29.48541 13.597,-41.86414 1.2116,-4.125 3.5421,-12 5.1789,-17.5 1.6368,-5.5 3.6061,-12.25 4.3762,-15 0.7702,-2.75 2.3489,-8.375 3.5083,-12.5 6.1553,-21.8999 11.9042,-44.40283 12.9067,-50.52134 0.4526,-2.76174 1.5116,-7.05016 2.3535,-9.52982 0.8419,-2.47965 1.819,-6.29505 2.1715,-8.47865 0.3524,-2.18361 1.6964,-8.69519 2.9867,-14.47019 7.3986,-33.11576 11.4244,-52.59318 12.5048,-60.5 0.451,-3.3 1.5208,-8.7 2.3775,-12 0.8567,-3.3 1.849,-8.475 2.205,-11.5 0.3561,-3.025 1.7299,-10.99964 3.0529,-17.72143 1.323,-6.72179 2.408,-13.92179 2.4111,-16 0,-2.07821 0.4392,-5.35357 0.9691,-7.27857 0.53,-1.925 1.4744,-7.55 2.0986,-12.5 0.6243,-4.95 1.4971,-11.25 1.9395,-14 0.4424,-2.75 1.5081,-10.175 2.3682,-16.5 2.6032,-19.14276 3.381,-24.3862 4.0054,-27 0.3285,-1.375 1.0678,-7.45 1.6429,-13.5 0.5751,-6.05 1.4698,-13.925 1.9882,-17.5 0.5184,-3.575 1.6711,-13.7 2.5616,-22.5 0.8904,-8.8 1.9922,-19.375 2.4484,-23.5 0.4561,-4.125 1.5783,-15.825 2.4938,-26 0.9154,-10.175 2.061,-22.55 2.5458,-27.5 0.4847,-4.95 1.3499,-18 1.9227,-29 0.5727,-11 1.4843,-22.50209 2.0258,-25.5602 0.5414,-3.0581 0.9844,-9.36107 0.9844,-14.0066 0,-4.64552 0.397,-9.83074 0.8823,-11.52271 0.4852,-1.69197 1.212,-14.514 1.6151,-28.4934 l 0.7328,-25.41709 -8.8651,-3.21388 c -4.8758,-1.76764 -12.6901,-4.39631 -17.3651,-5.8415 -7.9699,-2.46373 -14.2934,-4.72688 -30,-10.73673 -3.575,-1.36792 -8.075,-2.9574 -10,-3.53218 -1.925,-0.57478 -8.675,-2.91343 -15,-5.19699 -6.325,-2.28357 -13.75,-4.74895 -16.5,-5.47862 -4.7663,-1.26465 -16.9556,-5.554 -35.5,-12.49226 -12.7105,-4.75555 -24.081,-8.70315 -38,-13.19289 -17.0243,-5.49137 -32.7656,-11.10652 -53.5,-19.08414 -4.95,-1.90453 -13.725,-4.91902 -19.5,-6.69886 -5.775,-1.77985 -14.20391,-4.56276 -18.73091,-6.18426 -4.52701,-1.6215 -12.17701,-4.33348 -17,-6.02664 -4.823,-1.69315 -12.14409,-4.3387 -16.26909,-5.879 -12.29991,-4.59285 -23.91903,-8.64469 -34,-11.85652 -5.225,-1.6647 -14.675,-4.87557 -21,-7.13527 -6.325,-2.2597 -15.1,-5.37154 -19.5,-6.9152 -4.4,-1.54365 -11.825,-4.25011 -16.5,-6.01435 -4.675,-1.76423 -10.75,-3.8016 -13.5,-4.52749 -2.75,-0.72588 -10.175,-3.19443 -16.5,-5.48565 -6.325,-2.29122 -15.1,-5.42885 -19.5,-6.97251 -4.4,-1.54365 -11.825,-4.25988 -16.5,-6.03606 -4.675,-1.77618 -11.38773,-4.14589 -14.91717,-5.26602 l -6.41717,-2.0366 -6.58283,2.05658 c -7.51673,2.34834 -19.716,6.62793 -32.08283,11.25488 -18.29573,6.84521 -30.71662,11.22406 -35.5,12.51514 -4.82666,1.30277 -15.50577,4.93899 -28,9.53397 -16.06254,5.90729 -29.07906,10.50089 -40,14.11621 -18.58552,6.15265 -37.22686,12.69241 -53.5,18.76889 -11.62486,4.34079 -23.35201,8.4141 -37,12.85159 -14.54194,4.72814 -26.0841,8.74792 -38,13.23421 -4.675,1.76013 -13.9,4.97122 -20.5,7.13578 -6.6,2.16455 -14.025,4.64198 -16.5,5.50539 -19.93549,6.95455 -29.92952,10.5321 -54,19.33031 -6.325,2.3119 -13.75,4.79076 -16.5,5.50857 -2.75,0.71781 -8.825,2.74858 -13.5,4.51281 -4.675,1.76424 -12.1,4.4707 -16.5,6.01435 -4.4,1.54366 -13.175,4.6555 -19.5,6.9152 -6.325,2.2597 -15.775,5.47078 -21,7.13575 -5.225,1.66496 -12.875,4.3171 -17,5.89364 -4.125,1.57654 -8.15497,3.04439 -8.95549,3.26189 -1.2209,0.33172 -1.40761,3.36499 -1.15849,18.82051 0.16335,10.13378 0.58924,18.87795 0.94643,19.4315 0.3572,0.55355 0.95974,7.75645 1.339,16.00645 1.8728,40.7396 2.79441,57.35043 3.3844,61 0.35566,2.2 1.01255,8.95 1.45975,15 1.45125,19.6331 4.02021,48.81624 4.97364,56.5 0.51185,4.125 1.38293,13.35 1.93573,20.5 0.5528,7.15 1.4586,15.925 2.01288,19.5 1.26979,8.1898 1.8126,12.45464 3.56378,28 2.621,23.26692 3.39451,29.48414 4.44777,35.75 1.96172,11.67026 3.00283,18.7356 3.647,24.75 0.35345,3.3 1.48885,10.01825 2.52312,14.92945 1.03426,4.9112 1.88048,10.39062 1.88048,12.1765 0,1.78587 0.93927,7.89261 2.08727,13.57054 1.14799,5.67793 2.43259,12.79851 2.85466,15.82351 0.98797,7.08088 4.51264,25.48003 7.5669,39.5 1.318,6.05 2.68847,13.025 3.0455,15.5 0.35703,2.475 2.62837,12.75994 5.04741,22.85541 2.41904,10.09548 4.39826,19.27196 4.39826,20.39219 0,1.12023 0.93624,5.18049 2.08053,9.02281 1.14429,3.84231 2.46849,9.06583 2.94266,11.60781 0.47418,2.54198 2.0569,9.12178 3.51717,14.62178 1.46026,5.5 3.70909,14.05 4.99739,19 4.68074,17.98462 9.1089,33.22771 15.54192,53.5 2.18165,6.875 3.95621,13.30985 3.94348,14.29966 -0.0127,0.98981 0.64306,3.08796 1.45731,4.66255 0.81425,1.57458 3.09883,7.96474 5.07686,14.20034 1.97802,6.2356 4.25403,12.85131 5.05779,14.70159 0.80377,1.85028 2.9736,7.93192 4.82185,13.51476 1.84825,5.58284 4.26701,12.16897 5.37502,14.63586 1.10802,2.46688 3.46469,8.53524 5.23706,13.48524 1.77237,4.95 5.90786,15.3 9.18998,23 3.28211,7.7 8.25999,19.4 11.06194,26 5.26114,12.3926 33.54573,69.0058 40.21868,80.5 2.07547,3.575 5.78735,10.1 8.24862,14.5 5.88122,10.5138 26.00627,41.5461 35.34427,54.5 2.18062,3.025 5.16995,7.3 6.64295,9.5 1.47301,2.2 4.76449,6.475 7.31441,9.5 2.54992,3.025 5.77294,7.3 7.16227,9.5 1.38932,2.2 6.24889,8.275 10.79904,13.5 4.55014,5.225 12.12684,14 16.8371,19.5 21.38504,24.9705 67.42528,67.3252 91.6317,84.2965 35.62918,24.9799 45.69995,31.3022 68.5,43.003 25.8255,13.2535 36.41105,18.4857 41,20.2652 2.475,0.9597 4.51366,1.7878 4.53036,1.8401 0.0167,0.052 3.8417,-1.508 8.5,-3.4674 z M 802.8245,850.67418 c -0.37205,-1.82482 -0.23268,-2.48236 0.39346,-1.85622 0.53328,0.53328 0.79255,1.8049 0.57615,2.82582 -0.29142,1.37482 -0.54288,1.12336 -0.96961,-0.9696 z M 814,847.5 c 1.29175,-1.375 2.57363,-2.5 2.84863,-2.5 0.275,0 -0.55688,1.125 -1.84863,2.5 -1.29175,1.375 -2.57363,2.5 -2.84863,2.5 -0.275,0 0.55688,-1.125 1.84863,-2.5 z m 277,-2.5 c -0.9013,-0.58246 -1.0246,-0.97549 -0.309,-0.98469 0.655,-0.008 1.4691,0.43469 1.809,0.98469 0.7673,1.24153 0.4211,1.24153 -1.5,0 z m 16,-2.44098 c 0,-1.34254 0.3686,-2.66878 0.8191,-2.94719 0.4504,-0.27841 0.6244,0.82003 0.3865,2.44098 -0.5246,3.57389 -1.2056,3.85985 -1.2056,0.50621 z m -307.26879,-1.47886 c -0.43497,-1.66335 -0.30483,-2.05378 0.43724,-1.31171 0.5811,0.5811 0.85979,1.64682 0.61931,2.36826 -0.24965,0.74895 -0.70294,0.29565 -1.05655,-1.05655 z m 24.00212,-1.20425 c 0.67834,-0.68342 1.48524,-0.99067 1.79313,-0.68278 0.30789,0.30789 -0.24711,0.86705 -1.23333,1.24258 -1.4252,0.54268 -1.54006,0.42782 -0.5598,-0.5598 z M 926,819.56955 c 0,-17.66078 -0.0842,-18.44935 -2.01533,-18.88305 -1.67644,-0.3765 -1.6344,-0.43023 0.25,-0.31955 2.25553,0.13247 2.26651,0.21198 2.53789,18.38305 L 927.04512,837 H 954 980.95488 l 0.29657,-18.25 0.29656,-18.25 0.226,18.75 L 982,838 h -28 -28 z m -95,16.05289 c 0,-0.20765 0.7875,-0.99515 1.75,-1.75 1.58606,-1.24387 1.62143,-1.2085 0.37756,0.37756 C 831.82119,835.91575 831,836.44548 831,835.62244 Z m 279.0789,-3.20577 c 0.048,-1.16495 0.285,-1.4019 0.6042,-0.60417 0.2889,0.72187 0.2534,1.58438 -0.079,1.91667 -0.3323,0.33229 -0.5687,-0.25834 -0.5253,-1.3125 z M 1073,832 c -0.9013,-0.58246 -1.0246,-0.97549 -0.309,-0.98469 0.655,-0.008 1.4691,0.43469 1.809,0.98469 0.7673,1.24153 0.4211,1.24153 -1.5,0 z m 39.1579,-8 c 0,-1.375 0.227,-1.9375 0.5044,-1.25 0.2774,0.6875 0.2774,1.8125 0,2.5 -0.2774,0.6875 -0.5044,0.125 -0.5044,-1.25 z m -58.3454,-2.68311 c 0.7219,-0.28887 1.5844,-0.25335 1.9167,0.0789 0.3323,0.33229 -0.2584,0.56864 -1.3125,0.52522 -1.165,-0.048 -1.4019,-0.28494 -0.6042,-0.60416 z M 865,816.60699 c 0,-0.21616 0.69837,-0.661 1.55194,-0.98855 0.88992,-0.34149 1.29132,-0.17385 0.94098,0.39301 C 866.90566,816.96166 865,817.4169 865,816.60699 Z M 792.15789,813 c 0,-1.375 0.22698,-1.9375 0.50439,-1.25 0.27741,0.6875 0.27741,1.8125 0,2.5 -0.27741,0.6875 -0.50439,0.125 -0.50439,-1.25 z m 322.92101,-0.58333 c 0.048,-1.16495 0.285,-1.4019 0.6042,-0.60417 0.2889,0.72187 0.2534,1.58438 -0.079,1.91667 -0.3323,0.33229 -0.5687,-0.25834 -0.5253,-1.3125 z m -228.2664,-4.09978 c 0.72187,-0.28887 1.58438,-0.25335 1.91667,0.0789 0.33229,0.33229 -0.25834,0.56864 -1.3125,0.52522 -1.16495,-0.048 -1.4019,-0.28494 -0.60417,-0.60416 z m 113,-4 c 0.7219,-0.28887 1.5844,-0.25335 1.9167,0.0789 0.3323,0.33229 -0.2584,0.56864 -1.3125,0.52522 -1.16498,-0.048 -1.40193,-0.28494 -0.6042,-0.60416 z M 790.19495,801.5 c 0.0204,-1.65 0.2445,-2.20394 0.49804,-1.23097 0.25354,0.97297 0.23687,2.32297 -0.0371,3 -0.27393,0.67703 -0.48137,-0.11903 -0.46099,-1.76903 z m 116.61755,1.81689 c 0.72187,-0.28887 1.58438,-0.25335 1.91667,0.0789 0.33229,0.33229 -0.25834,0.56864 -1.3125,0.52522 -1.16495,-0.048 -1.4019,-0.28494 -0.60417,-0.60416 z m 86.9375,0.0208 c 0.6875,-0.27741 1.8125,-0.27741 2.5,0 0.6875,0.27741 0.125,0.50439 -1.25,0.50439 -1.375,0 -1.9375,-0.22698 -1.25,-0.50439 z m -80.9375,-1.02083 c 0.72187,-0.28887 1.58438,-0.25335 1.91667,0.0789 0.33229,0.33229 -0.25834,0.56864 -1.3125,0.52522 -1.16495,-0.048 -1.4019,-0.28494 -0.60417,-0.60416 z M 787.25218,781.5 c 0.0111,-2.2 0.21589,-2.98225 0.45508,-1.73834 0.23919,1.24391 0.23011,3.04391 -0.0202,4 -0.25029,0.95609 -0.446,-0.0617 -0.4349,-2.26166 z m 0.0202,-57.5 c 0,-2.475 0.19502,-3.4875 0.43337,-2.25 0.23836,1.2375 0.23836,3.2625 0,4.5 -0.23835,1.2375 -0.43337,0.225 -0.43337,-2.25 z m 2.88553,-21 c 0,-1.375 0.22698,-1.9375 0.50439,-1.25 0.27741,0.6875 0.27741,1.8125 0,2.5 -0.27741,0.6875 -0.50439,0.125 -0.50439,-1.25 z M 925.7612,618.40463 926.0224,534 H 954.0112 982 l -0.24424,84.75 -0.24425,84.75 -0.26143,-84.25 L 980.98864,535 H 953.99432 927 v 83.44098 c 0,45.89254 -0.3375,83.64963 -0.75,83.90464 -0.4125,0.25501 -0.63246,-37.51844 -0.4888,-83.94099 z m -3.9487,82.91226 c 0.72187,-0.28887 1.58438,-0.25335 1.91667,0.0789 0.33229,0.33229 -0.25834,0.56864 -1.3125,0.52522 -1.16495,-0.048 -1.4019,-0.28494 -0.60417,-0.60416 z m 76,-1 c 0.72187,-0.28887 1.58438,-0.25335 1.91667,0.0789 0.33233,0.33229 -0.25834,0.56864 -1.3125,0.52522 -1.16495,-0.048 -1.4019,-0.28494 -0.60417,-0.60416 z m 12,-3 c 0.7219,-0.28887 1.5844,-0.25335 1.9167,0.0789 0.3323,0.33229 -0.2584,0.56864 -1.3125,0.52522 -1.165,-0.048 -1.4019,-0.28494 -0.6042,-0.60416 z m -114,-2 c 0.72187,-0.28887 1.58438,-0.25335 1.91667,0.0789 0.33229,0.33229 -0.25834,0.56864 -1.3125,0.52522 -1.16495,-0.048 -1.4019,-0.28494 -0.60417,-0.60416 z M 1115.1949,684.5 c 0.02,-1.65 0.2445,-2.20394 0.4981,-1.23097 0.2535,0.97297 0.2369,2.32297 -0.037,3 -0.2739,0.67703 -0.4813,-0.11903 -0.461,-1.76903 z m -68.4616,0.37591 c 0.6784,-0.68342 1.4853,-0.99067 1.7932,-0.68278 0.3078,0.30789 -0.2472,0.86705 -1.2334,1.24258 -1.4252,0.54268 -1.54,0.42782 -0.5598,-0.5598 z M 795.15789,680 c 0,-1.375 0.22698,-1.9375 0.50439,-1.25 0.27741,0.6875 0.27741,1.8125 0,2.5 -0.27741,0.6875 -0.50439,0.125 -0.50439,-1.25 z M 1069,672.62244 c 0,-0.20765 0.7875,-0.99515 1.75,-1.75 1.5861,-1.24387 1.6214,-1.2085 0.3776,0.37756 -1.3064,1.66575 -2.1276,2.19548 -2.1276,1.37244 z m 8,-5 c 0,-0.20765 0.7875,-0.99515 1.75,-1.75 1.5861,-1.24387 1.6214,-1.2085 0.3776,0.37756 -1.3064,1.66575 -2.1276,2.19548 -2.1276,1.37244 z M 1110.1579,665 c 0,-1.375 0.227,-1.9375 0.5044,-1.25 0.2774,0.6875 0.2774,1.8125 0,2.5 -0.2774,0.6875 -0.5044,0.125 -0.5044,-1.25 z M 834.40499,663.75 832.5,661.5 l 2.25,1.90499 c 2.11444,1.79022 2.70524,2.59501 1.90499,2.59501 -0.18976,0 -1.20226,-1.0125 -2.25,-2.25 z M 1092,654.65019 c 0,-0.23109 1.1804,-1.1936 2.6231,-2.13891 1.4427,-0.9453 2.3177,-1.22448 1.9443,-0.62038 -0.7134,1.15439 -4.5674,3.48267 -4.5674,2.75929 z M 818.40499,650.75 816.5,648.5 l 2.25,1.90499 c 2.11444,1.79022 2.70524,2.59501 1.90499,2.59501 -0.18976,0 -1.20226,-1.0125 -2.25,-2.25 z m 286.67391,-1.33333 c 0.048,-1.16495 0.285,-1.4019 0.6042,-0.60417 0.2889,0.72187 0.2534,1.58438 -0.079,1.91667 -0.3323,0.33229 -0.5687,-0.25834 -0.5253,-1.3125 z M 811.87244,644.25 c -1.24387,-1.58606 -1.2085,-1.62143 0.37756,-0.37756 0.9625,0.75485 1.75,1.54235 1.75,1.75 0,0.82304 -0.82119,0.29331 -2.12756,-1.37244 z M 267.25218,614.5 c 0.0111,-2.2 0.21589,-2.98225 0.45508,-1.73834 0.23919,1.24391 0.23011,3.04391 -0.0202,4 -0.25029,0.95609 -0.446,-0.0617 -0.4349,-2.26166 z M 277.8125,245.31689 c 0.72187,-0.28887 1.58438,-0.25335 1.91667,0.0789 0.33229,0.33229 -0.25834,0.56864 -1.3125,0.52522 -1.16495,-0.048 -1.4019,-0.28494 -0.60417,-0.60416 z"
         id="path20" />
      <path
         style="fill:#0d4c32"
         d="m 722.21026,1337.5061 c -34.09229,-17.4431 -42.29958,-22.458 -79.60646,-48.6411 -23.76367,-16.678 -69.78775,-58.9712 -90.71903,-83.365 -4.71932,-5.5 -12.30343,-14.275 -16.85357,-19.5 -4.55015,-5.225 -9.40972,-11.3 -10.79904,-13.5 -1.38933,-2.2 -4.61235,-6.475 -7.16227,-9.5 -2.54992,-3.025 -5.8414,-7.3 -7.31441,-9.5 -1.473,-2.2 -4.46233,-6.475 -6.64295,-9.5 -9.338,-12.9539 -29.46305,-43.9862 -35.34427,-54.5 -2.46127,-4.4 -6.17134,-10.925 -8.24459,-14.5 -6.67154,-11.504 -32.95563,-64.1163 -38.21791,-76.5 -2.8046,-6.6 -7.78463,-18.3 -11.06674,-26 -3.28212,-7.7 -7.41761,-18.05 -9.18998,-23 -1.77237,-4.95 -4.12904,-11.01836 -5.23706,-13.48524 -1.10801,-2.46689 -3.52677,-9.05302 -5.37502,-14.63586 -1.84825,-5.58284 -4.01808,-11.66448 -4.82185,-13.51476 -0.80376,-1.85028 -3.07977,-8.46599 -5.05779,-14.70159 -1.97803,-6.2356 -4.26261,-12.62576 -5.07686,-14.20034 -0.81425,-1.57459 -1.47004,-3.67274 -1.45731,-4.66255 0.0127,-0.98981 -1.76183,-7.42466 -3.94348,-14.29966 -6.43302,-20.27229 -10.86118,-35.51538 -15.54192,-53.5 -1.2883,-4.95 -3.53713,-13.5 -4.99739,-19 -1.46027,-5.5 -3.04299,-12.0798 -3.51717,-14.62178 -0.47417,-2.54198 -1.79837,-7.7655 -2.94266,-11.60781 C 341.93624,757.42809 341,753.36783 341,752.2476 c 0,-1.12023 -1.97922,-10.29671 -4.39826,-20.39219 C 334.1827,721.75994 331.91136,711.475 331.55433,709 c -0.35703,-2.475 -1.7275,-9.45 -3.0455,-15.5 -3.05426,-14.01997 -6.57893,-32.41912 -7.5669,-39.5 -0.42207,-3.025 -1.70667,-10.14558 -2.85466,-15.82351 C 316.93927,632.49856 316,626.39182 316,624.60595 c 0,-1.78588 -0.84622,-7.2653 -1.88048,-12.1765 -1.03427,-4.9112 -2.16967,-11.62945 -2.52312,-14.92945 -0.64417,-6.0144 -1.68528,-13.07974 -3.647,-24.75 -1.05326,-6.26586 -1.82677,-12.48308 -4.44777,-35.75 -1.75118,-15.54536 -2.29399,-19.8102 -3.56378,-28 -0.55428,-3.575 -1.46008,-12.35 -2.01288,-19.5 -0.5528,-7.15 -1.42388,-16.375 -1.93573,-20.5 -0.95343,-7.68376 -3.52239,-36.8669 -4.97364,-56.5 -0.4472,-6.05 -1.10409,-12.8 -1.45975,-15 -0.35565,-2.2 -1.11392,-13.45 -1.68504,-25 -0.57112,-11.55 -1.44097,-27.525 -1.93301,-35.5 -0.49203,-7.975 -1.16914,-21.06496 -1.50469,-29.08879 l -0.61008,-14.58879 5.02387,-2.16121 C 291.61002,289.97254 294.29025,289 294.80296,289 c 1.1272,0 14.5499,-4.46891 30.19704,-10.0537 6.325,-2.25752 15.1,-5.36758 19.5,-6.91124 4.4,-1.54365 11.825,-4.25011 16.5,-6.01435 4.675,-1.76423 10.75,-3.795 13.5,-4.51281 2.75,-0.71781 10.175,-3.19667 16.5,-5.50857 24.07048,-8.79821 34.06451,-12.37576 54,-19.33031 2.475,-0.86341 9.9,-3.34084 16.5,-5.50539 6.6,-2.16456 15.825,-5.37565 20.5,-7.13578 11.9159,-4.48629 23.45806,-8.50607 38,-13.23421 13.64799,-4.43749 25.37514,-8.5108 37,-12.85159 15.30825,-5.71618 36.01648,-12.98105 53.5,-18.76889 10.92094,-3.61532 23.93746,-8.20892 40,-14.11621 12.49423,-4.59498 23.17334,-8.2312 28,-9.53397 4.87829,-1.3167 18.36686,-6.08092 35.5,-12.53875 4.675,-1.76211 10.975,-4.01933 14,-5.01605 3.025,-0.99673 8.54777,-2.97232 12.27283,-4.39021 3.72505,-1.41788 7.43755,-2.57797 8.25,-2.57797 1.30128,0 1.47717,72.57534 1.47717,609.5 0,579.8221 -0.0852,609.4984 -1.75,609.4669 -0.9625,-0.018 -12.68038,-5.6256 -26.03974,-12.4608 z"
         id="path18" />
      <path
         style="fill:#000000"
         d="m 745,1399.5 c 0,-0.9237 -0.93789,-1.5 -2.44098,-1.5 -1.34254,0 -2.72364,-0.4573 -3.0691,-1.0163 -0.34546,-0.559 -0.99987,-0.7866 -1.45423,-0.5058 -0.45437,0.2809 -1.10374,-0.2129 -1.44306,-1.0971 -0.39069,-1.0181 -1.3459,-1.4171 -2.60478,-1.0879 -1.09332,0.2859 -1.98785,0.112 -1.98785,-0.3865 0,-0.4985 -1.125,-0.9064 -2.5,-0.9064 -1.375,0 -2.50351,-0.3375 -2.5078,-0.75 -0.0106,-1.0147 -4.95688,-3.25 -7.19156,-3.25 -0.99035,0 -1.80064,-0.45 -1.80064,-1 0,-0.55 -0.675,-1 -1.5,-1 -0.825,0 -1.5,-0.45 -1.5,-1 0,-0.55 -1.125,-1 -2.5,-1 -1.375,0 -2.5,-0.45 -2.5,-1 0,-0.55 -0.675,-1 -1.5,-1 -0.825,0 -1.5,-0.45 -1.5,-1 0,-0.55 -0.9,-1 -2,-1 -1.1,0 -2,-0.45 -2,-1 0,-0.55 -1.125,-1 -2.5,-1 -1.375,0 -2.5,-0.45 -2.5,-1 0,-0.55 -0.675,-1 -1.5,-1 -0.825,0 -1.5,-0.366 -1.5,-0.8134 0,-0.4473 -1.575,-1.4313 -3.5,-2.1866 -1.925,-0.7553 -3.5,-1.7393 -3.5,-2.1866 0,-0.4474 -1.125,-0.8134 -2.5,-0.8134 -1.375,0 -2.5,-0.3975 -2.5,-0.8834 0,-0.8579 -3.7394,-2.4426 -5.25,-2.2248 -0.4125,0.059 -0.75,-0.2578 -0.75,-0.7052 0,-0.4473 -1.575,-1.4313 -3.5,-2.1866 -1.925,-0.7553 -3.5,-1.7393 -3.5,-2.1866 0,-0.4474 -0.675,-0.8134 -1.5,-0.8134 -0.825,0 -1.5,-0.366 -1.5,-0.8134 0,-0.4473 -1.575,-1.4313 -3.5,-2.1866 -1.925,-0.7553 -3.5,-1.7393 -3.5,-2.1866 0,-0.4474 -0.675,-0.8134 -1.5,-0.8134 -0.825,0 -1.5,-0.366 -1.5,-0.8134 0,-0.4473 -1.575,-1.4313 -3.5,-2.1866 -1.925,-0.7553 -3.5,-1.7393 -3.5,-2.1866 0,-0.4474 -0.675,-0.8134 -1.5,-0.8134 -0.825,0 -1.5,-0.45 -1.5,-1 0,-0.55 -0.64948,-1 -1.4433,-1 -0.79381,0 -2.03131,-0.8171 -2.75,-1.8159 -1.20339,-1.6723 -4.13238,-3.3893 -6.13731,-3.5977 -0.45684,-0.047 -1.35684,-0.7614 -2,-1.5864 -0.64317,-0.825 -2.51939,-2.175 -4.16939,-3 -1.65,-0.825 -3.58802,-2.2875 -4.3067,-3.25 -0.71869,-0.9625 -1.95619,-1.75 -2.75,-1.75 -0.79382,0 -1.4433,-0.45 -1.4433,-1 0,-0.55 -0.57566,-1 -1.27924,-1 -0.70358,0 -1.92792,-0.9 -2.72076,-2 -0.79284,-1.1 -2.01718,-2 -2.72076,-2 -0.70358,0 -1.27924,-0.45 -1.27924,-1 0,-0.55 -0.67119,-1 -1.49153,-1 -0.82034,0 -2.05358,-0.9 -2.74054,-2 -0.68696,-1.1 -1.73159,-2 -2.32139,-2 -0.58979,0 -2.36124,-1.3453 -3.93655,-2.9896 -1.5753,-1.6442 -3.08163,-2.7721 -3.34739,-2.5063 -0.26577,0.2657 -1.11159,-0.414 -1.87961,-1.5105 -0.76802,-1.0965 -1.94654,-1.9936 -2.61893,-1.9936 -0.6724,0 -1.87122,-0.9 -2.66406,-2 -0.79284,-1.1 -1.91784,-2 -2.5,-2 -0.58216,0 -1.70716,-0.9 -2.5,-2 -0.79284,-1.1 -1.90468,-2.0041 -2.47076,-2.0091 -0.56608,-0.01 -2.09239,-1.355 -3.3918,-3 -1.29941,-1.645 -2.87441,-2.9922 -3.5,-2.9938 -0.62559,0 -2.03744,-1.3503 -3.13744,-2.9971 -1.1,-1.6468 -2.51588,-2.9955 -3.14641,-2.9971 -0.63052,0 -2.52927,-1.5779 -4.21945,-3.5029 -1.69017,-1.925 -3.48613,-3.5 -3.99103,-3.5 -0.50489,0 -1.98114,-1.3459 -3.28055,-2.9909 -1.29941,-1.645 -2.73495,-2.995 -3.19009,-3 -0.98299,-0.011 -8.60712,-8.1758 -8.64574,-9.2591 -0.0147,-0.4125 -0.63595,-0.75 -1.38054,-0.75 -1.20783,0 -10.64217,-9.9764 -11.47952,-12.1391 -0.18334,-0.4735 -0.91225,-0.8609 -1.61982,-0.8609 -0.70757,0 -2.80757,-1.8733 -4.66667,-4.1629 -1.8591,-2.2895 -5.18018,-6.1779 -7.38018,-8.6408 -5.67149,-6.3493 -6.89598,-7.7737 -10.65919,-12.3996 -1.83745,-2.2587 -4.46581,-5.3329 -5.84081,-6.8316 -1.375,-1.4988 -4.38514,-4.9165 -6.68921,-7.595 -2.30406,-2.6786 -5.36821,-6.2201 -6.80921,-7.8701 -5.86894,-6.7201 -6.50158,-7.5615 -6.50158,-8.6467 0,-1.1103 -10.77836,-14.0326 -12.25,-14.6866 -0.4125,-0.1834 -0.7539,-1.0834 -0.75867,-2 -0.005,-0.9167 -1.57977,-3.3242 -3.5,-5.3499 -1.92023,-2.0258 -3.49836,-4.2758 -3.50695,-5 -0.009,-0.7243 -1.80156,-3.3418 -3.98438,-5.8168 -2.18282,-2.475 -3.98442,-4.95 -4.00356,-5.5 -0.0192,-0.55 -1.57789,-2.7681 -3.46389,-4.9292 -1.88599,-2.1611 -3.24292,-4.2304 -3.01539,-4.5986 0.22752,-0.3681 -0.47076,-1.6186 -1.55174,-2.7789 -1.08098,-1.1603 -1.96542,-2.5981 -1.96542,-3.1951 0,-0.597 -1.125,-2.2987 -2.5,-3.7816 -1.375,-1.4829 -2.5,-3.1083 -2.5,-3.612 0,-0.5037 -1.125,-2.3908 -2.5,-4.1935 -1.375,-1.8027 -2.5,-3.6498 -2.5,-4.1046 0,-0.4548 -1.125,-2.0402 -2.5,-3.5231 -1.375,-1.4829 -2.5,-3.3357 -2.5,-4.1173 0,-0.7817 -0.675,-1.9814 -1.5,-2.6661 -0.825,-0.6847 -1.5,-2.0898 -1.5,-3.1224 0,-1.0327 -0.44143,-1.8776 -0.98095,-1.8776 -0.53952,0 -1.25499,-1.0919 -1.58993,-2.4264 -0.33495,-1.3345 -1.46852,-3.2043 -2.51906,-4.155 -1.05053,-0.9507 -1.91006,-2.2787 -1.91006,-2.9511 0,-0.6725 -0.675,-1.7828 -1.5,-2.4675 -0.825,-0.6847 -1.5,-2.0898 -1.5,-3.1224 0,-1.0327 -0.3634,-1.8776 -0.80755,-1.8776 -0.44416,0 -1.60171,-1.8 -2.57235,-4 -0.97064,-2.2 -2.13216,-4 -2.58116,-4 -0.449,0 -1.10024,-1.5132 -1.44721,-3.3627 -0.34696,-1.8495 -1.49654,-4.1462 -2.55461,-5.1037 -1.05807,-0.9575 -2.23464,-3.1564 -2.6146,-4.8864 -0.37996,-1.7299 -1.47009,-3.8212 -2.42252,-4.6472 -0.95243,-0.826 -2.03945,-2.9031 -2.41562,-4.6158 -0.37616,-1.7127 -1.50934,-3.9999 -2.51817,-5.0828 -1.00884,-1.0828 -2.13694,-3.347 -2.50691,-5.0314 -0.36996,-1.6844 -1.53654,-3.8444 -2.5924,-4.8 -1.05586,-0.9555 -1.69801,-2.0961 -1.42701,-2.5345 0.27101,-0.4385 0.0354,-1.08 -0.52358,-1.4254 -0.55897,-0.3455 -1.01631,-1.5016 -1.01631,-2.5691 0,-1.0676 -0.45,-1.941 -1,-1.941 -0.55,0 -1,-0.9 -1,-2 0,-1.1 -0.46973,-2 -1.04384,-2 -0.57411,0 -0.95194,-0.5625 -0.83963,-1.25 0.29629,-1.8137 -1.659,-6.1254 -3.45291,-7.6142 -0.84961,-0.7051 -1.29834,-1.9241 -0.99719,-2.7089 0.30115,-0.7848 0.0494,-1.4269 -0.55944,-1.4269 -0.60885,0 -1.10699,-0.9 -1.10699,-2 0,-1.1 -0.45,-2 -1,-2 -0.55,0 -1,-0.8734 -1,-1.941 0,-1.0675 -0.45734,-2.2236 -1.01631,-2.5691 -0.55897,-0.3454 -0.77663,-1.0159 -0.48369,-1.4899 0.29294,-0.474 0.0753,-1.1445 -0.48369,-1.4899 -0.55897,-0.3455 -1.01631,-1.5016 -1.01631,-2.5691 0,-1.0676 -0.45,-1.941 -1,-1.941 -0.55,0 -1.01008,-0.7875 -1.02241,-1.75 -0.0123,-0.9625 -1.35224,-4.45 -2.97759,-7.75 -1.62535,-3.3 -2.96527,-6.7875 -2.97759,-7.75 C 369.01008,992.7875 368.55,992 368,992 c -0.55,0 -1,-0.9 -1,-2 0,-1.1 -0.45,-2 -1,-2 -0.55,0 -1.00188,-0.7875 -1.00419,-1.75 -0.002,-0.9625 -1.08727,-3.8847 -2.41105,-6.49378 -1.32377,-2.60908 -2.71144,-6.54658 -3.08371,-8.75 C 359.12879,968.8028 358.41376,967 357.9121,967 357.41045,967 357,966.1 357,965 c 0,-1.1 -0.41045,-2 -0.9121,-2 -0.50166,0 -1.21669,-1.8028 -1.58895,-4.00622 -0.37227,-2.20342 -1.75994,-6.14092 -3.08371,-8.75 -1.32378,-2.60908 -2.40875,-5.53128 -2.41105,-6.49378 C 349.00188,942.7875 348.55,942 348,942 c -0.55,0 -1,-1.35 -1,-3 0,-1.65 -0.41045,-3 -0.9121,-3 -0.50166,0 -1.22992,-1.88114 -1.61836,-4.18032 C 344.08109,929.52051 342.9698,926.22665 342,924.5 c -0.9698,-1.72665 -2.08109,-5.02051 -2.46954,-7.31968 C 339.14202,914.88114 338.41376,913 337.9121,913 337.41045,913 337,911.65 337,910 c 0,-1.65 -0.41045,-3 -0.9121,-3 -0.50166,0 -1.21881,-1.81535 -1.59366,-4.03411 -0.37486,-2.21876 -1.41229,-5.48126 -2.30541,-7.25 -0.89312,-1.76874 -1.50444,-3.96352 -1.35849,-4.8773 0.14595,-0.91378 -0.20617,-1.95283 -0.78249,-2.30902 C 329.47153,888.17339 329,886.55852 329,884.94098 329,883.32344 328.55,882 328,882 c -0.55,0 -1,-1.35 -1,-3 0,-1.65 -0.48032,-3 -1.06739,-3 -0.59435,0 -0.79959,-0.84375 -0.46311,-1.90391 0.34354,-1.0824 -0.2746,-3.46868 -1.43261,-5.53041 C 322.9166,866.5711 322,864.07941 322,863.0286 c 0,-1.05081 -0.40775,-2.16257 -0.90612,-2.47058 -0.49837,-0.30801 -0.68416,-1.40878 -0.41288,-2.44616 0.27128,-1.03738 0.004,-2.18849 -0.59388,-2.55802 C 319.4892,855.18431 319,853.81008 319,852.5 c 0,-1.31008 -0.45,-2.66008 -1,-3 -0.55,-0.33992 -1,-1.68992 -1,-3 0,-1.31008 -0.38965,-2.62278 -0.86589,-2.91712 -0.47624,-0.29433 -0.64878,-1.67089 -0.38342,-3.05901 C 316.03354,839.04422 315.77118,838 315.11658,838 314.50246,838 314,836.65 314,835 c 0,-1.65 -0.39815,-3 -0.88478,-3 -0.48662,0 -1.19312,-2.46791 -1.56998,-5.48424 -0.37687,-3.01633 -1.10372,-5.74289 -1.61523,-6.05901 C 309.41851,820.14062 309,818.36008 309,816.5 c 0,-1.86008 -0.40784,-3.63403 -0.90632,-3.9421 -0.49847,-0.30807 -1.21563,-2.80913 -1.59368,-5.5579 -0.37805,-2.74877 -1.09521,-5.24983 -1.59368,-5.5579 C 304.40784,801.13403 304,799.42352 304,797.64098 c 0,-1.78254 -0.4472,-3.68818 -0.99378,-4.23476 -0.54658,-0.54658 -1.28568,-3.78658 -1.64245,-7.2 C 301.00699,782.7928 300.32919,780 299.85754,780 299.38589,780 299,778.65 299,777 c 0,-1.65 -0.39713,-3 -0.88251,-3 -0.48538,0 -1.19878,-3.375 -1.58532,-7.5 -0.38655,-4.125 -1.11442,-7.5 -1.61749,-7.5 C 294.41161,759 294,757.2 294,755 c 0,-2.2 -0.38589,-4 -0.85754,-4 -0.47165,0 -1.14945,-2.7928 -1.50623,-6.20622 -0.35677,-3.41342 -1.09587,-6.65342 -1.64245,-7.2 C 289.4472,737.0472 289,735.115 289,733.3 c 0,-1.815 -0.3853,-3.3 -0.85622,-3.3 -0.47093,0 -1.1656,-3.70968 -1.54373,-8.24372 -0.37812,-4.53405 -1.11782,-8.67405 -1.64377,-9.2 C 284.43032,712.03032 284,710.14156 284,708.35902 c 0,-1.78254 -0.41976,-3.50041 -0.9328,-3.81749 -0.51304,-0.31708 -1.24701,-4.17852 -1.63104,-8.58099 -0.38404,-4.40246 -1.08928,-8.24615 -1.5672,-8.54153 C 279.39103,687.12364 279,684.91008 279,682.5 c 0,-2.41008 -0.41976,-4.64139 -0.9328,-4.95847 -0.51304,-0.31708 -1.24701,-4.17852 -1.63104,-8.58099 -0.38404,-4.40246 -1.08928,-8.24615 -1.5672,-8.54153 C 274.39103,660.12364 274,657.91008 274,655.5 c 0,-2.41008 -0.41425,-4.63799 -0.92056,-4.9509 -0.50631,-0.31292 -1.23996,-5.07417 -1.63035,-10.58056 -0.39038,-5.5064 -1.10113,-10.25349 -1.57944,-10.5491 C 269.39134,629.12383 269,626.88352 269,624.44098 c 0,-2.44254 -0.3375,-4.44089 -0.75,-4.44078 -0.4125,1.1e-4 -0.83203,-2.36239 -0.9323,-5.25 C 267.02932,606.44472 265.88818,599 264.90349,599 264.40657,599 264,595.85 264,592 c 0,-3.85 -0.38394,-7 -0.85321,-7 -0.46926,0 -0.64263,-2.19153 -0.38525,-4.87007 0.28731,-2.99011 0.0376,-5.13601 -0.6468,-5.55901 C 261.49749,574.18943 261,571.23063 261,567.94098 261,564.64699 260.55445,562 260,562 c -0.5614,0 -1,-2.77778 -1,-6.33333 0,-3.48334 -0.30323,-6.63657 -0.67385,-7.00718 -0.37061,-0.37062 -0.56562,-3.32553 -0.43335,-6.56646 0.13709,-3.35894 -0.21814,-6.17607 -0.82615,-6.55184 C 256.47999,535.17862 256,531.98352 256,528.44098 256,524.81366 255.56316,522 255,522 c -0.58333,0 -1,-3.33333 -1,-8 0,-4.4 -0.3375,-7.99895 -0.75,-7.99767 -0.4125,0.001 -0.60011,-3.42633 -0.41691,-7.61691 0.20043,-4.58457 -0.0983,-8.05062 -0.75,-8.70233 -0.5957,-0.5957 -1.08309,-4.34153 -1.08309,-8.32407 0,-3.98254 -0.38711,-7.48023 -0.86024,-7.77264 -0.47313,-0.29242 -1.18301,-8.30647 -1.5775,-17.80902 C 248.16777,446.27481 247.42988,438.0725 246.9225,437.55 246.41513,437.0275 246,431.5525 246,425.38333 c 0,-6.16916 -0.4172,-11.36666 -0.9271,-11.55 C 244.56299,413.65 243.82222,402.8125 243.42674,389.75 243.03125,376.6875 242.32345,366 241.85384,366 241.38423,366 241,359.025 241,350.5 c 0,-9.66667 -0.37634,-15.5 -1,-15.5 -0.63063,0 -1,-6.83333 -1,-18.5 0,-11.66667 -0.36937,-18.5 -1,-18.5 -0.63248,0 -1,-7.16667 -1,-19.5 V 259 h 2.44098 c 1.34254,0 2.7191,-0.45 3.05902,-1 0.33992,-0.55 1.94148,-1 3.55902,-1 1.61754,0 2.94098,-0.45 2.94098,-1 0,-0.55 1.125,-1 2.5,-1 1.375,0 2.5,-0.45 2.5,-1 0,-0.55 1.125,-1 2.5,-1 1.375,0 2.5,-0.45 2.5,-1 0,-0.55 1.575,-1 3.5,-1 1.925,0 3.5,-0.45 3.5,-1 0,-0.55 1.125,-1 2.5,-1 1.375,0 2.5,-0.45 2.5,-1 0,-0.55 1.125,-1 2.5,-1 1.375,0 2.5,-0.3876 2.5,-0.86133 0,-0.47373 1.03987,-0.66254 2.31082,-0.41959 1.30015,0.24854 2.847,-0.20432 3.53677,-1.03543 0.67427,-0.81245 2.1094,-1.24615 3.18918,-0.96378 1.08537,0.28383 1.96323,0.0141 1.96323,-0.60324 0,-0.61415 1.125,-1.11663 2.5,-1.11663 1.375,0 2.5,-0.45 2.5,-1 0,-0.55 1.13111,-1 2.51357,-1 1.38246,0 3.51996,-0.52026 4.75,-1.15613 C 304.07764,236.35523 305.04231,236 306.98643,236 308.09389,236 309,235.55 309,235 c 0,-0.55 1.35,-1 3,-1 1.65,0 3,-0.45 3,-1 0,-0.55 1.125,-1 2.5,-1 1.375,0 2.5,-0.45 2.5,-1 0,-0.55 1.125,-1 2.5,-1 1.375,0 2.5,-0.45 2.5,-1 0,-0.55 1.575,-1 3.5,-1 1.925,0 3.5,-0.45 3.5,-1 0,-0.55 1.125,-1 2.5,-1 1.375,0 2.5,-0.45 2.5,-1 0,-0.55 1.125,-1 2.5,-1 1.375,0 2.5,-0.45 2.5,-1 0,-0.55 1.13111,-1 2.51357,-1 1.38246,0 3.29496,-0.41715 4.25,-0.927 2.95349,-1.57674 5.67475,-2.39882 7.12995,-2.15392 0.76644,0.12898 1.76073,-0.35965 2.20955,-1.08584 0.46979,-0.76015 2.10603,-1.18504 3.85647,-1.00143 C 363.65962,217.01014 365,216.67666 365,216.07537 365,215.48391 366.125,215 367.5,215 c 1.375,0 2.5,-0.45 2.5,-1 0,-0.55 1.125,-1 2.5,-1 1.375,0 2.5,-0.45 2.5,-1 0,-0.55 1.13111,-1 2.51357,-1 1.38246,0 3.29496,-0.3975 4.25,-0.88333 0.95504,-0.48583 2.97393,-1.38583 4.48643,-2 1.5125,-0.61417 3.9875,-1.61917 5.5,-2.23334 1.5125,-0.61417 3.53139,-1.51417 4.48643,-2 0.95504,-0.48583 2.86754,-0.88333 4.25,-0.88333 1.38246,0 2.51357,-0.45 2.51357,-1 0,-0.55 1.125,-1 2.5,-1 1.375,0 2.5,-0.45 2.5,-1 0,-0.55 1.125,-1 2.5,-1 1.375,0 2.5,-0.45 2.5,-1 0,-0.55 1.575,-1 3.5,-1 1.925,0 3.5,-0.45 3.5,-1 0,-0.55 1.125,-1 2.5,-1 1.375,0 2.5,-0.45 2.5,-1 0,-0.55 1.125,-1 2.5,-1 1.375,0 2.5,-0.3876 2.5,-0.86133 0,-0.47373 1.18395,-0.635 2.63099,-0.35838 1.74115,0.33284 2.92411,-0.0208 3.49765,-1.04567 0.52261,-0.93386 1.66152,-1.34075 2.869,-1.02499 1.12029,0.29297 2.00236,0.0317 2.00236,-0.593 0,-0.61415 1.125,-1.11663 2.5,-1.11663 1.375,0 2.5,-0.45 2.5,-1 0,-0.55 1.575,-1 3.5,-1 1.925,0 3.5,-0.45 3.5,-1 0,-0.55 1.125,-1 2.5,-1 1.375,0 2.5,-0.45 2.5,-1 0,-0.55 1.125,-1 2.5,-1 1.375,0 2.5,-0.45 2.5,-1 0,-0.55 1.13111,-1 2.51357,-1 1.38246,0 3.29496,-0.3975 4.25,-0.88333 0.95504,-0.48583 3.08643,-1.43833 4.73643,-2.11667 1.65,-0.67834 3.78139,-1.63084 4.73643,-2.11667 0.95504,-0.48583 2.86754,-0.88333 4.25,-0.88333 1.38246,0 2.51357,-0.45 2.51357,-1 0,-0.55 1.125,-1 2.5,-1 1.375,0 2.5,-0.45 2.5,-1 0,-0.55 1.125,-1 2.5,-1 1.375,0 2.5,-0.45 2.5,-1 0,-0.55 1.575,-1 3.5,-1 1.925,0 3.5,-0.49814 3.5,-1.10699 0,-0.60884 0.67165,-0.84925 1.49256,-0.53424 0.82091,0.31501 2.04512,-0.0188 2.72047,-0.74174 0.67535,-0.72296 2.02323,-1.1065 2.99529,-0.8523 0.97206,0.2542 2.01511,-0.18341 2.3179,-0.97245 0.36505,-0.95132 1.54827,-1.28819 3.51215,-0.99996 1.76925,0.25967 2.96163,-0.0136 2.96163,-0.67882 0,-0.61243 1.125,-1.1135 2.5,-1.1135 1.375,0 2.5,-0.45 2.5,-1 0,-0.55 1.125,-1 2.5,-1 1.375,0 2.5,-0.45 2.5,-1 0,-0.55 1.575,-1 3.5,-1 1.925,0 3.5,-0.45 3.5,-1 0,-0.55 1.125,-1 2.5,-1 1.375,0 2.5,-0.45 2.5,-1 0,-0.55 1.125,-1 2.5,-1 1.375,0 2.5,-0.45 2.5,-1 0,-0.55 1.13111,-1 2.51357,-1 1.38246,0 3.29496,-0.3975 4.25,-0.88333 0.95504,-0.48583 3.08643,-1.43833 4.73643,-2.11667 1.65,-0.67834 3.78139,-1.63084 4.73643,-2.11667 0.95504,-0.48583 2.86754,-0.88333 4.25,-0.88333 1.38246,0 2.51357,-0.45 2.51357,-1 0,-0.55 1.125,-1 2.5,-1 1.375,0 2.5,-0.45 2.5,-1 0,-0.55 1.125,-1 2.5,-1 1.375,0 2.5,-0.43875 2.5,-0.975 0,-0.54888 1.3044,-0.71412 2.9846,-0.37808 2.20802,0.4416 3.14597,0.1764 3.60478,-1.01926 0.34111,-0.88889 1.06595,-1.34068 1.61076,-1.00397 0.89398,0.55251 2.92402,-0.13973 8.03629,-2.74036 0.95504,-0.48583 2.86754,-0.88333 4.25,-0.88333 1.38246,0 2.51357,-0.45 2.51357,-1 0,-0.55 1.125,-1 2.5,-1 1.375,0 2.5,-0.45 2.5,-1 0,-0.55 1.125,-1 2.5,-1 1.375,0 2.5,-0.45 2.5,-1 0,-0.55 1.575,-1 3.5,-1 1.925,0 3.5,-0.45 3.5,-1 0,-0.55 1.125,-1 2.5,-1 1.375,0 2.5,-0.45 2.5,-1 0,-0.55 1.125,-1 2.5,-1 1.375,0 2.5,-0.45 2.5,-1 0,-0.55 1.13111,-1 2.51357,-1 1.38246,0 3.29496,-0.3975 4.25,-0.88333 0.95504,-0.48583 3.08643,-1.43833 4.73643,-2.11667 1.65,-0.67834 3.78139,-1.63084 4.73643,-2.11667 0.95504,-0.48583 2.86754,-0.88333 4.25,-0.88333 1.38246,0 2.51357,-0.45 2.51357,-1 0,-0.55 1.125,-1 2.5,-1 1.375,0 2.5,-0.48032 2.5,-1.06739 0,-0.61318 0.85315,-0.79661 2.00493,-0.43105 1.29322,0.41046 2.20359,0.11863 2.56458,-0.8221 0.34005,-0.88615 1.34489,-1.2531 2.56078,-0.93514 1.10062,0.28782 3.09656,0.0131 4.43542,-0.61051 1.33886,-0.62359 3.67179,-1.63631 5.18429,-2.25048 1.5125,-0.61417 3.53139,-1.51417 4.48643,-2 0.95504,-0.48583 2.86754,-0.88333 4.25,-0.88333 1.38246,0 2.51357,-0.45 2.51357,-1 0,-0.55 1.125,-1 2.5,-1 1.375,0 2.5,-0.45 2.5,-1 0,-0.55 1.125,-1 2.5,-1 1.375,0 2.5,-0.45 2.5,-1 0,-0.55 1.575,-1 3.5,-1 1.925,0 3.5,-0.45 3.5,-1 0,-0.55 1.125,-1 2.5,-1 1.375,0 2.5,-0.45 2.5,-1 0,-0.55 1.125,-1 2.5,-1 1.375,0 2.5,-0.45 2.5,-1 0,-0.55 1.35,-1 3,-1 1.65,0 3,-0.45 3,-1 0,-0.55 0.90611,-1 2.01357,-1 1.10746,0 2.90746,-0.45 4,-1 1.09254,-0.55 2.88032,-1.45 3.97286,-2 1.09254,-0.55 3.11754,-1 4.5,-1 C 733.86889,87 735,86.592129 735,86.09362 c 0,-0.49851 0.89453,-0.672455 1.98785,-0.386547 1.22031,0.31912 2.21053,-0.06047 2.56458,-0.983111 0.33199,-0.865154 1.35016,-1.300691 2.39929,-1.026336 1.00241,0.262136 2.12491,-0.01259 2.49444,-0.610508 C 745.28975,81.72216 754,81.642734 754,83 c 0,0.55 1.09844,1 2.44098,1 1.34254,0 2.73806,0.480678 3.10115,1.068174 0.3631,0.587495 1.27524,0.832148 2.027,0.543674 0.75175,-0.288475 1.63279,-0.09415 1.95786,0.431826 C 763.85207,86.569653 765.44148,87 767.05902,87 768.67656,87 770,87.45 770,88 c 0,0.55 1.125,1 2.5,1 1.375,0 2.5,0.45 2.5,1 0,0.55 1.125,1 2.5,1 1.375,0 2.5,0.45 2.5,1 0,0.55 1.575,1 3.5,1 1.925,0 3.5,0.45 3.5,1 0,0.55 1.125,1 2.5,1 1.375,0 2.5,0.45 2.5,1 0,0.55 1.125,1 2.5,1 1.375,0 2.5,0.45 2.5,1 0,0.55 1.13111,1 2.51357,1 1.38246,0 3.29496,0.397498 4.25,0.883329 0.95504,0.485831 3.08643,1.438331 4.73643,2.116671 1.65,0.67834 3.78139,1.63084 4.73643,2.11667 0.95504,0.48583 2.86754,0.88333 4.25,0.88333 1.38246,0 2.51357,0.45 2.51357,1 0,0.55 0.90611,1 2.01357,1 1.10746,0 2.79496,0.3975 3.75,0.88333 5.25963,2.67559 7.2492,3.32575 8.59586,2.80899 0.82189,-0.31539 2.03728,0.0808 2.70086,0.88032 0.66358,0.79957 1.70898,1.37685 2.32311,1.28284 1.21284,-0.18565 4.10372,0.74979 6.85303,2.21752 0.95504,0.50985 2.86754,0.927 4.25,0.927 1.38246,0 2.51357,0.45 2.51357,1 0,0.55 1.125,1 2.5,1 1.375,0 2.5,0.45 2.5,1 0,0.55 1.125,1 2.5,1 1.375,0 2.5,0.45 2.5,1 0,0.55 1.575,1 3.5,1 1.925,0 3.5,0.45 3.5,1 0,0.55 1.125,1 2.5,1 1.375,0 2.5,0.45 2.5,1 0,0.55 1.125,1 2.5,1 1.375,0 2.5,0.45 2.5,1 0,0.55 1.13111,1 2.51357,1 1.38246,0 3.29496,0.3975 4.25,0.88333 0.95504,0.48583 3.08643,1.43833 4.73643,2.11667 1.65,0.67834 3.78139,1.63084 4.73643,2.11667 C 897.19147,133.6025 898.88507,134 900,134 c 1.11493,0 2.80853,0.3975 3.76357,0.88333 0.95504,0.48583 3.08643,1.44604 4.73643,2.13379 1.65,0.68776 3.93887,1.6769 5.08638,2.19809 1.1475,0.52119 2.7225,0.84 3.5,0.70848 0.77749,-0.13152 2.31362,0.0977 3.41362,0.50927 3.3533,1.2548 6.90862,2.7539 8.73643,3.68371 0.95504,0.48583 2.86754,0.88333 4.25,0.88333 1.38246,0 2.51357,0.45 2.51357,1 0,0.55 1.125,1 2.5,1 1.375,0 2.5,0.45 2.5,1 0,0.55 1.125,1 2.5,1 1.375,0 2.5,0.45 2.5,1 0,0.55 1.575,1 3.5,1 1.925,0 3.5,0.45 3.5,1 0,0.55 1.125,1 2.5,1 1.375,0 2.5,0.45 2.5,1 0,0.55 1.125,1 2.5,1 1.375,0 2.5,0.45 2.5,1 0,0.55 1.13111,1 2.51357,1 1.38246,0 3.29496,0.3975 4.25,0.88333 0.95504,0.48583 3.08643,1.43833 4.73643,2.11667 1.65,0.67834 3.78139,1.63084 4.73643,2.11667 0.95504,0.48583 2.84098,0.88333 4.19098,0.88333 1.35001,0 2.75163,0.48068 3.11472,1.06817 0.3631,0.5875 1.25675,0.83925 1.98591,0.55944 0.72915,-0.2798 1.87217,0.14968 2.54003,0.95441 0.68933,0.83059 2.0179,1.20808 3.07311,0.87317 1.02235,-0.32448 1.85882,-0.10964 1.85882,0.47742 0,0.58707 1.13111,1.06739 2.51357,1.06739 1.38246,0 3.29493,0.3975 4.25003,0.88333 1.7885,0.90983 5.8514,2.64317 10.2364,4.36714 1.375,0.54058 3.2814,1.38037 4.2364,1.8662 0.9551,0.48583 2.8676,0.88333 4.25,0.88333 1.3825,0 2.5136,0.45 2.5136,1 0,0.55 1.125,1 2.5,1 1.375,0 2.5,0.45 2.5,1 0,0.55 1.125,1 2.5,1 1.375,0 2.5,0.45 2.5,1 0,0.55 1.575,1 3.5,1 1.925,0 3.5,0.45 3.5,1 0,0.55 1.125,1 2.5,1 1.375,0 2.5,0.45 2.5,1 0,0.55 1.125,1 2.5,1 1.375,0 2.5,0.45 2.5,1 0,0.55 1.3234,1 2.941,1 1.6175,0 3.2433,0.4892 3.6128,1.08712 0.3696,0.59791 1.4921,0.87264 2.4945,0.61051 1.0491,-0.27436 2.0673,0.16118 2.3993,1.02633 0.354,0.92264 1.3442,1.30223 2.5646,0.98311 1.0933,-0.28591 1.9878,-0.11196 1.9878,0.38655 0,0.49851 1.3234,0.90638 2.941,0.90638 1.6175,0 3.2191,0.45 3.559,1 0.3399,0.55 1.7165,1 3.059,1 1.3426,0 2.441,0.45 2.441,1 0,0.55 1.125,1 2.5,1 1.375,0 2.5,0.45 2.5,1 0,0.55 1.35,1 3,1 1.65,0 3,0.45 3,1 0,0.55 1.125,1 2.5,1 1.375,0 2.5,0.45 2.5,1 0,0.55 1.125,1 2.5,1 1.375,0 2.5,0.45 2.5,1 0,0.55 1.575,1 3.5,1 1.925,0 3.5,0.45 3.5,1 0,0.55 1.125,1 2.5,1 1.375,0 2.5,0.45 2.5,1 0,0.55 1.125,1 2.5,1 1.375,0 2.5,0.45 2.5,1 0,0.55 1.575,1 3.5,1 1.925,0 3.5,0.45 3.5,1 0,0.55 1.125,1 2.5,1 1.375,0 2.5,0.45 2.5,1 0,0.55 0.8734,1 1.941,1 1.0675,0 2.2458,0.49325 2.6184,1.09612 0.3726,0.60286 1.9569,0.90833 3.5207,0.67882 1.8162,-0.26657 3.0358,0.0848 3.3766,0.97284 0.3368,0.87766 1.2726,1.15554 2.5384,0.75378 1.1518,-0.36556 2.0049,-0.18213 2.0049,0.43105 0,0.58707 1.125,1.06739 2.5,1.06739 1.375,0 2.5,0.45 2.5,1 0,0.55 1.1311,1 2.5136,1 1.3824,0 3.2949,0.3975 4.25,0.88333 0.955,0.48583 3.0864,1.43833 4.7364,2.11667 1.65,0.67834 3.7814,1.63084 4.7364,2.11667 0.9551,0.48583 2.8676,0.88333 4.25,0.88333 1.3825,0 2.5136,0.45 2.5136,1 0,0.55 1.125,1 2.5,1 1.375,0 2.5,0.45 2.5,1 0,0.55 1.125,1 2.5,1 1.375,0 2.5,0.45 2.5,1 0,0.55 1.575,1 3.5,1 1.925,0 3.5,0.45 3.5,1 0,0.55 1.125,1 2.5,1 1.375,0 2.5,0.45 2.5,1 0,0.55 1.125,1 2.5,1 1.375,0 2.5,0.45 2.5,1 0,0.55 1.3234,1 2.941,1 1.6175,0 3.2433,0.4892 3.6128,1.08712 0.3696,0.59791 1.4921,0.87264 2.4945,0.61051 1.0491,-0.27436 2.0673,0.16118 2.3993,1.02633 0.3237,0.84357 1.3521,1.30018 2.3441,1.04077 0.972,-0.2542 2.3679,0.18066 3.1018,0.96635 0.8172,0.87483 2.2593,1.19641 3.7205,0.82967 1.3455,-0.33771 2.386,-0.15447 2.386,0.4202 0,0.56048 1.125,1.01905 2.5,1.01905 1.375,0 2.5,0.45 2.5,1 0,0.55 1.125,1 2.5,1 1.375,0 2.5,0.45 2.5,1 0,0.55 1.1311,1 2.5136,1 1.3824,0 3.2949,0.3975 4.25,0.88333 0.955,0.48583 3.0864,1.43833 4.7364,2.11667 1.65,0.67834 3.7814,1.63084 4.7364,2.11667 0.9551,0.48583 2.8676,0.88333 4.25,0.88333 1.3825,0 2.5136,0.45 2.5136,1 0,0.55 1.35,1 3,1 h 3 v 13.39301 c 0,10.38944 -0.3059,13.51041 -1.3641,13.91647 -1.0878,0.41742 -1.5126,6.66838 -2.0972,30.85699 -0.4032,16.68344 -1.1393,30.48353 -1.6359,30.66686 -0.4965,0.18334 -0.9028,5.89428 -0.9028,12.69099 0,6.7967 -0.3998,12.60471 -0.8884,12.90668 -0.4885,0.30197 -1.2188,10.68614 -1.6228,23.07593 -0.404,12.38979 -1.1292,22.77084 -1.6117,23.069 -0.4824,0.29816 -0.8771,4.79055 -0.8771,9.98309 0,5.19254 -0.3985,9.44098 -0.8855,9.44098 -0.487,0 -1.2137,7.65544 -1.615,17.01209 -0.4013,9.35665 -1.1278,17.25821 -1.6146,17.55902 -0.4867,0.30081 -0.8849,4.34537 -0.8849,8.98791 0,4.64254 -0.399,8.44098 -0.8868,8.44098 -0.4877,0 -1.2139,6.75508 -1.6137,15.0113 -0.3999,8.25621 -1.1258,15.25777 -1.6133,15.55901 -0.4874,0.30125 -0.8862,3.41961 -0.8862,6.92969 0,3.51008 -0.48,6.67862 -1.0666,7.04119 -0.6081,0.37577 -0.9633,3.1929 -0.8262,6.55184 0.1323,3.24093 -0.063,6.19584 -0.4334,6.56646 -0.3706,0.37061 -0.6738,3.52384 -0.6738,7.00718 0,3.55555 -0.4386,6.33333 -1,6.33333 -0.5517,0 -1,2.6 -1,5.8 0,3.19 -0.4986,6.2986 -1.108,6.90801 -0.6109,0.61089 -0.9442,3.16825 -0.7428,5.7 0.2009,2.52559 0.024,4.59199 -0.392,4.59199 -0.4165,0 -0.7572,2.7 -0.7572,6 0,3.33333 -0.4444,6 -1,6 -0.55,0 -1,2.44844 -1,5.44098 0,2.99254 -0.4809,5.73822 -1.0688,6.10151 -0.5878,0.36329 -0.9523,2.85435 -0.8099,5.53568 0.1423,2.68134 -0.052,5.18566 -0.4313,5.56516 -0.3795,0.3795 -0.69,2.61345 -0.69,4.96432 0,2.35087 -0.45,4.55243 -1,4.89235 -0.55,0.33992 -1,3.03992 -1,6 0,2.96008 -0.4811,5.67931 -1.0691,6.04272 -0.588,0.36342 -0.9439,2.3958 -0.7908,4.51642 0.1532,2.12062 -0.041,4.17483 -0.4308,4.56493 -0.3901,0.39009 -0.7093,2.56926 -0.7093,4.8426 0,2.27333 -0.4064,4.56083 -0.903,5.08333 -0.9835,1.03458 -2.0643,8.77784 -2.0405,14.6189 0.01,2.0179 -0.4511,3.95696 -1.0208,4.30902 -0.5696,0.35206 -1.0357,2.162 -1.0357,4.02208 0,1.86008 -0.391,3.62364 -0.869,3.91901 -0.4779,0.29538 -1.1831,4.13907 -1.5672,8.54153 -0.384,4.40247 -1.118,8.26391 -1.631,8.58099 -0.513,0.31708 -0.9328,2.54839 -0.9328,4.95847 0,2.41008 -0.4042,4.63174 -0.8981,4.93703 -0.494,0.30528 -1.2148,3.70862 -1.6019,7.56297 -0.3871,3.85435 -1.1079,7.25769 -1.6019,7.56297 -0.4939,0.30529 -0.8981,2.07695 -0.8981,3.93703 0,1.86008 -0.4119,3.63653 -0.9153,3.94766 -0.5034,0.31113 -1.2313,3.93768 -1.6175,8.05901 -0.3862,4.12133 -1.0993,7.49333 -1.5847,7.49333 -0.4854,0 -0.8825,1.8 -0.8825,4 0,2.2 -0.4116,4 -0.9147,4 -0.5031,0 -1.2309,3.375 -1.6175,7.5 -0.3865,4.125 -1.0999,7.5 -1.5853,7.5 -0.4854,0 -0.8825,1.35 -0.8825,3 0,1.65 -0.3859,3 -0.8575,3 -0.4717,0 -1.1511,2.8125 -1.5099,6.25 -0.3587,3.4375 -1.0978,6.4 -1.6424,6.58333 -0.5446,0.18334 -0.9902,2.06928 -0.9902,4.19099 0,2.1217 -0.4292,4.12291 -0.9538,4.44712 -0.5246,0.32421 -1.2588,3.28584 -1.6317,6.58139 -0.3728,3.29556 -1.0686,6.23341 -1.5462,6.52856 -0.4776,0.29516 -0.8683,1.60853 -0.8683,2.91861 0,1.31008 -0.4185,2.64062 -0.93,2.95675 -0.5115,0.31612 -1.2384,3.04268 -1.6152,6.05901 -0.3769,3.01633 -1.0834,5.48424 -1.57,5.48424 -0.4867,0 -0.8848,1.35 -0.8848,3 0,1.65 -0.5025,3 -1.1166,3 -0.6546,0 -0.9169,1.04422 -0.6341,2.52387 0.2654,1.38812 0.093,2.76468 -0.3834,3.05901 -0.4762,0.29434 -0.8659,1.6336 -0.8659,2.97614 0,1.34254 -0.45,2.44098 -1,2.44098 -0.55,0 -1,1.77344 -1,3.94098 0,2.16754 -0.4573,4.22364 -1.0163,4.5691 -0.559,0.34546 -0.7766,1.01593 -0.4837,1.48992 0.2929,0.47399 0.075,1.14446 -0.4837,1.48992 -0.559,0.34546 -1.0163,1.7 -1.0163,3.01008 0,1.31008 -0.45,2.66008 -1,3 -0.55,0.33992 -1,1.68992 -1,3 0,1.31008 -0.4865,2.68262 -1.081,3.05008 -0.5946,0.36746 -0.811,1.74402 -0.481,3.05901 0.3388,1.34965 0.1563,2.39091 -0.4189,2.39091 -0.5605,0 -1.0191,1.35 -1.0191,3 0,1.65 -0.45,3 -1,3 -0.55,0 -1,1.32344 -1,2.94098 0,1.61754 -0.4573,3.22364 -1.0163,3.5691 -0.559,0.34546 -0.7766,1.01593 -0.4837,1.48992 0.2929,0.47399 0.075,1.14446 -0.4837,1.48992 -0.559,0.34546 -1.0163,1.7 -1.0163,3.01008 0,1.31008 -0.45,2.66008 -1,3 -0.55,0.33992 -1,1.68992 -1,3 0,1.31008 -0.4303,2.64793 -0.9563,2.97301 -0.526,0.32507 -0.7029,1.25163 -0.393,2.05902 0.3098,0.80738 0.065,1.46797 -0.5437,1.46797 -0.6089,0 -1.107,1.35 -1.107,3 0,1.65 -0.45,3 -1,3 -0.55,0 -1,0.87344 -1,1.94098 0,1.06754 -0.4683,2.23041 -1.0407,2.58416 -0.5723,0.35375 -0.767,1.5053 -0.4326,2.55902 0.3399,1.07098 0.1374,1.91584 -0.4593,1.91584 -0.5871,0 -1.0674,0.87344 -1.0674,1.94098 0,1.06754 -0.3981,2.18701 -0.8846,2.48771 -0.4865,0.30069 -1.1891,2.57725 -1.5613,5.05901 -0.3721,2.48177 -1.0991,4.5123 -1.6154,4.5123 -0.5163,0 -0.9387,1.35 -0.9387,3 0,1.65 -0.3999,3 -0.8887,3 -0.4888,0 -1.1842,1.575 -1.5453,3.5 -0.3612,1.925 -1.0862,3.5 -1.6113,3.5 -0.5251,0 -0.9547,0.87344 -0.9547,1.94098 0,1.06754 -0.3981,2.18701 -0.8846,2.48771 -0.4865,0.30069 -1.1891,2.57725 -1.5613,5.05901 -0.3721,2.48177 -1.0991,4.5123 -1.6154,4.5123 -0.5163,0 -0.9387,0.9 -0.9387,2 0,1.1 -0.3907,2 -0.8683,2 -0.4776,0 -1.1236,1.90282 -1.4355,4.2285 -0.312,2.32567 -1.0462,4.38817 -1.6317,4.58333 -0.5855,0.19516 -1.0645,0.9409 -1.0645,1.6572 0,0.71629 -0.6722,2.59129 -1.4938,4.16666 -0.8217,1.57537 -1.4967,3.65181 -1.5,4.61431 0,0.9625 -0.4562,1.75 -1.0062,1.75 -0.55,0 -1,0.9 -1,2 0,1.1 -0.45,2 -1,2 -0.55,0 -1.0019,0.7875 -1.0042,1.75 0,0.9625 -1.0873,3.8847 -2.411,6.4938 -1.3238,2.6091 -2.6979,6.4659 -3.0535,8.5708 -0.3556,2.1048 -1.5206,4.4569 -2.5889,5.2269 -1.0683,0.77 -1.9443,2.0882 -1.9466,2.9293 0,0.841 -1.118,3.7247 -2.4794,6.408 -1.3614,2.6834 -2.2329,5.2709 -1.9368,5.75 0.2961,0.4792 0.062,0.8712 -0.5206,0.8712 -0.5824,0 -1.059,0.9 -1.059,2 0,1.1 -0.45,2 -1,2 -0.55,0 -1,0.8734 -1,1.941 0,1.0675 -0.4573,2.2236 -1.0163,2.5691 -0.559,0.3454 -0.7995,0.9789 -0.5346,1.4076 0.265,0.4287 -0.4027,1.7287 -1.4837,2.889 -1.081,1.1603 -1.9654,2.7285 -1.9654,3.4848 0,0.7564 -0.3375,1.7127 -0.75,2.1252 -0.4125,0.4125 -0.7877,1.05 -0.8338,1.4166 -0.2338,1.8601 -2.3901,5.9001 -3.7526,7.0309 -0.8496,0.7051 -1.2983,1.9241 -0.9972,2.7089 0.3012,0.7848 0.049,1.4269 -0.5594,1.4269 -0.6089,0 -1.107,0.8303 -1.107,1.845 0,1.0148 -0.8894,2.6499 -1.9764,3.6337 -1.087,0.9837 -1.7547,2.1474 -1.4837,2.5858 0.271,0.4385 0.035,1.08 -0.5236,1.4254 -0.559,0.3455 -1.0163,1.4641 -1.0163,2.4858 0,1.0217 -0.3375,2.0076 -0.75,2.191 -0.4125,0.1833 -1.789,2.4606 -3.0588,5.0606 -1.2699,2.6001 -2.7324,4.9891 -3.25,5.3091 -0.5177,0.3199 -0.9412,1.4551 -0.9412,2.5226 0,1.0676 -0.45,1.941 -1,1.941 -0.55,0 -1,0.8734 -1,1.941 0,1.0675 -0.438,2.2116 -0.9732,2.5425 -0.5353,0.3308 -1.7116,2.1573 -2.614,4.059 -0.9024,1.9016 -2.0394,3.4575 -2.5267,3.4575 -0.4874,0 -0.8861,0.8449 -0.8861,1.8776 0,1.0326 -0.675,2.4377 -1.5,3.1224 -0.825,0.6847 -1.5,1.8097 -1.5,2.5 0,0.6903 -0.675,1.8153 -1.5,2.5 -0.825,0.6847 -1.5,1.9904 -1.5,2.9017 0,0.9112 -0.9,2.3055 -2,3.0983 -1.1,0.7928 -2,2.1343 -2,2.981 0,0.8467 -1.125,2.7527 -2.5,4.2356 -1.375,1.4829 -2.5,3.3357 -2.5,4.1173 0,0.7817 -0.675,1.9814 -1.5,2.6661 -0.825,0.6847 -1.5,1.7569 -1.5,2.3827 0,0.6257 -1.125,2.351 -2.5,3.8339 -1.375,1.4829 -2.5,3.2829 -2.5,4 0,0.7171 -1.125,2.5171 -2.5,4 -1.375,1.4829 -2.5,3.3123 -2.5,4.0654 0,0.7532 -1.125,2.4263 -2.5,3.718 -1.375,1.2917 -2.5,2.8763 -2.5,3.5213 0,0.645 -0.9273,2.254 -2.0606,3.5757 -1.1333,1.3216 -2.9333,3.4189 -4,4.6606 -1.0667,1.2417 -1.9433,2.8167 -1.9481,3.5 0,0.6833 -1.5797,2.8999 -3.5,4.9256 -1.9202,2.0258 -3.4913,4.1989 -3.4913,4.829 0,0.6301 -2.25,3.7326 -5,6.8943 -2.75,3.1618 -5,6.1895 -5,6.7283 0,1.0906 -3.2442,5.1998 -10,12.6666 -2.475,2.7354 -4.95,5.9813 -5.5,7.213 -0.8686,1.9452 -3.17544,4.8314 -11.86165,14.8404 -1.0239,1.1799 -3.44061,4.0577 -5.37046,6.3952 -1.92985,2.3375 -3.96432,4.25 -4.52106,4.25 -0.55673,0 -1.74002,0.8528 -2.62953,1.8952 -14.76504,17.3018 -15.03992,17.6048 -15.96881,17.6048 -0.47202,0 -3.45121,3.0375 -6.62044,6.75 -3.16923,3.7125 -6.38454,6.75 -7.14514,6.75 -0.7606,0 -1.3901,0.3375 -1.39888,0.75 -0.0223,1.0479 -5.58228,7.25 -6.49937,7.25 -0.41358,0 -1.81531,1.2375 -3.11497,2.75 -1.29965,1.5125 -2.72948,2.75 -3.17739,2.75 -0.44792,0 -2.29604,1.6875 -4.10694,3.75 -1.8109,2.0625 -3.80843,3.7513 -4.43895,3.7529 -0.63053,0 -2.04641,1.3503 -3.14641,2.9971 -1.1,1.6468 -2.67925,2.9955 -3.50945,2.9971 -0.8302,0 -2.07152,0.9029 -2.75848,2.0029 -0.68696,1.1 -1.81196,2 -2.5,2 -0.68804,0 -1.81304,0.9 -2.5,2 -0.68696,1.1 -1.81196,2 -2.5,2 -0.68804,0 -1.81304,0.9 -2.5,2 -0.68696,1.1 -1.87206,2 -2.63356,2 -0.76149,0 -1.64355,0.675 -1.96014,1.5 -0.31658,0.825 -1.1801,1.5 -1.91893,1.5 -0.73883,0 -2.34142,1.35 -3.56132,3 -1.2199,1.65 -2.77128,3 -3.44751,3 -0.67623,0 -1.79158,0.9 -2.47854,2 -0.68696,1.1 -1.9202,2 -2.74054,2 -0.82034,0 -1.49153,0.3401 -1.49153,0.7559 0,0.4157 -1.4625,1.3956 -3.25,2.1775 -1.7875,0.7819 -3.83802,2.2417 -4.5567,3.2441 -0.71869,1.0024 -1.95619,1.8225 -2.75,1.8225 -0.79382,0 -1.4433,0.45 -1.4433,1 0,0.55 -0.50972,1 -1.1327,1 -0.62299,0 -1.86049,0.8356 -2.75,1.857 -0.88952,1.0213 -2.7423,2.2108 -4.1173,2.6434 -1.375,0.4326 -3.08802,1.622 -3.8067,2.6431 -0.71869,1.0211 -1.95619,1.8565 -2.75,1.8565 -0.79382,0 -1.4433,0.366 -1.4433,0.8134 0,0.4473 -1.575,1.4313 -3.5,2.1866 -1.925,0.7553 -3.5,1.7393 -3.5,2.1866 0,0.4474 -0.675,0.8134 -1.5,0.8134 -0.825,0 -1.5,0.366 -1.5,0.8134 0,0.4473 -1.575,1.4313 -3.5,2.1866 -1.925,0.7553 -3.5,1.7393 -3.5,2.1866 0,0.4474 -0.675,0.8134 -1.5,0.8134 -0.825,0 -1.5,0.45 -1.5,1 0,0.55 -0.9,1 -2,1 -1.1,0 -2,0.45 -2,1 0,0.55 -0.675,1 -1.5,1 -0.825,0 -1.5,0.366 -1.5,0.8134 0,0.4473 -1.575,1.4313 -3.5,2.1866 -1.925,0.7553 -3.5,1.7659 -3.5,2.2457 0,0.4798 -0.45318,0.5923 -1.00706,0.2499 -0.55389,-0.3423 -1.26613,0.053 -1.58276,0.8779 -0.31663,0.8251 -1.21346,1.2555 -1.99294,0.9564 -0.77948,-0.2991 -1.41724,-0.046 -1.41724,0.5631 0,0.6089 -1.125,1.107 -2.5,1.107 -1.375,0 -2.5,0.45 -2.5,1 0,0.55 -0.675,1 -1.5,1 -0.825,0 -1.5,0.45 -1.5,1 0,0.55 -0.9,1 -2,1 -1.1,0 -2,0.45 -2,1 0,0.55 -1.125,1 -2.5,1 -1.375,0 -2.5,0.45 -2.5,1 0,0.55 -0.675,1 -1.5,1 -0.825,0 -1.5,0.366 -1.5,0.8134 0,0.4473 -1.575,1.4313 -3.5,2.1866 -1.925,0.7553 -3.5,1.7393 -3.5,2.1866 0,0.4474 -1.125,0.8134 -2.5,0.8134 -1.375,0 -2.5,0.45 -2.5,1 0,0.55 -1.125,1 -2.5,1 -1.375,0 -2.5,0.45 -2.5,1 0,0.55 -0.675,1 -1.5,1 -0.825,0 -1.5,0.45 -1.5,1 0,0.55 -1.125,1 -2.5,1 -1.375,0 -2.5,0.45 -2.5,1 0,0.55 -1.125,1 -2.5,1 -1.375,0 -2.5,0.4766 -2.5,1.059 0,0.5825 -0.41891,0.8001 -0.9309,0.4837 -0.512,-0.3164 -1.21356,-0.118 -1.55902,0.441 -0.34546,0.559 -1.72656,1.0163 -3.0691,1.0163 -1.34254,0 -2.44098,0.45 -2.44098,1 0,0.55 -1.125,1 -2.5,1 -1.55556,0 -2.5,0.5667 -2.5,1.5 0,1.1111 -1.16667,1.5 -4.5,1.5 -3.33333,0 -4.5,-0.3889 -4.5,-1.5 z m 24.75937,-18.3149 c 8.65735,-3.6964 17.76563,-7.9125 20.24063,-9.3691 2.475,-1.4567 9.45,-5.0149 15.5,-7.9071 17.27072,-8.2565 56.3357,-32.0107 64.5,-39.2204 0.825,-0.7285 3.68332,-2.5773 6.35183,-4.1084 2.66851,-1.5311 5.59351,-3.4359 6.5,-4.233 0.90649,-0.7971 3.84513,-3.4399 6.5303,-5.8728 2.68517,-2.4329 5.72267,-4.6902 6.75,-5.0162 1.02733,-0.3261 1.86787,-0.9368 1.86787,-1.3571 0,-0.4203 2.18504,-2.18 4.85563,-3.9105 2.6706,-1.7305 7.2831,-5.3599 10.25,-8.0654 2.96691,-2.7055 6.96937,-6.3295 8.89437,-8.0533 1.925,-1.7239 7.05053,-6.4952 11.39007,-10.603 4.33954,-4.1079 8.22193,-7.4688 8.62752,-7.4688 0.4056,0 2.86206,-2.5875 5.4588,-5.75 2.59673,-3.1625 5.53899,-6.2 6.53834,-6.75 0.99936,-0.55 5.27686,-5.05 9.50557,-10 4.2287,-4.95 8.47289,-9.45 9.43152,-10 2.3473,-1.3467 17.74698,-19.2556 19.71347,-22.9255 0.86218,-1.6091 4.39611,-6.1688 7.85321,-10.1327 3.457,-3.9639 6.8357,-8.2351 7.5082,-9.4916 0.6724,-1.2565 3.079,-4.6154 5.3479,-7.4642 2.269,-2.8489 4.9134,-6.4862 5.8765,-8.0829 2.3899,-3.962 6.0128,-9.116 9.7729,-13.9031 2.9777,-3.7909 6.3366,-8.9671 11.976,-18.4559 1.375,-2.3135 3.451,-5.4074 4.6133,-6.8752 1.1624,-1.4679 3.1273,-4.6939 4.3666,-7.1689 1.2392,-2.475 2.9882,-5.3197 3.8866,-6.3216 6.1596,-6.8689 37.3621,-66.4359 51.6715,-98.6431 2.5571,-5.7556 5.2822,-11.3682 6.0557,-12.4725 0.7735,-1.1043 1.4063,-2.7977 1.4063,-3.7632 0,-0.9654 1.0829,-4.1278 2.4065,-7.0274 8.2618,-18.09964 12.6256,-28.50009 12.6106,-30.05544 -0.01,-0.98079 1.1079,-4.00333 2.4829,-6.71676 1.375,-2.71343 2.5,-5.6414 2.5,-6.50659 0,-0.8652 0.8883,-3.31423 1.9739,-5.4423 1.9903,-3.90122 6.4526,-16.0004 7.9484,-21.55111 0.4446,-1.65 1.5173,-4.575 2.3837,-6.5 0.8664,-1.925 2.4702,-6.425 3.564,-10 1.0938,-3.575 2.4614,-7.85 3.0391,-9.5 0.5777,-1.65 2.0005,-5.7 3.1616,-9 1.1612,-3.3 2.4846,-7.575 2.9408,-9.5 0.4563,-1.925 1.5715,-5.975 2.4784,-9 0.9069,-3.025 2.0138,-6.85 2.4599,-8.5 0.4461,-1.65 1.7293,-5.925 2.8516,-9.5 1.8217,-5.80287 3.0101,-9.99669 6.2339,-22 1.7232,-6.41592 3.7474,-13.44327 5.4731,-19 0.9394,-3.025 2.3502,-8.425 3.1351,-12 0.7848,-3.575 1.8478,-8.075 2.3622,-10 0.5143,-1.925 1.4376,-5.975 2.0518,-9 0.6141,-3.025 1.9834,-8.425 3.0429,-12 1.0594,-3.575 2.347,-8.975 2.8613,-12 0.5143,-3.025 1.4373,-7.525 2.0511,-10 0.6139,-2.475 1.74,-7.65 2.5025,-11.5 0.7625,-3.85 1.8875,-9.025 2.5,-11.5 1.1418,-4.61389 3.4632,-15.9959 4.895,-24 0.4427,-2.475 1.0852,-5.175 1.4277,-6 0.3426,-0.825 1.0536,-4.65 1.58,-8.5 0.5264,-3.85 1.4692,-9.025 2.0951,-11.5 0.6259,-2.475 1.7617,-8.55 2.5239,-13.5 2.138,-13.88419 2.4735,-15.74322 3.5192,-19.5 0.5358,-1.925 1.3994,-7.325 1.9191,-12 0.5197,-4.675 1.403,-10.975 1.9629,-14 0.5599,-3.025 1.2288,-7.525 1.4864,-10 0.2577,-2.475 0.929,-7.425 1.4919,-11 0.5629,-3.575 1.7255,-11.675 2.5835,-18 0.858,-6.325 2.0114,-14.425 2.5631,-18 0.5518,-3.575 1.6772,-12.35 2.501,-19.5 0.8238,-7.15 1.9437,-16.15 2.4887,-20 0.5449,-3.85 1.6698,-13.75 2.4998,-22 0.8299,-8.25 1.9346,-18.825 2.4548,-23.5 0.5202,-4.675 1.645,-16.375 2.4995,-26 0.8545,-9.625 1.9948,-22 2.5341,-27.5 0.5393,-5.5 1.6658,-20.35 2.5034,-33 0.8376,-12.65 1.9547,-28.4 2.4825,-35 0.5277,-6.6 1.4229,-25.275 1.9893,-41.5 0.6124,-17.54236 1.5025,-30.71603 2.196,-32.5 0.6414,-1.65 1.1936,-5.84486 1.227,-9.32192 l 0.061,-6.32192 -5,-1.82406 c -2.75,-1.00324 -7.25,-2.61343 -10,-3.5782 -2.75,-0.96477 -8.375,-2.9721 -12.5,-4.46074 -4.125,-1.48864 -11.55,-3.95387 -16.5,-5.4783 -4.95,-1.52443 -12.4875,-4.0639 -16.75,-5.64327 -15.1271,-5.60501 -23.3106,-8.59243 -28,-10.22148 -2.6125,-0.90756 -6.8875,-2.39379 -9.5,-3.30273 -2.6125,-0.90894 -7.5672,-2.70894 -11.0105,-4 -3.4433,-1.29106 -7.0433,-2.34496 -8,-2.342 -0.9567,0.003 -5.1145,-1.2795 -9.2395,-2.84989 -4.125,-1.5704 -9.75,-3.64078 -12.5,-4.60085 -2.75,-0.96007 -8.375,-3.00966 -12.5,-4.55464 -4.125,-1.54498 -9.75,-3.59457 -12.5,-4.55464 -2.75,-0.96007 -8.375,-2.97747 -12.5,-4.4831 -4.125,-1.50563 -11.55,-3.97031 -16.5,-5.47707 -4.95,-1.50676 -12.375,-4.03475 -16.5,-5.61775 -4.125,-1.58301 -7.95,-2.87335 -8.5,-2.86744 -0.55,0.006 -4.375,-1.2969 -8.5,-2.89515 -19.9531,-7.73092 -29.23818,-11.10293 -37.5,-13.61869 -4.95,-1.50729 -12.375,-3.96575 -16.5,-5.46323 -4.125,-1.49749 -9.6375,-3.46526 -12.25,-4.37282 -2.6125,-0.90756 -6.8875,-2.39266 -9.5,-3.30022 -7.07566,-2.45803 -18.84461,-6.80297 -26.75,-9.87574 -3.85,-1.49647 -9.25,-3.28642 -12,-3.97767 -4.9127,-1.23487 -7.49869,-2.09646 -22.5,-7.49648 -4.125,-1.48488 -9.6375,-3.44233 -12.25,-4.34989 -2.6125,-0.90756 -6.8875,-2.39266 -9.5,-3.30022 -6.49866,-2.25758 -18.37063,-6.62491 -26.51052,-9.75239 -3.71829,-1.42862 -7.54329,-2.59508 -8.5,-2.59212 -0.95671,0.003 -5.11448,-1.2795 -9.23948,-2.84989 -6.97676,-2.65607 -10.27868,-3.8415 -22,-7.89826 -5.54609,-1.91951 -17.45345,-6.29287 -27.75,-10.19209 -4.2625,-1.614171 -9.29688,-3.243458 -11.1875,-3.620636 -1.89063,-0.377178 -5.23272,-1.448209 -7.42687,-2.380068 -4.36866,-1.855373 -5.86678,-1.521239 -26.63563,5.940704 -4.125,1.48205 -9.75,3.48015 -12.5,4.44022 -2.75,0.96007 -8.375,3.00966 -12.5,4.55464 -4.125,1.54498 -9.75,3.59457 -12.5,4.55464 -2.75,0.96007 -8.375,3.03045 -12.5,4.60085 -4.125,1.57039 -8.28277,2.85284 -9.23948,2.84989 -0.95671,-0.003 -4.55671,1.05094 -8,2.342 -3.44329,1.29106 -8.51052,3.13403 -11.26052,4.09547 -2.75,0.96145 -8.6,3.09052 -13,4.73126 -4.4,1.64075 -10.475,3.79873 -13.5,4.79553 -3.025,0.99679 -8.425,2.91772 -12,4.26874 -11.08946,4.19077 -16.31437,5.95463 -21.5,7.2581 -2.75,0.69125 -7.925,2.36865 -11.5,3.72755 -3.575,1.35891 -8.75,3.25738 -11.5,4.21882 -2.75,0.96145 -8.375,3.01217 -12.5,4.55715 -4.125,1.54498 -9.75,3.59457 -12.5,4.55464 -2.75,0.96007 -8.375,3.03045 -12.5,4.60085 -4.125,1.57039 -8.16545,2.85284 -8.97879,2.84989 -0.81333,-0.003 -4.41333,1.04816 -8,2.33582 -6.3027,2.26275 -10.74291,3.82516 -20.77121,7.30891 -2.6125,0.90756 -8.2375,2.93256 -12.5,4.5 -4.2625,1.56744 -11.2375,4.13234 -15.5,5.69978 -13.19138,4.85083 -17.6048,6.32861 -21.75,7.2827 -2.2,0.50637 -7.375,2.19114 -11.5,3.74393 -4.125,1.55279 -9.6375,3.56581 -12.25,4.47337 -2.6125,0.90756 -6.8875,2.39379 -9.5,3.30273 -2.6125,0.90894 -7.675,2.76832 -11.25,4.13196 -14.30425,5.45618 -28.69486,10.45023 -32.1687,11.16367 -2.01778,0.41441 -6.06778,1.67587 -9,2.80325 -7.24399,2.78517 -20.2996,7.58987 -26.0813,9.59839 -2.6125,0.90756 -6.8875,2.39266 -9.5,3.30022 -2.6125,0.90756 -8.125,2.86501 -12.25,4.34989 -14.9453,5.37986 -17.58287,6.26081 -22.5,7.51499 -2.75,0.70143 -7.60033,2.4475 -10.77851,3.88017 C 270.5433,259.82782 267.3427,261 266.60902,261 c -0.73367,0 -4.60773,1.35 -8.60902,3 -4.00129,1.65 -8.13754,3 -9.19165,3 -1.81978,0 -1.88904,0.66924 -1.3713,13.25 0.65405,15.89288 2.17605,44.47936 3.50067,65.75 0.53089,8.525 1.41591,24.5 1.96671,35.5 0.5508,11 1.27165,22.025 1.60189,24.5 0.33024,2.475 1.01233,9.675 1.51575,16 2.13773,26.85837 4.02273,48.02608 4.9423,55.5 0.54136,4.4 1.65934,15.2 2.48439,24 0.82505,8.8 1.94909,19.375 2.49788,23.5 0.54878,4.125 1.66662,13.35 2.48408,20.5 1.41356,12.36382 3.49385,28.26657 5.55956,42.5 0.51884,3.575 1.61603,11.225 2.43818,17 0.82216,5.775 1.98004,12.975 2.57307,16 0.59303,3.025 1.50345,9.325 2.02316,14 0.5197,4.675 1.3833,10.075 1.91912,12 1.09091,3.91925 1.6911,7.30966 3.09795,17.5 0.53152,3.85 1.41456,8.03367 1.96232,9.29705 0.54776,1.26338 0.99592,3.48143 0.99592,4.92901 0,1.44757 0.42571,4.01389 0.94603,5.70294 0.52031,1.68905 1.38781,5.996 1.92778,9.571 0.53997,3.575 1.49595,8.525 2.12439,11 0.62845,2.475 1.76038,8.1 2.5154,12.5 0.75503,4.4 1.83248,9.8 2.39433,12 0.56186,2.2 1.73615,7.15 2.60952,11 0.87338,3.85 2.03972,8.8 2.59186,11 0.55214,2.2 1.43605,6.68914 1.96424,9.97588 0.91193,5.67457 2.10818,10.19515 4.05434,15.32117 0.47966,1.26338 0.87211,3.34921 0.87211,4.63517 0,1.28596 0.71004,4.75229 1.57787,7.70295 0.86783,2.95065 1.97139,6.93983 2.45236,8.86483 0.48097,1.925 1.60227,6.2 2.49178,9.5 0.88951,3.3 2.00904,7.575 2.48786,9.5 0.47881,1.925 1.57802,5.975 2.44269,9 0.86467,3.025 1.98907,7.075 2.49865,9 1.48294,5.60186 5.90367,20.49362 10.09317,34 2.13253,6.875 4.18038,14.07484 4.55076,15.99966 0.37039,1.92481 1.45649,5.29981 2.41355,7.5 2.01811,4.63942 3.36119,8.47917 6.12132,17.50034 1.09382,3.575 2.69762,8.075 3.56401,10 0.86639,1.925 1.93905,4.85 2.38367,6.5 1.49577,5.55071 5.95813,17.64989 7.94839,21.55111 1.08565,2.12807 1.97392,4.41881 1.97392,5.09053 0,2.04998 7.87887,21.45287 22.65254,55.78526 2.9411,6.8348 5.34746,12.8744 5.34746,13.4213 0,0.5469 0.62651,1.7048 1.39224,2.5731 0.76574,0.8683 3.0587,5.4037 5.09547,10.0787 2.03678,4.675 4.1042,9.175 4.59427,10 0.77607,1.3065 3.3431,6.2551 12.19036,23.5 1.12868,2.2 2.44004,4.675 2.91415,5.5 0.4741,0.825 1.96911,3.75 3.32224,6.5 1.35313,2.75 4.6787,8.825 7.39017,13.5 2.71147,4.675 7.03873,12.292 9.61613,16.9266 2.5774,4.6346 5.48029,9.5846 6.45087,11 5.13013,7.4812 9.91004,14.8543 13.0341,20.1054 1.925,3.2357 5.65196,8.9396 8.28213,12.6755 2.63017,3.7359 5.86074,8.3675 7.17905,10.2925 1.3183,1.925 3.48713,4.85 4.8196,6.5 1.33248,1.65 3.01532,4.125 3.73966,5.5 0.72435,1.375 3.94107,5.5491 7.14827,9.2757 3.20721,3.7266 5.83129,7.2165 5.83129,7.7553 0,0.5388 4.36704,6.0398 9.70453,12.2243 5.3375,6.1846 15.32449,17.7697 22.19331,25.7447 6.86883,7.975 12.94682,14.6817 13.50664,14.9037 0.55982,0.2221 2.61033,2.2326 4.55669,4.4679 3.29011,3.7786 6.92935,7.4012 10.8946,10.8448 0.90433,0.7854 3.12041,2.9705 4.92464,4.8558 1.80422,1.8853 4.89333,4.7778 6.86468,6.4278 1.97135,1.65 5.22017,4.6109 7.21959,6.5798 7.72546,7.6076 43.45409,36.9202 45.00136,36.9202 0.42556,0 2.21551,1.2375 3.97768,2.75 1.76216,1.5125 5.33071,4.2122 7.9301,5.9993 2.5994,1.7871 7.65118,5.2527 11.22618,7.7013 10.73789,7.3546 36.89255,22.9693 46.5,27.7613 4.95,2.4689 17.1,8.5988 27,13.6219 9.9,5.0232 18.51782,9.1405 19.1507,9.1496 0.63289,0.01 3.55789,1.1528 6.5,2.5414 6.86582,3.2406 8.04855,3.0119 27.60867,-5.3397 z M 745,1360.0647 c -4.58895,-1.7795 -15.1745,-7.0117 -41,-20.2652 -22.80005,-11.7008 -32.87082,-18.0231 -68.5,-43.003 -24.20642,-16.9713 -70.24666,-59.326 -91.6317,-84.2965 -4.71026,-5.5 -12.28696,-14.275 -16.8371,-19.5 -4.55015,-5.225 -9.40972,-11.3 -10.79904,-13.5 -1.38933,-2.2 -4.61235,-6.475 -7.16227,-9.5 -2.54992,-3.025 -5.8414,-7.3 -7.31441,-9.5 -1.473,-2.2 -4.46233,-6.475 -6.64295,-9.5 -9.338,-12.9539 -29.46305,-43.9862 -35.34427,-54.5 -2.46127,-4.4 -6.17315,-10.925 -8.24862,-14.5 -6.67295,-11.4942 -34.95754,-68.1074 -40.21868,-80.5 -2.80195,-6.6 -7.77983,-18.3 -11.06194,-26 -3.28212,-7.7 -7.41761,-18.05 -9.18998,-23 -1.77237,-4.95 -4.12904,-11.01836 -5.23706,-13.48524 -1.10801,-2.46689 -3.52677,-9.05302 -5.37502,-14.63586 -1.84825,-5.58284 -4.01808,-11.66448 -4.82185,-13.51476 -0.80376,-1.85028 -3.07977,-8.46599 -5.05779,-14.70159 -1.97803,-6.2356 -4.26261,-12.62576 -5.07686,-14.20034 -0.81425,-1.57459 -1.47004,-3.67274 -1.45731,-4.66255 0.0127,-0.98981 -1.76183,-7.42466 -3.94348,-14.29966 -6.43302,-20.27229 -10.86118,-35.51538 -15.54192,-53.5 -1.2883,-4.95 -3.53713,-13.5 -4.99739,-19 -1.46027,-5.5 -3.04299,-12.0798 -3.51717,-14.62178 -0.47417,-2.54198 -1.79837,-7.7655 -2.94266,-11.60781 C 331.93624,760.42809 331,756.36783 331,755.2476 c 0,-1.12023 -1.97922,-10.29671 -4.39826,-20.39219 C 324.1827,724.75994 321.91136,714.475 321.55433,712 c -0.35703,-2.475 -1.7275,-9.45 -3.0455,-15.5 -3.05426,-14.01997 -6.57893,-32.41912 -7.5669,-39.5 -0.42207,-3.025 -1.70667,-10.14558 -2.85466,-15.82351 C 306.93927,635.49856 306,629.39182 306,627.60595 c 0,-1.78588 -0.84622,-7.2653 -1.88048,-12.1765 -1.03427,-4.9112 -2.16967,-11.62945 -2.52312,-14.92945 -0.64417,-6.0144 -1.68528,-13.07974 -3.647,-24.75 -1.05326,-6.26586 -1.82677,-12.48308 -4.44777,-35.75 -1.75118,-15.54536 -2.29399,-19.8102 -3.56378,-28 -0.55428,-3.575 -1.46008,-12.35 -2.01288,-19.5 -0.5528,-7.15 -1.42388,-16.375 -1.93573,-20.5 -0.95343,-7.68376 -3.52239,-36.8669 -4.97364,-56.5 -0.4472,-6.05 -1.10409,-12.8 -1.45975,-15 -0.58999,-3.64957 -1.5116,-20.2604 -3.3844,-61 -0.37926,-8.25 -0.9818,-15.4529 -1.339,-16.00645 -0.35719,-0.55355 -0.78308,-9.29772 -0.94643,-19.4315 -0.24912,-15.45552 -0.0624,-18.48879 1.15849,-18.82051 0.80052,-0.2175 4.83049,-1.68535 8.95549,-3.26189 4.125,-1.57654 11.775,-4.22868 17,-5.89364 5.225,-1.66497 14.675,-4.87605 21,-7.13575 6.325,-2.2597 15.1,-5.37154 19.5,-6.9152 4.4,-1.54365 11.825,-4.25011 16.5,-6.01435 4.675,-1.76423 10.75,-3.795 13.5,-4.51281 2.75,-0.71781 10.175,-3.19667 16.5,-5.50857 24.07048,-8.79821 34.06451,-12.37576 54,-19.33031 2.475,-0.86341 9.9,-3.34084 16.5,-5.50539 6.6,-2.16456 15.825,-5.37565 20.5,-7.13578 11.9159,-4.48629 23.45806,-8.50607 38,-13.23421 13.64799,-4.43749 25.37514,-8.5108 37,-12.85159 16.27314,-6.07648 34.91448,-12.61624 53.5,-18.76889 10.92094,-3.61532 23.93746,-8.20892 40,-14.11621 12.49423,-4.59498 23.17334,-8.2312 28,-9.53397 4.78338,-1.29108 17.20427,-5.66993 35.5,-12.51514 12.36683,-4.62695 24.5661,-8.90654 32.08283,-11.25488 l 6.58283,-2.05658 6.41717,2.0366 c 3.52944,1.12013 10.24217,3.48984 14.91717,5.26602 4.675,1.77618 12.1,4.49241 16.5,6.03606 4.4,1.54366 13.175,4.68129 19.5,6.97251 6.325,2.29122 13.75,4.75977 16.5,5.48565 2.75,0.72589 8.825,2.76326 13.5,4.52749 4.675,1.76424 12.1,4.4707 16.5,6.01435 4.4,1.54366 13.175,4.6555 19.5,6.9152 6.325,2.2597 15.775,5.47057 21,7.13527 10.08097,3.21183 21.70009,7.26367 34,11.85652 4.125,1.5403 11.44609,4.18585 16.26909,5.879 4.82299,1.69316 12.47299,4.40514 17,6.02664 4.527,1.6215 12.95591,4.40441 18.73091,6.18426 5.775,1.77984 14.55,4.79433 19.5,6.69886 20.7344,7.97762 36.4757,13.59277 53.5,19.08414 13.919,4.48974 25.2895,8.43734 38,13.19289 18.5444,6.93826 30.7337,11.22761 35.5,12.49226 2.75,0.72967 10.175,3.19505 16.5,5.47862 6.325,2.28356 13.075,4.62221 15,5.19699 1.925,0.57478 6.425,2.16426 10,3.53218 15.7066,6.00985 22.0301,8.273 30,10.73673 4.675,1.44519 12.4893,4.07386 17.3651,5.8415 l 8.8651,3.21388 -0.7328,25.41709 c -0.4031,13.9794 -1.1299,26.80143 -1.6151,28.4934 -0.4853,1.69197 -0.8823,6.87719 -0.8823,11.52271 0,4.64553 -0.443,10.9485 -0.9844,14.0066 -0.5415,3.05811 -1.4531,14.5602 -2.0258,25.5602 -0.5728,11 -1.438,24.05 -1.9227,29 -0.4848,4.95 -1.6304,17.325 -2.5458,27.5 -0.9155,10.175 -2.0377,21.875 -2.4938,26 -0.4562,4.125 -1.558,14.7 -2.4484,23.5 -0.8905,8.8 -2.0432,18.925 -2.5616,22.5 -0.5184,3.575 -1.4131,11.45 -1.9882,17.5 -0.5751,6.05 -1.3144,12.125 -1.6429,13.5 -0.6244,2.6138 -1.4022,7.85724 -4.0054,27 -0.8601,6.325 -1.9258,13.75 -2.3682,16.5 -0.4424,2.75 -1.3152,9.05 -1.9395,14 -0.6242,4.95 -1.5686,10.575 -2.0986,12.5 -0.5299,1.925 -0.9661,5.20036 -0.9691,7.27857 0,2.07821 -1.0881,9.27821 -2.4111,16 -1.323,6.72179 -2.6968,14.69643 -3.0529,17.72143 -0.356,3.025 -1.3483,8.2 -2.205,11.5 -0.8567,3.3 -1.9265,8.7 -2.3775,12 -1.0804,7.90682 -5.1062,27.38424 -12.5048,60.5 -1.2903,5.775 -2.6343,12.28658 -2.9867,14.47019 -0.3525,2.1836 -1.3296,5.999 -2.1715,8.47865 -0.8419,2.47966 -1.9009,6.76808 -2.3535,9.52982 -1.0025,6.11851 -6.7514,28.62144 -12.9067,50.52134 -1.1594,4.125 -2.7381,9.75 -3.5083,12.5 -0.7701,2.75 -2.7394,9.5 -4.3762,15 -1.6368,5.5 -3.9673,13.375 -5.1789,17.5 -3.6359,12.37873 -12.043,38.26358 -13.597,41.86414 -0.7986,1.85028 -3.0078,8.06373 -4.9094,13.80766 -1.9016,5.74394 -3.989,11.43008 -4.6388,12.63586 -1.2509,2.32154 -5.0043,12.18078 -7.4967,19.69234 -0.8213,2.475 -3.5249,9.225 -6.0081,15 -2.4832,5.775 -5.5535,12.975 -6.8229,16 -11.5598,27.5473 -28.1763,62.4491 -39.4764,82.9174 -11.2559,20.388 -15.5848,27.8951 -19.4313,33.6976 -2.2506,3.3949 -6.7203,10.3829 -9.9328,15.5288 -7.4908,11.9991 -12.7607,19.9674 -17.7616,26.8562 -2.196,3.025 -6.01425,8.425 -8.48506,12 -9.07958,13.1372 -11.68171,16.624 -16.74309,22.4351 -2.84314,3.2642 -6.76764,8.3506 -8.72111,11.3031 -5.68973,8.5993 -45.70745,50.024 -62.44824,64.6438 -4.4,3.8426 -10.50067,9.2661 -13.55705,12.0522 -3.05638,2.7862 -8.45638,7.1512 -12,9.6999 -3.54362,2.5488 -9.72401,7.3863 -13.73419,10.75 -4.01018,3.3638 -7.68764,6.1159 -8.17214,6.1159 -0.48451,0 -4.85345,3.0012 -9.70877,6.6694 -12.60485,9.523 -40.49011,25.961 -64.32785,37.9204 -16.26922,8.1623 -37.29058,17.8764 -37.46964,17.315 -0.0167,-0.052 -2.05536,-0.8804 -4.53036,-1.8401 z m 11.19289,-12.1407 c 20.09592,-7.9211 71.3047,-36.5393 88.13496,-49.2546 4.85532,-3.6682 9.22426,-6.6694 9.70877,-6.6694 0.4845,0 4.16196,-2.7521 8.17214,-6.1159 4.01018,-3.3637 10.19057,-8.2012 13.73419,-10.75 3.54362,-2.5487 8.94362,-6.9051 12,-9.6808 3.05638,-2.7757 9.09393,-8.1626 13.41677,-11.9708 17.13952,-15.0991 56.07388,-55.4126 61.64028,-63.8237 1.925,-2.9088 5.82621,-7.9595 8.66935,-11.2237 5.06138,-5.8111 7.66351,-9.2979 16.74309,-22.4351 2.47081,-3.575 6.28908,-8.975 8.48505,-12 5.00091,-6.8888 10.27081,-14.8571 17.76161,-26.8562 3.2125,-5.1459 7.6822,-12.1339 9.9328,-15.5288 3.9021,-5.8863 7.8291,-12.7052 20.2227,-35.115 8.7937,-15.9004 26.717,-53.7667 36.6833,-77.5 1.2703,-3.025 4.3414,-10.225 6.8246,-16 2.4832,-5.775 5.1868,-12.525 6.0081,-15 2.4924,-7.51156 6.2458,-17.3708 7.4967,-19.69234 0.6498,-1.20578 2.7372,-6.89192 4.6388,-12.63586 1.9016,-5.74393 4.1108,-11.95738 4.9094,-13.80766 1.554,-3.60056 9.9611,-29.48541 13.597,-41.86414 1.2116,-4.125 3.5421,-12 5.1789,-17.5 1.6368,-5.5 3.6061,-12.25 4.3762,-15 0.7702,-2.75 2.3489,-8.375 3.5083,-12.5 6.1553,-21.8999 11.9042,-44.40283 12.9067,-50.52134 0.4526,-2.76174 1.5116,-7.05016 2.3535,-9.52982 0.8419,-2.47965 1.819,-6.29505 2.1715,-8.47865 0.3524,-2.18361 1.6964,-8.69519 2.9867,-14.47019 7.3986,-33.11576 11.4244,-52.59318 12.5048,-60.5 0.451,-3.3 1.5208,-8.7 2.3775,-12 0.8567,-3.3 1.849,-8.475 2.205,-11.5 0.3561,-3.025 1.7299,-10.99964 3.0529,-17.72143 1.323,-6.72179 2.408,-13.92179 2.4111,-16 0,-2.07821 0.4392,-5.35357 0.9691,-7.27857 0.53,-1.925 1.4744,-7.55 2.0986,-12.5 0.6243,-4.95 1.4971,-11.25 1.9395,-14 0.4424,-2.75 1.5081,-10.175 2.3682,-16.5 2.6032,-19.14276 3.381,-24.3862 4.0054,-27 0.3285,-1.375 1.0678,-7.45 1.6429,-13.5 0.5751,-6.05 1.4698,-13.925 1.9882,-17.5 0.5184,-3.575 1.6711,-13.7 2.5616,-22.5 0.8904,-8.8 1.9922,-19.375 2.4484,-23.5 0.4561,-4.125 1.5746,-15.825 2.4857,-26 1.7013,-19.00227 2.9665,-32.33946 3.9842,-42 0.3187,-3.025 1.0485,-13.825 1.6217,-24 0.5733,-10.175 1.424,-23.45 1.8904,-29.5 1.4603,-18.94051 3.1057,-53.75731 2.6025,-55.06868 -0.2646,-0.68964 -6.4731,-3.12534 -13.7966,-5.41266 -12.3312,-3.85139 -17.2847,-5.60292 -34.8154,-12.31077 -3.575,-1.36792 -8.075,-2.9574 -10,-3.53218 -1.925,-0.57478 -8.675,-2.91343 -15,-5.19699 -6.325,-2.28357 -13.75,-4.74895 -16.5,-5.47862 -4.7663,-1.26465 -16.9556,-5.554 -35.5,-12.49226 -12.7105,-4.75555 -24.081,-8.70315 -38,-13.19289 -17.0243,-5.49137 -32.7656,-11.10652 -53.5,-19.08414 -4.95,-1.90453 -13.725,-4.91902 -19.5,-6.69886 -5.775,-1.77985 -14.20391,-4.56276 -18.73091,-6.18426 -4.52701,-1.6215 -12.17701,-4.33348 -17,-6.02664 -4.823,-1.69315 -12.14409,-4.3387 -16.26909,-5.879 -12.29991,-4.59285 -23.91903,-8.64469 -34,-11.85652 -5.225,-1.6647 -14.675,-4.87557 -21,-7.13527 -6.325,-2.2597 -15.1,-5.37154 -19.5,-6.9152 -4.4,-1.54365 -11.825,-4.25011 -16.5,-6.01435 -4.675,-1.76423 -10.75,-3.8016 -13.5,-4.52749 -2.75,-0.72588 -10.175,-3.20503 -16.5,-5.50921 -6.325,-2.30419 -13.975,-4.99783 -17,-5.98588 -3.025,-0.98805 -8.425,-2.92999 -12,-4.31543 C 757.9642,133.08072 751.8666,131 749.55509,131 c -1.38019,0 -5.55721,1.16009 -9.28226,2.57797 -3.72506,1.41789 -9.24783,3.39348 -12.27283,4.39021 -3.025,0.99672 -9.325,3.25394 -14,5.01605 -17.13314,6.45783 -30.62171,11.22205 -35.5,12.53875 -4.82666,1.30277 -15.50577,4.93899 -28,9.53397 -16.06254,5.90729 -29.07906,10.50089 -40,14.11621 -17.48352,5.78784 -38.19175,13.05271 -53.5,18.76889 -11.62486,4.34079 -23.35201,8.4141 -37,12.85159 -14.54194,4.72814 -26.0841,8.74792 -38,13.23421 -4.675,1.76013 -13.9,4.97122 -20.5,7.13578 -6.6,2.16455 -14.025,4.64198 -16.5,5.50539 -19.93549,6.95455 -29.92952,10.5321 -54,19.33031 -6.325,2.3119 -13.75,4.79076 -16.5,5.50857 -2.75,0.71781 -8.825,2.74858 -13.5,4.51281 -4.675,1.76424 -12.1,4.4707 -16.5,6.01435 -4.4,1.54366 -13.175,4.65372 -19.5,6.91124 C 309.35286,284.53109 295.93016,289 294.80296,289 c -0.51271,0 -3.19294,0.97254 -5.95606,2.16121 l -5.02387,2.16121 0.61008,14.58879 c 0.33555,8.02383 1.01266,21.11379 1.50469,29.08879 0.49204,7.975 1.36189,23.95 1.93301,35.5 0.57112,11.55 1.32939,22.8 1.68504,25 0.35566,2.2 1.01255,8.95 1.45975,15 1.45125,19.6331 4.02021,48.81624 4.97364,56.5 0.51185,4.125 1.38293,13.35 1.93573,20.5 0.5528,7.15 1.4586,15.925 2.01288,19.5 1.26979,8.1898 1.8126,12.45464 3.56378,28 2.621,23.26692 3.39451,29.48414 4.44777,35.75 1.96172,11.67026 3.00283,18.7356 3.647,24.75 0.35345,3.3 1.48885,10.01825 2.52312,14.92945 1.03426,4.9112 1.88048,10.39062 1.88048,12.1765 0,1.78587 0.93927,7.89261 2.08727,13.57054 1.14799,5.67793 2.43259,12.79851 2.85466,15.82351 0.98797,7.08088 4.51264,25.48003 7.5669,39.5 1.318,6.05 2.68847,13.025 3.0455,15.5 0.35703,2.475 2.62837,12.75994 5.04741,22.85541 2.41904,10.09548 4.39826,19.27196 4.39826,20.39219 0,1.12023 0.93624,5.18049 2.08053,9.02281 1.14429,3.84231 2.46849,9.06583 2.94266,11.60781 0.47418,2.54198 2.0569,9.12178 3.51717,14.62178 1.46026,5.5 3.70909,14.05 4.99739,19 4.68074,17.98462 9.1089,33.22771 15.54192,53.5 2.18165,6.875 3.95621,13.30985 3.94348,14.29966 -0.0127,0.98981 0.64306,3.08796 1.45731,4.66255 0.81425,1.57458 3.09883,7.96474 5.07686,14.20034 1.97802,6.2356 4.25403,12.85131 5.05779,14.70159 0.80377,1.85028 2.9736,7.93192 4.82185,13.51476 1.84825,5.58284 4.26701,12.16897 5.37502,14.63586 1.10802,2.46688 3.46469,8.53524 5.23706,13.48524 1.77237,4.95 5.90786,15.3 9.18998,23 3.28211,7.7 8.26214,19.4 11.06674,26 5.26228,12.3837 31.54637,64.996 38.21791,76.5 2.07325,3.575 5.78332,10.1 8.24459,14.5 5.88122,10.5138 26.00627,41.5461 35.34427,54.5 2.18062,3.025 5.16995,7.3 6.64295,9.5 1.47301,2.2 4.76449,6.475 7.31441,9.5 2.54992,3.025 5.77294,7.3 7.16227,9.5 1.38932,2.2 6.24889,8.275 10.79904,13.5 4.55014,5.225 12.13425,14 16.85357,19.5 20.93128,24.3938 66.95536,66.687 90.71903,83.365 23.86325,16.748 33.36679,23.1176 43.60646,29.2268 15.77304,9.4105 59.74212,31.8338 62.50272,31.8751 1.21714,0.018 4.5831,-0.9011 7.47991,-2.0429 z m 47.4584,-495.69853 c 0.25523,-0.976 -0.23413,-3.1135 -1.08746,-4.75 -0.85333,-1.63651 -1.55428,-3.89797 -1.55767,-5.02547 -0.003,-1.1275 -0.41047,-2.4775 -0.90462,-3 -1.74187,-1.84178 -8.51358,-28.91887 -9.49093,-37.95 -0.23808,-2.2 -0.92021,-6.7 -1.51584,-10 -4.6029,-25.50169 -2.3637,-78.82601 4.30419,-102.5 0.852,-3.025 2.49661,-9.55 3.65467,-14.5 1.15807,-4.95 2.98746,-10.94526 4.06531,-13.3228 1.07786,-2.37753 2.66309,-7.06823 3.52274,-10.42376 2.50679,-9.78498 3.10784,-9.89503 11.56909,-2.11825 8.48791,7.80129 21.67446,18.36481 22.92498,18.36481 0.47534,0 1.65175,0.69145 2.61425,1.53655 3.70175,3.25024 11.31735,8.46345 12.36363,8.46345 0.60298,0 3.09664,1.35 5.54148,3 2.44483,1.65 4.75269,3 5.12857,3 0.37587,0 3.39081,1.28264 6.69986,2.85031 3.30905,1.56767 8.49146,3.86896 11.51646,5.11398 3.025,1.24502 6.175,2.58876 7,2.98608 0.825,0.39733 5.1,1.5471 9.5,2.55505 4.4,1.00796 12.05,2.82151 17,4.03011 4.95,1.2086 9.3375,2.00598 9.75,1.77195 0.4125,-0.23403 0.75,-37.97396 0.75,-83.8665 L 927,535 h 27 27 v 84.12917 84.12916 l 6.25,-0.7021 c 14.1189,-1.58607 40.2679,-8.47681 44.6349,-11.7621 1.3116,-0.98677 3.3366,-1.80481 4.5,-1.81787 3.1415,-0.0353 12.5177,-4.12514 17.8194,-7.77284 2.5608,-1.76188 5.3074,-3.20342 6.1034,-3.20342 0.7961,0 2.0076,-0.675 2.6923,-1.5 0.6847,-0.825 1.7098,-1.5 2.2781,-1.5 0.5682,0 2.5081,-1.125 4.3108,-2.5 1.8027,-1.375 3.6943,-2.5 4.2036,-2.5 0.5093,0 2.9018,-1.6968 5.3167,-3.77067 2.4149,-2.07386 7.6533,-6.39992 11.6408,-9.61346 3.9875,-3.21353 7.25,-6.14471 7.25,-6.51372 0,-0.36901 1.3536,-1.4705 3.0079,-2.44774 2.8893,-1.70677 3.031,-1.70541 3.5949,0.0344 0.3229,0.99616 1.4189,4.0612 2.4355,6.8112 2.0595,5.57095 4.981,16.40203 5.6643,21 0.2452,1.65 0.7198,3.675 1.0546,4.5 0.8641,2.12919 3.0386,12.0567 4.8189,22 1.2484,6.97257 1.4544,16.04728 1.1463,50.5 -0.3669,41.01436 -0.4371,42.26988 -2.9917,53.5 -1.4388,6.325 -3.0459,12.85 -3.5713,14.5 -0.5253,1.65 -1.7304,6.49445 -2.6778,10.76545 -0.9474,4.271 -2.1184,8.01006 -2.6021,8.30902 -0.4837,0.29896 -0.8795,1.64811 -0.8795,2.99812 0,1.35 -0.5199,3.46094 -1.1554,4.69098 -0.6355,1.23004 -1.4552,2.88465 -1.8215,3.67691 -1.1342,2.45308 -2.7292,2.27709 -5.7725,-0.63691 -4.6637,-4.46547 -9.1864,-8.30357 -9.7848,-8.30357 -0.3034,0 -2.9357,-1.8 -5.8496,-4 -2.9139,-2.2 -5.7714,-4 -6.3501,-4 -0.5787,0 -1.3111,-0.675 -1.6277,-1.5 -0.3166,-0.825 -1.2283,-1.5 -2.026,-1.5 -1.8084,0 -7.5975,-3.23475 -7.6061,-4.25 0,-0.4125 -0.6438,-0.75 -1.423,-0.75 -0.7791,0 -1.5666,-0.3375 -1.75,-0.75 -0.3096,-0.6967 -3.8228,-2.4911 -9.8333,-5.02252 -1.375,-0.5791 -5.4606,-2.44218 -9.079,-4.14019 -3.6185,-1.69801 -7.0488,-3.08729 -7.6229,-3.08729 -0.5741,0 -3.0136,-0.85564 -5.421,-1.90142 -2.4074,-1.04578 -6.8521,-2.21361 -9.8771,-2.59517 -3.025,-0.38156 -6.4217,-1.2768 -7.5482,-1.98942 -1.1265,-0.71262 -4.5015,-1.55747 -7.5,-1.87744 -2.9985,-0.31997 -8.6018,-1.26127 -12.4518,-2.09179 -3.85,-0.83052 -8.0125,-1.51785 -9.25,-1.5274 L 981,801 v 18 18 h -27 -27 v -17.94098 c 0,-10.53397 -0.40118,-18.18893 -0.97173,-18.54155 -0.84386,-0.52153 -6.07038,0.36906 -26.98708,4.59854 -2.45234,0.49588 -4.90484,1.34764 -5.45,1.8928 -0.54515,0.54515 -2.2573,0.99119 -3.80476,0.99119 -1.54746,0 -3.59496,0.42223 -4.55,0.93829 -0.95504,0.51606 -5.33163,2.12688 -9.72576,3.57959 -4.39413,1.45272 -13.39413,5.36251 -20,8.68844 C 840.54673,828.74037 839.60693,829.2514 837.5,831 c -1.8986,1.5757 -4.95224,3.42565 -8,4.84654 -1.1,0.51283 -4.09405,2.78215 -6.65345,5.04294 -2.5594,2.26079 -5.0344,4.12556 -5.5,4.14395 -0.4656,0.0184 -3.06835,2.04338 -5.78389,4.5 -5.15065,4.65955 -8.7458,5.88289 -7.91137,2.69204 z"
         id="path16" />
    </g>
  </g>
</svg>
