<?xml version="1.0" encoding="UTF-8" standalone="no"?>
<svg
   xmlns:dc="http://purl.org/dc/elements/1.1/"
   xmlns:cc="http://creativecommons.org/ns#"
   xmlns:rdf="http://www.w3.org/1999/02/22-rdf-syntax-ns#"
   xmlns:svg="http://www.w3.org/2000/svg"
   xmlns="http://www.w3.org/2000/svg"
   xmlns:sodipodi="http://sodipodi.sourceforge.net/DTD/sodipodi-0.dtd"
   xmlns:inkscape="http://www.inkscape.org/namespaces/inkscape"
   version="1.1"
   id="svg2"
   width="860.61481"
   height="1337.8187"
   viewBox="0 0 860.61481 1337.8187"
   sodipodi:docname="Sivrfaal.svg"
   inkscape:version="1.0.1 (3bc2e813f5, 2020-09-07)">
  <metadata
     id="metadata8">
    <rdf:RDF>
      <cc:Work
         rdf:about="">
        <dc:format>image/svg+xml</dc:format>
        <dc:type
           rdf:resource="http://purl.org/dc/dcmitype/StillImage" />
        <dc:title></dc:title>
      </cc:Work>
    </rdf:RDF>
  </metadata>
  <defs
     id="defs6" />
  <sodipodi:namedview
     pagecolor="#ffffff"
     bordercolor="#666666"
     borderopacity="1"
     objecttolerance="10"
     gridtolerance="10"
     guidetolerance="10"
     inkscape:pageopacity="0"
     inkscape:pageshadow="2"
     inkscape:window-width="1920"
     inkscape:window-height="1057"
     id="namedview4"
     showgrid="false"
     inkscape:pagecheckerboard="true"
     inkscape:zoom="0.49"
     inkscape:cx="408.80965"
     inkscape:cy="674.98202"
     inkscape:window-x="-8"
     inkscape:window-y="-8"
     inkscape:window-maximized="1"
     inkscape:current-layer="g10" />
  <g
     inkscape:groupmode="layer"
     inkscape:label="Image"
     id="g10"
     transform="translate(-341.19035,-75.01798)">
    <path
       style="fill:#ffffff;fill-opacity:1;stroke-width:0.906973"
       d="m 766.78743,1411.684 c -33.17761,-9.0517 -51.40936,-16.485 -76.09051,-31.0232 -50.27855,-29.616 -102.1573,-72.7999 -145.18803,-120.8546 -26.35702,-29.4342 -60.70696,-74.1114 -76.53093,-99.5397 -22.81666,-36.6652 -33.22458,-54.895 -45.56447,-79.808 -4.57111,-9.2288 -20.01666,-42.946 -23.79667,-51.9477 -2.58346,-6.1523 -14.89713,-38.94179 -16.20284,-43.14597 -0.59795,-1.925 -2.25557,-6.875 -3.68369,-11 -2.70224,-7.80519 -4.0754,-12.44198 -9.62499,-32.5 -6.4408,-23.27935 -8.45847,-31.95819 -12.18024,-52.39336 -1.14128,-6.26635 -2.24472,-11.72715 -2.45218,-12.13512 -0.56224,-1.10602 -4.44508,-29.79565 -5.8157,-42.97152 -1.99965,-19.22263 -3.42111,-109.01719 -5.20014,-328.5 -0.48155,-59.4 -1.24986,-123.525 -1.70748,-142.5 -0.45761,-18.975 -1.05325,-62.69893 -1.32372,-97.1643 -0.54259,-69.14647 -0.54917,-69.03309 4.52389,-77.54646 3.65324,-6.13084 7.00904,-8.77999 21.23229,-16.76145 35.02936,-19.65694 74.04783,-36.81765 119.09877,-52.38079 8.18633,-2.82802 41.68182,-12.89675 48.53341,-14.58913 15.32982,-3.78654 22.69122,-5.632814 27.9684,-7.014644 3.16701,-0.82928 9.64499,-2.22211 14.39551,-3.09519 4.75051,-0.87308 9.93289,-1.98459 11.5164,-2.47003 1.5835,-0.48544 7.50622,-1.58536 13.1616,-2.44427 5.65537,-0.85891 11.94827,-2.00356 13.9842,-2.54367 2.03594,-0.5401 10.73493,-1.92842 19.3311,-3.08515 28.99998,-3.90232 25.95975,-3.57202 75.26792,-8.17726 15.51868,-1.44939 135.7118,-1.42558 149.30192,0.0296 5.42916,0.58133 18.10016,1.78494 28.15776,2.67469 10.0576,0.88975 21.1627,2.01131 24.678,2.49236 3.5153,0.48105 13.60975,1.80968 22.43214,2.9525 8.82239,1.14282 17.15121,2.34651 18.5085,2.67487 1.35729,0.32835 8.76069,1.67071 16.45201,2.98302 25.53482,4.35681 48.04554,9.19406 71.56614,15.378594 22.304,5.86462 26.4287,7.02153 37.8397,10.61338 6.334,1.99377 13.7374,4.28192 16.452,5.08477 2.7145,0.80286 7.1566,2.3104 9.8712,3.35009 2.7145,1.0397 8.2671,3.09509 12.339,4.56755 29.6405,10.71849 65.7509,27.37828 72.8022,33.58776 4.2609,3.75226 7.8918,10.66799 9.0623,17.26097 0.6089,3.42908 0.805,17.84825 0.5934,43.62221 -0.3624,44.14886 -2.673,262.05222 -3.9393,371.5 -0.4708,40.7 -1.1987,107.075 -1.6174,147.5 -0.5292,51.08922 -1.1292,77.92118 -1.9681,88 -1.5721,18.88762 -4.3761,43.05626 -5.8008,50 -0.6208,3.025 -1.3707,7.525 -1.6667,10 -0.2959,2.475 -1.6497,10.125 -3.0084,17 -14.3137,72.42793 -38.5495,139.20685 -74.2181,204.50005 -12.8752,23.5688 -33.548,56.2351 -49.0869,77.5654 -20.4096,28.0162 -54.9945,68.0457 -79.34904,91.8407 -29.18388,28.5133 -53.01856,48.3553 -86.98955,72.4172 -6.44738,4.5667 -13.20314,9.2229 -15.01286,10.3471 -1.80972,1.1242 -6.80702,4.296 -11.1051,7.0485 -8.97654,5.7485 -43.29641,25.0096 -53.05771,29.7773 -9.2866,4.5358 -18.80009,8.2611 -25.50763,9.9882 -5.35715,1.3795 -17.62806,1.8586 -21.38058,0.8348 z"
       id="path16-0"
       sodipodi:nodetypes="ssssssssssssssssssssssssssssssssssssccccssssssssssssssss" />
    <g
       id="g14">
      <path
         style="fill:#002d83"
         d="m 759,1394.6127 c -14.89078,-4.3864 -23.50596,-7.3273 -28.42004,-9.7016 C 728.40437,1383.86 726.26195,1383 725.81903,1383 724.36876,1383 717,1379.5446 717,1378.8645 c 0,-0.365 -2.25,-1.4727 -5,-2.4616 -2.75,-0.9889 -5,-2.0908 -5,-2.4486 0,-0.3578 -1.9125,-1.5006 -4.25,-2.5395 -2.3375,-1.0389 -4.7,-2.2319 -5.25,-2.6512 -3.31795,-2.5294 -11.80923,-7.727 -13.50067,-8.2638 -1.09963,-0.349 -1.99933,-1.0018 -1.99933,-1.4506 0,-0.4487 -0.7875,-1.0804 -1.75,-1.4035 -2.48958,-0.836 -5.61369,-2.9326 -6.54969,-4.3957 -0.43983,-0.6875 -1.18211,-1.25 -1.64951,-1.25 -1.0974,0 -10.40082,-6.2491 -15.5508,-10.4455 -2.2,-1.7926 -5.48565,-4.0242 -7.30145,-4.9592 -1.8158,-0.9349 -3.55144,-2.3513 -3.85699,-3.1476 C 645.03602,1332.6515 644.38477,1332 643.89435,1332 642.61806,1332 631,1322.8452 631,1321.8395 c 0,-0.4617 -0.57566,-0.8395 -1.27924,-0.8395 -0.70358,0 -1.92792,-0.9 -2.72076,-2 -0.79284,-1.1 -1.91784,-2 -2.5,-2 -0.58216,0 -1.70716,-0.9 -2.5,-2 -0.79284,-1.1 -1.774,-2 -2.18036,-2 -0.40636,0 -2.5752,-1.8 -4.81964,-4 -2.24444,-2.2 -4.27241,-4 -4.5066,-4 -0.51761,0 -6.92459,-5.8052 -13.51996,-12.25 -2.67352,-2.6125 -5.11224,-4.75 -5.41938,-4.75 C 590.71479,1288 584,1280.7036 584,1279.7917 584,1279.3562 583.55245,1279 583.00545,1279 581.81282,1279 570,1267.05 570,1265.8436 c 0,-0.464 -0.675,-0.8436 -1.5,-0.8436 -0.825,0 -1.5,-0.3601 -1.5,-0.8003 0,-0.4402 -2.49218,-3.4777 -5.53817,-6.75 C 549.8678,1244.9942 547.42689,1242.2716 545,1239.088 c -1.375,-1.8037 -4.525,-5.4312 -7,-8.061 -6.86874,-7.2985 -10,-11.1308 -10,-12.2389 0,-0.5534 -0.87127,-1.9696 -1.93614,-3.1472 -3.43284,-3.7959 -6.50468,-7.3854 -9.06386,-10.5913 -1.375,-1.7225 -3.7375,-4.5636 -5.25,-6.3135 -1.5125,-1.75 -2.75,-3.6565 -2.75,-4.2367 0,-0.5802 -0.7875,-1.7656 -1.75,-2.6343 -2.65837,-2.3992 -4.98126,-5.4447 -6.72576,-8.8182 -0.86658,-1.6758 -2.01404,-3.0469 -2.54992,-3.0469 -0.53588,0 -0.97432,-0.6093 -0.97432,-1.354 0,-0.7447 -1.0125,-2.4562 -2.25,-3.8035 -1.2375,-1.3472 -2.88854,-3.6629 -3.66898,-5.146 -0.78044,-1.4831 -1.79658,-2.6965 -2.2581,-2.6965 -0.46151,0 -1.55933,-1.8 -2.4396,-4 -0.88026,-2.2 -1.95034,-4 -2.37796,-4 -0.42761,0 -1.52486,-1.575 -2.43834,-3.5 -0.91347,-1.925 -2.08974,-3.5 -2.61394,-3.5 -0.52419,0 -0.95363,-0.5625 -0.9543,-1.25 -6.7e-4,-0.6875 -1.07624,-2.5 -2.39016,-4.0277 -1.31391,-1.5277 -2.98419,-4.2277 -3.71173,-6 -0.72754,-1.7723 -2.12697,-4.0947 -3.10985,-5.1609 -0.98287,-1.0662 -1.78704,-2.4598 -1.78704,-3.097 0,-0.6371 -0.91225,-2.2102 -2.02723,-3.4958 -1.11498,-1.2856 -2.28059,-3.3469 -2.59025,-4.5807 -0.30966,-1.2337 -1.1974,-2.4866 -1.97277,-2.7842 -0.77536,-0.2975 -1.40975,-1.175 -1.40975,-1.9499 0,-0.7749 -0.67005,-1.965 -1.48899,-2.6447 -0.81894,-0.6796 -1.24239,-1.6347 -0.94098,-2.1224 0.3014,-0.4877 0.1776,-0.8867 -0.27511,-0.8867 -0.45272,0 -1.60294,-1.8 -2.55605,-4 -0.95311,-2.2 -2.11224,-4 -2.57584,-4 -0.4636,0 -1.42922,-1.7765 -2.14581,-3.9478 -0.7166,-2.1713 -1.91362,-4.1822 -2.66006,-4.4686 -0.74644,-0.2865 -1.35716,-1.2161 -1.35716,-2.0658 0,-1.469 -1.86655,-5.4489 -3.05677,-6.5178 -0.30623,-0.275 -1.1632,-2.075 -1.90438,-4 -0.74118,-1.925 -1.96998,-4.0119 -2.73068,-4.6376 -0.7607,-0.6257 -1.2877,-1.5257 -1.17111,-2 0.22791,-0.9273 -2.20645,-6.5368 -3.19504,-7.3624 -1.03539,-0.8647 -3.94202,-7.2454 -3.94202,-8.6536 0,-0.7405 -0.43743,-1.3464 -0.97207,-1.3464 -0.53463,0 -1.69156,-2.475 -2.57095,-5.5 -0.87939,-3.025 -1.94494,-5.5 -2.36788,-5.5 -0.42294,0 -1.38989,-1.9125 -2.14878,-4.25 -0.75889,-2.3375 -1.86424,-4.753 -2.45634,-5.3677 -0.5921,-0.6147 -1.7171,-3.0897 -2.5,-5.5 -0.7829,-2.4103 -1.95852,-4.9359 -2.61247,-5.6125 -0.65396,-0.6766 -1.49993,-3.0704 -1.87993,-5.3196 -0.37999,-2.2492 -1.32106,-4.3313 -2.09124,-4.6268 C 408.63015,1019.0278 408,1018.1312 408,1017.3309 408,1014.7926 404.80674,1006 403.8849,1006 c -0.4867,0 -0.8849,-0.7556 -0.8849,-1.679 0,-2.2091 -2.26524,-8.6573 -3.30917,-9.41988 -0.45091,-0.32939 -1.50254,-3.59189 -2.33696,-7.25 C 396.51945,983.993 395.47455,981 395.03187,981 c -0.44268,0 -1.04418,-1.2375 -1.33668,-2.75 -1.10567,-5.71753 -2.83271,-11.72009 -3.51745,-12.2254 C 389.2951,965.37327 387,956.6782 387,953.98565 387,952.89354 386.59488,952 386.09974,952 385.23527,952 383.795,946.6765 382.51496,938.75 382.18189,936.6875 381.58209,935 381.18207,935 380.29682,935 378,925.46657 378,921.79215 c 0,-1.45711 -0.65124,-3.30054 -1.44721,-4.0965 -0.79596,-0.79597 -1.43724,-2.29061 -1.42506,-3.32143 0.0411,-3.47274 -2.545,-15.86865 -3.44134,-16.49566 -0.48861,-0.34179 -1.46258,-5.90602 -2.16438,-12.36496 -0.7018,-6.45894 -1.71839,-12.02929 -2.25909,-12.37856 -0.5407,-0.34927 -1.23751,-3.78504 -1.54846,-7.63504 -1.26253,-15.6316 -3.07508,-30.0316 -3.84445,-30.54262 -1.14991,-0.76377 -2.84414,-88.86238 -2.8582,-148.62405 -0.008,-33.90834 -0.34966,-50.27928 -1.05429,-50.51416 -0.71226,-0.23742 -1.19796,-39.46372 -1.53331,-123.83333 -0.26995,-67.91721 -0.94584,-135.42612 -1.50198,-150.01979 -0.55614,-14.59368 -1.01,-56.67426 -1.00858,-93.5124 0.002,-57.70752 0.21144,-67.39713 1.51158,-70.00332 2.64912,-5.31028 17.71996,-14.06081 55.07477,-31.97787 C 422.48494,160.72394 432.87984,156 433.54437,156 c 0.29647,0 3.4265,-1.35 6.95563,-3 3.52913,-1.65 6.78653,-3 7.23866,-3 0.45213,0 4.574,-1.58237 9.15971,-3.51638 4.58571,-1.93401 11.54705,-4.60002 15.46964,-5.92448 3.9226,-1.32446 10.95699,-3.75243 15.63199,-5.39551 4.675,-1.64307 13.225,-4.4095 19,-6.14763 5.775,-1.73812 13.875,-4.20063 18,-5.47224 4.125,-1.27162 9.525,-2.64142 12,-3.04402 2.475,-0.4026 5.28862,-1.14617 6.25248,-1.65238 2.2724,-1.19344 20.36197,-5.43692 33.74752,-7.91655 5.775,-1.0698 11.4,-2.32525 12.5,-2.78989 1.1,-0.46464 7.4,-1.6353 14,-2.60146 6.6,-0.96616 12.9,-2.11941 14,-2.56278 1.1,-0.44337 6.05,-1.31448 11,-1.93581 4.95,-0.62132 11.925,-1.556816 15.5,-2.078874 3.575,-0.522058 15.5,-1.852857 26.5,-2.95733 11,-1.104473 23.15,-2.441784 27,-2.971802 17.12728,-2.357861 54.91686,-3.298562 105,-2.613778 28.05,0.383526 54.6,1.07561 59,1.537965 4.4,0.462355 16.325,1.5709 26.5,2.463434 10.175,0.892534 21.65,2.075348 25.5,2.628476 3.85,0.553128 13.75,1.877565 22,2.943194 8.25,1.065625 17.25,2.408965 20,2.985205 2.75,0.57623 10.4,1.94909 17,3.0508 18.61,3.10649 50.1136,9.6405 59.9906,12.44236 2.7552,0.78158 11.0844,3.02865 18.5094,4.99349 14.251,3.77118 24.5567,6.72595 32,9.17481 2.475,0.81427 7.425,2.37617 11,3.47088 3.575,1.09471 7.4,2.39519 8.5,2.88997 1.1,0.49478 4.25,1.60751 7,2.47273 2.75,0.86523 5.9,1.96902 7,2.45288 1.1,0.48386 4.7,1.89378 8,3.13316 3.3,1.23937 6.4275,2.63324 6.95,3.09748 0.5225,0.46425 1.5237,0.84408 2.225,0.84408 0.7012,0 4.0987,1.27084 7.55,2.82409 3.4512,1.55325 9.875,4.35609 14.275,6.22853 8.0362,3.41984 24.0024,11.32043 28.3072,14.0073 5.6687,3.53813 5.5599,1.7938 4.8822,78.27776 -0.3419,38.58927 -1.124,144.41232 -1.738,235.16232 -0.6636,98.09979 -1.4883,165.13515 -2.0338,165.33333 -0.5435,0.19743 -0.9115,25.47566 -0.9027,62 0.016,64.99348 -1.5971,127.19478 -3.3274,128.32463 -0.5542,0.36188 -1.1633,3.28688 -1.3536,6.5 -0.7257,12.25747 -2.7091,28.86549 -3.5118,29.40583 -0.4607,0.31008 -1.2944,5.48508 -1.8529,11.5 -1.2595,13.56702 -1.9431,17.43621 -3.0805,17.43621 -0.4888,0 -0.8887,1.43541 -0.8887,3.1898 0,4.07927 -2.2078,15.14738 -3.1584,15.83312 -0.3986,0.2876 -1.245,3.4376 -1.8807,7 -0.6358,3.56239 -1.3992,7.82708 -1.6966,9.47708 -0.2973,1.65 -0.88,3.225 -1.2949,3.5 -0.4148,0.275 -1.468,4.29247 -2.3404,8.92771 -0.8723,4.63524 -1.9835,8.68524 -2.4694,9 -0.4858,0.31476 -1.187,2.14729 -1.5581,4.07229 -1.617,8.38605 -1.9194,9.52711 -2.6513,10.00444 -0.4255,0.27744 -1.5939,3.65244 -2.5965,7.5 -1.0025,3.84756 -2.15,7.23641 -2.5498,7.53079 -0.3998,0.29437 -1.396,3.40347 -2.2138,6.90907 -0.8178,3.5057 -1.896,6.6398 -2.3959,6.9648 -0.5,0.325 -1.5082,2.9534 -2.2406,5.8409 -0.7325,2.8875 -1.6547,5.25 -2.0496,5.25 -0.3948,0 -1.5258,2.5875 -2.5133,5.75 -0.9876,3.1625 -2.3384,6.3036 -3.0019,6.9802 -0.6635,0.6766 -1.5134,3.048 -1.8888,5.2698 -0.3754,2.2218 -1.2175,4.5932 -1.8715,5.2698 -0.654,0.6766 -1.8296,3.2022 -2.6125,5.6125 -0.7829,2.4103 -2.0068,4.9656 -2.7197,5.6786 -0.713,0.7129 -1.2963,1.9768 -1.2963,2.8087 0,0.8318 -0.45,1.7905 -1,2.1304 -0.55,0.3399 -1,1.4915 -1,2.559 0,1.0676 -0.4374,1.941 -0.9721,1.941 -0.5346,0 -1.6915,2.475 -2.5709,5.5 -0.8794,3.025 -1.9281,5.5 -2.3304,5.5 -0.4023,0 -1.5406,2.25 -2.5295,5 -0.9889,2.75 -2.0903,5.0035 -2.4475,5.0078 -0.7941,0.01 -3.1496,4.934 -3.1496,6.5846 0,0.6565 -0.5872,1.4189 -1.3049,1.6943 -0.7176,0.2754 -1.9147,2.3486 -2.66,4.607 -0.7454,2.2585 -1.6409,4.1063 -1.9901,4.1063 -0.3492,0 -1.47,2.025 -2.4907,4.5 -1.0206,2.475 -2.1539,4.5 -2.5184,4.5 -0.3644,0 -1.2806,1.575 -2.0359,3.5 -0.7553,1.925 -1.7333,3.5 -2.1732,3.5 -0.44,0 -1.4985,1.6717 -2.3522,3.715 -0.8537,2.0432 -1.8957,3.9557 -2.3155,4.25 -0.4198,0.2942 -1.5485,2.2225 -2.5081,4.285 -0.9597,2.0625 -2.0833,3.75 -2.497,3.75 -0.4137,0 -1.3218,1.575 -2.0178,3.5 -0.6961,1.925 -1.6654,3.5 -2.154,3.5 -0.4886,0 -1.6735,1.6875 -2.6332,3.75 -0.9596,2.0625 -2.043,3.975 -2.4074,4.25 -0.3644,0.275 -1.4119,1.9625 -2.3277,3.75 -0.9159,1.7875 -1.9939,3.25 -2.3955,3.25 -0.4016,0 -1.3426,1.3835 -2.0911,3.0745 -0.7485,1.691 -2.4333,4.2317 -3.7441,5.646 -1.3108,1.4144 -2.3832,2.9327 -2.3832,3.374 0,0.4414 -1.1089,1.999 -2.4642,3.4614 -1.3553,1.4624 -2.3678,2.9568 -2.25,3.3208 0.1178,0.3641 -0.7983,1.7506 -2.0358,3.0812 -1.2375,1.3306 -2.25,2.7844 -2.25,3.2307 0,0.4463 -0.7875,1.6658 -1.75,2.71 -4.978,5.4009 -6.0231,6.7868 -6.6747,8.8514 -0.3905,1.2375 -1.3548,2.25 -2.1427,2.25 -0.7879,0 -1.4326,0.5747 -1.4326,1.2771 0,0.7025 -1.2375,2.6662 -2.75,4.364 -1.5125,1.6977 -3.875,4.5079 -5.25,6.2448 -3.6489,4.6094 -7.2221,8.9548 -9.5,11.553 -1.1,1.2547 -3.125,3.7127 -4.5,5.4622 -1.375,1.7496 -3.7375,4.6129 -5.25,6.3628 -1.5125,1.75 -2.75,3.5315 -2.75,3.959 0,0.4274 -0.675,0.7771 -1.5,0.7771 -0.825,0 -1.5,0.3497 -1.5,0.7771 0,0.4275 -1.35,2.2552 -3,4.0618 -1.65,1.8065 -3,3.7068 -3,4.2228 0,0.5161 -0.675,0.9383 -1.5,0.9383 -0.825,0 -1.5,0.4299 -1.5,0.9553 0,0.5254 -2.475,3.4903 -5.5,6.5887 -3.025,3.0984 -5.5,6.0435 -5.5,6.5447 0,0.5012 -0.59896,0.9113 -1.33102,0.9113 -0.73206,0 -1.9331,1.125 -2.66898,2.5 -0.73588,1.375 -1.67255,2.5 -2.0815,2.5 -0.40895,0 -4.98211,4.1625 -10.16259,9.25 -10.63845,10.4475 -22.74897,21.75 -23.30495,21.75 -0.20359,0 -2.20652,1.8 -4.45096,4 -2.24444,2.2 -4.30661,4 -4.58261,4 -0.6446,0 -2.85113,1.7899 -6.47213,5.25 -1.58282,1.5125 -3.34302,2.75 -3.91156,2.75 -0.56853,0 -1.0337,0.365 -1.0337,0.8112 0,0.97 -18.71369,15.7454 -24.75,19.5413 -2.3375,1.4699 -4.25,3.1169 -4.25,3.66 0,0.5431 -0.40478,0.9875 -0.89951,0.9875 -1.12356,0 -10.27486,6.1137 -15.60049,10.4222 -2.2,1.7798 -5.4625,3.8728 -7.25,4.651 -1.7875,0.7783 -3.25,1.7663 -3.25,2.1957 0,0.4293 -1.0125,1.2184 -2.25,1.7535 -2.55627,1.1052 -6.00607,3.187 -6.75,4.0732 -0.275,0.3276 -1.70901,1.2276 -3.1867,2 -3.08897,1.6147 -27.56262,15.5432 -29.8133,16.9675 -0.825,0.5221 -3.075,1.7162 -5,2.6536 -1.925,0.9373 -4.175,2.2104 -5,2.8291 -0.825,0.6186 -3.075,1.7243 -5,2.4571 -1.925,0.7328 -4.09765,1.7912 -4.82812,2.352 -0.73047,0.5608 -5.68047,2.7673 -11,4.9033 -14.08682,5.6563 -22.54875,5.9566 -38.17188,1.3545 z m 30,-25.8176 c 16.23196,-6.4055 59.71428,-31.4085 80.9068,-46.5226 4.17626,-2.9784 10.25227,-7.2957 13.50224,-9.5939 5.56521,-3.9355 20.67903,-15.8684 37.57914,-29.6701 26.94527,-22.0053 76.49748,-74.1998 97.01182,-102.1849 1.925,-2.626 6.6851,-8.9481 10.5779,-14.0491 18.1853,-23.829 43.9665,-65.8056 59.1299,-96.2745 8.0653,-16.2062 24.0755,-52.3114 28.1579,-63.5 1.1038,-3.025 3.0857,-8.425 4.4042,-12 6.0204,-16.32296 19.2908,-61.24059 20.8564,-70.59446 0.469,-2.80195 1.5324,-7.02103 2.3632,-9.37573 0.8308,-2.35469 1.5105,-5.61221 1.5105,-7.23892 0,-1.62672 0.9043,-6.49928 2.0095,-10.82792 1.1052,-4.32864 2.4295,-11.60362 2.9429,-16.16661 0.5135,-4.563 1.6195,-11.9821 2.4579,-16.4869 0.8383,-4.50479 2.4628,-18.67979 3.6099,-31.5 1.866,-20.85609 2.1772,-34.51882 2.9566,-129.80946 0.4791,-58.575 1.1499,-124.725 1.4906,-147 0.9424,-61.60039 3.5037,-306.9559 3.5191,-337.09913 l 0.014,-26.59912 -9.75,-4.57448 c -11.0504,-5.1846 -27.3866,-12.1672 -37.75,-16.13559 -3.85,-1.47425 -7.9677,-3.08043 -9.1505,-3.56929 -3.3644,-1.39056 -37.0611,-12.55806 -44.8495,-14.86369 -30.3555,-8.98619 -60.9531,-16.07631 -95.5,-22.12939 -25.61327,-4.48779 -29.94441,-5.18842 -40.5,-6.55149 -6.05,-0.78125 -14.375,-1.87721 -18.5,-2.43547 -4.125,-0.55826 -15.6,-1.74217 -25.5,-2.63091 -9.9,-0.88873 -21.6,-1.98626 -26,-2.43894 -4.4,-0.45269 -28.475,-1.14574 -53.5,-1.54013 -44.82515,-0.70644 -82.41479,0.25836 -100,2.56665 -4.125,0.54147 -16.5,1.89475 -27.5,3.00731 -21.30906,2.15523 -47.50133,5.54193 -50.69166,6.5545 -1.06195,0.33705 -6.96576,1.45254 -13.11958,2.47886 -24.64235,4.10979 -59.95296,12.29868 -83.18876,19.29231 -4.4,1.32433 -11.825,3.55243 -16.5,4.95133 -18.15224,5.4317 -44.27301,15.17647 -69.5,25.9281 -15.64908,6.66957 -51.43465,24.22073 -58.7708,28.82434 l -4.7708,2.9938 0.34324,66.23521 c 0.18878,36.42937 1.08614,121.13522 1.99414,188.23522 0.90799,67.1 2.10246,169.25 2.65438,227 1.01785,106.50366 1.11135,110.03694 3.63808,137.48142 2.56813,27.89421 11.15282,75.24117 16.52433,91.13632 1.04413,3.08976 2.32475,7.58976 2.84583,10 0.52107,2.41024 1.83521,7.08226 2.9203,10.38226 1.08508,3.3 2.95572,9.375 4.15696,13.5 1.20125,4.125 2.99453,9.75 3.98508,12.5 0.99055,2.75 3.00497,8.375 4.47649,12.5 7.66221,21.4789 13.52887,36.0799 18.4828,46 0.96131,1.925 4.16048,8.9 7.10928,15.5 20.85534,46.6784 57.92028,107.6202 88.73665,145.8998 4.02928,5.0051 9.17792,11.5752 11.44142,14.6002 3.98578,5.3267 6.54162,8.2903 26.6538,30.9061 23.28961,26.1887 57.02095,57.4029 82.98379,76.7912 4.17727,3.1195 9.17003,6.8645 11.09503,8.3223 18.18433,13.7709 54.35584,35.6021 67,40.4376 1.925,0.7361 5.975,2.3551 9,3.5976 10.72923,4.4072 30.39108,9.8427 33.5,9.2612 1.65,-0.3087 6.375,-1.8931 10.5,-3.5209 z m 163,-129.1727 c 0,-0.2076 0.7875,-0.9951 1.75,-1.75 1.58606,-1.2438 1.62143,-1.2085 0.37756,0.3776 -1.30637,1.6657 -2.12756,2.1955 -2.12756,1.3724 z M 755.35218,895.936 c -11.5539,-2.42752 -25.89684,-8.25712 -35.44876,-14.40792 C 704.7991,871.8019 689.8556,853.7467 683.87715,838 676.40979,818.33165 676.185,794.23435 683.28722,774.75845 695.84418,740.32438 732.36053,720.57493 767,729.48334 c 27.47843,7.06677 44.09197,30.31215 40.23533,56.29658 -2.88885,19.4638 -14.81812,31.39655 -31.3874,31.39655 -11.00283,0 -18.38174,-5.28186 -19.55031,-13.99421 -0.67824,-5.05664 0.98203,-8.00088 5.53287,-9.81174 8.82309,-3.51087 10.96301,-6.32726 9.74414,-12.82442 -1.51652,-8.08371 -9.75338,-13.49407 -20.57463,-13.51437 -8.72006,-0.0164 -14.95242,2.94747 -21.68244,10.31119 -7.53608,8.24567 -9.76342,14.53574 -9.79349,27.65708 -0.0238,10.37299 0.0275,10.60361 4.24008,19.06591 8.39343,16.86086 23.64786,28.5986 41.58871,32.00101 6.62798,1.25697 20.34302,1.17976 26.84792,-0.15114 9.3409,-1.91115 22.62507,-9.05411 30.64146,-16.47606 12.32902,-11.41479 19.6056,-23.41293 24.3507,-40.15122 3.09397,-10.9139 3.09638,-30.21225 0.005,-42.10181 -2.92353,-11.24496 -9.1457,-24.17451 -15.83914,-32.91338 -17.94974,-23.43498 -49.77715,-38.30674 -81.85907,-38.2497 -12.73825,0.0226 -20.08335,1.28685 -40.44599,6.96134 -30.626,8.53459 -43.66508,9.58588 -67.55401,5.4466 -43.59334,-7.5535 -81.92813,-40.6036 -95.42054,-82.26623 -4.52257,-13.96505 -5.58489,-21.3137 -5.51718,-38.16532 0.0539,-13.41339 0.42365,-16.91351 2.74665,-26 5.00948,-19.59477 13.48666,-34.09772 28.64121,-49 18.80002,-18.48708 39.63184,-27.60614 65.54986,-28.69425 31.0226,-1.30242 59.11149,12.21521 74.91456,36.05222 6.94761,10.47964 9.99953,18.16475 12.195,30.70856 1.49761,8.55658 1.60028,11.47293 0.66481,18.88421 -2.16065,17.11976 -8.25454,29.95819 -19.7741,41.66001 C 694.74488,612.53604 682.25241,618 668.0286,618 c -13.45505,0 -25.01224,-4.27494 -33.27967,-12.30995 -11.09339,-10.78155 -15.17991,-24.15573 -11.07993,-36.26191 3.46129,-10.22028 10.31782,-15.80491 19.49804,-15.8811 4.70541,-0.0391 6.11917,0.37718 8.33151,2.45296 2.57997,2.42072 2.64279,2.74497 1.98108,10.22505 -0.67668,7.64932 -0.65372,7.75471 2.34157,10.75 5.13079,5.13079 13.4278,4.00643 20.54833,-2.78459 10.88415,-10.38046 11.61324,-28.02732 1.70289,-41.21676 -8.63609,-11.49355 -21.61754,-17.99425 -35.84342,-17.94925 -10.09925,0.0319 -14.93278,1.21148 -25.229,6.15668 -15.24354,7.32137 -28.38811,23.45054 -33.48606,41.08939 -1.96194,6.78829 -2.26154,25.52822 -0.53066,33.19294 6.46701,28.63738 29.36664,52.03873 59.32184,60.62157 11.28198,3.23254 30.45924,3.68442 43.33054,1.02103 18.72805,-3.87531 33.84443,-11.81143 47.68514,-25.03477 C 750.65,615.51508 758.24411,600.82795 768.00061,565 c 4.65045,-17.07746 7.58912,-25.01322 12.67058,-34.21646 15.84927,-28.70527 44.74541,-52.38685 76.04253,-62.32 57.3891,-18.2143 123.37544,13.79848 142.30141,69.03646 5.15047,15.03223 6.32017,34.54096 3.07477,51.28253 -3.6548,18.85384 -11.18313,33.83559 -23.67506,47.11459 -13.23624,14.0702 -28.44167,22.35347 -46.96271,25.58327 -14.13844,2.46553 -24.16671,1.65736 -38.45213,-3.09886 -33.05989,-11.00702 -51.20634,-41.26034 -44.42909,-74.0711 4.08584,-19.78083 15.27676,-32.51359 32.42909,-36.89703 8.0877,-2.06689 19.83604,-1.46943 26.12222,1.32844 18.20816,8.10413 21.69842,38.06435 4.49117,38.55211 -2.65512,0.0753 -4.39785,-0.76994 -7.65498,-3.71256 -3.81486,-3.4465 -4.61038,-3.75729 -8.33782,-3.25745 -2.90973,0.3902 -4.92869,1.45692 -6.87059,3.63009 -2.34768,2.62729 -2.75,3.94883 -2.75,9.03323 0,10.61397 6.11889,21.01234 15.01836,25.52204 15.05098,7.62691 32.82851,3.75265 46.66591,-10.16991 11.003,-11.07072 16.05759,-25.01181 14.98831,-41.33939 -0.9435,-14.40693 -7.06288,-28.01584 -17.38743,-38.66797 C 930.28278,512.85367 911.86758,505 890.57647,505 c -14.2033,0 -23.60407,2.28864 -37.21663,9.06047 -16.05142,7.98509 -29.88976,21.9965 -38.30306,38.78211 -11.70182,23.34661 -13.3316,56.01241 -3.99773,80.12634 5.56095,14.36663 12.75156,23.88245 38.93933,51.53108 19.78147,20.88497 29.1974,35.51457 35.39921,55 7.69557,24.17868 7.52106,54.61646 -0.45128,78.7115 -15.99259,48.3348 -59.23967,80.01986 -108.80678,79.7175 -7.38147,-0.045 -14.98605,-0.77412 -20.78735,-1.993 z m -238.78789,330.3571 c -0.54268,-1.4252 -0.42782,-1.54 0.5598,-0.5598 0.68342,0.6784 0.99067,1.4853 0.68278,1.7932 -0.30789,0.3078 -0.86705,-0.2472 -1.24258,-1.2334 z m -47,-64 c -0.54268,-1.4252 -0.42782,-1.54 0.5598,-0.5598 0.68342,0.6784 0.99067,1.4853 0.68278,1.7932 -0.30789,0.3078 -0.86705,-0.2472 -1.24258,-1.2334 z M 1086,1151.059 c 0,-0.5175 0.4448,-1.2159 0.9885,-1.5519 0.5669,-0.3504 0.7346,0.051 0.3931,0.941 -0.6648,1.7324 -1.3816,2.0493 -1.3816,0.6109 z m -630.54112,-11.1255 c -0.36253,-0.5866 -0.44468,-1.281 -0.18255,-1.5432 0.26212,-0.2621 0.74306,0.2179 1.06875,1.0666 0.67618,1.7621 0.0999,2.072 -0.8862,0.4766 z M 1100,1128.059 c 0,-0.5175 0.4448,-1.2159 0.9885,-1.5519 0.5669,-0.3504 0.7346,0.051 0.3931,0.941 -0.6648,1.7324 -1.3816,2.0493 -1.3816,0.6109 z m 14,-25 c 0,-0.5175 0.4448,-1.2159 0.9885,-1.5519 0.5669,-0.3504 0.7346,0.051 0.3931,0.941 -0.6648,1.7324 -1.3816,2.0493 -1.3816,0.6109 z m -686.43571,-12.7659 c -0.54268,-1.4252 -0.42782,-1.54 0.5598,-0.5598 0.68342,0.6784 0.99067,1.4853 0.68278,1.7932 -0.30789,0.3078 -0.86705,-0.2472 -1.24258,-1.2334 z M 1128.0306,1075.5 c 0,-0.55 0.4362,-1.675 0.9694,-2.5 0.5332,-0.825 0.9694,-1.05 0.9694,-0.5 0,0.55 -0.4362,1.675 -0.9694,2.5 -0.5332,0.825 -0.9694,1.05 -0.9694,0.5 z m -714.40706,-14.0387 c -0.96498,-2.5147 -0.68031,-3.1635 0.49853,-1.1363 0.58369,1.0038 0.8506,2.0357 0.59313,2.2931 -0.25747,0.2575 -0.74872,-0.2631 -1.09166,-1.1568 z M 1142.0856,1044 c -0.03,-0.825 0.3812,-2.175 0.9144,-3 1.1813,-1.828 1.1813,-0.2491 0,2.5 -0.5667,1.3187 -0.8782,1.4891 -0.9144,0.5 z m -742.35439,-13.9198 c -0.43497,-1.6634 -0.30483,-2.0538 0.43724,-1.3118 0.5811,0.5812 0.85979,1.6469 0.61931,2.3683 -0.24965,0.749 -0.70294,0.2957 -1.05655,-1.0565 z m 747.29939,1.4198 c 0,-0.55 0.4362,-1.675 0.9694,-2.5 0.5332,-0.825 0.9694,-1.05 0.9694,-0.5 0,0.55 -0.4362,1.675 -0.9694,2.5 -0.5332,0.825 -0.9694,1.05 -0.9694,0.5 z m 5.0483,-13.0833 c 0.048,-1.165 0.285,-1.4019 0.6042,-0.6042 0.2889,0.7219 0.2534,1.5844 -0.079,1.9167 -0.3323,0.3323 -0.5687,-0.2584 -0.5253,-1.3125 z m -757.45536,-0.9554 c -0.96498,-2.5147 -0.68031,-3.1635 0.49853,-1.1363 0.58369,1.0038 0.8506,2.0357 0.59313,2.2931 -0.25747,0.2575 -0.74872,-0.2631 -1.09166,-1.1568 z M 1156.0306,1007.5 c 0,-0.55 0.4362,-1.675 0.9694,-2.5 0.5332,-0.825 0.9694,-1.05 0.9694,-0.5 0,0.55 -0.4362,1.675 -0.9694,2.5 -0.5332,0.825 -0.9694,1.05 -0.9694,0.5 z M 385.62354,993.46134 c -0.96498,-2.51469 -0.68031,-3.16355 0.49853,-1.13634 0.58369,1.00375 0.8506,2.03566 0.59313,2.29313 -0.25747,0.25747 -0.74872,-0.26309 -1.09166,-1.15679 z M 1161.0306,993.5 c 0,-0.55 0.4362,-1.675 0.9694,-2.5 0.5332,-0.825 0.9694,-1.05 0.9694,-0.5 0,0.55 -0.4362,1.675 -0.9694,2.5 -0.5332,0.825 -0.9694,1.05 -0.9694,0.5 z M 380.62354,979.46134 c -0.96498,-2.51469 -0.68031,-3.16355 0.49853,-1.13634 0.58369,1.00375 0.8506,2.03566 0.59313,2.29313 -0.25747,0.25747 -0.74872,-0.26309 -1.09166,-1.15679 z m -4.54459,-14.04467 c 0.048,-1.16495 0.28494,-1.4019 0.60416,-0.60417 0.28887,0.72187 0.25335,1.58438 -0.0789,1.91667 -0.33229,0.33229 -0.56864,-0.25834 -0.52522,-1.3125 z M 1170.0856,963.5 c 0.1041,-1.89422 1.7708,-5.08385 1.8288,-3.5 0.03,0.825 -0.3812,2.175 -0.9144,3 -0.5332,0.825 -0.9446,1.05 -0.9144,0.5 z M 371.57143,950.42857 c -0.36782,-1.46551 -0.47591,-2.85742 -0.24019,-3.09314 0.23571,-0.23571 0.72951,0.77049 1.09733,2.236 0.36782,1.46551 0.47591,2.85742 0.24019,3.09314 -0.23571,0.23571 -0.72951,-0.77049 -1.09733,-2.236 z m 803.50747,-5.0119 c 0.048,-1.16495 0.285,-1.4019 0.6042,-0.60417 0.2889,0.72187 0.2534,1.58438 -0.079,1.91667 -0.3323,0.33229 -0.5687,-0.25834 -0.5253,-1.3125 z m 1,-4 c 0.048,-1.16495 0.285,-1.4019 0.6042,-0.60417 0.2889,0.72187 0.2534,1.58438 -0.079,1.91667 -0.3323,0.33229 -0.5687,-0.25834 -0.5253,-1.3125 z M 366.5,932 c -0.37968,-1.72866 -0.48187,-3.35146 -0.22711,-3.60623 0.25477,-0.25477 0.75072,0.97429 1.10211,2.73123 0.83365,4.16825 0.0258,4.97614 -0.875,0.875 z m 813.6579,-8 c 0,-1.375 0.227,-1.9375 0.5044,-1.25 0.2774,0.6875 0.2774,1.8125 0,2.5 -0.2774,0.6875 -0.5044,0.125 -0.5044,-1.25 z M 362.15789,913 c 0,-1.375 0.22698,-1.9375 0.50439,-1.25 0.27741,0.6875 0.27741,1.8125 0,2.5 -0.27741,0.6875 -0.50439,0.125 -0.50439,-1.25 z m 823.03701,-13.5 c 0.02,-1.65 0.2445,-2.20394 0.4981,-1.23097 0.2535,0.97297 0.2369,2.32297 -0.037,3 -0.2739,0.67703 -0.4813,-0.11903 -0.461,-1.76903 z m -827.99995,-11 c 0.0204,-1.65 0.2445,-2.20394 0.49804,-1.23097 0.25354,0.97297 0.23687,2.32297 -0.0371,3 -0.27393,0.67703 -0.48137,-0.11903 -0.46099,-1.76903 z M 1189.1891,875 c -0.023,-1.375 0.3195,-4.525 0.7599,-7 0.6004,-3.37449 0.8176,-3.74966 0.8682,-1.5 0.037,1.65 -0.3048,4.8 -0.7598,7 -0.5179,2.5038 -0.8427,3.06488 -0.8683,1.5 z M 352.5,862 c -0.39084,-3.36749 -0.49807,-6.33527 -0.23829,-6.59505 0.25979,-0.25978 0.78487,2.29014 1.16686,5.66648 0.38199,3.37634 0.48922,6.34411 0.23829,6.59505 C 353.41592,867.91741 352.89084,865.36749 352.5,862 Z m 841.8201,-36 c 0,-3.575 0.1815,-5.0375 0.4033,-3.25 0.2218,1.7875 0.2218,4.7125 0,6.5 -0.2218,1.7875 -0.4033,0.325 -0.4033,-3.25 z m -845.98389,-7 c 0,-4.125 0.17651,-5.8125 0.39226,-3.75 0.21574,2.0625 0.21574,5.4375 0,7.5 -0.21575,2.0625 -0.39226,0.375 -0.39226,-3.75 z M 1199.4631,433.5 c 2e-4,-26.95 0.129,-37.83127 0.2862,-24.1806 0.1573,13.65067 0.1571,35.70067 -3e-4,49 -0.1574,13.29933 -0.2861,2.1306 -0.2859,-24.8194 z m -856.00071,-12 c 1.9e-4,-26.4 0.12931,-37.05639 0.28692,-23.68087 0.15761,13.37553 0.15745,34.97553 -3.6e-4,48 -0.1578,13.02448 -0.28676,2.08087 -0.28656,-24.31913 z"
         id="path18" />
      <path
         style="fill:#010101"
         d="m 763,1410.9663 c -17.62351,-5.0243 -21.11483,-6.1075 -29,-8.9973 -9.18682,-3.3668 -26.35272,-11.1228 -32,-14.4584 -1.925,-1.137 -5.1875,-2.9444 -7.25,-4.0164 -2.0625,-1.0719 -3.75,-2.2967 -3.75,-2.7216 0,-0.4249 -0.52661,-0.7726 -1.17024,-0.7726 -1.0281,0 -21.52951,-12.5298 -22.82976,-13.9528 -0.275,-0.301 -4.325,-3.1579 -9,-6.3487 -15.11629,-10.3172 -29.39721,-20.9781 -36.6167,-27.3348 -1.16418,-1.025 -3.56663,-2.9741 -5.33877,-4.3313 -1.77213,-1.3572 -4.2294,-3.3822 -5.46059,-4.5 -1.23119,-1.1178 -5.33504,-4.7324 -9.11966,-8.0324 -21.11514,-18.4113 -51.02313,-48.8274 -65.3891,-66.5 -2.9061,-3.575 -6.05544,-7.175 -6.99854,-8 C 526.65204,1238.879 518,1228.4205 518,1227.6106 c 0,-0.3705 -4.275,-5.8088 -9.5,-12.085 -5.225,-6.2762 -9.5,-11.8319 -9.5,-12.346 0,-0.5141 -0.73465,-1.5444 -1.63256,-2.2896 -0.89791,-0.7452 -2.58541,-2.7848 -3.75,-4.5324 -1.16459,-1.7476 -5.82994,-8.4206 -10.36744,-14.8288 -4.5375,-6.4082 -8.25,-12.004 -8.25,-12.4351 0,-0.431 -0.9,-1.5982 -2,-2.5937 -1.1,-0.9955 -2,-2.2008 -2,-2.6784 0,-0.4776 -2.25,-4.1374 -5,-8.1329 -2.75,-3.9955 -5,-7.7549 -5,-8.3542 0,-0.5993 -0.701,-1.6714 -1.55778,-2.3824 -0.85677,-0.7111 -2.2309,-2.6787 -3.05362,-4.3725 -2.12083,-4.3663 -4.94782,-9.3391 -6.14971,-10.8177 -0.56417,-0.694 -1.97372,-2.9494 -3.13233,-5.0119 -1.15861,-2.0625 -3.08229,-5.4375 -4.27485,-7.5 -4.76818,-8.2465 -10.93987,-19.9721 -22.50118,-42.75 -0.55832,-1.1 -2.01946,-4.25 -3.24698,-7 -1.22752,-2.75 -3.32348,-7.3625 -4.6577,-10.25 -1.33422,-2.8875 -3.61269,-7.8375 -5.06326,-11 -1.45058,-3.1625 -3.47558,-7.4142 -4.5,-9.4481 -1.02443,-2.034 -1.86259,-4.3505 -1.86259,-5.1479 0,-0.7974 -1.11958,-3.4083 -2.48795,-5.8019 -1.36838,-2.3937 -2.49338,-5.1546 -2.5,-6.1353 -0.007,-0.9808 -1.13705,-4.0034 -2.51205,-6.7168 -1.375,-2.7134 -2.5,-5.6114 -2.5,-6.44 0,-0.8286 -0.84348,-3.431 -1.8744,-5.7832 -1.03093,-2.35226 -2.41244,-5.8518 -3.07003,-7.7768 -4.02885,-11.7938 -9.12531,-27.47789 -10.88565,-33.5 -8.03952,-27.50321 -10.72989,-37.61237 -12.64126,-47.5 -0.69108,-3.575 -1.97318,-9.425 -2.84912,-13 -0.87595,-3.575 -2.05947,-9.425 -2.63005,-13 -0.57059,-3.575 -1.46369,-8.75 -1.98466,-11.5 -0.52098,-2.75 -1.69226,-10.4 -2.60285,-17 -0.91058,-6.6 -2.06271,-14.925 -2.56028,-18.5 -2.07544,-14.91206 -4.58673,-172.19422 -5.71657,-358.02872 -0.43647,-71.7908 -1.05341,-130.9658 -1.37098,-131.5 -0.31757,-0.5342 -0.88385,-33.46634 -1.25839,-73.18252 -0.62839,-66.63316 -0.5474,-72.69702 1.0484,-78.5 2.94752,-10.71832 8.15006,-16.36959 21.89584,-23.78439 3.3,-1.7801 8.25,-4.48084 11,-6.00163 14.78493,-8.17633 34.88741,-17.76624 55.5,-26.47635 7.425,-3.13752 14.85,-6.30137 16.5,-7.03077 3.35577,-1.48345 6.66645,-2.68907 31,-11.28899 9.35,-3.30446 22.625,-7.6687 29.5,-9.6983 6.875,-2.0296 14.075,-4.2563 16,-4.94822 1.925,-0.69191 6.425,-1.84299 10,-2.55794 3.575,-0.71495 7.28509,-1.69746 8.24465,-2.18336 5.49427,-2.78217 62.55669,-14.265884 88.75535,-17.861857 7.975,-1.094631 16.525,-2.412471 19,-2.928532 2.475,-0.516061 12.375,-1.638789 22,-2.494953 9.625,-0.856163 21.1,-2.007272 25.5,-2.558021 31.44947,-3.936532 151.01929,-3.945604 175,-0.01328 3.3,0.54113 14.775,1.704761 25.5,2.585847 10.725,0.881085 21.3,2.007595 23.5,2.503355 2.2,0.49576 10.975,1.798939 19.5,2.895953 30.99993,3.989135 69.9323,11.66764 101.5,20.018548 6.6,1.74596 15.15,3.98934 19,4.98529 6.9285,1.79231 9.0067,2.41443 27.5,8.23207 10.0572,3.1638 19.4662,6.45386 29.7698,10.40965 3.4484,1.32392 6.7158,2.40712 7.2609,2.40712 0.5451,0 2.8987,0.85994 5.2302,1.91097 2.3315,1.05103 11.4391,4.9444 20.2391,8.65191 16.8354,7.09293 34.9515,16.07388 39.2601,19.46308 4.4038,3.46398 7.8857,9.23043 9.6456,15.97404 1.8974,7.27066 1.9139,-5.32813 -0.2483,189.5 -0.6409,57.75 -1.6595,151.125 -2.2635,207.5 -1.8603,173.6213 -2.814,238.88613 -3.7192,254.5 -0.8682,14.97541 -3.8111,39.42741 -6.6797,55.5 -0.8344,4.675 -1.9091,11.425 -2.3883,15 -1.3545,10.10592 -9.5258,44.99656 -15.1058,64.5 -1.1014,3.85 -2.8866,10.15 -3.967,14 -1.0804,3.85 -3.5776,11.5 -5.5494,17 -1.9717,5.5 -3.941,11.35 -4.3761,13 -0.4351,1.65 -1.5375,4.4402 -2.4498,6.2003 -0.9122,1.7602 -1.6586,3.9127 -1.6586,4.7833 0,0.8706 -1.125,3.803 -2.5,6.5164 -1.375,2.7134 -2.5023,5.736 -2.5051,6.7168 0,0.9807 -1.1138,3.5832 -2.4688,5.7832 -1.355,2.2 -2.4777,4.8108 -2.4949,5.8019 -0.017,0.991 -0.8797,3.466 -1.9168,5.5 -2.5427,4.9868 -6.1746,12.6955 -11.6365,24.6981 -4.774,10.4908 -8.2313,17.4152 -15.7279,31.5 -8.1466,15.306 -9.9157,18.4801 -11.1476,20 -0.6686,0.825 -1.7494,2.625 -2.4018,4 -1.3595,2.8656 -2.8121,5.243 -5.8042,9.5 -1.1597,1.65 -2.4099,3.9532 -2.778,5.1181 -0.3682,1.165 -1.558,2.9222 -2.6439,3.905 -1.086,0.9828 -1.9745,2.1584 -1.9745,2.6125 0,0.454 -1.6875,3.37 -3.75,6.4799 -2.0625,3.1098 -4.2,6.3414 -4.75,7.1814 -3.6304,5.5439 -15.1479,22.2122 -19.1775,27.7539 -5.5269,7.6009 -40.4796,50.42 -44.8885,54.9911 -1.6137,1.6731 -6.7522,7.2404 -11.4188,12.3719 -14.66392,16.1244 -39.05833,39.562 -55.91966,53.7263 -1.87245,1.5729 -5.02245,4.2498 -7,5.9486 -5.64148,4.8463 -27.31151,21.7947 -30.20523,23.6239 -1.43533,0.9073 -3.23533,2.2431 -4,2.9685 -0.76467,0.7254 -3.41531,2.6621 -5.89031,4.3037 -2.475,1.6417 -7.26979,5.0167 -10.65509,7.5 -3.3853,2.4834 -7.4353,5.2512 -9,6.1508 -1.5647,0.8997 -6.83187,4.2011 -11.70482,7.3366 -4.87294,3.1355 -10.72294,6.7115 -13,7.9466 -5.8771,3.1879 -14.49215,7.9442 -18.94954,10.462 -2.09519,1.1835 -6.82019,3.8537 -10.5,5.9339 -9.96978,5.6358 -28.80062,13.7189 -36.25444,15.5621 -8.41035,2.0798 -17.71794,1.9325 -25.93611,-0.4105 z m 32.48573,-16.9266 c 10.89275,-4.3735 18.95124,-8.3151 32.51427,-15.9038 6.325,-3.5389 13.525,-7.5668 16,-8.951 2.475,-1.3841 5.85,-3.3294 7.5,-4.3228 1.65,-0.9935 4.35,-2.5555 6,-3.4713 1.65,-0.9157 6.27118,-3.8533 10.26929,-6.5279 3.99812,-2.6746 7.5198,-4.8629 7.82596,-4.8629 0.30616,0 3.10998,-1.9238 6.23071,-4.2752 3.12072,-2.3514 7.69904,-5.6139 10.17404,-7.25 2.475,-1.6361 5.12564,-3.5683 5.89031,-4.2937 0.76467,-0.7254 2.56467,-2.0612 4,-2.9685 2.86383,-1.8103 25.80255,-19.8046 27.94625,-21.9224 0.73511,-0.7263 2.97026,-2.5512 4.96701,-4.0553 1.99674,-1.5042 4.35397,-3.4099 5.23828,-4.2349 0.8843,-0.825 5.38427,-4.875 9.99992,-9 16.30968,-14.5759 33.14034,-31.0746 44.9734,-44.0862 4.66665,-5.1315 9.80453,-10.6988 11.41763,-12.3719 3.0486,-3.1621 29.1888,-34.6808 33.5672,-40.4739 1.375,-1.8192 4.4125,-5.7224 6.75,-8.6737 2.3375,-2.9513 4.25,-5.744 4.25,-6.2059 0,-0.4619 1.125,-1.8967 2.5,-3.1884 1.375,-1.2917 2.5,-2.8754 2.5,-3.5193 0,-0.6439 0.9,-1.9852 2,-2.9807 1.1,-0.9955 2,-2.3368 2,-2.9807 0,-0.6439 1.125,-2.2276 2.5,-3.5193 1.375,-1.2917 2.5,-2.6917 2.5,-3.1111 0,-0.4194 2.025,-3.7203 4.5,-7.3354 2.475,-3.6151 4.5,-6.7312 4.5,-6.9247 0,-0.1934 2.1375,-3.6865 4.75,-7.7624 2.6125,-4.0759 5.2923,-8.3008 5.955,-9.3886 1.3006,-2.1346 6.9867,-11.7189 8.886,-14.9778 2.0696,-3.5512 9.9342,-17.8879 12.0684,-22 0.5709,-1.1 1.7783,-3.35 2.6831,-5 1.8638,-3.3989 8.0375,-15.9893 10.7877,-22 1.0066,-2.2 4.0891,-8.8525 6.85,-14.7833 2.7609,-5.9307 5.0198,-11.2062 5.0198,-11.7232 0,-0.517 0.849,-2.8645 1.8866,-5.2167 2.1049,-4.7716 5.7331,-13.4685 9.0849,-21.7768 1.2203,-3.025 2.6096,-7.1045 3.0872,-9.0655 0.4777,-1.961 1.5571,-4.88602 2.3987,-6.5 0.8417,-1.61397 1.5331,-3.74669 1.5364,-4.73936 0,-0.99268 0.9175,-3.80519 2.0312,-6.25003 1.1138,-2.44484 2.2846,-5.90765 2.6019,-7.69514 0.3172,-1.78748 1.4348,-5.63956 2.4834,-8.56017 1.0487,-2.92061 2.3098,-6.97061 2.8026,-9 0.4928,-2.02939 2.678,-10.6648 4.856,-19.1898 7.0572,-27.62189 10.2228,-44.35292 14.9473,-79 4.3893,-32.18949 4.4727,-35.53409 7.1777,-288 0.604,-56.375 1.6226,-149.75 2.2635,-207.5 2.1159,-190.65136 2.1066,-182.12243 0.2027,-186.3006 -0.9271,-2.03467 -2.6249,-4.50708 -3.7729,-5.49424 -1.8476,-1.58883 -22.1837,-11.86511 -31.5872,-15.96178 -10.1635,-4.42776 -18.3684,-7.82748 -26,-10.77321 -4.675,-1.80451 -9.85,-3.84341 -11.5,-4.5309 -1.65,-0.68749 -5.025,-1.82135 -7.5,-2.51971 -2.475,-0.69835 -4.96,-1.61095 -5.5222,-2.028 -0.5621,-0.41705 -4.2685,-1.65787 -8.2362,-2.75739 -3.9677,-1.09952 -7.721,-2.31244 -8.3406,-2.69538 -0.6196,-0.38294 -4.1133,-1.52519 -7.7638,-2.53834 -3.6505,-1.01315 -11.5872,-3.24007 -17.6372,-4.9487 -30.6615,-8.65939 -59.3216,-15.14329 -88,-19.90861 -6.6,-1.09669 -14.025,-2.45294 -16.5,-3.0139 -2.475,-0.56096 -11.7,-1.9565 -20.5,-3.101186 -8.8,-1.144689 -18.925,-2.489087 -22.5,-2.987551 -3.575,-0.498464 -14.825,-1.623812 -25,-2.500773 -10.175,-0.876961 -23,-2.078898 -28.5,-2.67097 -13.91148,-1.497565 -132.36552,-1.523295 -148,-0.03215 -6.6,0.629479 -19.425,1.832209 -28.5,2.672734 -9.075,0.840525 -19.875,1.958415 -24,2.4842 -25.59122,3.261936 -38.93242,5.185316 -42,6.055056 -1.925,0.5458 -8.675,1.86917 -15,2.94083 -23.42445,3.96886 -61.28494,12.70202 -78.5,18.10734 -3.3,1.03616 -10.05,3.08088 -15,4.54382 -10.84766,3.20595 -25.16816,7.89497 -32,10.47788 -2.75,1.03969 -8.825,3.30176 -13.5,5.02682 -4.675,1.72506 -9.85,3.70329 -11.5,4.39606 -1.65,0.69277 -6.6,2.75646 -11,4.58597 -23.50263,9.77237 -47.56804,21.29316 -66.41179,31.7932 -14.9286,8.31846 -16.88311,9.84634 -19.25716,15.05371 -1.9459,4.26824 -1.97992,5.90378 -1.40384,67.5 0.3247,34.71917 1.03021,77.07577 1.56779,94.12577 0.53757,17.05 1.23297,82.525 1.54532,145.5 0.59684,120.33521 1.61961,204.53317 3.39512,279.5 1.0489,44.28762 1.33059,48.55101 4.45985,67.5 0.86286,5.225 1.57691,11.11552 1.58677,13.09004 0.01,1.97452 0.91794,7.109 2.01794,11.40996 1.1,4.30096 2,9.49136 2,11.53424 0,2.04287 0.69182,5.67514 1.53738,8.07171 0.84556,2.39658 2.16532,7.74065 2.9328,11.87573 1.65182,8.89983 6.74725,27.89034 12.88401,48.01832 4.54379,14.90319 5.52895,17.88391 8.76491,26.51933 1.03449,2.76063 1.8809,5.58809 1.8809,6.28324 0,0.69515 1.125,3.484 2.5,6.19743 1.375,2.71343 2.5,5.6384 2.5,6.5 0,0.8616 1.125,3.7866 2.5,6.5 1.375,2.7134 2.49875,5.511 2.49722,6.2168 -0.002,0.7057 0.87164,3.0832 1.94037,5.2832 1.06873,2.2 5.63091,12.325 10.13817,22.5 4.50726,10.175 9.99022,22.1 12.18434,26.5 4.04907,8.1198 4.44037,8.877 8.28844,16.0381 1.19344,2.221 2.68325,5.0335 3.31068,6.25 0.62743,1.2166 1.68153,3.2244 2.34244,4.4619 0.66092,1.2375 1.91737,3.6242 2.79211,5.3037 0.87474,1.6795 2.49343,4.3795 3.59709,6 1.10366,1.6205 2.56503,4.0713 3.24749,5.4463 0.68246,1.375 1.78552,3.4038 2.45124,4.5084 0.66573,1.1047 4.55502,7.6297 8.64288,14.5 4.08786,6.8704 8.25036,13.4206 9.25,14.5561 0.99964,1.1354 1.81753,2.3987 1.81753,2.8073 0,0.4086 2.025,3.6401 4.5,7.181 2.475,3.541 4.5,6.8117 4.5,7.2684 0,0.4566 1.125,1.8871 2.5,3.1788 1.375,1.2917 2.5,2.8667 2.5,3.5 0,0.6333 1.125,2.2083 2.5,3.5 1.375,1.2917 2.5,2.7677 2.5,3.28 0,0.5122 1.0125,2.2008 2.25,3.7523 1.2375,1.5516 4.48445,5.8915 7.21545,9.6444 2.731,3.7528 7.9319,10.4233 11.55757,14.8233 3.62566,4.4 7.97877,10.025 9.67358,12.5 1.69481,2.475 4.71256,6.1715 6.70611,8.2145 1.99354,2.043 5.94925,6.543 8.79046,10 15.16107,18.4471 45.98376,49.5893 67.74095,68.4431 2.43877,2.1133 5.43632,4.757 6.66123,5.8748 1.22491,1.1178 3.67705,3.1428 5.44918,4.5 1.77214,1.3572 4.17459,3.3063 5.33877,4.3313 7.21949,6.3567 21.50041,17.0176 36.6167,27.3348 4.675,3.1908 8.725,6.0635 9,6.3837 0.6902,0.8036 14.62695,9.4239 19.43731,12.0226 2.16552,1.1698 4.56017,2.7498 5.32143,3.5111 0.76126,0.7612 1.96629,1.3841 2.67783,1.3841 0.71154,0 2.40432,0.8736 3.76172,1.9413 1.35741,1.0678 4.4556,2.7243 6.88486,3.6812 2.42927,0.9569 4.64185,1.9965 4.91685,2.3102 2.04854,2.3372 22.40717,9.9864 41.5,15.5925 4.95,1.4534 9.45,2.8234 10,3.0444 0.55,0.221 5.05,0.2386 10,0.039 7.24928,-0.2922 10.55342,-0.9865 16.98573,-3.569 z M 763,1369.0956 c -6.875,-2.0799 -14.975,-4.7982 -18,-6.0408 -3.025,-1.2425 -7.075,-2.8615 -9,-3.5976 -9.7112,-3.7139 -34.2363,-17.8557 -52.5,-30.273 -36.41932,-24.761 -74.89911,-58.1755 -103.69242,-90.0428 -21.80461,-24.1325 -27.06341,-30.1585 -31.5402,-36.1414 -2.2635,-3.025 -7.41214,-9.5951 -11.44142,-14.6002 -31.68378,-39.3571 -69.22795,-101.595 -91.02478,-150.894 -2.18716,-4.9469 -4.56426,-10.1219 -5.28243,-11.5 -3.96593,-7.6107 -10.52338,-23.9868 -18.02152,-45.0058 -1.47152,-4.125 -3.48594,-9.75 -4.47649,-12.5 -0.99055,-2.75 -2.78383,-8.375 -3.98508,-12.5 -1.20124,-4.125 -3.07188,-10.2 -4.15696,-13.5 -1.08509,-3.3 -2.39923,-7.97202 -2.9203,-10.38226 -0.52108,-2.41024 -1.8017,-6.91024 -2.84583,-10 -5.37151,-15.89515 -13.9562,-63.24211 -16.52433,-91.13632 -2.52673,-27.44448 -2.62023,-30.97776 -3.63808,-137.48142 -0.55192,-57.75 -1.74639,-159.9 -2.65438,-227 -0.908,-67.1 -1.80536,-151.80585 -1.99414,-188.23522 l -0.34324,-66.23521 4.7708,-2.9938 c 7.33615,-4.60361 43.12172,-22.15477 58.7708,-28.82434 25.22699,-10.75163 51.34776,-20.4964 69.5,-25.9281 4.675,-1.3989 12.1,-3.627 16.5,-4.95133 22.70313,-6.8333 59.42981,-15.35401 83.18876,-19.30005 6.15382,-1.02206 12.05763,-2.13407 13.11958,-2.47112 3.19033,-1.01257 29.3826,-4.39927 50.69166,-6.5545 11,-1.11256 23.375,-2.46584 27.5,-3.00731 17.58521,-2.30829 55.17485,-3.27309 100,-2.56665 25.025,0.39439 49.1,1.08744 53.5,1.54013 4.4,0.45268 16.1,1.55021 26,2.43894 9.9,0.88874 21.375,2.07265 25.5,2.63091 4.125,0.55826 12.45,1.65422 18.5,2.43547 10.55559,1.36307 14.88673,2.0637 40.5,6.55149 34.5469,6.05308 65.1445,13.1432 95.5,22.12939 7.7884,2.30563 41.4851,13.47313 44.8495,14.86369 1.1828,0.48886 5.3005,2.09504 9.1505,3.56929 10.3634,3.96839 26.6996,10.95099 37.75,16.13559 l 9.75,4.57448 -0.014,26.59912 c -0.015,30.14323 -2.5767,275.49874 -3.5191,337.09913 -0.3407,22.275 -1.0115,88.425 -1.4906,147 -0.7794,95.29064 -1.0906,108.95337 -2.9566,129.80946 -1.1471,12.82021 -2.7716,26.99521 -3.6099,31.5 -0.8384,4.5048 -1.9444,11.9239 -2.4579,16.4869 -0.5134,4.56299 -1.8377,11.83797 -2.9429,16.16661 -1.1052,4.32864 -2.0095,9.2012 -2.0095,10.82792 0,1.62671 -0.6797,4.88423 -1.5105,7.23892 -0.8308,2.3547 -1.8942,6.57378 -2.3632,9.37573 -1.5656,9.35387 -14.836,54.2715 -20.8564,70.59446 -1.3185,3.575 -3.3004,8.975 -4.4042,12 -4.572,12.5304 -20.6075,48.4209 -29.4882,66 -15.284,30.2546 -40.2908,70.8246 -57.8012,93.7745 -3.892,5.101 -8.6513,11.4231 -10.5763,14.0491 -19.4253,26.4994 -72.15263,82.0625 -97,102.2168 -19.38082,15.7202 -32.1825,25.8136 -37.59096,29.6382 -3.24997,2.2982 -9.32598,6.6155 -13.50224,9.5939 -14.11418,10.066 -38.61155,24.7593 -65.9068,39.5305 -8.22389,4.4505 -20.79324,9.6325 -25.5,10.513 -1.96071,0.3667 -7.33039,-0.7489 -15.5,-3.2204 z m 22.64055,-10.1514 c 7.55425,-3.0009 10.71555,-4.6645 38.85945,-20.4494 13.46771,-7.5535 26.14653,-15.6262 41,-26.1049 3.85,-2.7161 9.22023,-6.5025 11.93385,-8.4141 4.64661,-3.2734 19.67798,-15.185 36.55433,-28.9673 26.58859,-21.714 75.5148,-73.2806 96.01182,-101.1932 1.925,-2.6215 6.6812,-8.9398 10.5692,-14.0408 17.5342,-23.004 44.0376,-65.9709 58.1517,-94.2745 7.0949,-14.2278 23.2576,-50.8463 27.1448,-61.5 1.1038,-3.025 3.0857,-8.425 4.4042,-12 5.3374,-14.47122 17.7006,-55.72453 19.9295,-66.5 0.5688,-2.75 1.8816,-7.99486 2.9174,-11.65524 1.0358,-3.66038 1.8832,-7.8604 1.8832,-9.33338 0,-1.47299 0.9043,-6.21977 2.0095,-10.54841 1.1052,-4.32864 2.4295,-11.60362 2.9429,-16.16661 0.5135,-4.563 1.6195,-11.9821 2.4579,-16.4869 0.8383,-4.50479 2.4628,-18.67979 3.6098,-31.5 1.8669,-20.866 2.1807,-34.68319 2.9939,-131.80946 0.4996,-59.675 1.3669,-142.7 1.9274,-184.5 2.2195,-165.54006 3.3534,-313.60518 2.4089,-314.54974 -1.4965,-1.49642 -30.4874,-14.00527 -45.3503,-19.56749 -43.6558,-16.33751 -92.3148,-29.29753 -144,-38.35346 -25.61327,-4.48779 -29.94441,-5.18842 -40.5,-6.55149 -6.05,-0.78125 -14.375,-1.87721 -18.5,-2.43547 -4.125,-0.55826 -15.6,-1.73861 -25.5,-2.623 -9.9,-0.8844 -21.825,-1.99589 -26.5,-2.47 -4.675,-0.47411 -27.4,-1.17104 -50.5,-1.54873 -41.36568,-0.67635 -79.34234,0.34623 -96.5,2.5984 -4.125,0.54147 -16.5,1.89475 -27.5,3.00731 -21.30906,2.15523 -47.50133,5.54193 -50.69166,6.5545 -1.06195,0.33705 -6.96576,1.45254 -13.11958,2.47886 -24.4761,4.08207 -61.3568,12.62345 -83.18876,19.26609 -4.4,1.33875 -11.825,3.57865 -16.5,4.97755 -34.88919,10.43989 -93.70994,35.15477 -120.77216,50.74518 l -5.27216,3.03726 0.34604,61.71712 c 0.19032,33.94441 1.08829,116.61711 1.99549,183.71711 0.9072,67.1 2.10103,169.25 2.65295,227 1.01785,106.50366 1.11135,110.03694 3.63808,137.48142 2.56813,27.89421 11.15282,75.24117 16.52433,91.13632 1.04413,3.08976 2.32475,7.58976 2.84583,10 0.52107,2.41024 1.83521,7.08226 2.9203,10.38226 1.08508,3.3 2.95572,9.375 4.15696,13.5 1.20125,4.125 2.99453,9.75 3.98508,12.5 0.99055,2.75 3.00497,8.375 4.47649,12.5 7.75686,21.74424 7.73334,21.68594 18.5548,46 11.90314,26.7444 25.78665,54.396 35.14615,70 25.51283,42.5346 40.51973,64.9063 58.62778,87.3998 4.02928,5.0051 9.17792,11.5752 11.44142,14.6002 3.98638,5.3275 6.55764,8.3089 26.65428,30.9061 22.98504,25.8449 56.11993,56.4772 81.98331,75.7912 4.17727,3.1195 9.17003,6.8663 11.09503,8.3263 25.32355,19.2061 58.76455,37.9453 80,44.8292 5.225,1.6938 11.525,3.7343 14,4.5345 6.3231,2.0442 7.0246,1.9795 15.64055,-1.4431 z M 522.8125,94.316886 c 0.72187,-0.288871 1.58438,-0.253344 1.91667,0.07895 0.33229,0.332292 -0.25834,0.568641 -1.3125,0.52522 -1.16495,-0.04798 -1.4019,-0.284941 -0.60417,-0.604167 z M 546.75,90.337719 c 0.6875,-0.277412 1.8125,-0.277412 2.5,0 0.6875,0.277413 0.125,0.504386 -1.25,0.504386 -1.375,0 -1.9375,-0.226973 -1.25,-0.504386 z"
         id="path16" />
    </g>
  </g>
</svg>
