<?xml version="1.0" encoding="UTF-8" standalone="no"?>
<svg
   xmlns:dc="http://purl.org/dc/elements/1.1/"
   xmlns:cc="http://creativecommons.org/ns#"
   xmlns:rdf="http://www.w3.org/1999/02/22-rdf-syntax-ns#"
   xmlns:svg="http://www.w3.org/2000/svg"
   xmlns="http://www.w3.org/2000/svg"
   xmlns:sodipodi="http://sodipodi.sourceforge.net/DTD/sodipodi-0.dtd"
   xmlns:inkscape="http://www.inkscape.org/namespaces/inkscape"
   version="1.1"
   id="svg2"
   width="1043.9584"
   height="1045.8192"
   viewBox="0 0 1043.9584 1045.8192"
   sodipodi:docname="Snowshire.svg"
   inkscape:version="1.0.1 (3bc2e813f5, 2020-09-07)">
  <metadata
     id="metadata8">
    <rdf:RDF>
      <cc:Work
         rdf:about="">
        <dc:format>image/svg+xml</dc:format>
        <dc:type
           rdf:resource="http://purl.org/dc/dcmitype/StillImage" />
        <dc:title></dc:title>
      </cc:Work>
    </rdf:RDF>
  </metadata>
  <defs
     id="defs6" />
  <sodipodi:namedview
     pagecolor="#ffffff"
     bordercolor="#666666"
     borderopacity="1"
     objecttolerance="10"
     gridtolerance="10"
     guidetolerance="10"
     inkscape:pageopacity="0"
     inkscape:pageshadow="2"
     inkscape:window-width="1920"
     inkscape:window-height="1057"
     id="namedview4"
     showgrid="false"
     inkscape:pagecheckerboard="true"
     inkscape:zoom="0.49"
     inkscape:cx="519.95843"
     inkscape:cy="511.95843"
     inkscape:window-x="-8"
     inkscape:window-y="-8"
     inkscape:window-maximized="1"
     inkscape:current-layer="g10" />
  <g
     inkscape:groupmode="layer"
     inkscape:label="Image"
     id="g10"
     transform="translate(-230.04157,-238.04157)">
    <g
       id="g14">
      <path
         style="fill:#fbfcfb"
         d="m 275.00502,751.76463 c 0.007,-10.1038 2.57673,-38.21196 5.02651,-54.98048 7.32894,-50.16577 22.15844,-99.13912 43.38752,-143.28415 21.70165,-45.12772 55.53698,-92.45555 92.58119,-129.49976 37.04421,-37.04421 84.37204,-70.87954 129.49976,-92.58119 74.929,-36.0329 165.11366,-53.60368 240.84125,-46.92336 51.54219,4.5468 97.62379,15.36947 144.65875,33.9744 47.0571,18.61368 91.2429,45.73385 133.6481,82.02991 47.5347,40.68667 91.1049,97.2123 117.9328,153 28.484,59.23133 46.4191,130.95391 46.4191,185.63049 v 19.89773 l -63.75,-0.0883 -63.75,-0.0883 -22.5,-4.93612 c -12.375,-2.71487 -27,-5.87096 -32.5,-7.01354 -5.5,-1.14258 -10.675,-2.23682 -11.5,-2.43165 -2.0176,-0.47645 -24.4831,-5.3647 -29.5,-6.41888 -2.2,-0.46228 -8.725,-1.83539 -14.5,-3.05137 -5.775,-1.21598 -12.3,-2.58985 -14.5,-3.05304 -2.2,-0.4632 -10.4125,-2.21576 -18.25,-3.89457 -7.8375,-1.67881 -20.6625,-4.42597 -28.5,-6.10478 -19.73481,-4.22725 -22.54547,-4.8193 -28.25,-5.95074 -2.75,-0.54544 -6.8,-1.38867 -9,-1.87385 -2.2,-0.48518 -7.6,-1.61915 -12,-2.51993 -4.4,-0.90078 -9.8,-2.06163 -12,-2.57966 -2.2,-0.51803 -8.5,-1.87858 -14,-3.02343 -5.5,-1.14485 -11.8,-2.49485 -14,-3 -4.28687,-0.98432 -20.8935,-4.47943 -26.25,-5.5247 -2.73229,-0.53318 -3.25,-1.07567 -3.25,-3.40553 0,-1.52423 -0.39393,-4.07597 -0.87541,-5.67055 -0.48147,-1.59457 -1.40348,-5.37422 -2.0489,-8.39922 -0.64542,-3.025 -1.58314,-7.3 -2.08382,-9.5 -0.50067,-2.2 -1.84733,-8.5 -2.99256,-14 -1.14524,-5.5 -2.93467,-13.825 -3.97653,-18.5 -2.00449,-8.99457 -6.04,-27.69536 -11.0594,-51.25 -1.67014,-7.8375 -3.50164,-16.275 -4.07,-18.75 -2.23437,-9.72995 -2.80226,-12.35943 -11.98623,-55.5 -1.63922,-7.7 -3.41391,-15.9125 -3.94377,-18.25 -2.49606,-11.01149 -3.01649,-13.39693 -4.96338,-22.75 -1.14485,-5.5 -2.48967,-11.8 -2.98847,-14 -0.49881,-2.2 -1.87802,-8.5 -3.06491,-14 -8.33917,-38.64341 -7.24133,-35.57286 -9.29595,-26 -0.94437,4.4 -2.1521,9.9125 -2.68385,12.25 -0.53175,2.3375 -1.41682,6.275 -1.96682,8.75 -0.55,2.475 -1.43165,6.4125 -1.95922,8.75 -0.52758,2.3375 -1.89593,8.75 -3.04078,14.25 -1.14485,5.5 -2.49485,11.8 -3,14 -0.50515,2.2 -1.85515,8.5 -3,14 -1.94689,9.35307 -2.46732,11.73851 -4.96338,22.75 -0.52986,2.3375 -2.32986,10.6625 -4,18.5 -5.1077,23.96901 -9.07235,42.3346 -11.06352,51.25 -1.04412,4.675 -3.28169,15.025 -4.97237,23 -1.69068,7.975 -3.53899,16.525 -4.10735,19 -1.80665,7.86738 -2.75954,12.24882 -4.89338,22.5 -1.14485,5.5 -2.49485,11.8 -3,14 -0.50515,2.2 -1.85021,8.5 -2.98902,14 -1.13881,5.5 -2.50716,11.62721 -3.04077,13.61602 -0.53362,1.98881 -0.97021,4.56048 -0.97021,5.71482 0,2.38825 -1.95572,3.63647 -7,4.46771 -1.925,0.31721 -7.775,1.51419 -13,2.65994 -5.225,1.14575 -11.525,2.50264 -14,3.01532 -2.475,0.51268 -8.775,1.86728 -14,3.01023 -5.225,1.14296 -11.75,2.51296 -14.5,3.04445 -2.75,0.53149 -6.8,1.36909 -9,1.86135 -3.45532,0.77313 -9.40704,2.03802 -29,6.1632 -2.2,0.4632 -10.525,2.24501 -18.5,3.95958 -7.975,1.71457 -20.8,4.44696 -28.5,6.07197 -7.7,1.62501 -16.025,3.38695 -18.5,3.91541 -2.475,0.52846 -10.8,2.2904 -18.5,3.91541 -7.7,1.62501 -20.525,4.36703 -28.5,6.09337 -24.03664,5.2032 -35.67106,7.68999 -53.5,11.4353 -9.35,1.96415 -18.55627,4.00441 -20.45837,4.5339 -2.03513,0.56653 -28.68196,0.98094 -64.75,1.007 L 275,759.02925 l 0.005,-7.26462 z"
         id="path24" />
      <path
         style="fill:#c8ddce"
         d="m 718.5,1237.4775 c -61.78296,-5.6745 -120.2224,-21.5161 -173,-46.8966 -45.12772,-21.7016 -92.45555,-55.5369 -129.49976,-92.5811 -37.04421,-37.0442 -70.87954,-84.3721 -92.58119,-129.4998 -21.22908,-44.14503 -36.05858,-93.11838 -43.38752,-143.28415 -2.62583,-17.97354 -5.02008,-45.10404 -5.02651,-56.95816 l -0.005,-9.24232 61.25,-0.25768 c 33.6875,-0.14173 62.375,0.0757 63.75,0.48314 1.375,0.40746 8.9125,2.09496 16.75,3.75 7.8375,1.65504 20.6625,4.38275 28.5,6.06156 7.8375,1.67881 16.05,3.43137 18.25,3.89457 2.2,0.46319 8.725,1.83706 14.5,3.05304 5.775,1.21598 12.3,2.58985 14.5,3.05304 2.2,0.4632 10.525,2.24121 18.5,3.95114 7.975,1.70993 18.55,3.96863 23.5,5.01933 4.95,1.05071 14.4,3.07776 21,4.50456 6.6,1.4268 13.05846,2.80881 14.35214,3.07113 1.29367,0.26233 5.13007,1.1212 8.52533,1.90862 3.39526,0.78741 7.9618,1.71478 10.14787,2.06081 2.18606,0.34603 4.30565,0.83218 4.71018,1.08033 0.40454,0.24815 3.10454,0.87749 6,1.39853 2.89547,0.52104 7.06448,1.35009 9.26448,1.84235 2.2,0.49225 8.5,1.83622 14,2.9866 5.5,1.15037 14.275,3.01994 19.5,4.1546 5.225,1.13466 11.525,2.48247 14,2.99515 2.475,0.51268 8.775,1.8754 14,3.02827 5.225,1.15288 11.19402,2.34738 13.26448,2.65445 3.05268,0.45274 3.86696,1.05303 4.30643,3.1747 0.29807,1.43902 0.99805,4.64139 1.55551,7.11639 0.55746,2.475 1.43207,6.4125 1.94358,8.75 0.5115,2.3375 1.36165,6.1625 1.88922,8.5 0.52758,2.3375 1.89593,8.75 3.04078,14.25 1.14485,5.5 2.48618,11.8 2.98072,14 1.19884,5.33306 4.75936,21.76254 6.06804,28 1.00471,4.78872 1.80593,8.42551 3.91046,17.75 0.52758,2.3375 1.89593,8.75 3.04078,14.25 2.06125,9.90246 2.90208,13.77837 4.8811,22.5 0.56161,2.475 1.49317,6.75 2.07014,9.5 1.30868,6.23746 4.8692,22.66694 6.06804,28 0.49454,2.2 1.83587,8.5 2.98072,14 1.14485,5.5 2.4817,11.8 2.97078,14 0.48908,2.2 1.33923,6.025 1.88923,8.5 0.55,2.475 1.46315,6.525 2.02922,9 0.56607,2.475 1.96592,9 3.11077,14.5 1.14485,5.5 2.48618,11.8 2.98072,14 1.64033,7.2971 4.78471,21.9141 6.02329,28 0.67161,3.3 1.5628,7.125 1.98042,8.5 0.69831,2.2991 0.81392,2.1786 1.43879,-1.5 0.3737,-2.2 1.13786,-6.025 1.69812,-8.5 2.0244,-8.943 2.83179,-12.6666 4.87866,-22.5 1.14485,-5.5 2.48618,-11.8 2.98072,-14 0.96298,-4.2838 3.48224,-15.8569 6.9659,-32 1.18689,-5.5 2.5661,-11.8 3.06491,-14 0.4988,-2.2 1.84362,-8.5 2.98847,-14 1.14485,-5.5 2.5132,-11.9125 3.04078,-14.25 0.52757,-2.3375 1.37772,-6.1625 1.88922,-8.5 0.51151,-2.3375 1.39316,-6.275 1.95923,-8.75 0.56607,-2.475 1.96592,-9 3.11077,-14.5 1.14485,-5.5 2.48618,-11.8 2.98072,-14 1.19884,-5.33306 4.75936,-21.76254 6.06804,-28 1.24226,-5.92091 2.42977,-11.33207 3.84047,-17.5 0.56607,-2.475 1.96592,-9 3.11077,-14.5 1.14485,-5.5 2.5447,-12.025 3.11077,-14.5 1.45037,-6.34135 2.62528,-11.70353 3.83445,-17.5 0.57366,-2.75 1.94567,-8.90473 3.0489,-13.67719 1.10323,-4.77245 2.00588,-9.62407 2.00588,-10.78138 0,-1.15731 0.5625,-2.25842 1.25,-2.44691 1.43445,-0.39329 9.93056,-2.24327 17.25,-3.7561 2.75,-0.56839 6.8,-1.42121 9,-1.89515 2.2,-0.47395 8.5,-1.79842 14,-2.94327 5.5,-1.14485 11.8,-2.49485 14,-3 3.5338,-0.8114 13.06409,-2.8336 29,-6.1534 2.75,-0.57289 6.8,-1.47283 9,-1.99987 2.2,-0.52705 4.675,-1.08591 5.5,-1.24191 0.825,-0.15601 3.3,-0.61881 5.5,-1.02844 2.2,-0.40964 5.35,-1.13257 7,-1.60653 1.65,-0.47395 4.35,-1.08228 6,-1.35185 1.65,-0.26957 6.15,-1.19407 10,-2.05444 3.85,-0.86038 13.3,-2.88472 21,-4.49853 7.7,-1.61381 20.525,-4.34289 28.5,-6.06463 7.975,-1.72173 20.79998,-4.45998 28.49998,-6.08499 7.7,-1.62501 16.025,-3.38695 18.5,-3.91541 2.475,-0.52846 10.8,-2.2904 18.5,-3.91541 35.1831,-7.42506 43.1662,-9.15217 45.5,-9.84376 1.375,-0.40746 31.1875,-0.625 66.25,-0.48343 l 63.75,0.2574 v 21.87623 c 0,23.30534 -1.4756,38.12044 -6.5125,65.38629 -7.4995,40.59606 -21.9793,84.9436 -39.9066,122.22268 -26.8279,55.7877 -70.3981,112.3133 -117.9328,153 -50.808,43.4883 -101.71233,72.4275 -163.02249,92.6785 -59.74199,19.7331 -127.74642,28.3852 -183.12559,23.299 z"
         id="path22" />
      <path
         style="fill:#dbc468"
         d="m 712.5,1257.4775 c -63.69566,-5.8501 -120.99519,-21.6749 -177,-48.8831 -23.01618,-11.1817 -36.09775,-18.6152 -56.5,-32.1058 C 421.80325,1138.6684 375.3316,1092.1968 337.51137,1035 324.02079,1014.5977 316.58726,1001.5162 305.40556,978.5 248.52787,861.42415 239.4053,728.73467 279.82145,606.37441 300.7723,542.94553 332.56252,486.70577 376.49417,435.35168 404.95432,402.08308 440.31713,371.08966 479,345.51137 c 20.40225,-13.49058 33.48382,-20.92411 56.5,-32.10581 117.07585,-56.87769 249.76533,-66.00026 372.12559,-25.58411 63.42888,20.95085 119.66861,52.74107 171.02271,96.67272 40.368,34.53345 79.2126,81.62984 106.4025,129.00583 26.5342,46.23346 47.8063,104.09186 57.4367,156.22268 6.0088,32.52683 6.5125,39.58669 6.5125,91.27732 0,51.69063 -0.5037,58.75049 -6.5125,91.27732 -9.6304,52.13082 -30.9025,109.98922 -57.4367,156.22268 -38.5415,67.1552 -92.8437,124.8717 -158.0508,167.9886 -20.4023,13.4906 -33.48382,20.9241 -56.5,32.1058 -56.69121,27.5417 -113.86829,43.2385 -178.15875,48.9099 -20.32231,1.7927 -60.17563,1.7793 -79.84125,-0.027 z m 76.84125,-9.9732 c 73.3912,-6.4742 144.57229,-28.2486 204.15875,-62.4524 85.574,-49.1212 155.8012,-124.1215 198.0885,-211.5519 23.1866,-47.9392 38.1421,-98.26488 45.4278,-152.86637 C 1238.7436,807.68852 1239,799.98171 1239,761 c 0,-38.98171 -0.2564,-46.68852 -1.9837,-59.63363 C 1229.7306,646.76488 1214.7751,596.4392 1191.5885,548.5 1144.3989,450.93388 1063.0661,369.60108 965.5,322.41152 877.51565,279.85635 779.61511,264.32336 685.78415,278.03153 545.09696,298.58514 423.8344,375.54954 345.51137,494 321.48385,530.33761 303.88421,566.79928 289.82145,609.37441 253.68775,718.76952 257.33604,832.81725 300.46186,942 c 43.71126,110.6649 131.87285,205.2724 240.03814,257.5885 77.40844,37.4399 168.58189,54.9959 248.84125,47.9158 z M 747.55962,1003.3042 C 743.39344,983.77959 739.72299,966.74062 735,945 732.19214,932.075 728.55014,915.2 726.90666,907.5 725.26319,899.8 723.05519,889.675 722,885 c -1.05519,-4.675 -3.26451,-14.8 -4.90959,-22.5 -9.33016,-43.6708 -10.43845,-48.21122 -12.75935,-52.27239 C 700.92633,804.26993 696.11699,801.5354 684.75,799.09405 671.33541,796.21294 662.30985,794.29284 618.5,785 c -20.9,-4.43326 -42.05,-8.93468 -47,-10.00316 -4.95,-1.06848 -22.95,-4.88827 -40,-8.48841 -17.05,-3.60014 -31.84882,-6.89751 -32.88627,-7.32748 -1.37281,-0.56897 0.26044,-1.23275 6,-2.43847 23.12629,-4.85821 76.64476,-16.216 88.38627,-18.75751 7.425,-1.60717 28.575,-6.10565 47,-9.99661 51.94754,-10.97018 52.24107,-11.04076 56.79216,-13.65582 6.37597,-3.66362 9.52571,-8.69653 11.55382,-18.46161 C 711.08142,682.70015 715.89921,660.30753 718,651 c 1.05519,-4.675 3.26319,-14.8 4.90666,-22.5 1.64348,-7.7 5.28548,-24.575 8.09334,-37.5 2.80786,-12.925 6.40789,-29.575 8.00008,-37 5.64427,-26.32149 10.11537,-46.44879 10.37612,-46.70954 0.29047,-0.29046 1.96261,6.94554 6.51883,28.20954 1.64988,7.7 5.29711,24.575 8.10497,37.5 2.80786,12.925 6.40786,29.575 8,37 1.59214,7.425 5.19214,24.075 8,37 6.64635,30.59414 10.72102,49.64503 11.54973,54 1.82415,9.58615 7.60632,13.98707 22.882,17.41595 11.95709,2.68396 11.74891,2.63937 68.06827,14.58065 20.9,4.43138 41.825,8.88971 46.5,9.90739 4.675,1.01768 23.04662,4.93256 40.82582,8.69973 20.93624,4.4361 31.68248,7.11694 30.49998,7.60875 -1.00418,0.41764 -13.7508,3.26986 -28.3258,6.33825 -27.42247,5.77309 -102.90753,21.81164 -144,30.59612 -14.45777,3.09069 -24.78731,5.81455 -26.84562,7.07907 -4.6041,2.82855 -8.8582,9.01761 -9.66531,14.06152 -0.37075,2.31691 -1.51632,7.81257 -2.54571,12.21257 -1.02939,4.4 -3.21409,14.3 -4.85489,22 -1.6408,7.7 -5.28061,24.575 -8.08847,37.5 -2.80786,12.925 -6.40786,29.575 -8,37 -1.59214,7.425 -5.14419,23.85 -7.89345,36.5 -2.74925,12.65 -6.20817,28.625 -7.68647,35.5 -1.47831,6.875 -2.80198,12.6369 -2.94151,12.8042 -0.13952,0.1673 -1.00305,-3.2077 -1.91895,-7.5 z"
         id="path20" />
      <path
         style="fill:#63a276"
         d="m 715.5,1247.4775 c -62.75235,-5.7635 -120.67654,-21.6145 -175,-47.889 C 442.93388,1152.3989 361.60108,1071.0661 314.41152,973.5 282.49536,907.51218 265.01004,832.29923 265.01004,761 c 0,-71.29923 17.48532,-146.51218 49.40148,-212.5 C 361.60108,450.93388 442.93388,369.60108 540.5,322.41152 606.48782,290.49536 681.70077,273.01004 753,273.01004 c 71.29923,0 146.51218,17.48532 212.5,49.40148 97.5661,47.18956 178.8989,128.52236 226.0885,226.08848 23.1866,47.9392 38.1421,98.26488 45.4278,152.86637 1.7273,12.94511 1.9837,20.65192 1.9837,59.63363 0,48.37481 -0.571,56.11473 -6.5125,88.27732 -9.4902,51.37204 -30.2197,108.29416 -55.4356,152.22268 -49.1212,85.574 -124.1215,155.8012 -211.5519,198.0885 -66.89626,32.3555 -142.24391,49.669 -214.5,49.2881 -11.825,-0.062 -27.8,-0.6919 -35.5,-1.3991 z m 70.84125,-9.9732 c 51.54219,-4.5468 97.62379,-15.3695 144.65875,-33.9744 47.0571,-18.6137 91.2429,-45.7338 133.6481,-82.0299 47.5347,-40.6867 91.1049,-97.2123 117.9328,-153 22.2994,-46.37068 37.2778,-97.22497 44.4354,-150.86637 C 1228.7256,804.8236 1229,796.98994 1229,761 c 0,-35.98994 -0.2744,-43.8236 -1.9837,-56.63363 -7.1576,-53.6414 -22.136,-104.49569 -44.4354,-150.86637 -26.8279,-55.7877 -70.3981,-112.31333 -117.9328,-153 C 1022.2429,364.20394 978.0571,337.08377 931,318.47009 883.96504,299.86516 837.88344,289.04249 786.34125,284.49569 710.61366,277.81537 620.429,295.38615 545.5,331.41905 489.7123,358.24702 433.18667,401.81715 392.5,449.35192 356.20394,491.75709 329.08377,535.9429 310.47009,583 c -18.60493,47.03496 -29.4276,93.11656 -33.9744,144.65875 -6.68032,75.72759 10.89046,165.91225 46.92336,240.84125 21.70165,45.1277 55.53698,92.4556 92.58119,129.4998 37.04421,37.0442 84.37204,70.8795 129.49976,92.5811 74.79901,35.9704 165.24503,53.5921 240.84125,46.9234 z M 748.61916,1105 c -2.15128,-10.3636 -5.80201,-27.3306 -7.63844,-35.5 -0.49454,-2.2 -1.83587,-8.5 -2.98072,-14 -2.12071,-10.1881 -2.97731,-14.1285 -5,-23 -2.02269,-8.8715 -2.87929,-12.8119 -5,-23 -1.14485,-5.5 -2.48618,-11.8 -2.98072,-14 -1.19884,-5.33306 -4.75936,-21.76254 -6.06804,-28 -1.00471,-4.78872 -1.80593,-8.42551 -3.91046,-17.75 C 714.5132,947.4125 713.14485,941 712,935.5 c -1.14485,-5.5 -2.5447,-12.025 -3.11077,-14.5 -1.4107,-6.16793 -2.59821,-11.57909 -3.84047,-17.5 -1.30868,-6.23746 -4.8692,-22.66694 -6.06804,-28 -0.49454,-2.2 -1.83587,-8.5 -2.98072,-14 -1.14485,-5.5 -2.5132,-11.9125 -3.04078,-14.25 -0.89666,-3.97283 -1.53531,-6.83651 -3.90279,-17.5 -0.51897,-2.3375 -1.18745,-5.42737 -1.48552,-6.86639 -0.43947,-2.12167 -1.25375,-2.72196 -4.30643,-3.1747 -2.07046,-0.30707 -8.03948,-1.50157 -13.26448,-2.65445 -5.225,-1.15287 -11.525,-2.51559 -14,-3.02827 -2.475,-0.51268 -8.775,-1.86049 -14,-2.99515 -5.225,-1.13466 -14,-3.00423 -19.5,-4.1546 -5.5,-1.15038 -11.8,-2.49435 -14,-2.9866 -2.2,-0.49226 -6.36901,-1.32131 -9.26448,-1.84235 -2.89546,-0.52104 -5.59546,-1.15038 -6,-1.39853 -0.40453,-0.24815 -2.52412,-0.7343 -4.71018,-1.08033 -2.18607,-0.34603 -6.75261,-1.2734 -10.14787,-2.06081 -3.39526,-0.78742 -7.23166,-1.64629 -8.52533,-1.90862 -1.29368,-0.26232 -7.75214,-1.64433 -14.35214,-3.07113 -6.6,-1.4268 -16.05,-3.45385 -21,-4.50456 -4.95,-1.0507 -15.525,-3.3094 -23.5,-5.01933 -7.975,-1.70993 -16.3,-3.48794 -18.5,-3.95114 -2.2,-0.46319 -8.725,-1.83706 -14.5,-3.05304 -5.775,-1.21598 -12.3,-2.58985 -14.5,-3.05304 -2.2,-0.4632 -10.4125,-2.21576 -18.25,-3.89457 -7.8375,-1.67881 -20.6625,-4.41139 -28.5,-6.0724 -15.25297,-3.23257 -18.09945,-3.96387 -17.55356,-4.50976 0.19094,-0.19094 6.86235,-1.69542 14.82536,-3.34328 C 421.98481,753.47908 435.025,750.72196 443,749 c 7.975,-1.72196 21.025,-4.50684 29,-6.18863 7.975,-1.68179 16.075,-3.39816 18,-3.81415 1.925,-0.41599 7.1,-1.51265 11.5,-2.43702 4.4,-0.92437 21.725,-4.61183 38.5,-8.19435 16.775,-3.58253 32.3,-6.886 34.5,-7.34106 9.2916,-1.92191 14.6535,-3.06246 26,-5.53056 6.6,-1.43565 12.9,-2.80075 14,-3.03357 1.1,-0.23282 4.25,-0.92559 7,-1.53949 7.11786,-1.58897 11.63792,-2.5561 23,-4.92117 5.5,-1.14485 11.8,-2.49841 14,-3.0079 2.2,-0.5095 8.725,-1.88462 14.5,-3.05584 13.36964,-2.71146 15,-3.36891 15,-6.0488 0,-1.18548 0.43659,-3.78263 0.97021,-5.77144 0.53361,-1.98881 1.90196,-8.11602 3.04077,-13.61602 1.13881,-5.5 2.4752,-11.8 2.96974,-14 1.19884,-5.33306 4.75936,-21.76254 6.06804,-28 1.00471,-4.78872 1.80593,-8.42551 3.91046,-17.75 0.52758,-2.3375 1.89593,-8.75 3.04078,-14.25 1.14485,-5.5 2.5447,-12.025 3.11077,-14.5 0.56607,-2.475 1.44772,-6.4125 1.95923,-8.75 0.5115,-2.3375 1.36165,-6.1625 1.88922,-8.5 0.52758,-2.3375 1.89593,-8.75 3.04078,-14.25 1.14485,-5.5 2.49485,-11.8 3,-14 0.50515,-2.2 1.85515,-8.5 3,-14 1.14485,-5.5 2.5132,-11.9125 3.04078,-14.25 0.52757,-2.3375 1.40922,-6.275 1.95922,-8.75 0.55,-2.475 1.43165,-6.4125 1.95922,-8.75 0.52758,-2.3375 1.89593,-8.75 3.04078,-14.25 1.14485,-5.5 2.48967,-11.8 2.98847,-14 0.49881,-2.2 1.87575,-8.5 3.05986,-14 1.18412,-5.5 2.94835,-13.6 3.92052,-18 0.97218,-4.4 2.32754,-10.7 3.01193,-14 2.38639,-11.50683 2.49143,-11.55235 4.43564,-1.92252 0.99077,4.90739 2.17583,10.49752 2.63346,12.42252 0.45764,1.925 1.27713,5.525 1.8211,8 0.54396,2.475 1.45218,6.525 2.01825,9 0.56607,2.475 1.96592,9 3.11077,14.5 1.14485,5.5 2.48967,11.8 2.98847,14 0.49881,2.2 1.87802,8.5 3.06491,14 3.48366,16.14314 6.00292,27.71616 6.9659,32 0.49454,2.2 1.83587,8.5 2.98072,14 1.14485,5.5 2.5447,12.025 3.11077,14.5 0.56607,2.475 1.47922,6.525 2.02922,9 0.55,2.475 1.40015,6.3 1.88923,8.5 0.48908,2.2 1.82593,8.5 2.97078,14 1.14485,5.5 2.49485,11.8 3,14 0.50515,2.2 1.85515,8.5 3,14 1.14485,5.5 2.5447,12.025 3.11077,14.5 0.56607,2.475 1.44772,6.4125 1.95923,8.75 0.5115,2.3375 1.36165,6.1625 1.88922,8.5 0.52758,2.3375 1.89593,8.75 3.04078,14.25 1.14485,5.5 2.4912,11.8 2.99187,14 0.50068,2.2 1.4384,6.475 2.08382,9.5 0.64542,3.025 1.56743,6.80465 2.0489,8.39922 0.48148,1.59458 0.87541,4.14632 0.87541,5.67055 0,2.32986 0.51771,2.87235 3.25,3.40553 5.3565,1.04527 21.96313,4.54038 26.25,5.5247 2.2,0.50515 8.5,1.85515 14,3 5.5,1.14485 11.8,2.49028 14,2.98983 3.58941,0.81505 10.53849,2.3272 16,3.48168 19.53559,4.12953 31.76932,6.75484 35,7.51087 2.2,0.51484 8.275,1.83873 13.5,2.94197 5.225,1.10325 20.3,4.28729 33.5,7.07565 13.2,2.78836 28.275,5.9724 33.5,7.07565 5.225,1.10324 11.3,2.42975 13.5,2.94778 2.2,0.51803 7.6,1.67791 12,2.57752 12.4836,2.55234 15.051,3.091 30.25,6.34666 32.5547,6.97331 42.5468,9.05398 43.6188,9.0828 3.3497,0.09 -3.5888,2.11511 -16.8688,4.92332 -8.25,1.74456 -21.3,4.50247 -29,6.12868 -7.7,1.62621 -16.025,3.38913 -18.5,3.91759 -2.475,0.52846 -10.8,2.2904 -18.5,3.91541 -7.7,1.62501 -20.525,4.36326 -28.5,6.08499 -7.975,1.72174 -20.8,4.45082 -28.5,6.06463 -7.7,1.61381 -17.15,3.63815 -21,4.49853 -3.85,0.86037 -8.35,1.78487 -10,2.05444 -1.65,0.26957 -4.35,0.8779 -6,1.35185 -1.65,0.47396 -4.8,1.19689 -7,1.60653 -5.56244,1.03571 -5.92395,1.11049 -11.78586,2.43791 -6.83625,1.54805 -11.148,2.47408 -23.21414,4.98571 -5.5,1.14485 -11.8,2.49485 -14,3 -3.5338,0.8114 -13.06409,2.8336 -29,6.1534 -4.82271,1.00468 -6.51062,1.36266 -18.5,3.9236 -8.08438,1.72683 -8,1.68502 -8,3.96443 0,1.15731 -0.90265,6.00893 -2.00588,10.78138 -1.10323,4.77246 -2.47524,10.92719 -3.0489,13.67719 -0.99584,4.77382 -1.76798,8.28406 -3.90444,17.75 -0.52758,2.3375 -1.89593,8.75 -3.04078,14.25 -2.06125,9.90246 -2.90208,13.77837 -4.8811,22.5 -0.56161,2.475 -1.49317,6.75 -2.07014,9.5 -1.30868,6.23746 -4.8692,22.66694 -6.06804,28 -0.49454,2.2 -1.83587,8.5 -2.98072,14 -1.14485,5.5 -2.5132,11.9125 -3.04078,14.25 -0.52757,2.3375 -1.37772,6.1625 -1.88922,8.5 -0.51151,2.3375 -1.39316,6.275 -1.95923,8.75 -0.56607,2.475 -1.96592,9 -3.11077,14.5 -1.14485,5.5 -2.48618,11.8 -2.98072,14 -0.96298,4.2838 -3.48224,15.8569 -6.9659,32 -1.18689,5.5 -2.5661,11.8 -3.06491,14 -0.4988,2.2 -1.84362,8.5 -2.98847,14 -1.14485,5.5 -2.4912,11.8 -2.99187,14 -0.50068,2.2 -1.42344,6.475 -2.05057,9.5 -0.62713,3.025 -1.47135,6.85 -1.87605,8.5 l -0.73582,3 z m 3.80092,-107 c 1.4783,-6.875 4.93722,-22.85 7.68647,-35.5 2.74926,-12.65 6.30131,-29.075 7.89345,-36.5 1.59214,-7.425 5.19214,-24.075 8,-37 2.80786,-12.925 6.44767,-29.8 8.08847,-37.5 1.6408,-7.7 3.8255,-17.6 4.85489,-22 1.02939,-4.4 2.17496,-9.89566 2.54571,-12.21257 0.80711,-5.04391 5.06121,-11.23297 9.66531,-14.06152 2.05831,-1.26452 12.38785,-3.98838 26.84562,-7.07907 41.09247,-8.78448 116.57753,-24.82303 144,-30.59612 14.575,-3.06839 27.32162,-5.92061 28.3258,-6.33825 1.1825,-0.49181 -9.56374,-3.17265 -30.49998,-7.60875 C 952.04662,747.83655 933.675,743.92167 929,742.90399 924.325,741.88631 903.4,737.42798 882.5,732.9966 826.18064,721.05532 826.38882,721.09991 814.43173,718.41595 799.15605,714.98707 793.37388,710.58615 791.54973,701 790.72102,696.64503 786.64635,677.59414 780,647 c -2.80786,-12.925 -6.40786,-29.575 -8,-37 -1.59214,-7.425 -5.19214,-24.075 -8,-37 -2.80786,-12.925 -6.45509,-29.8 -8.10497,-37.5 -4.55622,-21.264 -6.22836,-28.5 -6.51883,-28.20954 -0.26075,0.26075 -4.73185,20.38805 -10.37612,46.70954 -1.59219,7.425 -5.19222,24.075 -8.00008,37 -2.80786,12.925 -6.44986,29.8 -8.09334,37.5 -1.64347,7.7 -3.85147,17.825 -4.90666,22.5 -2.10079,9.30753 -6.91858,31.70015 -9.65402,44.87093 -2.02811,9.76508 -5.17785,14.79799 -11.55382,18.46161 -4.55109,2.61506 -4.84462,2.68564 -56.79216,13.65582 -18.425,3.89096 -39.575,8.38944 -47,9.99661 -11.74151,2.54151 -65.25998,13.8993 -88.38627,18.75751 -5.73956,1.20572 -7.37281,1.8695 -6,2.43847 1.03745,0.42997 15.83627,3.72734 32.88627,7.32748 17.05,3.60014 35.05,7.41993 40,8.48841 4.95,1.06848 26.1,5.5699 47,10.00316 43.80985,9.29284 52.83541,11.21294 66.25,14.09405 11.36699,2.44135 16.17633,5.17588 19.58106,11.13356 2.3209,4.06117 3.42919,8.60159 12.75935,52.27239 1.64508,7.7 3.8544,17.825 4.90959,22.5 1.05519,4.675 3.26319,14.8 4.90666,22.5 1.64348,7.7 5.28548,24.575 8.09334,37.5 4.72299,21.74062 8.39344,38.77959 12.55962,58.3042 0.9159,4.2923 1.77943,7.6673 1.91895,7.5 0.13953,-0.1673 1.4632,-5.9292 2.94151,-12.8042 z"
         id="path18" />
      <path
         style="fill:#000000"
         d="m 712,1282.9192 c -66.99094,-5.6818 -128.31866,-22.4676 -187.5,-51.3199 -25.55484,-12.4586 -37.84732,-19.4461 -60,-34.1063 -60.02584,-39.7238 -108.26918,-87.9672 -147.99301,-147.993 -14.66018,-22.1527 -21.64769,-34.4452 -34.10627,-60 -28.64851,-58.76335 -45.09047,-118.24529 -50.90503,-184.15875 -1.93883,-21.97847 -1.93883,-66.70403 0,-88.6825 5.81456,-65.91346 22.25652,-125.3954 50.90503,-184.15875 12.45858,-25.55484 19.44609,-37.84732 34.10627,-60 39.72383,-60.02584 87.96717,-108.26918 147.99301,-147.99301 22.15268,-14.66018 34.44516,-21.64769 60,-34.10627 58.76335,-28.64851 118.24529,-45.09047 184.15875,-50.90503 21.97847,-1.93883 66.70403,-1.93883 88.6825,0 65.91346,5.81456 125.3954,22.25652 184.15875,50.90503 25.5548,12.45858 37.8473,19.44609 60,34.10627 60.0258,39.72383 108.2692,87.96717 147.993,147.99301 14.6602,22.15268 21.6477,34.44516 34.1063,60 25.1829,51.65482 40.7426,103.35213 48.417,160.86637 1.7654,13.23021 1.9837,20.67384 1.9837,67.63363 0,46.95979 -0.2183,54.40342 -1.9837,67.63363 -7.6744,57.51424 -23.2341,109.21155 -48.417,160.86637 -12.4586,25.5548 -19.4461,37.8473 -34.1063,60 -39.7238,60.0258 -87.9672,108.2692 -147.993,147.993 -22.1527,14.6602 -34.4452,21.6477 -60,34.1063 -58.76335,28.6485 -118.24529,45.0904 -184.15875,50.905 -18.12854,1.5992 -68.49106,1.8441 -85.34125,0.4149 z m 80.34125,-25.4149 c 64.29046,-5.6714 121.46754,-21.3682 178.15875,-48.9099 23.01618,-11.1817 36.0977,-18.6152 56.5,-32.1058 65.2071,-43.1169 119.5093,-100.8334 158.0508,-167.9886 26.5342,-46.23346 47.8063,-104.09186 57.4367,-156.22268 C 1248.4963,819.75049 1249,812.69063 1249,761 c 0,-51.69063 -0.5037,-58.75049 -6.5125,-91.27732 -9.6304,-52.13082 -30.9025,-109.98922 -57.4367,-156.22268 -27.1899,-47.37599 -66.0345,-94.47238 -106.4025,-129.00583 -51.3541,-43.93165 -107.59383,-75.72187 -171.02271,-96.67272 -100.04996,-33.04695 -209.20122,-33.04695 -309.25118,0 -63.42888,20.95085 -119.66864,52.74107 -171.02273,96.67272 -33.2686,28.46015 -64.26202,63.82296 -89.84031,102.50583 -13.49058,20.40225 -20.92411,33.48382 -32.10581,56.5 -56.87769,117.07585 -66.00026,249.76533 -25.58411,372.12559 20.95085,63.42888 52.74107,119.66861 96.67272,171.02271 28.46015,33.2686 63.82296,64.262 102.50583,89.8403 20.40225,13.4906 33.48382,20.9241 56.5,32.1058 56.00481,27.2082 113.30434,43.033 177,48.8831 19.66562,1.8061 59.51894,1.8195 79.84125,0.027 z"
         id="path16" />
    </g>
  </g>
</svg>
