<?xml version="1.0" encoding="UTF-8" standalone="no"?>
<svg
   xmlns:dc="http://purl.org/dc/elements/1.1/"
   xmlns:cc="http://creativecommons.org/ns#"
   xmlns:rdf="http://www.w3.org/1999/02/22-rdf-syntax-ns#"
   xmlns:svg="http://www.w3.org/2000/svg"
   xmlns="http://www.w3.org/2000/svg"
   xmlns:sodipodi="http://sodipodi.sourceforge.net/DTD/sodipodi-0.dtd"
   xmlns:inkscape="http://www.inkscape.org/namespaces/inkscape"
   version="1.1"
   id="svg2"
   width="860.61536"
   height="1337.8187"
   viewBox="0 0 860.61536 1337.8187"
   sodipodi:docname="Sorenth.svg"
   inkscape:version="1.0.1 (3bc2e813f5, 2020-09-07)">
  <metadata
     id="metadata8">
    <rdf:RDF>
      <cc:Work
         rdf:about="">
        <dc:format>image/svg+xml</dc:format>
        <dc:type
           rdf:resource="http://purl.org/dc/dcmitype/StillImage" />
        <dc:title></dc:title>
      </cc:Work>
    </rdf:RDF>
  </metadata>
  <defs
     id="defs6" />
  <sodipodi:namedview
     pagecolor="#ffffff"
     bordercolor="#666666"
     borderopacity="1"
     objecttolerance="10"
     gridtolerance="10"
     guidetolerance="10"
     inkscape:pageopacity="0"
     inkscape:pageshadow="2"
     inkscape:window-width="1920"
     inkscape:window-height="1057"
     id="namedview4"
     showgrid="false"
     inkscape:pagecheckerboard="true"
     inkscape:zoom="0.4151146"
     inkscape:cx="698.4831"
     inkscape:cy="677.29045"
     inkscape:window-x="-8"
     inkscape:window-y="-8"
     inkscape:window-maximized="1"
     inkscape:current-layer="g10" />
  <g
     inkscape:groupmode="layer"
     inkscape:label="Image"
     id="g10"
     transform="translate(-475.46596,854.40029)">
    <path
       id="path16-0-6"
       style="fill:#faf5ed;fill-opacity:1;stroke-width:0.906973"
       d="m 910,-854.34375 c -29.88088,0.0631 -58.35148,0.37 -65.28516,1.01758 -49.3081,4.60524 -46.26757,4.27541 -75.26757,8.17773 -8.5962,1.15673 -17.29408,2.54584 -19.33008,3.08594 -2.0359,0.54011 -8.32898,1.68406 -13.98438,2.54297 -5.6554,0.85891 -11.57861,1.95792 -13.16211,2.44336 -1.5835,0.48544 -6.76512,1.59762 -11.51562,2.4707 -4.7505,0.87308 -11.22949,2.26642 -14.39649,3.0957 -5.2772,1.38183 -12.63895,3.22714 -27.96875,7.01368 -6.8516,1.69238 -40.3469,11.76182 -48.5332,14.58984 -45.0509,15.56314 -84.06826,32.72392 -119.09766,52.38086 -14.2232,7.98147 -17.57912,10.63088 -21.23242,16.76172 -5.073,8.51337 -5.06789,8.40041 -4.52539,77.54687 0.2705,34.46537 0.86662,78.18907 1.32422,97.16407 0.4576,18.975 1.22553,83.1 1.70703,142.5 1.7791,219.48281 3.20147,309.27737 5.20117,328.499996 1.3706,13.17587 5.25411,41.864683 5.81641,42.970703 0.2074,0.40797 1.30987,5.868415 2.45117,12.134765 3.7217,20.43517 5.73889,29.115182 12.17969,52.394532 5.5496,20.05802 6.9228,24.69481 9.625,32.5 1.4281,4.125 3.08559,9.075 3.68359,11 1.3057,4.20418 13.61973,36.992231 16.20313,43.144531 3.78,9.001703 19.22577,42.720453 23.79687,51.949223 12.3399,24.913 22.74776,43.14144 45.56446,79.80664 15.8239,25.4283 50.17425,70.10681 76.53125,99.54101 43.0307,48.0547 94.909,91.23752 145.1875,120.85352 24.6812,14.5382 42.91419,21.97174 76.09179,31.02343 1.69363,0.46207 5.19041,0.58114 8.93555,0.48633 z" />
    <path
       id="path904"
       style="fill:#4d6b3b;fill-opacity:1;stroke-width:0.906973"
       d="m 910,-854.34375 v 1337.0957 c 4.55305,-0.11525 9.50403,-0.56341 12.44336,-1.32031 6.7076,-1.7271 16.22121,-5.45248 25.50781,-9.98828 9.7613,-4.7677 44.08201,-24.02884 53.05863,-29.77734 4.298,-2.7525 9.2956,-5.92463 11.1054,-7.04883 1.8097,-1.1242 8.5644,-5.78096 15.0118,-10.34766 33.971,-24.0619 57.8063,-43.90271 86.9902,-72.41601 24.3545,-23.795 58.94,-63.8256 79.3496,-91.8418 15.5389,-21.3303 36.2107,-53.99565 49.0859,-77.56445 35.6686,-65.29317 59.9051,-132.072074 74.2188,-204.500004 1.3587,-6.875 2.7119,-14.525 3.0078,-17 0.296,-2.475 1.0452,-6.975 1.666,-10 1.4247,-6.94374 4.2287,-31.11238 5.8008,-50 0.8389,-10.078816 1.4395,-36.910776 1.9687,-87.999996 0.4187,-40.425 1.1464,-106.8 1.6172,-147.5 1.2663,-109.44778 3.5771,-327.35114 3.9395,-371.5 0.2116,-25.77395 0.015,-40.19397 -0.5938,-43.62305 -1.1705,-6.59299 -4.8016,-13.50946 -9.0625,-17.26172 -7.0513,-6.20948 -43.1602,-22.86745 -72.8007,-33.58594 -4.0719,-1.47246 -9.6254,-3.52866 -12.3399,-4.56836 -2.7146,-1.03969 -7.1566,-2.54675 -9.8711,-3.34961 -2.7146,-0.80285 -10.1172,-3.09216 -16.4512,-5.08593 -11.411,-3.59185 -15.5358,-4.74867 -37.8398,-10.61328 -23.5206,-6.18454 -46.0316,-11.0221 -71.5664,-15.37891 -7.6914,-1.31231 -15.0959,-2.65407 -16.4531,-2.98242 -1.3573,-0.32836 -9.6855,-1.53101 -18.5078,-2.67383 -8.8224,-1.14282 -18.9164,-2.47208 -22.4317,-2.95313 -3.5153,-0.48105 -14.6201,-1.60243 -24.6777,-2.49218 -10.0576,-0.88975 -22.72912,-2.09446 -28.15822,-2.67579 -7.51817,-0.80501 -47.02016,-1.12504 -84.01758,-1.04687 z" />
    <path
       style="fill:#010101"
       d="m 897.27621,481.54801 c -17.6235,-5.0243 -21.1148,-6.1075 -29,-8.9973 -9.1868,-3.3668 -26.3527,-11.1228 -32,-14.4584 -1.925,-1.137 -5.1875,-2.9444 -7.25,-4.0164 -2.0625,-1.0719 -3.75,-2.2967 -3.75,-2.7216 0,-0.4249 -0.5266,-0.7726 -1.1702,-0.7726 -1.0281,0 -21.5295,-12.5298 -22.8298,-13.9528 -0.275,-0.301 -4.325,-3.1579 -9,-6.3487 -15.1163,-10.3172 -29.3972,-20.9781 -36.6167,-27.3348 -1.1642,-1.025 -3.5666,-2.9741 -5.3388,-4.3313 -1.7721,-1.3572 -4.2294,-3.3822 -5.4606,-4.5 -1.2311,-1.1178 -5.335,-4.7324 -9.1196,-8.0324 -21.1152,-18.4113 -51.0231,-48.8274 -65.3891,-66.5 -2.9061,-3.575 -6.0555,-7.175 -6.9986,-8 -2.4246,-2.121 -11.0766,-12.5795 -11.0766,-13.3894 0,-0.3705 -4.275,-5.8088 -9.5,-12.085 -5.225,-6.2762 -9.5,-11.8319 -9.5,-12.346 0,-0.5141 -0.7346,-1.5444 -1.6326,-2.2896 -0.8979,-0.7452 -2.5854,-2.7848 -3.75,-4.5324 -1.1645,-1.7476 -5.8299,-8.4206 -10.3674,-14.8288 -4.5375,-6.4082 -8.25,-12.004 -8.25,-12.4351 0,-0.431 -0.9,-1.5982 -2,-2.5937 -1.1,-0.9955 -2,-2.2008 -2,-2.6784 0,-0.4776 -2.25,-4.1374 -5,-8.1329 -2.75,-3.9955 -5,-7.7549 -5,-8.3542 0,-0.5993 -0.701,-1.6714 -1.5578,-2.3824 -0.8567,-0.7111 -2.2309,-2.6787 -3.0536,-4.3725 -2.1208,-4.3663 -4.9478,-9.3391 -6.1497,-10.8177 -0.5642,-0.694 -1.9737,-2.9494 -3.1323,-5.0119 -1.1586,-2.0625 -3.0823,-5.4375 -4.2749,-7.5 -4.76821,-8.2465 -10.93991,-19.9721 -22.50121,-42.74997 -0.5583,-1.1 -2.0194,-4.25 -3.2469,-7 -1.2276,-2.75 -3.3235,-7.3625 -4.6577,-10.25 -1.3343,-2.8875 -3.6127,-7.8375 -5.0633,-11 -1.4506,-3.1625 -3.4756,-7.4142 -4.5,-9.4481 -1.0244,-2.034 -1.8626,-4.3505 -1.8626,-5.1479 0,-0.7974 -1.1196,-3.408301 -2.4879,-5.801901 -1.3684,-2.3937 -2.4934,-5.1546 -2.5,-6.1353 -0.01,-0.9808 -1.1371,-4.0034 -2.5121,-6.7168 -1.375,-2.7134 -2.5,-5.6114 -2.5,-6.44 0,-0.8286 -0.8435,-3.431 -1.8744,-5.7832 -1.0309,-2.35226 -2.4124,-5.8518 -3.07,-7.7768 -4.0289,-11.7938 -9.1253,-27.47789 -10.8857,-33.5 -8.0395,-27.5032105 -10.7299,-37.6123705 -12.6412,-47.5 -0.6911,-3.575 -1.9732,-9.425 -2.8492,-13 -0.8759,-3.575 -2.0594,-9.425 -2.63,-13 -0.5706,-3.575 -1.4637,-8.75 -1.9847,-11.5 -0.5209,-2.75 -1.6922,-10.4 -2.6028,-17 -0.9106,-6.6 -2.0627,-14.925 -2.5603,-18.5 -2.0754,-14.912059 -4.5867,-172.194219 -5.7166,-358.028719 -0.4364,-71.79081 -1.0534,-130.96581 -1.3709,-131.50001 -0.3176,-0.5342 -0.8839,-33.46634 -1.2584,-73.18252 -0.6284,-66.63315 -0.5474,-72.69701 1.0484,-78.49999 2.9475,-10.71832 8.15,-16.36959 21.8958,-23.7844 3.3,-1.7801 8.25,-4.48084 11,-6.00163 14.7849,-8.17633 34.8874,-17.76624 55.5,-26.47635 7.425,-3.13752 14.85001,-6.30137 16.50001,-7.03077 3.3558,-1.48345 6.6665,-2.68907 31,-11.28899 9.35,-3.30446 22.625,-7.6687 29.5,-9.6983 6.875,-2.0296 14.075,-4.2563 16,-4.94822 1.925,-0.69191 6.425,-1.84299 10,-2.55794 3.575,-0.71495 7.2851,-1.69746 8.2447,-2.18336 5.4942,-2.78217 62.5566,-14.26589 88.7553,-17.86186 7.975,-1.09463 16.525,-2.41247 19,-2.92853 2.475,-0.51606 12.375,-1.63879 22,-2.49495 9.625,-0.85617 21.1,-2.00728 25.5,-2.55802 31.4495,-3.93654 151.0193,-3.94561 174.99999,-0.0133 3.3,0.54113 14.775,1.70476 25.5,2.58584 10.725,0.88109 21.3,2.0076 23.5,2.50336 2.2,0.49576 10.975,1.79894 19.5,2.89595 30.9999,3.98914 69.9323,11.66764 101.5,20.01855 6.6,1.74596 15.15,3.98934 19,4.98529 6.9285,1.79231 9.0067,2.41443 27.5,8.23207 10.0572,3.1638 19.4662,6.45386 29.7698,10.40965 3.4484,1.32392 6.7158,2.40712 7.2609,2.40712 0.5451,0 2.8987,0.85994 5.2302,1.91097 2.3315,1.05103 11.4391,4.9444 20.2391,8.65191 16.8354,7.09293 34.9515,16.07388 39.2601,19.46308 4.4038,3.46398 7.8857,9.23043 9.6456,15.97405 1.8974,7.27066 1.9139,-5.32814 -0.2483,189.49999 -0.6409,57.75001 -1.6595,151.12501 -2.2635,207.50001 -1.8603,173.6213 -2.814,238.88613 -3.7192,254.499999 -0.8682,14.97541 -3.8111,39.42741 -6.6797,55.5 -0.8344,4.675 -1.9091,11.425 -2.3883,15 -1.3545,10.10592 -9.5258,44.99656 -15.1058,64.5 -1.1014,3.85 -2.8866,10.15 -3.967,14 -1.0804,3.85 -3.5776,11.5 -5.5494,17 -1.9717,5.5 -3.941,11.35 -4.3761,13 -0.4351,1.65 -1.5375,4.4402 -2.4498,6.2003 -0.9122,1.7602 -1.6586,3.9127 -1.6586,4.7833 0,0.8706 -1.125,3.803 -2.5,6.5164 -1.375,2.7134 -2.5023,5.736001 -2.5051,6.716801 0,0.9807 -1.1138,3.5832 -2.4688,5.7832 -1.355,2.2 -2.4777,4.8108 -2.4949,5.8019 -0.017,0.991 -0.8797,3.466 -1.9168,5.5 -2.5427,4.9868 -6.1746,12.6955 -11.6365,24.6981 -4.774,10.49079 -8.2313,17.41519 -15.7279,31.49999 -8.1466,15.306 -9.9157,18.4801 -11.1476,20 -0.6686,0.825 -1.7494,2.625 -2.4018,4 -1.3595,2.8656 -2.8121,5.243 -5.8042,9.5 -1.1597,1.65 -2.4099,3.9532 -2.778,5.1181 -0.3682,1.165 -1.558,2.9222 -2.6439,3.905 -1.086,0.9828 -1.9745,2.1584 -1.9745,2.6125 0,0.454 -1.6875,3.37 -3.75,6.4799 -2.0625,3.1098 -4.2,6.3414 -4.75,7.1814 -3.6304,5.5439 -15.1479,22.2122 -19.1775,27.7539 -5.5269,7.6009 -40.4796,50.42 -44.8885,54.9911 -1.6137,1.6731 -6.7522,7.2404 -11.4188,12.3719 -14.6639,16.1244 -39.0583,39.562 -55.9197,53.7263 -1.8724,1.5729 -5.0224,4.2498 -7,5.9486 -5.6414,4.8463 -27.3115,21.7947 -30.2052,23.6239 -1.4353,0.9073 -3.2353,2.2431 -4,2.9685 -0.7647,0.7254 -3.4153,2.6621 -5.8903,4.3037 -2.475,1.6417 -7.2698,5.0167 -10.6551,7.5 -3.3853,2.4834 -7.4353,5.2512 -9,6.1508 -1.5647,0.8997 -6.8319,4.2011 -11.7048,7.3366 -4.87289,3.1355 -10.72289,6.7115 -12.99999,7.9466 -5.8771,3.1879 -14.4922,7.9442 -18.9495,10.462 -2.0952,1.1835 -6.8202,3.8537 -10.5,5.9339 -9.9698,5.6358 -28.8007,13.7189 -36.2545,15.5621 -8.4103,2.0798 -17.7179,1.9325 -25.9361,-0.4105 z m 32.4857,-16.9266 c 10.8928,-4.3735 18.9513,-8.3151 32.5143,-15.9038 6.325,-3.5389 13.525,-7.5668 16,-8.951 2.475,-1.3841 5.85,-3.3294 7.5,-4.3228 1.65,-0.9935 4.35,-2.5555 6,-3.4713 1.65,-0.9157 6.2712,-3.8533 10.26929,-6.5279 3.9981,-2.6746 7.5198,-4.8629 7.826,-4.8629 0.3061,0 3.1099,-1.9238 6.2307,-4.2752 3.1207,-2.3514 7.699,-5.6139 10.174,-7.25 2.475,-1.6361 5.1256,-3.5683 5.8903,-4.2937 0.7647,-0.7254 2.5647,-2.0612 4,-2.9685 2.8638,-1.8103 25.8026,-19.8046 27.9463,-21.9224 0.7351,-0.7263 2.9702,-2.5512 4.967,-4.0553 1.9967,-1.5042 4.3539,-3.4099 5.2383,-4.2349 0.8843,-0.825 5.3842,-4.875 9.9999,-9 16.3097,-14.5759 33.1403,-31.0746 44.9734,-44.0862 4.6666,-5.1315 9.8045,-10.6988 11.4176,-12.3719 3.0486,-3.1621 29.1888,-34.6808 33.5672,-40.4739 1.375,-1.8192 4.4125,-5.7224 6.75,-8.6737 2.3375,-2.9513 4.25,-5.744 4.25,-6.2059 0,-0.4619 1.125,-1.8967 2.5,-3.1884 1.375,-1.2917 2.5,-2.8754 2.5,-3.5193 0,-0.6439 0.9,-1.9852 2,-2.9807 1.1,-0.9955 2,-2.3368 2,-2.9807 0,-0.6439 1.125,-2.2276 2.5,-3.5193 1.375,-1.2917 2.5,-2.6917 2.5,-3.1111 0,-0.4194 2.025,-3.7203 4.5,-7.3354 2.475,-3.6151 4.5,-6.7312 4.5,-6.9247 0,-0.1934 2.1375,-3.6865 4.75,-7.7624 2.6125,-4.0759 5.2923,-8.3008 5.955,-9.3886 1.3006,-2.1346 6.9867,-11.7189 8.886,-14.9778 2.0696,-3.5512 9.9342,-17.8879 12.0684,-22 0.5709,-1.1 1.7783,-3.35 2.6831,-5 1.8638,-3.3989 8.0375,-15.98927 10.7877,-21.99997 1.0066,-2.2 4.0891,-8.8525 6.85,-14.7833 2.7609,-5.9307 5.0198,-11.2062 5.0198,-11.7232 0,-0.517 0.849,-2.8645 1.8866,-5.2167 2.1049,-4.771601 5.7331,-13.468501 9.0849,-21.776801 1.2203,-3.025 2.6096,-7.1045 3.0872,-9.0655 0.4777,-1.961 1.5571,-4.88602 2.3987,-6.5 0.8417,-1.61397 1.5331,-3.74669 1.5364,-4.73936 0,-0.99268 0.9175,-3.80519 2.0312,-6.25003 1.1138,-2.44484 2.2846,-5.90765 2.6019,-7.69514 0.3172,-1.78748 1.4348,-5.63956 2.4834,-8.56017 1.0487,-2.92061 2.3098,-6.97061 2.8026,-9 0.4928,-2.02939 2.678,-10.6648 4.856,-19.1898 7.0572,-27.62189 10.2228,-44.35292 14.9473,-79 4.3893,-32.18949 4.4727,-35.534089 7.1777,-287.999999 0.604,-56.375 1.6226,-149.75 2.2635,-207.50001 2.1159,-190.65135 2.1066,-182.12242 0.2027,-186.30059 -0.9271,-2.03467 -2.6249,-4.50708 -3.7729,-5.49425 -1.8476,-1.58883 -22.1837,-11.86511 -31.5872,-15.96178 -10.1635,-4.42776 -18.3684,-7.82748 -26,-10.77321 -4.675,-1.80451 -9.85,-3.84341 -11.5,-4.5309 -1.65,-0.68749 -5.025,-1.82135 -7.5,-2.51971 -2.475,-0.69835 -4.96,-1.61095 -5.5222,-2.028 -0.5621,-0.41705 -4.2685,-1.65787 -8.2362,-2.75739 -3.9677,-1.09952 -7.721,-2.31244 -8.3406,-2.69538 -0.6196,-0.38294 -4.1133,-1.52519 -7.7638,-2.53834 -3.6505,-1.01315 -11.5872,-3.24007 -17.6372,-4.9487 -30.6615,-8.65939 -59.3216,-15.14329 -88,-19.90861 -6.6,-1.09669 -14.025,-2.45294 -16.5,-3.0139 -2.475,-0.56096 -11.7,-1.9565 -20.5,-3.10119 -8.8,-1.14469 -18.925,-2.48908 -22.5,-2.98755 -3.575,-0.49846 -14.825,-1.62381 -25,-2.50077 -10.175,-0.87696 -22.99999,-2.0789 -28.49999,-2.67097 -13.9115,-1.49757 -132.3655,-1.5233 -148,-0.0322 -6.6,0.62948 -19.425,1.83221 -28.5,2.67273 -9.075,0.84053 -19.875,1.95842 -24,2.4842 -25.5912,3.26194 -38.9324,5.18532 -42,6.05506 -1.925,0.5458 -8.675,1.86917 -15,2.94083 -23.4244,3.96886 -61.2849,12.70202 -78.5,18.10734 -3.3,1.03616 -10.05,3.08088 -15,4.54382 -10.8477,3.20595 -25.1682,7.89497 -32,10.47788 -2.75,1.03969 -8.825,3.30176 -13.5,5.02682 -4.675,1.72506 -9.85,3.70329 -11.5,4.39606 -1.65,0.69277 -6.6,2.75646 -11.00001,4.58597 -23.5026,9.77237 -47.568,21.29316 -66.4118,31.79321 -14.9286,8.31846 -16.8831,9.84634 -19.2571,15.05371 -1.9459,4.26824 -1.98,5.90378 -1.4039,67.49999 0.3247,34.71917 1.0302,77.07577 1.5678,94.12577 0.5376,17.05 1.233,82.52501 1.5453,145.50001 0.5969,120.33521 1.6196,204.53317 3.3951,279.5 1.0489,44.287619 1.3306,48.551009 4.4599,67.499999 0.8629,5.225 1.5769,11.11552 1.5868,13.09004 0.01,1.97452 0.9179,7.109 2.0179,11.40996 1.1,4.30096 2,9.49136 2,11.53424 0,2.04287 0.6918,5.67514 1.5374,8.07171 0.8455,2.39658 2.1653,7.74065 2.9328,11.87573 1.6518,8.89983 6.7472,27.8903395 12.884,48.01832 4.5438,14.90319 5.5289,17.88391 8.7649,26.51933 1.0345,2.76063 1.8809,5.58809 1.8809,6.28324 0,0.69515 1.125,3.484 2.5,6.19743 1.375,2.71343 2.5,5.6384 2.5,6.5 0,0.8616 1.125,3.7866 2.5,6.5 1.375,2.7134 2.4988,5.511 2.4972,6.2168 0,0.7057 0.8717,3.0832 1.9404,5.2832 1.0687,2.2 5.6309,12.325001 10.1382,22.500001 4.5072,10.175 9.9902,22.1 12.1843,26.5 4.0491,8.11982 4.4404,8.87702 8.2884,16.03812 1.19351,2.221 2.68331,5.0335 3.31071,6.25 0.6275,1.2166 1.6816,3.2244 2.3425,4.4619 0.6609,1.2375 1.9173,3.6242 2.7921,5.3037 0.8747,1.6795 2.4934,4.3795 3.5971,6 1.1036,1.6205 2.565,4.0713 3.2475,5.4463 0.6824,1.375 1.7855,3.4038 2.4512,4.5084 0.6657,1.1047 4.555,7.6297 8.6429,14.5 4.0878,6.8704 8.2503,13.4206 9.25,14.5561 0.9996,1.1354 1.8175,2.3987 1.8175,2.8073 0,0.4086 2.025,3.6401 4.5,7.181 2.475,3.541 4.5,6.8117 4.5,7.2684 0,0.4566 1.125,1.8871 2.5,3.1788 1.375,1.2917 2.5,2.8667 2.5,3.5 0,0.6333 1.125,2.2083 2.5,3.5 1.375,1.2917 2.5,2.7677 2.5,3.28 0,0.5122 1.0125,2.2008 2.25,3.7523 1.2375,1.5516 4.4845,5.8915 7.2155,9.6444 2.731,3.7528 7.9319,10.4233 11.5575,14.8233 3.6257,4.4 7.9788,10.025 9.6736,12.5 1.6948,2.475 4.7126,6.1715 6.7061,8.2145 1.9936,2.043 5.9493,6.543 8.7905,10 15.161,18.4471 45.9837,49.5893 67.7409,68.4431 2.4388,2.1133 5.4363,4.757 6.6613,5.8748 1.2249,1.1178 3.677,3.1428 5.4491,4.5 1.7722,1.3572 4.1746,3.3063 5.3388,4.3313 7.2195,6.3567 21.5004,17.0176 36.6167,27.3348 4.675,3.1908 8.725,6.0635 9,6.3837 0.6902,0.8036 14.627,9.4239 19.4373,12.0226 2.1655,1.1698 4.5602,2.7498 5.3214,3.5111 0.7613,0.7612 1.9663,1.3841 2.6779,1.3841 0.7115,0 2.4043,0.8736 3.7617,1.9413 1.3574,1.0678 4.4556,2.7243 6.8849,3.6812 2.4292,0.9569 4.6418,1.9965 4.9168,2.3102 2.0485,2.3372 22.4072,9.9864 41.5,15.5925 4.95,1.4534 9.45,2.8234 10,3.0444 0.55,0.221 5.05,0.2386 10,0.039 7.2493,-0.2922 10.5534,-0.9865 16.9857,-3.569 z m -272.6732,-1299.7228 c 0.7219,-0.28887 1.5844,-0.25334 1.9167,0.0789 0.3323,0.3323 -0.2584,0.56865 -1.3125,0.52522 -1.165,-0.048 -1.4019,-0.28494 -0.6042,-0.60416 z m 23.9375,-3.97916 c 0.6875,-0.27741 1.8125,-0.27741 2.5,0 0.6875,0.27741 0.125,0.50438 -1.25,0.50438 -1.375,0 -1.9375,-0.22697 -1.25,-0.50438 z"
       id="path16-3"
       sodipodi:nodetypes="ssssssssssssssssssssssssscssscssssssscsssscssssscsssssssssssssssssssssssssssssssssssssssssscsssssssssssscsscssssssssssssssssssssssssssssssssssssssssssssssssssssscsssssssssssssssssssssssssssssssssssssssscssssssssssssscsssssssssscssssssssssssssssscssssssscssssssssssssss" />
    <path
       id="path16-3-7"
       style="fill:#4d6b3b;fill-opacity:1"
       d="m 910.5,-814.16992 c -32.6351,-0.0181 -59.30907,0.92365 -73.22266,2.75 -4.125,0.5415 -16.5,1.89531 -27.5,3.00781 -21.3091,2.1553 -47.501,5.54219 -50.6914,6.55469 -1.0619,0.3371 -6.9673,1.4486 -13.1211,2.4707 -23.759,3.946 -60.4844,12.46748 -83.1875,19.30078 -4.4,1.3243 -11.825,3.55227 -16.5,4.95117 -18.1522,5.4317 -44.273,15.17604 -69.5,25.92774 -15.6491,6.6695 -51.43528,24.22061 -58.77148,28.82422 l -4.77148,2.99414 0.34374,66.23437 c 0.18881,36.42937 1.08615,121.13632 1.99415,188.23633 0.908,67.1 2.10229,169.25 2.65429,227 1.0178,106.50366 1.11197,110.036 3.63867,137.48047 2.5682,27.89421 11.15194,75.241569 16.52344,91.1367188 1.0441,3.0897599 2.3246,7.58975995 2.84571,10 0.5211,2.41024 1.83677,7.0828124 2.92187,10.3828122 1.0851,3.3 2.95495,9.375 4.15625,13.5 1.2012,4.125 2.99388,9.75 3.98438,12.5 0.9906,2.75 3.00506,8.375 4.47656,12.5 7.4982,21.019 14.05548,37.39516 18.02148,45.00586 0.7181,1.3781 3.09601,6.553099 5.2832,11.499999 21.7968,49.29896 59.3416,111.53743 91.0254,150.89453 4.0292,5.0051 9.1779,11.57461 11.4414,14.59961 4.4768,5.9829 9.73446,12.00813 31.53906,36.14063 28.79331,31.8673 67.27406,65.28196 103.69336,90.04296 18.2637,12.41731 42.7888,26.55954 52.5,30.27344 1.925,0.7361 5.975,2.35516 9,3.59766 3.02471,1.24248 11.12348,3.96119 17.99805,6.04101 h 0.002 c 6.45352,1.95227 10.56427,2.7927 13.22266,2.99024 v -10.42188 c -1.7579,0.0232 -3.44144,-0.3782 -6.22266,-1.27734 -2.475,-0.8002 -8.775,-2.84136 -14,-4.53516 -21.2354,-6.8839 -54.6764,-25.62202 -80,-44.82812 -1.925,-1.46 -6.9185,-5.20667 -11.0957,-8.32617 -25.8634,-19.314 -58.99741,-49.94612 -81.98242,-75.79102 -20.0967,-22.5972 -22.6679,-25.57875 -26.6543,-30.90625 -2.2635,-3.025 -7.4122,-9.59451 -11.4414,-14.59961 -18.1081,-22.4935 -33.11611,-44.86579 -58.62891,-87.40039 -9.3595,-15.604 -23.24329,-43.25559 -35.14649,-69.999999 -10.8214,-24.31406 -10.79778,-24.25576 -18.55468,-46 -1.4715,-4.125 -3.48597,-9.75 -4.47656,-12.5 -0.9905,-2.75 -2.78318,-8.375 -3.98438,-12.5 -1.2013,-4.125 -3.07115,-10.2 -4.15625,-13.5 -1.0851,-3.2999997 -2.40077,-7.9725723 -2.92187,-10.38281225 -0.5211,-2.41023995 -1.80161,-6.91023995 -2.84571,-9.99999975 -5.3715,-15.89515 -13.95524,-63.242519 -16.52344,-91.136719 -2.5267,-27.44448 -2.62087,-30.97681 -3.63867,-137.48047 -0.552,-57.75 -1.74514,-159.9 -2.65234,-227 -0.9072,-67.10001 -1.8058,-149.77239 -1.9961,-183.7168 l -0.3457,-61.71679 5.27149,-3.03906 c 27.0623,-15.59045 85.88423,-40.30425 120.77343,-50.74415 4.675,-1.3989 12.1,-3.63981 16.5,-4.97851 21.832,-6.6426 58.7114,-15.18353 83.1875,-19.26563 6.1538,-1.0263 12.0592,-2.14141 13.1211,-2.47851 3.1904,-1.0125 29.3823,-4.39939 50.6914,-6.55469 11,-1.1125 23.375,-2.46631 27.5,-3.00781 13.41517,-1.76086 39.68429,-2.73434 70.22266,-2.76758 z" />
    <path
       id="path907"
       style="fill:#faf5ed;fill-opacity:1"
       d="m 910.5,-814.16992 v 9.98242 c 8.51954,-0.009 17.25442,0.0224 26.27734,0.16992 23.1,0.3777 45.825,1.07473 50.5,1.54883 4.675,0.4741 16.59996,1.5863 26.49996,2.4707 9.9,0.8844 21.375,2.06475 25.5,2.62305 4.125,0.5582 12.45,1.65239 18.5,2.43359 10.5556,1.3631 14.8867,2.06494 40.5,6.55274 51.6852,9.056 100.3442,22.01601 144,38.35351 14.8629,5.5622 43.8532,18.07001 45.3497,19.56641 0.9445,0.9445 -0.1888,149.01071 -2.4082,314.55078 -0.5606,41.8 -1.4282,124.825 -1.9278,184.5 -0.8132,97.12627 -1.1272,110.94261 -2.9941,131.808595 -1.147,12.82021 -2.7711,26.99521 -3.6094,31.5 -0.8384,4.5048 -1.9455,11.925281 -2.459,16.488281 -0.5134,4.56299 -1.8362,11.837376 -2.9414,16.166016 -1.1052,4.32864 -2.0098,9.075838 -2.0098,10.548828 0,1.47298 -0.8489,5.671651 -1.8847,9.332031 -1.0358,3.66038 -2.3472,8.9062502 -2.916,11.6562502 -2.2289,10.77547 -14.5923,52.0287798 -19.9297,66.4999998 -1.3185,3.575 -3.3005,8.975 -4.4043,12 -3.8872,10.6537 -20.0497,47.272199 -27.1446,61.499999 -14.1141,28.30356 -40.6181,71.26944 -58.1523,94.27344 -3.888,5.101 -8.6434,11.41951 -10.5684,14.04101 -20.497,27.9126 -69.4231,79.47936 -96.0117,101.19336 -16.8764,13.7823 -31.9081,25.6934 -36.5547,28.9668 -2.7137,1.9116 -8.0836,5.69796 -11.93356,8.41406 -14.8535,10.4787 -27.5323,18.55197 -41,26.10547 -28.1439,15.7849 -31.30517,17.44832 -38.85937,20.44922 -4.82625,1.91717 -7.17929,2.69122 -9.41797,2.7207 v 10.42188 c 0.70639,0.0525 1.8638,0.30744 2.27539,0.23047 4.7068,-0.8805 17.2761,-6.06317 25.5,-10.51367 27.2953,-14.7712 51.79401,-29.46525 65.90821,-39.53125 4.1763,-2.9784 10.252,-7.29555 13.5019,-9.59375 5.4085,-3.8246 18.2091,-13.91652 37.5899,-29.63672 24.8474,-20.1543 77.5747,-75.7174 97,-102.2168 1.925,-2.626 6.6842,-8.94978 10.5762,-14.05078 17.5104,-22.9499 42.5187,-63.51888 57.8027,-93.77344 8.8807,-17.5791 24.9163,-53.469599 29.4883,-65.999999 1.1038,-3.025 3.0858,-8.425 4.4043,-12 6.0204,-16.32296 19.2898,-61.2418329 20.8554,-70.5957029 0.469,-2.80195 1.5325,-7.0203001 2.3633,-9.3750001 0.8308,-2.35469 1.5098,-5.611571 1.5098,-7.238281 0,-1.62672 0.9046,-6.499485 2.0098,-10.828125 1.1052,-4.32864 2.4299,-11.603026 2.9433,-16.166016 0.5135,-4.563 1.6186,-11.983481 2.457,-16.488281 0.8383,-4.50479 2.4643,-18.67979 3.6114,-31.5 1.866,-20.856075 2.1776,-34.517955 2.957,-129.808595 0.4791,-58.575 1.1495,-124.725 1.4902,-147 0.9424,-61.60039 3.5046,-306.95639 3.5196,-337.09961 l 0.014,-26.59961 -9.75,-4.57422 c -11.0504,-5.1846 -27.3866,-12.16636 -37.75,-16.13476 -3.85,-1.4743 -7.9675,-3.08141 -9.1503,-3.57031 -3.3644,-1.3906 -37.0613,-12.55769 -44.8497,-14.86329 -30.3555,-8.9862 -60.9531,-16.0758 -95.5,-22.1289 -25.6133,-4.4878 -29.9444,-5.18964 -40.5,-6.55274 -6.05,-0.7812 -14.375,-1.87539 -18.5,-2.43359 -4.125,-0.5583 -15.6,-1.74216 -25.5,-2.63086 -9.9,-0.8888 -21.59996,-1.98675 -25.99996,-2.43945 -4.4,-0.4527 -28.475,-1.14662 -53.5,-1.54102 -9.35904,-0.14751 -18.16535,-0.17881 -26.77734,-0.18359 z" />
    <text
       xml:space="preserve"
       style="font-size:266.659px;line-height:0;font-family:Dovahkiin;-inkscape-font-specification:Dovahkiin;letter-spacing:0px;word-spacing:0px;fill:#4d6b3b;fill-opacity:1;stroke-width:16.6662"
       x="614.54712"
       y="-479.67712"
       id="text912"><tspan
         sodipodi:role="line"
         id="tspan910"
         x="614.54712"
         y="-479.67712"
         style="line-height:0.9;fill:#4d6b3b;fill-opacity:1;stroke-width:16.6662">s</tspan><tspan
         sodipodi:role="line"
         x="614.54712"
         y="-239.68404"
         id="tspan914"
         style="line-height:0.9;fill:#4d6b3b;fill-opacity:1;stroke-width:16.6662">o</tspan><tspan
         sodipodi:role="line"
         x="614.54712"
         y="0.30905712"
         id="tspan916"
         style="line-height:0.9;fill:#4d6b3b;fill-opacity:1;stroke-width:16.6662">t</tspan></text>
  </g>
</svg>
