<?xml version="1.0" encoding="UTF-8" standalone="no"?>
<svg
   xmlns:dc="http://purl.org/dc/elements/1.1/"
   xmlns:cc="http://creativecommons.org/ns#"
   xmlns:rdf="http://www.w3.org/1999/02/22-rdf-syntax-ns#"
   xmlns:svg="http://www.w3.org/2000/svg"
   xmlns="http://www.w3.org/2000/svg"
   xmlns:sodipodi="http://sodipodi.sourceforge.net/DTD/sodipodi-0.dtd"
   xmlns:inkscape="http://www.inkscape.org/namespaces/inkscape"
   version="1.1"
   id="svg2"
   width="1025"
   height="1318.9866"
   viewBox="0 0 1025 1318.9866"
   sodipodi:docname="Steelgorge.svg"
   inkscape:version="1.0.1 (3bc2e813f5, 2020-09-07)">
  <metadata
     id="metadata8">
    <rdf:RDF>
      <cc:Work
         rdf:about="">
        <dc:format>image/svg+xml</dc:format>
        <dc:type
           rdf:resource="http://purl.org/dc/dcmitype/StillImage" />
        <dc:title></dc:title>
      </cc:Work>
    </rdf:RDF>
  </metadata>
  <defs
     id="defs6" />
  <sodipodi:namedview
     pagecolor="#ffffff"
     bordercolor="#666666"
     borderopacity="1"
     objecttolerance="10"
     gridtolerance="10"
     guidetolerance="10"
     inkscape:pageopacity="0"
     inkscape:pageshadow="2"
     inkscape:window-width="1920"
     inkscape:window-height="1057"
     id="namedview4"
     showgrid="false"
     inkscape:pagecheckerboard="true"
     inkscape:zoom="0.49"
     inkscape:cx="513"
     inkscape:cy="667.98659"
     inkscape:window-x="-8"
     inkscape:window-y="-8"
     inkscape:window-maximized="1"
     inkscape:current-layer="g10" />
  <g
     inkscape:groupmode="layer"
     inkscape:label="Image"
     id="g10"
     transform="translate(-237,-82.013412)">
    <path
       style="fill:#ffffff"
       d="m 744.63835,1399.5 c -0.31658,-0.825 -1.46317,-1.5 -2.54797,-1.5 -1.0848,0 -2.25502,-0.4573 -2.60048,-1.0163 -0.34546,-0.559 -1.0502,-0.7555 -1.56608,-0.4366 -0.51588,0.3188 -1.22184,-0.1601 -1.56881,-1.0643 -0.38525,-1.0039 -1.35537,-1.4545 -2.49194,-1.1572 -1.0236,0.2676 -2.1131,0.079 -2.42111,-0.4195 -0.30801,-0.4983 -1.43346,-0.9061 -2.501,-0.9061 -1.06754,0 -1.94449,-0.3375 -1.94878,-0.75 -0.0106,-1.0147 -4.95688,-3.25 -7.19156,-3.25 -0.99035,0 -1.80064,-0.45 -1.80064,-1 0,-0.55 -0.675,-1 -1.5,-1 -0.825,0 -1.5,-0.45 -1.5,-1 0,-0.55 -1.125,-1 -2.5,-1 -1.375,0 -2.5,-0.366 -2.5,-0.8134 0,-0.4473 -1.575,-1.4313 -3.5,-2.1866 -1.925,-0.7553 -3.5,-1.7393 -3.5,-2.1866 0,-0.4474 -1.125,-0.8134 -2.5,-0.8134 -1.375,0 -2.5,-0.45 -2.5,-1 0,-0.55 -0.675,-1 -1.5,-1 -0.825,0 -1.5,-0.366 -1.5,-0.8134 0,-0.4473 -1.575,-1.4313 -3.5,-2.1866 -1.925,-0.7553 -3.5,-1.7393 -3.5,-2.1866 0,-0.4474 -1.125,-0.8134 -2.5,-0.8134 -1.375,0 -2.5,-0.4142 -2.5,-0.9205 0,-0.5063 -1.35,-1.2171 -3,-1.5795 -1.65,-0.3624 -3,-0.9892 -3,-1.3928 0,-0.4037 -1.575,-1.3519 -3.5,-2.1072 -1.925,-0.7553 -3.5,-1.7393 -3.5,-2.1866 0,-0.4474 -0.675,-0.8134 -1.5,-0.8134 -0.825,0 -1.5,-0.366 -1.5,-0.8134 0,-0.4473 -1.575,-1.4313 -3.5,-2.1866 -1.925,-0.7553 -3.5,-1.7393 -3.5,-2.1866 0,-0.4474 -0.675,-0.8134 -1.5,-0.8134 -0.825,0 -1.5,-0.366 -1.5,-0.8134 0,-0.4473 -1.575,-1.4313 -3.5,-2.1866 -1.925,-0.7553 -3.5,-1.7393 -3.5,-2.1866 0,-0.4474 -0.675,-0.8134 -1.5,-0.8134 -0.825,0 -1.5,-0.45 -1.5,-1 0,-0.55 -0.5625,-1.0183 -1.25,-1.0406 -0.6875,-0.022 -2.78566,-1.3537 -4.66257,-2.9586 -1.87691,-1.6048 -3.75862,-2.704 -4.18158,-2.4426 -0.42295,0.2614 -1.3623,-0.3198 -2.08743,-1.2915 -0.72513,-0.9717 -2.66842,-2.4417 -4.31842,-3.2667 -1.65,-0.825 -3.58802,-2.2875 -4.3067,-3.25 -0.71869,-0.9625 -1.95619,-1.75 -2.75,-1.75 -0.79382,0 -1.4433,-0.45 -1.4433,-1 0,-0.55 -0.57566,-1 -1.27924,-1 -0.70358,0 -1.92792,-0.9 -2.72076,-2 -0.79284,-1.1 -2.01718,-2 -2.72076,-2 -0.70358,0 -1.27924,-0.45 -1.27924,-1 0,-0.55 -0.52759,-1 -1.17242,-1 -0.64483,0 -3.79483,-2.2809 -7,-5.0687 -3.20517,-2.7877 -5.82758,-4.7126 -5.82758,-4.2775 0,0.4352 -0.70052,-0.2089 -1.5567,-1.4313 -0.85619,-1.2224 -2.10685,-2.2225 -2.77924,-2.2225 -0.6724,0 -1.87122,-0.9 -2.66406,-2 -0.79284,-1.1 -1.91784,-2 -2.5,-2 -0.58216,0 -1.70716,-0.9 -2.5,-2 -0.79284,-1.1 -1.90468,-2.0041 -2.47076,-2.0091 -0.56608,-0.01 -2.09239,-1.355 -3.3918,-3 -1.29941,-1.645 -2.87441,-2.9922 -3.5,-2.9938 -0.62559,0 -2.03744,-1.3503 -3.13744,-2.9971 -1.1,-1.6468 -2.51588,-2.9955 -3.14641,-2.9971 -0.63052,0 -2.52927,-1.5779 -4.21945,-3.5029 -1.69017,-1.925 -3.48613,-3.5 -3.99103,-3.5 -0.50489,0 -1.98114,-1.3459 -3.28055,-2.9909 -1.29941,-1.645 -2.73495,-2.995 -3.19009,-3 -0.98299,-0.011 -8.60712,-8.1758 -8.64574,-9.2591 -0.0147,-0.4125 -0.6754,-0.75 -1.46823,-0.75 -0.79282,0 -3.83032,-2.8948 -6.75,-6.4328 -2.91968,-3.538 -5.81238,-6.463 -6.42828,-6.5 -0.6159,-0.037 -2.6409,-1.9405 -4.5,-4.2301 -1.8591,-2.2895 -5.1802,-6.1779 -7.3802,-8.6408 -4.247,-4.7545 -4.5369,-5.0893 -11.4436,-13.2137 -2.444,-2.8748 -4.919,-5.7392 -5.5,-6.3652 -0.581,-0.626 -3.7542,-4.2835 -7.0515,-8.1278 -3.2974,-3.8443 -6.4474,-7.4922 -7,-8.1066 -3.8267,-4.2535 -5.5049,-6.5491 -5.5049,-7.5297 0,-1.1103 -10.7784,-14.0326 -12.25,-14.6866 -0.4125,-0.1834 -0.7539,-1.0834 -0.7587,-2 -0.01,-0.9167 -1.5798,-3.3242 -3.5,-5.3499 -1.9202,-2.0258 -3.4983,-4.2758 -3.5069,-5 -0.01,-0.7243 -1.8016,-3.3418 -3.9844,-5.8168 -2.1828,-2.475 -3.9844,-4.95 -4.0036,-5.5 -0.019,-0.55 -1.5779,-2.7681 -3.4639,-4.9292 -1.886,-2.1611 -3.2429,-4.2304 -3.0154,-4.5986 0.2276,-0.3681 -0.4707,-1.6186 -1.5517,-2.7789 -1.081,-1.1603 -1.9654,-2.5981 -1.9654,-3.1951 0,-0.597 -1.125,-2.2987 -2.5,-3.7816 -1.375,-1.4829 -2.5,-3.0683 -2.5,-3.5231 0,-0.4548 -1.125,-2.3019 -2.5,-4.1046 -1.375,-1.8027 -2.5,-3.6898 -2.5,-4.1935 0,-0.5037 -1.125,-2.1291 -2.5,-3.612 -1.375,-1.4829 -2.5,-3.3357 -2.5,-4.1173 0,-0.7817 -0.675,-1.9814 -1.5,-2.6661 -0.825,-0.6847 -1.5,-2.0898 -1.5,-3.1224 0,-1.0327 -0.4414,-1.8776 -0.981,-1.8776 -0.5395,0 -1.255,-1.0919 -1.5899,-2.4264 -0.3349,-1.3345 -1.4685,-3.2043 -2.5191,-4.155 -1.0505,-0.9507 -1.91,-2.2787 -1.91,-2.9511 0,-0.6725 -0.675,-1.7828 -1.5,-2.4675 -0.825,-0.6847 -1.5,-2.0898 -1.5,-3.1224 0,-1.0327 -0.3634,-1.8776 -0.8076,-1.8776 -0.4441,0 -1.6017,-1.8 -2.5723,-4 -0.9707,-2.2 -2.1322,-4 -2.5812,-4 -0.449,0 -1.1002,-1.5132 -1.4472,-3.3627 -0.3469,-1.8495 -1.4965,-4.1462 -2.5546,-5.1037 -1.0581,-0.9575 -2.2346,-3.1564 -2.6146,-4.8864 -0.38,-1.7299 -1.4701,-3.8212 -2.4225,-4.6472 -0.9524,-0.826 -2.0395,-2.9031 -2.4156,-4.6158 -0.3762,-1.7127 -1.5094,-3.9999 -2.5182,-5.0828 -1.0088,-1.0828 -2.1369,-3.347 -2.5069,-5.0314 -0.37,-1.6844 -1.5384,-3.8461 -2.5964,-4.8036 -1.0581,-0.9575 -2.2077,-3.2542 -2.5546,-5.1037 -0.347,-1.8495 -1.0308,-3.3627 -1.5196,-3.3627 -0.4888,0 -0.8887,-0.9 -0.8887,-2 0,-1.1 -0.4697,-2 -1.0439,-2 -0.5741,0 -0.9519,-0.5625 -0.8396,-1.25 0.2996,-1.8335 -1.6665,-6.1317 -3.5013,-7.6544 -0.8763,-0.7272 -1.3658,-1.6901 -1.0879,-2.1398 0.2779,-0.4497 0.048,-1.1003 -0.511,-1.4457 -0.559,-0.3455 -1.0163,-1.5016 -1.0163,-2.5691 0,-1.0676 -0.45,-1.941 -1,-1.941 -0.55,0 -1,-0.8734 -1,-1.941 0,-1.0675 -0.4574,-2.2236 -1.0163,-2.5691 -0.559,-0.3454 -0.7767,-1.0159 -0.4837,-1.4899 0.2929,-0.474 0.075,-1.1445 -0.4837,-1.4899 -0.559,-0.3455 -1.0163,-1.5016 -1.0163,-2.5691 0,-1.0676 -0.45,-1.941 -1,-1.941 -0.55,0 -1,-0.9 -1,-2 0,-1.1 -0.4766,-2 -1.059,-2 -0.5825,0 -0.8074,-0.4072 -0.4997,-0.905 0.3076,-0.4977 -0.3073,-2.6352 -1.3663,-4.75 -3.6526,-7.29352 -5.075,-10.65652 -5.075,-11.99862 0,-0.7405 -0.45,-1.3464 -1,-1.3464 -0.55,0 -1.0019,-0.7875 -1.0042,-1.75 0,-0.9625 -1.0873,-3.8847 -2.4111,-6.4938 -1.3237,-2.609 -2.7114,-6.5465 -3.0837,-8.75 -0.3722,-2.2034 -1.0873,-4.0062 -1.5889,-4.0062 -0.5017,0 -0.9121,-0.9 -0.9121,-2 0,-1.1 -0.4105,-2 -0.9121,-2 -0.5017,0 -1.2167,-1.8028 -1.589,-4.0062 -0.3722,-2.2034 -1.7599,-6.1409 -3.0837,-8.75 -1.3238,-2.6091 -2.4087,-5.5313 -2.411,-6.4938 0,-0.9625 -0.4542,-1.75 -1.0042,-1.75 -0.55,0 -1,-1.35 -1,-3 C 347,937.35 346.5895,936 346.0879,936 c -0.5017,0 -1.2299,-1.88114 -1.6184,-4.18032 -0.3884,-2.29917 -1.4997,-5.59303 -2.4695,-7.31968 -0.9698,-1.72665 -2.0811,-5.02051 -2.4696,-7.31968 C 339.142,914.88114 338.4137,913 337.9121,913 337.4104,913 337,911.65 337,910 c 0,-1.65 -0.4105,-3 -0.9121,-3 -0.5017,0 -1.2299,-1.88114 -1.6184,-4.18032 -0.3884,-2.29917 -1.5415,-5.66737 -2.5623,-7.48487 -1.0208,-1.81751 -1.6119,-3.94085 -1.3135,-4.71853 0.2985,-0.77769 0.062,-1.71105 -0.5255,-2.07415 C 329.4807,888.17904 329,886.55852 329,884.94098 329,883.32344 328.55,882 328,882 c -0.55,0 -1,-1.35 -1,-3 0,-1.65 -0.4982,-3 -1.107,-3 -0.6088,0 -0.8606,-0.6422 -0.5594,-1.42712 C 325.9601,872.94041 323.9575,867 322.7807,867 322.3513,867 322,865.67656 322,864.05902 c 0,-1.61754 -0.4078,-3.19299 -0.9061,-3.501 -0.4984,-0.30801 -0.6842,-1.40878 -0.4129,-2.44616 0.2713,-1.03738 0,-2.18849 -0.5939,-2.55802 C 319.4892,855.18431 319,853.81008 319,852.5 c 0,-1.31008 -0.45,-2.66008 -1,-3 -0.55,-0.33992 -1,-1.68992 -1,-3 0,-1.31008 -0.4078,-2.63397 -0.9061,-2.94198 -0.4984,-0.30801 -0.6842,-1.40878 -0.4129,-2.44616 0.2713,-1.03738 0,-2.18849 -0.5939,-2.55802 C 314.4892,838.18431 314,836.55852 314,834.94098 314,833.32344 313.6018,832 313.1152,832 c -0.4866,0 -1.1931,-2.46791 -1.57,-5.48424 -0.3768,-3.01633 -1.1037,-5.74289 -1.6152,-6.05901 -0.5115,-0.31613 -0.93,-2.09667 -0.93,-3.95675 0,-1.86008 -0.4079,-3.63403 -0.9063,-3.9421 -0.4985,-0.30807 -1.2157,-2.80913 -1.5937,-5.5579 -0.3781,-2.74877 -1.0952,-5.24983 -1.5937,-5.5579 -0.4985,-0.30807 -0.9063,-2.01858 -0.9063,-3.80112 0,-1.78254 -0.4472,-3.68818 -0.9938,-4.23476 -0.5466,-0.54658 -1.2857,-3.78658 -1.6424,-7.2 C 301.007,782.7928 300.3292,780 299.8575,780 299.3859,780 299,778.65 299,777 c 0,-1.65 -0.3971,-3 -0.8825,-3 -0.4854,0 -1.1988,-3.375 -1.5853,-7.5 -0.3866,-4.125 -1.1145,-7.5 -1.6175,-7.5 -0.5031,0 -0.9147,-1.8 -0.9147,-4 0,-2.2 -0.3859,-4 -0.8576,-4 -0.4716,0 -1.1494,-2.7928 -1.5062,-6.20622 -0.3568,-3.41342 -1.0959,-6.65342 -1.6424,-7.2 C 289.4472,737.0472 289,735.115 289,733.3 c 0,-1.815 -0.3853,-3.3 -0.8562,-3.3 -0.471,0 -1.1656,-3.70968 -1.5438,-8.24372 -0.3781,-4.53405 -1.1178,-8.67405 -1.6437,-9.2 -0.526,-0.52596 -0.9563,-2.41472 -0.9563,-4.19726 0,-1.78254 -0.4198,-3.50041 -0.9328,-3.81749 -0.5131,-0.31708 -1.247,-4.17852 -1.6311,-8.58099 -0.384,-4.40246 -1.0892,-8.24615 -1.5672,-8.54153 C 279.391,687.12364 279,684.91008 279,682.5 c 0,-2.41008 -0.4198,-4.64139 -0.9328,-4.95847 -0.5131,-0.31708 -1.247,-4.17852 -1.6311,-8.58099 -0.384,-4.40246 -1.0892,-8.24615 -1.5672,-8.54153 C 274.391,660.12364 274,657.91008 274,655.5 c 0,-2.41008 -0.4143,-4.63799 -0.9206,-4.9509 -0.5063,-0.31292 -1.2399,-5.07417 -1.6303,-10.58056 -0.3904,-5.5064 -1.1012,-10.25349 -1.5795,-10.5491 C 269.3913,629.12383 269,626.88352 269,624.44098 269,621.99844 268.5269,620 267.9486,620 c -0.6031,0 -1.0467,-2.23865 -1.0404,-5.25 0.016,-7.88048 -0.9852,-15.75 -2.0047,-15.75 -0.4969,0 -0.9035,-3.15 -0.9035,-7 0,-3.85 -0.384,-7 -0.8532,-7 -0.4693,0 -0.6427,-2.19153 -0.3853,-4.87007 0.2873,-2.99011 0.038,-5.13601 -0.6468,-5.55901 C 261.4975,574.18943 261,571.23063 261,567.94098 261,564.64699 260.5544,562 260,562 c -0.5614,0 -1,-2.77778 -1,-6.33333 0,-3.48334 -0.3032,-6.63657 -0.6739,-7.00718 -0.3706,-0.37062 -0.5656,-3.32553 -0.4333,-6.56646 0.1371,-3.35894 -0.2182,-6.17607 -0.8262,-6.55184 C 256.48,535.17862 256,531.98352 256,528.44098 256,524.81366 255.5631,522 255,522 c -0.5833,0 -1,-3.33333 -1,-8 0,-4.4 -0.3375,-7.99895 -0.75,-7.99767 -0.4125,0.001 -0.6001,-3.42633 -0.4169,-7.61691 0.2004,-4.58457 -0.098,-8.05062 -0.75,-8.70233 -0.5957,-0.5957 -1.0831,-4.34153 -1.0831,-8.32407 0,-3.98254 -0.45,-7.5191 -1,-7.85902 -0.5524,-0.34141 -1,-4.84372 -1,-10.05902 0,-5.19254 -0.3375,-9.43993 -0.75,-9.43865 -0.4125,0.001 -0.6001,-3.42633 -0.4169,-7.61691 0.2004,-4.58457 -0.098,-8.05062 -0.75,-8.70233 C 246.4334,437.03343 246,432.07794 246,425.3 c 0,-6.86667 -0.3923,-11.3 -1,-11.3 -0.6022,0 -1,-4.11111 -1,-10.33333 0,-5.68334 -0.2738,-10.60714 -0.6085,-10.9418 -0.3346,-0.33465 -0.5375,-6.48465 -0.4508,-13.66666 C 243.0439,370.51102 242.7359,366 242.0492,366 241.362,366 241,360.65121 241,350.5 c 0,-9.66667 -0.3764,-15.5 -1,-15.5 -0.6306,0 -1,-6.83333 -1,-18.5 0,-11.66667 -0.3694,-18.5 -1,-18.5 -0.6325,0 -1,-7.16667 -1,-19.5 V 259 h 2.441 c 1.3425,0 2.7191,-0.45 3.059,-1 0.3399,-0.55 1.9415,-1 3.559,-1 1.6175,0 2.941,-0.45 2.941,-1 0,-0.55 1.125,-1 2.5,-1 1.375,0 2.5,-0.45 2.5,-1 0,-0.55 1.125,-1 2.5,-1 1.375,0 2.5,-0.45 2.5,-1 0,-0.55 1.575,-1 3.5,-1 1.925,0 3.5,-0.45 3.5,-1 0,-0.55 1.125,-1 2.5,-1 1.375,0 2.5,-0.45 2.5,-1 0,-0.55 1.125,-1 2.5,-1 1.375,0 2.5,-0.50246 2.5,-1.11658 0,-0.65103 1.0397,-0.91782 2.4936,-0.63988 1.3797,0.26375 2.9759,-0.10433 3.5731,-0.82398 0.5938,-0.71538 1.6761,-1.07175 2.4052,-0.79195 0.7292,0.27981 1.6229,0.0281 1.986,-0.55944 0.363,-0.58749 1.7586,-1.06817 3.1011,-1.06817 1.3425,0 2.441,-0.45 2.441,-1 0,-0.55 1.1311,-1 2.5136,-1 1.3824,0 3.2949,-0.3975 4.25,-0.88333 0.955,-0.48583 3.0864,-1.43833 4.7364,-2.11667 1.65,-0.67834 3.7814,-1.63084 4.7364,-2.11667 0.9551,-0.48583 2.8676,-0.88333 4.25,-0.88333 1.3825,0 2.5136,-0.45 2.5136,-1 0,-0.55 1.125,-1 2.5,-1 1.375,0 2.5,-0.45 2.5,-1 0,-0.55 1.125,-1 2.5,-1 1.375,0 2.5,-0.45 2.5,-1 0,-0.55 1.575,-1 3.5,-1 1.925,0 3.5,-0.45 3.5,-1 0,-0.55 1.125,-1 2.5,-1 1.375,0 2.5,-0.45 2.5,-1 0,-0.55 1.125,-1 2.5,-1 1.375,0 2.5,-0.45 2.5,-1 0,-0.55 1.1311,-1 2.5136,-1 1.3824,0 3.2949,-0.41715 4.25,-0.927 2.6537,-1.41674 5.6408,-2.41218 6.5916,-2.19667 0.4704,0.10661 1.5455,-0.37897 2.3891,-1.07907 0.8435,-0.7001 2.5532,-1.13932 3.7992,-0.97604 1.246,0.16329 2.56,-0.17969 2.92,-0.76217 0.36,-0.58248 1.753,-1.05905 3.0955,-1.05905 1.3425,0 2.441,-0.45 2.441,-1 0,-0.55 1.125,-1 2.5,-1 1.375,0 2.5,-0.45 2.5,-1 0,-0.55 1.1311,-1 2.5136,-1 1.3824,0 3.2949,-0.3975 4.25,-0.88333 0.955,-0.48583 2.9739,-1.38583 4.4864,-2 1.5125,-0.61417 3.9875,-1.61917 5.5,-2.23334 1.5125,-0.61417 3.5314,-1.51417 4.4864,-2 0.9551,-0.48583 2.8676,-0.88333 4.25,-0.88333 1.3825,0 2.5136,-0.45 2.5136,-1 0,-0.55 1.125,-1 2.5,-1 1.375,0 2.5,-0.45 2.5,-1 0,-0.55 1.125,-1 2.5,-1 1.375,0 2.5,-0.45 2.5,-1 0,-0.55 1.575,-1 3.5,-1 1.925,0 3.5,-0.45 3.5,-1 0,-0.55 1.125,-1 2.5,-1 1.375,0 2.5,-0.45 2.5,-1 0,-0.55 1.125,-1 2.5,-1 1.375,0 2.5,-0.45857 2.5,-1.01905 0,-0.56709 1.0308,-0.76034 2.3242,-0.43572 1.4319,0.35938 2.7897,0.0224 3.5368,-0.87771 0.6669,-0.80358 2.096,-1.23002 3.1758,-0.94765 1.0853,0.28383 1.9632,0.0141 1.9632,-0.60324 0,-0.61415 1.125,-1.11663 2.5,-1.11663 1.375,0 2.5,-0.45 2.5,-1 0,-0.55 1.575,-1 3.5,-1 1.925,0 3.5,-0.45 3.5,-1 0,-0.55 1.125,-1 2.5,-1 1.375,0 2.5,-0.45 2.5,-1 0,-0.55 1.125,-0.99998 2.5,-0.99998 1.375,0 2.5,-0.45 2.5,-1 0,-0.55 1.1311,-1 2.5136,-1 1.3824,0 3.2949,-0.3975 4.25,-0.88333 0.955,-0.48583 3.0864,-1.43833 4.7364,-2.11667 1.65,-0.67834 3.7814,-1.63084 4.7364,-2.11667 0.9551,-0.48583 2.8676,-0.88333 4.25,-0.88333 1.3825,0 2.5136,-0.45 2.5136,-1 0,-0.55 1.125,-1 2.5,-1 1.375,0 2.5,-0.45 2.5,-1 0,-0.55 1.125,-1 2.5,-1 1.375,0 2.5,-0.45 2.5,-1 0,-0.55 1.575,-1 3.5,-1 1.925,0 3.5,-0.45 3.5,-1 0,-0.55 1.125,-1 2.5,-1 1.375,0 2.5,-0.40787 2.5,-0.90638 0,-0.49851 0.8945,-0.67246 1.9878,-0.38655 1.1922,0.31175 2.2082,-0.0544 2.5384,-0.91479 0.3651,-0.95132 1.5483,-1.28819 3.5122,-0.99996 1.7692,0.25967 2.9616,-0.0136 2.9616,-0.67882 0,-0.61243 1.125,-1.1135 2.5,-1.1135 1.375,0 2.5,-0.45 2.5,-1 0,-0.55 1.125,-1 2.5,-1 1.375,0 2.5,-0.45 2.5,-1 0,-0.55 1.575,-1 3.5,-1 1.925,0 3.5,-0.45 3.5,-1 0,-0.55 1.125,-1 2.5,-1 1.37498,0 2.49998,-0.45 2.49998,-1 0,-0.55 1.125,-1 2.5,-1 1.375,0 2.5,-0.45 2.5,-1 0,-0.55 1.13111,-1 2.51357,-1 1.38246,0 3.29496,-0.3975 4.25,-0.88333 0.95504,-0.48583 3.08643,-1.43833 4.73643,-2.11667 1.65,-0.67834 3.78139,-1.63084 4.73643,-2.11667 0.95504,-0.48583 2.86754,-0.88333 4.25,-0.88333 1.38246,0 2.51357,-0.45 2.51357,-1 0,-0.55 1.125,-1 2.5,-1 1.375,0 2.5,-0.45 2.5,-1 0,-0.55 1.125,-1 2.5,-1 1.375,0 2.5,-0.45715 2.5,-1.01588 0,-0.55874 1.4286,-0.90703 3.17466,-0.77399 1.74606,0.13305 3.34264,-0.26203 3.54795,-0.87796 0.20531,-0.61592 1.24624,-0.89157 2.31319,-0.61256 1.17066,0.30614 2.16859,-0.0887 2.51663,-0.99565 0.33199,-0.86515 1.35016,-1.30069 2.39929,-1.02633 1.00241,0.26213 2.12491,-0.0126 2.49444,-0.61051 0.36953,-0.59792 1.99532,-1.08712 3.61286,-1.08712 1.61754,0 2.94098,-0.45 2.94098,-1 0,-0.55 1.125,-1 2.5,-1 1.375,0 2.5,-0.45 2.5,-1 0,-0.55 1.125,-1 2.5,-1 1.375,0 2.5,-0.45 2.5,-1 0,-0.55 1.575,-1 3.5,-1 1.925,0 3.5,-0.45 3.5,-1 0,-0.55 1.125,-1 2.5,-1 1.375,0 2.5,-0.45 2.5,-1 0,-0.55 1.125,-1 2.5,-1 1.375,0 2.5,-0.45 2.5,-1 0,-0.55 1.13111,-1 2.51357,-1 1.38246,0 3.29496,-0.3975 4.25,-0.88333 0.95504,-0.48583 3.08643,-1.43833 4.73643,-2.11667 1.65,-0.67834 3.78139,-1.63084 4.73643,-2.11667 0.95504,-0.48583 2.86754,-0.88333 4.25,-0.88333 1.38246,0 2.51357,-0.45 2.51357,-1 0,-0.55 1.125,-1 2.5,-1 1.375,0 2.5,-0.48032 2.5,-1.06739 0,-0.61318 0.85315,-0.79661 2.00493,-0.43105 1.29322,0.41046 2.20359,0.11863 2.56458,-0.8221 0.34005,-0.88615 1.34489,-1.2531 2.56078,-0.93514 1.10062,0.28782 3.09656,0.0131 4.43542,-0.61051 1.33886,-0.62359 3.67179,-1.63631 5.18429,-2.25048 1.5125,-0.61417 3.53139,-1.51417 4.48643,-2 0.95504,-0.48583 2.86754,-0.88333 4.25,-0.88333 1.38246,0 2.51357,-0.45 2.51357,-1 0,-0.55 1.125,-1 2.5,-1 1.375,0 2.5,-0.45 2.5,-1 0,-0.55 1.125,-1 2.5,-1 1.375,0 2.5,-0.45 2.5,-1 0,-0.550007 1.575,-1.000007 3.5,-1.000007 1.925,0 3.5,-0.45 3.5,-1 0,-0.55 1.125,-1 2.5,-1 1.375,0 2.5,-0.45 2.5,-1 0,-0.55 1.125,-1 2.5,-1 1.375,0 2.5,-0.45 2.5,-1 0,-0.55 1.35,-1 3,-1 1.65,0 3,-0.45 3,-1 0,-0.55 0.90611,-1 2.01357,-1 1.10746,0 2.90746,-0.45 4,-1 1.09254,-0.55 2.88032,-1.45 3.97286,-2 1.09254,-0.55 3.11754,-1 4.5,-1 1.38246,0 2.51357,-0.48033 2.51357,-1.06739 0,-0.61319 0.85315,-0.79661 2.00493,-0.43105 1.29322,0.41045 2.20359,0.11863 2.56458,-0.8221 0.31708,-0.82629 1.34963,-1.25186 2.38221,-0.98184 1.00241,0.26214 2.12491,-0.0126 2.49444,-0.61051 0.89601,-1.44977 9.55384,-1.42302 9.55384,0.0295 0,0.61734 0.87786,0.88707 1.96323,0.60324 1.07978,-0.28237 2.50188,0.13563 3.16022,0.92888 0.65834,0.79325 1.78547,1.21645 2.50474,0.94044 0.71927,-0.27601 1.57373,-0.0715 1.8988,0.45449 0.32508,0.52598 1.91449,0.95633 3.53203,0.95633 1.61754,0 2.94098,0.45 2.94098,1 0,0.55 1.125,1 2.5,1 1.375,0 2.5,0.45 2.5,1 0,0.55 1.125,1 2.5,1 1.375,0 2.5,0.45 2.5,1 0,0.55 1.575,1 3.5,1 1.925,0 3.5,0.45 3.5,1 0,0.55 1.125,1 2.5,1 1.375,0 2.5,0.45 2.5,1 0,0.55 1.125,1 2.5,1 1.375,0 2.5,0.45 2.5,1 0,0.55 1.13111,1 2.51357,1 1.38246,0 3.29496,0.39749 4.25,0.88333 0.95504,0.485837 3.08643,1.438337 4.73643,2.116677 1.65,0.67834 3.78139,1.63084 4.73643,2.11667 0.95504,0.48583 2.64864,0.88333 3.76357,0.88333 1.11493,0 2.80853,0.3975 3.76357,0.88333 0.95504,0.48583 2.86143,1.32562 4.23643,1.8662 1.375,0.54058 3.70714,1.55288 5.18254,2.24955 1.4754,0.69667 3.355,1.00863 4.17689,0.69324 0.82189,-0.31539 2.03728,0.0808 2.70086,0.88032 0.66358,0.79957 1.70898,1.37685 2.32311,1.28284 1.21284,-0.18565 4.10372,0.74979 6.85303,2.21752 0.95504,0.50985 2.86754,0.927 4.25,0.927 1.38246,0 2.51357,0.45 2.51357,1 0,0.55 1.125,1 2.5,1 1.375,0 2.5,0.45 2.5,1 0,0.55 1.125,1 2.5,1 1.375,0 2.5,0.45 2.5,1 0,0.55 1.575,1 3.5,1 1.925,0 3.5,0.45 3.5,1 0,0.55 1.125,1 2.5,1 1.375,0 2.5,0.45 2.5,1 0,0.55 1.125,1 2.5,1 1.375,0 2.5,0.45 2.5,1 0,0.55 1.13111,1 2.51357,1 1.38246,0 3.29496,0.3975 4.25,0.88333 0.95504,0.48583 3.08643,1.43833 4.73643,2.11667 1.65,0.67834 3.78139,1.63084 4.73643,2.11667 0.95504,0.48583 2.64864,0.88333 3.76357,0.88333 1.11493,0 3.03353,0.52026 4.26357,1.15613 4.99329,2.58129 5.8534,2.88961 6.6638,2.38876 0.46531,-0.28758 1.41054,0.15734 2.10051,0.9887 0.69935,0.84267 2.04937,1.25928 3.05075,0.94145 0.98795,-0.31356 2.61192,-0.15122 3.60882,0.36075 0.9969,0.51198 3.16255,1.48587 4.81255,2.16421 1.65,0.67834 3.78139,1.63084 4.73643,2.11667 0.95504,0.48583 2.86754,0.88333 4.25,0.88333 1.38246,0 2.51357,0.45 2.51357,1 0,0.55 1.125,1 2.5,1 1.375,0 2.5,0.45 2.5,1 0,0.55 1.125,1 2.5,1 1.375,0 2.5,0.45 2.5,1 0,0.55 1.575,1 3.5,1 1.925,0 3.5,0.45 3.5,1 0,0.55 1.125,1 2.5,1 1.375,0 2.5,0.45 2.5,1 0,0.55 1.125,1 2.5,1 1.375,0 2.5,0.45 2.5,1 0,0.55 1.13111,1 2.51357,1 1.38246,0 3.29496,0.3975 4.25,0.88333 0.95504,0.48583 3.08643,1.43833 4.73643,2.11667 1.65,0.67834 3.78139,1.63084 4.73643,2.11667 0.95504,0.48583 2.84098,0.88333 4.19098,0.88333 1.35001,0 2.75163,0.48068 3.11472,1.06817 0.3631,0.5875 1.27524,0.83215 2.027,0.54368 0.75175,-0.28848 1.63279,-0.0942 1.95786,0.43182 0.32508,0.52598 1.68949,0.95633 3.03203,0.95633 1.34254,0 2.44098,0.45 2.44098,1 0,0.55 1.13111,1 2.51357,1 1.38246,0 3.29495,0.3975 4.25005,0.88333 1.7885,0.90983 5.8514,2.64317 10.2364,4.36714 1.375,0.54058 3.2814,1.38037 4.2364,1.8662 0.9551,0.48583 2.8676,0.88333 4.25,0.88333 1.3825,0 2.5136,0.45 2.5136,1 0,0.55 1.125,1 2.5,1 1.375,0 2.5,0.45 2.5,1 0,0.55 1.125,1 2.5,1 1.375,0 2.5,0.45 2.5,1 0,0.55 1.575,1 3.5,1 1.925,0 3.5,0.44998 3.5,0.99998 0,0.55 1.125,1 2.5,1 1.375,0 2.5,0.45 2.5,1 0,0.55 1.125,1 2.5,1 1.375,0 2.5,0.45 2.5,1 0,0.55 1.3234,1 2.941,1 1.6175,0 3.2433,0.4892 3.6128,1.08712 0.3696,0.59791 1.4921,0.87264 2.4945,0.61051 1.0326,-0.27003 2.0651,0.15554 2.3822,0.98183 0.361,0.94073 1.2713,1.23256 2.5646,0.8221 1.1518,-0.36556 2.0049,-0.18213 2.0049,0.43105 0,0.58707 1.3234,1.06739 2.941,1.06739 1.6175,0 3.2191,0.45 3.559,1 0.3399,0.55 1.7165,1 3.059,1 1.3426,0 2.441,0.45 2.441,1 0,0.55 1.125,1 2.5,1 1.375,0 2.5,0.45 2.5,1 0,0.55 1.1311,1 2.5136,1 1.3824,0 3.2949,0.3975 4.25,0.88333 0.955,0.48583 3.0864,1.43833 4.7364,2.11667 1.65,0.67834 3.7814,1.63084 4.7364,2.11667 0.9551,0.48583 2.8676,0.88333 4.25,0.88333 1.3825,0 2.5136,0.45 2.5136,1 0,0.55 1.125,1 2.5,1 1.375,0 2.5,0.45 2.5,1 0,0.55 1.125,1 2.5,1 1.375,0 2.5,0.45 2.5,1 0,0.55 1.575,1 3.5,1 1.925,0 3.5,0.45 3.5,1 0,0.55 1.125,1 2.5,1 1.375,0 2.5,0.45 2.5,1 0,0.55 1.125,1 2.5,1 1.375,0 2.5,0.50107 2.5,1.1135 0,0.66519 1.1924,0.93849 2.9616,0.67882 1.9283,-0.28301 3.1478,0.0504 3.4951,0.95546 0.3368,0.87766 1.2726,1.15554 2.5384,0.75378 1.1518,-0.36556 2.0049,-0.18213 2.0049,0.43105 0,0.58707 1.125,1.06739 2.5,1.06739 1.375,0 2.5,0.45 2.5,1 0,0.55 1.1311,1 2.5136,1 1.3824,0 3.4074,0.45 4.5,1 1.0925,0.55 2.8803,1.45 3.9728,2 1.0926,0.55 2.8926,1 4,1 1.1075,0 2.0136,0.45 2.0136,1 0,0.55 1.35,1 3,1 1.65,0 3,0.45 3,1 0,0.55 1.125,1 2.5,1 1.375,0 2.5,0.45 2.5,1 0,0.55 1.125,1 2.5,1 1.375,0 2.5,0.45 2.5,1 0,0.55 1.575,1 3.5,1 1.925,0 3.5,0.45 3.5,1 0,0.55 1.125,1 2.5,1 1.375,0 2.5,0.45 2.5,1 0,0.55 1.125,1 2.5,1 1.375,0 2.5,0.45 2.5,1 0,0.55 1.3234,1 2.941,1 1.6175,0 3.2433,0.4892 3.6128,1.08712 0.3696,0.59791 1.4921,0.87264 2.4945,0.61051 1.0491,-0.27436 2.0673,0.16118 2.3993,1.02633 0.348,0.90698 1.3459,1.30179 2.5166,0.99565 1.0669,-0.27901 2.1079,-0.003 2.3132,0.61256 0.2053,0.61593 1.8019,1.01101 3.5479,0.87796 1.7461,-0.13304 3.1747,0.21525 3.1747,0.77399 0,0.55873 1.125,1.01588 2.5,1.01588 1.375,0 2.5,0.45 2.5,1 0,0.55 1.125,1 2.5,1 1.375,0 2.5,0.45 2.5,1 0,0.55 1.1311,1 2.5136,1 1.3824,0 3.2949,0.3975 4.25,0.88333 0.955,0.48583 3.0864,1.43833 4.7364,2.11667 1.65,0.67834 3.7814,1.63084 4.7364,2.11667 0.9551,0.48583 2.8676,0.88333 4.25,0.88333 1.3825,0 2.5136,0.45 2.5136,1 0,0.55 1.35,1 3,1 h 3 V 272.393 c 0,10.38944 -0.3059,13.51041 -1.3641,13.91647 -1.0878,0.41742 -1.5126,6.66838 -2.0972,30.85699 -0.4032,16.68344 -1.1393,30.48353 -1.6359,30.66686 -0.4965,0.18334 -0.9028,5.89428 -0.9028,12.69099 0,6.7967 -0.3998,12.60471 -0.8884,12.90668 -0.4885,0.30197 -1.2188,10.68614 -1.6228,23.07593 -0.404,12.38979 -1.1292,22.77084 -1.6117,23.069 -0.4824,0.29816 -0.8771,4.79055 -0.8771,9.98309 0,5.19254 -0.3985,9.44098 -0.8855,9.44098 -0.487,0 -1.2137,7.65544 -1.615,17.01209 -0.4013,9.35665 -1.1278,17.25821 -1.6146,17.55902 -0.4867,0.30081 -0.8849,4.25537 -0.8849,8.78791 0,4.61516 -0.4797,8.72064 -1.0902,9.33117 -0.6431,0.64307 -0.9507,3.80189 -0.75,7.7021 0.1871,3.63655 0,6.61096 -0.4098,6.60981 -0.4125,-0.001 -0.75,3.5979 -0.75,7.9979 0,4.66667 -0.4167,8 -1,8 -0.5632,0 -1,2.81366 -1,6.44098 0,3.54254 -0.48,6.73764 -1.0666,7.10021 -0.6081,0.37577 -0.9633,3.1929 -0.8262,6.55184 0.1323,3.24093 -0.063,6.19584 -0.4334,6.56646 -0.3706,0.37061 -0.6738,3.52384 -0.6738,7.00718 0,3.55555 -0.4386,6.33333 -1,6.33333 -0.5545,0 -1,2.64699 -1,5.94098 0,3.28965 -0.4975,6.24845 -1.1147,6.62994 -0.6845,0.423 -0.9341,2.5689 -0.6468,5.55901 0.2573,2.67854 0.084,4.87007 -0.3853,4.87007 -0.4693,0 -0.8532,2.7 -0.8532,6 0,3.3 -0.41,6 -0.9112,6 -0.8453,0 -1.6515,5.58133 -2.4982,17.29463 -0.1906,2.63704 -0.6264,5.07454 -0.9686,5.41666 -0.3421,0.34213 -0.622,2.48204 -0.622,4.75538 0,2.27333 -0.4104,4.56083 -0.912,5.08333 -0.817,0.85105 -1.415,4.89734 -2.4722,16.72756 -0.1857,2.07766 -0.6252,4.06516 -0.9767,4.41667 -0.3515,0.35151 -0.6391,2.56255 -0.6391,4.91342 0,2.35087 -0.402,4.52275 -0.8933,4.8264 -0.4913,0.30364 -1.2143,4.60832 -1.6067,9.56595 -0.3924,4.95763 -1.1154,9.26231 -1.6067,9.56595 -0.4913,0.30365 -0.8933,2.07397 -0.8933,3.93405 0,1.86008 -0.391,3.62364 -0.869,3.91901 -0.4779,0.29538 -1.1831,4.13907 -1.5672,8.54153 -0.384,4.40247 -1.118,8.26391 -1.631,8.58099 -0.513,0.31708 -0.9328,2.54839 -0.9328,4.95847 0,2.41008 -0.4119,4.63653 -0.9153,4.94766 -0.5034,0.31113 -1.2313,3.93768 -1.6175,8.05901 -0.3862,4.12133 -1.0993,7.49333 -1.5847,7.49333 -0.4854,0 -0.8825,1.54844 -0.8825,3.44098 0,1.89254 -0.4119,3.69555 -0.9153,4.00668 -0.5034,0.31113 -1.2313,3.93768 -1.6175,8.05901 -0.3862,4.12133 -1.0993,7.49333 -1.5847,7.49333 -0.4854,0 -0.8825,1.8 -0.8825,4 0,2.2 -0.4116,4 -0.9147,4 -0.5031,0 -1.2309,3.375 -1.6175,7.5 -0.3865,4.125 -1.0999,7.5 -1.5853,7.5 -0.4854,0 -0.8825,1.35 -0.8825,3 0,1.65 -0.3859,3 -0.8575,3 -0.4717,0 -1.1495,2.7928 -1.5063,6.20622 -0.3567,3.41342 -1.0958,6.65342 -1.6424,7.2 -0.5466,0.54658 -0.9938,2.45222 -0.9938,4.23476 0,1.78254 -0.4292,3.50625 -0.9538,3.83046 -0.5246,0.32421 -1.2588,3.28584 -1.6317,6.58139 -0.3728,3.29556 -1.0686,6.23341 -1.5462,6.52856 -0.4776,0.29516 -0.8683,1.60853 -0.8683,2.91861 0,1.31008 -0.4185,2.64062 -0.93,2.95675 -0.5115,0.31612 -1.2384,3.04268 -1.6152,6.05901 -0.3769,3.01633 -1.0834,5.48424 -1.57,5.48424 -0.4867,0 -0.8848,1.35 -0.8848,3 0,1.65 -0.5025,3 -1.1166,3 -0.6546,0 -0.9169,1.04422 -0.6341,2.52387 0.2654,1.38812 0.093,2.76468 -0.3834,3.05901 -0.4762,0.29434 -0.8659,1.6336 -0.8659,2.97614 0,1.34254 -0.45,2.44098 -1,2.44098 -0.55,0 -1,1.77344 -1,3.94098 0,2.16754 -0.4573,4.22364 -1.0163,4.5691 -0.559,0.34546 -0.7766,1.01593 -0.4837,1.48992 0.2929,0.47399 0.075,1.14446 -0.4837,1.48992 -0.559,0.34546 -1.0163,1.7 -1.0163,3.01008 0,1.31008 -0.45,2.66008 -1,3 -0.55,0.33992 -1,1.68992 -1,3 0,1.31008 -0.4865,2.68262 -1.081,3.05008 -0.5946,0.36746 -0.811,1.74402 -0.481,3.05901 0.3388,1.34965 0.1563,2.39091 -0.4189,2.39091 -0.5605,0 -1.0191,1.35 -1.0191,3 0,1.65 -0.45,3 -1,3 -0.55,0 -1,1.32344 -1,2.94098 0,1.61754 -0.4573,3.22364 -1.0163,3.5691 -0.559,0.34546 -0.7766,1.01593 -0.4837,1.48992 0.2929,0.47399 0.075,1.14446 -0.4837,1.48992 -0.559,0.34546 -1.0163,1.7 -1.0163,3.01008 0,1.31008 -0.45,2.66008 -1,3 -0.55,0.33992 -1,1.68992 -1,3 0,1.31008 -0.4303,2.64793 -0.9563,2.97301 -0.526,0.32507 -0.7029,1.25163 -0.393,2.05902 0.3098,0.80738 0.065,1.46797 -0.5437,1.46797 -0.6089,0 -1.107,1.35 -1.107,3 0,1.65 -0.4104,3 -0.9121,3 -0.5017,0 -1.2299,1.88114 -1.6184,4.18032 -0.3884,2.29917 -1.4997,5.59303 -2.4695,7.31968 -0.9698,1.72665 -2.0811,5.02051 -2.4695,7.31968 -0.3885,2.29921 -1.1167,4.18031 -1.6184,4.18031 -0.5017,0 -0.9121,1.35 -0.9121,3 0,1.65 -0.45,3 -1,3 -0.55,0 -1.0019,0.7875 -1.0042,1.75 0,0.9625 -1.0873,3.8847 -2.411,6.4938 -1.3238,2.6091 -2.7115,6.5466 -3.0837,8.75 -0.3723,2.2034 -1.0873,4.0062 -1.589,4.0062 -0.5017,0 -0.9121,0.9 -0.9121,2 0,1.1 -0.45,2 -1,2 -0.55,0 -1.0101,1.2375 -1.0224,2.75 -0.012,1.5125 -1.3522,5.45 -2.9776,8.75 -1.6254,3.3 -2.9653,6.7875 -2.9776,7.75 -0.012,0.9625 -0.4724,1.75 -1.0224,1.75 -0.55,0 -1,0.9 -1,2 0,1.1 -0.45,2 -1,2 -0.55,0 -1.0019,0.7875 -1.0042,1.75 0,0.9625 -1.0705,3.85152 -2.3737,6.42002 -1.3032,2.5685 -2.6813,6.332 -3.0624,8.3633 -0.381,2.0313 -1.5629,4.6271 -2.6263,5.7685 -1.0634,1.1414 -1.9353,2.553 -1.9376,3.1368 0,0.5838 -1.118,3.2569 -2.4794,5.9402 -1.3614,2.6834 -2.2329,5.2709 -1.9368,5.75 0.2961,0.4792 0.062,0.8712 -0.5206,0.8712 -0.5824,0 -1.059,0.9 -1.059,2 0,1.1 -0.45,2 -1,2 -0.55,0 -1,0.8734 -1,1.941 0,1.0675 -0.4573,2.2236 -1.0163,2.5691 -0.559,0.3454 -0.7995,0.9789 -0.5346,1.4076 0.265,0.4287 -0.4027,1.7287 -1.4837,2.889 -1.081,1.1603 -1.9654,2.7285 -1.9654,3.4848 0,0.7564 -0.3375,1.7127 -0.75,2.1252 -0.4125,0.4125 -0.7877,1.05 -0.8338,1.4166 -0.2157,1.7164 -2.4045,6.0414 -3.3545,6.6286 -0.5839,0.3609 -1.0617,1.5296 -1.0617,2.5971 0,1.0676 -0.45,1.941 -1,1.941 -0.55,0 -1,0.8734 -1,1.941 0,1.0675 -0.4215,2.2015 -0.9367,2.5199 -1.2298,0.76 -4.0633,6.4732 -4.0633,8.1927 0,0.7405 -0.45,1.3464 -1,1.3464 -0.55,0 -1,0.8449 -1,1.8776 0,1.0326 -0.675,2.4377 -1.5,3.1224 -0.825,0.6847 -1.5,1.8097 -1.5,2.5 0,0.6903 -0.675,1.8153 -1.5,2.5 -0.825,0.6847 -1.5,2.0898 -1.5,3.1224 0,1.0327 -0.45,1.8776 -1,1.8776 -0.55,0 -1,0.8734 -1,1.941 0,1.0675 -0.438,2.2116 -0.9732,2.5425 -0.5353,0.3308 -1.7116,2.1573 -2.614,4.059 -0.9024,1.9016 -2.0394,3.4575 -2.5267,3.4575 -0.4874,0 -0.8861,0.8449 -0.8861,1.8776 0,1.0326 -0.675,2.4377 -1.5,3.1224 -0.825,0.6847 -1.5,1.8097 -1.5,2.5 0,0.6903 -0.675,1.8153 -1.5,2.5 -0.825,0.6847 -1.5,1.9904 -1.5,2.9017 0,0.9112 -0.9,2.3055 -2,3.0983 -1.1,0.7928 -2,2.2217 -2,3.1753 0,0.9536 -1.125,2.8588 -2.5,4.2338 -1.375,1.375 -2.5,3.1403 -2.5,3.923 0,0.7827 -0.675,1.9832 -1.5,2.6679 -0.825,0.6847 -1.5,1.8443 -1.5,2.577 0,0.7326 -1.125,2.4571 -2.5,3.8321 -1.375,1.375 -2.5,3.0875 -2.5,3.8057 0,0.7181 -1.125,2.5189 -2.5,4.0018 -1.375,1.4829 -2.5,3.321 -2.5,4.0848 0,0.7637 -0.9371,2.2367 -2.0826,3.2733 -1.1454,1.0366 -2.6797,3.2438 -3.4095,4.905 -0.7299,1.6612 -2.7177,4.4584 -4.4175,6.2161 -1.6997,1.7576 -3.0943,3.7826 -3.0991,4.5 0,0.7173 -1.5797,2.9617 -3.5,4.9874 -1.9202,2.0258 -3.4913,4.1989 -3.4913,4.829 0,0.6301 -2.25,3.7326 -5,6.8943 -2.75,3.1618 -5,6.1895 -5,6.7283 0,1.0906 -3.2442,5.1998 -10,12.6666 -2.475,2.7354 -4.95,5.9813 -5.5,7.213 -0.8686,1.9452 -3.17546,4.8314 -11.86167,14.8404 -1.0239,1.1799 -3.44061,4.0577 -5.37046,6.3952 -1.92985,2.3375 -4.12961,4.25 -4.88835,4.25 -0.75875,0 -1.39157,0.3375 -1.40627,0.75 -0.0147,0.4125 -1.70221,2.602 -3.75,4.8656 -2.0478,2.2636 -5.7184,6.4261 -8.1569,9.25 -2.4385,2.8239 -4.9135,5.1609 -5.5,5.1934 -0.5865,0.032 -3.4789,2.9574 -6.42756,6.5 -2.94865,3.5425 -5.98615,6.441 -6.75,6.441 -0.76384,0 -1.396,0.3375 -1.40478,0.75 -0.0223,1.0479 -5.58228,7.25 -6.49937,7.25 -0.41358,0 -1.81531,1.2375 -3.11497,2.75 -1.29965,1.5125 -2.72948,2.75 -3.17739,2.75 -0.44792,0 -2.29604,1.6875 -4.10694,3.75 -1.8109,2.0625 -3.80843,3.7513 -4.43895,3.7529 -0.63053,0 -2.04641,1.3503 -3.14641,2.9971 -1.1,1.6468 -2.75718,2.9955 -3.68261,2.9971 -0.92544,0 -1.96826,0.9029 -2.31739,2.0029 -0.34913,1.1 -1.3962,2 -2.32684,2 -0.93064,0 -2.25413,0.9 -2.94109,2 -0.68696,1.1 -1.81196,2 -2.5,2 -0.68804,0 -1.81304,0.9 -2.5,2 -0.68696,1.1 -1.87206,2 -2.63356,2 -0.76149,0 -1.64355,0.675 -1.96014,1.5 -0.31658,0.825 -1.1801,1.5 -1.91893,1.5 -0.73883,0 -2.34142,1.35 -3.56132,3 -1.2199,1.65 -2.77128,3 -3.44751,3 -0.67623,0 -1.79158,0.9 -2.47854,2 -0.68696,1.1 -1.9202,2 -2.74054,2 -0.82034,0 -1.49153,0.3401 -1.49153,0.7559 0,0.4157 -1.4625,1.3956 -3.25,2.1775 -1.7875,0.7819 -3.83802,2.2417 -4.5567,3.2441 -0.71869,1.0024 -1.95619,1.8225 -2.75,1.8225 -0.79382,0 -1.4433,0.45 -1.4433,1 0,0.55 -0.50972,1 -1.1327,1 -0.62299,0 -1.86049,0.8187 -2.75,1.8194 -1.52885,1.7199 -5.34846,3.6762 -5.84804,2.9951 -0.12691,-0.173 -0.93993,0.698 -1.80671,1.9355 -0.86678,1.2375 -2.22544,2.25 -3.01925,2.25 -0.79382,0 -1.4433,0.366 -1.4433,0.8134 0,0.4473 -1.575,1.4313 -3.5,2.1866 -1.925,0.7553 -3.5,1.7393 -3.5,2.1866 0,0.4474 -0.675,0.8134 -1.5,0.8134 -0.825,0 -1.5,0.366 -1.5,0.8134 0,0.4473 -1.575,1.4313 -3.5,2.1866 -1.925,0.7553 -3.5,1.7393 -3.5,2.1866 0,0.4474 -0.675,0.8134 -1.5,0.8134 -0.825,0 -1.5,0.366 -1.5,0.8134 0,0.4473 -1.575,1.4313 -3.5,2.1866 -1.925,0.7553 -3.5,1.7393 -3.5,2.1866 0,0.4474 -0.49303,0.8134 -1.09563,0.8134 -0.6026,0 -2.34089,0.8867 -3.86288,1.9705 -1.52198,1.0837 -3.04336,1.6943 -3.38083,1.3568 -0.33747,-0.3374 -0.89633,0.1233 -1.24191,1.0238 -0.34557,0.9006 -1.00007,1.4077 -1.45444,1.1268 -0.45436,-0.2808 -1.10877,-0.053 -1.45423,0.5058 -0.34546,0.559 -1.72656,1.0163 -3.0691,1.0163 -1.34254,0 -2.44098,0.45 -2.44098,1 0,0.55 -0.675,1 -1.5,1 -0.825,0 -1.50351,0.3375 -1.5078,0.75 -0.0106,1.0147 -4.95688,3.25 -7.19156,3.25 -0.99035,0 -1.80064,0.45 -1.80064,1 0,0.55 -0.675,1 -1.5,1 -0.825,0 -1.5,0.45 -1.5,1 0,0.55 -0.675,1 -1.5,1 -0.825,0 -1.5,0.45 -1.5,1 0,0.55 -0.9,1 -2,1 -1.1,0 -2,0.45 -2,1 0,0.55 -1.125,1 -2.5,1 -1.375,0 -2.5,0.45 -2.5,1 0,0.55 -1.125,1 -2.5,1 -1.375,0 -2.5,0.45 -2.5,1 0,0.55 -0.675,1 -1.5,1 -0.825,0 -1.5,0.45 -1.5,1 0,0.55 -1.125,1 -2.5,1 -1.375,0 -2.5,0.45 -2.5,1 0,0.55 -1.125,1 -2.5,1 -1.375,0 -2.5,0.3975 -2.5,0.8834 0,1.0689 -3.8286,2.3914 -6.25,2.1589 -0.9625,-0.092 -1.75,0.3103 -1.75,0.8948 0,0.5846 -1.125,1.0629 -2.5,1.0629 -1.55556,0 -2.5,0.5667 -2.5,1.5 0,1.1057 -1.15478,1.5 -4.39301,1.5 -2.98241,0 -4.57784,-0.4817 -4.96862,-1.5 z"
       id="path16-0"
       sodipodi:nodetypes="ssssssssssssssssssssssssssssssssssssssssssssssssssssssssssscscscssssssssssssscsscscssssssssssssssssssssssssssssssssssssssssssssssssssssscssssssscsssssssssssssssssssssscssssscsssssssssssssssssssssssssssssssssssssscsssssssssssssssssssscssssssssssssscssssssssssssssssssssssssssssssssssssssssssssssssssssssssssssssssssssssssssssssssssssssssssssssssssssssssssssssssssssssssssssssssssssssssssssssssssssssssssssssssssssssssssssssssssssssssssssssssssssssssssssssssssssssssssssssssssssssssssssssssssssssssssssssssssssssssssssssssssssssssssssssssssssssssssssssssssssssscssscssssssssssssscssssssssssssssscssssscsssssssssssssssssssssssssssssssssssssssssssssssssssssssssssssssssssssssssssssssssscssssscscssscssscssssssssssssssssssssssssssssssssssssssssssssssscsssssssssssscssssssscscssssssssssssssssssssssssssssssssssssssssssssssssssssssssssssscsssss" />
    <g
       id="g14">
      <path
         style="fill:#5e6c59"
         d="m 722.21026,1337.5061 c -34.09229,-17.4431 -42.29958,-22.458 -79.60646,-48.6411 -23.76367,-16.678 -69.78775,-58.9712 -90.71903,-83.365 -4.71932,-5.5 -12.30343,-14.275 -16.85357,-19.5 -4.55015,-5.225 -9.40972,-11.3 -10.79904,-13.5 -1.38933,-2.2 -4.61235,-6.475 -7.16227,-9.5 -2.54992,-3.025 -5.8414,-7.3 -7.31441,-9.5 -1.473,-2.2 -4.46233,-6.475 -6.64295,-9.5 -9.338,-12.9539 -29.46305,-43.9862 -35.34427,-54.5 -2.46127,-4.4 -6.17134,-10.925 -8.24459,-14.5 -6.67154,-11.504 -32.95563,-64.1163 -38.21791,-76.5 -2.8046,-6.6 -7.78463,-18.3 -11.06674,-26 -3.28212,-7.7 -7.41761,-18.05 -9.18998,-23 -1.77237,-4.95 -4.12904,-11.01836 -5.23706,-13.48524 -1.10801,-2.46689 -3.52677,-9.05302 -5.37502,-14.63586 -1.84825,-5.58284 -4.01808,-11.66448 -4.82185,-13.51476 -0.80376,-1.85028 -3.07977,-8.46599 -5.05779,-14.70159 -1.97803,-6.2356 -4.26261,-12.62576 -5.07686,-14.20034 -0.81425,-1.57459 -1.47004,-3.67274 -1.45731,-4.66255 0.0127,-0.98981 -1.76183,-7.42466 -3.94348,-14.29966 -6.43302,-20.27229 -10.86118,-35.51538 -15.54192,-53.5 -1.2883,-4.95 -3.53713,-13.5 -4.99739,-19 -1.46027,-5.5 -3.04299,-12.0798 -3.51717,-14.62178 -0.47417,-2.54198 -1.79837,-7.7655 -2.94266,-11.60781 C 341.93624,757.42809 341,753.36783 341,752.2476 c 0,-1.12023 -1.97922,-10.29671 -4.39826,-20.39219 C 334.1827,721.75994 331.91136,711.475 331.55433,709 c -0.35703,-2.475 -1.7275,-9.45 -3.0455,-15.5 -3.05426,-14.01997 -6.57893,-32.41912 -7.5669,-39.5 -0.42207,-3.025 -1.70667,-10.14558 -2.85466,-15.82351 C 316.93927,632.49856 316,626.39182 316,624.60595 c 0,-1.78588 -0.84622,-7.2653 -1.88048,-12.1765 -1.03427,-4.9112 -2.16967,-11.62945 -2.52312,-14.92945 -0.64417,-6.0144 -1.68528,-13.07974 -3.647,-24.75 -1.05326,-6.26586 -1.82677,-12.48308 -4.44777,-35.75 -1.75118,-15.54536 -2.29399,-19.8102 -3.56378,-28 -0.55428,-3.575 -1.46008,-12.35 -2.01288,-19.5 -0.5528,-7.15 -1.42388,-16.375 -1.93573,-20.5 -0.95343,-7.68376 -3.52239,-36.8669 -4.97364,-56.5 -0.4472,-6.05 -1.10409,-12.8 -1.45975,-15 -0.35565,-2.2 -1.11392,-13.45 -1.68504,-25 -0.57112,-11.55 -1.44097,-27.525 -1.93301,-35.5 -0.49203,-7.975 -1.16914,-21.06496 -1.50469,-29.08879 l -0.61008,-14.58879 5.02387,-2.16121 C 291.61002,289.97254 294.29025,289 294.80296,289 c 1.1272,0 14.5499,-4.46891 30.19704,-10.0537 6.325,-2.25752 15.1,-5.36758 19.5,-6.91124 4.4,-1.54365 11.825,-4.25011 16.5,-6.01435 4.675,-1.76423 10.75,-3.795 13.5,-4.51281 2.75,-0.71781 10.175,-3.19667 16.5,-5.50857 24.07048,-8.79821 34.06451,-12.37576 54,-19.33031 2.475,-0.86341 9.9,-3.34084 16.5,-5.50539 6.6,-2.16456 15.825,-5.37565 20.5,-7.13578 11.9159,-4.48629 23.45806,-8.50607 38,-13.23421 13.64799,-4.43749 25.37514,-8.5108 37,-12.85159 15.30825,-5.71618 36.01648,-12.98105 53.5,-18.76889 10.92094,-3.61532 23.93746,-8.20892 40,-14.11621 12.49423,-4.59498 23.17334,-8.2312 28,-9.53397 4.87829,-1.3167 18.36686,-6.08092 35.5,-12.53875 4.675,-1.76211 10.975,-4.01933 14,-5.01605 3.025,-0.99673 8.54777,-2.97232 12.27283,-4.39021 3.72505,-1.41788 7.90207,-2.57797 9.28226,-2.57797 2.31151,0 8.40911,2.08072 25.44491,8.6827 3.575,1.38544 8.975,3.32738 12,4.31543 3.025,0.98805 10.675,3.68169 17,5.98588 6.325,2.30418 13.75,4.78333 16.5,5.50921 2.75,0.72589 8.825,2.76326 13.5,4.52749 4.675,1.76424 12.1,4.4707 16.5,6.01435 4.4,1.54366 13.175,4.6555 19.5,6.9152 6.325,2.2597 15.775,5.47057 21,7.13527 10.08097,3.21183 21.70009,7.26367 34,11.85652 4.125,1.5403 11.44609,4.18585 16.26909,5.879 4.82299,1.69316 12.47299,4.40514 17,6.02664 4.527,1.6215 12.95591,4.40441 18.73091,6.18426 5.775,1.77984 14.55,4.79433 19.5,6.69886 20.7344,7.97762 36.4757,13.59277 53.5,19.08414 13.919,4.48974 25.2895,8.43734 38,13.19289 18.5444,6.93826 30.7337,11.22761 35.5,12.49226 2.75,0.72967 10.175,3.19505 16.5,5.47862 6.325,2.28356 13.075,4.62221 15,5.19699 1.925,0.57478 6.425,2.16426 10,3.53218 17.5307,6.70785 22.4842,8.45938 34.8154,12.31077 7.3235,2.28732 13.532,4.72302 13.7966,5.41266 0.5032,1.31137 -1.1422,36.12817 -2.6025,55.06868 -0.4664,6.05 -1.3171,19.325 -1.8904,29.5 -0.5732,10.175 -1.303,20.975 -1.6217,24 -1.0177,9.66054 -2.2829,22.99773 -3.9842,42 -0.9111,10.175 -2.0296,21.875 -2.4857,26 -0.4562,4.125 -1.558,14.7 -2.4484,23.5 -0.8905,8.8 -2.0432,18.925 -2.5616,22.5 -0.5184,3.575 -1.4131,11.45 -1.9882,17.5 -0.5751,6.05 -1.3144,12.125 -1.6429,13.5 -0.6244,2.6138 -1.4022,7.85724 -4.0054,27 -0.8601,6.325 -1.9258,13.75 -2.3682,16.5 -0.4424,2.75 -1.3152,9.05 -1.9395,14 -0.6242,4.95 -1.5686,10.575 -2.0986,12.5 -0.5299,1.925 -0.9661,5.20036 -0.9691,7.27857 0,2.07821 -1.0881,9.27821 -2.4111,16 -1.323,6.72179 -2.6968,14.69643 -3.0529,17.72143 -0.356,3.025 -1.3483,8.2 -2.205,11.5 -0.8567,3.3 -1.9265,8.7 -2.3775,12 -1.0804,7.90682 -5.1062,27.38424 -12.5048,60.5 -1.2903,5.775 -2.6343,12.28658 -2.9867,14.47019 -0.3525,2.1836 -1.3296,5.999 -2.1715,8.47865 -0.8419,2.47966 -1.9009,6.76808 -2.3535,9.52982 -1.0025,6.11851 -6.7514,28.62144 -12.9067,50.52134 -1.1594,4.125 -2.7381,9.75 -3.5083,12.5 -0.7701,2.75 -2.7394,9.5 -4.3762,15 -1.6368,5.5 -3.9673,13.375 -5.1789,17.5 -3.6359,12.37873 -12.043,38.26358 -13.597,41.86414 -0.7986,1.85028 -3.0078,8.06373 -4.9094,13.80766 -1.9016,5.74394 -3.989,11.43008 -4.6388,12.63586 -1.2509,2.32154 -5.0043,12.18078 -7.4967,19.69234 -0.8213,2.475 -3.5249,9.225 -6.0081,15 -2.4832,5.775 -5.5543,12.975 -6.8246,16 -9.9663,23.7333 -27.8896,61.5996 -36.6833,77.5 -12.3936,22.4098 -16.3206,29.2287 -20.2227,35.115 -2.2506,3.3949 -6.7203,10.3829 -9.9328,15.5288 -7.4908,11.9991 -12.7607,19.9674 -17.76161,26.8562 -2.19597,3.025 -6.01424,8.425 -8.48505,12 -9.07958,13.1372 -11.68171,16.624 -16.74309,22.4351 -2.84314,3.2642 -6.74435,8.3149 -8.66935,11.2237 -5.5664,8.4111 -44.50076,48.7246 -61.64028,63.8237 -4.32284,3.8082 -10.36039,9.1951 -13.41677,11.9708 -3.05638,2.7757 -8.45638,7.1321 -12,9.6808 -3.54362,2.5488 -9.72401,7.3863 -13.73419,10.75 -4.01018,3.3638 -7.68764,6.1159 -8.17214,6.1159 -0.48451,0 -4.85345,3.0012 -9.70877,6.6694 -12.34727,9.3284 -39.76524,25.5098 -63.10789,37.2447 -21.55499,10.8362 -29.11314,14.1036 -32.50698,14.0528 -1.21714,-0.018 -13.14336,-5.6256 -26.50272,-12.4608 z m 68.42098,-147.8617 c 0.67728,-0.7453 1.44548,-45.387 1.9728,-114.6444 0.34967,-45.925 0.75204,-86.425 0.89416,-90 0.71875,-18.08062 1.94217,-278.51595 1.8399,-391.66937 l -0.11674,-129.16937 2.13932,-0.52971 c 4.61757,-1.14335 40.90912,-5.72025 75.63932,-9.53924 87.36843,-9.60718 137.8718,-12.80438 160.5262,-10.1624 21.0192,2.45128 31.9719,2.05071 42.8835,-1.56834 9.9409,-3.29709 16.5495,-13.21743 13.5803,-20.38571 -1.5097,-3.64475 -11.4347,-13.00994 -16.168,-15.25602 -7.2527,-3.44166 -27.6522,-4.16787 -117.822,-4.1944 -69.50442,-0.0204 -156.16617,0.95361 -161.48493,1.81504 -0.56025,0.0907 -1.33525,-4.79909 -1.79738,-11.34048 -1.14842,-16.25584 -1.43127,-17.07719 -6.80616,-19.76392 -14.70143,-7.34877 -40.79338,-6.69695 -59.16153,1.47796 L 721,377.27313 V 393.13656 409 l -4.25,0.0106 c -32.94585,0.0821 -227.24006,51.4926 -290.53021,76.87466 -16.85463,6.75943 -31.91778,14.91901 -30.21979,16.3698 0.275,0.23497 9.275,-0.37981 20,-1.36617 10.725,-0.98637 37.275,-3.39958 59,-5.3627 65.98372,-5.96245 184.01604,-17.05702 222.5,-20.91412 12.65,-1.26786 23.05454,-2.26175 23.12119,-2.20863 0.35925,0.28627 1.33582,391.05759 1.35568,542.47266 l 0.0231,176.376 34.25,-0.7316 c 18.8375,-0.4024 34.30906,-0.7966 34.38124,-0.8761 z"
         id="path20" />
      <path
         style="fill:#2e352c"
         d="m 745,1360.0647 c -4.58895,-1.7795 -15.1745,-7.0117 -41,-20.2652 -22.80005,-11.7008 -32.87082,-18.0231 -68.5,-43.003 -24.20642,-16.9713 -70.24666,-59.326 -91.6317,-84.2965 -4.71026,-5.5 -12.28696,-14.275 -16.8371,-19.5 -4.55015,-5.225 -9.40972,-11.3 -10.79904,-13.5 -1.38933,-2.2 -4.61235,-6.475 -7.16227,-9.5 -2.54992,-3.025 -5.8414,-7.3 -7.31441,-9.5 -1.473,-2.2 -4.46233,-6.475 -6.64295,-9.5 -9.338,-12.9539 -29.46305,-43.9862 -35.34427,-54.5 -2.46127,-4.4 -6.17315,-10.925 -8.24862,-14.5 -6.67295,-11.4942 -34.95754,-68.1074 -40.21868,-80.5 -2.80195,-6.6 -7.77983,-18.3 -11.06194,-26 -3.28212,-7.7 -7.41761,-18.05 -9.18998,-23 -1.77237,-4.95 -4.12904,-11.01836 -5.23706,-13.48524 -1.10801,-2.46689 -3.52677,-9.05302 -5.37502,-14.63586 -1.84825,-5.58284 -4.01808,-11.66448 -4.82185,-13.51476 -0.80376,-1.85028 -3.07977,-8.46599 -5.05779,-14.70159 -1.97803,-6.2356 -4.26261,-12.62576 -5.07686,-14.20034 -0.81425,-1.57459 -1.47004,-3.67274 -1.45731,-4.66255 0.0127,-0.98981 -1.76183,-7.42466 -3.94348,-14.29966 -6.43302,-20.27229 -10.86118,-35.51538 -15.54192,-53.5 -1.2883,-4.95 -3.53713,-13.5 -4.99739,-19 -1.46027,-5.5 -3.04299,-12.0798 -3.51717,-14.62178 -0.47417,-2.54198 -1.79837,-7.7655 -2.94266,-11.60781 C 331.93624,760.42809 331,756.36783 331,755.2476 c 0,-1.12023 -1.97922,-10.29671 -4.39826,-20.39219 C 324.1827,724.75994 321.91136,714.475 321.55433,712 c -0.35703,-2.475 -1.7275,-9.45 -3.0455,-15.5 -3.05426,-14.01997 -6.57893,-32.41912 -7.5669,-39.5 -0.42207,-3.025 -1.70667,-10.14558 -2.85466,-15.82351 C 306.93927,635.49856 306,629.39182 306,627.60595 c 0,-1.78588 -0.84622,-7.2653 -1.88048,-12.1765 -1.03427,-4.9112 -2.16967,-11.62945 -2.52312,-14.92945 -0.64417,-6.0144 -1.68528,-13.07974 -3.647,-24.75 -1.05326,-6.26586 -1.82677,-12.48308 -4.44777,-35.75 -1.75118,-15.54536 -2.29399,-19.8102 -3.56378,-28 -0.55428,-3.575 -1.46008,-12.35 -2.01288,-19.5 -0.5528,-7.15 -1.42388,-16.375 -1.93573,-20.5 -0.95343,-7.68376 -3.52239,-36.8669 -4.97364,-56.5 -0.4472,-6.05 -1.10409,-12.8 -1.45975,-15 -0.58999,-3.64957 -1.5116,-20.2604 -3.3844,-61 -0.37926,-8.25 -0.9818,-15.4529 -1.339,-16.00645 -0.35719,-0.55355 -0.78308,-9.29772 -0.94643,-19.4315 -0.24912,-15.45552 -0.0624,-18.48879 1.15849,-18.82051 0.80052,-0.2175 4.83049,-1.68535 8.95549,-3.26189 4.125,-1.57654 11.775,-4.22868 17,-5.89364 5.225,-1.66497 14.675,-4.87605 21,-7.13575 6.325,-2.2597 15.1,-5.37154 19.5,-6.9152 4.4,-1.54365 11.825,-4.25011 16.5,-6.01435 4.675,-1.76423 10.75,-3.795 13.5,-4.51281 2.75,-0.71781 10.175,-3.19667 16.5,-5.50857 24.07048,-8.79821 34.06451,-12.37576 54,-19.33031 2.475,-0.86341 9.9,-3.34084 16.5,-5.50539 6.6,-2.16456 15.825,-5.37565 20.5,-7.13578 11.9159,-4.48629 23.45806,-8.50607 38,-13.23421 13.64799,-4.43749 25.37514,-8.5108 37,-12.85159 16.27314,-6.07648 34.91448,-12.61624 53.5,-18.76889 10.92094,-3.61532 23.93746,-8.20892 40,-14.11621 12.49423,-4.59498 23.17334,-8.2312 28,-9.53397 4.78338,-1.29108 17.20427,-5.66993 35.5,-12.51514 12.36683,-4.62695 24.5661,-8.90654 32.08283,-11.25488 l 6.58283,-2.05658 6.41717,2.0366 c 3.52944,1.12013 10.24217,3.48984 14.91717,5.26602 4.675,1.77618 12.1,4.49241 16.5,6.03606 4.4,1.54366 13.175,4.68129 19.5,6.97251 6.325,2.29122 13.75,4.75977 16.5,5.48565 2.75,0.72589 8.825,2.76326 13.5,4.52749 4.675,1.76424 12.1,4.4707 16.5,6.01435 4.4,1.54366 13.175,4.6555 19.5,6.9152 6.325,2.2597 15.775,5.47057 21,7.13527 10.08097,3.21183 21.70009,7.26367 34,11.85652 4.125,1.5403 11.44609,4.18585 16.26909,5.879 4.82299,1.69316 12.47299,4.40514 17,6.02664 4.527,1.6215 12.95591,4.40441 18.73091,6.18426 5.775,1.77984 14.55,4.79433 19.5,6.69886 20.7344,7.97762 36.4757,13.59277 53.5,19.08414 13.919,4.48974 25.2895,8.43734 38,13.19289 18.5444,6.93826 30.7337,11.22761 35.5,12.49226 2.75,0.72967 10.175,3.19505 16.5,5.47862 6.325,2.28356 13.075,4.62221 15,5.19699 1.925,0.57478 6.425,2.16426 10,3.53218 15.7066,6.00985 22.0301,8.273 30,10.73673 4.675,1.44519 12.4893,4.07386 17.3651,5.8415 l 8.8651,3.21388 -0.7328,25.41709 c -0.4031,13.9794 -1.1299,26.80143 -1.6151,28.4934 -0.4853,1.69197 -0.8823,6.87719 -0.8823,11.52271 0,4.64553 -0.443,10.9485 -0.9844,14.0066 -0.5415,3.05811 -1.4531,14.5602 -2.0258,25.5602 -0.5728,11 -1.438,24.05 -1.9227,29 -0.4848,4.95 -1.6304,17.325 -2.5458,27.5 -0.9155,10.175 -2.0377,21.875 -2.4938,26 -0.4562,4.125 -1.558,14.7 -2.4484,23.5 -0.8905,8.8 -2.0432,18.925 -2.5616,22.5 -0.5184,3.575 -1.4131,11.45 -1.9882,17.5 -0.5751,6.05 -1.3144,12.125 -1.6429,13.5 -0.6244,2.6138 -1.4022,7.85724 -4.0054,27 -0.8601,6.325 -1.9258,13.75 -2.3682,16.5 -0.4424,2.75 -1.3152,9.05 -1.9395,14 -0.6242,4.95 -1.5686,10.575 -2.0986,12.5 -0.5299,1.925 -0.9661,5.20036 -0.9691,7.27857 0,2.07821 -1.0881,9.27821 -2.4111,16 -1.323,6.72179 -2.6968,14.69643 -3.0529,17.72143 -0.356,3.025 -1.3483,8.2 -2.205,11.5 -0.8567,3.3 -1.9265,8.7 -2.3775,12 -1.0804,7.90682 -5.1062,27.38424 -12.5048,60.5 -1.2903,5.775 -2.6343,12.28658 -2.9867,14.47019 -0.3525,2.1836 -1.3296,5.999 -2.1715,8.47865 -0.8419,2.47966 -1.9009,6.76808 -2.3535,9.52982 -1.0025,6.11851 -6.7514,28.62144 -12.9067,50.52134 -1.1594,4.125 -2.7381,9.75 -3.5083,12.5 -0.7701,2.75 -2.7394,9.5 -4.3762,15 -1.6368,5.5 -3.9673,13.375 -5.1789,17.5 -3.6359,12.37873 -12.043,38.26358 -13.597,41.86414 -0.7986,1.85028 -3.0078,8.06373 -4.9094,13.80766 -1.9016,5.74394 -3.989,11.43008 -4.6388,12.63586 -1.2509,2.32154 -5.0043,12.18078 -7.4967,19.69234 -0.8213,2.475 -3.5249,9.225 -6.0081,15 -2.4832,5.775 -5.5535,12.975 -6.8229,16 -11.5598,27.5473 -28.1763,62.4491 -39.4764,82.9174 -11.2559,20.388 -15.5848,27.8951 -19.4313,33.6976 -2.2506,3.3949 -6.7203,10.3829 -9.9328,15.5288 -7.4908,11.9991 -12.7607,19.9674 -17.7616,26.8562 -2.196,3.025 -6.01425,8.425 -8.48506,12 -9.07958,13.1372 -11.68171,16.624 -16.74309,22.4351 -2.84314,3.2642 -6.76764,8.3506 -8.72111,11.3031 -5.68973,8.5993 -45.70745,50.024 -62.44824,64.6438 -4.4,3.8426 -10.50067,9.2661 -13.55705,12.0522 -3.05638,2.7862 -8.45638,7.1512 -12,9.6999 -3.54362,2.5488 -9.72401,7.3863 -13.73419,10.75 -4.01018,3.3638 -7.68764,6.1159 -8.17214,6.1159 -0.48451,0 -4.85345,3.0012 -9.70877,6.6694 -12.60485,9.523 -40.49011,25.961 -64.32785,37.9204 -16.26922,8.1623 -37.29058,17.8764 -37.46964,17.315 -0.0167,-0.052 -2.05536,-0.8804 -4.53036,-1.8401 z m 11.19289,-12.1407 c 20.09592,-7.9211 71.3047,-36.5393 88.13496,-49.2546 4.85532,-3.6682 9.22426,-6.6694 9.70877,-6.6694 0.4845,0 4.16196,-2.7521 8.17214,-6.1159 4.01018,-3.3637 10.19057,-8.2012 13.73419,-10.75 3.54362,-2.5487 8.94362,-6.9051 12,-9.6808 3.05638,-2.7757 9.09393,-8.1626 13.41677,-11.9708 17.13952,-15.0991 56.07388,-55.4126 61.64028,-63.8237 1.925,-2.9088 5.82621,-7.9595 8.66935,-11.2237 5.06138,-5.8111 7.66351,-9.2979 16.74309,-22.4351 2.47081,-3.575 6.28908,-8.975 8.48505,-12 5.00091,-6.8888 10.27081,-14.8571 17.76161,-26.8562 3.2125,-5.1459 7.6822,-12.1339 9.9328,-15.5288 3.9021,-5.8863 7.8291,-12.7052 20.2227,-35.115 8.7937,-15.9004 26.717,-53.7667 36.6833,-77.5 1.2703,-3.025 4.3414,-10.225 6.8246,-16 2.4832,-5.775 5.1868,-12.525 6.0081,-15 2.4924,-7.51156 6.2458,-17.3708 7.4967,-19.69234 0.6498,-1.20578 2.7372,-6.89192 4.6388,-12.63586 1.9016,-5.74393 4.1108,-11.95738 4.9094,-13.80766 1.554,-3.60056 9.9611,-29.48541 13.597,-41.86414 1.2116,-4.125 3.5421,-12 5.1789,-17.5 1.6368,-5.5 3.6061,-12.25 4.3762,-15 0.7702,-2.75 2.3489,-8.375 3.5083,-12.5 6.1553,-21.8999 11.9042,-44.40283 12.9067,-50.52134 0.4526,-2.76174 1.5116,-7.05016 2.3535,-9.52982 0.8419,-2.47965 1.819,-6.29505 2.1715,-8.47865 0.3524,-2.18361 1.6964,-8.69519 2.9867,-14.47019 7.3986,-33.11576 11.4244,-52.59318 12.5048,-60.5 0.451,-3.3 1.5208,-8.7 2.3775,-12 0.8567,-3.3 1.849,-8.475 2.205,-11.5 0.3561,-3.025 1.7299,-10.99964 3.0529,-17.72143 1.323,-6.72179 2.408,-13.92179 2.4111,-16 0,-2.07821 0.4392,-5.35357 0.9691,-7.27857 0.53,-1.925 1.4744,-7.55 2.0986,-12.5 0.6243,-4.95 1.4971,-11.25 1.9395,-14 0.4424,-2.75 1.5081,-10.175 2.3682,-16.5 2.6032,-19.14276 3.381,-24.3862 4.0054,-27 0.3285,-1.375 1.0678,-7.45 1.6429,-13.5 0.5751,-6.05 1.4698,-13.925 1.9882,-17.5 0.5184,-3.575 1.6711,-13.7 2.5616,-22.5 0.8904,-8.8 1.9922,-19.375 2.4484,-23.5 0.4561,-4.125 1.5746,-15.825 2.4857,-26 1.7013,-19.00227 2.9665,-32.33946 3.9842,-42 0.3187,-3.025 1.0485,-13.825 1.6217,-24 0.5733,-10.175 1.424,-23.45 1.8904,-29.5 1.4603,-18.94051 3.1057,-53.75731 2.6025,-55.06868 -0.2646,-0.68964 -6.4731,-3.12534 -13.7966,-5.41266 -12.3312,-3.85139 -17.2847,-5.60292 -34.8154,-12.31077 -3.575,-1.36792 -8.075,-2.9574 -10,-3.53218 -1.925,-0.57478 -8.675,-2.91343 -15,-5.19699 -6.325,-2.28357 -13.75,-4.74895 -16.5,-5.47862 -4.7663,-1.26465 -16.9556,-5.554 -35.5,-12.49226 -12.7105,-4.75555 -24.081,-8.70315 -38,-13.19289 -17.0243,-5.49137 -32.7656,-11.10652 -53.5,-19.08414 -4.95,-1.90453 -13.725,-4.91902 -19.5,-6.69886 -5.775,-1.77985 -14.20391,-4.56276 -18.73091,-6.18426 -4.52701,-1.6215 -12.17701,-4.33348 -17,-6.02664 -4.823,-1.69315 -12.14409,-4.3387 -16.26909,-5.879 -12.29991,-4.59285 -23.91903,-8.64469 -34,-11.85652 -5.225,-1.6647 -14.675,-4.87557 -21,-7.13527 -6.325,-2.2597 -15.1,-5.37154 -19.5,-6.9152 -4.4,-1.54365 -11.825,-4.25011 -16.5,-6.01435 -4.675,-1.76423 -10.75,-3.8016 -13.5,-4.52749 -2.75,-0.72588 -10.175,-3.20503 -16.5,-5.50921 -6.325,-2.30419 -13.975,-4.99783 -17,-5.98588 -3.025,-0.98805 -8.425,-2.92999 -12,-4.31543 C 757.9642,133.08072 751.8666,131 749.55509,131 c -1.38019,0 -5.55721,1.16009 -9.28226,2.57797 -3.72506,1.41789 -9.24783,3.39348 -12.27283,4.39021 -3.025,0.99672 -9.325,3.25394 -14,5.01605 -17.13314,6.45783 -30.62171,11.22205 -35.5,12.53875 -4.82666,1.30277 -15.50577,4.93899 -28,9.53397 -16.06254,5.90729 -29.07906,10.50089 -40,14.11621 -17.48352,5.78784 -38.19175,13.05271 -53.5,18.76889 -11.62486,4.34079 -23.35201,8.4141 -37,12.85159 -14.54194,4.72814 -26.0841,8.74792 -38,13.23421 -4.675,1.76013 -13.9,4.97122 -20.5,7.13578 -6.6,2.16455 -14.025,4.64198 -16.5,5.50539 -19.93549,6.95455 -29.92952,10.5321 -54,19.33031 -6.325,2.3119 -13.75,4.79076 -16.5,5.50857 -2.75,0.71781 -8.825,2.74858 -13.5,4.51281 -4.675,1.76424 -12.1,4.4707 -16.5,6.01435 -4.4,1.54366 -13.175,4.65372 -19.5,6.91124 C 309.35286,284.53109 295.93016,289 294.80296,289 c -0.51271,0 -3.19294,0.97254 -5.95606,2.16121 l -5.02387,2.16121 0.61008,14.58879 c 0.33555,8.02383 1.01266,21.11379 1.50469,29.08879 0.49204,7.975 1.36189,23.95 1.93301,35.5 0.57112,11.55 1.32939,22.8 1.68504,25 0.35566,2.2 1.01255,8.95 1.45975,15 1.45125,19.6331 4.02021,48.81624 4.97364,56.5 0.51185,4.125 1.38293,13.35 1.93573,20.5 0.5528,7.15 1.4586,15.925 2.01288,19.5 1.26979,8.1898 1.8126,12.45464 3.56378,28 2.621,23.26692 3.39451,29.48414 4.44777,35.75 1.96172,11.67026 3.00283,18.7356 3.647,24.75 0.35345,3.3 1.48885,10.01825 2.52312,14.92945 1.03426,4.9112 1.88048,10.39062 1.88048,12.1765 0,1.78587 0.93927,7.89261 2.08727,13.57054 1.14799,5.67793 2.43259,12.79851 2.85466,15.82351 0.98797,7.08088 4.51264,25.48003 7.5669,39.5 1.318,6.05 2.68847,13.025 3.0455,15.5 0.35703,2.475 2.62837,12.75994 5.04741,22.85541 2.41904,10.09548 4.39826,19.27196 4.39826,20.39219 0,1.12023 0.93624,5.18049 2.08053,9.02281 1.14429,3.84231 2.46849,9.06583 2.94266,11.60781 0.47418,2.54198 2.0569,9.12178 3.51717,14.62178 1.46026,5.5 3.70909,14.05 4.99739,19 4.68074,17.98462 9.1089,33.22771 15.54192,53.5 2.18165,6.875 3.95621,13.30985 3.94348,14.29966 -0.0127,0.98981 0.64306,3.08796 1.45731,4.66255 0.81425,1.57458 3.09883,7.96474 5.07686,14.20034 1.97802,6.2356 4.25403,12.85131 5.05779,14.70159 0.80377,1.85028 2.9736,7.93192 4.82185,13.51476 1.84825,5.58284 4.26701,12.16897 5.37502,14.63586 1.10802,2.46688 3.46469,8.53524 5.23706,13.48524 1.77237,4.95 5.90786,15.3 9.18998,23 3.28211,7.7 8.26214,19.4 11.06674,26 5.26228,12.3837 31.54637,64.996 38.21791,76.5 2.07325,3.575 5.78332,10.1 8.24459,14.5 5.88122,10.5138 26.00627,41.5461 35.34427,54.5 2.18062,3.025 5.16995,7.3 6.64295,9.5 1.47301,2.2 4.76449,6.475 7.31441,9.5 2.54992,3.025 5.77294,7.3 7.16227,9.5 1.38932,2.2 6.24889,8.275 10.79904,13.5 4.55014,5.225 12.13425,14 16.85357,19.5 20.93128,24.3938 66.95536,66.687 90.71903,83.365 23.86325,16.748 33.36679,23.1176 43.60646,29.2268 15.77304,9.4105 59.74212,31.8338 62.50272,31.8751 1.21714,0.018 4.5831,-0.9011 7.47991,-2.0429 z m -34.21602,-333.0479 c -0.0199,-151.41508 -0.99643,-542.1864 -1.35568,-542.47267 -0.0666,-0.0531 -10.47119,0.94077 -23.12119,2.20863 -38.48396,3.8571 -156.51628,14.95167 -222.5,20.91412 -21.725,1.96312 -48.275,4.37633 -59,5.3627 -10.725,0.98636 -19.725,1.60114 -20,1.36617 -1.69799,-1.45079 13.36516,-9.61037 30.21979,-16.3698 C 489.50994,460.50319 683.80415,409.0927 716.75,409.01059 L 721,409 v -15.86344 -15.86343 l 5.75,-2.55909 c 18.36815,-8.17491 44.4601,-8.82673 59.16153,-1.47796 5.37489,2.68673 5.65774,3.50808 6.80616,19.76392 0.46213,6.54139 1.23713,11.43122 1.79738,11.34048 5.31876,-0.86143 91.98051,-1.83548 161.48493,-1.81504 90.1698,0.0265 110.5693,0.75274 117.822,4.1944 4.7333,2.24608 14.6583,11.61127 16.168,15.25602 1.9626,4.73806 0.4881,9.59865 -4.3921,14.47889 -8.7121,8.71204 -23.3935,10.81964 -52.0717,7.47516 -22.6544,-2.64198 -73.15777,0.55522 -160.5262,10.1624 -34.7302,3.81899 -71.02175,8.39589 -75.63932,9.53924 l -2.13932,0.52971 0.11674,129.16937 c 0.10227,113.15342 -1.12115,373.58875 -1.8399,391.66937 -0.14212,3.575 -0.54449,44.075 -0.89416,90 -0.52732,69.2574 -1.29552,113.8991 -1.9728,114.6444 -0.0722,0.08 -15.54374,0.4737 -34.38124,0.8761 l -34.25,0.7316 -0.0231,-176.376 z"
         id="path18" />
      <path
         style="fill:#000000"
         d="m 744.63837,1399.5 c -0.31658,-0.825 -1.46317,-1.5 -2.54797,-1.5 -1.0848,0 -2.25502,-0.4573 -2.60048,-1.0163 -0.34546,-0.559 -0.99603,-0.7889 -1.44571,-0.511 -0.44968,0.2779 -1.36957,-0.1598 -2.04421,-0.9727 -0.67464,-0.8129 -1.60732,-1.2427 -2.07263,-0.9551 -0.46531,0.2876 -1.65182,0.087 -2.63669,-0.4455 -0.98488,-0.5326 -3.25318,-1.5577 -5.04068,-2.278 -1.7875,-0.7203 -3.25,-1.6498 -3.25,-2.0655 0,-0.4158 -1.125,-0.7559 -2.5,-0.7559 -1.375,0 -2.5,-0.45 -2.5,-1 0,-0.55 -0.675,-1 -1.5,-1 -0.825,0 -1.5,-0.45 -1.5,-1 0,-0.55 -1.125,-1 -2.5,-1 -1.375,0 -2.5,-0.366 -2.5,-0.8134 0,-0.4473 -1.575,-1.4313 -3.5,-2.1866 -1.925,-0.7553 -3.5,-1.7393 -3.5,-2.1866 0,-0.4474 -1.125,-0.8134 -2.5,-0.8134 -1.375,0 -2.5,-0.45 -2.5,-1 0,-0.55 -0.675,-1 -1.5,-1 -0.825,0 -1.5,-0.366 -1.5,-0.8134 0,-0.4473 -1.575,-1.4313 -3.5,-2.1866 -1.925,-0.7553 -3.5,-1.7918 -3.5,-2.3033 0,-0.5115 -0.90106,-0.6943 -2.00236,-0.4063 -1.11909,0.2926 -2.33215,-0.066 -2.75,-0.8124 -0.4112,-0.7348 -0.97264,-1.3806 -1.24764,-1.4352 -2.90427,-0.5767 -5,-1.4035 -5,-1.9728 0,-0.3832 -1.575,-1.3147 -3.5,-2.07 -1.925,-0.7553 -3.5,-1.7393 -3.5,-2.1866 0,-0.4474 -0.675,-0.8134 -1.5,-0.8134 -0.825,0 -1.5,-0.366 -1.5,-0.8134 0,-0.4473 -1.575,-1.4313 -3.5,-2.1866 -1.925,-0.7553 -3.5,-1.7393 -3.5,-2.1866 0,-0.4474 -0.675,-0.8134 -1.5,-0.8134 -0.825,0 -1.5,-0.366 -1.5,-0.8134 0,-0.4473 -1.575,-1.4313 -3.5,-2.1866 -1.925,-0.7553 -3.5,-1.7393 -3.5,-2.1866 0,-0.4474 -0.675,-0.8134 -1.5,-0.8134 -0.825,0 -1.5,-0.45 -1.5,-1 0,-0.55 -0.60526,-1 -1.34501,-1 -0.73976,0 -2.1499,-0.8894 -3.13365,-1.9764 -0.98375,-1.087 -2.13134,-1.7646 -2.5502,-1.5058 -0.41886,0.2589 -1.03055,-0.2302 -1.35929,-1.0869 -0.32875,-0.8567 -1.02011,-1.2966 -1.53637,-0.9776 -0.51625,0.3191 -1.53193,-0.2149 -2.25706,-1.1866 C 634.09329,1340.295 632.15,1338.825 630.5,1338 c -1.65,-0.825 -3.58802,-2.2875 -4.3067,-3.25 -0.71869,-0.9625 -1.95619,-1.75 -2.75,-1.75 -0.79382,0 -1.4433,-0.45 -1.4433,-1 0,-0.55 -0.67119,-1 -1.49153,-1 -0.82034,0 -2.05358,-0.9 -2.74054,-2 -0.68696,-1.1 -1.81578,-2 -2.50848,-2 -0.6927,0 -1.25945,-0.45 -1.25945,-1 0,-0.55 -0.60526,-1 -1.34501,-1 -0.73976,0 -2.1595,-0.9 -3.15499,-2 -0.99549,-1.1 -2.23797,-2 -2.76107,-2 -0.5231,0 -1.83601,-1.125 -2.91759,-2.5 -1.08158,-1.375 -2.50059,-2.5 -3.15337,-2.5 -0.65278,0 -1.74894,-0.9 -2.4359,-2 -0.68696,-1.1 -1.82086,-2 -2.51978,-2 -0.69893,0 -1.91945,-0.9 -2.71229,-2 -0.79284,-1.1 -1.91784,-2 -2.5,-2 -0.58216,0 -1.70716,-0.9 -2.5,-2 -0.79284,-1.1 -1.90468,-2.0041 -2.47076,-2.0091 -0.56608,-0.01 -2.09239,-1.355 -3.3918,-3 -1.29941,-1.645 -2.7042,-2.9909 -3.12175,-2.9909 -0.41756,0 -3.81666,-2.925 -7.55357,-6.5 -3.7369,-3.575 -7.11896,-6.5 -7.51568,-6.5 -0.39672,0 -1.78447,-1.3459 -3.08388,-2.9909 -1.29941,-1.645 -2.85136,-2.995 -3.44878,-3 -0.59743,0 -2.84743,-2.2411 -5,-4.969 -2.15258,-2.7279 -4.44995,-4.9779 -5.10528,-5 -0.65532,-0.022 -3.58032,-2.9349 -6.5,-6.4729 -2.91967,-3.538 -5.78985,-6.463 -6.37816,-6.5 -0.58832,-0.037 -2.12026,-1.3047 -3.40431,-2.8172 -3.43338,-4.0442 -13.357,-15.5726 -14.52115,-16.8693 -0.55269,-0.6157 -3.00451,-3.4832 -5.44851,-6.3722 -2.444,-2.8891 -4.919,-5.7651 -5.5,-6.3911 -0.581,-0.626 -3.75418,-4.2835 -7.05149,-8.1278 -3.29732,-3.8443 -6.44732,-7.4922 -7,-8.1066 -3.88908,-4.3229 -5.50604,-6.5637 -5.51362,-7.6406 -0.005,-0.6833 -2.90899,-4.3924 -6.45372,-8.2424 -3.54474,-3.85 -6.46581,-7.5591 -6.49126,-8.2424 -0.0417,-1.1187 -2.39704,-4.2961 -5.79628,-7.8192 -0.6875,-0.7125 -1.25,-1.8095 -1.25,-2.4376 0,-0.6281 -1.8,-3.2767 -4,-5.8858 -2.2,-2.609 -4.00863,-5.1648 -4.01918,-5.6794 -0.0106,-0.5146 -1.58556,-2.7307 -3.5,-4.9247 -1.91445,-2.194 -3.48082,-4.5014 -3.48082,-5.1275 0,-0.6262 -0.675,-1.6987 -1.5,-2.3834 -0.825,-0.6847 -1.5,-1.8844 -1.5,-2.6661 0,-0.7816 -1.125,-2.6344 -2.5,-4.1173 -1.375,-1.4829 -2.5,-3.0683 -2.5,-3.5231 0,-0.4548 -1.125,-2.3019 -2.5,-4.1046 -1.375,-1.8027 -2.5,-3.6898 -2.5,-4.1935 0,-0.5037 -1.125,-2.1291 -2.5,-3.612 -1.375,-1.4829 -2.5,-3.3642 -2.5,-4.1807 0,-0.8166 -0.44913,-1.7622 -0.99806,-2.1015 -0.54893,-0.3393 -2.13481,-3.0197 -3.52419,-5.9567 -1.38938,-2.9369 -3.19025,-5.8909 -4.00194,-6.5646 C 423.66411,1107.3063 423,1106.1903 423,1105.5 c 0,-0.6903 -0.675,-1.8153 -1.5,-2.5 -0.825,-0.6847 -1.5,-2.0898 -1.5,-3.1224 0,-1.0327 -0.41968,-1.8776 -0.93261,-1.8776 -0.51294,0 -1.23966,-1.0125 -1.61494,-2.25 -0.37527,-1.2375 -1.48202,-3.15 -2.45942,-4.25 -0.97741,-1.1 -2.07619,-3.4158 -2.44175,-5.1463 -0.36555,-1.7305 -1.51363,-3.9146 -2.55128,-4.8537 -1.03765,-0.9391 -2.19752,-3.1228 -2.57748,-4.8528 -0.37996,-1.7299 -1.45851,-3.8207 -2.39678,-4.6463 -0.93826,-0.8255 -2.03625,-2.8509 -2.43997,-4.5009 -0.40372,-1.65 -1.54161,-3.9 -2.52866,-5 -0.98705,-1.1 -2.09689,-3.2759 -2.46631,-4.8352 -0.36943,-1.5594 -1.54788,-3.7757 -2.6188,-4.9252 -1.07091,-1.1495 -2.22779,-3.5862 -2.57085,-5.4148 C 392.0581,1045.4962 391.3775,1044 390.88871,1044 390.39992,1044 390,1043.1 390,1042 c 0,-1.1 -0.39992,-2 -0.88871,-2 -0.48879,0 -1.17259,-1.5132 -1.51956,-3.3627 -0.34696,-1.8495 -1.51324,-4.1613 -2.59173,-5.1373 -1.07849,-0.976 -2.24477,-3.2878 -2.59173,-5.1373 C 382.0613,1024.5132 381.3775,1023 380.88871,1023 380.39992,1023 380,1022.1266 380,1021.059 c 0,-1.0675 -0.45734,-2.2236 -1.01631,-2.5691 -0.55897,-0.3454 -0.77663,-1.0159 -0.48369,-1.4899 0.29294,-0.474 0.0753,-1.1445 -0.48369,-1.4899 -0.55897,-0.3455 -1.01631,-1.5016 -1.01631,-2.5691 0,-1.0676 -0.45,-1.941 -1,-1.941 -0.55,0 -1,-0.9 -1,-2 0,-1.1 -0.47656,-2 -1.05902,-2 -0.58246,0 -0.80823,-0.4058 -0.50172,-0.9017 0.30652,-0.496 -0.76789,-3.421 -2.38756,-6.50002 C 369.43202,996.51922 368.3978,994 368.75342,994 c 0.35562,0 0.10658,-0.54 -0.55342,-1.2 -0.66,-0.66 -1.2,-2.01 -1.2,-3 0,-0.99 -0.45,-1.8 -1,-1.8 -0.55,0 -1.00188,-0.7875 -1.00419,-1.75 -0.002,-0.9625 -1.1273,-3.96377 -2.5,-6.66948 -1.37269,-2.70571 -2.49858,-5.63071 -2.50197,-6.5 -0.003,-0.86929 -0.67839,-2.86946 -1.5,-4.44483 C 357.67223,967.06032 357,965.14782 357,964.38569 357,963.62356 356.58955,963 356.0879,963 c -0.50166,0 -1.21669,-1.8028 -1.58895,-4.00622 -0.37227,-2.20342 -1.75994,-6.14092 -3.08371,-8.75 -1.32378,-2.60908 -2.40875,-5.53128 -2.41105,-6.49378 C 349.00188,942.7875 348.55,942 348,942 c -0.55,0 -1,-1.35 -1,-3 0,-1.65 -0.41045,-3 -0.9121,-3 -0.50166,0 -1.22992,-1.88114 -1.61836,-4.18032 C 344.08109,929.52051 342.9698,926.22665 342,924.5 c -0.9698,-1.72665 -2.08109,-5.02051 -2.46954,-7.31968 C 339.14202,914.88114 338.41376,913 337.9121,913 337.41045,913 337,911.65 337,910 c 0,-1.65 -0.41045,-3 -0.9121,-3 -0.50166,0 -1.22992,-1.88114 -1.61836,-4.18032 -0.38845,-2.29917 -1.53509,-5.65596 -2.54809,-7.45954 -1.01301,-1.80357 -2.14272,-5.54742 -2.51047,-8.31968 C 329.04323,884.26821 328.35031,882 327.87117,882 327.39203,882 327,880.65 327,879 c 0,-1.65 -0.39891,-3 -0.88646,-3 -0.48755,0 -1.19012,-2.025 -1.56127,-4.5 -0.37115,-2.475 -1.09724,-4.5 -1.61354,-4.5 -0.5163,0 -0.93873,-1.32344 -0.93873,-2.94098 0,-1.61754 -0.40775,-3.19299 -0.90612,-3.501 -0.49837,-0.30801 -0.68416,-1.40878 -0.41288,-2.44616 0.27128,-1.03738 0.004,-2.18849 -0.59388,-2.55802 C 319.4892,855.18431 319,853.81008 319,852.5 c 0,-1.31008 -0.45,-2.66008 -1,-3 -0.55,-0.33992 -1,-1.68992 -1,-3 0,-1.31008 -0.40775,-2.63397 -0.90612,-2.94198 -0.49837,-0.30801 -0.68416,-1.40878 -0.41288,-2.44616 0.27128,-1.03738 0.004,-2.18849 -0.59388,-2.55802 C 314.4892,838.18431 314,836.55852 314,834.94098 314,833.32344 313.55,832 313,832 c -0.55,0 -1,-1.35 -1,-3 0,-1.65 -0.45857,-3 -1.01905,-3 -0.57525,0 -0.75771,-1.04126 -0.41897,-2.39091 0.33004,-1.31499 0.11361,-2.69155 -0.48095,-3.05901 C 309.48646,820.18262 309,818.33352 309,816.44098 309,814.54844 308.55,813 308,813 c -0.55,0 -1,-1.32344 -1,-2.94098 0,-1.61754 -0.40775,-3.19299 -0.90612,-3.501 -0.49837,-0.30801 -0.68416,-1.40878 -0.41288,-2.44616 0.27128,-1.03738 0.004,-2.18849 -0.59388,-2.55802 C 304.4892,801.18431 304,799.36008 304,797.5 c 0,-1.86008 -0.45,-3.66008 -1,-4 -0.55,-0.33992 -1,-1.68992 -1,-3 0,-1.31008 -0.37497,-2.61371 -0.83327,-2.89695 -0.4583,-0.28325 -0.64004,-1.83152 -0.40388,-3.4406 0.23616,-1.60908 -0.0639,-3.23045 -0.66673,-3.60305 C 299.49325,780.18681 299,778.55852 299,776.94098 299,775.32344 298.58839,774 298.08532,774 c -0.50307,0 -1.23094,-3.375 -1.61749,-7.5 -0.38654,-4.125 -1.09994,-7.5 -1.58532,-7.5 C 294.39713,759 294,757.2 294,755 c 0,-2.2 -0.38589,-4 -0.85754,-4 -0.47165,0 -1.15107,-2.8125 -1.50981,-6.25 -0.35874,-3.4375 -1.09785,-6.4 -1.64246,-6.58333 C 289.44559,737.98333 289,736.07083 289,733.91667 289,731.7625 288.6147,730 288.14378,730 c -0.47093,0 -1.1656,-3.70968 -1.54373,-8.24372 -0.37812,-4.53405 -1.11782,-8.67405 -1.64377,-9.2 C 284.43032,712.03032 284,710.115 284,708.3 c 0,-1.815 -0.4096,-3.3 -0.91023,-3.3 -0.50063,0 -1.22941,-3.83168 -1.61951,-8.51485 -0.39011,-4.68316 -1.10551,-8.75972 -1.58977,-9.05901 C 279.39622,687.12684 279,684.88352 279,682.44098 279,679.99844 278.5904,678 278.08977,678 c -0.50063,0 -1.22941,-3.83168 -1.61951,-8.51485 -0.39011,-4.68316 -1.10551,-8.75972 -1.58977,-9.05901 C 274.39622,660.12684 274,657.88352 274,655.44098 274,652.99844 273.5933,651 273.09623,651 c -0.49707,0 -1.22583,-4.725 -1.61945,-10.5 -0.39363,-5.775 -1.11193,-10.5 -1.59623,-10.5 -0.4843,0 -0.88055,-2.25 -0.88055,-5 0,-2.75 -0.38567,-5 -0.85705,-5 -0.47137,0 -1.17213,-4.6125 -1.55725,-10.25 -0.38511,-5.6375 -1.12444,-10.4 -1.64295,-10.58333 C 264.42424,598.98333 264,595.72083 264,591.91667 264,588.1125 263.59918,585 263.1093,585 c -0.48989,0 -1.21434,-4.954 -1.60988,-11.00889 -0.39554,-6.05489 -1.11973,-11.25645 -1.6093,-11.55902 C 259.40056,562.12952 259,559.05852 259,555.60765 c 0,-3.45087 -0.27388,-6.54819 -0.60861,-6.88293 -0.33474,-0.33474 -0.77104,-3.22224 -0.96956,-6.41667 C 256.55282,528.32464 255.77302,522 254.91794,522 254.41307,522 254,518.4 254,514 c 0,-4.4 -0.34624,-8 -0.76943,-8 -0.42319,0 -0.59704,-3.41385 -0.38634,-7.58634 0.23941,-4.74111 -0.0346,-8.00402 -0.73057,-8.7 C 251.50051,489.10051 251,485.34568 251,481.35902 c 0,-3.98254 -0.45,-7.5191 -1,-7.85902 -0.55241,-0.34141 -1,-4.84372 -1,-10.05902 0,-5.19254 -0.3375,-9.43993 -0.75,-9.43865 -0.4125,0.001 -0.60011,-3.42633 -0.41691,-7.61691 0.20043,-4.58457 -0.0983,-8.05062 -0.75,-8.70233 C 246.43343,437.03343 246,432.07794 246,425.3 c 0,-6.86667 -0.39233,-11.3 -1,-11.3 -0.60215,0 -1,-4.11111 -1,-10.33333 0,-5.68334 -0.27381,-10.60714 -0.60846,-10.9418 -0.33465,-0.33465 -0.53751,-6.48465 -0.4508,-13.66666 C 243.04393,370.51102 242.73595,366 242.0492,366 241.36206,366 241,360.65121 241,350.5 c 0,-9.66667 -0.37634,-15.5 -1,-15.5 -0.63063,0 -1,-6.83333 -1,-18.5 0,-11.66667 -0.36937,-18.5 -1,-18.5 -0.63248,0 -1,-7.16667 -1,-19.5 V 259 h 2.5 c 1.375,0 2.5,-0.45 2.5,-1 0,-0.55 1.575,-1 3.5,-1 1.925,0 3.5,-0.45 3.5,-1 0,-0.55 1.125,-1 2.5,-1 1.375,0 2.5,-0.45 2.5,-1 0,-0.55 1.125,-1 2.5,-1 1.375,0 2.5,-0.45 2.5,-1 0,-0.55 1.575,-1 3.5,-1 1.925,0 3.5,-0.45 3.5,-1 0,-0.55 1.125,-1 2.5,-1 1.375,0 2.5,-0.45 2.5,-1 0,-0.55 0.87344,-1 1.94098,-1 1.06754,0 2.2191,-0.45 2.55902,-1 0.33992,-0.55 1.91492,-1 3.5,-1 1.58508,0 3.14793,-0.43035 3.47301,-0.95633 0.32507,-0.52598 1.17953,-0.7305 1.8988,-0.45449 0.71927,0.27601 1.86276,-0.16689 2.54109,-0.98423 0.67833,-0.81734 1.82991,-1.25714 2.55906,-0.97734 0.72916,0.27981 1.62281,0.0281 1.98591,-0.55944 0.36309,-0.58749 1.76471,-1.06817 3.11472,-1.06817 1.35,0 3.23594,-0.3975 4.19098,-0.88333 0.95504,-0.48583 3.08643,-1.43833 4.73643,-2.11667 1.65,-0.67834 3.78139,-1.63084 4.73643,-2.11667 0.95504,-0.48583 2.86754,-0.88333 4.25,-0.88333 1.38246,0 2.51357,-0.45 2.51357,-1 0,-0.55 1.125,-1 2.5,-1 1.375,0 2.5,-0.45 2.5,-1 0,-0.55 1.125,-1 2.5,-1 1.375,0 2.5,-0.45 2.5,-1 0,-0.55 1.575,-1 3.5,-1 1.925,0 3.5,-0.45 3.5,-1 0,-0.55 1.125,-1 2.5,-1 1.375,0 2.5,-0.45 2.5,-1 0,-0.55 1.125,-1 2.5,-1 1.375,0 2.5,-0.45 2.5,-1 0,-0.55 1.13111,-1 2.51357,-1 1.38246,0 3.29496,-0.3975 4.25,-0.88333 1.82781,-0.92981 5.38313,-2.42891 8.73643,-3.68371 1.1,-0.41162 2.63613,-0.64079 3.41362,-0.50927 1.28649,0.21763 3.52789,-0.60117 8.32281,-3.04036 0.95504,-0.48583 2.64254,-0.88333 3.75,-0.88333 1.10746,0 2.01357,-0.45 2.01357,-1 0,-0.55 1.13111,-1 2.51357,-1 1.38246,0 3.29496,-0.3975 4.25,-0.88333 0.95504,-0.48583 2.97393,-1.38583 4.48643,-2 1.5125,-0.61417 3.9875,-1.61917 5.5,-2.23334 1.5125,-0.61417 3.53139,-1.51417 4.48643,-2 0.95504,-0.48583 2.86754,-0.88333 4.25,-0.88333 1.38246,0 2.51357,-0.45 2.51357,-1 0,-0.55 1.125,-1 2.5,-1 1.375,0 2.5,-0.45 2.5,-1 0,-0.55 1.125,-1 2.5,-1 1.375,0 2.5,-0.45 2.5,-1 0,-0.55 1.575,-1 3.5,-1 1.925,0 3.5,-0.45 3.5,-1 0,-0.55 1.125,-1 2.5,-1 1.375,0 2.5,-0.45 2.5,-1 0,-0.55 1.125,-1 2.5,-1 1.375,0 2.5,-0.45 2.5,-1 0,-0.55 1.32344,-1 2.94098,-1 1.61754,0 3.19299,-0.40775 3.501,-0.90612 0.30801,-0.49837 1.39751,-0.68711 2.42111,-0.41943 1.08905,0.28479 2.10035,-0.13679 2.43783,-1.01626 0.36271,-0.94519 1.34166,-1.30291 2.63791,-0.96394 1.17278,0.30669 2.06117,0.0577 2.06117,-0.57762 0,-0.61415 1.575,-1.11663 3.5,-1.11663 1.925,0 3.5,-0.45 3.5,-1 0,-0.55 1.125,-1 2.5,-1 1.375,0 2.5,-0.45 2.5,-1 0,-0.55 1.125,-1 2.5,-1 1.375,0 2.5,-0.45 2.5,-1 0,-0.55 1.13111,-1 2.51357,-1 1.38246,0 3.29496,-0.3975 4.25,-0.88333 0.95504,-0.48583 3.08643,-1.43833 4.73643,-2.11667 1.65,-0.67834 3.78139,-1.63084 4.73643,-2.11667 0.95504,-0.48583 2.86754,-0.88333 4.25,-0.88333 1.38246,0 2.51357,-0.45 2.51357,-1 0,-0.55 1.125,-1 2.5,-1 1.375,0 2.5,-0.45 2.5,-1 0,-0.55 1.125,-1 2.5,-1 1.375,0 2.5,-0.45 2.5,-1 0,-0.55 1.575,-1 3.5,-1 1.925,0 3.5,-0.45 3.5,-1 0,-0.55 1.125,-1 2.5,-1 1.375,0 2.5,-0.49814 2.5,-1.10699 0,-0.60884 0.67165,-0.84925 1.49256,-0.53424 0.82091,0.31501 2.02505,0.003 2.67588,-0.694 0.65083,-0.69672 2.45418,-1.08023 4.00744,-0.85226 1.65615,0.24307 2.82412,-0.046 2.82412,-0.69901 0,-0.61243 1.125,-1.1135 2.5,-1.1135 1.375,0 2.5,-0.45 2.5,-1 0,-0.55 1.125,-1 2.5,-1 1.375,0 2.5,-0.45 2.5,-1 0,-0.55 1.575,-1 3.5,-1 1.925,0 3.5,-0.45 3.5,-1 0,-0.55 1.125,-1 2.5,-1 1.375,0 2.5,-0.45 2.5,-1 0,-0.55 1.125,-1 2.5,-1 1.375,0 2.5,-0.45 2.5,-1 0,-0.55 1.13111,-1 2.51357,-1 1.38246,0 3.29496,-0.3975 4.25,-0.88333 0.95504,-0.48583 3.08643,-1.43833 4.73643,-2.11667 1.65,-0.67834 3.78139,-1.63084 4.73643,-2.11667 0.95504,-0.48583 2.86754,-0.88333 4.25,-0.88333 1.38246,0 2.51357,-0.45 2.51357,-1 0,-0.55 1.125,-1 2.5,-1 1.375,0 2.5,-0.45 2.5,-1 0,-0.55 1.125,-1 2.5,-1 1.375,0 2.5,-0.45 2.5,-1 0,-0.55 1.575,-1 3.5,-1 1.925,0 3.5,-0.40787 3.5,-0.90638 0,-0.49851 0.89453,-0.67246 1.98785,-0.38655 1.22031,0.31912 2.21053,-0.0605 2.56458,-0.98311 0.33199,-0.86515 1.35016,-1.30069 2.39929,-1.02633 1.00241,0.26213 2.12491,-0.0126 2.49444,-0.61051 C 595.81569,134.4892 597.44148,134 599.05902,134 600.67656,134 602,133.55 602,133 c 0,-0.55 1.125,-1 2.5,-1 1.375,0 2.5,-0.45 2.5,-1 0,-0.55 1.125,-1 2.5,-1 1.375,0 2.5,-0.45 2.5,-1 0,-0.55 1.32344,-1 2.94098,-1 1.61754,0 3.2191,-0.45 3.55902,-1 0.33992,-0.55 1.71648,-1 3.05902,-1 1.34254,0 2.44098,-0.45 2.44098,-1 0,-0.55 1.125,-1 2.5,-1 1.375,0 2.5,-0.45 2.5,-1 0,-0.55 1.35,-1 3,-1 1.65,0 3,-0.45 3,-1 0,-0.55 0.90611,-1 2.01357,-1 1.10746,0 3.01996,-0.52026 4.25,-1.15613 4.89214,-2.529 5.80257,-2.84387 8.22286,-2.84387 1.38246,0 2.51357,-0.45 2.51357,-1 0,-0.55 1.125,-1 2.5,-1 1.375,0 2.5,-0.45 2.5,-1 0,-0.55 1.125,-1 2.5,-1 1.375,0 2.5,-0.43875 2.5,-0.975 0,-0.53908 1.27694,-0.71961 2.85609,-0.40378 2.01981,0.40396 3.02672,0.12656 3.43883,-0.94738 0.36826,-0.95969 1.34133,-1.32022 2.64391,-0.97959 1.17278,0.30669 2.06117,0.0577 2.06117,-0.57762 0,-0.61415 1.125,-1.11663 2.5,-1.11663 1.375,0 2.5,-0.45 2.5,-1 0,-0.55 1.575,-1 3.5,-1 1.925,0 3.5,-0.45 3.5,-1 0,-0.55 1.125,-1 2.5,-1 1.375,0 2.5,-0.45 2.5,-1 0,-0.55 1.125,-1 2.5,-1 1.375,0 2.5,-0.45 2.5,-1 0,-0.55 1.13111,-1 2.51357,-1 1.38246,0 3.29496,-0.397498 4.25,-0.883329 C 702.71861,97.630841 704.85,96.678339 706.5,96 c 1.65,-0.678339 3.78139,-1.630841 4.73643,-2.116671 C 712.19147,93.397498 714.10397,93 715.48643,93 716.86889,93 718,92.55 718,92 c 0,-0.55 1.125,-1 2.5,-1 1.375,0 2.5,-0.45 2.5,-1 0,-0.55 1.125,-1 2.5,-1 1.375,0 2.5,-0.45 2.5,-1 0,-0.55 1.575,-1 3.5,-1 1.925,0 3.5,-0.498145 3.5,-1.106989 0,-0.608844 0.67165,-0.849252 1.49256,-0.53424 0.82091,0.315012 2.04512,-0.01877 2.72047,-0.741737 0.67535,-0.722967 1.97791,-1.118356 2.89458,-0.878642 0.91667,0.239714 1.96902,-0.05336 2.33855,-0.651274 0.86746,-1.403576 9.23053,-1.419269 10.09597,-0.01894 0.3631,0.587495 1.25675,0.839244 1.98591,0.559441 0.72915,-0.279803 1.84154,0.11277 2.47196,0.872385 0.63042,0.759615 1.74281,1.152188 2.47196,0.872385 0.72916,-0.279803 1.62281,-0.02805 1.98591,0.559441 0.36309,0.587492 1.76471,1.06817 3.11472,1.06817 1.35,0 3.23594,0.397498 4.19098,0.883329 0.95504,0.48583 3.08643,1.438332 4.73643,2.116671 1.65,0.678339 3.78139,1.630841 4.73643,2.116671 C 781.19147,92.602502 783.10397,93 784.48643,93 785.86889,93 787,93.45 787,94 c 0,0.55 1.125,1 2.5,1 1.375,0 2.5,0.45 2.5,1 0,0.55 1.125,1 2.5,1 1.375,0 2.5,0.45 2.5,1 0,0.55 1.575,1 3.5,1 1.925,0 3.5,0.45 3.5,1 0,0.55 1.125,1 2.5,1 1.375,0 2.5,0.45 2.5,1 0,0.55 1.125,1 2.5,1 1.375,0 2.5,0.45 2.5,1 0,0.55 1.13111,1 2.51357,1 1.38246,0 3.29496,0.3975 4.25,0.88333 0.95504,0.48583 2.86143,1.32562 4.23643,1.8662 1.375,0.54058 3.66387,1.52972 5.08638,2.19809 1.4225,0.66836 3.2225,1.10759 4,0.97607 0.77749,-0.13152 2.31362,0.0977 3.41362,0.50927 3.3533,1.2548 6.90862,2.7539 8.73643,3.68371 0.95504,0.48583 2.86754,0.88333 4.25,0.88333 1.38246,0 2.51357,0.45 2.51357,1 0,0.55 1.125,1 2.5,1 1.375,0 2.5,0.45 2.5,1 0,0.55 1.125,1 2.5,1 1.375,0 2.5,0.45 2.5,1 0,0.55 1.575,1 3.5,1 1.925,0 3.5,0.45 3.5,1 0,0.55 1.125,1 2.5,1 1.375,0 2.5,0.45 2.5,1 0,0.55 1.125,1 2.5,1 1.375,0 2.5,0.45 2.5,1 0,0.55 1.13111,1 2.51357,1 1.38246,0 3.29496,0.3975 4.25,0.88333 0.95504,0.48583 3.08643,1.43833 4.73643,2.11667 1.65,0.67834 3.78139,1.63084 4.73643,2.11667 C 897.19147,133.6025 898.88507,134 900,134 c 1.11493,0 3.03353,0.52026 4.26357,1.15613 4.91909,2.54293 5.71616,2.78888 7.1969,2.22067 0.84674,-0.32493 1.53953,-0.0926 1.53953,0.51621 0,0.60885 1.13111,1.10699 2.51357,1.10699 1.38246,0 3.29496,0.3975 4.25,0.88333 0.95504,0.48583 3.08643,1.43833 4.73643,2.11667 1.65,0.67834 3.78139,1.63084 4.73643,2.11667 0.95504,0.48583 2.86754,0.88333 4.25,0.88333 1.38246,0 2.51357,0.45 2.51357,1 0,0.55 1.125,1 2.5,1 1.375,0 2.5,0.45 2.5,1 0,0.55 1.125,1 2.5,1 1.375,0 2.5,0.45 2.5,1 0,0.55 1.575,1 3.5,1 1.925,0 3.5,0.45 3.5,1 0,0.55 1.125,1 2.5,1 1.375,0 2.5,0.45 2.5,1 0,0.55 1.125,1 2.5,1 1.375,0 2.5,0.45 2.5,1 0,0.55 1.13111,1 2.51357,1 1.38246,0 3.29496,0.3975 4.25,0.88333 0.95504,0.48583 2.97393,1.38583 4.48643,2 1.5125,0.61417 3.84464,1.62646 5.18254,2.24955 1.3379,0.62308 3.105,0.87483 3.92689,0.55944 0.82189,-0.31539 2.04078,0.085 2.70864,0.8897 0.68933,0.83059 2.0179,1.20808 3.07311,0.87317 1.02235,-0.32448 1.85882,-0.10964 1.85882,0.47742 0,0.58707 1.125,1.06739 2.5,1.06739 1.375,0 2.5,0.45 2.5,1 0,0.55 1.13111,1 2.51357,1 1.38246,0 3.29493,0.3975 4.25003,0.88333 1.7885,0.90983 5.8514,2.64317 10.2364,4.36714 1.375,0.54058 3.2814,1.38037 4.2364,1.8662 0.9551,0.48583 2.8676,0.88333 4.25,0.88333 1.3825,0 2.5136,0.45 2.5136,1 0,0.55 1.125,1 2.5,1 1.375,0 2.5,0.45 2.5,1 0,0.55 1.125,1 2.5,1 1.375,0 2.5,0.45 2.5,1 0,0.55 1.575,1 3.5,1 1.925,0 3.5,0.45 3.5,1 0,0.55 1.125,1 2.5,1 1.375,0 2.5,0.45 2.5,1 0,0.55 1.125,1 2.5,1 1.375,0 2.5,0.45 2.5,1 0,0.55 1.3234,1 2.941,1 1.6175,0 3.2433,0.4892 3.6128,1.08712 0.3696,0.59791 1.5211,0.86504 2.5591,0.59362 1.0379,-0.27143 1.8871,-0.0856 1.8871,0.41288 0,0.49851 1.125,0.90638 2.5,0.90638 1.375,0 2.5,0.45 2.5,1 0,0.55 1.575,1 3.5,1 1.925,0 3.5,0.45 3.5,1 0,0.55 1.125,1 2.5,1 1.375,0 2.5,0.45 2.5,1 0,0.55 1.125,1 2.5,1 1.375,0 2.5,0.45 2.5,1 0,0.55 1.1311,1 2.5136,1 1.3824,0 3.2949,0.3975 4.25,0.88333 0.955,0.48583 3.0864,1.43833 4.7364,2.11667 1.65,0.67834 3.7814,1.63084 4.7364,2.11667 0.9551,0.48583 2.8676,0.88333 4.25,0.88333 1.3825,0 2.5136,0.45 2.5136,1 0,0.55 1.125,1 2.5,1 1.375,0 2.5,0.45 2.5,1 0,0.55 1.125,1 2.5,1 1.375,0 2.5,0.45 2.5,1 0,0.55 1.575,1 3.5,1 1.925,0 3.5,0.45 3.5,1 0,0.55 1.125,1 2.5,1 1.375,0 2.5,0.50248 2.5,1.11663 0,0.63535 0.8884,0.88431 2.0612,0.57762 1.3025,-0.34063 2.2756,0.0199 2.6439,0.97959 0.4121,1.07394 1.419,1.35134 3.4388,0.94738 1.5792,-0.31583 2.8561,-0.1353 2.8561,0.40378 0,0.53625 1.125,0.975 2.5,0.975 1.375,0 2.5,0.45 2.5,1 0,0.55 1.125,1 2.5,1 1.375,0 2.5,0.45 2.5,1 0,0.55 1.575,1 3.5,1 1.925,0 3.5,0.45 3.5,1 0,0.55 1.125,1 2.5,1 1.375,0 2.5,0.45 2.5,1 0,0.55 1.125,1 2.5,1 1.375,0 2.5,0.45 2.5,1 0,0.55 1.1311,1 2.5136,1 1.3824,0 3.2949,0.3975 4.25,0.88333 0.955,0.48583 3.0864,1.43833 4.7364,2.11667 1.65,0.67834 3.7814,1.63084 4.7364,2.11667 0.9551,0.48583 2.8676,0.88333 4.25,0.88333 1.3825,0 2.5136,0.45 2.5136,1 0,0.55 1.125,1 2.5,1 1.375,0 2.5,0.45 2.5,1 0,0.55 1.125,1 2.5,1 1.375,0 2.5,0.45 2.5,1 0,0.55 1.3234,1 2.941,1 1.6175,0 3.2433,0.4892 3.6128,1.08712 0.3696,0.59791 1.4219,0.89099 2.3386,0.65127 0.9167,-0.23971 2.262,0.20151 2.9897,0.9805 0.7277,0.77899 1.9519,1.17504 2.7205,0.88011 0.7686,-0.29492 1.3974,-0.10035 1.3974,0.43238 0,0.53274 1.575,0.96862 3.5,0.96862 1.925,0 3.5,0.45 3.5,1 0,0.55 1.125,1 2.5,1 1.375,0 2.5,0.45 2.5,1 0,0.55 1.125,1 2.5,1 1.375,0 2.5,0.45 2.5,1 0,0.55 1.1311,1 2.5136,1 1.3824,0 3.2949,0.3975 4.25,0.88333 0.955,0.48583 3.0864,1.43833 4.7364,2.11667 1.65,0.67834 3.7814,1.63084 4.7364,2.11667 0.9551,0.48583 2.8676,0.88333 4.25,0.88333 1.3825,0 2.5136,0.45 2.5136,1 0,0.55 1.35,1 3,1 h 3 v 13.39301 c 0,10.38944 -0.3059,13.51041 -1.3641,13.91647 -1.0881,0.41753 -1.5106,6.66189 -2.0879,30.85699 -0.3982,16.68344 -1.1343,30.76103 -1.6359,31.28353 -0.5017,0.5225 -0.9121,6.23344 -0.9121,12.69098 0,6.45754 -0.3947,11.98493 -0.8771,12.28309 -0.4825,0.29816 -1.2077,10.67921 -1.6117,23.069 -0.404,12.38979 -1.1343,22.77396 -1.6228,23.07593 -0.4886,0.30197 -0.8884,4.77092 -0.8884,9.931 0,5.16008 -0.402,9.63039 -0.8932,9.93402 -0.4913,0.30363 -1.2213,7.98758 -1.6221,17.07546 -0.4009,9.08787 -1.1239,16.76756 -1.6068,17.06598 -0.4828,0.29841 -0.8779,4.25102 -0.8779,8.78356 0,4.61516 -0.4797,8.72064 -1.0902,9.33117 -0.6431,0.64307 -0.9507,3.80189 -0.75,7.7021 0.1871,3.63655 0,6.61096 -0.4098,6.60981 -0.4125,-10e-4 -0.75,3.5979 -0.75,7.9979 0,4.66667 -0.4167,8 -1,8 -0.5632,0 -1,2.81366 -1,6.44098 0,3.54254 -0.48,6.73764 -1.0666,7.10021 -0.6081,0.37577 -0.9633,3.1929 -0.8262,6.55184 0.1323,3.24093 -0.063,6.19584 -0.4334,6.56646 -0.3706,0.37061 -0.6738,3.52384 -0.6738,7.00718 0,3.55555 -0.4386,6.33333 -1,6.33333 -0.5545,0 -1,2.64699 -1,5.94098 0,3.28965 -0.4975,6.24845 -1.1147,6.62994 -0.6845,0.423 -0.9341,2.5689 -0.6468,5.55901 0.2573,2.67854 0.084,4.87007 -0.3853,4.87007 -0.4693,0 -0.8532,2.7 -0.8532,6 0,3.3 -0.41,6 -0.9112,6 -0.9668,0 -1.9731,9.01516 -1.9812,17.75 0,3.00131 -0.4552,5.25 -1.0562,5.25 -0.595,0 -1.0514,2.17041 -1.0514,5 0,2.75 -0.392,5 -0.8712,5 -0.4791,0 -1.1899,4.49554 -1.5794,9.99008 -0.3896,5.49454 -1.1225,10.2461 -1.6288,10.55902 -0.5063,0.31291 -0.9206,2.54082 -0.9206,4.9509 0,2.41008 -0.402,4.6304 -0.8933,4.93405 -0.4913,0.30364 -1.2143,4.60832 -1.6067,9.56595 -0.3924,4.95763 -1.1154,9.26231 -1.6067,9.56595 -0.4913,0.30365 -0.8933,2.07397 -0.8933,3.93405 0,1.86008 -0.391,3.62364 -0.869,3.91901 -0.4779,0.29538 -1.1831,4.13907 -1.5672,8.54153 -0.384,4.40247 -1.118,8.26391 -1.631,8.58099 -0.513,0.31708 -0.9328,2.54839 -0.9328,4.95847 0,2.41008 -0.4119,4.63653 -0.9153,4.94766 -0.5034,0.31113 -1.2313,3.93768 -1.6175,8.05901 -0.3862,4.12133 -1.0993,7.49333 -1.5847,7.49333 -0.4854,0 -0.8825,1.54844 -0.8825,3.44098 0,1.89254 -0.4119,3.69555 -0.9153,4.00668 -0.5034,0.31113 -1.2313,3.93768 -1.6175,8.05901 -0.3862,4.12133 -1.0993,7.49333 -1.5847,7.49333 -0.4854,0 -0.8825,1.8 -0.8825,4 0,2.2 -0.4116,4 -0.9147,4 -0.5031,0 -1.2309,3.375 -1.6175,7.5 -0.3865,4.125 -1.0999,7.5 -1.5853,7.5 -0.4854,0 -0.8825,1.35 -0.8825,3 0,1.65 -0.3859,3 -0.8575,3 -0.4717,0 -1.1495,2.7928 -1.5063,6.20622 -0.3567,3.41342 -1.0958,6.65342 -1.6424,7.2 -0.5466,0.54658 -0.9938,2.45222 -0.9938,4.23476 0,1.78254 -0.4292,3.50625 -0.9538,3.83046 -0.5246,0.32421 -1.2588,3.28584 -1.6317,6.58139 -0.3728,3.29556 -1.0686,6.23341 -1.5462,6.52856 -0.4776,0.29516 -0.8683,1.60853 -0.8683,2.91861 0,1.31008 -0.4185,2.64062 -0.93,2.95675 -0.5115,0.31612 -1.2384,3.04268 -1.6152,6.05901 -0.3769,3.01633 -1.0834,5.48424 -1.57,5.48424 -0.4867,0 -0.8848,1.32344 -0.8848,2.94098 0,1.61754 -0.4892,3.24333 -1.0871,3.61286 -0.5979,0.36953 -0.8652,1.52064 -0.5939,2.55802 0.2713,1.03738 0.086,2.13815 -0.4129,2.44616 -0.4983,0.30801 -0.9061,1.6319 -0.9061,2.94198 0,1.31008 -0.45,2.66008 -1,3 -0.55,0.33992 -1,2.13992 -1,4 0,1.86008 -0.4573,3.66462 -1.0163,4.01008 -0.559,0.34546 -0.7766,1.01593 -0.4837,1.48992 0.2929,0.47399 0.075,1.14446 -0.4837,1.48992 -0.559,0.34546 -1.0163,1.50766 -1.0163,2.58267 0,1.075 -0.3897,2.73594 -0.866,3.69098 -1.7719,3.55318 -2.9981,8.42713 -2.4677,9.80931 0.3012,0.78492 0.049,1.42712 -0.5593,1.42712 -0.6089,0 -1.107,1.35 -1.107,3 0,1.65 -0.45,3 -1,3 -0.55,0 -1.0028,1.2375 -1.0062,2.75 0,1.5125 -0.6783,4.03894 -1.5,5.61431 -0.8216,1.57537 -1.4938,3.68631 -1.4938,4.69098 0,1.00467 -0.3981,2.0727 -0.8846,2.3734 -0.4865,0.30069 -1.1891,2.57725 -1.5613,5.05901 -0.3721,2.48177 -1.0991,4.5123 -1.6154,4.5123 -0.5163,0 -0.9387,1.35 -0.9387,3 0,1.65 -0.4104,3 -0.9121,3 -0.5017,0 -1.2299,1.88114 -1.6184,4.18032 -0.3884,2.29917 -1.4997,5.59303 -2.4695,7.31968 -0.9698,1.72665 -2.0811,5.02051 -2.4695,7.31968 -0.3885,2.29918 -1.1167,4.18032 -1.6184,4.18032 -0.5017,0 -0.9121,1.35 -0.9121,3 0,1.65 -0.45,3 -1,3 -0.55,0 -1.0019,0.7875 -1.0042,1.75 0,0.9625 -1.0873,3.8847 -2.411,6.49378 -1.3238,2.60908 -2.7115,6.54658 -3.0837,8.75 -0.3723,2.20342 -1.0873,4.00622 -1.589,4.00622 -0.5017,0 -0.9121,0.9 -0.9121,2 0,1.1 -0.45,2 -1,2 -0.55,0 -1.0101,1.2375 -1.0224,2.75 -0.012,1.5125 -1.3522,5.45 -2.9776,8.75 -1.6254,3.3 -2.9653,6.7875 -2.9776,7.75 -0.012,0.9625 -0.4724,1.75 -1.0224,1.75 -0.55,0 -1,0.9 -1,2 0,1.1 -0.45,2 -1,2 -0.55,0 -1.0019,0.7875 -1.0042,1.75 0,0.9625 -1.0705,3.8515 -2.3737,6.42 -1.3032,2.5685 -2.6762,6.3049 -3.0511,8.3031 -0.3749,1.9983 -1.4442,4.5238 -2.3763,5.6125 -0.9321,1.0886 -1.601,2.1797 -1.4865,2.4248 0.1144,0.2451 -1.1223,2.9747 -2.7483,6.0659 -1.6261,3.0911 -2.7057,6.026 -2.3992,6.522 0.3066,0.4959 0.081,0.9017 -0.5017,0.9017 -0.5824,0 -1.059,0.9 -1.059,2 0,1.1 -0.45,2 -1,2 -0.55,0 -1,0.8734 -1,1.941 0,1.0675 -0.4573,2.2236 -1.0163,2.5691 -0.559,0.3454 -0.7995,0.9789 -0.5346,1.4076 0.265,0.4287 -0.4027,1.7287 -1.4837,2.889 -1.081,1.1603 -1.9654,2.6032 -1.9654,3.2064 0,1.6782 -3.8635,9.7845 -4.9974,10.4853 -0.5514,0.3408 -1.0026,1.4931 -1.0026,2.5606 0,1.0676 -0.45,1.941 -1,1.941 -0.55,0 -1,0.8734 -1,1.941 0,1.0675 -0.4215,2.2015 -0.9367,2.5199 -1.2298,0.76 -4.0633,6.4732 -4.0633,8.1927 0,0.7405 -0.45,1.3464 -1,1.3464 -0.55,0 -1,0.8449 -1,1.8776 0,1.0326 -0.675,2.4377 -1.5,3.1224 -0.825,0.6847 -1.5,1.8097 -1.5,2.5 0,0.6903 -0.675,1.8153 -1.5,2.5 -0.825,0.6847 -1.5,2.0898 -1.5,3.1224 0,1.0327 -0.45,1.8776 -1,1.8776 -0.55,0 -1,0.8734 -1,1.941 0,1.0675 -0.438,2.2116 -0.9732,2.5425 -0.5353,0.3308 -1.7116,2.1573 -2.614,4.059 -0.9024,1.9016 -2.0394,3.4575 -2.5267,3.4575 -0.4874,0 -0.8861,0.8449 -0.8861,1.8776 0,1.0326 -0.675,2.4377 -1.5,3.1224 -0.825,0.6847 -1.5,1.8097 -1.5,2.5 0,0.6903 -0.675,1.8153 -1.5,2.5 -0.825,0.6847 -1.5,2.0898 -1.5,3.1224 0,1.0327 -0.3987,1.8776 -0.8861,1.8776 -0.4873,0 -1.6821,1.6875 -2.6551,3.75 -0.9729,2.0625 -2.6405,4.5136 -3.7057,5.4469 -1.0652,0.9333 -1.681,2.1107 -1.3685,2.6164 0.3125,0.5057 -0.3212,1.7243 -1.4082,2.708 -1.087,0.9838 -1.9764,2.3735 -1.9764,3.0882 0,0.7148 -1.125,2.4246 -2.5,3.7996 -1.375,1.375 -2.5,3.0875 -2.5,3.8057 0,0.7181 -1.125,2.5189 -2.5,4.0018 -1.375,1.4829 -2.5,3.321 -2.5,4.0848 0,0.7637 -0.9371,2.2367 -2.0826,3.2733 -1.1454,1.0366 -2.6797,3.2438 -3.4095,4.905 -0.7299,1.6612 -2.7177,4.4584 -4.4175,6.2161 -1.6997,1.7576 -3.0904,3.8014 -3.0904,4.5416 0,0.7403 -1.575,3.0157 -3.5,5.0566 -1.925,2.0408 -3.5,4.211 -3.5,4.8225 0,0.6116 -2.25,3.7091 -5,6.8835 -2.75,3.1744 -5,6.2041 -5,6.7328 0,0.5286 -0.7875,1.8829 -1.75,3.0094 -0.9625,1.1264 -3.7496,4.4003 -6.1936,7.2752 -2.444,2.8748 -5.0315,5.8149 -5.75,6.5334 -0.7185,0.7185 -1.3168,1.901 -1.3296,2.6278 -0.013,0.7268 -1.4753,2.9372 -3.25,4.9121 -4.71679,5.2488 -9.70445,11.0142 -14.08018,16.2758 -2.11936,2.5484 -4.48186,4.6335 -5.25,4.6335 -0.76814,0 -1.40865,0.3375 -1.42335,0.75 -0.0147,0.4125 -1.70221,2.6022 -3.75,4.8659 -2.0478,2.2637 -5.67588,6.4262 -8.0624,9.25 -2.38652,2.8238 -4.86152,5.1643 -5.5,5.2013 -0.63848,0.037 -3.5497,2.962 -6.46937,6.5 -2.91968,3.538 -5.95718,6.4328 -6.75,6.4328 -0.79283,0 -1.44869,0.3375 -1.45747,0.75 -0.0238,1.1178 -5.61121,7.2486 -6.61572,7.2591 -0.47757,0.01 -1.93146,1.355 -3.23087,3 -1.29941,1.645 -2.77566,2.9909 -3.28055,2.9909 -0.5049,0 -2.30086,1.575 -3.99103,3.5 -1.69018,1.925 -3.58893,3.5013 -4.21945,3.5029 -0.63053,0 -2.04641,1.3503 -3.14641,2.9971 -1.1,1.6468 -2.55869,2.9955 -3.24153,2.9971 -0.68284,0 -1.80358,0.9029 -2.49054,2.0029 -0.68696,1.1 -1.81196,2 -2.5,2 -0.68804,0 -1.81304,0.9 -2.5,2 -0.68696,1.1 -1.93253,2 -2.76793,2 -0.8354,0 -2.08097,0.9 -2.76793,2 -0.68696,1.1 -1.81196,2 -2.5,2 -0.68804,0 -1.82394,0.9175 -2.52423,2.0388 -0.70029,1.1213 -1.63697,1.814 -2.08152,1.5393 -0.44455,-0.2748 -1.7933,0.8328 -2.99723,2.4612 -1.20393,1.6284 -2.74225,2.9607 -3.41848,2.9607 -0.67623,0 -1.79158,0.9 -2.47854,2 -0.68696,1.1 -1.9202,2 -2.74054,2 -0.82034,0 -1.49153,0.3401 -1.49153,0.7559 0,0.4157 -1.4625,1.3956 -3.25,2.1775 -1.7875,0.7819 -3.83802,2.2417 -4.5567,3.2441 -0.71869,1.0024 -1.95619,1.8225 -2.75,1.8225 -0.79382,0 -1.4433,0.45 -1.4433,1 0,0.55 -0.57566,1 -1.27924,1 -0.70358,0 -1.92792,0.9 -2.72076,2 -0.79284,1.1 -2.01718,2 -2.72076,2 -0.70358,0 -1.27924,0.3975 -1.27924,0.8834 0,0.4858 -0.7875,1.1478 -1.75,1.4709 -1.84027,0.6179 -5.40065,2.7404 -6.25,3.7258 -0.275,0.3191 -1.9625,1.2164 -3.75,1.9941 -1.7875,0.7777 -3.25,1.7542 -3.25,2.1699 0,0.4158 -0.675,0.7559 -1.5,0.7559 -0.825,0 -1.5,0.366 -1.5,0.8134 0,0.4473 -1.575,1.4313 -3.5,2.1866 -1.925,0.7553 -3.5,1.7393 -3.5,2.1866 0,0.4474 -0.675,0.8134 -1.5,0.8134 -0.825,0 -1.5,0.366 -1.5,0.8134 0,0.4473 -1.575,1.4313 -3.5,2.1866 -1.925,0.7553 -3.5,1.7393 -3.5,2.1866 0,0.4474 -0.675,0.8134 -1.5,0.8134 -0.825,0 -1.5,0.366 -1.5,0.8134 0,0.4473 -1.575,1.4313 -3.5,2.1866 -1.925,0.7553 -3.5,1.7393 -3.5,2.1866 0,0.4474 -0.3375,0.742 -0.75,0.6546 -1.15551,-0.2446 -9.06223,2.9635 -10.25,4.1588 -0.58183,0.5855 -4.13002,2.2726 -8.75,4.1603 -1.7875,0.7303 -3.25,1.6681 -3.25,2.0838 0,0.4158 -0.675,0.7559 -1.5,0.7559 -0.825,0 -1.5,0.3401 -1.5,0.7559 0,0.4157 -1.4625,1.3535 -3.25,2.0838 -1.7875,0.7304 -4.15,1.7025 -5.25,2.1603 -1.1,0.4578 -3.4625,1.4299 -5.25,2.1603 -1.7875,0.7303 -3.25,1.6681 -3.25,2.0838 0,0.4158 -1.125,0.7559 -2.5,0.7559 -1.375,0 -2.5,0.45 -2.5,1 0,0.55 -1.125,1 -2.5,1 -1.375,0 -2.5,0.3975 -2.5,0.8834 0,0.957 -3.76966,2.4175 -5.67459,2.1986 -0.64603,-0.074 -1.46009,0.3269 -1.80902,0.8915 -0.34893,0.5646 -1.73287,1.0265 -3.07541,1.0265 -1.50309,0 -2.44098,0.5763 -2.44098,1.5 0,1.1057 -1.15478,1.5 -4.39301,1.5 -2.98241,0 -4.57784,-0.4817 -4.96862,-1.5 z m 25.121,-18.3149 c 8.65735,-3.6964 17.76563,-7.9125 20.24063,-9.3691 2.475,-1.4567 9.45,-5.0149 15.5,-7.9071 17.27072,-8.2565 56.3357,-32.0107 64.5,-39.2204 0.825,-0.7285 3.68332,-2.5773 6.35183,-4.1084 2.66851,-1.5311 5.59351,-3.4359 6.5,-4.233 0.90649,-0.7971 3.84513,-3.4399 6.5303,-5.8728 2.68517,-2.4329 5.72267,-4.6902 6.75,-5.0162 1.02733,-0.3261 1.86787,-0.9368 1.86787,-1.3571 0,-0.4203 2.18504,-2.18 4.85563,-3.9105 2.6706,-1.7305 7.2831,-5.3599 10.25,-8.0654 2.96691,-2.7055 6.96937,-6.3295 8.89437,-8.0533 1.925,-1.7239 7.05053,-6.4952 11.39007,-10.603 4.33954,-4.1079 8.22193,-7.4688 8.62752,-7.4688 0.4056,0 2.86206,-2.5875 5.4588,-5.75 2.59673,-3.1625 5.53899,-6.2 6.53834,-6.75 0.99936,-0.55 5.27686,-5.05 9.50557,-10 4.2287,-4.95 8.47289,-9.45 9.43152,-10 2.3473,-1.3467 17.74698,-19.2556 19.71347,-22.9255 0.86218,-1.6091 4.39611,-6.1688 7.85321,-10.1327 3.457,-3.9639 6.8357,-8.2351 7.5082,-9.4916 0.6724,-1.2565 3.079,-4.6154 5.3479,-7.4642 2.269,-2.8489 4.9134,-6.4862 5.8765,-8.0829 2.3899,-3.962 6.0128,-9.116 9.7729,-13.9031 2.9777,-3.7909 6.3366,-8.9671 11.976,-18.4559 1.375,-2.3135 3.451,-5.4074 4.6133,-6.8752 1.1624,-1.4679 3.1273,-4.6939 4.3666,-7.1689 1.2392,-2.475 2.9882,-5.3197 3.8866,-6.3216 6.1596,-6.8689 37.3621,-66.4359 51.6715,-98.6431 2.5571,-5.7556 5.2822,-11.3682 6.0557,-12.4725 0.7735,-1.1043 1.4063,-2.7977 1.4063,-3.7632 0,-0.9654 1.0829,-4.1278 2.4065,-7.0274 8.2618,-18.09964 12.6256,-28.50009 12.6106,-30.05544 -0.01,-0.98079 1.1079,-4.00333 2.4829,-6.71676 1.375,-2.71343 2.5,-5.6414 2.5,-6.50659 0,-0.8652 0.8883,-3.31423 1.9739,-5.4423 1.9903,-3.90122 6.4526,-16.0004 7.9484,-21.55111 0.4446,-1.65 1.5173,-4.575 2.3837,-6.5 0.8664,-1.925 2.4702,-6.425 3.564,-10 1.0938,-3.575 2.4614,-7.85 3.0391,-9.5 0.5777,-1.65 2.0005,-5.7 3.1616,-9 1.1612,-3.3 2.4846,-7.575 2.9408,-9.5 0.4563,-1.925 1.5715,-5.975 2.4784,-9 0.9069,-3.025 2.0138,-6.85 2.4599,-8.5 0.4461,-1.65 1.7293,-5.925 2.8516,-9.5 1.8217,-5.80287 3.0101,-9.99669 6.2339,-22 1.7232,-6.41592 3.7474,-13.44327 5.4731,-19 0.9394,-3.025 2.3502,-8.425 3.1351,-12 0.7848,-3.575 1.8478,-8.075 2.3622,-10 0.5143,-1.925 1.4376,-5.975 2.0518,-9 0.6141,-3.025 1.9834,-8.425 3.0429,-12 1.0594,-3.575 2.347,-8.975 2.8613,-12 0.5143,-3.025 1.4373,-7.525 2.0511,-10 0.6139,-2.475 1.74,-7.65 2.5025,-11.5 0.7625,-3.85 1.8875,-9.025 2.5,-11.5 1.1418,-4.61389 3.4632,-15.9959 4.895,-24 0.4427,-2.475 1.0852,-5.175 1.4277,-6 0.3426,-0.825 1.0536,-4.65 1.58,-8.5 0.5264,-3.85 1.4692,-9.025 2.0951,-11.5 0.6259,-2.475 1.7617,-8.55 2.5239,-13.5 2.138,-13.88419 2.4735,-15.74322 3.5192,-19.5 0.5358,-1.925 1.3994,-7.325 1.9191,-12 0.5197,-4.675 1.403,-10.975 1.9629,-14 0.5599,-3.025 1.2288,-7.525 1.4864,-10 0.2577,-2.475 0.929,-7.425 1.4919,-11 0.5629,-3.575 1.7255,-11.675 2.5835,-18 0.858,-6.325 2.0114,-14.425 2.5631,-18 0.5518,-3.575 1.6772,-12.35 2.501,-19.5 0.8238,-7.15 1.9437,-16.15 2.4887,-20 0.5449,-3.85 1.6698,-13.75 2.4998,-22 0.8299,-8.25 1.9346,-18.825 2.4548,-23.5 0.5202,-4.675 1.645,-16.375 2.4995,-26 0.8545,-9.625 1.9948,-22 2.5341,-27.5 0.5393,-5.5 1.6658,-20.35 2.5034,-33 0.8376,-12.65 1.9547,-28.4 2.4825,-35 0.5277,-6.6 1.4229,-25.275 1.9893,-41.5 0.6124,-17.54236 1.5025,-30.71603 2.196,-32.5 0.6414,-1.65 1.1936,-5.84486 1.227,-9.32192 l 0.061,-6.32192 -5,-1.82406 c -2.75,-1.00324 -7.25,-2.61343 -10,-3.5782 -2.75,-0.96477 -8.375,-2.9721 -12.5,-4.46074 -4.125,-1.48864 -11.55,-3.95387 -16.5,-5.4783 -4.95,-1.52443 -12.4875,-4.0639 -16.75,-5.64327 -15.1271,-5.60501 -23.3106,-8.59243 -28,-10.22148 -2.6125,-0.90756 -6.8875,-2.39379 -9.5,-3.30273 -2.6125,-0.90894 -7.5672,-2.70894 -11.0105,-4 -3.4433,-1.29106 -7.0433,-2.34496 -8,-2.342 -0.9567,0.003 -5.1145,-1.2795 -9.2395,-2.84989 -4.125,-1.5704 -9.75,-3.64078 -12.5,-4.60085 -2.75,-0.96007 -8.375,-3.00966 -12.5,-4.55464 -4.125,-1.54498 -9.75,-3.59457 -12.5,-4.55464 -2.75,-0.96007 -8.375,-2.97747 -12.5,-4.4831 -4.125,-1.50563 -11.55,-3.97031 -16.5,-5.47707 -4.95,-1.50676 -12.375,-4.03475 -16.5,-5.61775 -4.125,-1.58301 -7.95,-2.87335 -8.5,-2.86744 -0.55,0.006 -4.375,-1.2969 -8.5,-2.89515 -19.9531,-7.73092 -29.23818,-11.10293 -37.5,-13.61869 -4.95,-1.50729 -12.375,-3.96575 -16.5,-5.46323 -4.125,-1.49749 -9.6375,-3.46526 -12.25,-4.37282 -2.6125,-0.90756 -6.8875,-2.39266 -9.5,-3.30022 -7.07566,-2.45803 -18.84461,-6.80297 -26.75,-9.87574 -3.85,-1.49647 -9.25,-3.28642 -12,-3.97767 -4.9127,-1.23487 -7.49869,-2.09646 -22.5,-7.49648 -4.125,-1.48488 -9.6375,-3.44233 -12.25,-4.34989 -2.6125,-0.90756 -6.8875,-2.39266 -9.5,-3.30022 -6.49866,-2.25758 -18.37063,-6.62491 -26.51052,-9.75239 -3.71829,-1.42862 -7.54329,-2.59508 -8.5,-2.59212 -0.95671,0.003 -5.11448,-1.2795 -9.23948,-2.84989 -6.97676,-2.65607 -10.27868,-3.8415 -22,-7.89826 -5.54609,-1.91951 -17.45345,-6.29287 -27.75,-10.19209 -4.2625,-1.614171 -9.29688,-3.243458 -11.1875,-3.620636 -1.89063,-0.377178 -5.23272,-1.448209 -7.42687,-2.380068 -4.36866,-1.855373 -5.86678,-1.521239 -26.63563,5.940704 -4.125,1.48205 -9.75,3.48015 -12.5,4.44022 -2.75,0.96007 -8.375,3.00966 -12.5,4.55464 -4.125,1.54498 -9.75,3.59457 -12.5,4.55464 -2.75,0.96007 -8.375,3.03045 -12.5,4.60085 -4.125,1.57039 -8.28277,2.85284 -9.23948,2.84989 -0.95671,-0.003 -4.55671,1.05094 -8,2.342 -3.44329,1.29106 -8.51052,3.13403 -11.26052,4.09547 -2.75,0.96145 -8.6,3.09052 -13,4.73126 -4.4,1.64075 -10.475,3.79873 -13.5,4.79553 -3.025,0.99679 -8.425,2.91772 -12,4.26874 -11.08946,4.19077 -16.31437,5.95463 -21.5,7.2581 -2.75,0.69125 -7.925,2.36865 -11.5,3.72755 -3.575,1.35891 -8.75,3.25738 -11.5,4.21882 -2.75,0.96145 -8.375,3.01217 -12.5,4.55715 -4.125,1.54498 -9.75,3.59457 -12.5,4.55464 -2.75,0.96007 -8.375,3.03045 -12.5,4.60085 -4.125,1.57039 -8.16545,2.85284 -8.97879,2.84989 -0.81333,-0.003 -4.41333,1.04816 -8,2.33582 -6.3027,2.26275 -10.74291,3.82516 -20.77121,7.30891 -2.6125,0.90756 -8.2375,2.93256 -12.5,4.5 -4.2625,1.56744 -11.2375,4.13234 -15.5,5.69978 -13.19138,4.85083 -17.6048,6.32861 -21.75,7.2827 -2.2,0.50637 -7.375,2.19114 -11.5,3.74393 -4.125,1.55279 -9.6375,3.56581 -12.25,4.47337 -2.6125,0.90756 -6.8875,2.39379 -9.5,3.30273 -2.6125,0.90894 -7.675,2.76832 -11.25,4.13196 -14.30425,5.45618 -28.69486,10.45023 -32.1687,11.16367 -2.01778,0.41441 -6.06778,1.67587 -9,2.80325 -7.24399,2.78517 -20.2996,7.58987 -26.0813,9.59839 -2.6125,0.90756 -6.8875,2.39266 -9.5,3.30022 -2.6125,0.90756 -8.125,2.86501 -12.25,4.34989 -14.9453,5.37986 -17.58287,6.26081 -22.5,7.51499 -2.75,0.70143 -7.60033,2.4475 -10.77851,3.88017 C 270.5433,259.82782 267.3427,261 266.60902,261 c -0.73367,0 -4.60773,1.35 -8.60902,3 -4.00129,1.65 -8.13754,3 -9.19165,3 -1.81978,0 -1.88904,0.66924 -1.3713,13.25 0.65405,15.89288 2.17605,44.47936 3.50067,65.75 0.53089,8.525 1.41591,24.5 1.96671,35.5 0.5508,11 1.27165,22.025 1.60189,24.5 0.33024,2.475 1.01233,9.675 1.51575,16 2.13773,26.85837 4.02273,48.02608 4.9423,55.5 0.54136,4.4 1.65934,15.2 2.48439,24 0.82505,8.8 1.94909,19.375 2.49788,23.5 0.54878,4.125 1.66662,13.35 2.48408,20.5 1.41356,12.36382 3.49385,28.26657 5.55956,42.5 0.51884,3.575 1.61603,11.225 2.43818,17 0.82216,5.775 1.98004,12.975 2.57307,16 0.59303,3.025 1.50345,9.325 2.02316,14 0.5197,4.675 1.3833,10.075 1.91912,12 1.09091,3.91925 1.6911,7.30966 3.09795,17.5 0.53152,3.85 1.41456,8.03367 1.96232,9.29705 0.54776,1.26338 0.99592,3.48143 0.99592,4.92901 0,1.44757 0.42571,4.01389 0.94603,5.70294 0.52031,1.68905 1.38781,5.996 1.92778,9.571 0.53997,3.575 1.49595,8.525 2.12439,11 0.62845,2.475 1.76038,8.1 2.5154,12.5 0.75503,4.4 1.83248,9.8 2.39433,12 0.56186,2.2 1.73615,7.15 2.60952,11 0.87338,3.85 2.03972,8.8 2.59186,11 0.55214,2.2 1.43605,6.68914 1.96424,9.97588 0.91193,5.67457 2.10818,10.19515 4.05434,15.32117 0.47966,1.26338 0.87211,3.34921 0.87211,4.63517 0,1.28596 0.71004,4.75229 1.57787,7.70295 0.86783,2.95065 1.97139,6.93983 2.45236,8.86483 0.48097,1.925 1.60227,6.2 2.49178,9.5 0.88951,3.3 2.00904,7.575 2.48786,9.5 0.47881,1.925 1.57802,5.975 2.44269,9 0.86467,3.025 1.98907,7.075 2.49865,9 1.48294,5.60186 5.90367,20.49362 10.09317,34 2.13253,6.875 4.18038,14.07484 4.55076,15.99966 0.37039,1.92481 1.45649,5.29981 2.41355,7.5 2.01811,4.63942 3.36119,8.47917 6.12132,17.50034 1.09382,3.575 2.69762,8.075 3.56401,10 0.86639,1.925 1.93905,4.85 2.38367,6.5 1.49577,5.55071 5.95813,17.64989 7.94839,21.55111 1.08565,2.12807 1.97392,4.41881 1.97392,5.09053 0,2.04998 7.87887,21.45287 22.65254,55.78526 2.9411,6.8348 5.34746,12.8744 5.34746,13.4213 0,0.5469 0.62651,1.7048 1.39224,2.5731 0.76574,0.8683 3.0587,5.4037 5.09547,10.0787 2.03678,4.675 4.1042,9.175 4.59427,10 0.77607,1.3065 3.3431,6.2551 12.19036,23.5 1.12868,2.2 2.44004,4.675 2.91415,5.5 0.4741,0.825 1.96911,3.75 3.32224,6.5 1.35313,2.75 4.6787,8.825 7.39017,13.5 2.71147,4.675 7.03873,12.292 9.61613,16.9266 2.5774,4.6346 5.48029,9.5846 6.45087,11 5.13013,7.4812 9.91004,14.8543 13.0341,20.1054 1.925,3.2357 5.65196,8.9396 8.28213,12.6755 2.63017,3.7359 5.86074,8.3675 7.17905,10.2925 1.3183,1.925 3.48713,4.85 4.8196,6.5 1.33248,1.65 3.01532,4.125 3.73966,5.5 0.72435,1.375 3.94107,5.5491 7.14827,9.2757 3.20721,3.7266 5.83129,7.2165 5.83129,7.7553 0,0.5388 4.36704,6.0398 9.70453,12.2243 5.3375,6.1846 15.32449,17.7697 22.19331,25.7447 6.86883,7.975 12.94682,14.6817 13.50664,14.9037 0.55982,0.2221 2.61033,2.2326 4.55669,4.4679 3.29011,3.7786 6.92935,7.4012 10.8946,10.8448 0.90433,0.7854 3.12041,2.9705 4.92464,4.8558 1.80422,1.8853 4.89333,4.7778 6.86468,6.4278 1.97135,1.65 5.22017,4.6109 7.21959,6.5798 7.72546,7.6076 43.45409,36.9202 45.00136,36.9202 0.42556,0 2.21551,1.2375 3.97768,2.75 1.76216,1.5125 5.33071,4.2122 7.9301,5.9993 2.5994,1.7871 7.65118,5.2527 11.22618,7.7013 10.73789,7.3546 36.89255,22.9693 46.5,27.7613 4.95,2.4689 17.1,8.5988 27,13.6219 9.9,5.0232 18.51782,9.1405 19.1507,9.1496 0.63289,0.01 3.55789,1.1528 6.5,2.5414 6.86582,3.2406 8.04855,3.0119 27.60867,-5.3397 z"
         id="path16" />
    </g>
  </g>
</svg>
