<?xml version="1.0" encoding="UTF-8" standalone="no"?>
<svg
   xmlns:dc="http://purl.org/dc/elements/1.1/"
   xmlns:cc="http://creativecommons.org/ns#"
   xmlns:rdf="http://www.w3.org/1999/02/22-rdf-syntax-ns#"
   xmlns:svg="http://www.w3.org/2000/svg"
   xmlns="http://www.w3.org/2000/svg"
   xmlns:sodipodi="http://sodipodi.sourceforge.net/DTD/sodipodi-0.dtd"
   xmlns:inkscape="http://www.inkscape.org/namespaces/inkscape"
   version="1.1"
   id="svg2"
   width="1043.5688"
   height="1045.5787"
   viewBox="0 0 1043.5688 1045.5787"
   sodipodi:docname="Valtheim.svg"
   inkscape:version="1.0.1 (3bc2e813f5, 2020-09-07)">
  <metadata
     id="metadata8">
    <rdf:RDF>
      <cc:Work
         rdf:about="">
        <dc:format>image/svg+xml</dc:format>
        <dc:type
           rdf:resource="http://purl.org/dc/dcmitype/StillImage" />
        <dc:title></dc:title>
      </cc:Work>
    </rdf:RDF>
  </metadata>
  <defs
     id="defs6" />
  <sodipodi:namedview
     pagecolor="#ffffff"
     bordercolor="#666666"
     borderopacity="1"
     objecttolerance="10"
     gridtolerance="10"
     guidetolerance="10"
     inkscape:pageopacity="0"
     inkscape:pageshadow="2"
     inkscape:window-width="1920"
     inkscape:window-height="1057"
     id="namedview4"
     showgrid="false"
     inkscape:pagecheckerboard="true"
     inkscape:zoom="0.49"
     inkscape:cx="519.69026"
     inkscape:cy="511.8887"
     inkscape:window-x="-8"
     inkscape:window-y="-8"
     inkscape:window-maximized="1"
     inkscape:current-layer="g10" />
  <g
     inkscape:groupmode="layer"
     inkscape:label="Image"
     id="g10"
     transform="translate(-230.30974,-238.1113)">
    <circle
       style="fill:#ffffff;fill-rule:evenodd"
       id="path42"
       cx="753.06122"
       cy="759.18365"
       r="508.16327" />
    <g
       id="g34">
      <path
         style="fill:#c76130"
         d="m 746.56183,892.25 c -3.24229,-13.0625 -6.09757,-24.5375 -6.34508,-25.5 C 739.80501,865.14882 740.89213,865 753,865 c 12.10787,0 13.19499,0.14882 12.78325,1.75 -0.24751,0.9625 -3.10279,12.4375 -6.34508,25.5 C 756.19588,905.3125 753.29871,916 753,916 c -0.29871,0 -3.19588,-10.6875 -6.43817,-23.75 z m -39.57794,15.7 c -0.0375,-3.3756 3.19927,-49.55806 3.55206,-50.68104 0.28475,-0.90641 1.63929,-0.69412 5.13675,0.80507 2.61252,1.11985 7.86901,2.90041 11.68109,3.95679 3.81209,1.05639 7.14169,2.13133 7.39913,2.38877 0.41346,0.41346 -24.7686,41.61638 -26.91015,44.03041 -0.50665,0.57111 -0.84919,0.3717 -0.85888,-0.5 z m 77.58555,-21.01944 c -7.57642,-12.13191 -13.56808,-22.26525 -13.3148,-22.51853 0.25328,-0.25328 3.57948,-1.32482 7.39157,-2.38121 3.81208,-1.05638 9.06857,-2.83694 11.68109,-3.95679 3.49813,-1.49947 4.8524,-1.71165 5.13845,-0.80507 0.61316,1.94326 3.75001,50.84862 3.29094,51.30769 -0.22656,0.22656 -6.61082,-9.51418 -14.18725,-21.64609 z M 666,887.30696 c 0,-1.03684 18.71269,-47.35298 19.41557,-48.05587 0.21744,-0.21743 3.25039,1.91433 6.73989,4.73726 3.4895,2.82294 8.03204,6.08825 10.09454,7.25627 2.0625,1.16801 3.75,2.43672 3.75,2.81934 0,0.38263 -8.2125,7.57289 -18.25,15.97836 -10.0375,8.40547 -19.0375,15.95429 -20,16.77516 -0.9625,0.82087 -1.75,1.04114 -1.75,0.48948 z M 819.75,871.37364 C 808.8875,862.2547 800,854.47301 800,854.08101 c 0,-0.392 1.6875,-1.66838 3.75,-2.83639 2.0625,-1.16802 6.60504,-4.43333 10.09454,-7.25627 3.4895,-2.82293 6.52245,-4.95469 6.73989,-4.73726 0.89208,0.89209 19.43051,47.20227 19.18355,47.92175 -0.14739,0.42938 -9.15548,-6.68026 -20.01798,-15.7992 z M 736.63282,856.5158 C 707.73721,850.48643 685.0837,833.24565 672.51941,807.72137 665.46432,793.38899 663.64944,785.26165 663.64944,768 c 0,-17.26165 1.81488,-25.38899 8.86997,-39.72137 11.42453,-23.20886 32.66733,-40.60052 57.98059,-47.4692 11.40736,-3.09536 33.49089,-3.0697 45,0.0523 31.77529,8.61941 55.99585,32.83793 64.64375,64.63829 1.76622,6.49481 2.17554,10.72815 2.17554,22.5 0,11.77185 -0.40932,16.00519 -2.17554,22.5 -8.65558,31.82861 -33.21716,56.35658 -64.64375,64.55527 -10.47851,2.73368 -29.3645,3.44337 -38.86718,1.46053 z M 634.18252,853.25 c 0.82087,-0.9625 8.36969,-9.9625 16.77516,-20 8.40547,-10.0375 15.59573,-18.25 15.97836,-18.25 0.38262,0 1.65133,1.6875 2.81934,3.75 1.16802,2.0625 4.43333,6.60504 7.25627,10.09454 2.82293,3.4895 4.95469,6.52245 4.73726,6.73989 C 681.04602,836.28731 634.72988,855 633.69304,855 c -0.55166,0 -0.33139,-0.7875 0.48948,-1.75 z m 213.39397,-7.83427 c -12.60794,-5.18618 -23.10289,-9.6088 -23.32213,-9.82804 -0.21923,-0.21923 1.91106,-3.25365 4.73399,-6.74315 2.82294,-3.4895 6.08825,-8.03204 7.25627,-10.09454 1.16801,-2.0625 2.43672,-3.75 2.81934,-3.75 0.38263,0 7.57289,8.2125 15.97836,18.25 8.40547,10.0375 15.95429,19.0375 16.77516,20 2.51663,2.95083 0.005,2.13899 -24.24099,-7.83427 z M 612.55,813.15723 c 2.41403,-2.14155 43.61695,-27.32361 44.03041,-26.91015 0.25744,0.25744 1.33238,3.58704 2.38877,7.39913 1.05638,3.81208 2.83694,9.06857 3.95679,11.68109 1.49919,3.49746 1.71148,4.852 0.80507,5.13675 -1.12298,0.35279 -47.30544,3.58955 -50.68104,3.55206 -0.8717,-0.01 -1.07111,-0.35223 -0.5,-0.85888 z m 250.67841,-1.03976 c -12.45731,-0.94724 -21.2669,-2.03184 -21.26028,-2.61747 0.006,-0.55 1.12583,-4.15 2.48801,-8 1.36218,-3.85 2.95915,-8.9125 3.54882,-11.25 0.58967,-2.3375 1.33391,-4.25 1.65385,-4.25 0.64716,0 42.28792,25.82364 43.79119,27.15723 1.25193,1.11062 -4.58034,0.90997 -30.22159,-1.03976 z M 629.25,774.67373 C 615.9125,771.30082 605,768.2972 605,767.99903 c 0,-0.29817 10.6875,-3.19491 23.75,-6.4372 13.0625,-3.24229 24.5375,-6.09757 25.5,-6.34508 1.60059,-0.41159 1.75,0.66982 1.75,12.66662 0,9.87829 -0.30861,13.09272 -1.25,13.01978 -0.6875,-0.0533 -12.1625,-2.85651 -25.5,-6.22942 z M 850,768 c 0,-12.10787 0.14882,-13.19499 1.75,-12.78325 0.9625,0.24751 12.4375,3.10279 25.5,6.34508 13.0625,3.24229 23.75,6.13946 23.75,6.43817 0,0.29871 -10.6875,3.19588 -23.75,6.43817 -13.0625,3.24229 -24.5375,6.09757 -25.5,6.34508 C 850.14882,781.19499 850,780.10787 850,768 Z M 633.75683,736.2891 c -11.95875,-7.49985 -21.55831,-13.82095 -21.33236,-14.0469 0.44352,-0.44352 49.32034,2.66882 51.2285,3.26209 0.77919,0.24226 0.21678,2.89316 -1.73483,8.17709 -1.58829,4.30024 -3.36197,9.73112 -3.94152,12.06862 -0.57954,2.3375 -1.37386,4.23317 -1.76516,4.2126 -0.3913,-0.0206 -10.49589,-6.17365 -22.45463,-13.6735 z m 214.26655,9.4609 c -0.57955,-2.3375 -2.35323,-7.76838 -3.94152,-12.06862 -1.95161,-5.28393 -2.51402,-7.93483 -1.73483,-8.17709 1.91117,-0.59421 50.78534,-3.70525 51.22962,-3.26098 C 893.98839,722.65505 850.70314,750 849.63964,750 c -0.3094,0 -1.03672,-1.9125 -1.61626,-4.25 z m -198.39702,-44.5 c -9.11894,-10.8625 -16.22858,-19.87059 -15.7992,-20.01798 0.71948,-0.24696 47.02966,18.29147 47.92175,19.18355 0.21743,0.21744 -1.91433,3.25039 -4.73726,6.73989 -2.82294,3.4895 -6.08825,8.03204 -7.25627,10.09454 -1.16801,2.0625 -2.44439,3.75 -2.83639,3.75 -0.392,0 -8.17369,-8.8875 -17.29263,-19.75 z m 186.61826,16 c -1.16802,-2.0625 -4.43333,-6.60504 -7.25627,-10.09454 -2.82293,-3.4895 -4.95469,-6.52245 -4.73726,-6.73989 0.89209,-0.89208 47.20227,-19.43051 47.92175,-19.18355 0.87282,0.2996 -31.9697,39.76798 -33.09183,39.76798 -0.392,0 -1.66838,-1.6875 -2.83639,-3.75 z M 675.48928,672.97363 c -5.37343,-13.21451 -9.5805,-24.21574 -9.34905,-24.44719 C 666.66878,647.99789 706,680.94765 706,681.91899 c 0,0.392 -1.6875,1.66838 -3.75,2.83639 -2.0625,1.16802 -6.56477,4.40088 -10.00504,7.18414 -3.44027,2.78326 -6.41946,5.06048 -6.62043,5.06048 -0.20096,0 -4.76183,-10.81187 -10.13525,-24.02637 z m 139.64128,20.10359 c -2.4032,-2.11062 -6.78497,-5.35394 -9.73728,-7.20736 -2.95232,-1.85342 -5.37357,-3.66095 -5.38056,-4.01673 -0.0181,-0.91978 39.33795,-33.8358 39.84705,-33.32669 0.57127,0.57126 -18.95715,48.48468 -19.73934,48.43092 -0.34124,-0.0235 -2.58668,-1.76951 -4.98987,-3.88014 z M 710.53425,678.73104 c -0.61316,-1.94326 -3.75001,-50.84862 -3.29094,-51.30769 0.22656,-0.22656 6.61082,9.51418 14.18725,21.64609 7.57642,12.13191 13.56808,22.26525 13.3148,22.51853 -0.25328,0.25328 -3.57948,1.32482 -7.39157,2.38121 -3.81208,1.05638 -9.06857,2.83694 -11.68109,3.95679 -3.49813,1.49947 -4.8524,1.71165 -5.13845,0.80507 z M 790,677.81911 c -2.475,-1.07254 -7.60159,-2.8097 -11.39243,-3.86035 -3.79083,-1.05066 -7.09965,-2.11751 -7.35293,-2.37079 -0.25328,-0.25328 5.73838,-10.38662 13.3148,-22.51853 7.57643,-12.13191 13.95818,-21.87515 14.18169,-21.65165 0.61736,0.61737 -2.91862,50.98911 -3.63041,51.7168 -0.3414,0.34902 -2.64572,-0.24294 -5.12072,-1.31548 z M 740.21675,669.25 c 0.24751,-0.9625 3.10279,-12.4375 6.34508,-25.5 C 749.80412,630.6875 752.70129,620 753,620 c 0.29871,0 3.19588,10.6875 6.43817,23.75 3.24229,13.0625 6.09757,24.5375 6.34508,25.5 0.41174,1.60118 -0.67538,1.75 -12.78325,1.75 -12.10787,0 -13.19499,-0.14882 -12.78325,-1.75 z"
         id="path40" />
      <path
         style="fill:#525252"
         d="m 735.76791,1283.2753 c 1.79735,-0.2226 4.49735,-0.218 6,0.01 1.50265,0.2281 0.0321,0.4102 -3.26791,0.4046 -3.3,-0.01 -4.52944,-0.1923 -2.73209,-0.4148 z m 29,0 c 1.79735,-0.2226 4.49735,-0.218 6,0.01 1.50265,0.2281 0.0321,0.4102 -3.26791,0.4046 -3.3,-0.01 -4.52944,-0.1923 -2.73209,-0.4148 z M 715.75,1282.3377 c 0.6875,-0.2774 1.8125,-0.2774 2.5,0 0.6875,0.2774 0.125,0.5044 -1.25,0.5044 -1.375,0 -1.9375,-0.227 -1.25,-0.5044 z m 72,0 c 0.6875,-0.2774 1.8125,-0.2774 2.5,0 0.6875,0.2774 0.125,0.5044 -1.25,0.5044 -1.375,0 -1.9375,-0.227 -1.25,-0.5044 z m -83.9375,-1.0208 c 0.72187,-0.2889 1.58438,-0.2534 1.91667,0.079 0.33229,0.3323 -0.25834,0.5687 -1.3125,0.5253 -1.16495,-0.048 -1.4019,-0.285 -0.60417,-0.6042 z m 97,0 c 0.72187,-0.2889 1.58438,-0.2534 1.91667,0.079 0.33229,0.3323 -0.25834,0.5687 -1.3125,0.5253 -1.16495,-0.048 -1.4019,-0.285 -0.60417,-0.6042 z m -115,-2 c 0.72187,-0.2889 1.58438,-0.2534 1.91667,0.079 0.33229,0.3323 -0.25834,0.5687 -1.3125,0.5253 -1.16495,-0.048 -1.4019,-0.285 -0.60417,-0.6042 z m 133,0 c 0.72187,-0.2889 1.58438,-0.2534 1.91667,0.079 0.33229,0.3323 -0.25834,0.5687 -1.3125,0.5253 -1.16495,-0.048 -1.4019,-0.285 -0.60417,-0.6042 z M 712.5,1257.4775 c -63.69566,-5.8501 -120.99519,-21.6749 -177,-48.8831 -23.01618,-11.1817 -36.09775,-18.6152 -56.5,-32.1058 C 421.80325,1138.6684 375.3316,1092.1968 337.51137,1035 324.02079,1014.5977 316.58726,1001.5162 305.40556,978.5 248.52787,861.42415 239.4053,728.73467 279.82145,606.37441 300.7723,542.94553 332.56252,486.70577 376.49417,435.35168 411.02762,394.98366 458.12401,356.13912 505.5,328.94921 c 44.49366,-25.53568 100.36801,-46.44751 150.6254,-56.37384 27.79246,-5.48929 64.21977,-9.5608 85.6246,-9.57035 L 753,263 v 5 5 l -9.75,0.005 c -12.30652,0.006 -39.21225,2.35977 -57.46585,5.02651 C 545.09696,298.58514 423.8344,375.54954 345.51137,494 321.48385,530.33761 303.88421,566.79928 289.82145,609.37441 253.68775,718.76952 257.33604,832.81725 300.46186,942 c 43.71126,110.6649 131.87285,205.2724 240.03814,257.5885 45.71849,22.1125 94.16658,36.912 145.28415,44.38 18.2536,2.6667 45.15933,5.0201 57.46585,5.0265 l 9.75,0.01 v 5 5 l -13.25,-0.1184 c -7.2875,-0.065 -19.55,-0.6969 -27.25,-1.4041 z m 6,-20 c -61.78296,-5.6745 -120.2224,-21.5161 -173,-46.8966 -55.7877,-26.8279 -112.31333,-70.3981 -153,-117.9328 C 356.20394,1030.2429 329.08377,986.0571 310.47009,939 291.86516,891.96504 281.04249,845.88344 276.49569,794.34125 269.81537,718.61366 287.38615,628.429 323.41905,553.5 345.1207,508.37228 378.95603,461.04445 416.00024,424.00024 453.04445,386.95603 500.37228,353.1207 545.5,331.41905 c 44.14503,-21.22908 93.11838,-36.05858 143.28415,-43.38752 17.39301,-2.54102 44.99251,-5.01984 55.96585,-5.02651 L 753,283 V 450.52851 618.05702 L 746.5,644 c -3.575,14.26864 -6.5,26.18081 -6.5,26.47149 0,0.29068 2.925,0.52851 6.5,0.52851 h 6.5 v 3.35326 3.35327 l -7.25,0.61812 c -31.40467,2.67753 -59.33865,21.73259 -73.23059,49.95398 -7.05509,14.33238 -8.86997,22.45972 -8.86997,39.72137 0,17.26165 1.81488,25.38899 8.86997,39.72137 13.89194,28.22139 41.82592,47.27645 73.23059,49.95398 l 7.25,0.61812 V 861.64674 865 h -6.5 c -3.575,0 -6.5,0.23783 -6.5,0.52851 0,0.29068 2.925,12.20285 6.5,26.47149 l 6.5,25.94298 V 1078.4715 1239 l -10.25,-0.1184 c -5.6375,-0.065 -16.55,-0.6969 -24.25,-1.4041 z m 3.45326,-351.28367 c 7.29725,-11.7184 13.0571,-21.51681 12.79966,-21.77424 -0.25744,-0.25744 -3.58704,-1.33238 -7.39913,-2.38877 -3.81208,-1.05638 -9.06857,-2.83694 -11.68109,-3.95679 -3.49746,-1.49919 -4.852,-1.71148 -5.13675,-0.80507 -0.35279,1.12298 -3.58955,47.30544 -3.55206,50.68104 0.024,2.16446 0.54567,1.40634 14.96937,-21.75617 z M 687.75,870.04232 c 10.0375,-8.40547 18.25,-15.59573 18.25,-15.97836 0,-0.38262 -1.6875,-1.65133 -3.75,-2.81934 -2.0625,-1.16802 -6.60504,-4.43333 -10.09454,-7.25627 -3.4895,-2.82293 -6.52245,-4.95469 -6.73989,-4.73726 C 684.71269,839.95398 666,886.27012 666,887.30696 c 0,0.55166 0.7875,0.33139 1.75,-0.48948 0.9625,-0.82087 9.9625,-8.36969 20,-16.77516 z m -29.72519,-24.55243 c 12.83081,-5.23057 23.50666,-9.68802 23.7241,-9.90546 0.21743,-0.21744 -1.91433,-3.25039 -4.73726,-6.73989 -2.82294,-3.4895 -6.08825,-8.03204 -7.25627,-10.09454 -1.16801,-2.0625 -2.43672,-3.75 -2.81934,-3.75 -0.38263,0 -7.57289,8.2125 -15.97836,18.25 -8.40547,10.0375 -15.95429,19.0375 -16.77516,20 -0.82087,0.9625 -1.04114,1.75 -0.48948,1.75 0.55166,0 11.50096,-4.27955 24.33177,-9.51011 z M 638.5,812.4415 c 13.2,-0.8749 24.55397,-1.76475 25.23104,-1.97745 0.90641,-0.28475 0.69412,-1.63929 -0.80507,-5.13675 -1.11985,-2.61252 -2.90041,-7.86901 -3.95679,-11.68109 -1.05639,-3.81209 -2.13133,-7.14169 -2.38877,-7.39913 -0.41346,-0.41346 -41.61638,24.7686 -44.03041,26.91015 -1.25196,1.11065 -1.85773,1.12736 25.95,-0.71573 z M 656,767.88337 c 0,-11.9968 -0.14941,-13.07821 -1.75,-12.66662 -0.9625,0.24751 -12.4375,3.10279 -25.5,6.34508 -13.0625,3.24229 -23.75,6.13903 -23.75,6.4372 0,0.50369 46.98091,12.68956 49.75,12.90412 0.94139,0.0729 1.25,-3.14149 1.25,-13.01978 z M 657.97662,745.75 c 0.57955,-2.3375 2.35323,-7.76838 3.94152,-12.06862 1.95161,-5.28393 2.51402,-7.93483 1.73483,-8.17709 -1.90816,-0.59327 -50.78498,-3.70561 -51.2285,-3.26209 -0.43388,0.43388 42.56639,27.65623 43.78699,27.7204 0.3913,0.0206 1.18562,-1.8751 1.76516,-4.2126 z m 11.77876,-28.5 c 1.16802,-2.0625 4.43333,-6.60504 7.25627,-10.09454 2.82293,-3.4895 4.95469,-6.52245 4.73726,-6.73989 -0.89209,-0.89208 -47.20227,-19.43051 -47.92175,-19.18355 -0.87282,0.2996 31.9697,39.76798 33.09183,39.76798 0.392,0 1.66838,-1.6875 2.83639,-3.75 z m 22.48958,-25.31048 c 3.44027,-2.78326 7.94254,-6.01612 10.00504,-7.18414 2.0625,-1.16801 3.75,-2.44439 3.75,-2.83639 0,-0.97134 -39.33122,-33.9211 -39.85977,-33.39255 -0.44552,0.44552 18.85971,48.47356 19.4843,48.47356 0.20097,0 3.18016,-2.27722 6.62043,-5.06048 z m 35.10883,-17.97034 c 3.81209,-1.05639 7.13829,-2.12793 7.39157,-2.38121 0.25328,-0.25328 -5.73838,-10.38662 -13.3148,-22.51853 -7.57643,-12.13191 -13.96069,-21.87265 -14.18725,-21.64609 -0.45907,0.45907 2.67778,49.36443 3.29094,51.30769 0.28605,0.90658 1.64032,0.6944 5.13845,-0.80507 2.61252,-1.11985 7.86901,-2.90041 11.68109,-3.95679 z M 412.87244,1158.25 c -1.24387,-1.5861 -1.2085,-1.6214 0.37756,-0.3776 0.9625,0.7549 1.75,1.5424 1.75,1.75 0,0.8231 -0.82119,0.2933 -2.12756,-1.3724 z M 1091,1159.6224 c 0,-0.2076 0.7875,-0.9951 1.75,-1.75 1.5861,-1.2438 1.6214,-1.2085 0.3776,0.3776 -1.3064,1.6657 -2.1276,2.1955 -2.1276,1.3724 z M 404.87244,1151.25 c -1.24387,-1.5861 -1.2085,-1.6214 0.37756,-0.3776 1.66575,1.3064 2.19548,2.1276 1.37244,2.1276 -0.20765,0 -0.99515,-0.7875 -1.75,-1.75 z M 1099,1152.6224 c 0,-0.2076 0.7875,-0.9951 1.75,-1.75 1.5861,-1.2438 1.6214,-1.2085 0.3776,0.3776 -1.3064,1.6657 -2.1276,2.1955 -2.1276,1.3724 z M 392,1139.5 c -2.42903,-2.475 -4.19142,-4.5 -3.91642,-4.5 0.275,0 2.48739,2.025 4.91642,4.5 2.42903,2.475 4.19142,4.5 3.91642,4.5 -0.275,0 -2.48739,-2.025 -4.91642,-4.5 z m 720.9582,0.25 c 4.144,-4.4152 5.0418,-5.2091 5.0418,-4.4582 0,0.1605 -2.1375,2.298 -4.75,4.75 l -4.75,4.4582 z M 374,1121.5 c -2.42903,-2.475 -4.19142,-4.5 -3.91642,-4.5 0.275,0 2.48739,2.025 4.91642,4.5 2.42903,2.475 4.19142,4.5 3.91642,4.5 -0.275,0 -2.48739,-2.025 -4.91642,-4.5 z m 756.9582,0.25 c 4.144,-4.4152 5.0418,-5.2091 5.0418,-4.4582 0,0.1605 -2.1375,2.298 -4.75,4.75 l -4.75,4.4582 z m -769.08576,-13.5 c -1.24387,-1.5861 -1.2085,-1.6214 0.37756,-0.3776 0.9625,0.7549 1.75,1.5424 1.75,1.75 0,0.8231 -0.82119,0.2933 -2.12756,-1.3724 z M 1142,1109.6224 c 0,-0.2076 0.7875,-0.9951 1.75,-1.75 1.5861,-1.2438 1.6214,-1.2085 0.3776,0.3776 -1.3064,1.6657 -2.1276,2.1955 -2.1276,1.3724 z M 354.87244,1100.25 c -1.24387,-1.5861 -1.2085,-1.6214 0.37756,-0.3776 1.66575,1.3064 2.19548,2.1276 1.37244,2.1276 -0.20765,0 -0.99515,-0.7875 -1.75,-1.75 z M 1149,1101.6224 c 0,-0.2076 0.7875,-0.9951 1.75,-1.75 1.5861,-1.2438 1.6214,-1.2085 0.3776,0.3776 -1.3064,1.6657 -2.1276,2.1955 -2.1276,1.3724 z M 234.07895,827.41667 c 0.048,-1.16495 0.28494,-1.4019 0.60416,-0.60417 0.28887,0.72187 0.25335,1.58438 -0.0789,1.91667 -0.3323,0.33229 -0.56864,-0.25834 -0.52522,-1.3125 z m 1036.99995,0 c 0.048,-1.16495 0.285,-1.4019 0.6042,-0.60417 0.2889,0.72187 0.2534,1.58438 -0.079,1.91667 -0.3323,0.33229 -0.5687,-0.25834 -0.5253,-1.3125 z m -1038.99995,-18 c 0.048,-1.16495 0.28494,-1.4019 0.60416,-0.60417 0.28887,0.72187 0.25335,1.58438 -0.0789,1.91667 -0.3323,0.33229 -0.56864,-0.25834 -0.52522,-1.3125 z m 1040.99995,0 c 0.048,-1.16495 0.285,-1.4019 0.6042,-0.60417 0.2889,0.72187 0.2534,1.58438 -0.079,1.91667 -0.3323,0.33229 -0.5687,-0.25834 -0.5253,-1.3125 z M 231.15789,797 c 0,-1.375 0.22698,-1.9375 0.50439,-1.25 0.27741,0.6875 0.27741,1.8125 0,2.5 -0.27741,0.6875 -0.50439,0.125 -0.50439,-1.25 z m -0.84802,-21.5 c 0.006,-3.3 0.1923,-4.52944 0.41486,-2.73209 0.22256,1.79735 0.21797,4.49735 -0.0102,6 -0.22818,1.50265 -0.41027,0.0321 -0.40466,-3.26791 z m 0,-29 c 0.006,-3.3 0.1923,-4.52944 0.41486,-2.73209 0.22256,1.79735 0.21797,4.49735 -0.0102,6 -0.22818,1.50265 -0.41027,0.0321 -0.40466,-3.26791 z m 0.84802,-21.5 c 0,-1.375 0.22698,-1.9375 0.50439,-1.25 0.27741,0.6875 0.27741,1.8125 0,2.5 -0.27741,0.6875 -0.50439,0.125 -0.50439,-1.25 z m 0.92106,-12.58333 c 0.048,-1.16495 0.28494,-1.4019 0.60416,-0.60417 0.28887,0.72187 0.25335,1.58438 -0.0789,1.91667 -0.3323,0.33229 -0.56864,-0.25834 -0.52522,-1.3125 z m 1040.99995,0 c 0.048,-1.16495 0.285,-1.4019 0.6042,-0.60417 0.2889,0.72187 0.2534,1.58438 -0.079,1.91667 -0.3323,0.33229 -0.5687,-0.25834 -0.5253,-1.3125 z m -1038.99995,-18 c 0.048,-1.16495 0.28494,-1.4019 0.60416,-0.60417 0.28887,0.72187 0.25335,1.58438 -0.0789,1.91667 -0.3323,0.33229 -0.56864,-0.25834 -0.52522,-1.3125 z m 1036.99995,0 c 0.048,-1.16495 0.285,-1.4019 0.6042,-0.60417 0.2889,0.72187 0.2534,1.58438 -0.079,1.91667 -0.3323,0.33229 -0.5687,-0.25834 -0.5253,-1.3125 z M 354,422.62244 c 0,-0.20765 0.7875,-0.99515 1.75,-1.75 1.58606,-1.24387 1.62143,-1.2085 0.37756,0.37756 C 354.82119,422.91575 354,423.44548 354,422.62244 Z M 1149.8724,421.25 c -1.2438,-1.58606 -1.2085,-1.62143 0.3776,-0.37756 1.6657,1.30637 2.1955,2.12756 1.3724,2.12756 -0.2076,0 -0.9951,-0.7875 -1.75,-1.75 z M 361,414.62244 c 0,-0.20765 0.7875,-0.99515 1.75,-1.75 1.58606,-1.24387 1.62143,-1.2085 0.37756,0.37756 C 361.82119,414.91575 361,415.44548 361,414.62244 Z M 1142.8724,413.25 c -1.2438,-1.58606 -1.2085,-1.62143 0.3776,-0.37756 1.6657,1.30637 2.1955,2.12756 1.3724,2.12756 -0.2076,0 -0.9951,-0.7875 -1.75,-1.75 z M 373.95821,400.75 C 378.10217,396.33481 379,395.54091 379,396.29179 c 0,0.16049 -2.1375,2.29799 -4.75,4.75 L 369.5,405.5 Z M 1131,400.5 c -2.429,-2.475 -4.1914,-4.5 -3.9164,-4.5 0.275,0 2.4874,2.025 4.9164,4.5 2.429,2.475 4.1914,4.5 3.9164,4.5 -0.275,0 -2.4874,-2.025 -4.9164,-4.5 z M 391.95821,382.75 C 396.10217,378.33481 397,377.54091 397,378.29179 c 0,0.16049 -2.1375,2.29799 -4.75,4.75 L 387.5,387.5 Z M 1113,382.5 c -2.429,-2.475 -4.1914,-4.5 -3.9164,-4.5 0.275,0 2.4874,2.025 4.9164,4.5 2.429,2.475 4.1914,4.5 3.9164,4.5 -0.275,0 -2.4874,-2.025 -4.9164,-4.5 z M 404,371.62244 c 0,-0.20765 0.7875,-0.99515 1.75,-1.75 1.58606,-1.24387 1.62143,-1.2085 0.37756,0.37756 C 404.82119,371.91575 404,372.44548 404,371.62244 Z M 1099.8724,370.25 c -1.2438,-1.58606 -1.2085,-1.62143 0.3776,-0.37756 1.6657,1.30637 2.1955,2.12756 1.3724,2.12756 -0.2076,0 -0.9951,-0.7875 -1.75,-1.75 z M 412,364.62244 c 0,-0.20765 0.7875,-0.99515 1.75,-1.75 1.58606,-1.24387 1.62143,-1.2085 0.37756,0.37756 C 412.82119,364.91575 412,365.44548 412,364.62244 Z M 1091.8724,363.25 c -1.2438,-1.58606 -1.2085,-1.62143 0.3776,-0.37756 1.6657,1.30637 2.1955,2.12756 1.3724,2.12756 -0.2076,0 -0.9951,-0.7875 -1.75,-1.75 z M 685.8125,242.31689 c 0.72187,-0.28887 1.58438,-0.25335 1.91667,0.0789 0.33229,0.33229 -0.25834,0.56864 -1.3125,0.52522 -1.16495,-0.048 -1.4019,-0.28494 -0.60417,-0.60416 z m 133,0 c 0.72187,-0.28887 1.58438,-0.25335 1.91667,0.0789 0.33229,0.33229 -0.25834,0.56864 -1.3125,0.52522 -1.16495,-0.048 -1.4019,-0.28494 -0.60417,-0.60416 z m -115,-2 c 0.72187,-0.28887 1.58438,-0.25335 1.91667,0.0789 0.33229,0.33229 -0.25834,0.56864 -1.3125,0.52522 -1.16495,-0.048 -1.4019,-0.28494 -0.60417,-0.60416 z m 97,0 c 0.72187,-0.28887 1.58438,-0.25335 1.91667,0.0789 0.33229,0.33229 -0.25834,0.56864 -1.3125,0.52522 -1.16495,-0.048 -1.4019,-0.28494 -0.60417,-0.60416 z M 715.75,239.33772 c 0.6875,-0.27741 1.8125,-0.27741 2.5,0 0.6875,0.27741 0.125,0.50439 -1.25,0.50439 -1.375,0 -1.9375,-0.22698 -1.25,-0.50439 z m 72,0 c 0.6875,-0.27741 1.8125,-0.27741 2.5,0 0.6875,0.27741 0.125,0.50439 -1.25,0.50439 -1.375,0 -1.9375,-0.22698 -1.25,-0.50439 z m -51.98209,-1.06245 c 1.79735,-0.22256 4.49735,-0.21797 6,0.0102 1.50265,0.22818 0.0321,0.41027 -3.26791,0.40466 -3.3,-0.006 -4.52944,-0.1923 -2.73209,-0.41486 z m 29,0 c 1.79735,-0.22256 4.49735,-0.21797 6,0.0102 1.50265,0.22818 0.0321,0.41027 -3.26791,0.40466 -3.3,-0.006 -4.52944,-0.1923 -2.73209,-0.41486 z"
         id="path38" />
      <path
         style="fill:#000000"
         d="M 736,1283.3724 C 659.95219,1280.5213 586.70473,1261.9319 519.88737,1228.5252 497.34163,1217.253 484.82015,1209.9714 463,1195.4436 404.87623,1156.7449 357.25507,1109.1238 318.55637,1051 304.02856,1029.1799 296.74697,1016.6584 285.47478,994.11263 255.57477,934.30898 237.98158,871.04209 231.91326,801.5 c -1.46191,-16.75326 -1.46191,-64.24674 0,-81 6.06832,-69.54209 23.66151,-132.80898 53.56152,-192.61263 C 296.74697,505.34163 304.02856,492.82015 318.55637,471 357.25507,412.87623 404.87623,365.25507 463,326.55637 c 21.82015,-14.52781 34.34163,-21.8094 56.88737,-33.08159 59.80365,-29.90001 123.07054,-47.4932 192.61263,-53.56152 16.75326,-1.46191 64.24674,-1.46191 81,0 69.54209,6.06832 132.80898,23.66151 192.61263,53.56152 22.54577,11.27219 35.06727,18.55378 56.88737,33.08159 58.1238,38.6987 105.7449,86.31986 144.4436,144.44363 14.5278,21.82015 21.8094,34.34163 33.0816,56.88737 25.4887,50.98043 42.2892,105.53069 50.6977,164.61263 2.1374,15.01828 2.2771,19.22128 2.2771,68.5 0,49.27872 -0.1397,53.48172 -2.2771,68.5 -14.767,103.75912 -56.0855,195.4189 -123.4432,273.8429 -20.1918,23.509 -48.5485,50.3275 -75.2797,71.196 -13.2521,10.3456 -43.8811,30.8653 -58.8874,39.4513 -67.02098,38.3463 -143.68699,62.0599 -219.6126,67.9283 -14.60847,1.1291 -45.80465,1.9111 -58,1.4539 z m 56.34125,-25.8681 c 64.29046,-5.6714 121.46754,-21.3682 178.15875,-48.9099 23.01618,-11.1817 36.0977,-18.6152 56.5,-32.1058 65.2071,-43.1169 119.5093,-100.8334 158.0508,-167.9886 26.5342,-46.23346 47.8063,-104.09186 57.4367,-156.22268 C 1248.4963,819.75049 1249,812.69063 1249,761 c 0,-51.69063 -0.5037,-58.75049 -6.5125,-91.27732 -9.6304,-52.13082 -30.9025,-109.98922 -57.4367,-156.22268 -27.1899,-47.37599 -66.0345,-94.47238 -106.4025,-129.00583 -51.3541,-43.93165 -107.59383,-75.72187 -171.02271,-96.67272 -100.04996,-33.04695 -209.20122,-33.04695 -309.25118,0 -63.42888,20.95085 -119.66864,52.74107 -171.02273,96.67272 -33.2686,28.46015 -64.26202,63.82296 -89.84031,102.50583 -13.49058,20.40225 -20.92411,33.48382 -32.10581,56.5 -56.87769,117.07585 -66.00026,249.76533 -25.58411,372.12559 20.95085,63.42888 52.74107,119.66861 96.67272,171.02271 28.46015,33.2686 63.82296,64.262 102.50583,89.8403 20.40225,13.4906 33.48382,20.9241 56.5,32.1058 56.00481,27.2082 113.30434,43.033 177,48.8831 19.66562,1.8061 59.51894,1.8195 79.84125,0.027 z M 715.5,1247.4775 c -62.75235,-5.7635 -120.67654,-21.6145 -175,-47.889 C 442.93388,1152.3989 361.60108,1071.0661 314.41152,973.5 282.49536,907.51218 265.01004,832.29923 265.01004,761 c 0,-71.29923 17.48532,-146.51218 49.40148,-212.5 C 361.60108,450.93388 442.93388,369.60108 540.5,322.41152 606.48782,290.49536 681.70077,273.01004 753,273.01004 c 71.29923,0 146.51218,17.48532 212.5,49.40148 97.5661,47.18956 178.8989,128.52236 226.0885,226.08848 23.1866,47.9392 38.1421,98.26488 45.4278,152.86637 1.7273,12.94511 1.9837,20.65192 1.9837,59.63363 0,48.37481 -0.571,56.11473 -6.5125,88.27732 -9.4902,51.37204 -30.2197,108.29416 -55.4356,152.22268 -49.1212,85.574 -124.1215,155.8012 -211.5519,198.0885 -66.89626,32.3555 -142.24391,49.669 -214.5,49.2881 -11.825,-0.062 -27.8,-0.6919 -35.5,-1.3991 z m 70.84125,-9.9732 c 51.54219,-4.5468 97.62379,-15.3695 144.65875,-33.9744 47.0571,-18.6137 91.2429,-45.7338 133.6481,-82.0299 47.5347,-40.6867 91.1049,-97.2123 117.9328,-153 22.2994,-46.37068 37.2778,-97.22497 44.4354,-150.86637 C 1228.7256,804.8236 1229,796.98994 1229,761 c 0,-35.98994 -0.2744,-43.8236 -1.9837,-56.63363 -7.1576,-53.6414 -22.136,-104.49569 -44.4354,-150.86637 -26.8279,-55.7877 -70.3981,-112.31333 -117.9328,-153 C 1022.2429,364.20394 978.0571,337.08377 931,318.47009 883.96504,299.86516 837.88344,289.04249 786.34125,284.49569 710.61366,277.81537 620.429,295.38615 545.5,331.41905 489.7123,358.24702 433.18667,401.81715 392.5,449.35192 356.20394,491.75709 329.08377,535.9429 310.47009,583 c -18.60493,47.03496 -29.4276,93.11656 -33.9744,144.65875 -6.68032,75.72759 10.89046,165.91225 46.92336,240.84125 21.70165,45.1277 55.53698,92.4556 92.58119,129.4998 37.04421,37.0442 84.37204,70.8795 129.49976,92.5811 74.79901,35.9704 165.24503,53.5921 240.84125,46.9234 z"
         id="path36" />
    </g>
  </g>
</svg>
