<?xml version="1.0" encoding="UTF-8" standalone="no"?>
<svg
   xmlns:dc="http://purl.org/dc/elements/1.1/"
   xmlns:cc="http://creativecommons.org/ns#"
   xmlns:rdf="http://www.w3.org/1999/02/22-rdf-syntax-ns#"
   xmlns:svg="http://www.w3.org/2000/svg"
   xmlns="http://www.w3.org/2000/svg"
   xmlns:sodipodi="http://sodipodi.sourceforge.net/DTD/sodipodi-0.dtd"
   xmlns:inkscape="http://www.inkscape.org/namespaces/inkscape"
   version="1.1"
   id="svg2"
   width="1044.0188"
   height="1045.8049"
   viewBox="0 0 1044.0188 1045.8049"
   sodipodi:docname="West Valgr.svg"
   inkscape:version="1.0.1 (3bc2e813f5, 2020-09-07)">
  <metadata
     id="metadata8">
    <rdf:RDF>
      <cc:Work
         rdf:about="">
        <dc:format>image/svg+xml</dc:format>
        <dc:type
           rdf:resource="http://purl.org/dc/dcmitype/StillImage" />
        <dc:title></dc:title>
      </cc:Work>
    </rdf:RDF>
  </metadata>
  <defs
     id="defs6" />
  <sodipodi:namedview
     pagecolor="#ffffff"
     bordercolor="#666666"
     borderopacity="1"
     objecttolerance="10"
     gridtolerance="10"
     guidetolerance="10"
     inkscape:pageopacity="0"
     inkscape:pageshadow="2"
     inkscape:window-width="1920"
     inkscape:window-height="1057"
     id="namedview4"
     showgrid="false"
     inkscape:pagecheckerboard="true"
     inkscape:zoom="0.49"
     inkscape:cx="519.92615"
     inkscape:cy="511.87855"
     inkscape:window-x="-8"
     inkscape:window-y="-8"
     inkscape:window-maximized="1"
     inkscape:current-layer="g10" />
  <g
     inkscape:groupmode="layer"
     inkscape:label="Image"
     id="g10"
     transform="translate(-230.07385,-238.12145)">
    <circle
       style="fill:#ffffff;fill-rule:evenodd"
       id="path20"
       cx="751.02045"
       cy="759.18372"
       r="506.12244" />
    <g
       id="g14">
      <path
         style="fill:#fe4d00"
         d="m 734.8125,1283.3169 c 0.72187,-0.2889 1.58438,-0.2534 1.91667,0.079 0.33229,0.3323 -0.25834,0.5687 -1.3125,0.5253 -1.16495,-0.048 -1.4019,-0.285 -0.60417,-0.6042 z m 35,0 c 0.72187,-0.2889 1.58438,-0.2534 1.91667,0.079 0.33229,0.3323 -0.25834,0.5687 -1.3125,0.5253 -1.16495,-0.048 -1.4019,-0.285 -0.60417,-0.6042 z M 718.5,1237.4775 c -61.78296,-5.6745 -120.2224,-21.5161 -173,-46.8966 -55.7877,-26.8279 -112.31333,-70.3981 -153,-117.9328 C 356.20394,1030.2429 329.08377,986.0571 310.47009,939 291.86516,891.96504 281.04249,845.88344 276.49569,794.34125 269.81537,718.61366 287.38615,628.429 323.41905,553.5 345.1207,508.37228 378.95603,461.04445 416.00024,424.00024 453.04445,386.95603 500.37228,353.1207 545.5,331.41905 c 74.929,-36.0329 165.11366,-53.60368 240.84125,-46.92336 51.54219,4.5468 97.62379,15.36947 144.65875,33.9744 47.0571,18.61368 91.2429,45.73385 133.6481,82.02991 47.5347,40.68667 91.1049,97.2123 117.9328,153 22.2994,46.37068 37.2778,97.22497 44.4354,150.86637 C 1228.7256,717.1764 1229,725.01006 1229,761 c 0,35.98994 -0.2744,43.8236 -1.9837,56.63363 -7.1576,53.6414 -22.136,104.49569 -44.4354,150.86637 -26.8279,55.7877 -70.3981,112.3133 -117.9328,153 -50.808,43.4883 -101.71235,72.4275 -163.02251,92.6785 -59.74199,19.7331 -127.74642,28.3852 -183.12559,23.299 z m 1.26399,-297.90255 c 2.8952,-0.77072 7.2228,-2.54924 9.61689,-3.95227 5.38763,-3.15736 13.3431,-11.74125 16.63809,-17.95236 C 747.38165,915.10164 748.72311,913 749,913 c 0.27689,0 1.61835,2.10164 2.98103,4.67032 3.29499,6.21111 11.25046,14.795 16.63809,17.95236 14.42001,8.45068 35.42418,6.62621 48.28327,-4.194 2.61616,-2.20135 6.09761,-7.17351 6.09761,-8.70852 0,-0.20854 -2.61705,0.91797 -5.81567,2.50335 -12.46406,6.17776 -27.77493,2.80303 -32.93433,-7.25918 -1.50426,-2.93371 -2.25,-6.15726 -2.25,-9.72588 0,-9.2003 4.54829,-15.04136 13.89648,-17.84631 9.87483,-2.96296 17.55793,-0.46106 23.35644,7.60572 2.8572,3.97488 5.74708,13.29014 5.74708,18.52515 0,4.81474 7.61648,11.07342 17.71132,14.55391 15.98362,5.51081 37.57589,0.30573 50.35114,-12.13776 6.00068,-5.84484 12.30776,-17.3756 6.68754,-12.22633 -12.13263,11.11599 -39.2609,10.62649 -47.71746,-0.86101 -7.44458,-10.11281 1.80863,-29.05446 16.29501,-33.35645 11.05545,-3.28312 20.20891,-0.86181 38.47878,10.17853 34.34859,20.75658 69.88798,24.2843 91.50125,9.08262 1.54416,-1.08609 2.66542,-2.11682 2.49172,-2.29053 -0.1737,-0.1737 -3.01208,0.31836 -6.30755,1.09347 -7.87803,1.85296 -20.59625,1.81683 -28.03165,-0.0796 -15.28118,-3.8976 -24.62636,-10.02771 -45.00138,-29.51932 C 904.24325,844.49149 897.75459,840.26068 891.50895,841.43237 888.60635,841.9769 888,842.52341 888,844.595 c 0,4.90393 -2.71211,8.13794 -9.71788,11.58793 -6.03067,2.9698 -7.62829,3.3171 -15.25902,3.3171 -14.24197,0 -20.5231,-4.81336 -20.5231,-15.72727 0,-4.85252 0.40204,-6.12932 2.6323,-8.35957 3.65884,-3.65885 8.95613,-3.99669 23.47879,-1.49742 20.7811,3.57632 28.5942,2.61487 33.75709,-4.15403 3.3895,-4.44386 3.31457,-4.94902 -0.45513,-3.06845 -7.19604,3.58986 -22.80733,-1.35808 -29.97436,-9.50025 -5.3086,-6.03089 -6.65628,-10.74027 -5.14093,-17.96472 2.34537,-11.18163 9.19039,-17.24877 19.4124,-17.20633 9.5776,0.0398 18.39475,6.29255 20.72971,14.70071 1.29473,4.66228 1.36467,12.72865 0.14718,16.9738 -0.90142,3.14308 -0.70263,3.38934 15.75,19.51082 25.27361,24.76492 47.02109,40.0405 62.4445,43.86146 6.74035,1.66984 19.14225,0.74924 24.99695,-1.85553 4.6366,-2.06285 15.921,-11.84904 17.8767,-15.5032 0.8195,-1.53122 0.2006,-1.41728 -4.0778,0.75073 -9.8179,4.97514 -25.0178,7.18276 -30.39314,4.41429 -6.37291,-3.28225 -9.02652,-9.22031 -6.66653,-14.91785 2.14595,-5.18077 10.42287,-11.47464 24.82147,-18.87455 7.6124,-3.91224 20.5502,-11.83396 28.7507,-17.60381 33.3438,-23.46045 45.054,-25.61021 60.2891,-11.06779 3.9439,3.76465 6.1569,5.32551 5.7974,4.08896 -0.3198,-1.1 -0.8998,-3.35 -1.2889,-5 -3.5285,-14.96278 -22.1816,-23.37734 -42.505,-19.17438 -10.9292,2.26021 -16.6166,5.10006 -34.4353,17.19441 -31.24928,21.21021 -49.51,26.6969 -64.78689,19.4661 C 952.3999,813.6564 942,798.41315 942,787.23837 c 0,-11.93076 9.52535,-21.24416 21.71788,-21.23463 8.03759,0.006 13.79665,4.87287 15.2643,12.89882 2.06373,11.28564 -13.49817,20.85065 -22.96078,14.11268 -3.64801,-2.59761 -3.70004,-2.27657 -0.61069,3.768 5.98514,11.71044 16.54199,16.5678 28.08929,12.92428 10.53203,-3.32317 16.5821,-8.42745 25.0208,-21.10935 14.161,-21.28142 26.3024,-29.92465 45.8565,-32.64438 9.9641,-1.38588 18.5405,0.45761 39.6227,8.51688 27.7327,10.60161 32.1417,11.81046 43.5,11.92686 11.2423,0.1152 15.2794,-1.32864 21.138,-7.5599 2.7523,-2.9273 6.362,-8.75208 6.362,-10.26595 0,-0.2902 -2.0529,0.77426 -4.5619,2.36546 -15.334,9.72451 -41.3816,4.52403 -66.3484,-13.24665 -14.7478,-10.49712 -25.8802,-14.82247 -38.0804,-14.79566 -4.2756,0.009 -9.9643,0.55265 -12.6416,1.20723 -6.3577,1.55445 -17.2307,6.69636 -25.3677,11.99652 -3.575,2.32863 -9.65,5.39354 -13.5,6.8109 -6.00802,2.21182 -8.62969,2.57797 -18.5,2.58377 -10.79386,0.006 -11.79177,-0.16476 -16.25169,-2.78639 C 963.66006,749.12805 961,744.15619 961,736.35556 c 0,-16.06586 12.3758,-22.71853 27.22654,-14.63574 6.51804,3.54756 9.82044,7.9581 10.63089,14.19813 l 0.64257,4.94748 11,-6.9254 c 12.4401,-7.83203 22.1074,-12.17908 31.2691,-14.06061 5.5226,-1.13417 7.0707,-1.07409 13,0.50452 3.7912,1.00934 8.8055,3.28147 11.4809,5.20236 2.6125,1.87571 4.75,3.00153 4.75,2.50183 0,-1.37887 -7.1998,-10.18671 -11.1799,-13.67684 -10.498,-9.20568 -26.0912,-10.95918 -47.9119,-5.38785 -6.9609,1.77727 -8.267,1.85166 -11.1465,0.63487 -8.49025,-3.58776 -11.39718,-11.52254 -6.2543,-17.07179 4.28373,-4.62223 10.9912,-7.00298 19.4926,-6.91866 15.4851,0.15358 32.1643,8.90469 61.5715,32.30493 7.6607,6.0958 16.8299,12.46209 20.376,14.14729 11.7773,5.59688 25.7983,4.89958 33.5525,-1.66865 l 3,-2.54117 -3.4778,0.67436 c -19.6642,3.81295 -35.2034,-6.04529 -67.9129,-43.08462 -15.4784,-17.52734 -19.2376,-21.0328 -26.1093,-24.34672 -4.4742,-2.15768 -6.9007,-2.64782 -13.0099,-2.62787 -6.5226,0.0213 -8.4947,0.49482 -15,3.60166 -4.1196,1.96743 -12.6651,7.48245 -18.9901,12.2556 -18.43205,13.90973 -48.12981,27.41153 -69.51946,31.60633 l -6.01945,1.1805 -1.71401,5.81582 c -2.14195,7.26791 -7.03193,13.79096 -12.68013,16.91482 -8.73399,4.83052 -23.75627,2.66461 -28.50087,-4.10926 -1.81064,-2.58505 -2.05163,-8.0151 -0.48559,-10.94128 1.44336,-2.69694 6.86136,-4.8496 12.20589,-4.8496 9.40576,0 18.26738,-4.56064 21.84283,-11.24143 0.96438,-1.80197 0.86823,-1.97075 -0.76288,-1.33919 -7.7217,2.98983 -18.01353,1.28638 -24.19486,-4.0046 C 873.26513,689.21513 871,684.5198 871,678.54921 871,670.70446 875.68787,665 882.13462,665 889.19693,665 897,672.59847 897,679.4756 c 0,2.76685 0.62293,3.74627 3.52241,5.53825 5.22305,3.22802 13.73448,4.91051 25.04393,4.95053 16.25322,0.0575 26.37271,-2.71419 37.32782,-10.22401 5.51748,-3.78227 13.55184,-11.15361 16.1805,-14.84522 1.85514,-2.6053 1.72057,-2.57688 -5.83788,1.23295 -10.75594,5.42153 -21.31019,7.84015 -34.23678,7.84572 -19.98649,0.009 -31.20188,-6.43935 -32.66331,-18.77883 -0.5278,-4.45641 -0.31093,-5.31166 1.91004,-7.53263 2.29173,-2.29173 2.87855,-2.42247 6.87936,-1.53264 2.40565,0.53504 6.02526,2.11089 8.04358,3.50187 3.71773,2.5622 8.83033,9.0103 8.83033,11.13698 0,6.14791 22.06465,2.53202 34.93121,-5.72443 C 973.53595,650.80589 981,642.4984 981,639.38557 v -2.39811 l -4.1862,3.03246 c -6.28427,4.5523 -13.61945,6.33651 -23.51292,5.71928 -14.83331,-0.92542 -26.09104,-8.19406 -41.20622,-26.60513 -2.42294,-2.95127 -5.89599,-5.98877 -7.71788,-6.75 -4.66267,-1.94819 -10.7986,-1.71968 -15.28523,0.56922 -5.90132,3.01063 -15.31436,14.06343 -23.08905,27.11119 -7.07294,11.87004 -9.71569,14.66426 -16.58333,17.53374 -8.42503,3.5202 -21.39731,0.60752 -27.31577,-6.13324 -6.01184,-6.8471 -7.70025,-19.37233 -3.5365,-26.23493 4.62238,-7.61851 13.9137,-10.19619 22.97293,-6.37338 17.57866,7.41785 32.17915,4.57576 37.58051,-7.3153 2.77504,-6.10924 2.30474,-6.79978 -2.38143,-3.49666 -2.3436,1.65192 -5.9427,3.27638 -7.99801,3.60991 -7.7832,1.26304 -18.95671,-4.21147 -29.7409,-14.57167 -7.29099,-7.00435 -11.94567,-9.30239 -18.67903,-9.22196 -6.37386,0.0761 -10.82251,1.99778 -15.28607,6.603 -3.03382,3.13011 -3.19818,3.62887 -2.16886,6.58158 2.27082,6.51408 -3.83681,13.30336 -13.11127,14.57456 -17.72841,2.42995 -28.25689,-18.20354 -16.135,-31.62102 5.86785,-6.49501 14.50124,-7.89304 24.47218,-3.96287 2.69943,1.06402 4.90805,1.48109 4.90805,0.92682 0,-2.01219 -8.53134,-10.19845 -12.95985,-12.43563 -12.94938,-6.54175 -29.55904,-5.14788 -38.29015,3.21328 l -2.75,2.63347 -2.75,-2.63347 c -8.73111,-8.36116 -25.34077,-9.75503 -38.29015,-3.21328 C 703.51572,570.77251 695,578.95336 695,580.97766 c 0,1.34498 0.0279,1.33987 5.21276,-0.95362 10.71335,-4.73903 22.49098,-1.37569 27.15612,7.75496 7.19404,14.08024 -3.70933,29.9539 -19.12365,27.84113 -9.27446,-1.2712 -15.38209,-8.06048 -13.11127,-14.57456 1.02932,-2.95271 0.86496,-3.45147 -2.16886,-6.58158 -4.46356,-4.60522 -8.91221,-6.52687 -15.28607,-6.603 -6.73336,-0.0804 -11.38804,2.21761 -18.67903,9.22196 -10.78419,10.3602 -21.9577,15.83471 -29.7409,14.57167 -2.05531,-0.33353 -5.65441,-1.95799 -7.99801,-3.60991 -4.68617,-3.30312 -5.15647,-2.61258 -2.38143,3.49666 5.40136,11.89106 20.00185,14.73315 37.58051,7.3153 9.05923,-3.82281 18.35055,-1.24513 22.97293,6.37338 4.16375,6.8626 2.47534,19.38783 -3.5365,26.23493 -5.91846,6.74076 -18.89074,9.65344 -27.31577,6.13324 -6.86764,-2.86948 -9.51039,-5.6637 -16.58333,-17.53374 -7.77469,-13.04776 -17.18773,-24.10056 -23.08905,-27.11119 -4.48663,-2.2889 -10.62256,-2.51741 -15.28523,-0.56922 -1.82189,0.76123 -5.29494,3.79873 -7.71788,6.75 -15.11518,18.41107 -26.37291,25.67971 -41.20622,26.60513 -9.89347,0.61723 -17.22865,-1.16698 -23.51292,-5.71928 L 517,636.98746 v 2.39811 c 0,3.11283 7.46405,11.42032 14.06879,15.65857 12.86656,8.25645 34.93121,11.87234 34.93121,5.72443 0,-2.12668 5.1126,-8.57478 8.83033,-11.13698 2.01832,-1.39098 5.63793,-2.96683 8.04358,-3.50187 4.00081,-0.88983 4.58763,-0.75909 6.87936,1.53264 2.22097,2.22097 2.43784,3.07622 1.91004,7.53263 -1.46143,12.33948 -12.67682,18.78745 -32.66331,18.77883 -12.92659,-0.006 -23.48084,-2.42419 -34.23678,-7.84572 -7.55845,-3.80983 -7.69302,-3.83825 -5.83788,-1.23295 2.62866,3.69161 10.66302,11.06295 16.1805,14.84522 10.95511,7.50982 21.0746,10.28152 37.32782,10.22401 11.30945,-0.04 19.82088,-1.72251 25.04393,-4.95053 C 600.37707,683.22187 601,682.24245 601,679.4756 601,672.59847 608.80307,665 615.86538,665 622.31213,665 627,670.70446 627,678.54921 c 0,12.1387 -11.76792,21.71434 -24.77342,20.15832 -2.59962,-0.31103 -5.56643,-0.8907 -6.59291,-1.28815 -1.63111,-0.63156 -1.72726,-0.46278 -0.76288,1.33919 3.57545,6.68079 12.43707,11.24143 21.84283,11.24143 5.34453,0 10.76253,2.15266 12.20589,4.8496 1.56604,2.92618 1.32505,8.35623 -0.48559,10.94128 -4.7446,6.77387 -19.76688,8.93978 -28.50087,4.10926 -5.6482,-3.12386 -10.53818,-9.64691 -12.68013,-16.91482 l -1.71401,-5.81582 -6.01945,-1.1805 C 558.12981,701.7942 528.43205,688.2924 510,674.38267 c -6.325,-4.77315 -14.87053,-10.28817 -18.99006,-12.2556 -6.50535,-3.10684 -8.4774,-3.58036 -15,-3.60166 -6.10922,-0.0199 -8.53578,0.47019 -13.00994,2.62787 -6.8717,3.31392 -10.63094,6.81938 -26.10934,24.34672 -32.70944,37.03933 -48.24866,46.89757 -67.91287,43.08462 l -3.47779,-0.67436 3,2.54117 c 7.75419,6.56823 21.77522,7.26553 33.5525,1.66865 3.54613,-1.6852 12.71531,-8.05149 20.37596,-14.14729 29.40729,-23.40024 46.08646,-32.15135 61.57154,-32.30493 8.33014,-0.0826 14.96583,2.20706 19.48068,6.72191 5.30059,5.30059 2.27547,13.66912 -6.24237,17.26854 -2.87949,1.21679 -4.18563,1.1424 -11.14649,-0.63487 -21.82077,-5.57133 -37.41395,-3.81783 -47.91193,5.38785 C 434.19981,717.90142 427,726.70926 427,728.08813 c 0,0.4997 2.1375,-0.62612 4.75,-2.50183 2.67544,-1.92089 7.68971,-4.19302 11.48087,-5.20236 5.92938,-1.57861 7.47738,-1.63869 13,-0.50452 9.16174,1.88153 18.82908,6.22858 31.26913,14.06061 l 11,6.9254 0.64257,-4.94748 c 0.81045,-6.24003 4.11285,-10.65057 10.63089,-14.19813 C 524.6242,713.63703 537,720.2897 537,736.35556 c 0,7.80063 -2.66006,12.77249 -8.74831,16.3513 -4.45992,2.62163 -5.45783,2.79273 -16.25169,2.78639 -9.87031,-0.006 -12.49198,-0.37195 -18.5,-2.58377 -3.85,-1.41736 -9.925,-4.48227 -13.5,-6.8109 -8.13698,-5.30016 -19.01002,-10.44207 -25.36773,-11.99652 -2.67725,-0.65458 -8.36597,-1.19783 -12.64159,-1.20723 -12.20016,-0.0268 -23.33255,4.29854 -38.08041,14.79566 -24.96682,17.77068 -51.01438,22.97116 -66.34834,13.24665 C 335.05287,759.34594 333,758.28148 333,758.57168 c 0,1.51387 3.6097,7.33865 6.36195,10.26595 5.85865,6.23126 9.89573,7.6751 21.13805,7.5599 11.35832,-0.1164 15.76729,-1.32525 43.5,-11.92686 21.08223,-8.05927 29.65862,-9.90276 39.62273,-8.51688 19.55412,2.71973 31.69551,11.36296 45.85645,32.64438 8.43871,12.6819 14.48879,17.78618 25.02082,21.10935 11.5473,3.64352 22.10415,-1.21384 28.08929,-12.92428 3.08935,-6.04457 3.03732,-6.36561 -0.61069,-3.768 -9.46261,6.73797 -25.02451,-2.82704 -22.96078,-14.11268 1.46765,-8.02595 7.22671,-12.89254 15.2643,-12.89882 12.19253,-0.01 21.71788,9.30387 21.71788,21.23463 0,11.17478 -10.3999,26.41803 -21.66031,31.74776 -15.27689,7.2308 -33.53761,1.74411 -64.78685,-19.4661 -17.81873,-12.09435 -23.50611,-14.9342 -34.43537,-17.19441 -20.32337,-4.20296 -38.97643,4.2116 -42.50498,19.17438 -0.38911,1.65 -0.96912,3.9 -1.28893,5 -0.35951,1.23655 1.85354,-0.32431 5.79749,-4.08896 15.23502,-14.54242 26.94527,-12.39266 60.28901,11.06779 8.20053,5.76985 21.13837,13.69157 28.75074,17.60381 14.3986,7.39991 22.67552,13.69378 24.82147,18.87455 2.35999,5.69754 -0.29362,11.6356 -6.66653,14.91785 -5.37534,2.76847 -20.57523,0.56085 -30.39319,-4.41429 -4.27837,-2.16801 -4.89722,-2.28195 -4.07774,-0.75073 1.95564,3.65416 13.24007,13.44035 17.87669,15.5032 5.85469,2.60477 18.2566,3.52537 24.99695,1.85553 15.42341,-3.82096 37.17089,-19.09654 62.4445,-43.86146 16.45263,-16.12148 16.65142,-16.36774 15.75,-19.51082 -1.21749,-4.24515 -1.14755,-12.31152 0.14718,-16.9738 2.33496,-8.40816 11.15211,-14.66094 20.72971,-14.70071 10.22201,-0.0424 17.06703,6.0247 19.4124,17.20633 1.51535,7.22445 0.16767,11.93383 -5.14093,17.96472 -7.16703,8.14217 -22.77832,13.09011 -29.97436,9.50025 -3.88069,-1.93594 -3.89051,-1.12381 -0.0429,3.54407 5.20625,6.31609 13.01344,7.17734 33.34481,3.67841 14.52266,-2.49927 19.81995,-2.16143 23.47879,1.49742 2.23026,2.23025 2.6323,3.50705 2.6323,8.35957 0,10.91391 -6.28113,15.72727 -20.5231,15.72727 -7.63073,0 -9.22835,-0.3473 -15.25902,-3.3171 C 612.71211,852.73291 610,849.4989 610,844.59497 c 0,-2.07159 -0.60635,-2.6181 -3.50895,-3.16263 -6.24564,-1.17169 -12.7343,3.05912 -29.94977,19.52817 -20.37502,19.49161 -29.7202,25.62172 -45.00138,29.51932 -7.4354,1.89646 -20.15362,1.93259 -28.03165,0.0796 -3.29547,-0.77511 -6.13387,-1.26717 -6.30758,-1.09347 -0.1737,0.17371 0.94759,1.20444 2.49175,2.29053 14.89833,10.47872 36.59863,12.33928 59.91641,5.13715 9.76271,-3.01539 21.99729,-8.49098 30.89117,-13.82533 C 604.7046,874.54873 613.73861,871 621.22241,871 c 14.23119,0 27.32495,12.49539 27.24505,26 -0.0406,6.86318 -2.90247,11.15379 -9.76773,14.64414 -11.33243,5.7615 -31.45676,3.3081 -40.44973,-4.93131 -5.62022,-5.14927 0.68686,6.38149 6.68754,12.22633 12.77525,12.44349 34.36752,17.64857 50.35114,12.13776 C 665.38352,927.59643 673,921.33775 673,916.52301 c 0,-5.23501 2.88988,-14.55027 5.74708,-18.52515 5.79851,-8.06678 13.48161,-10.56868 23.35644,-7.60572 9.34819,2.80495 13.89648,8.64601 13.89648,17.84631 0,12.30312 -8.65133,20.06252 -22.22627,19.93478 -5.77284,-0.0543 -8.25753,-0.61992 -12.95806,-2.94972 C 677.61705,923.63813 675,922.51162 675,922.72016 c 0,1.53501 3.48145,6.50717 6.09761,8.70852 9.90868,8.3376 25.56051,11.63514 38.66638,8.14627 z m 10.04966,-78.05097 C 654.36958,849.16106 616.07194,762.72866 657.95199,699.3423 c 23.18159,-35.08584 64.12662,-53.43061 104.60283,-46.86562 22.4145,3.63549 42.69632,13.98713 58.17183,29.69034 9.08597,9.21965 14.04327,15.897 19.2921,25.9859 18.84908,36.23033 15.14533,80.79426 -9.3619,112.64324 -10.75223,13.97334 -28.50405,27.73934 -43.67095,33.86553 -17.51476,7.07452 -39.65797,9.73234 -57.17225,6.86229 z M 393.87244,1141.25 c -1.24387,-1.5861 -1.2085,-1.6214 0.37756,-0.3776 0.9625,0.7549 1.75,1.5424 1.75,1.75 0,0.8231 -0.82119,0.2933 -2.12756,-1.3724 z M 1110,1142.6224 c 0,-0.2076 0.7875,-0.9951 1.75,-1.75 1.5861,-1.2438 1.6214,-1.2085 0.3776,0.3776 -1.3064,1.6657 -2.1276,2.1955 -2.1276,1.3724 z M 371.87244,1119.25 c -1.24387,-1.5861 -1.2085,-1.6214 0.37756,-0.3776 0.9625,0.7549 1.75,1.5424 1.75,1.75 0,0.8231 -0.82119,0.2933 -2.12756,-1.3724 z M 1132,1120.6224 c 0,-0.2076 0.7875,-0.9951 1.75,-1.75 1.5861,-1.2438 1.6214,-1.2085 0.3776,0.3776 -1.3064,1.6657 -2.1276,2.1955 -2.1276,1.3724 z M 230.07895,778.41667 c 0.048,-1.16495 0.28494,-1.4019 0.60416,-0.60417 0.28887,0.72187 0.25335,1.58438 -0.0789,1.91667 -0.3323,0.33229 -0.56864,-0.25834 -0.52522,-1.3125 z m 0,-35 c 0.048,-1.16495 0.28494,-1.4019 0.60416,-0.60417 0.28887,0.72187 0.25335,1.58438 -0.0789,1.91667 -0.3323,0.33229 -0.56864,-0.25834 -0.52522,-1.3125 z M 371,403.62244 c 0,-0.20765 0.7875,-0.99515 1.75,-1.75 1.58606,-1.24387 1.62143,-1.2085 0.37756,0.37756 C 371.82119,403.91575 371,404.44548 371,403.62244 Z M 1132.8724,402.25 c -1.2438,-1.58606 -1.2085,-1.62143 0.3776,-0.37756 1.6657,1.30637 2.1955,2.12756 1.3724,2.12756 -0.2076,0 -0.9951,-0.7875 -1.75,-1.75 z M 393,381.62244 c 0,-0.20765 0.7875,-0.99515 1.75,-1.75 1.58606,-1.24387 1.62143,-1.2085 0.37756,0.37756 C 393.82119,381.91575 393,382.44548 393,381.62244 Z M 1110.8724,380.25 c -1.2438,-1.58606 -1.2085,-1.62143 0.3776,-0.37756 1.6657,1.30637 2.1955,2.12756 1.3724,2.12756 -0.2076,0 -0.9951,-0.7875 -1.75,-1.75 z M 734.8125,238.31689 c 0.72187,-0.28887 1.58438,-0.25335 1.91667,0.0789 0.33229,0.33229 -0.25834,0.56864 -1.3125,0.52522 -1.16495,-0.048 -1.4019,-0.28494 -0.60417,-0.60416 z m 35,0 c 0.72187,-0.28887 1.58438,-0.25335 1.91667,0.0789 0.33229,0.33229 -0.25834,0.56864 -1.3125,0.52522 -1.16495,-0.048 -1.4019,-0.28494 -0.60417,-0.60416 z"
         id="path18" />
      <path
         style="fill:#000000"
         d="M 723.72187,1282.9147 C 564.6982,1273.8095 418.0594,1192.6533 326.36401,1063 252.58052,958.67332 219.21564,829.30291 233.51933,703 250.33409,554.52401 329.54297,420.26268 451,334.36401 c 63.93346,-45.21599 138.48741,-75.94027 215.5,-88.80928 104.55091,-17.47074 210.31561,-3.14123 307,41.59383 81.7215,37.81186 153.889,97.97644 206.136,171.85144 50.8178,71.85415 82.9445,156.29004 92.8387,244 2.1573,19.12374 2.1573,96.87626 0,116 -16.7334,148.33783 -96.0244,282.7421 -217.4747,368.636 -96.24793,68.0699 -214.16575,101.9842 -331.27813,95.2787 z m 68.61938,-25.4104 c 64.29046,-5.6714 121.46754,-21.3682 178.15875,-48.9099 23.01618,-11.1817 36.0977,-18.6152 56.5,-32.1058 65.2071,-43.1169 119.5093,-100.8334 158.0508,-167.9886 26.5342,-46.23346 47.8063,-104.09186 57.4367,-156.22268 C 1248.4963,819.75049 1249,812.69063 1249,761 c 0,-51.69063 -0.5037,-58.75049 -6.5125,-91.27732 -9.6304,-52.13082 -30.9025,-109.98922 -57.4367,-156.22268 -27.1899,-47.37599 -66.0345,-94.47238 -106.4025,-129.00583 -51.3541,-43.93165 -107.59383,-75.72187 -171.02271,-96.67272 -100.04996,-33.04695 -209.20122,-33.04695 -309.25118,0 -63.42888,20.95085 -119.66864,52.74107 -171.02273,96.67272 -33.2686,28.46015 -64.26202,63.82296 -89.84031,102.50583 -13.49058,20.40225 -20.92411,33.48382 -32.10581,56.5 -56.87769,117.07585 -66.00026,249.76533 -25.58411,372.12559 20.95085,63.42888 52.74107,119.66861 96.67272,171.02271 28.46015,33.2686 63.82296,64.262 102.50583,89.8403 20.40225,13.4906 33.48382,20.9241 56.5,32.1058 56.00481,27.2082 113.30434,43.033 177,48.8831 19.66562,1.8061 59.51894,1.8195 79.84125,0.027 z"
         id="path16" />
    </g>
  </g>
</svg>
