<?xml version="1.0" encoding="UTF-8" standalone="no"?>
<svg
   xmlns:dc="http://purl.org/dc/elements/1.1/"
   xmlns:cc="http://creativecommons.org/ns#"
   xmlns:rdf="http://www.w3.org/1999/02/22-rdf-syntax-ns#"
   xmlns:svg="http://www.w3.org/2000/svg"
   xmlns="http://www.w3.org/2000/svg"
   xmlns:sodipodi="http://sodipodi.sourceforge.net/DTD/sodipodi-0.dtd"
   xmlns:inkscape="http://www.inkscape.org/namespaces/inkscape"
   version="1.1"
   id="svg2"
   width="1045.1262"
   height="1337.8688"
   viewBox="0 0 1045.1262 1337.8688"
   sodipodi:docname="Whiterun.svg"
   inkscape:version="1.0.1 (3bc2e813f5, 2020-09-07)">
  <metadata
     id="metadata8">
    <rdf:RDF>
      <cc:Work
         rdf:about="">
        <dc:format>image/svg+xml</dc:format>
        <dc:type
           rdf:resource="http://purl.org/dc/dcmitype/StillImage" />
        <dc:title />
      </cc:Work>
    </rdf:RDF>
  </metadata>
  <defs
     id="defs6" />
  <sodipodi:namedview
     pagecolor="#ffffff"
     bordercolor="#666666"
     borderopacity="1"
     objecttolerance="10"
     gridtolerance="10"
     guidetolerance="10"
     inkscape:pageopacity="0"
     inkscape:pageshadow="2"
     inkscape:window-width="1920"
     inkscape:window-height="1057"
     id="namedview4"
     showgrid="false"
     inkscape:pagecheckerboard="true"
     inkscape:zoom="0.49"
     inkscape:cx="1093.9729"
     inkscape:cy="525.18894"
     inkscape:window-x="-8"
     inkscape:window-y="-8"
     inkscape:window-maximized="1"
     inkscape:current-layer="g10"
     inkscape:document-rotation="0" />
  <g
     inkscape:groupmode="layer"
     inkscape:label="Image"
     id="g10"
     transform="translate(-228.89402,-75)">
    <path
       style="fill:#ffffff"
       d="m 746.50003,1412.3132 c -41.03263,-9.331 -62.68596,-16.5936 -92.5,-31.025 -61.00572,-29.5295 -124.17873,-72.7834 -176.49892,-120.8469 -32.04111,-29.4342 -73.79887,-74.1114 -93.0354,-99.5397 -27.30251,-36.0905 -40.63474,-55.3014 -55.42188,-79.8595 -5.53252,-9.1882 -24.31414,-42.9176 -28.8975,-51.8961 -3.08632,-6.046 -17.9065,-38.5636 -20.34776,-44.646 -9.16884,-22.8441 -17.51484,-46.71293 -22.72796,-65.00003 -1.72469,-6.05 -3.7834,-13.25 -4.57492,-16 -0.79153,-2.75 -2.34983,-9.4272 -3.4629,-14.8382 -1.11307,-5.411 -2.24539,-10.1968 -2.51628,-10.6351 -0.70862,-1.14657 -5.39273,-29.49987 -7.10823,-43.02667 -2.3305,-18.37597 -3.2009,-62.73455 -7.0545,-359.5 -0.8999,-69.3 -1.9613,-150.3 -2.3586,-180 -0.3973,-29.7 -0.7838,-91.4625 -0.8588,-137.25 L 228.99998,75 h 522.51017 522.51005 l -0.3185,93.75 c -0.2857,84.07639 -1.6343,205.23622 -4.7499,426.75 -0.5724,40.7 -1.4572,107.075 -1.9662,147.5 -0.6433,51.08922 -1.3728,77.92118 -2.3926,88 -1.9111,18.88762 -5.3198,43.05626 -7.0518,50 -0.7546,3.025 -1.6683,7.52497 -2.0305,9.99997 -0.3621,2.475 -2.2349,11.025 -4.1616,19 -21.3804,88.49733 -62.5146,171.45033 -123.2244,248.50003 -41.0287,52.0714 -96.9145,105.7517 -152.62467,146.6011 -14.3811,10.545 -41.74547,28.9958 -53.74951,36.2414 -12.41366,7.4928 -35.89928,21.1043 -40.25049,23.3278 -2.2,1.1242 -8.275,4.296 -13.5,7.0485 -10.9124,5.7485 -52.6336,25.0096 -64.5,29.7773 -11.28932,4.5358 -22.85447,8.2611 -31.00854,9.9882 -6.52705,1.3826 -21.46216,1.8589 -25.99146,0.8289 z"
       id="path16-4"
       sodipodi:nodetypes="sssssssssssssssccccssssssssssssss" />
    <path
       style="fill:#e3b459"
       d="m 743.04473,1359.2699 c -15.3714,-3.6578 -35.93588,-10.185 -48.02406,-15.2428 -57.88996,-24.2218 -129.14295,-71.6709 -185.20232,-123.3308 -29.32048,-27.0195 -67.03288,-67.5782 -85.35267,-91.7947 -20.44945,-27.0316 -33.6292,-45.4521 -42.14374,-58.9016 -28.95193,-45.7322 -47.28422,-81.78648 -62.0325,-122 -9.60501,-26.18958 -11.83107,-33.12198 -18.7849,-58.5 -4.40339,-16.07016 -8.91239,-39.89292 -12.11346,-64 -2.31298,-17.41896 -3.16858,-61.06584 -7.03737,-359 -0.89989,-69.3 -1.96124,-150.3 -2.35856,-180 -0.39732,-29.7 -0.78377,-78.1875 -0.85877,-107.75 L 279,125 h 472.51443 472.51447 l -0.3273,64.25 c -0.2989,58.67109 -2.0638,206.28119 -4.7498,397.25 -0.5724,40.7 -1.4536,107.075 -1.9582,147.5 -0.922,73.8648 -1.3223,82.18602 -5.461,113.5 -9.4033,71.14626 -38.1276,149.95872 -78.3599,215 -62.1789,100.5213 -152.30898,186.223 -263.1727,250.2422 -27.20298,15.7086 -72.77386,37.2514 -96,45.3822 -14.1022,4.9368 -14.89899,4.9663 -30.95527,1.1455 z M 488.61463,1097.452 C 534.1735,1089.5072 569.45967,1057.8418 601.10975,996.5 606.64642,985.76926 615,965.07699 615,962.09311 c 0,-5.64671 9.04625,-22.38159 18.27904,-33.81483 12.53312,-15.52014 38.70834,-32.72826 67.40614,-44.31417 l 8.18519,-3.30453 8.39758,7.92021 c 9.96024,9.39404 18.32853,14.54989 29.23205,18.01037 23.23088,7.37287 48.94586,1.77193 74.85807,-16.30473 l 7.85806,-5.48189 6.7942,3.13165 c 18.26705,8.41983 37.792,7.75576 56.99624,-1.93851 7.37509,-3.72293 20.1704,-13.39099 26.94343,-20.35828 5.13526,-5.28255 5.57672,-5.5233 7.64421,-4.16863 8.22573,5.38971 25.57341,7.10815 39.58513,3.92125 17.50484,-3.98139 30.06811,-11.56484 47.63436,-28.75309 14.6591,-14.34358 22.3938,-23.67863 33.6877,-40.65766 8.1022,-12.1808 8.4585,-12.5544 13.1631,-13.80017 7.8285,-2.07298 20.6138,-8.72907 29.2115,-15.20762 31.5228,-23.75313 54.3314,-68.37638 63.2024,-123.6504 2.6497,-16.51004 3.6952,-51.41986 1.9865,-66.3321 -4.1553,-36.26466 -15.9138,-63.45388 -36.8225,-85.14456 C 1093.8496,465.50303 1056.8317,452 1010.008,452 c -11.54281,0 -13.14407,-0.20457 -13.69781,-1.75 -0.34487,-0.9625 -3.83955,-8.725 -7.76597,-17.25 -13.33172,-28.94574 -31.12485,-58.46605 -47.54151,-78.87537 -9.49382,-11.8028 -30.13411,-31.87148 -39.65227,-38.55416 -4.1093,-2.88512 -7.57136,-6.17254 -8.34784,-7.92672 -3.24129,-7.32258 -14.22619,-21.88972 -23.46888,-31.12223 C 832.84999,239.87823 771.53161,211.38785 708,201.46807 c -14.08177,-2.19872 -50.53265,-3.07364 -64.06728,-1.53779 -38.62491,4.38298 -69.24764,17.7453 -92.73326,40.46443 -30.41104,29.41854 -44.43984,67.90313 -45.78691,125.60529 -0.51514,22.06571 -2.21956,36.30699 -5.44375,45.48518 -0.96891,2.75815 -4.78515,11.53982 -8.48053,19.51482 -19.28531,41.61953 -43.78481,98.97237 -63.00781,147.5 -11.44277,28.88678 -34.87696,91.22754 -37.21458,99 -2.04043,6.78434 -1.18921,20.00839 1.80235,28 1.89794,5.07014 2.36126,8.94456 2.98961,25 1.01947,26.04906 4.00344,37.02767 12.67202,46.62274 7.316,8.09795 16.73739,10.87726 36.87201,10.87726 6.72901,0 12.85226,0.23704 13.60723,0.52674 1.06599,0.40906 0.63645,2.05278 -1.92255,7.35702 -6.45841,13.38682 -7.65023,20.13058 -7.70829,43.61624 -0.0401,16.20884 0.36525,23.2815 1.77654,31 2.47411,13.53119 9.55821,41.1439 14.62347,57 13.1189,41.0669 16.88518,66.50242 14.94308,100.918 -1.06354,18.8468 -5.05731,50.6207 -8.52603,67.832 -0.5299,2.6293 -0.38087,2.75 3.39423,2.75 2.17166,0 7.94294,-0.6966 12.82508,-1.548 z M 244.28601,271.5 c 0.008,-2.75 0.20172,-3.75631 0.43157,-2.23625 0.22986,1.52006 0.22371,3.77006 -0.0136,5 -0.23736,1.22994 -0.42542,-0.0138 -0.41792,-2.76375 z"
       id="path24"
       sodipodi:nodetypes="ssssssssssscccsssssssscsssscssscsssssssssssssssssssssssssssssssssssssssccsccc" />
    <path
       style="fill:#000000"
       d="m 746.50002,1412.3191 c -40.3326,-9.0517 -62.4962,-16.485 -92.5,-31.0232 -61.1215,-29.616 -124.1883,-72.7999 -176.4989,-120.8546 -32.0411,-29.4342 -73.7989,-74.1114 -93.0354,-99.5397 -27.7373,-36.6652 -40.3897,-54.895 -55.3908,-79.808 -5.557,-9.2287 -24.3334,-42.9459 -28.9286,-51.9476 -3.1406,-6.1523 -18.1098,-38.94182 -19.6972,-43.146 -0.7268,-1.925 -2.7419,-6.875 -4.478,-11 -3.285,-7.80519 -4.9543,-12.44198 -11.7007,-32.5 -7.8298,-23.27935 -10.2826,-31.95819 -14.807,-52.39336 -1.3874,-6.26635 -2.7289,-11.72715 -2.981,-12.13512 -0.6808,-1.10164 -5.3984,-29.75813 -7.0741,-42.97152 -2.3323,-18.39028 -3.2273,-64.0448 -7.0476,-359.5 -0.8961,-69.3 -1.9369,-144.675 -2.3129,-167.5 -0.3761,-22.825 -0.7895,-84.5875 -0.9187,-137.25 L 228.89402,75 h 522.5631 522.56308 l -0.3185,93.75 c -0.2857,84.07639 -1.6343,205.23622 -4.7499,426.75 -0.5724,40.7 -1.4572,107.075 -1.9662,147.5 -0.6433,51.08922 -1.3728,77.92118 -2.3926,88 -1.9111,18.88762 -5.3198,43.05626 -7.0518,50 -0.7546,3.025 -1.6663,7.525 -2.0261,10 -0.3597,2.475 -2.0055,10.125 -3.6572,17 -17.4005,72.42793 -46.8629,139.2069 -90.2237,204.5 -15.6519,23.5688 -40.7829,56.2351 -59.6729,77.5653 -24.8111,28.0162 -66.8545,68.0457 -96.4613,91.8407 -35.47758,28.5133 -64.45238,48.3553 -105.74948,72.4172 -7.8378,4.5667 -16.0505,9.2229 -18.2505,10.3471 -2.2,1.1242 -8.275,4.296 -13.5,7.0485 -10.9124,5.7485 -52.6336,25.0096 -64.5,29.7773 -11.2893,4.5358 -22.8545,8.2611 -31.0085,9.9882 -6.5125,1.3795 -21.4297,1.8586 -25.9915,0.8348 z m 34,-18.3389 c 13.7631,-4.4465 25.4209,-9.2233 44.5,-18.234 5.225,-2.4677 11.75,-5.4897 14.5,-6.7155 12.8332,-5.7206 35.9011,-17.7276 51.5,-26.806 66.5702,-38.7433 121.11768,-80.9627 173.58668,-134.355 45.2072,-46.0027 82.9262,-96.0904 112.4343,-149.3035 9.0549,-16.3291 19.8758,-37.8123 24.9661,-49.5662 1.7864,-4.125 4.0951,-9.38781 5.1305,-11.69514 1.0353,-2.30732 1.8824,-4.44973 1.8824,-4.76089 0,-0.31117 0.8876,-2.47336 1.9724,-4.80487 2.1488,-4.61809 9.285,-24.38108 14.5298,-40.2391 5.776,-17.46377 12.6027,-43.79543 15.037,-58 0.8484,-4.95 1.9667,-10.35 2.4852,-12 1.1777,-3.7475 4.7129,-29.45483 6.6008,-48 0.9696,-9.52413 1.7227,-37.49832 2.3555,-87.5 0.5117,-40.425 1.3987,-106.8 1.9711,-147.5 3.0296,-215.39558 4.4619,-341.66812 4.7499,-418.75 L 1259.022,90 h -507.67098 -507.671 l 0.6472,128.57469 c 0.3559,70.71608 0.9214,129.01856 1.2567,129.56107 0.3353,0.5425 1.2388,57.54639 2.0078,126.6753 2.9124,261.80611 4.4096,340.35926 6.8463,359.18894 3.663,28.30632 11.2576,64.49627 18.0474,86 4.591,14.54008 8.7278,26.78466 9.9663,29.5 0.7527,1.65 1.9029,5.025 2.5562,7.5 0.6532,2.475 1.5299,4.95 1.9482,5.5 0.4182,0.55 1.4673,3.025 2.3313,5.5 6.3257,18.12154 22.117,51.3737 37.9916,80 20.6551,37.2469 34.5643,58.1351 69.1867,103.9016 19.0151,25.1356 58.8283,67.8167 90.053,96.5397 50.7974,46.7278 113.5025,89.9784 170.9813,117.9338 6.6,3.21 13.575,6.6371 15.5,7.6159 1.925,0.9787 4.625,2.1089 6,2.5116 1.375,0.4026 4.8505,1.7927 7.7234,3.089 2.8728,1.2963 6.4728,2.6556 8,3.0206 1.5271,0.3649 3.2266,0.9904 3.7766,1.3899 1.4255,1.0354 19.8246,6.2721 34.5,9.8192 6.875,1.6618 13.4,3.2592 14.5,3.5499 1.1,0.2907 6.725,0.3736 12.5,0.1842 8.4708,-0.2779 12.4325,-0.9688 20.5,-3.5752 z m -40.383,-24.5675 c -26.4164,-6.5168 -43.3939,-12.7075 -70.0915,-25.5583 -86.9946,-41.8746 -173.8808,-111.4618 -242.135,-193.9259 -5.2025,-6.2857 -10.3437,-12.5978 -11.4248,-14.0269 -20.4495,-27.0316 -33.6292,-45.4521 -42.1438,-58.9016 -29.2027,-46.1284 -49.096,-85.27341 -64.0325,-126 -9.605,-26.18958 -11.831,-33.12198 -18.7849,-58.5 -4.4033,-16.07016 -8.9123,-39.89292 -12.1134,-64 -2.313,-17.41896 -3.1686,-61.06584 -7.0374,-359 -0.8999,-69.3 -1.9612,-150.3 -2.3585,-180 -0.3974,-29.7 -0.7838,-81.1125 -0.8588,-114.25 L 269.00002,115 h 482.5132 482.51318 l -0.3248,70.75 c -0.2944,64.14634 -1.9368,203.75222 -4.7498,403.75 -0.5724,40.7 -1.4536,107.075 -1.9582,147.5 -0.922,73.8648 -1.3223,82.18602 -5.461,113.5 -2.5098,18.98949 -8.7681,49.48665 -13.7489,67 -28.5774,100.4822 -81.0206,189.4643 -159.3824,270.4295 -58.44458,60.3862 -132.53028,114.9079 -203.90128,150.0566 -36.4027,17.9276 -51.036,24.4227 -68.8238,30.5483 -14.5181,4.9995 -18.4591,5.0969 -35.5592,0.8783 z m 33.883,-11.2883 c 16.4574,-5.7613 31.831,-12.6024 65.5,-29.1469 33.6845,-16.5521 75.7435,-42.6591 109.7896,-68.149 C 1052.4241,1183.613 1132.32,1084.455 1174.7594,981 c 22.258,-54.25878 33.458,-99.10025 39.838,-159.5 1.0471,-9.91296 1.7466,-35.45697 2.3962,-87.5 0.5046,-40.425 1.3858,-106.8 1.9582,-147.5 2.686,-190.96881 4.4509,-338.57891 4.7498,-397.25 L 1224.0289,125 H 751.51442 279.00002 l 0.1364,53.75 c 0.075,29.5625 0.4614,78.05 0.8588,107.75 0.3973,29.7 1.4586,110.7 2.3585,180 3.8688,297.93416 4.7244,341.58104 7.0374,359 3.2011,24.10708 7.7101,47.92984 12.1134,64 6.9539,25.37802 9.1799,32.31042 18.7849,58.5 14.7483,40.21352 33.0806,76.2678 62.0325,122 8.5146,13.4495 21.6943,31.87 42.1438,58.9016 18.3198,24.2165 56.0322,64.7752 85.3527,91.7947 56.0593,51.6599 127.3123,99.109 185.2023,123.3308 12.0881,5.0578 32.6526,11.585 48.024,15.2428 16.0563,3.8208 16.8531,3.7913 30.9553,-1.1455 z M 472.39532,1096.25 c 3.4687,-17.2113 7.4625,-48.9852 8.5261,-67.832 1.9421,-34.41558 -1.8242,-59.8511 -14.9431,-100.918 -5.0653,-15.8561 -12.1494,-43.46881 -14.6235,-57 -1.4113,-7.7185 -1.8166,-14.79116 -1.7765,-31 0.058,-23.48566 1.2498,-30.22942 7.7083,-43.61624 2.559,-5.30424 2.9885,-6.94796 1.9225,-7.35702 -0.755,-0.2897 -6.8782,-0.52674 -13.6072,-0.52674 -20.1346,0 -29.556,-2.77931 -36.872,-10.87726 -8.6686,-9.59507 -11.6526,-20.57368 -12.6721,-46.62274 -0.6283,-16.05544 -1.0916,-19.92986 -2.9896,-25 -2.9915,-7.99161 -3.8427,-21.21566 -1.8023,-28 2.3376,-7.77246 25.7718,-70.11322 37.2146,-99 19.223,-48.52763 43.7225,-105.88047 63.0078,-147.5 3.6954,-7.975 7.5116,-16.75667 8.4805,-19.51482 3.2242,-9.17819 4.9286,-23.41947 5.4438,-45.48518 1.347,-57.70216 15.3758,-96.18675 45.7869,-125.60529 23.4856,-22.71913 54.1083,-36.08145 92.7332,-40.46443 13.5346,-1.53585 49.9855,-0.66093 64.0673,1.53779 52.5425,8.20394 103.454,28.96235 141.9979,57.8975 17.6541,13.25302 37.2276,35.22674 43.0047,48.27818 0.7765,1.75418 4.2385,5.0416 8.3478,7.92672 9.5182,6.68268 30.1585,26.75136 39.6523,38.55416 16.4167,20.40932 34.2098,49.92963 47.5415,78.87537 3.9264,8.525 7.4211,16.2875 7.766,17.25 0.5537,1.54543 2.155,1.75 13.69778,1.75 46.8237,0 83.8416,13.50303 109.2344,39.84542 20.9087,21.69068 32.6672,48.8799 36.8225,85.14456 1.7087,14.91224 0.6632,49.82206 -1.9865,66.3321 -10.3936,64.76145 -40.0347,114.65116 -79.3944,133.63114 -4.5012,2.17055 -10.36,4.52265 -13.0195,5.22688 -4.7046,1.24577 -5.0609,1.61937 -13.1631,13.80017 -11.2939,16.97903 -19.0286,26.31408 -33.6877,40.65766 -17.56618,17.18825 -30.12948,24.7717 -47.63438,28.75309 -14.0117,3.1869 -31.3594,1.46846 -39.5851,-3.92125 -2.0675,-1.35467 -2.5089,-1.11392 -7.6442,4.16863 -6.773,6.96729 -19.5683,16.63535 -26.9434,20.35828 -19.2043,9.69427 -38.7292,10.35834 -56.9963,1.93851 l -6.7942,-3.13165 -7.858,5.48189 c -25.9122,18.07666 -51.6272,23.6776 -74.8581,16.30473 -10.9035,-3.46048 -19.2718,-8.61633 -29.232,-18.01037 l -8.3976,-7.92021 -8.1852,3.30453 c -42.908,17.32285 -71.0848,40.90455 -82.7891,69.28775 -1.5928,3.86277 -2.8961,7.84133 -2.8961,8.84125 0,2.98388 -8.3536,23.67615 -13.8902,34.40689 -23.1058,44.7818 -48.0369,73.5633 -76.9054,88.7826 -14.3721,7.5769 -36.0446,13.7174 -48.4148,13.7174 -3.7751,0 -3.9242,-0.1207 -3.3943,-2.75 z m 33.1047,-21.9126 c 22.8054,-7.1804 42.1666,-20.2876 57.7727,-39.1111 10.8506,-13.0876 26.5531,-38.12887 30.7448,-49.02983 0.9933,-2.58306 3.5888,-8.74647 5.7678,-13.69647 2.179,-4.95 5.6425,-13.95 7.6966,-20 6.4795,-19.08394 14.0568,-31.22645 27.1003,-43.42804 11.9841,-11.21048 21.9716,-16.81906 54.7205,-30.72871 26.525,-11.26612 40.5152,-18.04196 49.752,-24.09618 8.2748,-5.42368 18.2477,-14.77385 17.7005,-16.59528 -0.1903,-0.63349 -4.2378,-3.76507 -8.9944,-6.95909 l -8.6484,-5.80729 -5.5705,4.53726 c -7.4517,6.06948 -22.9701,15.19028 -40.0419,23.53419 -13.5978,6.64597 -70.0344,32.04314 -71.205,32.04314 -1.0921,0 0.7292,-15.77469 2.72,-23.55872 6.3099,-24.67154 21.9884,-39.84494 51.7823,-50.11433 l 8.2017,-2.82695 0.052,-8.5 c 0.029,-4.675 0.4147,-11.65 0.8581,-15.5 0.4435,-3.85 0.6671,-7.16575 0.497,-7.36834 -0.5043,-0.60054 -13.1973,6.61299 -23.4059,13.30173 -40.2294,26.35845 -68.1354,63.21412 -80.4483,106.24864 -1.3877,4.84988 -4.3374,19.39297 -6.5549,32.31797 -10.0185,58.39278 -20.833,87.0081 -40.9365,108.3189 -8.1505,8.64 -24.0451,20.0297 -25.6759,18.3989 -0.2363,-0.2364 0.2366,-4.882 1.0509,-10.3238 2.2728,-15.1878 3.7692,-39.7857 3.0961,-50.894 -2.3509,-38.80038 -10.337,-66.44623 -30.1447,-104.35258 -8.396,-16.06768 -9.0451,-19.43612 -3.8433,-19.94537 2.2397,-0.21927 4.281,0.64705 7.7304,3.28085 22.3122,17.03663 50.5989,20.68344 72.9508,9.40503 8.5026,-4.29023 19.3567,-15.33074 23.4847,-23.88793 9.627,-19.95607 8.195,-39.41517 -3.8697,-52.58868 -13.3975,-14.62859 -33.9861,-19.51824 -49.3916,-11.73009 -24.7766,12.52574 -22.8325,51.24182 2.8376,56.5093 9.7067,1.99179 18.0292,-2.21106 21.2909,-10.75188 1.4112,-3.69509 1.5187,-5.17748 0.5981,-8.24995 -1.6984,-5.66903 -7.0304,-10.3054 -12.5694,-10.92973 -6.2075,-0.69968 -9.0725,1.37809 -12.757,9.25163 -3.8193,8.16165 -5.2188,9.38303 -7.2259,6.30632 -2.2623,-3.46777 -3.7817,-11.57117 -3.0654,-16.34815 0.8786,-5.85857 5.7414,-13.94794 10.4236,-17.3397 5.4445,-3.94398 11.712,-5.49136 19.8761,-4.90721 12.7811,0.91448 22.8301,7.61716 28.0235,18.69166 2.2794,4.86044 2.6199,6.88612 2.6199,15.58648 0,9.1815 -0.2627,10.55444 -3.2086,16.77383 -5.6747,11.97996 -16.7797,20.98968 -29.0907,23.60179 -22.8751,4.8536 -43.1534,-4.80803 -53.2596,-25.37562 -6.0852,-12.38433 -7.2875,-18.60442 -6.6683,-34.5 0.6205,-15.92929 4.0482,-30.56314 13.2343,-56.5 13.8587,-39.13028 13.8526,-39.10843 13.9257,-50 0.073,-10.89433 -0.5752,-14.49948 -3.0532,-16.9775 -1.4898,-1.4898 -1.7741,-1.4756 -3.6049,0.18007 -1.0932,0.98859 -2.7773,3.37243 -3.7425,5.29743 -2.145,4.27787 -9.9457,28.00401 -17.5582,53.40416 -3.1161,10.39729 -7.9015,24.34729 -10.6343,31 -13.6165,33.14841 -15.3293,40.29407 -15.2443,63.59584 0.092,25.16749 4.7171,47.59834 17.1151,83 14.7896,42.23129 18.0469,56.72914 18.9887,84.5178 0.6505,19.1951 -0.5586,34.346 -4.2683,53.4822 -1.3328,6.875 -2.4249,12.8733 -2.4271,13.3295 0,1.0775 4.5707,0.1331 14.4962,-2.9921 z m 277.0399,-177.84734 c 18.2087,-4.613 39.0951,-20.18456 54.9637,-40.97731 5.5186,-7.23108 16.4964,-24.24281 16.4964,-25.56362 0,-0.72342 -19.4473,-14.81422 -21.4856,-15.5677 -0.5579,-0.20624 -2.999,3.11107 -5.4246,7.3718 -12.1394,21.32329 -22.9991,34.7025 -32.2581,39.74186 -7.272,3.95794 -18.1412,4.58998 -29.4041,1.70983 -4.3602,-1.11498 -8.621,-2.30424 -9.4684,-2.64279 -0.9612,-0.38402 -3.7823,1.13695 -7.5,4.0436 -5.851,4.57453 -20.5132,12.39427 -23.2396,12.39427 -2.3263,0 -0.9962,1.65977 5.4998,6.8629 6.91,5.53484 16.4498,10.5726 23.8887,12.61508 6.6845,1.83538 20.7108,1.84145 27.9318,0.0121 z m 95.9226,-16.61864 c 17.934,-5.96068 36.8798,-23.66539 56.5778,-52.87142 5.5312,-8.20118 24.9597,-40.1761 24.9597,-41.07814 0,-1.34159 -13.6266,-7.72913 -18.7992,-8.81224 -9.4395,-1.97655 -9.7631,-1.84708 -12.8478,5.14038 -17.8505,40.43496 -39.9425,62.76436 -66.4739,67.18841 -3.0751,0.51277 -4.156,1.46718 -7.1719,6.33268 -1.9531,3.1509 -6.5112,9.27949 -10.1291,13.61908 -3.618,4.33959 -6.5781,8.01592 -6.5781,8.16963 0,0.56155 10.157,3.63333 14.7634,4.46489 6.6814,1.20616 18.5948,0.20796 25.6991,-2.15327 z m -105.5003,-29.83078 c -4.1183,-3.52017 -5.0894,-3.66255 -7.4195,-1.08786 -1.9291,2.13171 -1.7431,2.24695 5.4573,3.38108 5.1553,0.812 5.3411,0.59486 1.9622,-2.29322 z m 198.1995,-1.92798 c 7.5839,-2.93392 22.088,-12.17167 31.29838,-19.93429 41.2563,-34.77087 74.5659,-117.5253 74.534,-185.17224 -0.014,-29.20613 -6.2863,-49.26195 -19.6265,-62.75361 -5.6637,-5.72801 -16.3821,-12.2494 -20.1367,-12.25173 -1.7636,-0.001 -0.879,3.16574 4.915,17.59492 6.3463,15.80458 8.6907,25.2618 9.8922,39.90429 5.554,67.68746 -33.5124,166.86294 -73.03808,185.41728 -4.4189,2.07435 -6.9848,2.57693 -13.0538,2.55687 l -7.5537,-0.025 -4.4463,7.40776 c -2.4454,4.07426 -7.2835,11.44843 -10.7512,16.38703 -3.4678,4.9386 -6.1061,9.17825 -5.8629,9.42145 0.2432,0.2432 2.6305,1.3229 5.305,2.39932 6.5948,2.65417 20.3932,2.19361 28.5246,-0.95208 z M 797.85352,842.25 c 3.6556,-3.7125 7.3833,-8.1 8.2838,-9.75 l 1.6373,-3 -25.8783,-25.24936 -25.8782,-25.24936 -5.1366,1.95175 c -10.4933,3.98714 -15.8192,9.3638 -17.739,17.90809 l -0.9664,4.30143 6.1619,6.20564 c 3.6315,3.65719 11.0257,9.21969 18.0054,13.54504 12.3844,7.6746 23.7566,16.30211 29.6028,22.45801 1.8954,1.99582 3.8544,3.62876 4.3534,3.62876 0.499,0 3.8982,-3.0375 7.5539,-6.75 z m -86.9622,-16.63244 8.3913,-4.28199 -0.1982,-9.01675 c -0.5964,-27.13811 13.0856,-45.64592 37.5808,-50.83594 3.7591,-0.79649 7.7348,-1.46337 8.8348,-1.48197 1.4371,-0.0243 2.8443,-1.74294 5,-6.10682 1.65,-3.34016 6.0587,-10.15156 9.7971,-15.13645 4.5705,-6.0944 6.4667,-9.39387 5.7884,-10.07213 -0.5548,-0.55479 -7.8885,-1.20762 -16.2971,-1.45075 -11.8382,-0.34228 -16.8448,-0.0757 -22.1854,1.18129 -18.2874,4.30429 -32.1971,17.15553 -43.1986,39.91128 l -4.6971,9.71571 -0.4972,14.64612 c -0.4711,13.87641 1.2062,37.37638 2.6594,37.26062 0.3468,-0.0276 4.4066,-1.97712 9.0218,-4.33222 z m 176.589,-2.46603 c 4.3112,-2.51792 9.1602,-9.33539 11.1663,-15.6993 l 1.7372,-5.51116 -6.4419,-6.58945 c -8.4986,-8.69325 -20.8902,-16.81323 -40.4419,-26.5009 l -16,-7.92781 -4.5579,5.01455 c -2.5069,2.758 -6.5393,8.47744 -8.9609,12.70985 l -4.4029,7.69531 2.4609,1.78238 c 10.2099,7.39498 30.6358,21.73634 41.4608,29.1102 12.2586,8.35045 13.2278,8.82148 16.9949,8.25917 2.1972,-0.32798 5.3406,-1.38226 6.9854,-2.34284 z m -250.5714,-38.20265 c 18.6006,-18.54963 32.4895,-29.8086 56.7533,-46.00664 28.4702,-19.00611 48.4339,-28.30017 81.3378,-37.86657 41.1975,-11.97767 72.7594,-25.63871 107.5,-46.52961 23.7576,-14.28636 58.8764,-40.32651 66.6778,-49.44069 8.3357,-9.73834 11.3125,-20.54251 10.499,-38.10537 -1.5613,-33.70771 -21.8173,-91.95849 -44.1403,-126.93543 -23.1187,-36.22372 -51.0888,-61.13424 -89.8911,-80.05799 -31.3699,-15.29905 -67.1289,-26.04032 -86.5059,-25.98462 -16.1855,0.0465 -22.592,7.31644 -24.6555,27.97804 -0.9182,9.1943 -3.1174,18.36109 -5.548,23.12555 -1.1457,2.2456 -4.7499,6.94965 -8.0095,10.45345 -3.2596,3.50381 -5.9241,7.1694 -5.9212,8.14578 0.01,3.30018 3.4589,7.15699 12.7747,14.28454 11.0419,8.44822 15.4804,14.0992 18.3595,23.37489 2.4774,7.98136 2.2395,15.75802 -1.2423,40.61579 -5.6487,40.32807 -13.9226,69.05067 -28.3741,98.5 l -7.3609,15 -12.8311,6.90311 c -7.0571,3.79671 -16.9656,9.56234 -22.0189,12.81252 l -9.1878,5.9094 3.9049,6.04167 c 8.092,12.51977 11.1107,26.04002 9.1911,41.16507 -0.9636,7.59286 -4.6968,19.39205 -21.7265,68.66823 -11.3096,32.725 -21.9079,63.325 -23.5517,68 l -2.9887,8.5 6.1822,-7 c 3.4002,-3.85 12.7482,-13.548 20.7732,-21.55112 z m 72.6647,-149.51597 c 15.1193,-14.94301 24.1408,-25.75305 34.7487,-41.6377 33.0539,-49.49619 41.9254,-101.98031 25.5735,-151.29521 -3.6409,-10.98034 -13.0377,-30.52675 -19.2298,-40 -2.5165,-3.85 -4.182,-7.13796 -3.701,-7.30657 0.4809,-0.16861 4.848,0.62911 9.7047,1.77272 15.4774,3.6445 31.7712,12.77911 53.1258,29.78323 3.3958,2.70402 4.5223,12.02993 4.6204,38.25062 0.095,25.45348 -1.2432,36.2629 -6.9445,56.08896 -12.9759,45.12264 -43.9259,83.6886 -93.4319,116.42267 -7.0314,4.64929 -13.6293,8.76846 -14.662,9.15372 -1.0326,0.38525 3.5556,-4.66935 10.1961,-11.23244 z M 802.13702,789.25 c 6.6975,-6.81804 10.4281,-11.84114 16.8965,-22.75 10.7879,-18.19381 12.9482,-20.85471 19.5569,-24.08803 4.8725,-2.38388 6.2886,-2.62836 12.3034,-2.12409 l 6.7971,0.56985 2.293,-5.67887 c 2.7406,-6.78724 6.6591,-14.00101 13.1882,-24.27875 2.6553,-4.17994 4.8279,-7.86054 4.8279,-8.1791 0,-1.43726 -12.1174,-2.93158 -19.5489,-2.4108 -25.1413,1.76185 -52.85,22.0247 -74.6031,54.55568 -6.5751,9.83293 -12.848,21.03645 -12.848,22.94688 0,0.96823 20.8287,20.18723 21.878,20.18723 0.365,0 4.5316,-3.9375 9.259,-8.75 z m -254.7942,-10.61988 c 4.9498,-2.06813 10.4053,-9.12203 12.8295,-16.5883 1.623,-4.99876 2.2344,-9.94778 2.592,-20.98143 0.5284,-16.30588 -0.7616,-28.29962 -4.3985,-40.896 l -2.4067,-8.3356 17.2568,-19.6644 c 9.4912,-10.81541 26.6004,-29.15248 38.0204,-40.74903 l 20.7637,-21.08465 v -6.09446 -6.09445 l -5.75,-1.10277 c -10.8318,-2.07739 -26.0225,-5.99753 -38.3844,-9.90556 -6.8011,-2.15006 -14.6679,-4.2186 -17.4817,-4.59676 -11.6859,-1.57048 -26.3325,4.09965 -37.8491,14.65253 -5.8039,5.31823 -26.7459,29.3495 -39.7713,45.63814 -4.8848,6.1086 -6.9005,12.40779 -7.7155,24.11151 -0.8147,11.69821 -3.9461,19.31026 -10.8475,26.36831 -6.3428,6.48676 -12.9453,10.08859 -24.2381,13.22252 -12.6647,3.51464 -14.383,4.22468 -17.0223,7.034 -2.7498,2.92701 -2.9075,8.5966 -0.4723,16.97338 0.9078,3.12283 1.4425,5.88589 1.1883,6.14015 -0.7734,0.77335 -8.3771,-3.49342 -12.1872,-6.83871 -4.7427,-4.16413 -7.3642,-9.5328 -8.0942,-16.57623 -0.8377,-8.0825 0.8445,-13.47313 5.368,-17.20172 4.4762,-3.68968 9.5383,-5.44646 23.1885,-8.04749 6.4908,-1.2368 11.6587,-2.83302 13.7509,-4.24729 4.7959,-3.24182 8.3179,-10.78418 8.3179,-17.81293 0,-10.49658 -3.5306,-16.73769 -12.1297,-21.44203 -4.5628,-2.49615 -6.498,-2.94338 -12.8703,-2.97437 -6.0809,-0.0296 -8.2739,0.40707 -11.5901,2.30778 -10.5435,6.04311 -9.8787,18.38112 1.6269,30.19351 2.6457,2.71625 4.4421,5.16627 3.9919,5.44449 -1.496,0.92458 -11.2377,-1.44834 -14.6801,-3.57581 -3.9491,-2.4407 -7.6847,-7.14215 -9.0631,-11.40645 l -0.9698,-3 -2.0475,4 c -5.598,10.9359 -6.7937,24.02615 -3.1772,34.78155 1.15,3.42015 2.5113,6.72823 3.0252,7.35131 0.5138,0.62307 1.1148,9.17307 1.3355,19 0.5559,24.75353 3.6631,35.87071 12.0952,43.27415 6.5686,5.76735 14.4547,7.38499 31.3143,6.42344 11.3472,-0.64716 11.3637,-0.6518 13.2667,-3.73921 1.048,-1.70018 2.8733,-6.01624 4.0562,-9.59124 1.9054,-5.75826 2.1603,-8.83934 2.2334,-27 l 0.082,-20.5 3.8122,-8 c 9.9794,-20.94206 33.2606,-42.5 45.8972,-42.5 17.0676,0 18.8854,21.17922 5.2355,61 -2.3566,6.875 -7.6911,21.24222 -11.8543,31.92716 -4.1633,10.68494 -7.4425,19.55425 -7.2872,19.70959 0.1553,0.15533 3.1613,-0.61359 6.68,-1.70872 l 6.3976,-1.99115 6.0595,2.46692 c 3.3327,1.3568 6.7345,2.68548 7.5595,2.95261 3.0989,1.00343 11.1827,0.59408 14.3428,-0.72629 z m 340.038,-12.89244 c 8.025,-20.16173 23.3109,-47.85155 35.5929,-64.47545 8.9607,-12.12845 22.0639,-25.47385 30.65,-31.21656 3.9674,-2.65362 7.7335,-4.99808 8.369,-5.20991 0.6355,-0.21184 2.6078,-8.0764 4.3829,-17.47681 l 3.2274,-17.09166 -9.3769,-0.65912 c -8.9767,-0.631 -9.5016,-0.5541 -12.3018,1.80209 -18.3215,15.41653 -30.9051,29.71631 -45.3921,51.5827 -12.9477,19.543 -20.2716,32.79648 -32.0659,58.02671 l -9.3556,20.01366 7.6946,3.92955 c 4.2321,2.16126 9.0447,4.82086 10.6947,5.91024 1.65,1.08937 3.45,2.00803 4,2.04146 0.55,0.0334 2.2964,-3.19618 3.8808,-7.1769 z M 998.71832,760.25 c 3.91788,-6.4625 8.95908,-15.55134 11.20268,-20.19743 l 4.0793,-8.44742 -18.25008,-3.66171 c -17.6125,-3.53375 -47.4653,-11.13632 -56.7502,-14.45248 l -4.5,-1.6072 -6.5,6.84064 c -3.965,4.17275 -8.1153,9.94799 -10.6418,14.80812 -6.5334,12.56809 -6.7713,11.31225 3.6721,19.38342 18.2433,14.09937 32.522,18.6474 59.5172,18.95726 L 991.59502,772 Z m 82.41058,-2.41511 c 29.472,-21.23328 52.9111,-64.98946 60.5226,-112.98425 2.5667,-16.18446 2.5993,-61.24515 0.054,-74.58641 -5.4349,-28.48662 -15.3601,-49.9962 -30.7055,-66.54411 -23.5369,-25.38137 -57.864,-38.61965 -100.357,-38.70279 -8.0359,-0.0157 -8.7928,0.14491 -8.1649,1.73267 2.667,6.74384 11.4868,30.42051 12.4382,33.38993 1.1161,3.48367 1.4097,3.67035 6.8393,4.34873 38.3332,4.78942 66.9679,39.37247 77.0132,93.01134 2.6435,14.1156 2.3541,49.0301 -0.5449,65.72848 -5.4725,31.52124 -14.8297,62.05281 -28.1053,91.70407 -2.8152,6.2879 -5.1186,11.58188 -5.1186,11.7644 0,0.73883 11.8082,-5.74925 16.1289,-8.86206 z M 999.78182,704.25 c 14.79768,-30.95443 21.02668,-56.71713 21.95078,-90.78682 0.8295,-30.58248 -1.0697,-43.92847 -11.3792,-79.96318 -33.05948,-115.55179 -96.71858,-192.06108 -194.58328,-233.86163 -5.8185,-2.48521 -16.3595,-6.61908 -23.4246,-9.18638 -19.3357,-7.02622 -61.5459,-18.69444 -62.7422,-17.34389 -0.494,0.55781 -4.851,44.99485 -4.4419,45.30367 0.1862,0.14057 5.9636,1.02186 12.8386,1.95841 33.2797,4.53357 66.5158,15.3269 101.8997,33.09161 23.2266,11.66104 40.0584,24.27032 59.4176,44.51175 39.6125,41.41775 70.6846,104.55567 84.2977,171.2914 3.5001,17.15841 4.2734,40.58558 1.9231,58.25963 -3.2508,24.44588 -12.9054,56.49488 -22.0393,73.1608 l -3.3899,6.18538 16.1955,3.96982 c 8.9076,2.1834 16.6777,4.01248 17.267,4.06462 0.5892,0.0522 3.3839,-4.74269 6.2104,-10.65519 z m -526.2818,-69.62337 c 8.1066,-3.81631 16.6626,-11.28633 28.7798,-25.12663 18.9531,-21.64844 29.1349,-29.98536 42.2512,-34.59535 14.2623,-5.01282 28.9416,-4.17169 55.654,3.189 28.0744,7.73601 33.675,8.65762 57.3268,9.43341 l 21.0117,0.68919 4.7031,-8.58346 c 17.1496,-31.29938 26.8878,-66.13434 31.2255,-111.6988 1.64,-17.22733 1.3455,-21.26126 -2.0485,-28.05734 -5.8305,-11.67481 -19.6917,-18.92674 -57.1579,-29.90391 -6.1899,-1.81357 -11.0433,-3.50849 -10.7853,-3.7665 0.258,-0.25801 6.2973,-1.96199 13.4207,-3.78662 16.8519,-4.31659 24.9951,-8.27806 32.6907,-15.90332 6.7107,-6.64928 10.6053,-13.81652 12.8809,-23.7045 2.5111,-10.9113 9.3902,-49.69209 11.4966,-64.8118 1.111,-7.975 2.2274,-15.98579 2.4809,-17.80175 l 0.4609,-3.30176 -6.1956,5.2853 c -3.4075,2.90691 -15.0023,14.07138 -25.7662,24.80993 l -19.5707,19.52464 -12.9195,1.85437 c -44.3806,6.37005 -82.3114,25.95173 -120.1569,62.03062 -15.1867,14.4778 -21.1318,24.44626 -41.8063,70.09865 -22.2417,49.11306 -73.6616,174.17457 -71.183,173.12872 10.7696,-4.54435 19.6557,-4.48011 32.2548,0.23316 9.7697,3.65481 14.4504,3.82565 20.9523,0.76475 z m -24.5,-30.13189 c 0,-1.28386 38.5972,-77.59791 50.073,-99.0038 14.9064,-27.80516 17.4589,-33.66348 19.2775,-44.24457 1.1524,-6.70501 1.588,-7.70393 3.2404,-7.43071 7.0651,1.1682 31.6017,1.29152 37.7665,0.18981 15.9216,-2.84536 27.859,-8.53454 38.1947,-18.20305 10.4806,-9.80417 16.3544,-20.29684 20.554,-36.7173 1.9493,-7.62163 2.9345,-9.04269 6.2877,-9.06981 1.7558,-0.0142 1.8455,0.56342 1.2311,7.93108 -1.5307,18.3539 -9.2467,38.93384 -19.3289,51.55361 -4.2144,5.27523 -5.1162,7.3002 -7.4648,16.76372 -6.2907,25.3469 -19.3758,40.57173 -38.4465,44.73339 -16.6947,3.64315 -33.7885,11.66469 -46.4568,21.80056 -16.1376,12.91172 -32.4017,35.25133 -45.8836,63.02369 L 463.58862,605 h -7.2943 c -4.0119,0 -7.2943,-0.22737 -7.2943,-0.50526 z m 117.5,-110.38091 c 11.4002,-5.4808 20.6182,-18.56837 22.1097,-31.39101 l 0.6721,-5.77718 -5.3909,3.63197 c -2.965,1.99759 -7.0173,4.28425 -9.0052,5.08148 l -3.6144,1.4495 1.3733,3.98596 c 2.3433,6.80153 -0.2689,12.73774 -6.7457,15.32925 -9.0222,3.60996 -18.4501,-4.08479 -16.4063,-13.39031 0.5684,-2.58768 0.3273,-3.0406 -1.919,-3.60438 -5.4002,-1.35537 -6.8424,0.84624 -9.1854,14.02234 -1.6127,9.06979 -1.4029,9.55978 5.1141,11.94468 6.948,2.54259 16.1037,2.03208 22.9977,-1.2823 z m 81.3144,-113.69686 c -4.0509,-8.65644 -4.7144,-15.66148 -1.9069,-20.13049 3.342,-5.31997 20.8361,-16.90959 43.6272,-28.90258 l 12.7839,-6.72707 -0.6707,3.42158 c -0.9405,4.79782 -7.7086,18.64363 -12.7715,26.12732 -5.5037,8.13504 -17.5862,19.96125 -27.1454,26.56952 -10.8426,7.49549 -10.2341,7.51115 -13.9166,-0.35828 z m -115.2096,-7.79536 c 4.8924,-4.33312 14.1827,-11.70002 20.6452,-16.37089 6.4625,-4.67087 11.7518,-8.77559 11.754,-9.1216 0,-0.34602 0.6734,-4.75635 1.4916,-9.80074 7.4091,-45.68218 37.4481,-78.23338 83.7683,-90.77384 16.8897,-4.57262 27.7262,-5.87387 48.7361,-5.85226 36.9809,0.038 72.4485,7.93241 110,24.48374 20.7758,9.15724 45.7118,23.58438 60.9893,35.28637 6.2925,4.81982 9.9473,6.92431 10.7066,6.165 0.868,-0.86794 -10.8824,-14.56144 -20.3371,-23.70019 -37.3006,-36.05419 -89.2814,-60.54629 -149.8588,-70.60981 -8.7285,-1.45003 -16.4723,-1.82501 -37.5,-1.81585 -30.4226,0.0133 -41.2154,1.48172 -62.0993,8.44913 -49.5877,16.54378 -79.6006,50.51944 -90.4803,102.42689 -2.0249,9.66069 -2.656,16.17359 -3.1181,32.17588 -0.3187,11.03489 -0.2588,22.62902 0.133,25.76473 l 0.7123,5.70128 2.781,-2.26473 c 1.5295,-1.24559 6.7838,-5.81 11.6762,-10.14311 z m 103.707,-53.50841 c 7.2535,-1.63999 15.4382,-3.30383 18.1882,-3.69743 4.8049,-0.68773 5.6633,-1.35793 22,-17.17794 9.35,-9.05426 20.0126,-18.99928 23.6946,-22.10006 l 6.6947,-5.63777 -3.6947,-0.84047 c -5.1374,-1.16871 -26.9721,-0.0593 -37.1946,1.8898 -26.6624,5.08374 -47.6351,20.86113 -59.7521,44.95067 -1.6599,3.3 -3.7031,7.6428 -4.5404,9.65066 l -1.5224,3.65066 11.4692,-3.85317 c 6.3081,-2.11924 17.404,-5.19497 24.6575,-6.83495 z"
       id="path22" />
  </g>
</svg>
