<?xml version="1.0" encoding="UTF-8" standalone="no"?>
<svg
   xmlns:dc="http://purl.org/dc/elements/1.1/"
   xmlns:cc="http://creativecommons.org/ns#"
   xmlns:rdf="http://www.w3.org/1999/02/22-rdf-syntax-ns#"
   xmlns:svg="http://www.w3.org/2000/svg"
   xmlns="http://www.w3.org/2000/svg"
   xmlns:sodipodi="http://sodipodi.sourceforge.net/DTD/sodipodi-0.dtd"
   xmlns:inkscape="http://www.inkscape.org/namespaces/inkscape"
   version="1.1"
   id="svg2"
   width="1045.1262"
   height="1337.8688"
   viewBox="0 0 1045.1262 1337.8688"
   sodipodi:docname="Whiterun.svg"
   inkscape:version="1.0.1 (3bc2e813f5, 2020-09-07)">
  <metadata
     id="metadata8">
    <rdf:RDF>
      <cc:Work
         rdf:about="">
        <dc:format>image/svg+xml</dc:format>
        <dc:type
           rdf:resource="http://purl.org/dc/dcmitype/StillImage" />
        <dc:title></dc:title>
      </cc:Work>
    </rdf:RDF>
  </metadata>
  <defs
     id="defs6" />
  <sodipodi:namedview
     pagecolor="#ffffff"
     bordercolor="#666666"
     borderopacity="1"
     objecttolerance="10"
     gridtolerance="10"
     guidetolerance="10"
     inkscape:pageopacity="0"
     inkscape:pageshadow="2"
     inkscape:window-width="1920"
     inkscape:window-height="1057"
     id="namedview4"
     showgrid="false"
     inkscape:pagecheckerboard="true"
     inkscape:zoom="0.49"
     inkscape:cx="473.57775"
     inkscape:cy="556.556"
     inkscape:window-x="-8"
     inkscape:window-y="-8"
     inkscape:window-maximized="1"
     inkscape:current-layer="g10" />
  <g
     inkscape:groupmode="layer"
     inkscape:label="Image"
     id="g10"
     transform="translate(-228.89402,-75)">
    <path
       style="fill:#ffffff"
       d="m 746.50003,1412.3132 c -41.03263,-9.331 -62.68596,-16.5936 -92.5,-31.025 -61.00572,-29.5295 -124.17873,-72.7834 -176.49892,-120.8469 -32.04111,-29.4342 -73.79887,-74.1114 -93.0354,-99.5397 -27.30251,-36.0905 -40.63474,-55.3014 -55.42188,-79.8595 -5.53252,-9.1882 -24.31414,-42.9176 -28.8975,-51.8961 -3.08632,-6.046 -17.9065,-38.5636 -20.34776,-44.646 -9.16884,-22.8441 -17.51484,-46.71293 -22.72796,-65.00003 -1.72469,-6.05 -3.7834,-13.25 -4.57492,-16 -0.79153,-2.75 -2.34983,-9.4272 -3.4629,-14.8382 -1.11307,-5.411 -2.24539,-10.1968 -2.51628,-10.6351 -0.70862,-1.14657 -5.39273,-29.49987 -7.10823,-43.02667 -2.3305,-18.37597 -3.2009,-62.73455 -7.0545,-359.5 -0.8999,-69.3 -1.9613,-150.3 -2.3586,-180 -0.3973,-29.7 -0.7838,-91.4625 -0.8588,-137.25 L 228.99998,75 h 522.51017 522.51005 l -0.3185,93.75 c -0.2857,84.07639 -1.6343,205.23622 -4.7499,426.75 -0.5724,40.7 -1.4572,107.075 -1.9662,147.5 -0.6433,51.08922 -1.3728,77.92118 -2.3926,88 -1.9111,18.88762 -5.3198,43.05626 -7.0518,50 -0.7546,3.025 -1.6683,7.52497 -2.0305,9.99997 -0.3621,2.475 -2.2349,11.025 -4.1616,19 -21.3804,88.49733 -62.5146,171.45033 -123.2244,248.50003 -41.0287,52.0714 -96.9145,105.7517 -152.62467,146.6011 -14.3811,10.545 -41.74547,28.9958 -53.74951,36.2414 -12.41366,7.4928 -35.89928,21.1043 -40.25049,23.3278 -2.2,1.1242 -8.275,4.296 -13.5,7.0485 -10.9124,5.7485 -52.6336,25.0096 -64.5,29.7773 -11.28932,4.5358 -22.85447,8.2611 -31.00854,9.9882 -6.52705,1.3826 -21.46216,1.8589 -25.99146,0.8289 z"
       id="path16-4"
       sodipodi:nodetypes="sssssssssssssssccccssssssssssssss" />
    <path
       style="fill:#e3b459"
       d="m 743.04473,1359.2699 c -15.3714,-3.6578 -35.93588,-10.185 -48.02406,-15.2428 -57.88996,-24.2218 -129.14295,-71.6709 -185.20232,-123.3308 -29.32048,-27.0195 -67.03288,-67.5782 -85.35267,-91.7947 -20.44945,-27.0316 -33.6292,-45.4521 -42.14374,-58.9016 -28.95193,-45.7322 -47.28422,-81.78648 -62.0325,-122 -9.60501,-26.18958 -11.83107,-33.12198 -18.7849,-58.5 -4.40339,-16.07016 -8.91239,-39.89292 -12.11346,-64 -2.31298,-17.41896 -3.16858,-61.06584 -7.03737,-359 -0.89989,-69.3 -1.96124,-150.3 -2.35856,-180 -0.39732,-29.7 -0.78377,-78.1875 -0.85877,-107.75 L 279,125 h 472.51443 472.51447 l -0.3273,64.25 c -0.2989,58.67109 -2.0638,206.28119 -4.7498,397.25 -0.5724,40.7 -1.4536,107.075 -1.9582,147.5 -0.922,73.8648 -1.3223,82.18602 -5.461,113.5 -9.4033,71.14626 -38.1276,149.95872 -78.3599,215 -62.1789,100.5213 -152.30898,186.223 -263.1727,250.2422 -27.20298,15.7086 -72.77386,37.2514 -96,45.3822 -14.1022,4.9368 -14.89899,4.9663 -30.95527,1.1455 z M 488.61463,1097.452 C 534.1735,1089.5072 569.45967,1057.8418 601.10975,996.5 606.64642,985.76926 615,965.07699 615,962.09311 c 0,-5.64671 9.04625,-22.38159 18.27904,-33.81483 12.53312,-15.52014 38.70834,-32.72826 67.40614,-44.31417 l 8.18519,-3.30453 8.39758,7.92021 c 9.96024,9.39404 18.32853,14.54989 29.23205,18.01037 23.23088,7.37287 48.94586,1.77193 74.85807,-16.30473 l 7.85806,-5.48189 6.7942,3.13165 c 18.26705,8.41983 37.792,7.75576 56.99624,-1.93851 7.37509,-3.72293 20.1704,-13.39099 26.94343,-20.35828 5.13526,-5.28255 5.57672,-5.5233 7.64421,-4.16863 8.22573,5.38971 25.57341,7.10815 39.58513,3.92125 17.50484,-3.98139 30.06811,-11.56484 47.63436,-28.75309 14.6591,-14.34358 22.3938,-23.67863 33.6877,-40.65766 8.1022,-12.1808 8.4585,-12.5544 13.1631,-13.80017 7.8285,-2.07298 20.6138,-8.72907 29.2115,-15.20762 31.5228,-23.75313 54.3314,-68.37638 63.2024,-123.6504 2.6497,-16.51004 3.6952,-51.41986 1.9865,-66.3321 -4.1553,-36.26466 -15.9138,-63.45388 -36.8225,-85.14456 C 1093.8496,465.50303 1056.8317,452 1010.008,452 c -11.54281,0 -13.14407,-0.20457 -13.69781,-1.75 -0.34487,-0.9625 -3.83955,-8.725 -7.76597,-17.25 -13.33172,-28.94574 -31.12485,-58.46605 -47.54151,-78.87537 -9.49382,-11.8028 -30.13411,-31.87148 -39.65227,-38.55416 -4.1093,-2.88512 -7.57136,-6.17254 -8.34784,-7.92672 -3.24129,-7.32258 -14.22619,-21.88972 -23.46888,-31.12223 C 832.84999,239.87823 771.53161,211.38785 708,201.46807 c -14.08177,-2.19872 -50.53265,-3.07364 -64.06728,-1.53779 -38.62491,4.38298 -69.24764,17.7453 -92.73326,40.46443 -30.41104,29.41854 -44.43984,67.90313 -45.78691,125.60529 -0.51514,22.06571 -2.21956,36.30699 -5.44375,45.48518 -0.96891,2.75815 -4.78515,11.53982 -8.48053,19.51482 -19.28531,41.61953 -43.78481,98.97237 -63.00781,147.5 -11.44277,28.88678 -34.87696,91.22754 -37.21458,99 -2.04043,6.78434 -1.18921,20.00839 1.80235,28 1.89794,5.07014 2.36126,8.94456 2.98961,25 1.01947,26.04906 4.00344,37.02767 12.67202,46.62274 7.316,8.09795 16.73739,10.87726 36.87201,10.87726 6.72901,0 12.85226,0.23704 13.60723,0.52674 1.06599,0.40906 0.63645,2.05278 -1.92255,7.35702 -6.45841,13.38682 -7.65023,20.13058 -7.70829,43.61624 -0.0401,16.20884 0.36525,23.2815 1.77654,31 2.47411,13.53119 9.55821,41.1439 14.62347,57 13.1189,41.0669 16.88518,66.50242 14.94308,100.918 -1.06354,18.8468 -5.05731,50.6207 -8.52603,67.832 -0.5299,2.6293 -0.38087,2.75 3.39423,2.75 2.17166,0 7.94294,-0.6966 12.82508,-1.548 z m 8.46432,-61.0353 c 0.048,-1.165 0.28494,-1.4019 0.60416,-0.6042 0.28887,0.7219 0.25335,1.5844 -0.0789,1.9167 -0.33229,0.3323 -0.56864,-0.2584 -0.52522,-1.3125 z m 15,-10 c 0.048,-1.165 0.28494,-1.4019 0.60416,-0.6042 0.28887,0.7219 0.25335,1.5844 -0.0789,1.9167 -0.33229,0.3323 -0.56864,-0.2584 -0.52522,-1.3125 z m 1.27601,-22.9167 c -0.003,-4.95 0.16605,-7.10108 0.37577,-4.78017 0.20972,2.32087 0.21222,6.37087 0.006,8.99997 -0.20667,2.6291 -0.37827,0.7302 -0.38131,-4.2198 z m -16.27601,-4.08333 c 0.048,-1.16495 0.28494,-1.4019 0.60416,-0.60417 0.28887,0.72187 0.25335,1.5844 -0.0789,1.9167 -0.33229,0.3323 -0.56864,-0.2584 -0.52522,-1.31253 z M 630,912.62244 c 0,-0.20765 0.7875,-0.99515 1.75,-1.75 1.58606,-1.24387 1.62143,-1.2085 0.37756,0.37756 C 630.82119,912.91575 630,913.44548 630,912.62244 Z m -99.23834,-23.3297 c 1.24391,-0.23919 3.04391,-0.23011 4,0.0202 0.95609,0.25029 -0.0617,0.446 -2.26166,0.4349 -2.2,-0.0111 -2.98225,-0.21589 -1.73834,-0.45508 z m 328.50209,-7.01032 c 1.52006,-0.22986 3.77006,-0.22371 5,0.0136 1.22994,0.23736 -0.0137,0.42542 -2.76375,0.41792 -2.75,-0.008 -3.75631,-0.20172 -2.23625,-0.43157 z m -134.80487,-3.34895 c -0.36253,-0.58659 -0.44468,-1.281 -0.18255,-1.54313 0.26212,-0.26213 0.74306,0.21781 1.06875,1.06653 0.67618,1.76211 0.0998,2.07206 -0.8862,0.4766 z M 823.5,871 c 0.99549,-1.1 2.03498,-2 2.30998,-2 0.275,0 -0.31449,0.9 -1.30998,2 -0.99549,1.1 -2.03498,2 -2.30998,2 -0.275,0 0.31449,-0.9 1.30998,-2 z M 803,855.62244 c 0,-0.20765 0.7875,-0.99515 1.75,-1.75 1.58606,-1.24387 1.62143,-1.2085 0.37756,0.37756 C 803.82119,855.91575 803,856.44548 803,855.62244 Z M 461.15789,851 c 0,-1.375 0.22698,-1.9375 0.50439,-1.25 0.27741,0.6875 0.27741,1.8125 0,2.5 -0.27741,0.6875 -0.50439,0.125 -0.50439,-1.25 z M 771,852.33386 c -7.20044,-1.13413 -7.38644,-1.24937 -5.45726,-3.38108 2.33006,-2.57469 3.30116,-2.43231 7.41949,1.08786 3.37882,2.88808 3.19302,3.10522 -1.96223,2.29322 z M 751.5,844 c 0.99549,-1.1 2.03498,-2 2.30998,-2 0.275,0 -0.31449,0.9 -1.30998,2 -0.99549,1.1 -2.03498,2 -2.30998,2 -0.275,0 0.31449,-0.9 1.30998,-2 z M 461.15789,834 c 0,-1.375 0.22698,-1.9375 0.50439,-1.25 0.27741,0.6875 0.27741,1.8125 0,2.5 -0.27741,0.6875 -0.50439,0.125 -0.50439,-1.25 z m 120.03706,-1.5 c 0.0204,-1.65 0.2445,-2.20394 0.49804,-1.23097 0.25354,0.97297 0.23687,2.32297 -0.0371,3 -0.27393,0.67703 -0.48137,-0.11903 -0.46099,-1.76903 z M 701,828.94098 c 0,-0.58246 0.45,-0.7809 1,-0.44098 0.55,0.33992 1,0.81648 1,1.05902 0,0.24254 -0.45,0.44098 -1,0.44098 -0.55,0 -1,-0.47656 -1,-1.05902 z M 803,825.5 c -2.42903,-2.475 -4.19142,-4.5 -3.91642,-4.5 0.275,0 2.48739,2.025 4.91642,4.5 2.42903,2.475 4.19142,4.5 3.91642,4.5 -0.275,0 -2.48739,-2.025 -4.91642,-4.5 z m -65.26667,0.37591 c 0.67834,-0.68342 1.48524,-0.99067 1.79313,-0.68278 0.30789,0.30789 -0.24711,0.86705 -1.23333,1.24258 -1.4252,0.54268 -1.54006,0.42782 -0.5598,-0.5598 z M 1008.9582,821.75 c 4.144,-4.41519 5.0418,-5.20909 5.0418,-4.45821 0,0.16049 -2.1375,2.29799 -4.75,4.75 L 1004.5,826.5 Z M 487.29966,817 c 0,-3.025 0.18747,-4.2625 0.41659,-2.75 0.22913,1.5125 0.22913,3.9875 0,5.5 -0.22912,1.5125 -0.41659,0.275 -0.41659,-2.75 z M 629,817.5 c 1.86578,-1.925 3.61733,-3.5 3.89233,-3.5 0.275,0 -1.02655,1.575 -2.89233,3.5 -1.86578,1.925 -3.61733,3.5 -3.89233,3.5 -0.275,0 1.02655,-1.575 2.89233,-3.5 z M 684.27236,805 c 0,-2.475 0.19502,-3.4875 0.43337,-2.25 0.23836,1.2375 0.23836,3.2625 0,4.5 -0.23835,1.2375 -0.43337,0.225 -0.43337,-2.25 z M 793,797.68709 c 0,-0.1721 1.4625,-1.6346 3.25,-3.25 l 3.25,-2.93709 -2.93709,3.25 C 793.82513,797.77946 793,798.45965 793,797.68709 Z M 787.87244,794.25 c -1.24387,-1.58606 -1.2085,-1.62143 0.37756,-0.37756 1.66575,1.30637 2.19548,2.12756 1.37244,2.12756 -0.20765,0 -0.99515,-0.7875 -1.75,-1.75 z M 737,789.62244 c 0,-0.20765 0.7875,-0.99515 1.75,-1.75 1.58606,-1.24387 1.62143,-1.2085 0.37756,0.37756 C 737.82119,789.91575 737,790.44548 737,789.62244 Z m -51.92105,-2.20577 c 0.048,-1.16495 0.28494,-1.4019 0.60416,-0.60417 0.28887,0.72187 0.25335,1.58438 -0.0789,1.91667 -0.33229,0.33229 -0.56864,-0.25834 -0.52522,-1.3125 z M 759.87244,783.25 c -1.24387,-1.58606 -1.2085,-1.62143 0.37756,-0.37756 0.9625,0.75485 1.75,1.54235 1.75,1.75 0,0.82304 -0.82119,0.29331 -2.12756,-1.37244 z m 16,0 c -1.24387,-1.58606 -1.2085,-1.62143 0.37756,-0.37756 0.9625,0.75485 1.75,1.54235 1.75,1.75 0,0.82304 -0.82119,0.29331 -2.12756,-1.37244 z M 506,776.94098 c 0,-0.58246 0.45,-0.7809 1,-0.44098 0.55,0.33992 1,0.81648 1,1.05902 0,0.24254 -0.45,0.44098 -1,0.44098 -0.55,0 -1,-0.47656 -1,-1.05902 z m -66.75,-0.65723 c 1.5125,-0.22913 3.9875,-0.22913 5.5,0 1.5125,0.22912 0.275,0.41659 -2.75,0.41659 -3.025,0 -4.2625,-0.18747 -2.75,-0.41659 z M 732,773.5 c 1.29175,-1.375 2.57363,-2.5 2.84863,-2.5 0.275,0 -0.55688,1.125 -1.84863,2.5 -1.29175,1.375 -2.57363,2.5 -2.84863,2.5 -0.275,0 0.55688,-1.125 1.84863,-2.5 z m 237.75,-2.16228 c 0.6875,-0.27741 1.8125,-0.27741 2.5,0 0.6875,0.27741 0.125,0.50439 -1.25,0.50439 -1.375,0 -1.9375,-0.22698 -1.25,-0.50439 z M 470.15789,749 c 0,-1.375 0.22698,-1.9375 0.50439,-1.25 0.27741,0.6875 0.27741,1.8125 0,2.5 -0.27741,0.6875 -0.50439,0.125 -0.50439,-1.25 z m 0,-11 c 0,-1.375 0.22698,-1.9375 0.50439,-1.25 0.27741,0.6875 0.27741,1.8125 0,2.5 -0.27741,0.6875 -0.50439,0.125 -0.50439,-1.25 z m -63,-4 c 0,-1.375 0.22698,-1.9375 0.50439,-1.25 0.27741,0.6875 0.27741,1.8125 0,2.5 -0.27741,0.6875 -0.50439,0.125 -0.50439,-1.25 z M 799,734.62244 c 0,-0.20765 0.7875,-0.99515 1.75,-1.75 1.58606,-1.24387 1.62143,-1.2085 0.37756,0.37756 C 799.82119,734.91575 799,735.44548 799,734.62244 Z M 407.232,716 c 0,-1.925 0.2058,-2.7125 0.45733,-1.75 0.25152,0.9625 0.25152,2.5375 0,3.5 -0.25153,0.9625 -0.45733,0.175 -0.45733,-1.75 z m 107.84695,-4.58333 c 0.048,-1.16495 0.28494,-1.4019 0.60416,-0.60417 0.28887,0.72187 0.25335,1.58438 -0.0789,1.91667 -0.33229,0.33229 -0.56864,-0.25834 -0.52522,-1.3125 z m 0,-12 c 0.048,-1.16495 0.28494,-1.4019 0.60416,-0.60417 0.28887,0.72187 0.25335,1.58438 -0.0789,1.91667 -0.33229,0.33229 -0.56864,-0.25834 -0.52522,-1.3125 z M 473.5,694 c 0.99549,-1.1 2.03498,-2 2.30998,-2 0.275,0 -0.31449,0.9 -1.30998,2 -0.99549,1.1 -2.03498,2 -2.30998,2 -0.275,0 0.31449,-0.9 1.30998,-2 z m 11.75218,-27.5 c 0.0111,-2.2 0.21589,-2.98225 0.45508,-1.73834 0.23919,1.24391 0.23011,3.04391 -0.0202,4 -0.25029,0.95609 -0.446,-0.0617 -0.4349,-2.26166 z m 590.82672,-9.08333 c 0.048,-1.16495 0.285,-1.4019 0.6042,-0.60417 0.2889,0.72187 0.2534,1.58438 -0.079,1.91667 -0.3323,0.33229 -0.5687,-0.25834 -0.5253,-1.3125 z M 591,651.62244 c 0,-0.20765 0.7875,-0.99515 1.75,-1.75 1.58606,-1.24387 1.62143,-1.2085 0.37756,0.37756 C 591.82119,651.91575 591,652.44548 591,651.62244 Z M 457.40499,648.75 455.5,646.5 l 2.25,1.90499 c 1.2375,1.04774 2.25,2.06024 2.25,2.25 0,0.80025 -0.80479,0.20945 -2.59501,-1.90499 z M 931.5,646 c 2.70865,-2.75 5.14982,-5 5.42482,-5 0.275,0 -1.71617,2.25 -4.42482,5 -2.70865,2.75 -5.14982,5 -5.42482,5 -0.275,0 1.71617,-2.25 4.42482,-5 z m 120.6949,0.5 c 0.02,-1.65 0.2445,-2.20394 0.4981,-1.23097 0.2535,0.97297 0.2369,2.32297 -0.037,3 -0.2739,0.67703 -0.4813,-0.11903 -0.461,-1.76903 z M 707,637.5 c 1.29175,-1.375 2.57363,-2.5 2.84863,-2.5 0.275,0 -0.55688,1.125 -1.84863,2.5 -1.29175,1.375 -2.57363,2.5 -2.84863,2.5 -0.275,0 0.55688,-1.125 1.84863,-2.5 z m 435.0789,-1.08333 c 0.048,-1.16495 0.285,-1.4019 0.6042,-0.60417 0.2889,0.72187 0.2534,1.58438 -0.079,1.91667 -0.3323,0.33229 -0.5687,-0.25834 -0.5253,-1.3125 z M 617.98213,623.75 C 627.71816,613.76517 629,612.54566 629,613.26787 c 0,0.14732 -4.8375,4.98482 -10.75,10.75 L 607.5,634.5 Z m 434.21277,5.75 c 0.02,-1.65 0.2445,-2.20394 0.4981,-1.23097 0.2535,0.97297 0.2369,2.32297 -0.037,3 -0.2739,0.67703 -0.4813,-0.11903 -0.461,-1.76903 z M 716,628.5 c 1.29175,-1.375 2.57363,-2.5 2.84863,-2.5 0.275,0 -0.55688,1.125 -1.84863,2.5 -1.29175,1.375 -2.57363,2.5 -2.84863,2.5 -0.275,0 0.55688,-1.125 1.84863,-2.5 z m 360.0789,0.91667 c 0.048,-1.16495 0.285,-1.4019 0.6042,-0.60417 0.2889,0.72187 0.2534,1.58438 -0.079,1.91667 -0.3323,0.33229 -0.5687,-0.25834 -0.5253,-1.3125 z m -121.80987,-0.10966 c 0.97297,-0.25354 2.32297,-0.23687 3,0.0371 0.67703,0.27393 -0.11903,0.48137 -1.76903,0.46099 -1.65,-0.0204 -2.20394,-0.2445 -1.23097,-0.49804 z m 188.80987,-3.89034 c 0.048,-1.16495 0.285,-1.4019 0.6042,-0.60417 0.2889,0.72187 0.2534,1.58438 -0.079,1.91667 -0.3323,0.33229 -0.5687,-0.25834 -0.5253,-1.3125 z M 1021.1579,624 c 0,-1.375 0.227,-1.9375 0.5044,-1.25 0.2774,0.6875 0.2774,1.8125 0,2.5 -0.2774,0.6875 -0.5044,0.125 -0.5044,-1.25 z m 78.921,-13.58333 c 0.048,-1.16495 0.285,-1.4019 0.6042,-0.60417 0.2889,0.72187 0.2534,1.58438 -0.079,1.91667 -0.3323,0.33229 -0.5687,-0.25834 -0.5253,-1.3125 z M 987.29966,603 c 0,-3.025 0.18747,-4.2625 0.41659,-2.75 0.22913,1.5125 0.22913,3.9875 0,5.5 -0.22912,1.5125 -0.41659,0.275 -0.41659,-2.75 z m 33.77924,-14.58333 c 0.048,-1.16495 0.285,-1.4019 0.6042,-0.60417 0.2889,0.72187 0.2534,1.58438 -0.079,1.91667 -0.3323,0.33229 -0.5687,-0.25834 -0.5253,-1.3125 z m -361.8289,-1.106 c 0.9625,-0.25152 2.5375,-0.25152 3.5,0 0.9625,0.25153 0.175,0.45733 -1.75,0.45733 -1.925,0 -2.7125,-0.2058 -1.75,-0.45733 z m 483.8289,-0.894 c 0.048,-1.16495 0.285,-1.4019 0.6042,-0.60417 0.2889,0.72187 0.2534,1.58438 -0.079,1.91667 -0.3323,0.33229 -0.5687,-0.25834 -0.5253,-1.3125 z m -506.8289,-0.106 c 0.9625,-0.25152 2.5375,-0.25152 3.5,0 0.9625,0.25153 0.175,0.45733 -1.75,0.45733 -1.925,0 -2.7125,-0.2058 -1.75,-0.45733 z m -72.5,-4.0164 c 1.2375,-0.23836 3.2625,-0.23836 4.5,0 1.2375,0.23835 0.225,0.43337 -2.25,0.43337 -2.475,0 -3.4875,-0.19502 -2.25,-0.43337 z m 456.3289,-4.8776 c 0.048,-1.16495 0.285,-1.4019 0.6042,-0.60417 0.2889,0.72187 0.2534,1.58438 -0.079,1.91667 -0.3323,0.33229 -0.5687,-0.25834 -0.5253,-1.3125 z M 559.75,571.33772 c 0.6875,-0.27741 1.8125,-0.27741 2.5,0 0.6875,0.27741 0.125,0.50439 -1.25,0.50439 -1.375,0 -1.9375,-0.22698 -1.25,-0.50439 z m 7.51903,-0.0307 c 0.97297,-0.25354 2.32297,-0.23687 3,0.0371 0.67703,0.27393 -0.11903,0.48137 -1.76903,0.46099 -1.65,-0.0204 -2.20394,-0.2445 -1.23097,-0.49804 z m 391.80992,-9.89034 c 0.048,-1.16495 0.28494,-1.4019 0.60416,-0.60417 0.28887,0.72187 0.25335,1.58438 -0.0789,1.91667 -0.33229,0.33229 -0.56864,-0.25834 -0.52522,-1.3125 z M 500,545.62244 c 0,-0.20765 0.7875,-0.99515 1.75,-1.75 1.58606,-1.24387 1.62143,-1.2085 0.37756,0.37756 C 500.82119,545.91575 500,546.44548 500,545.62244 Z M 1066.8724,528.25 c -1.2438,-1.58606 -1.2085,-1.62143 0.3776,-0.37756 0.9625,0.75485 1.75,1.54235 1.75,1.75 0,0.82304 -0.8212,0.29331 -2.1276,-1.37244 z m -5,-5 c -1.2438,-1.58606 -1.2085,-1.62143 0.3776,-0.37756 0.9625,0.75485 1.75,1.54235 1.75,1.75 0,0.82304 -0.8212,0.29331 -2.1276,-1.37244 z M 777.07895,502.41667 c 0.048,-1.16495 0.28494,-1.4019 0.60416,-0.60417 0.28887,0.72187 0.25335,1.58438 -0.0789,1.91667 -0.33229,0.33229 -0.56864,-0.25834 -0.52522,-1.3125 z m 37,-19 c 0.048,-1.16495 0.28494,-1.4019 0.60416,-0.60417 0.28887,0.72187 0.25335,1.58438 -0.0789,1.91667 -0.33229,0.33229 -0.56864,-0.25834 -0.52522,-1.3125 z M 777.15789,481 c 0,-1.375 0.22698,-1.9375 0.50439,-1.25 0.27741,0.6875 0.27741,1.8125 0,2.5 -0.27741,0.6875 -0.50439,0.125 -0.50439,-1.25 z M 1019.75,465.33772 c 0.6875,-0.27741 1.8125,-0.27741 2.5,0 0.6875,0.27741 0.125,0.50439 -1.25,0.50439 -1.375,0 -1.9375,-0.22698 -1.25,-0.50439 z m -292.67105,-3.92105 c 0.048,-1.16495 0.28494,-1.4019 0.60416,-0.60417 0.28887,0.72187 0.25335,1.58438 -0.0789,1.91667 -0.33229,0.33229 -0.56864,-0.25834 -0.52522,-1.3125 z M 715.232,453 c 0,-1.925 0.2058,-2.7125 0.45733,-1.75 0.25152,0.9625 0.25152,2.5375 0,3.5 -0.25153,0.9625 -0.45733,0.175 -0.45733,-1.75 z m 98.84695,-4.58333 c 0.048,-1.16495 0.28494,-1.4019 0.60416,-0.60417 0.28887,0.72187 0.25335,1.58438 -0.0789,1.91667 -0.33229,0.33229 -0.56864,-0.25834 -0.52522,-1.3125 z M 697.87244,410.25 c -1.24387,-1.58606 -1.2085,-1.62143 0.37756,-0.37756 1.66575,1.30637 2.19548,2.12756 1.37244,2.12756 -0.20765,0 -0.99515,-0.7875 -1.75,-1.75 z M 523.5,400 c 0.99549,-1.1 2.03498,-2 2.30998,-2 0.275,0 -0.31449,0.9 -1.30998,2 -0.99549,1.1 -2.03498,2 -2.30998,2 -0.275,0 0.31449,-0.9 1.30998,-2 z m 13,-13 c 0.99549,-1.1 2.03498,-2 2.30998,-2 0.275,0 -0.31449,0.9 -1.30998,2 -0.99549,1.1 -2.03498,2 -2.30998,2 -0.275,0 0.31449,-0.9 1.30998,-2 z M 522,381.62244 c 0,-0.20765 0.7875,-0.99515 1.75,-1.75 1.58606,-1.24387 1.62143,-1.2085 0.37756,0.37756 C 522.82119,381.91575 522,382.44548 522,381.62244 Z m 192.07895,-18.20577 c 0.048,-1.16495 0.28494,-1.4019 0.60416,-0.60417 0.28887,0.72187 0.25335,1.58438 -0.0789,1.91667 -0.33229,0.33229 -0.56864,-0.25834 -0.52522,-1.3125 z M 907.87244,358.25 c -1.24387,-1.58606 -1.2085,-1.62143 0.37756,-0.37756 1.66575,1.30637 2.19548,2.12756 1.37244,2.12756 -0.20765,0 -0.99515,-0.7875 -1.75,-1.75 z M 674.5,318 c 0.99549,-1.1 2.03498,-2 2.30998,-2 0.275,0 -0.31449,0.9 -1.30998,2 -0.99549,1.1 -2.03498,2 -2.30998,2 -0.275,0 0.31449,-0.9 1.30998,-2 z m 23,-23 c 0.99549,-1.1 2.03498,-2 2.30998,-2 0.275,0 -0.31449,0.9 -1.30998,2 -0.99549,1.1 -2.03498,2 -2.30998,2 -0.275,0 0.31449,-0.9 1.30998,-2 z m 29.57895,-1.58333 c 0.048,-1.16495 0.28494,-1.4019 0.60416,-0.60417 0.28887,0.72187 0.25335,1.58438 -0.0789,1.91667 -0.33229,0.33229 -0.56864,-0.25834 -0.52522,-1.3125 z M 686.5,288 c 0.99549,-1.1 2.03498,-2 2.30998,-2 0.275,0 -0.31449,0.9 -1.30998,2 -0.99549,1.1 -2.03498,2 -2.30998,2 -0.275,0 0.31449,-0.9 1.30998,-2 z m 22.5,-3.37756 c 0,-0.20765 0.7875,-0.99515 1.75,-1.75 1.58606,-1.24387 1.62143,-1.2085 0.37756,0.37756 C 709.82119,284.91575 709,285.44548 709,284.62244 Z m 19.07895,-2.20577 c 0.048,-1.16495 0.28494,-1.4019 0.60416,-0.60417 0.28887,0.72187 0.25335,1.58438 -0.0789,1.91667 -0.33229,0.33229 -0.56864,-0.25834 -0.52522,-1.3125 z m -44.80992,-13.10966 c 0.97297,-0.25354 2.32297,-0.23687 3,0.0371 0.67703,0.27393 -0.11903,0.48137 -1.76903,0.46099 -1.65,-0.0204 -2.20394,-0.2445 -1.23097,-0.49804 z m 13.49263,-0.0143 c 1.24391,-0.23919 3.04391,-0.23011 4,0.0202 0.95609,0.25029 -0.0617,0.446 -2.26166,0.4349 -2.2,-0.0111 -2.98225,-0.21589 -1.73834,-0.45508 z M 685.75,240.33772 c 0.6875,-0.27741 1.8125,-0.27741 2.5,0 0.6875,0.27741 0.125,0.50439 -1.25,0.50439 -1.375,0 -1.9375,-0.22698 -1.25,-0.50439 z m 23,0 c 0.6875,-0.27741 1.8125,-0.27741 2.5,0 0.6875,0.27741 0.125,0.50439 -1.25,0.50439 -1.375,0 -1.9375,-0.22698 -1.25,-0.50439 z m -55.9375,-30.02083 c 0.72187,-0.28887 1.58438,-0.25335 1.91667,0.0789 0.33229,0.33229 -0.25834,0.56864 -1.3125,0.52522 -1.16495,-0.048 -1.4019,-0.28494 -0.60417,-0.60416 z m 39,0 c 0.72187,-0.28887 1.58438,-0.25335 1.91667,0.0789 0.33229,0.33229 -0.25834,0.56864 -1.3125,0.52522 -1.16495,-0.048 -1.4019,-0.28494 -0.60417,-0.60416 z M 244.28601,271.5 c 0.008,-2.75 0.20172,-3.75631 0.43157,-2.23625 0.22986,1.52006 0.22371,3.77006 -0.0136,5 -0.23736,1.22994 -0.42542,-0.0138 -0.41792,-2.76375 z"
       id="path24" />
    <path
       style="fill:#000000"
       d="m 746.5,1412.3191 c -40.33262,-9.0517 -62.49618,-16.485 -92.5,-31.0232 -61.1215,-29.616 -124.18829,-72.7999 -176.49892,-120.8546 -32.04111,-29.4342 -73.79887,-74.1114 -93.0354,-99.5397 -27.73724,-36.6652 -40.38968,-54.895 -55.39081,-79.808 -5.55693,-9.2287 -24.33341,-42.9459 -28.92857,-51.9476 -3.14059,-6.1523 -18.10979,-38.94182 -19.69716,-43.146 -0.72682,-1.925 -2.74193,-6.875 -4.47803,-11 -3.28499,-7.80519 -4.95433,-12.44198 -11.7007,-32.5 -7.82984,-23.27935 -10.28259,-31.95819 -14.80703,-52.39336 -1.3874,-6.26635 -2.72884,-11.72715 -2.98098,-12.13512 -0.68085,-1.10164 -5.39839,-29.75813 -7.07414,-42.97152 -2.33229,-18.39028 -3.2273,-64.0448 -7.0476,-359.5 -0.89607,-69.3 -1.93687,-144.675 -2.31289,-167.5 -0.37603,-22.825 -0.78945,-84.5875 -0.91872,-137.25 L 228.89402,75 h 522.56311 522.56307 l -0.3185,93.75 c -0.2857,84.07639 -1.6343,205.23622 -4.7499,426.75 -0.5724,40.7 -1.4572,107.075 -1.9662,147.5 -0.6433,51.08922 -1.3728,77.92118 -2.3926,88 -1.9111,18.88762 -5.3198,43.05626 -7.0518,50 -0.7546,3.025 -1.6663,7.525 -2.0261,10 -0.3597,2.475 -2.0055,10.125 -3.6572,17 -17.4005,72.42793 -46.8629,139.2069 -90.2237,204.5 -15.6519,23.5688 -40.7829,56.2351 -59.6729,77.5653 -24.8111,28.0162 -66.8545,68.0457 -96.4613,91.8407 -35.47762,28.5133 -64.45244,48.3553 -105.74951,72.4172 -7.83777,4.5667 -16.05049,9.2229 -18.25049,10.3471 -2.2,1.1242 -8.275,4.296 -13.5,7.0485 -10.9124,5.7485 -52.6336,25.0096 -64.5,29.7773 -11.28932,4.5358 -22.85447,8.2611 -31.00854,9.9882 -6.51246,1.3795 -21.42969,1.8586 -25.99146,0.8348 z m 34,-18.3389 c 13.76307,-4.4465 25.42093,-9.2233 44.5,-18.234 5.225,-2.4677 11.75,-5.4897 14.5,-6.7155 12.83315,-5.7206 35.90113,-17.7276 51.5,-26.806 66.57023,-38.7433 121.1177,-80.9627 173.5867,-134.355 45.2072,-46.0027 82.9262,-96.0904 112.4343,-149.3035 9.0549,-16.3291 19.8758,-37.8123 24.9661,-49.5662 1.7864,-4.125 4.0951,-9.38781 5.1305,-11.69514 1.0353,-2.30732 1.8824,-4.44973 1.8824,-4.76089 0,-0.31117 0.8876,-2.47336 1.9724,-4.80487 2.1488,-4.61809 9.285,-24.38108 14.5298,-40.2391 5.776,-17.46377 12.6027,-43.79543 15.037,-58 0.8484,-4.95 1.9667,-10.35 2.4852,-12 1.1777,-3.7475 4.7129,-29.45483 6.6008,-48 0.9696,-9.52413 1.7227,-37.49832 2.3555,-87.5 0.5117,-40.425 1.3987,-106.8 1.9711,-147.5 3.0296,-215.39558 4.4619,-341.66812 4.7499,-418.75 L 1259.022,90 H 751.35102 243.68001 l 0.64714,128.57469 c 0.35593,70.71608 0.92147,129.01856 1.25675,129.56107 0.33529,0.5425 1.23879,57.54639 2.00779,126.6753 2.91236,261.80611 4.40961,340.35926 6.84628,359.18894 3.663,28.30632 11.2576,64.49627 18.04742,86 4.59104,14.54008 8.72778,26.78466 9.96635,29.5 0.75263,1.65 1.90288,5.025 2.55611,7.5 0.65323,2.475 1.52992,4.95 1.9482,5.5 0.41828,0.55 1.46738,3.025 2.33134,5.5 6.32575,18.12154 22.11705,51.3737 37.99163,80 20.6551,37.2469 34.56429,58.1351 69.18666,103.9016 19.01507,25.1356 58.82833,67.8167 90.05297,96.5397 50.79747,46.7278 113.50253,89.9784 170.98135,117.9338 6.6,3.21 13.575,6.6371 15.5,7.6159 1.925,0.9787 4.625,2.1089 6,2.5116 1.375,0.4026 4.85052,1.7927 7.72337,3.089 2.87286,1.2963 6.47286,2.6556 8,3.0206 1.52715,0.3649 3.22663,0.9904 3.77663,1.3899 1.42552,1.0354 19.82464,6.2721 34.5,9.8192 6.875,1.6618 13.4,3.2592 14.5,3.5499 1.1,0.2907 6.725,0.3736 12.5,0.1842 8.47083,-0.2779 12.43254,-0.9688 20.5,-3.5752 z m -40.38304,-24.5675 c -26.4164,-6.5168 -43.39391,-12.7075 -70.09149,-25.5583 -86.99454,-41.8746 -173.88078,-111.4618 -242.13495,-193.9259 -5.20253,-6.2857 -10.34371,-12.5978 -11.42484,-14.0269 -20.44945,-27.0316 -33.6292,-45.4521 -42.14374,-58.9016 -29.20277,-46.1284 -49.09606,-85.27341 -64.0325,-126 -9.60501,-26.18958 -11.83107,-33.12198 -18.7849,-58.5 -4.40339,-16.07016 -8.91239,-39.89292 -12.11346,-64 -2.31298,-17.41896 -3.16858,-61.06584 -7.03737,-359 -0.89989,-69.3 -1.96124,-150.3 -2.35856,-180 -0.39732,-29.7 -0.78377,-81.1125 -0.85877,-114.25 L 269,115 h 482.51319 482.51321 l -0.3248,70.75 c -0.2944,64.14634 -1.9368,203.75222 -4.7498,403.75 -0.5724,40.7 -1.4536,107.075 -1.9582,147.5 -0.922,73.8648 -1.3223,82.18602 -5.461,113.5 -2.5098,18.98949 -8.7681,49.48665 -13.7489,67 -28.5774,100.4822 -81.0206,189.4643 -159.3824,270.4295 -58.44457,60.3862 -132.53026,114.9079 -203.9013,150.0566 -36.40274,17.9276 -51.03599,24.4227 -68.82384,30.5483 -14.51801,4.9995 -18.45905,5.0969 -35.5592,0.8783 z M 774,1358.1244 c 16.45741,-5.7613 31.83098,-12.6024 65.5,-29.1469 33.68448,-16.5521 75.74351,-42.6591 109.78962,-68.149 C 1052.4241,1183.613 1132.32,1084.455 1174.7594,981 c 22.258,-54.25878 33.458,-99.10025 39.838,-159.5 1.0471,-9.91296 1.7466,-35.45697 2.3962,-87.5 0.5046,-40.425 1.3858,-106.8 1.9582,-147.5 2.686,-190.96881 4.4509,-338.57891 4.7498,-397.25 L 1224.0289,125 H 751.51443 279 l 0.13638,53.75 c 0.075,29.5625 0.46145,78.05 0.85877,107.75 0.39732,29.7 1.45867,110.7 2.35856,180 3.86879,297.93416 4.72439,341.58104 7.03737,359 3.20107,24.10708 7.71007,47.92984 12.11346,64 6.95383,25.37802 9.17989,32.31042 18.7849,58.5 14.74828,40.21352 33.08057,76.2678 62.0325,122 8.51454,13.4495 21.69429,31.87 42.14374,58.9016 18.31979,24.2165 56.03219,64.7752 85.35267,91.7947 56.05937,51.6599 127.31236,99.109 185.20232,123.3308 12.08818,5.0578 32.65266,11.585 48.02406,15.2428 16.05628,3.8208 16.85307,3.7913 30.95527,-1.1455 z M 472.39532,1096.25 c 3.46872,-17.2113 7.46249,-48.9852 8.52603,-67.832 1.9421,-34.41558 -1.82418,-59.8511 -14.94308,-100.918 -5.06526,-15.8561 -12.14936,-43.46881 -14.62347,-57 -1.41129,-7.7185 -1.81661,-14.79116 -1.77654,-31 0.0581,-23.48566 1.24988,-30.22942 7.70829,-43.61624 2.559,-5.30424 2.98854,-6.94796 1.92255,-7.35702 C 458.45413,788.23704 452.33088,788 445.60187,788 c -20.13462,0 -29.55601,-2.77931 -36.87201,-10.87726 -8.66858,-9.59507 -11.65255,-20.57368 -12.67202,-46.62274 -0.62835,-16.05544 -1.09167,-19.92986 -2.98961,-25 -2.99156,-7.99161 -3.84278,-21.21566 -1.80235,-28 2.33762,-7.77246 25.77181,-70.11322 37.21458,-99 19.223,-48.52763 43.7225,-105.88047 63.00781,-147.5 3.69538,-7.975 7.51162,-16.75667 8.48053,-19.51482 3.22419,-9.17819 4.92861,-23.41947 5.44375,-45.48518 1.34707,-57.70216 15.37587,-96.18675 45.78691,-125.60529 23.48562,-22.71913 54.10835,-36.08145 92.73326,-40.46443 13.53463,-1.53585 49.98551,-0.66093 64.06728,1.53779 52.54246,8.20394 103.45397,28.96235 141.99789,57.8975 17.65407,13.25302 37.22758,35.22674 43.00471,48.27818 0.77648,1.75418 4.23854,5.0416 8.34784,7.92672 9.51816,6.68268 30.15845,26.75136 39.65227,38.55416 16.41666,20.40932 34.20979,49.92963 47.54151,78.87537 3.92642,8.525 7.4211,16.2875 7.76597,17.25 0.55374,1.54543 2.155,1.75 13.69781,1.75 46.8237,0 83.8416,13.50303 109.2344,39.84542 20.9087,21.69068 32.6672,48.8799 36.8225,85.14456 1.7087,14.91224 0.6632,49.82206 -1.9865,66.3321 -10.3936,64.76145 -40.0347,114.65116 -79.3944,133.63114 -4.5012,2.17055 -10.36,4.52265 -13.0195,5.22688 -4.7046,1.24577 -5.0609,1.61937 -13.1631,13.80017 -11.2939,16.97903 -19.0286,26.31408 -33.6877,40.65766 -17.56625,17.18825 -30.12952,24.7717 -47.63436,28.75309 -14.01172,3.1869 -31.3594,1.46846 -39.58513,-3.92125 -2.06749,-1.35467 -2.50895,-1.11392 -7.64421,4.16863 -6.77303,6.96729 -19.56834,16.63535 -26.94343,20.35828 -19.20424,9.69427 -38.72919,10.35834 -56.99624,1.93851 l -6.7942,-3.13165 -7.85806,5.48189 c -25.91221,18.07666 -51.62719,23.6776 -74.85807,16.30473 -10.90352,-3.46048 -19.27181,-8.61633 -29.23205,-18.01037 l -8.39758,-7.92021 -8.18519,3.30453 c -42.90795,17.32285 -71.08475,40.90455 -82.78904,69.28775 -1.59288,3.86277 -2.89614,7.84133 -2.89614,8.84125 0,2.98388 -8.35358,23.67615 -13.89025,34.40689 -23.10574,44.7818 -48.03686,73.5633 -76.90534,88.7826 -14.37215,7.5769 -36.0446,13.7174 -48.41486,13.7174 -3.7751,0 -3.92413,-0.1207 -3.39423,-2.75 z M 505.5,1074.3374 c 22.80541,-7.1804 42.16656,-20.2876 57.77266,-39.1111 10.85059,-13.0876 26.55309,-38.12887 30.74485,-49.02983 0.99327,-2.58306 3.58877,-8.74647 5.76778,-13.69647 2.179,-4.95 5.64249,-13.95 7.69662,-20 6.47952,-19.08394 14.05678,-31.22645 27.10032,-43.42804 11.98403,-11.21048 21.97157,-16.81906 54.72046,-30.72871 26.52496,-11.26612 40.51521,-18.04196 49.75201,-24.09618 8.27479,-5.42368 18.24766,-14.77385 17.70049,-16.59528 -0.19031,-0.63349 -4.23778,-3.76507 -8.99438,-6.95909 l -8.64837,-5.80729 -5.57054,4.53726 C 726.09021,835.49215 710.57176,844.61295 693.5,852.95686 679.90223,859.60283 623.46563,885 622.29497,885 c -1.09209,0 0.72923,-15.77469 2.72005,-23.55872 6.30991,-24.67154 21.98835,-39.84494 51.78232,-50.11433 l 8.20168,-2.82695 0.0518,-8.5 c 0.0285,-4.675 0.41466,-11.65 0.85811,-15.5 0.44345,-3.85 0.66709,-7.16575 0.49698,-7.36834 -0.50427,-0.60054 -13.19732,6.61299 -23.40595,13.30173 -40.22935,26.35845 -68.13536,63.21412 -80.44829,106.24864 -1.38764,4.84988 -4.33734,19.39297 -6.55489,32.31797 -10.01849,58.39278 -20.83296,87.0081 -40.93649,108.3189 -8.1505,8.64 -24.04505,20.0297 -25.67588,18.3989 -0.23634,-0.2364 0.23657,-4.882 1.05089,-10.3238 2.27278,-15.1878 3.76919,-39.7857 3.09614,-50.894 -2.35093,-38.80038 -10.33709,-66.44623 -30.14472,-104.35258 -8.39602,-16.06768 -9.0451,-19.43612 -3.84336,-19.94537 2.23977,-0.21927 4.28103,0.64705 7.73042,3.28085 22.31219,17.03663 50.59894,20.68344 72.95085,9.40503 8.50253,-4.29023 19.35668,-15.33074 23.48471,-23.88793 9.62692,-19.95607 8.195,-39.41517 -3.86979,-52.58868 -13.3974,-14.62859 -33.9861,-19.51824 -49.39152,-11.73009 -24.77663,12.52574 -22.83252,51.24182 2.83758,56.5093 9.70666,1.99179 18.02916,-2.21106 21.29093,-10.75188 1.41117,-3.69509 1.51864,-5.17748 0.5981,-8.24995 -1.69848,-5.66903 -7.03043,-10.3054 -12.56948,-10.92973 -6.20748,-0.69968 -9.07248,1.37809 -12.75696,9.25163 -3.8193,8.16165 -5.21877,9.38303 -7.22593,6.30632 -2.26228,-3.46777 -3.78171,-11.57117 -3.06536,-16.34815 0.87855,-5.85857 5.74139,-13.94794 10.42357,-17.3397 5.4445,-3.94398 11.71199,-5.49136 19.87613,-4.90721 12.78106,0.91448 22.83008,7.61716 28.02353,18.69166 2.27934,4.86044 2.61982,6.88612 2.61982,15.58648 0,9.1815 -0.26263,10.55444 -3.20861,16.77383 -5.67464,11.97996 -16.77965,20.98968 -29.09061,23.60179 -22.87512,4.8536 -43.15344,-4.80803 -53.25964,-25.37562 -6.08523,-12.38433 -7.28748,-18.60442 -6.6683,-34.5 0.62048,-15.92929 4.04824,-30.56314 13.23426,-56.5 13.85871,-39.13028 13.85263,-39.10843 13.92576,-50 0.0731,-10.89433 -0.5752,-14.49948 -3.05322,-16.9775 -1.4898,-1.4898 -1.77409,-1.4756 -3.6049,0.18007 -1.09316,0.98859 -2.77729,3.37243 -3.74252,5.29743 -2.145,4.27787 -9.94566,28.00401 -17.55818,53.40416 -3.1161,10.39729 -7.90153,24.34729 -10.63429,31 -13.61648,33.14841 -15.32934,40.29407 -15.24434,63.59584 0.0918,25.16749 4.71717,47.59834 17.11508,83 14.78969,42.23129 18.04695,56.72914 18.98873,84.5178 0.65054,19.1951 -0.55861,34.346 -4.26828,53.4822 -1.33276,6.875 -2.42494,12.8733 -2.42707,13.3295 -0.005,1.0775 4.57063,0.1331 14.49613,-2.9921 z M 782.5399,896.49006 c 18.20866,-4.613 39.0951,-20.18456 54.96369,-40.97731 C 843.02219,848.28167 854,831.26994 854,829.94913 c 0,-0.72342 -19.44728,-14.81422 -21.48562,-15.5677 -0.55791,-0.20624 -2.99899,3.11107 -5.42461,7.3718 -12.13935,21.32329 -22.99912,34.7025 -32.25809,39.74186 -7.27203,3.95794 -18.14123,4.58998 -29.4041,1.70983 -4.36017,-1.11498 -8.62094,-2.30424 -9.46839,-2.64279 -0.96124,-0.38402 -3.78232,1.13695 -7.5,4.0436 C 742.60823,869.18026 727.94599,877 725.21956,877 c -2.32623,0 -0.99612,1.65977 5.4998,6.8629 6.91005,5.53484 16.44986,10.5726 23.8887,12.61508 6.68455,1.83538 20.71088,1.84145 27.93184,0.0121 z m 95.92259,-16.61864 C 896.39649,873.91074 915.34232,856.20603 935.04026,827 940.57153,818.79882 960,786.8239 960,785.92186 c 0,-1.34159 -13.62659,-7.72913 -18.79922,-8.81224 -9.43945,-1.97655 -9.76307,-1.84708 -12.84777,5.14038 -17.85055,40.43496 -39.94249,62.76436 -66.47389,67.18841 -3.07517,0.51277 -4.15607,1.46718 -7.17193,6.33268 -1.95308,3.1509 -6.51119,9.27949 -10.12912,13.61908 -3.61794,4.33959 -6.57807,8.01592 -6.57807,8.16963 0,0.56155 10.15699,3.63333 14.76339,4.46489 6.68144,1.20616 18.59481,0.20796 25.6991,-2.15327 z M 772.96223,850.04064 c -4.11833,-3.52017 -5.08943,-3.66255 -7.41949,-1.08786 -1.92918,2.13171 -1.74318,2.24695 5.45726,3.38108 5.15525,0.812 5.34105,0.59486 1.96223,-2.29322 z m 198.19947,-1.92798 c 7.58394,-2.93392 22.08797,-12.17167 31.2984,-19.93429 41.2563,-34.77087 74.5659,-117.5253 74.534,-185.17224 -0.014,-29.20613 -6.2863,-49.26195 -19.6265,-62.75361 -5.6637,-5.72801 -16.3821,-12.2494 -20.1367,-12.25173 -1.7636,-0.001 -0.879,3.16574 4.915,17.59492 6.3463,15.80458 8.6907,25.2618 9.8922,39.90429 5.554,67.68746 -33.5124,166.86294 -73.0381,185.41728 -4.41892,2.07435 -6.98477,2.57693 -13.05378,2.55687 l -7.55377,-0.025 -4.44623,7.40776 c -2.44542,4.07426 -7.28349,11.44843 -10.75127,16.38703 -3.46777,4.9386 -6.10606,9.17825 -5.86286,9.42145 0.2432,0.2432 2.63047,1.3229 5.30505,2.39932 6.59477,2.65417 20.39317,2.19361 28.52456,-0.95208 z M 797.85345,842.25 c 3.6556,-3.7125 7.38334,-8.1 8.28385,-9.75 l 1.63731,-3 -25.87827,-25.24936 -25.87826,-25.24936 -5.13659,1.95175 c -10.4933,3.98714 -15.81918,9.3638 -17.73895,17.90809 l -0.96647,4.30143 6.16197,6.20564 c 3.63145,3.65719 11.02567,9.21969 18.0054,13.54504 12.38436,7.6746 23.7566,16.30211 29.60273,22.45801 1.89539,1.99582 3.85444,3.62876 4.35345,3.62876 0.499,0 3.89822,-3.0375 7.55383,-6.75 z m -86.96213,-16.63244 8.39132,-4.28199 -0.19819,-9.01675 c -0.5965,-27.13811 13.08551,-45.64592 37.58076,-50.83594 3.75913,-0.79649 7.73479,-1.46337 8.83479,-1.48197 1.43714,-0.0243 2.84429,-1.74294 5,-6.10682 1.65,-3.34016 6.0587,-10.15156 9.7971,-15.13645 4.57049,-6.0944 6.46667,-9.39387 5.78841,-10.07213 -0.55479,-0.55479 -7.88849,-1.20762 -16.29711,-1.45075 -11.83824,-0.34228 -16.84485,-0.0757 -22.18537,1.18129 -18.28739,4.30429 -32.19712,17.15553 -43.19859,39.91128 l -4.69714,9.71571 -0.49722,14.64612 c -0.47109,13.87641 1.20619,37.37638 2.65943,37.26062 0.34677,-0.0276 4.40658,-1.97712 9.02181,-4.33222 z m 176.58893,-2.46603 c 4.31127,-2.51792 9.16028,-9.33539 11.16633,-15.6993 l 1.73724,-5.51116 -6.44191,-6.58945 c -8.4986,-8.69325 -20.89017,-16.81323 -40.44191,-26.5009 l -16,-7.92781 -4.55793,5.01455 c -2.50686,2.758 -6.53925,8.47744 -8.96085,12.70985 l -4.40292,7.69531 2.46085,1.78238 c 10.20991,7.39498 30.63589,21.73634 41.46085,29.1102 12.2586,8.35045 13.22783,8.82148 16.9949,8.25917 2.1972,-0.32798 5.3406,-1.38226 6.98535,-2.34284 z M 636.90894,784.94888 c 18.60055,-18.54963 32.48949,-29.8086 56.75328,-46.00664 28.47013,-19.00611 48.43386,-28.30017 81.33778,-37.86657 41.1975,-11.97767 72.75939,-25.63871 107.5,-46.52961 23.75757,-14.28636 58.87641,-40.32651 66.67782,-49.44069 8.33565,-9.73834 11.31247,-20.54251 10.49899,-38.10537 -1.56129,-33.70771 -21.81731,-91.95849 -44.14029,-126.93543 -23.11871,-36.22372 -51.08886,-61.13424 -89.8911,-80.05799 -31.36997,-15.29905 -67.12896,-26.04032 -86.50589,-25.98462 -16.1855,0.0465 -22.59207,7.31644 -24.6555,27.97804 -0.91822,9.1943 -3.11744,18.36109 -5.54808,23.12555 -1.14562,2.2456 -4.74987,6.94965 -8.00945,10.45345 -3.25957,3.50381 -5.92413,7.1694 -5.92124,8.14578 0.01,3.30018 3.45896,7.15699 12.77476,14.28454 11.04192,8.44822 15.48041,14.0992 18.35951,23.37489 2.47735,7.98136 2.23948,15.75802 -1.24233,40.61579 -5.64873,40.32807 -13.92262,69.05067 -28.3741,98.5 l -7.36085,15 -12.83113,6.90311 c -7.05711,3.79671 -16.96562,9.56234 -22.01891,12.81252 l -9.18778,5.9094 3.90491,6.04167 c 8.09192,12.51977 11.11065,26.04002 9.19111,41.16507 -0.96362,7.59286 -4.69687,19.39205 -21.72652,68.66823 -11.30964,32.725 -21.90791,63.325 -23.55171,68 l -2.98875,8.5 6.18221,-7 c 3.40021,-3.85 12.74818,-13.548 20.77326,-21.55112 z m 72.66469,-149.51597 c 15.11923,-14.94301 24.14072,-25.75305 34.74862,-41.6377 C 777.37623,544.29902 786.24766,491.8149 769.8958,442.5 c -3.64086,-10.98034 -13.03771,-30.52675 -19.22981,-40 -2.51651,-3.85 -4.18198,-7.13796 -3.70103,-7.30657 0.48095,-0.16861 4.84808,0.62911 9.70474,1.77272 15.47739,3.6445 31.77123,12.77911 53.12578,29.78323 3.39584,2.70402 4.52234,12.02993 4.62039,38.25062 0.0952,25.45348 -1.24317,36.2629 -6.94451,56.08896 -12.97584,45.12264 -43.9259,83.6886 -93.43185,116.42267 -7.03144,4.64929 -13.62932,8.76846 -14.66197,9.15372 -1.03265,0.38525 3.55559,-4.66935 10.19609,-11.23244 z M 802.13697,789.25 c 6.69748,-6.81804 10.42815,-11.84114 16.89649,-22.75 10.78791,-18.19381 12.94827,-20.85471 19.55694,-24.08803 4.87248,-2.38388 6.28855,-2.62836 12.30338,-2.12409 l 6.79716,0.56985 2.293,-5.67887 c 2.74054,-6.78724 6.65903,-14.00101 13.18812,-24.27875 2.65537,-4.17994 4.82794,-7.86054 4.82794,-8.1791 0,-1.43726 -12.11736,-2.93158 -19.54895,-2.4108 -25.14123,1.76185 -52.84999,22.0247 -74.60301,54.55568 C 777.27289,764.69882 771,775.90234 771,777.81277 771,778.781 791.82868,798 792.87801,798 c 0.36503,0 4.53156,-3.9375 9.25896,-8.75 z M 547.34282,778.63012 c 4.94973,-2.06813 10.40526,-9.12203 12.82948,-16.5883 1.62305,-4.99876 2.23443,-9.94778 2.59199,-20.98143 0.5284,-16.30588 -0.76155,-28.29962 -4.39845,-40.896 l -2.4067,-8.3356 17.25674,-19.6644 c 9.49121,-10.81541 26.6004,-29.15248 38.02043,-40.74903 L 632,610.33071 v -6.09446 -6.09445 l -5.75,-1.10277 c -10.83182,-2.07739 -26.02252,-5.99753 -38.3844,-9.90556 -6.80108,-2.15006 -14.66786,-4.2186 -17.48174,-4.59676 -11.68591,-1.57048 -26.33246,4.09965 -37.84908,14.65253 -5.8039,5.31823 -26.74592,29.3495 -39.77129,45.63814 -4.8848,6.1086 -6.9005,12.40779 -7.71552,24.11151 -0.81463,11.69821 -3.9461,19.31026 -10.84748,26.36831 -6.34276,6.48676 -12.94525,10.08859 -24.23813,13.22252 -12.6647,3.51464 -14.38301,4.22468 -17.02222,7.034 -2.74979,2.92701 -2.90757,8.5966 -0.47238,16.97338 0.90783,3.12283 1.44258,5.88589 1.18833,6.14015 -0.77335,0.77335 -8.37713,-3.49342 -12.1872,-6.83871 -4.74268,-4.16413 -7.36421,-9.5328 -8.09418,-16.57623 -0.83767,-8.0825 0.84453,-13.47313 5.36795,-17.20172 4.47622,-3.68968 9.53834,-5.44646 23.18858,-8.04749 6.49075,-1.2368 11.65861,-2.83302 13.75088,-4.24729 C 460.47803,680.52399 464,672.98163 464,665.95288 c 0,-10.49658 -3.53059,-16.73769 -12.12975,-21.44203 -4.56278,-2.49615 -6.49796,-2.94338 -12.87025,-2.97437 -6.08094,-0.0296 -8.27387,0.40707 -11.59007,2.30778 -10.54355,6.04311 -9.87877,18.38112 1.62686,30.19351 2.64571,2.71625 4.44208,5.16627 3.99192,5.44449 -1.49601,0.92458 -11.23776,-1.44834 -14.68008,-3.57581 -3.94913,-2.4407 -7.68474,-7.14215 -9.06317,-11.40645 l -0.96975,-3 -2.04754,4 c -5.59794,10.9359 -6.79371,24.02615 -3.17722,34.78155 1.15002,3.42015 2.51137,6.72823 3.02522,7.35131 0.51385,0.62307 1.11483,9.17307 1.33551,19 0.55587,24.75353 3.66314,35.87071 12.09519,43.27415 6.56864,5.76735 14.45471,7.38499 31.31437,6.42344 11.34717,-0.64716 11.36361,-0.6518 13.26665,-3.73921 1.04797,-1.70018 2.87327,-6.01624 4.05623,-9.59124 1.9054,-5.75826 2.16025,-8.83934 2.23336,-27 l 0.0825,-20.5 3.81221,-8 c 9.97945,-20.94206 33.26059,-42.5 45.89717,-42.5 17.06762,0 18.88542,21.17922 5.23557,61 -2.35662,6.875 -7.69109,21.24222 -11.85437,31.92716 -4.16328,10.68494 -7.4425,19.55425 -7.28717,19.70959 0.15534,0.15533 3.16134,-0.61359 6.68,-1.70872 l 6.39757,-1.99115 6.05951,2.46692 c 3.33273,1.3568 6.73451,2.68548 7.55951,2.95261 3.09894,1.00343 11.18273,0.59408 14.34282,-0.72629 z m 340.03801,-12.89244 c 8.02501,-20.16173 23.31083,-47.85155 35.59287,-64.47545 8.96072,-12.12845 22.06388,-25.47385 30.64996,-31.21656 3.96748,-2.65362 7.73356,-4.99808 8.36907,-5.20991 0.6355,-0.21184 2.6078,-8.0764 4.38288,-17.47681 l 3.22741,-17.09166 -9.37687,-0.65912 c -8.97672,-0.631 -9.50169,-0.5541 -12.30187,1.80209 -18.3215,15.41653 -30.90512,29.71631 -45.39211,51.5827 -12.94768,19.543 -20.27161,32.79648 -32.06582,58.02671 l -9.35566,20.01366 7.69466,3.92955 c 4.23206,2.16126 9.04465,4.82086 10.69465,5.91024 1.65,1.08937 3.45,2.00803 4,2.04146 0.55,0.0334 2.29637,-3.19618 3.88083,-7.1769 z M 998.71832,760.25 c 3.91788,-6.4625 8.95908,-15.55134 11.20268,-20.19743 l 4.0793,-8.44742 -18.25014,-3.66171 C 978.13769,724.40969 948.28491,716.80712 939,713.49096 l -4.5,-1.6072 -6.5,6.84064 c -3.96497,4.17275 -8.11533,9.94799 -10.64181,14.80812 -6.53339,12.56809 -6.7713,11.31225 3.67207,19.38342 18.24333,14.09937 32.52208,18.6474 59.51723,18.95726 L 991.59497,772 Z m 82.41058,-2.41511 c 29.472,-21.23328 52.9111,-64.98946 60.5226,-112.98425 2.5667,-16.18446 2.5993,-61.24515 0.054,-74.58641 -5.4349,-28.48662 -15.3601,-49.9962 -30.7055,-66.54411 -23.5369,-25.38137 -57.864,-38.61965 -100.357,-38.70279 -8.0359,-0.0157 -8.7928,0.14491 -8.1649,1.73267 2.667,6.74384 11.4868,30.42051 12.4382,33.38993 1.1161,3.48367 1.4097,3.67035 6.8393,4.34873 38.3332,4.78942 66.9679,39.37247 77.0132,93.01134 2.6435,14.1156 2.3541,49.0301 -0.5449,65.72848 -5.4725,31.52124 -14.8297,62.05281 -28.1053,91.70407 -2.8152,6.2879 -5.1186,11.58188 -5.1186,11.7644 0,0.73883 11.8082,-5.74925 16.1289,-8.86206 z M 999.78175,704.25 c 14.79775,-30.95443 21.02675,-56.71713 21.95085,-90.78682 0.8295,-30.58248 -1.0697,-43.92847 -11.3792,-79.96318 -33.05949,-115.55179 -96.71863,-192.06108 -194.58333,-233.86163 -5.81845,-2.48521 -16.35949,-6.61908 -23.42453,-9.18638 -19.33572,-7.02622 -61.54595,-18.69444 -62.7422,-17.34389 -0.49408,0.55781 -4.85102,44.99485 -4.44191,45.30367 0.18621,0.14057 5.96357,1.02186 12.83857,1.95841 33.27972,4.53357 66.51584,15.3269 101.89972,33.09161 23.22653,11.66104 40.05833,24.27032 59.41754,44.51175 39.61256,41.41775 70.68467,104.55567 84.29775,171.2914 3.50006,17.15841 4.27336,40.58558 1.92309,58.25963 -3.25079,24.44588 -12.90536,56.49488 -22.03927,73.1608 l -3.38994,6.18538 16.19555,3.96982 c 8.90756,2.1834 16.67767,4.01248 17.26692,4.06462 0.58925,0.0522 3.38393,-4.74269 6.21039,-10.65519 z M 473.5,634.62663 c 8.10656,-3.81631 16.66264,-11.28633 28.77975,-25.12663 18.95311,-21.64844 29.13497,-29.98536 42.25123,-34.59535 14.26236,-5.01282 28.9416,-4.17169 55.65398,3.189 28.07444,7.73601 33.67503,8.65762 57.3268,9.43341 l 21.01175,0.68919 4.70308,-8.58346 c 17.14962,-31.29938 26.88777,-66.13434 31.2255,-111.6988 1.64004,-17.22733 1.34552,-21.26126 -2.04849,-28.05734 -5.83048,-11.67481 -19.69174,-18.92674 -57.15794,-29.90391 -6.18989,-1.81357 -11.04324,-3.50849 -10.78523,-3.7665 0.258,-0.25801 6.29731,-1.96199 13.42068,-3.78662 16.85191,-4.31659 24.99509,-8.27806 32.69071,-15.90332 6.71064,-6.64928 10.60528,-13.81652 12.88089,-23.7045 2.51112,-10.9113 9.39019,-49.69209 11.49654,-64.8118 1.11102,-7.975 2.22743,-15.98579 2.48092,-17.80175 l 0.46089,-3.30176 -6.19553,5.2853 c -3.40754,2.90691 -15.00235,14.07138 -25.76623,24.80993 l -19.57071,19.52464 -12.91949,1.85437 c -44.38056,6.37005 -82.31141,25.95173 -120.15689,62.03062 -15.18671,14.4778 -21.13182,24.44626 -41.8063,70.09865 -22.24171,49.11306 -73.66158,174.17457 -71.18303,173.12872 10.76958,-4.54435 19.65568,-4.48011 32.25482,0.23316 9.7697,3.65481 14.45036,3.82565 20.9523,0.76475 z M 449,604.49474 c 0,-1.28386 38.59723,-77.59791 50.07298,-99.0038 14.90642,-27.80516 17.45891,-33.66348 19.27749,-44.24457 1.15239,-6.70501 1.58801,-7.70393 3.24045,-7.43071 7.06503,1.1682 31.60168,1.29152 37.76645,0.18981 15.92165,-2.84536 27.85902,-8.53454 38.19468,-18.20305 10.4807,-9.80417 16.35441,-20.29684 20.55406,-36.7173 1.94928,-7.62163 2.93444,-9.04269 6.28767,-9.06981 1.75585,-0.0142 1.84551,0.56342 1.23107,7.93108 -1.53066,18.3539 -9.24662,38.93384 -19.32881,51.55361 -4.21449,5.27523 -5.11621,7.3002 -7.46489,16.76372 -6.29065,25.3469 -19.37576,40.57173 -38.44647,44.73339 -16.69466,3.64315 -33.78848,11.66469 -46.45674,21.80056 -16.13765,12.91172 -32.40174,35.25133 -45.88365,63.02369 L 463.58858,605 h -7.29429 C 452.28243,605 449,604.77263 449,604.49474 Z M 566.5,494.11383 c 11.40019,-5.4808 20.6182,-18.56837 22.10974,-31.39101 l 0.67201,-5.77718 -5.39087,3.63197 c -2.96499,1.99759 -7.01733,4.28425 -9.00521,5.08148 l -3.61433,1.4495 1.37328,3.98596 c 2.34332,6.80153 -0.26897,12.73774 -6.74577,15.32925 -9.02219,3.60996 -18.45004,-4.08479 -16.40621,-13.39031 0.56836,-2.58768 0.32721,-3.0406 -1.91907,-3.60438 -5.40022,-1.35537 -6.84239,0.84624 -9.18534,14.02234 -1.61277,9.06979 -1.40298,9.55978 5.11408,11.94468 6.94796,2.54259 16.10371,2.03208 22.99769,-1.2823 z m 81.31435,-113.69686 c -4.05084,-8.65644 -4.7144,-15.66148 -1.9069,-20.13049 3.34209,-5.31997 20.83614,-16.90959 43.62726,-28.90258 l 12.78392,-6.72707 -0.6707,3.42158 c -0.94048,4.79782 -7.7086,18.64363 -12.77157,26.12732 -5.50363,8.13504 -17.58615,19.96125 -27.14534,26.56952 -10.84261,7.49549 -10.23412,7.51115 -13.91667,-0.35828 z M 532.6048,372.62161 c 4.89236,-4.33312 14.1827,-11.70002 20.6452,-16.37089 6.4625,-4.67087 11.75181,-8.77559 11.75402,-9.1216 0.002,-0.34602 0.67341,-4.75635 1.49155,-9.80074 7.40909,-45.68218 37.44814,-78.23338 83.76833,-90.77384 16.88969,-4.57262 27.72618,-5.87387 48.7361,-5.85226 36.98091,0.038 72.44852,7.93241 110,24.48374 20.77583,9.15724 45.71184,23.58438 60.98932,35.28637 6.29248,4.81982 9.94731,6.92431 10.70662,6.165 0.86795,-0.86794 -10.88244,-14.56144 -20.33712,-23.70019 -37.3006,-36.05419 -89.28144,-60.54629 -149.85882,-70.60981 -8.72848,-1.45003 -16.4723,-1.82501 -37.5,-1.81585 -30.42255,0.0133 -41.21544,1.48172 -62.09928,8.44913 -49.58771,16.54378 -79.60061,50.51944 -90.48032,102.42689 -2.02487,9.66069 -2.65602,16.17359 -3.11811,32.17588 -0.31864,11.03489 -0.25881,22.62902 0.13297,25.76473 l 0.71233,5.70128 2.781,-2.26473 c 1.52955,-1.24559 6.78384,-5.81 11.67621,-10.14311 z M 636.31179,319.1132 c 7.25351,-1.63999 15.43821,-3.30383 18.18821,-3.69743 4.80492,-0.68773 5.66327,-1.35793 22,-17.17794 9.35,-9.05426 20.01258,-18.99928 23.69463,-22.10006 l 6.69462,-5.63777 -3.69462,-0.84047 c -5.13748,-1.16871 -26.97218,-0.0593 -37.19463,1.8898 -26.66245,5.08374 -47.63506,20.86113 -59.75211,44.95067 -1.65991,3.3 -3.70309,7.6428 -4.54042,9.65066 l -1.5224,3.65066 11.46925,-3.85317 c 6.30809,-2.11924 17.40395,-5.19497 24.65747,-6.83495 z"
       id="path22" />
  </g>
</svg>
