<?xml version="1.0" encoding="UTF-8" standalone="no"?>
<svg
   xmlns:dc="http://purl.org/dc/elements/1.1/"
   xmlns:cc="http://creativecommons.org/ns#"
   xmlns:rdf="http://www.w3.org/1999/02/22-rdf-syntax-ns#"
   xmlns:svg="http://www.w3.org/2000/svg"
   xmlns="http://www.w3.org/2000/svg"
   xmlns:sodipodi="http://sodipodi.sourceforge.net/DTD/sodipodi-0.dtd"
   xmlns:inkscape="http://www.inkscape.org/namespaces/inkscape"
   version="1.1"
   id="svg2"
   width="1043.6187"
   height="1045.6342"
   viewBox="0 0 1043.6187 1045.6342"
   sodipodi:docname="Winterhold.svg"
   inkscape:version="1.0.1 (3bc2e813f5, 2020-09-07)">
  <metadata
     id="metadata8">
    <rdf:RDF>
      <cc:Work
         rdf:about="">
        <dc:format>image/svg+xml</dc:format>
        <dc:type
           rdf:resource="http://purl.org/dc/dcmitype/StillImage" />
        <dc:title></dc:title>
      </cc:Work>
    </rdf:RDF>
  </metadata>
  <defs
     id="defs6" />
  <sodipodi:namedview
     pagecolor="#ffffff"
     bordercolor="#666666"
     borderopacity="1"
     objecttolerance="10"
     gridtolerance="10"
     guidetolerance="10"
     inkscape:pageopacity="0"
     inkscape:pageshadow="2"
     inkscape:window-width="1920"
     inkscape:window-height="1057"
     id="namedview4"
     showgrid="false"
     inkscape:pagecheckerboard="true"
     inkscape:zoom="0.49"
     inkscape:cx="519.74829"
     inkscape:cy="511.88605"
     inkscape:window-x="-8"
     inkscape:window-y="-8"
     inkscape:window-maximized="1"
     inkscape:current-layer="g10" />
  <g
     inkscape:groupmode="layer"
     inkscape:label="Image"
     id="g10"
     transform="translate(-230.25171,-238.11395)">
    <g
       id="g14">
      <path
         style="fill:#a0a8a6"
         d="m 730.26375,1283.2824 c 1.52006,-0.2298 3.77006,-0.2237 5,0.014 1.22994,0.2373 -0.0137,0.4254 -2.76375,0.4179 -2.75,-0.01 -3.75631,-0.2017 -2.23625,-0.4316 z m 41,0 c 1.52006,-0.2298 3.77006,-0.2237 5,0.014 1.22994,0.2373 -0.0137,0.4254 -2.76375,0.4179 -2.75,-0.01 -3.75631,-0.2017 -2.23625,-0.4316 z m -57.99472,-0.9754 c 0.97297,-0.2535 2.32297,-0.2369 3,0.037 0.67703,0.2739 -0.11903,0.4813 -1.76903,0.461 -1.65,-0.02 -2.20394,-0.2445 -1.23097,-0.4981 z m 77,0 c 0.97297,-0.2535 2.32297,-0.2369 3,0.037 0.67703,0.2739 -0.11903,0.4813 -1.76903,0.461 -1.65,-0.02 -2.20394,-0.2445 -1.23097,-0.4981 z M 701.75,1281.3377 c 0.6875,-0.2774 1.8125,-0.2774 2.5,0 0.6875,0.2774 0.125,0.5044 -1.25,0.5044 -1.375,0 -1.9375,-0.227 -1.25,-0.5044 z m 100,0 c 0.6875,-0.2774 1.8125,-0.2774 2.5,0 0.6875,0.2774 0.125,0.5044 -1.25,0.5044 -1.375,0 -1.9375,-0.227 -1.25,-0.5044 z m -108.9375,-1.0208 c 0.72187,-0.2889 1.58438,-0.2534 1.91667,0.079 0.33229,0.3323 -0.25834,0.5687 -1.3125,0.5253 -1.16495,-0.048 -1.4019,-0.285 -0.60417,-0.6042 z m 119,0 c 0.72187,-0.2889 1.58438,-0.2534 1.91667,0.079 0.33229,0.3323 -0.25834,0.5687 -1.3125,0.5253 -1.16495,-0.048 -1.4019,-0.285 -0.60417,-0.6042 z m -127,-1 c 0.72187,-0.2889 1.58438,-0.2534 1.91667,0.079 0.33229,0.3323 -0.25834,0.5687 -1.3125,0.5253 -1.16495,-0.048 -1.4019,-0.285 -0.60417,-0.6042 z m 135,0 c 0.72187,-0.2889 1.58438,-0.2534 1.91667,0.079 0.33229,0.3323 -0.25834,0.5687 -1.3125,0.5253 -1.16495,-0.048 -1.4019,-0.285 -0.60417,-0.6042 z m -149,-2 c 0.72187,-0.2889 1.58438,-0.2534 1.91667,0.079 0.33229,0.3323 -0.25834,0.5687 -1.3125,0.5253 -1.16495,-0.048 -1.4019,-0.285 -0.60417,-0.6042 z m 163,0 c 0.72187,-0.2889 1.58438,-0.2534 1.91667,0.079 0.33229,0.3323 -0.25834,0.5687 -1.3125,0.5253 -1.16495,-0.048 -1.4019,-0.285 -0.60417,-0.6042 z M 712.5,1257.4775 c -63.69566,-5.8501 -120.99519,-21.6749 -177,-48.8831 -23.01618,-11.1817 -36.09775,-18.6152 -56.5,-32.1058 C 421.80325,1138.6684 375.3316,1092.1968 337.51137,1035 324.02079,1014.5977 316.58726,1001.5162 305.40556,978.5 248.52787,861.42415 239.4053,728.73467 279.82145,606.37441 300.7723,542.94553 332.56252,486.70577 376.49417,435.35168 404.95432,402.08308 440.31713,371.08966 479,345.51137 c 20.40225,-13.49058 33.48382,-20.92411 56.5,-32.10581 117.07585,-56.87769 249.76533,-66.00026 372.12559,-25.58411 63.42888,20.95085 119.66861,52.74107 171.02271,96.67272 40.368,34.53345 79.2126,81.62984 106.4025,129.00583 26.5342,46.23346 47.8063,104.09186 57.4367,156.22268 6.0088,32.52683 6.5125,39.58669 6.5125,91.27732 0,51.69063 -0.5037,58.75049 -6.5125,91.27732 -9.6304,52.13082 -30.9025,109.98922 -57.4367,156.22268 -38.5415,67.1552 -92.8437,124.8717 -158.0508,167.9886 -20.4023,13.4906 -33.48382,20.9241 -56.5,32.1058 -56.69121,27.5417 -113.86829,43.2385 -178.15875,48.9099 -20.32231,1.7927 -60.17563,1.7793 -79.84125,-0.027 z m 76.84125,-9.9732 c 73.3912,-6.4742 144.57229,-28.2486 204.15875,-62.4524 85.574,-49.1212 155.8012,-124.1215 198.0885,-211.5519 23.1866,-47.9392 38.1421,-98.26488 45.4278,-152.86637 C 1238.7436,807.68852 1239,799.98171 1239,761 c 0,-38.98171 -0.2564,-46.68852 -1.9837,-59.63363 C 1229.7306,646.76488 1214.7751,596.4392 1191.5885,548.5 1144.3989,450.93388 1063.0661,369.60108 965.5,322.41152 877.51565,279.85635 779.61511,264.32336 685.78415,278.03153 545.09696,298.58514 423.8344,375.54954 345.51137,494 321.48385,530.33761 303.88421,566.79928 289.82145,609.37441 253.68775,718.76952 257.33604,832.81725 300.46186,942 c 43.71126,110.6649 131.87285,205.2724 240.03814,257.5885 77.40844,37.4399 168.58189,54.9959 248.84125,47.9158 z M 718.5,1237.4775 c -61.78296,-5.6745 -120.2224,-21.5161 -173,-46.8966 -55.7877,-26.8279 -112.31333,-70.3981 -153,-117.9328 C 356.20394,1030.2429 329.08377,986.0571 310.47009,939 291.86516,891.96504 281.04249,845.88344 276.49569,794.34125 269.81537,718.61366 287.38615,628.429 323.41905,553.5 345.1207,508.37228 378.95603,461.04445 416.00024,424.00024 453.04445,386.95603 500.37228,353.1207 545.5,331.41905 c 74.929,-36.0329 165.11366,-53.60368 240.84125,-46.92336 51.54219,4.5468 97.62379,15.36947 144.65875,33.9744 47.0571,18.61368 91.2429,45.73385 133.6481,82.02991 47.5347,40.68667 91.1049,97.2123 117.9328,153 22.2994,46.37068 37.2778,97.22497 44.4354,150.86637 C 1228.7256,717.1764 1229,725.01006 1229,761 c 0,35.98994 -0.2744,43.8236 -1.9837,56.63363 -7.1576,53.6414 -22.136,104.49569 -44.4354,150.86637 -26.8279,55.7877 -70.3981,112.3133 -117.9328,153 -50.808,43.4883 -101.71235,72.4275 -163.02251,92.6785 -59.74199,19.7331 -127.74642,28.3852 -183.12559,23.299 z M 530.16654,1038.531 c 81.88349,-18.5248 122.4795,-25.3624 172.33346,-29.026 3.3,-0.2425 9.96793,-0.7232 14.81763,-1.0683 10.40874,-0.7407 71.51881,-0.7908 80.18237,-0.066 3.3,0.2762 9.825,0.7861 14.5,1.1331 39.81339,2.9552 73.9814,8.0526 117.5,17.5293 7.7,1.6767 19.175,4.1368 25.5,5.4667 6.325,1.3299 17.8,3.8499 25.5,5.5999 15.81213,3.5936 29.9823,4.7714 34.5653,2.8731 4.7889,-1.9837 11.9273,-10.7867 19.5215,-24.0737 3.8977,-6.8196 15.7782,-27.4743 26.401,-45.8993 10.6229,-18.425 21.0545,-37.23838 23.1814,-41.80751 10.1267,-21.75436 12.0208,-45.11838 5.2532,-64.79845 l -2.4436,-7.10595 2.4683,-5.39405 c 4.7178,-10.30993 5.799,-16.94074 5.3528,-32.82642 -0.3684,-13.11486 -0.7163,-15.44133 -3.4893,-23.32883 -3.5762,-10.17231 -8.0372,-18.01032 -14.156,-24.87189 -4.1616,-4.66683 -4.5478,-5.66563 -9.1332,-23.61989 -2.6333,-10.31086 -5.5646,-21.44701 -6.5139,-24.74701 -4.9884,-17.33998 -12.8475,-43.67725 -16.8597,-56.5 -2.4954,-7.975 -6.3886,-20.575 -8.6516,-28 -7.1131,-23.33888 -11.8637,-32.79928 -18.8563,-37.55089 -9.4423,-6.41621 -20.29075,0.46414 -28.07069,17.80308 -1.54186,3.4363 -3.28296,7.82281 -3.86911,9.74781 -4.39077,14.41989 -9.04414,29.55107 -14.76168,48 -3.66471,11.825 -7.68275,24.875 -8.92899,29 -3.7799,12.51137 -10.55283,34.22328 -12.16588,39 -0.83577,2.475 -1.63137,7.94501 -1.76798,12.15558 l -0.24838,7.65558 -5.10919,4.9765 c -17.21864,16.77148 -22.64935,40.19322 -15.71189,67.76268 1.25257,4.97769 3.97277,12.62301 6.04491,16.98962 l 3.76751,7.93927 -4.40927,8.44056 C 924.46575,884.16873 918.72013,889 909.21798,889 c -12.68854,0 -27.94365,-9.38118 -54.06265,-33.24601 l -4.34466,-3.9697 1.56422,-4.14215 c 4.8644,-12.88121 5.96966,-29.19069 2.7927,-41.20977 -2.36817,-8.95927 -6.07965,-16.41389 -12.32225,-24.74967 l -5.01742,-6.69978 3.54618,-8.25635 c 8.27818,-19.27362 8.19497,-37.0986 -0.25087,-53.74204 l -3.63469,-7.16256 3.3977,-13.16098 c 3.10837,-12.04025 3.4069,-14.48091 3.50573,-28.66099 0.0956,-13.71694 -0.15797,-16.29397 -2.20427,-22.40192 -3.13543,-9.35888 -7.0548,-16.89282 -12.68355,-24.38071 -4.36757,-5.81016 -5.22112,-8.00694 -11.65382,-29.99336 C 785.52407,476.73547 778.9376,458.06598 768.46845,447.25 c -4.8458,-5.00634 -5.32254,-5.25 -10.27217,-5.25 -4.54045,0 -5.68219,0.44419 -9.11627,3.54668 -6.27417,5.66834 -12.04717,18.36933 -20.43268,44.95332 -17.26933,54.74773 -24.95375,82.59842 -29.59008,107.24352 -1.89437,10.0698 -2.58547,11.91629 -6.62044,17.68836 -5.68592,8.13379 -12.78672,23.11615 -14.94538,31.53406 -2.07838,8.10489 -2.10128,22.60998 -0.0478,30.30086 1.61563,6.05108 5.15283,13.65516 9.18936,19.75476 l 2.39639,3.6212 -4.92661,10.44442 c -6.3142,13.3861 -8.26942,21.04336 -8.26942,32.38576 0,8.8194 2.4579,21.50164 5.64589,29.13156 1.29914,3.10928 1.22279,3.28889 -3.56632,8.38994 -15.6747,16.69564 -22.62817,42.94989 -16.81954,63.50556 1.08793,3.85 2.18728,7.9 2.443,9 0.37643,1.6193 -1.92645,3.69096 -12.09826,10.88352 -24.85233,17.57326 -35.50403,22.85802 -46.16566,22.90476 -5.16079,0.0226 -7.03413,-0.47135 -10.93608,-2.88375 -4.48395,-2.77221 -10.90653,-10.85796 -15.68434,-19.74588 l -1.84798,-3.43771 3.70623,-7.81013 c 2.03842,-4.29557 4.73105,-11.88278 5.98362,-16.86047 6.93746,-27.56946 1.50675,-50.9912 -15.71189,-67.76268 l -5.10919,-4.9765 -0.24838,-7.65558 c -0.13663,-4.21057 -0.93223,-9.68058 -1.768,-12.15558 -1.61305,-4.77672 -8.38598,-26.48863 -12.16588,-39 -1.24624,-4.125 -5.26428,-17.175 -8.92899,-29 -5.71754,-18.44893 -10.37091,-33.58011 -14.76168,-48 -6.67871,-21.93381 -19.85337,-34.16067 -30.74169,-28.5301 -5.8465,3.02334 -12.99852,15.07001 -17.0093,28.65002 -2.20084,7.45177 -5.04248,16.66111 -11.53403,37.38008 -4.14283,13.22261 -11.92777,39.29079 -17.02234,57 -0.94934,3.3 -3.88062,14.43615 -6.51395,24.74701 -4.58541,17.95426 -4.97162,18.95306 -9.13323,23.61989 -6.11875,6.86157 -10.57981,14.69958 -14.15599,24.87189 -2.77294,7.8875 -3.12091,10.21397 -3.48928,23.32883 -0.4462,15.88568 0.63505,22.51649 5.35285,32.82642 l 2.4683,5.39405 -2.4436,7.10595 c -4.99904,14.53713 -5.37279,29.80578 -1.13949,46.55188 3.42781,13.55979 7.29229,21.40713 29.57403,60.05408 10.62286,18.425 22.50333,39.0648 26.40105,45.8663 7.48428,13.0599 13.03257,20.2146 18.0475,23.2728 4.89181,2.9831 15.68868,2.468 33.70581,-1.6081 z M 506.5,1018.4306 c -4.42612,-2.2973 -8.12228,-6.1408 -12.91564,-13.4306 -5.01983,-7.63421 -38.95149,-66.73809 -43.38255,-75.56591 -7.62304,-15.18705 -11.68285,-34.49596 -10.07843,-47.93409 1.96172,-16.43079 6.83842,-24.82008 24.26019,-41.73433 7.21404,-7.00388 13.57882,-12.74138 14.14397,-12.75 0.8946,-0.0136 6.58921,6.02747 14.13463,14.99469 l 2.2901,2.72163 -15.54335,16.884 c -8.54885,9.28621 -16.41311,18.55358 -17.47614,20.59417 -2.53498,4.86614 -2.48235,12.24595 0.13725,19.24748 2.09521,5.59995 47.46211,96.27739 49.004,97.94712 0.84546,0.91554 12.80803,-3.83041 18.72564,-7.42913 l 3.10018,-1.88533 -10.06409,-20.79515 C 517.30052,957.85782 508.72266,940.175 503.77386,930 c -4.9488,-10.175 -10.10319,-20.9449 -11.4542,-23.93311 -1.46196,-3.23358 -5.465,-8.63126 -9.88803,-13.33297 C 478.34423,888.38899 475,884.39136 475,883.8503 475,881.0173 488.27495,868 491.16403,868 c 0.54145,0 3.57922,2.475 6.75062,5.5 3.1714,3.025 6.491,5.5 7.37689,5.5 2.0515,0 24.53049,-21.62106 30.37286,-29.21364 6.31672,-8.20906 10.47323,-17.62909 11.07086,-25.09026 0.39873,-4.9779 -0.0197,-7.69032 -2.12804,-13.7961 -2.42711,-7.02879 -2.52001,-7.89311 -1.23611,-11.5 2.03739,-5.72368 9.40775,-21.4 10.0614,-21.4 0.30895,0 2.39561,1.6568 4.63703,3.68179 7.20901,6.51291 10.90273,16.28349 10.91964,28.88455 0.0186,13.89027 -3.00098,26.15277 -10.07983,40.93366 -4.68532,9.78309 -9.10785,15.67602 -23.73941,31.63221 l -11.33005,12.3558 0.42527,4.50599 c 0.46523,4.92943 29.82402,78.2271 32.58354,81.34862 2.77627,3.14049 4.98038,3.86452 8.45027,2.77582 1.76057,-0.55239 7.10948,-2.17338 11.88648,-3.60221 l 8.68544,-2.59788 -3.81439,-8.20917 C 579.95859,965.19413 575.89343,956.55 573.02282,950.5 c -2.87062,-6.05 -8.37084,-17.75 -12.22273,-26 -3.85188,-8.25 -8.50752,-18.01214 -10.34587,-21.69365 -5.99175,-11.99918 -5.623,-14.35976 3.96845,-25.40437 l 4.92267,-5.66848 4.45836,8.88325 c 5.02227,10.00686 6.27107,11.79641 13.23398,18.96449 12.99252,13.37538 30.1269,14.88487 50.93473,4.48721 12.57953,-6.28599 20.0795,-11.4731 46.68472,-32.28795 l 6.15713,-4.8171 2.28148,3.7683 c 1.25481,2.07257 4.2216,6.32162 6.59286,9.44234 2.37127,3.12073 4.3114,6.07655 4.3114,6.5685 0,0.49194 -3.67873,3.78863 -8.17495,7.32595 -11.16135,8.78101 -23.72398,21.27299 -28.21979,28.06109 C 653.02131,929.05076 651,935.49589 651,943.19105 c 0,6.82506 1.64787,11.29984 5.45349,14.80895 2.40179,2.21465 3.52937,2.48578 9.87888,2.37538 3.9422,-0.0685 11.12424,-1.07715 15.96011,-2.24134 11.03523,-2.65664 27.52962,-4.79821 43.70752,-5.67482 6.875,-0.37253 12.7736,-0.96575 13.108,-1.31827 0.33441,-0.35252 0.27669,-3.79095 -0.12826,-7.64095 -0.40495,-3.85 -1.54521,-14.98922 -2.53391,-24.75382 l -1.79765,-17.75382 -5.16092,-2.91264 c -25.20211,-14.22319 -45.40894,-44.67214 -47.1817,-71.09639 -0.96469,-14.37938 2.47106,-24.81199 10.98381,-33.35225 l 4.85324,-4.86893 3.51174,5.36893 c 1.93146,2.9529 5.32888,7.5393 7.54983,10.19199 l 4.03809,4.82307 -1.25935,5.93434 c -3.30384,15.56841 3.04908,30.44919 20.72913,48.55493 11.15947,11.42816 30.3876,24.72828 46.32783,32.04501 5.68485,2.6094 5.92006,2.86896 6.58162,7.26284 0.43489,2.88835 -0.25845,12.24563 -1.89366,25.55674 -1.41886,11.55 -2.27557,21.2653 -1.90379,21.58956 0.37177,0.32426 8.32595,1.59694 17.67595,2.82817 9.35,1.23124 25.1,3.33927 35,4.68451 9.9,1.34525 18.88982,2.54757 19.97739,2.67183 1.73152,0.19784 2.19311,-0.8931 3.71241,-8.77407 2.55761,-13.26688 2.36189,-23.77328 -0.55972,-30.04745 -6.11736,-13.13703 -18.47647,-20.02466 -51.13008,-28.49436 -3.11166,-0.8071 -5.11042,-2.40472 -9,-7.19375 -7.1891,-8.85155 -29.51097,-38.9101 -29.44043,-39.64437 0.0634,-0.65931 21.40876,-16.386 23.01593,-16.95747 0.52189,-0.18556 4.33761,2.8273 8.47939,6.69527 4.14177,3.86796 13.92379,12.19278 21.73781,18.4996 7.81401,6.30682 18.9323,15.60788 24.7073,20.66903 29.43201,25.7939 48.26904,35.9735 66.56782,35.9735 10.40912,0 17.06596,-2.69819 24.30372,-9.8509 5.67209,-5.60544 12.37006,-16.92816 15.15755,-25.62341 l 1.27407,-3.97431 5.34916,5.97431 c 9.50684,10.61788 9.90274,13.24454 3.82954,25.40803 -1.8032,3.61145 -6.43007,13.31628 -10.28195,21.56628 -3.85189,8.25 -9.35211,19.95 -12.22273,26 -2.87061,6.05 -6.93252,14.68706 -9.02646,19.19347 l -3.80717,8.19348 4.67822,1.49623 c 19.08489,6.1039 20.55726,6.22246 24.33232,1.95944 C 958.83426,978.31602 989,902.42018 989,898.70358 c 0,-2.88437 -1.74466,-5.26291 -12.6706,-17.27426 -14.57834,-16.02658 -20.54324,-24.62447 -25.12179,-36.21094 -5.58875,-14.14289 -6.65163,-19.50726 -6.68087,-33.71838 -0.0246,-11.9439 0.18457,-13.45052 2.57437,-18.54563 2.73168,-5.824 7.85819,-12.32704 11.0748,-14.04852 1.70014,-0.90988 2.3341,-0.0847 5.98319,7.78822 7.27847,15.70326 7.24191,15.49423 4.23368,24.20593 -6.24187,18.07622 0.1289,31.95538 26.15087,56.97141 6.36685,6.12073 12.29595,11.12859 13.17585,11.12859 0.8798,0 4.1945,-2.475 7.3658,-5.5 3.1714,-3.025 6.2092,-5.5 6.7507,-5.5 2.889,0 16.164,13.0173 16.164,15.8503 0,0.54106 -3.3442,4.53869 -7.4316,8.88362 -4.4231,4.70171 -8.4261,10.09939 -9.8881,13.33297 -1.351,2.98821 -6.5054,13.75811 -11.4542,23.93311 -4.9488,10.175 -13.52662,27.85782 -19.06186,39.29515 l -10.06409,20.79515 3.10018,1.88533 c 5.92292,3.60194 17.88017,8.34467 18.72997,7.42913 1.5117,-1.62863 46.9794,-92.54759 49.0509,-98.08393 2.572,-6.87438 2.6053,-14.27464 0.086,-19.11067 -1.063,-2.04059 -8.9273,-11.30796 -17.4761,-20.59417 l -15.5434,-16.884 2.2901,-2.72163 c 7.5454,-8.96722 13.2401,-15.00833 14.1347,-14.99469 0.5651,0.009 6.9299,5.74612 14.1439,12.75 17.4026,16.89564 22.2323,25.16236 24.1928,41.40933 1.6895,14.00064 -2.1814,32.66048 -10.011,48.25909 -4.4956,8.95645 -38.3936,67.97787 -43.5429,75.81461 -5.3683,8.1701 -11.3405,13.4882 -16.168,14.3972 -5.24939,0.9884 -18.92465,-1.5117 -80.0873,-14.6416 -47.42774,-10.18143 -80.0177,-15.26481 -112,-17.46976 -4.675,-0.32231 -11.65,-0.85552 -15.5,-1.18492 -11.99957,-1.02665 -67.2384,-0.64063 -83.5,0.58352 -43.40184,3.26722 -70.54072,7.31308 -124.5,18.56046 -12.1,2.5221 -29.425,6.1255 -38.5,8.0075 -9.075,1.8821 -19.65,4.1064 -23.5,4.943 -8.97542,1.9504 -15.22468,1.946 -19,-0.014 z M 734.551,851.92478 C 730.66477,847.62318 724,837.69148 724,836.20189 c 0,-0.4918 6.6553,-7.60091 14.78957,-15.79803 14.23771,-14.34775 24.90239,-22.97543 35.89847,-29.04173 l 5.18804,-2.86213 3.63495,3.5 c 1.99922,1.925 5.394,6.18384 7.54394,9.46409 l 3.909,5.96408 -2.73199,2.87822 c -7.32341,7.71544 -47.632,42.15403 -52.38212,44.75392 -1.26857,0.69433 -2.49382,-0.0307 -5.29886,-3.13553 z M 510.97921,840.95936 C 486.13647,818.95544 481,812.82935 481,805.20422 c 0,-3.67539 0.56265,-4.96687 3.4,-7.80422 7.46533,-7.46533 12.00455,-4.6532 41.39125,25.64266 l 9.2563,9.54267 -3.05946,4.61894 c -1.6827,2.54041 -4.74026,6.51296 -6.79457,8.82788 l -3.73511,4.20894 z m 477.79432,6.27235 c -1.41108,-1.50244 -4.41117,-5.39207 -6.66686,-8.64363 l -4.10126,-5.91192 10.09964,-10.58808 C 1015.2648,793.6148 1021.1977,789.99774 1028.6,797.4 c 2.7742,2.77421 3.4,4.16377 3.4,7.54966 0,7.69016 -3.7118,12.37911 -24.5,30.94966 -17.55869,15.68557 -15.69642,14.55861 -18.72647,11.33239 z M 440.44944,838.75 c -6.66995,-29.90823 3.31281,-54.44408 27.27435,-67.03552 C 477.87236,766.38156 496.64928,762 509.35461,762 c 2.75971,0 2.8785,0.17609 2.34335,3.4738 -1.26599,7.80138 -2.40771,8.82047 -11.30117,10.08731 -9.60774,1.36859 -16.37617,4.71712 -23.2889,11.52167 -9.88606,9.73135 -14.87361,20.24005 -15.94906,33.60443 l -0.65883,8.18721 -8.87601,9.06279 c -4.8818,4.98453 -8.97921,9.06279 -9.10534,9.06279 -0.12614,0 -1.05728,-3.7125 -2.06921,-8.25 z M 822.5,841.39982 c -13.20535,-10.40486 -13.15882,-10.33644 -13.74805,-20.21516 -0.58687,-9.83899 -2.8933,-16.8118 -8.20923,-24.81817 -4.59834,-6.9256 -14.89042,-17.78777 -23.62577,-24.93444 l -6.95952,-5.69379 4.77866,-5.11913 c 2.62825,-2.81552 5.97656,-6.57305 7.44067,-8.35006 l 2.66203,-3.23093 12.90476,13.23093 c 15.24111,15.62633 20.44531,21.32758 26.17869,28.67902 9.92816,12.73006 14.33045,26.82381 12.11762,38.7941 -1.07006,5.78849 -5.10309,17.29357 -6.03477,17.21546 -0.2778,-0.0233 -3.65509,-2.52431 -7.50509,-5.55783 z m 238.1645,-3.92495 -8.8354,-9.25887 0.6819,-5.45739 c 0.8219,-6.5783 -1.2636,-15.69611 -5.2766,-23.06927 -6.9046,-12.68611 -22.1273,-23.11986 -35.5405,-24.35984 -6.6529,-0.61503 -6.8499,-0.71496 -8.75,-4.43951 -1.0692,-2.09567 -1.9439,-4.95324 -1.9439,-6.35015 0,-2.99506 1.0123,-3.10257 14.0262,-1.48957 12.0403,1.49232 19.296,3.51573 28.5584,7.96406 20.1489,9.67671 30.865,26.88059 30.824,49.48567 -0.017,9.35421 -2.8459,26.68739 -4.3033,26.36687 -0.3329,-0.0732 -4.5813,-4.29963 -9.4408,-9.392 z M 721.11626,800.59674 c -18.02187,-22.5913 -23.92299,-35.32997 -24.84742,-53.63777 -0.57493,-11.38606 0.70208,-18.04184 5.13524,-26.76484 l 2.2223,-4.37276 2.70485,3.54625 c 1.48767,1.95043 5.09685,6.28895 8.02041,9.64115 5.17094,5.92909 5.29691,6.21777 4.6302,10.61086 -2.32158,15.29751 6.93517,34.8426 24.09746,50.88037 l 6.4207,6 -9.21037,8.29293 -9.21037,8.29293 z M 522.97553,803.75 c -1.32032,-1.7875 -4.1235,-5.12044 -6.22927,-7.40654 l -3.82869,-4.15655 3.63904,-7.84345 c 6.62129,-14.27131 7.44465,-17.00389 7.42143,-24.63048 -0.0348,-11.4348 -4.7135,-20.02502 -13.26756,-24.35969 -11.41966,-5.78678 -24.23552,0.40469 -29.88541,14.43794 -1.13785,2.8262 -2.48831,3.75956 -9.55796,6.60592 l -8.23289,3.31469 0.59094,-2.60592 c 5.58983,-24.64976 33.96109,-124.71422 37.6652,-132.84384 1.49861,-3.2891 3.40486,-2.78069 5.5789,1.48792 1.98572,3.89887 33.43877,109.21223 35.76471,119.75 3.24048,14.6811 0.78796,26.14341 -10.85868,50.75 -2.79846,5.9125 -5.3831,10.75 -5.74365,10.75 -0.36054,0 -1.73579,-1.4625 -3.05611,-3.25 z m 458.22099,-7.52438 c -9.80599,-20.65034 -13.02615,-32.82369 -11.81356,-44.65934 0.34269,-3.34485 4.02004,-17.55311 8.17189,-31.57391 4.15184,-14.0208 11.8132,-40.04773 17.02524,-57.83761 C 1004.1013,629.65653 1006.9195,622 1009.3598,622 c 0.7255,0 1.783,1.01794 2.3498,2.26208 3.7595,8.25113 30.4759,102.5419 37.6401,132.84384 l 0.6161,2.60592 -8.2329,-3.31469 c -7.0697,-2.84636 -8.4201,-3.77972 -9.558,-6.60592 -3.8334,-9.52148 -11.0661,-15.61488 -19.5771,-16.49329 -4.2833,-0.44208 -6.0912,-0.0816 -10.3083,2.05535 -8.55404,4.33467 -13.23272,12.92489 -13.26754,24.35969 -0.0232,7.62659 0.80014,10.35917 7.42143,24.63048 l 3.63901,7.84345 -3.82866,4.15655 c -2.10577,2.2861 -4.90895,5.61904 -6.22927,7.40654 -1.32032,1.7875 -2.69557,3.25 -3.05611,3.25 -0.36055,0 -2.95787,-4.84847 -5.77184,-10.77438 z M 739.75724,769.75 C 737.3607,766.08874 733,757.15919 733,755.91297 733,753.0415 770.2152,713 772.88399,713 c 1.86195,0 11.66019,10.48535 13.14263,14.06426 1.79924,4.34375 0.5014,6.31012 -13.52662,20.49428 C 761.20643,758.97782 745.20353,772 742.464,772 c -0.67869,0 -1.89673,-1.0125 -2.70676,-2.25 z m 70.95091,-9.46815 -8.79186,-8.63736 -0.21444,-9.57224 c -0.19612,-8.7549 -0.501,-10.1016 -3.57049,-15.77164 -1.94703,-3.59659 -8.97683,-12.405 -16.74371,-20.98002 C 774.02444,697.19124 768,690.11919 768,689.60491 c 0,-0.51428 2.60195,-3.67327 5.7821,-7.01998 3.18016,-3.34671 6.77552,-7.37722 7.9897,-8.95669 2.11571,-2.75223 2.30904,-2.80529 4.64497,-1.27473 4.69435,3.07586 18.34044,17.21544 23.80655,24.66748 10.29956,14.04157 16.66192,29.11681 17.2514,40.87618 0.42741,8.52644 -1.77613,18.83959 -5.65358,26.46018 L 819.5,768.91921 Z m -84.99832,-35.44113 c -28.34164,-28.6194 -38.28451,-63.07869 -25.48112,-88.31062 2.62123,-5.16572 7.65965,-12.53104 8.56933,-12.52692 0.38608,0.002 3.08351,4.66052 5.9943,10.35282 l 5.29234,10.34964 -2.67153,7.89718 c -1.91247,5.65335 -2.66379,9.89024 -2.64427,14.91178 0.0615,15.83357 2.89862,20.11028 29.62237,44.65363 l 4.89125,4.49217 -7.16117,8.76065 -7.16117,8.76065 z m 10.39968,-35.57425 c -2.22536,-2.60345 -4.81862,-6.16801 -5.7628,-7.92125 l -1.7167,-3.18772 3.9055,-4.82875 c 2.14802,-2.65581 11.36756,-12.42065 20.48787,-21.69963 l 16.58239,-16.87089 4.17651,2.1307 c 7.93821,4.04977 9.41576,12.39297 4.08423,23.06229 -1.72342,3.44887 -5.66092,8.8274 -8.75,11.9523 C 763.43316,677.65276 742.65936,694 741.03667,694 c -0.48458,0 -2.7018,-2.13009 -4.92716,-4.73353 z m 75.28184,-6.97778 -9.10865,-9.33712 -0.64058,-6.72578 c -2.33605,-24.52769 -15.34547,-39.39542 -38.31726,-43.79065 -4.23249,-0.80981 -7.78822,-1.5765 -7.90163,-1.70376 -0.1134,-0.12726 -1.10285,-3.24076 -2.19876,-6.91888 -2.35122,-7.89122 -2.42951,-7.8125 7.76935,-7.8125 15.8865,0 32.86308,6.02723 43.70684,15.51733 6.81804,5.96692 14.70804,17.8882 17.39102,26.27671 3.09439,9.67482 3.71503,25.77278 1.3765,35.70302 -0.9819,4.16948 -2.05142,7.70415 -2.37672,7.85482 -0.3253,0.15066 -4.69035,-3.92777 -9.70011,-9.06319 z m -74.70661,-33.47177 c -3.79683,-6.07075 -12.56461,-22.85211 -14.27232,-27.31692 -1.48414,-3.88026 -1.89826,-7.46342 -1.84919,-16 0.0701,-12.19028 0.75221,-15.41295 10.47764,-49.5 3.21689,-11.275 9.26097,-32.65 13.43128,-47.5 11.58504,-41.25296 12.54749,-43.84197 15.59736,-41.95704 2.74012,1.69349 4.93739,8.77837 30.52438,98.42289 5.7246,20.05622 10.65532,37.24397 10.95716,38.19499 0.46223,1.45636 -0.8394,1.20264 -8.25112,-1.60837 -4.83996,-1.83563 -9.52292,-3.57199 -10.40657,-3.85859 -0.88365,-0.2866 -2.39079,-2.91851 -3.34921,-5.84871 -4.70664,-14.38972 -13.35523,-22.11669 -22.06339,-19.71225 -5.27883,1.45756 -13.74768,9.7355 -16.496,16.12414 -4.08431,9.49425 -2.77111,18.51932 5.603,38.50704 l 4.30098,10.26577 -4.78009,5.73506 c -7.03086,8.43552 -7.67462,8.84894 -9.42391,6.05199 z M 413.87244,1159.25 c -1.24387,-1.5861 -1.2085,-1.6214 0.37756,-0.3776 0.9625,0.7549 1.75,1.5424 1.75,1.75 0,0.8231 -0.82119,0.2933 -2.12756,-1.3724 z M 1090,1160.6224 c 0,-0.2076 0.7875,-0.9951 1.75,-1.75 1.5861,-1.2438 1.6214,-1.2085 0.3776,0.3776 -1.3064,1.6657 -2.1276,2.1955 -2.1276,1.3724 z M 406.87244,1153.25 c -1.24387,-1.5861 -1.2085,-1.6214 0.37756,-0.3776 0.9625,0.7549 1.75,1.5424 1.75,1.75 0,0.8231 -0.82119,0.2933 -2.12756,-1.3724 z M 1097,1154.6224 c 0,-0.2076 0.7875,-0.9951 1.75,-1.75 1.5861,-1.2438 1.6214,-1.2085 0.3776,0.3776 -1.3064,1.6657 -2.1276,2.1955 -2.1276,1.3724 z M 395.94617,1143.25 392.5,1139.5 l 3.75,3.4462 c 2.0625,1.8954 3.75,3.5829 3.75,3.75 0,0.7636 -0.84622,0.044 -4.05383,-3.4462 z M 1109,1143.5 c 1.8658,-1.925 3.6173,-3.5 3.8923,-3.5 0.275,0 -1.0265,1.575 -2.8923,3.5 -1.8658,1.925 -3.6173,3.5 -3.8923,3.5 -0.275,0 1.0265,-1.575 2.8923,-3.5 z m -739.05383,-26.25 -3.44617,-3.75 3.75,3.4462 c 2.0625,1.8954 3.75,3.5829 3.75,3.75 0,0.7636 -0.84622,0.044 -4.05383,-3.4462 z M 1135,1117.5 c 1.8658,-1.925 3.6173,-3.5 3.8923,-3.5 0.275,0 -1.0265,1.575 -2.8923,3.5 -1.8658,1.925 -3.6173,3.5 -3.8923,3.5 -0.275,0 1.0265,-1.575 2.8923,-3.5 z m -775.12756,-11.25 c -1.24387,-1.5861 -1.2085,-1.6214 0.37756,-0.3776 0.9625,0.7549 1.75,1.5424 1.75,1.75 0,0.8231 -0.82119,0.2933 -2.12756,-1.3724 z M 1144,1107.6224 c 0,-0.2076 0.7875,-0.9951 1.75,-1.75 1.5861,-1.2438 1.6214,-1.2085 0.3776,0.3776 -1.3064,1.6657 -2.1276,2.1955 -2.1276,1.3724 z M 353.87244,1099.25 c -1.24387,-1.5861 -1.2085,-1.6214 0.37756,-0.3776 0.9625,0.7549 1.75,1.5424 1.75,1.75 0,0.8231 -0.82119,0.2933 -2.12756,-1.3724 z M 1150,1100.6224 c 0,-0.2076 0.7875,-0.9951 1.75,-1.75 1.5861,-1.2438 1.6214,-1.2085 0.3776,0.3776 -1.3064,1.6657 -2.1276,2.1955 -2.1276,1.3724 z M 236.07895,842.41667 c 0.048,-1.16495 0.28494,-1.4019 0.60416,-0.60417 0.28887,0.72187 0.25335,1.58438 -0.0789,1.91667 -0.3323,0.33229 -0.56864,-0.25834 -0.52522,-1.3125 z m 1032.99995,0 c 0.048,-1.16495 0.285,-1.4019 0.6042,-0.60417 0.2889,0.72187 0.2534,1.58438 -0.079,1.91667 -0.3323,0.33229 -0.5687,-0.25834 -0.5253,-1.3125 z m -1034.99995,-14 c 0.048,-1.16495 0.28494,-1.4019 0.60416,-0.60417 0.28887,0.72187 0.25335,1.58438 -0.0789,1.91667 -0.3323,0.33229 -0.56864,-0.25834 -0.52522,-1.3125 z m 1036.99995,0 c 0.048,-1.16495 0.285,-1.4019 0.6042,-0.60417 0.2889,0.72187 0.2534,1.58438 -0.079,1.91667 -0.3323,0.33229 -0.5687,-0.25834 -0.5253,-1.3125 z m -1037.99995,-8 c 0.048,-1.16495 0.28494,-1.4019 0.60416,-0.60417 0.28887,0.72187 0.25335,1.58438 -0.0789,1.91667 -0.3323,0.33229 -0.56864,-0.25834 -0.52522,-1.3125 z m 1038.99995,0 c 0.048,-1.16495 0.285,-1.4019 0.6042,-0.60417 0.2889,0.72187 0.2534,1.58438 -0.079,1.91667 -0.3323,0.33229 -0.5687,-0.25834 -0.5253,-1.3125 z M 232.15789,811 c 0,-1.375 0.22698,-1.9375 0.50439,-1.25 0.27741,0.6875 0.27741,1.8125 0,2.5 -0.27741,0.6875 -0.50439,0.125 -0.50439,-1.25 z m 1041.00001,0 c 0,-1.375 0.227,-1.9375 0.5044,-1.25 0.2774,0.6875 0.2774,1.8125 0,2.5 -0.2774,0.6875 -0.5044,0.125 -0.5044,-1.25 z M 231.19495,799.5 c 0.0204,-1.65 0.2445,-2.20394 0.49804,-1.23097 0.25354,0.97297 0.23687,2.32297 -0.0371,3 -0.27393,0.67703 -0.48137,-0.11903 -0.46099,-1.76903 z m -0.90894,-18 c 0.008,-2.75 0.20172,-3.75631 0.43157,-2.23625 0.22986,1.52006 0.22371,3.77006 -0.0136,5 -0.23736,1.22994 -0.42542,-0.0137 -0.41792,-2.76375 z m 0,-41 c 0.008,-2.75 0.20172,-3.75631 0.43157,-2.23625 0.22986,1.52006 0.22371,3.77006 -0.0136,5 -0.23736,1.22994 -0.42542,-0.0137 -0.41792,-2.76375 z m 0.90894,-18 c 0.0204,-1.65 0.2445,-2.20394 0.49804,-1.23097 0.25354,0.97297 0.23687,2.32297 -0.0371,3 -0.27393,0.67703 -0.48137,-0.11903 -0.46099,-1.76903 z m 0.96294,-11.5 c 0,-1.375 0.22698,-1.9375 0.50439,-1.25 0.27741,0.6875 0.27741,1.8125 0,2.5 -0.27741,0.6875 -0.50439,0.125 -0.50439,-1.25 z m 1041.00001,0 c 0,-1.375 0.227,-1.9375 0.5044,-1.25 0.2774,0.6875 0.2774,1.8125 0,2.5 -0.2774,0.6875 -0.5044,0.125 -0.5044,-1.25 z M 233.07895,701.41667 c 0.048,-1.16495 0.28494,-1.4019 0.60416,-0.60417 0.28887,0.72187 0.25335,1.58438 -0.0789,1.91667 -0.3323,0.33229 -0.56864,-0.25834 -0.52522,-1.3125 z m 1038.99995,0 c 0.048,-1.16495 0.285,-1.4019 0.6042,-0.60417 0.2889,0.72187 0.2534,1.58438 -0.079,1.91667 -0.3323,0.33229 -0.5687,-0.25834 -0.5253,-1.3125 z m -1037.99995,-8 c 0.048,-1.16495 0.28494,-1.4019 0.60416,-0.60417 0.28887,0.72187 0.25335,1.58438 -0.0789,1.91667 -0.3323,0.33229 -0.56864,-0.25834 -0.52522,-1.3125 z m 1036.99995,0 c 0.048,-1.16495 0.285,-1.4019 0.6042,-0.60417 0.2889,0.72187 0.2534,1.58438 -0.079,1.91667 -0.3323,0.33229 -0.5687,-0.25834 -0.5253,-1.3125 z m -1034.99995,-14 c 0.048,-1.16495 0.28494,-1.4019 0.60416,-0.60417 0.28887,0.72187 0.25335,1.58438 -0.0789,1.91667 -0.3323,0.33229 -0.56864,-0.25834 -0.52522,-1.3125 z m 1032.99995,0 c 0.048,-1.16495 0.285,-1.4019 0.6042,-0.60417 0.2889,0.72187 0.2534,1.58438 -0.079,1.91667 -0.3323,0.33229 -0.5687,-0.25834 -0.5253,-1.3125 z M 353,423.62244 c 0,-0.20765 0.7875,-0.99515 1.75,-1.75 1.58606,-1.24387 1.62143,-1.2085 0.37756,0.37756 C 353.82119,423.91575 353,424.44548 353,423.62244 Z M 1150.8724,422.25 c -1.2438,-1.58606 -1.2085,-1.62143 0.3776,-0.37756 1.6657,1.30637 2.1955,2.12756 1.3724,2.12756 -0.2076,0 -0.9951,-0.7875 -1.75,-1.75 z M 359,416.62244 c 0,-0.20765 0.7875,-0.99515 1.75,-1.75 1.58606,-1.24387 1.62143,-1.2085 0.37756,0.37756 C 359.82119,416.91575 359,417.44548 359,416.62244 Z M 1144.8724,415.25 c -1.2438,-1.58606 -1.2085,-1.62143 0.3776,-0.37756 1.6657,1.30637 2.1955,2.12756 1.3724,2.12756 -0.2076,0 -0.9951,-0.7875 -1.75,-1.75 z M 370,404.5 c 1.86578,-1.925 3.61733,-3.5 3.89233,-3.5 0.275,0 -1.02655,1.575 -2.89233,3.5 -1.86578,1.925 -3.61733,3.5 -3.89233,3.5 -0.275,0 1.02655,-1.575 2.89233,-3.5 z m 764.9462,-0.25 -3.4462,-3.75 3.75,3.44617 c 3.4904,3.20761 4.2098,4.05383 3.4462,4.05383 -0.1671,0 -1.8546,-1.6875 -3.75,-3.75 z M 396,378.5 c 1.86578,-1.925 3.61733,-3.5 3.89233,-3.5 0.275,0 -1.02655,1.575 -2.89233,3.5 -1.86578,1.925 -3.61733,3.5 -3.89233,3.5 -0.275,0 1.02655,-1.575 2.89233,-3.5 z m 712.9462,-0.25 -3.4462,-3.75 3.75,3.44617 c 3.4904,3.20761 4.2098,4.05383 3.4462,4.05383 -0.1671,0 -1.8546,-1.6875 -3.75,-3.75 z M 406,369.62244 c 0,-0.20765 0.7875,-0.99515 1.75,-1.75 1.58606,-1.24387 1.62143,-1.2085 0.37756,0.37756 C 406.82119,369.91575 406,370.44548 406,369.62244 Z M 1097.8724,368.25 c -1.2438,-1.58606 -1.2085,-1.62143 0.3776,-0.37756 0.9625,0.75485 1.75,1.54235 1.75,1.75 0,0.82304 -0.8212,0.29331 -2.1276,-1.37244 z M 413,363.62244 c 0,-0.20765 0.7875,-0.99515 1.75,-1.75 1.58606,-1.24387 1.62143,-1.2085 0.37756,0.37756 C 413.82119,363.91575 413,364.44548 413,363.62244 Z M 1090.8724,362.25 c -1.2438,-1.58606 -1.2085,-1.62143 0.3776,-0.37756 0.9625,0.75485 1.75,1.54235 1.75,1.75 0,0.82304 -0.8212,0.29331 -2.1276,-1.37244 z M 670.8125,244.31689 c 0.72187,-0.28887 1.58438,-0.25335 1.91667,0.0789 0.33229,0.33229 -0.25834,0.56864 -1.3125,0.52522 -1.16495,-0.048 -1.4019,-0.28494 -0.60417,-0.60416 z m 163,0 c 0.72187,-0.28887 1.58438,-0.25335 1.91667,0.0789 0.33229,0.33229 -0.25834,0.56864 -1.3125,0.52522 -1.16495,-0.048 -1.4019,-0.28494 -0.60417,-0.60416 z m -149,-2 c 0.72187,-0.28887 1.58438,-0.25335 1.91667,0.0789 0.33229,0.33229 -0.25834,0.56864 -1.3125,0.52522 -1.16495,-0.048 -1.4019,-0.28494 -0.60417,-0.60416 z m 135,0 c 0.72187,-0.28887 1.58438,-0.25335 1.91667,0.0789 0.33229,0.33229 -0.25834,0.56864 -1.3125,0.52522 -1.16495,-0.048 -1.4019,-0.28494 -0.60417,-0.60416 z m -127,-1 c 0.72187,-0.28887 1.58438,-0.25335 1.91667,0.0789 0.33229,0.33229 -0.25834,0.56864 -1.3125,0.52522 -1.16495,-0.048 -1.4019,-0.28494 -0.60417,-0.60416 z m 119,0 c 0.72187,-0.28887 1.58438,-0.25335 1.91667,0.0789 0.33229,0.33229 -0.25834,0.56864 -1.3125,0.52522 -1.16495,-0.048 -1.4019,-0.28494 -0.60417,-0.60416 z M 701.75,240.33772 c 0.6875,-0.27741 1.8125,-0.27741 2.5,0 0.6875,0.27741 0.125,0.50439 -1.25,0.50439 -1.375,0 -1.9375,-0.22698 -1.25,-0.50439 z m 100,0 c 0.6875,-0.27741 1.8125,-0.27741 2.5,0 0.6875,0.27741 0.125,0.50439 -1.25,0.50439 -1.375,0 -1.9375,-0.22698 -1.25,-0.50439 z m -88.48097,-1.03071 c 0.97297,-0.25354 2.32297,-0.23687 3,0.0371 0.67703,0.27393 -0.11903,0.48137 -1.76903,0.46099 -1.65,-0.0204 -2.20394,-0.2445 -1.23097,-0.49804 z m 77,0 c 0.97297,-0.25354 2.32297,-0.23687 3,0.0371 0.67703,0.27393 -0.11903,0.48137 -1.76903,0.46099 -1.65,-0.0204 -2.20394,-0.2445 -1.23097,-0.49804 z m -60.00528,-1.02459 c 1.52006,-0.22986 3.77006,-0.22371 5,0.0136 1.22994,0.23736 -0.0137,0.42542 -2.76375,0.41792 -2.75,-0.008 -3.75631,-0.20172 -2.23625,-0.43157 z m 41,0 c 1.52006,-0.22986 3.77006,-0.22371 5,0.0136 1.22994,0.23736 -0.0137,0.42542 -2.76375,0.41792 -2.75,-0.008 -3.75631,-0.20172 -2.23625,-0.43157 z"
         id="path20" />
      <path
         style="fill:#0d454d"
         d="m 738.76166,1283.2927 c 1.24391,-0.2392 3.04391,-0.2301 4,0.02 0.95609,0.2503 -0.0617,0.446 -2.26166,0.4349 -2.2,-0.011 -2.98225,-0.2159 -1.73834,-0.4551 z m 25,0 c 1.24391,-0.2392 3.04391,-0.2301 4,0.02 0.95609,0.2503 -0.0617,0.446 -2.26166,0.4349 -2.2,-0.011 -2.98225,-0.2159 -1.73834,-0.4551 z m -45.94916,-0.9758 c 0.72187,-0.2889 1.58438,-0.2534 1.91667,0.079 0.33229,0.3323 -0.25834,0.5687 -1.3125,0.5253 -1.16495,-0.048 -1.4019,-0.285 -0.60417,-0.6042 z m 69,0 c 0.72187,-0.2889 1.58438,-0.2534 1.91667,0.079 0.33229,0.3323 -0.25834,0.5687 -1.3125,0.5253 -1.16495,-0.048 -1.4019,-0.285 -0.60417,-0.6042 z M 715.5,1247.4775 c -62.75235,-5.7635 -120.67654,-21.6145 -175,-47.889 C 442.93388,1152.3989 361.60108,1071.0661 314.41152,973.5 282.49536,907.51218 265.01004,832.29923 265.01004,761 c 0,-71.29923 17.48532,-146.51218 49.40148,-212.5 C 361.60108,450.93388 442.93388,369.60108 540.5,322.41152 606.48782,290.49536 681.70077,273.01004 753,273.01004 c 71.29923,0 146.51218,17.48532 212.5,49.40148 97.5661,47.18956 178.8989,128.52236 226.0885,226.08848 23.1866,47.9392 38.1421,98.26488 45.4278,152.86637 1.7273,12.94511 1.9837,20.65192 1.9837,59.63363 0,48.37481 -0.571,56.11473 -6.5125,88.27732 -9.4902,51.37204 -30.2197,108.29416 -55.4356,152.22268 -49.1212,85.574 -124.1215,155.8012 -211.5519,198.0885 -66.89626,32.3555 -142.24391,49.669 -214.5,49.2881 -11.825,-0.062 -27.8,-0.6919 -35.5,-1.3991 z m 70.84125,-9.9732 c 51.54219,-4.5468 97.62379,-15.3695 144.65875,-33.9744 47.0571,-18.6137 91.2429,-45.7338 133.6481,-82.0299 47.5347,-40.6867 91.1049,-97.2123 117.9328,-153 22.2994,-46.37068 37.2778,-97.22497 44.4354,-150.86637 C 1228.7256,804.8236 1229,796.98994 1229,761 c 0,-35.98994 -0.2744,-43.8236 -1.9837,-56.63363 -7.1576,-53.6414 -22.136,-104.49569 -44.4354,-150.86637 -26.8279,-55.7877 -70.3981,-112.31333 -117.9328,-153 C 1022.2429,364.20394 978.0571,337.08377 931,318.47009 883.96504,299.86516 837.88344,289.04249 786.34125,284.49569 710.61366,277.81537 620.429,295.38615 545.5,331.41905 489.7123,358.24702 433.18667,401.81715 392.5,449.35192 356.20394,491.75709 329.08377,535.9429 310.47009,583 c -18.60493,47.03496 -29.4276,93.11656 -33.9744,144.65875 -6.68032,75.72759 10.89046,165.91225 46.92336,240.84125 21.70165,45.1277 55.53698,92.4556 92.58119,129.4998 37.04421,37.0442 84.37204,70.8795 129.49976,92.5811 74.79901,35.9704 165.24503,53.5921 240.84125,46.9234 z M 496.46073,1040.1391 c -5.01493,-3.0582 -10.56322,-10.2129 -18.0475,-23.2728 -3.89772,-6.8015 -15.77819,-27.4413 -26.40105,-45.8663 -22.28174,-38.64695 -26.14622,-46.49429 -29.57403,-60.05408 -4.2333,-16.7461 -3.85955,-32.01475 1.13949,-46.55188 l 2.4436,-7.10595 -2.4683,-5.39405 c -4.7178,-10.30993 -5.79905,-16.94074 -5.35285,-32.82642 0.36837,-13.11486 0.71634,-15.44133 3.48928,-23.32883 3.57618,-10.17231 8.03724,-18.01032 14.15599,-24.87189 4.16161,-4.66683 4.54782,-5.66563 9.13323,-23.61989 2.63333,-10.31086 5.56461,-21.44701 6.51395,-24.74701 5.09457,-17.70921 12.87951,-43.77739 17.02234,-57 6.49155,-20.71897 9.33319,-29.92831 11.53403,-37.38008 4.01078,-13.58001 11.1628,-25.62668 17.0093,-28.65002 10.88832,-5.63057 24.06298,6.59629 30.74169,28.5301 4.39077,14.41989 9.04414,29.55107 14.76168,48 3.66471,11.825 7.68275,24.875 8.92899,29 3.7799,12.51137 10.55283,34.22328 12.16588,39 0.83577,2.475 1.63137,7.94501 1.76798,12.15558 l 0.24838,7.65558 5.10919,4.9765 c 17.21864,16.77148 22.64935,40.19322 15.71189,67.76268 -1.25257,4.97769 -3.9452,12.5649 -5.98362,16.86047 l -3.70623,7.81013 1.84798,3.43771 c 4.77781,8.88792 11.20039,16.97367 15.68434,19.74588 3.90195,2.4124 5.77529,2.90638 10.93608,2.88375 10.66163,-0.0467 21.31333,-5.3315 46.16566,-22.90476 10.17181,-7.19256 12.47469,-9.26422 12.09826,-10.88352 -0.25572,-1.1 -1.35507,-5.15 -2.443,-9 -5.80863,-20.55567 1.14484,-46.80992 16.81954,-63.50556 4.78911,-5.10105 4.86546,-5.28066 3.56632,-8.38994 -3.18799,-7.62992 -5.64589,-20.31216 -5.64589,-29.13156 0,-11.3424 1.95522,-18.99966 8.26942,-32.38576 l 4.92661,-10.44442 -2.39639,-3.6212 c -4.03653,-6.0996 -7.57373,-13.70368 -9.18936,-19.75476 -2.05346,-7.69088 -2.03056,-22.19597 0.0478,-30.30086 2.15866,-8.41791 9.25946,-23.40027 14.94538,-31.53406 4.03497,-5.77207 4.72607,-7.61856 6.62044,-17.68836 4.63633,-24.6451 12.32075,-52.49579 29.59008,-107.24352 8.38551,-26.58399 14.15851,-39.28498 20.43268,-44.95332 3.43408,-3.10249 4.57582,-3.54668 9.11627,-3.54668 4.94963,0 5.42637,0.24366 10.27217,5.25 10.46915,10.81598 17.05562,29.48547 49.38188,139.97401 6.4327,21.98642 7.28625,24.1832 11.65382,29.99336 5.62875,7.48789 9.54812,15.02183 12.68355,24.38071 2.0463,6.10795 2.29987,8.68498 2.20427,22.40192 -0.0988,14.18008 -0.39736,16.62074 -3.50573,28.66099 l -3.3977,13.16098 3.63469,7.16256 c 4.45886,8.78666 6.40428,17.15907 6.27733,27.01547 -0.12551,9.74437 -1.6651,16.57226 -6.02646,26.72657 l -3.54618,8.25635 5.01742,6.69978 c 6.2426,8.33578 9.95408,15.7904 12.32225,24.74967 3.17696,12.01908 2.0717,28.32856 -2.7927,41.20977 l -1.56422,4.14215 4.34466,3.9697 C 881.27433,879.61882 896.52944,889 909.21798,889 c 9.50215,0 15.24777,-4.83127 22.69128,-19.08021 l 4.40927,-8.44056 -3.76751,-7.93927 c -2.07214,-4.36661 -4.79234,-12.01193 -6.04491,-16.98962 -6.93746,-27.56946 -1.50675,-50.9912 15.71189,-67.76268 l 5.10919,-4.9765 0.24838,-7.65558 c 0.13661,-4.21057 0.93221,-9.68058 1.76798,-12.15558 1.61305,-4.77672 8.38598,-26.48863 12.16588,-39 1.24624,-4.125 5.26428,-17.175 8.92899,-29 5.71754,-18.44893 10.37091,-33.58011 14.76168,-48 0.58615,-1.925 2.32725,-6.31151 3.86911,-9.74781 7.77994,-17.33894 18.62839,-24.21929 28.07069,-17.80308 6.9926,4.75161 11.7432,14.21201 18.8563,37.55089 2.263,7.425 6.1562,20.025 8.6516,28 4.0122,12.82275 11.8713,39.16002 16.8597,56.5 0.9493,3.3 3.8806,14.43615 6.5139,24.74701 4.5854,17.95426 4.9716,18.95306 9.1332,23.61989 6.1188,6.86157 10.5798,14.69958 14.156,24.87189 2.773,7.8875 3.1209,10.21397 3.4893,23.32883 0.4462,15.88568 -0.635,22.51649 -5.3528,32.82642 l -2.4683,5.39405 2.4436,7.10595 c 6.7676,19.68007 4.8735,43.04409 -5.2532,64.79845 -2.1269,4.56913 -12.5585,23.38251 -23.1814,41.80751 -10.6228,18.425 -22.5033,39.0797 -26.401,45.8993 -7.5942,13.287 -14.7326,22.09 -19.5215,24.0737 -4.583,1.8983 -18.75317,0.7205 -34.5653,-2.8731 -7.7,-1.75 -19.175,-4.27 -25.5,-5.5999 -6.325,-1.3299 -17.8,-3.79 -25.5,-5.4667 -43.5186,-9.4767 -77.68661,-14.5741 -117.5,-17.5293 -4.675,-0.347 -11.2,-0.8569 -14.5,-1.1331 -8.66356,-0.725 -69.77363,-0.6749 -80.18237,0.066 -17.07783,1.2152 -20.92825,1.5192 -32.81763,2.5912 -19.79357,1.7845 -41.32168,4.6831 -63.5,8.5496 -14.58798,2.5433 -62.33978,12.5073 -90.83346,18.9535 -18.01713,4.0761 -28.814,4.5912 -33.70581,1.6081 z M 525.5,1018.4441 c 3.85,-0.8366 14.425,-3.0609 23.5,-4.943 9.075,-1.882 26.4,-5.4854 38.5,-8.0075 53.95928,-11.24738 81.09816,-15.29324 124.5,-18.56046 16.2616,-1.22415 71.50043,-1.61017 83.5,-0.58352 3.85,0.3294 10.825,0.86261 15.5,1.18492 31.9823,2.20495 64.57226,7.28833 112,17.46976 61.16265,13.1299 74.83791,15.63 80.0873,14.6416 4.8275,-0.909 10.7997,-6.2271 16.168,-14.3972 5.1493,-7.83674 39.0473,-66.85816 43.5429,-75.81461 7.8296,-15.59861 11.7005,-34.25845 10.011,-48.25909 -1.9605,-16.24697 -6.7902,-24.51369 -24.1928,-41.40933 -7.214,-7.00388 -13.5788,-12.74138 -14.1439,-12.75 -0.8946,-0.0136 -6.5893,6.02747 -14.1347,14.99469 l -2.2901,2.72163 15.5434,16.884 c 8.5488,9.28621 16.4131,18.55358 17.4761,20.59417 2.5193,4.83603 2.486,12.23629 -0.086,19.11067 -2.0715,5.53634 -47.5392,96.4553 -49.0509,98.08393 -0.8498,0.91554 -12.80705,-3.82719 -18.72997,-7.42913 l -3.10018,-1.88533 10.06409,-20.79515 C 995.69948,957.85782 1004.2773,940.175 1009.2261,930 c 4.9488,-10.175 10.1032,-20.9449 11.4542,-23.93311 1.462,-3.23358 5.465,-8.63126 9.8881,-13.33297 4.0874,-4.34493 7.4316,-8.34256 7.4316,-8.88362 0,-2.833 -13.275,-15.8503 -16.164,-15.8503 -0.5415,0 -3.5793,2.475 -6.7507,5.5 -3.1713,3.025 -6.486,5.5 -7.3658,5.5 -2.0386,0 -23.16871,-20.26751 -29.74034,-28.52618 -6.77211,-8.51063 -11.09293,-18.01864 -11.71442,-25.77772 -0.39873,-4.9779 0.0197,-7.69032 2.12804,-13.7961 3.00823,-8.7117 3.04479,-8.50267 -4.23368,-24.20593 -3.64909,-7.87288 -4.28305,-8.6981 -5.98319,-7.78822 -3.21661,1.72148 -8.34312,8.22452 -11.0748,14.04852 -2.3898,5.09511 -2.59894,6.60173 -2.57437,18.54563 0.0292,14.21112 1.09212,19.57549 6.68087,33.71838 4.57855,11.58647 10.54345,20.18436 25.12179,36.21094 10.92594,12.01135 12.6706,14.38989 12.6706,17.27426 0,3.7166 -30.16574,79.61244 -32.84591,82.63904 -3.77506,4.26302 -5.24743,4.14446 -24.33232,-1.95944 l -4.67822,-1.49623 3.80717,-8.19348 c 2.09394,-4.50641 6.15585,-13.14347 9.02646,-19.19347 2.87062,-6.05 8.37084,-17.75 12.22273,-26 3.85188,-8.25 8.47875,-17.95483 10.28195,-21.56628 6.0732,-12.16349 5.6773,-14.79015 -3.82954,-25.40803 l -5.34916,-5.97431 -1.27407,3.97431 c -2.78749,8.69525 -9.48546,20.01797 -15.15755,25.62341 C 929.63378,908.30181 922.97694,911 912.56782,911 894.26904,911 875.43201,900.8204 846,875.0265 c -5.775,-5.06115 -16.89329,-14.36221 -24.7073,-20.66903 -7.81402,-6.30682 -17.59604,-14.63164 -21.73781,-18.4996 -4.14178,-3.86797 -7.9575,-6.88083 -8.47939,-6.69527 -1.60717,0.57147 -22.95258,16.29816 -23.01593,16.95747 -0.0705,0.73427 22.25133,30.79282 29.44043,39.64437 3.88958,4.78903 5.88834,6.38665 9,7.19375 32.65361,8.4697 45.01272,15.35733 51.13008,28.49436 2.92161,6.27417 3.11733,16.78057 0.55972,30.04745 -1.5193,7.88097 -1.98089,8.97191 -3.71241,8.77407 -1.08757,-0.12426 -10.07739,-1.32658 -19.97739,-2.67183 -9.9,-1.34524 -25.65,-3.45327 -35,-4.68451 -9.35,-1.23123 -17.30418,-2.50391 -17.67595,-2.82817 -0.37178,-0.32426 0.48493,-10.03956 1.90379,-21.58956 1.63521,-13.31111 2.32855,-22.66839 1.89366,-25.55674 -0.66156,-4.39388 -0.89677,-4.65344 -6.58162,-7.26284 -15.94023,-7.31673 -35.16836,-20.61685 -46.32783,-32.04501 -17.68005,-18.10574 -24.03297,-32.98652 -20.72913,-48.55493 l 1.25935,-5.93434 -4.03809,-4.82307 c -2.22095,-2.65269 -5.61837,-7.23909 -7.54983,-10.19199 l -3.51174,-5.36893 -4.85324,4.86893 c -8.51275,8.54026 -11.9485,18.97287 -10.98381,33.35225 1.77276,26.42425 21.97959,56.8732 47.1817,71.09639 l 5.16092,2.91264 1.79765,17.75382 c 0.9887,9.7646 2.12896,20.90382 2.53391,24.75382 0.40495,3.85 0.46267,7.28843 0.12826,7.64095 -0.3344,0.35252 -6.233,0.94574 -13.108,1.31827 -16.1779,0.87661 -32.67229,3.01818 -43.70752,5.67482 -4.83587,1.16419 -12.01791,2.1728 -15.96011,2.24134 -6.34951,0.1104 -7.47709,-0.16073 -9.87888,-2.37538 C 652.64787,954.49089 651,950.01611 651,943.19105 c 0,-7.69516 2.02131,-14.14029 6.60526,-21.06147 4.49581,-6.7881 17.05844,-19.28008 28.21979,-28.06109 4.49622,-3.53732 8.17495,-6.83401 8.17495,-7.32595 0,-0.49195 -1.94013,-3.44777 -4.3114,-6.5685 -2.37126,-3.12072 -5.33805,-7.36977 -6.59286,-9.44234 l -2.28148,-3.7683 -6.15713,4.8171 c -26.60522,20.81485 -34.10519,26.00196 -46.68472,32.28795 -20.80783,10.39766 -37.94221,8.88817 -50.93473,-4.48721 -6.96291,-7.16808 -8.21171,-8.95763 -13.23398,-18.96449 l -4.45836,-8.88325 -4.92267,5.66848 c -9.59145,11.04461 -9.9602,13.40519 -3.96845,25.40437 1.83835,3.68151 6.49399,13.44365 10.34587,21.69365 3.85189,8.25 9.35211,19.95 12.22273,26 2.87061,6.05 6.93577,14.69413 9.03368,19.20918 l 3.81439,8.20917 -8.68544,2.59788 c -4.777,1.42883 -10.12591,3.04982 -11.88648,3.60221 -3.46989,1.0887 -5.674,0.36467 -8.45027,-2.77582 -2.75952,-3.12152 -32.11831,-76.41919 -32.58354,-81.34862 l -0.42527,-4.50599 11.33005,-12.3558 C 549.8015,867.17602 554.22403,861.28309 558.90935,851.5 572.82067,822.45267 572.48693,794.70704 558.06954,781.68179 555.82812,779.6568 553.74146,778 553.43251,778 c -0.65365,0 -8.02401,15.67632 -10.0614,21.4 -1.2839,3.60689 -1.191,4.47121 1.23611,11.5 2.10838,6.10578 2.52677,8.8182 2.12804,13.7961 -0.59763,7.46117 -4.75414,16.8812 -11.07086,25.09026 C 529.82203,857.37894 507.34304,879 505.29154,879 c -0.88589,0 -4.20549,-2.475 -7.37689,-5.5 -3.1714,-3.025 -6.20917,-5.5 -6.75062,-5.5 C 488.27495,868 475,881.0173 475,883.8503 c 0,0.54106 3.34423,4.53869 7.43163,8.88362 4.42303,4.70171 8.42607,10.09939 9.88803,13.33297 1.35101,2.98821 6.5054,13.75811 11.4542,23.93311 4.9488,10.175 13.52666,27.85782 19.0619,39.29515 l 10.06409,20.79515 -3.10018,1.88533 c -5.91761,3.59872 -17.88018,8.34467 -18.72564,7.42913 -1.54189,-1.66973 -46.90879,-92.34717 -49.004,-97.94712 -2.6196,-7.00153 -2.67223,-14.38134 -0.13725,-19.24748 1.06303,-2.04059 8.92729,-11.30796 17.47614,-20.59417 l 15.54335,-16.884 -2.2901,-2.72163 c -7.54542,-8.96722 -13.24003,-15.00833 -14.13463,-14.99469 -0.56515,0.009 -6.92993,5.74612 -14.14397,12.75 -17.42177,16.91425 -22.29847,25.30354 -24.26019,41.73433 -1.60442,13.43813 2.45539,32.74704 10.07843,47.93409 4.43106,8.82782 38.36272,67.9317 43.38255,75.56591 9.59853,14.5976 15.387,17.0359 31.91564,13.4441 z M 754.49606,843.50987 c 13.52406,-11.07983 33.0143,-28.22911 37.73592,-33.20348 l 2.73199,-2.87822 -3.909,-5.96408 C 788.90503,798.18384 785.51025,793.925 783.51103,792 l -3.63495,-3.5 -5.18804,2.86213 c -10.99608,6.0663 -21.66076,14.69398 -35.89847,29.04173 C 730.6553,828.60098 724,835.71009 724,836.20189 c 0,1.48959 6.66477,11.42129 10.551,15.72289 2.80504,3.10484 4.03029,3.82986 5.29886,3.13553 0.90758,-0.49675 7.49837,-5.69444 14.6462,-11.55044 z m -222.50797,-6.3056 3.05946,-4.61894 -9.2563,-9.54267 C 496.40455,792.7468 491.86533,789.93467 484.4,797.4 c -2.83735,2.83735 -3.4,4.12883 -3.4,7.80422 0,7.62513 5.13647,13.75122 29.97921,35.75514 l 10.4792,9.28173 3.73511,-4.20894 c 2.05431,-2.31492 5.11187,-6.28747 6.79457,-8.82788 z M 1007.5,835.89932 c 20.7882,-18.57055 24.5,-23.2595 24.5,-30.94966 0,-3.38589 -0.6258,-4.77545 -3.4,-7.54966 -7.4023,-7.40226 -13.3352,-3.7852 -40.49495,24.68808 l -10.09964,10.58808 4.10126,5.91192 c 2.25569,3.25156 5.25578,7.14119 6.66686,8.64363 3.03005,3.22622 1.16778,4.35318 18.72647,-11.33239 z m -555.87601,2.03789 8.87601,-9.06279 0.65883,-8.18721 c 1.07545,-13.36438 6.063,-23.87308 15.94906,-33.60443 6.91273,-6.80455 13.68116,-10.15308 23.2889,-11.52167 8.89346,-1.26684 10.03518,-2.28593 11.30117,-10.08731 0.53515,-3.29771 0.41636,-3.4738 -2.34335,-3.4738 -12.70533,0 -31.48225,4.38156 -41.63082,9.71448 -23.96154,12.59144 -33.9443,37.12729 -27.27435,67.03552 1.01193,4.5375 1.94307,8.25 2.06921,8.25 0.12613,0 4.22354,-4.07826 9.10534,-9.06279 z m 381.1216,3.29784 c 5.57999,-14.39038 5.07196,-25.72956 -1.75906,-39.26173 -4.68194,-9.27487 -11.46208,-17.37283 -33.24298,-39.70425 l -12.90476,-13.23093 -2.66203,3.23093 c -1.46411,1.77701 -4.81242,5.53454 -7.44067,8.35006 l -4.77866,5.11913 6.95952,5.69379 c 8.73535,7.14667 19.02743,18.00884 23.62577,24.93444 5.31593,8.00637 7.62236,14.97918 8.20923,24.81817 0.48309,8.09928 0.72798,8.88738 3.63303,11.69216 3.43921,3.3205 16.82029,14.01378 17.62011,14.08083 0.2778,0.0233 1.51103,-2.55188 2.7405,-5.7226 z M 1072.5506,838.75 c 2.6201,-11.74892 2.4958,-26.24733 -0.3027,-35.29153 -7.0164,-22.6756 -26.7853,-36.63579 -57.2217,-40.4082 -13.0139,-1.613 -14.0262,-1.50549 -14.0262,1.48957 0,1.39691 0.8747,4.25448 1.9439,6.35015 1.9001,3.72455 2.0971,3.82448 8.75,4.43951 22.5387,2.08358 43.4471,26.37902 40.8171,47.42911 l -0.6819,5.45739 8.8354,9.25887 c 4.8595,5.09237 9.1079,9.31877 9.4408,9.392 0.333,0.0732 1.4333,-3.57937 2.4453,-8.11687 z M 743.0793,790.5 c -17.16229,-16.03777 -26.41904,-35.58286 -24.09746,-50.88037 0.66671,-4.39309 0.54074,-4.68177 -4.6302,-10.61086 -2.92356,-3.3522 -6.53274,-7.69072 -8.02041,-9.64115 l -2.70485,-3.54625 -2.2223,4.37276 c -4.43316,8.723 -5.71017,15.37878 -5.13524,26.76484 0.92443,18.3078 6.82555,31.04647 24.84742,53.63777 l 9.963,12.48912 9.21037,-8.29293 L 749.5,796.5 Z m -211.30401,5.75 c 11.64664,-24.60659 14.09916,-36.0689 10.85868,-50.75 -2.32594,-10.53777 -33.77899,-115.85113 -35.76471,-119.75 -2.17404,-4.26861 -4.08029,-4.77702 -5.5789,-1.48792 -3.70411,8.12962 -32.07537,108.19408 -37.6652,132.84384 l -0.59094,2.60592 8.23289,-3.31469 c 7.06965,-2.84636 8.42011,-3.77972 9.55796,-6.60592 3.83342,-9.52148 11.06614,-15.61488 19.57713,-16.49329 4.2833,-0.44208 6.09121,-0.0816 10.30828,2.05535 8.55406,4.33467 13.23274,12.92489 13.26756,24.35969 0.0232,7.62659 -0.80014,10.35917 -7.42143,24.63048 l -3.63904,7.84345 3.82869,4.15655 c 2.10577,2.2861 4.90895,5.61904 6.22927,7.40654 1.32032,1.7875 2.69557,3.25 3.05611,3.25 0.36055,0 2.94519,-4.8375 5.74365,-10.75 z m 458.24918,7.5 c 1.32032,-1.7875 4.1235,-5.12044 6.22927,-7.40654 l 3.82866,-4.15655 -3.63901,-7.84345 c -6.62129,-14.27131 -7.44465,-17.00389 -7.42143,-24.63048 0.0348,-11.4348 4.7135,-20.02502 13.26754,-24.35969 11.4197,-5.78678 24.2355,0.40469 29.8854,14.43794 1.1379,2.8262 2.4883,3.75956 9.558,6.60592 l 8.2329,3.31469 -0.6161,-2.60592 c -7.1642,-30.30194 -33.8806,-124.59271 -37.6401,-132.84384 -0.5668,-1.24414 -1.6243,-2.26208 -2.3498,-2.26208 -2.4403,0 -5.2585,7.65653 -14.77971,40.15476 -5.21204,17.78988 -12.8734,43.81681 -17.02524,57.83761 -4.15185,14.0208 -7.8292,28.22906 -8.17189,31.57391 -0.75728,7.39155 0.99829,18.64609 4.27553,27.40934 C 976.79865,787.37231 986.1206,807 986.96836,807 c 0.36054,0 1.73579,-1.4625 3.05611,-3.25 z M 752.09899,765.84605 c 8.894,-6.51506 31.4446,-28.59205 33.79312,-33.08337 1.14149,-2.18299 1.16571,-3.20888 0.13451,-5.69842 C 784.54418,723.48535 774.74594,713 772.88399,713 770.2152,713 733,753.0415 733,755.91297 c 0,1.24622 4.3607,10.17577 6.75724,13.83703 0.81003,1.2375 2.02807,2.25 2.70676,2.25 0.6787,0 5.01444,-2.76928 9.63499,-6.15395 z m 73.90006,-13.19831 c 4.35591,-16.76819 -0.92098,-35.37501 -15.77573,-55.62675 -5.46611,-7.45204 -19.1122,-21.59162 -23.80655,-24.66748 -2.33593,-1.53056 -2.52926,-1.4775 -4.64497,1.27473 -1.21418,1.57947 -4.80954,5.60998 -7.9897,8.95669 -3.18015,3.34671 -5.7821,6.5057 -5.7821,7.01998 0,0.51428 6.02444,7.58633 13.38765,15.71568 7.76688,8.57502 14.79668,17.38343 16.74371,20.98002 3.06949,5.67004 3.37437,7.01674 3.57049,15.77164 l 0.21444,9.57224 8.79186,8.63736 8.79185,8.63736 2.32114,-4.56186 c 1.27662,-2.50903 3.15668,-7.77835 4.17791,-11.70961 z m -81.6078,-40.47951 c -26.72375,-24.54335 -29.56083,-28.82006 -29.62237,-44.65363 -0.0195,-5.02154 0.7318,-9.25843 2.64427,-14.91178 l 2.67153,-7.89718 -5.29234,-10.34964 c -2.91079,-5.6923 -5.60822,-10.35107 -5.9943,-10.35282 -0.90968,-0.004 -5.9481,7.3612 -8.56933,12.52692 -12.80339,25.23193 -2.86052,59.69122 25.48112,88.31062 l 9.25033,9.34098 7.16117,-8.76065 7.16117,-8.76065 z m 8.31761,-26.37566 c 14.08509,-10.7127 21.30225,-18.126 25.15765,-25.84135 5.33153,-10.66932 3.85398,-19.01252 -4.08423,-23.06229 l -4.17651,-2.1307 -16.58239,16.87089 c -9.12031,9.27898 -18.33985,19.04382 -20.48787,21.69963 l -3.9055,4.82875 1.7167,3.18772 C 732.46123,685.27164 739.83439,694 741.03667,694 c 0.48458,0 5.73707,-3.69334 11.67219,-8.20743 z m 70.75932,-2.29551 c 2.33853,-9.93024 1.71789,-26.0282 -1.3765,-35.70302 C 819.4087,639.40553 811.5187,627.48425 804.70066,621.51733 793.8569,612.02723 776.88032,606 760.99382,606 c -10.19886,0 -10.12057,-0.0787 -7.76935,7.8125 1.09591,3.67812 2.08536,6.79162 2.19876,6.91888 0.11341,0.12726 3.66914,0.89395 7.90163,1.70376 22.97179,4.39523 35.98121,19.26296 38.31726,43.79065 l 0.64058,6.72578 9.10865,9.33712 c 5.00976,5.13542 9.37481,9.21385 9.70011,9.06319 0.3253,-0.15067 1.39482,-3.68534 2.37672,-7.85482 z m -77.35953,-40.73213 4.78009,-5.73506 -4.30098,-10.26577 c -8.37411,-19.98772 -9.68731,-29.01279 -5.603,-38.50704 2.74832,-6.38864 11.21717,-14.66658 16.496,-16.12414 8.70816,-2.40444 17.35675,5.32253 22.06339,19.71225 0.95842,2.9302 2.46556,5.56211 3.34921,5.84871 0.88365,0.2866 5.56661,2.02296 10.40657,3.85859 7.41172,2.81101 8.71335,3.06473 8.25112,1.60837 -0.30184,-0.95102 -5.23256,-18.13877 -10.95716,-38.19499 -25.58699,-89.64452 -27.78426,-96.7294 -30.52438,-98.42289 -3.04987,-1.88493 -4.01232,0.70408 -15.59736,41.95704 -4.17031,14.85 -10.21439,36.225 -13.43128,47.5 -9.72543,34.08705 -10.40757,37.30972 -10.47764,49.5 -0.0732,12.73303 0.73556,15.45315 9.21702,31 8.20121,15.03315 8.07465,14.86378 9.95094,13.31692 0.87856,-0.72431 3.74842,-3.8977 6.37746,-7.05199 z M 403.87244,1150.25 c -1.24387,-1.5861 -1.2085,-1.6214 0.37756,-0.3776 1.66575,1.3064 2.19548,2.1276 1.37244,2.1276 -0.20765,0 -0.99515,-0.7875 -1.75,-1.75 z M 1100,1151.6224 c 0,-0.2076 0.7875,-0.9951 1.75,-1.75 1.5861,-1.2438 1.6214,-1.2085 0.3776,0.3776 -1.3064,1.6657 -2.1276,2.1955 -2.1276,1.3724 z M 389.43709,1136.75 386.5,1133.5 l 3.25,2.9371 c 3.02946,2.7378 3.70965,3.5629 2.93709,3.5629 -0.1721,0 -1.6346,-1.4625 -3.25,-3.25 z M 1113,1139.6871 c 0,-0.1721 1.4625,-1.6346 3.25,-3.25 l 3.25,-2.9371 -2.9371,3.25 c -2.7378,3.0295 -3.5629,3.7097 -3.5629,2.9371 z M 376.43709,1123.75 373.5,1120.5 l 3.25,2.9371 c 3.02946,2.7378 3.70965,3.5629 2.93709,3.5629 -0.1721,0 -1.6346,-1.4625 -3.25,-3.25 z M 1126,1126.6871 c 0,-0.1721 1.4625,-1.6346 3.25,-3.25 l 3.25,-2.9371 -2.9371,3.25 c -2.7378,3.0295 -3.5629,3.7097 -3.5629,2.9371 z M 362.87244,1109.25 c -1.24387,-1.5861 -1.2085,-1.6214 0.37756,-0.3776 0.9625,0.7549 1.75,1.5424 1.75,1.75 0,0.8231 -0.82119,0.2933 -2.12756,-1.3724 z M 1141,1110.6224 c 0,-0.2076 0.7875,-0.9951 1.75,-1.75 1.5861,-1.2438 1.6214,-1.2085 0.3776,0.3776 -1.3064,1.6657 -2.1276,2.1955 -2.1276,1.3724 z M 231.07895,795.41667 c 0.048,-1.16495 0.28494,-1.4019 0.60416,-0.60417 0.28887,0.72187 0.25335,1.58438 -0.0789,1.91667 -0.3323,0.33229 -0.56864,-0.25834 -0.52522,-1.3125 z M 230.25218,773.5 c 0.0111,-2.2 0.21589,-2.98225 0.45508,-1.73834 0.23919,1.24391 0.23011,3.04391 -0.0202,4 -0.25029,0.95609 -0.446,-0.0617 -0.4349,-2.26166 z m 0,-25 c 0.0111,-2.2 0.21589,-2.98225 0.45508,-1.73834 0.23919,1.24391 0.23011,3.04391 -0.0202,4 -0.25029,0.95609 -0.446,-0.0617 -0.4349,-2.26166 z m 0.82677,-22.08333 c 0.048,-1.16495 0.28494,-1.4019 0.60416,-0.60417 0.28887,0.72187 0.25335,1.58438 -0.0789,1.91667 -0.3323,0.33229 -0.56864,-0.25834 -0.52522,-1.3125 z M 362,413.62244 c 0,-0.20765 0.7875,-0.99515 1.75,-1.75 1.58606,-1.24387 1.62143,-1.2085 0.37756,0.37756 C 362.82119,413.91575 362,414.44548 362,413.62244 Z M 1141.8724,412.25 c -1.2438,-1.58606 -1.2085,-1.62143 0.3776,-0.37756 1.6657,1.30637 2.1955,2.12756 1.3724,2.12756 -0.2076,0 -0.9951,-0.7875 -1.75,-1.75 z M 374,400.68709 c 0,-0.1721 1.4625,-1.6346 3.25,-3.25 l 3.25,-2.93709 -2.93709,3.25 C 374.82513,400.77946 374,401.45965 374,400.68709 Z m 754.4371,-2.93709 -2.9371,-3.25 3.25,2.93709 c 3.0295,2.73778 3.7097,3.56291 2.9371,3.56291 -0.1721,0 -1.6346,-1.4625 -3.25,-3.25 z M 387,387.68709 c 0,-0.1721 1.4625,-1.6346 3.25,-3.25 l 3.25,-2.93709 -2.93709,3.25 C 387.82513,387.77946 387,388.45965 387,387.68709 Z m 728.4371,-2.93709 -2.9371,-3.25 3.25,2.93709 c 3.0295,2.73778 3.7097,3.56291 2.9371,3.56291 -0.1721,0 -1.6346,-1.4625 -3.25,-3.25 z M 403,372.62244 c 0,-0.20765 0.7875,-0.99515 1.75,-1.75 1.58606,-1.24387 1.62143,-1.2085 0.37756,0.37756 C 403.82119,372.91575 403,373.44548 403,372.62244 Z M 1100.8724,371.25 c -1.2438,-1.58606 -1.2085,-1.62143 0.3776,-0.37756 1.6657,1.30637 2.1955,2.12756 1.3724,2.12756 -0.2076,0 -0.9951,-0.7875 -1.75,-1.75 z M 717.8125,239.31689 c 0.72187,-0.28887 1.58438,-0.25335 1.91667,0.0789 0.33229,0.33229 -0.25834,0.56864 -1.3125,0.52522 -1.16495,-0.048 -1.4019,-0.28494 -0.60417,-0.60416 z m 69,0 c 0.72187,-0.28887 1.58438,-0.25335 1.91667,0.0789 0.33229,0.33229 -0.25834,0.56864 -1.3125,0.52522 -1.16495,-0.048 -1.4019,-0.28494 -0.60417,-0.60416 z m -48.05084,-1.02415 c 1.24391,-0.23919 3.04391,-0.23011 4,0.0202 0.95609,0.25029 -0.0617,0.446 -2.26166,0.4349 -2.2,-0.0111 -2.98225,-0.21589 -1.73834,-0.45508 z m 25,0 c 1.24391,-0.23919 3.04391,-0.23011 4,0.0202 0.95609,0.25029 -0.0617,0.446 -2.26166,0.4349 -2.2,-0.0111 -2.98225,-0.21589 -1.73834,-0.45508 z"
         id="path18" />
      <path
         style="fill:#000000"
         d="M 736.5,1283.3799 C 637.73892,1279.3272 547.30689,1250.7532 467,1198.2256 338.83996,1114.398 253.89268,978.51709 234.6082,826.49373 c -5.30573,-41.8261 -5.30573,-89.16136 0,-130.98746 C 244.58715,616.84023 272.37251,541.355 315.77436,475 399.60198,346.83996 535.48291,261.89268 687.50627,242.6082 c 41.8261,-5.30573 89.16136,-5.30573 130.98746,0 78.66604,9.97895 154.15127,37.76431 220.50627,81.16616 122.3134,80.0034 205.594,207.68863 229.4074,351.72564 4.9378,29.86708 5.0926,32.46528 5.0926,85.5 0,53.03472 -0.1548,55.63292 -5.0926,85.5 -20.4118,123.46222 -84.4245,235.2226 -180.9074,315.8478 -82.8955,69.2711 -187.0515,111.5602 -294.5,119.5721 -15.75386,1.1746 -45.023,1.931 -56.5,1.46 z m 55.84125,-25.8756 c 64.29046,-5.6714 121.46754,-21.3682 178.15875,-48.9099 23.01618,-11.1817 36.0977,-18.6152 56.5,-32.1058 65.2071,-43.1169 119.5093,-100.8334 158.0508,-167.9886 26.5342,-46.23346 47.8063,-104.09186 57.4367,-156.22268 C 1248.4963,819.75049 1249,812.69063 1249,761 c 0,-51.69063 -0.5037,-58.75049 -6.5125,-91.27732 -9.6304,-52.13082 -30.9025,-109.98922 -57.4367,-156.22268 -27.1899,-47.37599 -66.0345,-94.47238 -106.4025,-129.00583 -51.3541,-43.93165 -107.59383,-75.72187 -171.02271,-96.67272 -100.04996,-33.04695 -209.20122,-33.04695 -309.25118,0 -63.42888,20.95085 -119.66864,52.74107 -171.02273,96.67272 -33.2686,28.46015 -64.26202,63.82296 -89.84031,102.50583 -13.49058,20.40225 -20.92411,33.48382 -32.10581,56.5 -56.87769,117.07585 -66.00026,249.76533 -25.58411,372.12559 20.95085,63.42888 52.74107,119.66861 96.67272,171.02271 28.46015,33.2686 63.82296,64.262 102.50583,89.8403 20.40225,13.4906 33.48382,20.9241 56.5,32.1058 56.00481,27.2082 113.30434,43.033 177,48.8831 19.66562,1.8061 59.51894,1.8195 79.84125,0.027 z"
         id="path16" />
    </g>
  </g>
</svg>
