<?xml version="1.0" encoding="UTF-8" standalone="no"?>
<svg
   xmlns:dc="http://purl.org/dc/elements/1.1/"
   xmlns:cc="http://creativecommons.org/ns#"
   xmlns:rdf="http://www.w3.org/1999/02/22-rdf-syntax-ns#"
   xmlns:svg="http://www.w3.org/2000/svg"
   xmlns="http://www.w3.org/2000/svg"
   xmlns:sodipodi="http://sodipodi.sourceforge.net/DTD/sodipodi-0.dtd"
   xmlns:inkscape="http://www.inkscape.org/namespaces/inkscape"
   version="1.1"
   id="svg2"
   width="1045.0203"
   height="1337.8683"
   viewBox="0 0 1045.0203 1337.8683"
   sodipodi:docname="Ysranguard.svg"
   inkscape:version="1.0.1 (3bc2e813f5, 2020-09-07)">
  <metadata
     id="metadata8">
    <rdf:RDF>
      <cc:Work
         rdf:about="">
        <dc:format>image/svg+xml</dc:format>
        <dc:type
           rdf:resource="http://purl.org/dc/dcmitype/StillImage" />
        <dc:title></dc:title>
      </cc:Work>
    </rdf:RDF>
  </metadata>
  <defs
     id="defs6" />
  <sodipodi:namedview
     pagecolor="#ffffff"
     bordercolor="#666666"
     borderopacity="1"
     objecttolerance="10"
     gridtolerance="10"
     guidetolerance="10"
     inkscape:pageopacity="0"
     inkscape:pageshadow="2"
     inkscape:window-width="1920"
     inkscape:window-height="1057"
     id="namedview4"
     showgrid="false"
     inkscape:pagecheckerboard="true"
     inkscape:zoom="0.49"
     inkscape:cx="521.00001"
     inkscape:cy="675"
     inkscape:window-x="-8"
     inkscape:window-y="-8"
     inkscape:window-maximized="1"
     inkscape:current-layer="g10" />
  <g
     inkscape:groupmode="layer"
     inkscape:label="Image"
     id="g10"
     transform="translate(-228.99999,-75)">
    <path
       style="fill:#ffffff"
       d="m 746.50004,1412.3132 c -41.03263,-9.331 -62.68596,-16.5936 -92.5,-31.025 -61.00572,-29.5295 -124.17873,-72.7834 -176.49892,-120.8469 -32.04111,-29.4342 -73.79887,-74.1114 -93.0354,-99.5397 -27.30251,-36.0905 -40.63474,-55.3014 -55.42188,-79.8595 -5.53252,-9.1882 -24.31414,-42.9176 -28.8975,-51.8961 -3.08632,-6.046 -17.9065,-38.56363 -20.34776,-44.64603 -9.16884,-22.8441 -17.51484,-46.7129 -22.72796,-65 -1.72469,-6.05 -3.7834,-13.25 -4.57492,-16 -0.79153,-2.75 -2.34983,-9.4272 -3.4629,-14.8382 -1.11307,-5.411 -2.24539,-10.1968 -2.51628,-10.6351 C 245.8079,876.8801 241.12379,848.5268 239.40829,835 c -2.3305,-18.37597 -3.2009,-62.73455 -7.0545,-359.5 -0.8999,-69.3 -1.9613,-150.3 -2.3586,-180 -0.3973,-29.7 -0.7838,-91.4625 -0.8588,-137.25 L 228.99999,75 h 522.51017 522.51004 l -0.3185,93.75 c -0.2857,84.07639 -1.6343,205.23622 -4.7499,426.75 -0.5724,40.7 -1.4572,107.075 -1.9662,147.5 -0.6433,51.08922 -1.3728,77.92118 -2.3926,88 -1.9111,18.88762 -5.3198,43.05626 -7.0518,50 -0.7546,3.025 -1.6683,7.52497 -2.0305,9.99997 -0.3621,2.475 -2.2349,11.025 -4.1616,19 -21.3804,88.4973 -62.5146,171.45033 -123.2244,248.50003 -41.0287,52.0714 -96.9145,105.7517 -152.62466,146.6011 -14.3811,10.545 -41.74547,28.9958 -53.74951,36.2414 -12.41366,7.4928 -35.89928,21.1043 -40.25049,23.3278 -2.2,1.1242 -8.275,4.296 -13.5,7.0485 -10.9124,5.7485 -52.6336,25.0096 -64.5,29.7773 -11.28932,4.5358 -22.85447,8.2611 -31.00854,9.9882 -6.52705,1.3826 -21.46216,1.8589 -25.99146,0.8289 z"
       id="path16-4"
       sodipodi:nodetypes="sssssssssssssssccccssssssssssssss" />
    <g
       id="g14">
      <path
         style="fill:#e6b533"
         d="m 747.5,1397.3659 c -1.1,-0.2935 -8.525,-2.1102 -16.5,-4.037 -14.18113,-3.4263 -43.32179,-12.5579 -45.43521,-14.2378 -0.58563,-0.4655 -2.18979,-1.1695 -3.56479,-1.5645 -9.88481,-2.8396 -55.24625,-26.5228 -80.49363,-42.0257 -38.40843,-23.5844 -81.22471,-56.0015 -114.98772,-87.0596 -31.22519,-28.7235 -71.38089,-71.776 -90.05297,-96.5493 -1.08112,-1.4344 -5.16475,-6.8344 -9.07472,-12 C 372.41681,1120.1091 345,1080.3764 345,1078.4586 c 0,-0.241 -1.93799,-3.4802 -4.30663,-7.1984 -4.3013,-6.7518 -19.26764,-33.5267 -26.13752,-46.7602 -8.80951,-16.9698 -21.37418,-45.6207 -27.62824,-63 -2.17713,-6.05 -4.39322,-11.9 -4.92464,-13 -2.13926,-4.42816 -9.57279,-28.27407 -14.18379,-45.5 -5.38628,-20.12222 -10.40509,-46.00163 -13.38121,-69 -2.36348,-18.26411 -3.21294,-61.3713 -7.08426,-359.5 -0.89989,-69.3 -1.96124,-150.3 -2.35856,-180 -0.39732,-29.7 -0.78377,-87.8625 -0.85877,-129.25 L 244,90 H 751.51101 1259.022 l -0.3203,85.75 c -0.288,77.08188 -1.7203,203.35442 -4.7499,418.75 -0.5724,40.7 -1.4594,107.075 -1.9711,147.5 -0.6328,50.00168 -1.3859,77.97587 -2.3555,87.5 -1.8887,18.55298 -5.4234,44.254 -6.6015,48 -0.5189,1.65 -1.4526,6.15 -2.0749,10 -3.7931,23.46617 -20.9517,80.84363 -29.9764,100.2391 -1.0848,2.33151 -1.9724,4.4937 -1.9724,4.80487 0,0.31116 -0.8471,2.45357 -1.8824,4.76089 -1.0354,2.30733 -3.3441,7.57014 -5.1305,11.69514 -5.0903,11.7539 -15.9112,33.2371 -24.9661,49.5662 -54.2018,97.7442 -138.5276,187.3593 -240.021,255.076 -32.89311,21.9464 -70.84629,43.5071 -97.5,55.3885 -2.75,1.2258 -9.275,4.2478 -14.5,6.7155 -19.07907,9.0107 -30.73693,13.7875 -44.5,18.234 -8.06746,2.6064 -12.02917,3.2973 -20.5,3.5752 -5.775,0.1894 -11.4,0.1041 -12.5,-0.1895 z m 30,-25.7551 c 14.27911,-4.9398 18.8666,-6.8232 35.86861,-14.7264 49.37254,-22.9503 77.23044,-38.4239 114.42101,-63.5551 74.64258,-50.439 137.55568,-110.6861 188.83138,-180.8293 57.2817,-78.3592 96.3434,-172.47377 107.9116,-260 4.1387,-31.31398 4.539,-39.6352 5.461,-113.5 0.5046,-40.425 1.3858,-106.8 1.9582,-147.5 3.1391,-223.18242 4.4382,-340.6505 4.4902,-406 l 0.058,-73 h -485 -485 l -0.25455,48 c -0.14001,26.4 0.1742,80.175 0.69824,119.5 0.52403,39.325 1.64199,126.4 2.48434,193.5 3.56004,283.58431 4.65323,339.65268 6.96059,357 3.21336,24.15889 7.71556,47.9409 12.11592,64 6.95383,25.37802 9.17989,32.31042 18.7849,58.5 14.93644,40.72659 34.82973,79.8716 64.0325,126 8.51454,13.4495 21.69429,31.87 42.14374,58.9016 1.08113,1.4291 6.24565,7.7734 11.47671,14.0984 68.49325,82.8168 155.92309,152.9001 243.08308,194.8544 26.65988,12.8326 43.57636,19.0047 70.09149,25.5731 17.9904,4.4567 24.53177,4.321 39.38304,-0.8167 z M 504.69183,588.25 c -0.23442,-0.4125 -7.34129,-26.65031 -15.79306,-58.30625 l -15.36685,-57.55626 -49.51596,28.38105 c -27.23378,15.60957 -50.56481,29.05658 -51.84675,29.88224 C 369.57557,532.32127 367,531.81939 367,529.6435 c 0,-0.78061 13.31177,-24.45796 29.58171,-52.61635 16.26994,-28.15839 29.37065,-51.40812 29.11269,-51.66608 -0.25795,-0.25796 -25.99167,-7.37667 -57.18604,-15.81937 -31.19436,-8.4427 -57.17983,-15.81317 -57.74547,-16.37881 -0.56565,-0.56565 -0.80022,-1.6212 -0.52128,-2.34567 0.30463,-0.79118 23.64341,-7.49985 58.44057,-16.79859 l 57.93338,-15.48138 -28.38257,-49.51862 C 382.62258,281.78338 369.17488,258.45115 368.34922,257.16921 366.67873,254.57557 367.18061,252 369.3565,252 c 0.78061,0 24.45796,13.31177 52.61635,29.58171 28.15839,16.26994 51.40812,29.37065 51.66608,29.11269 0.25796,-0.25795 7.37667,-25.99167 15.81937,-57.18604 8.4427,-31.19436 15.81317,-57.17983 16.37881,-57.74547 0.56565,-0.56565 1.6212,-0.80022 2.34567,-0.52128 0.79118,0.30463 7.49985,23.64341 16.79859,58.44057 l 15.48138,57.93338 49.51862,-28.38257 c 27.23525,-15.61041 50.56748,-29.05811 51.84942,-29.88377 2.59364,-1.67049 5.16921,-1.16861 5.16921,1.00728 0,0.78061 -13.31177,24.45796 -29.58171,52.61635 -16.26994,28.15839 -29.37065,51.40812 -29.11269,51.66608 0.25795,0.25796 25.99167,7.37667 57.18604,15.81937 31.19436,8.4427 57.17983,15.81317 57.74547,16.37881 0.56565,0.56565 0.80022,1.6212 0.52128,2.34567 -0.30463,0.79117 -23.64038,7.49904 -58.43263,16.79647 l -57.92545,15.47925 28.37504,49.52075 c 15.60628,27.23641 29.0504,50.5696 29.87584,51.85154 1.67011,2.59375 1.16804,5.16921 -1.00769,5.16921 -0.78061,0 -24.45796,-13.31177 -52.61635,-29.58171 -28.15839,-16.26994 -51.40853,-29.37024 -51.66698,-29.11179 -0.25845,0.25845 -7.19407,25.38272 -15.41249,55.83171 -8.21841,30.44898 -15.38407,56.37429 -15.92369,57.61179 -0.94727,2.17238 -3.45636,3.04115 -4.33216,1.5 z"
         id="path20" />
      <path
         style="fill:#3c8233"
         d="M 758,1032.5 V 706 H 523.16237 288.32474 l -0.72163,-63.25 c -0.81142,-71.12099 -3.37114,-270.74947 -4.58081,-357.25 -0.43841,-31.35 -0.84778,-79.6125 -0.90971,-107.25 L 282,128 h 238 238 v 289 289 h 228.15567 228.15563 l -0.6732,50.25 c -0.66,49.26527 -1.3065,60.57356 -5.1029,89.25 -8.3053,62.73467 -31.5801,131.67631 -64.4893,191.0215 -27.5631,49.7047 -60.8357,94.4102 -103.3922,138.9192 -49.42039,51.6879 -106.56123,96.1358 -172.6537,134.3015 -18.76478,10.8359 -65.20671,33.6196 -82.13139,40.2925 C 777.36547,1353.3872 760.7342,1359 759.30352,1359 758.23482,1359 758,1300.1824 758,1032.5 Z M 509.02399,586.75 c 0.53962,-1.2375 7.70528,-27.16281 15.92369,-57.61179 8.21842,-30.44899 15.15404,-55.57326 15.41249,-55.83171 0.25845,-0.25845 23.50859,12.84185 51.66698,29.11179 C 620.18554,518.68823 643.86289,532 644.6435,532 c 2.17573,0 2.6778,-2.57546 1.00769,-5.16921 -0.82544,-1.28194 -14.26956,-24.61513 -29.87584,-51.85154 l -28.37504,-49.52075 57.92545,-15.47925 c 34.79225,-9.29743 58.128,-16.0053 58.43263,-16.79647 0.27894,-0.72447 0.0444,-1.78002 -0.52128,-2.34567 -0.56564,-0.56564 -26.55111,-7.93611 -57.74547,-16.37881 -31.19437,-8.4427 -56.92809,-15.56141 -57.18604,-15.81937 -0.25796,-0.25796 12.84275,-23.50769 29.11269,-51.66608 C 633.68823,278.81446 647,255.13711 647,254.3565 c 0,-2.17589 -2.57557,-2.67777 -5.16921,-1.00728 -1.28194,0.82566 -24.61417,14.27336 -51.84942,29.88377 l -49.51862,28.38257 -15.48138,-57.93338 c -9.29874,-34.79716 -16.00741,-58.13594 -16.79859,-58.44057 -0.72447,-0.27894 -1.78002,-0.0444 -2.34567,0.52128 -0.56564,0.56564 -7.93611,26.55111 -16.37881,57.74547 -8.4427,31.19437 -15.56141,56.92809 -15.81937,57.18604 -0.25796,0.25796 -23.50769,-12.84275 -51.66608,-29.11269 C 393.81446,265.31177 370.13711,252 369.3565,252 c -2.17589,0 -2.67777,2.57557 -1.00728,5.16921 0.82566,1.28194 14.27336,24.61417 29.88377,51.84942 l 28.38257,49.51862 -57.93338,15.48138 c -34.79716,9.29874 -58.13594,16.00741 -58.44057,16.79859 -0.27894,0.72447 -0.0444,1.78002 0.52128,2.34567 0.56564,0.56564 26.55111,7.93611 57.74547,16.37881 31.19437,8.4427 56.92809,15.56141 57.18604,15.81937 0.25796,0.25796 -12.84275,23.50769 -29.11269,51.66608 C 380.31177,505.18554 367,528.86289 367,529.6435 c 0,2.17589 2.57557,2.67777 5.16921,1.00728 1.28194,-0.82566 24.61297,-14.27267 51.84675,-29.88224 l 49.51596,-28.38105 15.36685,57.55626 c 8.45177,31.65594 15.55864,57.89375 15.79306,58.30625 0.8758,1.54115 3.38489,0.67238 4.33216,-1.5 z M 229.30987,271.5 c 0.006,-3.3 0.1923,-4.52944 0.41486,-2.73209 0.22256,1.79735 0.21797,4.49735 -0.0102,6 -0.22818,1.50265 -0.41027,0.0321 -0.40466,-3.26791 z"
         id="path18" />
      <path
         style="fill:#000000"
         d="m 746.5,1412.3132 c -41.03263,-9.331 -62.68596,-16.5936 -92.5,-31.025 -61.00572,-29.5295 -124.17873,-72.7834 -176.49892,-120.8469 -32.04111,-29.4342 -73.79887,-74.1114 -93.0354,-99.5397 -27.30251,-36.0905 -40.63474,-55.3014 -55.42188,-79.8595 -5.53252,-9.1882 -24.31414,-42.9176 -28.8975,-51.8961 -3.08632,-6.046 -17.9065,-38.56362 -20.34776,-44.646 -9.16884,-22.84409 -17.51484,-46.71293 -22.72796,-65 -1.72469,-6.05 -3.7834,-13.25 -4.57492,-16 -0.79153,-2.75 -2.34983,-9.4272 -3.4629,-14.83821 -1.11307,-5.41102 -2.24539,-10.19682 -2.51628,-10.63512 -0.70862,-1.14657 -5.39273,-29.49987 -7.10822,-43.02667 -2.33048,-18.37597 -3.20094,-62.73455 -7.05455,-359.5 -0.89989,-69.3 -1.96124,-150.3 -2.35856,-180 -0.39732,-29.7 -0.78377,-91.4625 -0.85877,-137.25 L 229,75 h 522.51012 522.51008 l -0.3185,93.75 c -0.2857,84.07639 -1.6343,205.23622 -4.7499,426.75 -0.5724,40.7 -1.4572,107.075 -1.9662,147.5 -0.6433,51.08922 -1.3728,77.92118 -2.3926,88 -1.9111,18.88762 -5.3198,43.05626 -7.0518,50 -0.7546,3.025 -1.6683,7.525 -2.0305,10 -0.3621,2.475 -2.2349,11.025 -4.1616,19 -21.3804,88.49725 -62.5146,171.4503 -123.2245,248.5 -41.0287,52.0714 -96.9145,105.7517 -152.6246,146.6011 -14.3811,10.545 -41.74547,28.9958 -53.74951,36.2414 -12.41366,7.4928 -35.89928,21.1043 -40.25049,23.3278 -2.2,1.1242 -8.275,4.296 -13.5,7.0485 -10.9124,5.7485 -52.6336,25.0096 -64.5,29.7773 -11.28932,4.5358 -22.85447,8.2611 -31.00854,9.9882 -6.52705,1.3826 -21.46216,1.8589 -25.99146,0.8289 z m 34,-18.333 c 13.76307,-4.4465 25.42093,-9.2233 44.5,-18.234 5.225,-2.4677 11.75,-5.4897 14.5,-6.7155 12.83315,-5.7206 35.90113,-17.7276 51.5,-26.806 66.57023,-38.7433 121.1177,-80.9627 173.5867,-134.355 45.2072,-46.0027 82.9262,-96.0904 112.4343,-149.3035 9.0549,-16.3291 19.8758,-37.8123 24.9661,-49.5662 1.7864,-4.125 4.0951,-9.38781 5.1305,-11.69514 1.0353,-2.30732 1.8824,-4.44973 1.8824,-4.76089 0,-0.31117 0.8876,-2.47336 1.9724,-4.80487 2.1488,-4.61809 9.285,-24.38108 14.5298,-40.2391 5.776,-17.46377 12.6027,-43.79543 15.037,-58 0.8484,-4.95 1.9667,-10.35 2.4852,-12 1.1777,-3.7475 4.7129,-29.45483 6.6008,-48 0.9696,-9.52413 1.7227,-37.49832 2.3555,-87.5 0.5117,-40.425 1.3987,-106.8 1.9711,-147.5 3.0296,-215.39558 4.4619,-341.66812 4.7499,-418.75 L 1259.022,90 H 751.35102 243.68001 l 0.64714,128.57469 c 0.35593,70.71608 0.92147,129.01856 1.25675,129.56107 0.33529,0.5425 1.23879,57.54639 2.00779,126.6753 2.91236,261.80611 4.40961,340.35926 6.84628,359.18894 3.663,28.30632 11.2576,64.49627 18.04742,86 4.59104,14.54008 8.72778,26.78466 9.96635,29.5 0.75263,1.65 1.90288,5.025 2.55611,7.5 0.65323,2.475 1.52992,4.95 1.9482,5.5 0.41828,0.55 1.46738,3.025 2.33134,5.5 6.32575,18.12154 22.11705,51.3737 37.99163,80 20.6551,37.2469 34.56429,58.1351 69.18666,103.9016 19.01507,25.1356 58.82833,67.8167 90.05297,96.5397 50.79747,46.7278 113.50253,89.9784 170.98135,117.9338 6.6,3.21 13.575,6.6371 15.5,7.6159 1.925,0.9787 4.625,2.1089 6,2.5116 1.375,0.4026 4.85052,1.7927 7.72337,3.089 2.87286,1.2963 6.47286,2.6556 8,3.0206 1.52715,0.3649 3.22663,0.9904 3.77663,1.3899 1.42552,1.0354 19.82464,6.2721 34.5,9.8192 6.875,1.6618 13.4,3.2592 14.5,3.5499 1.1,0.2907 6.725,0.3736 12.5,0.1842 8.47083,-0.2779 12.43254,-0.9688 20.5,-3.5752 z m -42.38304,-21.5527 c -26.51513,-6.5684 -43.43161,-12.7405 -70.09149,-25.5731 C 580.86548,1304.9001 493.43564,1234.8168 424.94239,1152 c -5.23106,-6.325 -10.39558,-12.6693 -11.47671,-14.0984 -20.44945,-27.0316 -33.6292,-45.4521 -42.14374,-58.9016 -29.20277,-46.1284 -49.09606,-85.27341 -64.0325,-126 -9.60501,-26.18958 -11.83107,-33.12198 -18.7849,-58.5 -4.40036,-16.0591 -8.90256,-39.84111 -12.11592,-64 -2.30736,-17.34732 -3.40055,-73.41569 -6.96059,-357 -0.84235,-67.1 -1.96031,-154.175 -2.48434,-193.5 -0.52404,-39.325 -0.83825,-93.1 -0.69824,-119.5 l 0.25455,-48 h 485 485 l -0.058,73 c -0.052,65.3495 -1.3511,182.81758 -4.4902,406 -0.5724,40.7 -1.4536,107.075 -1.9582,147.5 -0.922,73.8648 -1.3223,82.18602 -5.461,113.5 -2.5098,18.98949 -8.7681,49.48665 -13.7489,67 -28.6483,100.7315 -81.1364,189.6775 -159.8782,270.9283 -59.18372,61.0696 -132.80378,115.2955 -204.4055,150.5578 -50.51486,24.8775 -72.5828,33.6904 -86.5,34.5443 -6.25298,0.3836 -9.89146,-0.1323 -21.88304,-3.1029 z m 32.43656,-16.8518 c 14.14864,-4.871 18.76999,-6.7674 35.81509,-14.6968 47.39032,-22.0461 73.49369,-36.5963 110.42101,-61.5496 97.28768,-65.7412 175.26908,-149.059 227.25628,-242.8078 32.9104,-59.3473 56.2026,-128.34324 64.4867,-191.0215 4.1387,-31.31398 4.539,-39.6352 5.461,-113.5 0.5046,-40.425 1.3858,-106.8 1.9582,-147.5 2.6297,-186.96208 4.4488,-338.14931 4.7498,-394.75 L 1221.0299,128 H 751.51497 282 l 0.13638,51.25 c 0.075,28.1875 0.46145,75.55 0.85877,105.25 0.39732,29.7 1.45867,110.7 2.35856,180 3.86879,297.93416 4.72439,341.58104 7.03737,359 3.20107,24.10708 7.71007,47.92984 12.11346,64 6.95383,25.37802 9.17989,32.31042 18.7849,58.5 14.74828,40.21352 33.08057,76.2678 62.0325,122 8.51454,13.4495 21.69429,31.87 42.14374,58.9016 18.25262,24.1277 55.43538,64.1364 84.53432,90.9589 63.55895,58.5869 144.47625,110.1492 204.5,130.312 13.80577,4.6375 36.57122,10.5879 41.05352,10.7304 1.67943,0.053 7.52943,-1.4438 13,-3.3272 z"
         id="path16" />
    </g>
  </g>
</svg>
